<svg xmlns="http://www.w3.org/2000/svg" version="1.1" preserveAspectRatio="xMidYMid meet" viewBox="0 0 410 440.6">
  <rect fill="blue" height="0.1" stroke="black" width="12" x="15" y="140.5"/>
  <text x="15" y="145.6" font-family="Tahoma" font-size="12" transform="rotate(90 15,145.6)" text-rendering="optimizeSpeed" fill="#000000">HP-UX (IA64N) (1)</text>
  <rect fill="blue" height="0.1" stroke="black" width="12" x="30" y="140.5"/>
  <text x="30" y="145.6" font-family="Tahoma" font-size="12" transform="rotate(90 30,145.6)" text-rendering="optimizeSpeed" fill="#000000">Linux (ppc) (1)</text>
  <rect fill="blue" height="0.1" stroke="black" width="12" x="45" y="140.5"/>
  <text x="45" y="145.6" font-family="Tahoma" font-size="12" transform="rotate(90 45,145.6)" text-rendering="optimizeSpeed" fill="#000000">Mac OS X (ppc) (1)</text>
  <rect fill="blue" height="0.1" stroke="black" width="12" x="60" y="140.5"/>
  <text x="60" y="145.6" font-family="Tahoma" font-size="12" transform="rotate(90 60,145.6)" text-rendering="optimizeSpeed" fill="#000000">SunOS (amd64) (1)</text>
  <rect fill="blue" height="0.2" stroke="black" width="12" x="75" y="140.4"/>
  <text x="75" y="145.6" font-family="Tahoma" font-size="12" transform="rotate(90 75,145.6)" text-rendering="optimizeSpeed" fill="#000000">AIX (ppc64) (2)</text>
  <rect fill="blue" height="0.2" stroke="black" width="12" x="90" y="140.4"/>
  <text x="90" y="145.6" font-family="Tahoma" font-size="12" transform="rotate(90 90,145.6)" text-rendering="optimizeSpeed" fill="#000000">SunOS (sparcv9) (2)</text>
  <rect fill="blue" height="0.3" stroke="black" width="12" x="105" y="140.3"/>
  <text x="105" y="145.6" font-family="Tahoma" font-size="12" transform="rotate(90 105,145.6)" text-rendering="optimizeSpeed" fill="#000000">FreeBSD (i386) (3)</text>
  <rect fill="blue" height="0.3" stroke="black" width="12" x="120" y="140.3"/>
  <text x="120" y="145.6" font-family="Tahoma" font-size="12" transform="rotate(90 120,145.6)" text-rendering="optimizeSpeed" fill="#000000">HP-UX (PA_RISC2.0) (3)</text>
  <rect fill="blue" height="0.3" stroke="black" width="12" x="135" y="140.3"/>
  <text x="135" y="145.6" font-family="Tahoma" font-size="12" transform="rotate(90 135,145.6)" text-rendering="optimizeSpeed" fill="#000000">Linux (ia64) (3)</text>
  <rect fill="blue" height="0.3" stroke="black" width="12" x="150" y="140.3"/>
  <text x="150" y="145.6" font-family="Tahoma" font-size="12" transform="rotate(90 150,145.6)" text-rendering="optimizeSpeed" fill="#000000">Mac OS X (x86_64) (3)</text>
  <rect fill="blue" height="0.4" stroke="black" width="12" x="165" y="140.2"/>
  <text x="165" y="145.6" font-family="Tahoma" font-size="12" transform="rotate(90 165,145.6)" text-rendering="optimizeSpeed" fill="#000000">AIX (ppc) (4)</text>
  <rect fill="blue" height="0.4" stroke="black" width="12" x="180" y="140.2"/>
  <text x="180" y="145.6" font-family="Tahoma" font-size="12" transform="rotate(90 180,145.6)" text-rendering="optimizeSpeed" fill="#000000">Windows Server 2008 (x86) (4)</text>
  <rect fill="blue" height="0.7" stroke="black" width="12" x="195" y="139.9"/>
  <text x="195" y="145.6" font-family="Tahoma" font-size="12" transform="rotate(90 195,145.6)" text-rendering="optimizeSpeed" fill="#000000">Linux (x86) (7)</text>
  <rect fill="blue" height="0.8" stroke="black" width="12" x="210" y="139.8"/>
  <text x="210" y="145.6" font-family="Tahoma" font-size="12" transform="rotate(90 210,145.6)" text-rendering="optimizeSpeed" fill="#000000">Windows 2000 (x86) (8)</text>
  <rect fill="blue" height="1.0" stroke="black" width="12" x="225" y="139.6"/>
  <text x="225" y="145.6" font-family="Tahoma" font-size="12" transform="rotate(90 225,145.6)" text-rendering="optimizeSpeed" fill="#000000">Windows Vista (x86) (10)</text>
  <rect fill="blue" height="1.1" stroke="black" width="12" x="240" y="139.5"/>
  <text x="240" y="145.6" font-family="Tahoma" font-size="12" transform="rotate(90 240,145.6)" text-rendering="optimizeSpeed" fill="#000000">Windows 2003 (amd64) (11)</text>
  <rect fill="blue" height="1.6" stroke="black" width="12" x="255" y="139.0"/>
  <text x="255" y="145.6" font-family="Tahoma" font-size="12" transform="rotate(90 255,145.6)" text-rendering="optimizeSpeed" fill="#000000">Mac OS X (i386) (16)</text>
  <rect fill="blue" height="2.0" stroke="black" width="12" x="270" y="138.6"/>
  <text x="270" y="145.6" font-family="Tahoma" font-size="12" transform="rotate(90 270,145.6)" text-rendering="optimizeSpeed" fill="#000000">SunOS (x86) (20)</text>
  <rect fill="blue" height="4.8" stroke="black" width="12" x="285" y="135.8"/>
  <text x="285" y="145.6" font-family="Tahoma" font-size="12" transform="rotate(90 285,145.6)" text-rendering="optimizeSpeed" fill="#000000">SunOS (sparc) (48)</text>
  <rect fill="blue" height="12.5" stroke="black" width="12" x="300" y="128.1"/>
  <text x="300" y="145.6" font-family="Tahoma" font-size="12" transform="rotate(90 300,145.6)" text-rendering="optimizeSpeed" fill="#000000">Windows 2003 (x86) (125)</text>
  <rect fill="blue" height="13.7" stroke="black" width="12" x="315" y="126.9"/>
  <text x="315" y="145.6" font-family="Tahoma" font-size="12" transform="rotate(90 315,145.6)" text-rendering="optimizeSpeed" fill="#000000">Linux (amd64) (137)</text>
  <rect fill="blue" height="14.9" stroke="black" width="12" x="330" y="125.7"/>
  <text x="330" y="145.6" font-family="Tahoma" font-size="12" transform="rotate(90 330,145.6)" text-rendering="optimizeSpeed" fill="#000000">Windows XP (x86) (149)</text>
  <rect fill="blue" height="35.3" stroke="black" width="12" x="345" y="105.3"/>
  <text x="345" y="145.6" font-family="Tahoma" font-size="12" transform="rotate(90 345,145.6)" text-rendering="optimizeSpeed" fill="#000000">Linux (i386) (353)</text>
  <rect fill="blue" height="90.6" stroke="black" width="12" x="360" y="50.0"/>
  <text x="360" y="145.6" font-family="Tahoma" font-size="12" transform="rotate(90 360,145.6)" text-rendering="optimizeSpeed" fill="#000000">N/A (906)</text>
  <text x="10" y="40" font-family="Tahoma" font-size="20" text-rendering="optimizeSpeed" fill="#000000">Nodes (total: 1818)</text>
</svg>
