<svg xmlns="http://www.w3.org/2000/svg" version="1.1" preserveAspectRatio="xMidYMid meet" viewBox="0 0 720 770">
  <text x="30" y="40" font-family="sans-serif" font-size="16">Nodes, total: 1818</text>
  <path d="M 200,300 L 0.0,150.0 A 150,150 0 0 1 4.8,150.0 Z" fill="BurlyWood" stroke="black" stroke-width="1"/>
  <rect x="370" y="50" width="20" height="30" fill="BurlyWood" stroke="black" stroke-width="1"/>
  <text x="400" y="38" font-family="sans-serif" font-size="16">AIX (ppc) (4)</text>
  <path d="M 200,300 L 4.8,150.0 A 150,150 0 0 1 7.3,150.0 Z" fill="CadetBlue" stroke="black" stroke-width="1"/>
  <rect x="370" y="51" width="20" height="30" fill="CadetBlue" stroke="black" stroke-width="1"/>
  <text x="400" y="68" font-family="sans-serif" font-size="16">AIX (ppc64) (2)</text>
  <path d="M 200,300 L 7.3,150.0 A 150,150 0 0 1 10.9,149.9 Z" fill="red" stroke="black" stroke-width="1"/>
  <rect x="370" y="52" width="20" height="30" fill="red" stroke="black" stroke-width="1"/>
  <text x="400" y="98" font-family="sans-serif" font-size="16">FreeBSD (i386) (3)</text>
  <path d="M 200,300 L 10.9,149.9 A 150,150 0 0 1 12.1,149.9 Z" fill="blue" stroke="black" stroke-width="1"/>
  <rect x="370" y="53" width="20" height="30" fill="blue" stroke="black" stroke-width="1"/>
  <text x="400" y="128" font-family="sans-serif" font-size="16">HP-UX (IA64N) (1)</text>
  <path d="M 200,300 L 12.1,149.9 A 150,150 0 0 1 15.7,149.8 Z" fill="yellow" stroke="black" stroke-width="1"/>
  <rect x="370" y="54" width="20" height="30" fill="yellow" stroke="black" stroke-width="1"/>
  <text x="400" y="158" font-family="sans-serif" font-size="16">HP-UX (PA_RISC2.0) (3)</text>
  <path d="M 200,300 L 15.7,149.8 A 150,150 0 0 1 173.4,130.3 Z" fill="green" stroke="black" stroke-width="1"/>
  <rect x="370" y="55" width="20" height="30" fill="green" stroke="black" stroke-width="1"/>
  <text x="400" y="188" font-family="sans-serif" font-size="16">Linux (amd64) (137)</text>
  <path d="M 200,300 L 173.4,130.3 A 150,150 0 0 1 345.1,-25.0 Z" fill="gold" stroke="black" stroke-width="1"/>
  <rect x="370" y="56" width="20" height="30" fill="gold" stroke="black" stroke-width="1"/>
  <text x="400" y="218" font-family="sans-serif" font-size="16">Linux (i386) (353)</text>
  <path d="M 200,300 L 345.1,-25.0 A 150,150 0 0 1 344.5,-26.6 Z" fill="brown" stroke="black" stroke-width="1"/>
  <rect x="370" y="57" width="20" height="30" fill="brown" stroke="black" stroke-width="1"/>
  <text x="400" y="248" font-family="sans-serif" font-size="16">Linux (ia64) (3)</text>
  <path d="M 200,300 L 344.5,-26.6 A 150,150 0 0 1 344.3,-27.1 Z" fill="Azure" stroke="black" stroke-width="1"/>
  <rect x="370" y="58" width="20" height="30" fill="Azure" stroke="black" stroke-width="1"/>
  <text x="400" y="278" font-family="sans-serif" font-size="16">Linux (ppc) (1)</text>
  <path d="M 200,300 L 344.3,-27.1 A 150,150 0 0 1 342.6,-30.6 Z" fill="pink" stroke="black" stroke-width="1"/>
  <rect x="370" y="59" width="20" height="30" fill="pink" stroke="black" stroke-width="1"/>
  <text x="400" y="308" font-family="sans-serif" font-size="16">Linux (x86) (7)</text>
  <path d="M 200,300 L 342.6,-30.6 A 150,150 0 0 1 338.2,-38.7 Z" fill="khaki" stroke="black" stroke-width="1"/>
  <rect x="370" y="60" width="20" height="30" fill="khaki" stroke="black" stroke-width="1"/>
  <text x="400" y="338" font-family="sans-serif" font-size="16">Mac OS X (i386) (16)</text>
  <path d="M 200,300 L 338.2,-38.7 A 150,150 0 0 1 337.8,-39.2 Z" fill="gray" stroke="black" stroke-width="1"/>
  <rect x="370" y="61" width="20" height="30" fill="gray" stroke="black" stroke-width="1"/>
  <text x="400" y="368" font-family="sans-serif" font-size="16">Mac OS X (ppc) (1)</text>
  <path d="M 200,300 L 337.8,-39.2 A 150,150 0 0 1 336.9,-40.7 Z" fill="Aqua" stroke="black" stroke-width="1"/>
  <rect x="370" y="62" width="20" height="30" fill="Aqua" stroke="black" stroke-width="1"/>
  <text x="400" y="398" font-family="sans-serif" font-size="16">Mac OS X (x86_64) (3)</text>
  <path d="M 200,300 L 336.9,-40.7 A 150,150 0 0 1 -337.8,39.2 Z" fill="Aquamarine" stroke="black" stroke-width="1"/>
  <rect x="370" y="63" width="20" height="30" fill="Aquamarine" stroke="black" stroke-width="1"/>
  <text x="400" y="428" font-family="sans-serif" font-size="16">N/A (906)</text>
  <path d="M 200,300 L -337.8,39.2 A 150,150 0 0 1 -337.5,39.7 Z" fill="beige" stroke="black" stroke-width="1"/>
  <rect x="370" y="64" width="20" height="30" fill="beige" stroke="black" stroke-width="1"/>
  <text x="400" y="458" font-family="sans-serif" font-size="16">SunOS (amd64) (1)</text>
  <path d="M 200,300 L -337.5,39.7 A 150,150 0 0 1 -317.6,63.0 Z" fill="blueviolet" stroke="black" stroke-width="1"/>
  <rect x="370" y="65" width="20" height="30" fill="blueviolet" stroke="black" stroke-width="1"/>
  <text x="400" y="488" font-family="sans-serif" font-size="16">SunOS (sparc) (48)</text>
  <path d="M 200,300 L -317.6,63.0 A 150,150 0 0 1 -316.6,64.0 Z" fill="Bisque" stroke="black" stroke-width="1"/>
  <rect x="370" y="66" width="20" height="30" fill="Bisque" stroke="black" stroke-width="1"/>
  <text x="400" y="518" font-family="sans-serif" font-size="16">SunOS (sparcv9) (2)</text>
  <path d="M 200,300 L -316.6,64.0 A 150,150 0 0 1 -305.5,73.2 Z" fill="coral" stroke="black" stroke-width="1"/>
  <rect x="370" y="67" width="20" height="30" fill="coral" stroke="black" stroke-width="1"/>
  <text x="400" y="548" font-family="sans-serif" font-size="16">SunOS (x86) (20)</text>
  <path d="M 200,300 L -305.5,73.2 A 150,150 0 0 1 -300.7,76.8 Z" fill="darkblue" stroke="black" stroke-width="1"/>
  <rect x="370" y="68" width="20" height="30" fill="darkblue" stroke="black" stroke-width="1"/>
  <text x="400" y="578" font-family="sans-serif" font-size="16">Windows 2000 (x86) (8)</text>
  <path d="M 200,300 L -300.7,76.8 A 150,150 0 0 1 -293.6,81.6 Z" fill="crimson" stroke="black" stroke-width="1"/>
  <rect x="370" y="69" width="20" height="30" fill="crimson" stroke="black" stroke-width="1"/>
  <text x="400" y="608" font-family="sans-serif" font-size="16">Windows 2003 (amd64) (11)</text>
  <path d="M 200,300 L -293.6,81.6 A 150,150 0 0 1 -186.9,126.8 Z" fill="cyan" stroke="black" stroke-width="1"/>
  <rect x="370" y="70" width="20" height="30" fill="cyan" stroke="black" stroke-width="1"/>
  <text x="400" y="638" font-family="sans-serif" font-size="16">Windows 2003 (x86) (125)</text>
  <path d="M 200,300 L -186.9,126.8 A 150,150 0 0 1 -182.8,127.9 Z" fill="darkred" stroke="black" stroke-width="1"/>
  <rect x="370" y="71" width="20" height="30" fill="darkred" stroke="black" stroke-width="1"/>
  <text x="400" y="668" font-family="sans-serif" font-size="16">Windows Server 2008 (x86) (4)</text>
  <path d="M 200,300 L -182.8,127.9 A 150,150 0 0 1 -172.4,130.5 Z" fill="ivory" stroke="black" stroke-width="1"/>
  <rect x="370" y="72" width="20" height="30" fill="ivory" stroke="black" stroke-width="1"/>
  <text x="400" y="698" font-family="sans-serif" font-size="16">Windows Vista (x86) (10)</text>
  <path d="M 200,300 L -172.4,130.5 A 150,150 0 0 1 -0.0,150.0 Z" fill="lime" stroke="black" stroke-width="1"/>
  <rect x="370" y="73" width="20" height="30" fill="lime" stroke="black" stroke-width="1"/>
  <text x="400" y="728" font-family="sans-serif" font-size="16">Windows XP (x86) (149)</text>
</svg>
