<svg xmlns="http://www.w3.org/2000/svg" version="1.1" preserveAspectRatio="xMidYMid meet" viewBox="0 0 2750 460.2">
  <rect fill="blue" height="0.0" stroke="black" width="12" x="15" y="160.2"/>
  <text x="15" y="165.2" font-family="Tahoma" font-size="12" transform="rotate(90 15,165.2)" text-rendering="optimizeSpeed" fill="#000000">mozmill (1)</text>
  <rect fill="blue" height="0.0" stroke="black" width="12" x="30" y="160.2"/>
  <text x="30" y="165.2" font-family="Tahoma" font-size="12" transform="rotate(90 30,165.2)" text-rendering="optimizeSpeed" fill="#000000">mysql-auth (1)</text>
  <rect fill="blue" height="0.0" stroke="black" width="12" x="45" y="160.2"/>
  <text x="45" y="165.2" font-family="Tahoma" font-size="12" transform="rotate(90 45,165.2)" text-rendering="optimizeSpeed" fill="#000000">svnpublisher (1)</text>
  <rect fill="blue" height="0.0" stroke="black" width="12" x="60" y="160.2"/>
  <text x="60" y="165.3" font-family="Tahoma" font-size="12" transform="rotate(90 60,165.3)" text-rendering="optimizeSpeed" fill="#000000">cmvc (2)</text>
  <rect fill="blue" height="0.0" stroke="black" width="12" x="75" y="160.2"/>
  <text x="75" y="165.3" font-family="Tahoma" font-size="12" transform="rotate(90 75,165.3)" text-rendering="optimizeSpeed" fill="#000000">cppncss (2)</text>
  <rect fill="blue" height="0.0" stroke="black" width="12" x="90" y="160.2"/>
  <text x="90" y="165.3" font-family="Tahoma" font-size="12" transform="rotate(90 90,165.3)" text-rendering="optimizeSpeed" fill="#000000">fitnesse (2)</text>
  <rect fill="blue" height="0.0" stroke="black" width="12" x="105" y="160.2"/>
  <text x="105" y="165.2" font-family="Tahoma" font-size="12" transform="rotate(90 105,165.2)" text-rendering="optimizeSpeed" fill="#000000">Schmant (3)</text>
  <rect fill="blue" height="0.0" stroke="black" width="12" x="120" y="160.2"/>
  <text x="120" y="165.2" font-family="Tahoma" font-size="12" transform="rotate(90 120,165.2)" text-rendering="optimizeSpeed" fill="#000000">secret (3)</text>
  <rect fill="blue" height="0.0" stroke="black" width="12" x="135" y="160.2"/>
  <text x="135" y="165.2" font-family="Tahoma" font-size="12" transform="rotate(90 135,165.2)" text-rendering="optimizeSpeed" fill="#000000">sfee (3)</text>
  <rect fill="blue" height="0.0" stroke="black" width="12" x="150" y="160.2"/>
  <text x="150" y="165.2" font-family="Tahoma" font-size="12" transform="rotate(90 150,165.2)" text-rendering="optimizeSpeed" fill="#000000">performance (4)</text>
  <rect fill="blue" height="0.1" stroke="black" width="12" x="165" y="160.2"/>
  <text x="165" y="165.2" font-family="Tahoma" font-size="12" transform="rotate(90 165,165.2)" text-rendering="optimizeSpeed" fill="#000000">SCTMExecutor (5)</text>
  <rect fill="blue" height="0.1" stroke="black" width="12" x="180" y="160.2"/>
  <text x="180" y="165.2" font-family="Tahoma" font-size="12" transform="rotate(90 180,165.2)" text-rendering="optimizeSpeed" fill="#000000">dbCharts (5)</text>
  <rect fill="blue" height="0.1" stroke="black" width="12" x="195" y="160.2"/>
  <text x="195" y="165.2" font-family="Tahoma" font-size="12" transform="rotate(90 195,165.2)" text-rendering="optimizeSpeed" fill="#000000">kundo (6)</text>
  <rect fill="blue" height="0.1" stroke="black" width="12" x="210" y="160.2"/>
  <text x="210" y="165.2" font-family="Tahoma" font-size="12" transform="rotate(90 210,165.2)" text-rendering="optimizeSpeed" fill="#000000">gnat (7)</text>
  <rect fill="blue" height="0.1" stroke="black" width="12" x="225" y="160.2"/>
  <text x="225" y="165.2" font-family="Tahoma" font-size="12" transform="rotate(90 225,165.2)" text-rendering="optimizeSpeed" fill="#000000">jsunit (7)</text>
  <rect fill="blue" height="0.1" stroke="black" width="12" x="240" y="160.2"/>
  <text x="240" y="165.2" font-family="Tahoma" font-size="12" transform="rotate(90 240,165.2)" text-rendering="optimizeSpeed" fill="#000000">harvest (8)</text>
  <rect fill="blue" height="0.1" stroke="black" width="12" x="255" y="160.1"/>
  <text x="255" y="165.2" font-family="Tahoma" font-size="12" transform="rotate(90 255,165.2)" text-rendering="optimizeSpeed" fill="#000000">kagemai (10)</text>
  <rect fill="blue" height="0.1" stroke="black" width="12" x="270" y="160.1"/>
  <text x="270" y="165.2" font-family="Tahoma" font-size="12" transform="rotate(90 270,165.2)" text-rendering="optimizeSpeed" fill="#000000">htmlpublisher (11)</text>
  <rect fill="blue" height="0.1" stroke="black" width="12" x="285" y="160.1"/>
  <text x="285" y="165.2" font-family="Tahoma" font-size="12" transform="rotate(90 285,165.2)" text-rendering="optimizeSpeed" fill="#000000">tuxdroid (11)</text>
  <rect fill="blue" height="0.1" stroke="black" width="12" x="300" y="160.1"/>
  <text x="300" y="165.2" font-family="Tahoma" font-size="12" transform="rotate(90 300,165.2)" text-rendering="optimizeSpeed" fill="#000000">bitkeeper (14)</text>
  <rect fill="blue" height="0.2" stroke="black" width="12" x="315" y="160.1"/>
  <text x="315" y="165.2" font-family="Tahoma" font-size="12" transform="rotate(90 315,165.2)" text-rendering="optimizeSpeed" fill="#000000">hadoop (17)</text>
  <rect fill="blue" height="0.2" stroke="black" width="12" x="330" y="160.1"/>
  <text x="330" y="165.2" font-family="Tahoma" font-size="12" transform="rotate(90 330,165.2)" text-rendering="optimizeSpeed" fill="#000000">platformlabeler (18)</text>
  <rect fill="blue" height="0.2" stroke="black" width="12" x="345" y="160.0"/>
  <text x="345" y="165.3" font-family="Tahoma" font-size="12" transform="rotate(90 345,165.3)" text-rendering="optimizeSpeed" fill="#000000">pvcs_scm (21)</text>
  <rect fill="blue" height="0.2" stroke="black" width="12" x="360" y="160.0"/>
  <text x="360" y="165.3" font-family="Tahoma" font-size="12" transform="rotate(90 360,165.3)" text-rendering="optimizeSpeed" fill="#000000">cygpath (24)</text>
  <rect fill="blue" height="0.2" stroke="black" width="12" x="375" y="160.0"/>
  <text x="375" y="165.2" font-family="Tahoma" font-size="12" transform="rotate(90 375,165.2)" text-rendering="optimizeSpeed" fill="#000000">locked-files-report (25)</text>
  <rect fill="blue" height="0.3" stroke="black" width="12" x="390" y="160.0"/>
  <text x="390" y="165.2" font-family="Tahoma" font-size="12" transform="rotate(90 390,165.2)" text-rendering="optimizeSpeed" fill="#000000">validating-string-parameter (26)</text>
  <rect fill="blue" height="0.3" stroke="black" width="12" x="405" y="160.0"/>
  <text x="405" y="165.2" font-family="Tahoma" font-size="12" transform="rotate(90 405,165.2)" text-rendering="optimizeSpeed" fill="#000000">windmill (26)</text>
  <rect fill="blue" height="0.3" stroke="black" width="12" x="420" y="160.0"/>
  <text x="420" y="165.2" font-family="Tahoma" font-size="12" transform="rotate(90 420,165.2)" text-rendering="optimizeSpeed" fill="#000000">drools (28)</text>
  <rect fill="blue" height="0.3" stroke="black" width="12" x="435" y="160.0"/>
  <text x="435" y="165.2" font-family="Tahoma" font-size="12" transform="rotate(90 435,165.2)" text-rendering="optimizeSpeed" fill="#000000">collabnet (29)</text>
  <rect fill="blue" height="0.3" stroke="black" width="12" x="450" y="159.9"/>
  <text x="450" y="165.2" font-family="Tahoma" font-size="12" transform="rotate(90 450,165.2)" text-rendering="optimizeSpeed" fill="#000000">javanet-uploader (30)</text>
  <rect fill="blue" height="0.3" stroke="black" width="12" x="465" y="159.9"/>
  <text x="465" y="165.2" font-family="Tahoma" font-size="12" transform="rotate(90 465,165.2)" text-rendering="optimizeSpeed" fill="#000000">translation (35)</text>
  <rect fill="blue" height="0.4" stroke="black" width="12" x="480" y="159.9"/>
  <text x="480" y="165.2" font-family="Tahoma" font-size="12" transform="rotate(90 480,165.2)" text-rendering="optimizeSpeed" fill="#000000">bazaar (36)</text>
  <rect fill="blue" height="0.4" stroke="black" width="12" x="495" y="159.9"/>
  <text x="495" y="165.2" font-family="Tahoma" font-size="12" transform="rotate(90 495,165.2)" text-rendering="optimizeSpeed" fill="#000000">scons (38)</text>
  <rect fill="blue" height="0.4" stroke="black" width="12" x="510" y="159.9"/>
  <text x="510" y="165.2" font-family="Tahoma" font-size="12" transform="rotate(90 510,165.2)" text-rendering="optimizeSpeed" fill="#000000">buckminster (39)</text>
  <rect fill="blue" height="0.4" stroke="black" width="12" x="525" y="159.9"/>
  <text x="525" y="165.2" font-family="Tahoma" font-size="12" transform="rotate(90 525,165.2)" text-rendering="optimizeSpeed" fill="#000000">distfork (39)</text>
  <rect fill="blue" height="0.4" stroke="black" width="12" x="540" y="159.9"/>
  <text x="540" y="165.2" font-family="Tahoma" font-size="12" transform="rotate(90 540,165.2)" text-rendering="optimizeSpeed" fill="#000000">javanet (39)</text>
  <rect fill="blue" height="0.4" stroke="black" width="12" x="555" y="159.9"/>
  <text x="555" y="165.2" font-family="Tahoma" font-size="12" transform="rotate(90 555,165.2)" text-rendering="optimizeSpeed" fill="#000000">pxe (39)</text>
  <rect fill="blue" height="0.4" stroke="black" width="12" x="570" y="159.8"/>
  <text x="570" y="165.2" font-family="Tahoma" font-size="12" transform="rotate(90 570,165.2)" text-rendering="optimizeSpeed" fill="#000000">synergy (41)</text>
  <rect fill="blue" height="0.4" stroke="black" width="12" x="585" y="159.8"/>
  <text x="585" y="165.2" font-family="Tahoma" font-size="12" transform="rotate(90 585,165.2)" text-rendering="optimizeSpeed" fill="#000000">backlog (44)</text>
  <rect fill="blue" height="0.5" stroke="black" width="12" x="600" y="159.8"/>
  <text x="600" y="165.2" font-family="Tahoma" font-size="12" transform="rotate(90 600,165.2)" text-rendering="optimizeSpeed" fill="#000000">jython (45)</text>
  <rect fill="blue" height="0.5" stroke="black" width="12" x="615" y="159.8"/>
  <text x="615" y="165.3" font-family="Tahoma" font-size="12" transform="rotate(90 615,165.3)" text-rendering="optimizeSpeed" fill="#000000">gallio (49)</text>
  <rect fill="blue" height="0.5" stroke="black" width="12" x="630" y="159.8"/>
  <text x="630" y="165.3" font-family="Tahoma" font-size="12" transform="rotate(90 630,165.3)" text-rendering="optimizeSpeed" fill="#000000">versionnumber (49)</text>
  <rect fill="blue" height="0.5" stroke="black" width="12" x="645" y="159.7"/>
  <text x="645" y="165.2" font-family="Tahoma" font-size="12" transform="rotate(90 645,165.2)" text-rendering="optimizeSpeed" fill="#000000">crowd (51)</text>
  <rect fill="blue" height="0.5" stroke="black" width="12" x="660" y="159.7"/>
  <text x="660" y="165.3" font-family="Tahoma" font-size="12" transform="rotate(90 660,165.3)" text-rendering="optimizeSpeed" fill="#000000">nabaztag (52)</text>
  <rect fill="blue" height="0.5" stroke="black" width="12" x="675" y="159.7"/>
  <text x="675" y="165.2" font-family="Tahoma" font-size="12" transform="rotate(90 675,165.2)" text-rendering="optimizeSpeed" fill="#000000">starteam (54)</text>
  <rect fill="blue" height="0.6" stroke="black" width="12" x="690" y="159.6"/>
  <text x="690" y="165.2" font-family="Tahoma" font-size="12" transform="rotate(90 690,165.2)" text-rendering="optimizeSpeed" fill="#000000">cmakebuilder (60)</text>
  <rect fill="blue" height="0.6" stroke="black" width="12" x="705" y="159.6"/>
  <text x="705" y="165.2" font-family="Tahoma" font-size="12" transform="rotate(90 705,165.2)" text-rendering="optimizeSpeed" fill="#000000">filesystem_scm (61)</text>
  <rect fill="blue" height="0.6" stroke="black" width="12" x="720" y="159.6"/>
  <text x="720" y="165.2" font-family="Tahoma" font-size="12" transform="rotate(90 720,165.2)" text-rendering="optimizeSpeed" fill="#000000">hgca (61)</text>
  <rect fill="blue" height="0.6" stroke="black" width="12" x="735" y="159.6"/>
  <text x="735" y="165.2" font-family="Tahoma" font-size="12" transform="rotate(90 735,165.2)" text-rendering="optimizeSpeed" fill="#000000">maven-info (61)</text>
  <rect fill="blue" height="0.7" stroke="black" width="12" x="750" y="159.6"/>
  <text x="750" y="165.2" font-family="Tahoma" font-size="12" transform="rotate(90 750,165.2)" text-rendering="optimizeSpeed" fill="#000000">easyant (65)</text>
  <rect fill="blue" height="0.8" stroke="black" width="12" x="765" y="159.5"/>
  <text x="765" y="165.2" font-family="Tahoma" font-size="12" transform="rotate(90 765,165.2)" text-rendering="optimizeSpeed" fill="#000000">ec2 (75)</text>
  <rect fill="blue" height="0.8" stroke="black" width="12" x="780" y="159.5"/>
  <text x="780" y="165.2" font-family="Tahoma" font-size="12" transform="rotate(90 780,165.2)" text-rendering="optimizeSpeed" fill="#000000">gradle (76)</text>
  <rect fill="blue" height="0.8" stroke="black" width="12" x="795" y="159.5"/>
  <text x="795" y="165.3" font-family="Tahoma" font-size="12" transform="rotate(90 795,165.3)" text-rendering="optimizeSpeed" fill="#000000">hudson-pview-plugin (77)</text>
  <rect fill="blue" height="0.8" stroke="black" width="12" x="810" y="159.5"/>
  <text x="810" y="165.2" font-family="Tahoma" font-size="12" transform="rotate(90 810,165.2)" text-rendering="optimizeSpeed" fill="#000000">swarm (79)</text>
  <rect fill="blue" height="0.8" stroke="black" width="12" x="825" y="159.4"/>
  <text x="825" y="165.2" font-family="Tahoma" font-size="12" transform="rotate(90 825,165.2)" text-rendering="optimizeSpeed" fill="#000000">accurev (81)</text>
  <rect fill="blue" height="0.8" stroke="black" width="12" x="840" y="159.4"/>
  <text x="840" y="165.2" font-family="Tahoma" font-size="12" transform="rotate(90 840,165.2)" text-rendering="optimizeSpeed" fill="#000000">svncompat14 (84)</text>
  <rect fill="blue" height="0.8" stroke="black" width="12" x="855" y="159.4"/>
  <text x="855" y="165.2" font-family="Tahoma" font-size="12" transform="rotate(90 855,165.2)" text-rendering="optimizeSpeed" fill="#000000">tfs (85)</text>
  <rect fill="blue" height="0.9" stroke="black" width="12" x="870" y="159.4"/>
  <text x="870" y="165.2" font-family="Tahoma" font-size="12" transform="rotate(90 870,165.2)" text-rendering="optimizeSpeed" fill="#000000">googleanalytics (87)</text>
  <rect fill="blue" height="0.9" stroke="black" width="12" x="885" y="159.4"/>
  <text x="885" y="165.2" font-family="Tahoma" font-size="12" transform="rotate(90 885,165.2)" text-rendering="optimizeSpeed" fill="#000000">cppcheck (88)</text>
  <rect fill="blue" height="0.9" stroke="black" width="12" x="900" y="159.4"/>
  <text x="900" y="165.2" font-family="Tahoma" font-size="12" transform="rotate(90 900,165.2)" text-rendering="optimizeSpeed" fill="#000000">grinder (88)</text>
  <rect fill="blue" height="0.9" stroke="black" width="12" x="915" y="159.4"/>
  <text x="915" y="165.2" font-family="Tahoma" font-size="12" transform="rotate(90 915,165.2)" text-rendering="optimizeSpeed" fill="#000000">googlecode (90)</text>
  <rect fill="blue" height="0.9" stroke="black" width="12" x="930" y="159.3"/>
  <text x="930" y="165.2" font-family="Tahoma" font-size="12" transform="rotate(90 930,165.2)" text-rendering="optimizeSpeed" fill="#000000">powershell (91)</text>
  <rect fill="blue" height="1.0" stroke="black" width="12" x="945" y="159.2"/>
  <text x="945" y="165.2" font-family="Tahoma" font-size="12" transform="rotate(90 945,165.2)" text-rendering="optimizeSpeed" fill="#000000">promoted-builds-simple (101)</text>
  <rect fill="blue" height="1.0" stroke="black" width="12" x="960" y="159.2"/>
  <text x="960" y="165.2" font-family="Tahoma" font-size="12" transform="rotate(90 960,165.2)" text-rendering="optimizeSpeed" fill="#000000">github (104)</text>
  <rect fill="blue" height="1.1" stroke="black" width="12" x="975" y="159.2"/>
  <text x="975" y="165.2" font-family="Tahoma" font-size="12" transform="rotate(90 975,165.2)" text-rendering="optimizeSpeed" fill="#000000">hudson-logaction-plugin (105)</text>
  <rect fill="blue" height="1.1" stroke="black" width="12" x="990" y="159.1"/>
  <text x="990" y="165.2" font-family="Tahoma" font-size="12" transform="rotate(90 990,165.2)" text-rendering="optimizeSpeed" fill="#000000">phing (110)</text>
  <rect fill="blue" height="1.1" stroke="black" width="12" x="1005" y="159.1"/>
  <text x="1005" y="165.2" font-family="Tahoma" font-size="12" transform="rotate(90 1005,165.2)" text-rendering="optimizeSpeed" fill="#000000">schedule-failed-builds (111)</text>
  <rect fill="blue" height="1.2" stroke="black" width="12" x="1020" y="159.1"/>
  <text x="1020" y="165.2" font-family="Tahoma" font-size="12" transform="rotate(90 1020,165.2)" text-rendering="optimizeSpeed" fill="#000000">javatest-report (119)</text>
  <rect fill="blue" height="1.2" stroke="black" width="12" x="1035" y="159.0"/>
  <text x="1035" y="165.3" font-family="Tahoma" font-size="12" transform="rotate(90 1035,165.3)" text-rendering="optimizeSpeed" fill="#000000">hudson-wsclean-plugin (121)</text>
  <rect fill="blue" height="1.3" stroke="black" width="12" x="1050" y="158.9"/>
  <text x="1050" y="165.2" font-family="Tahoma" font-size="12" transform="rotate(90 1050,165.2)" text-rendering="optimizeSpeed" fill="#000000">copyarchiver (131)</text>
  <rect fill="blue" height="1.3" stroke="black" width="12" x="1065" y="158.9"/>
  <text x="1065" y="165.2" font-family="Tahoma" font-size="12" transform="rotate(90 1065,165.2)" text-rendering="optimizeSpeed" fill="#000000">ncover (131)</text>
  <rect fill="blue" height="1.3" stroke="black" width="12" x="1080" y="158.9"/>
  <text x="1080" y="165.2" font-family="Tahoma" font-size="12" transform="rotate(90 1080,165.2)" text-rendering="optimizeSpeed" fill="#000000">xunit (131)</text>
  <rect fill="blue" height="1.4" stroke="black" width="12" x="1095" y="158.9"/>
  <text x="1095" y="165.2" font-family="Tahoma" font-size="12" transform="rotate(90 1095,165.2)" text-rendering="optimizeSpeed" fill="#000000">webtestpresenter (139)</text>
  <rect fill="blue" height="1.5" stroke="black" width="12" x="1110" y="158.7"/>
  <text x="1110" y="165.3" font-family="Tahoma" font-size="12" transform="rotate(90 1110,165.3)" text-rendering="optimizeSpeed" fill="#000000">japex (152)</text>
  <rect fill="blue" height="1.5" stroke="black" width="12" x="1125" y="158.7"/>
  <text x="1125" y="165.2" font-family="Tahoma" font-size="12" transform="rotate(90 1125,165.2)" text-rendering="optimizeSpeed" fill="#000000">regexemail (153)</text>
  <rect fill="blue" height="1.6" stroke="black" width="12" x="1140" y="158.7"/>
  <text x="1140" y="165.2" font-family="Tahoma" font-size="12" transform="rotate(90 1140,165.2)" text-rendering="optimizeSpeed" fill="#000000">cccc (156)</text>
  <rect fill="blue" height="1.6" stroke="black" width="12" x="1155" y="158.7"/>
  <text x="1155" y="165.2" font-family="Tahoma" font-size="12" transform="rotate(90 1155,165.2)" text-rendering="optimizeSpeed" fill="#000000">svncompat13 (159)</text>
  <rect fill="blue" height="1.6" stroke="black" width="12" x="1170" y="158.6"/>
  <text x="1170" y="165.2" font-family="Tahoma" font-size="12" transform="rotate(90 1170,165.2)" text-rendering="optimizeSpeed" fill="#000000">port-allocator (161)</text>
  <rect fill="blue" height="1.6" stroke="black" width="12" x="1185" y="158.6"/>
  <text x="1185" y="165.2" font-family="Tahoma" font-size="12" transform="rotate(90 1185,165.2)" text-rendering="optimizeSpeed" fill="#000000">vss (164)</text>
  <rect fill="blue" height="1.7" stroke="black" width="12" x="1200" y="158.6"/>
  <text x="1200" y="165.2" font-family="Tahoma" font-size="12" transform="rotate(90 1200,165.2)" text-rendering="optimizeSpeed" fill="#000000">gant (166)</text>
  <rect fill="blue" height="1.7" stroke="black" width="12" x="1215" y="158.6"/>
  <text x="1215" y="165.2" font-family="Tahoma" font-size="12" transform="rotate(90 1215,165.2)" text-rendering="optimizeSpeed" fill="#000000">postbuild-task (168)</text>
  <rect fill="blue" height="1.7" stroke="black" width="12" x="1230" y="158.6"/>
  <text x="1230" y="165.2" font-family="Tahoma" font-size="12" transform="rotate(90 1230,165.2)" text-rendering="optimizeSpeed" fill="#000000">chucknorris (169)</text>
  <rect fill="blue" height="1.7" stroke="black" width="12" x="1245" y="158.6"/>
  <text x="1245" y="165.2" font-family="Tahoma" font-size="12" transform="rotate(90 1245,165.2)" text-rendering="optimizeSpeed" fill="#000000">rubyMetrics (169)</text>
  <rect fill="blue" height="1.8" stroke="black" width="12" x="1260" y="158.5"/>
  <text x="1260" y="165.2" font-family="Tahoma" font-size="12" transform="rotate(90 1260,165.2)" text-rendering="optimizeSpeed" fill="#000000">selenium (175)</text>
  <rect fill="blue" height="1.8" stroke="black" width="12" x="1275" y="158.5"/>
  <text x="1275" y="165.2" font-family="Tahoma" font-size="12" transform="rotate(90 1275,165.2)" text-rendering="optimizeSpeed" fill="#000000">naginator (176)</text>
  <rect fill="blue" height="1.8" stroke="black" width="12" x="1290" y="158.5"/>
  <text x="1290" y="165.2" font-family="Tahoma" font-size="12" transform="rotate(90 1290,165.2)" text-rendering="optimizeSpeed" fill="#000000">hudsontrayapp (178)</text>
  <rect fill="blue" height="1.8" stroke="black" width="12" x="1305" y="158.4"/>
  <text x="1305" y="165.2" font-family="Tahoma" font-size="12" transform="rotate(90 1305,165.2)" text-rendering="optimizeSpeed" fill="#000000">zentimestamp (182)</text>
  <rect fill="blue" height="1.8" stroke="black" width="12" x="1320" y="158.4"/>
  <text x="1320" y="165.2" font-family="Tahoma" font-size="12" transform="rotate(90 1320,165.2)" text-rendering="optimizeSpeed" fill="#000000">python (183)</text>
  <rect fill="blue" height="1.9" stroke="black" width="12" x="1335" y="158.4"/>
  <text x="1335" y="165.2" font-family="Tahoma" font-size="12" transform="rotate(90 1335,165.2)" text-rendering="optimizeSpeed" fill="#000000">cppunit (190)</text>
  <rect fill="blue" height="2.1" stroke="black" width="12" x="1350" y="158.1"/>
  <text x="1350" y="165.2" font-family="Tahoma" font-size="12" transform="rotate(90 1350,165.2)" text-rendering="optimizeSpeed" fill="#000000">mstest (212)</text>
  <rect fill="blue" height="2.2" stroke="black" width="12" x="1365" y="158.1"/>
  <text x="1365" y="165.2" font-family="Tahoma" font-size="12" transform="rotate(90 1365,165.2)" text-rendering="optimizeSpeed" fill="#000000">selenium-aes (216)</text>
  <rect fill="blue" height="2.2" stroke="black" width="12" x="1380" y="158.1"/>
  <text x="1380" y="165.2" font-family="Tahoma" font-size="12" transform="rotate(90 1380,165.2)" text-rendering="optimizeSpeed" fill="#000000">testabilityexplorer (218)</text>
  <rect fill="blue" height="2.2" stroke="black" width="12" x="1395" y="158.1"/>
  <text x="1395" y="165.2" font-family="Tahoma" font-size="12" transform="rotate(90 1395,165.2)" text-rendering="optimizeSpeed" fill="#000000">doclinks (220)</text>
  <rect fill="blue" height="2.2" stroke="black" width="12" x="1410" y="158.0"/>
  <text x="1410" y="165.2" font-family="Tahoma" font-size="12" transform="rotate(90 1410,165.2)" text-rendering="optimizeSpeed" fill="#000000">jdepend (222)</text>
  <rect fill="blue" height="2.3" stroke="black" width="12" x="1425" y="158.0"/>
  <text x="1425" y="165.2" font-family="Tahoma" font-size="12" transform="rotate(90 1425,165.2)" text-rendering="optimizeSpeed" fill="#000000">viewVC (228)</text>
  <rect fill="blue" height="2.3" stroke="black" width="12" x="1440" y="157.9"/>
  <text x="1440" y="165.2" font-family="Tahoma" font-size="12" transform="rotate(90 1440,165.2)" text-rendering="optimizeSpeed" fill="#000000">ivy (233)</text>
  <rect fill="blue" height="2.4" stroke="black" width="12" x="1455" y="157.9"/>
  <text x="1455" y="165.2" font-family="Tahoma" font-size="12" transform="rotate(90 1455,165.2)" text-rendering="optimizeSpeed" fill="#000000">ircbot (236)</text>
  <rect fill="blue" height="2.4" stroke="black" width="12" x="1470" y="157.9"/>
  <text x="1470" y="165.2" font-family="Tahoma" font-size="12" transform="rotate(90 1470,165.2)" text-rendering="optimizeSpeed" fill="#000000">configurationslicing (238)</text>
  <rect fill="blue" height="2.4" stroke="black" width="12" x="1485" y="157.9"/>
  <text x="1485" y="165.2" font-family="Tahoma" font-size="12" transform="rotate(90 1485,165.2)" text-rendering="optimizeSpeed" fill="#000000">gcal (239)</text>
  <rect fill="blue" height="2.5" stroke="black" width="12" x="1500" y="157.8"/>
  <text x="1500" y="165.2" font-family="Tahoma" font-size="12" transform="rotate(90 1500,165.2)" text-rendering="optimizeSpeed" fill="#000000">vmware (245)</text>
  <rect fill="blue" height="2.6" stroke="black" width="12" x="1515" y="157.7"/>
  <text x="1515" y="165.2" font-family="Tahoma" font-size="12" transform="rotate(90 1515,165.2)" text-rendering="optimizeSpeed" fill="#000000">grails (257)</text>
  <rect fill="blue" height="2.6" stroke="black" width="12" x="1530" y="157.6"/>
  <text x="1530" y="165.2" font-family="Tahoma" font-size="12" transform="rotate(90 1530,165.2)" text-rendering="optimizeSpeed" fill="#000000">slave-status (265)</text>
  <rect fill="blue" height="2.7" stroke="black" width="12" x="1545" y="157.6"/>
  <text x="1545" y="165.2" font-family="Tahoma" font-size="12" transform="rotate(90 1545,165.2)" text-rendering="optimizeSpeed" fill="#000000">join (266)</text>
  <rect fill="blue" height="2.8" stroke="black" width="12" x="1560" y="157.5"/>
  <text x="1560" y="165.2" font-family="Tahoma" font-size="12" transform="rotate(90 1560,165.2)" text-rendering="optimizeSpeed" fill="#000000">cvs-tag (278)</text>
  <rect fill="blue" height="2.8" stroke="black" width="12" x="1575" y="157.5"/>
  <text x="1575" y="165.2" font-family="Tahoma" font-size="12" transform="rotate(90 1575,165.2)" text-rendering="optimizeSpeed" fill="#000000">URLSCM (279)</text>
  <rect fill="blue" height="2.8" stroke="black" width="12" x="1590" y="157.5"/>
  <text x="1590" y="165.2" font-family="Tahoma" font-size="12" transform="rotate(90 1590,165.2)" text-rendering="optimizeSpeed" fill="#000000">template-project (279)</text>
  <rect fill="blue" height="2.9" stroke="black" width="12" x="1605" y="157.3"/>
  <text x="1605" y="165.2" font-family="Tahoma" font-size="12" transform="rotate(90 1605,165.2)" text-rendering="optimizeSpeed" fill="#000000">polarion (292)</text>
  <rect fill="blue" height="3.0" stroke="black" width="12" x="1620" y="157.3"/>
  <text x="1620" y="165.3" font-family="Tahoma" font-size="12" transform="rotate(90 1620,165.3)" text-rendering="optimizeSpeed" fill="#000000">redmine (296)</text>
  <rect fill="blue" height="3.0" stroke="black" width="12" x="1635" y="157.2"/>
  <text x="1635" y="165.2" font-family="Tahoma" font-size="12" transform="rotate(90 1635,165.2)" text-rendering="optimizeSpeed" fill="#000000">xvnc (303)</text>
  <rect fill="blue" height="3.0" stroke="black" width="12" x="1650" y="157.2"/>
  <text x="1650" y="165.2" font-family="Tahoma" font-size="12" transform="rotate(90 1650,165.2)" text-rendering="optimizeSpeed" fill="#000000">ruby (305)</text>
  <rect fill="blue" height="3.1" stroke="black" width="12" x="1665" y="157.2"/>
  <text x="1665" y="165.2" font-family="Tahoma" font-size="12" transform="rotate(90 1665,165.2)" text-rendering="optimizeSpeed" fill="#000000">sectioned-view (309)</text>
  <rect fill="blue" height="3.1" stroke="black" width="12" x="1680" y="157.1"/>
  <text x="1680" y="165.2" font-family="Tahoma" font-size="12" transform="rotate(90 1680,165.2)" text-rendering="optimizeSpeed" fill="#000000">rake (310)</text>
  <rect fill="blue" height="3.1" stroke="black" width="12" x="1695" y="157.1"/>
  <text x="1695" y="165.2" font-family="Tahoma" font-size="12" transform="rotate(90 1695,165.2)" text-rendering="optimizeSpeed" fill="#000000">seleniumhq (312)</text>
  <rect fill="blue" height="3.1" stroke="black" width="12" x="1710" y="157.1"/>
  <text x="1710" y="165.2" font-family="Tahoma" font-size="12" transform="rotate(90 1710,165.2)" text-rendering="optimizeSpeed" fill="#000000">twitter (315)</text>
  <rect fill="blue" height="3.3" stroke="black" width="12" x="1725" y="157.0"/>
  <text x="1725" y="165.2" font-family="Tahoma" font-size="12" transform="rotate(90 1725,165.2)" text-rendering="optimizeSpeed" fill="#000000">url-change-trigger (328)</text>
  <rect fill="blue" height="3.3" stroke="black" width="12" x="1740" y="156.9"/>
  <text x="1740" y="165.2" font-family="Tahoma" font-size="12" transform="rotate(90 1740,165.2)" text-rendering="optimizeSpeed" fill="#000000">claim (330)</text>
  <rect fill="blue" height="3.3" stroke="black" width="12" x="1755" y="156.9"/>
  <text x="1755" y="165.2" font-family="Tahoma" font-size="12" transform="rotate(90 1755,165.2)" text-rendering="optimizeSpeed" fill="#000000">doxygen (332)</text>
  <rect fill="blue" height="3.4" stroke="black" width="12" x="1770" y="156.9"/>
  <text x="1770" y="165.2" font-family="Tahoma" font-size="12" transform="rotate(90 1770,165.2)" text-rendering="optimizeSpeed" fill="#000000">radiatorviewplugin (340)</text>
  <rect fill="blue" height="3.4" stroke="black" width="12" x="1785" y="156.8"/>
  <text x="1785" y="165.2" font-family="Tahoma" font-size="12" transform="rotate(90 1785,165.2)" text-rendering="optimizeSpeed" fill="#000000">build-publisher (342)</text>
  <rect fill="blue" height="3.4" stroke="black" width="12" x="1800" y="156.8"/>
  <text x="1800" y="165.2" font-family="Tahoma" font-size="12" transform="rotate(90 1800,165.2)" text-rendering="optimizeSpeed" fill="#000000">mantis (343)</text>
  <rect fill="blue" height="3.7" stroke="black" width="12" x="1815" y="156.5"/>
  <text x="1815" y="165.3" font-family="Tahoma" font-size="12" transform="rotate(90 1815,165.3)" text-rendering="optimizeSpeed" fill="#000000">locale (371)</text>
  <rect fill="blue" height="3.7" stroke="black" width="12" x="1830" y="156.5"/>
  <text x="1830" y="165.2" font-family="Tahoma" font-size="12" transform="rotate(90 1830,165.2)" text-rendering="optimizeSpeed" fill="#000000">nant (372)</text>
  <rect fill="blue" height="3.8" stroke="black" width="12" x="1845" y="156.5"/>
  <text x="1845" y="165.2" font-family="Tahoma" font-size="12" transform="rotate(90 1845,165.2)" text-rendering="optimizeSpeed" fill="#000000">javancss (376)</text>
  <rect fill="blue" height="3.8" stroke="black" width="12" x="1860" y="156.5"/>
  <text x="1860" y="165.2" font-family="Tahoma" font-size="12" transform="rotate(90 1860,165.2)" text-rendering="optimizeSpeed" fill="#000000">mercurial (378)</text>
  <rect fill="blue" height="3.9" stroke="black" width="12" x="1875" y="156.4"/>
  <text x="1875" y="165.2" font-family="Tahoma" font-size="12" transform="rotate(90 1875,165.2)" text-rendering="optimizeSpeed" fill="#000000">sloccount (389)</text>
  <rect fill="blue" height="4.0" stroke="black" width="12" x="1890" y="156.2"/>
  <text x="1890" y="165.2" font-family="Tahoma" font-size="12" transform="rotate(90 1890,165.2)" text-rendering="optimizeSpeed" fill="#000000">groovy (403)</text>
  <rect fill="blue" height="4.2" stroke="black" width="12" x="1905" y="156.1"/>
  <text x="1905" y="165.2" font-family="Tahoma" font-size="12" transform="rotate(90 1905,165.2)" text-rendering="optimizeSpeed" fill="#000000">crap4j (416)</text>
  <rect fill="blue" height="4.3" stroke="black" width="12" x="1920" y="156.0"/>
  <text x="1920" y="165.3" font-family="Tahoma" font-size="12" transform="rotate(90 1920,165.3)" text-rendering="optimizeSpeed" fill="#000000">ldapemail (427)</text>
  <rect fill="blue" height="4.3" stroke="black" width="12" x="1935" y="155.9"/>
  <text x="1935" y="165.2" font-family="Tahoma" font-size="12" transform="rotate(90 1935,165.2)" text-rendering="optimizeSpeed" fill="#000000">ftppublisher (433)</text>
  <rect fill="blue" height="4.5" stroke="black" width="12" x="1950" y="155.8"/>
  <text x="1950" y="165.2" font-family="Tahoma" font-size="12" transform="rotate(90 1950,165.2)" text-rendering="optimizeSpeed" fill="#000000">parameterized-trigger (450)</text>
  <rect fill="blue" height="4.6" stroke="black" width="12" x="1965" y="155.7"/>
  <text x="1965" y="165.2" font-family="Tahoma" font-size="12" transform="rotate(90 1965,165.2)" text-rendering="optimizeSpeed" fill="#000000">description-setter (457)</text>
  <rect fill="blue" height="4.6" stroke="black" width="12" x="1980" y="155.6"/>
  <text x="1980" y="165.2" font-family="Tahoma" font-size="12" transform="rotate(90 1980,165.2)" text-rendering="optimizeSpeed" fill="#000000">promoted-builds (460)</text>
  <rect fill="blue" height="4.8" stroke="black" width="12" x="1995" y="155.4"/>
  <text x="1995" y="165.2" font-family="Tahoma" font-size="12" transform="rotate(90 1995,165.2)" text-rendering="optimizeSpeed" fill="#000000">statusmonitor (485)</text>
  <rect fill="blue" height="4.9" stroke="black" width="12" x="2010" y="155.4"/>
  <text x="2010" y="165.2" font-family="Tahoma" font-size="12" transform="rotate(90 2010,165.2)" text-rendering="optimizeSpeed" fill="#000000">bugzilla (487)</text>
  <rect fill="blue" height="4.9" stroke="black" width="12" x="2025" y="155.3"/>
  <text x="2025" y="165.2" font-family="Tahoma" font-size="12" transform="rotate(90 2025,165.2)" text-rendering="optimizeSpeed" fill="#000000">changelog-history (493)</text>
  <rect fill="blue" height="4.9" stroke="black" width="12" x="2040" y="155.3"/>
  <text x="2040" y="165.2" font-family="Tahoma" font-size="12" transform="rotate(90 2040,165.2)" text-rendering="optimizeSpeed" fill="#000000">perforce (494)</text>
  <rect fill="blue" height="5.1" stroke="black" width="12" x="2055" y="155.2"/>
  <text x="2055" y="165.2" font-family="Tahoma" font-size="12" transform="rotate(90 2055,165.2)" text-rendering="optimizeSpeed" fill="#000000">clover (507)</text>
  <rect fill="blue" height="5.1" stroke="black" width="12" x="2070" y="155.1"/>
  <text x="2070" y="165.2" font-family="Tahoma" font-size="12" transform="rotate(90 2070,165.2)" text-rendering="optimizeSpeed" fill="#000000">sidebar-link (512)</text>
  <rect fill="blue" height="5.4" stroke="black" width="12" x="2085" y="154.9"/>
  <text x="2085" y="165.2" font-family="Tahoma" font-size="12" transform="rotate(90 2085,165.2)" text-rendering="optimizeSpeed" fill="#000000">clearcase (538)</text>
  <rect fill="blue" height="5.6" stroke="black" width="12" x="2100" y="154.7"/>
  <text x="2100" y="165.2" font-family="Tahoma" font-size="12" transform="rotate(90 2100,165.2)" text-rendering="optimizeSpeed" fill="#000000">plot (558)</text>
  <rect fill="blue" height="5.6" stroke="black" width="12" x="2115" y="154.6"/>
  <text x="2115" y="165.2" font-family="Tahoma" font-size="12" transform="rotate(90 2115,165.2)" text-rendering="optimizeSpeed" fill="#000000">dependencyanalyzer (560)</text>
  <rect fill="blue" height="6.0" stroke="black" width="12" x="2130" y="154.3"/>
  <text x="2130" y="165.3" font-family="Tahoma" font-size="12" transform="rotate(90 2130,165.3)" text-rendering="optimizeSpeed" fill="#000000">nunit (599)</text>
  <rect fill="blue" height="6.0" stroke="black" width="12" x="2145" y="154.2"/>
  <text x="2145" y="165.2" font-family="Tahoma" font-size="12" transform="rotate(90 2145,165.2)" text-rendering="optimizeSpeed" fill="#000000">m2-extra-steps (600)</text>
  <rect fill="blue" height="6.2" stroke="black" width="12" x="2160" y="154.1"/>
  <text x="2160" y="165.2" font-family="Tahoma" font-size="12" transform="rotate(90 2160,165.2)" text-rendering="optimizeSpeed" fill="#000000">locks-and-latches (616)</text>
  <rect fill="blue" height="6.4" stroke="black" width="12" x="2175" y="153.9"/>
  <text x="2175" y="165.2" font-family="Tahoma" font-size="12" transform="rotate(90 2175,165.2)" text-rendering="optimizeSpeed" fill="#000000">text-finder (639)</text>
  <rect fill="blue" height="6.4" stroke="black" width="12" x="2190" y="153.8"/>
  <text x="2190" y="165.2" font-family="Tahoma" font-size="12" transform="rotate(90 2190,165.2)" text-rendering="optimizeSpeed" fill="#000000">backup (644)</text>
  <rect fill="blue" height="6.5" stroke="black" width="12" x="2205" y="153.7"/>
  <text x="2205" y="165.2" font-family="Tahoma" font-size="12" transform="rotate(90 2205,165.2)" text-rendering="optimizeSpeed" fill="#000000">git (654)</text>
  <rect fill="blue" height="6.6" stroke="black" width="12" x="2220" y="153.6"/>
  <text x="2220" y="165.2" font-family="Tahoma" font-size="12" transform="rotate(90 2220,165.2)" text-rendering="optimizeSpeed" fill="#000000">jabber (661)</text>
  <rect fill="blue" height="7.4" stroke="black" width="12" x="2235" y="152.8"/>
  <text x="2235" y="165.2" font-family="Tahoma" font-size="12" transform="rotate(90 2235,165.2)" text-rendering="optimizeSpeed" fill="#000000">dry (742)</text>
  <rect fill="blue" height="7.5" stroke="black" width="12" x="2250" y="152.7"/>
  <text x="2250" y="165.2" font-family="Tahoma" font-size="12" transform="rotate(90 2250,165.2)" text-rendering="optimizeSpeed" fill="#000000">release (753)</text>
  <rect fill="blue" height="7.7" stroke="black" width="12" x="2265" y="152.6"/>
  <text x="2265" y="165.2" font-family="Tahoma" font-size="12" transform="rotate(90 2265,165.2)" text-rendering="optimizeSpeed" fill="#000000">svn-release-mgr (766)</text>
  <rect fill="blue" height="8.0" stroke="black" width="12" x="2280" y="152.3"/>
  <text x="2280" y="165.2" font-family="Tahoma" font-size="12" transform="rotate(90 2280,165.2)" text-rendering="optimizeSpeed" fill="#000000">audit-trail (797)</text>
  <rect fill="blue" height="8.1" stroke="black" width="12" x="2295" y="152.1"/>
  <text x="2295" y="165.2" font-family="Tahoma" font-size="12" transform="rotate(90 2295,165.2)" text-rendering="optimizeSpeed" fill="#000000">msbuild (811)</text>
  <rect fill="blue" height="8.8" stroke="black" width="12" x="2310" y="151.5"/>
  <text x="2310" y="165.2" font-family="Tahoma" font-size="12" transform="rotate(90 2310,165.2)" text-rendering="optimizeSpeed" fill="#000000">m2release (875)</text>
  <rect fill="blue" height="9.2" stroke="black" width="12" x="2325" y="151.1"/>
  <text x="2325" y="165.2" font-family="Tahoma" font-size="12" transform="rotate(90 2325,165.2)" text-rendering="optimizeSpeed" fill="#000000">trac (915)</text>
  <rect fill="blue" height="10.6" stroke="black" width="12" x="2340" y="149.6"/>
  <text x="2340" y="165.2" font-family="Tahoma" font-size="12" transform="rotate(90 2340,165.2)" text-rendering="optimizeSpeed" fill="#000000">scp (1064)</text>
  <rect fill="blue" height="11.9" stroke="black" width="12" x="2355" y="148.3"/>
  <text x="2355" y="165.2" font-family="Tahoma" font-size="12" transform="rotate(90 2355,165.2)" text-rendering="optimizeSpeed" fill="#000000">active-directory (1195)</text>
  <rect fill="blue" height="12.3" stroke="black" width="12" x="2370" y="147.9"/>
  <text x="2370" y="165.2" font-family="Tahoma" font-size="12" transform="rotate(90 2370,165.2)" text-rendering="optimizeSpeed" fill="#000000">sonar (1234)</text>
  <rect fill="blue" height="12.7" stroke="black" width="12" x="2385" y="147.6"/>
  <text x="2385" y="165.2" font-family="Tahoma" font-size="12" transform="rotate(90 2385,165.2)" text-rendering="optimizeSpeed" fill="#000000">emma (1266)</text>
  <rect fill="blue" height="12.7" stroke="black" width="12" x="2400" y="147.5"/>
  <text x="2400" y="165.3" font-family="Tahoma" font-size="12" transform="rotate(90 2400,165.3)" text-rendering="optimizeSpeed" fill="#000000">ci-game (1271)</text>
  <rect fill="blue" height="12.9" stroke="black" width="12" x="2415" y="147.4"/>
  <text x="2415" y="165.2" font-family="Tahoma" font-size="12" transform="rotate(90 2415,165.2)" text-rendering="optimizeSpeed" fill="#000000">build-timeout (1287)</text>
  <rect fill="blue" height="12.9" stroke="black" width="12" x="2430" y="147.4"/>
  <text x="2430" y="165.2" font-family="Tahoma" font-size="12" transform="rotate(90 2430,165.2)" text-rendering="optimizeSpeed" fill="#000000">svn-tag (1290)</text>
  <rect fill="blue" height="12.9" stroke="black" width="12" x="2445" y="147.3"/>
  <text x="2445" y="165.2" font-family="Tahoma" font-size="12" transform="rotate(90 2445,165.2)" text-rendering="optimizeSpeed" fill="#000000">deploy (1291)</text>
  <rect fill="blue" height="12.9" stroke="black" width="12" x="2460" y="147.3"/>
  <text x="2460" y="165.2" font-family="Tahoma" font-size="12" transform="rotate(90 2460,165.2)" text-rendering="optimizeSpeed" fill="#000000">jira (1292)</text>
  <rect fill="blue" height="13.6" stroke="black" width="12" x="2475" y="146.7"/>
  <text x="2475" y="165.2" font-family="Tahoma" font-size="12" transform="rotate(90 2475,165.2)" text-rendering="optimizeSpeed" fill="#000000">batch-task (1356)</text>
  <rect fill="blue" height="15.5" stroke="black" width="12" x="2490" y="144.7"/>
  <text x="2490" y="165.2" font-family="Tahoma" font-size="12" transform="rotate(90 2490,165.2)" text-rendering="optimizeSpeed" fill="#000000">violations (1554)</text>
  <rect fill="blue" height="16.0" stroke="black" width="12" x="2505" y="144.3"/>
  <text x="2505" y="165.3" font-family="Tahoma" font-size="12" transform="rotate(90 2505,165.3)" text-rendering="optimizeSpeed" fill="#000000">greenballs (1599)</text>
  <rect fill="blue" height="17.5" stroke="black" width="12" x="2520" y="142.7"/>
  <text x="2520" y="165.2" font-family="Tahoma" font-size="12" transform="rotate(90 2520,165.2)" text-rendering="optimizeSpeed" fill="#000000">emotional-hudson (1751)</text>
  <rect fill="blue" height="18.5" stroke="black" width="12" x="2535" y="141.7"/>
  <text x="2535" y="165.2" font-family="Tahoma" font-size="12" transform="rotate(90 2535,165.2)" text-rendering="optimizeSpeed" fill="#000000">disk-usage (1852)</text>
  <rect fill="blue" height="18.9" stroke="black" width="12" x="2550" y="141.3"/>
  <text x="2550" y="165.2" font-family="Tahoma" font-size="12" transform="rotate(90 2550,165.2)" text-rendering="optimizeSpeed" fill="#000000">tasks (1892)</text>
  <rect fill="blue" height="21.4" stroke="black" width="12" x="2565" y="138.9"/>
  <text x="2565" y="165.2" font-family="Tahoma" font-size="12" transform="rotate(90 2565,165.2)" text-rendering="optimizeSpeed" fill="#000000">warnings (2138)</text>
  <rect fill="blue" height="22.7" stroke="black" width="12" x="2580" y="137.5"/>
  <text x="2580" y="165.3" font-family="Tahoma" font-size="12" transform="rotate(90 2580,165.3)" text-rendering="optimizeSpeed" fill="#000000">pmd (2274)</text>
  <rect fill="blue" height="23.2" stroke="black" width="12" x="2595" y="137.0"/>
  <text x="2595" y="165.2" font-family="Tahoma" font-size="12" transform="rotate(90 2595,165.2)" text-rendering="optimizeSpeed" fill="#000000">cobertura (2323)</text>
  <rect fill="blue" height="25.7" stroke="black" width="12" x="2610" y="134.5"/>
  <text x="2610" y="165.2" font-family="Tahoma" font-size="12" transform="rotate(90 2610,165.2)" text-rendering="optimizeSpeed" fill="#000000">email-ext (2571)</text>
  <rect fill="blue" height="26.1" stroke="black" width="12" x="2625" y="134.2"/>
  <text x="2625" y="165.2" font-family="Tahoma" font-size="12" transform="rotate(90 2625,165.2)" text-rendering="optimizeSpeed" fill="#000000">checkstyle (2609)</text>
  <rect fill="blue" height="29.8" stroke="black" width="12" x="2640" y="130.5"/>
  <text x="2640" y="165.2" font-family="Tahoma" font-size="12" transform="rotate(90 2640,165.2)" text-rendering="optimizeSpeed" fill="#000000">findbugs (2975)</text>
  <rect fill="blue" height="64.4" stroke="black" width="12" x="2655" y="95.9"/>
  <text x="2655" y="165.2" font-family="Tahoma" font-size="12" transform="rotate(90 2655,165.2)" text-rendering="optimizeSpeed" fill="#000000">scis-ad (6437)</text>
  <rect fill="blue" height="92.3" stroke="black" width="12" x="2670" y="67.9"/>
  <text x="2670" y="165.2" font-family="Tahoma" font-size="12" transform="rotate(90 2670,165.2)" text-rendering="optimizeSpeed" fill="#000000">subversion (9230)</text>
  <rect fill="blue" height="107.0" stroke="black" width="12" x="2685" y="53.2"/>
  <text x="2685" y="165.2" font-family="Tahoma" font-size="12" transform="rotate(90 2685,165.2)" text-rendering="optimizeSpeed" fill="#000000">ssh-slaves (10701)</text>
  <rect fill="blue" height="110.2" stroke="black" width="12" x="2700" y="50.0"/>
  <text x="2700" y="165.2" font-family="Tahoma" font-size="12" transform="rotate(90 2700,165.2)" text-rendering="optimizeSpeed" fill="#000000">maven-plugin (11025)</text>
  <text x="10" y="40" font-family="Tahoma" font-size="20" text-rendering="optimizeSpeed" fill="#000000">Plugin installations (total: 108016)</text>
</svg>
