<svg xmlns="http://www.w3.org/2000/svg" version="1.1" preserveAspectRatio="xMidYMid meet" viewBox="0 0 620 447.0">
  <rect fill="blue" height="5.1" stroke="black" width="12" x="15" y="142.0"/>
  <text x="15" y="152.0" font-family="Tahoma" font-size="12" transform="rotate(90 15,152.0)" text-rendering="optimizeSpeed" fill="#000000">plot (506)</text>
  <rect fill="blue" height="5.2" stroke="black" width="12" x="30" y="141.8"/>
  <text x="30" y="152.0" font-family="Tahoma" font-size="12" transform="rotate(90 30,152.0)" text-rendering="optimizeSpeed" fill="#000000">promoted-builds (519)</text>
  <rect fill="blue" height="5.6" stroke="black" width="12" x="45" y="141.4"/>
  <text x="45" y="152.0" font-family="Tahoma" font-size="12" transform="rotate(90 45,152.0)" text-rendering="optimizeSpeed" fill="#000000">locks-and-latches (560)</text>
  <rect fill="blue" height="5.7" stroke="black" width="12" x="60" y="141.4"/>
  <text x="60" y="152.0" font-family="Tahoma" font-size="12" transform="rotate(90 60,152.0)" text-rendering="optimizeSpeed" fill="#000000">git (565)</text>
  <rect fill="blue" height="5.8" stroke="black" width="12" x="75" y="141.2"/>
  <text x="75" y="152.0" font-family="Tahoma" font-size="12" transform="rotate(90 75,152.0)" text-rendering="optimizeSpeed" fill="#000000">jabber (581)</text>
  <rect fill="blue" height="6.0" stroke="black" width="12" x="90" y="141.0"/>
  <text x="90" y="152.0" font-family="Tahoma" font-size="12" transform="rotate(90 90,152.0)" text-rendering="optimizeSpeed" fill="#000000">nunit (601)</text>
  <rect fill="blue" height="6.1" stroke="black" width="12" x="105" y="141.0"/>
  <text x="105" y="152.0" font-family="Tahoma" font-size="12" transform="rotate(90 105,152.0)" text-rendering="optimizeSpeed" fill="#000000">text-finder (607)</text>
  <rect fill="blue" height="6.4" stroke="black" width="12" x="120" y="140.6"/>
  <text x="120" y="152.0" font-family="Tahoma" font-size="12" transform="rotate(90 120,152.0)" text-rendering="optimizeSpeed" fill="#000000">dry (641)</text>
  <rect fill="blue" height="6.6" stroke="black" width="12" x="135" y="140.4"/>
  <text x="135" y="152.0" font-family="Tahoma" font-size="12" transform="rotate(90 135,152.0)" text-rendering="optimizeSpeed" fill="#000000">release (658)</text>
  <rect fill="blue" height="6.7" stroke="black" width="12" x="150" y="140.4"/>
  <text x="150" y="152.0" font-family="Tahoma" font-size="12" transform="rotate(90 150,152.0)" text-rendering="optimizeSpeed" fill="#000000">svn-release-mgr (666)</text>
  <rect fill="blue" height="6.9" stroke="black" width="12" x="165" y="140.2"/>
  <text x="165" y="152.0" font-family="Tahoma" font-size="12" transform="rotate(90 165,152.0)" text-rendering="optimizeSpeed" fill="#000000">audit-trail (687)</text>
  <rect fill="blue" height="7.0" stroke="black" width="12" x="180" y="140.0"/>
  <text x="180" y="152.0" font-family="Tahoma" font-size="12" transform="rotate(90 180,152.0)" text-rendering="optimizeSpeed" fill="#000000">m2release (705)</text>
  <rect fill="blue" height="7.8" stroke="black" width="12" x="195" y="139.3"/>
  <text x="195" y="152.0" font-family="Tahoma" font-size="12" transform="rotate(90 195,152.0)" text-rendering="optimizeSpeed" fill="#000000">msbuild (777)</text>
  <rect fill="blue" height="8.9" stroke="black" width="12" x="210" y="138.1"/>
  <text x="210" y="152.0" font-family="Tahoma" font-size="12" transform="rotate(90 210,152.0)" text-rendering="optimizeSpeed" fill="#000000">trac (889)</text>
  <rect fill="blue" height="10.1" stroke="black" width="12" x="225" y="137.0"/>
  <text x="225" y="152.0" font-family="Tahoma" font-size="12" transform="rotate(90 225,152.0)" text-rendering="optimizeSpeed" fill="#000000">scp (1007)</text>
  <rect fill="blue" height="10.8" stroke="black" width="12" x="240" y="136.2"/>
  <text x="240" y="152.0" font-family="Tahoma" font-size="12" transform="rotate(90 240,152.0)" text-rendering="optimizeSpeed" fill="#000000">sonar (1081)</text>
  <rect fill="blue" height="10.9" stroke="black" width="12" x="255" y="136.1"/>
  <text x="255" y="152.0" font-family="Tahoma" font-size="12" transform="rotate(90 255,152.0)" text-rendering="optimizeSpeed" fill="#000000">active-directory (1089)</text>
  <rect fill="blue" height="11.3" stroke="black" width="12" x="270" y="135.7"/>
  <text x="270" y="152.0" font-family="Tahoma" font-size="12" transform="rotate(90 270,152.0)" text-rendering="optimizeSpeed" fill="#000000">ci-game (1132)</text>
  <rect fill="blue" height="11.8" stroke="black" width="12" x="285" y="135.2"/>
  <text x="285" y="152.0" font-family="Tahoma" font-size="12" transform="rotate(90 285,152.0)" text-rendering="optimizeSpeed" fill="#000000">emma (1183)</text>
  <rect fill="blue" height="11.9" stroke="black" width="12" x="300" y="135.1"/>
  <text x="300" y="152.0" font-family="Tahoma" font-size="12" transform="rotate(90 300,152.0)" text-rendering="optimizeSpeed" fill="#000000">build-timeout (1195)</text>
  <rect fill="blue" height="12.1" stroke="black" width="12" x="315" y="134.9"/>
  <text x="315" y="152.0" font-family="Tahoma" font-size="12" transform="rotate(90 315,152.0)" text-rendering="optimizeSpeed" fill="#000000">jira (1214)</text>
  <rect fill="blue" height="12.2" stroke="black" width="12" x="330" y="134.9"/>
  <text x="330" y="152.0" font-family="Tahoma" font-size="12" transform="rotate(90 330,152.0)" text-rendering="optimizeSpeed" fill="#000000">deploy (1217)</text>
  <rect fill="blue" height="12.6" stroke="black" width="12" x="345" y="134.4"/>
  <text x="345" y="152.0" font-family="Tahoma" font-size="12" transform="rotate(90 345,152.0)" text-rendering="optimizeSpeed" fill="#000000">svn-tag (1263)</text>
  <rect fill="blue" height="12.6" stroke="black" width="12" x="360" y="134.4"/>
  <text x="360" y="152.0" font-family="Tahoma" font-size="12" transform="rotate(90 360,152.0)" text-rendering="optimizeSpeed" fill="#000000">batch-task (1264)</text>
  <rect fill="blue" height="13.8" stroke="black" width="12" x="375" y="133.3"/>
  <text x="375" y="152.0" font-family="Tahoma" font-size="12" transform="rotate(90 375,152.0)" text-rendering="optimizeSpeed" fill="#000000">greenballs (1376)</text>
  <rect fill="blue" height="14.2" stroke="black" width="12" x="390" y="132.9"/>
  <text x="390" y="152.0" font-family="Tahoma" font-size="12" transform="rotate(90 390,152.0)" text-rendering="optimizeSpeed" fill="#000000">violations (1416)</text>
  <rect fill="blue" height="16.4" stroke="black" width="12" x="405" y="130.6"/>
  <text x="405" y="152.0" font-family="Tahoma" font-size="12" transform="rotate(90 405,152.0)" text-rendering="optimizeSpeed" fill="#000000">disk-usage (1641)</text>
  <rect fill="blue" height="16.9" stroke="black" width="12" x="420" y="130.1"/>
  <text x="420" y="152.0" font-family="Tahoma" font-size="12" transform="rotate(90 420,152.0)" text-rendering="optimizeSpeed" fill="#000000">emotional-hudson (1688)</text>
  <rect fill="blue" height="18.5" stroke="black" width="12" x="435" y="128.5"/>
  <text x="435" y="152.0" font-family="Tahoma" font-size="12" transform="rotate(90 435,152.0)" text-rendering="optimizeSpeed" fill="#000000">tasks (1849)</text>
  <rect fill="blue" height="20.6" stroke="black" width="12" x="450" y="126.5"/>
  <text x="450" y="152.0" font-family="Tahoma" font-size="12" transform="rotate(90 450,152.0)" text-rendering="optimizeSpeed" fill="#000000">pmd (2057)</text>
  <rect fill="blue" height="20.7" stroke="black" width="12" x="465" y="126.3"/>
  <text x="465" y="152.0" font-family="Tahoma" font-size="12" transform="rotate(90 465,152.0)" text-rendering="optimizeSpeed" fill="#000000">warnings (2073)</text>
  <rect fill="blue" height="20.8" stroke="black" width="12" x="480" y="126.2"/>
  <text x="480" y="152.0" font-family="Tahoma" font-size="12" transform="rotate(90 480,152.0)" text-rendering="optimizeSpeed" fill="#000000">cobertura (2078)</text>
  <rect fill="blue" height="23.4" stroke="black" width="12" x="495" y="123.6"/>
  <text x="495" y="152.0" font-family="Tahoma" font-size="12" transform="rotate(90 495,152.0)" text-rendering="optimizeSpeed" fill="#000000">email-ext (2342)</text>
  <rect fill="blue" height="23.8" stroke="black" width="12" x="510" y="123.2"/>
  <text x="510" y="152.0" font-family="Tahoma" font-size="12" transform="rotate(90 510,152.0)" text-rendering="optimizeSpeed" fill="#000000">checkstyle (2379)</text>
  <rect fill="blue" height="27.7" stroke="black" width="12" x="525" y="119.3"/>
  <text x="525" y="152.0" font-family="Tahoma" font-size="12" transform="rotate(90 525,152.0)" text-rendering="optimizeSpeed" fill="#000000">findbugs (2774)</text>
  <rect fill="blue" height="62.8" stroke="black" width="12" x="540" y="84.2"/>
  <text x="540" y="152.0" font-family="Tahoma" font-size="12" transform="rotate(90 540,152.0)" text-rendering="optimizeSpeed" fill="#000000">subversion (6282)</text>
  <rect fill="blue" height="90.3" stroke="black" width="12" x="555" y="56.7"/>
  <text x="555" y="152.0" font-family="Tahoma" font-size="12" transform="rotate(90 555,152.0)" text-rendering="optimizeSpeed" fill="#000000">ssh-slaves (9032)</text>
  <rect fill="blue" height="97.0" stroke="black" width="12" x="570" y="50.0"/>
  <text x="570" y="152.0" font-family="Tahoma" font-size="12" transform="rotate(90 570,152.0)" text-rendering="optimizeSpeed" fill="#000000">maven-plugin (9703)</text>
  <text x="10" y="40" font-family="Tahoma" font-size="20" text-rendering="optimizeSpeed" fill="#000000">Plugin installations (installations &gt; 500)</text>
</svg>
