<svg xmlns="http://www.w3.org/2000/svg" version="1.1" preserveAspectRatio="xMidYMid meet" viewBox="0 0 155 460.2">
  <rect fill="blue" height="25.7" stroke="black" width="12" x="15" y="134.5"/>
  <text x="15" y="165.2" font-family="Tahoma" font-size="12" transform="rotate(90 15,165.2)" text-rendering="optimizeSpeed" fill="#000000">email-ext (2571)</text>
  <rect fill="blue" height="26.1" stroke="black" width="12" x="30" y="134.2"/>
  <text x="30" y="165.2" font-family="Tahoma" font-size="12" transform="rotate(90 30,165.2)" text-rendering="optimizeSpeed" fill="#000000">checkstyle (2609)</text>
  <rect fill="blue" height="29.8" stroke="black" width="12" x="45" y="130.5"/>
  <text x="45" y="165.2" font-family="Tahoma" font-size="12" transform="rotate(90 45,165.2)" text-rendering="optimizeSpeed" fill="#000000">findbugs (2975)</text>
  <rect fill="blue" height="64.4" stroke="black" width="12" x="60" y="95.9"/>
  <text x="60" y="165.2" font-family="Tahoma" font-size="12" transform="rotate(90 60,165.2)" text-rendering="optimizeSpeed" fill="#000000">scis-ad (6437)</text>
  <rect fill="blue" height="92.3" stroke="black" width="12" x="75" y="67.9"/>
  <text x="75" y="165.2" font-family="Tahoma" font-size="12" transform="rotate(90 75,165.2)" text-rendering="optimizeSpeed" fill="#000000">subversion (9230)</text>
  <rect fill="blue" height="107.0" stroke="black" width="12" x="90" y="53.2"/>
  <text x="90" y="165.2" font-family="Tahoma" font-size="12" transform="rotate(90 90,165.2)" text-rendering="optimizeSpeed" fill="#000000">ssh-slaves (10701)</text>
  <rect fill="blue" height="110.2" stroke="black" width="12" x="105" y="50.0"/>
  <text x="105" y="165.2" font-family="Tahoma" font-size="12" transform="rotate(90 105,165.2)" text-rendering="optimizeSpeed" fill="#000000">maven-plugin (11025)</text>
  <text x="10" y="40" font-family="Tahoma" font-size="20" text-rendering="optimizeSpeed" fill="#000000">Plugin installations (installations &gt; 2500)</text>
</svg>
