<svg xmlns="http://www.w3.org/2000/svg" version="1.1" preserveAspectRatio="xMidYMid meet" viewBox="0 0 275 419.8">
  <rect fill="blue" height="10.0" stroke="black" width="12" x="15" y="109.8"/>
  <text x="15" y="124.8" font-family="Tahoma" font-size="12" transform="rotate(90 15,124.8)" text-rendering="optimizeSpeed" fill="#000000">1.264 (100)</text>
  <rect fill="blue" height="16.5" stroke="black" width="12" x="30" y="103.3"/>
  <text x="30" y="124.8" font-family="Tahoma" font-size="12" transform="rotate(90 30,124.8)" text-rendering="optimizeSpeed" fill="#000000">1.265 (165)</text>
  <rect fill="blue" height="18.6" stroke="black" width="12" x="45" y="101.2"/>
  <text x="45" y="124.8" font-family="Tahoma" font-size="12" transform="rotate(90 45,124.8)" text-rendering="optimizeSpeed" fill="#000000">1.266 (186)</text>
  <rect fill="blue" height="4.5" stroke="black" width="12" x="60" y="115.3"/>
  <text x="60" y="124.8" font-family="Tahoma" font-size="12" transform="rotate(90 60,124.8)" text-rendering="optimizeSpeed" fill="#000000">1.267 (45)</text>
  <rect fill="blue" height="41.1" stroke="black" width="12" x="75" y="78.7"/>
  <text x="75" y="124.8" font-family="Tahoma" font-size="12" transform="rotate(90 75,124.8)" text-rendering="optimizeSpeed" fill="#000000">1.268 (411)</text>
  <rect fill="blue" height="65.0" stroke="black" width="12" x="90" y="54.8"/>
  <text x="90" y="124.8" font-family="Tahoma" font-size="12" transform="rotate(90 90,124.8)" text-rendering="optimizeSpeed" fill="#000000">1.270 (650)</text>
  <rect fill="blue" height="2.8" stroke="black" width="12" x="105" y="117.0"/>
  <text x="105" y="124.8" font-family="Tahoma" font-size="12" transform="rotate(90 105,124.8)" text-rendering="optimizeSpeed" fill="#000000">1.271 (28)</text>
  <rect fill="blue" height="3.6" stroke="black" width="12" x="120" y="116.2"/>
  <text x="120" y="124.8" font-family="Tahoma" font-size="12" transform="rotate(90 120,124.8)" text-rendering="optimizeSpeed" fill="#000000">1.272 (36)</text>
  <rect fill="blue" height="23.5" stroke="black" width="12" x="135" y="96.3"/>
  <text x="135" y="124.8" font-family="Tahoma" font-size="12" transform="rotate(90 135,124.8)" text-rendering="optimizeSpeed" fill="#000000">1.273 (235)</text>
  <rect fill="blue" height="49.7" stroke="black" width="12" x="150" y="70.1"/>
  <text x="150" y="124.8" font-family="Tahoma" font-size="12" transform="rotate(90 150,124.8)" text-rendering="optimizeSpeed" fill="#000000">1.274 (497)</text>
  <rect fill="blue" height="19.2" stroke="black" width="12" x="165" y="100.6"/>
  <text x="165" y="124.8" font-family="Tahoma" font-size="12" transform="rotate(90 165,124.8)" text-rendering="optimizeSpeed" fill="#000000">1.275 (192)</text>
  <rect fill="blue" height="48.8" stroke="black" width="12" x="180" y="71.0"/>
  <text x="180" y="124.8" font-family="Tahoma" font-size="12" transform="rotate(90 180,124.8)" text-rendering="optimizeSpeed" fill="#000000">1.276 (488)</text>
  <rect fill="blue" height="58.4" stroke="black" width="12" x="195" y="61.4"/>
  <text x="195" y="124.8" font-family="Tahoma" font-size="12" transform="rotate(90 195,124.8)" text-rendering="optimizeSpeed" fill="#000000">1.277 (584)</text>
  <rect fill="blue" height="69.8" stroke="black" width="12" x="210" y="50.0"/>
  <text x="210" y="124.8" font-family="Tahoma" font-size="12" transform="rotate(90 210,124.8)" text-rendering="optimizeSpeed" fill="#000000">1.278 (698)</text>
  <rect fill="blue" height="40.9" stroke="black" width="12" x="225" y="78.9"/>
  <text x="225" y="124.8" font-family="Tahoma" font-size="12" transform="rotate(90 225,124.8)" text-rendering="optimizeSpeed" fill="#000000">1.279 (409)</text>
  <text x="10" y="40" font-family="Tahoma" font-size="20" text-rendering="optimizeSpeed" fill="#000000">Jenkins installations (total: 4724)</text>
</svg>
