<svg xmlns="http://www.w3.org/2000/svg" version="1.1" preserveAspectRatio="xMidYMid meet" viewBox="0 0 290 392.7">
  <rect fill="blue" height="10.0" stroke="black" width="12" x="15" y="82.7"/>
  <text x="15" y="97.7" font-family="Tahoma" font-size="12" transform="rotate(90 15,97.7)" text-rendering="optimizeSpeed" fill="#000000">ci-game (1002)</text>
  <rect fill="blue" height="10.2" stroke="black" width="12" x="30" y="82.6"/>
  <text x="30" y="97.7" font-family="Tahoma" font-size="12" transform="rotate(90 30,97.7)" text-rendering="optimizeSpeed" fill="#000000">svn-tag (1016)</text>
  <rect fill="blue" height="10.8" stroke="black" width="12" x="45" y="81.9"/>
  <text x="45" y="97.7" font-family="Tahoma" font-size="12" transform="rotate(90 45,97.7)" text-rendering="optimizeSpeed" fill="#000000">deploy (1080)</text>
  <rect fill="blue" height="11.3" stroke="black" width="12" x="60" y="81.4"/>
  <text x="60" y="97.7" font-family="Tahoma" font-size="12" transform="rotate(90 60,97.7)" text-rendering="optimizeSpeed" fill="#000000">batch-task (1134)</text>
  <rect fill="blue" height="12.1" stroke="black" width="12" x="75" y="80.6"/>
  <text x="75" y="97.7" font-family="Tahoma" font-size="12" transform="rotate(90 75,97.7)" text-rendering="optimizeSpeed" fill="#000000">ssh-slaves (1212)</text>
  <rect fill="blue" height="12.2" stroke="black" width="12" x="90" y="80.6"/>
  <text x="90" y="97.7" font-family="Tahoma" font-size="12" transform="rotate(90 90,97.7)" text-rendering="optimizeSpeed" fill="#000000">violations (1215)</text>
  <rect fill="blue" height="13.4" stroke="black" width="12" x="105" y="79.4"/>
  <text x="105" y="97.7" font-family="Tahoma" font-size="12" transform="rotate(90 105,97.7)" text-rendering="optimizeSpeed" fill="#000000">disk-usage (1336)</text>
  <rect fill="blue" height="14.2" stroke="black" width="12" x="120" y="78.6"/>
  <text x="120" y="97.7" font-family="Tahoma" font-size="12" transform="rotate(90 120,97.7)" text-rendering="optimizeSpeed" fill="#000000">emotional-hudson (1415)</text>
  <rect fill="blue" height="15.9" stroke="black" width="12" x="135" y="76.9"/>
  <text x="135" y="97.7" font-family="Tahoma" font-size="12" transform="rotate(90 135,97.7)" text-rendering="optimizeSpeed" fill="#000000">tasks (1586)</text>
  <rect fill="blue" height="16.6" stroke="black" width="12" x="150" y="76.1"/>
  <text x="150" y="97.7" font-family="Tahoma" font-size="12" transform="rotate(90 150,97.7)" text-rendering="optimizeSpeed" fill="#000000">cobertura (1659)</text>
  <rect fill="blue" height="17.7" stroke="black" width="12" x="165" y="75.0"/>
  <text x="165" y="97.7" font-family="Tahoma" font-size="12" transform="rotate(90 165,97.7)" text-rendering="optimizeSpeed" fill="#000000">pmd (1769)</text>
  <rect fill="blue" height="17.8" stroke="black" width="12" x="180" y="74.9"/>
  <text x="180" y="97.7" font-family="Tahoma" font-size="12" transform="rotate(90 180,97.7)" text-rendering="optimizeSpeed" fill="#000000">warnings (1783)</text>
  <rect fill="blue" height="18.3" stroke="black" width="12" x="195" y="74.5"/>
  <text x="195" y="97.7" font-family="Tahoma" font-size="12" transform="rotate(90 195,97.7)" text-rendering="optimizeSpeed" fill="#000000">email-ext (1826)</text>
  <rect fill="blue" height="20.2" stroke="black" width="12" x="210" y="72.5"/>
  <text x="210" y="97.7" font-family="Tahoma" font-size="12" transform="rotate(90 210,97.7)" text-rendering="optimizeSpeed" fill="#000000">checkstyle (2019)</text>
  <rect fill="blue" height="24.4" stroke="black" width="12" x="225" y="68.4"/>
  <text x="225" y="97.7" font-family="Tahoma" font-size="12" transform="rotate(90 225,97.7)" text-rendering="optimizeSpeed" fill="#000000">findbugs (2436)</text>
  <rect fill="blue" height="42.7" stroke="black" width="12" x="240" y="50.0"/>
  <text x="240" y="97.7" font-family="Tahoma" font-size="12" transform="rotate(90 240,97.7)" text-rendering="optimizeSpeed" fill="#000000">maven-plugin (4272)</text>
  <text x="10" y="40" font-family="Tahoma" font-size="20" text-rendering="optimizeSpeed" fill="#000000">Plugin installations (installations &gt; 1000)</text>
</svg>
