<svg xmlns="http://www.w3.org/2000/svg" version="1.1" preserveAspectRatio="xMidYMid meet" viewBox="0 0 155 467.4">
  <rect fill="blue" height="25.9" stroke="black" width="12" x="15" y="141.4"/>
  <text x="15" y="172.4" font-family="Tahoma" font-size="12" transform="rotate(90 15,172.4)" text-rendering="optimizeSpeed" fill="#000000">checkstyle (2591)</text>
  <rect fill="blue" height="26.3" stroke="black" width="12" x="30" y="141.1"/>
  <text x="30" y="172.4" font-family="Tahoma" font-size="12" transform="rotate(90 30,172.4)" text-rendering="optimizeSpeed" fill="#000000">email-ext (2631)</text>
  <rect fill="blue" height="29.8" stroke="black" width="12" x="45" y="137.6"/>
  <text x="45" y="172.4" font-family="Tahoma" font-size="12" transform="rotate(90 45,172.4)" text-rendering="optimizeSpeed" fill="#000000">findbugs (2976)</text>
  <rect fill="blue" height="83.5" stroke="black" width="12" x="60" y="83.9"/>
  <text x="60" y="172.4" font-family="Tahoma" font-size="12" transform="rotate(90 60,172.4)" text-rendering="optimizeSpeed" fill="#000000">scis-ad (8348)</text>
  <rect fill="blue" height="103.7" stroke="black" width="12" x="75" y="63.7"/>
  <text x="75" y="172.4" font-family="Tahoma" font-size="12" transform="rotate(90 75,172.4)" text-rendering="optimizeSpeed" fill="#000000">subversion (10369)</text>
  <rect fill="blue" height="114.2" stroke="black" width="12" x="90" y="53.1"/>
  <text x="90" y="172.4" font-family="Tahoma" font-size="12" transform="rotate(90 90,172.4)" text-rendering="optimizeSpeed" fill="#000000">ssh-slaves (11424)</text>
  <rect fill="blue" height="117.4" stroke="black" width="12" x="105" y="50.0"/>
  <text x="105" y="172.4" font-family="Tahoma" font-size="12" transform="rotate(90 105,172.4)" text-rendering="optimizeSpeed" fill="#000000">maven-plugin (11736)</text>
  <text x="10" y="40" font-family="Tahoma" font-size="20" text-rendering="optimizeSpeed" fill="#000000">Plugin installations (installations &gt; 2500)</text>
</svg>
