<svg xmlns="http://www.w3.org/2000/svg" version="1.1" preserveAspectRatio="xMidYMid meet" viewBox="0 0 665 851.5">
  <rect fill="blue" height="0.1" stroke="black" width="12" x="15" y="551.4"/>
  <text x="15" y="556.5" font-family="Tahoma" font-size="12" transform="rotate(90 15,556.5)" text-rendering="optimizeSpeed" fill="#000000">HP-UX (PA_RISC2.0W) (1)</text>
  <rect fill="blue" height="0.1" stroke="black" width="12" x="30" y="551.4"/>
  <text x="30" y="556.5" font-family="Tahoma" font-size="12" transform="rotate(90 30,556.5)" text-rendering="optimizeSpeed" fill="#000000">Linux (nova) (1)</text>
  <rect fill="blue" height="0.1" stroke="black" width="12" x="45" y="551.4"/>
  <text x="45" y="556.5" font-family="Tahoma" font-size="12" transform="rotate(90 45,556.5)" text-rendering="optimizeSpeed" fill="#000000">Linux (s390x) (1)</text>
  <rect fill="blue" height="0.1" stroke="black" width="12" x="60" y="551.4"/>
  <text x="60" y="556.5" font-family="Tahoma" font-size="12" transform="rotate(90 60,556.5)" text-rendering="optimizeSpeed" fill="#000000">Linux (sparc) (1)</text>
  <rect fill="blue" height="0.1" stroke="black" width="12" x="75" y="551.4"/>
  <text x="75" y="556.5" font-family="Tahoma" font-size="12" transform="rotate(90 75,556.5)" text-rendering="optimizeSpeed" fill="#000000">Windows 7 (x86) (1)</text>
  <rect fill="blue" height="0.1" stroke="black" width="12" x="90" y="551.4"/>
  <text x="90" y="556.5" font-family="Tahoma" font-size="12" transform="rotate(90 90,556.5)" text-rendering="optimizeSpeed" fill="#000000">Windows Server 2003 (amd64) (1)</text>
  <rect fill="blue" height="0.1" stroke="black" width="12" x="105" y="551.4"/>
  <text x="105" y="556.5" font-family="Tahoma" font-size="12" transform="rotate(90 105,556.5)" text-rendering="optimizeSpeed" fill="#000000">linux (amd64) (1)</text>
  <rect fill="blue" height="0.1" stroke="black" width="12" x="120" y="551.4"/>
  <text x="120" y="556.5" font-family="Tahoma" font-size="12" transform="rotate(90 120,556.5)" text-rendering="optimizeSpeed" fill="#000000">z/OS (s390) (1)</text>
  <rect fill="blue" height="0.2" stroke="black" width="12" x="135" y="551.3"/>
  <text x="135" y="556.5" font-family="Tahoma" font-size="12" transform="rotate(90 135,556.5)" text-rendering="optimizeSpeed" fill="#000000">Darwin (i386) (2)</text>
  <rect fill="blue" height="0.2" stroke="black" width="12" x="150" y="551.3"/>
  <text x="150" y="556.5" font-family="Tahoma" font-size="12" transform="rotate(90 150,556.5)" text-rendering="optimizeSpeed" fill="#000000">HP-UX (IA64W) (2)</text>
  <rect fill="blue" height="0.2" stroke="black" width="12" x="165" y="551.3"/>
  <text x="165" y="556.5" font-family="Tahoma" font-size="12" transform="rotate(90 165,556.5)" text-rendering="optimizeSpeed" fill="#000000">Windows 7 (amd64) (2)</text>
  <rect fill="blue" height="0.2" stroke="black" width="12" x="180" y="551.3"/>
  <text x="180" y="556.5" font-family="Tahoma" font-size="12" transform="rotate(90 180,556.5)" text-rendering="optimizeSpeed" fill="#000000">Windows NT (unknown) (x86) (2)</text>
  <rect fill="blue" height="0.4" stroke="black" width="12" x="195" y="551.1"/>
  <text x="195" y="556.5" font-family="Tahoma" font-size="12" transform="rotate(90 195,556.5)" text-rendering="optimizeSpeed" fill="#000000">FreeBSD (amd64) (4)</text>
  <rect fill="blue" height="0.6" stroke="black" width="12" x="210" y="550.9"/>
  <text x="210" y="556.5" font-family="Tahoma" font-size="12" transform="rotate(90 210,556.5)" text-rendering="optimizeSpeed" fill="#000000">Linux (ppc) (6)</text>
  <rect fill="blue" height="0.7" stroke="black" width="12" x="225" y="550.8"/>
  <text x="225" y="556.5" font-family="Tahoma" font-size="12" transform="rotate(90 225,556.5)" text-rendering="optimizeSpeed" fill="#000000">SunOS (amd64) (7)</text>
  <rect fill="blue" height="1.0" stroke="black" width="12" x="240" y="550.5"/>
  <text x="240" y="556.5" font-family="Tahoma" font-size="12" transform="rotate(90 240,556.5)" text-rendering="optimizeSpeed" fill="#000000">Linux (ia64) (10)</text>
  <rect fill="blue" height="1.2" stroke="black" width="12" x="255" y="550.3"/>
  <text x="255" y="556.5" font-family="Tahoma" font-size="12" transform="rotate(90 255,556.5)" text-rendering="optimizeSpeed" fill="#000000">SunOS (sparcv9) (12)</text>
  <rect fill="blue" height="1.6" stroke="black" width="12" x="270" y="549.9"/>
  <text x="270" y="556.5" font-family="Tahoma" font-size="12" transform="rotate(90 270,556.5)" text-rendering="optimizeSpeed" fill="#000000">FreeBSD (i386) (16)</text>
  <rect fill="blue" height="2.1" stroke="black" width="12" x="285" y="549.4"/>
  <text x="285" y="556.5" font-family="Tahoma" font-size="12" transform="rotate(90 285,556.5)" text-rendering="optimizeSpeed" fill="#000000">Windows Vista (amd64) (21)</text>
  <rect fill="blue" height="2.2" stroke="black" width="12" x="300" y="549.3"/>
  <text x="300" y="556.5" font-family="Tahoma" font-size="12" transform="rotate(90 300,556.5)" text-rendering="optimizeSpeed" fill="#000000">Windows Server 2003 (x86) (22)</text>
  <rect fill="blue" height="2.3" stroke="black" width="12" x="315" y="549.2"/>
  <text x="315" y="556.5" font-family="Tahoma" font-size="12" transform="rotate(90 315,556.5)" text-rendering="optimizeSpeed" fill="#000000">AIX (ppc64) (23)</text>
  <rect fill="blue" height="2.3" stroke="black" width="12" x="330" y="549.2"/>
  <text x="330" y="556.5" font-family="Tahoma" font-size="12" transform="rotate(90 330,556.5)" text-rendering="optimizeSpeed" fill="#000000">HP-UX (PA_RISC2.0) (23)</text>
  <rect fill="blue" height="2.5" stroke="black" width="12" x="345" y="549.0"/>
  <text x="345" y="556.5" font-family="Tahoma" font-size="12" transform="rotate(90 345,556.5)" text-rendering="optimizeSpeed" fill="#000000">Windows XP (amd64) (25)</text>
  <rect fill="blue" height="3.0" stroke="black" width="12" x="360" y="548.5"/>
  <text x="360" y="556.5" font-family="Tahoma" font-size="12" transform="rotate(90 360,556.5)" text-rendering="optimizeSpeed" fill="#000000">HP-UX (IA64N) (30)</text>
  <rect fill="blue" height="3.1" stroke="black" width="12" x="375" y="548.4"/>
  <text x="375" y="556.5" font-family="Tahoma" font-size="12" transform="rotate(90 375,556.5)" text-rendering="optimizeSpeed" fill="#000000">Mac OS X (x86_64) (31)</text>
  <rect fill="blue" height="3.5" stroke="black" width="12" x="390" y="548.0"/>
  <text x="390" y="556.5" font-family="Tahoma" font-size="12" transform="rotate(90 390,556.5)" text-rendering="optimizeSpeed" fill="#000000">Mac OS X (ppc) (35)</text>
  <rect fill="blue" height="3.6" stroke="black" width="12" x="405" y="547.9"/>
  <text x="405" y="556.5" font-family="Tahoma" font-size="12" transform="rotate(90 405,556.5)" text-rendering="optimizeSpeed" fill="#000000">Windows Server 2008 (amd64) (36)</text>
  <rect fill="blue" height="4.0" stroke="black" width="12" x="420" y="547.5"/>
  <text x="420" y="556.5" font-family="Tahoma" font-size="12" transform="rotate(90 420,556.5)" text-rendering="optimizeSpeed" fill="#000000">AIX (ppc) (40)</text>
  <rect fill="blue" height="4.8" stroke="black" width="12" x="435" y="546.7"/>
  <text x="435" y="556.5" font-family="Tahoma" font-size="12" transform="rotate(90 435,556.5)" text-rendering="optimizeSpeed" fill="#000000">Linux (x86) (48)</text>
  <rect fill="blue" height="7.5" stroke="black" width="12" x="450" y="544.0"/>
  <text x="450" y="556.5" font-family="Tahoma" font-size="12" transform="rotate(90 450,556.5)" text-rendering="optimizeSpeed" fill="#000000">Windows Server 2008 (x86) (75)</text>
  <rect fill="blue" height="8.0" stroke="black" width="12" x="465" y="543.5"/>
  <text x="465" y="556.5" font-family="Tahoma" font-size="12" transform="rotate(90 465,556.5)" text-rendering="optimizeSpeed" fill="#000000">Windows 2003 (amd64) (80)</text>
  <rect fill="blue" height="10.8" stroke="black" width="12" x="480" y="540.7"/>
  <text x="480" y="556.5" font-family="Tahoma" font-size="12" transform="rotate(90 480,556.5)" text-rendering="optimizeSpeed" fill="#000000">Windows 2000 (x86) (108)</text>
  <rect fill="blue" height="13.3" stroke="black" width="12" x="495" y="538.2"/>
  <text x="495" y="556.5" font-family="Tahoma" font-size="12" transform="rotate(90 495,556.5)" text-rendering="optimizeSpeed" fill="#000000">Windows Vista (x86) (133)</text>
  <rect fill="blue" height="15.4" stroke="black" width="12" x="510" y="536.1"/>
  <text x="510" y="556.5" font-family="Tahoma" font-size="12" transform="rotate(90 510,556.5)" text-rendering="optimizeSpeed" fill="#000000">Mac OS X (i386) (154)</text>
  <rect fill="blue" height="28.9" stroke="black" width="12" x="525" y="522.6"/>
  <text x="525" y="556.5" font-family="Tahoma" font-size="12" transform="rotate(90 525,556.5)" text-rendering="optimizeSpeed" fill="#000000">SunOS (x86) (289)</text>
  <rect fill="blue" height="37.6" stroke="black" width="12" x="540" y="513.9"/>
  <text x="540" y="556.5" font-family="Tahoma" font-size="12" transform="rotate(90 540,556.5)" text-rendering="optimizeSpeed" fill="#000000">SunOS (sparc) (376)</text>
  <rect fill="blue" height="141.0" stroke="black" width="12" x="555" y="410.5"/>
  <text x="555" y="556.5" font-family="Tahoma" font-size="12" transform="rotate(90 555,556.5)" text-rendering="optimizeSpeed" fill="#000000">Windows 2003 (x86) (1410)</text>
  <rect fill="blue" height="164.1" stroke="black" width="12" x="570" y="387.4"/>
  <text x="570" y="556.5" font-family="Tahoma" font-size="12" transform="rotate(90 570,556.5)" text-rendering="optimizeSpeed" fill="#000000">Linux (amd64) (1641)</text>
  <rect fill="blue" height="175.8" stroke="black" width="12" x="585" y="375.7"/>
  <text x="585" y="556.5" font-family="Tahoma" font-size="12" transform="rotate(90 585,556.5)" text-rendering="optimizeSpeed" fill="#000000">Windows XP (x86) (1758)</text>
  <rect fill="blue" height="361.8" stroke="black" width="12" x="600" y="189.7"/>
  <text x="600" y="556.5" font-family="Tahoma" font-size="12" transform="rotate(90 600,556.5)" text-rendering="optimizeSpeed" fill="#000000">Linux (i386) (3618)</text>
  <rect fill="blue" height="501.5" stroke="black" width="12" x="615" y="50.0"/>
  <text x="615" y="556.5" font-family="Tahoma" font-size="12" transform="rotate(90 615,556.5)" text-rendering="optimizeSpeed" fill="#000000">N/A (5015)</text>
  <text x="10" y="40" font-family="Tahoma" font-size="20" text-rendering="optimizeSpeed" fill="#000000">Nodes (total: 15062)</text>
</svg>
