<svg xmlns="http://www.w3.org/2000/svg" version="1.1" preserveAspectRatio="xMidYMid meet" viewBox="0 0 2255 413.2">
  <rect fill="blue" height="0.0" stroke="black" width="12" x="15" y="113.2"/>
  <text x="15" y="118.2" font-family="Tahoma" font-size="12" transform="rotate(90 15,118.2)" text-rendering="optimizeSpeed" fill="#000000">backlog (1)</text>
  <rect fill="blue" height="0.0" stroke="black" width="12" x="30" y="113.2"/>
  <text x="30" y="118.2" font-family="Tahoma" font-size="12" transform="rotate(90 30,118.2)" text-rendering="optimizeSpeed" fill="#000000">cmvc (1)</text>
  <rect fill="blue" height="0.0" stroke="black" width="12" x="45" y="113.2"/>
  <text x="45" y="118.2" font-family="Tahoma" font-size="12" transform="rotate(90 45,118.2)" text-rendering="optimizeSpeed" fill="#000000">hudson-pview-plugin (1)</text>
  <rect fill="blue" height="0.0" stroke="black" width="12" x="60" y="113.2"/>
  <text x="60" y="118.2" font-family="Tahoma" font-size="12" transform="rotate(90 60,118.2)" text-rendering="optimizeSpeed" fill="#000000">jsunit (1)</text>
  <rect fill="blue" height="0.0" stroke="black" width="12" x="75" y="113.2"/>
  <text x="75" y="118.2" font-family="Tahoma" font-size="12" transform="rotate(90 75,118.2)" text-rendering="optimizeSpeed" fill="#000000">drools (2)</text>
  <rect fill="blue" height="0.0" stroke="black" width="12" x="90" y="113.2"/>
  <text x="90" y="118.2" font-family="Tahoma" font-size="12" transform="rotate(90 90,118.2)" text-rendering="optimizeSpeed" fill="#000000">fitnesse (2)</text>
  <rect fill="blue" height="0.0" stroke="black" width="12" x="105" y="113.2"/>
  <text x="105" y="118.2" font-family="Tahoma" font-size="12" transform="rotate(90 105,118.2)" text-rendering="optimizeSpeed" fill="#000000">SCTMExecutor (3)</text>
  <rect fill="blue" height="0.0" stroke="black" width="12" x="120" y="113.2"/>
  <text x="120" y="118.2" font-family="Tahoma" font-size="12" transform="rotate(90 120,118.2)" text-rendering="optimizeSpeed" fill="#000000">Schmant (3)</text>
  <rect fill="blue" height="0.0" stroke="black" width="12" x="135" y="113.2"/>
  <text x="135" y="118.2" font-family="Tahoma" font-size="12" transform="rotate(90 135,118.2)" text-rendering="optimizeSpeed" fill="#000000">sfee (4)</text>
  <rect fill="blue" height="0.1" stroke="black" width="12" x="150" y="113.2"/>
  <text x="150" y="118.2" font-family="Tahoma" font-size="12" transform="rotate(90 150,118.2)" text-rendering="optimizeSpeed" fill="#000000">translation (5)</text>
  <rect fill="blue" height="0.1" stroke="black" width="12" x="165" y="113.1"/>
  <text x="165" y="118.2" font-family="Tahoma" font-size="12" transform="rotate(90 165,118.2)" text-rendering="optimizeSpeed" fill="#000000">tuxdroid (6)</text>
  <rect fill="blue" height="0.1" stroke="black" width="12" x="180" y="113.1"/>
  <text x="180" y="118.2" font-family="Tahoma" font-size="12" transform="rotate(90 180,118.2)" text-rendering="optimizeSpeed" fill="#000000">kundo (9)</text>
  <rect fill="blue" height="0.1" stroke="black" width="12" x="195" y="113.1"/>
  <text x="195" y="118.2" font-family="Tahoma" font-size="12" transform="rotate(90 195,118.2)" text-rendering="optimizeSpeed" fill="#000000">gnat (10)</text>
  <rect fill="blue" height="0.1" stroke="black" width="12" x="210" y="113.1"/>
  <text x="210" y="118.2" font-family="Tahoma" font-size="12" transform="rotate(90 210,118.2)" text-rendering="optimizeSpeed" fill="#000000">windmill (10)</text>
  <rect fill="blue" height="0.1" stroke="black" width="12" x="225" y="113.1"/>
  <text x="225" y="118.2" font-family="Tahoma" font-size="12" transform="rotate(90 225,118.2)" text-rendering="optimizeSpeed" fill="#000000">ec2 (11)</text>
  <rect fill="blue" height="0.1" stroke="black" width="12" x="240" y="113.1"/>
  <text x="240" y="118.2" font-family="Tahoma" font-size="12" transform="rotate(90 240,118.2)" text-rendering="optimizeSpeed" fill="#000000">swarm (12)</text>
  <rect fill="blue" height="0.1" stroke="black" width="12" x="255" y="113.1"/>
  <text x="255" y="118.2" font-family="Tahoma" font-size="12" transform="rotate(90 255,118.2)" text-rendering="optimizeSpeed" fill="#000000">harvest (13)</text>
  <rect fill="blue" height="0.1" stroke="black" width="12" x="270" y="113.1"/>
  <text x="270" y="118.2" font-family="Tahoma" font-size="12" transform="rotate(90 270,118.2)" text-rendering="optimizeSpeed" fill="#000000">kagemai (13)</text>
  <rect fill="blue" height="0.1" stroke="black" width="12" x="285" y="113.1"/>
  <text x="285" y="118.2" font-family="Tahoma" font-size="12" transform="rotate(90 285,118.2)" text-rendering="optimizeSpeed" fill="#000000">bitkeeper (14)</text>
  <rect fill="blue" height="0.1" stroke="black" width="12" x="300" y="113.1"/>
  <text x="300" y="118.2" font-family="Tahoma" font-size="12" transform="rotate(90 300,118.2)" text-rendering="optimizeSpeed" fill="#000000">collabnet (14)</text>
  <rect fill="blue" height="0.1" stroke="black" width="12" x="315" y="113.1"/>
  <text x="315" y="118.2" font-family="Tahoma" font-size="12" transform="rotate(90 315,118.2)" text-rendering="optimizeSpeed" fill="#000000">cygpath (14)</text>
  <rect fill="blue" height="0.2" stroke="black" width="12" x="330" y="113.0"/>
  <text x="330" y="118.2" font-family="Tahoma" font-size="12" transform="rotate(90 330,118.2)" text-rendering="optimizeSpeed" fill="#000000">gallio (19)</text>
  <rect fill="blue" height="0.2" stroke="black" width="12" x="345" y="113.0"/>
  <text x="345" y="118.2" font-family="Tahoma" font-size="12" transform="rotate(90 345,118.2)" text-rendering="optimizeSpeed" fill="#000000">pxe (19)</text>
  <rect fill="blue" height="0.2" stroke="black" width="12" x="360" y="113.0"/>
  <text x="360" y="118.2" font-family="Tahoma" font-size="12" transform="rotate(90 360,118.2)" text-rendering="optimizeSpeed" fill="#000000">pvcs_scm (23)</text>
  <rect fill="blue" height="0.2" stroke="black" width="12" x="375" y="113.0"/>
  <text x="375" y="118.2" font-family="Tahoma" font-size="12" transform="rotate(90 375,118.2)" text-rendering="optimizeSpeed" fill="#000000">scons (24)</text>
  <rect fill="blue" height="0.2" stroke="black" width="12" x="390" y="113.0"/>
  <text x="390" y="118.2" font-family="Tahoma" font-size="12" transform="rotate(90 390,118.2)" text-rendering="optimizeSpeed" fill="#000000">hadoop (25)</text>
  <rect fill="blue" height="0.3" stroke="black" width="12" x="405" y="112.9"/>
  <text x="405" y="118.2" font-family="Tahoma" font-size="12" transform="rotate(90 405,118.2)" text-rendering="optimizeSpeed" fill="#000000">join (26)</text>
  <rect fill="blue" height="0.3" stroke="black" width="12" x="420" y="112.9"/>
  <text x="420" y="118.2" font-family="Tahoma" font-size="12" transform="rotate(90 420,118.2)" text-rendering="optimizeSpeed" fill="#000000">javanet-uploader (27)</text>
  <rect fill="blue" height="0.3" stroke="black" width="12" x="435" y="112.9"/>
  <text x="435" y="118.2" font-family="Tahoma" font-size="12" transform="rotate(90 435,118.2)" text-rendering="optimizeSpeed" fill="#000000">synergy (27)</text>
  <rect fill="blue" height="0.3" stroke="black" width="12" x="450" y="112.9"/>
  <text x="450" y="118.2" font-family="Tahoma" font-size="12" transform="rotate(90 450,118.2)" text-rendering="optimizeSpeed" fill="#000000">crowd (28)</text>
  <rect fill="blue" height="0.4" stroke="black" width="12" x="465" y="112.8"/>
  <text x="465" y="118.2" font-family="Tahoma" font-size="12" transform="rotate(90 465,118.2)" text-rendering="optimizeSpeed" fill="#000000">cmakebuilder (37)</text>
  <rect fill="blue" height="0.4" stroke="black" width="12" x="480" y="112.8"/>
  <text x="480" y="118.2" font-family="Tahoma" font-size="12" transform="rotate(90 480,118.2)" text-rendering="optimizeSpeed" fill="#000000">starteam (37)</text>
  <rect fill="blue" height="0.4" stroke="black" width="12" x="495" y="112.8"/>
  <text x="495" y="118.2" font-family="Tahoma" font-size="12" transform="rotate(90 495,118.2)" text-rendering="optimizeSpeed" fill="#000000">javanet (41)</text>
  <rect fill="blue" height="0.4" stroke="black" width="12" x="510" y="112.8"/>
  <text x="510" y="118.2" font-family="Tahoma" font-size="12" transform="rotate(90 510,118.2)" text-rendering="optimizeSpeed" fill="#000000">hgca (43)</text>
  <rect fill="blue" height="0.4" stroke="black" width="12" x="525" y="112.8"/>
  <text x="525" y="118.2" font-family="Tahoma" font-size="12" transform="rotate(90 525,118.2)" text-rendering="optimizeSpeed" fill="#000000">hudson-logaction-plugin (43)</text>
  <rect fill="blue" height="0.5" stroke="black" width="12" x="540" y="112.7"/>
  <text x="540" y="118.2" font-family="Tahoma" font-size="12" transform="rotate(90 540,118.2)" text-rendering="optimizeSpeed" fill="#000000">hudson-wsclean-plugin (50)</text>
  <rect fill="blue" height="0.5" stroke="black" width="12" x="555" y="112.7"/>
  <text x="555" y="118.2" font-family="Tahoma" font-size="12" transform="rotate(90 555,118.2)" text-rendering="optimizeSpeed" fill="#000000">nabaztag (50)</text>
  <rect fill="blue" height="0.5" stroke="black" width="12" x="570" y="112.7"/>
  <text x="570" y="118.2" font-family="Tahoma" font-size="12" transform="rotate(90 570,118.2)" text-rendering="optimizeSpeed" fill="#000000">accurev (53)</text>
  <rect fill="blue" height="0.5" stroke="black" width="12" x="585" y="112.7"/>
  <text x="585" y="118.2" font-family="Tahoma" font-size="12" transform="rotate(90 585,118.2)" text-rendering="optimizeSpeed" fill="#000000">gradle (54)</text>
  <rect fill="blue" height="0.6" stroke="black" width="12" x="600" y="112.6"/>
  <text x="600" y="118.2" font-family="Tahoma" font-size="12" transform="rotate(90 600,118.2)" text-rendering="optimizeSpeed" fill="#000000">easyant (61)</text>
  <rect fill="blue" height="0.6" stroke="black" width="12" x="615" y="112.6"/>
  <text x="615" y="118.2" font-family="Tahoma" font-size="12" transform="rotate(90 615,118.2)" text-rendering="optimizeSpeed" fill="#000000">tfs (63)</text>
  <rect fill="blue" height="0.7" stroke="black" width="12" x="630" y="112.5"/>
  <text x="630" y="118.2" font-family="Tahoma" font-size="12" transform="rotate(90 630,118.2)" text-rendering="optimizeSpeed" fill="#000000">grinder (69)</text>
  <rect fill="blue" height="0.7" stroke="black" width="12" x="645" y="112.5"/>
  <text x="645" y="118.2" font-family="Tahoma" font-size="12" transform="rotate(90 645,118.2)" text-rendering="optimizeSpeed" fill="#000000">cccc (74)</text>
  <rect fill="blue" height="0.7" stroke="black" width="12" x="660" y="112.5"/>
  <text x="660" y="118.2" font-family="Tahoma" font-size="12" transform="rotate(90 660,118.2)" text-rendering="optimizeSpeed" fill="#000000">googleanalytics (74)</text>
  <rect fill="blue" height="0.8" stroke="black" width="12" x="675" y="112.5"/>
  <text x="675" y="118.2" font-family="Tahoma" font-size="12" transform="rotate(90 675,118.2)" text-rendering="optimizeSpeed" fill="#000000">googlecode (75)</text>
  <rect fill="blue" height="0.8" stroke="black" width="12" x="690" y="112.4"/>
  <text x="690" y="118.2" font-family="Tahoma" font-size="12" transform="rotate(90 690,118.2)" text-rendering="optimizeSpeed" fill="#000000">schedule-failed-builds (77)</text>
  <rect fill="blue" height="0.8" stroke="black" width="12" x="705" y="112.4"/>
  <text x="705" y="118.2" font-family="Tahoma" font-size="12" transform="rotate(90 705,118.2)" text-rendering="optimizeSpeed" fill="#000000">selenium (81)</text>
  <rect fill="blue" height="0.8" stroke="black" width="12" x="720" y="112.4"/>
  <text x="720" y="118.2" font-family="Tahoma" font-size="12" transform="rotate(90 720,118.2)" text-rendering="optimizeSpeed" fill="#000000">phing (85)</text>
  <rect fill="blue" height="0.9" stroke="black" width="12" x="735" y="112.3"/>
  <text x="735" y="118.2" font-family="Tahoma" font-size="12" transform="rotate(90 735,118.2)" text-rendering="optimizeSpeed" fill="#000000">slave-status (86)</text>
  <rect fill="blue" height="0.9" stroke="black" width="12" x="750" y="112.3"/>
  <text x="750" y="118.2" font-family="Tahoma" font-size="12" transform="rotate(90 750,118.2)" text-rendering="optimizeSpeed" fill="#000000">sectioned-view (92)</text>
  <rect fill="blue" height="0.9" stroke="black" width="12" x="765" y="112.3"/>
  <text x="765" y="118.2" font-family="Tahoma" font-size="12" transform="rotate(90 765,118.2)" text-rendering="optimizeSpeed" fill="#000000">m2-extra-steps (93)</text>
  <rect fill="blue" height="1.0" stroke="black" width="12" x="780" y="112.2"/>
  <text x="780" y="118.2" font-family="Tahoma" font-size="12" transform="rotate(90 780,118.2)" text-rendering="optimizeSpeed" fill="#000000">cppunit (101)</text>
  <rect fill="blue" height="1.1" stroke="black" width="12" x="795" y="112.1"/>
  <text x="795" y="118.2" font-family="Tahoma" font-size="12" transform="rotate(90 795,118.2)" text-rendering="optimizeSpeed" fill="#000000">javatest-report (108)</text>
  <rect fill="blue" height="1.1" stroke="black" width="12" x="810" y="112.1"/>
  <text x="810" y="118.2" font-family="Tahoma" font-size="12" transform="rotate(90 810,118.2)" text-rendering="optimizeSpeed" fill="#000000">svncompat14 (109)</text>
  <rect fill="blue" height="1.1" stroke="black" width="12" x="825" y="112.1"/>
  <text x="825" y="118.2" font-family="Tahoma" font-size="12" transform="rotate(90 825,118.2)" text-rendering="optimizeSpeed" fill="#000000">regexemail (113)</text>
  <rect fill="blue" height="1.2" stroke="black" width="12" x="840" y="112.0"/>
  <text x="840" y="118.2" font-family="Tahoma" font-size="12" transform="rotate(90 840,118.2)" text-rendering="optimizeSpeed" fill="#000000">zentimestamp (120)</text>
  <rect fill="blue" height="1.2" stroke="black" width="12" x="855" y="112.0"/>
  <text x="855" y="118.2" font-family="Tahoma" font-size="12" transform="rotate(90 855,118.2)" text-rendering="optimizeSpeed" fill="#000000">gant (122)</text>
  <rect fill="blue" height="1.2" stroke="black" width="12" x="870" y="112.0"/>
  <text x="870" y="118.2" font-family="Tahoma" font-size="12" transform="rotate(90 870,118.2)" text-rendering="optimizeSpeed" fill="#000000">vss (122)</text>
  <rect fill="blue" height="1.2" stroke="black" width="12" x="885" y="112.0"/>
  <text x="885" y="118.2" font-family="Tahoma" font-size="12" transform="rotate(90 885,118.2)" text-rendering="optimizeSpeed" fill="#000000">webtestpresenter (123)</text>
  <rect fill="blue" height="1.3" stroke="black" width="12" x="900" y="111.9"/>
  <text x="900" y="118.2" font-family="Tahoma" font-size="12" transform="rotate(90 900,118.2)" text-rendering="optimizeSpeed" fill="#000000">mstest (129)</text>
  <rect fill="blue" height="1.4" stroke="black" width="12" x="915" y="111.9"/>
  <text x="915" y="118.2" font-family="Tahoma" font-size="12" transform="rotate(90 915,118.2)" text-rendering="optimizeSpeed" fill="#000000">rubyMetrics (135)</text>
  <rect fill="blue" height="1.4" stroke="black" width="12" x="930" y="111.8"/>
  <text x="930" y="118.2" font-family="Tahoma" font-size="12" transform="rotate(90 930,118.2)" text-rendering="optimizeSpeed" fill="#000000">port-allocator (137)</text>
  <rect fill="blue" height="1.4" stroke="black" width="12" x="945" y="111.8"/>
  <text x="945" y="118.2" font-family="Tahoma" font-size="12" transform="rotate(90 945,118.2)" text-rendering="optimizeSpeed" fill="#000000">naginator (140)</text>
  <rect fill="blue" height="1.5" stroke="black" width="12" x="960" y="111.7"/>
  <text x="960" y="118.2" font-family="Tahoma" font-size="12" transform="rotate(90 960,118.2)" text-rendering="optimizeSpeed" fill="#000000">japex (154)</text>
  <rect fill="blue" height="1.6" stroke="black" width="12" x="975" y="111.6"/>
  <text x="975" y="118.2" font-family="Tahoma" font-size="12" transform="rotate(90 975,118.2)" text-rendering="optimizeSpeed" fill="#000000">svncompat13 (164)</text>
  <rect fill="blue" height="1.7" stroke="black" width="12" x="990" y="111.5"/>
  <text x="990" y="118.2" font-family="Tahoma" font-size="12" transform="rotate(90 990,118.2)" text-rendering="optimizeSpeed" fill="#000000">hudsontrayapp (167)</text>
  <rect fill="blue" height="1.7" stroke="black" width="12" x="1005" y="111.5"/>
  <text x="1005" y="118.2" font-family="Tahoma" font-size="12" transform="rotate(90 1005,118.2)" text-rendering="optimizeSpeed" fill="#000000">grails (169)</text>
  <rect fill="blue" height="1.8" stroke="black" width="12" x="1020" y="111.4"/>
  <text x="1020" y="118.2" font-family="Tahoma" font-size="12" transform="rotate(90 1020,118.2)" text-rendering="optimizeSpeed" fill="#000000">ircbot (181)</text>
  <rect fill="blue" height="1.8" stroke="black" width="12" x="1035" y="111.4"/>
  <text x="1035" y="118.2" font-family="Tahoma" font-size="12" transform="rotate(90 1035,118.2)" text-rendering="optimizeSpeed" fill="#000000">radiatorviewplugin (181)</text>
  <rect fill="blue" height="1.8" stroke="black" width="12" x="1050" y="111.4"/>
  <text x="1050" y="118.2" font-family="Tahoma" font-size="12" transform="rotate(90 1050,118.2)" text-rendering="optimizeSpeed" fill="#000000">template-project (181)</text>
  <rect fill="blue" height="1.9" stroke="black" width="12" x="1065" y="111.3"/>
  <text x="1065" y="118.2" font-family="Tahoma" font-size="12" transform="rotate(90 1065,118.2)" text-rendering="optimizeSpeed" fill="#000000">ivy (187)</text>
  <rect fill="blue" height="1.9" stroke="black" width="12" x="1080" y="111.3"/>
  <text x="1080" y="118.2" font-family="Tahoma" font-size="12" transform="rotate(90 1080,118.2)" text-rendering="optimizeSpeed" fill="#000000">vmware (192)</text>
  <rect fill="blue" height="1.9" stroke="black" width="12" x="1095" y="111.3"/>
  <text x="1095" y="118.2" font-family="Tahoma" font-size="12" transform="rotate(90 1095,118.2)" text-rendering="optimizeSpeed" fill="#000000">viewVC (193)</text>
  <rect fill="blue" height="2.0" stroke="black" width="12" x="1110" y="111.2"/>
  <text x="1110" y="118.2" font-family="Tahoma" font-size="12" transform="rotate(90 1110,118.2)" text-rendering="optimizeSpeed" fill="#000000">gcal (196)</text>
  <rect fill="blue" height="2.0" stroke="black" width="12" x="1125" y="111.2"/>
  <text x="1125" y="118.2" font-family="Tahoma" font-size="12" transform="rotate(90 1125,118.2)" text-rendering="optimizeSpeed" fill="#000000">selenium-aes (197)</text>
  <rect fill="blue" height="2.0" stroke="black" width="12" x="1140" y="111.2"/>
  <text x="1140" y="118.2" font-family="Tahoma" font-size="12" transform="rotate(90 1140,118.2)" text-rendering="optimizeSpeed" fill="#000000">URLSCM (198)</text>
  <rect fill="blue" height="2.0" stroke="black" width="12" x="1155" y="111.2"/>
  <text x="1155" y="118.2" font-family="Tahoma" font-size="12" transform="rotate(90 1155,118.2)" text-rendering="optimizeSpeed" fill="#000000">testabilityexplorer (203)</text>
  <rect fill="blue" height="2.0" stroke="black" width="12" x="1170" y="111.2"/>
  <text x="1170" y="118.2" font-family="Tahoma" font-size="12" transform="rotate(90 1170,118.2)" text-rendering="optimizeSpeed" fill="#000000">twitter (203)</text>
  <rect fill="blue" height="2.0" stroke="black" width="12" x="1185" y="111.2"/>
  <text x="1185" y="118.2" font-family="Tahoma" font-size="12" transform="rotate(90 1185,118.2)" text-rendering="optimizeSpeed" fill="#000000">cvs-tag (205)</text>
  <rect fill="blue" height="2.1" stroke="black" width="12" x="1200" y="111.1"/>
  <text x="1200" y="118.2" font-family="Tahoma" font-size="12" transform="rotate(90 1200,118.2)" text-rendering="optimizeSpeed" fill="#000000">redmine (208)</text>
  <rect fill="blue" height="2.2" stroke="black" width="12" x="1215" y="111.0"/>
  <text x="1215" y="118.2" font-family="Tahoma" font-size="12" transform="rotate(90 1215,118.2)" text-rendering="optimizeSpeed" fill="#000000">xvnc (220)</text>
  <rect fill="blue" height="2.2" stroke="black" width="12" x="1230" y="111.0"/>
  <text x="1230" y="118.2" font-family="Tahoma" font-size="12" transform="rotate(90 1230,118.2)" text-rendering="optimizeSpeed" fill="#000000">seleniumhq (225)</text>
  <rect fill="blue" height="2.3" stroke="black" width="12" x="1245" y="110.9"/>
  <text x="1245" y="118.2" font-family="Tahoma" font-size="12" transform="rotate(90 1245,118.2)" text-rendering="optimizeSpeed" fill="#000000">parameterized-trigger (228)</text>
  <rect fill="blue" height="2.4" stroke="black" width="12" x="1260" y="110.8"/>
  <text x="1260" y="118.2" font-family="Tahoma" font-size="12" transform="rotate(90 1260,118.2)" text-rendering="optimizeSpeed" fill="#000000">rake (236)</text>
  <rect fill="blue" height="2.4" stroke="black" width="12" x="1275" y="110.8"/>
  <text x="1275" y="118.2" font-family="Tahoma" font-size="12" transform="rotate(90 1275,118.2)" text-rendering="optimizeSpeed" fill="#000000">sloccount (239)</text>
  <rect fill="blue" height="2.4" stroke="black" width="12" x="1290" y="110.8"/>
  <text x="1290" y="118.2" font-family="Tahoma" font-size="12" transform="rotate(90 1290,118.2)" text-rendering="optimizeSpeed" fill="#000000">ruby (240)</text>
  <rect fill="blue" height="2.5" stroke="black" width="12" x="1305" y="110.7"/>
  <text x="1305" y="118.2" font-family="Tahoma" font-size="12" transform="rotate(90 1305,118.2)" text-rendering="optimizeSpeed" fill="#000000">polarion (247)</text>
  <rect fill="blue" height="2.5" stroke="black" width="12" x="1320" y="110.7"/>
  <text x="1320" y="118.2" font-family="Tahoma" font-size="12" transform="rotate(90 1320,118.2)" text-rendering="optimizeSpeed" fill="#000000">url-change-trigger (247)</text>
  <rect fill="blue" height="2.6" stroke="black" width="12" x="1335" y="110.6"/>
  <text x="1335" y="118.2" font-family="Tahoma" font-size="12" transform="rotate(90 1335,118.2)" text-rendering="optimizeSpeed" fill="#000000">groovy (258)</text>
  <rect fill="blue" height="2.6" stroke="black" width="12" x="1350" y="110.6"/>
  <text x="1350" y="118.2" font-family="Tahoma" font-size="12" transform="rotate(90 1350,118.2)" text-rendering="optimizeSpeed" fill="#000000">backup (262)</text>
  <rect fill="blue" height="2.7" stroke="black" width="12" x="1365" y="110.6"/>
  <text x="1365" y="118.2" font-family="Tahoma" font-size="12" transform="rotate(90 1365,118.2)" text-rendering="optimizeSpeed" fill="#000000">doxygen (266)</text>
  <rect fill="blue" height="2.8" stroke="black" width="12" x="1380" y="110.4"/>
  <text x="1380" y="118.2" font-family="Tahoma" font-size="12" transform="rotate(90 1380,118.2)" text-rendering="optimizeSpeed" fill="#000000">claim (279)</text>
  <rect fill="blue" height="2.8" stroke="black" width="12" x="1395" y="110.4"/>
  <text x="1395" y="118.2" font-family="Tahoma" font-size="12" transform="rotate(90 1395,118.2)" text-rendering="optimizeSpeed" fill="#000000">build-publisher (282)</text>
  <rect fill="blue" height="2.8" stroke="black" width="12" x="1410" y="110.4"/>
  <text x="1410" y="118.2" font-family="Tahoma" font-size="12" transform="rotate(90 1410,118.2)" text-rendering="optimizeSpeed" fill="#000000">mantis (282)</text>
  <rect fill="blue" height="2.9" stroke="black" width="12" x="1425" y="110.4"/>
  <text x="1425" y="118.2" font-family="Tahoma" font-size="12" transform="rotate(90 1425,118.2)" text-rendering="optimizeSpeed" fill="#000000">ldapemail (285)</text>
  <rect fill="blue" height="2.9" stroke="black" width="12" x="1440" y="110.4"/>
  <text x="1440" y="118.2" font-family="Tahoma" font-size="12" transform="rotate(90 1440,118.2)" text-rendering="optimizeSpeed" fill="#000000">sidebar-link (285)</text>
  <rect fill="blue" height="2.9" stroke="black" width="12" x="1455" y="110.3"/>
  <text x="1455" y="118.2" font-family="Tahoma" font-size="12" transform="rotate(90 1455,118.2)" text-rendering="optimizeSpeed" fill="#000000">mercurial (287)</text>
  <rect fill="blue" height="2.9" stroke="black" width="12" x="1470" y="110.3"/>
  <text x="1470" y="118.2" font-family="Tahoma" font-size="12" transform="rotate(90 1470,118.2)" text-rendering="optimizeSpeed" fill="#000000">javancss (293)</text>
  <rect fill="blue" height="3.0" stroke="black" width="12" x="1485" y="110.2"/>
  <text x="1485" y="118.2" font-family="Tahoma" font-size="12" transform="rotate(90 1485,118.2)" text-rendering="optimizeSpeed" fill="#000000">changelog-history (303)</text>
  <rect fill="blue" height="3.0" stroke="black" width="12" x="1500" y="110.2"/>
  <text x="1500" y="118.2" font-family="Tahoma" font-size="12" transform="rotate(90 1500,118.2)" text-rendering="optimizeSpeed" fill="#000000">nant (303)</text>
  <rect fill="blue" height="3.0" stroke="black" width="12" x="1515" y="110.2"/>
  <text x="1515" y="118.2" font-family="Tahoma" font-size="12" transform="rotate(90 1515,118.2)" text-rendering="optimizeSpeed" fill="#000000">locale (305)</text>
  <rect fill="blue" height="3.1" stroke="black" width="12" x="1530" y="110.1"/>
  <text x="1530" y="118.2" font-family="Tahoma" font-size="12" transform="rotate(90 1530,118.2)" text-rendering="optimizeSpeed" fill="#000000">statusmonitor (312)</text>
  <rect fill="blue" height="3.2" stroke="black" width="12" x="1545" y="110.0"/>
  <text x="1545" y="118.2" font-family="Tahoma" font-size="12" transform="rotate(90 1545,118.2)" text-rendering="optimizeSpeed" fill="#000000">ftppublisher (320)</text>
  <rect fill="blue" height="3.4" stroke="black" width="12" x="1560" y="109.8"/>
  <text x="1560" y="118.2" font-family="Tahoma" font-size="12" transform="rotate(90 1560,118.2)" text-rendering="optimizeSpeed" fill="#000000">perforce (343)</text>
  <rect fill="blue" height="3.5" stroke="black" width="12" x="1575" y="109.7"/>
  <text x="1575" y="118.2" font-family="Tahoma" font-size="12" transform="rotate(90 1575,118.2)" text-rendering="optimizeSpeed" fill="#000000">description-setter (352)</text>
  <rect fill="blue" height="3.6" stroke="black" width="12" x="1590" y="109.6"/>
  <text x="1590" y="118.2" font-family="Tahoma" font-size="12" transform="rotate(90 1590,118.2)" text-rendering="optimizeSpeed" fill="#000000">crap4j (359)</text>
  <rect fill="blue" height="3.6" stroke="black" width="12" x="1605" y="109.6"/>
  <text x="1605" y="118.2" font-family="Tahoma" font-size="12" transform="rotate(90 1605,118.2)" text-rendering="optimizeSpeed" fill="#000000">clover (363)</text>
  <rect fill="blue" height="3.9" stroke="black" width="12" x="1620" y="109.3"/>
  <text x="1620" y="118.2" font-family="Tahoma" font-size="12" transform="rotate(90 1620,118.2)" text-rendering="optimizeSpeed" fill="#000000">clearcase (388)</text>
  <rect fill="blue" height="3.9" stroke="black" width="12" x="1635" y="109.3"/>
  <text x="1635" y="118.2" font-family="Tahoma" font-size="12" transform="rotate(90 1635,118.2)" text-rendering="optimizeSpeed" fill="#000000">bugzilla (390)</text>
  <rect fill="blue" height="4.1" stroke="black" width="12" x="1650" y="109.1"/>
  <text x="1650" y="118.2" font-family="Tahoma" font-size="12" transform="rotate(90 1650,118.2)" text-rendering="optimizeSpeed" fill="#000000">plot (409)</text>
  <rect fill="blue" height="4.2" stroke="black" width="12" x="1665" y="109.0"/>
  <text x="1665" y="118.2" font-family="Tahoma" font-size="12" transform="rotate(90 1665,118.2)" text-rendering="optimizeSpeed" fill="#000000">git (420)</text>
  <rect fill="blue" height="4.2" stroke="black" width="12" x="1680" y="109.0"/>
  <text x="1680" y="118.2" font-family="Tahoma" font-size="12" transform="rotate(90 1680,118.2)" text-rendering="optimizeSpeed" fill="#000000">nunit (425)</text>
  <rect fill="blue" height="4.3" stroke="black" width="12" x="1695" y="108.9"/>
  <text x="1695" y="118.2" font-family="Tahoma" font-size="12" transform="rotate(90 1695,118.2)" text-rendering="optimizeSpeed" fill="#000000">m2release (435)</text>
  <rect fill="blue" height="4.4" stroke="black" width="12" x="1710" y="108.8"/>
  <text x="1710" y="118.2" font-family="Tahoma" font-size="12" transform="rotate(90 1710,118.2)" text-rendering="optimizeSpeed" fill="#000000">svn-release-mgr (438)</text>
  <rect fill="blue" height="4.4" stroke="black" width="12" x="1725" y="108.8"/>
  <text x="1725" y="118.2" font-family="Tahoma" font-size="12" transform="rotate(90 1725,118.2)" text-rendering="optimizeSpeed" fill="#000000">dependencyanalyzer (443)</text>
  <rect fill="blue" height="4.6" stroke="black" width="12" x="1740" y="108.6"/>
  <text x="1740" y="118.2" font-family="Tahoma" font-size="12" transform="rotate(90 1740,118.2)" text-rendering="optimizeSpeed" fill="#000000">locks-and-latches (462)</text>
  <rect fill="blue" height="5.0" stroke="black" width="12" x="1755" y="108.3"/>
  <text x="1755" y="118.2" font-family="Tahoma" font-size="12" transform="rotate(90 1755,118.2)" text-rendering="optimizeSpeed" fill="#000000">promoted-builds (495)</text>
  <rect fill="blue" height="5.0" stroke="black" width="12" x="1770" y="108.2"/>
  <text x="1770" y="118.2" font-family="Tahoma" font-size="12" transform="rotate(90 1770,118.2)" text-rendering="optimizeSpeed" fill="#000000">audit-trail (504)</text>
  <rect fill="blue" height="5.0" stroke="black" width="12" x="1785" y="108.2"/>
  <text x="1785" y="118.2" font-family="Tahoma" font-size="12" transform="rotate(90 1785,118.2)" text-rendering="optimizeSpeed" fill="#000000">release (504)</text>
  <rect fill="blue" height="5.1" stroke="black" width="12" x="1800" y="108.1"/>
  <text x="1800" y="118.2" font-family="Tahoma" font-size="12" transform="rotate(90 1800,118.2)" text-rendering="optimizeSpeed" fill="#000000">text-finder (512)</text>
  <rect fill="blue" height="5.2" stroke="black" width="12" x="1815" y="108.0"/>
  <text x="1815" y="118.2" font-family="Tahoma" font-size="12" transform="rotate(90 1815,118.2)" text-rendering="optimizeSpeed" fill="#000000">jabber (522)</text>
  <rect fill="blue" height="5.3" stroke="black" width="12" x="1830" y="107.9"/>
  <text x="1830" y="118.2" font-family="Tahoma" font-size="12" transform="rotate(90 1830,118.2)" text-rendering="optimizeSpeed" fill="#000000">dry (531)</text>
  <rect fill="blue" height="5.5" stroke="black" width="12" x="1845" y="107.7"/>
  <text x="1845" y="118.2" font-family="Tahoma" font-size="12" transform="rotate(90 1845,118.2)" text-rendering="optimizeSpeed" fill="#000000">msbuild (552)</text>
  <rect fill="blue" height="7.9" stroke="black" width="12" x="1860" y="105.3"/>
  <text x="1860" y="118.2" font-family="Tahoma" font-size="12" transform="rotate(90 1860,118.2)" text-rendering="optimizeSpeed" fill="#000000">trac (786)</text>
  <rect fill="blue" height="8.1" stroke="black" width="12" x="1875" y="105.1"/>
  <text x="1875" y="118.2" font-family="Tahoma" font-size="12" transform="rotate(90 1875,118.2)" text-rendering="optimizeSpeed" fill="#000000">sonar (812)</text>
  <rect fill="blue" height="8.5" stroke="black" width="12" x="1890" y="104.7"/>
  <text x="1890" y="118.2" font-family="Tahoma" font-size="12" transform="rotate(90 1890,118.2)" text-rendering="optimizeSpeed" fill="#000000">scp (852)</text>
  <rect fill="blue" height="8.6" stroke="black" width="12" x="1905" y="104.6"/>
  <text x="1905" y="118.2" font-family="Tahoma" font-size="12" transform="rotate(90 1905,118.2)" text-rendering="optimizeSpeed" fill="#000000">active-directory (864)</text>
  <rect fill="blue" height="8.8" stroke="black" width="12" x="1920" y="104.4"/>
  <text x="1920" y="118.2" font-family="Tahoma" font-size="12" transform="rotate(90 1920,118.2)" text-rendering="optimizeSpeed" fill="#000000">greenballs (879)</text>
  <rect fill="blue" height="10.0" stroke="black" width="12" x="1935" y="103.2"/>
  <text x="1935" y="118.2" font-family="Tahoma" font-size="12" transform="rotate(90 1935,118.2)" text-rendering="optimizeSpeed" fill="#000000">ci-game (999)</text>
  <rect fill="blue" height="10.0" stroke="black" width="12" x="1950" y="103.2"/>
  <text x="1950" y="118.2" font-family="Tahoma" font-size="12" transform="rotate(90 1950,118.2)" text-rendering="optimizeSpeed" fill="#000000">build-timeout (1001)</text>
  <rect fill="blue" height="10.1" stroke="black" width="12" x="1965" y="103.1"/>
  <text x="1965" y="118.2" font-family="Tahoma" font-size="12" transform="rotate(90 1965,118.2)" text-rendering="optimizeSpeed" fill="#000000">emma (1014)</text>
  <rect fill="blue" height="10.5" stroke="black" width="12" x="1980" y="102.7"/>
  <text x="1980" y="118.2" font-family="Tahoma" font-size="12" transform="rotate(90 1980,118.2)" text-rendering="optimizeSpeed" fill="#000000">jira (1047)</text>
  <rect fill="blue" height="10.7" stroke="black" width="12" x="1995" y="102.5"/>
  <text x="1995" y="118.2" font-family="Tahoma" font-size="12" transform="rotate(90 1995,118.2)" text-rendering="optimizeSpeed" fill="#000000">svn-tag (1071)</text>
  <rect fill="blue" height="10.9" stroke="black" width="12" x="2010" y="102.3"/>
  <text x="2010" y="118.2" font-family="Tahoma" font-size="12" transform="rotate(90 2010,118.2)" text-rendering="optimizeSpeed" fill="#000000">deploy (1089)</text>
  <rect fill="blue" height="11.4" stroke="black" width="12" x="2025" y="101.8"/>
  <text x="2025" y="118.2" font-family="Tahoma" font-size="12" transform="rotate(90 2025,118.2)" text-rendering="optimizeSpeed" fill="#000000">batch-task (1140)</text>
  <rect fill="blue" height="11.8" stroke="black" width="12" x="2040" y="101.4"/>
  <text x="2040" y="118.2" font-family="Tahoma" font-size="12" transform="rotate(90 2040,118.2)" text-rendering="optimizeSpeed" fill="#000000">violations (1180)</text>
  <rect fill="blue" height="13.4" stroke="black" width="12" x="2055" y="99.8"/>
  <text x="2055" y="118.2" font-family="Tahoma" font-size="12" transform="rotate(90 2055,118.2)" text-rendering="optimizeSpeed" fill="#000000">disk-usage (1336)</text>
  <rect fill="blue" height="14.4" stroke="black" width="12" x="2070" y="98.8"/>
  <text x="2070" y="118.2" font-family="Tahoma" font-size="12" transform="rotate(90 2070,118.2)" text-rendering="optimizeSpeed" fill="#000000">emotional-hudson (1442)</text>
  <rect fill="blue" height="15.8" stroke="black" width="12" x="2085" y="97.4"/>
  <text x="2085" y="118.2" font-family="Tahoma" font-size="12" transform="rotate(90 2085,118.2)" text-rendering="optimizeSpeed" fill="#000000">tasks (1583)</text>
  <rect fill="blue" height="17.3" stroke="black" width="12" x="2100" y="95.9"/>
  <text x="2100" y="118.2" font-family="Tahoma" font-size="12" transform="rotate(90 2100,118.2)" text-rendering="optimizeSpeed" fill="#000000">cobertura (1733)</text>
  <rect fill="blue" height="17.8" stroke="black" width="12" x="2115" y="95.4"/>
  <text x="2115" y="118.2" font-family="Tahoma" font-size="12" transform="rotate(90 2115,118.2)" text-rendering="optimizeSpeed" fill="#000000">pmd (1778)</text>
  <rect fill="blue" height="17.9" stroke="black" width="12" x="2130" y="95.3"/>
  <text x="2130" y="118.2" font-family="Tahoma" font-size="12" transform="rotate(90 2130,118.2)" text-rendering="optimizeSpeed" fill="#000000">warnings (1790)</text>
  <rect fill="blue" height="19.0" stroke="black" width="12" x="2145" y="94.2"/>
  <text x="2145" y="118.2" font-family="Tahoma" font-size="12" transform="rotate(90 2145,118.2)" text-rendering="optimizeSpeed" fill="#000000">email-ext (1903)</text>
  <rect fill="blue" height="20.2" stroke="black" width="12" x="2160" y="93.1"/>
  <text x="2160" y="118.2" font-family="Tahoma" font-size="12" transform="rotate(90 2160,118.2)" text-rendering="optimizeSpeed" fill="#000000">checkstyle (2016)</text>
  <rect fill="blue" height="24.4" stroke="black" width="12" x="2175" y="88.8"/>
  <text x="2175" y="118.2" font-family="Tahoma" font-size="12" transform="rotate(90 2175,118.2)" text-rendering="optimizeSpeed" fill="#000000">findbugs (2439)</text>
  <rect fill="blue" height="50.4" stroke="black" width="12" x="2190" y="62.8"/>
  <text x="2190" y="118.2" font-family="Tahoma" font-size="12" transform="rotate(90 2190,118.2)" text-rendering="optimizeSpeed" fill="#000000">ssh-slaves (5041)</text>
  <rect fill="blue" height="63.2" stroke="black" width="12" x="2205" y="50.0"/>
  <text x="2205" y="118.2" font-family="Tahoma" font-size="12" transform="rotate(90 2205,118.2)" text-rendering="optimizeSpeed" fill="#000000">maven-plugin (6321)</text>
  <text x="10" y="40" font-family="Tahoma" font-size="20" text-rendering="optimizeSpeed" fill="#000000">Plugin installations (total: 61510)</text>
</svg>
