<svg xmlns="http://www.w3.org/2000/svg" version="1.1" preserveAspectRatio="xMidYMid meet" viewBox="0 0 500 490.6">
  <rect fill="blue" height="10.5" stroke="black" width="12" x="15" y="180.2"/>
  <text x="15" y="195.6" font-family="Tahoma" font-size="12" transform="rotate(90 15,195.6)" text-rendering="optimizeSpeed" fill="#000000">m2release (1046)</text>
  <rect fill="blue" height="10.5" stroke="black" width="12" x="30" y="180.2"/>
  <text x="30" y="195.6" font-family="Tahoma" font-size="12" transform="rotate(90 30,195.6)" text-rendering="optimizeSpeed" fill="#000000">trac (1046)</text>
  <rect fill="blue" height="11.1" stroke="black" width="12" x="45" y="179.5"/>
  <text x="45" y="195.6" font-family="Tahoma" font-size="12" transform="rotate(90 45,195.6)" text-rendering="optimizeSpeed" fill="#000000">msbuild (1112)</text>
  <rect fill="blue" height="11.4" stroke="black" width="12" x="60" y="179.2"/>
  <text x="60" y="195.6" font-family="Tahoma" font-size="12" transform="rotate(90 60,195.6)" text-rendering="optimizeSpeed" fill="#000000">chucknorris (1145)</text>
  <rect fill="blue" height="11.8" stroke="black" width="12" x="75" y="178.9"/>
  <text x="75" y="195.6" font-family="Tahoma" font-size="12" transform="rotate(90 75,195.6)" text-rendering="optimizeSpeed" fill="#000000">scp (1177)</text>
  <rect fill="blue" height="12.4" stroke="black" width="12" x="90" y="178.2"/>
  <text x="90" y="195.6" font-family="Tahoma" font-size="12" transform="rotate(90 90,195.6)" text-rendering="optimizeSpeed" fill="#000000">analysis-core (1243)</text>
  <rect fill="blue" height="13.5" stroke="black" width="12" x="105" y="177.2"/>
  <text x="105" y="195.6" font-family="Tahoma" font-size="12" transform="rotate(90 105,195.6)" text-rendering="optimizeSpeed" fill="#000000">ci-game (1347)</text>
  <rect fill="blue" height="14.4" stroke="black" width="12" x="120" y="176.3"/>
  <text x="120" y="195.6" font-family="Tahoma" font-size="12" transform="rotate(90 120,195.6)" text-rendering="optimizeSpeed" fill="#000000">emma (1436)</text>
  <rect fill="blue" height="14.4" stroke="black" width="12" x="135" y="176.3"/>
  <text x="135" y="195.6" font-family="Tahoma" font-size="12" transform="rotate(90 135,195.6)" text-rendering="optimizeSpeed" fill="#000000">svn-tag (1436)</text>
  <rect fill="blue" height="14.8" stroke="black" width="12" x="150" y="175.8"/>
  <text x="150" y="195.6" font-family="Tahoma" font-size="12" transform="rotate(90 150,195.6)" text-rendering="optimizeSpeed" fill="#000000">active-directory (1485)</text>
  <rect fill="blue" height="14.9" stroke="black" width="12" x="165" y="175.7"/>
  <text x="165" y="195.6" font-family="Tahoma" font-size="12" transform="rotate(90 165,195.6)" text-rendering="optimizeSpeed" fill="#000000">jira (1489)</text>
  <rect fill="blue" height="14.9" stroke="black" width="12" x="180" y="175.7"/>
  <text x="180" y="195.6" font-family="Tahoma" font-size="12" transform="rotate(90 180,195.6)" text-rendering="optimizeSpeed" fill="#000000">batch-task (1495)</text>
  <rect fill="blue" height="15.0" stroke="black" width="12" x="195" y="175.6"/>
  <text x="195" y="195.6" font-family="Tahoma" font-size="12" transform="rotate(90 195,195.6)" text-rendering="optimizeSpeed" fill="#000000">deploy (1502)</text>
  <rect fill="blue" height="15.2" stroke="black" width="12" x="210" y="175.5"/>
  <text x="210" y="195.6" font-family="Tahoma" font-size="12" transform="rotate(90 210,195.6)" text-rendering="optimizeSpeed" fill="#000000">build-timeout (1515)</text>
  <rect fill="blue" height="15.7" stroke="black" width="12" x="225" y="174.9"/>
  <text x="225" y="195.6" font-family="Tahoma" font-size="12" transform="rotate(90 225,195.6)" text-rendering="optimizeSpeed" fill="#000000">sonar (1573)</text>
  <rect fill="blue" height="17.7" stroke="black" width="12" x="240" y="173.0"/>
  <text x="240" y="195.6" font-family="Tahoma" font-size="12" transform="rotate(90 240,195.6)" text-rendering="optimizeSpeed" fill="#000000">emotional-hudson (1767)</text>
  <rect fill="blue" height="18.5" stroke="black" width="12" x="255" y="172.2"/>
  <text x="255" y="195.6" font-family="Tahoma" font-size="12" transform="rotate(90 255,195.6)" text-rendering="optimizeSpeed" fill="#000000">tasks (1847)</text>
  <rect fill="blue" height="18.7" stroke="black" width="12" x="270" y="171.9"/>
  <text x="270" y="195.6" font-family="Tahoma" font-size="12" transform="rotate(90 270,195.6)" text-rendering="optimizeSpeed" fill="#000000">violations (1872)</text>
  <rect fill="blue" height="21.6" stroke="black" width="12" x="285" y="169.0"/>
  <text x="285" y="195.6" font-family="Tahoma" font-size="12" transform="rotate(90 285,195.6)" text-rendering="optimizeSpeed" fill="#000000">warnings (2159)</text>
  <rect fill="blue" height="22.2" stroke="black" width="12" x="300" y="168.4"/>
  <text x="300" y="195.6" font-family="Tahoma" font-size="12" transform="rotate(90 300,195.6)" text-rendering="optimizeSpeed" fill="#000000">disk-usage (2223)</text>
  <rect fill="blue" height="22.2" stroke="black" width="12" x="315" y="168.4"/>
  <text x="315" y="195.6" font-family="Tahoma" font-size="12" transform="rotate(90 315,195.6)" text-rendering="optimizeSpeed" fill="#000000">greenballs (2225)</text>
  <rect fill="blue" height="23.0" stroke="black" width="12" x="330" y="167.7"/>
  <text x="330" y="195.6" font-family="Tahoma" font-size="12" transform="rotate(90 330,195.6)" text-rendering="optimizeSpeed" fill="#000000">pmd (2298)</text>
  <rect fill="blue" height="25.9" stroke="black" width="12" x="345" y="164.7"/>
  <text x="345" y="195.6" font-family="Tahoma" font-size="12" transform="rotate(90 345,195.6)" text-rendering="optimizeSpeed" fill="#000000">checkstyle (2589)</text>
  <rect fill="blue" height="27.2" stroke="black" width="12" x="360" y="163.4"/>
  <text x="360" y="195.6" font-family="Tahoma" font-size="12" transform="rotate(90 360,195.6)" text-rendering="optimizeSpeed" fill="#000000">cobertura (2725)</text>
  <rect fill="blue" height="29.4" stroke="black" width="12" x="375" y="161.2"/>
  <text x="375" y="195.6" font-family="Tahoma" font-size="12" transform="rotate(90 375,195.6)" text-rendering="optimizeSpeed" fill="#000000">email-ext (2938)</text>
  <rect fill="blue" height="30.0" stroke="black" width="12" x="390" y="160.7"/>
  <text x="390" y="195.6" font-family="Tahoma" font-size="12" transform="rotate(90 390,195.6)" text-rendering="optimizeSpeed" fill="#000000">findbugs (2997)</text>
  <rect fill="blue" height="115.2" stroke="black" width="12" x="405" y="75.5"/>
  <text x="405" y="195.6" font-family="Tahoma" font-size="12" transform="rotate(90 405,195.6)" text-rendering="optimizeSpeed" fill="#000000">scis-ad (11517)</text>
  <rect fill="blue" height="131.0" stroke="black" width="12" x="420" y="59.6"/>
  <text x="420" y="195.6" font-family="Tahoma" font-size="12" transform="rotate(90 420,195.6)" text-rendering="optimizeSpeed" fill="#000000">subversion (13104)</text>
  <rect fill="blue" height="139.1" stroke="black" width="12" x="435" y="51.6"/>
  <text x="435" y="195.6" font-family="Tahoma" font-size="12" transform="rotate(90 435,195.6)" text-rendering="optimizeSpeed" fill="#000000">ssh-slaves (13906)</text>
  <rect fill="blue" height="140.6" stroke="black" width="12" x="450" y="50.0"/>
  <text x="450" y="195.6" font-family="Tahoma" font-size="12" transform="rotate(90 450,195.6)" text-rendering="optimizeSpeed" fill="#000000">maven-plugin (14063)</text>
  <text x="10" y="40" font-family="Tahoma" font-size="20" text-rendering="optimizeSpeed" fill="#000000">Plugin installations (installations &gt; 1000)</text>
</svg>
