<svg xmlns="http://www.w3.org/2000/svg" version="1.1" preserveAspectRatio="xMidYMid meet" viewBox="0 0 590 761.4">
  <rect fill="blue" height="0.1" stroke="black" width="12" x="15" y="461.3"/>
  <text x="15" y="466.4" font-family="Tahoma" font-size="12" transform="rotate(90 15,466.4)" text-rendering="optimizeSpeed" fill="#000000">Linux (s390x) (1)</text>
  <rect fill="blue" height="0.1" stroke="black" width="12" x="30" y="461.3"/>
  <text x="30" y="466.4" font-family="Tahoma" font-size="12" transform="rotate(90 30,466.4)" text-rendering="optimizeSpeed" fill="#000000">OS/400 (PowerPC) (1)</text>
  <rect fill="blue" height="0.1" stroke="black" width="12" x="45" y="461.3"/>
  <text x="45" y="466.4" font-family="Tahoma" font-size="12" transform="rotate(90 45,466.4)" text-rendering="optimizeSpeed" fill="#000000">SunOS (amd64) (1)</text>
  <rect fill="blue" height="0.1" stroke="black" width="12" x="60" y="461.3"/>
  <text x="60" y="466.4" font-family="Tahoma" font-size="12" transform="rotate(90 60,466.4)" text-rendering="optimizeSpeed" fill="#000000">Windows NT (unknown) (x86) (1)</text>
  <rect fill="blue" height="0.2" stroke="black" width="12" x="75" y="461.2"/>
  <text x="75" y="466.4" font-family="Tahoma" font-size="12" transform="rotate(90 75,466.4)" text-rendering="optimizeSpeed" fill="#000000">FreeBSD (amd64) (2)</text>
  <rect fill="blue" height="0.2" stroke="black" width="12" x="90" y="461.2"/>
  <text x="90" y="466.4" font-family="Tahoma" font-size="12" transform="rotate(90 90,466.4)" text-rendering="optimizeSpeed" fill="#000000">Linux (s390) (2)</text>
  <rect fill="blue" height="0.2" stroke="black" width="12" x="105" y="461.2"/>
  <text x="105" y="466.4" font-family="Tahoma" font-size="12" transform="rotate(90 105,466.4)" text-rendering="optimizeSpeed" fill="#000000">z/OS (s390) (2)</text>
  <rect fill="blue" height="0.4" stroke="black" width="12" x="120" y="461.0"/>
  <text x="120" y="466.4" font-family="Tahoma" font-size="12" transform="rotate(90 120,466.4)" text-rendering="optimizeSpeed" fill="#000000">HP-UX (IA64W) (4)</text>
  <rect fill="blue" height="0.4" stroke="black" width="12" x="135" y="461.0"/>
  <text x="135" y="466.4" font-family="Tahoma" font-size="12" transform="rotate(90 135,466.4)" text-rendering="optimizeSpeed" fill="#000000">Windows XP (amd64) (4)</text>
  <rect fill="blue" height="0.5" stroke="black" width="12" x="150" y="460.9"/>
  <text x="150" y="466.4" font-family="Tahoma" font-size="12" transform="rotate(90 150,466.4)" text-rendering="optimizeSpeed" fill="#000000">SunOS (sparcv9) (5)</text>
  <rect fill="blue" height="0.6" stroke="black" width="12" x="165" y="460.8"/>
  <text x="165" y="466.4" font-family="Tahoma" font-size="12" transform="rotate(90 165,466.4)" text-rendering="optimizeSpeed" fill="#000000">Linux (ia64) (6)</text>
  <rect fill="blue" height="0.7" stroke="black" width="12" x="180" y="460.7"/>
  <text x="180" y="466.4" font-family="Tahoma" font-size="12" transform="rotate(90 180,466.4)" text-rendering="optimizeSpeed" fill="#000000">Linux (ppc) (7)</text>
  <rect fill="blue" height="0.7" stroke="black" width="12" x="195" y="460.7"/>
  <text x="195" y="466.4" font-family="Tahoma" font-size="12" transform="rotate(90 195,466.4)" text-rendering="optimizeSpeed" fill="#000000">Linux (ppc64) (7)</text>
  <rect fill="blue" height="0.9" stroke="black" width="12" x="210" y="460.5"/>
  <text x="210" y="466.4" font-family="Tahoma" font-size="12" transform="rotate(90 210,466.4)" text-rendering="optimizeSpeed" fill="#000000">Windows Server 2003 (x86) (9)</text>
  <rect fill="blue" height="1.2" stroke="black" width="12" x="225" y="460.2"/>
  <text x="225" y="466.4" font-family="Tahoma" font-size="12" transform="rotate(90 225,466.4)" text-rendering="optimizeSpeed" fill="#000000">AIX (ppc64) (12)</text>
  <rect fill="blue" height="1.2" stroke="black" width="12" x="240" y="460.2"/>
  <text x="240" y="466.4" font-family="Tahoma" font-size="12" transform="rotate(90 240,466.4)" text-rendering="optimizeSpeed" fill="#000000">Mac OS X (x86_64) (12)</text>
  <rect fill="blue" height="1.3" stroke="black" width="12" x="255" y="460.1"/>
  <text x="255" y="466.4" font-family="Tahoma" font-size="12" transform="rotate(90 255,466.4)" text-rendering="optimizeSpeed" fill="#000000">FreeBSD (i386) (13)</text>
  <rect fill="blue" height="1.5" stroke="black" width="12" x="270" y="459.9"/>
  <text x="270" y="466.4" font-family="Tahoma" font-size="12" transform="rotate(90 270,466.4)" text-rendering="optimizeSpeed" fill="#000000">HP-UX (PA_RISC2.0) (15)</text>
  <rect fill="blue" height="1.6" stroke="black" width="12" x="285" y="459.8"/>
  <text x="285" y="466.4" font-family="Tahoma" font-size="12" transform="rotate(90 285,466.4)" text-rendering="optimizeSpeed" fill="#000000">Windows Vista (amd64) (16)</text>
  <rect fill="blue" height="2.1" stroke="black" width="12" x="300" y="459.3"/>
  <text x="300" y="466.4" font-family="Tahoma" font-size="12" transform="rotate(90 300,466.4)" text-rendering="optimizeSpeed" fill="#000000">AIX (ppc) (21)</text>
  <rect fill="blue" height="2.2" stroke="black" width="12" x="315" y="459.2"/>
  <text x="315" y="466.4" font-family="Tahoma" font-size="12" transform="rotate(90 315,466.4)" text-rendering="optimizeSpeed" fill="#000000">HP-UX (IA64N) (22)</text>
  <rect fill="blue" height="2.2" stroke="black" width="12" x="330" y="459.2"/>
  <text x="330" y="466.4" font-family="Tahoma" font-size="12" transform="rotate(90 330,466.4)" text-rendering="optimizeSpeed" fill="#000000">Mac OS X (ppc) (22)</text>
  <rect fill="blue" height="2.8" stroke="black" width="12" x="345" y="458.6"/>
  <text x="345" y="466.4" font-family="Tahoma" font-size="12" transform="rotate(90 345,466.4)" text-rendering="optimizeSpeed" fill="#000000">Windows Server 2008 (amd64) (28)</text>
  <rect fill="blue" height="3.2" stroke="black" width="12" x="360" y="458.2"/>
  <text x="360" y="466.4" font-family="Tahoma" font-size="12" transform="rotate(90 360,466.4)" text-rendering="optimizeSpeed" fill="#000000">Linux (x86) (32)</text>
  <rect fill="blue" height="3.9" stroke="black" width="12" x="375" y="457.5"/>
  <text x="375" y="466.4" font-family="Tahoma" font-size="12" transform="rotate(90 375,466.4)" text-rendering="optimizeSpeed" fill="#000000">Windows 2003 (amd64) (39)</text>
  <rect fill="blue" height="5.1" stroke="black" width="12" x="390" y="456.3"/>
  <text x="390" y="466.4" font-family="Tahoma" font-size="12" transform="rotate(90 390,466.4)" text-rendering="optimizeSpeed" fill="#000000">Windows Server 2008 (x86) (51)</text>
  <rect fill="blue" height="7.0" stroke="black" width="12" x="405" y="454.4"/>
  <text x="405" y="466.4" font-family="Tahoma" font-size="12" transform="rotate(90 405,466.4)" text-rendering="optimizeSpeed" fill="#000000">Windows 2000 (x86) (70)</text>
  <rect fill="blue" height="9.8" stroke="black" width="12" x="420" y="451.6"/>
  <text x="420" y="466.4" font-family="Tahoma" font-size="12" transform="rotate(90 420,466.4)" text-rendering="optimizeSpeed" fill="#000000">Windows Vista (x86) (98)</text>
  <rect fill="blue" height="10.0" stroke="black" width="12" x="435" y="451.4"/>
  <text x="435" y="466.4" font-family="Tahoma" font-size="12" transform="rotate(90 435,466.4)" text-rendering="optimizeSpeed" fill="#000000">Mac OS X (i386) (100)</text>
  <rect fill="blue" height="14.1" stroke="black" width="12" x="450" y="447.3"/>
  <text x="450" y="466.4" font-family="Tahoma" font-size="12" transform="rotate(90 450,466.4)" text-rendering="optimizeSpeed" fill="#000000">SunOS (x86) (141)</text>
  <rect fill="blue" height="20.8" stroke="black" width="12" x="465" y="440.6"/>
  <text x="465" y="466.4" font-family="Tahoma" font-size="12" transform="rotate(90 465,466.4)" text-rendering="optimizeSpeed" fill="#000000">SunOS (sparc) (208)</text>
  <rect fill="blue" height="93.8" stroke="black" width="12" x="480" y="367.6"/>
  <text x="480" y="466.4" font-family="Tahoma" font-size="12" transform="rotate(90 480,466.4)" text-rendering="optimizeSpeed" fill="#000000">Windows 2003 (x86) (938)</text>
  <rect fill="blue" height="99.2" stroke="black" width="12" x="495" y="362.2"/>
  <text x="495" y="466.4" font-family="Tahoma" font-size="12" transform="rotate(90 495,466.4)" text-rendering="optimizeSpeed" fill="#000000">Linux (amd64) (992)</text>
  <rect fill="blue" height="120.2" stroke="black" width="12" x="510" y="341.2"/>
  <text x="510" y="466.4" font-family="Tahoma" font-size="12" transform="rotate(90 510,466.4)" text-rendering="optimizeSpeed" fill="#000000">Windows XP (x86) (1202)</text>
  <rect fill="blue" height="247.9" stroke="black" width="12" x="525" y="213.5"/>
  <text x="525" y="466.4" font-family="Tahoma" font-size="12" transform="rotate(90 525,466.4)" text-rendering="optimizeSpeed" fill="#000000">Linux (i386) (2479)</text>
  <rect fill="blue" height="411.4" stroke="black" width="12" x="540" y="50.0"/>
  <text x="540" y="466.4" font-family="Tahoma" font-size="12" transform="rotate(90 540,466.4)" text-rendering="optimizeSpeed" fill="#000000">N/A (4114)</text>
  <text x="10" y="40" font-family="Tahoma" font-size="20" text-rendering="optimizeSpeed" fill="#000000">Nodes (total: 10677)</text>
</svg>
