<svg xmlns="http://www.w3.org/2000/svg" version="1.1" preserveAspectRatio="xMidYMid meet" viewBox="0 0 1175 594.5">
  <rect fill="blue" height="1.2" stroke="black" width="12" x="15" y="293.3"/>
  <text x="15" y="299.5" font-family="Tahoma" font-size="12" transform="rotate(90 15,299.5)" text-rendering="optimizeSpeed" fill="#000000">1.264 (12)</text>
  <rect fill="blue" height="0.9" stroke="black" width="12" x="30" y="293.6"/>
  <text x="30" y="299.5" font-family="Tahoma" font-size="12" transform="rotate(90 30,299.5)" text-rendering="optimizeSpeed" fill="#000000">1.265 (9)</text>
  <rect fill="blue" height="1.4" stroke="black" width="12" x="45" y="293.1"/>
  <text x="45" y="299.5" font-family="Tahoma" font-size="12" transform="rotate(90 45,299.5)" text-rendering="optimizeSpeed" fill="#000000">1.266 (14)</text>
  <rect fill="blue" height="0.3" stroke="black" width="12" x="60" y="294.2"/>
  <text x="60" y="299.5" font-family="Tahoma" font-size="12" transform="rotate(90 60,299.5)" text-rendering="optimizeSpeed" fill="#000000">1.267 (3)</text>
  <rect fill="blue" height="2.0" stroke="black" width="12" x="75" y="292.5"/>
  <text x="75" y="299.5" font-family="Tahoma" font-size="12" transform="rotate(90 75,299.5)" text-rendering="optimizeSpeed" fill="#000000">1.268 (20)</text>
  <rect fill="blue" height="3.5" stroke="black" width="12" x="90" y="291.0"/>
  <text x="90" y="299.5" font-family="Tahoma" font-size="12" transform="rotate(90 90,299.5)" text-rendering="optimizeSpeed" fill="#000000">1.270 (35)</text>
  <rect fill="blue" height="0.2" stroke="black" width="12" x="105" y="294.3"/>
  <text x="105" y="299.5" font-family="Tahoma" font-size="12" transform="rotate(90 105,299.5)" text-rendering="optimizeSpeed" fill="#000000">1.272 (2)</text>
  <rect fill="blue" height="0.8" stroke="black" width="12" x="120" y="293.7"/>
  <text x="120" y="299.5" font-family="Tahoma" font-size="12" transform="rotate(90 120,299.5)" text-rendering="optimizeSpeed" fill="#000000">1.273 (8)</text>
  <rect fill="blue" height="3.0" stroke="black" width="12" x="135" y="291.5"/>
  <text x="135" y="299.5" font-family="Tahoma" font-size="12" transform="rotate(90 135,299.5)" text-rendering="optimizeSpeed" fill="#000000">1.274 (30)</text>
  <rect fill="blue" height="0.8" stroke="black" width="12" x="150" y="293.7"/>
  <text x="150" y="299.5" font-family="Tahoma" font-size="12" transform="rotate(90 150,299.5)" text-rendering="optimizeSpeed" fill="#000000">1.275 (8)</text>
  <rect fill="blue" height="2.4" stroke="black" width="12" x="165" y="292.1"/>
  <text x="165" y="299.5" font-family="Tahoma" font-size="12" transform="rotate(90 165,299.5)" text-rendering="optimizeSpeed" fill="#000000">1.276 (24)</text>
  <rect fill="blue" height="2.0" stroke="black" width="12" x="180" y="292.5"/>
  <text x="180" y="299.5" font-family="Tahoma" font-size="12" transform="rotate(90 180,299.5)" text-rendering="optimizeSpeed" fill="#000000">1.277 (20)</text>
  <rect fill="blue" height="4.6" stroke="black" width="12" x="195" y="289.9"/>
  <text x="195" y="299.5" font-family="Tahoma" font-size="12" transform="rotate(90 195,299.5)" text-rendering="optimizeSpeed" fill="#000000">1.278 (46)</text>
  <rect fill="blue" height="1.8" stroke="black" width="12" x="210" y="292.7"/>
  <text x="210" y="299.5" font-family="Tahoma" font-size="12" transform="rotate(90 210,299.5)" text-rendering="optimizeSpeed" fill="#000000">1.279 (18)</text>
  <rect fill="blue" height="3.6" stroke="black" width="12" x="225" y="290.9"/>
  <text x="225" y="299.5" font-family="Tahoma" font-size="12" transform="rotate(90 225,299.5)" text-rendering="optimizeSpeed" fill="#000000">1.280 (36)</text>
  <rect fill="blue" height="0.5" stroke="black" width="12" x="240" y="294.0"/>
  <text x="240" y="299.5" font-family="Tahoma" font-size="12" transform="rotate(90 240,299.5)" text-rendering="optimizeSpeed" fill="#000000">1.281 (5)</text>
  <rect fill="blue" height="4.8" stroke="black" width="12" x="255" y="289.7"/>
  <text x="255" y="299.5" font-family="Tahoma" font-size="12" transform="rotate(90 255,299.5)" text-rendering="optimizeSpeed" fill="#000000">1.282 (48)</text>
  <rect fill="blue" height="1.3" stroke="black" width="12" x="270" y="293.2"/>
  <text x="270" y="299.5" font-family="Tahoma" font-size="12" transform="rotate(90 270,299.5)" text-rendering="optimizeSpeed" fill="#000000">1.283 (13)</text>
  <rect fill="blue" height="1.5" stroke="black" width="12" x="285" y="293.0"/>
  <text x="285" y="299.5" font-family="Tahoma" font-size="12" transform="rotate(90 285,299.5)" text-rendering="optimizeSpeed" fill="#000000">1.284 (15)</text>
  <rect fill="blue" height="5.7" stroke="black" width="12" x="300" y="288.8"/>
  <text x="300" y="299.5" font-family="Tahoma" font-size="12" transform="rotate(90 300,299.5)" text-rendering="optimizeSpeed" fill="#000000">1.285 (57)</text>
  <rect fill="blue" height="2.4" stroke="black" width="12" x="315" y="292.1"/>
  <text x="315" y="299.5" font-family="Tahoma" font-size="12" transform="rotate(90 315,299.5)" text-rendering="optimizeSpeed" fill="#000000">1.286 (24)</text>
  <rect fill="blue" height="0.9" stroke="black" width="12" x="330" y="293.6"/>
  <text x="330" y="299.5" font-family="Tahoma" font-size="12" transform="rotate(90 330,299.5)" text-rendering="optimizeSpeed" fill="#000000">1.287 (9)</text>
  <rect fill="blue" height="2.7" stroke="black" width="12" x="345" y="291.8"/>
  <text x="345" y="299.5" font-family="Tahoma" font-size="12" transform="rotate(90 345,299.5)" text-rendering="optimizeSpeed" fill="#000000">1.288 (27)</text>
  <rect fill="blue" height="1.0" stroke="black" width="12" x="360" y="293.5"/>
  <text x="360" y="299.5" font-family="Tahoma" font-size="12" transform="rotate(90 360,299.5)" text-rendering="optimizeSpeed" fill="#000000">1.289 (10)</text>
  <rect fill="blue" height="5.1" stroke="black" width="12" x="375" y="289.4"/>
  <text x="375" y="299.5" font-family="Tahoma" font-size="12" transform="rotate(90 375,299.5)" text-rendering="optimizeSpeed" fill="#000000">1.290 (51)</text>
  <rect fill="blue" height="4.1" stroke="black" width="12" x="390" y="290.4"/>
  <text x="390" y="299.5" font-family="Tahoma" font-size="12" transform="rotate(90 390,299.5)" text-rendering="optimizeSpeed" fill="#000000">1.291 (41)</text>
  <rect fill="blue" height="8.4" stroke="black" width="12" x="405" y="286.1"/>
  <text x="405" y="299.5" font-family="Tahoma" font-size="12" transform="rotate(90 405,299.5)" text-rendering="optimizeSpeed" fill="#000000">1.292 (84)</text>
  <rect fill="blue" height="0.2" stroke="black" width="12" x="420" y="294.3"/>
  <text x="420" y="299.5" font-family="Tahoma" font-size="12" transform="rotate(90 420,299.5)" text-rendering="optimizeSpeed" fill="#000000">1.292.17 (2)</text>
  <rect fill="blue" height="9.2" stroke="black" width="12" x="435" y="285.3"/>
  <text x="435" y="299.5" font-family="Tahoma" font-size="12" transform="rotate(90 435,299.5)" text-rendering="optimizeSpeed" fill="#000000">1.293 (92)</text>
  <rect fill="blue" height="1.3" stroke="black" width="12" x="450" y="293.2"/>
  <text x="450" y="299.5" font-family="Tahoma" font-size="12" transform="rotate(90 450,299.5)" text-rendering="optimizeSpeed" fill="#000000">1.294 (13)</text>
  <rect fill="blue" height="4.8" stroke="black" width="12" x="465" y="289.7"/>
  <text x="465" y="299.5" font-family="Tahoma" font-size="12" transform="rotate(90 465,299.5)" text-rendering="optimizeSpeed" fill="#000000">1.295 (48)</text>
  <rect fill="blue" height="2.4" stroke="black" width="12" x="480" y="292.1"/>
  <text x="480" y="299.5" font-family="Tahoma" font-size="12" transform="rotate(90 480,299.5)" text-rendering="optimizeSpeed" fill="#000000">1.296 (24)</text>
  <rect fill="blue" height="3.8" stroke="black" width="12" x="495" y="290.7"/>
  <text x="495" y="299.5" font-family="Tahoma" font-size="12" transform="rotate(90 495,299.5)" text-rendering="optimizeSpeed" fill="#000000">1.297 (38)</text>
  <rect fill="blue" height="7.6" stroke="black" width="12" x="510" y="286.9"/>
  <text x="510" y="299.5" font-family="Tahoma" font-size="12" transform="rotate(90 510,299.5)" text-rendering="optimizeSpeed" fill="#000000">1.299 (76)</text>
  <rect fill="blue" height="10.4" stroke="black" width="12" x="525" y="284.1"/>
  <text x="525" y="299.5" font-family="Tahoma" font-size="12" transform="rotate(90 525,299.5)" text-rendering="optimizeSpeed" fill="#000000">1.300 (104)</text>
  <rect fill="blue" height="6.4" stroke="black" width="12" x="540" y="288.1"/>
  <text x="540" y="299.5" font-family="Tahoma" font-size="12" transform="rotate(90 540,299.5)" text-rendering="optimizeSpeed" fill="#000000">1.301 (64)</text>
  <rect fill="blue" height="0.2" stroke="black" width="12" x="555" y="294.3"/>
  <text x="555" y="299.5" font-family="Tahoma" font-size="12" transform="rotate(90 555,299.5)" text-rendering="optimizeSpeed" fill="#000000">1.302 (2)</text>
  <rect fill="blue" height="17.7" stroke="black" width="12" x="570" y="276.8"/>
  <text x="570" y="299.5" font-family="Tahoma" font-size="12" transform="rotate(90 570,299.5)" text-rendering="optimizeSpeed" fill="#000000">1.303 (177)</text>
  <rect fill="blue" height="12.2" stroke="black" width="12" x="585" y="282.3"/>
  <text x="585" y="299.5" font-family="Tahoma" font-size="12" transform="rotate(90 585,299.5)" text-rendering="optimizeSpeed" fill="#000000">1.304 (122)</text>
  <rect fill="blue" height="0.3" stroke="black" width="12" x="600" y="294.2"/>
  <text x="600" y="299.5" font-family="Tahoma" font-size="12" transform="rotate(90 600,299.5)" text-rendering="optimizeSpeed" fill="#000000">1.305 (3)</text>
  <rect fill="blue" height="12.2" stroke="black" width="12" x="615" y="282.3"/>
  <text x="615" y="299.5" font-family="Tahoma" font-size="12" transform="rotate(90 615,299.5)" text-rendering="optimizeSpeed" fill="#000000">1.306 (122)</text>
  <rect fill="blue" height="10.8" stroke="black" width="12" x="630" y="283.7"/>
  <text x="630" y="299.5" font-family="Tahoma" font-size="12" transform="rotate(90 630,299.5)" text-rendering="optimizeSpeed" fill="#000000">1.307 (108)</text>
  <rect fill="blue" height="3.5" stroke="black" width="12" x="645" y="291.0"/>
  <text x="645" y="299.5" font-family="Tahoma" font-size="12" transform="rotate(90 645,299.5)" text-rendering="optimizeSpeed" fill="#000000">1.308 (35)</text>
  <rect fill="blue" height="22.4" stroke="black" width="12" x="660" y="272.1"/>
  <text x="660" y="299.5" font-family="Tahoma" font-size="12" transform="rotate(90 660,299.5)" text-rendering="optimizeSpeed" fill="#000000">1.309 (224)</text>
  <rect fill="blue" height="16.7" stroke="black" width="12" x="675" y="277.8"/>
  <text x="675" y="299.5" font-family="Tahoma" font-size="12" transform="rotate(90 675,299.5)" text-rendering="optimizeSpeed" fill="#000000">1.310 (167)</text>
  <rect fill="blue" height="7.7" stroke="black" width="12" x="690" y="286.8"/>
  <text x="690" y="299.5" font-family="Tahoma" font-size="12" transform="rotate(90 690,299.5)" text-rendering="optimizeSpeed" fill="#000000">1.311 (77)</text>
  <rect fill="blue" height="31.2" stroke="black" width="12" x="705" y="263.3"/>
  <text x="705" y="299.5" font-family="Tahoma" font-size="12" transform="rotate(90 705,299.5)" text-rendering="optimizeSpeed" fill="#000000">1.312 (312)</text>
  <rect fill="blue" height="0.1" stroke="black" width="12" x="720" y="294.4"/>
  <text x="720" y="299.5" font-family="Tahoma" font-size="12" transform="rotate(90 720,299.5)" text-rendering="optimizeSpeed" fill="#000000">1.312.1 (1)</text>
  <rect fill="blue" height="10.9" stroke="black" width="12" x="735" y="283.6"/>
  <text x="735" y="299.5" font-family="Tahoma" font-size="12" transform="rotate(90 735,299.5)" text-rendering="optimizeSpeed" fill="#000000">1.313 (109)</text>
  <rect fill="blue" height="18.5" stroke="black" width="12" x="750" y="276.0"/>
  <text x="750" y="299.5" font-family="Tahoma" font-size="12" transform="rotate(90 750,299.5)" text-rendering="optimizeSpeed" fill="#000000">1.314 (185)</text>
  <rect fill="blue" height="14.1" stroke="black" width="12" x="765" y="280.4"/>
  <text x="765" y="299.5" font-family="Tahoma" font-size="12" transform="rotate(90 765,299.5)" text-rendering="optimizeSpeed" fill="#000000">1.315 (141)</text>
  <rect fill="blue" height="18.0" stroke="black" width="12" x="780" y="276.5"/>
  <text x="780" y="299.5" font-family="Tahoma" font-size="12" transform="rotate(90 780,299.5)" text-rendering="optimizeSpeed" fill="#000000">1.316 (180)</text>
  <rect fill="blue" height="17.8" stroke="black" width="12" x="795" y="276.7"/>
  <text x="795" y="299.5" font-family="Tahoma" font-size="12" transform="rotate(90 795,299.5)" text-rendering="optimizeSpeed" fill="#000000">1.317 (178)</text>
  <rect fill="blue" height="21.8" stroke="black" width="12" x="810" y="272.7"/>
  <text x="810" y="299.5" font-family="Tahoma" font-size="12" transform="rotate(90 810,299.5)" text-rendering="optimizeSpeed" fill="#000000">1.318 (218)</text>
  <rect fill="blue" height="17.9" stroke="black" width="12" x="825" y="276.6"/>
  <text x="825" y="299.5" font-family="Tahoma" font-size="12" transform="rotate(90 825,299.5)" text-rendering="optimizeSpeed" fill="#000000">1.319 (179)</text>
  <rect fill="blue" height="18.2" stroke="black" width="12" x="840" y="276.3"/>
  <text x="840" y="299.5" font-family="Tahoma" font-size="12" transform="rotate(90 840,299.5)" text-rendering="optimizeSpeed" fill="#000000">1.320 (182)</text>
  <rect fill="blue" height="20.6" stroke="black" width="12" x="855" y="273.9"/>
  <text x="855" y="299.5" font-family="Tahoma" font-size="12" transform="rotate(90 855,299.5)" text-rendering="optimizeSpeed" fill="#000000">1.321 (206)</text>
  <rect fill="blue" height="24.6" stroke="black" width="12" x="870" y="269.9"/>
  <text x="870" y="299.5" font-family="Tahoma" font-size="12" transform="rotate(90 870,299.5)" text-rendering="optimizeSpeed" fill="#000000">1.322 (246)</text>
  <rect fill="blue" height="59.1" stroke="black" width="12" x="885" y="235.4"/>
  <text x="885" y="299.5" font-family="Tahoma" font-size="12" transform="rotate(90 885,299.5)" text-rendering="optimizeSpeed" fill="#000000">1.323 (591)</text>
  <rect fill="blue" height="36.5" stroke="black" width="12" x="900" y="258.0"/>
  <text x="900" y="299.5" font-family="Tahoma" font-size="12" transform="rotate(90 900,299.5)" text-rendering="optimizeSpeed" fill="#000000">1.324 (365)</text>
  <rect fill="blue" height="3.9" stroke="black" width="12" x="915" y="290.6"/>
  <text x="915" y="299.5" font-family="Tahoma" font-size="12" transform="rotate(90 915,299.5)" text-rendering="optimizeSpeed" fill="#000000">1.325 (39)</text>
  <rect fill="blue" height="16.8" stroke="black" width="12" x="930" y="277.7"/>
  <text x="930" y="299.5" font-family="Tahoma" font-size="12" transform="rotate(90 930,299.5)" text-rendering="optimizeSpeed" fill="#000000">1.326 (168)</text>
  <rect fill="blue" height="35.0" stroke="black" width="12" x="945" y="259.5"/>
  <text x="945" y="299.5" font-family="Tahoma" font-size="12" transform="rotate(90 945,299.5)" text-rendering="optimizeSpeed" fill="#000000">1.327 (350)</text>
  <rect fill="blue" height="42.9" stroke="black" width="12" x="960" y="251.6"/>
  <text x="960" y="299.5" font-family="Tahoma" font-size="12" transform="rotate(90 960,299.5)" text-rendering="optimizeSpeed" fill="#000000">1.328 (429)</text>
  <rect fill="blue" height="38.1" stroke="black" width="12" x="975" y="256.4"/>
  <text x="975" y="299.5" font-family="Tahoma" font-size="12" transform="rotate(90 975,299.5)" text-rendering="optimizeSpeed" fill="#000000">1.329 (381)</text>
  <rect fill="blue" height="41.5" stroke="black" width="12" x="990" y="253.0"/>
  <text x="990" y="299.5" font-family="Tahoma" font-size="12" transform="rotate(90 990,299.5)" text-rendering="optimizeSpeed" fill="#000000">1.330 (415)</text>
  <rect fill="blue" height="13.8" stroke="black" width="12" x="1005" y="280.7"/>
  <text x="1005" y="299.5" font-family="Tahoma" font-size="12" transform="rotate(90 1005,299.5)" text-rendering="optimizeSpeed" fill="#000000">1.331 (138)</text>
  <rect fill="blue" height="53.6" stroke="black" width="12" x="1020" y="240.9"/>
  <text x="1020" y="299.5" font-family="Tahoma" font-size="12" transform="rotate(90 1020,299.5)" text-rendering="optimizeSpeed" fill="#000000">1.332 (536)</text>
  <rect fill="blue" height="63.9" stroke="black" width="12" x="1035" y="230.6"/>
  <text x="1035" y="299.5" font-family="Tahoma" font-size="12" transform="rotate(90 1035,299.5)" text-rendering="optimizeSpeed" fill="#000000">1.333 (639)</text>
  <rect fill="blue" height="48.9" stroke="black" width="12" x="1050" y="245.6"/>
  <text x="1050" y="299.5" font-family="Tahoma" font-size="12" transform="rotate(90 1050,299.5)" text-rendering="optimizeSpeed" fill="#000000">1.334 (489)</text>
  <rect fill="blue" height="78.0" stroke="black" width="12" x="1065" y="216.5"/>
  <text x="1065" y="299.5" font-family="Tahoma" font-size="12" transform="rotate(90 1065,299.5)" text-rendering="optimizeSpeed" fill="#000000">1.335 (780)</text>
  <rect fill="blue" height="244.5" stroke="black" width="12" x="1080" y="50.0"/>
  <text x="1080" y="299.5" font-family="Tahoma" font-size="12" transform="rotate(90 1080,299.5)" text-rendering="optimizeSpeed" fill="#000000">1.336 (2445)</text>
  <rect fill="blue" height="158.9" stroke="black" width="12" x="1095" y="135.6"/>
  <text x="1095" y="299.5" font-family="Tahoma" font-size="12" transform="rotate(90 1095,299.5)" text-rendering="optimizeSpeed" fill="#000000">1.337 (1589)</text>
  <rect fill="blue" height="91.4" stroke="black" width="12" x="1110" y="203.1"/>
  <text x="1110" y="299.5" font-family="Tahoma" font-size="12" transform="rotate(90 1110,299.5)" text-rendering="optimizeSpeed" fill="#000000">1.338 (914)</text>
  <rect fill="blue" height="72.0" stroke="black" width="12" x="1125" y="222.5"/>
  <text x="1125" y="299.5" font-family="Tahoma" font-size="12" transform="rotate(90 1125,299.5)" text-rendering="optimizeSpeed" fill="#000000">1.339 (720)</text>
  <text x="10" y="40" font-family="Tahoma" font-size="20" text-rendering="optimizeSpeed" fill="#000000">Jenkins installations (total: 15292)</text>
</svg>
