<svg xmlns="http://www.w3.org/2000/svg" version="1.1" preserveAspectRatio="xMidYMid meet" viewBox="0 0 830 479.9">
  <rect fill="blue" height="1.7" stroke="black" width="12" x="15" y="178.2"/>
  <text x="15" y="184.9" font-family="Tahoma" font-size="12" transform="rotate(90 15,184.9)" text-rendering="optimizeSpeed" fill="#000000">1.264 (17)</text>
  <rect fill="blue" height="2.1" stroke="black" width="12" x="30" y="177.8"/>
  <text x="30" y="184.9" font-family="Tahoma" font-size="12" transform="rotate(90 30,184.9)" text-rendering="optimizeSpeed" fill="#000000">1.265 (21)</text>
  <rect fill="blue" height="2.2" stroke="black" width="12" x="45" y="177.7"/>
  <text x="45" y="184.9" font-family="Tahoma" font-size="12" transform="rotate(90 45,184.9)" text-rendering="optimizeSpeed" fill="#000000">1.266 (22)</text>
  <rect fill="blue" height="0.6" stroke="black" width="12" x="60" y="179.3"/>
  <text x="60" y="184.9" font-family="Tahoma" font-size="12" transform="rotate(90 60,184.9)" text-rendering="optimizeSpeed" fill="#000000">1.267 (6)</text>
  <rect fill="blue" height="3.1" stroke="black" width="12" x="75" y="176.8"/>
  <text x="75" y="184.9" font-family="Tahoma" font-size="12" transform="rotate(90 75,184.9)" text-rendering="optimizeSpeed" fill="#000000">1.268 (31)</text>
  <rect fill="blue" height="5.1" stroke="black" width="12" x="90" y="174.8"/>
  <text x="90" y="184.9" font-family="Tahoma" font-size="12" transform="rotate(90 90,184.9)" text-rendering="optimizeSpeed" fill="#000000">1.270 (51)</text>
  <rect fill="blue" height="0.8" stroke="black" width="12" x="105" y="179.1"/>
  <text x="105" y="184.9" font-family="Tahoma" font-size="12" transform="rotate(90 105,184.9)" text-rendering="optimizeSpeed" fill="#000000">1.272 (8)</text>
  <rect fill="blue" height="1.7" stroke="black" width="12" x="120" y="178.2"/>
  <text x="120" y="184.9" font-family="Tahoma" font-size="12" transform="rotate(90 120,184.9)" text-rendering="optimizeSpeed" fill="#000000">1.273 (17)</text>
  <rect fill="blue" height="4.5" stroke="black" width="12" x="135" y="175.4"/>
  <text x="135" y="184.9" font-family="Tahoma" font-size="12" transform="rotate(90 135,184.9)" text-rendering="optimizeSpeed" fill="#000000">1.274 (45)</text>
  <rect fill="blue" height="1.7" stroke="black" width="12" x="150" y="178.2"/>
  <text x="150" y="184.9" font-family="Tahoma" font-size="12" transform="rotate(90 150,184.9)" text-rendering="optimizeSpeed" fill="#000000">1.275 (17)</text>
  <rect fill="blue" height="4.9" stroke="black" width="12" x="165" y="175.0"/>
  <text x="165" y="184.9" font-family="Tahoma" font-size="12" transform="rotate(90 165,184.9)" text-rendering="optimizeSpeed" fill="#000000">1.276 (49)</text>
  <rect fill="blue" height="6.3" stroke="black" width="12" x="180" y="173.6"/>
  <text x="180" y="184.9" font-family="Tahoma" font-size="12" transform="rotate(90 180,184.9)" text-rendering="optimizeSpeed" fill="#000000">1.277 (63)</text>
  <rect fill="blue" height="7.3" stroke="black" width="12" x="195" y="172.6"/>
  <text x="195" y="184.9" font-family="Tahoma" font-size="12" transform="rotate(90 195,184.9)" text-rendering="optimizeSpeed" fill="#000000">1.278 (73)</text>
  <rect fill="blue" height="4.0" stroke="black" width="12" x="210" y="175.9"/>
  <text x="210" y="184.9" font-family="Tahoma" font-size="12" transform="rotate(90 210,184.9)" text-rendering="optimizeSpeed" fill="#000000">1.279 (40)</text>
  <rect fill="blue" height="6.0" stroke="black" width="12" x="225" y="173.9"/>
  <text x="225" y="184.9" font-family="Tahoma" font-size="12" transform="rotate(90 225,184.9)" text-rendering="optimizeSpeed" fill="#000000">1.280 (60)</text>
  <rect fill="blue" height="1.4" stroke="black" width="12" x="240" y="178.5"/>
  <text x="240" y="184.9" font-family="Tahoma" font-size="12" transform="rotate(90 240,184.9)" text-rendering="optimizeSpeed" fill="#000000">1.281 (14)</text>
  <rect fill="blue" height="10.0" stroke="black" width="12" x="255" y="169.9"/>
  <text x="255" y="184.9" font-family="Tahoma" font-size="12" transform="rotate(90 255,184.9)" text-rendering="optimizeSpeed" fill="#000000">1.282 (100)</text>
  <rect fill="blue" height="3.9" stroke="black" width="12" x="270" y="176.0"/>
  <text x="270" y="184.9" font-family="Tahoma" font-size="12" transform="rotate(90 270,184.9)" text-rendering="optimizeSpeed" fill="#000000">1.283 (39)</text>
  <rect fill="blue" height="3.5" stroke="black" width="12" x="285" y="176.4"/>
  <text x="285" y="184.9" font-family="Tahoma" font-size="12" transform="rotate(90 285,184.9)" text-rendering="optimizeSpeed" fill="#000000">1.284 (35)</text>
  <rect fill="blue" height="12.6" stroke="black" width="12" x="300" y="167.3"/>
  <text x="300" y="184.9" font-family="Tahoma" font-size="12" transform="rotate(90 300,184.9)" text-rendering="optimizeSpeed" fill="#000000">1.285 (126)</text>
  <rect fill="blue" height="4.0" stroke="black" width="12" x="315" y="175.9"/>
  <text x="315" y="184.9" font-family="Tahoma" font-size="12" transform="rotate(90 315,184.9)" text-rendering="optimizeSpeed" fill="#000000">1.286 (40)</text>
  <rect fill="blue" height="3.9" stroke="black" width="12" x="330" y="176.0"/>
  <text x="330" y="184.9" font-family="Tahoma" font-size="12" transform="rotate(90 330,184.9)" text-rendering="optimizeSpeed" fill="#000000">1.287 (39)</text>
  <rect fill="blue" height="5.9" stroke="black" width="12" x="345" y="174.0"/>
  <text x="345" y="184.9" font-family="Tahoma" font-size="12" transform="rotate(90 345,184.9)" text-rendering="optimizeSpeed" fill="#000000">1.288 (59)</text>
  <rect fill="blue" height="2.1" stroke="black" width="12" x="360" y="177.8"/>
  <text x="360" y="184.9" font-family="Tahoma" font-size="12" transform="rotate(90 360,184.9)" text-rendering="optimizeSpeed" fill="#000000">1.289 (21)</text>
  <rect fill="blue" height="10.7" stroke="black" width="12" x="375" y="169.2"/>
  <text x="375" y="184.9" font-family="Tahoma" font-size="12" transform="rotate(90 375,184.9)" text-rendering="optimizeSpeed" fill="#000000">1.290 (107)</text>
  <rect fill="blue" height="8.0" stroke="black" width="12" x="390" y="171.9"/>
  <text x="390" y="184.9" font-family="Tahoma" font-size="12" transform="rotate(90 390,184.9)" text-rendering="optimizeSpeed" fill="#000000">1.291 (80)</text>
  <rect fill="blue" height="18.0" stroke="black" width="12" x="405" y="161.9"/>
  <text x="405" y="184.9" font-family="Tahoma" font-size="12" transform="rotate(90 405,184.9)" text-rendering="optimizeSpeed" fill="#000000">1.292 (180)</text>
  <rect fill="blue" height="0.2" stroke="black" width="12" x="420" y="179.7"/>
  <text x="420" y="184.9" font-family="Tahoma" font-size="12" transform="rotate(90 420,184.9)" text-rendering="optimizeSpeed" fill="#000000">1.292.16 (2)</text>
  <rect fill="blue" height="19.8" stroke="black" width="12" x="435" y="160.1"/>
  <text x="435" y="184.9" font-family="Tahoma" font-size="12" transform="rotate(90 435,184.9)" text-rendering="optimizeSpeed" fill="#000000">1.293 (198)</text>
  <rect fill="blue" height="3.4" stroke="black" width="12" x="450" y="176.5"/>
  <text x="450" y="184.9" font-family="Tahoma" font-size="12" transform="rotate(90 450,184.9)" text-rendering="optimizeSpeed" fill="#000000">1.294 (34)</text>
  <rect fill="blue" height="13.5" stroke="black" width="12" x="465" y="166.4"/>
  <text x="465" y="184.9" font-family="Tahoma" font-size="12" transform="rotate(90 465,184.9)" text-rendering="optimizeSpeed" fill="#000000">1.295 (135)</text>
  <rect fill="blue" height="6.6" stroke="black" width="12" x="480" y="173.3"/>
  <text x="480" y="184.9" font-family="Tahoma" font-size="12" transform="rotate(90 480,184.9)" text-rendering="optimizeSpeed" fill="#000000">1.296 (66)</text>
  <rect fill="blue" height="11.7" stroke="black" width="12" x="495" y="168.2"/>
  <text x="495" y="184.9" font-family="Tahoma" font-size="12" transform="rotate(90 495,184.9)" text-rendering="optimizeSpeed" fill="#000000">1.297 (117)</text>
  <rect fill="blue" height="18.1" stroke="black" width="12" x="510" y="161.8"/>
  <text x="510" y="184.9" font-family="Tahoma" font-size="12" transform="rotate(90 510,184.9)" text-rendering="optimizeSpeed" fill="#000000">1.299 (181)</text>
  <rect fill="blue" height="34.4" stroke="black" width="12" x="525" y="145.5"/>
  <text x="525" y="184.9" font-family="Tahoma" font-size="12" transform="rotate(90 525,184.9)" text-rendering="optimizeSpeed" fill="#000000">1.300 (344)</text>
  <rect fill="blue" height="17.7" stroke="black" width="12" x="540" y="162.2"/>
  <text x="540" y="184.9" font-family="Tahoma" font-size="12" transform="rotate(90 540,184.9)" text-rendering="optimizeSpeed" fill="#000000">1.301 (177)</text>
  <rect fill="blue" height="1.0" stroke="black" width="12" x="555" y="178.9"/>
  <text x="555" y="184.9" font-family="Tahoma" font-size="12" transform="rotate(90 555,184.9)" text-rendering="optimizeSpeed" fill="#000000">1.302 (10)</text>
  <rect fill="blue" height="28.6" stroke="black" width="12" x="570" y="151.3"/>
  <text x="570" y="184.9" font-family="Tahoma" font-size="12" transform="rotate(90 570,184.9)" text-rendering="optimizeSpeed" fill="#000000">1.303 (286)</text>
  <rect fill="blue" height="35.1" stroke="black" width="12" x="585" y="144.8"/>
  <text x="585" y="184.9" font-family="Tahoma" font-size="12" transform="rotate(90 585,184.9)" text-rendering="optimizeSpeed" fill="#000000">1.304 (351)</text>
  <rect fill="blue" height="0.4" stroke="black" width="12" x="600" y="179.5"/>
  <text x="600" y="184.9" font-family="Tahoma" font-size="12" transform="rotate(90 600,184.9)" text-rendering="optimizeSpeed" fill="#000000">1.305 (4)</text>
  <rect fill="blue" height="36.6" stroke="black" width="12" x="615" y="143.3"/>
  <text x="615" y="184.9" font-family="Tahoma" font-size="12" transform="rotate(90 615,184.9)" text-rendering="optimizeSpeed" fill="#000000">1.306 (366)</text>
  <rect fill="blue" height="30.6" stroke="black" width="12" x="630" y="149.3"/>
  <text x="630" y="184.9" font-family="Tahoma" font-size="12" transform="rotate(90 630,184.9)" text-rendering="optimizeSpeed" fill="#000000">1.307 (306)</text>
  <rect fill="blue" height="9.9" stroke="black" width="12" x="645" y="170.0"/>
  <text x="645" y="184.9" font-family="Tahoma" font-size="12" transform="rotate(90 645,184.9)" text-rendering="optimizeSpeed" fill="#000000">1.308 (99)</text>
  <rect fill="blue" height="86.2" stroke="black" width="12" x="660" y="93.7"/>
  <text x="660" y="184.9" font-family="Tahoma" font-size="12" transform="rotate(90 660,184.9)" text-rendering="optimizeSpeed" fill="#000000">1.309 (862)</text>
  <rect fill="blue" height="48.5" stroke="black" width="12" x="675" y="131.4"/>
  <text x="675" y="184.9" font-family="Tahoma" font-size="12" transform="rotate(90 675,184.9)" text-rendering="optimizeSpeed" fill="#000000">1.310 (485)</text>
  <rect fill="blue" height="23.7" stroke="black" width="12" x="690" y="156.2"/>
  <text x="690" y="184.9" font-family="Tahoma" font-size="12" transform="rotate(90 690,184.9)" text-rendering="optimizeSpeed" fill="#000000">1.311 (237)</text>
  <rect fill="blue" height="33.8" stroke="black" width="12" x="705" y="146.1"/>
  <text x="705" y="184.9" font-family="Tahoma" font-size="12" transform="rotate(90 705,184.9)" text-rendering="optimizeSpeed" fill="#000000">1.312 (338)</text>
  <rect fill="blue" height="77.3" stroke="black" width="12" x="720" y="102.6"/>
  <text x="720" y="184.9" font-family="Tahoma" font-size="12" transform="rotate(90 720,184.9)" text-rendering="optimizeSpeed" fill="#000000">1.313 (773)</text>
  <rect fill="blue" height="113.5" stroke="black" width="12" x="735" y="66.4"/>
  <text x="735" y="184.9" font-family="Tahoma" font-size="12" transform="rotate(90 735,184.9)" text-rendering="optimizeSpeed" fill="#000000">1.314 (1135)</text>
  <rect fill="blue" height="115.2" stroke="black" width="12" x="750" y="64.7"/>
  <text x="750" y="184.9" font-family="Tahoma" font-size="12" transform="rotate(90 750,184.9)" text-rendering="optimizeSpeed" fill="#000000">1.315 (1152)</text>
  <rect fill="blue" height="129.9" stroke="black" width="12" x="765" y="50.0"/>
  <text x="765" y="184.9" font-family="Tahoma" font-size="12" transform="rotate(90 765,184.9)" text-rendering="optimizeSpeed" fill="#000000">1.316 (1299)</text>
  <rect fill="blue" height="128.3" stroke="black" width="12" x="780" y="51.6"/>
  <text x="780" y="184.9" font-family="Tahoma" font-size="12" transform="rotate(90 780,184.9)" text-rendering="optimizeSpeed" fill="#000000">1.317 (1283)</text>
  <text x="10" y="40" font-family="Tahoma" font-size="20" text-rendering="optimizeSpeed" fill="#000000">Jenkins installations (total: 11600)</text>
</svg>
