<svg xmlns="http://www.w3.org/2000/svg" version="1.1" preserveAspectRatio="xMidYMid meet" viewBox="0 0 720 1400">
  <text x="30" y="40" font-family="sans-serif" font-size="16">Nodes, total: 16921</text>
  <path d="M 200,300 L 0.0,150.0 A 150,150 0 0 1 4.8,150.0 Z" fill="BurlyWood" stroke="black" stroke-width="1"/>
  <rect x="370" y="50" width="20" height="30" fill="BurlyWood" stroke="black" stroke-width="1"/>
  <text x="400" y="38" font-family="sans-serif" font-size="16">AIX (ppc) (37)</text>
  <path d="M 200,300 L 4.8,150.0 A 150,150 0 0 1 9.1,149.9 Z" fill="CadetBlue" stroke="black" stroke-width="1"/>
  <rect x="370" y="51" width="20" height="30" fill="CadetBlue" stroke="black" stroke-width="1"/>
  <text x="400" y="68" font-family="sans-serif" font-size="16">AIX (ppc64) (33)</text>
  <path d="M 200,300 L 9.1,149.9 A 150,150 0 0 1 10.5,149.9 Z" fill="red" stroke="black" stroke-width="1"/>
  <rect x="370" y="52" width="20" height="30" fill="red" stroke="black" stroke-width="1"/>
  <text x="400" y="98" font-family="sans-serif" font-size="16">FreeBSD (amd64) (11)</text>
  <path d="M 200,300 L 10.5,149.9 A 150,150 0 0 1 13.9,149.9 Z" fill="blue" stroke="black" stroke-width="1"/>
  <rect x="370" y="53" width="20" height="30" fill="blue" stroke="black" stroke-width="1"/>
  <text x="400" y="128" font-family="sans-serif" font-size="16">FreeBSD (i386) (26)</text>
  <path d="M 200,300 L 13.9,149.9 A 150,150 0 0 1 17.5,149.8 Z" fill="yellow" stroke="black" stroke-width="1"/>
  <rect x="370" y="54" width="20" height="30" fill="yellow" stroke="black" stroke-width="1"/>
  <text x="400" y="158" font-family="sans-serif" font-size="16">HP-UX (IA64N) (28)</text>
  <path d="M 200,300 L 17.5,149.8 A 150,150 0 0 1 18.1,149.8 Z" fill="green" stroke="black" stroke-width="1"/>
  <rect x="370" y="55" width="20" height="30" fill="green" stroke="black" stroke-width="1"/>
  <text x="400" y="188" font-family="sans-serif" font-size="16">HP-UX (IA64W) (4)</text>
  <path d="M 200,300 L 18.1,149.8 A 150,150 0 0 1 21.0,149.7 Z" fill="gold" stroke="black" stroke-width="1"/>
  <rect x="370" y="56" width="20" height="30" fill="gold" stroke="black" stroke-width="1"/>
  <text x="400" y="218" font-family="sans-serif" font-size="16">HP-UX (PA_RISC2.0) (23)</text>
  <path d="M 200,300 L 21.0,149.7 A 150,150 0 0 1 21.2,149.7 Z" fill="brown" stroke="black" stroke-width="1"/>
  <rect x="370" y="57" width="20" height="30" fill="brown" stroke="black" stroke-width="1"/>
  <text x="400" y="248" font-family="sans-serif" font-size="16">HP-UX (PA_RISC2.0W) (1)</text>
  <path d="M 200,300 L 21.2,149.7 A 150,150 0 0 1 257.2,101.7 Z" fill="Azure" stroke="black" stroke-width="1"/>
  <rect x="370" y="58" width="20" height="30" fill="Azure" stroke="black" stroke-width="1"/>
  <text x="400" y="278" font-family="sans-serif" font-size="16">Linux (amd64) (2060)</text>
  <path d="M 200,300 L 257.2,101.7 A 150,150 0 0 1 257.3,101.7 Z" fill="pink" stroke="black" stroke-width="1"/>
  <rect x="370" y="59" width="20" height="30" fill="pink" stroke="black" stroke-width="1"/>
  <text x="400" y="308" font-family="sans-serif" font-size="16">Linux (arm) (1)</text>
  <path d="M 200,300 L 257.3,101.7 A 150,150 0 0 1 256.3,-102.2 Z" fill="khaki" stroke="black" stroke-width="1"/>
  <rect x="370" y="60" width="20" height="30" fill="khaki" stroke="black" stroke-width="1"/>
  <text x="400" y="338" font-family="sans-serif" font-size="16">Linux (i386) (4024)</text>
  <path d="M 200,300 L 256.3,-102.2 A 150,150 0 0 1 255.5,-102.5 Z" fill="gray" stroke="black" stroke-width="1"/>
  <rect x="370" y="61" width="20" height="30" fill="gray" stroke="black" stroke-width="1"/>
  <text x="400" y="368" font-family="sans-serif" font-size="16">Linux (ia64) (9)</text>
  <path d="M 200,300 L 255.5,-102.5 A 150,150 0 0 1 254.6,-102.9 Z" fill="Aqua" stroke="black" stroke-width="1"/>
  <rect x="370" y="62" width="20" height="30" fill="Aqua" stroke="black" stroke-width="1"/>
  <text x="400" y="398" font-family="sans-serif" font-size="16">Linux (ppc) (10)</text>
  <path d="M 200,300 L 254.6,-102.9 A 150,150 0 0 1 254.4,-103.0 Z" fill="Aquamarine" stroke="black" stroke-width="1"/>
  <rect x="370" y="63" width="20" height="30" fill="Aquamarine" stroke="black" stroke-width="1"/>
  <text x="400" y="428" font-family="sans-serif" font-size="16">Linux (ppc64) (2)</text>
  <path d="M 200,300 L 254.4,-103.0 A 150,150 0 0 1 254.3,-103.1 Z" fill="beige" stroke="black" stroke-width="1"/>
  <rect x="370" y="64" width="20" height="30" fill="beige" stroke="black" stroke-width="1"/>
  <text x="400" y="458" font-family="sans-serif" font-size="16">Linux (s390) (1)</text>
  <path d="M 200,300 L 254.3,-103.1 A 150,150 0 0 1 254.0,-103.2 Z" fill="blueviolet" stroke="black" stroke-width="1"/>
  <rect x="370" y="65" width="20" height="30" fill="blueviolet" stroke="black" stroke-width="1"/>
  <text x="400" y="488" font-family="sans-serif" font-size="16">Linux (s390x) (4)</text>
  <path d="M 200,300 L 254.0,-103.2 A 150,150 0 0 1 253.7,-103.3 Z" fill="Bisque" stroke="black" stroke-width="1"/>
  <rect x="370" y="66" width="20" height="30" fill="Bisque" stroke="black" stroke-width="1"/>
  <text x="400" y="518" font-family="sans-serif" font-size="16">Linux (sparc) (3)</text>
  <path d="M 200,300 L 253.7,-103.3 A 150,150 0 0 1 249.3,-105.3 Z" fill="coral" stroke="black" stroke-width="1"/>
  <rect x="370" y="67" width="20" height="30" fill="coral" stroke="black" stroke-width="1"/>
  <text x="400" y="548" font-family="sans-serif" font-size="16">Linux (x86) (49)</text>
  <path d="M 200,300 L 249.3,-105.3 A 150,150 0 0 1 249.2,-105.3 Z" fill="darkblue" stroke="black" stroke-width="1"/>
  <rect x="370" y="68" width="20" height="30" fill="darkblue" stroke="black" stroke-width="1"/>
  <text x="400" y="578" font-family="sans-serif" font-size="16">Linux (x86_64) (1)</text>
  <path d="M 200,300 L 249.2,-105.3 A 150,150 0 0 1 234.7,-111.3 Z" fill="crimson" stroke="black" stroke-width="1"/>
  <rect x="370" y="69" width="20" height="30" fill="crimson" stroke="black" stroke-width="1"/>
  <text x="400" y="608" font-family="sans-serif" font-size="16">Mac OS X (i386) (154)</text>
  <path d="M 200,300 L 234.7,-111.3 A 150,150 0 0 1 231.8,-112.4 Z" fill="cyan" stroke="black" stroke-width="1"/>
  <rect x="370" y="70" width="20" height="30" fill="cyan" stroke="black" stroke-width="1"/>
  <text x="400" y="638" font-family="sans-serif" font-size="16">Mac OS X (ppc) (30)</text>
  <path d="M 200,300 L 231.8,-112.4 A 150,150 0 0 1 227.7,-113.9 Z" fill="darkred" stroke="black" stroke-width="1"/>
  <rect x="370" y="71" width="20" height="30" fill="darkred" stroke="black" stroke-width="1"/>
  <text x="400" y="668" font-family="sans-serif" font-size="16">Mac OS X (x86_64) (42)</text>
  <path d="M 200,300 L 227.7,-113.9 A 150,150 0 0 1 -339.7,-36.1 Z" fill="ivory" stroke="black" stroke-width="1"/>
  <rect x="370" y="72" width="20" height="30" fill="ivory" stroke="black" stroke-width="1"/>
  <text x="400" y="698" font-family="sans-serif" font-size="16">N/A (5484)</text>
  <path d="M 200,300 L -339.7,-36.1 A 150,150 0 0 1 -339.8,-35.9 Z" fill="lime" stroke="black" stroke-width="1"/>
  <rect x="370" y="73" width="20" height="30" fill="lime" stroke="black" stroke-width="1"/>
  <text x="400" y="728" font-family="sans-serif" font-size="16">OpenBSD (i386) (2)</text>
  <path d="M 200,300 L -339.8,-35.9 A 150,150 0 0 1 -340.0,-35.5 Z" fill="maroon" stroke="black" stroke-width="1"/>
  <rect x="370" y="74" width="20" height="30" fill="maroon" stroke="black" stroke-width="1"/>
  <text x="400" y="758" font-family="sans-serif" font-size="16">SunOS (amd64) (8)</text>
  <path d="M 200,300 L -340.0,-35.5 A 150,150 0 0 1 -348.8,-12.4 Z" fill="navy" stroke="black" stroke-width="1"/>
  <rect x="370" y="75" width="20" height="30" fill="navy" stroke="black" stroke-width="1"/>
  <text x="400" y="788" font-family="sans-serif" font-size="16">SunOS (sparc) (421)</text>
  <path d="M 200,300 L -348.8,-12.4 A 150,150 0 0 1 -348.9,-11.9 Z" fill="olive" stroke="black" stroke-width="1"/>
  <rect x="370" y="76" width="20" height="30" fill="olive" stroke="black" stroke-width="1"/>
  <text x="400" y="818" font-family="sans-serif" font-size="16">SunOS (sparcv9) (8)</text>
  <path d="M 200,300 L -348.9,-11.9 A 150,150 0 0 1 -349.8,5.0 Z" fill="plum" stroke="black" stroke-width="1"/>
  <rect x="370" y="77" width="20" height="30" fill="plum" stroke="black" stroke-width="1"/>
  <text x="400" y="848" font-family="sans-serif" font-size="16">SunOS (x86) (304)</text>
  <path d="M 200,300 L -349.8,5.0 A 150,150 0 0 1 -349.1,10.5 Z" fill="peru" stroke="black" stroke-width="1"/>
  <rect x="370" y="78" width="20" height="30" fill="peru" stroke="black" stroke-width="1"/>
  <text x="400" y="878" font-family="sans-serif" font-size="16">Windows 2000 (x86) (100)</text>
  <path d="M 200,300 L -349.1,10.5 A 150,150 0 0 1 -348.0,15.9 Z" fill="silver" stroke="black" stroke-width="1"/>
  <rect x="370" y="79" width="20" height="30" fill="silver" stroke="black" stroke-width="1"/>
  <text x="400" y="908" font-family="sans-serif" font-size="16">Windows 2003 (amd64) (97)</text>
  <path d="M 200,300 L -348.0,15.9 A 150,150 0 0 1 -263.8,98.6 Z" fill="tan" stroke="black" stroke-width="1"/>
  <rect x="370" y="80" width="20" height="30" fill="tan" stroke="black" stroke-width="1"/>
  <text x="400" y="938" font-family="sans-serif" font-size="16">Windows 2003 (x86) (1645)</text>
  <path d="M 200,300 L -263.8,98.6 A 150,150 0 0 1 -263.3,98.8 Z" fill="teal" stroke="black" stroke-width="1"/>
  <rect x="370" y="81" width="20" height="30" fill="teal" stroke="black" stroke-width="1"/>
  <text x="400" y="968" font-family="sans-serif" font-size="16">Windows 7 (amd64) (6)</text>
  <path d="M 200,300 L -263.3,98.8 A 150,150 0 0 1 -262.7,99.1 Z" fill="violet" stroke="black" stroke-width="1"/>
  <rect x="370" y="82" width="20" height="30" fill="violet" stroke="black" stroke-width="1"/>
  <text x="400" y="998" font-family="sans-serif" font-size="16">Windows 7 (x86) (7)</text>
  <path d="M 200,300 L -262.7,99.1 A 150,150 0 0 1 -262.4,99.3 Z" fill="AliceBlue" stroke="black" stroke-width="1"/>
  <rect x="370" y="83" width="20" height="30" fill="AliceBlue" stroke="black" stroke-width="1"/>
  <text x="400" y="1028" font-family="sans-serif" font-size="16">Windows NT (unknown) (x86) (3)</text>
  <path d="M 200,300 L -262.4,99.3 A 150,150 0 0 1 -262.3,99.3 Z" fill="DarkOliveGreen" stroke="black" stroke-width="1"/>
  <rect x="370" y="84" width="20" height="30" fill="DarkOliveGreen" stroke="black" stroke-width="1"/>
  <text x="400" y="1058" font-family="sans-serif" font-size="16">Windows Server 2003 (amd64) (1)</text>
  <path d="M 200,300 L -262.3,99.3 A 150,150 0 0 1 -260.3,100.3 Z" fill="Indigo" stroke="black" stroke-width="1"/>
  <rect x="370" y="85" width="20" height="30" fill="Indigo" stroke="black" stroke-width="1"/>
  <text x="400" y="1088" font-family="sans-serif" font-size="16">Windows Server 2003 (x86) (24)</text>
  <path d="M 200,300 L -260.3,100.3 A 150,150 0 0 1 -254.7,102.9 Z" fill="MediumPurple" stroke="black" stroke-width="1"/>
  <rect x="370" y="86" width="20" height="30" fill="MediumPurple" stroke="black" stroke-width="1"/>
  <text x="400" y="1118" font-family="sans-serif" font-size="16">Windows Server 2008 (amd64) (63)</text>
  <path d="M 200,300 L -254.7,102.9 A 150,150 0 0 1 -246.0,106.7 Z" fill="Purple" stroke="black" stroke-width="1"/>
  <rect x="370" y="87" width="20" height="30" fill="Purple" stroke="black" stroke-width="1"/>
  <text x="400" y="1148" font-family="sans-serif" font-size="16">Windows Server 2008 (x86) (96)</text>
  <path d="M 200,300 L -246.0,106.7 A 150,150 0 0 1 -244.1,107.5 Z" fill="AntiqueWhite" stroke="black" stroke-width="1"/>
  <rect x="370" y="88" width="20" height="30" fill="AntiqueWhite" stroke="black" stroke-width="1"/>
  <text x="400" y="1178" font-family="sans-serif" font-size="16">Windows Vista (amd64) (21)</text>
  <path d="M 200,300 L -244.1,107.5 A 150,150 0 0 1 -230.6,112.8 Z" fill="DarkOrange" stroke="black" stroke-width="1"/>
  <rect x="370" y="89" width="20" height="30" fill="DarkOrange" stroke="black" stroke-width="1"/>
  <text x="400" y="1208" font-family="sans-serif" font-size="16">Windows Vista (x86) (141)</text>
  <path d="M 200,300 L -230.6,112.8 A 150,150 0 0 1 -227.0,114.2 Z" fill="Ivory" stroke="black" stroke-width="1"/>
  <rect x="370" y="90" width="20" height="30" fill="Ivory" stroke="black" stroke-width="1"/>
  <text x="400" y="1238" font-family="sans-serif" font-size="16">Windows XP (amd64) (36)</text>
  <path d="M 200,300 L -227.0,114.2 A 150,150 0 0 1 -0.5,150.0 Z" fill="MediumSeaGreen" stroke="black" stroke-width="1"/>
  <rect x="370" y="91" width="20" height="30" fill="MediumSeaGreen" stroke="black" stroke-width="1"/>
  <text x="400" y="1268" font-family="sans-serif" font-size="16">Windows XP (x86) (1897)</text>
  <path d="M 200,300 L -0.5,150.0 A 150,150 0 0 1 -0.4,150.0 Z" fill="Red" stroke="black" stroke-width="1"/>
  <rect x="370" y="92" width="20" height="30" fill="Red" stroke="black" stroke-width="1"/>
  <text x="400" y="1298" font-family="sans-serif" font-size="16">linux (amd64) (1)</text>
  <path d="M 200,300 L -0.4,150.0 A 150,150 0 0 1 -0.1,150.0 Z" fill="Aqua" stroke="black" stroke-width="1"/>
  <rect x="370" y="93" width="20" height="30" fill="Aqua" stroke="black" stroke-width="1"/>
  <text x="400" y="1328" font-family="sans-serif" font-size="16">z/OS (s390) (2)</text>
  <path d="M 200,300 L -0.1,150.0 A 150,150 0 0 1 0.0,150.0 Z" fill="DarkOrchid" stroke="black" stroke-width="1"/>
  <rect x="370" y="94" width="20" height="30" fill="DarkOrchid" stroke="black" stroke-width="1"/>
  <text x="400" y="1358" font-family="sans-serif" font-size="16">z/OS (s390x) (1)</text>
</svg>
