<svg xmlns="http://www.w3.org/2000/svg" version="1.1" preserveAspectRatio="xMidYMid meet" viewBox="0 0 215 371.4">
  <rect fill="blue" height="10.4" stroke="black" width="12" x="15" y="61.0"/>
  <text x="15" y="76.4" font-family="Tahoma" font-size="12" transform="rotate(90 15,76.4)" text-rendering="optimizeSpeed" fill="#000000">batch-task (1039)</text>
  <rect fill="blue" height="11.1" stroke="black" width="12" x="30" y="60.3"/>
  <text x="30" y="76.4" font-family="Tahoma" font-size="12" transform="rotate(90 30,76.4)" text-rendering="optimizeSpeed" fill="#000000">violations (1112)</text>
  <rect fill="blue" height="12.3" stroke="black" width="12" x="45" y="59.1"/>
  <text x="45" y="76.4" font-family="Tahoma" font-size="12" transform="rotate(90 45,76.4)" text-rendering="optimizeSpeed" fill="#000000">emotional-hudson (1229)</text>
  <rect fill="blue" height="13.2" stroke="black" width="12" x="60" y="58.2"/>
  <text x="60" y="76.4" font-family="Tahoma" font-size="12" transform="rotate(90 60,76.4)" text-rendering="optimizeSpeed" fill="#000000">disk-usage (1315)</text>
  <rect fill="blue" height="14.1" stroke="black" width="12" x="75" y="57.3"/>
  <text x="75" y="76.4" font-family="Tahoma" font-size="12" transform="rotate(90 75,76.4)" text-rendering="optimizeSpeed" fill="#000000">cobertura (1409)</text>
  <rect fill="blue" height="14.4" stroke="black" width="12" x="90" y="57.0"/>
  <text x="90" y="76.4" font-family="Tahoma" font-size="12" transform="rotate(90 90,76.4)" text-rendering="optimizeSpeed" fill="#000000">tasks (1445)</text>
  <rect fill="blue" height="15.9" stroke="black" width="12" x="105" y="55.5"/>
  <text x="105" y="76.4" font-family="Tahoma" font-size="12" transform="rotate(90 105,76.4)" text-rendering="optimizeSpeed" fill="#000000">pmd (1588)</text>
  <rect fill="blue" height="16.0" stroke="black" width="12" x="120" y="55.4"/>
  <text x="120" y="76.4" font-family="Tahoma" font-size="12" transform="rotate(90 120,76.4)" text-rendering="optimizeSpeed" fill="#000000">warnings (1597)</text>
  <rect fill="blue" height="16.3" stroke="black" width="12" x="135" y="55.1"/>
  <text x="135" y="76.4" font-family="Tahoma" font-size="12" transform="rotate(90 135,76.4)" text-rendering="optimizeSpeed" fill="#000000">email-ext (1630)</text>
  <rect fill="blue" height="18.2" stroke="black" width="12" x="150" y="53.2"/>
  <text x="150" y="76.4" font-family="Tahoma" font-size="12" transform="rotate(90 150,76.4)" text-rendering="optimizeSpeed" fill="#000000">checkstyle (1816)</text>
  <rect fill="blue" height="21.4" stroke="black" width="12" x="165" y="50.0"/>
  <text x="165" y="76.4" font-family="Tahoma" font-size="12" transform="rotate(90 165,76.4)" text-rendering="optimizeSpeed" fill="#000000">findbugs (2140)</text>
  <text x="10" y="40" font-family="Tahoma" font-size="20" text-rendering="optimizeSpeed" fill="#000000">Plugin installations (installations &gt; 1000)</text>
</svg>
