<svg xmlns="http://www.w3.org/2000/svg" version="1.1" preserveAspectRatio="xMidYMid meet" viewBox="0 0 785 606.0">
  <rect fill="blue" height="10.9" stroke="black" width="12" x="15" y="295.1"/>
  <text x="15" y="311.0" font-family="Tahoma" font-size="12" transform="rotate(90 15,311.0)" text-rendering="optimizeSpeed" fill="#000000">0 (272)</text>
  <rect fill="blue" height="39.7" stroke="black" width="12" x="30" y="266.3"/>
  <text x="30" y="311.0" font-family="Tahoma" font-size="12" transform="rotate(90 30,311.0)" text-rendering="optimizeSpeed" fill="#000000">1 (992)</text>
  <rect fill="blue" height="256.0" stroke="black" width="12" x="45" y="50.0"/>
  <text x="45" y="311.0" font-family="Tahoma" font-size="12" transform="rotate(90 45,311.0)" text-rendering="optimizeSpeed" fill="#000000">2 (6400)</text>
  <rect fill="blue" height="16.1" stroke="black" width="12" x="60" y="289.9"/>
  <text x="60" y="311.0" font-family="Tahoma" font-size="12" transform="rotate(90 60,311.0)" text-rendering="optimizeSpeed" fill="#000000">3 (402)</text>
  <rect fill="blue" height="18.3" stroke="black" width="12" x="75" y="287.7"/>
  <text x="75" y="311.0" font-family="Tahoma" font-size="12" transform="rotate(90 75,311.0)" text-rendering="optimizeSpeed" fill="#000000">4 (457)</text>
  <rect fill="blue" height="7.8" stroke="black" width="12" x="90" y="298.2"/>
  <text x="90" y="311.0" font-family="Tahoma" font-size="12" transform="rotate(90 90,311.0)" text-rendering="optimizeSpeed" fill="#000000">5 (194)</text>
  <rect fill="blue" height="5.0" stroke="black" width="12" x="105" y="301.0"/>
  <text x="105" y="311.0" font-family="Tahoma" font-size="12" transform="rotate(90 105,311.0)" text-rendering="optimizeSpeed" fill="#000000">6 (125)</text>
  <rect fill="blue" height="2.4" stroke="black" width="12" x="120" y="303.6"/>
  <text x="120" y="311.0" font-family="Tahoma" font-size="12" transform="rotate(90 120,311.0)" text-rendering="optimizeSpeed" fill="#000000">7 (59)</text>
  <rect fill="blue" height="3.2" stroke="black" width="12" x="135" y="302.8"/>
  <text x="135" y="311.0" font-family="Tahoma" font-size="12" transform="rotate(90 135,311.0)" text-rendering="optimizeSpeed" fill="#000000">8 (81)</text>
  <rect fill="blue" height="1.2" stroke="black" width="12" x="150" y="304.8"/>
  <text x="150" y="311.0" font-family="Tahoma" font-size="12" transform="rotate(90 150,311.0)" text-rendering="optimizeSpeed" fill="#000000">9 (31)</text>
  <rect fill="blue" height="2.4" stroke="black" width="12" x="165" y="303.6"/>
  <text x="165" y="311.0" font-family="Tahoma" font-size="12" transform="rotate(90 165,311.0)" text-rendering="optimizeSpeed" fill="#000000">10 (59)</text>
  <rect fill="blue" height="1.0" stroke="black" width="12" x="180" y="305.0"/>
  <text x="180" y="311.0" font-family="Tahoma" font-size="12" transform="rotate(90 180,311.0)" text-rendering="optimizeSpeed" fill="#000000">11 (24)</text>
  <rect fill="blue" height="0.8" stroke="black" width="12" x="195" y="305.2"/>
  <text x="195" y="311.0" font-family="Tahoma" font-size="12" transform="rotate(90 195,311.0)" text-rendering="optimizeSpeed" fill="#000000">12 (21)</text>
  <rect fill="blue" height="0.4" stroke="black" width="12" x="210" y="305.6"/>
  <text x="210" y="311.0" font-family="Tahoma" font-size="12" transform="rotate(90 210,311.0)" text-rendering="optimizeSpeed" fill="#000000">13 (11)</text>
  <rect fill="blue" height="0.6" stroke="black" width="12" x="225" y="305.4"/>
  <text x="225" y="311.0" font-family="Tahoma" font-size="12" transform="rotate(90 225,311.0)" text-rendering="optimizeSpeed" fill="#000000">14 (15)</text>
  <rect fill="blue" height="0.3" stroke="black" width="12" x="240" y="305.7"/>
  <text x="240" y="311.0" font-family="Tahoma" font-size="12" transform="rotate(90 240,311.0)" text-rendering="optimizeSpeed" fill="#000000">15 (8)</text>
  <rect fill="blue" height="0.5" stroke="black" width="12" x="255" y="305.5"/>
  <text x="255" y="311.0" font-family="Tahoma" font-size="12" transform="rotate(90 255,311.0)" text-rendering="optimizeSpeed" fill="#000000">16 (13)</text>
  <rect fill="blue" height="0.4" stroke="black" width="12" x="270" y="305.6"/>
  <text x="270" y="311.0" font-family="Tahoma" font-size="12" transform="rotate(90 270,311.0)" text-rendering="optimizeSpeed" fill="#000000">17 (10)</text>
  <rect fill="blue" height="0.4" stroke="black" width="12" x="285" y="305.6"/>
  <text x="285" y="311.0" font-family="Tahoma" font-size="12" transform="rotate(90 285,311.0)" text-rendering="optimizeSpeed" fill="#000000">18 (9)</text>
  <rect fill="blue" height="0.2" stroke="black" width="12" x="300" y="305.8"/>
  <text x="300" y="311.0" font-family="Tahoma" font-size="12" transform="rotate(90 300,311.0)" text-rendering="optimizeSpeed" fill="#000000">19 (6)</text>
  <rect fill="blue" height="0.4" stroke="black" width="12" x="315" y="305.6"/>
  <text x="315" y="311.0" font-family="Tahoma" font-size="12" transform="rotate(90 315,311.0)" text-rendering="optimizeSpeed" fill="#000000">20 (10)</text>
  <rect fill="blue" height="0.2" stroke="black" width="12" x="330" y="305.8"/>
  <text x="330" y="311.0" font-family="Tahoma" font-size="12" transform="rotate(90 330,311.0)" text-rendering="optimizeSpeed" fill="#000000">21 (6)</text>
  <rect fill="blue" height="0.2" stroke="black" width="12" x="345" y="305.8"/>
  <text x="345" y="311.0" font-family="Tahoma" font-size="12" transform="rotate(90 345,311.0)" text-rendering="optimizeSpeed" fill="#000000">23 (4)</text>
  <rect fill="blue" height="0.2" stroke="black" width="12" x="360" y="305.8"/>
  <text x="360" y="311.0" font-family="Tahoma" font-size="12" transform="rotate(90 360,311.0)" text-rendering="optimizeSpeed" fill="#000000">24 (5)</text>
  <rect fill="blue" height="0.2" stroke="black" width="12" x="375" y="305.8"/>
  <text x="375" y="311.0" font-family="Tahoma" font-size="12" transform="rotate(90 375,311.0)" text-rendering="optimizeSpeed" fill="#000000">25 (6)</text>
  <rect fill="blue" height="0.0" stroke="black" width="12" x="390" y="306.0"/>
  <text x="390" y="311.0" font-family="Tahoma" font-size="12" transform="rotate(90 390,311.0)" text-rendering="optimizeSpeed" fill="#000000">26 (1)</text>
  <rect fill="blue" height="0.0" stroke="black" width="12" x="405" y="306.0"/>
  <text x="405" y="311.0" font-family="Tahoma" font-size="12" transform="rotate(90 405,311.0)" text-rendering="optimizeSpeed" fill="#000000">27 (1)</text>
  <rect fill="blue" height="0.1" stroke="black" width="12" x="420" y="305.9"/>
  <text x="420" y="311.0" font-family="Tahoma" font-size="12" transform="rotate(90 420,311.0)" text-rendering="optimizeSpeed" fill="#000000">28 (2)</text>
  <rect fill="blue" height="0.1" stroke="black" width="12" x="435" y="305.9"/>
  <text x="435" y="311.0" font-family="Tahoma" font-size="12" transform="rotate(90 435,311.0)" text-rendering="optimizeSpeed" fill="#000000">29 (2)</text>
  <rect fill="blue" height="0.1" stroke="black" width="12" x="450" y="305.9"/>
  <text x="450" y="311.0" font-family="Tahoma" font-size="12" transform="rotate(90 450,311.0)" text-rendering="optimizeSpeed" fill="#000000">30 (2)</text>
  <rect fill="blue" height="0.0" stroke="black" width="12" x="465" y="306.0"/>
  <text x="465" y="311.0" font-family="Tahoma" font-size="12" transform="rotate(90 465,311.0)" text-rendering="optimizeSpeed" fill="#000000">31 (1)</text>
  <rect fill="blue" height="0.0" stroke="black" width="12" x="480" y="306.0"/>
  <text x="480" y="311.0" font-family="Tahoma" font-size="12" transform="rotate(90 480,311.0)" text-rendering="optimizeSpeed" fill="#000000">32 (1)</text>
  <rect fill="blue" height="0.1" stroke="black" width="12" x="495" y="305.9"/>
  <text x="495" y="311.0" font-family="Tahoma" font-size="12" transform="rotate(90 495,311.0)" text-rendering="optimizeSpeed" fill="#000000">34 (3)</text>
  <rect fill="blue" height="0.0" stroke="black" width="12" x="510" y="306.0"/>
  <text x="510" y="311.0" font-family="Tahoma" font-size="12" transform="rotate(90 510,311.0)" text-rendering="optimizeSpeed" fill="#000000">35 (1)</text>
  <rect fill="blue" height="0.1" stroke="black" width="12" x="525" y="305.9"/>
  <text x="525" y="311.0" font-family="Tahoma" font-size="12" transform="rotate(90 525,311.0)" text-rendering="optimizeSpeed" fill="#000000">37 (2)</text>
  <rect fill="blue" height="0.0" stroke="black" width="12" x="540" y="306.0"/>
  <text x="540" y="311.0" font-family="Tahoma" font-size="12" transform="rotate(90 540,311.0)" text-rendering="optimizeSpeed" fill="#000000">39 (1)</text>
  <rect fill="blue" height="0.1" stroke="black" width="12" x="555" y="305.9"/>
  <text x="555" y="311.0" font-family="Tahoma" font-size="12" transform="rotate(90 555,311.0)" text-rendering="optimizeSpeed" fill="#000000">40 (3)</text>
  <rect fill="blue" height="0.0" stroke="black" width="12" x="570" y="306.0"/>
  <text x="570" y="311.0" font-family="Tahoma" font-size="12" transform="rotate(90 570,311.0)" text-rendering="optimizeSpeed" fill="#000000">42 (1)</text>
  <rect fill="blue" height="0.0" stroke="black" width="12" x="585" y="306.0"/>
  <text x="585" y="311.0" font-family="Tahoma" font-size="12" transform="rotate(90 585,311.0)" text-rendering="optimizeSpeed" fill="#000000">44 (1)</text>
  <rect fill="blue" height="0.0" stroke="black" width="12" x="600" y="306.0"/>
  <text x="600" y="311.0" font-family="Tahoma" font-size="12" transform="rotate(90 600,311.0)" text-rendering="optimizeSpeed" fill="#000000">45 (1)</text>
  <rect fill="blue" height="0.0" stroke="black" width="12" x="615" y="306.0"/>
  <text x="615" y="311.0" font-family="Tahoma" font-size="12" transform="rotate(90 615,311.0)" text-rendering="optimizeSpeed" fill="#000000">50 (1)</text>
  <rect fill="blue" height="0.1" stroke="black" width="12" x="630" y="305.9"/>
  <text x="630" y="311.0" font-family="Tahoma" font-size="12" transform="rotate(90 630,311.0)" text-rendering="optimizeSpeed" fill="#000000">51 (2)</text>
  <rect fill="blue" height="0.0" stroke="black" width="12" x="645" y="306.0"/>
  <text x="645" y="311.0" font-family="Tahoma" font-size="12" transform="rotate(90 645,311.0)" text-rendering="optimizeSpeed" fill="#000000">54 (1)</text>
  <rect fill="blue" height="0.0" stroke="black" width="12" x="660" y="306.0"/>
  <text x="660" y="311.0" font-family="Tahoma" font-size="12" transform="rotate(90 660,311.0)" text-rendering="optimizeSpeed" fill="#000000">55 (1)</text>
  <rect fill="blue" height="0.0" stroke="black" width="12" x="675" y="306.0"/>
  <text x="675" y="311.0" font-family="Tahoma" font-size="12" transform="rotate(90 675,311.0)" text-rendering="optimizeSpeed" fill="#000000">64 (1)</text>
  <rect fill="blue" height="0.1" stroke="black" width="12" x="690" y="305.9"/>
  <text x="690" y="311.0" font-family="Tahoma" font-size="12" transform="rotate(90 690,311.0)" text-rendering="optimizeSpeed" fill="#000000">67 (2)</text>
  <rect fill="blue" height="0.0" stroke="black" width="12" x="705" y="306.0"/>
  <text x="705" y="311.0" font-family="Tahoma" font-size="12" transform="rotate(90 705,311.0)" text-rendering="optimizeSpeed" fill="#000000">71 (1)</text>
  <rect fill="blue" height="0.0" stroke="black" width="12" x="720" y="306.0"/>
  <text x="720" y="311.0" font-family="Tahoma" font-size="12" transform="rotate(90 720,311.0)" text-rendering="optimizeSpeed" fill="#000000">96 (1)</text>
  <rect fill="blue" height="0.0" stroke="black" width="12" x="735" y="306.0"/>
  <text x="735" y="311.0" font-family="Tahoma" font-size="12" transform="rotate(90 735,311.0)" text-rendering="optimizeSpeed" fill="#000000">101 (1)</text>
  <text x="10" y="40" font-family="Tahoma" font-size="20" text-rendering="optimizeSpeed" fill="#000000">Executors per install (total: 9254)</text>
</svg>
