<svg xmlns="http://www.w3.org/2000/svg" version="1.1" preserveAspectRatio="xMidYMid meet" viewBox="0 0 710 460.2">
  <rect fill="blue" height="5.1" stroke="black" width="12" x="15" y="155.2"/>
  <text x="15" y="165.2" font-family="Tahoma" font-size="12" transform="rotate(90 15,165.2)" text-rendering="optimizeSpeed" fill="#000000">clover (507)</text>
  <rect fill="blue" height="5.1" stroke="black" width="12" x="30" y="155.1"/>
  <text x="30" y="165.2" font-family="Tahoma" font-size="12" transform="rotate(90 30,165.2)" text-rendering="optimizeSpeed" fill="#000000">sidebar-link (512)</text>
  <rect fill="blue" height="5.4" stroke="black" width="12" x="45" y="154.9"/>
  <text x="45" y="165.2" font-family="Tahoma" font-size="12" transform="rotate(90 45,165.2)" text-rendering="optimizeSpeed" fill="#000000">clearcase (538)</text>
  <rect fill="blue" height="5.6" stroke="black" width="12" x="60" y="154.7"/>
  <text x="60" y="165.2" font-family="Tahoma" font-size="12" transform="rotate(90 60,165.2)" text-rendering="optimizeSpeed" fill="#000000">plot (558)</text>
  <rect fill="blue" height="5.6" stroke="black" width="12" x="75" y="154.6"/>
  <text x="75" y="165.2" font-family="Tahoma" font-size="12" transform="rotate(90 75,165.2)" text-rendering="optimizeSpeed" fill="#000000">dependencyanalyzer (560)</text>
  <rect fill="blue" height="6.0" stroke="black" width="12" x="90" y="154.3"/>
  <text x="90" y="165.3" font-family="Tahoma" font-size="12" transform="rotate(90 90,165.3)" text-rendering="optimizeSpeed" fill="#000000">nunit (599)</text>
  <rect fill="blue" height="6.0" stroke="black" width="12" x="105" y="154.2"/>
  <text x="105" y="165.2" font-family="Tahoma" font-size="12" transform="rotate(90 105,165.2)" text-rendering="optimizeSpeed" fill="#000000">m2-extra-steps (600)</text>
  <rect fill="blue" height="6.2" stroke="black" width="12" x="120" y="154.1"/>
  <text x="120" y="165.2" font-family="Tahoma" font-size="12" transform="rotate(90 120,165.2)" text-rendering="optimizeSpeed" fill="#000000">locks-and-latches (616)</text>
  <rect fill="blue" height="6.4" stroke="black" width="12" x="135" y="153.9"/>
  <text x="135" y="165.2" font-family="Tahoma" font-size="12" transform="rotate(90 135,165.2)" text-rendering="optimizeSpeed" fill="#000000">text-finder (639)</text>
  <rect fill="blue" height="6.4" stroke="black" width="12" x="150" y="153.8"/>
  <text x="150" y="165.2" font-family="Tahoma" font-size="12" transform="rotate(90 150,165.2)" text-rendering="optimizeSpeed" fill="#000000">backup (644)</text>
  <rect fill="blue" height="6.5" stroke="black" width="12" x="165" y="153.7"/>
  <text x="165" y="165.2" font-family="Tahoma" font-size="12" transform="rotate(90 165,165.2)" text-rendering="optimizeSpeed" fill="#000000">git (654)</text>
  <rect fill="blue" height="6.6" stroke="black" width="12" x="180" y="153.6"/>
  <text x="180" y="165.2" font-family="Tahoma" font-size="12" transform="rotate(90 180,165.2)" text-rendering="optimizeSpeed" fill="#000000">jabber (661)</text>
  <rect fill="blue" height="7.4" stroke="black" width="12" x="195" y="152.8"/>
  <text x="195" y="165.2" font-family="Tahoma" font-size="12" transform="rotate(90 195,165.2)" text-rendering="optimizeSpeed" fill="#000000">dry (742)</text>
  <rect fill="blue" height="7.5" stroke="black" width="12" x="210" y="152.7"/>
  <text x="210" y="165.2" font-family="Tahoma" font-size="12" transform="rotate(90 210,165.2)" text-rendering="optimizeSpeed" fill="#000000">release (753)</text>
  <rect fill="blue" height="7.7" stroke="black" width="12" x="225" y="152.6"/>
  <text x="225" y="165.2" font-family="Tahoma" font-size="12" transform="rotate(90 225,165.2)" text-rendering="optimizeSpeed" fill="#000000">svn-release-mgr (766)</text>
  <rect fill="blue" height="8.0" stroke="black" width="12" x="240" y="152.3"/>
  <text x="240" y="165.2" font-family="Tahoma" font-size="12" transform="rotate(90 240,165.2)" text-rendering="optimizeSpeed" fill="#000000">audit-trail (797)</text>
  <rect fill="blue" height="8.1" stroke="black" width="12" x="255" y="152.1"/>
  <text x="255" y="165.2" font-family="Tahoma" font-size="12" transform="rotate(90 255,165.2)" text-rendering="optimizeSpeed" fill="#000000">msbuild (811)</text>
  <rect fill="blue" height="8.8" stroke="black" width="12" x="270" y="151.5"/>
  <text x="270" y="165.2" font-family="Tahoma" font-size="12" transform="rotate(90 270,165.2)" text-rendering="optimizeSpeed" fill="#000000">m2release (875)</text>
  <rect fill="blue" height="9.2" stroke="black" width="12" x="285" y="151.1"/>
  <text x="285" y="165.2" font-family="Tahoma" font-size="12" transform="rotate(90 285,165.2)" text-rendering="optimizeSpeed" fill="#000000">trac (915)</text>
  <rect fill="blue" height="10.6" stroke="black" width="12" x="300" y="149.6"/>
  <text x="300" y="165.2" font-family="Tahoma" font-size="12" transform="rotate(90 300,165.2)" text-rendering="optimizeSpeed" fill="#000000">scp (1064)</text>
  <rect fill="blue" height="11.9" stroke="black" width="12" x="315" y="148.3"/>
  <text x="315" y="165.2" font-family="Tahoma" font-size="12" transform="rotate(90 315,165.2)" text-rendering="optimizeSpeed" fill="#000000">active-directory (1195)</text>
  <rect fill="blue" height="12.3" stroke="black" width="12" x="330" y="147.9"/>
  <text x="330" y="165.2" font-family="Tahoma" font-size="12" transform="rotate(90 330,165.2)" text-rendering="optimizeSpeed" fill="#000000">sonar (1234)</text>
  <rect fill="blue" height="12.7" stroke="black" width="12" x="345" y="147.6"/>
  <text x="345" y="165.2" font-family="Tahoma" font-size="12" transform="rotate(90 345,165.2)" text-rendering="optimizeSpeed" fill="#000000">emma (1266)</text>
  <rect fill="blue" height="12.7" stroke="black" width="12" x="360" y="147.5"/>
  <text x="360" y="165.3" font-family="Tahoma" font-size="12" transform="rotate(90 360,165.3)" text-rendering="optimizeSpeed" fill="#000000">ci-game (1271)</text>
  <rect fill="blue" height="12.9" stroke="black" width="12" x="375" y="147.4"/>
  <text x="375" y="165.2" font-family="Tahoma" font-size="12" transform="rotate(90 375,165.2)" text-rendering="optimizeSpeed" fill="#000000">build-timeout (1287)</text>
  <rect fill="blue" height="12.9" stroke="black" width="12" x="390" y="147.4"/>
  <text x="390" y="165.2" font-family="Tahoma" font-size="12" transform="rotate(90 390,165.2)" text-rendering="optimizeSpeed" fill="#000000">svn-tag (1290)</text>
  <rect fill="blue" height="12.9" stroke="black" width="12" x="405" y="147.3"/>
  <text x="405" y="165.2" font-family="Tahoma" font-size="12" transform="rotate(90 405,165.2)" text-rendering="optimizeSpeed" fill="#000000">deploy (1291)</text>
  <rect fill="blue" height="12.9" stroke="black" width="12" x="420" y="147.3"/>
  <text x="420" y="165.2" font-family="Tahoma" font-size="12" transform="rotate(90 420,165.2)" text-rendering="optimizeSpeed" fill="#000000">jira (1292)</text>
  <rect fill="blue" height="13.6" stroke="black" width="12" x="435" y="146.7"/>
  <text x="435" y="165.2" font-family="Tahoma" font-size="12" transform="rotate(90 435,165.2)" text-rendering="optimizeSpeed" fill="#000000">batch-task (1356)</text>
  <rect fill="blue" height="15.5" stroke="black" width="12" x="450" y="144.7"/>
  <text x="450" y="165.2" font-family="Tahoma" font-size="12" transform="rotate(90 450,165.2)" text-rendering="optimizeSpeed" fill="#000000">violations (1554)</text>
  <rect fill="blue" height="16.0" stroke="black" width="12" x="465" y="144.3"/>
  <text x="465" y="165.3" font-family="Tahoma" font-size="12" transform="rotate(90 465,165.3)" text-rendering="optimizeSpeed" fill="#000000">greenballs (1599)</text>
  <rect fill="blue" height="17.5" stroke="black" width="12" x="480" y="142.7"/>
  <text x="480" y="165.2" font-family="Tahoma" font-size="12" transform="rotate(90 480,165.2)" text-rendering="optimizeSpeed" fill="#000000">emotional-hudson (1751)</text>
  <rect fill="blue" height="18.5" stroke="black" width="12" x="495" y="141.7"/>
  <text x="495" y="165.2" font-family="Tahoma" font-size="12" transform="rotate(90 495,165.2)" text-rendering="optimizeSpeed" fill="#000000">disk-usage (1852)</text>
  <rect fill="blue" height="18.9" stroke="black" width="12" x="510" y="141.3"/>
  <text x="510" y="165.2" font-family="Tahoma" font-size="12" transform="rotate(90 510,165.2)" text-rendering="optimizeSpeed" fill="#000000">tasks (1892)</text>
  <rect fill="blue" height="21.4" stroke="black" width="12" x="525" y="138.9"/>
  <text x="525" y="165.2" font-family="Tahoma" font-size="12" transform="rotate(90 525,165.2)" text-rendering="optimizeSpeed" fill="#000000">warnings (2138)</text>
  <rect fill="blue" height="22.7" stroke="black" width="12" x="540" y="137.5"/>
  <text x="540" y="165.3" font-family="Tahoma" font-size="12" transform="rotate(90 540,165.3)" text-rendering="optimizeSpeed" fill="#000000">pmd (2274)</text>
  <rect fill="blue" height="23.2" stroke="black" width="12" x="555" y="137.0"/>
  <text x="555" y="165.2" font-family="Tahoma" font-size="12" transform="rotate(90 555,165.2)" text-rendering="optimizeSpeed" fill="#000000">cobertura (2323)</text>
  <rect fill="blue" height="25.7" stroke="black" width="12" x="570" y="134.5"/>
  <text x="570" y="165.2" font-family="Tahoma" font-size="12" transform="rotate(90 570,165.2)" text-rendering="optimizeSpeed" fill="#000000">email-ext (2571)</text>
  <rect fill="blue" height="26.1" stroke="black" width="12" x="585" y="134.2"/>
  <text x="585" y="165.2" font-family="Tahoma" font-size="12" transform="rotate(90 585,165.2)" text-rendering="optimizeSpeed" fill="#000000">checkstyle (2609)</text>
  <rect fill="blue" height="29.8" stroke="black" width="12" x="600" y="130.5"/>
  <text x="600" y="165.2" font-family="Tahoma" font-size="12" transform="rotate(90 600,165.2)" text-rendering="optimizeSpeed" fill="#000000">findbugs (2975)</text>
  <rect fill="blue" height="64.4" stroke="black" width="12" x="615" y="95.9"/>
  <text x="615" y="165.2" font-family="Tahoma" font-size="12" transform="rotate(90 615,165.2)" text-rendering="optimizeSpeed" fill="#000000">scis-ad (6437)</text>
  <rect fill="blue" height="92.3" stroke="black" width="12" x="630" y="67.9"/>
  <text x="630" y="165.2" font-family="Tahoma" font-size="12" transform="rotate(90 630,165.2)" text-rendering="optimizeSpeed" fill="#000000">subversion (9230)</text>
  <rect fill="blue" height="107.0" stroke="black" width="12" x="645" y="53.2"/>
  <text x="645" y="165.2" font-family="Tahoma" font-size="12" transform="rotate(90 645,165.2)" text-rendering="optimizeSpeed" fill="#000000">ssh-slaves (10701)</text>
  <rect fill="blue" height="110.2" stroke="black" width="12" x="660" y="50.0"/>
  <text x="660" y="165.2" font-family="Tahoma" font-size="12" transform="rotate(90 660,165.2)" text-rendering="optimizeSpeed" fill="#000000">maven-plugin (11025)</text>
  <text x="10" y="40" font-family="Tahoma" font-size="20" text-rendering="optimizeSpeed" fill="#000000">Plugin installations (installations &gt; 500)</text>
</svg>
