<svg xmlns="http://www.w3.org/2000/svg" version="1.1" preserveAspectRatio="xMidYMid meet" viewBox="0 0 755 467.4">
  <rect fill="blue" height="5.0" stroke="black" width="12" x="15" y="162.3"/>
  <text x="15" y="172.4" font-family="Tahoma" font-size="12" transform="rotate(90 15,172.4)" text-rendering="optimizeSpeed" fill="#000000">parameterized-trigger (505)</text>
  <rect fill="blue" height="5.2" stroke="black" width="12" x="30" y="162.1"/>
  <text x="30" y="172.4" font-family="Tahoma" font-size="12" transform="rotate(90 30,172.4)" text-rendering="optimizeSpeed" fill="#000000">sidebar-link (521)</text>
  <rect fill="blue" height="5.2" stroke="black" width="12" x="45" y="162.1"/>
  <text x="45" y="172.4" font-family="Tahoma" font-size="12" transform="rotate(90 45,172.4)" text-rendering="optimizeSpeed" fill="#000000">bugzilla (525)</text>
  <rect fill="blue" height="5.2" stroke="black" width="12" x="60" y="162.1"/>
  <text x="60" y="172.4" font-family="Tahoma" font-size="12" transform="rotate(90 60,172.4)" text-rendering="optimizeSpeed" fill="#000000">changelog-history (525)</text>
  <rect fill="blue" height="5.3" stroke="black" width="12" x="75" y="162.1"/>
  <text x="75" y="172.4" font-family="Tahoma" font-size="12" transform="rotate(90 75,172.4)" text-rendering="optimizeSpeed" fill="#000000">jabber (528)</text>
  <rect fill="blue" height="5.5" stroke="black" width="12" x="90" y="161.9"/>
  <text x="90" y="172.4" font-family="Tahoma" font-size="12" transform="rotate(90 90,172.4)" text-rendering="optimizeSpeed" fill="#000000">clearcase (545)</text>
  <rect fill="blue" height="5.8" stroke="black" width="12" x="105" y="161.6"/>
  <text x="105" y="172.4" font-family="Tahoma" font-size="12" transform="rotate(90 105,172.4)" text-rendering="optimizeSpeed" fill="#000000">plot (575)</text>
  <rect fill="blue" height="5.8" stroke="black" width="12" x="120" y="161.6"/>
  <text x="120" y="172.4" font-family="Tahoma" font-size="12" transform="rotate(90 120,172.4)" text-rendering="optimizeSpeed" fill="#000000">dependencyanalyzer (576)</text>
  <rect fill="blue" height="6.3" stroke="black" width="12" x="135" y="161.0"/>
  <text x="135" y="172.4" font-family="Tahoma" font-size="12" transform="rotate(90 135,172.4)" text-rendering="optimizeSpeed" fill="#000000">locks-and-latches (632)</text>
  <rect fill="blue" height="6.4" stroke="black" width="12" x="150" y="161.0"/>
  <text x="150" y="172.4" font-family="Tahoma" font-size="12" transform="rotate(90 150,172.4)" text-rendering="optimizeSpeed" fill="#000000">m2-extra-steps (639)</text>
  <rect fill="blue" height="6.4" stroke="black" width="12" x="165" y="160.9"/>
  <text x="165" y="172.4" font-family="Tahoma" font-size="12" transform="rotate(90 165,172.4)" text-rendering="optimizeSpeed" fill="#000000">release (644)</text>
  <rect fill="blue" height="6.5" stroke="black" width="12" x="180" y="160.9"/>
  <text x="180" y="172.4" font-family="Tahoma" font-size="12" transform="rotate(90 180,172.4)" text-rendering="optimizeSpeed" fill="#000000">text-finder (650)</text>
  <rect fill="blue" height="6.6" stroke="black" width="12" x="195" y="160.7"/>
  <text x="195" y="172.4" font-family="Tahoma" font-size="12" transform="rotate(90 195,172.4)" text-rendering="optimizeSpeed" fill="#000000">chucknorris (663)</text>
  <rect fill="blue" height="6.7" stroke="black" width="12" x="210" y="160.6"/>
  <text x="210" y="172.4" font-family="Tahoma" font-size="12" transform="rotate(90 210,172.4)" text-rendering="optimizeSpeed" fill="#000000">nunit (671)</text>
  <rect fill="blue" height="7.3" stroke="black" width="12" x="225" y="160.0"/>
  <text x="225" y="172.4" font-family="Tahoma" font-size="12" transform="rotate(90 225,172.4)" text-rendering="optimizeSpeed" fill="#000000">backup (733)</text>
  <rect fill="blue" height="7.5" stroke="black" width="12" x="240" y="159.9"/>
  <text x="240" y="172.4" font-family="Tahoma" font-size="12" transform="rotate(90 240,172.4)" text-rendering="optimizeSpeed" fill="#000000">dry (751)</text>
  <rect fill="blue" height="7.6" stroke="black" width="12" x="255" y="159.8"/>
  <text x="255" y="172.4" font-family="Tahoma" font-size="12" transform="rotate(90 255,172.4)" text-rendering="optimizeSpeed" fill="#000000">git (757)</text>
  <rect fill="blue" height="7.8" stroke="black" width="12" x="270" y="159.6"/>
  <text x="270" y="172.4" font-family="Tahoma" font-size="12" transform="rotate(90 270,172.4)" text-rendering="optimizeSpeed" fill="#000000">svn-release-mgr (778)</text>
  <rect fill="blue" height="8.3" stroke="black" width="12" x="285" y="159.1"/>
  <text x="285" y="172.4" font-family="Tahoma" font-size="12" transform="rotate(90 285,172.4)" text-rendering="optimizeSpeed" fill="#000000">audit-trail (826)</text>
  <rect fill="blue" height="9.0" stroke="black" width="12" x="300" y="158.3"/>
  <text x="300" y="172.4" font-family="Tahoma" font-size="12" transform="rotate(90 300,172.4)" text-rendering="optimizeSpeed" fill="#000000">msbuild (902)</text>
  <rect fill="blue" height="9.2" stroke="black" width="12" x="315" y="158.2"/>
  <text x="315" y="172.4" font-family="Tahoma" font-size="12" transform="rotate(90 315,172.4)" text-rendering="optimizeSpeed" fill="#000000">m2release (918)</text>
  <rect fill="blue" height="9.5" stroke="black" width="12" x="330" y="157.8"/>
  <text x="330" y="172.4" font-family="Tahoma" font-size="12" transform="rotate(90 330,172.4)" text-rendering="optimizeSpeed" fill="#000000">trac (952)</text>
  <rect fill="blue" height="10.8" stroke="black" width="12" x="345" y="156.6"/>
  <text x="345" y="172.4" font-family="Tahoma" font-size="12" transform="rotate(90 345,172.4)" text-rendering="optimizeSpeed" fill="#000000">scp (1075)</text>
  <rect fill="blue" height="12.7" stroke="black" width="12" x="360" y="154.7"/>
  <text x="360" y="172.4" font-family="Tahoma" font-size="12" transform="rotate(90 360,172.4)" text-rendering="optimizeSpeed" fill="#000000">active-directory (1267)</text>
  <rect fill="blue" height="12.9" stroke="black" width="12" x="375" y="154.4"/>
  <text x="375" y="172.4" font-family="Tahoma" font-size="12" transform="rotate(90 375,172.4)" text-rendering="optimizeSpeed" fill="#000000">ci-game (1291)</text>
  <rect fill="blue" height="13.1" stroke="black" width="12" x="390" y="154.3"/>
  <text x="390" y="172.4" font-family="Tahoma" font-size="12" transform="rotate(90 390,172.4)" text-rendering="optimizeSpeed" fill="#000000">svn-tag (1308)</text>
  <rect fill="blue" height="13.2" stroke="black" width="12" x="405" y="154.1"/>
  <text x="405" y="172.4" font-family="Tahoma" font-size="12" transform="rotate(90 405,172.4)" text-rendering="optimizeSpeed" fill="#000000">emma (1325)</text>
  <rect fill="blue" height="13.4" stroke="black" width="12" x="420" y="154.0"/>
  <text x="420" y="172.4" font-family="Tahoma" font-size="12" transform="rotate(90 420,172.4)" text-rendering="optimizeSpeed" fill="#000000">build-timeout (1340)</text>
  <rect fill="blue" height="13.4" stroke="black" width="12" x="435" y="153.9"/>
  <text x="435" y="172.4" font-family="Tahoma" font-size="12" transform="rotate(90 435,172.4)" text-rendering="optimizeSpeed" fill="#000000">sonar (1344)</text>
  <rect fill="blue" height="13.4" stroke="black" width="12" x="450" y="153.9"/>
  <text x="450" y="172.4" font-family="Tahoma" font-size="12" transform="rotate(90 450,172.4)" text-rendering="optimizeSpeed" fill="#000000">jira (1345)</text>
  <rect fill="blue" height="13.6" stroke="black" width="12" x="465" y="153.8"/>
  <text x="465" y="172.4" font-family="Tahoma" font-size="12" transform="rotate(90 465,172.4)" text-rendering="optimizeSpeed" fill="#000000">deploy (1358)</text>
  <rect fill="blue" height="13.9" stroke="black" width="12" x="480" y="153.5"/>
  <text x="480" y="172.4" font-family="Tahoma" font-size="12" transform="rotate(90 480,172.4)" text-rendering="optimizeSpeed" fill="#000000">batch-task (1390)</text>
  <rect fill="blue" height="16.6" stroke="black" width="12" x="495" y="150.8"/>
  <text x="495" y="172.4" font-family="Tahoma" font-size="12" transform="rotate(90 495,172.4)" text-rendering="optimizeSpeed" fill="#000000">violations (1660)</text>
  <rect fill="blue" height="17.3" stroke="black" width="12" x="510" y="150.1"/>
  <text x="510" y="172.4" font-family="Tahoma" font-size="12" transform="rotate(90 510,172.4)" text-rendering="optimizeSpeed" fill="#000000">emotional-hudson (1730)</text>
  <rect fill="blue" height="17.4" stroke="black" width="12" x="525" y="150.0"/>
  <text x="525" y="172.4" font-family="Tahoma" font-size="12" transform="rotate(90 525,172.4)" text-rendering="optimizeSpeed" fill="#000000">greenballs (1737)</text>
  <rect fill="blue" height="19.0" stroke="black" width="12" x="540" y="148.4"/>
  <text x="540" y="172.4" font-family="Tahoma" font-size="12" transform="rotate(90 540,172.4)" text-rendering="optimizeSpeed" fill="#000000">disk-usage (1901)</text>
  <rect fill="blue" height="19.1" stroke="black" width="12" x="555" y="148.2"/>
  <text x="555" y="172.4" font-family="Tahoma" font-size="12" transform="rotate(90 555,172.4)" text-rendering="optimizeSpeed" fill="#000000">tasks (1913)</text>
  <rect fill="blue" height="22.5" stroke="black" width="12" x="570" y="144.8"/>
  <text x="570" y="172.4" font-family="Tahoma" font-size="12" transform="rotate(90 570,172.4)" text-rendering="optimizeSpeed" fill="#000000">warnings (2252)</text>
  <rect fill="blue" height="22.8" stroke="black" width="12" x="585" y="144.5"/>
  <text x="585" y="172.4" font-family="Tahoma" font-size="12" transform="rotate(90 585,172.4)" text-rendering="optimizeSpeed" fill="#000000">pmd (2284)</text>
  <rect fill="blue" height="23.8" stroke="black" width="12" x="600" y="143.6"/>
  <text x="600" y="172.4" font-family="Tahoma" font-size="12" transform="rotate(90 600,172.4)" text-rendering="optimizeSpeed" fill="#000000">cobertura (2376)</text>
  <rect fill="blue" height="25.9" stroke="black" width="12" x="615" y="141.4"/>
  <text x="615" y="172.4" font-family="Tahoma" font-size="12" transform="rotate(90 615,172.4)" text-rendering="optimizeSpeed" fill="#000000">checkstyle (2591)</text>
  <rect fill="blue" height="26.3" stroke="black" width="12" x="630" y="141.1"/>
  <text x="630" y="172.4" font-family="Tahoma" font-size="12" transform="rotate(90 630,172.4)" text-rendering="optimizeSpeed" fill="#000000">email-ext (2631)</text>
  <rect fill="blue" height="29.8" stroke="black" width="12" x="645" y="137.6"/>
  <text x="645" y="172.4" font-family="Tahoma" font-size="12" transform="rotate(90 645,172.4)" text-rendering="optimizeSpeed" fill="#000000">findbugs (2976)</text>
  <rect fill="blue" height="83.5" stroke="black" width="12" x="660" y="83.9"/>
  <text x="660" y="172.4" font-family="Tahoma" font-size="12" transform="rotate(90 660,172.4)" text-rendering="optimizeSpeed" fill="#000000">scis-ad (8348)</text>
  <rect fill="blue" height="103.7" stroke="black" width="12" x="675" y="63.7"/>
  <text x="675" y="172.4" font-family="Tahoma" font-size="12" transform="rotate(90 675,172.4)" text-rendering="optimizeSpeed" fill="#000000">subversion (10369)</text>
  <rect fill="blue" height="114.2" stroke="black" width="12" x="690" y="53.1"/>
  <text x="690" y="172.4" font-family="Tahoma" font-size="12" transform="rotate(90 690,172.4)" text-rendering="optimizeSpeed" fill="#000000">ssh-slaves (11424)</text>
  <rect fill="blue" height="117.4" stroke="black" width="12" x="705" y="50.0"/>
  <text x="705" y="172.4" font-family="Tahoma" font-size="12" transform="rotate(90 705,172.4)" text-rendering="optimizeSpeed" fill="#000000">maven-plugin (11736)</text>
  <text x="10" y="40" font-family="Tahoma" font-size="20" text-rendering="optimizeSpeed" fill="#000000">Plugin installations (installations &gt; 500)</text>
</svg>
