<svg xmlns="http://www.w3.org/2000/svg" version="1.1" preserveAspectRatio="xMidYMid meet" viewBox="0 0 605 488.9">
  <rect fill="blue" height="3.7" stroke="black" width="12" x="15" y="185.2"/>
  <text x="15" y="193.9" font-family="Tahoma" font-size="12" transform="rotate(90 15,193.9)" text-rendering="optimizeSpeed" fill="#000000">1.264 (37)</text>
  <rect fill="blue" height="4.8" stroke="black" width="12" x="30" y="184.1"/>
  <text x="30" y="193.9" font-family="Tahoma" font-size="12" transform="rotate(90 30,193.9)" text-rendering="optimizeSpeed" fill="#000000">1.265 (48)</text>
  <rect fill="blue" height="5.5" stroke="black" width="12" x="45" y="183.4"/>
  <text x="45" y="193.9" font-family="Tahoma" font-size="12" transform="rotate(90 45,193.9)" text-rendering="optimizeSpeed" fill="#000000">1.266 (55)</text>
  <rect fill="blue" height="1.3" stroke="black" width="12" x="60" y="187.6"/>
  <text x="60" y="193.9" font-family="Tahoma" font-size="12" transform="rotate(90 60,193.9)" text-rendering="optimizeSpeed" fill="#000000">1.267 (13)</text>
  <rect fill="blue" height="9.1" stroke="black" width="12" x="75" y="179.8"/>
  <text x="75" y="193.9" font-family="Tahoma" font-size="12" transform="rotate(90 75,193.9)" text-rendering="optimizeSpeed" fill="#000000">1.268 (91)</text>
  <rect fill="blue" height="10.9" stroke="black" width="12" x="90" y="178.0"/>
  <text x="90" y="193.9" font-family="Tahoma" font-size="12" transform="rotate(90 90,193.9)" text-rendering="optimizeSpeed" fill="#000000">1.270 (109)</text>
  <rect fill="blue" height="0.1" stroke="black" width="12" x="105" y="188.8"/>
  <text x="105" y="193.9" font-family="Tahoma" font-size="12" transform="rotate(90 105,193.9)" text-rendering="optimizeSpeed" fill="#000000">1.271 (1)</text>
  <rect fill="blue" height="1.5" stroke="black" width="12" x="120" y="187.4"/>
  <text x="120" y="193.9" font-family="Tahoma" font-size="12" transform="rotate(90 120,193.9)" text-rendering="optimizeSpeed" fill="#000000">1.272 (15)</text>
  <rect fill="blue" height="4.3" stroke="black" width="12" x="135" y="184.6"/>
  <text x="135" y="193.9" font-family="Tahoma" font-size="12" transform="rotate(90 135,193.9)" text-rendering="optimizeSpeed" fill="#000000">1.273 (43)</text>
  <rect fill="blue" height="9.3" stroke="black" width="12" x="150" y="179.6"/>
  <text x="150" y="193.9" font-family="Tahoma" font-size="12" transform="rotate(90 150,193.9)" text-rendering="optimizeSpeed" fill="#000000">1.274 (93)</text>
  <rect fill="blue" height="2.4" stroke="black" width="12" x="165" y="186.5"/>
  <text x="165" y="193.9" font-family="Tahoma" font-size="12" transform="rotate(90 165,193.9)" text-rendering="optimizeSpeed" fill="#000000">1.275 (24)</text>
  <rect fill="blue" height="9.9" stroke="black" width="12" x="180" y="179.0"/>
  <text x="180" y="193.9" font-family="Tahoma" font-size="12" transform="rotate(90 180,193.9)" text-rendering="optimizeSpeed" fill="#000000">1.276 (99)</text>
  <rect fill="blue" height="11.5" stroke="black" width="12" x="195" y="177.4"/>
  <text x="195" y="193.9" font-family="Tahoma" font-size="12" transform="rotate(90 195,193.9)" text-rendering="optimizeSpeed" fill="#000000">1.277 (115)</text>
  <rect fill="blue" height="11.2" stroke="black" width="12" x="210" y="177.7"/>
  <text x="210" y="193.9" font-family="Tahoma" font-size="12" transform="rotate(90 210,193.9)" text-rendering="optimizeSpeed" fill="#000000">1.278 (112)</text>
  <rect fill="blue" height="13.1" stroke="black" width="12" x="225" y="175.8"/>
  <text x="225" y="193.9" font-family="Tahoma" font-size="12" transform="rotate(90 225,193.9)" text-rendering="optimizeSpeed" fill="#000000">1.279 (131)</text>
  <rect fill="blue" height="17.5" stroke="black" width="12" x="240" y="171.4"/>
  <text x="240" y="193.9" font-family="Tahoma" font-size="12" transform="rotate(90 240,193.9)" text-rendering="optimizeSpeed" fill="#000000">1.280 (175)</text>
  <rect fill="blue" height="4.6" stroke="black" width="12" x="255" y="184.3"/>
  <text x="255" y="193.9" font-family="Tahoma" font-size="12" transform="rotate(90 255,193.9)" text-rendering="optimizeSpeed" fill="#000000">1.281 (46)</text>
  <rect fill="blue" height="25.0" stroke="black" width="12" x="270" y="163.9"/>
  <text x="270" y="193.9" font-family="Tahoma" font-size="12" transform="rotate(90 270,193.9)" text-rendering="optimizeSpeed" fill="#000000">1.282 (250)</text>
  <rect fill="blue" height="8.8" stroke="black" width="12" x="285" y="180.1"/>
  <text x="285" y="193.9" font-family="Tahoma" font-size="12" transform="rotate(90 285,193.9)" text-rendering="optimizeSpeed" fill="#000000">1.283 (88)</text>
  <rect fill="blue" height="9.6" stroke="black" width="12" x="300" y="179.3"/>
  <text x="300" y="193.9" font-family="Tahoma" font-size="12" transform="rotate(90 300,193.9)" text-rendering="optimizeSpeed" fill="#000000">1.284 (96)</text>
  <rect fill="blue" height="30.5" stroke="black" width="12" x="315" y="158.4"/>
  <text x="315" y="193.9" font-family="Tahoma" font-size="12" transform="rotate(90 315,193.9)" text-rendering="optimizeSpeed" fill="#000000">1.285 (305)</text>
  <rect fill="blue" height="8.2" stroke="black" width="12" x="330" y="180.7"/>
  <text x="330" y="193.9" font-family="Tahoma" font-size="12" transform="rotate(90 330,193.9)" text-rendering="optimizeSpeed" fill="#000000">1.286 (82)</text>
  <rect fill="blue" height="11.5" stroke="black" width="12" x="345" y="177.4"/>
  <text x="345" y="193.9" font-family="Tahoma" font-size="12" transform="rotate(90 345,193.9)" text-rendering="optimizeSpeed" fill="#000000">1.287 (115)</text>
  <rect fill="blue" height="15.0" stroke="black" width="12" x="360" y="173.9"/>
  <text x="360" y="193.9" font-family="Tahoma" font-size="12" transform="rotate(90 360,193.9)" text-rendering="optimizeSpeed" fill="#000000">1.288 (150)</text>
  <rect fill="blue" height="7.5" stroke="black" width="12" x="375" y="181.4"/>
  <text x="375" y="193.9" font-family="Tahoma" font-size="12" transform="rotate(90 375,193.9)" text-rendering="optimizeSpeed" fill="#000000">1.289 (75)</text>
  <rect fill="blue" height="26.7" stroke="black" width="12" x="390" y="162.2"/>
  <text x="390" y="193.9" font-family="Tahoma" font-size="12" transform="rotate(90 390,193.9)" text-rendering="optimizeSpeed" fill="#000000">1.290 (267)</text>
  <rect fill="blue" height="28.1" stroke="black" width="12" x="405" y="160.8"/>
  <text x="405" y="193.9" font-family="Tahoma" font-size="12" transform="rotate(90 405,193.9)" text-rendering="optimizeSpeed" fill="#000000">1.291 (281)</text>
  <rect fill="blue" height="52.1" stroke="black" width="12" x="420" y="136.8"/>
  <text x="420" y="193.9" font-family="Tahoma" font-size="12" transform="rotate(90 420,193.9)" text-rendering="optimizeSpeed" fill="#000000">1.292 (521)</text>
  <rect fill="blue" height="0.1" stroke="black" width="12" x="435" y="188.8"/>
  <text x="435" y="193.9" font-family="Tahoma" font-size="12" transform="rotate(90 435,193.9)" text-rendering="optimizeSpeed" fill="#000000">1.292.15 (1)</text>
  <rect fill="blue" height="60.8" stroke="black" width="12" x="450" y="128.1"/>
  <text x="450" y="193.9" font-family="Tahoma" font-size="12" transform="rotate(90 450,193.9)" text-rendering="optimizeSpeed" fill="#000000">1.293 (608)</text>
  <rect fill="blue" height="15.3" stroke="black" width="12" x="465" y="173.6"/>
  <text x="465" y="193.9" font-family="Tahoma" font-size="12" transform="rotate(90 465,193.9)" text-rendering="optimizeSpeed" fill="#000000">1.294 (153)</text>
  <rect fill="blue" height="73.8" stroke="black" width="12" x="480" y="115.1"/>
  <text x="480" y="193.9" font-family="Tahoma" font-size="12" transform="rotate(90 480,193.9)" text-rendering="optimizeSpeed" fill="#000000">1.295 (738)</text>
  <rect fill="blue" height="32.7" stroke="black" width="12" x="495" y="156.2"/>
  <text x="495" y="193.9" font-family="Tahoma" font-size="12" transform="rotate(90 495,193.9)" text-rendering="optimizeSpeed" fill="#000000">1.296 (327)</text>
  <rect fill="blue" height="60.5" stroke="black" width="12" x="510" y="128.4"/>
  <text x="510" y="193.9" font-family="Tahoma" font-size="12" transform="rotate(90 510,193.9)" text-rendering="optimizeSpeed" fill="#000000">1.297 (605)</text>
  <rect fill="blue" height="106.4" stroke="black" width="12" x="525" y="82.5"/>
  <text x="525" y="193.9" font-family="Tahoma" font-size="12" transform="rotate(90 525,193.9)" text-rendering="optimizeSpeed" fill="#000000">1.299 (1064)</text>
  <rect fill="blue" height="138.9" stroke="black" width="12" x="540" y="50.0"/>
  <text x="540" y="193.9" font-family="Tahoma" font-size="12" transform="rotate(90 540,193.9)" text-rendering="optimizeSpeed" fill="#000000">1.300 (1389)</text>
  <rect fill="blue" height="88.7" stroke="black" width="12" x="555" y="100.2"/>
  <text x="555" y="193.9" font-family="Tahoma" font-size="12" transform="rotate(90 555,193.9)" text-rendering="optimizeSpeed" fill="#000000">1.301 (887)</text>
  <text x="10" y="40" font-family="Tahoma" font-size="20" text-rendering="optimizeSpeed" fill="#000000">Jenkins installations (total: 9209)</text>
</svg>
