<svg xmlns="http://www.w3.org/2000/svg" version="1.1" preserveAspectRatio="xMidYMid meet" viewBox="0 0 395 470.6">
  <rect fill="blue" height="6.9" stroke="black" width="12" x="15" y="163.7"/>
  <text x="15" y="175.6" font-family="Tahoma" font-size="12" transform="rotate(90 15,175.6)" text-rendering="optimizeSpeed" fill="#000000">1.264 (69)</text>
  <rect fill="blue" height="9.0" stroke="black" width="12" x="30" y="161.6"/>
  <text x="30" y="175.6" font-family="Tahoma" font-size="12" transform="rotate(90 30,175.6)" text-rendering="optimizeSpeed" fill="#000000">1.265 (90)</text>
  <rect fill="blue" height="9.4" stroke="black" width="12" x="45" y="161.2"/>
  <text x="45" y="175.6" font-family="Tahoma" font-size="12" transform="rotate(90 45,175.6)" text-rendering="optimizeSpeed" fill="#000000">1.266 (94)</text>
  <rect fill="blue" height="2.2" stroke="black" width="12" x="60" y="168.4"/>
  <text x="60" y="175.6" font-family="Tahoma" font-size="12" transform="rotate(90 60,175.6)" text-rendering="optimizeSpeed" fill="#000000">1.267 (22)</text>
  <rect fill="blue" height="16.4" stroke="black" width="12" x="75" y="154.2"/>
  <text x="75" y="175.6" font-family="Tahoma" font-size="12" transform="rotate(90 75,175.6)" text-rendering="optimizeSpeed" fill="#000000">1.268 (164)</text>
  <rect fill="blue" height="23.4" stroke="black" width="12" x="90" y="147.2"/>
  <text x="90" y="175.6" font-family="Tahoma" font-size="12" transform="rotate(90 90,175.6)" text-rendering="optimizeSpeed" fill="#000000">1.270 (234)</text>
  <rect fill="blue" height="0.8" stroke="black" width="12" x="105" y="169.8"/>
  <text x="105" y="175.6" font-family="Tahoma" font-size="12" transform="rotate(90 105,175.6)" text-rendering="optimizeSpeed" fill="#000000">1.271 (8)</text>
  <rect fill="blue" height="2.0" stroke="black" width="12" x="120" y="168.6"/>
  <text x="120" y="175.6" font-family="Tahoma" font-size="12" transform="rotate(90 120,175.6)" text-rendering="optimizeSpeed" fill="#000000">1.272 (20)</text>
  <rect fill="blue" height="10.1" stroke="black" width="12" x="135" y="160.5"/>
  <text x="135" y="175.6" font-family="Tahoma" font-size="12" transform="rotate(90 135,175.6)" text-rendering="optimizeSpeed" fill="#000000">1.273 (101)</text>
  <rect fill="blue" height="21.0" stroke="black" width="12" x="150" y="149.6"/>
  <text x="150" y="175.6" font-family="Tahoma" font-size="12" transform="rotate(90 150,175.6)" text-rendering="optimizeSpeed" fill="#000000">1.274 (210)</text>
  <rect fill="blue" height="7.4" stroke="black" width="12" x="165" y="163.2"/>
  <text x="165" y="175.6" font-family="Tahoma" font-size="12" transform="rotate(90 165,175.6)" text-rendering="optimizeSpeed" fill="#000000">1.275 (74)</text>
  <rect fill="blue" height="23.7" stroke="black" width="12" x="180" y="146.9"/>
  <text x="180" y="175.6" font-family="Tahoma" font-size="12" transform="rotate(90 180,175.6)" text-rendering="optimizeSpeed" fill="#000000">1.276 (237)</text>
  <rect fill="blue" height="26.7" stroke="black" width="12" x="195" y="143.9"/>
  <text x="195" y="175.6" font-family="Tahoma" font-size="12" transform="rotate(90 195,175.6)" text-rendering="optimizeSpeed" fill="#000000">1.277 (267)</text>
  <rect fill="blue" height="30.3" stroke="black" width="12" x="210" y="140.3"/>
  <text x="210" y="175.6" font-family="Tahoma" font-size="12" transform="rotate(90 210,175.6)" text-rendering="optimizeSpeed" fill="#000000">1.278 (303)</text>
  <rect fill="blue" height="32.6" stroke="black" width="12" x="225" y="138.0"/>
  <text x="225" y="175.6" font-family="Tahoma" font-size="12" transform="rotate(90 225,175.6)" text-rendering="optimizeSpeed" fill="#000000">1.279 (326)</text>
  <rect fill="blue" height="69.2" stroke="black" width="12" x="240" y="101.4"/>
  <text x="240" y="175.6" font-family="Tahoma" font-size="12" transform="rotate(90 240,175.6)" text-rendering="optimizeSpeed" fill="#000000">1.280 (692)</text>
  <rect fill="blue" height="22.3" stroke="black" width="12" x="255" y="148.3"/>
  <text x="255" y="175.6" font-family="Tahoma" font-size="12" transform="rotate(90 255,175.6)" text-rendering="optimizeSpeed" fill="#000000">1.281 (223)</text>
  <rect fill="blue" height="102.5" stroke="black" width="12" x="270" y="68.1"/>
  <text x="270" y="175.6" font-family="Tahoma" font-size="12" transform="rotate(90 270,175.6)" text-rendering="optimizeSpeed" fill="#000000">1.282 (1025)</text>
  <rect fill="blue" height="45.3" stroke="black" width="12" x="285" y="125.3"/>
  <text x="285" y="175.6" font-family="Tahoma" font-size="12" transform="rotate(90 285,175.6)" text-rendering="optimizeSpeed" fill="#000000">1.283 (453)</text>
  <rect fill="blue" height="41.4" stroke="black" width="12" x="300" y="129.2"/>
  <text x="300" y="175.6" font-family="Tahoma" font-size="12" transform="rotate(90 300,175.6)" text-rendering="optimizeSpeed" fill="#000000">1.284 (414)</text>
  <rect fill="blue" height="120.6" stroke="black" width="12" x="315" y="50.0"/>
  <text x="315" y="175.6" font-family="Tahoma" font-size="12" transform="rotate(90 315,175.6)" text-rendering="optimizeSpeed" fill="#000000">1.285 (1206)</text>
  <rect fill="blue" height="21.6" stroke="black" width="12" x="330" y="149.0"/>
  <text x="330" y="175.6" font-family="Tahoma" font-size="12" transform="rotate(90 330,175.6)" text-rendering="optimizeSpeed" fill="#000000">1.286 (216)</text>
  <rect fill="blue" height="8.2" stroke="black" width="12" x="345" y="162.4"/>
  <text x="345" y="175.6" font-family="Tahoma" font-size="12" transform="rotate(90 345,175.6)" text-rendering="optimizeSpeed" fill="#000000">1.287 (82)</text>
  <text x="10" y="40" font-family="Tahoma" font-size="20" text-rendering="optimizeSpeed" fill="#000000">Jenkins installations (total: 6530)</text>
</svg>
