<svg xmlns="http://www.w3.org/2000/svg" version="1.1" preserveAspectRatio="xMidYMid meet" viewBox="0 0 980 585.8">
  <rect fill="blue" height="1.6" stroke="black" width="12" x="15" y="284.2"/>
  <text x="15" y="290.8" font-family="Tahoma" font-size="12" transform="rotate(90 15,290.8)" text-rendering="optimizeSpeed" fill="#000000">1.264 (16)</text>
  <rect fill="blue" height="1.5" stroke="black" width="12" x="30" y="284.3"/>
  <text x="30" y="290.8" font-family="Tahoma" font-size="12" transform="rotate(90 30,290.8)" text-rendering="optimizeSpeed" fill="#000000">1.265 (15)</text>
  <rect fill="blue" height="1.9" stroke="black" width="12" x="45" y="283.9"/>
  <text x="45" y="290.8" font-family="Tahoma" font-size="12" transform="rotate(90 45,290.8)" text-rendering="optimizeSpeed" fill="#000000">1.266 (19)</text>
  <rect fill="blue" height="0.4" stroke="black" width="12" x="60" y="285.4"/>
  <text x="60" y="290.8" font-family="Tahoma" font-size="12" transform="rotate(90 60,290.8)" text-rendering="optimizeSpeed" fill="#000000">1.267 (4)</text>
  <rect fill="blue" height="2.7" stroke="black" width="12" x="75" y="283.1"/>
  <text x="75" y="290.8" font-family="Tahoma" font-size="12" transform="rotate(90 75,290.8)" text-rendering="optimizeSpeed" fill="#000000">1.268 (27)</text>
  <rect fill="blue" height="4.7" stroke="black" width="12" x="90" y="281.1"/>
  <text x="90" y="290.8" font-family="Tahoma" font-size="12" transform="rotate(90 90,290.8)" text-rendering="optimizeSpeed" fill="#000000">1.270 (47)</text>
  <rect fill="blue" height="0.5" stroke="black" width="12" x="105" y="285.3"/>
  <text x="105" y="290.8" font-family="Tahoma" font-size="12" transform="rotate(90 105,290.8)" text-rendering="optimizeSpeed" fill="#000000">1.272 (5)</text>
  <rect fill="blue" height="0.9" stroke="black" width="12" x="120" y="284.9"/>
  <text x="120" y="290.8" font-family="Tahoma" font-size="12" transform="rotate(90 120,290.8)" text-rendering="optimizeSpeed" fill="#000000">1.273 (9)</text>
  <rect fill="blue" height="3.6" stroke="black" width="12" x="135" y="282.2"/>
  <text x="135" y="290.8" font-family="Tahoma" font-size="12" transform="rotate(90 135,290.8)" text-rendering="optimizeSpeed" fill="#000000">1.274 (36)</text>
  <rect fill="blue" height="1.3" stroke="black" width="12" x="150" y="284.5"/>
  <text x="150" y="290.8" font-family="Tahoma" font-size="12" transform="rotate(90 150,290.8)" text-rendering="optimizeSpeed" fill="#000000">1.275 (13)</text>
  <rect fill="blue" height="3.5" stroke="black" width="12" x="165" y="282.3"/>
  <text x="165" y="290.8" font-family="Tahoma" font-size="12" transform="rotate(90 165,290.8)" text-rendering="optimizeSpeed" fill="#000000">1.276 (35)</text>
  <rect fill="blue" height="4.3" stroke="black" width="12" x="180" y="281.5"/>
  <text x="180" y="290.8" font-family="Tahoma" font-size="12" transform="rotate(90 180,290.8)" text-rendering="optimizeSpeed" fill="#000000">1.277 (43)</text>
  <rect fill="blue" height="5.7" stroke="black" width="12" x="195" y="280.1"/>
  <text x="195" y="290.8" font-family="Tahoma" font-size="12" transform="rotate(90 195,290.8)" text-rendering="optimizeSpeed" fill="#000000">1.278 (57)</text>
  <rect fill="blue" height="2.8" stroke="black" width="12" x="210" y="283.0"/>
  <text x="210" y="290.8" font-family="Tahoma" font-size="12" transform="rotate(90 210,290.8)" text-rendering="optimizeSpeed" fill="#000000">1.279 (28)</text>
  <rect fill="blue" height="5.3" stroke="black" width="12" x="225" y="280.5"/>
  <text x="225" y="290.8" font-family="Tahoma" font-size="12" transform="rotate(90 225,290.8)" text-rendering="optimizeSpeed" fill="#000000">1.280 (53)</text>
  <rect fill="blue" height="1.1" stroke="black" width="12" x="240" y="284.7"/>
  <text x="240" y="290.8" font-family="Tahoma" font-size="12" transform="rotate(90 240,290.8)" text-rendering="optimizeSpeed" fill="#000000">1.281 (11)</text>
  <rect fill="blue" height="8.0" stroke="black" width="12" x="255" y="277.8"/>
  <text x="255" y="290.8" font-family="Tahoma" font-size="12" transform="rotate(90 255,290.8)" text-rendering="optimizeSpeed" fill="#000000">1.282 (80)</text>
  <rect fill="blue" height="2.2" stroke="black" width="12" x="270" y="283.6"/>
  <text x="270" y="290.8" font-family="Tahoma" font-size="12" transform="rotate(90 270,290.8)" text-rendering="optimizeSpeed" fill="#000000">1.283 (22)</text>
  <rect fill="blue" height="3.1" stroke="black" width="12" x="285" y="282.7"/>
  <text x="285" y="290.8" font-family="Tahoma" font-size="12" transform="rotate(90 285,290.8)" text-rendering="optimizeSpeed" fill="#000000">1.284 (31)</text>
  <rect fill="blue" height="8.8" stroke="black" width="12" x="300" y="277.0"/>
  <text x="300" y="290.8" font-family="Tahoma" font-size="12" transform="rotate(90 300,290.8)" text-rendering="optimizeSpeed" fill="#000000">1.285 (88)</text>
  <rect fill="blue" height="3.3" stroke="black" width="12" x="315" y="282.5"/>
  <text x="315" y="290.8" font-family="Tahoma" font-size="12" transform="rotate(90 315,290.8)" text-rendering="optimizeSpeed" fill="#000000">1.286 (33)</text>
  <rect fill="blue" height="2.5" stroke="black" width="12" x="330" y="283.3"/>
  <text x="330" y="290.8" font-family="Tahoma" font-size="12" transform="rotate(90 330,290.8)" text-rendering="optimizeSpeed" fill="#000000">1.287 (25)</text>
  <rect fill="blue" height="4.4" stroke="black" width="12" x="345" y="281.4"/>
  <text x="345" y="290.8" font-family="Tahoma" font-size="12" transform="rotate(90 345,290.8)" text-rendering="optimizeSpeed" fill="#000000">1.288 (44)</text>
  <rect fill="blue" height="1.3" stroke="black" width="12" x="360" y="284.5"/>
  <text x="360" y="290.8" font-family="Tahoma" font-size="12" transform="rotate(90 360,290.8)" text-rendering="optimizeSpeed" fill="#000000">1.289 (13)</text>
  <rect fill="blue" height="8.1" stroke="black" width="12" x="375" y="277.7"/>
  <text x="375" y="290.8" font-family="Tahoma" font-size="12" transform="rotate(90 375,290.8)" text-rendering="optimizeSpeed" fill="#000000">1.290 (81)</text>
  <rect fill="blue" height="6.6" stroke="black" width="12" x="390" y="279.2"/>
  <text x="390" y="290.8" font-family="Tahoma" font-size="12" transform="rotate(90 390,290.8)" text-rendering="optimizeSpeed" fill="#000000">1.291 (66)</text>
  <rect fill="blue" height="12.3" stroke="black" width="12" x="405" y="273.5"/>
  <text x="405" y="290.8" font-family="Tahoma" font-size="12" transform="rotate(90 405,290.8)" text-rendering="optimizeSpeed" fill="#000000">1.292 (123)</text>
  <rect fill="blue" height="0.1" stroke="black" width="12" x="420" y="285.7"/>
  <text x="420" y="290.8" font-family="Tahoma" font-size="12" transform="rotate(90 420,290.8)" text-rendering="optimizeSpeed" fill="#000000">1.292.16 (1)</text>
  <rect fill="blue" height="0.1" stroke="black" width="12" x="435" y="285.7"/>
  <text x="435" y="290.8" font-family="Tahoma" font-size="12" transform="rotate(90 435,290.8)" text-rendering="optimizeSpeed" fill="#000000">1.292.17 (1)</text>
  <rect fill="blue" height="13.0" stroke="black" width="12" x="450" y="272.8"/>
  <text x="450" y="290.8" font-family="Tahoma" font-size="12" transform="rotate(90 450,290.8)" text-rendering="optimizeSpeed" fill="#000000">1.293 (130)</text>
  <rect fill="blue" height="2.5" stroke="black" width="12" x="465" y="283.3"/>
  <text x="465" y="290.8" font-family="Tahoma" font-size="12" transform="rotate(90 465,290.8)" text-rendering="optimizeSpeed" fill="#000000">1.294 (25)</text>
  <rect fill="blue" height="9.5" stroke="black" width="12" x="480" y="276.3"/>
  <text x="480" y="290.8" font-family="Tahoma" font-size="12" transform="rotate(90 480,290.8)" text-rendering="optimizeSpeed" fill="#000000">1.295 (95)</text>
  <rect fill="blue" height="4.1" stroke="black" width="12" x="495" y="281.7"/>
  <text x="495" y="290.8" font-family="Tahoma" font-size="12" transform="rotate(90 495,290.8)" text-rendering="optimizeSpeed" fill="#000000">1.296 (41)</text>
  <rect fill="blue" height="7.6" stroke="black" width="12" x="510" y="278.2"/>
  <text x="510" y="290.8" font-family="Tahoma" font-size="12" transform="rotate(90 510,290.8)" text-rendering="optimizeSpeed" fill="#000000">1.297 (76)</text>
  <rect fill="blue" height="11.3" stroke="black" width="12" x="525" y="274.5"/>
  <text x="525" y="290.8" font-family="Tahoma" font-size="12" transform="rotate(90 525,290.8)" text-rendering="optimizeSpeed" fill="#000000">1.299 (113)</text>
  <rect fill="blue" height="18.7" stroke="black" width="12" x="540" y="267.1"/>
  <text x="540" y="290.8" font-family="Tahoma" font-size="12" transform="rotate(90 540,290.8)" text-rendering="optimizeSpeed" fill="#000000">1.300 (187)</text>
  <rect fill="blue" height="10.7" stroke="black" width="12" x="555" y="275.1"/>
  <text x="555" y="290.8" font-family="Tahoma" font-size="12" transform="rotate(90 555,290.8)" text-rendering="optimizeSpeed" fill="#000000">1.301 (107)</text>
  <rect fill="blue" height="0.5" stroke="black" width="12" x="570" y="285.3"/>
  <text x="570" y="290.8" font-family="Tahoma" font-size="12" transform="rotate(90 570,290.8)" text-rendering="optimizeSpeed" fill="#000000">1.302 (5)</text>
  <rect fill="blue" height="19.6" stroke="black" width="12" x="585" y="266.2"/>
  <text x="585" y="290.8" font-family="Tahoma" font-size="12" transform="rotate(90 585,290.8)" text-rendering="optimizeSpeed" fill="#000000">1.303 (196)</text>
  <rect fill="blue" height="19.8" stroke="black" width="12" x="600" y="266.0"/>
  <text x="600" y="290.8" font-family="Tahoma" font-size="12" transform="rotate(90 600,290.8)" text-rendering="optimizeSpeed" fill="#000000">1.304 (198)</text>
  <rect fill="blue" height="0.5" stroke="black" width="12" x="615" y="285.3"/>
  <text x="615" y="290.8" font-family="Tahoma" font-size="12" transform="rotate(90 615,290.8)" text-rendering="optimizeSpeed" fill="#000000">1.305 (5)</text>
  <rect fill="blue" height="19.8" stroke="black" width="12" x="630" y="266.0"/>
  <text x="630" y="290.8" font-family="Tahoma" font-size="12" transform="rotate(90 630,290.8)" text-rendering="optimizeSpeed" fill="#000000">1.306 (198)</text>
  <rect fill="blue" height="18.7" stroke="black" width="12" x="645" y="267.1"/>
  <text x="645" y="290.8" font-family="Tahoma" font-size="12" transform="rotate(90 645,290.8)" text-rendering="optimizeSpeed" fill="#000000">1.307 (187)</text>
  <rect fill="blue" height="6.1" stroke="black" width="12" x="660" y="279.7"/>
  <text x="660" y="290.8" font-family="Tahoma" font-size="12" transform="rotate(90 660,290.8)" text-rendering="optimizeSpeed" fill="#000000">1.308 (61)</text>
  <rect fill="blue" height="45.3" stroke="black" width="12" x="675" y="240.5"/>
  <text x="675" y="290.8" font-family="Tahoma" font-size="12" transform="rotate(90 675,290.8)" text-rendering="optimizeSpeed" fill="#000000">1.309 (453)</text>
  <rect fill="blue" height="24.7" stroke="black" width="12" x="690" y="261.1"/>
  <text x="690" y="290.8" font-family="Tahoma" font-size="12" transform="rotate(90 690,290.8)" text-rendering="optimizeSpeed" fill="#000000">1.310 (247)</text>
  <rect fill="blue" height="11.6" stroke="black" width="12" x="705" y="274.2"/>
  <text x="705" y="290.8" font-family="Tahoma" font-size="12" transform="rotate(90 705,290.8)" text-rendering="optimizeSpeed" fill="#000000">1.311 (116)</text>
  <rect fill="blue" height="23.7" stroke="black" width="12" x="720" y="262.1"/>
  <text x="720" y="290.8" font-family="Tahoma" font-size="12" transform="rotate(90 720,290.8)" text-rendering="optimizeSpeed" fill="#000000">1.312 (237)</text>
  <rect fill="blue" height="23.8" stroke="black" width="12" x="735" y="262.0"/>
  <text x="735" y="290.8" font-family="Tahoma" font-size="12" transform="rotate(90 735,290.8)" text-rendering="optimizeSpeed" fill="#000000">1.313 (238)</text>
  <rect fill="blue" height="31.1" stroke="black" width="12" x="750" y="254.7"/>
  <text x="750" y="290.8" font-family="Tahoma" font-size="12" transform="rotate(90 750,290.8)" text-rendering="optimizeSpeed" fill="#000000">1.314 (311)</text>
  <rect fill="blue" height="28.0" stroke="black" width="12" x="765" y="257.8"/>
  <text x="765" y="290.8" font-family="Tahoma" font-size="12" transform="rotate(90 765,290.8)" text-rendering="optimizeSpeed" fill="#000000">1.315 (280)</text>
  <rect fill="blue" height="46.2" stroke="black" width="12" x="780" y="239.6"/>
  <text x="780" y="290.8" font-family="Tahoma" font-size="12" transform="rotate(90 780,290.8)" text-rendering="optimizeSpeed" fill="#000000">1.316 (462)</text>
  <rect fill="blue" height="35.7" stroke="black" width="12" x="795" y="250.1"/>
  <text x="795" y="290.8" font-family="Tahoma" font-size="12" transform="rotate(90 795,290.8)" text-rendering="optimizeSpeed" fill="#000000">1.317 (357)</text>
  <rect fill="blue" height="51.0" stroke="black" width="12" x="810" y="234.8"/>
  <text x="810" y="290.8" font-family="Tahoma" font-size="12" transform="rotate(90 810,290.8)" text-rendering="optimizeSpeed" fill="#000000">1.318 (510)</text>
  <rect fill="blue" height="32.6" stroke="black" width="12" x="825" y="253.2"/>
  <text x="825" y="290.8" font-family="Tahoma" font-size="12" transform="rotate(90 825,290.8)" text-rendering="optimizeSpeed" fill="#000000">1.319 (326)</text>
  <rect fill="blue" height="52.3" stroke="black" width="12" x="840" y="233.5"/>
  <text x="840" y="290.8" font-family="Tahoma" font-size="12" transform="rotate(90 840,290.8)" text-rendering="optimizeSpeed" fill="#000000">1.320 (523)</text>
  <rect fill="blue" height="56.5" stroke="black" width="12" x="855" y="229.3"/>
  <text x="855" y="290.8" font-family="Tahoma" font-size="12" transform="rotate(90 855,290.8)" text-rendering="optimizeSpeed" fill="#000000">1.321 (565)</text>
  <rect fill="blue" height="107.6" stroke="black" width="12" x="870" y="178.2"/>
  <text x="870" y="290.8" font-family="Tahoma" font-size="12" transform="rotate(90 870,290.8)" text-rendering="optimizeSpeed" fill="#000000">1.322 (1076)</text>
  <rect fill="blue" height="235.8" stroke="black" width="12" x="885" y="50.0"/>
  <text x="885" y="290.8" font-family="Tahoma" font-size="12" transform="rotate(90 885,290.8)" text-rendering="optimizeSpeed" fill="#000000">1.323 (2358)</text>
  <rect fill="blue" height="150.2" stroke="black" width="12" x="900" y="135.6"/>
  <text x="900" y="290.8" font-family="Tahoma" font-size="12" transform="rotate(90 900,290.8)" text-rendering="optimizeSpeed" fill="#000000">1.324 (1502)</text>
  <rect fill="blue" height="14.2" stroke="black" width="12" x="915" y="271.6"/>
  <text x="915" y="290.8" font-family="Tahoma" font-size="12" transform="rotate(90 915,290.8)" text-rendering="optimizeSpeed" fill="#000000">1.325 (142)</text>
  <rect fill="blue" height="20.8" stroke="black" width="12" x="930" y="265.0"/>
  <text x="930" y="290.8" font-family="Tahoma" font-size="12" transform="rotate(90 930,290.8)" text-rendering="optimizeSpeed" fill="#000000">1.326 (208)</text>
  <text x="10" y="40" font-family="Tahoma" font-size="20" text-rendering="optimizeSpeed" fill="#000000">Jenkins installations (total: 12561)</text>
</svg>
