<svg xmlns="http://www.w3.org/2000/svg" version="1.1" preserveAspectRatio="xMidYMid meet" viewBox="0 0 1985 371.4">
  <rect fill="blue" height="0.0" stroke="black" width="12" x="15" y="71.4"/>
  <text x="15" y="76.4" font-family="Tahoma" font-size="12" transform="rotate(90 15,76.4)" text-rendering="optimizeSpeed" fill="#000000">gnat (1)</text>
  <rect fill="blue" height="0.0" stroke="black" width="12" x="30" y="71.4"/>
  <text x="30" y="76.4" font-family="Tahoma" font-size="12" transform="rotate(90 30,76.4)" text-rendering="optimizeSpeed" fill="#000000">jdepend (1)</text>
  <rect fill="blue" height="0.0" stroke="black" width="12" x="45" y="71.4"/>
  <text x="45" y="76.4" font-family="Tahoma" font-size="12" transform="rotate(90 45,76.4)" text-rendering="optimizeSpeed" fill="#000000">scons (1)</text>
  <rect fill="blue" height="0.0" stroke="black" width="12" x="60" y="71.4"/>
  <text x="60" y="76.4" font-family="Tahoma" font-size="12" transform="rotate(90 60,76.4)" text-rendering="optimizeSpeed" fill="#000000">selenium (1)</text>
  <rect fill="blue" height="0.0" stroke="black" width="12" x="75" y="71.4"/>
  <text x="75" y="76.4" font-family="Tahoma" font-size="12" transform="rotate(90 75,76.4)" text-rendering="optimizeSpeed" fill="#000000">svnpublisher (1)</text>
  <rect fill="blue" height="0.0" stroke="black" width="12" x="90" y="71.4"/>
  <text x="90" y="76.4" font-family="Tahoma" font-size="12" transform="rotate(90 90,76.4)" text-rendering="optimizeSpeed" fill="#000000">systemloadaverage-monitor (1)</text>
  <rect fill="blue" height="0.0" stroke="black" width="12" x="105" y="71.4"/>
  <text x="105" y="76.4" font-family="Tahoma" font-size="12" transform="rotate(90 105,76.4)" text-rendering="optimizeSpeed" fill="#000000">Schmant (2)</text>
  <rect fill="blue" height="0.0" stroke="black" width="12" x="120" y="71.4"/>
  <text x="120" y="76.4" font-family="Tahoma" font-size="12" transform="rotate(90 120,76.4)" text-rendering="optimizeSpeed" fill="#000000">cccc (2)</text>
  <rect fill="blue" height="0.0" stroke="black" width="12" x="135" y="71.4"/>
  <text x="135" y="76.4" font-family="Tahoma" font-size="12" transform="rotate(90 135,76.4)" text-rendering="optimizeSpeed" fill="#000000">easyant (2)</text>
  <rect fill="blue" height="0.0" stroke="black" width="12" x="150" y="71.4"/>
  <text x="150" y="76.4" font-family="Tahoma" font-size="12" transform="rotate(90 150,76.4)" text-rendering="optimizeSpeed" fill="#000000">tuxdroid (3)</text>
  <rect fill="blue" height="0.1" stroke="black" width="12" x="165" y="71.3"/>
  <text x="165" y="76.4" font-family="Tahoma" font-size="12" transform="rotate(90 165,76.4)" text-rendering="optimizeSpeed" fill="#000000">gallio (5)</text>
  <rect fill="blue" height="0.1" stroke="black" width="12" x="180" y="71.3"/>
  <text x="180" y="76.4" font-family="Tahoma" font-size="12" transform="rotate(90 180,76.4)" text-rendering="optimizeSpeed" fill="#000000">harvest (5)</text>
  <rect fill="blue" height="0.1" stroke="black" width="12" x="195" y="71.3"/>
  <text x="195" y="76.4" font-family="Tahoma" font-size="12" transform="rotate(90 195,76.4)" text-rendering="optimizeSpeed" fill="#000000">SCTMExecutor (6)</text>
  <rect fill="blue" height="0.1" stroke="black" width="12" x="210" y="71.3"/>
  <text x="210" y="76.4" font-family="Tahoma" font-size="12" transform="rotate(90 210,76.4)" text-rendering="optimizeSpeed" fill="#000000">fitnesse (6)</text>
  <rect fill="blue" height="0.1" stroke="black" width="12" x="225" y="71.3"/>
  <text x="225" y="76.4" font-family="Tahoma" font-size="12" transform="rotate(90 225,76.4)" text-rendering="optimizeSpeed" fill="#000000">kundo (6)</text>
  <rect fill="blue" height="0.1" stroke="black" width="12" x="240" y="71.3"/>
  <text x="240" y="76.4" font-family="Tahoma" font-size="12" transform="rotate(90 240,76.4)" text-rendering="optimizeSpeed" fill="#000000">sfee (8)</text>
  <rect fill="blue" height="0.1" stroke="black" width="12" x="255" y="71.3"/>
  <text x="255" y="76.4" font-family="Tahoma" font-size="12" transform="rotate(90 255,76.4)" text-rendering="optimizeSpeed" fill="#000000">kagemai (10)</text>
  <rect fill="blue" height="0.1" stroke="black" width="12" x="270" y="71.3"/>
  <text x="270" y="76.4" font-family="Tahoma" font-size="12" transform="rotate(90 270,76.4)" text-rendering="optimizeSpeed" fill="#000000">bitkeeper (12)</text>
  <rect fill="blue" height="0.1" stroke="black" width="12" x="285" y="71.3"/>
  <text x="285" y="76.4" font-family="Tahoma" font-size="12" transform="rotate(90 285,76.4)" text-rendering="optimizeSpeed" fill="#000000">hadoop (12)</text>
  <rect fill="blue" height="0.1" stroke="black" width="12" x="300" y="71.3"/>
  <text x="300" y="76.4" font-family="Tahoma" font-size="12" transform="rotate(90 300,76.4)" text-rendering="optimizeSpeed" fill="#000000">hudson-wsclean-plugin (13)</text>
  <rect fill="blue" height="0.1" stroke="black" width="12" x="315" y="71.3"/>
  <text x="315" y="76.4" font-family="Tahoma" font-size="12" transform="rotate(90 315,76.4)" text-rendering="optimizeSpeed" fill="#000000">pvcs_scm (14)</text>
  <rect fill="blue" height="0.2" stroke="black" width="12" x="330" y="71.2"/>
  <text x="330" y="76.4" font-family="Tahoma" font-size="12" transform="rotate(90 330,76.4)" text-rendering="optimizeSpeed" fill="#000000">cppunit (20)</text>
  <rect fill="blue" height="0.2" stroke="black" width="12" x="345" y="71.2"/>
  <text x="345" y="76.4" font-family="Tahoma" font-size="12" transform="rotate(90 345,76.4)" text-rendering="optimizeSpeed" fill="#000000">synergy (21)</text>
  <rect fill="blue" height="0.2" stroke="black" width="12" x="360" y="71.2"/>
  <text x="360" y="76.4" font-family="Tahoma" font-size="12" transform="rotate(90 360,76.4)" text-rendering="optimizeSpeed" fill="#000000">hgca (24)</text>
  <rect fill="blue" height="0.2" stroke="black" width="12" x="375" y="71.2"/>
  <text x="375" y="76.4" font-family="Tahoma" font-size="12" transform="rotate(90 375,76.4)" text-rendering="optimizeSpeed" fill="#000000">crowd (25)</text>
  <rect fill="blue" height="0.3" stroke="black" width="12" x="390" y="71.1"/>
  <text x="390" y="76.4" font-family="Tahoma" font-size="12" transform="rotate(90 390,76.4)" text-rendering="optimizeSpeed" fill="#000000">javanet-uploader (27)</text>
  <rect fill="blue" height="0.3" stroke="black" width="12" x="405" y="71.1"/>
  <text x="405" y="76.4" font-family="Tahoma" font-size="12" transform="rotate(90 405,76.4)" text-rendering="optimizeSpeed" fill="#000000">nabaztag (33)</text>
  <rect fill="blue" height="0.3" stroke="black" width="12" x="420" y="71.1"/>
  <text x="420" y="76.4" font-family="Tahoma" font-size="12" transform="rotate(90 420,76.4)" text-rendering="optimizeSpeed" fill="#000000">svn-release-mgr (33)</text>
  <rect fill="blue" height="0.3" stroke="black" width="12" x="435" y="71.1"/>
  <text x="435" y="76.4" font-family="Tahoma" font-size="12" transform="rotate(90 435,76.4)" text-rendering="optimizeSpeed" fill="#000000">starteam (34)</text>
  <rect fill="blue" height="0.4" stroke="black" width="12" x="450" y="71.0"/>
  <text x="450" y="76.4" font-family="Tahoma" font-size="12" transform="rotate(90 450,76.4)" text-rendering="optimizeSpeed" fill="#000000">javanet (42)</text>
  <rect fill="blue" height="0.5" stroke="black" width="12" x="465" y="70.9"/>
  <text x="465" y="76.4" font-family="Tahoma" font-size="12" transform="rotate(90 465,76.4)" text-rendering="optimizeSpeed" fill="#000000">gradle (46)</text>
  <rect fill="blue" height="0.5" stroke="black" width="12" x="480" y="70.9"/>
  <text x="480" y="76.4" font-family="Tahoma" font-size="12" transform="rotate(90 480,76.4)" text-rendering="optimizeSpeed" fill="#000000">grinder (52)</text>
  <rect fill="blue" height="0.6" stroke="black" width="12" x="495" y="70.8"/>
  <text x="495" y="76.4" font-family="Tahoma" font-size="12" transform="rotate(90 495,76.4)" text-rendering="optimizeSpeed" fill="#000000">accurev (57)</text>
  <rect fill="blue" height="0.6" stroke="black" width="12" x="510" y="70.8"/>
  <text x="510" y="76.4" font-family="Tahoma" font-size="12" transform="rotate(90 510,76.4)" text-rendering="optimizeSpeed" fill="#000000">tfs (59)</text>
  <rect fill="blue" height="0.6" stroke="black" width="12" x="525" y="70.8"/>
  <text x="525" y="76.4" font-family="Tahoma" font-size="12" transform="rotate(90 525,76.4)" text-rendering="optimizeSpeed" fill="#000000">googlecode (61)</text>
  <rect fill="blue" height="0.7" stroke="black" width="12" x="540" y="70.8"/>
  <text x="540" y="76.4" font-family="Tahoma" font-size="12" transform="rotate(90 540,76.4)" text-rendering="optimizeSpeed" fill="#000000">schedule-failed-builds (65)</text>
  <rect fill="blue" height="0.7" stroke="black" width="12" x="555" y="70.7"/>
  <text x="555" y="76.4" font-family="Tahoma" font-size="12" transform="rotate(90 555,76.4)" text-rendering="optimizeSpeed" fill="#000000">googleanalytics (68)</text>
  <rect fill="blue" height="0.7" stroke="black" width="12" x="570" y="70.7"/>
  <text x="570" y="76.4" font-family="Tahoma" font-size="12" transform="rotate(90 570,76.4)" text-rendering="optimizeSpeed" fill="#000000">mstest (74)</text>
  <rect fill="blue" height="0.7" stroke="black" width="12" x="585" y="70.7"/>
  <text x="585" y="76.4" font-family="Tahoma" font-size="12" transform="rotate(90 585,76.4)" text-rendering="optimizeSpeed" fill="#000000">phing (74)</text>
  <rect fill="blue" height="0.8" stroke="black" width="12" x="600" y="70.6"/>
  <text x="600" y="76.4" font-family="Tahoma" font-size="12" transform="rotate(90 600,76.4)" text-rendering="optimizeSpeed" fill="#000000">rubyMetrics (85)</text>
  <rect fill="blue" height="0.9" stroke="black" width="12" x="615" y="70.5"/>
  <text x="615" y="76.4" font-family="Tahoma" font-size="12" transform="rotate(90 615,76.4)" text-rendering="optimizeSpeed" fill="#000000">javatest-report (94)</text>
  <rect fill="blue" height="1.0" stroke="black" width="12" x="630" y="70.4"/>
  <text x="630" y="76.4" font-family="Tahoma" font-size="12" transform="rotate(90 630,76.4)" text-rendering="optimizeSpeed" fill="#000000">svncompat14 (96)</text>
  <rect fill="blue" height="1.1" stroke="black" width="12" x="645" y="70.3"/>
  <text x="645" y="76.4" font-family="Tahoma" font-size="12" transform="rotate(90 645,76.4)" text-rendering="optimizeSpeed" fill="#000000">vss (109)</text>
  <rect fill="blue" height="1.1" stroke="black" width="12" x="660" y="70.3"/>
  <text x="660" y="76.4" font-family="Tahoma" font-size="12" transform="rotate(90 660,76.4)" text-rendering="optimizeSpeed" fill="#000000">template-project (110)</text>
  <rect fill="blue" height="1.1" stroke="black" width="12" x="675" y="70.3"/>
  <text x="675" y="76.4" font-family="Tahoma" font-size="12" transform="rotate(90 675,76.4)" text-rendering="optimizeSpeed" fill="#000000">gant (112)</text>
  <rect fill="blue" height="1.1" stroke="black" width="12" x="690" y="70.3"/>
  <text x="690" y="76.4" font-family="Tahoma" font-size="12" transform="rotate(90 690,76.4)" text-rendering="optimizeSpeed" fill="#000000">regexemail (114)</text>
  <rect fill="blue" height="1.2" stroke="black" width="12" x="705" y="70.2"/>
  <text x="705" y="76.4" font-family="Tahoma" font-size="12" transform="rotate(90 705,76.4)" text-rendering="optimizeSpeed" fill="#000000">naginator (118)</text>
  <rect fill="blue" height="1.2" stroke="black" width="12" x="720" y="70.2"/>
  <text x="720" y="76.4" font-family="Tahoma" font-size="12" transform="rotate(90 720,76.4)" text-rendering="optimizeSpeed" fill="#000000">webtestpresenter (118)</text>
  <rect fill="blue" height="1.2" stroke="black" width="12" x="735" y="70.2"/>
  <text x="735" y="76.4" font-family="Tahoma" font-size="12" transform="rotate(90 735,76.4)" text-rendering="optimizeSpeed" fill="#000000">zentimestamp (120)</text>
  <rect fill="blue" height="1.2" stroke="black" width="12" x="750" y="70.2"/>
  <text x="750" y="76.4" font-family="Tahoma" font-size="12" transform="rotate(90 750,76.4)" text-rendering="optimizeSpeed" fill="#000000">ivy (125)</text>
  <rect fill="blue" height="1.3" stroke="black" width="12" x="765" y="70.1"/>
  <text x="765" y="76.4" font-family="Tahoma" font-size="12" transform="rotate(90 765,76.4)" text-rendering="optimizeSpeed" fill="#000000">japex (128)</text>
  <rect fill="blue" height="1.3" stroke="black" width="12" x="780" y="70.1"/>
  <text x="780" y="76.4" font-family="Tahoma" font-size="12" transform="rotate(90 780,76.4)" text-rendering="optimizeSpeed" fill="#000000">port-allocator (128)</text>
  <rect fill="blue" height="1.4" stroke="black" width="12" x="795" y="70.1"/>
  <text x="795" y="76.4" font-family="Tahoma" font-size="12" transform="rotate(90 795,76.4)" text-rendering="optimizeSpeed" fill="#000000">m2release (135)</text>
  <rect fill="blue" height="1.4" stroke="black" width="12" x="810" y="70.0"/>
  <text x="810" y="76.4" font-family="Tahoma" font-size="12" transform="rotate(90 810,76.4)" text-rendering="optimizeSpeed" fill="#000000">changelog-history (136)</text>
  <rect fill="blue" height="1.4" stroke="black" width="12" x="825" y="70.0"/>
  <text x="825" y="76.4" font-family="Tahoma" font-size="12" transform="rotate(90 825,76.4)" text-rendering="optimizeSpeed" fill="#000000">redmine (136)</text>
  <rect fill="blue" height="1.4" stroke="black" width="12" x="840" y="70.0"/>
  <text x="840" y="76.4" font-family="Tahoma" font-size="12" transform="rotate(90 840,76.4)" text-rendering="optimizeSpeed" fill="#000000">grails (139)</text>
  <rect fill="blue" height="1.4" stroke="black" width="12" x="855" y="70.0"/>
  <text x="855" y="76.4" font-family="Tahoma" font-size="12" transform="rotate(90 855,76.4)" text-rendering="optimizeSpeed" fill="#000000">parameterized-trigger (144)</text>
  <rect fill="blue" height="1.5" stroke="black" width="12" x="870" y="69.9"/>
  <text x="870" y="76.4" font-family="Tahoma" font-size="12" transform="rotate(90 870,76.4)" text-rendering="optimizeSpeed" fill="#000000">svncompat13 (147)</text>
  <rect fill="blue" height="1.5" stroke="black" width="12" x="885" y="69.9"/>
  <text x="885" y="76.4" font-family="Tahoma" font-size="12" transform="rotate(90 885,76.4)" text-rendering="optimizeSpeed" fill="#000000">testabilityexplorer (149)</text>
  <rect fill="blue" height="1.5" stroke="black" width="12" x="900" y="69.9"/>
  <text x="900" y="76.4" font-family="Tahoma" font-size="12" transform="rotate(90 900,76.4)" text-rendering="optimizeSpeed" fill="#000000">rake (154)</text>
  <rect fill="blue" height="1.6" stroke="black" width="12" x="915" y="69.8"/>
  <text x="915" y="76.4" font-family="Tahoma" font-size="12" transform="rotate(90 915,76.4)" text-rendering="optimizeSpeed" fill="#000000">hudsontrayapp (155)</text>
  <rect fill="blue" height="1.6" stroke="black" width="12" x="930" y="69.8"/>
  <text x="930" y="76.4" font-family="Tahoma" font-size="12" transform="rotate(90 930,76.4)" text-rendering="optimizeSpeed" fill="#000000">ircbot (158)</text>
  <rect fill="blue" height="1.7" stroke="black" width="12" x="945" y="69.7"/>
  <text x="945" y="76.4" font-family="Tahoma" font-size="12" transform="rotate(90 945,76.4)" text-rendering="optimizeSpeed" fill="#000000">ruby (166)</text>
  <rect fill="blue" height="1.7" stroke="black" width="12" x="960" y="69.7"/>
  <text x="960" y="76.4" font-family="Tahoma" font-size="12" transform="rotate(90 960,76.4)" text-rendering="optimizeSpeed" fill="#000000">statusmonitor (166)</text>
  <rect fill="blue" height="1.7" stroke="black" width="12" x="975" y="69.7"/>
  <text x="975" y="76.4" font-family="Tahoma" font-size="12" transform="rotate(90 975,76.4)" text-rendering="optimizeSpeed" fill="#000000">twitter (168)</text>
  <rect fill="blue" height="1.7" stroke="black" width="12" x="990" y="69.7"/>
  <text x="990" y="76.4" font-family="Tahoma" font-size="12" transform="rotate(90 990,76.4)" text-rendering="optimizeSpeed" fill="#000000">viewVC (170)</text>
  <rect fill="blue" height="1.7" stroke="black" width="12" x="1005" y="69.7"/>
  <text x="1005" y="76.4" font-family="Tahoma" font-size="12" transform="rotate(90 1005,76.4)" text-rendering="optimizeSpeed" fill="#000000">seleniumhq (172)</text>
  <rect fill="blue" height="1.7" stroke="black" width="12" x="1020" y="69.7"/>
  <text x="1020" y="76.4" font-family="Tahoma" font-size="12" transform="rotate(90 1020,76.4)" text-rendering="optimizeSpeed" fill="#000000">sloccount (172)</text>
  <rect fill="blue" height="1.8" stroke="black" width="12" x="1035" y="69.6"/>
  <text x="1035" y="76.4" font-family="Tahoma" font-size="12" transform="rotate(90 1035,76.4)" text-rendering="optimizeSpeed" fill="#000000">selenium-aes (183)</text>
  <rect fill="blue" height="1.8" stroke="black" width="12" x="1050" y="69.6"/>
  <text x="1050" y="76.4" font-family="Tahoma" font-size="12" transform="rotate(90 1050,76.4)" text-rendering="optimizeSpeed" fill="#000000">vmware (183)</text>
  <rect fill="blue" height="1.9" stroke="black" width="12" x="1065" y="69.5"/>
  <text x="1065" y="76.4" font-family="Tahoma" font-size="12" transform="rotate(90 1065,76.4)" text-rendering="optimizeSpeed" fill="#000000">URLSCM (187)</text>
  <rect fill="blue" height="1.9" stroke="black" width="12" x="1080" y="69.5"/>
  <text x="1080" y="76.4" font-family="Tahoma" font-size="12" transform="rotate(90 1080,76.4)" text-rendering="optimizeSpeed" fill="#000000">cvs-tag (194)</text>
  <rect fill="blue" height="1.9" stroke="black" width="12" x="1095" y="69.5"/>
  <text x="1095" y="76.4" font-family="Tahoma" font-size="12" transform="rotate(90 1095,76.4)" text-rendering="optimizeSpeed" fill="#000000">doxygen (194)</text>
  <rect fill="blue" height="2.0" stroke="black" width="12" x="1110" y="69.4"/>
  <text x="1110" y="76.4" font-family="Tahoma" font-size="12" transform="rotate(90 1110,76.4)" text-rendering="optimizeSpeed" fill="#000000">gcal (200)</text>
  <rect fill="blue" height="2.0" stroke="black" width="12" x="1125" y="69.4"/>
  <text x="1125" y="76.4" font-family="Tahoma" font-size="12" transform="rotate(90 1125,76.4)" text-rendering="optimizeSpeed" fill="#000000">xvnc (200)</text>
  <rect fill="blue" height="2.1" stroke="black" width="12" x="1140" y="69.3"/>
  <text x="1140" y="76.4" font-family="Tahoma" font-size="12" transform="rotate(90 1140,76.4)" text-rendering="optimizeSpeed" fill="#000000">url-change-trigger (206)</text>
  <rect fill="blue" height="2.1" stroke="black" width="12" x="1155" y="69.3"/>
  <text x="1155" y="76.4" font-family="Tahoma" font-size="12" transform="rotate(90 1155,76.4)" text-rendering="optimizeSpeed" fill="#000000">sidebar-link (212)</text>
  <rect fill="blue" height="2.2" stroke="black" width="12" x="1170" y="69.2"/>
  <text x="1170" y="76.4" font-family="Tahoma" font-size="12" transform="rotate(90 1170,76.4)" text-rendering="optimizeSpeed" fill="#000000">javancss (223)</text>
  <rect fill="blue" height="2.3" stroke="black" width="12" x="1185" y="69.1"/>
  <text x="1185" y="76.4" font-family="Tahoma" font-size="12" transform="rotate(90 1185,76.4)" text-rendering="optimizeSpeed" fill="#000000">mantis (227)</text>
  <rect fill="blue" height="2.3" stroke="black" width="12" x="1200" y="69.1"/>
  <text x="1200" y="76.4" font-family="Tahoma" font-size="12" transform="rotate(90 1200,76.4)" text-rendering="optimizeSpeed" fill="#000000">groovy (228)</text>
  <rect fill="blue" height="2.3" stroke="black" width="12" x="1215" y="69.1"/>
  <text x="1215" y="76.4" font-family="Tahoma" font-size="12" transform="rotate(90 1215,76.4)" text-rendering="optimizeSpeed" fill="#000000">claim (230)</text>
  <rect fill="blue" height="2.4" stroke="black" width="12" x="1230" y="69.0"/>
  <text x="1230" y="76.4" font-family="Tahoma" font-size="12" transform="rotate(90 1230,76.4)" text-rendering="optimizeSpeed" fill="#000000">mercurial (238)</text>
  <rect fill="blue" height="2.4" stroke="black" width="12" x="1245" y="69.0"/>
  <text x="1245" y="76.4" font-family="Tahoma" font-size="12" transform="rotate(90 1245,76.4)" text-rendering="optimizeSpeed" fill="#000000">polarion (241)</text>
  <rect fill="blue" height="2.5" stroke="black" width="12" x="1260" y="68.9"/>
  <text x="1260" y="76.4" font-family="Tahoma" font-size="12" transform="rotate(90 1260,76.4)" text-rendering="optimizeSpeed" fill="#000000">ldapemail (245)</text>
  <rect fill="blue" height="2.5" stroke="black" width="12" x="1275" y="68.9"/>
  <text x="1275" y="76.4" font-family="Tahoma" font-size="12" transform="rotate(90 1275,76.4)" text-rendering="optimizeSpeed" fill="#000000">nant (252)</text>
  <rect fill="blue" height="2.6" stroke="black" width="12" x="1290" y="68.8"/>
  <text x="1290" y="76.4" font-family="Tahoma" font-size="12" transform="rotate(90 1290,76.4)" text-rendering="optimizeSpeed" fill="#000000">build-publisher (261)</text>
  <rect fill="blue" height="2.7" stroke="black" width="12" x="1305" y="68.7"/>
  <text x="1305" y="76.4" font-family="Tahoma" font-size="12" transform="rotate(90 1305,76.4)" text-rendering="optimizeSpeed" fill="#000000">ftppublisher (269)</text>
  <rect fill="blue" height="2.8" stroke="black" width="12" x="1320" y="68.6"/>
  <text x="1320" y="76.4" font-family="Tahoma" font-size="12" transform="rotate(90 1320,76.4)" text-rendering="optimizeSpeed" fill="#000000">locale (281)</text>
  <rect fill="blue" height="3.0" stroke="black" width="12" x="1335" y="68.4"/>
  <text x="1335" y="76.4" font-family="Tahoma" font-size="12" transform="rotate(90 1335,76.4)" text-rendering="optimizeSpeed" fill="#000000">git (303)</text>
  <rect fill="blue" height="3.0" stroke="black" width="12" x="1350" y="68.3"/>
  <text x="1350" y="76.4" font-family="Tahoma" font-size="12" transform="rotate(90 1350,76.4)" text-rendering="optimizeSpeed" fill="#000000">clover (305)</text>
  <rect fill="blue" height="3.2" stroke="black" width="12" x="1365" y="68.2"/>
  <text x="1365" y="76.4" font-family="Tahoma" font-size="12" transform="rotate(90 1365,76.4)" text-rendering="optimizeSpeed" fill="#000000">description-setter (323)</text>
  <rect fill="blue" height="3.3" stroke="black" width="12" x="1380" y="68.1"/>
  <text x="1380" y="76.4" font-family="Tahoma" font-size="12" transform="rotate(90 1380,76.4)" text-rendering="optimizeSpeed" fill="#000000">perforce (329)</text>
  <rect fill="blue" height="3.4" stroke="black" width="12" x="1395" y="68.0"/>
  <text x="1395" y="76.4" font-family="Tahoma" font-size="12" transform="rotate(90 1395,76.4)" text-rendering="optimizeSpeed" fill="#000000">crap4j (337)</text>
  <rect fill="blue" height="3.4" stroke="black" width="12" x="1410" y="68.0"/>
  <text x="1410" y="76.4" font-family="Tahoma" font-size="12" transform="rotate(90 1410,76.4)" text-rendering="optimizeSpeed" fill="#000000">clearcase (341)</text>
  <rect fill="blue" height="3.4" stroke="black" width="12" x="1425" y="68.0"/>
  <text x="1425" y="76.4" font-family="Tahoma" font-size="12" transform="rotate(90 1425,76.4)" text-rendering="optimizeSpeed" fill="#000000">ssh-slaves (341)</text>
  <rect fill="blue" height="3.5" stroke="black" width="12" x="1440" y="67.8"/>
  <text x="1440" y="76.4" font-family="Tahoma" font-size="12" transform="rotate(90 1440,76.4)" text-rendering="optimizeSpeed" fill="#000000">bugzilla (355)</text>
  <rect fill="blue" height="3.7" stroke="black" width="12" x="1455" y="67.7"/>
  <text x="1455" y="76.4" font-family="Tahoma" font-size="12" transform="rotate(90 1455,76.4)" text-rendering="optimizeSpeed" fill="#000000">release (371)</text>
  <rect fill="blue" height="3.7" stroke="black" width="12" x="1470" y="67.7"/>
  <text x="1470" y="76.4" font-family="Tahoma" font-size="12" transform="rotate(90 1470,76.4)" text-rendering="optimizeSpeed" fill="#000000">audit-trail (372)</text>
  <rect fill="blue" height="3.8" stroke="black" width="12" x="1485" y="67.6"/>
  <text x="1485" y="76.4" font-family="Tahoma" font-size="12" transform="rotate(90 1485,76.4)" text-rendering="optimizeSpeed" fill="#000000">plot (379)</text>
  <rect fill="blue" height="3.9" stroke="black" width="12" x="1500" y="67.5"/>
  <text x="1500" y="76.4" font-family="Tahoma" font-size="12" transform="rotate(90 1500,76.4)" text-rendering="optimizeSpeed" fill="#000000">nunit (388)</text>
  <rect fill="blue" height="4.0" stroke="black" width="12" x="1515" y="67.4"/>
  <text x="1515" y="76.4" font-family="Tahoma" font-size="12" transform="rotate(90 1515,76.4)" text-rendering="optimizeSpeed" fill="#000000">locks-and-latches (399)</text>
  <rect fill="blue" height="4.0" stroke="black" width="12" x="1530" y="67.4"/>
  <text x="1530" y="76.4" font-family="Tahoma" font-size="12" transform="rotate(90 1530,76.4)" text-rendering="optimizeSpeed" fill="#000000">dependencyanalyzer (403)</text>
  <rect fill="blue" height="4.1" stroke="black" width="12" x="1545" y="67.3"/>
  <text x="1545" y="76.4" font-family="Tahoma" font-size="12" transform="rotate(90 1545,76.4)" text-rendering="optimizeSpeed" fill="#000000">dry (413)</text>
  <rect fill="blue" height="4.3" stroke="black" width="12" x="1560" y="67.1"/>
  <text x="1560" y="76.4" font-family="Tahoma" font-size="12" transform="rotate(90 1560,76.4)" text-rendering="optimizeSpeed" fill="#000000">greenballs (435)</text>
  <rect fill="blue" height="4.5" stroke="black" width="12" x="1575" y="66.9"/>
  <text x="1575" y="76.4" font-family="Tahoma" font-size="12" transform="rotate(90 1575,76.4)" text-rendering="optimizeSpeed" fill="#000000">promoted-builds (449)</text>
  <rect fill="blue" height="4.6" stroke="black" width="12" x="1590" y="66.8"/>
  <text x="1590" y="76.4" font-family="Tahoma" font-size="12" transform="rotate(90 1590,76.4)" text-rendering="optimizeSpeed" fill="#000000">text-finder (456)</text>
  <rect fill="blue" height="4.7" stroke="black" width="12" x="1605" y="66.7"/>
  <text x="1605" y="76.4" font-family="Tahoma" font-size="12" transform="rotate(90 1605,76.4)" text-rendering="optimizeSpeed" fill="#000000">jabber (472)</text>
  <rect fill="blue" height="5.2" stroke="black" width="12" x="1620" y="66.2"/>
  <text x="1620" y="76.4" font-family="Tahoma" font-size="12" transform="rotate(90 1620,76.4)" text-rendering="optimizeSpeed" fill="#000000">msbuild (521)</text>
  <rect fill="blue" height="6.3" stroke="black" width="12" x="1635" y="65.1"/>
  <text x="1635" y="76.4" font-family="Tahoma" font-size="12" transform="rotate(90 1635,76.4)" text-rendering="optimizeSpeed" fill="#000000">sonar (630)</text>
  <rect fill="blue" height="7.0" stroke="black" width="12" x="1650" y="64.4"/>
  <text x="1650" y="76.4" font-family="Tahoma" font-size="12" transform="rotate(90 1650,76.4)" text-rendering="optimizeSpeed" fill="#000000">trac (702)</text>
  <rect fill="blue" height="7.2" stroke="black" width="12" x="1665" y="64.2"/>
  <text x="1665" y="76.4" font-family="Tahoma" font-size="12" transform="rotate(90 1665,76.4)" text-rendering="optimizeSpeed" fill="#000000">scp (720)</text>
  <rect fill="blue" height="7.5" stroke="black" width="12" x="1680" y="63.9"/>
  <text x="1680" y="76.4" font-family="Tahoma" font-size="12" transform="rotate(90 1680,76.4)" text-rendering="optimizeSpeed" fill="#000000">active-directory (751)</text>
  <rect fill="blue" height="8.6" stroke="black" width="12" x="1695" y="62.8"/>
  <text x="1695" y="76.4" font-family="Tahoma" font-size="12" transform="rotate(90 1695,76.4)" text-rendering="optimizeSpeed" fill="#000000">emma (864)</text>
  <rect fill="blue" height="8.8" stroke="black" width="12" x="1710" y="62.6"/>
  <text x="1710" y="76.4" font-family="Tahoma" font-size="12" transform="rotate(90 1710,76.4)" text-rendering="optimizeSpeed" fill="#000000">ci-game (877)</text>
  <rect fill="blue" height="8.9" stroke="black" width="12" x="1725" y="62.5"/>
  <text x="1725" y="76.4" font-family="Tahoma" font-size="12" transform="rotate(90 1725,76.4)" text-rendering="optimizeSpeed" fill="#000000">build-timeout (887)</text>
  <rect fill="blue" height="8.9" stroke="black" width="12" x="1740" y="62.5"/>
  <text x="1740" y="76.4" font-family="Tahoma" font-size="12" transform="rotate(90 1740,76.4)" text-rendering="optimizeSpeed" fill="#000000">svn-tag (888)</text>
  <rect fill="blue" height="8.9" stroke="black" width="12" x="1755" y="62.5"/>
  <text x="1755" y="76.4" font-family="Tahoma" font-size="12" transform="rotate(90 1755,76.4)" text-rendering="optimizeSpeed" fill="#000000">jira (890)</text>
  <rect fill="blue" height="9.6" stroke="black" width="12" x="1770" y="61.8"/>
  <text x="1770" y="76.4" font-family="Tahoma" font-size="12" transform="rotate(90 1770,76.4)" text-rendering="optimizeSpeed" fill="#000000">deploy (960)</text>
  <rect fill="blue" height="10.4" stroke="black" width="12" x="1785" y="61.0"/>
  <text x="1785" y="76.4" font-family="Tahoma" font-size="12" transform="rotate(90 1785,76.4)" text-rendering="optimizeSpeed" fill="#000000">batch-task (1039)</text>
  <rect fill="blue" height="11.1" stroke="black" width="12" x="1800" y="60.3"/>
  <text x="1800" y="76.4" font-family="Tahoma" font-size="12" transform="rotate(90 1800,76.4)" text-rendering="optimizeSpeed" fill="#000000">violations (1112)</text>
  <rect fill="blue" height="12.3" stroke="black" width="12" x="1815" y="59.1"/>
  <text x="1815" y="76.4" font-family="Tahoma" font-size="12" transform="rotate(90 1815,76.4)" text-rendering="optimizeSpeed" fill="#000000">emotional-hudson (1229)</text>
  <rect fill="blue" height="13.2" stroke="black" width="12" x="1830" y="58.2"/>
  <text x="1830" y="76.4" font-family="Tahoma" font-size="12" transform="rotate(90 1830,76.4)" text-rendering="optimizeSpeed" fill="#000000">disk-usage (1315)</text>
  <rect fill="blue" height="14.1" stroke="black" width="12" x="1845" y="57.3"/>
  <text x="1845" y="76.4" font-family="Tahoma" font-size="12" transform="rotate(90 1845,76.4)" text-rendering="optimizeSpeed" fill="#000000">cobertura (1409)</text>
  <rect fill="blue" height="14.4" stroke="black" width="12" x="1860" y="57.0"/>
  <text x="1860" y="76.4" font-family="Tahoma" font-size="12" transform="rotate(90 1860,76.4)" text-rendering="optimizeSpeed" fill="#000000">tasks (1445)</text>
  <rect fill="blue" height="15.9" stroke="black" width="12" x="1875" y="55.5"/>
  <text x="1875" y="76.4" font-family="Tahoma" font-size="12" transform="rotate(90 1875,76.4)" text-rendering="optimizeSpeed" fill="#000000">pmd (1588)</text>
  <rect fill="blue" height="16.0" stroke="black" width="12" x="1890" y="55.4"/>
  <text x="1890" y="76.4" font-family="Tahoma" font-size="12" transform="rotate(90 1890,76.4)" text-rendering="optimizeSpeed" fill="#000000">warnings (1597)</text>
  <rect fill="blue" height="16.3" stroke="black" width="12" x="1905" y="55.1"/>
  <text x="1905" y="76.4" font-family="Tahoma" font-size="12" transform="rotate(90 1905,76.4)" text-rendering="optimizeSpeed" fill="#000000">email-ext (1630)</text>
  <rect fill="blue" height="18.2" stroke="black" width="12" x="1920" y="53.2"/>
  <text x="1920" y="76.4" font-family="Tahoma" font-size="12" transform="rotate(90 1920,76.4)" text-rendering="optimizeSpeed" fill="#000000">checkstyle (1816)</text>
  <rect fill="blue" height="21.4" stroke="black" width="12" x="1935" y="50.0"/>
  <text x="1935" y="76.4" font-family="Tahoma" font-size="12" transform="rotate(90 1935,76.4)" text-rendering="optimizeSpeed" fill="#000000">findbugs (2140)</text>
  <text x="10" y="40" font-family="Tahoma" font-size="20" text-rendering="optimizeSpeed" fill="#000000">Plugin installations (total: 41486)</text>
</svg>
