<svg xmlns="http://www.w3.org/2000/svg" version="1.1" preserveAspectRatio="xMidYMid meet" viewBox="0 0 170 490.6">
  <rect fill="blue" height="25.9" stroke="black" width="12" x="15" y="164.7"/>
  <text x="15" y="195.6" font-family="Tahoma" font-size="12" transform="rotate(90 15,195.6)" text-rendering="optimizeSpeed" fill="#000000">checkstyle (2589)</text>
  <rect fill="blue" height="27.2" stroke="black" width="12" x="30" y="163.4"/>
  <text x="30" y="195.6" font-family="Tahoma" font-size="12" transform="rotate(90 30,195.6)" text-rendering="optimizeSpeed" fill="#000000">cobertura (2725)</text>
  <rect fill="blue" height="29.4" stroke="black" width="12" x="45" y="161.2"/>
  <text x="45" y="195.6" font-family="Tahoma" font-size="12" transform="rotate(90 45,195.6)" text-rendering="optimizeSpeed" fill="#000000">email-ext (2938)</text>
  <rect fill="blue" height="30.0" stroke="black" width="12" x="60" y="160.7"/>
  <text x="60" y="195.6" font-family="Tahoma" font-size="12" transform="rotate(90 60,195.6)" text-rendering="optimizeSpeed" fill="#000000">findbugs (2997)</text>
  <rect fill="blue" height="115.2" stroke="black" width="12" x="75" y="75.5"/>
  <text x="75" y="195.6" font-family="Tahoma" font-size="12" transform="rotate(90 75,195.6)" text-rendering="optimizeSpeed" fill="#000000">scis-ad (11517)</text>
  <rect fill="blue" height="131.0" stroke="black" width="12" x="90" y="59.6"/>
  <text x="90" y="195.6" font-family="Tahoma" font-size="12" transform="rotate(90 90,195.6)" text-rendering="optimizeSpeed" fill="#000000">subversion (13104)</text>
  <rect fill="blue" height="139.1" stroke="black" width="12" x="105" y="51.6"/>
  <text x="105" y="195.6" font-family="Tahoma" font-size="12" transform="rotate(90 105,195.6)" text-rendering="optimizeSpeed" fill="#000000">ssh-slaves (13906)</text>
  <rect fill="blue" height="140.6" stroke="black" width="12" x="120" y="50.0"/>
  <text x="120" y="195.6" font-family="Tahoma" font-size="12" transform="rotate(90 120,195.6)" text-rendering="optimizeSpeed" fill="#000000">maven-plugin (14063)</text>
  <text x="10" y="40" font-family="Tahoma" font-size="20" text-rendering="optimizeSpeed" fill="#000000">Plugin installations (installations &gt; 2500)</text>
</svg>
