<svg xmlns="http://www.w3.org/2000/svg" version="1.1" preserveAspectRatio="xMidYMid meet" viewBox="0 0 905 647.0">
  <rect fill="blue" height="9.6" stroke="black" width="12" x="15" y="337.4"/>
  <text x="15" y="352.0" font-family="Tahoma" font-size="12" transform="rotate(90 15,352.0)" text-rendering="optimizeSpeed" fill="#000000">0 (241)</text>
  <rect fill="blue" height="48.2" stroke="black" width="12" x="30" y="298.9"/>
  <text x="30" y="352.0" font-family="Tahoma" font-size="12" transform="rotate(90 30,352.0)" text-rendering="optimizeSpeed" fill="#000000">1 (1204)</text>
  <rect fill="blue" height="297.0" stroke="black" width="12" x="45" y="50.0"/>
  <text x="45" y="352.0" font-family="Tahoma" font-size="12" transform="rotate(90 45,352.0)" text-rendering="optimizeSpeed" fill="#000000">2 (7426)</text>
  <rect fill="blue" height="21.2" stroke="black" width="12" x="60" y="325.8"/>
  <text x="60" y="352.0" font-family="Tahoma" font-size="12" transform="rotate(90 60,352.0)" text-rendering="optimizeSpeed" fill="#000000">3 (530)</text>
  <rect fill="blue" height="21.1" stroke="black" width="12" x="75" y="325.9"/>
  <text x="75" y="352.0" font-family="Tahoma" font-size="12" transform="rotate(90 75,352.0)" text-rendering="optimizeSpeed" fill="#000000">4 (528)</text>
  <rect fill="blue" height="11.4" stroke="black" width="12" x="90" y="335.6"/>
  <text x="90" y="352.0" font-family="Tahoma" font-size="12" transform="rotate(90 90,352.0)" text-rendering="optimizeSpeed" fill="#000000">5 (286)</text>
  <rect fill="blue" height="6.6" stroke="black" width="12" x="105" y="340.4"/>
  <text x="105" y="352.0" font-family="Tahoma" font-size="12" transform="rotate(90 105,352.0)" text-rendering="optimizeSpeed" fill="#000000">6 (165)</text>
  <rect fill="blue" height="3.2" stroke="black" width="12" x="120" y="343.8"/>
  <text x="120" y="352.0" font-family="Tahoma" font-size="12" transform="rotate(90 120,352.0)" text-rendering="optimizeSpeed" fill="#000000">7 (80)</text>
  <rect fill="blue" height="4.5" stroke="black" width="12" x="135" y="342.5"/>
  <text x="135" y="352.0" font-family="Tahoma" font-size="12" transform="rotate(90 135,352.0)" text-rendering="optimizeSpeed" fill="#000000">8 (113)</text>
  <rect fill="blue" height="1.7" stroke="black" width="12" x="150" y="345.3"/>
  <text x="150" y="352.0" font-family="Tahoma" font-size="12" transform="rotate(90 150,352.0)" text-rendering="optimizeSpeed" fill="#000000">9 (43)</text>
  <rect fill="blue" height="3.3" stroke="black" width="12" x="165" y="343.7"/>
  <text x="165" y="352.0" font-family="Tahoma" font-size="12" transform="rotate(90 165,352.0)" text-rendering="optimizeSpeed" fill="#000000">10 (83)</text>
  <rect fill="blue" height="1.3" stroke="black" width="12" x="180" y="345.7"/>
  <text x="180" y="352.0" font-family="Tahoma" font-size="12" transform="rotate(90 180,352.0)" text-rendering="optimizeSpeed" fill="#000000">11 (33)</text>
  <rect fill="blue" height="1.2" stroke="black" width="12" x="195" y="345.8"/>
  <text x="195" y="352.0" font-family="Tahoma" font-size="12" transform="rotate(90 195,352.0)" text-rendering="optimizeSpeed" fill="#000000">12 (31)</text>
  <rect fill="blue" height="0.7" stroke="black" width="12" x="210" y="346.3"/>
  <text x="210" y="352.0" font-family="Tahoma" font-size="12" transform="rotate(90 210,352.0)" text-rendering="optimizeSpeed" fill="#000000">13 (18)</text>
  <rect fill="blue" height="0.6" stroke="black" width="12" x="225" y="346.5"/>
  <text x="225" y="352.0" font-family="Tahoma" font-size="12" transform="rotate(90 225,352.0)" text-rendering="optimizeSpeed" fill="#000000">14 (14)</text>
  <rect fill="blue" height="0.7" stroke="black" width="12" x="240" y="346.4"/>
  <text x="240" y="352.0" font-family="Tahoma" font-size="12" transform="rotate(90 240,352.0)" text-rendering="optimizeSpeed" fill="#000000">15 (17)</text>
  <rect fill="blue" height="0.6" stroke="black" width="12" x="255" y="346.4"/>
  <text x="255" y="352.0" font-family="Tahoma" font-size="12" transform="rotate(90 255,352.0)" text-rendering="optimizeSpeed" fill="#000000">16 (15)</text>
  <rect fill="blue" height="0.4" stroke="black" width="12" x="270" y="346.6"/>
  <text x="270" y="352.0" font-family="Tahoma" font-size="12" transform="rotate(90 270,352.0)" text-rendering="optimizeSpeed" fill="#000000">17 (10)</text>
  <rect fill="blue" height="0.4" stroke="black" width="12" x="285" y="346.7"/>
  <text x="285" y="352.0" font-family="Tahoma" font-size="12" transform="rotate(90 285,352.0)" text-rendering="optimizeSpeed" fill="#000000">18 (9)</text>
  <rect fill="blue" height="0.2" stroke="black" width="12" x="300" y="346.8"/>
  <text x="300" y="352.0" font-family="Tahoma" font-size="12" transform="rotate(90 300,352.0)" text-rendering="optimizeSpeed" fill="#000000">19 (5)</text>
  <rect fill="blue" height="0.2" stroke="black" width="12" x="315" y="346.8"/>
  <text x="315" y="352.0" font-family="Tahoma" font-size="12" transform="rotate(90 315,352.0)" text-rendering="optimizeSpeed" fill="#000000">20 (5)</text>
  <rect fill="blue" height="0.3" stroke="black" width="12" x="330" y="346.8"/>
  <text x="330" y="352.0" font-family="Tahoma" font-size="12" transform="rotate(90 330,352.0)" text-rendering="optimizeSpeed" fill="#000000">21 (7)</text>
  <rect fill="blue" height="0.2" stroke="black" width="12" x="345" y="346.9"/>
  <text x="345" y="352.0" font-family="Tahoma" font-size="12" transform="rotate(90 345,352.0)" text-rendering="optimizeSpeed" fill="#000000">22 (4)</text>
  <rect fill="blue" height="0.1" stroke="black" width="12" x="360" y="346.9"/>
  <text x="360" y="352.0" font-family="Tahoma" font-size="12" transform="rotate(90 360,352.0)" text-rendering="optimizeSpeed" fill="#000000">23 (3)</text>
  <rect fill="blue" height="0.1" stroke="black" width="12" x="375" y="347.0"/>
  <text x="375" y="352.0" font-family="Tahoma" font-size="12" transform="rotate(90 375,352.0)" text-rendering="optimizeSpeed" fill="#000000">24 (2)</text>
  <rect fill="blue" height="0.3" stroke="black" width="12" x="390" y="346.8"/>
  <text x="390" y="352.0" font-family="Tahoma" font-size="12" transform="rotate(90 390,352.0)" text-rendering="optimizeSpeed" fill="#000000">25 (7)</text>
  <rect fill="blue" height="0.1" stroke="black" width="12" x="405" y="346.9"/>
  <text x="405" y="352.0" font-family="Tahoma" font-size="12" transform="rotate(90 405,352.0)" text-rendering="optimizeSpeed" fill="#000000">26 (3)</text>
  <rect fill="blue" height="0.1" stroke="black" width="12" x="420" y="346.9"/>
  <text x="420" y="352.0" font-family="Tahoma" font-size="12" transform="rotate(90 420,352.0)" text-rendering="optimizeSpeed" fill="#000000">27 (3)</text>
  <rect fill="blue" height="0.1" stroke="black" width="12" x="435" y="346.9"/>
  <text x="435" y="352.0" font-family="Tahoma" font-size="12" transform="rotate(90 435,352.0)" text-rendering="optimizeSpeed" fill="#000000">28 (3)</text>
  <rect fill="blue" height="0.0" stroke="black" width="12" x="450" y="347.0"/>
  <text x="450" y="352.0" font-family="Tahoma" font-size="12" transform="rotate(90 450,352.0)" text-rendering="optimizeSpeed" fill="#000000">29 (1)</text>
  <rect fill="blue" height="0.1" stroke="black" width="12" x="465" y="346.9"/>
  <text x="465" y="352.0" font-family="Tahoma" font-size="12" transform="rotate(90 465,352.0)" text-rendering="optimizeSpeed" fill="#000000">30 (3)</text>
  <rect fill="blue" height="0.1" stroke="black" width="12" x="480" y="347.0"/>
  <text x="480" y="352.0" font-family="Tahoma" font-size="12" transform="rotate(90 480,352.0)" text-rendering="optimizeSpeed" fill="#000000">31 (2)</text>
  <rect fill="blue" height="0.1" stroke="black" width="12" x="495" y="346.9"/>
  <text x="495" y="352.0" font-family="Tahoma" font-size="12" transform="rotate(90 495,352.0)" text-rendering="optimizeSpeed" fill="#000000">32 (3)</text>
  <rect fill="blue" height="0.0" stroke="black" width="12" x="510" y="347.0"/>
  <text x="510" y="352.0" font-family="Tahoma" font-size="12" transform="rotate(90 510,352.0)" text-rendering="optimizeSpeed" fill="#000000">33 (1)</text>
  <rect fill="blue" height="0.0" stroke="black" width="12" x="525" y="347.0"/>
  <text x="525" y="352.0" font-family="Tahoma" font-size="12" transform="rotate(90 525,352.0)" text-rendering="optimizeSpeed" fill="#000000">34 (1)</text>
  <rect fill="blue" height="0.1" stroke="black" width="12" x="540" y="347.0"/>
  <text x="540" y="352.0" font-family="Tahoma" font-size="12" transform="rotate(90 540,352.0)" text-rendering="optimizeSpeed" fill="#000000">35 (2)</text>
  <rect fill="blue" height="0.0" stroke="black" width="12" x="555" y="347.0"/>
  <text x="555" y="352.0" font-family="Tahoma" font-size="12" transform="rotate(90 555,352.0)" text-rendering="optimizeSpeed" fill="#000000">36 (1)</text>
  <rect fill="blue" height="0.1" stroke="black" width="12" x="570" y="346.9"/>
  <text x="570" y="352.0" font-family="Tahoma" font-size="12" transform="rotate(90 570,352.0)" text-rendering="optimizeSpeed" fill="#000000">37 (3)</text>
  <rect fill="blue" height="0.0" stroke="black" width="12" x="585" y="347.0"/>
  <text x="585" y="352.0" font-family="Tahoma" font-size="12" transform="rotate(90 585,352.0)" text-rendering="optimizeSpeed" fill="#000000">39 (1)</text>
  <rect fill="blue" height="0.1" stroke="black" width="12" x="600" y="347.0"/>
  <text x="600" y="352.0" font-family="Tahoma" font-size="12" transform="rotate(90 600,352.0)" text-rendering="optimizeSpeed" fill="#000000">40 (2)</text>
  <rect fill="blue" height="0.1" stroke="black" width="12" x="615" y="347.0"/>
  <text x="615" y="352.0" font-family="Tahoma" font-size="12" transform="rotate(90 615,352.0)" text-rendering="optimizeSpeed" fill="#000000">41 (2)</text>
  <rect fill="blue" height="0.1" stroke="black" width="12" x="630" y="346.9"/>
  <text x="630" y="352.0" font-family="Tahoma" font-size="12" transform="rotate(90 630,352.0)" text-rendering="optimizeSpeed" fill="#000000">42 (3)</text>
  <rect fill="blue" height="0.0" stroke="black" width="12" x="645" y="347.0"/>
  <text x="645" y="352.0" font-family="Tahoma" font-size="12" transform="rotate(90 645,352.0)" text-rendering="optimizeSpeed" fill="#000000">45 (1)</text>
  <rect fill="blue" height="0.0" stroke="black" width="12" x="660" y="347.0"/>
  <text x="660" y="352.0" font-family="Tahoma" font-size="12" transform="rotate(90 660,352.0)" text-rendering="optimizeSpeed" fill="#000000">46 (1)</text>
  <rect fill="blue" height="0.1" stroke="black" width="12" x="675" y="347.0"/>
  <text x="675" y="352.0" font-family="Tahoma" font-size="12" transform="rotate(90 675,352.0)" text-rendering="optimizeSpeed" fill="#000000">47 (2)</text>
  <rect fill="blue" height="0.1" stroke="black" width="12" x="690" y="347.0"/>
  <text x="690" y="352.0" font-family="Tahoma" font-size="12" transform="rotate(90 690,352.0)" text-rendering="optimizeSpeed" fill="#000000">49 (2)</text>
  <rect fill="blue" height="0.0" stroke="black" width="12" x="705" y="347.0"/>
  <text x="705" y="352.0" font-family="Tahoma" font-size="12" transform="rotate(90 705,352.0)" text-rendering="optimizeSpeed" fill="#000000">50 (1)</text>
  <rect fill="blue" height="0.0" stroke="black" width="12" x="720" y="347.0"/>
  <text x="720" y="352.0" font-family="Tahoma" font-size="12" transform="rotate(90 720,352.0)" text-rendering="optimizeSpeed" fill="#000000">55 (1)</text>
  <rect fill="blue" height="0.0" stroke="black" width="12" x="735" y="347.0"/>
  <text x="735" y="352.0" font-family="Tahoma" font-size="12" transform="rotate(90 735,352.0)" text-rendering="optimizeSpeed" fill="#000000">57 (1)</text>
  <rect fill="blue" height="0.0" stroke="black" width="12" x="750" y="347.0"/>
  <text x="750" y="352.0" font-family="Tahoma" font-size="12" transform="rotate(90 750,352.0)" text-rendering="optimizeSpeed" fill="#000000">59 (1)</text>
  <rect fill="blue" height="0.0" stroke="black" width="12" x="765" y="347.0"/>
  <text x="765" y="352.0" font-family="Tahoma" font-size="12" transform="rotate(90 765,352.0)" text-rendering="optimizeSpeed" fill="#000000">61 (1)</text>
  <rect fill="blue" height="0.0" stroke="black" width="12" x="780" y="347.0"/>
  <text x="780" y="352.0" font-family="Tahoma" font-size="12" transform="rotate(90 780,352.0)" text-rendering="optimizeSpeed" fill="#000000">62 (1)</text>
  <rect fill="blue" height="0.0" stroke="black" width="12" x="795" y="347.0"/>
  <text x="795" y="352.0" font-family="Tahoma" font-size="12" transform="rotate(90 795,352.0)" text-rendering="optimizeSpeed" fill="#000000">66 (1)</text>
  <rect fill="blue" height="0.0" stroke="black" width="12" x="810" y="347.0"/>
  <text x="810" y="352.0" font-family="Tahoma" font-size="12" transform="rotate(90 810,352.0)" text-rendering="optimizeSpeed" fill="#000000">70 (1)</text>
  <rect fill="blue" height="0.1" stroke="black" width="12" x="825" y="347.0"/>
  <text x="825" y="352.0" font-family="Tahoma" font-size="12" transform="rotate(90 825,352.0)" text-rendering="optimizeSpeed" fill="#000000">71 (2)</text>
  <rect fill="blue" height="0.0" stroke="black" width="12" x="840" y="347.0"/>
  <text x="840" y="352.0" font-family="Tahoma" font-size="12" transform="rotate(90 840,352.0)" text-rendering="optimizeSpeed" fill="#000000">80 (1)</text>
  <rect fill="blue" height="0.0" stroke="black" width="12" x="855" y="347.0"/>
  <text x="855" y="352.0" font-family="Tahoma" font-size="12" transform="rotate(90 855,352.0)" text-rendering="optimizeSpeed" fill="#000000">97 (1)</text>
  <text x="10" y="40" font-family="Tahoma" font-size="20" text-rendering="optimizeSpeed" fill="#000000">Executors per install (total: 10931)</text>
</svg>
