<svg xmlns="http://www.w3.org/2000/svg" version="1.1" preserveAspectRatio="xMidYMid meet" viewBox="0 0 725 898.4">
  <rect fill="blue" height="0.1" stroke="black" width="12" x="15" y="598.3"/>
  <text x="15" y="603.4" font-family="Tahoma" font-size="12" transform="rotate(90 15,603.4)" text-rendering="optimizeSpeed" fill="#000000">HP-UX (PA_RISC2.0W) (1)</text>
  <rect fill="blue" height="0.1" stroke="black" width="12" x="30" y="598.3"/>
  <text x="30" y="603.4" font-family="Tahoma" font-size="12" transform="rotate(90 30,603.4)" text-rendering="optimizeSpeed" fill="#000000">Linux (arm) (1)</text>
  <rect fill="blue" height="0.1" stroke="black" width="12" x="45" y="598.3"/>
  <text x="45" y="603.4" font-family="Tahoma" font-size="12" transform="rotate(90 45,603.4)" text-rendering="optimizeSpeed" fill="#000000">Linux (s390) (1)</text>
  <rect fill="blue" height="0.1" stroke="black" width="12" x="60" y="598.3"/>
  <text x="60" y="603.4" font-family="Tahoma" font-size="12" transform="rotate(90 60,603.4)" text-rendering="optimizeSpeed" fill="#000000">Linux (x86_64) (1)</text>
  <rect fill="blue" height="0.1" stroke="black" width="12" x="75" y="598.3"/>
  <text x="75" y="603.4" font-family="Tahoma" font-size="12" transform="rotate(90 75,603.4)" text-rendering="optimizeSpeed" fill="#000000">Windows Server 2003 (amd64) (1)</text>
  <rect fill="blue" height="0.1" stroke="black" width="12" x="90" y="598.3"/>
  <text x="90" y="603.4" font-family="Tahoma" font-size="12" transform="rotate(90 90,603.4)" text-rendering="optimizeSpeed" fill="#000000">linux (amd64) (1)</text>
  <rect fill="blue" height="0.1" stroke="black" width="12" x="105" y="598.3"/>
  <text x="105" y="603.4" font-family="Tahoma" font-size="12" transform="rotate(90 105,603.4)" text-rendering="optimizeSpeed" fill="#000000">z/OS (s390x) (1)</text>
  <rect fill="blue" height="0.2" stroke="black" width="12" x="120" y="598.2"/>
  <text x="120" y="603.4" font-family="Tahoma" font-size="12" transform="rotate(90 120,603.4)" text-rendering="optimizeSpeed" fill="#000000">Linux (ppc64) (2)</text>
  <rect fill="blue" height="0.2" stroke="black" width="12" x="135" y="598.2"/>
  <text x="135" y="603.4" font-family="Tahoma" font-size="12" transform="rotate(90 135,603.4)" text-rendering="optimizeSpeed" fill="#000000">OpenBSD (i386) (2)</text>
  <rect fill="blue" height="0.2" stroke="black" width="12" x="150" y="598.2"/>
  <text x="150" y="603.4" font-family="Tahoma" font-size="12" transform="rotate(90 150,603.4)" text-rendering="optimizeSpeed" fill="#000000">z/OS (s390) (2)</text>
  <rect fill="blue" height="0.3" stroke="black" width="12" x="165" y="598.1"/>
  <text x="165" y="603.4" font-family="Tahoma" font-size="12" transform="rotate(90 165,603.4)" text-rendering="optimizeSpeed" fill="#000000">Linux (sparc) (3)</text>
  <rect fill="blue" height="0.3" stroke="black" width="12" x="180" y="598.1"/>
  <text x="180" y="603.4" font-family="Tahoma" font-size="12" transform="rotate(90 180,603.4)" text-rendering="optimizeSpeed" fill="#000000">Windows NT (unknown) (x86) (3)</text>
  <rect fill="blue" height="0.4" stroke="black" width="12" x="195" y="598.0"/>
  <text x="195" y="603.4" font-family="Tahoma" font-size="12" transform="rotate(90 195,603.4)" text-rendering="optimizeSpeed" fill="#000000">HP-UX (IA64W) (4)</text>
  <rect fill="blue" height="0.4" stroke="black" width="12" x="210" y="598.0"/>
  <text x="210" y="603.4" font-family="Tahoma" font-size="12" transform="rotate(90 210,603.4)" text-rendering="optimizeSpeed" fill="#000000">Linux (s390x) (4)</text>
  <rect fill="blue" height="0.6" stroke="black" width="12" x="225" y="597.8"/>
  <text x="225" y="603.4" font-family="Tahoma" font-size="12" transform="rotate(90 225,603.4)" text-rendering="optimizeSpeed" fill="#000000">Windows 7 (amd64) (6)</text>
  <rect fill="blue" height="0.7" stroke="black" width="12" x="240" y="597.7"/>
  <text x="240" y="603.4" font-family="Tahoma" font-size="12" transform="rotate(90 240,603.4)" text-rendering="optimizeSpeed" fill="#000000">Windows 7 (x86) (7)</text>
  <rect fill="blue" height="0.8" stroke="black" width="12" x="255" y="597.6"/>
  <text x="255" y="603.4" font-family="Tahoma" font-size="12" transform="rotate(90 255,603.4)" text-rendering="optimizeSpeed" fill="#000000">SunOS (amd64) (8)</text>
  <rect fill="blue" height="0.8" stroke="black" width="12" x="270" y="597.6"/>
  <text x="270" y="603.4" font-family="Tahoma" font-size="12" transform="rotate(90 270,603.4)" text-rendering="optimizeSpeed" fill="#000000">SunOS (sparcv9) (8)</text>
  <rect fill="blue" height="0.9" stroke="black" width="12" x="285" y="597.5"/>
  <text x="285" y="603.4" font-family="Tahoma" font-size="12" transform="rotate(90 285,603.4)" text-rendering="optimizeSpeed" fill="#000000">Linux (ia64) (9)</text>
  <rect fill="blue" height="1.0" stroke="black" width="12" x="300" y="597.4"/>
  <text x="300" y="603.4" font-family="Tahoma" font-size="12" transform="rotate(90 300,603.4)" text-rendering="optimizeSpeed" fill="#000000">Linux (ppc) (10)</text>
  <rect fill="blue" height="1.1" stroke="black" width="12" x="315" y="597.3"/>
  <text x="315" y="603.4" font-family="Tahoma" font-size="12" transform="rotate(90 315,603.4)" text-rendering="optimizeSpeed" fill="#000000">FreeBSD (amd64) (11)</text>
  <rect fill="blue" height="2.1" stroke="black" width="12" x="330" y="596.3"/>
  <text x="330" y="603.4" font-family="Tahoma" font-size="12" transform="rotate(90 330,603.4)" text-rendering="optimizeSpeed" fill="#000000">Windows Vista (amd64) (21)</text>
  <rect fill="blue" height="2.3" stroke="black" width="12" x="345" y="596.1"/>
  <text x="345" y="603.4" font-family="Tahoma" font-size="12" transform="rotate(90 345,603.4)" text-rendering="optimizeSpeed" fill="#000000">HP-UX (PA_RISC2.0) (23)</text>
  <rect fill="blue" height="2.4" stroke="black" width="12" x="360" y="596.0"/>
  <text x="360" y="603.4" font-family="Tahoma" font-size="12" transform="rotate(90 360,603.4)" text-rendering="optimizeSpeed" fill="#000000">Windows Server 2003 (x86) (24)</text>
  <rect fill="blue" height="2.6" stroke="black" width="12" x="375" y="595.8"/>
  <text x="375" y="603.4" font-family="Tahoma" font-size="12" transform="rotate(90 375,603.4)" text-rendering="optimizeSpeed" fill="#000000">FreeBSD (i386) (26)</text>
  <rect fill="blue" height="2.8" stroke="black" width="12" x="390" y="595.6"/>
  <text x="390" y="603.4" font-family="Tahoma" font-size="12" transform="rotate(90 390,603.4)" text-rendering="optimizeSpeed" fill="#000000">HP-UX (IA64N) (28)</text>
  <rect fill="blue" height="3.0" stroke="black" width="12" x="405" y="595.4"/>
  <text x="405" y="603.4" font-family="Tahoma" font-size="12" transform="rotate(90 405,603.4)" text-rendering="optimizeSpeed" fill="#000000">Mac OS X (ppc) (30)</text>
  <rect fill="blue" height="3.3" stroke="black" width="12" x="420" y="595.1"/>
  <text x="420" y="603.4" font-family="Tahoma" font-size="12" transform="rotate(90 420,603.4)" text-rendering="optimizeSpeed" fill="#000000">AIX (ppc64) (33)</text>
  <rect fill="blue" height="3.6" stroke="black" width="12" x="435" y="594.8"/>
  <text x="435" y="603.4" font-family="Tahoma" font-size="12" transform="rotate(90 435,603.4)" text-rendering="optimizeSpeed" fill="#000000">Windows XP (amd64) (36)</text>
  <rect fill="blue" height="3.7" stroke="black" width="12" x="450" y="594.7"/>
  <text x="450" y="603.4" font-family="Tahoma" font-size="12" transform="rotate(90 450,603.4)" text-rendering="optimizeSpeed" fill="#000000">AIX (ppc) (37)</text>
  <rect fill="blue" height="4.2" stroke="black" width="12" x="465" y="594.2"/>
  <text x="465" y="603.4" font-family="Tahoma" font-size="12" transform="rotate(90 465,603.4)" text-rendering="optimizeSpeed" fill="#000000">Mac OS X (x86_64) (42)</text>
  <rect fill="blue" height="4.9" stroke="black" width="12" x="480" y="593.5"/>
  <text x="480" y="603.4" font-family="Tahoma" font-size="12" transform="rotate(90 480,603.4)" text-rendering="optimizeSpeed" fill="#000000">Linux (x86) (49)</text>
  <rect fill="blue" height="6.3" stroke="black" width="12" x="495" y="592.1"/>
  <text x="495" y="603.4" font-family="Tahoma" font-size="12" transform="rotate(90 495,603.4)" text-rendering="optimizeSpeed" fill="#000000">Windows Server 2008 (amd64) (63)</text>
  <rect fill="blue" height="9.6" stroke="black" width="12" x="510" y="588.8"/>
  <text x="510" y="603.4" font-family="Tahoma" font-size="12" transform="rotate(90 510,603.4)" text-rendering="optimizeSpeed" fill="#000000">Windows Server 2008 (x86) (96)</text>
  <rect fill="blue" height="9.7" stroke="black" width="12" x="525" y="588.7"/>
  <text x="525" y="603.4" font-family="Tahoma" font-size="12" transform="rotate(90 525,603.4)" text-rendering="optimizeSpeed" fill="#000000">Windows 2003 (amd64) (97)</text>
  <rect fill="blue" height="10.0" stroke="black" width="12" x="540" y="588.4"/>
  <text x="540" y="603.4" font-family="Tahoma" font-size="12" transform="rotate(90 540,603.4)" text-rendering="optimizeSpeed" fill="#000000">Windows 2000 (x86) (100)</text>
  <rect fill="blue" height="14.1" stroke="black" width="12" x="555" y="584.3"/>
  <text x="555" y="603.4" font-family="Tahoma" font-size="12" transform="rotate(90 555,603.4)" text-rendering="optimizeSpeed" fill="#000000">Windows Vista (x86) (141)</text>
  <rect fill="blue" height="15.4" stroke="black" width="12" x="570" y="583.0"/>
  <text x="570" y="603.4" font-family="Tahoma" font-size="12" transform="rotate(90 570,603.4)" text-rendering="optimizeSpeed" fill="#000000">Mac OS X (i386) (154)</text>
  <rect fill="blue" height="30.4" stroke="black" width="12" x="585" y="568.0"/>
  <text x="585" y="603.4" font-family="Tahoma" font-size="12" transform="rotate(90 585,603.4)" text-rendering="optimizeSpeed" fill="#000000">SunOS (x86) (304)</text>
  <rect fill="blue" height="42.1" stroke="black" width="12" x="600" y="556.3"/>
  <text x="600" y="603.4" font-family="Tahoma" font-size="12" transform="rotate(90 600,603.4)" text-rendering="optimizeSpeed" fill="#000000">SunOS (sparc) (421)</text>
  <rect fill="blue" height="164.5" stroke="black" width="12" x="615" y="433.9"/>
  <text x="615" y="603.4" font-family="Tahoma" font-size="12" transform="rotate(90 615,603.4)" text-rendering="optimizeSpeed" fill="#000000">Windows 2003 (x86) (1645)</text>
  <rect fill="blue" height="189.7" stroke="black" width="12" x="630" y="408.7"/>
  <text x="630" y="603.4" font-family="Tahoma" font-size="12" transform="rotate(90 630,603.4)" text-rendering="optimizeSpeed" fill="#000000">Windows XP (x86) (1897)</text>
  <rect fill="blue" height="206.0" stroke="black" width="12" x="645" y="392.4"/>
  <text x="645" y="603.4" font-family="Tahoma" font-size="12" transform="rotate(90 645,603.4)" text-rendering="optimizeSpeed" fill="#000000">Linux (amd64) (2060)</text>
  <rect fill="blue" height="402.4" stroke="black" width="12" x="660" y="196.0"/>
  <text x="660" y="603.4" font-family="Tahoma" font-size="12" transform="rotate(90 660,603.4)" text-rendering="optimizeSpeed" fill="#000000">Linux (i386) (4024)</text>
  <rect fill="blue" height="548.4" stroke="black" width="12" x="675" y="50.0"/>
  <text x="675" y="603.4" font-family="Tahoma" font-size="12" transform="rotate(90 675,603.4)" text-rendering="optimizeSpeed" fill="#000000">N/A (5484)</text>
  <text x="10" y="40" font-family="Tahoma" font-size="20" text-rendering="optimizeSpeed" fill="#000000">Nodes (total: 16921)</text>
</svg>
