<svg xmlns="http://www.w3.org/2000/svg" version="1.1" preserveAspectRatio="xMidYMid meet" viewBox="0 0 2615 451.6">
  <rect fill="blue" height="0.0" stroke="black" width="12" x="15" y="151.6"/>
  <text x="15" y="156.6" font-family="Tahoma" font-size="12" transform="rotate(90 15,156.6)" text-rendering="optimizeSpeed" fill="#000000">jsunit (1)</text>
  <rect fill="blue" height="0.0" stroke="black" width="12" x="30" y="151.6"/>
  <text x="30" y="156.6" font-family="Tahoma" font-size="12" transform="rotate(90 30,156.6)" text-rendering="optimizeSpeed" fill="#000000">svnpublisher (1)</text>
  <rect fill="blue" height="0.0" stroke="black" width="12" x="45" y="151.6"/>
  <text x="45" y="156.6" font-family="Tahoma" font-size="12" transform="rotate(90 45,156.6)" text-rendering="optimizeSpeed" fill="#000000">Schmant (2)</text>
  <rect fill="blue" height="0.0" stroke="black" width="12" x="60" y="151.6"/>
  <text x="60" y="156.6" font-family="Tahoma" font-size="12" transform="rotate(90 60,156.6)" text-rendering="optimizeSpeed" fill="#000000">fitnesse (2)</text>
  <rect fill="blue" height="0.0" stroke="black" width="12" x="75" y="151.6"/>
  <text x="75" y="156.6" font-family="Tahoma" font-size="12" transform="rotate(90 75,156.6)" text-rendering="optimizeSpeed" fill="#000000">maven-info (2)</text>
  <rect fill="blue" height="0.0" stroke="black" width="12" x="90" y="151.6"/>
  <text x="90" y="156.6" font-family="Tahoma" font-size="12" transform="rotate(90 90,156.6)" text-rendering="optimizeSpeed" fill="#000000">mozmill (2)</text>
  <rect fill="blue" height="0.0" stroke="black" width="12" x="105" y="151.6"/>
  <text x="105" y="156.6" font-family="Tahoma" font-size="12" transform="rotate(90 105,156.6)" text-rendering="optimizeSpeed" fill="#000000">cmvc (4)</text>
  <rect fill="blue" height="0.0" stroke="black" width="12" x="120" y="151.6"/>
  <text x="120" y="156.6" font-family="Tahoma" font-size="12" transform="rotate(90 120,156.6)" text-rendering="optimizeSpeed" fill="#000000">sfee (4)</text>
  <rect fill="blue" height="0.1" stroke="black" width="12" x="135" y="151.5"/>
  <text x="135" y="156.6" font-family="Tahoma" font-size="12" transform="rotate(90 135,156.6)" text-rendering="optimizeSpeed" fill="#000000">kundo (6)</text>
  <rect fill="blue" height="0.1" stroke="black" width="12" x="150" y="151.5"/>
  <text x="150" y="156.6" font-family="Tahoma" font-size="12" transform="rotate(90 150,156.6)" text-rendering="optimizeSpeed" fill="#000000">locked-files-report (6)</text>
  <rect fill="blue" height="0.1" stroke="black" width="12" x="165" y="151.5"/>
  <text x="165" y="156.6" font-family="Tahoma" font-size="12" transform="rotate(90 165,156.6)" text-rendering="optimizeSpeed" fill="#000000">SCTMExecutor (7)</text>
  <rect fill="blue" height="0.1" stroke="black" width="12" x="180" y="151.5"/>
  <text x="180" y="156.6" font-family="Tahoma" font-size="12" transform="rotate(90 180,156.6)" text-rendering="optimizeSpeed" fill="#000000">gnat (7)</text>
  <rect fill="blue" height="0.1" stroke="black" width="12" x="195" y="151.5"/>
  <text x="195" y="156.6" font-family="Tahoma" font-size="12" transform="rotate(90 195,156.6)" text-rendering="optimizeSpeed" fill="#000000">mysql-auth (7)</text>
  <rect fill="blue" height="0.1" stroke="black" width="12" x="210" y="151.5"/>
  <text x="210" y="156.6" font-family="Tahoma" font-size="12" transform="rotate(90 210,156.6)" text-rendering="optimizeSpeed" fill="#000000">validating-string-parameter (7)</text>
  <rect fill="blue" height="0.1" stroke="black" width="12" x="225" y="151.5"/>
  <text x="225" y="156.6" font-family="Tahoma" font-size="12" transform="rotate(90 225,156.6)" text-rendering="optimizeSpeed" fill="#000000">tuxdroid (9)</text>
  <rect fill="blue" height="0.1" stroke="black" width="12" x="240" y="151.5"/>
  <text x="240" y="156.6" font-family="Tahoma" font-size="12" transform="rotate(90 240,156.6)" text-rendering="optimizeSpeed" fill="#000000">harvest (11)</text>
  <rect fill="blue" height="0.1" stroke="black" width="12" x="255" y="151.5"/>
  <text x="255" y="156.6" font-family="Tahoma" font-size="12" transform="rotate(90 255,156.6)" text-rendering="optimizeSpeed" fill="#000000">postbuild-task (13)</text>
  <rect fill="blue" height="0.1" stroke="black" width="12" x="270" y="151.5"/>
  <text x="270" y="156.6" font-family="Tahoma" font-size="12" transform="rotate(90 270,156.6)" text-rendering="optimizeSpeed" fill="#000000">bitkeeper (14)</text>
  <rect fill="blue" height="0.1" stroke="black" width="12" x="285" y="151.5"/>
  <text x="285" y="156.6" font-family="Tahoma" font-size="12" transform="rotate(90 285,156.6)" text-rendering="optimizeSpeed" fill="#000000">drools (14)</text>
  <rect fill="blue" height="0.1" stroke="black" width="12" x="300" y="151.5"/>
  <text x="300" y="156.6" font-family="Tahoma" font-size="12" transform="rotate(90 300,156.6)" text-rendering="optimizeSpeed" fill="#000000">kagemai (14)</text>
  <rect fill="blue" height="0.1" stroke="black" width="12" x="315" y="151.4"/>
  <text x="315" y="156.6" font-family="Tahoma" font-size="12" transform="rotate(90 315,156.6)" text-rendering="optimizeSpeed" fill="#000000">hadoop (15)</text>
  <rect fill="blue" height="0.2" stroke="black" width="12" x="330" y="151.4"/>
  <text x="330" y="156.6" font-family="Tahoma" font-size="12" transform="rotate(90 330,156.6)" text-rendering="optimizeSpeed" fill="#000000">windmill (20)</text>
  <rect fill="blue" height="0.2" stroke="black" width="12" x="345" y="151.4"/>
  <text x="345" y="156.6" font-family="Tahoma" font-size="12" transform="rotate(90 345,156.6)" text-rendering="optimizeSpeed" fill="#000000">pvcs_scm (21)</text>
  <rect fill="blue" height="0.2" stroke="black" width="12" x="360" y="151.4"/>
  <text x="360" y="156.6" font-family="Tahoma" font-size="12" transform="rotate(90 360,156.6)" text-rendering="optimizeSpeed" fill="#000000">cygpath (22)</text>
  <rect fill="blue" height="0.2" stroke="black" width="12" x="375" y="151.4"/>
  <text x="375" y="156.6" font-family="Tahoma" font-size="12" transform="rotate(90 375,156.6)" text-rendering="optimizeSpeed" fill="#000000">translation (25)</text>
  <rect fill="blue" height="0.3" stroke="black" width="12" x="390" y="151.3"/>
  <text x="390" y="156.6" font-family="Tahoma" font-size="12" transform="rotate(90 390,156.6)" text-rendering="optimizeSpeed" fill="#000000">buckminster (31)</text>
  <rect fill="blue" height="0.3" stroke="black" width="12" x="405" y="151.3"/>
  <text x="405" y="156.6" font-family="Tahoma" font-size="12" transform="rotate(90 405,156.6)" text-rendering="optimizeSpeed" fill="#000000">collabnet (31)</text>
  <rect fill="blue" height="0.3" stroke="black" width="12" x="420" y="151.3"/>
  <text x="420" y="156.6" font-family="Tahoma" font-size="12" transform="rotate(90 420,156.6)" text-rendering="optimizeSpeed" fill="#000000">javanet-uploader (32)</text>
  <rect fill="blue" height="0.3" stroke="black" width="12" x="435" y="151.3"/>
  <text x="435" y="156.6" font-family="Tahoma" font-size="12" transform="rotate(90 435,156.6)" text-rendering="optimizeSpeed" fill="#000000">distfork (33)</text>
  <rect fill="blue" height="0.3" stroke="black" width="12" x="450" y="151.3"/>
  <text x="450" y="156.6" font-family="Tahoma" font-size="12" transform="rotate(90 450,156.6)" text-rendering="optimizeSpeed" fill="#000000">bazaar (34)</text>
  <rect fill="blue" height="0.3" stroke="black" width="12" x="465" y="151.2"/>
  <text x="465" y="156.6" font-family="Tahoma" font-size="12" transform="rotate(90 465,156.6)" text-rendering="optimizeSpeed" fill="#000000">pxe (35)</text>
  <rect fill="blue" height="0.4" stroke="black" width="12" x="480" y="151.2"/>
  <text x="480" y="156.6" font-family="Tahoma" font-size="12" transform="rotate(90 480,156.6)" text-rendering="optimizeSpeed" fill="#000000">crowd (36)</text>
  <rect fill="blue" height="0.4" stroke="black" width="12" x="495" y="151.2"/>
  <text x="495" y="156.6" font-family="Tahoma" font-size="12" transform="rotate(90 495,156.6)" text-rendering="optimizeSpeed" fill="#000000">jython (36)</text>
  <rect fill="blue" height="0.4" stroke="black" width="12" x="510" y="151.2"/>
  <text x="510" y="156.6" font-family="Tahoma" font-size="12" transform="rotate(90 510,156.6)" text-rendering="optimizeSpeed" fill="#000000">synergy (36)</text>
  <rect fill="blue" height="0.4" stroke="black" width="12" x="525" y="151.2"/>
  <text x="525" y="156.6" font-family="Tahoma" font-size="12" transform="rotate(90 525,156.6)" text-rendering="optimizeSpeed" fill="#000000">backlog (41)</text>
  <rect fill="blue" height="0.4" stroke="black" width="12" x="540" y="151.2"/>
  <text x="540" y="156.6" font-family="Tahoma" font-size="12" transform="rotate(90 540,156.6)" text-rendering="optimizeSpeed" fill="#000000">xunit (41)</text>
  <rect fill="blue" height="0.4" stroke="black" width="12" x="555" y="151.2"/>
  <text x="555" y="156.6" font-family="Tahoma" font-size="12" transform="rotate(90 555,156.6)" text-rendering="optimizeSpeed" fill="#000000">gallio (44)</text>
  <rect fill="blue" height="0.4" stroke="black" width="12" x="570" y="151.2"/>
  <text x="570" y="156.6" font-family="Tahoma" font-size="12" transform="rotate(90 570,156.6)" text-rendering="optimizeSpeed" fill="#000000">scons (44)</text>
  <rect fill="blue" height="0.5" stroke="black" width="12" x="585" y="151.1"/>
  <text x="585" y="156.6" font-family="Tahoma" font-size="12" transform="rotate(90 585,156.6)" text-rendering="optimizeSpeed" fill="#000000">javanet (46)</text>
  <rect fill="blue" height="0.5" stroke="black" width="12" x="600" y="151.1"/>
  <text x="600" y="156.6" font-family="Tahoma" font-size="12" transform="rotate(90 600,156.6)" text-rendering="optimizeSpeed" fill="#000000">nabaztag (46)</text>
  <rect fill="blue" height="0.5" stroke="black" width="12" x="615" y="151.1"/>
  <text x="615" y="156.6" font-family="Tahoma" font-size="12" transform="rotate(90 615,156.6)" text-rendering="optimizeSpeed" fill="#000000">hgca (49)</text>
  <rect fill="blue" height="0.6" stroke="black" width="12" x="630" y="151.0"/>
  <text x="630" y="156.6" font-family="Tahoma" font-size="12" transform="rotate(90 630,156.6)" text-rendering="optimizeSpeed" fill="#000000">cmakebuilder (57)</text>
  <rect fill="blue" height="0.6" stroke="black" width="12" x="645" y="151.0"/>
  <text x="645" y="156.6" font-family="Tahoma" font-size="12" transform="rotate(90 645,156.6)" text-rendering="optimizeSpeed" fill="#000000">starteam (59)</text>
  <rect fill="blue" height="0.6" stroke="black" width="12" x="660" y="151.0"/>
  <text x="660" y="156.6" font-family="Tahoma" font-size="12" transform="rotate(90 660,156.6)" text-rendering="optimizeSpeed" fill="#000000">gradle (63)</text>
  <rect fill="blue" height="0.6" stroke="black" width="12" x="675" y="151.0"/>
  <text x="675" y="156.6" font-family="Tahoma" font-size="12" transform="rotate(90 675,156.6)" text-rendering="optimizeSpeed" fill="#000000">hudson-pview-plugin (64)</text>
  <rect fill="blue" height="0.7" stroke="black" width="12" x="690" y="150.9"/>
  <text x="690" y="156.6" font-family="Tahoma" font-size="12" transform="rotate(90 690,156.6)" text-rendering="optimizeSpeed" fill="#000000">accurev (65)</text>
  <rect fill="blue" height="0.7" stroke="black" width="12" x="705" y="150.9"/>
  <text x="705" y="156.6" font-family="Tahoma" font-size="12" transform="rotate(90 705,156.6)" text-rendering="optimizeSpeed" fill="#000000">easyant (67)</text>
  <rect fill="blue" height="0.7" stroke="black" width="12" x="720" y="150.9"/>
  <text x="720" y="156.6" font-family="Tahoma" font-size="12" transform="rotate(90 720,156.6)" text-rendering="optimizeSpeed" fill="#000000">ec2 (72)</text>
  <rect fill="blue" height="0.8" stroke="black" width="12" x="735" y="150.8"/>
  <text x="735" y="156.6" font-family="Tahoma" font-size="12" transform="rotate(90 735,156.6)" text-rendering="optimizeSpeed" fill="#000000">powershell (76)</text>
  <rect fill="blue" height="0.8" stroke="black" width="12" x="750" y="150.8"/>
  <text x="750" y="156.6" font-family="Tahoma" font-size="12" transform="rotate(90 750,156.6)" text-rendering="optimizeSpeed" fill="#000000">swarm (79)</text>
  <rect fill="blue" height="0.9" stroke="black" width="12" x="765" y="150.7"/>
  <text x="765" y="156.6" font-family="Tahoma" font-size="12" transform="rotate(90 765,156.6)" text-rendering="optimizeSpeed" fill="#000000">tfs (86)</text>
  <rect fill="blue" height="0.9" stroke="black" width="12" x="780" y="150.7"/>
  <text x="780" y="156.6" font-family="Tahoma" font-size="12" transform="rotate(90 780,156.6)" text-rendering="optimizeSpeed" fill="#000000">promoted-builds-simple (88)</text>
  <rect fill="blue" height="0.9" stroke="black" width="12" x="795" y="150.7"/>
  <text x="795" y="156.6" font-family="Tahoma" font-size="12" transform="rotate(90 795,156.6)" text-rendering="optimizeSpeed" fill="#000000">grinder (89)</text>
  <rect fill="blue" height="0.9" stroke="black" width="12" x="810" y="150.7"/>
  <text x="810" y="156.6" font-family="Tahoma" font-size="12" transform="rotate(90 810,156.6)" text-rendering="optimizeSpeed" fill="#000000">cppcheck (90)</text>
  <rect fill="blue" height="0.9" stroke="black" width="12" x="825" y="150.7"/>
  <text x="825" y="156.6" font-family="Tahoma" font-size="12" transform="rotate(90 825,156.6)" text-rendering="optimizeSpeed" fill="#000000">googleanalytics (93)</text>
  <rect fill="blue" height="1.0" stroke="black" width="12" x="840" y="150.6"/>
  <text x="840" y="156.6" font-family="Tahoma" font-size="12" transform="rotate(90 840,156.6)" text-rendering="optimizeSpeed" fill="#000000">github (96)</text>
  <rect fill="blue" height="1.0" stroke="black" width="12" x="855" y="150.6"/>
  <text x="855" y="156.6" font-family="Tahoma" font-size="12" transform="rotate(90 855,156.6)" text-rendering="optimizeSpeed" fill="#000000">googlecode (98)</text>
  <rect fill="blue" height="1.0" stroke="black" width="12" x="870" y="150.6"/>
  <text x="870" y="156.6" font-family="Tahoma" font-size="12" transform="rotate(90 870,156.6)" text-rendering="optimizeSpeed" fill="#000000">hudson-logaction-plugin (99)</text>
  <rect fill="blue" height="1.0" stroke="black" width="12" x="885" y="150.6"/>
  <text x="885" y="156.6" font-family="Tahoma" font-size="12" transform="rotate(90 885,156.6)" text-rendering="optimizeSpeed" fill="#000000">schedule-failed-builds (100)</text>
  <rect fill="blue" height="1.0" stroke="black" width="12" x="900" y="150.6"/>
  <text x="900" y="156.6" font-family="Tahoma" font-size="12" transform="rotate(90 900,156.6)" text-rendering="optimizeSpeed" fill="#000000">svncompat14 (100)</text>
  <rect fill="blue" height="1.0" stroke="black" width="12" x="915" y="150.6"/>
  <text x="915" y="156.6" font-family="Tahoma" font-size="12" transform="rotate(90 915,156.6)" text-rendering="optimizeSpeed" fill="#000000">ncover (101)</text>
  <rect fill="blue" height="1.1" stroke="black" width="12" x="930" y="150.5"/>
  <text x="930" y="156.6" font-family="Tahoma" font-size="12" transform="rotate(90 930,156.6)" text-rendering="optimizeSpeed" fill="#000000">phing (110)</text>
  <rect fill="blue" height="1.1" stroke="black" width="12" x="945" y="150.4"/>
  <text x="945" y="156.6" font-family="Tahoma" font-size="12" transform="rotate(90 945,156.6)" text-rendering="optimizeSpeed" fill="#000000">hudson-wsclean-plugin (115)</text>
  <rect fill="blue" height="1.2" stroke="black" width="12" x="960" y="150.4"/>
  <text x="960" y="156.6" font-family="Tahoma" font-size="12" transform="rotate(90 960,156.6)" text-rendering="optimizeSpeed" fill="#000000">copyarchiver (117)</text>
  <rect fill="blue" height="1.2" stroke="black" width="12" x="975" y="150.4"/>
  <text x="975" y="156.6" font-family="Tahoma" font-size="12" transform="rotate(90 975,156.6)" text-rendering="optimizeSpeed" fill="#000000">javatest-report (117)</text>
  <rect fill="blue" height="1.3" stroke="black" width="12" x="990" y="150.3"/>
  <text x="990" y="156.6" font-family="Tahoma" font-size="12" transform="rotate(90 990,156.6)" text-rendering="optimizeSpeed" fill="#000000">python (129)</text>
  <rect fill="blue" height="1.4" stroke="black" width="12" x="1005" y="150.2"/>
  <text x="1005" y="156.6" font-family="Tahoma" font-size="12" transform="rotate(90 1005,156.6)" text-rendering="optimizeSpeed" fill="#000000">vss (136)</text>
  <rect fill="blue" height="1.4" stroke="black" width="12" x="1020" y="150.2"/>
  <text x="1020" y="156.6" font-family="Tahoma" font-size="12" transform="rotate(90 1020,156.6)" text-rendering="optimizeSpeed" fill="#000000">webtestpresenter (139)</text>
  <rect fill="blue" height="1.5" stroke="black" width="12" x="1035" y="150.1"/>
  <text x="1035" y="156.6" font-family="Tahoma" font-size="12" transform="rotate(90 1035,156.6)" text-rendering="optimizeSpeed" fill="#000000">cccc (146)</text>
  <rect fill="blue" height="1.5" stroke="black" width="12" x="1050" y="150.1"/>
  <text x="1050" y="156.6" font-family="Tahoma" font-size="12" transform="rotate(90 1050,156.6)" text-rendering="optimizeSpeed" fill="#000000">regexemail (146)</text>
  <rect fill="blue" height="1.6" stroke="black" width="12" x="1065" y="150.0"/>
  <text x="1065" y="156.6" font-family="Tahoma" font-size="12" transform="rotate(90 1065,156.6)" text-rendering="optimizeSpeed" fill="#000000">zentimestamp (155)</text>
  <rect fill="blue" height="1.6" stroke="black" width="12" x="1080" y="150.0"/>
  <text x="1080" y="156.6" font-family="Tahoma" font-size="12" transform="rotate(90 1080,156.6)" text-rendering="optimizeSpeed" fill="#000000">gant (156)</text>
  <rect fill="blue" height="1.6" stroke="black" width="12" x="1095" y="150.0"/>
  <text x="1095" y="156.6" font-family="Tahoma" font-size="12" transform="rotate(90 1095,156.6)" text-rendering="optimizeSpeed" fill="#000000">jdepend (157)</text>
  <rect fill="blue" height="1.6" stroke="black" width="12" x="1110" y="150.0"/>
  <text x="1110" y="156.6" font-family="Tahoma" font-size="12" transform="rotate(90 1110,156.6)" text-rendering="optimizeSpeed" fill="#000000">port-allocator (157)</text>
  <rect fill="blue" height="1.6" stroke="black" width="12" x="1125" y="150.0"/>
  <text x="1125" y="156.6" font-family="Tahoma" font-size="12" transform="rotate(90 1125,156.6)" text-rendering="optimizeSpeed" fill="#000000">svncompat13 (159)</text>
  <rect fill="blue" height="1.6" stroke="black" width="12" x="1140" y="150.0"/>
  <text x="1140" y="156.6" font-family="Tahoma" font-size="12" transform="rotate(90 1140,156.6)" text-rendering="optimizeSpeed" fill="#000000">japex (161)</text>
  <rect fill="blue" height="1.6" stroke="black" width="12" x="1155" y="150.0"/>
  <text x="1155" y="156.6" font-family="Tahoma" font-size="12" transform="rotate(90 1155,156.6)" text-rendering="optimizeSpeed" fill="#000000">naginator (161)</text>
  <rect fill="blue" height="1.6" stroke="black" width="12" x="1170" y="150.0"/>
  <text x="1170" y="156.6" font-family="Tahoma" font-size="12" transform="rotate(90 1170,156.6)" text-rendering="optimizeSpeed" fill="#000000">rubyMetrics (161)</text>
  <rect fill="blue" height="1.7" stroke="black" width="12" x="1185" y="149.9"/>
  <text x="1185" y="156.6" font-family="Tahoma" font-size="12" transform="rotate(90 1185,156.6)" text-rendering="optimizeSpeed" fill="#000000">cppunit (168)</text>
  <rect fill="blue" height="1.7" stroke="black" width="12" x="1200" y="149.9"/>
  <text x="1200" y="156.6" font-family="Tahoma" font-size="12" transform="rotate(90 1200,156.6)" text-rendering="optimizeSpeed" fill="#000000">selenium (168)</text>
  <rect fill="blue" height="1.7" stroke="black" width="12" x="1215" y="149.9"/>
  <text x="1215" y="156.6" font-family="Tahoma" font-size="12" transform="rotate(90 1215,156.6)" text-rendering="optimizeSpeed" fill="#000000">doclinks (174)</text>
  <rect fill="blue" height="1.9" stroke="black" width="12" x="1230" y="149.7"/>
  <text x="1230" y="156.6" font-family="Tahoma" font-size="12" transform="rotate(90 1230,156.6)" text-rendering="optimizeSpeed" fill="#000000">configurationslicing (189)</text>
  <rect fill="blue" height="1.9" stroke="black" width="12" x="1245" y="149.7"/>
  <text x="1245" y="156.6" font-family="Tahoma" font-size="12" transform="rotate(90 1245,156.6)" text-rendering="optimizeSpeed" fill="#000000">hudsontrayapp (191)</text>
  <rect fill="blue" height="2.0" stroke="black" width="12" x="1260" y="149.6"/>
  <text x="1260" y="156.6" font-family="Tahoma" font-size="12" transform="rotate(90 1260,156.6)" text-rendering="optimizeSpeed" fill="#000000">mstest (198)</text>
  <rect fill="blue" height="2.0" stroke="black" width="12" x="1275" y="149.5"/>
  <text x="1275" y="156.6" font-family="Tahoma" font-size="12" transform="rotate(90 1275,156.6)" text-rendering="optimizeSpeed" fill="#000000">selenium-aes (205)</text>
  <rect fill="blue" height="2.1" stroke="black" width="12" x="1290" y="149.5"/>
  <text x="1290" y="156.6" font-family="Tahoma" font-size="12" transform="rotate(90 1290,156.6)" text-rendering="optimizeSpeed" fill="#000000">viewVC (209)</text>
  <rect fill="blue" height="2.1" stroke="black" width="12" x="1305" y="149.5"/>
  <text x="1305" y="156.6" font-family="Tahoma" font-size="12" transform="rotate(90 1305,156.6)" text-rendering="optimizeSpeed" fill="#000000">testabilityexplorer (211)</text>
  <rect fill="blue" height="2.2" stroke="black" width="12" x="1320" y="149.4"/>
  <text x="1320" y="156.6" font-family="Tahoma" font-size="12" transform="rotate(90 1320,156.6)" text-rendering="optimizeSpeed" fill="#000000">grails (221)</text>
  <rect fill="blue" height="2.2" stroke="black" width="12" x="1335" y="149.4"/>
  <text x="1335" y="156.6" font-family="Tahoma" font-size="12" transform="rotate(90 1335,156.6)" text-rendering="optimizeSpeed" fill="#000000">ircbot (224)</text>
  <rect fill="blue" height="2.3" stroke="black" width="12" x="1350" y="149.3"/>
  <text x="1350" y="156.6" font-family="Tahoma" font-size="12" transform="rotate(90 1350,156.6)" text-rendering="optimizeSpeed" fill="#000000">ivy (227)</text>
  <rect fill="blue" height="2.3" stroke="black" width="12" x="1365" y="149.3"/>
  <text x="1365" y="156.6" font-family="Tahoma" font-size="12" transform="rotate(90 1365,156.6)" text-rendering="optimizeSpeed" fill="#000000">join (228)</text>
  <rect fill="blue" height="2.3" stroke="black" width="12" x="1380" y="149.3"/>
  <text x="1380" y="156.6" font-family="Tahoma" font-size="12" transform="rotate(90 1380,156.6)" text-rendering="optimizeSpeed" fill="#000000">vmware (231)</text>
  <rect fill="blue" height="2.3" stroke="black" width="12" x="1395" y="149.3"/>
  <text x="1395" y="156.6" font-family="Tahoma" font-size="12" transform="rotate(90 1395,156.6)" text-rendering="optimizeSpeed" fill="#000000">gcal (233)</text>
  <rect fill="blue" height="2.3" stroke="black" width="12" x="1410" y="149.3"/>
  <text x="1410" y="156.6" font-family="Tahoma" font-size="12" transform="rotate(90 1410,156.6)" text-rendering="optimizeSpeed" fill="#000000">slave-status (233)</text>
  <rect fill="blue" height="2.5" stroke="black" width="12" x="1425" y="149.1"/>
  <text x="1425" y="156.6" font-family="Tahoma" font-size="12" transform="rotate(90 1425,156.6)" text-rendering="optimizeSpeed" fill="#000000">template-project (249)</text>
  <rect fill="blue" height="2.6" stroke="black" width="12" x="1440" y="149.0"/>
  <text x="1440" y="156.6" font-family="Tahoma" font-size="12" transform="rotate(90 1440,156.6)" text-rendering="optimizeSpeed" fill="#000000">cvs-tag (259)</text>
  <rect fill="blue" height="2.7" stroke="black" width="12" x="1455" y="148.9"/>
  <text x="1455" y="156.6" font-family="Tahoma" font-size="12" transform="rotate(90 1455,156.6)" text-rendering="optimizeSpeed" fill="#000000">URLSCM (267)</text>
  <rect fill="blue" height="2.8" stroke="black" width="12" x="1470" y="148.8"/>
  <text x="1470" y="156.6" font-family="Tahoma" font-size="12" transform="rotate(90 1470,156.6)" text-rendering="optimizeSpeed" fill="#000000">polarion (281)</text>
  <rect fill="blue" height="2.8" stroke="black" width="12" x="1485" y="148.8"/>
  <text x="1485" y="156.6" font-family="Tahoma" font-size="12" transform="rotate(90 1485,156.6)" text-rendering="optimizeSpeed" fill="#000000">rake (281)</text>
  <rect fill="blue" height="2.8" stroke="black" width="12" x="1500" y="148.8"/>
  <text x="1500" y="156.6" font-family="Tahoma" font-size="12" transform="rotate(90 1500,156.6)" text-rendering="optimizeSpeed" fill="#000000">sectioned-view (281)</text>
  <rect fill="blue" height="2.8" stroke="black" width="12" x="1515" y="148.8"/>
  <text x="1515" y="156.6" font-family="Tahoma" font-size="12" transform="rotate(90 1515,156.6)" text-rendering="optimizeSpeed" fill="#000000">redmine (284)</text>
  <rect fill="blue" height="2.9" stroke="black" width="12" x="1530" y="148.7"/>
  <text x="1530" y="156.6" font-family="Tahoma" font-size="12" transform="rotate(90 1530,156.6)" text-rendering="optimizeSpeed" fill="#000000">ruby (288)</text>
  <rect fill="blue" height="3.0" stroke="black" width="12" x="1545" y="148.6"/>
  <text x="1545" y="156.6" font-family="Tahoma" font-size="12" transform="rotate(90 1545,156.6)" text-rendering="optimizeSpeed" fill="#000000">xvnc (296)</text>
  <rect fill="blue" height="3.0" stroke="black" width="12" x="1560" y="148.6"/>
  <text x="1560" y="156.6" font-family="Tahoma" font-size="12" transform="rotate(90 1560,156.6)" text-rendering="optimizeSpeed" fill="#000000">twitter (300)</text>
  <rect fill="blue" height="3.1" stroke="black" width="12" x="1575" y="148.5"/>
  <text x="1575" y="156.6" font-family="Tahoma" font-size="12" transform="rotate(90 1575,156.6)" text-rendering="optimizeSpeed" fill="#000000">mantis (308)</text>
  <rect fill="blue" height="3.1" stroke="black" width="12" x="1590" y="148.5"/>
  <text x="1590" y="156.6" font-family="Tahoma" font-size="12" transform="rotate(90 1590,156.6)" text-rendering="optimizeSpeed" fill="#000000">seleniumhq (308)</text>
  <rect fill="blue" height="3.1" stroke="black" width="12" x="1605" y="148.4"/>
  <text x="1605" y="156.6" font-family="Tahoma" font-size="12" transform="rotate(90 1605,156.6)" text-rendering="optimizeSpeed" fill="#000000">url-change-trigger (315)</text>
  <rect fill="blue" height="3.2" stroke="black" width="12" x="1620" y="148.4"/>
  <text x="1620" y="156.6" font-family="Tahoma" font-size="12" transform="rotate(90 1620,156.6)" text-rendering="optimizeSpeed" fill="#000000">claim (325)</text>
  <rect fill="blue" height="3.3" stroke="black" width="12" x="1635" y="148.3"/>
  <text x="1635" y="156.6" font-family="Tahoma" font-size="12" transform="rotate(90 1635,156.6)" text-rendering="optimizeSpeed" fill="#000000">radiatorviewplugin (326)</text>
  <rect fill="blue" height="3.3" stroke="black" width="12" x="1650" y="148.3"/>
  <text x="1650" y="156.6" font-family="Tahoma" font-size="12" transform="rotate(90 1650,156.6)" text-rendering="optimizeSpeed" fill="#000000">doxygen (331)</text>
  <rect fill="blue" height="3.4" stroke="black" width="12" x="1665" y="148.2"/>
  <text x="1665" y="156.6" font-family="Tahoma" font-size="12" transform="rotate(90 1665,156.6)" text-rendering="optimizeSpeed" fill="#000000">javancss (338)</text>
  <rect fill="blue" height="3.5" stroke="black" width="12" x="1680" y="148.1"/>
  <text x="1680" y="156.6" font-family="Tahoma" font-size="12" transform="rotate(90 1680,156.6)" text-rendering="optimizeSpeed" fill="#000000">sloccount (350)</text>
  <rect fill="blue" height="3.5" stroke="black" width="12" x="1695" y="148.1"/>
  <text x="1695" y="156.6" font-family="Tahoma" font-size="12" transform="rotate(90 1695,156.6)" text-rendering="optimizeSpeed" fill="#000000">build-publisher (351)</text>
  <rect fill="blue" height="3.6" stroke="black" width="12" x="1710" y="148.0"/>
  <text x="1710" y="156.6" font-family="Tahoma" font-size="12" transform="rotate(90 1710,156.6)" text-rendering="optimizeSpeed" fill="#000000">mercurial (357)</text>
  <rect fill="blue" height="3.7" stroke="black" width="12" x="1725" y="147.9"/>
  <text x="1725" y="156.6" font-family="Tahoma" font-size="12" transform="rotate(90 1725,156.6)" text-rendering="optimizeSpeed" fill="#000000">groovy (368)</text>
  <rect fill="blue" height="3.7" stroke="black" width="12" x="1740" y="147.9"/>
  <text x="1740" y="156.6" font-family="Tahoma" font-size="12" transform="rotate(90 1740,156.6)" text-rendering="optimizeSpeed" fill="#000000">locale (372)</text>
  <rect fill="blue" height="3.9" stroke="black" width="12" x="1755" y="147.7"/>
  <text x="1755" y="156.6" font-family="Tahoma" font-size="12" transform="rotate(90 1755,156.6)" text-rendering="optimizeSpeed" fill="#000000">nant (386)</text>
  <rect fill="blue" height="4.0" stroke="black" width="12" x="1770" y="147.6"/>
  <text x="1770" y="156.6" font-family="Tahoma" font-size="12" transform="rotate(90 1770,156.6)" text-rendering="optimizeSpeed" fill="#000000">crap4j (401)</text>
  <rect fill="blue" height="4.0" stroke="black" width="12" x="1785" y="147.5"/>
  <text x="1785" y="156.6" font-family="Tahoma" font-size="12" transform="rotate(90 1785,156.6)" text-rendering="optimizeSpeed" fill="#000000">ftppublisher (405)</text>
  <rect fill="blue" height="4.1" stroke="black" width="12" x="1800" y="147.5"/>
  <text x="1800" y="156.6" font-family="Tahoma" font-size="12" transform="rotate(90 1800,156.6)" text-rendering="optimizeSpeed" fill="#000000">parameterized-trigger (409)</text>
  <rect fill="blue" height="4.2" stroke="black" width="12" x="1815" y="147.4"/>
  <text x="1815" y="156.6" font-family="Tahoma" font-size="12" transform="rotate(90 1815,156.6)" text-rendering="optimizeSpeed" fill="#000000">ldapemail (420)</text>
  <rect fill="blue" height="4.3" stroke="black" width="12" x="1830" y="147.3"/>
  <text x="1830" y="156.6" font-family="Tahoma" font-size="12" transform="rotate(90 1830,156.6)" text-rendering="optimizeSpeed" fill="#000000">promoted-builds (430)</text>
  <rect fill="blue" height="4.3" stroke="black" width="12" x="1845" y="147.3"/>
  <text x="1845" y="156.6" font-family="Tahoma" font-size="12" transform="rotate(90 1845,156.6)" text-rendering="optimizeSpeed" fill="#000000">description-setter (434)</text>
  <rect fill="blue" height="4.3" stroke="black" width="12" x="1860" y="147.3"/>
  <text x="1860" y="156.6" font-family="Tahoma" font-size="12" transform="rotate(90 1860,156.6)" text-rendering="optimizeSpeed" fill="#000000">perforce (434)</text>
  <rect fill="blue" height="4.5" stroke="black" width="12" x="1875" y="147.1"/>
  <text x="1875" y="156.6" font-family="Tahoma" font-size="12" transform="rotate(90 1875,156.6)" text-rendering="optimizeSpeed" fill="#000000">clover (450)</text>
  <rect fill="blue" height="4.5" stroke="black" width="12" x="1890" y="147.1"/>
  <text x="1890" y="156.6" font-family="Tahoma" font-size="12" transform="rotate(90 1890,156.6)" text-rendering="optimizeSpeed" fill="#000000">statusmonitor (450)</text>
  <rect fill="blue" height="4.5" stroke="black" width="12" x="1905" y="147.1"/>
  <text x="1905" y="156.6" font-family="Tahoma" font-size="12" transform="rotate(90 1905,156.6)" text-rendering="optimizeSpeed" fill="#000000">changelog-history (451)</text>
  <rect fill="blue" height="4.5" stroke="black" width="12" x="1920" y="147.1"/>
  <text x="1920" y="156.6" font-family="Tahoma" font-size="12" transform="rotate(90 1920,156.6)" text-rendering="optimizeSpeed" fill="#000000">clearcase (454)</text>
  <rect fill="blue" height="4.7" stroke="black" width="12" x="1935" y="146.9"/>
  <text x="1935" y="156.6" font-family="Tahoma" font-size="12" transform="rotate(90 1935,156.6)" text-rendering="optimizeSpeed" fill="#000000">bugzilla (471)</text>
  <rect fill="blue" height="4.8" stroke="black" width="12" x="1950" y="146.9"/>
  <text x="1950" y="156.6" font-family="Tahoma" font-size="12" transform="rotate(90 1950,156.6)" text-rendering="optimizeSpeed" fill="#000000">sidebar-link (475)</text>
  <rect fill="blue" height="5.2" stroke="black" width="12" x="1965" y="146.4"/>
  <text x="1965" y="156.6" font-family="Tahoma" font-size="12" transform="rotate(90 1965,156.6)" text-rendering="optimizeSpeed" fill="#000000">m2-extra-steps (518)</text>
  <rect fill="blue" height="5.2" stroke="black" width="12" x="1980" y="146.4"/>
  <text x="1980" y="156.6" font-family="Tahoma" font-size="12" transform="rotate(90 1980,156.6)" text-rendering="optimizeSpeed" fill="#000000">plot (520)</text>
  <rect fill="blue" height="5.3" stroke="black" width="12" x="1995" y="146.3"/>
  <text x="1995" y="156.6" font-family="Tahoma" font-size="12" transform="rotate(90 1995,156.6)" text-rendering="optimizeSpeed" fill="#000000">dependencyanalyzer (528)</text>
  <rect fill="blue" height="5.6" stroke="black" width="12" x="2010" y="146.0"/>
  <text x="2010" y="156.6" font-family="Tahoma" font-size="12" transform="rotate(90 2010,156.6)" text-rendering="optimizeSpeed" fill="#000000">backup (560)</text>
  <rect fill="blue" height="5.8" stroke="black" width="12" x="2025" y="145.8"/>
  <text x="2025" y="156.6" font-family="Tahoma" font-size="12" transform="rotate(90 2025,156.6)" text-rendering="optimizeSpeed" fill="#000000">locks-and-latches (579)</text>
  <rect fill="blue" height="5.8" stroke="black" width="12" x="2040" y="145.8"/>
  <text x="2040" y="156.6" font-family="Tahoma" font-size="12" transform="rotate(90 2040,156.6)" text-rendering="optimizeSpeed" fill="#000000">nunit (583)</text>
  <rect fill="blue" height="6.0" stroke="black" width="12" x="2055" y="145.6"/>
  <text x="2055" y="156.6" font-family="Tahoma" font-size="12" transform="rotate(90 2055,156.6)" text-rendering="optimizeSpeed" fill="#000000">jabber (604)</text>
  <rect fill="blue" height="6.1" stroke="black" width="12" x="2070" y="145.5"/>
  <text x="2070" y="156.6" font-family="Tahoma" font-size="12" transform="rotate(90 2070,156.6)" text-rendering="optimizeSpeed" fill="#000000">text-finder (611)</text>
  <rect fill="blue" height="6.2" stroke="black" width="12" x="2085" y="145.4"/>
  <text x="2085" y="156.6" font-family="Tahoma" font-size="12" transform="rotate(90 2085,156.6)" text-rendering="optimizeSpeed" fill="#000000">git (617)</text>
  <rect fill="blue" height="6.5" stroke="black" width="12" x="2100" y="145.1"/>
  <text x="2100" y="156.6" font-family="Tahoma" font-size="12" transform="rotate(90 2100,156.6)" text-rendering="optimizeSpeed" fill="#000000">dry (646)</text>
  <rect fill="blue" height="6.9" stroke="black" width="12" x="2115" y="144.7"/>
  <text x="2115" y="156.6" font-family="Tahoma" font-size="12" transform="rotate(90 2115,156.6)" text-rendering="optimizeSpeed" fill="#000000">release (689)</text>
  <rect fill="blue" height="7.1" stroke="black" width="12" x="2130" y="144.5"/>
  <text x="2130" y="156.6" font-family="Tahoma" font-size="12" transform="rotate(90 2130,156.6)" text-rendering="optimizeSpeed" fill="#000000">svn-release-mgr (710)</text>
  <rect fill="blue" height="7.6" stroke="black" width="12" x="2145" y="144.0"/>
  <text x="2145" y="156.6" font-family="Tahoma" font-size="12" transform="rotate(90 2145,156.6)" text-rendering="optimizeSpeed" fill="#000000">audit-trail (756)</text>
  <rect fill="blue" height="7.7" stroke="black" width="12" x="2160" y="143.9"/>
  <text x="2160" y="156.6" font-family="Tahoma" font-size="12" transform="rotate(90 2160,156.6)" text-rendering="optimizeSpeed" fill="#000000">m2release (765)</text>
  <rect fill="blue" height="7.9" stroke="black" width="12" x="2175" y="143.7"/>
  <text x="2175" y="156.6" font-family="Tahoma" font-size="12" transform="rotate(90 2175,156.6)" text-rendering="optimizeSpeed" fill="#000000">msbuild (792)</text>
  <rect fill="blue" height="9.1" stroke="black" width="12" x="2190" y="142.5"/>
  <text x="2190" y="156.6" font-family="Tahoma" font-size="12" transform="rotate(90 2190,156.6)" text-rendering="optimizeSpeed" fill="#000000">trac (907)</text>
  <rect fill="blue" height="10.4" stroke="black" width="12" x="2205" y="141.2"/>
  <text x="2205" y="156.6" font-family="Tahoma" font-size="12" transform="rotate(90 2205,156.6)" text-rendering="optimizeSpeed" fill="#000000">scp (1036)</text>
  <rect fill="blue" height="11.2" stroke="black" width="12" x="2220" y="140.4"/>
  <text x="2220" y="156.6" font-family="Tahoma" font-size="12" transform="rotate(90 2220,156.6)" text-rendering="optimizeSpeed" fill="#000000">sonar (1123)</text>
  <rect fill="blue" height="11.4" stroke="black" width="12" x="2235" y="140.2"/>
  <text x="2235" y="156.6" font-family="Tahoma" font-size="12" transform="rotate(90 2235,156.6)" text-rendering="optimizeSpeed" fill="#000000">active-directory (1141)</text>
  <rect fill="blue" height="11.9" stroke="black" width="12" x="2250" y="139.7"/>
  <text x="2250" y="156.6" font-family="Tahoma" font-size="12" transform="rotate(90 2250,156.6)" text-rendering="optimizeSpeed" fill="#000000">ci-game (1191)</text>
  <rect fill="blue" height="12.0" stroke="black" width="12" x="2265" y="139.6"/>
  <text x="2265" y="156.6" font-family="Tahoma" font-size="12" transform="rotate(90 2265,156.6)" text-rendering="optimizeSpeed" fill="#000000">build-timeout (1203)</text>
  <rect fill="blue" height="12.1" stroke="black" width="12" x="2280" y="139.5"/>
  <text x="2280" y="156.6" font-family="Tahoma" font-size="12" transform="rotate(90 2280,156.6)" text-rendering="optimizeSpeed" fill="#000000">emma (1206)</text>
  <rect fill="blue" height="12.2" stroke="black" width="12" x="2295" y="139.4"/>
  <text x="2295" y="156.6" font-family="Tahoma" font-size="12" transform="rotate(90 2295,156.6)" text-rendering="optimizeSpeed" fill="#000000">jira (1221)</text>
  <rect fill="blue" height="12.3" stroke="black" width="12" x="2310" y="139.2"/>
  <text x="2310" y="156.6" font-family="Tahoma" font-size="12" transform="rotate(90 2310,156.6)" text-rendering="optimizeSpeed" fill="#000000">deploy (1235)</text>
  <rect fill="blue" height="12.7" stroke="black" width="12" x="2325" y="138.9"/>
  <text x="2325" y="156.6" font-family="Tahoma" font-size="12" transform="rotate(90 2325,156.6)" text-rendering="optimizeSpeed" fill="#000000">svn-tag (1271)</text>
  <rect fill="blue" height="13.3" stroke="black" width="12" x="2340" y="138.3"/>
  <text x="2340" y="156.6" font-family="Tahoma" font-size="12" transform="rotate(90 2340,156.6)" text-rendering="optimizeSpeed" fill="#000000">batch-task (1327)</text>
  <rect fill="blue" height="14.5" stroke="black" width="12" x="2355" y="137.1"/>
  <text x="2355" y="156.6" font-family="Tahoma" font-size="12" transform="rotate(90 2355,156.6)" text-rendering="optimizeSpeed" fill="#000000">greenballs (1447)</text>
  <rect fill="blue" height="15.0" stroke="black" width="12" x="2370" y="136.6"/>
  <text x="2370" y="156.6" font-family="Tahoma" font-size="12" transform="rotate(90 2370,156.6)" text-rendering="optimizeSpeed" fill="#000000">violations (1503)</text>
  <rect fill="blue" height="16.8" stroke="black" width="12" x="2385" y="134.8"/>
  <text x="2385" y="156.6" font-family="Tahoma" font-size="12" transform="rotate(90 2385,156.6)" text-rendering="optimizeSpeed" fill="#000000">emotional-hudson (1684)</text>
  <rect fill="blue" height="17.4" stroke="black" width="12" x="2400" y="134.2"/>
  <text x="2400" y="156.6" font-family="Tahoma" font-size="12" transform="rotate(90 2400,156.6)" text-rendering="optimizeSpeed" fill="#000000">disk-usage (1744)</text>
  <rect fill="blue" height="18.5" stroke="black" width="12" x="2415" y="133.1"/>
  <text x="2415" y="156.6" font-family="Tahoma" font-size="12" transform="rotate(90 2415,156.6)" text-rendering="optimizeSpeed" fill="#000000">tasks (1853)</text>
  <rect fill="blue" height="21.2" stroke="black" width="12" x="2430" y="130.4"/>
  <text x="2430" y="156.6" font-family="Tahoma" font-size="12" transform="rotate(90 2430,156.6)" text-rendering="optimizeSpeed" fill="#000000">warnings (2122)</text>
  <rect fill="blue" height="21.4" stroke="black" width="12" x="2445" y="130.2"/>
  <text x="2445" y="156.6" font-family="Tahoma" font-size="12" transform="rotate(90 2445,156.6)" text-rendering="optimizeSpeed" fill="#000000">pmd (2138)</text>
  <rect fill="blue" height="21.8" stroke="black" width="12" x="2460" y="129.8"/>
  <text x="2460" y="156.6" font-family="Tahoma" font-size="12" transform="rotate(90 2460,156.6)" text-rendering="optimizeSpeed" fill="#000000">cobertura (2181)</text>
  <rect fill="blue" height="24.3" stroke="black" width="12" x="2475" y="127.3"/>
  <text x="2475" y="156.6" font-family="Tahoma" font-size="12" transform="rotate(90 2475,156.6)" text-rendering="optimizeSpeed" fill="#000000">email-ext (2432)</text>
  <rect fill="blue" height="24.6" stroke="black" width="12" x="2490" y="127.0"/>
  <text x="2490" y="156.6" font-family="Tahoma" font-size="12" transform="rotate(90 2490,156.6)" text-rendering="optimizeSpeed" fill="#000000">checkstyle (2457)</text>
  <rect fill="blue" height="28.4" stroke="black" width="12" x="2505" y="123.1"/>
  <text x="2505" y="156.6" font-family="Tahoma" font-size="12" transform="rotate(90 2505,156.6)" text-rendering="optimizeSpeed" fill="#000000">findbugs (2845)</text>
  <rect fill="blue" height="29.0" stroke="black" width="12" x="2520" y="122.6"/>
  <text x="2520" y="156.6" font-family="Tahoma" font-size="12" transform="rotate(90 2520,156.6)" text-rendering="optimizeSpeed" fill="#000000">scis-ad (2902)</text>
  <rect fill="blue" height="78.8" stroke="black" width="12" x="2535" y="72.8"/>
  <text x="2535" y="156.6" font-family="Tahoma" font-size="12" transform="rotate(90 2535,156.6)" text-rendering="optimizeSpeed" fill="#000000">subversion (7880)</text>
  <rect fill="blue" height="97.0" stroke="black" width="12" x="2550" y="54.6"/>
  <text x="2550" y="156.6" font-family="Tahoma" font-size="12" transform="rotate(90 2550,156.6)" text-rendering="optimizeSpeed" fill="#000000">ssh-slaves (9698)</text>
  <rect fill="blue" height="101.6" stroke="black" width="12" x="2565" y="50.0"/>
  <text x="2565" y="156.6" font-family="Tahoma" font-size="12" transform="rotate(90 2565,156.6)" text-rendering="optimizeSpeed" fill="#000000">maven-plugin (10160)</text>
  <text x="10" y="40" font-family="Tahoma" font-size="20" text-rendering="optimizeSpeed" fill="#000000">Plugin installations (total: 96515)</text>
</svg>
