<svg xmlns="http://www.w3.org/2000/svg" version="1.1" preserveAspectRatio="xMidYMid meet" viewBox="0 0 365 634.5">
  <rect fill="blue" height="30.1" stroke="black" width="12" x="15" y="304.4"/>
  <text x="15" y="339.5" font-family="Tahoma" font-size="12" transform="rotate(90 15,339.5)" text-rendering="optimizeSpeed" fill="#000000">1.368 (301)</text>
  <rect fill="blue" height="38.8" stroke="black" width="12" x="30" y="295.7"/>
  <text x="30" y="339.5" font-family="Tahoma" font-size="12" transform="rotate(90 30,339.5)" text-rendering="optimizeSpeed" fill="#000000">1.369 (388)</text>
  <rect fill="blue" height="8.7" stroke="black" width="12" x="45" y="325.8"/>
  <text x="45" y="339.5" font-family="Tahoma" font-size="12" transform="rotate(90 45,339.5)" text-rendering="optimizeSpeed" fill="#000000">1.370 (87)</text>
  <rect fill="blue" height="29.6" stroke="black" width="12" x="60" y="304.9"/>
  <text x="60" y="339.5" font-family="Tahoma" font-size="12" transform="rotate(90 60,339.5)" text-rendering="optimizeSpeed" fill="#000000">1.371 (296)</text>
  <rect fill="blue" height="42.4" stroke="black" width="12" x="75" y="292.1"/>
  <text x="75" y="339.5" font-family="Tahoma" font-size="12" transform="rotate(90 75,339.5)" text-rendering="optimizeSpeed" fill="#000000">1.372 (424)</text>
  <rect fill="blue" height="44.6" stroke="black" width="12" x="90" y="289.9"/>
  <text x="90" y="339.5" font-family="Tahoma" font-size="12" transform="rotate(90 90,339.5)" text-rendering="optimizeSpeed" fill="#000000">1.373 (446)</text>
  <rect fill="blue" height="55.3" stroke="black" width="12" x="105" y="279.2"/>
  <text x="105" y="339.5" font-family="Tahoma" font-size="12" transform="rotate(90 105,339.5)" text-rendering="optimizeSpeed" fill="#000000">1.374 (553)</text>
  <rect fill="blue" height="47.0" stroke="black" width="12" x="120" y="287.5"/>
  <text x="120" y="339.5" font-family="Tahoma" font-size="12" transform="rotate(90 120,339.5)" text-rendering="optimizeSpeed" fill="#000000">1.375 (470)</text>
  <rect fill="blue" height="61.7" stroke="black" width="12" x="135" y="272.8"/>
  <text x="135" y="339.5" font-family="Tahoma" font-size="12" transform="rotate(90 135,339.5)" text-rendering="optimizeSpeed" fill="#000000">1.376 (617)</text>
  <rect fill="blue" height="62.4" stroke="black" width="12" x="150" y="272.1"/>
  <text x="150" y="339.5" font-family="Tahoma" font-size="12" transform="rotate(90 150,339.5)" text-rendering="optimizeSpeed" fill="#000000">1.377 (624)</text>
  <rect fill="blue" height="60.4" stroke="black" width="12" x="165" y="274.1"/>
  <text x="165" y="339.5" font-family="Tahoma" font-size="12" transform="rotate(90 165,339.5)" text-rendering="optimizeSpeed" fill="#000000">1.378 (604)</text>
  <rect fill="blue" height="113.2" stroke="black" width="12" x="180" y="221.3"/>
  <text x="180" y="339.5" font-family="Tahoma" font-size="12" transform="rotate(90 180,339.5)" text-rendering="optimizeSpeed" fill="#000000">1.379 (1132)</text>
  <rect fill="blue" height="56.3" stroke="black" width="12" x="195" y="278.2"/>
  <text x="195" y="339.5" font-family="Tahoma" font-size="12" transform="rotate(90 195,339.5)" text-rendering="optimizeSpeed" fill="#000000">1.380 (563)</text>
  <rect fill="blue" height="161.4" stroke="black" width="12" x="210" y="173.1"/>
  <text x="210" y="339.5" font-family="Tahoma" font-size="12" transform="rotate(90 210,339.5)" text-rendering="optimizeSpeed" fill="#000000">1.381 (1614)</text>
  <rect fill="blue" height="72.6" stroke="black" width="12" x="225" y="261.9"/>
  <text x="225" y="339.5" font-family="Tahoma" font-size="12" transform="rotate(90 225,339.5)" text-rendering="optimizeSpeed" fill="#000000">1.382 (726)</text>
  <rect fill="blue" height="195.3" stroke="black" width="12" x="240" y="139.2"/>
  <text x="240" y="339.5" font-family="Tahoma" font-size="12" transform="rotate(90 240,339.5)" text-rendering="optimizeSpeed" fill="#000000">1.383 (1953)</text>
  <rect fill="blue" height="0.2" stroke="black" width="12" x="255" y="334.3"/>
  <text x="255" y="339.5" font-family="Tahoma" font-size="12" transform="rotate(90 255,339.5)" text-rendering="optimizeSpeed" fill="#000000">1.383.2 (2)</text>
  <rect fill="blue" height="274.8" stroke="black" width="12" x="270" y="59.7"/>
  <text x="270" y="339.5" font-family="Tahoma" font-size="12" transform="rotate(90 270,339.5)" text-rendering="optimizeSpeed" fill="#000000">1.384 (2748)</text>
  <rect fill="blue" height="169.4" stroke="black" width="12" x="285" y="165.1"/>
  <text x="285" y="339.5" font-family="Tahoma" font-size="12" transform="rotate(90 285,339.5)" text-rendering="optimizeSpeed" fill="#000000">1.385 (1694)</text>
  <rect fill="blue" height="284.5" stroke="black" width="12" x="300" y="50.0"/>
  <text x="300" y="339.5" font-family="Tahoma" font-size="12" transform="rotate(90 300,339.5)" text-rendering="optimizeSpeed" fill="#000000">1.386 (2845)</text>
  <rect fill="blue" height="29.5" stroke="black" width="12" x="315" y="305.0"/>
  <text x="315" y="339.5" font-family="Tahoma" font-size="12" transform="rotate(90 315,339.5)" text-rendering="optimizeSpeed" fill="#000000">1.387 (295)</text>
  <text x="10" y="40" font-family="Tahoma" font-size="20" text-rendering="optimizeSpeed" fill="#000000">Jenkins installations (total: 18382)</text>
</svg>
