<svg xmlns="http://www.w3.org/2000/svg" version="1.1" preserveAspectRatio="xMidYMid meet" viewBox="0 0 770 1065.6">
  <rect fill="blue" height="0.1" stroke="black" width="12" x="15" y="765.5"/>
  <text x="15" y="770.6" font-family="Tahoma" font-size="12" transform="rotate(90 15,770.6)" text-rendering="optimizeSpeed" fill="#000000">HP-UX (PA_RISC2.0W) (1)</text>
  <rect fill="blue" height="0.1" stroke="black" width="12" x="30" y="765.5"/>
  <text x="30" y="770.6" font-family="Tahoma" font-size="12" transform="rotate(90 30,770.6)" text-rendering="optimizeSpeed" fill="#000000">Linux (sparc) (1)</text>
  <rect fill="blue" height="0.1" stroke="black" width="12" x="45" y="765.5"/>
  <text x="45" y="770.6" font-family="Tahoma" font-size="12" transform="rotate(90 45,770.6)" text-rendering="optimizeSpeed" fill="#000000">Windows Server 2008 (ia64) (1)</text>
  <rect fill="blue" height="0.1" stroke="black" width="12" x="60" y="765.5"/>
  <text x="60" y="770.6" font-family="Tahoma" font-size="12" transform="rotate(90 60,770.6)" text-rendering="optimizeSpeed" fill="#000000">linux (amd64) (1)</text>
  <rect fill="blue" height="0.2" stroke="black" width="12" x="75" y="765.4"/>
  <text x="75" y="770.6" font-family="Tahoma" font-size="12" transform="rotate(90 75,770.6)" text-rendering="optimizeSpeed" fill="#000000">Darwin (i386) (2)</text>
  <rect fill="blue" height="0.2" stroke="black" width="12" x="90" y="765.4"/>
  <text x="90" y="770.6" font-family="Tahoma" font-size="12" transform="rotate(90 90,770.6)" text-rendering="optimizeSpeed" fill="#000000">HP-UX (IA64W) (2)</text>
  <rect fill="blue" height="0.2" stroke="black" width="12" x="105" y="765.4"/>
  <text x="105" y="770.6" font-family="Tahoma" font-size="12" transform="rotate(90 105,770.6)" text-rendering="optimizeSpeed" fill="#000000">Linux (arm) (2)</text>
  <rect fill="blue" height="0.2" stroke="black" width="12" x="120" y="765.4"/>
  <text x="120" y="770.6" font-family="Tahoma" font-size="12" transform="rotate(90 120,770.6)" text-rendering="optimizeSpeed" fill="#000000">Linux (s390) (2)</text>
  <rect fill="blue" height="0.2" stroke="black" width="12" x="135" y="765.4"/>
  <text x="135" y="770.6" font-family="Tahoma" font-size="12" transform="rotate(90 135,770.6)" text-rendering="optimizeSpeed" fill="#000000">z/OS (s390x) (2)</text>
  <rect fill="blue" height="0.3" stroke="black" width="12" x="150" y="765.3"/>
  <text x="150" y="770.6" font-family="Tahoma" font-size="12" transform="rotate(90 150,770.6)" text-rendering="optimizeSpeed" fill="#000000">Windows NT (unknown) (x86) (3)</text>
  <rect fill="blue" height="0.4" stroke="black" width="12" x="165" y="765.2"/>
  <text x="165" y="770.6" font-family="Tahoma" font-size="12" transform="rotate(90 165,770.6)" text-rendering="optimizeSpeed" fill="#000000">OpenBSD (i386) (4)</text>
  <rect fill="blue" height="0.5" stroke="black" width="12" x="180" y="765.1"/>
  <text x="180" y="770.6" font-family="Tahoma" font-size="12" transform="rotate(90 180,770.6)" text-rendering="optimizeSpeed" fill="#000000">Linux (s390x) (5)</text>
  <rect fill="blue" height="0.5" stroke="black" width="12" x="195" y="765.1"/>
  <text x="195" y="770.6" font-family="Tahoma" font-size="12" transform="rotate(90 195,770.6)" text-rendering="optimizeSpeed" fill="#000000">Windows Server 2003 (amd64) (5)</text>
  <rect fill="blue" height="0.5" stroke="black" width="12" x="210" y="765.1"/>
  <text x="210" y="770.6" font-family="Tahoma" font-size="12" transform="rotate(90 210,770.6)" text-rendering="optimizeSpeed" fill="#000000">z/OS (s390) (5)</text>
  <rect fill="blue" height="0.6" stroke="black" width="12" x="225" y="765.0"/>
  <text x="225" y="770.6" font-family="Tahoma" font-size="12" transform="rotate(90 225,770.6)" text-rendering="optimizeSpeed" fill="#000000">Linux (ppc64) (6)</text>
  <rect fill="blue" height="0.9" stroke="black" width="12" x="240" y="764.7"/>
  <text x="240" y="770.6" font-family="Tahoma" font-size="12" transform="rotate(90 240,770.6)" text-rendering="optimizeSpeed" fill="#000000">Linux (ia64) (9)</text>
  <rect fill="blue" height="1.1" stroke="black" width="12" x="255" y="764.5"/>
  <text x="255" y="770.6" font-family="Tahoma" font-size="12" transform="rotate(90 255,770.6)" text-rendering="optimizeSpeed" fill="#000000">Linux (ppc) (11)</text>
  <rect fill="blue" height="1.2" stroke="black" width="12" x="270" y="764.4"/>
  <text x="270" y="770.6" font-family="Tahoma" font-size="12" transform="rotate(90 270,770.6)" text-rendering="optimizeSpeed" fill="#000000">SunOS (amd64) (12)</text>
  <rect fill="blue" height="1.5" stroke="black" width="12" x="285" y="764.1"/>
  <text x="285" y="770.6" font-family="Tahoma" font-size="12" transform="rotate(90 285,770.6)" text-rendering="optimizeSpeed" fill="#000000">Windows Server 2008 R2 (amd64) (15)</text>
  <rect fill="blue" height="1.6" stroke="black" width="12" x="300" y="764.0"/>
  <text x="300" y="770.6" font-family="Tahoma" font-size="12" transform="rotate(90 300,770.6)" text-rendering="optimizeSpeed" fill="#000000">Windows Server 2008 R2 (x86) (16)</text>
  <rect fill="blue" height="1.8" stroke="black" width="12" x="315" y="763.8"/>
  <text x="315" y="770.6" font-family="Tahoma" font-size="12" transform="rotate(90 315,770.6)" text-rendering="optimizeSpeed" fill="#000000">SunOS (sparcv9) (18)</text>
  <rect fill="blue" height="2.7" stroke="black" width="12" x="330" y="762.9"/>
  <text x="330" y="770.6" font-family="Tahoma" font-size="12" transform="rotate(90 330,770.6)" text-rendering="optimizeSpeed" fill="#000000">FreeBSD (amd64) (27)</text>
  <rect fill="blue" height="3.2" stroke="black" width="12" x="345" y="762.4"/>
  <text x="345" y="770.6" font-family="Tahoma" font-size="12" transform="rotate(90 345,770.6)" text-rendering="optimizeSpeed" fill="#000000">Windows 7 (amd64) (32)</text>
  <rect fill="blue" height="3.3" stroke="black" width="12" x="360" y="762.3"/>
  <text x="360" y="770.6" font-family="Tahoma" font-size="12" transform="rotate(90 360,770.6)" text-rendering="optimizeSpeed" fill="#000000">Mac OS X (ppc) (33)</text>
  <rect fill="blue" height="3.5" stroke="black" width="12" x="375" y="762.1"/>
  <text x="375" y="770.6" font-family="Tahoma" font-size="12" transform="rotate(90 375,770.6)" text-rendering="optimizeSpeed" fill="#000000">HP-UX (PA_RISC2.0) (35)</text>
  <rect fill="blue" height="3.5" stroke="black" width="12" x="390" y="762.1"/>
  <text x="390" y="770.6" font-family="Tahoma" font-size="12" transform="rotate(90 390,770.6)" text-rendering="optimizeSpeed" fill="#000000">Windows Vista (amd64) (35)</text>
  <rect fill="blue" height="3.6" stroke="black" width="12" x="405" y="762.0"/>
  <text x="405" y="770.6" font-family="Tahoma" font-size="12" transform="rotate(90 405,770.6)" text-rendering="optimizeSpeed" fill="#000000">FreeBSD (i386) (36)</text>
  <rect fill="blue" height="3.7" stroke="black" width="12" x="420" y="761.9"/>
  <text x="420" y="770.6" font-family="Tahoma" font-size="12" transform="rotate(90 420,770.6)" text-rendering="optimizeSpeed" fill="#000000">Windows Server 2003 (x86) (37)</text>
  <rect fill="blue" height="4.2" stroke="black" width="12" x="435" y="761.4"/>
  <text x="435" y="770.6" font-family="Tahoma" font-size="12" transform="rotate(90 435,770.6)" text-rendering="optimizeSpeed" fill="#000000">Windows XP (amd64) (42)</text>
  <rect fill="blue" height="6.3" stroke="black" width="12" x="450" y="759.3"/>
  <text x="450" y="770.6" font-family="Tahoma" font-size="12" transform="rotate(90 450,770.6)" text-rendering="optimizeSpeed" fill="#000000">AIX (ppc) (63)</text>
  <rect fill="blue" height="6.5" stroke="black" width="12" x="465" y="759.1"/>
  <text x="465" y="770.6" font-family="Tahoma" font-size="12" transform="rotate(90 465,770.6)" text-rendering="optimizeSpeed" fill="#000000">Linux (x86) (65)</text>
  <rect fill="blue" height="6.6" stroke="black" width="12" x="480" y="759.0"/>
  <text x="480" y="770.6" font-family="Tahoma" font-size="12" transform="rotate(90 480,770.6)" text-rendering="optimizeSpeed" fill="#000000">HP-UX (IA64N) (66)</text>
  <rect fill="blue" height="6.7" stroke="black" width="12" x="495" y="758.9"/>
  <text x="495" y="770.6" font-family="Tahoma" font-size="12" transform="rotate(90 495,770.6)" text-rendering="optimizeSpeed" fill="#000000">Windows 7 (x86) (67)</text>
  <rect fill="blue" height="7.0" stroke="black" width="12" x="510" y="758.6"/>
  <text x="510" y="770.6" font-family="Tahoma" font-size="12" transform="rotate(90 510,770.6)" text-rendering="optimizeSpeed" fill="#000000">AIX (ppc64) (70)</text>
  <rect fill="blue" height="10.0" stroke="black" width="12" x="525" y="755.6"/>
  <text x="525" y="770.6" font-family="Tahoma" font-size="12" transform="rotate(90 525,770.6)" text-rendering="optimizeSpeed" fill="#000000">Windows Server 2008 (amd64) (100)</text>
  <rect fill="blue" height="11.7" stroke="black" width="12" x="540" y="753.9"/>
  <text x="540" y="770.6" font-family="Tahoma" font-size="12" transform="rotate(90 540,770.6)" text-rendering="optimizeSpeed" fill="#000000">Windows 2000 (x86) (117)</text>
  <rect fill="blue" height="16.1" stroke="black" width="12" x="555" y="749.5"/>
  <text x="555" y="770.6" font-family="Tahoma" font-size="12" transform="rotate(90 555,770.6)" text-rendering="optimizeSpeed" fill="#000000">Mac OS X (x86_64) (161)</text>
  <rect fill="blue" height="19.5" stroke="black" width="12" x="570" y="746.1"/>
  <text x="570" y="770.6" font-family="Tahoma" font-size="12" transform="rotate(90 570,770.6)" text-rendering="optimizeSpeed" fill="#000000">Windows Vista (x86) (195)</text>
  <rect fill="blue" height="20.1" stroke="black" width="12" x="585" y="745.5"/>
  <text x="585" y="770.6" font-family="Tahoma" font-size="12" transform="rotate(90 585,770.6)" text-rendering="optimizeSpeed" fill="#000000">Mac OS X (i386) (201)</text>
  <rect fill="blue" height="20.9" stroke="black" width="12" x="600" y="744.7"/>
  <text x="600" y="770.6" font-family="Tahoma" font-size="12" transform="rotate(90 600,770.6)" text-rendering="optimizeSpeed" fill="#000000">Windows 2003 (amd64) (209)</text>
  <rect fill="blue" height="21.3" stroke="black" width="12" x="615" y="744.3"/>
  <text x="615" y="770.6" font-family="Tahoma" font-size="12" transform="rotate(90 615,770.6)" text-rendering="optimizeSpeed" fill="#000000">Windows Server 2008 (x86) (213)</text>
  <rect fill="blue" height="48.6" stroke="black" width="12" x="630" y="717.0"/>
  <text x="630" y="770.6" font-family="Tahoma" font-size="12" transform="rotate(90 630,770.6)" text-rendering="optimizeSpeed" fill="#000000">SunOS (x86) (486)</text>
  <rect fill="blue" height="58.0" stroke="black" width="12" x="645" y="707.6"/>
  <text x="645" y="770.6" font-family="Tahoma" font-size="12" transform="rotate(90 645,770.6)" text-rendering="optimizeSpeed" fill="#000000">SunOS (sparc) (580)</text>
  <rect fill="blue" height="244.1" stroke="black" width="12" x="660" y="521.5"/>
  <text x="660" y="770.6" font-family="Tahoma" font-size="12" transform="rotate(90 660,770.6)" text-rendering="optimizeSpeed" fill="#000000">Windows 2003 (x86) (2441)</text>
  <rect fill="blue" height="272.0" stroke="black" width="12" x="675" y="493.6"/>
  <text x="675" y="770.6" font-family="Tahoma" font-size="12" transform="rotate(90 675,770.6)" text-rendering="optimizeSpeed" fill="#000000">Windows XP (x86) (2720)</text>
  <rect fill="blue" height="339.1" stroke="black" width="12" x="690" y="426.5"/>
  <text x="690" y="770.6" font-family="Tahoma" font-size="12" transform="rotate(90 690,770.6)" text-rendering="optimizeSpeed" fill="#000000">Linux (amd64) (3391)</text>
  <rect fill="blue" height="577.9" stroke="black" width="12" x="705" y="187.7"/>
  <text x="705" y="770.6" font-family="Tahoma" font-size="12" transform="rotate(90 705,770.6)" text-rendering="optimizeSpeed" fill="#000000">Linux (i386) (5779)</text>
  <rect fill="blue" height="715.6" stroke="black" width="12" x="720" y="50.0"/>
  <text x="720" y="770.6" font-family="Tahoma" font-size="12" transform="rotate(90 720,770.6)" text-rendering="optimizeSpeed" fill="#000000">N/A (7156)</text>
  <text x="10" y="40" font-family="Tahoma" font-size="20" text-rendering="optimizeSpeed" fill="#000000">Nodes (total: 24480)</text>
</svg>
