<svg xmlns="http://www.w3.org/2000/svg" version="1.1" preserveAspectRatio="xMidYMid meet" viewBox="0 0 1535 896.1">
  <rect fill="blue" height="56.8" stroke="black" width="12" x="15" y="539.3"/>
  <text x="15" y="601.1" font-family="Tahoma" font-size="12" transform="rotate(90 15,601.1)" text-rendering="optimizeSpeed" fill="#000000">0 (1420)</text>
  <rect fill="blue" height="100.6" stroke="black" width="12" x="30" y="495.6"/>
  <text x="30" y="601.1" font-family="Tahoma" font-size="12" transform="rotate(90 30,601.1)" text-rendering="optimizeSpeed" fill="#000000">1 (2514)</text>
  <rect fill="blue" height="546.1" stroke="black" width="12" x="45" y="50.0"/>
  <text x="45" y="601.1" font-family="Tahoma" font-size="12" transform="rotate(90 45,601.1)" text-rendering="optimizeSpeed" fill="#000000">2 (13653)</text>
  <rect fill="blue" height="44.4" stroke="black" width="12" x="60" y="551.7"/>
  <text x="60" y="601.1" font-family="Tahoma" font-size="12" transform="rotate(90 60,601.1)" text-rendering="optimizeSpeed" fill="#000000">3 (1111)</text>
  <rect fill="blue" height="45.2" stroke="black" width="12" x="75" y="550.9"/>
  <text x="75" y="601.1" font-family="Tahoma" font-size="12" transform="rotate(90 75,601.1)" text-rendering="optimizeSpeed" fill="#000000">4 (1130)</text>
  <rect fill="blue" height="25.9" stroke="black" width="12" x="90" y="570.2"/>
  <text x="90" y="601.1" font-family="Tahoma" font-size="12" transform="rotate(90 90,601.1)" text-rendering="optimizeSpeed" fill="#000000">5 (648)</text>
  <rect fill="blue" height="14.5" stroke="black" width="12" x="105" y="581.6"/>
  <text x="105" y="601.1" font-family="Tahoma" font-size="12" transform="rotate(90 105,601.1)" text-rendering="optimizeSpeed" fill="#000000">6 (363)</text>
  <rect fill="blue" height="7.1" stroke="black" width="12" x="120" y="589.0"/>
  <text x="120" y="601.1" font-family="Tahoma" font-size="12" transform="rotate(90 120,601.1)" text-rendering="optimizeSpeed" fill="#000000">7 (178)</text>
  <rect fill="blue" height="11.6" stroke="black" width="12" x="135" y="584.5"/>
  <text x="135" y="601.1" font-family="Tahoma" font-size="12" transform="rotate(90 135,601.1)" text-rendering="optimizeSpeed" fill="#000000">8 (290)</text>
  <rect fill="blue" height="5.3" stroke="black" width="12" x="150" y="590.8"/>
  <text x="150" y="601.1" font-family="Tahoma" font-size="12" transform="rotate(90 150,601.1)" text-rendering="optimizeSpeed" fill="#000000">9 (133)</text>
  <rect fill="blue" height="8.6" stroke="black" width="12" x="165" y="587.5"/>
  <text x="165" y="601.1" font-family="Tahoma" font-size="12" transform="rotate(90 165,601.1)" text-rendering="optimizeSpeed" fill="#000000">10 (216)</text>
  <rect fill="blue" height="3.5" stroke="black" width="12" x="180" y="592.6"/>
  <text x="180" y="601.1" font-family="Tahoma" font-size="12" transform="rotate(90 180,601.1)" text-rendering="optimizeSpeed" fill="#000000">11 (88)</text>
  <rect fill="blue" height="3.8" stroke="black" width="12" x="195" y="592.3"/>
  <text x="195" y="601.1" font-family="Tahoma" font-size="12" transform="rotate(90 195,601.1)" text-rendering="optimizeSpeed" fill="#000000">12 (95)</text>
  <rect fill="blue" height="2.2" stroke="black" width="12" x="210" y="593.9"/>
  <text x="210" y="601.1" font-family="Tahoma" font-size="12" transform="rotate(90 210,601.1)" text-rendering="optimizeSpeed" fill="#000000">13 (56)</text>
  <rect fill="blue" height="2.4" stroke="black" width="12" x="225" y="593.7"/>
  <text x="225" y="601.1" font-family="Tahoma" font-size="12" transform="rotate(90 225,601.1)" text-rendering="optimizeSpeed" fill="#000000">14 (60)</text>
  <rect fill="blue" height="2.3" stroke="black" width="12" x="240" y="593.8"/>
  <text x="240" y="601.1" font-family="Tahoma" font-size="12" transform="rotate(90 240,601.1)" text-rendering="optimizeSpeed" fill="#000000">15 (57)</text>
  <rect fill="blue" height="2.0" stroke="black" width="12" x="255" y="594.2"/>
  <text x="255" y="601.1" font-family="Tahoma" font-size="12" transform="rotate(90 255,601.1)" text-rendering="optimizeSpeed" fill="#000000">16 (49)</text>
  <rect fill="blue" height="1.2" stroke="black" width="12" x="270" y="594.9"/>
  <text x="270" y="601.1" font-family="Tahoma" font-size="12" transform="rotate(90 270,601.1)" text-rendering="optimizeSpeed" fill="#000000">17 (31)</text>
  <rect fill="blue" height="1.2" stroke="black" width="12" x="285" y="595.0"/>
  <text x="285" y="601.1" font-family="Tahoma" font-size="12" transform="rotate(90 285,601.1)" text-rendering="optimizeSpeed" fill="#000000">18 (29)</text>
  <rect fill="blue" height="1.2" stroke="black" width="12" x="300" y="594.9"/>
  <text x="300" y="601.1" font-family="Tahoma" font-size="12" transform="rotate(90 300,601.1)" text-rendering="optimizeSpeed" fill="#000000">19 (31)</text>
  <rect fill="blue" height="2.0" stroke="black" width="12" x="315" y="594.2"/>
  <text x="315" y="601.1" font-family="Tahoma" font-size="12" transform="rotate(90 315,601.1)" text-rendering="optimizeSpeed" fill="#000000">20 (49)</text>
  <rect fill="blue" height="0.6" stroke="black" width="12" x="330" y="595.5"/>
  <text x="330" y="601.1" font-family="Tahoma" font-size="12" transform="rotate(90 330,601.1)" text-rendering="optimizeSpeed" fill="#000000">21 (15)</text>
  <rect fill="blue" height="0.7" stroke="black" width="12" x="345" y="595.4"/>
  <text x="345" y="601.1" font-family="Tahoma" font-size="12" transform="rotate(90 345,601.1)" text-rendering="optimizeSpeed" fill="#000000">22 (17)</text>
  <rect fill="blue" height="0.6" stroke="black" width="12" x="360" y="595.5"/>
  <text x="360" y="601.1" font-family="Tahoma" font-size="12" transform="rotate(90 360,601.1)" text-rendering="optimizeSpeed" fill="#000000">23 (16)</text>
  <rect fill="blue" height="0.7" stroke="black" width="12" x="375" y="595.4"/>
  <text x="375" y="601.1" font-family="Tahoma" font-size="12" transform="rotate(90 375,601.1)" text-rendering="optimizeSpeed" fill="#000000">24 (17)</text>
  <rect fill="blue" height="0.5" stroke="black" width="12" x="390" y="595.6"/>
  <text x="390" y="601.1" font-family="Tahoma" font-size="12" transform="rotate(90 390,601.1)" text-rendering="optimizeSpeed" fill="#000000">25 (13)</text>
  <rect fill="blue" height="0.7" stroke="black" width="12" x="405" y="595.4"/>
  <text x="405" y="601.1" font-family="Tahoma" font-size="12" transform="rotate(90 405,601.1)" text-rendering="optimizeSpeed" fill="#000000">26 (17)</text>
  <rect fill="blue" height="0.5" stroke="black" width="12" x="420" y="595.6"/>
  <text x="420" y="601.1" font-family="Tahoma" font-size="12" transform="rotate(90 420,601.1)" text-rendering="optimizeSpeed" fill="#000000">27 (13)</text>
  <rect fill="blue" height="0.7" stroke="black" width="12" x="435" y="595.4"/>
  <text x="435" y="601.1" font-family="Tahoma" font-size="12" transform="rotate(90 435,601.1)" text-rendering="optimizeSpeed" fill="#000000">28 (17)</text>
  <rect fill="blue" height="0.2" stroke="black" width="12" x="450" y="595.9"/>
  <text x="450" y="601.1" font-family="Tahoma" font-size="12" transform="rotate(90 450,601.1)" text-rendering="optimizeSpeed" fill="#000000">29 (5)</text>
  <rect fill="blue" height="0.5" stroke="black" width="12" x="465" y="595.6"/>
  <text x="465" y="601.1" font-family="Tahoma" font-size="12" transform="rotate(90 465,601.1)" text-rendering="optimizeSpeed" fill="#000000">30 (12)</text>
  <rect fill="blue" height="0.2" stroke="black" width="12" x="480" y="596.0"/>
  <text x="480" y="601.1" font-family="Tahoma" font-size="12" transform="rotate(90 480,601.1)" text-rendering="optimizeSpeed" fill="#000000">31 (4)</text>
  <rect fill="blue" height="0.4" stroke="black" width="12" x="495" y="595.7"/>
  <text x="495" y="601.1" font-family="Tahoma" font-size="12" transform="rotate(90 495,601.1)" text-rendering="optimizeSpeed" fill="#000000">32 (10)</text>
  <rect fill="blue" height="0.1" stroke="black" width="12" x="510" y="596.0"/>
  <text x="510" y="601.1" font-family="Tahoma" font-size="12" transform="rotate(90 510,601.1)" text-rendering="optimizeSpeed" fill="#000000">33 (3)</text>
  <rect fill="blue" height="0.2" stroke="black" width="12" x="525" y="596.0"/>
  <text x="525" y="601.1" font-family="Tahoma" font-size="12" transform="rotate(90 525,601.1)" text-rendering="optimizeSpeed" fill="#000000">34 (4)</text>
  <rect fill="blue" height="0.2" stroke="black" width="12" x="540" y="595.9"/>
  <text x="540" y="601.1" font-family="Tahoma" font-size="12" transform="rotate(90 540,601.1)" text-rendering="optimizeSpeed" fill="#000000">35 (5)</text>
  <rect fill="blue" height="0.2" stroke="black" width="12" x="555" y="596.0"/>
  <text x="555" y="601.1" font-family="Tahoma" font-size="12" transform="rotate(90 555,601.1)" text-rendering="optimizeSpeed" fill="#000000">36 (4)</text>
  <rect fill="blue" height="0.2" stroke="black" width="12" x="570" y="596.0"/>
  <text x="570" y="601.1" font-family="Tahoma" font-size="12" transform="rotate(90 570,601.1)" text-rendering="optimizeSpeed" fill="#000000">37 (4)</text>
  <rect fill="blue" height="0.2" stroke="black" width="12" x="585" y="596.0"/>
  <text x="585" y="601.1" font-family="Tahoma" font-size="12" transform="rotate(90 585,601.1)" text-rendering="optimizeSpeed" fill="#000000">38 (4)</text>
  <rect fill="blue" height="0.1" stroke="black" width="12" x="600" y="596.0"/>
  <text x="600" y="601.1" font-family="Tahoma" font-size="12" transform="rotate(90 600,601.1)" text-rendering="optimizeSpeed" fill="#000000">39 (3)</text>
  <rect fill="blue" height="0.4" stroke="black" width="12" x="615" y="595.7"/>
  <text x="615" y="601.1" font-family="Tahoma" font-size="12" transform="rotate(90 615,601.1)" text-rendering="optimizeSpeed" fill="#000000">40 (10)</text>
  <rect fill="blue" height="0.1" stroke="black" width="12" x="630" y="596.0"/>
  <text x="630" y="601.1" font-family="Tahoma" font-size="12" transform="rotate(90 630,601.1)" text-rendering="optimizeSpeed" fill="#000000">41 (2)</text>
  <rect fill="blue" height="0.4" stroke="black" width="12" x="645" y="595.8"/>
  <text x="645" y="601.1" font-family="Tahoma" font-size="12" transform="rotate(90 645,601.1)" text-rendering="optimizeSpeed" fill="#000000">42 (9)</text>
  <rect fill="blue" height="0.2" stroke="black" width="12" x="660" y="596.0"/>
  <text x="660" y="601.1" font-family="Tahoma" font-size="12" transform="rotate(90 660,601.1)" text-rendering="optimizeSpeed" fill="#000000">43 (4)</text>
  <rect fill="blue" height="0.2" stroke="black" width="12" x="675" y="596.0"/>
  <text x="675" y="601.1" font-family="Tahoma" font-size="12" transform="rotate(90 675,601.1)" text-rendering="optimizeSpeed" fill="#000000">44 (4)</text>
  <rect fill="blue" height="0.0" stroke="black" width="12" x="690" y="596.1"/>
  <text x="690" y="601.1" font-family="Tahoma" font-size="12" transform="rotate(90 690,601.1)" text-rendering="optimizeSpeed" fill="#000000">45 (1)</text>
  <rect fill="blue" height="0.1" stroke="black" width="12" x="705" y="596.0"/>
  <text x="705" y="601.1" font-family="Tahoma" font-size="12" transform="rotate(90 705,601.1)" text-rendering="optimizeSpeed" fill="#000000">46 (2)</text>
  <rect fill="blue" height="0.1" stroke="black" width="12" x="720" y="596.0"/>
  <text x="720" y="601.1" font-family="Tahoma" font-size="12" transform="rotate(90 720,601.1)" text-rendering="optimizeSpeed" fill="#000000">47 (2)</text>
  <rect fill="blue" height="0.2" stroke="black" width="12" x="735" y="595.9"/>
  <text x="735" y="601.1" font-family="Tahoma" font-size="12" transform="rotate(90 735,601.1)" text-rendering="optimizeSpeed" fill="#000000">48 (5)</text>
  <rect fill="blue" height="0.1" stroke="black" width="12" x="750" y="596.0"/>
  <text x="750" y="601.1" font-family="Tahoma" font-size="12" transform="rotate(90 750,601.1)" text-rendering="optimizeSpeed" fill="#000000">50 (2)</text>
  <rect fill="blue" height="0.1" stroke="black" width="12" x="765" y="596.0"/>
  <text x="765" y="601.1" font-family="Tahoma" font-size="12" transform="rotate(90 765,601.1)" text-rendering="optimizeSpeed" fill="#000000">51 (3)</text>
  <rect fill="blue" height="0.0" stroke="black" width="12" x="780" y="596.1"/>
  <text x="780" y="601.1" font-family="Tahoma" font-size="12" transform="rotate(90 780,601.1)" text-rendering="optimizeSpeed" fill="#000000">52 (1)</text>
  <rect fill="blue" height="0.1" stroke="black" width="12" x="795" y="596.0"/>
  <text x="795" y="601.1" font-family="Tahoma" font-size="12" transform="rotate(90 795,601.1)" text-rendering="optimizeSpeed" fill="#000000">53 (2)</text>
  <rect fill="blue" height="0.1" stroke="black" width="12" x="810" y="596.0"/>
  <text x="810" y="601.1" font-family="Tahoma" font-size="12" transform="rotate(90 810,601.1)" text-rendering="optimizeSpeed" fill="#000000">54 (3)</text>
  <rect fill="blue" height="0.0" stroke="black" width="12" x="825" y="596.1"/>
  <text x="825" y="601.1" font-family="Tahoma" font-size="12" transform="rotate(90 825,601.1)" text-rendering="optimizeSpeed" fill="#000000">55 (1)</text>
  <rect fill="blue" height="0.1" stroke="black" width="12" x="840" y="596.0"/>
  <text x="840" y="601.1" font-family="Tahoma" font-size="12" transform="rotate(90 840,601.1)" text-rendering="optimizeSpeed" fill="#000000">56 (3)</text>
  <rect fill="blue" height="0.2" stroke="black" width="12" x="855" y="595.9"/>
  <text x="855" y="601.1" font-family="Tahoma" font-size="12" transform="rotate(90 855,601.1)" text-rendering="optimizeSpeed" fill="#000000">57 (6)</text>
  <rect fill="blue" height="0.1" stroke="black" width="12" x="870" y="596.0"/>
  <text x="870" y="601.1" font-family="Tahoma" font-size="12" transform="rotate(90 870,601.1)" text-rendering="optimizeSpeed" fill="#000000">58 (2)</text>
  <rect fill="blue" height="0.1" stroke="black" width="12" x="885" y="596.0"/>
  <text x="885" y="601.1" font-family="Tahoma" font-size="12" transform="rotate(90 885,601.1)" text-rendering="optimizeSpeed" fill="#000000">59 (2)</text>
  <rect fill="blue" height="0.2" stroke="black" width="12" x="900" y="596.0"/>
  <text x="900" y="601.1" font-family="Tahoma" font-size="12" transform="rotate(90 900,601.1)" text-rendering="optimizeSpeed" fill="#000000">60 (4)</text>
  <rect fill="blue" height="0.1" stroke="black" width="12" x="915" y="596.0"/>
  <text x="915" y="601.1" font-family="Tahoma" font-size="12" transform="rotate(90 915,601.1)" text-rendering="optimizeSpeed" fill="#000000">61 (2)</text>
  <rect fill="blue" height="0.2" stroke="black" width="12" x="930" y="596.0"/>
  <text x="930" y="601.1" font-family="Tahoma" font-size="12" transform="rotate(90 930,601.1)" text-rendering="optimizeSpeed" fill="#000000">62 (4)</text>
  <rect fill="blue" height="0.0" stroke="black" width="12" x="945" y="596.1"/>
  <text x="945" y="601.1" font-family="Tahoma" font-size="12" transform="rotate(90 945,601.1)" text-rendering="optimizeSpeed" fill="#000000">63 (1)</text>
  <rect fill="blue" height="0.0" stroke="black" width="12" x="960" y="596.1"/>
  <text x="960" y="601.1" font-family="Tahoma" font-size="12" transform="rotate(90 960,601.1)" text-rendering="optimizeSpeed" fill="#000000">64 (1)</text>
  <rect fill="blue" height="0.0" stroke="black" width="12" x="975" y="596.1"/>
  <text x="975" y="601.1" font-family="Tahoma" font-size="12" transform="rotate(90 975,601.1)" text-rendering="optimizeSpeed" fill="#000000">67 (1)</text>
  <rect fill="blue" height="0.1" stroke="black" width="12" x="990" y="596.0"/>
  <text x="990" y="601.1" font-family="Tahoma" font-size="12" transform="rotate(90 990,601.1)" text-rendering="optimizeSpeed" fill="#000000">68 (2)</text>
  <rect fill="blue" height="0.1" stroke="black" width="12" x="1005" y="596.0"/>
  <text x="1005" y="601.1" font-family="Tahoma" font-size="12" transform="rotate(90 1005,601.1)" text-rendering="optimizeSpeed" fill="#000000">69 (3)</text>
  <rect fill="blue" height="0.0" stroke="black" width="12" x="1020" y="596.1"/>
  <text x="1020" y="601.1" font-family="Tahoma" font-size="12" transform="rotate(90 1020,601.1)" text-rendering="optimizeSpeed" fill="#000000">70 (1)</text>
  <rect fill="blue" height="0.0" stroke="black" width="12" x="1035" y="596.1"/>
  <text x="1035" y="601.1" font-family="Tahoma" font-size="12" transform="rotate(90 1035,601.1)" text-rendering="optimizeSpeed" fill="#000000">71 (1)</text>
  <rect fill="blue" height="0.1" stroke="black" width="12" x="1050" y="596.0"/>
  <text x="1050" y="601.1" font-family="Tahoma" font-size="12" transform="rotate(90 1050,601.1)" text-rendering="optimizeSpeed" fill="#000000">72 (2)</text>
  <rect fill="blue" height="0.0" stroke="black" width="12" x="1065" y="596.1"/>
  <text x="1065" y="601.1" font-family="Tahoma" font-size="12" transform="rotate(90 1065,601.1)" text-rendering="optimizeSpeed" fill="#000000">73 (1)</text>
  <rect fill="blue" height="0.0" stroke="black" width="12" x="1080" y="596.1"/>
  <text x="1080" y="601.1" font-family="Tahoma" font-size="12" transform="rotate(90 1080,601.1)" text-rendering="optimizeSpeed" fill="#000000">74 (1)</text>
  <rect fill="blue" height="0.1" stroke="black" width="12" x="1095" y="596.0"/>
  <text x="1095" y="601.1" font-family="Tahoma" font-size="12" transform="rotate(90 1095,601.1)" text-rendering="optimizeSpeed" fill="#000000">75 (2)</text>
  <rect fill="blue" height="0.0" stroke="black" width="12" x="1110" y="596.1"/>
  <text x="1110" y="601.1" font-family="Tahoma" font-size="12" transform="rotate(90 1110,601.1)" text-rendering="optimizeSpeed" fill="#000000">76 (1)</text>
  <rect fill="blue" height="0.0" stroke="black" width="12" x="1125" y="596.1"/>
  <text x="1125" y="601.1" font-family="Tahoma" font-size="12" transform="rotate(90 1125,601.1)" text-rendering="optimizeSpeed" fill="#000000">77 (1)</text>
  <rect fill="blue" height="0.0" stroke="black" width="12" x="1140" y="596.1"/>
  <text x="1140" y="601.1" font-family="Tahoma" font-size="12" transform="rotate(90 1140,601.1)" text-rendering="optimizeSpeed" fill="#000000">78 (1)</text>
  <rect fill="blue" height="0.0" stroke="black" width="12" x="1155" y="596.1"/>
  <text x="1155" y="601.1" font-family="Tahoma" font-size="12" transform="rotate(90 1155,601.1)" text-rendering="optimizeSpeed" fill="#000000">80 (1)</text>
  <rect fill="blue" height="0.1" stroke="black" width="12" x="1170" y="596.0"/>
  <text x="1170" y="601.1" font-family="Tahoma" font-size="12" transform="rotate(90 1170,601.1)" text-rendering="optimizeSpeed" fill="#000000">81 (2)</text>
  <rect fill="blue" height="0.0" stroke="black" width="12" x="1185" y="596.1"/>
  <text x="1185" y="601.1" font-family="Tahoma" font-size="12" transform="rotate(90 1185,601.1)" text-rendering="optimizeSpeed" fill="#000000">82 (1)</text>
  <rect fill="blue" height="0.0" stroke="black" width="12" x="1200" y="596.1"/>
  <text x="1200" y="601.1" font-family="Tahoma" font-size="12" transform="rotate(90 1200,601.1)" text-rendering="optimizeSpeed" fill="#000000">83 (1)</text>
  <rect fill="blue" height="0.0" stroke="black" width="12" x="1215" y="596.1"/>
  <text x="1215" y="601.1" font-family="Tahoma" font-size="12" transform="rotate(90 1215,601.1)" text-rendering="optimizeSpeed" fill="#000000">86 (1)</text>
  <rect fill="blue" height="0.0" stroke="black" width="12" x="1230" y="596.1"/>
  <text x="1230" y="601.1" font-family="Tahoma" font-size="12" transform="rotate(90 1230,601.1)" text-rendering="optimizeSpeed" fill="#000000">87 (1)</text>
  <rect fill="blue" height="0.0" stroke="black" width="12" x="1245" y="596.1"/>
  <text x="1245" y="601.1" font-family="Tahoma" font-size="12" transform="rotate(90 1245,601.1)" text-rendering="optimizeSpeed" fill="#000000">92 (1)</text>
  <rect fill="blue" height="0.0" stroke="black" width="12" x="1260" y="596.1"/>
  <text x="1260" y="601.1" font-family="Tahoma" font-size="12" transform="rotate(90 1260,601.1)" text-rendering="optimizeSpeed" fill="#000000">93 (1)</text>
  <rect fill="blue" height="0.0" stroke="black" width="12" x="1275" y="596.1"/>
  <text x="1275" y="601.1" font-family="Tahoma" font-size="12" transform="rotate(90 1275,601.1)" text-rendering="optimizeSpeed" fill="#000000">95 (1)</text>
  <rect fill="blue" height="0.2" stroke="black" width="12" x="1290" y="596.0"/>
  <text x="1290" y="601.1" font-family="Tahoma" font-size="12" transform="rotate(90 1290,601.1)" text-rendering="optimizeSpeed" fill="#000000">100 (4)</text>
  <rect fill="blue" height="0.0" stroke="black" width="12" x="1305" y="596.1"/>
  <text x="1305" y="601.1" font-family="Tahoma" font-size="12" transform="rotate(90 1305,601.1)" text-rendering="optimizeSpeed" fill="#000000">101 (1)</text>
  <rect fill="blue" height="0.0" stroke="black" width="12" x="1320" y="596.1"/>
  <text x="1320" y="601.1" font-family="Tahoma" font-size="12" transform="rotate(90 1320,601.1)" text-rendering="optimizeSpeed" fill="#000000">106 (1)</text>
  <rect fill="blue" height="0.0" stroke="black" width="12" x="1335" y="596.1"/>
  <text x="1335" y="601.1" font-family="Tahoma" font-size="12" transform="rotate(90 1335,601.1)" text-rendering="optimizeSpeed" fill="#000000">111 (1)</text>
  <rect fill="blue" height="0.1" stroke="black" width="12" x="1350" y="596.0"/>
  <text x="1350" y="601.1" font-family="Tahoma" font-size="12" transform="rotate(90 1350,601.1)" text-rendering="optimizeSpeed" fill="#000000">113 (2)</text>
  <rect fill="blue" height="0.0" stroke="black" width="12" x="1365" y="596.1"/>
  <text x="1365" y="601.1" font-family="Tahoma" font-size="12" transform="rotate(90 1365,601.1)" text-rendering="optimizeSpeed" fill="#000000">117 (1)</text>
  <rect fill="blue" height="0.0" stroke="black" width="12" x="1380" y="596.1"/>
  <text x="1380" y="601.1" font-family="Tahoma" font-size="12" transform="rotate(90 1380,601.1)" text-rendering="optimizeSpeed" fill="#000000">124 (1)</text>
  <rect fill="blue" height="0.0" stroke="black" width="12" x="1395" y="596.1"/>
  <text x="1395" y="601.1" font-family="Tahoma" font-size="12" transform="rotate(90 1395,601.1)" text-rendering="optimizeSpeed" fill="#000000">125 (1)</text>
  <rect fill="blue" height="0.0" stroke="black" width="12" x="1410" y="596.1"/>
  <text x="1410" y="601.1" font-family="Tahoma" font-size="12" transform="rotate(90 1410,601.1)" text-rendering="optimizeSpeed" fill="#000000">127 (1)</text>
  <rect fill="blue" height="0.0" stroke="black" width="12" x="1425" y="596.1"/>
  <text x="1425" y="601.1" font-family="Tahoma" font-size="12" transform="rotate(90 1425,601.1)" text-rendering="optimizeSpeed" fill="#000000">134 (1)</text>
  <rect fill="blue" height="0.0" stroke="black" width="12" x="1440" y="596.1"/>
  <text x="1440" y="601.1" font-family="Tahoma" font-size="12" transform="rotate(90 1440,601.1)" text-rendering="optimizeSpeed" fill="#000000">151 (1)</text>
  <rect fill="blue" height="0.0" stroke="black" width="12" x="1455" y="596.1"/>
  <text x="1455" y="601.1" font-family="Tahoma" font-size="12" transform="rotate(90 1455,601.1)" text-rendering="optimizeSpeed" fill="#000000">167 (1)</text>
  <rect fill="blue" height="0.0" stroke="black" width="12" x="1470" y="596.1"/>
  <text x="1470" y="601.1" font-family="Tahoma" font-size="12" transform="rotate(90 1470,601.1)" text-rendering="optimizeSpeed" fill="#000000">170 (1)</text>
  <rect fill="blue" height="0.0" stroke="black" width="12" x="1485" y="596.1"/>
  <text x="1485" y="601.1" font-family="Tahoma" font-size="12" transform="rotate(90 1485,601.1)" text-rendering="optimizeSpeed" fill="#000000">250 (1)</text>
  <text x="10" y="40" font-family="Tahoma" font-size="20" text-rendering="optimizeSpeed" fill="#000000">Executors per install (total: 22505)</text>
</svg>
