<svg xmlns="http://www.w3.org/2000/svg" version="1.1" preserveAspectRatio="xMidYMid meet" viewBox="0 0 1355 869.2">
  <rect fill="blue" height="29.9" stroke="black" width="12" x="15" y="539.3"/>
  <text x="15" y="574.2" font-family="Tahoma" font-size="12" transform="rotate(90 15,574.2)" text-rendering="optimizeSpeed" fill="#000000">0 (748)</text>
  <rect fill="blue" height="91.9" stroke="black" width="12" x="30" y="477.3"/>
  <text x="30" y="574.2" font-family="Tahoma" font-size="12" transform="rotate(90 30,574.2)" text-rendering="optimizeSpeed" fill="#000000">1 (2298)</text>
  <rect fill="blue" height="519.2" stroke="black" width="12" x="45" y="50.0"/>
  <text x="45" y="574.2" font-family="Tahoma" font-size="12" transform="rotate(90 45,574.2)" text-rendering="optimizeSpeed" fill="#000000">2 (12981)</text>
  <rect fill="blue" height="40.6" stroke="black" width="12" x="60" y="528.6"/>
  <text x="60" y="574.2" font-family="Tahoma" font-size="12" transform="rotate(90 60,574.2)" text-rendering="optimizeSpeed" fill="#000000">3 (1016)</text>
  <rect fill="blue" height="42.4" stroke="black" width="12" x="75" y="526.8"/>
  <text x="75" y="574.2" font-family="Tahoma" font-size="12" transform="rotate(90 75,574.2)" text-rendering="optimizeSpeed" fill="#000000">4 (1060)</text>
  <rect fill="blue" height="21.5" stroke="black" width="12" x="90" y="547.8"/>
  <text x="90" y="574.2" font-family="Tahoma" font-size="12" transform="rotate(90 90,574.2)" text-rendering="optimizeSpeed" fill="#000000">5 (537)</text>
  <rect fill="blue" height="13.0" stroke="black" width="12" x="105" y="556.2"/>
  <text x="105" y="574.2" font-family="Tahoma" font-size="12" transform="rotate(90 105,574.2)" text-rendering="optimizeSpeed" fill="#000000">6 (326)</text>
  <rect fill="blue" height="6.5" stroke="black" width="12" x="120" y="562.7"/>
  <text x="120" y="574.2" font-family="Tahoma" font-size="12" transform="rotate(90 120,574.2)" text-rendering="optimizeSpeed" fill="#000000">7 (163)</text>
  <rect fill="blue" height="9.8" stroke="black" width="12" x="135" y="559.4"/>
  <text x="135" y="574.2" font-family="Tahoma" font-size="12" transform="rotate(90 135,574.2)" text-rendering="optimizeSpeed" fill="#000000">8 (245)</text>
  <rect fill="blue" height="4.0" stroke="black" width="12" x="150" y="565.2"/>
  <text x="150" y="574.2" font-family="Tahoma" font-size="12" transform="rotate(90 150,574.2)" text-rendering="optimizeSpeed" fill="#000000">9 (101)</text>
  <rect fill="blue" height="7.2" stroke="black" width="12" x="165" y="562.1"/>
  <text x="165" y="574.2" font-family="Tahoma" font-size="12" transform="rotate(90 165,574.2)" text-rendering="optimizeSpeed" fill="#000000">10 (179)</text>
  <rect fill="blue" height="2.8" stroke="black" width="12" x="180" y="566.4"/>
  <text x="180" y="574.2" font-family="Tahoma" font-size="12" transform="rotate(90 180,574.2)" text-rendering="optimizeSpeed" fill="#000000">11 (70)</text>
  <rect fill="blue" height="2.8" stroke="black" width="12" x="195" y="566.5"/>
  <text x="195" y="574.2" font-family="Tahoma" font-size="12" transform="rotate(90 195,574.2)" text-rendering="optimizeSpeed" fill="#000000">12 (69)</text>
  <rect fill="blue" height="1.9" stroke="black" width="12" x="210" y="567.3"/>
  <text x="210" y="574.2" font-family="Tahoma" font-size="12" transform="rotate(90 210,574.2)" text-rendering="optimizeSpeed" fill="#000000">13 (48)</text>
  <rect fill="blue" height="2.0" stroke="black" width="12" x="225" y="567.3"/>
  <text x="225" y="574.2" font-family="Tahoma" font-size="12" transform="rotate(90 225,574.2)" text-rendering="optimizeSpeed" fill="#000000">14 (49)</text>
  <rect fill="blue" height="1.8" stroke="black" width="12" x="240" y="567.4"/>
  <text x="240" y="574.2" font-family="Tahoma" font-size="12" transform="rotate(90 240,574.2)" text-rendering="optimizeSpeed" fill="#000000">15 (45)</text>
  <rect fill="blue" height="1.6" stroke="black" width="12" x="255" y="567.6"/>
  <text x="255" y="574.2" font-family="Tahoma" font-size="12" transform="rotate(90 255,574.2)" text-rendering="optimizeSpeed" fill="#000000">16 (40)</text>
  <rect fill="blue" height="1.1" stroke="black" width="12" x="270" y="568.2"/>
  <text x="270" y="574.2" font-family="Tahoma" font-size="12" transform="rotate(90 270,574.2)" text-rendering="optimizeSpeed" fill="#000000">17 (27)</text>
  <rect fill="blue" height="1.0" stroke="black" width="12" x="285" y="568.2"/>
  <text x="285" y="574.2" font-family="Tahoma" font-size="12" transform="rotate(90 285,574.2)" text-rendering="optimizeSpeed" fill="#000000">18 (26)</text>
  <rect fill="blue" height="0.9" stroke="black" width="12" x="300" y="568.3"/>
  <text x="300" y="574.2" font-family="Tahoma" font-size="12" transform="rotate(90 300,574.2)" text-rendering="optimizeSpeed" fill="#000000">19 (23)</text>
  <rect fill="blue" height="1.6" stroke="black" width="12" x="315" y="567.7"/>
  <text x="315" y="574.2" font-family="Tahoma" font-size="12" transform="rotate(90 315,574.2)" text-rendering="optimizeSpeed" fill="#000000">20 (39)</text>
  <rect fill="blue" height="0.5" stroke="black" width="12" x="330" y="568.8"/>
  <text x="330" y="574.2" font-family="Tahoma" font-size="12" transform="rotate(90 330,574.2)" text-rendering="optimizeSpeed" fill="#000000">21 (12)</text>
  <rect fill="blue" height="1.0" stroke="black" width="12" x="345" y="568.3"/>
  <text x="345" y="574.2" font-family="Tahoma" font-size="12" transform="rotate(90 345,574.2)" text-rendering="optimizeSpeed" fill="#000000">22 (24)</text>
  <rect fill="blue" height="0.6" stroke="black" width="12" x="360" y="568.7"/>
  <text x="360" y="574.2" font-family="Tahoma" font-size="12" transform="rotate(90 360,574.2)" text-rendering="optimizeSpeed" fill="#000000">23 (14)</text>
  <rect fill="blue" height="0.8" stroke="black" width="12" x="375" y="568.4"/>
  <text x="375" y="574.2" font-family="Tahoma" font-size="12" transform="rotate(90 375,574.2)" text-rendering="optimizeSpeed" fill="#000000">24 (21)</text>
  <rect fill="blue" height="0.2" stroke="black" width="12" x="390" y="569.0"/>
  <text x="390" y="574.2" font-family="Tahoma" font-size="12" transform="rotate(90 390,574.2)" text-rendering="optimizeSpeed" fill="#000000">25 (6)</text>
  <rect fill="blue" height="0.6" stroke="black" width="12" x="405" y="568.6"/>
  <text x="405" y="574.2" font-family="Tahoma" font-size="12" transform="rotate(90 405,574.2)" text-rendering="optimizeSpeed" fill="#000000">26 (15)</text>
  <rect fill="blue" height="0.2" stroke="black" width="12" x="420" y="569.0"/>
  <text x="420" y="574.2" font-family="Tahoma" font-size="12" transform="rotate(90 420,574.2)" text-rendering="optimizeSpeed" fill="#000000">27 (5)</text>
  <rect fill="blue" height="0.3" stroke="black" width="12" x="435" y="568.9"/>
  <text x="435" y="574.2" font-family="Tahoma" font-size="12" transform="rotate(90 435,574.2)" text-rendering="optimizeSpeed" fill="#000000">28 (8)</text>
  <rect fill="blue" height="0.1" stroke="black" width="12" x="450" y="569.1"/>
  <text x="450" y="574.2" font-family="Tahoma" font-size="12" transform="rotate(90 450,574.2)" text-rendering="optimizeSpeed" fill="#000000">29 (3)</text>
  <rect fill="blue" height="0.5" stroke="black" width="12" x="465" y="568.8"/>
  <text x="465" y="574.2" font-family="Tahoma" font-size="12" transform="rotate(90 465,574.2)" text-rendering="optimizeSpeed" fill="#000000">30 (12)</text>
  <rect fill="blue" height="0.0" stroke="black" width="12" x="480" y="569.2"/>
  <text x="480" y="574.2" font-family="Tahoma" font-size="12" transform="rotate(90 480,574.2)" text-rendering="optimizeSpeed" fill="#000000">31 (1)</text>
  <rect fill="blue" height="0.3" stroke="black" width="12" x="495" y="568.9"/>
  <text x="495" y="574.2" font-family="Tahoma" font-size="12" transform="rotate(90 495,574.2)" text-rendering="optimizeSpeed" fill="#000000">32 (8)</text>
  <rect fill="blue" height="0.1" stroke="black" width="12" x="510" y="569.2"/>
  <text x="510" y="574.2" font-family="Tahoma" font-size="12" transform="rotate(90 510,574.2)" text-rendering="optimizeSpeed" fill="#000000">33 (2)</text>
  <rect fill="blue" height="0.2" stroke="black" width="12" x="525" y="569.1"/>
  <text x="525" y="574.2" font-family="Tahoma" font-size="12" transform="rotate(90 525,574.2)" text-rendering="optimizeSpeed" fill="#000000">34 (4)</text>
  <rect fill="blue" height="0.2" stroke="black" width="12" x="540" y="569.1"/>
  <text x="540" y="574.2" font-family="Tahoma" font-size="12" transform="rotate(90 540,574.2)" text-rendering="optimizeSpeed" fill="#000000">35 (4)</text>
  <rect fill="blue" height="0.3" stroke="black" width="12" x="555" y="568.9"/>
  <text x="555" y="574.2" font-family="Tahoma" font-size="12" transform="rotate(90 555,574.2)" text-rendering="optimizeSpeed" fill="#000000">36 (8)</text>
  <rect fill="blue" height="0.2" stroke="black" width="12" x="570" y="569.1"/>
  <text x="570" y="574.2" font-family="Tahoma" font-size="12" transform="rotate(90 570,574.2)" text-rendering="optimizeSpeed" fill="#000000">37 (4)</text>
  <rect fill="blue" height="0.1" stroke="black" width="12" x="585" y="569.2"/>
  <text x="585" y="574.2" font-family="Tahoma" font-size="12" transform="rotate(90 585,574.2)" text-rendering="optimizeSpeed" fill="#000000">38 (2)</text>
  <rect fill="blue" height="0.1" stroke="black" width="12" x="600" y="569.2"/>
  <text x="600" y="574.2" font-family="Tahoma" font-size="12" transform="rotate(90 600,574.2)" text-rendering="optimizeSpeed" fill="#000000">39 (2)</text>
  <rect fill="blue" height="0.2" stroke="black" width="12" x="615" y="569.0"/>
  <text x="615" y="574.2" font-family="Tahoma" font-size="12" transform="rotate(90 615,574.2)" text-rendering="optimizeSpeed" fill="#000000">40 (5)</text>
  <rect fill="blue" height="0.0" stroke="black" width="12" x="630" y="569.2"/>
  <text x="630" y="574.2" font-family="Tahoma" font-size="12" transform="rotate(90 630,574.2)" text-rendering="optimizeSpeed" fill="#000000">41 (1)</text>
  <rect fill="blue" height="0.1" stroke="black" width="12" x="645" y="569.2"/>
  <text x="645" y="574.2" font-family="Tahoma" font-size="12" transform="rotate(90 645,574.2)" text-rendering="optimizeSpeed" fill="#000000">42 (2)</text>
  <rect fill="blue" height="0.2" stroke="black" width="12" x="660" y="569.0"/>
  <text x="660" y="574.2" font-family="Tahoma" font-size="12" transform="rotate(90 660,574.2)" text-rendering="optimizeSpeed" fill="#000000">44 (5)</text>
  <rect fill="blue" height="0.0" stroke="black" width="12" x="675" y="569.2"/>
  <text x="675" y="574.2" font-family="Tahoma" font-size="12" transform="rotate(90 675,574.2)" text-rendering="optimizeSpeed" fill="#000000">45 (1)</text>
  <rect fill="blue" height="0.1" stroke="black" width="12" x="690" y="569.2"/>
  <text x="690" y="574.2" font-family="Tahoma" font-size="12" transform="rotate(90 690,574.2)" text-rendering="optimizeSpeed" fill="#000000">46 (2)</text>
  <rect fill="blue" height="0.0" stroke="black" width="12" x="705" y="569.2"/>
  <text x="705" y="574.2" font-family="Tahoma" font-size="12" transform="rotate(90 705,574.2)" text-rendering="optimizeSpeed" fill="#000000">47 (1)</text>
  <rect fill="blue" height="0.1" stroke="black" width="12" x="720" y="569.1"/>
  <text x="720" y="574.2" font-family="Tahoma" font-size="12" transform="rotate(90 720,574.2)" text-rendering="optimizeSpeed" fill="#000000">48 (3)</text>
  <rect fill="blue" height="0.0" stroke="black" width="12" x="735" y="569.2"/>
  <text x="735" y="574.2" font-family="Tahoma" font-size="12" transform="rotate(90 735,574.2)" text-rendering="optimizeSpeed" fill="#000000">49 (1)</text>
  <rect fill="blue" height="0.1" stroke="black" width="12" x="750" y="569.1"/>
  <text x="750" y="574.2" font-family="Tahoma" font-size="12" transform="rotate(90 750,574.2)" text-rendering="optimizeSpeed" fill="#000000">50 (3)</text>
  <rect fill="blue" height="0.1" stroke="black" width="12" x="765" y="569.1"/>
  <text x="765" y="574.2" font-family="Tahoma" font-size="12" transform="rotate(90 765,574.2)" text-rendering="optimizeSpeed" fill="#000000">51 (3)</text>
  <rect fill="blue" height="0.3" stroke="black" width="12" x="780" y="569.0"/>
  <text x="780" y="574.2" font-family="Tahoma" font-size="12" transform="rotate(90 780,574.2)" text-rendering="optimizeSpeed" fill="#000000">52 (7)</text>
  <rect fill="blue" height="0.1" stroke="black" width="12" x="795" y="569.2"/>
  <text x="795" y="574.2" font-family="Tahoma" font-size="12" transform="rotate(90 795,574.2)" text-rendering="optimizeSpeed" fill="#000000">53 (2)</text>
  <rect fill="blue" height="0.1" stroke="black" width="12" x="810" y="569.2"/>
  <text x="810" y="574.2" font-family="Tahoma" font-size="12" transform="rotate(90 810,574.2)" text-rendering="optimizeSpeed" fill="#000000">55 (2)</text>
  <rect fill="blue" height="0.2" stroke="black" width="12" x="825" y="569.0"/>
  <text x="825" y="574.2" font-family="Tahoma" font-size="12" transform="rotate(90 825,574.2)" text-rendering="optimizeSpeed" fill="#000000">56 (5)</text>
  <rect fill="blue" height="0.0" stroke="black" width="12" x="840" y="569.2"/>
  <text x="840" y="574.2" font-family="Tahoma" font-size="12" transform="rotate(90 840,574.2)" text-rendering="optimizeSpeed" fill="#000000">57 (1)</text>
  <rect fill="blue" height="0.0" stroke="black" width="12" x="855" y="569.2"/>
  <text x="855" y="574.2" font-family="Tahoma" font-size="12" transform="rotate(90 855,574.2)" text-rendering="optimizeSpeed" fill="#000000">58 (1)</text>
  <rect fill="blue" height="0.1" stroke="black" width="12" x="870" y="569.2"/>
  <text x="870" y="574.2" font-family="Tahoma" font-size="12" transform="rotate(90 870,574.2)" text-rendering="optimizeSpeed" fill="#000000">60 (2)</text>
  <rect fill="blue" height="0.1" stroke="black" width="12" x="885" y="569.2"/>
  <text x="885" y="574.2" font-family="Tahoma" font-size="12" transform="rotate(90 885,574.2)" text-rendering="optimizeSpeed" fill="#000000">62 (2)</text>
  <rect fill="blue" height="0.0" stroke="black" width="12" x="900" y="569.2"/>
  <text x="900" y="574.2" font-family="Tahoma" font-size="12" transform="rotate(90 900,574.2)" text-rendering="optimizeSpeed" fill="#000000">63 (1)</text>
  <rect fill="blue" height="0.0" stroke="black" width="12" x="915" y="569.2"/>
  <text x="915" y="574.2" font-family="Tahoma" font-size="12" transform="rotate(90 915,574.2)" text-rendering="optimizeSpeed" fill="#000000">64 (1)</text>
  <rect fill="blue" height="0.0" stroke="black" width="12" x="930" y="569.2"/>
  <text x="930" y="574.2" font-family="Tahoma" font-size="12" transform="rotate(90 930,574.2)" text-rendering="optimizeSpeed" fill="#000000">65 (1)</text>
  <rect fill="blue" height="0.0" stroke="black" width="12" x="945" y="569.2"/>
  <text x="945" y="574.2" font-family="Tahoma" font-size="12" transform="rotate(90 945,574.2)" text-rendering="optimizeSpeed" fill="#000000">66 (1)</text>
  <rect fill="blue" height="0.0" stroke="black" width="12" x="960" y="569.2"/>
  <text x="960" y="574.2" font-family="Tahoma" font-size="12" transform="rotate(90 960,574.2)" text-rendering="optimizeSpeed" fill="#000000">67 (1)</text>
  <rect fill="blue" height="0.0" stroke="black" width="12" x="975" y="569.2"/>
  <text x="975" y="574.2" font-family="Tahoma" font-size="12" transform="rotate(90 975,574.2)" text-rendering="optimizeSpeed" fill="#000000">69 (1)</text>
  <rect fill="blue" height="0.0" stroke="black" width="12" x="990" y="569.2"/>
  <text x="990" y="574.2" font-family="Tahoma" font-size="12" transform="rotate(90 990,574.2)" text-rendering="optimizeSpeed" fill="#000000">71 (1)</text>
  <rect fill="blue" height="0.1" stroke="black" width="12" x="1005" y="569.2"/>
  <text x="1005" y="574.2" font-family="Tahoma" font-size="12" transform="rotate(90 1005,574.2)" text-rendering="optimizeSpeed" fill="#000000">72 (2)</text>
  <rect fill="blue" height="0.0" stroke="black" width="12" x="1020" y="569.2"/>
  <text x="1020" y="574.2" font-family="Tahoma" font-size="12" transform="rotate(90 1020,574.2)" text-rendering="optimizeSpeed" fill="#000000">73 (1)</text>
  <rect fill="blue" height="0.0" stroke="black" width="12" x="1035" y="569.2"/>
  <text x="1035" y="574.2" font-family="Tahoma" font-size="12" transform="rotate(90 1035,574.2)" text-rendering="optimizeSpeed" fill="#000000">74 (1)</text>
  <rect fill="blue" height="0.1" stroke="black" width="12" x="1050" y="569.2"/>
  <text x="1050" y="574.2" font-family="Tahoma" font-size="12" transform="rotate(90 1050,574.2)" text-rendering="optimizeSpeed" fill="#000000">76 (2)</text>
  <rect fill="blue" height="0.1" stroke="black" width="12" x="1065" y="569.2"/>
  <text x="1065" y="574.2" font-family="Tahoma" font-size="12" transform="rotate(90 1065,574.2)" text-rendering="optimizeSpeed" fill="#000000">78 (2)</text>
  <rect fill="blue" height="0.0" stroke="black" width="12" x="1080" y="569.2"/>
  <text x="1080" y="574.2" font-family="Tahoma" font-size="12" transform="rotate(90 1080,574.2)" text-rendering="optimizeSpeed" fill="#000000">79 (1)</text>
  <rect fill="blue" height="0.1" stroke="black" width="12" x="1095" y="569.2"/>
  <text x="1095" y="574.2" font-family="Tahoma" font-size="12" transform="rotate(90 1095,574.2)" text-rendering="optimizeSpeed" fill="#000000">80 (2)</text>
  <rect fill="blue" height="0.0" stroke="black" width="12" x="1110" y="569.2"/>
  <text x="1110" y="574.2" font-family="Tahoma" font-size="12" transform="rotate(90 1110,574.2)" text-rendering="optimizeSpeed" fill="#000000">81 (1)</text>
  <rect fill="blue" height="0.0" stroke="black" width="12" x="1125" y="569.2"/>
  <text x="1125" y="574.2" font-family="Tahoma" font-size="12" transform="rotate(90 1125,574.2)" text-rendering="optimizeSpeed" fill="#000000">83 (1)</text>
  <rect fill="blue" height="0.0" stroke="black" width="12" x="1140" y="569.2"/>
  <text x="1140" y="574.2" font-family="Tahoma" font-size="12" transform="rotate(90 1140,574.2)" text-rendering="optimizeSpeed" fill="#000000">85 (1)</text>
  <rect fill="blue" height="0.0" stroke="black" width="12" x="1155" y="569.2"/>
  <text x="1155" y="574.2" font-family="Tahoma" font-size="12" transform="rotate(90 1155,574.2)" text-rendering="optimizeSpeed" fill="#000000">90 (1)</text>
  <rect fill="blue" height="0.0" stroke="black" width="12" x="1170" y="569.2"/>
  <text x="1170" y="574.2" font-family="Tahoma" font-size="12" transform="rotate(90 1170,574.2)" text-rendering="optimizeSpeed" fill="#000000">96 (1)</text>
  <rect fill="blue" height="0.0" stroke="black" width="12" x="1185" y="569.2"/>
  <text x="1185" y="574.2" font-family="Tahoma" font-size="12" transform="rotate(90 1185,574.2)" text-rendering="optimizeSpeed" fill="#000000">97 (1)</text>
  <rect fill="blue" height="0.1" stroke="black" width="12" x="1200" y="569.2"/>
  <text x="1200" y="574.2" font-family="Tahoma" font-size="12" transform="rotate(90 1200,574.2)" text-rendering="optimizeSpeed" fill="#000000">100 (2)</text>
  <rect fill="blue" height="0.1" stroke="black" width="12" x="1215" y="569.2"/>
  <text x="1215" y="574.2" font-family="Tahoma" font-size="12" transform="rotate(90 1215,574.2)" text-rendering="optimizeSpeed" fill="#000000">102 (2)</text>
  <rect fill="blue" height="0.0" stroke="black" width="12" x="1230" y="569.2"/>
  <text x="1230" y="574.2" font-family="Tahoma" font-size="12" transform="rotate(90 1230,574.2)" text-rendering="optimizeSpeed" fill="#000000">113 (1)</text>
  <rect fill="blue" height="0.0" stroke="black" width="12" x="1245" y="569.2"/>
  <text x="1245" y="574.2" font-family="Tahoma" font-size="12" transform="rotate(90 1245,574.2)" text-rendering="optimizeSpeed" fill="#000000">124 (1)</text>
  <rect fill="blue" height="0.0" stroke="black" width="12" x="1260" y="569.2"/>
  <text x="1260" y="574.2" font-family="Tahoma" font-size="12" transform="rotate(90 1260,574.2)" text-rendering="optimizeSpeed" fill="#000000">161 (1)</text>
  <rect fill="blue" height="0.0" stroke="black" width="12" x="1275" y="569.2"/>
  <text x="1275" y="574.2" font-family="Tahoma" font-size="12" transform="rotate(90 1275,574.2)" text-rendering="optimizeSpeed" fill="#000000">166 (1)</text>
  <rect fill="blue" height="0.0" stroke="black" width="12" x="1290" y="569.2"/>
  <text x="1290" y="574.2" font-family="Tahoma" font-size="12" transform="rotate(90 1290,574.2)" text-rendering="optimizeSpeed" fill="#000000">167 (1)</text>
  <rect fill="blue" height="0.0" stroke="black" width="12" x="1305" y="569.2"/>
  <text x="1305" y="574.2" font-family="Tahoma" font-size="12" transform="rotate(90 1305,574.2)" text-rendering="optimizeSpeed" fill="#000000">262 (1)</text>
  <text x="10" y="40" font-family="Tahoma" font-size="20" text-rendering="optimizeSpeed" fill="#000000">Executors per install (total: 20328)</text>
</svg>
