<svg xmlns="http://www.w3.org/2000/svg" version="1.1" preserveAspectRatio="xMidYMid meet" viewBox="0 0 720 1430">
  <text x="30" y="40" font-family="sans-serif" font-size="16">Nodes, total: 24634</text>
  <path d="M 200,300 L 0.0,150.0 A 150,150 0 0 1 3.8,150.0 Z" fill="BurlyWood" stroke="black" stroke-width="1"/>
  <rect x="370" y="50" width="20" height="30" fill="BurlyWood" stroke="black" stroke-width="1"/>
  <text x="400" y="38" font-family="sans-serif" font-size="16">AIX (ppc) (43)</text>
  <path d="M 200,300 L 3.8,150.0 A 150,150 0 0 1 7.3,150.0 Z" fill="CadetBlue" stroke="black" stroke-width="1"/>
  <rect x="370" y="51" width="20" height="30" fill="CadetBlue" stroke="black" stroke-width="1"/>
  <text x="400" y="68" font-family="sans-serif" font-size="16">AIX (ppc64) (39)</text>
  <path d="M 200,300 L 7.3,150.0 A 150,150 0 0 1 10.5,149.9 Z" fill="red" stroke="black" stroke-width="1"/>
  <rect x="370" y="52" width="20" height="30" fill="red" stroke="black" stroke-width="1"/>
  <text x="400" y="98" font-family="sans-serif" font-size="16">FreeBSD (amd64) (36)</text>
  <path d="M 200,300 L 10.5,149.9 A 150,150 0 0 1 13.7,149.9 Z" fill="blue" stroke="black" stroke-width="1"/>
  <rect x="370" y="53" width="20" height="30" fill="blue" stroke="black" stroke-width="1"/>
  <text x="400" y="128" font-family="sans-serif" font-size="16">FreeBSD (i386) (35)</text>
  <path d="M 200,300 L 13.7,149.9 A 150,150 0 0 1 17.2,149.8 Z" fill="yellow" stroke="black" stroke-width="1"/>
  <rect x="370" y="54" width="20" height="30" fill="yellow" stroke="black" stroke-width="1"/>
  <text x="400" y="158" font-family="sans-serif" font-size="16">HP-UX (IA64N) (40)</text>
  <path d="M 200,300 L 17.2,149.8 A 150,150 0 0 1 19.6,149.8 Z" fill="green" stroke="black" stroke-width="1"/>
  <rect x="370" y="55" width="20" height="30" fill="green" stroke="black" stroke-width="1"/>
  <text x="400" y="188" font-family="sans-serif" font-size="16">HP-UX (PA_RISC2.0) (27)</text>
  <path d="M 200,300 L 19.6,149.8 A 150,150 0 0 1 338.6,38.0 Z" fill="gold" stroke="black" stroke-width="1"/>
  <rect x="370" y="56" width="20" height="30" fill="gold" stroke="black" stroke-width="1"/>
  <text x="400" y="218" font-family="sans-serif" font-size="16">Linux (amd64) (4934)</text>
  <path d="M 200,300 L 338.6,38.0 A 150,150 0 0 1 338.6,37.9 Z" fill="brown" stroke="black" stroke-width="1"/>
  <rect x="370" y="57" width="20" height="30" fill="brown" stroke="black" stroke-width="1"/>
  <text x="400" y="248" font-family="sans-serif" font-size="16">Linux (arm) (2)</text>
  <path d="M 200,300 L 338.6,37.9 A 150,150 0 0 1 179.4,-128.8 Z" fill="Azure" stroke="black" stroke-width="1"/>
  <rect x="370" y="58" width="20" height="30" fill="Azure" stroke="black" stroke-width="1"/>
  <text x="400" y="278" font-family="sans-serif" font-size="16">Linux (i386) (5051)</text>
  <path d="M 200,300 L 179.4,-128.8 A 150,150 0 0 1 179.2,-128.8 Z" fill="pink" stroke="black" stroke-width="1"/>
  <rect x="370" y="59" width="20" height="30" fill="pink" stroke="black" stroke-width="1"/>
  <text x="400" y="308" font-family="sans-serif" font-size="16">Linux (ia64) (2)</text>
  <path d="M 200,300 L 179.2,-128.8 A 150,150 0 0 1 179.2,-128.9 Z" fill="khaki" stroke="black" stroke-width="1"/>
  <rect x="370" y="60" width="20" height="30" fill="khaki" stroke="black" stroke-width="1"/>
  <text x="400" y="338" font-family="sans-serif" font-size="16">Linux (mips32) (1)</text>
  <path d="M 200,300 L 179.2,-128.9 A 150,150 0 0 1 179.1,-128.9 Z" fill="gray" stroke="black" stroke-width="1"/>
  <rect x="370" y="61" width="20" height="30" fill="gray" stroke="black" stroke-width="1"/>
  <text x="400" y="368" font-family="sans-serif" font-size="16">Linux (nova) (1)</text>
  <path d="M 200,300 L 179.1,-128.9 A 150,150 0 0 1 178.3,-129.1 Z" fill="Aqua" stroke="black" stroke-width="1"/>
  <rect x="370" y="62" width="20" height="30" fill="Aqua" stroke="black" stroke-width="1"/>
  <text x="400" y="398" font-family="sans-serif" font-size="16">Linux (ppc) (10)</text>
  <path d="M 200,300 L 178.3,-129.1 A 150,150 0 0 1 177.5,-129.3 Z" fill="Aquamarine" stroke="black" stroke-width="1"/>
  <rect x="370" y="63" width="20" height="30" fill="Aquamarine" stroke="black" stroke-width="1"/>
  <text x="400" y="428" font-family="sans-serif" font-size="16">Linux (ppc64) (11)</text>
  <path d="M 200,300 L 177.5,-129.3 A 150,150 0 0 1 177.3,-129.3 Z" fill="beige" stroke="black" stroke-width="1"/>
  <rect x="370" y="64" width="20" height="30" fill="beige" stroke="black" stroke-width="1"/>
  <text x="400" y="458" font-family="sans-serif" font-size="16">Linux (s390) (2)</text>
  <path d="M 200,300 L 177.3,-129.3 A 150,150 0 0 1 177.0,-129.4 Z" fill="blueviolet" stroke="black" stroke-width="1"/>
  <rect x="370" y="65" width="20" height="30" fill="blueviolet" stroke="black" stroke-width="1"/>
  <text x="400" y="488" font-family="sans-serif" font-size="16">Linux (s390x) (4)</text>
  <path d="M 200,300 L 177.0,-129.4 A 150,150 0 0 1 176.9,-129.4 Z" fill="Bisque" stroke="black" stroke-width="1"/>
  <rect x="370" y="66" width="20" height="30" fill="Bisque" stroke="black" stroke-width="1"/>
  <text x="400" y="518" font-family="sans-serif" font-size="16">Linux (sparc) (2)</text>
  <path d="M 200,300 L 176.9,-129.4 A 150,150 0 0 1 173.5,-130.3 Z" fill="coral" stroke="black" stroke-width="1"/>
  <rect x="370" y="67" width="20" height="30" fill="coral" stroke="black" stroke-width="1"/>
  <text x="400" y="548" font-family="sans-serif" font-size="16">Linux (x86) (44)</text>
  <path d="M 200,300 L 173.5,-130.3 A 150,150 0 0 1 163.5,-132.6 Z" fill="darkblue" stroke="black" stroke-width="1"/>
  <rect x="370" y="68" width="20" height="30" fill="darkblue" stroke="black" stroke-width="1"/>
  <text x="400" y="578" font-family="sans-serif" font-size="16">Mac OS X (i386) (127)</text>
  <path d="M 200,300 L 163.5,-132.6 A 150,150 0 0 1 162.7,-132.8 Z" fill="crimson" stroke="black" stroke-width="1"/>
  <rect x="370" y="69" width="20" height="30" fill="crimson" stroke="black" stroke-width="1"/>
  <text x="400" y="608" font-family="sans-serif" font-size="16">Mac OS X (ppc) (11)</text>
  <path d="M 200,300 L 162.7,-132.8 A 150,150 0 0 1 127.5,-139.7 Z" fill="cyan" stroke="black" stroke-width="1"/>
  <rect x="370" y="70" width="20" height="30" fill="cyan" stroke="black" stroke-width="1"/>
  <text x="400" y="638" font-family="sans-serif" font-size="16">Mac OS X (x86_64) (433)</text>
  <path d="M 200,300 L 127.5,-139.7 A 150,150 0 0 1 -344.7,-25.9 Z" fill="darkred" stroke="black" stroke-width="1"/>
  <rect x="370" y="71" width="20" height="30" fill="darkred" stroke="black" stroke-width="1"/>
  <text x="400" y="668" font-family="sans-serif" font-size="16">N/A (6940)</text>
  <path d="M 200,300 L -344.7,-25.9 A 150,150 0 0 1 -344.8,-25.9 Z" fill="ivory" stroke="black" stroke-width="1"/>
  <rect x="370" y="72" width="20" height="30" fill="ivory" stroke="black" stroke-width="1"/>
  <text x="400" y="698" font-family="sans-serif" font-size="16">NetBSD (amd64) (1)</text>
  <path d="M 200,300 L -344.8,-25.9 A 150,150 0 0 1 -344.8,-25.8 Z" fill="lime" stroke="black" stroke-width="1"/>
  <rect x="370" y="73" width="20" height="30" fill="lime" stroke="black" stroke-width="1"/>
  <text x="400" y="728" font-family="sans-serif" font-size="16">OpenBSD (i386) (2)</text>
  <path d="M 200,300 L -344.8,-25.8 A 150,150 0 0 1 -344.9,-25.4 Z" fill="maroon" stroke="black" stroke-width="1"/>
  <rect x="370" y="74" width="20" height="30" fill="maroon" stroke="black" stroke-width="1"/>
  <text x="400" y="758" font-family="sans-serif" font-size="16">SunOS (amd64) (10)</text>
  <path d="M 200,300 L -344.9,-25.4 A 150,150 0 0 1 -349.6,-6.9 Z" fill="navy" stroke="black" stroke-width="1"/>
  <rect x="370" y="75" width="20" height="30" fill="navy" stroke="black" stroke-width="1"/>
  <text x="400" y="788" font-family="sans-serif" font-size="16">SunOS (sparc) (486)</text>
  <path d="M 200,300 L -349.6,-6.9 A 150,150 0 0 1 -349.7,-6.6 Z" fill="olive" stroke="black" stroke-width="1"/>
  <rect x="370" y="76" width="20" height="30" fill="olive" stroke="black" stroke-width="1"/>
  <text x="400" y="818" font-family="sans-serif" font-size="16">SunOS (sparcv9) (8)</text>
  <path d="M 200,300 L -349.7,-6.6 A 150,150 0 0 1 -350.0,2.1 Z" fill="plum" stroke="black" stroke-width="1"/>
  <rect x="370" y="77" width="20" height="30" fill="plum" stroke="black" stroke-width="1"/>
  <text x="400" y="848" font-family="sans-serif" font-size="16">SunOS (x86) (228)</text>
  <path d="M 200,300 L -350.0,2.1 A 150,150 0 0 1 -349.9,4.2 Z" fill="peru" stroke="black" stroke-width="1"/>
  <rect x="370" y="78" width="20" height="30" fill="peru" stroke="black" stroke-width="1"/>
  <text x="400" y="878" font-family="sans-serif" font-size="16">Windows 2000 (x86) (55)</text>
  <path d="M 200,300 L -349.9,4.2 A 150,150 0 0 1 -349.0,11.5 Z" fill="silver" stroke="black" stroke-width="1"/>
  <rect x="370" y="79" width="20" height="30" fill="silver" stroke="black" stroke-width="1"/>
  <text x="400" y="908" font-family="sans-serif" font-size="16">Windows 2003 (amd64) (191)</text>
  <path d="M 200,300 L -349.0,11.5 A 150,150 0 0 1 -349.0,11.5 Z" fill="tan" stroke="black" stroke-width="1"/>
  <rect x="370" y="80" width="20" height="30" fill="tan" stroke="black" stroke-width="1"/>
  <text x="400" y="938" font-family="sans-serif" font-size="16">Windows 2003 (ia64) (1)</text>
  <path d="M 200,300 L -349.0,11.5 A 150,150 0 0 1 -299.7,77.5 Z" fill="teal" stroke="black" stroke-width="1"/>
  <rect x="370" y="81" width="20" height="30" fill="teal" stroke="black" stroke-width="1"/>
  <text x="400" y="968" font-family="sans-serif" font-size="16">Windows 2003 (x86) (1826)</text>
  <path d="M 200,300 L -299.7,77.5 A 150,150 0 0 1 -287.7,85.4 Z" fill="violet" stroke="black" stroke-width="1"/>
  <rect x="370" y="82" width="20" height="30" fill="violet" stroke="black" stroke-width="1"/>
  <text x="400" y="998" font-family="sans-serif" font-size="16">Windows 7 (amd64) (248)</text>
  <path d="M 200,300 L -287.7,85.4 A 150,150 0 0 1 -267.1,97.0 Z" fill="AliceBlue" stroke="black" stroke-width="1"/>
  <rect x="370" y="83" width="20" height="30" fill="AliceBlue" stroke="black" stroke-width="1"/>
  <text x="400" y="1028" font-family="sans-serif" font-size="16">Windows 7 (x86) (380)</text>
  <path d="M 200,300 L -267.1,97.0 A 150,150 0 0 1 -266.6,97.2 Z" fill="DarkOliveGreen" stroke="black" stroke-width="1"/>
  <rect x="370" y="84" width="20" height="30" fill="DarkOliveGreen" stroke="black" stroke-width="1"/>
  <text x="400" y="1058" font-family="sans-serif" font-size="16">Windows NT (unknown) (x86) (8)</text>
  <path d="M 200,300 L -266.6,97.2 A 150,150 0 0 1 -266.5,97.2 Z" fill="Indigo" stroke="black" stroke-width="1"/>
  <rect x="370" y="85" width="20" height="30" fill="Indigo" stroke="black" stroke-width="1"/>
  <text x="400" y="1088" font-family="sans-serif" font-size="16">Windows Server 2003 (amd64) (2)</text>
  <path d="M 200,300 L -266.5,97.2 A 150,150 0 0 1 -265.3,97.9 Z" fill="MediumPurple" stroke="black" stroke-width="1"/>
  <rect x="370" y="86" width="20" height="30" fill="MediumPurple" stroke="black" stroke-width="1"/>
  <text x="400" y="1118" font-family="sans-serif" font-size="16">Windows Server 2003 (x86) (21)</text>
  <path d="M 200,300 L -265.3,97.9 A 150,150 0 0 1 -254.6,102.9 Z" fill="Purple" stroke="black" stroke-width="1"/>
  <rect x="370" y="87" width="20" height="30" fill="Purple" stroke="black" stroke-width="1"/>
  <text x="400" y="1148" font-family="sans-serif" font-size="16">Windows Server 2008 (amd64) (179)</text>
  <path d="M 200,300 L -254.6,102.9 A 150,150 0 0 1 -235.7,110.9 Z" fill="AntiqueWhite" stroke="black" stroke-width="1"/>
  <rect x="370" y="88" width="20" height="30" fill="AntiqueWhite" stroke="black" stroke-width="1"/>
  <text x="400" y="1178" font-family="sans-serif" font-size="16">Windows Server 2008 (x86) (297)</text>
  <path d="M 200,300 L -235.7,110.9 A 150,150 0 0 1 -221.8,116.0 Z" fill="DarkOrange" stroke="black" stroke-width="1"/>
  <rect x="370" y="89" width="20" height="30" fill="DarkOrange" stroke="black" stroke-width="1"/>
  <text x="400" y="1208" font-family="sans-serif" font-size="16">Windows Server 2008 R2 (amd64) (205)</text>
  <path d="M 200,300 L -221.8,116.0 A 150,150 0 0 1 -211.7,119.4 Z" fill="Ivory" stroke="black" stroke-width="1"/>
  <rect x="370" y="90" width="20" height="30" fill="Ivory" stroke="black" stroke-width="1"/>
  <text x="400" y="1238" font-family="sans-serif" font-size="16">Windows Server 2008 R2 (x86) (144)</text>
  <path d="M 200,300 L -211.7,119.4 A 150,150 0 0 1 -208.9,120.3 Z" fill="MediumSeaGreen" stroke="black" stroke-width="1"/>
  <rect x="370" y="91" width="20" height="30" fill="MediumSeaGreen" stroke="black" stroke-width="1"/>
  <text x="400" y="1268" font-family="sans-serif" font-size="16">Windows Vista (amd64) (39)</text>
  <path d="M 200,300 L -208.9,120.3 A 150,150 0 0 1 -195.9,124.3 Z" fill="Red" stroke="black" stroke-width="1"/>
  <rect x="370" y="92" width="20" height="30" fill="Red" stroke="black" stroke-width="1"/>
  <text x="400" y="1298" font-family="sans-serif" font-size="16">Windows Vista (x86) (179)</text>
  <path d="M 200,300 L -195.9,124.3 A 150,150 0 0 1 -192.2,125.4 Z" fill="Aqua" stroke="black" stroke-width="1"/>
  <rect x="370" y="93" width="20" height="30" fill="Aqua" stroke="black" stroke-width="1"/>
  <text x="400" y="1328" font-family="sans-serif" font-size="16">Windows XP (amd64) (50)</text>
  <path d="M 200,300 L -192.2,125.4 A 150,150 0 0 1 -0.1,150.0 Z" fill="DarkOrchid" stroke="black" stroke-width="1"/>
  <rect x="370" y="94" width="20" height="30" fill="DarkOrchid" stroke="black" stroke-width="1"/>
  <text x="400" y="1358" font-family="sans-serif" font-size="16">Windows XP (x86) (2278)</text>
  <path d="M 200,300 L -0.1,150.0 A 150,150 0 0 1 -0.0,150.0 Z" fill="Khaki" stroke="black" stroke-width="1"/>
  <rect x="370" y="95" width="20" height="30" fill="Khaki" stroke="black" stroke-width="1"/>
  <text x="400" y="1388" font-family="sans-serif" font-size="16">linux (amd64) (1)</text>
</svg>
