<svg xmlns="http://www.w3.org/2000/svg" version="1.1" preserveAspectRatio="xMidYMid meet" viewBox="0 0 740 1044.0">
  <rect fill="blue" height="0.1" stroke="black" width="12" x="15" y="743.9"/>
  <text x="15" y="749.0" font-family="Tahoma" font-size="12" transform="rotate(90 15,749.0)" text-rendering="optimizeSpeed" fill="#000000">Linux (mips32) (1)</text>
  <rect fill="blue" height="0.1" stroke="black" width="12" x="30" y="743.9"/>
  <text x="30" y="749.0" font-family="Tahoma" font-size="12" transform="rotate(90 30,749.0)" text-rendering="optimizeSpeed" fill="#000000">Linux (nova) (1)</text>
  <rect fill="blue" height="0.1" stroke="black" width="12" x="45" y="743.9"/>
  <text x="45" y="749.0" font-family="Tahoma" font-size="12" transform="rotate(90 45,749.0)" text-rendering="optimizeSpeed" fill="#000000">NetBSD (amd64) (1)</text>
  <rect fill="blue" height="0.1" stroke="black" width="12" x="60" y="743.9"/>
  <text x="60" y="749.0" font-family="Tahoma" font-size="12" transform="rotate(90 60,749.0)" text-rendering="optimizeSpeed" fill="#000000">Windows 2003 (ia64) (1)</text>
  <rect fill="blue" height="0.1" stroke="black" width="12" x="75" y="743.9"/>
  <text x="75" y="749.0" font-family="Tahoma" font-size="12" transform="rotate(90 75,749.0)" text-rendering="optimizeSpeed" fill="#000000">linux (amd64) (1)</text>
  <rect fill="blue" height="0.2" stroke="black" width="12" x="90" y="743.8"/>
  <text x="90" y="749.0" font-family="Tahoma" font-size="12" transform="rotate(90 90,749.0)" text-rendering="optimizeSpeed" fill="#000000">Linux (arm) (2)</text>
  <rect fill="blue" height="0.2" stroke="black" width="12" x="105" y="743.8"/>
  <text x="105" y="749.0" font-family="Tahoma" font-size="12" transform="rotate(90 105,749.0)" text-rendering="optimizeSpeed" fill="#000000">Linux (ia64) (2)</text>
  <rect fill="blue" height="0.2" stroke="black" width="12" x="120" y="743.8"/>
  <text x="120" y="749.0" font-family="Tahoma" font-size="12" transform="rotate(90 120,749.0)" text-rendering="optimizeSpeed" fill="#000000">Linux (s390) (2)</text>
  <rect fill="blue" height="0.2" stroke="black" width="12" x="135" y="743.8"/>
  <text x="135" y="749.0" font-family="Tahoma" font-size="12" transform="rotate(90 135,749.0)" text-rendering="optimizeSpeed" fill="#000000">Linux (sparc) (2)</text>
  <rect fill="blue" height="0.2" stroke="black" width="12" x="150" y="743.8"/>
  <text x="150" y="749.0" font-family="Tahoma" font-size="12" transform="rotate(90 150,749.0)" text-rendering="optimizeSpeed" fill="#000000">OpenBSD (i386) (2)</text>
  <rect fill="blue" height="0.2" stroke="black" width="12" x="165" y="743.8"/>
  <text x="165" y="749.0" font-family="Tahoma" font-size="12" transform="rotate(90 165,749.0)" text-rendering="optimizeSpeed" fill="#000000">Windows Server 2003 (amd64) (2)</text>
  <rect fill="blue" height="0.4" stroke="black" width="12" x="180" y="743.6"/>
  <text x="180" y="749.0" font-family="Tahoma" font-size="12" transform="rotate(90 180,749.0)" text-rendering="optimizeSpeed" fill="#000000">Linux (s390x) (4)</text>
  <rect fill="blue" height="0.8" stroke="black" width="12" x="195" y="743.2"/>
  <text x="195" y="749.0" font-family="Tahoma" font-size="12" transform="rotate(90 195,749.0)" text-rendering="optimizeSpeed" fill="#000000">SunOS (sparcv9) (8)</text>
  <rect fill="blue" height="0.8" stroke="black" width="12" x="210" y="743.2"/>
  <text x="210" y="749.0" font-family="Tahoma" font-size="12" transform="rotate(90 210,749.0)" text-rendering="optimizeSpeed" fill="#000000">Windows NT (unknown) (x86) (8)</text>
  <rect fill="blue" height="1.0" stroke="black" width="12" x="225" y="743.0"/>
  <text x="225" y="749.0" font-family="Tahoma" font-size="12" transform="rotate(90 225,749.0)" text-rendering="optimizeSpeed" fill="#000000">Linux (ppc) (10)</text>
  <rect fill="blue" height="1.0" stroke="black" width="12" x="240" y="743.0"/>
  <text x="240" y="749.0" font-family="Tahoma" font-size="12" transform="rotate(90 240,749.0)" text-rendering="optimizeSpeed" fill="#000000">SunOS (amd64) (10)</text>
  <rect fill="blue" height="1.1" stroke="black" width="12" x="255" y="742.9"/>
  <text x="255" y="749.0" font-family="Tahoma" font-size="12" transform="rotate(90 255,749.0)" text-rendering="optimizeSpeed" fill="#000000">Linux (ppc64) (11)</text>
  <rect fill="blue" height="1.1" stroke="black" width="12" x="270" y="742.9"/>
  <text x="270" y="749.0" font-family="Tahoma" font-size="12" transform="rotate(90 270,749.0)" text-rendering="optimizeSpeed" fill="#000000">Mac OS X (ppc) (11)</text>
  <rect fill="blue" height="2.1" stroke="black" width="12" x="285" y="741.9"/>
  <text x="285" y="749.0" font-family="Tahoma" font-size="12" transform="rotate(90 285,749.0)" text-rendering="optimizeSpeed" fill="#000000">Windows Server 2003 (x86) (21)</text>
  <rect fill="blue" height="2.7" stroke="black" width="12" x="300" y="741.3"/>
  <text x="300" y="749.0" font-family="Tahoma" font-size="12" transform="rotate(90 300,749.0)" text-rendering="optimizeSpeed" fill="#000000">HP-UX (PA_RISC2.0) (27)</text>
  <rect fill="blue" height="3.5" stroke="black" width="12" x="315" y="740.5"/>
  <text x="315" y="749.0" font-family="Tahoma" font-size="12" transform="rotate(90 315,749.0)" text-rendering="optimizeSpeed" fill="#000000">FreeBSD (i386) (35)</text>
  <rect fill="blue" height="3.6" stroke="black" width="12" x="330" y="740.4"/>
  <text x="330" y="749.0" font-family="Tahoma" font-size="12" transform="rotate(90 330,749.0)" text-rendering="optimizeSpeed" fill="#000000">FreeBSD (amd64) (36)</text>
  <rect fill="blue" height="3.9" stroke="black" width="12" x="345" y="740.1"/>
  <text x="345" y="749.0" font-family="Tahoma" font-size="12" transform="rotate(90 345,749.0)" text-rendering="optimizeSpeed" fill="#000000">AIX (ppc64) (39)</text>
  <rect fill="blue" height="3.9" stroke="black" width="12" x="360" y="740.1"/>
  <text x="360" y="749.0" font-family="Tahoma" font-size="12" transform="rotate(90 360,749.0)" text-rendering="optimizeSpeed" fill="#000000">Windows Vista (amd64) (39)</text>
  <rect fill="blue" height="4.0" stroke="black" width="12" x="375" y="740.0"/>
  <text x="375" y="749.0" font-family="Tahoma" font-size="12" transform="rotate(90 375,749.0)" text-rendering="optimizeSpeed" fill="#000000">HP-UX (IA64N) (40)</text>
  <rect fill="blue" height="4.3" stroke="black" width="12" x="390" y="739.7"/>
  <text x="390" y="749.0" font-family="Tahoma" font-size="12" transform="rotate(90 390,749.0)" text-rendering="optimizeSpeed" fill="#000000">AIX (ppc) (43)</text>
  <rect fill="blue" height="4.4" stroke="black" width="12" x="405" y="739.6"/>
  <text x="405" y="749.0" font-family="Tahoma" font-size="12" transform="rotate(90 405,749.0)" text-rendering="optimizeSpeed" fill="#000000">Linux (x86) (44)</text>
  <rect fill="blue" height="5.0" stroke="black" width="12" x="420" y="739.0"/>
  <text x="420" y="749.0" font-family="Tahoma" font-size="12" transform="rotate(90 420,749.0)" text-rendering="optimizeSpeed" fill="#000000">Windows XP (amd64) (50)</text>
  <rect fill="blue" height="5.5" stroke="black" width="12" x="435" y="738.5"/>
  <text x="435" y="749.0" font-family="Tahoma" font-size="12" transform="rotate(90 435,749.0)" text-rendering="optimizeSpeed" fill="#000000">Windows 2000 (x86) (55)</text>
  <rect fill="blue" height="12.7" stroke="black" width="12" x="450" y="731.3"/>
  <text x="450" y="749.0" font-family="Tahoma" font-size="12" transform="rotate(90 450,749.0)" text-rendering="optimizeSpeed" fill="#000000">Mac OS X (i386) (127)</text>
  <rect fill="blue" height="14.4" stroke="black" width="12" x="465" y="729.6"/>
  <text x="465" y="749.0" font-family="Tahoma" font-size="12" transform="rotate(90 465,749.0)" text-rendering="optimizeSpeed" fill="#000000">Windows Server 2008 R2 (x86) (144)</text>
  <rect fill="blue" height="17.9" stroke="black" width="12" x="480" y="726.1"/>
  <text x="480" y="749.0" font-family="Tahoma" font-size="12" transform="rotate(90 480,749.0)" text-rendering="optimizeSpeed" fill="#000000">Windows Server 2008 (amd64) (179)</text>
  <rect fill="blue" height="17.9" stroke="black" width="12" x="495" y="726.1"/>
  <text x="495" y="749.0" font-family="Tahoma" font-size="12" transform="rotate(90 495,749.0)" text-rendering="optimizeSpeed" fill="#000000">Windows Vista (x86) (179)</text>
  <rect fill="blue" height="19.1" stroke="black" width="12" x="510" y="724.9"/>
  <text x="510" y="749.0" font-family="Tahoma" font-size="12" transform="rotate(90 510,749.0)" text-rendering="optimizeSpeed" fill="#000000">Windows 2003 (amd64) (191)</text>
  <rect fill="blue" height="20.5" stroke="black" width="12" x="525" y="723.5"/>
  <text x="525" y="749.0" font-family="Tahoma" font-size="12" transform="rotate(90 525,749.0)" text-rendering="optimizeSpeed" fill="#000000">Windows Server 2008 R2 (amd64) (205)</text>
  <rect fill="blue" height="22.8" stroke="black" width="12" x="540" y="721.2"/>
  <text x="540" y="749.0" font-family="Tahoma" font-size="12" transform="rotate(90 540,749.0)" text-rendering="optimizeSpeed" fill="#000000">SunOS (x86) (228)</text>
  <rect fill="blue" height="24.8" stroke="black" width="12" x="555" y="719.2"/>
  <text x="555" y="749.0" font-family="Tahoma" font-size="12" transform="rotate(90 555,749.0)" text-rendering="optimizeSpeed" fill="#000000">Windows 7 (amd64) (248)</text>
  <rect fill="blue" height="29.7" stroke="black" width="12" x="570" y="714.3"/>
  <text x="570" y="749.0" font-family="Tahoma" font-size="12" transform="rotate(90 570,749.0)" text-rendering="optimizeSpeed" fill="#000000">Windows Server 2008 (x86) (297)</text>
  <rect fill="blue" height="38.0" stroke="black" width="12" x="585" y="706.0"/>
  <text x="585" y="749.0" font-family="Tahoma" font-size="12" transform="rotate(90 585,749.0)" text-rendering="optimizeSpeed" fill="#000000">Windows 7 (x86) (380)</text>
  <rect fill="blue" height="43.3" stroke="black" width="12" x="600" y="700.7"/>
  <text x="600" y="749.0" font-family="Tahoma" font-size="12" transform="rotate(90 600,749.0)" text-rendering="optimizeSpeed" fill="#000000">Mac OS X (x86_64) (433)</text>
  <rect fill="blue" height="48.6" stroke="black" width="12" x="615" y="695.4"/>
  <text x="615" y="749.0" font-family="Tahoma" font-size="12" transform="rotate(90 615,749.0)" text-rendering="optimizeSpeed" fill="#000000">SunOS (sparc) (486)</text>
  <rect fill="blue" height="182.6" stroke="black" width="12" x="630" y="561.4"/>
  <text x="630" y="749.0" font-family="Tahoma" font-size="12" transform="rotate(90 630,749.0)" text-rendering="optimizeSpeed" fill="#000000">Windows 2003 (x86) (1826)</text>
  <rect fill="blue" height="227.8" stroke="black" width="12" x="645" y="516.2"/>
  <text x="645" y="749.0" font-family="Tahoma" font-size="12" transform="rotate(90 645,749.0)" text-rendering="optimizeSpeed" fill="#000000">Windows XP (x86) (2278)</text>
  <rect fill="blue" height="493.4" stroke="black" width="12" x="660" y="250.6"/>
  <text x="660" y="749.0" font-family="Tahoma" font-size="12" transform="rotate(90 660,749.0)" text-rendering="optimizeSpeed" fill="#000000">Linux (amd64) (4934)</text>
  <rect fill="blue" height="505.1" stroke="black" width="12" x="675" y="238.9"/>
  <text x="675" y="749.0" font-family="Tahoma" font-size="12" transform="rotate(90 675,749.0)" text-rendering="optimizeSpeed" fill="#000000">Linux (i386) (5051)</text>
  <rect fill="blue" height="694.0" stroke="black" width="12" x="690" y="50.0"/>
  <text x="690" y="749.0" font-family="Tahoma" font-size="12" transform="rotate(90 690,749.0)" text-rendering="optimizeSpeed" fill="#000000">N/A (6940)</text>
  <text x="10" y="40" font-family="Tahoma" font-size="20" text-rendering="optimizeSpeed" fill="#000000">Nodes (total: 24634)</text>
</svg>
