<svg xmlns="http://www.w3.org/2000/svg" version="1.1" preserveAspectRatio="xMidYMid meet" viewBox="0 0 1025 501.6">
  <rect fill="blue" height="5.1" stroke="black" width="12" x="15" y="196.5"/>
  <text x="15" y="206.6" font-family="Tahoma" font-size="12" transform="rotate(90 15,206.6)" text-rendering="optimizeSpeed" fill="#000000">groovy (511)</text>
  <rect fill="blue" height="5.1" stroke="black" width="12" x="30" y="196.5"/>
  <text x="30" y="206.6" font-family="Tahoma" font-size="12" transform="rotate(90 30,206.6)" text-rendering="optimizeSpeed" fill="#000000">nant (513)</text>
  <rect fill="blue" height="5.5" stroke="black" width="12" x="45" y="196.1"/>
  <text x="45" y="206.6" font-family="Tahoma" font-size="12" transform="rotate(90 45,206.6)" text-rendering="optimizeSpeed" fill="#000000">bugzilla (554)</text>
  <rect fill="blue" height="5.6" stroke="black" width="12" x="60" y="196.0"/>
  <text x="60" y="206.6" font-family="Tahoma" font-size="12" transform="rotate(90 60,206.6)" text-rendering="optimizeSpeed" fill="#000000">setenv (560)</text>
  <rect fill="blue" height="5.7" stroke="black" width="12" x="75" y="196.0"/>
  <text x="75" y="206.6" font-family="Tahoma" font-size="12" transform="rotate(90 75,206.6)" text-rendering="optimizeSpeed" fill="#000000">sectioned-view (566)</text>
  <rect fill="blue" height="5.7" stroke="black" width="12" x="90" y="196.0"/>
  <text x="90" y="206.6" font-family="Tahoma" font-size="12" transform="rotate(90 90,206.6)" text-rendering="optimizeSpeed" fill="#000000">ftppublisher (567)</text>
  <rect fill="blue" height="5.7" stroke="black" width="12" x="105" y="195.9"/>
  <text x="105" y="206.6" font-family="Tahoma" font-size="12" transform="rotate(90 105,206.6)" text-rendering="optimizeSpeed" fill="#000000">description-setter (572)</text>
  <rect fill="blue" height="5.8" stroke="black" width="12" x="120" y="195.8"/>
  <text x="120" y="206.6" font-family="Tahoma" font-size="12" transform="rotate(90 120,206.6)" text-rendering="optimizeSpeed" fill="#000000">ldapemail (581)</text>
  <rect fill="blue" height="5.8" stroke="black" width="12" x="135" y="195.8"/>
  <text x="135" y="206.6" font-family="Tahoma" font-size="12" transform="rotate(90 135,206.6)" text-rendering="optimizeSpeed" fill="#000000">mercurial (581)</text>
  <rect fill="blue" height="6.0" stroke="black" width="12" x="150" y="195.6"/>
  <text x="150" y="206.6" font-family="Tahoma" font-size="12" transform="rotate(90 150,206.6)" text-rendering="optimizeSpeed" fill="#000000">promoted-builds (602)</text>
  <rect fill="blue" height="6.1" stroke="black" width="12" x="165" y="195.5"/>
  <text x="165" y="206.6" font-family="Tahoma" font-size="12" transform="rotate(90 165,206.6)" text-rendering="optimizeSpeed" fill="#000000">postbuild-task (614)</text>
  <rect fill="blue" height="6.2" stroke="black" width="12" x="180" y="195.5"/>
  <text x="180" y="206.6" font-family="Tahoma" font-size="12" transform="rotate(90 180,206.6)" text-rendering="optimizeSpeed" fill="#000000">radiatorviewplugin (616)</text>
  <rect fill="blue" height="6.2" stroke="black" width="12" x="195" y="195.5"/>
  <text x="195" y="206.6" font-family="Tahoma" font-size="12" transform="rotate(90 195,206.6)" text-rendering="optimizeSpeed" fill="#000000">perforce (617)</text>
  <rect fill="blue" height="6.2" stroke="black" width="12" x="210" y="195.4"/>
  <text x="210" y="206.6" font-family="Tahoma" font-size="12" transform="rotate(90 210,206.6)" text-rendering="optimizeSpeed" fill="#000000">changelog-history (619)</text>
  <rect fill="blue" height="6.5" stroke="black" width="12" x="225" y="195.1"/>
  <text x="225" y="206.6" font-family="Tahoma" font-size="12" transform="rotate(90 225,206.6)" text-rendering="optimizeSpeed" fill="#000000">clearcase (653)</text>
  <rect fill="blue" height="6.5" stroke="black" width="12" x="240" y="195.1"/>
  <text x="240" y="206.6" font-family="Tahoma" font-size="12" transform="rotate(90 240,206.6)" text-rendering="optimizeSpeed" fill="#000000">statusmonitor (653)</text>
  <rect fill="blue" height="6.8" stroke="black" width="12" x="255" y="194.9"/>
  <text x="255" y="206.6" font-family="Tahoma" font-size="12" transform="rotate(90 255,206.6)" text-rendering="optimizeSpeed" fill="#000000">clover (678)</text>
  <rect fill="blue" height="6.8" stroke="black" width="12" x="270" y="194.8"/>
  <text x="270" y="206.6" font-family="Tahoma" font-size="12" transform="rotate(90 270,206.6)" text-rendering="optimizeSpeed" fill="#000000">dependencyanalyzer (683)</text>
  <rect fill="blue" height="6.9" stroke="black" width="12" x="285" y="194.7"/>
  <text x="285" y="206.6" font-family="Tahoma" font-size="12" transform="rotate(90 285,206.6)" text-rendering="optimizeSpeed" fill="#000000">jabber (690)</text>
  <rect fill="blue" height="7.0" stroke="black" width="12" x="300" y="194.7"/>
  <text x="300" y="206.6" font-family="Tahoma" font-size="12" transform="rotate(90 300,206.6)" text-rendering="optimizeSpeed" fill="#000000">sidebar-link (696)</text>
  <rect fill="blue" height="7.1" stroke="black" width="12" x="315" y="194.6"/>
  <text x="315" y="206.6" font-family="Tahoma" font-size="12" transform="rotate(90 315,206.6)" text-rendering="optimizeSpeed" fill="#000000">parameterized-trigger (708)</text>
  <rect fill="blue" height="7.4" stroke="black" width="12" x="330" y="194.2"/>
  <text x="330" y="206.6" font-family="Tahoma" font-size="12" transform="rotate(90 330,206.6)" text-rendering="optimizeSpeed" fill="#000000">instant-messaging (738)</text>
  <rect fill="blue" height="7.5" stroke="black" width="12" x="345" y="194.1"/>
  <text x="345" y="206.6" font-family="Tahoma" font-size="12" transform="rotate(90 345,206.6)" text-rendering="optimizeSpeed" fill="#000000">plot (749)</text>
  <rect fill="blue" height="7.6" stroke="black" width="12" x="360" y="194.0"/>
  <text x="360" y="206.6" font-family="Tahoma" font-size="12" transform="rotate(90 360,206.6)" text-rendering="optimizeSpeed" fill="#000000">text-finder (761)</text>
  <rect fill="blue" height="7.7" stroke="black" width="12" x="375" y="194.0"/>
  <text x="375" y="206.6" font-family="Tahoma" font-size="12" transform="rotate(90 375,206.6)" text-rendering="optimizeSpeed" fill="#000000">locks-and-latches (765)</text>
  <rect fill="blue" height="7.7" stroke="black" width="12" x="390" y="193.9"/>
  <text x="390" y="206.6" font-family="Tahoma" font-size="12" transform="rotate(90 390,206.6)" text-rendering="optimizeSpeed" fill="#000000">release (771)</text>
  <rect fill="blue" height="8.0" stroke="black" width="12" x="405" y="193.7"/>
  <text x="405" y="206.6" font-family="Tahoma" font-size="12" transform="rotate(90 405,206.6)" text-rendering="optimizeSpeed" fill="#000000">nunit (797)</text>
  <rect fill="blue" height="8.6" stroke="black" width="12" x="420" y="193.1"/>
  <text x="420" y="206.6" font-family="Tahoma" font-size="12" transform="rotate(90 420,206.6)" text-rendering="optimizeSpeed" fill="#000000">m2-extra-steps (856)</text>
  <rect fill="blue" height="8.7" stroke="black" width="12" x="435" y="192.9"/>
  <text x="435" y="206.6" font-family="Tahoma" font-size="12" transform="rotate(90 435,206.6)" text-rendering="optimizeSpeed" fill="#000000">dashboard-view (873)</text>
  <rect fill="blue" height="9.4" stroke="black" width="12" x="450" y="192.2"/>
  <text x="450" y="206.6" font-family="Tahoma" font-size="12" transform="rotate(90 450,206.6)" text-rendering="optimizeSpeed" fill="#000000">dry (939)</text>
  <rect fill="blue" height="9.7" stroke="black" width="12" x="465" y="191.9"/>
  <text x="465" y="206.6" font-family="Tahoma" font-size="12" transform="rotate(90 465,206.6)" text-rendering="optimizeSpeed" fill="#000000">svn-release-mgr (969)</text>
  <rect fill="blue" height="10.2" stroke="black" width="12" x="480" y="191.4"/>
  <text x="480" y="206.6" font-family="Tahoma" font-size="12" transform="rotate(90 480,206.6)" text-rendering="optimizeSpeed" fill="#000000">audit-trail (1022)</text>
  <rect fill="blue" height="10.5" stroke="black" width="12" x="495" y="191.1"/>
  <text x="495" y="206.6" font-family="Tahoma" font-size="12" transform="rotate(90 495,206.6)" text-rendering="optimizeSpeed" fill="#000000">trac (1050)</text>
  <rect fill="blue" height="10.9" stroke="black" width="12" x="510" y="190.7"/>
  <text x="510" y="206.6" font-family="Tahoma" font-size="12" transform="rotate(90 510,206.6)" text-rendering="optimizeSpeed" fill="#000000">backup (1095)</text>
  <rect fill="blue" height="11.1" stroke="black" width="12" x="525" y="190.5"/>
  <text x="525" y="206.6" font-family="Tahoma" font-size="12" transform="rotate(90 525,206.6)" text-rendering="optimizeSpeed" fill="#000000">m2release (1114)</text>
  <rect fill="blue" height="11.2" stroke="black" width="12" x="540" y="190.5"/>
  <text x="540" y="206.6" font-family="Tahoma" font-size="12" transform="rotate(90 540,206.6)" text-rendering="optimizeSpeed" fill="#000000">git (1115)</text>
  <rect fill="blue" height="12.0" stroke="black" width="12" x="555" y="189.6"/>
  <text x="555" y="206.6" font-family="Tahoma" font-size="12" transform="rotate(90 555,206.6)" text-rendering="optimizeSpeed" fill="#000000">msbuild (1199)</text>
  <rect fill="blue" height="12.8" stroke="black" width="12" x="570" y="188.8"/>
  <text x="570" y="206.6" font-family="Tahoma" font-size="12" transform="rotate(90 570,206.6)" text-rendering="optimizeSpeed" fill="#000000">scp (1283)</text>
  <rect fill="blue" height="13.8" stroke="black" width="12" x="585" y="187.9"/>
  <text x="585" y="206.6" font-family="Tahoma" font-size="12" transform="rotate(90 585,206.6)" text-rendering="optimizeSpeed" fill="#000000">chucknorris (1378)</text>
  <rect fill="blue" height="13.9" stroke="black" width="12" x="600" y="187.7"/>
  <text x="600" y="206.6" font-family="Tahoma" font-size="12" transform="rotate(90 600,206.6)" text-rendering="optimizeSpeed" fill="#000000">ci-game (1393)</text>
  <rect fill="blue" height="14.6" stroke="black" width="12" x="615" y="187.0"/>
  <text x="615" y="206.6" font-family="Tahoma" font-size="12" transform="rotate(90 615,206.6)" text-rendering="optimizeSpeed" fill="#000000">emma (1460)</text>
  <rect fill="blue" height="15.4" stroke="black" width="12" x="630" y="186.2"/>
  <text x="630" y="206.6" font-family="Tahoma" font-size="12" transform="rotate(90 630,206.6)" text-rendering="optimizeSpeed" fill="#000000">batch-task (1539)</text>
  <rect fill="blue" height="15.4" stroke="black" width="12" x="645" y="186.2"/>
  <text x="645" y="206.6" font-family="Tahoma" font-size="12" transform="rotate(90 645,206.6)" text-rendering="optimizeSpeed" fill="#000000">svn-tag (1544)</text>
  <rect fill="blue" height="15.8" stroke="black" width="12" x="660" y="185.8"/>
  <text x="660" y="206.6" font-family="Tahoma" font-size="12" transform="rotate(90 660,206.6)" text-rendering="optimizeSpeed" fill="#000000">active-directory (1583)</text>
  <rect fill="blue" height="15.9" stroke="black" width="12" x="675" y="185.7"/>
  <text x="675" y="206.6" font-family="Tahoma" font-size="12" transform="rotate(90 675,206.6)" text-rendering="optimizeSpeed" fill="#000000">build-timeout (1589)</text>
  <rect fill="blue" height="16.0" stroke="black" width="12" x="690" y="185.6"/>
  <text x="690" y="206.6" font-family="Tahoma" font-size="12" transform="rotate(90 690,206.6)" text-rendering="optimizeSpeed" fill="#000000">deploy (1599)</text>
  <rect fill="blue" height="16.0" stroke="black" width="12" x="705" y="185.6"/>
  <text x="705" y="206.6" font-family="Tahoma" font-size="12" transform="rotate(90 705,206.6)" text-rendering="optimizeSpeed" fill="#000000">jira (1602)</text>
  <rect fill="blue" height="16.9" stroke="black" width="12" x="720" y="184.7"/>
  <text x="720" y="206.6" font-family="Tahoma" font-size="12" transform="rotate(90 720,206.6)" text-rendering="optimizeSpeed" fill="#000000">sonar (1689)</text>
  <rect fill="blue" height="18.4" stroke="black" width="12" x="735" y="183.2"/>
  <text x="735" y="206.6" font-family="Tahoma" font-size="12" transform="rotate(90 735,206.6)" text-rendering="optimizeSpeed" fill="#000000">emotional-hudson (1839)</text>
  <rect fill="blue" height="19.7" stroke="black" width="12" x="750" y="181.9"/>
  <text x="750" y="206.6" font-family="Tahoma" font-size="12" transform="rotate(90 750,206.6)" text-rendering="optimizeSpeed" fill="#000000">violations (1970)</text>
  <rect fill="blue" height="20.5" stroke="black" width="12" x="765" y="181.2"/>
  <text x="765" y="206.6" font-family="Tahoma" font-size="12" transform="rotate(90 765,206.6)" text-rendering="optimizeSpeed" fill="#000000">tasks (2046)</text>
  <rect fill="blue" height="23.3" stroke="black" width="12" x="780" y="178.3"/>
  <text x="780" y="206.6" font-family="Tahoma" font-size="12" transform="rotate(90 780,206.6)" text-rendering="optimizeSpeed" fill="#000000">disk-usage (2329)</text>
  <rect fill="blue" height="23.7" stroke="black" width="12" x="795" y="177.9"/>
  <text x="795" y="206.6" font-family="Tahoma" font-size="12" transform="rotate(90 795,206.6)" text-rendering="optimizeSpeed" fill="#000000">warnings (2369)</text>
  <rect fill="blue" height="24.1" stroke="black" width="12" x="810" y="177.5"/>
  <text x="810" y="206.6" font-family="Tahoma" font-size="12" transform="rotate(90 810,206.6)" text-rendering="optimizeSpeed" fill="#000000">analysis-core (2415)</text>
  <rect fill="blue" height="24.7" stroke="black" width="12" x="825" y="177.0"/>
  <text x="825" y="206.6" font-family="Tahoma" font-size="12" transform="rotate(90 825,206.6)" text-rendering="optimizeSpeed" fill="#000000">pmd (2466)</text>
  <rect fill="blue" height="25.4" stroke="black" width="12" x="840" y="176.2"/>
  <text x="840" y="206.6" font-family="Tahoma" font-size="12" transform="rotate(90 840,206.6)" text-rendering="optimizeSpeed" fill="#000000">greenballs (2539)</text>
  <rect fill="blue" height="28.1" stroke="black" width="12" x="855" y="173.6"/>
  <text x="855" y="206.6" font-family="Tahoma" font-size="12" transform="rotate(90 855,206.6)" text-rendering="optimizeSpeed" fill="#000000">checkstyle (2806)</text>
  <rect fill="blue" height="28.5" stroke="black" width="12" x="870" y="173.1"/>
  <text x="870" y="206.6" font-family="Tahoma" font-size="12" transform="rotate(90 870,206.6)" text-rendering="optimizeSpeed" fill="#000000">cobertura (2851)</text>
  <rect fill="blue" height="31.3" stroke="black" width="12" x="885" y="170.3"/>
  <text x="885" y="206.6" font-family="Tahoma" font-size="12" transform="rotate(90 885,206.6)" text-rendering="optimizeSpeed" fill="#000000">findbugs (3131)</text>
  <rect fill="blue" height="32.9" stroke="black" width="12" x="900" y="168.7"/>
  <text x="900" y="206.6" font-family="Tahoma" font-size="12" transform="rotate(90 900,206.6)" text-rendering="optimizeSpeed" fill="#000000">email-ext (3290)</text>
  <rect fill="blue" height="46.0" stroke="black" width="12" x="915" y="155.7"/>
  <text x="915" y="206.6" font-family="Tahoma" font-size="12" transform="rotate(90 915,206.6)" text-rendering="optimizeSpeed" fill="#000000">cvs (4596)</text>
  <rect fill="blue" height="129.4" stroke="black" width="12" x="930" y="72.2"/>
  <text x="930" y="206.6" font-family="Tahoma" font-size="12" transform="rotate(90 930,206.6)" text-rendering="optimizeSpeed" fill="#000000">scis-ad (12944)</text>
  <rect fill="blue" height="143.6" stroke="black" width="12" x="945" y="58.1"/>
  <text x="945" y="206.6" font-family="Tahoma" font-size="12" transform="rotate(90 945,206.6)" text-rendering="optimizeSpeed" fill="#000000">subversion (14357)</text>
  <rect fill="blue" height="151.2" stroke="black" width="12" x="960" y="50.4"/>
  <text x="960" y="206.6" font-family="Tahoma" font-size="12" transform="rotate(90 960,206.6)" text-rendering="optimizeSpeed" fill="#000000">ssh-slaves (15121)</text>
  <rect fill="blue" height="151.6" stroke="black" width="12" x="975" y="50.0"/>
  <text x="975" y="206.6" font-family="Tahoma" font-size="12" transform="rotate(90 975,206.6)" text-rendering="optimizeSpeed" fill="#000000">maven-plugin (15163)</text>
  <text x="10" y="40" font-family="Tahoma" font-size="20" text-rendering="optimizeSpeed" fill="#000000">Plugin installations (installations &gt; 500)</text>
</svg>
