<svg xmlns="http://www.w3.org/2000/svg" version="1.1" preserveAspectRatio="xMidYMid meet" viewBox="0 0 290 637.2">
  <rect fill="blue" height="37.2" stroke="black" width="12" x="15" y="300.0"/>
  <text x="15" y="342.2" font-family="Tahoma" font-size="12" transform="rotate(90 15,342.2)" text-rendering="optimizeSpeed" fill="#000000">1.368 (372)</text>
  <rect fill="blue" height="47.2" stroke="black" width="12" x="30" y="290.0"/>
  <text x="30" y="342.2" font-family="Tahoma" font-size="12" transform="rotate(90 30,342.2)" text-rendering="optimizeSpeed" fill="#000000">1.369 (472)</text>
  <rect fill="blue" height="13.0" stroke="black" width="12" x="45" y="324.2"/>
  <text x="45" y="342.2" font-family="Tahoma" font-size="12" transform="rotate(90 45,342.2)" text-rendering="optimizeSpeed" fill="#000000">1.370 (130)</text>
  <rect fill="blue" height="39.1" stroke="black" width="12" x="60" y="298.1"/>
  <text x="60" y="342.2" font-family="Tahoma" font-size="12" transform="rotate(90 60,342.2)" text-rendering="optimizeSpeed" fill="#000000">1.371 (391)</text>
  <rect fill="blue" height="54.7" stroke="black" width="12" x="75" y="282.5"/>
  <text x="75" y="342.2" font-family="Tahoma" font-size="12" transform="rotate(90 75,342.2)" text-rendering="optimizeSpeed" fill="#000000">1.372 (547)</text>
  <rect fill="blue" height="60.9" stroke="black" width="12" x="90" y="276.3"/>
  <text x="90" y="342.2" font-family="Tahoma" font-size="12" transform="rotate(90 90,342.2)" text-rendering="optimizeSpeed" fill="#000000">1.373 (609)</text>
  <rect fill="blue" height="73.6" stroke="black" width="12" x="105" y="263.6"/>
  <text x="105" y="342.2" font-family="Tahoma" font-size="12" transform="rotate(90 105,342.2)" text-rendering="optimizeSpeed" fill="#000000">1.374 (736)</text>
  <rect fill="blue" height="66.0" stroke="black" width="12" x="120" y="271.2"/>
  <text x="120" y="342.2" font-family="Tahoma" font-size="12" transform="rotate(90 120,342.2)" text-rendering="optimizeSpeed" fill="#000000">1.375 (660)</text>
  <rect fill="blue" height="100.4" stroke="black" width="12" x="135" y="236.8"/>
  <text x="135" y="342.2" font-family="Tahoma" font-size="12" transform="rotate(90 135,342.2)" text-rendering="optimizeSpeed" fill="#000000">1.376 (1004)</text>
  <rect fill="blue" height="101.6" stroke="black" width="12" x="150" y="235.6"/>
  <text x="150" y="342.2" font-family="Tahoma" font-size="12" transform="rotate(90 150,342.2)" text-rendering="optimizeSpeed" fill="#000000">1.377 (1016)</text>
  <rect fill="blue" height="130.8" stroke="black" width="12" x="165" y="206.4"/>
  <text x="165" y="342.2" font-family="Tahoma" font-size="12" transform="rotate(90 165,342.2)" text-rendering="optimizeSpeed" fill="#000000">1.378 (1308)</text>
  <rect fill="blue" height="263.0" stroke="black" width="12" x="180" y="74.2"/>
  <text x="180" y="342.2" font-family="Tahoma" font-size="12" transform="rotate(90 180,342.2)" text-rendering="optimizeSpeed" fill="#000000">1.379 (2630)</text>
  <rect fill="blue" height="136.0" stroke="black" width="12" x="195" y="201.2"/>
  <text x="195" y="342.2" font-family="Tahoma" font-size="12" transform="rotate(90 195,342.2)" text-rendering="optimizeSpeed" fill="#000000">1.380 (1360)</text>
  <rect fill="blue" height="287.2" stroke="black" width="12" x="210" y="50.0"/>
  <text x="210" y="342.2" font-family="Tahoma" font-size="12" transform="rotate(90 210,342.2)" text-rendering="optimizeSpeed" fill="#000000">1.381 (2872)</text>
  <rect fill="blue" height="170.3" stroke="black" width="12" x="225" y="166.9"/>
  <text x="225" y="342.2" font-family="Tahoma" font-size="12" transform="rotate(90 225,342.2)" text-rendering="optimizeSpeed" fill="#000000">1.382 (1703)</text>
  <rect fill="blue" height="17.3" stroke="black" width="12" x="240" y="319.9"/>
  <text x="240" y="342.2" font-family="Tahoma" font-size="12" transform="rotate(90 240,342.2)" text-rendering="optimizeSpeed" fill="#000000">1.383 (173)</text>
  <text x="10" y="40" font-family="Tahoma" font-size="20" text-rendering="optimizeSpeed" fill="#000000">Jenkins installations (total: 15983)</text>
</svg>
