<svg xmlns="http://www.w3.org/2000/svg" version="1.1" preserveAspectRatio="xMidYMid meet" viewBox="0 0 1550 527.8">
  <rect fill="blue" height="5.0" stroke="black" width="12" x="15" y="222.7"/>
  <text x="15" y="232.8" font-family="Tahoma" font-size="12" transform="rotate(90 15,232.8)" text-rendering="optimizeSpeed" fill="#000000">nested-view (504)</text>
  <rect fill="blue" height="5.1" stroke="black" width="12" x="30" y="222.7"/>
  <text x="30" y="232.8" font-family="Tahoma" font-size="12" transform="rotate(90 30,232.8)" text-rendering="optimizeSpeed" fill="#000000">jobConfigHistory (506)</text>
  <rect fill="blue" height="5.1" stroke="black" width="12" x="45" y="222.7"/>
  <text x="45" y="232.8" font-family="Tahoma" font-size="12" transform="rotate(90 45,232.8)" text-rendering="optimizeSpeed" fill="#000000">url-change-trigger (508)</text>
  <rect fill="blue" height="5.1" stroke="black" width="12" x="60" y="222.7"/>
  <text x="60" y="232.8" font-family="Tahoma" font-size="12" transform="rotate(90 60,232.8)" text-rendering="optimizeSpeed" fill="#000000">xfpanel (509)</text>
  <rect fill="blue" height="5.1" stroke="black" width="12" x="75" y="222.7"/>
  <text x="75" y="232.8" font-family="Tahoma" font-size="12" transform="rotate(90 75,232.8)" text-rendering="optimizeSpeed" fill="#000000">xvnc (512)</text>
  <rect fill="blue" height="5.1" stroke="black" width="12" x="90" y="222.6"/>
  <text x="90" y="232.8" font-family="Tahoma" font-size="12" transform="rotate(90 90,232.8)" text-rendering="optimizeSpeed" fill="#000000">locale (513)</text>
  <rect fill="blue" height="5.2" stroke="black" width="12" x="105" y="222.5"/>
  <text x="105" y="232.8" font-family="Tahoma" font-size="12" transform="rotate(90 105,232.8)" text-rendering="optimizeSpeed" fill="#000000">viewVC (525)</text>
  <rect fill="blue" height="5.4" stroke="black" width="12" x="120" y="222.4"/>
  <text x="120" y="232.8" font-family="Tahoma" font-size="12" transform="rotate(90 120,232.8)" text-rendering="optimizeSpeed" fill="#000000">downstream-ext (539)</text>
  <rect fill="blue" height="5.5" stroke="black" width="12" x="135" y="222.3"/>
  <text x="135" y="232.8" font-family="Tahoma" font-size="12" transform="rotate(90 135,232.8)" text-rendering="optimizeSpeed" fill="#000000">description-setter (545)</text>
  <rect fill="blue" height="5.5" stroke="black" width="12" x="150" y="222.3"/>
  <text x="150" y="232.8" font-family="Tahoma" font-size="12" transform="rotate(90 150,232.8)" text-rendering="optimizeSpeed" fill="#000000">copy-to-slave (548)</text>
  <rect fill="blue" height="5.6" stroke="black" width="12" x="165" y="222.1"/>
  <text x="165" y="232.8" font-family="Tahoma" font-size="12" transform="rotate(90 165,232.8)" text-rendering="optimizeSpeed" fill="#000000">nant (563)</text>
  <rect fill="blue" height="5.7" stroke="black" width="12" x="180" y="222.1"/>
  <text x="180" y="232.8" font-family="Tahoma" font-size="12" transform="rotate(90 180,232.8)" text-rendering="optimizeSpeed" fill="#000000">hudsontrayapp (572)</text>
  <rect fill="blue" height="5.7" stroke="black" width="12" x="195" y="222.0"/>
  <text x="195" y="232.8" font-family="Tahoma" font-size="12" transform="rotate(90 195,232.8)" text-rendering="optimizeSpeed" fill="#000000">groovy (574)</text>
  <rect fill="blue" height="5.8" stroke="black" width="12" x="210" y="222.0"/>
  <text x="210" y="232.8" font-family="Tahoma" font-size="12" transform="rotate(90 210,232.8)" text-rendering="optimizeSpeed" fill="#000000">clearcase (580)</text>
  <rect fill="blue" height="5.8" stroke="black" width="12" x="225" y="221.9"/>
  <text x="225" y="232.8" font-family="Tahoma" font-size="12" transform="rotate(90 225,232.8)" text-rendering="optimizeSpeed" fill="#000000">sloccount (585)</text>
  <rect fill="blue" height="6.0" stroke="black" width="12" x="240" y="221.8"/>
  <text x="240" y="232.8" font-family="Tahoma" font-size="12" transform="rotate(90 240,232.8)" text-rendering="optimizeSpeed" fill="#000000">ruby (601)</text>
  <rect fill="blue" height="6.1" stroke="black" width="12" x="255" y="221.6"/>
  <text x="255" y="232.8" font-family="Tahoma" font-size="12" transform="rotate(90 255,232.8)" text-rendering="optimizeSpeed" fill="#000000">redmine (613)</text>
  <rect fill="blue" height="6.2" stroke="black" width="12" x="270" y="221.6"/>
  <text x="270" y="232.8" font-family="Tahoma" font-size="12" transform="rotate(90 270,232.8)" text-rendering="optimizeSpeed" fill="#000000">monitoring (617)</text>
  <rect fill="blue" height="6.2" stroke="black" width="12" x="285" y="221.6"/>
  <text x="285" y="232.8" font-family="Tahoma" font-size="12" transform="rotate(90 285,232.8)" text-rendering="optimizeSpeed" fill="#000000">join (620)</text>
  <rect fill="blue" height="6.3" stroke="black" width="12" x="300" y="221.5"/>
  <text x="300" y="232.8" font-family="Tahoma" font-size="12" transform="rotate(90 300,232.8)" text-rendering="optimizeSpeed" fill="#000000">versionnumber (630)</text>
  <rect fill="blue" height="6.3" stroke="black" width="12" x="315" y="221.5"/>
  <text x="315" y="232.8" font-family="Tahoma" font-size="12" transform="rotate(90 315,232.8)" text-rendering="optimizeSpeed" fill="#000000">changelog-history (631)</text>
  <rect fill="blue" height="6.3" stroke="black" width="12" x="330" y="221.4"/>
  <text x="330" y="232.8" font-family="Tahoma" font-size="12" transform="rotate(90 330,232.8)" text-rendering="optimizeSpeed" fill="#000000">seleniumhq (635)</text>
  <rect fill="blue" height="6.4" stroke="black" width="12" x="345" y="221.4"/>
  <text x="345" y="232.8" font-family="Tahoma" font-size="12" transform="rotate(90 345,232.8)" text-rendering="optimizeSpeed" fill="#000000">template-project (642)</text>
  <rect fill="blue" height="6.5" stroke="black" width="12" x="360" y="221.2"/>
  <text x="360" y="232.8" font-family="Tahoma" font-size="12" transform="rotate(90 360,232.8)" text-rendering="optimizeSpeed" fill="#000000">artifactory (652)</text>
  <rect fill="blue" height="6.6" stroke="black" width="12" x="375" y="221.2"/>
  <text x="375" y="232.8" font-family="Tahoma" font-size="12" transform="rotate(90 375,232.8)" text-rendering="optimizeSpeed" fill="#000000">iphoneview (662)</text>
  <rect fill="blue" height="6.6" stroke="black" width="12" x="390" y="221.1"/>
  <text x="390" y="232.8" font-family="Tahoma" font-size="12" transform="rotate(90 390,232.8)" text-rendering="optimizeSpeed" fill="#000000">sectioned-view (664)</text>
  <rect fill="blue" height="6.8" stroke="black" width="12" x="405" y="221.0"/>
  <text x="405" y="232.8" font-family="Tahoma" font-size="12" transform="rotate(90 405,232.8)" text-rendering="optimizeSpeed" fill="#000000">github (676)</text>
  <rect fill="blue" height="6.8" stroke="black" width="12" x="420" y="221.0"/>
  <text x="420" y="232.8" font-family="Tahoma" font-size="12" transform="rotate(90 420,232.8)" text-rendering="optimizeSpeed" fill="#000000">doxygen (678)</text>
  <rect fill="blue" height="7.0" stroke="black" width="12" x="435" y="220.8"/>
  <text x="435" y="232.8" font-family="Tahoma" font-size="12" transform="rotate(90 435,232.8)" text-rendering="optimizeSpeed" fill="#000000">doclinks (700)</text>
  <rect fill="blue" height="7.2" stroke="black" width="12" x="450" y="220.6"/>
  <text x="450" y="232.8" font-family="Tahoma" font-size="12" transform="rotate(90 450,232.8)" text-rendering="optimizeSpeed" fill="#000000">text-finder (718)</text>
  <rect fill="blue" height="7.2" stroke="black" width="12" x="465" y="220.5"/>
  <text x="465" y="232.8" font-family="Tahoma" font-size="12" transform="rotate(90 465,232.8)" text-rendering="optimizeSpeed" fill="#000000">rake (723)</text>
  <rect fill="blue" height="7.4" stroke="black" width="12" x="480" y="220.4"/>
  <text x="480" y="232.8" font-family="Tahoma" font-size="12" transform="rotate(90 480,232.8)" text-rendering="optimizeSpeed" fill="#000000">copyarchiver (737)</text>
  <rect fill="blue" height="7.6" stroke="black" width="12" x="495" y="220.2"/>
  <text x="495" y="232.8" font-family="Tahoma" font-size="12" transform="rotate(90 495,232.8)" text-rendering="optimizeSpeed" fill="#000000">log-parser (756)</text>
  <rect fill="blue" height="7.6" stroke="black" width="12" x="510" y="220.2"/>
  <text x="510" y="232.8" font-family="Tahoma" font-size="12" transform="rotate(90 510,232.8)" text-rendering="optimizeSpeed" fill="#000000">ftppublisher (760)</text>
  <rect fill="blue" height="7.7" stroke="black" width="12" x="525" y="220.0"/>
  <text x="525" y="232.8" font-family="Tahoma" font-size="12" transform="rotate(90 525,232.8)" text-rendering="optimizeSpeed" fill="#000000">perforce (774)</text>
  <rect fill="blue" height="7.9" stroke="black" width="12" x="540" y="219.9"/>
  <text x="540" y="232.8" font-family="Tahoma" font-size="12" transform="rotate(90 540,232.8)" text-rendering="optimizeSpeed" fill="#000000">hudson-pview-plugin (791)</text>
  <rect fill="blue" height="7.9" stroke="black" width="12" x="555" y="219.8"/>
  <text x="555" y="232.8" font-family="Tahoma" font-size="12" transform="rotate(90 555,232.8)" text-rendering="optimizeSpeed" fill="#000000">copyartifact (793)</text>
  <rect fill="blue" height="8.0" stroke="black" width="12" x="570" y="219.8"/>
  <text x="570" y="232.8" font-family="Tahoma" font-size="12" transform="rotate(90 570,232.8)" text-rendering="optimizeSpeed" fill="#000000">python (796)</text>
  <rect fill="blue" height="8.1" stroke="black" width="12" x="585" y="219.7"/>
  <text x="585" y="232.8" font-family="Tahoma" font-size="12" transform="rotate(90 585,232.8)" text-rendering="optimizeSpeed" fill="#000000">sidebar-link (805)</text>
  <rect fill="blue" height="8.3" stroke="black" width="12" x="600" y="219.5"/>
  <text x="600" y="232.8" font-family="Tahoma" font-size="12" transform="rotate(90 600,232.8)" text-rendering="optimizeSpeed" fill="#000000">statusmonitor (830)</text>
  <rect fill="blue" height="8.4" stroke="black" width="12" x="615" y="219.4"/>
  <text x="615" y="232.8" font-family="Tahoma" font-size="12" transform="rotate(90 615,232.8)" text-rendering="optimizeSpeed" fill="#000000">maven-info (839)</text>
  <rect fill="blue" height="8.6" stroke="black" width="12" x="630" y="219.1"/>
  <text x="630" y="232.8" font-family="Tahoma" font-size="12" transform="rotate(90 630,232.8)" text-rendering="optimizeSpeed" fill="#000000">ssh (864)</text>
  <rect fill="blue" height="8.7" stroke="black" width="12" x="645" y="219.1"/>
  <text x="645" y="232.8" font-family="Tahoma" font-size="12" transform="rotate(90 645,232.8)" text-rendering="optimizeSpeed" fill="#000000">promoted-builds (865)</text>
  <rect fill="blue" height="8.7" stroke="black" width="12" x="660" y="219.1"/>
  <text x="660" y="232.8" font-family="Tahoma" font-size="12" transform="rotate(90 660,232.8)" text-rendering="optimizeSpeed" fill="#000000">performance (866)</text>
  <rect fill="blue" height="8.7" stroke="black" width="12" x="675" y="219.1"/>
  <text x="675" y="232.8" font-family="Tahoma" font-size="12" transform="rotate(90 675,232.8)" text-rendering="optimizeSpeed" fill="#000000">downstream-buildview (870)</text>
  <rect fill="blue" height="8.9" stroke="black" width="12" x="690" y="218.9"/>
  <text x="690" y="232.8" font-family="Tahoma" font-size="12" transform="rotate(90 690,232.8)" text-rendering="optimizeSpeed" fill="#000000">nunit (890)</text>
  <rect fill="blue" height="8.9" stroke="black" width="12" x="705" y="218.8"/>
  <text x="705" y="232.8" font-family="Tahoma" font-size="12" transform="rotate(90 705,232.8)" text-rendering="optimizeSpeed" fill="#000000">jdepend (894)</text>
  <rect fill="blue" height="9.0" stroke="black" width="12" x="720" y="218.8"/>
  <text x="720" y="232.8" font-family="Tahoma" font-size="12" transform="rotate(90 720,232.8)" text-rendering="optimizeSpeed" fill="#000000">dependencyanalyzer (898)</text>
  <rect fill="blue" height="9.1" stroke="black" width="12" x="735" y="218.7"/>
  <text x="735" y="232.8" font-family="Tahoma" font-size="12" transform="rotate(90 735,232.8)" text-rendering="optimizeSpeed" fill="#000000">trac (909)</text>
  <rect fill="blue" height="9.1" stroke="black" width="12" x="750" y="218.7"/>
  <text x="750" y="232.8" font-family="Tahoma" font-size="12" transform="rotate(90 750,232.8)" text-rendering="optimizeSpeed" fill="#000000">locks-and-latches (910)</text>
  <rect fill="blue" height="9.3" stroke="black" width="12" x="765" y="218.5"/>
  <text x="765" y="232.8" font-family="Tahoma" font-size="12" transform="rotate(90 765,232.8)" text-rendering="optimizeSpeed" fill="#000000">plot (926)</text>
  <rect fill="blue" height="9.3" stroke="black" width="12" x="780" y="218.5"/>
  <text x="780" y="232.8" font-family="Tahoma" font-size="12" transform="rotate(90 780,232.8)" text-rendering="optimizeSpeed" fill="#000000">jabber (930)</text>
  <rect fill="blue" height="9.4" stroke="black" width="12" x="795" y="218.4"/>
  <text x="795" y="232.8" font-family="Tahoma" font-size="12" transform="rotate(90 795,232.8)" text-rendering="optimizeSpeed" fill="#000000">radiatorviewplugin (937)</text>
  <rect fill="blue" height="9.4" stroke="black" width="12" x="810" y="218.3"/>
  <text x="810" y="232.8" font-family="Tahoma" font-size="12" transform="rotate(90 810,232.8)" text-rendering="optimizeSpeed" fill="#000000">release (945)</text>
  <rect fill="blue" height="9.5" stroke="black" width="12" x="825" y="218.3"/>
  <text x="825" y="232.8" font-family="Tahoma" font-size="12" transform="rotate(90 825,232.8)" text-rendering="optimizeSpeed" fill="#000000">audit-trail (950)</text>
  <rect fill="blue" height="9.6" stroke="black" width="12" x="840" y="218.2"/>
  <text x="840" y="232.8" font-family="Tahoma" font-size="12" transform="rotate(90 840,232.8)" text-rendering="optimizeSpeed" fill="#000000">clover (958)</text>
  <rect fill="blue" height="10.2" stroke="black" width="12" x="855" y="217.6"/>
  <text x="855" y="232.8" font-family="Tahoma" font-size="12" transform="rotate(90 855,232.8)" text-rendering="optimizeSpeed" fill="#000000">svn-release-mgr (1020)</text>
  <rect fill="blue" height="11.7" stroke="black" width="12" x="870" y="216.0"/>
  <text x="870" y="232.8" font-family="Tahoma" font-size="12" transform="rotate(90 870,232.8)" text-rendering="optimizeSpeed" fill="#000000">mercurial (1173)</text>
  <rect fill="blue" height="12.1" stroke="black" width="12" x="885" y="215.7"/>
  <text x="885" y="232.8" font-family="Tahoma" font-size="12" transform="rotate(90 885,232.8)" text-rendering="optimizeSpeed" fill="#000000">setenv (1209)</text>
  <rect fill="blue" height="12.2" stroke="black" width="12" x="900" y="215.5"/>
  <text x="900" y="232.8" font-family="Tahoma" font-size="12" transform="rotate(90 900,232.8)" text-rendering="optimizeSpeed" fill="#000000">m2-extra-steps (1224)</text>
  <rect fill="blue" height="12.3" stroke="black" width="12" x="915" y="215.5"/>
  <text x="915" y="232.8" font-family="Tahoma" font-size="12" transform="rotate(90 915,232.8)" text-rendering="optimizeSpeed" fill="#000000">ci-game (1226)</text>
  <rect fill="blue" height="12.8" stroke="black" width="12" x="930" y="214.9"/>
  <text x="930" y="232.8" font-family="Tahoma" font-size="12" transform="rotate(90 930,232.8)" text-rendering="optimizeSpeed" fill="#000000">parameterized-trigger (1285)</text>
  <rect fill="blue" height="13.2" stroke="black" width="12" x="945" y="214.6"/>
  <text x="945" y="232.8" font-family="Tahoma" font-size="12" transform="rotate(90 945,232.8)" text-rendering="optimizeSpeed" fill="#000000">emma (1321)</text>
  <rect fill="blue" height="13.4" stroke="black" width="12" x="960" y="214.4"/>
  <text x="960" y="232.8" font-family="Tahoma" font-size="12" transform="rotate(90 960,232.8)" text-rendering="optimizeSpeed" fill="#000000">postbuild-task (1338)</text>
  <rect fill="blue" height="13.9" stroke="black" width="12" x="975" y="213.9"/>
  <text x="975" y="232.8" font-family="Tahoma" font-size="12" transform="rotate(90 975,232.8)" text-rendering="optimizeSpeed" fill="#000000">batch-task (1387)</text>
  <rect fill="blue" height="14.2" stroke="black" width="12" x="990" y="213.5"/>
  <text x="990" y="232.8" font-family="Tahoma" font-size="12" transform="rotate(90 990,232.8)" text-rendering="optimizeSpeed" fill="#000000">m2release (1425)</text>
  <rect fill="blue" height="14.6" stroke="black" width="12" x="1005" y="213.2"/>
  <text x="1005" y="232.8" font-family="Tahoma" font-size="12" transform="rotate(90 1005,232.8)" text-rendering="optimizeSpeed" fill="#000000">instant-messaging (1459)</text>
  <rect fill="blue" height="14.7" stroke="black" width="12" x="1020" y="213.0"/>
  <text x="1020" y="232.8" font-family="Tahoma" font-size="12" transform="rotate(90 1020,232.8)" text-rendering="optimizeSpeed" fill="#000000">emotional-hudson (1474)</text>
  <rect fill="blue" height="14.8" stroke="black" width="12" x="1035" y="213.0"/>
  <text x="1035" y="232.8" font-family="Tahoma" font-size="12" transform="rotate(90 1035,232.8)" text-rendering="optimizeSpeed" fill="#000000">msbuild (1475)</text>
  <rect fill="blue" height="14.9" stroke="black" width="12" x="1050" y="212.9"/>
  <text x="1050" y="232.8" font-family="Tahoma" font-size="12" transform="rotate(90 1050,232.8)" text-rendering="optimizeSpeed" fill="#000000">svn-tag (1490)</text>
  <rect fill="blue" height="15.3" stroke="black" width="12" x="1065" y="212.5"/>
  <text x="1065" y="232.8" font-family="Tahoma" font-size="12" transform="rotate(90 1065,232.8)" text-rendering="optimizeSpeed" fill="#000000">xunit (1527)</text>
  <rect fill="blue" height="15.4" stroke="black" width="12" x="1080" y="212.4"/>
  <text x="1080" y="232.8" font-family="Tahoma" font-size="12" transform="rotate(90 1080,232.8)" text-rendering="optimizeSpeed" fill="#000000">htmlpublisher (1540)</text>
  <rect fill="blue" height="15.5" stroke="black" width="12" x="1095" y="212.3"/>
  <text x="1095" y="232.8" font-family="Tahoma" font-size="12" transform="rotate(90 1095,232.8)" text-rendering="optimizeSpeed" fill="#000000">scp (1547)</text>
  <rect fill="blue" height="15.6" stroke="black" width="12" x="1110" y="212.2"/>
  <text x="1110" y="232.8" font-family="Tahoma" font-size="12" transform="rotate(90 1110,232.8)" text-rendering="optimizeSpeed" fill="#000000">build-timeout (1560)</text>
  <rect fill="blue" height="16.3" stroke="black" width="12" x="1125" y="211.4"/>
  <text x="1125" y="232.8" font-family="Tahoma" font-size="12" transform="rotate(90 1125,232.8)" text-rendering="optimizeSpeed" fill="#000000">dry (1633)</text>
  <rect fill="blue" height="16.9" stroke="black" width="12" x="1140" y="210.9"/>
  <text x="1140" y="232.8" font-family="Tahoma" font-size="12" transform="rotate(90 1140,232.8)" text-rendering="optimizeSpeed" fill="#000000">backup (1690)</text>
  <rect fill="blue" height="17.1" stroke="black" width="12" x="1155" y="210.7"/>
  <text x="1155" y="232.8" font-family="Tahoma" font-size="12" transform="rotate(90 1155,232.8)" text-rendering="optimizeSpeed" fill="#000000">jira (1712)</text>
  <rect fill="blue" height="17.2" stroke="black" width="12" x="1170" y="210.6"/>
  <text x="1170" y="232.8" font-family="Tahoma" font-size="12" transform="rotate(90 1170,232.8)" text-rendering="optimizeSpeed" fill="#000000">active-directory (1720)</text>
  <rect fill="blue" height="17.5" stroke="black" width="12" x="1185" y="210.2"/>
  <text x="1185" y="232.8" font-family="Tahoma" font-size="12" transform="rotate(90 1185,232.8)" text-rendering="optimizeSpeed" fill="#000000">deploy (1754)</text>
  <rect fill="blue" height="18.3" stroke="black" width="12" x="1200" y="209.4"/>
  <text x="1200" y="232.8" font-family="Tahoma" font-size="12" transform="rotate(90 1200,232.8)" text-rendering="optimizeSpeed" fill="#000000">dashboard-view (1834)</text>
  <rect fill="blue" height="19.4" stroke="black" width="12" x="1215" y="208.4"/>
  <text x="1215" y="232.8" font-family="Tahoma" font-size="12" transform="rotate(90 1215,232.8)" text-rendering="optimizeSpeed" fill="#000000">tasks (1940)</text>
  <rect fill="blue" height="21.3" stroke="black" width="12" x="1230" y="206.5"/>
  <text x="1230" y="232.8" font-family="Tahoma" font-size="12" transform="rotate(90 1230,232.8)" text-rendering="optimizeSpeed" fill="#000000">violations (2126)</text>
  <rect fill="blue" height="22.6" stroke="black" width="12" x="1245" y="205.2"/>
  <text x="1245" y="232.8" font-family="Tahoma" font-size="12" transform="rotate(90 1245,232.8)" text-rendering="optimizeSpeed" fill="#000000">chucknorris (2255)</text>
  <rect fill="blue" height="22.7" stroke="black" width="12" x="1260" y="205.0"/>
  <text x="1260" y="232.8" font-family="Tahoma" font-size="12" transform="rotate(90 1260,232.8)" text-rendering="optimizeSpeed" fill="#000000">analysis-collector (2274)</text>
  <rect fill="blue" height="23.5" stroke="black" width="12" x="1275" y="204.3"/>
  <text x="1275" y="232.8" font-family="Tahoma" font-size="12" transform="rotate(90 1275,232.8)" text-rendering="optimizeSpeed" fill="#000000">disk-usage (2347)</text>
  <rect fill="blue" height="24.2" stroke="black" width="12" x="1290" y="203.6"/>
  <text x="1290" y="232.8" font-family="Tahoma" font-size="12" transform="rotate(90 1290,232.8)" text-rendering="optimizeSpeed" fill="#000000">sonar (2416)</text>
  <rect fill="blue" height="25.7" stroke="black" width="12" x="1305" y="202.1"/>
  <text x="1305" y="232.8" font-family="Tahoma" font-size="12" transform="rotate(90 1305,232.8)" text-rendering="optimizeSpeed" fill="#000000">warnings (2568)</text>
  <rect fill="blue" height="27.0" stroke="black" width="12" x="1320" y="200.8"/>
  <text x="1320" y="232.8" font-family="Tahoma" font-size="12" transform="rotate(90 1320,232.8)" text-rendering="optimizeSpeed" fill="#000000">git (2702)</text>
  <rect fill="blue" height="27.7" stroke="black" width="12" x="1335" y="200.1"/>
  <text x="1335" y="232.8" font-family="Tahoma" font-size="12" transform="rotate(90 1335,232.8)" text-rendering="optimizeSpeed" fill="#000000">pmd (2767)</text>
  <rect fill="blue" height="30.2" stroke="black" width="12" x="1350" y="197.5"/>
  <text x="1350" y="232.8" font-family="Tahoma" font-size="12" transform="rotate(90 1350,232.8)" text-rendering="optimizeSpeed" fill="#000000">cobertura (3024)</text>
  <rect fill="blue" height="32.0" stroke="black" width="12" x="1365" y="195.8"/>
  <text x="1365" y="232.8" font-family="Tahoma" font-size="12" transform="rotate(90 1365,232.8)" text-rendering="optimizeSpeed" fill="#000000">findbugs (3197)</text>
  <rect fill="blue" height="32.5" stroke="black" width="12" x="1380" y="195.2"/>
  <text x="1380" y="232.8" font-family="Tahoma" font-size="12" transform="rotate(90 1380,232.8)" text-rendering="optimizeSpeed" fill="#000000">checkstyle (3255)</text>
  <rect fill="blue" height="35.5" stroke="black" width="12" x="1395" y="192.3"/>
  <text x="1395" y="232.8" font-family="Tahoma" font-size="12" transform="rotate(90 1395,232.8)" text-rendering="optimizeSpeed" fill="#000000">greenballs (3547)</text>
  <rect fill="blue" height="37.7" stroke="black" width="12" x="1410" y="190.1"/>
  <text x="1410" y="232.8" font-family="Tahoma" font-size="12" transform="rotate(90 1410,232.8)" text-rendering="optimizeSpeed" fill="#000000">email-ext (3767)</text>
  <rect fill="blue" height="48.0" stroke="black" width="12" x="1425" y="179.8"/>
  <text x="1425" y="232.8" font-family="Tahoma" font-size="12" transform="rotate(90 1425,232.8)" text-rendering="optimizeSpeed" fill="#000000">scis-ad (4802)</text>
  <rect fill="blue" height="61.1" stroke="black" width="12" x="1440" y="166.6"/>
  <text x="1440" y="232.8" font-family="Tahoma" font-size="12" transform="rotate(90 1440,232.8)" text-rendering="optimizeSpeed" fill="#000000">analysis-core (6115)</text>
  <rect fill="blue" height="170.3" stroke="black" width="12" x="1455" y="57.5"/>
  <text x="1455" y="232.8" font-family="Tahoma" font-size="12" transform="rotate(90 1455,232.8)" text-rendering="optimizeSpeed" fill="#000000">cvs (17031)</text>
  <rect fill="blue" height="174.9" stroke="black" width="12" x="1470" y="52.9"/>
  <text x="1470" y="232.8" font-family="Tahoma" font-size="12" transform="rotate(90 1470,232.8)" text-rendering="optimizeSpeed" fill="#000000">maven-plugin (17488)</text>
  <rect fill="blue" height="177.2" stroke="black" width="12" x="1485" y="50.6"/>
  <text x="1485" y="232.8" font-family="Tahoma" font-size="12" transform="rotate(90 1485,232.8)" text-rendering="optimizeSpeed" fill="#000000">ssh-slaves (17721)</text>
  <rect fill="blue" height="177.8" stroke="black" width="12" x="1500" y="50.0"/>
  <text x="1500" y="232.8" font-family="Tahoma" font-size="12" transform="rotate(90 1500,232.8)" text-rendering="optimizeSpeed" fill="#000000">subversion (17777)</text>
  <text x="10" y="40" font-family="Tahoma" font-size="20" text-rendering="optimizeSpeed" fill="#000000">Plugin installations (installations &gt; 500)</text>
</svg>
