<svg xmlns="http://www.w3.org/2000/svg" version="1.1" preserveAspectRatio="xMidYMid meet" viewBox="0 0 1280 805.0">
  <rect fill="blue" height="21.5" stroke="black" width="12" x="15" y="483.5"/>
  <text x="15" y="510.0" font-family="Tahoma" font-size="12" transform="rotate(90 15,510.0)" text-rendering="optimizeSpeed" fill="#000000">0 (538)</text>
  <rect fill="blue" height="80.9" stroke="black" width="12" x="30" y="424.1"/>
  <text x="30" y="510.0" font-family="Tahoma" font-size="12" transform="rotate(90 30,510.0)" text-rendering="optimizeSpeed" fill="#000000">1 (2022)</text>
  <rect fill="blue" height="455.0" stroke="black" width="12" x="45" y="50.0"/>
  <text x="45" y="510.0" font-family="Tahoma" font-size="12" transform="rotate(90 45,510.0)" text-rendering="optimizeSpeed" fill="#000000">2 (11375)</text>
  <rect fill="blue" height="35.6" stroke="black" width="12" x="60" y="469.4"/>
  <text x="60" y="510.0" font-family="Tahoma" font-size="12" transform="rotate(90 60,510.0)" text-rendering="optimizeSpeed" fill="#000000">3 (889)</text>
  <rect fill="blue" height="38.0" stroke="black" width="12" x="75" y="467.0"/>
  <text x="75" y="510.0" font-family="Tahoma" font-size="12" transform="rotate(90 75,510.0)" text-rendering="optimizeSpeed" fill="#000000">4 (951)</text>
  <rect fill="blue" height="19.2" stroke="black" width="12" x="90" y="485.8"/>
  <text x="90" y="510.0" font-family="Tahoma" font-size="12" transform="rotate(90 90,510.0)" text-rendering="optimizeSpeed" fill="#000000">5 (480)</text>
  <rect fill="blue" height="10.9" stroke="black" width="12" x="105" y="494.1"/>
  <text x="105" y="510.0" font-family="Tahoma" font-size="12" transform="rotate(90 105,510.0)" text-rendering="optimizeSpeed" fill="#000000">6 (273)</text>
  <rect fill="blue" height="5.5" stroke="black" width="12" x="120" y="499.5"/>
  <text x="120" y="510.0" font-family="Tahoma" font-size="12" transform="rotate(90 120,510.0)" text-rendering="optimizeSpeed" fill="#000000">7 (137)</text>
  <rect fill="blue" height="8.3" stroke="black" width="12" x="135" y="496.7"/>
  <text x="135" y="510.0" font-family="Tahoma" font-size="12" transform="rotate(90 135,510.0)" text-rendering="optimizeSpeed" fill="#000000">8 (207)</text>
  <rect fill="blue" height="3.6" stroke="black" width="12" x="150" y="501.4"/>
  <text x="150" y="510.0" font-family="Tahoma" font-size="12" transform="rotate(90 150,510.0)" text-rendering="optimizeSpeed" fill="#000000">9 (91)</text>
  <rect fill="blue" height="6.4" stroke="black" width="12" x="165" y="498.6"/>
  <text x="165" y="510.0" font-family="Tahoma" font-size="12" transform="rotate(90 165,510.0)" text-rendering="optimizeSpeed" fill="#000000">10 (161)</text>
  <rect fill="blue" height="2.2" stroke="black" width="12" x="180" y="502.8"/>
  <text x="180" y="510.0" font-family="Tahoma" font-size="12" transform="rotate(90 180,510.0)" text-rendering="optimizeSpeed" fill="#000000">11 (54)</text>
  <rect fill="blue" height="3.0" stroke="black" width="12" x="195" y="502.0"/>
  <text x="195" y="510.0" font-family="Tahoma" font-size="12" transform="rotate(90 195,510.0)" text-rendering="optimizeSpeed" fill="#000000">12 (76)</text>
  <rect fill="blue" height="1.6" stroke="black" width="12" x="210" y="503.4"/>
  <text x="210" y="510.0" font-family="Tahoma" font-size="12" transform="rotate(90 210,510.0)" text-rendering="optimizeSpeed" fill="#000000">13 (41)</text>
  <rect fill="blue" height="1.5" stroke="black" width="12" x="225" y="503.5"/>
  <text x="225" y="510.0" font-family="Tahoma" font-size="12" transform="rotate(90 225,510.0)" text-rendering="optimizeSpeed" fill="#000000">14 (37)</text>
  <rect fill="blue" height="1.4" stroke="black" width="12" x="240" y="503.6"/>
  <text x="240" y="510.0" font-family="Tahoma" font-size="12" transform="rotate(90 240,510.0)" text-rendering="optimizeSpeed" fill="#000000">15 (35)</text>
  <rect fill="blue" height="1.2" stroke="black" width="12" x="255" y="503.8"/>
  <text x="255" y="510.0" font-family="Tahoma" font-size="12" transform="rotate(90 255,510.0)" text-rendering="optimizeSpeed" fill="#000000">16 (29)</text>
  <rect fill="blue" height="1.2" stroke="black" width="12" x="270" y="503.8"/>
  <text x="270" y="510.0" font-family="Tahoma" font-size="12" transform="rotate(90 270,510.0)" text-rendering="optimizeSpeed" fill="#000000">17 (31)</text>
  <rect fill="blue" height="0.8" stroke="black" width="12" x="285" y="504.2"/>
  <text x="285" y="510.0" font-family="Tahoma" font-size="12" transform="rotate(90 285,510.0)" text-rendering="optimizeSpeed" fill="#000000">18 (20)</text>
  <rect fill="blue" height="0.8" stroke="black" width="12" x="300" y="504.2"/>
  <text x="300" y="510.0" font-family="Tahoma" font-size="12" transform="rotate(90 300,510.0)" text-rendering="optimizeSpeed" fill="#000000">19 (20)</text>
  <rect fill="blue" height="1.4" stroke="black" width="12" x="315" y="503.6"/>
  <text x="315" y="510.0" font-family="Tahoma" font-size="12" transform="rotate(90 315,510.0)" text-rendering="optimizeSpeed" fill="#000000">20 (34)</text>
  <rect fill="blue" height="0.4" stroke="black" width="12" x="330" y="504.6"/>
  <text x="330" y="510.0" font-family="Tahoma" font-size="12" transform="rotate(90 330,510.0)" text-rendering="optimizeSpeed" fill="#000000">21 (9)</text>
  <rect fill="blue" height="0.6" stroke="black" width="12" x="345" y="504.4"/>
  <text x="345" y="510.0" font-family="Tahoma" font-size="12" transform="rotate(90 345,510.0)" text-rendering="optimizeSpeed" fill="#000000">22 (16)</text>
  <rect fill="blue" height="0.2" stroke="black" width="12" x="360" y="504.8"/>
  <text x="360" y="510.0" font-family="Tahoma" font-size="12" transform="rotate(90 360,510.0)" text-rendering="optimizeSpeed" fill="#000000">23 (5)</text>
  <rect fill="blue" height="0.8" stroke="black" width="12" x="375" y="504.2"/>
  <text x="375" y="510.0" font-family="Tahoma" font-size="12" transform="rotate(90 375,510.0)" text-rendering="optimizeSpeed" fill="#000000">24 (19)</text>
  <rect fill="blue" height="0.4" stroke="black" width="12" x="390" y="504.6"/>
  <text x="390" y="510.0" font-family="Tahoma" font-size="12" transform="rotate(90 390,510.0)" text-rendering="optimizeSpeed" fill="#000000">25 (10)</text>
  <rect fill="blue" height="0.4" stroke="black" width="12" x="405" y="504.6"/>
  <text x="405" y="510.0" font-family="Tahoma" font-size="12" transform="rotate(90 405,510.0)" text-rendering="optimizeSpeed" fill="#000000">26 (10)</text>
  <rect fill="blue" height="0.2" stroke="black" width="12" x="420" y="504.8"/>
  <text x="420" y="510.0" font-family="Tahoma" font-size="12" transform="rotate(90 420,510.0)" text-rendering="optimizeSpeed" fill="#000000">27 (6)</text>
  <rect fill="blue" height="0.1" stroke="black" width="12" x="435" y="504.9"/>
  <text x="435" y="510.0" font-family="Tahoma" font-size="12" transform="rotate(90 435,510.0)" text-rendering="optimizeSpeed" fill="#000000">28 (3)</text>
  <rect fill="blue" height="0.0" stroke="black" width="12" x="450" y="505.0"/>
  <text x="450" y="510.0" font-family="Tahoma" font-size="12" transform="rotate(90 450,510.0)" text-rendering="optimizeSpeed" fill="#000000">29 (1)</text>
  <rect fill="blue" height="0.4" stroke="black" width="12" x="465" y="504.6"/>
  <text x="465" y="510.0" font-family="Tahoma" font-size="12" transform="rotate(90 465,510.0)" text-rendering="optimizeSpeed" fill="#000000">30 (10)</text>
  <rect fill="blue" height="0.1" stroke="black" width="12" x="480" y="504.9"/>
  <text x="480" y="510.0" font-family="Tahoma" font-size="12" transform="rotate(90 480,510.0)" text-rendering="optimizeSpeed" fill="#000000">31 (2)</text>
  <rect fill="blue" height="0.2" stroke="black" width="12" x="495" y="504.8"/>
  <text x="495" y="510.0" font-family="Tahoma" font-size="12" transform="rotate(90 495,510.0)" text-rendering="optimizeSpeed" fill="#000000">32 (6)</text>
  <rect fill="blue" height="0.1" stroke="black" width="12" x="510" y="504.9"/>
  <text x="510" y="510.0" font-family="Tahoma" font-size="12" transform="rotate(90 510,510.0)" text-rendering="optimizeSpeed" fill="#000000">33 (2)</text>
  <rect fill="blue" height="0.1" stroke="black" width="12" x="525" y="504.9"/>
  <text x="525" y="510.0" font-family="Tahoma" font-size="12" transform="rotate(90 525,510.0)" text-rendering="optimizeSpeed" fill="#000000">34 (3)</text>
  <rect fill="blue" height="0.2" stroke="black" width="12" x="540" y="504.8"/>
  <text x="540" y="510.0" font-family="Tahoma" font-size="12" transform="rotate(90 540,510.0)" text-rendering="optimizeSpeed" fill="#000000">35 (4)</text>
  <rect fill="blue" height="0.2" stroke="black" width="12" x="555" y="504.8"/>
  <text x="555" y="510.0" font-family="Tahoma" font-size="12" transform="rotate(90 555,510.0)" text-rendering="optimizeSpeed" fill="#000000">36 (4)</text>
  <rect fill="blue" height="0.2" stroke="black" width="12" x="570" y="504.8"/>
  <text x="570" y="510.0" font-family="Tahoma" font-size="12" transform="rotate(90 570,510.0)" text-rendering="optimizeSpeed" fill="#000000">37 (5)</text>
  <rect fill="blue" height="0.2" stroke="black" width="12" x="585" y="504.8"/>
  <text x="585" y="510.0" font-family="Tahoma" font-size="12" transform="rotate(90 585,510.0)" text-rendering="optimizeSpeed" fill="#000000">38 (4)</text>
  <rect fill="blue" height="0.1" stroke="black" width="12" x="600" y="504.9"/>
  <text x="600" y="510.0" font-family="Tahoma" font-size="12" transform="rotate(90 600,510.0)" text-rendering="optimizeSpeed" fill="#000000">39 (3)</text>
  <rect fill="blue" height="0.2" stroke="black" width="12" x="615" y="504.8"/>
  <text x="615" y="510.0" font-family="Tahoma" font-size="12" transform="rotate(90 615,510.0)" text-rendering="optimizeSpeed" fill="#000000">40 (5)</text>
  <rect fill="blue" height="0.1" stroke="black" width="12" x="630" y="504.9"/>
  <text x="630" y="510.0" font-family="Tahoma" font-size="12" transform="rotate(90 630,510.0)" text-rendering="optimizeSpeed" fill="#000000">41 (2)</text>
  <rect fill="blue" height="0.0" stroke="black" width="12" x="645" y="505.0"/>
  <text x="645" y="510.0" font-family="Tahoma" font-size="12" transform="rotate(90 645,510.0)" text-rendering="optimizeSpeed" fill="#000000">42 (1)</text>
  <rect fill="blue" height="0.0" stroke="black" width="12" x="660" y="505.0"/>
  <text x="660" y="510.0" font-family="Tahoma" font-size="12" transform="rotate(90 660,510.0)" text-rendering="optimizeSpeed" fill="#000000">43 (1)</text>
  <rect fill="blue" height="0.1" stroke="black" width="12" x="675" y="504.9"/>
  <text x="675" y="510.0" font-family="Tahoma" font-size="12" transform="rotate(90 675,510.0)" text-rendering="optimizeSpeed" fill="#000000">44 (3)</text>
  <rect fill="blue" height="0.0" stroke="black" width="12" x="690" y="505.0"/>
  <text x="690" y="510.0" font-family="Tahoma" font-size="12" transform="rotate(90 690,510.0)" text-rendering="optimizeSpeed" fill="#000000">45 (1)</text>
  <rect fill="blue" height="0.1" stroke="black" width="12" x="705" y="504.9"/>
  <text x="705" y="510.0" font-family="Tahoma" font-size="12" transform="rotate(90 705,510.0)" text-rendering="optimizeSpeed" fill="#000000">46 (3)</text>
  <rect fill="blue" height="0.3" stroke="black" width="12" x="720" y="504.7"/>
  <text x="720" y="510.0" font-family="Tahoma" font-size="12" transform="rotate(90 720,510.0)" text-rendering="optimizeSpeed" fill="#000000">47 (7)</text>
  <rect fill="blue" height="0.1" stroke="black" width="12" x="735" y="504.9"/>
  <text x="735" y="510.0" font-family="Tahoma" font-size="12" transform="rotate(90 735,510.0)" text-rendering="optimizeSpeed" fill="#000000">48 (2)</text>
  <rect fill="blue" height="0.1" stroke="black" width="12" x="750" y="504.9"/>
  <text x="750" y="510.0" font-family="Tahoma" font-size="12" transform="rotate(90 750,510.0)" text-rendering="optimizeSpeed" fill="#000000">51 (2)</text>
  <rect fill="blue" height="0.2" stroke="black" width="12" x="765" y="504.8"/>
  <text x="765" y="510.0" font-family="Tahoma" font-size="12" transform="rotate(90 765,510.0)" text-rendering="optimizeSpeed" fill="#000000">52 (4)</text>
  <rect fill="blue" height="0.0" stroke="black" width="12" x="780" y="505.0"/>
  <text x="780" y="510.0" font-family="Tahoma" font-size="12" transform="rotate(90 780,510.0)" text-rendering="optimizeSpeed" fill="#000000">53 (1)</text>
  <rect fill="blue" height="0.0" stroke="black" width="12" x="795" y="505.0"/>
  <text x="795" y="510.0" font-family="Tahoma" font-size="12" transform="rotate(90 795,510.0)" text-rendering="optimizeSpeed" fill="#000000">54 (1)</text>
  <rect fill="blue" height="0.0" stroke="black" width="12" x="810" y="505.0"/>
  <text x="810" y="510.0" font-family="Tahoma" font-size="12" transform="rotate(90 810,510.0)" text-rendering="optimizeSpeed" fill="#000000">55 (1)</text>
  <rect fill="blue" height="0.0" stroke="black" width="12" x="825" y="505.0"/>
  <text x="825" y="510.0" font-family="Tahoma" font-size="12" transform="rotate(90 825,510.0)" text-rendering="optimizeSpeed" fill="#000000">56 (1)</text>
  <rect fill="blue" height="0.0" stroke="black" width="12" x="840" y="505.0"/>
  <text x="840" y="510.0" font-family="Tahoma" font-size="12" transform="rotate(90 840,510.0)" text-rendering="optimizeSpeed" fill="#000000">58 (1)</text>
  <rect fill="blue" height="0.0" stroke="black" width="12" x="855" y="505.0"/>
  <text x="855" y="510.0" font-family="Tahoma" font-size="12" transform="rotate(90 855,510.0)" text-rendering="optimizeSpeed" fill="#000000">59 (1)</text>
  <rect fill="blue" height="0.1" stroke="black" width="12" x="870" y="504.9"/>
  <text x="870" y="510.0" font-family="Tahoma" font-size="12" transform="rotate(90 870,510.0)" text-rendering="optimizeSpeed" fill="#000000">60 (3)</text>
  <rect fill="blue" height="0.1" stroke="black" width="12" x="885" y="504.9"/>
  <text x="885" y="510.0" font-family="Tahoma" font-size="12" transform="rotate(90 885,510.0)" text-rendering="optimizeSpeed" fill="#000000">61 (2)</text>
  <rect fill="blue" height="0.1" stroke="black" width="12" x="900" y="504.9"/>
  <text x="900" y="510.0" font-family="Tahoma" font-size="12" transform="rotate(90 900,510.0)" text-rendering="optimizeSpeed" fill="#000000">62 (3)</text>
  <rect fill="blue" height="0.0" stroke="black" width="12" x="915" y="505.0"/>
  <text x="915" y="510.0" font-family="Tahoma" font-size="12" transform="rotate(90 915,510.0)" text-rendering="optimizeSpeed" fill="#000000">63 (1)</text>
  <rect fill="blue" height="0.0" stroke="black" width="12" x="930" y="505.0"/>
  <text x="930" y="510.0" font-family="Tahoma" font-size="12" transform="rotate(90 930,510.0)" text-rendering="optimizeSpeed" fill="#000000">66 (1)</text>
  <rect fill="blue" height="0.1" stroke="black" width="12" x="945" y="504.9"/>
  <text x="945" y="510.0" font-family="Tahoma" font-size="12" transform="rotate(90 945,510.0)" text-rendering="optimizeSpeed" fill="#000000">67 (2)</text>
  <rect fill="blue" height="0.1" stroke="black" width="12" x="960" y="504.9"/>
  <text x="960" y="510.0" font-family="Tahoma" font-size="12" transform="rotate(90 960,510.0)" text-rendering="optimizeSpeed" fill="#000000">69 (2)</text>
  <rect fill="blue" height="0.0" stroke="black" width="12" x="975" y="505.0"/>
  <text x="975" y="510.0" font-family="Tahoma" font-size="12" transform="rotate(90 975,510.0)" text-rendering="optimizeSpeed" fill="#000000">70 (1)</text>
  <rect fill="blue" height="0.0" stroke="black" width="12" x="990" y="505.0"/>
  <text x="990" y="510.0" font-family="Tahoma" font-size="12" transform="rotate(90 990,510.0)" text-rendering="optimizeSpeed" fill="#000000">73 (1)</text>
  <rect fill="blue" height="0.0" stroke="black" width="12" x="1005" y="505.0"/>
  <text x="1005" y="510.0" font-family="Tahoma" font-size="12" transform="rotate(90 1005,510.0)" text-rendering="optimizeSpeed" fill="#000000">74 (1)</text>
  <rect fill="blue" height="0.0" stroke="black" width="12" x="1020" y="505.0"/>
  <text x="1020" y="510.0" font-family="Tahoma" font-size="12" transform="rotate(90 1020,510.0)" text-rendering="optimizeSpeed" fill="#000000">77 (1)</text>
  <rect fill="blue" height="0.1" stroke="black" width="12" x="1035" y="504.9"/>
  <text x="1035" y="510.0" font-family="Tahoma" font-size="12" transform="rotate(90 1035,510.0)" text-rendering="optimizeSpeed" fill="#000000">78 (2)</text>
  <rect fill="blue" height="0.0" stroke="black" width="12" x="1050" y="505.0"/>
  <text x="1050" y="510.0" font-family="Tahoma" font-size="12" transform="rotate(90 1050,510.0)" text-rendering="optimizeSpeed" fill="#000000">80 (1)</text>
  <rect fill="blue" height="0.0" stroke="black" width="12" x="1065" y="505.0"/>
  <text x="1065" y="510.0" font-family="Tahoma" font-size="12" transform="rotate(90 1065,510.0)" text-rendering="optimizeSpeed" fill="#000000">82 (1)</text>
  <rect fill="blue" height="0.0" stroke="black" width="12" x="1080" y="505.0"/>
  <text x="1080" y="510.0" font-family="Tahoma" font-size="12" transform="rotate(90 1080,510.0)" text-rendering="optimizeSpeed" fill="#000000">86 (1)</text>
  <rect fill="blue" height="0.0" stroke="black" width="12" x="1095" y="505.0"/>
  <text x="1095" y="510.0" font-family="Tahoma" font-size="12" transform="rotate(90 1095,510.0)" text-rendering="optimizeSpeed" fill="#000000">88 (1)</text>
  <rect fill="blue" height="0.0" stroke="black" width="12" x="1110" y="505.0"/>
  <text x="1110" y="510.0" font-family="Tahoma" font-size="12" transform="rotate(90 1110,510.0)" text-rendering="optimizeSpeed" fill="#000000">100 (1)</text>
  <rect fill="blue" height="0.0" stroke="black" width="12" x="1125" y="505.0"/>
  <text x="1125" y="510.0" font-family="Tahoma" font-size="12" transform="rotate(90 1125,510.0)" text-rendering="optimizeSpeed" fill="#000000">102 (1)</text>
  <rect fill="blue" height="0.0" stroke="black" width="12" x="1140" y="505.0"/>
  <text x="1140" y="510.0" font-family="Tahoma" font-size="12" transform="rotate(90 1140,510.0)" text-rendering="optimizeSpeed" fill="#000000">113 (1)</text>
  <rect fill="blue" height="0.0" stroke="black" width="12" x="1155" y="505.0"/>
  <text x="1155" y="510.0" font-family="Tahoma" font-size="12" transform="rotate(90 1155,510.0)" text-rendering="optimizeSpeed" fill="#000000">117 (1)</text>
  <rect fill="blue" height="0.0" stroke="black" width="12" x="1170" y="505.0"/>
  <text x="1170" y="510.0" font-family="Tahoma" font-size="12" transform="rotate(90 1170,510.0)" text-rendering="optimizeSpeed" fill="#000000">152 (1)</text>
  <rect fill="blue" height="0.0" stroke="black" width="12" x="1185" y="505.0"/>
  <text x="1185" y="510.0" font-family="Tahoma" font-size="12" transform="rotate(90 1185,510.0)" text-rendering="optimizeSpeed" fill="#000000">166 (1)</text>
  <rect fill="blue" height="0.0" stroke="black" width="12" x="1200" y="505.0"/>
  <text x="1200" y="510.0" font-family="Tahoma" font-size="12" transform="rotate(90 1200,510.0)" text-rendering="optimizeSpeed" fill="#000000">198 (1)</text>
  <rect fill="blue" height="0.0" stroke="black" width="12" x="1215" y="505.0"/>
  <text x="1215" y="510.0" font-family="Tahoma" font-size="12" transform="rotate(90 1215,510.0)" text-rendering="optimizeSpeed" fill="#000000">244 (1)</text>
  <rect fill="blue" height="0.0" stroke="black" width="12" x="1230" y="505.0"/>
  <text x="1230" y="510.0" font-family="Tahoma" font-size="12" transform="rotate(90 1230,510.0)" text-rendering="optimizeSpeed" fill="#000000">302 (1)</text>
  <text x="10" y="40" font-family="Tahoma" font-size="20" text-rendering="optimizeSpeed" fill="#000000">Executors per install (total: 17693)</text>
</svg>
