<svg xmlns="http://www.w3.org/2000/svg" version="1.1" preserveAspectRatio="xMidYMid meet" viewBox="0 0 260 536.1">
  <rect fill="blue" height="26.8" stroke="black" width="12" x="15" y="209.3"/>
  <text x="15" y="241.1" font-family="Tahoma" font-size="12" transform="rotate(90 15,241.1)" text-rendering="optimizeSpeed" fill="#000000">disk-usage (2683)</text>
  <rect fill="blue" height="28.0" stroke="black" width="12" x="30" y="208.1"/>
  <text x="30" y="241.1" font-family="Tahoma" font-size="12" transform="rotate(90 30,241.1)" text-rendering="optimizeSpeed" fill="#000000">warnings (2799)</text>
  <rect fill="blue" height="30.2" stroke="black" width="12" x="45" y="205.9"/>
  <text x="45" y="241.1" font-family="Tahoma" font-size="12" transform="rotate(90 45,241.1)" text-rendering="optimizeSpeed" fill="#000000">pmd (3021)</text>
  <rect fill="blue" height="31.4" stroke="black" width="12" x="60" y="204.7"/>
  <text x="60" y="241.1" font-family="Tahoma" font-size="12" transform="rotate(90 60,241.1)" text-rendering="optimizeSpeed" fill="#000000">greenballs (3143)</text>
  <rect fill="blue" height="33.7" stroke="black" width="12" x="75" y="202.5"/>
  <text x="75" y="241.1" font-family="Tahoma" font-size="12" transform="rotate(90 75,241.1)" text-rendering="optimizeSpeed" fill="#000000">checkstyle (3368)</text>
  <rect fill="blue" height="34.2" stroke="black" width="12" x="90" y="202.0"/>
  <text x="90" y="241.1" font-family="Tahoma" font-size="12" transform="rotate(90 90,241.1)" text-rendering="optimizeSpeed" fill="#000000">cobertura (3417)</text>
  <rect fill="blue" height="37.3" stroke="black" width="12" x="105" y="198.8"/>
  <text x="105" y="241.1" font-family="Tahoma" font-size="12" transform="rotate(90 105,241.1)" text-rendering="optimizeSpeed" fill="#000000">findbugs (3733)</text>
  <rect fill="blue" height="38.9" stroke="black" width="12" x="120" y="197.3"/>
  <text x="120" y="241.1" font-family="Tahoma" font-size="12" transform="rotate(90 120,241.1)" text-rendering="optimizeSpeed" fill="#000000">email-ext (3888)</text>
  <rect fill="blue" height="44.1" stroke="black" width="12" x="135" y="192.1"/>
  <text x="135" y="241.1" font-family="Tahoma" font-size="12" transform="rotate(90 135,241.1)" text-rendering="optimizeSpeed" fill="#000000">analysis-core (4406)</text>
  <rect fill="blue" height="122.1" stroke="black" width="12" x="150" y="114.1"/>
  <text x="150" y="241.1" font-family="Tahoma" font-size="12" transform="rotate(90 150,241.1)" text-rendering="optimizeSpeed" fill="#000000">cvs (12208)</text>
  <rect fill="blue" height="169.4" stroke="black" width="12" x="165" y="66.7"/>
  <text x="165" y="241.1" font-family="Tahoma" font-size="12" transform="rotate(90 165,241.1)" text-rendering="optimizeSpeed" fill="#000000">scis-ad (16940)</text>
  <rect fill="blue" height="180.6" stroke="black" width="12" x="180" y="55.6"/>
  <text x="180" y="241.1" font-family="Tahoma" font-size="12" transform="rotate(90 180,241.1)" text-rendering="optimizeSpeed" fill="#000000">subversion (18055)</text>
  <rect fill="blue" height="185.2" stroke="black" width="12" x="195" y="51.0"/>
  <text x="195" y="241.1" font-family="Tahoma" font-size="12" transform="rotate(90 195,241.1)" text-rendering="optimizeSpeed" fill="#000000">maven-plugin (18518)</text>
  <rect fill="blue" height="186.1" stroke="black" width="12" x="210" y="50.0"/>
  <text x="210" y="241.1" font-family="Tahoma" font-size="12" transform="rotate(90 210,241.1)" text-rendering="optimizeSpeed" fill="#000000">ssh-slaves (18614)</text>
  <text x="10" y="40" font-family="Tahoma" font-size="20" text-rendering="optimizeSpeed" fill="#000000">Plugin installations (installations &gt; 2500)</text>
</svg>
