<svg xmlns="http://www.w3.org/2000/svg" version="1.1" preserveAspectRatio="xMidYMid meet" viewBox="0 0 305 433.1">
  <rect fill="blue" height="10.1" stroke="black" width="12" x="15" y="123.0"/>
  <text x="15" y="138.1" font-family="Tahoma" font-size="12" transform="rotate(90 15,138.1)" text-rendering="optimizeSpeed" fill="#000000">sonar (1007)</text>
  <rect fill="blue" height="11.0" stroke="black" width="12" x="30" y="122.1"/>
  <text x="30" y="138.1" font-family="Tahoma" font-size="12" transform="rotate(90 30,138.1)" text-rendering="optimizeSpeed" fill="#000000">analysis-collector (1100)</text>
  <rect fill="blue" height="11.3" stroke="black" width="12" x="45" y="121.8"/>
  <text x="45" y="138.1" font-family="Tahoma" font-size="12" transform="rotate(90 45,138.1)" text-rendering="optimizeSpeed" fill="#000000">git (1131)</text>
  <rect fill="blue" height="11.8" stroke="black" width="12" x="60" y="121.3"/>
  <text x="60" y="138.1" font-family="Tahoma" font-size="12" transform="rotate(90 60,138.1)" text-rendering="optimizeSpeed" fill="#000000">disk-usage (1180)</text>
  <rect fill="blue" height="13.0" stroke="black" width="12" x="75" y="120.0"/>
  <text x="75" y="138.1" font-family="Tahoma" font-size="12" transform="rotate(90 75,138.1)" text-rendering="optimizeSpeed" fill="#000000">pmd (1304)</text>
  <rect fill="blue" height="13.2" stroke="black" width="12" x="90" y="119.9"/>
  <text x="90" y="138.1" font-family="Tahoma" font-size="12" transform="rotate(90 90,138.1)" text-rendering="optimizeSpeed" fill="#000000">warnings (1315)</text>
  <rect fill="blue" height="13.6" stroke="black" width="12" x="105" y="119.4"/>
  <text x="105" y="138.1" font-family="Tahoma" font-size="12" transform="rotate(90 105,138.1)" text-rendering="optimizeSpeed" fill="#000000">cobertura (1364)</text>
  <rect fill="blue" height="15.0" stroke="black" width="12" x="120" y="118.0"/>
  <text x="120" y="138.1" font-family="Tahoma" font-size="12" transform="rotate(90 120,138.1)" text-rendering="optimizeSpeed" fill="#000000">checkstyle (1504)</text>
  <rect fill="blue" height="15.4" stroke="black" width="12" x="135" y="117.7"/>
  <text x="135" y="138.1" font-family="Tahoma" font-size="12" transform="rotate(90 135,138.1)" text-rendering="optimizeSpeed" fill="#000000">findbugs (1543)</text>
  <rect fill="blue" height="16.8" stroke="black" width="12" x="150" y="116.3"/>
  <text x="150" y="138.1" font-family="Tahoma" font-size="12" transform="rotate(90 150,138.1)" text-rendering="optimizeSpeed" fill="#000000">greenballs (1679)</text>
  <rect fill="blue" height="17.0" stroke="black" width="12" x="165" y="116.1"/>
  <text x="165" y="138.1" font-family="Tahoma" font-size="12" transform="rotate(90 165,138.1)" text-rendering="optimizeSpeed" fill="#000000">email-ext (1699)</text>
  <rect fill="blue" height="27.1" stroke="black" width="12" x="180" y="106.0"/>
  <text x="180" y="138.1" font-family="Tahoma" font-size="12" transform="rotate(90 180,138.1)" text-rendering="optimizeSpeed" fill="#000000">scis-ad (2709)</text>
  <rect fill="blue" height="30.1" stroke="black" width="12" x="195" y="103.0"/>
  <text x="195" y="138.1" font-family="Tahoma" font-size="12" transform="rotate(90 195,138.1)" text-rendering="optimizeSpeed" fill="#000000">analysis-core (3008)</text>
  <rect fill="blue" height="79.0" stroke="black" width="12" x="210" y="54.1"/>
  <text x="210" y="138.1" font-family="Tahoma" font-size="12" transform="rotate(90 210,138.1)" text-rendering="optimizeSpeed" fill="#000000">cvs (7896)</text>
  <rect fill="blue" height="81.2" stroke="black" width="12" x="225" y="51.8"/>
  <text x="225" y="138.1" font-family="Tahoma" font-size="12" transform="rotate(90 225,138.1)" text-rendering="optimizeSpeed" fill="#000000">maven-plugin (8124)</text>
  <rect fill="blue" height="82.6" stroke="black" width="12" x="240" y="50.5"/>
  <text x="240" y="138.1" font-family="Tahoma" font-size="12" transform="rotate(90 240,138.1)" text-rendering="optimizeSpeed" fill="#000000">ssh-slaves (8256)</text>
  <rect fill="blue" height="83.1" stroke="black" width="12" x="255" y="50.0"/>
  <text x="255" y="138.1" font-family="Tahoma" font-size="12" transform="rotate(90 255,138.1)" text-rendering="optimizeSpeed" fill="#000000">subversion (8308)</text>
  <text x="10" y="40" font-family="Tahoma" font-size="20" text-rendering="optimizeSpeed" fill="#000000">Plugin installations (installations &gt; 1000)</text>
</svg>
