<svg xmlns="http://www.w3.org/2000/svg" version="1.1" preserveAspectRatio="xMidYMid meet" viewBox="0 0 1205 772.6">
  <rect fill="blue" height="20.4" stroke="black" width="12" x="15" y="452.2"/>
  <text x="15" y="477.6" font-family="Tahoma" font-size="12" transform="rotate(90 15,477.6)" text-rendering="optimizeSpeed" fill="#000000">0 (510)</text>
  <rect fill="blue" height="76.8" stroke="black" width="12" x="30" y="395.7"/>
  <text x="30" y="477.6" font-family="Tahoma" font-size="12" transform="rotate(90 30,477.6)" text-rendering="optimizeSpeed" fill="#000000">1 (1921)</text>
  <rect fill="blue" height="422.6" stroke="black" width="12" x="45" y="50.0"/>
  <text x="45" y="477.6" font-family="Tahoma" font-size="12" transform="rotate(90 45,477.6)" text-rendering="optimizeSpeed" fill="#000000">2 (10564)</text>
  <rect fill="blue" height="34.0" stroke="black" width="12" x="60" y="438.6"/>
  <text x="60" y="477.6" font-family="Tahoma" font-size="12" transform="rotate(90 60,477.6)" text-rendering="optimizeSpeed" fill="#000000">3 (850)</text>
  <rect fill="blue" height="34.7" stroke="black" width="12" x="75" y="437.8"/>
  <text x="75" y="477.6" font-family="Tahoma" font-size="12" transform="rotate(90 75,477.6)" text-rendering="optimizeSpeed" fill="#000000">4 (868)</text>
  <rect fill="blue" height="18.5" stroke="black" width="12" x="90" y="454.1"/>
  <text x="90" y="477.6" font-family="Tahoma" font-size="12" transform="rotate(90 90,477.6)" text-rendering="optimizeSpeed" fill="#000000">5 (462)</text>
  <rect fill="blue" height="9.9" stroke="black" width="12" x="105" y="462.6"/>
  <text x="105" y="477.6" font-family="Tahoma" font-size="12" transform="rotate(90 105,477.6)" text-rendering="optimizeSpeed" fill="#000000">6 (248)</text>
  <rect fill="blue" height="5.4" stroke="black" width="12" x="120" y="467.2"/>
  <text x="120" y="477.6" font-family="Tahoma" font-size="12" transform="rotate(90 120,477.6)" text-rendering="optimizeSpeed" fill="#000000">7 (135)</text>
  <rect fill="blue" height="7.4" stroke="black" width="12" x="135" y="465.2"/>
  <text x="135" y="477.6" font-family="Tahoma" font-size="12" transform="rotate(90 135,477.6)" text-rendering="optimizeSpeed" fill="#000000">8 (185)</text>
  <rect fill="blue" height="3.2" stroke="black" width="12" x="150" y="469.3"/>
  <text x="150" y="477.6" font-family="Tahoma" font-size="12" transform="rotate(90 150,477.6)" text-rendering="optimizeSpeed" fill="#000000">9 (81)</text>
  <rect fill="blue" height="5.8" stroke="black" width="12" x="165" y="466.8"/>
  <text x="165" y="477.6" font-family="Tahoma" font-size="12" transform="rotate(90 165,477.6)" text-rendering="optimizeSpeed" fill="#000000">10 (145)</text>
  <rect fill="blue" height="1.8" stroke="black" width="12" x="180" y="470.8"/>
  <text x="180" y="477.6" font-family="Tahoma" font-size="12" transform="rotate(90 180,477.6)" text-rendering="optimizeSpeed" fill="#000000">11 (44)</text>
  <rect fill="blue" height="2.4" stroke="black" width="12" x="195" y="470.2"/>
  <text x="195" y="477.6" font-family="Tahoma" font-size="12" transform="rotate(90 195,477.6)" text-rendering="optimizeSpeed" fill="#000000">12 (60)</text>
  <rect fill="blue" height="1.2" stroke="black" width="12" x="210" y="471.4"/>
  <text x="210" y="477.6" font-family="Tahoma" font-size="12" transform="rotate(90 210,477.6)" text-rendering="optimizeSpeed" fill="#000000">13 (29)</text>
  <rect fill="blue" height="1.1" stroke="black" width="12" x="225" y="471.4"/>
  <text x="225" y="477.6" font-family="Tahoma" font-size="12" transform="rotate(90 225,477.6)" text-rendering="optimizeSpeed" fill="#000000">14 (28)</text>
  <rect fill="blue" height="1.2" stroke="black" width="12" x="240" y="471.3"/>
  <text x="240" y="477.6" font-family="Tahoma" font-size="12" transform="rotate(90 240,477.6)" text-rendering="optimizeSpeed" fill="#000000">15 (31)</text>
  <rect fill="blue" height="1.5" stroke="black" width="12" x="255" y="471.1"/>
  <text x="255" y="477.6" font-family="Tahoma" font-size="12" transform="rotate(90 255,477.6)" text-rendering="optimizeSpeed" fill="#000000">16 (37)</text>
  <rect fill="blue" height="0.8" stroke="black" width="12" x="270" y="471.7"/>
  <text x="270" y="477.6" font-family="Tahoma" font-size="12" transform="rotate(90 270,477.6)" text-rendering="optimizeSpeed" fill="#000000">17 (21)</text>
  <rect fill="blue" height="0.6" stroke="black" width="12" x="285" y="472.0"/>
  <text x="285" y="477.6" font-family="Tahoma" font-size="12" transform="rotate(90 285,477.6)" text-rendering="optimizeSpeed" fill="#000000">18 (14)</text>
  <rect fill="blue" height="0.7" stroke="black" width="12" x="300" y="471.8"/>
  <text x="300" y="477.6" font-family="Tahoma" font-size="12" transform="rotate(90 300,477.6)" text-rendering="optimizeSpeed" fill="#000000">19 (18)</text>
  <rect fill="blue" height="1.3" stroke="black" width="12" x="315" y="471.3"/>
  <text x="315" y="477.6" font-family="Tahoma" font-size="12" transform="rotate(90 315,477.6)" text-rendering="optimizeSpeed" fill="#000000">20 (32)</text>
  <rect fill="blue" height="0.4" stroke="black" width="12" x="330" y="472.2"/>
  <text x="330" y="477.6" font-family="Tahoma" font-size="12" transform="rotate(90 330,477.6)" text-rendering="optimizeSpeed" fill="#000000">21 (9)</text>
  <rect fill="blue" height="0.5" stroke="black" width="12" x="345" y="472.1"/>
  <text x="345" y="477.6" font-family="Tahoma" font-size="12" transform="rotate(90 345,477.6)" text-rendering="optimizeSpeed" fill="#000000">22 (12)</text>
  <rect fill="blue" height="0.3" stroke="black" width="12" x="360" y="472.2"/>
  <text x="360" y="477.6" font-family="Tahoma" font-size="12" transform="rotate(90 360,477.6)" text-rendering="optimizeSpeed" fill="#000000">23 (8)</text>
  <rect fill="blue" height="0.7" stroke="black" width="12" x="375" y="471.9"/>
  <text x="375" y="477.6" font-family="Tahoma" font-size="12" transform="rotate(90 375,477.6)" text-rendering="optimizeSpeed" fill="#000000">24 (17)</text>
  <rect fill="blue" height="0.7" stroke="black" width="12" x="390" y="471.9"/>
  <text x="390" y="477.6" font-family="Tahoma" font-size="12" transform="rotate(90 390,477.6)" text-rendering="optimizeSpeed" fill="#000000">25 (17)</text>
  <rect fill="blue" height="0.2" stroke="black" width="12" x="405" y="472.3"/>
  <text x="405" y="477.6" font-family="Tahoma" font-size="12" transform="rotate(90 405,477.6)" text-rendering="optimizeSpeed" fill="#000000">26 (6)</text>
  <rect fill="blue" height="0.2" stroke="black" width="12" x="420" y="472.4"/>
  <text x="420" y="477.6" font-family="Tahoma" font-size="12" transform="rotate(90 420,477.6)" text-rendering="optimizeSpeed" fill="#000000">27 (5)</text>
  <rect fill="blue" height="0.3" stroke="black" width="12" x="435" y="472.3"/>
  <text x="435" y="477.6" font-family="Tahoma" font-size="12" transform="rotate(90 435,477.6)" text-rendering="optimizeSpeed" fill="#000000">28 (7)</text>
  <rect fill="blue" height="0.4" stroke="black" width="12" x="450" y="472.2"/>
  <text x="450" y="477.6" font-family="Tahoma" font-size="12" transform="rotate(90 450,477.6)" text-rendering="optimizeSpeed" fill="#000000">30 (9)</text>
  <rect fill="blue" height="0.1" stroke="black" width="12" x="465" y="472.4"/>
  <text x="465" y="477.6" font-family="Tahoma" font-size="12" transform="rotate(90 465,477.6)" text-rendering="optimizeSpeed" fill="#000000">31 (3)</text>
  <rect fill="blue" height="0.2" stroke="black" width="12" x="480" y="472.4"/>
  <text x="480" y="477.6" font-family="Tahoma" font-size="12" transform="rotate(90 480,477.6)" text-rendering="optimizeSpeed" fill="#000000">32 (5)</text>
  <rect fill="blue" height="0.2" stroke="black" width="12" x="495" y="472.4"/>
  <text x="495" y="477.6" font-family="Tahoma" font-size="12" transform="rotate(90 495,477.6)" text-rendering="optimizeSpeed" fill="#000000">34 (4)</text>
  <rect fill="blue" height="0.1" stroke="black" width="12" x="510" y="472.4"/>
  <text x="510" y="477.6" font-family="Tahoma" font-size="12" transform="rotate(90 510,477.6)" text-rendering="optimizeSpeed" fill="#000000">35 (3)</text>
  <rect fill="blue" height="0.1" stroke="black" width="12" x="525" y="472.5"/>
  <text x="525" y="477.6" font-family="Tahoma" font-size="12" transform="rotate(90 525,477.6)" text-rendering="optimizeSpeed" fill="#000000">36 (2)</text>
  <rect fill="blue" height="0.1" stroke="black" width="12" x="540" y="472.4"/>
  <text x="540" y="477.6" font-family="Tahoma" font-size="12" transform="rotate(90 540,477.6)" text-rendering="optimizeSpeed" fill="#000000">37 (3)</text>
  <rect fill="blue" height="0.1" stroke="black" width="12" x="555" y="472.5"/>
  <text x="555" y="477.6" font-family="Tahoma" font-size="12" transform="rotate(90 555,477.6)" text-rendering="optimizeSpeed" fill="#000000">38 (2)</text>
  <rect fill="blue" height="0.2" stroke="black" width="12" x="570" y="472.4"/>
  <text x="570" y="477.6" font-family="Tahoma" font-size="12" transform="rotate(90 570,477.6)" text-rendering="optimizeSpeed" fill="#000000">39 (5)</text>
  <rect fill="blue" height="0.5" stroke="black" width="12" x="585" y="472.1"/>
  <text x="585" y="477.6" font-family="Tahoma" font-size="12" transform="rotate(90 585,477.6)" text-rendering="optimizeSpeed" fill="#000000">40 (12)</text>
  <rect fill="blue" height="0.1" stroke="black" width="12" x="600" y="472.5"/>
  <text x="600" y="477.6" font-family="Tahoma" font-size="12" transform="rotate(90 600,477.6)" text-rendering="optimizeSpeed" fill="#000000">41 (2)</text>
  <rect fill="blue" height="0.0" stroke="black" width="12" x="615" y="472.5"/>
  <text x="615" y="477.6" font-family="Tahoma" font-size="12" transform="rotate(90 615,477.6)" text-rendering="optimizeSpeed" fill="#000000">43 (1)</text>
  <rect fill="blue" height="0.0" stroke="black" width="12" x="630" y="472.5"/>
  <text x="630" y="477.6" font-family="Tahoma" font-size="12" transform="rotate(90 630,477.6)" text-rendering="optimizeSpeed" fill="#000000">44 (1)</text>
  <rect fill="blue" height="0.1" stroke="black" width="12" x="645" y="472.5"/>
  <text x="645" y="477.6" font-family="Tahoma" font-size="12" transform="rotate(90 645,477.6)" text-rendering="optimizeSpeed" fill="#000000">45 (2)</text>
  <rect fill="blue" height="0.1" stroke="black" width="12" x="660" y="472.4"/>
  <text x="660" y="477.6" font-family="Tahoma" font-size="12" transform="rotate(90 660,477.6)" text-rendering="optimizeSpeed" fill="#000000">46 (3)</text>
  <rect fill="blue" height="0.1" stroke="black" width="12" x="675" y="472.4"/>
  <text x="675" y="477.6" font-family="Tahoma" font-size="12" transform="rotate(90 675,477.6)" text-rendering="optimizeSpeed" fill="#000000">47 (3)</text>
  <rect fill="blue" height="0.0" stroke="black" width="12" x="690" y="472.5"/>
  <text x="690" y="477.6" font-family="Tahoma" font-size="12" transform="rotate(90 690,477.6)" text-rendering="optimizeSpeed" fill="#000000">48 (1)</text>
  <rect fill="blue" height="0.0" stroke="black" width="12" x="705" y="472.5"/>
  <text x="705" y="477.6" font-family="Tahoma" font-size="12" transform="rotate(90 705,477.6)" text-rendering="optimizeSpeed" fill="#000000">49 (1)</text>
  <rect fill="blue" height="0.1" stroke="black" width="12" x="720" y="472.4"/>
  <text x="720" y="477.6" font-family="Tahoma" font-size="12" transform="rotate(90 720,477.6)" text-rendering="optimizeSpeed" fill="#000000">50 (3)</text>
  <rect fill="blue" height="0.0" stroke="black" width="12" x="735" y="472.5"/>
  <text x="735" y="477.6" font-family="Tahoma" font-size="12" transform="rotate(90 735,477.6)" text-rendering="optimizeSpeed" fill="#000000">51 (1)</text>
  <rect fill="blue" height="0.1" stroke="black" width="12" x="750" y="472.4"/>
  <text x="750" y="477.6" font-family="Tahoma" font-size="12" transform="rotate(90 750,477.6)" text-rendering="optimizeSpeed" fill="#000000">52 (3)</text>
  <rect fill="blue" height="0.0" stroke="black" width="12" x="765" y="472.5"/>
  <text x="765" y="477.6" font-family="Tahoma" font-size="12" transform="rotate(90 765,477.6)" text-rendering="optimizeSpeed" fill="#000000">53 (1)</text>
  <rect fill="blue" height="0.0" stroke="black" width="12" x="780" y="472.5"/>
  <text x="780" y="477.6" font-family="Tahoma" font-size="12" transform="rotate(90 780,477.6)" text-rendering="optimizeSpeed" fill="#000000">54 (1)</text>
  <rect fill="blue" height="0.0" stroke="black" width="12" x="795" y="472.5"/>
  <text x="795" y="477.6" font-family="Tahoma" font-size="12" transform="rotate(90 795,477.6)" text-rendering="optimizeSpeed" fill="#000000">55 (1)</text>
  <rect fill="blue" height="0.0" stroke="black" width="12" x="810" y="472.5"/>
  <text x="810" y="477.6" font-family="Tahoma" font-size="12" transform="rotate(90 810,477.6)" text-rendering="optimizeSpeed" fill="#000000">56 (1)</text>
  <rect fill="blue" height="0.1" stroke="black" width="12" x="825" y="472.5"/>
  <text x="825" y="477.6" font-family="Tahoma" font-size="12" transform="rotate(90 825,477.6)" text-rendering="optimizeSpeed" fill="#000000">58 (2)</text>
  <rect fill="blue" height="0.0" stroke="black" width="12" x="840" y="472.5"/>
  <text x="840" y="477.6" font-family="Tahoma" font-size="12" transform="rotate(90 840,477.6)" text-rendering="optimizeSpeed" fill="#000000">59 (1)</text>
  <rect fill="blue" height="0.0" stroke="black" width="12" x="855" y="472.5"/>
  <text x="855" y="477.6" font-family="Tahoma" font-size="12" transform="rotate(90 855,477.6)" text-rendering="optimizeSpeed" fill="#000000">60 (1)</text>
  <rect fill="blue" height="0.0" stroke="black" width="12" x="870" y="472.5"/>
  <text x="870" y="477.6" font-family="Tahoma" font-size="12" transform="rotate(90 870,477.6)" text-rendering="optimizeSpeed" fill="#000000">61 (1)</text>
  <rect fill="blue" height="0.1" stroke="black" width="12" x="885" y="472.4"/>
  <text x="885" y="477.6" font-family="Tahoma" font-size="12" transform="rotate(90 885,477.6)" text-rendering="optimizeSpeed" fill="#000000">62 (3)</text>
  <rect fill="blue" height="0.1" stroke="black" width="12" x="900" y="472.5"/>
  <text x="900" y="477.6" font-family="Tahoma" font-size="12" transform="rotate(90 900,477.6)" text-rendering="optimizeSpeed" fill="#000000">64 (2)</text>
  <rect fill="blue" height="0.0" stroke="black" width="12" x="915" y="472.5"/>
  <text x="915" y="477.6" font-family="Tahoma" font-size="12" transform="rotate(90 915,477.6)" text-rendering="optimizeSpeed" fill="#000000">65 (1)</text>
  <rect fill="blue" height="0.0" stroke="black" width="12" x="930" y="472.5"/>
  <text x="930" y="477.6" font-family="Tahoma" font-size="12" transform="rotate(90 930,477.6)" text-rendering="optimizeSpeed" fill="#000000">66 (1)</text>
  <rect fill="blue" height="0.0" stroke="black" width="12" x="945" y="472.5"/>
  <text x="945" y="477.6" font-family="Tahoma" font-size="12" transform="rotate(90 945,477.6)" text-rendering="optimizeSpeed" fill="#000000">67 (1)</text>
  <rect fill="blue" height="0.0" stroke="black" width="12" x="960" y="472.5"/>
  <text x="960" y="477.6" font-family="Tahoma" font-size="12" transform="rotate(90 960,477.6)" text-rendering="optimizeSpeed" fill="#000000">68 (1)</text>
  <rect fill="blue" height="0.1" stroke="black" width="12" x="975" y="472.5"/>
  <text x="975" y="477.6" font-family="Tahoma" font-size="12" transform="rotate(90 975,477.6)" text-rendering="optimizeSpeed" fill="#000000">69 (2)</text>
  <rect fill="blue" height="0.0" stroke="black" width="12" x="990" y="472.5"/>
  <text x="990" y="477.6" font-family="Tahoma" font-size="12" transform="rotate(90 990,477.6)" text-rendering="optimizeSpeed" fill="#000000">71 (1)</text>
  <rect fill="blue" height="0.0" stroke="black" width="12" x="1005" y="472.5"/>
  <text x="1005" y="477.6" font-family="Tahoma" font-size="12" transform="rotate(90 1005,477.6)" text-rendering="optimizeSpeed" fill="#000000">77 (1)</text>
  <rect fill="blue" height="0.1" stroke="black" width="12" x="1020" y="472.5"/>
  <text x="1020" y="477.6" font-family="Tahoma" font-size="12" transform="rotate(90 1020,477.6)" text-rendering="optimizeSpeed" fill="#000000">80 (2)</text>
  <rect fill="blue" height="0.0" stroke="black" width="12" x="1035" y="472.5"/>
  <text x="1035" y="477.6" font-family="Tahoma" font-size="12" transform="rotate(90 1035,477.6)" text-rendering="optimizeSpeed" fill="#000000">81 (1)</text>
  <rect fill="blue" height="0.0" stroke="black" width="12" x="1050" y="472.5"/>
  <text x="1050" y="477.6" font-family="Tahoma" font-size="12" transform="rotate(90 1050,477.6)" text-rendering="optimizeSpeed" fill="#000000">100 (1)</text>
  <rect fill="blue" height="0.0" stroke="black" width="12" x="1065" y="472.5"/>
  <text x="1065" y="477.6" font-family="Tahoma" font-size="12" transform="rotate(90 1065,477.6)" text-rendering="optimizeSpeed" fill="#000000">113 (1)</text>
  <rect fill="blue" height="0.0" stroke="black" width="12" x="1080" y="472.5"/>
  <text x="1080" y="477.6" font-family="Tahoma" font-size="12" transform="rotate(90 1080,477.6)" text-rendering="optimizeSpeed" fill="#000000">116 (1)</text>
  <rect fill="blue" height="0.0" stroke="black" width="12" x="1095" y="472.5"/>
  <text x="1095" y="477.6" font-family="Tahoma" font-size="12" transform="rotate(90 1095,477.6)" text-rendering="optimizeSpeed" fill="#000000">152 (1)</text>
  <rect fill="blue" height="0.0" stroke="black" width="12" x="1110" y="472.5"/>
  <text x="1110" y="477.6" font-family="Tahoma" font-size="12" transform="rotate(90 1110,477.6)" text-rendering="optimizeSpeed" fill="#000000">166 (1)</text>
  <rect fill="blue" height="0.0" stroke="black" width="12" x="1125" y="472.5"/>
  <text x="1125" y="477.6" font-family="Tahoma" font-size="12" transform="rotate(90 1125,477.6)" text-rendering="optimizeSpeed" fill="#000000">173 (1)</text>
  <rect fill="blue" height="0.0" stroke="black" width="12" x="1140" y="472.5"/>
  <text x="1140" y="477.6" font-family="Tahoma" font-size="12" transform="rotate(90 1140,477.6)" text-rendering="optimizeSpeed" fill="#000000">236 (1)</text>
  <rect fill="blue" height="0.0" stroke="black" width="12" x="1155" y="472.5"/>
  <text x="1155" y="477.6" font-family="Tahoma" font-size="12" transform="rotate(90 1155,477.6)" text-rendering="optimizeSpeed" fill="#000000">247 (1)</text>
  <text x="10" y="40" font-family="Tahoma" font-size="20" text-rendering="optimizeSpeed" fill="#000000">Executors per install (total: 16466)</text>
</svg>
