<svg xmlns="http://www.w3.org/2000/svg" version="1.1" preserveAspectRatio="xMidYMid meet" viewBox="0 0 845 562.9">
  <rect fill="blue" height="10.1" stroke="black" width="12" x="15" y="252.8"/>
  <text x="15" y="267.9" font-family="Tahoma" font-size="12" transform="rotate(90 15,267.9)" text-rendering="optimizeSpeed" fill="#000000">dependencyanalyzer (1009)</text>
  <rect fill="blue" height="10.1" stroke="black" width="12" x="30" y="252.7"/>
  <text x="30" y="267.9" font-family="Tahoma" font-size="12" transform="rotate(90 30,267.9)" text-rendering="optimizeSpeed" fill="#000000">statusmonitor (1013)</text>
  <rect fill="blue" height="10.3" stroke="black" width="12" x="45" y="252.5"/>
  <text x="45" y="267.9" font-family="Tahoma" font-size="12" transform="rotate(90 45,267.9)" text-rendering="optimizeSpeed" fill="#000000">jabber (1033)</text>
  <rect fill="blue" height="10.5" stroke="black" width="12" x="60" y="252.4"/>
  <text x="60" y="267.9" font-family="Tahoma" font-size="12" transform="rotate(90 60,267.9)" text-rendering="optimizeSpeed" fill="#000000">radiatorviewplugin (1046)</text>
  <rect fill="blue" height="10.7" stroke="black" width="12" x="75" y="252.2"/>
  <text x="75" y="267.9" font-family="Tahoma" font-size="12" transform="rotate(90 75,267.9)" text-rendering="optimizeSpeed" fill="#000000">mercurial (1071)</text>
  <rect fill="blue" height="10.9" stroke="black" width="12" x="90" y="252.0"/>
  <text x="90" y="267.9" font-family="Tahoma" font-size="12" transform="rotate(90 90,267.9)" text-rendering="optimizeSpeed" fill="#000000">locks-and-latches (1090)</text>
  <rect fill="blue" height="11.2" stroke="black" width="12" x="105" y="251.7"/>
  <text x="105" y="267.9" font-family="Tahoma" font-size="12" transform="rotate(90 105,267.9)" text-rendering="optimizeSpeed" fill="#000000">nunit (1116)</text>
  <rect fill="blue" height="11.2" stroke="black" width="12" x="120" y="251.7"/>
  <text x="120" y="267.9" font-family="Tahoma" font-size="12" transform="rotate(90 120,267.9)" text-rendering="optimizeSpeed" fill="#000000">release (1116)</text>
  <rect fill="blue" height="11.2" stroke="black" width="12" x="135" y="251.7"/>
  <text x="135" y="267.9" font-family="Tahoma" font-size="12" transform="rotate(90 135,267.9)" text-rendering="optimizeSpeed" fill="#000000">parameterized-trigger (1117)</text>
  <rect fill="blue" height="11.3" stroke="black" width="12" x="150" y="251.5"/>
  <text x="150" y="267.9" font-family="Tahoma" font-size="12" transform="rotate(90 150,267.9)" text-rendering="optimizeSpeed" fill="#000000">setenv (1135)</text>
  <rect fill="blue" height="11.8" stroke="black" width="12" x="165" y="251.0"/>
  <text x="165" y="267.9" font-family="Tahoma" font-size="12" transform="rotate(90 165,267.9)" text-rendering="optimizeSpeed" fill="#000000">trac (1184)</text>
  <rect fill="blue" height="12.6" stroke="black" width="12" x="180" y="250.2"/>
  <text x="180" y="267.9" font-family="Tahoma" font-size="12" transform="rotate(90 180,267.9)" text-rendering="optimizeSpeed" fill="#000000">svn-release-mgr (1263)</text>
  <rect fill="blue" height="13.0" stroke="black" width="12" x="195" y="249.9"/>
  <text x="195" y="267.9" font-family="Tahoma" font-size="12" transform="rotate(90 195,267.9)" text-rendering="optimizeSpeed" fill="#000000">htmlpublisher (1298)</text>
  <rect fill="blue" height="13.0" stroke="black" width="12" x="210" y="249.9"/>
  <text x="210" y="267.9" font-family="Tahoma" font-size="12" transform="rotate(90 210,267.9)" text-rendering="optimizeSpeed" fill="#000000">postbuild-task (1301)</text>
  <rect fill="blue" height="13.2" stroke="black" width="12" x="225" y="249.6"/>
  <text x="225" y="267.9" font-family="Tahoma" font-size="12" transform="rotate(90 225,267.9)" text-rendering="optimizeSpeed" fill="#000000">audit-trail (1324)</text>
  <rect fill="blue" height="13.7" stroke="black" width="12" x="240" y="249.2"/>
  <text x="240" y="267.9" font-family="Tahoma" font-size="12" transform="rotate(90 240,267.9)" text-rendering="optimizeSpeed" fill="#000000">xunit (1368)</text>
  <rect fill="blue" height="13.8" stroke="black" width="12" x="255" y="249.0"/>
  <text x="255" y="267.9" font-family="Tahoma" font-size="12" transform="rotate(90 255,267.9)" text-rendering="optimizeSpeed" fill="#000000">m2-extra-steps (1383)</text>
  <rect fill="blue" height="15.1" stroke="black" width="12" x="270" y="247.7"/>
  <text x="270" y="267.9" font-family="Tahoma" font-size="12" transform="rotate(90 270,267.9)" text-rendering="optimizeSpeed" fill="#000000">instant-messaging (1514)</text>
  <rect fill="blue" height="15.6" stroke="black" width="12" x="285" y="247.3"/>
  <text x="285" y="267.9" font-family="Tahoma" font-size="12" transform="rotate(90 285,267.9)" text-rendering="optimizeSpeed" fill="#000000">m2release (1560)</text>
  <rect fill="blue" height="16.0" stroke="black" width="12" x="300" y="246.8"/>
  <text x="300" y="267.9" font-family="Tahoma" font-size="12" transform="rotate(90 300,267.9)" text-rendering="optimizeSpeed" fill="#000000">ci-game (1603)</text>
  <rect fill="blue" height="16.6" stroke="black" width="12" x="315" y="246.2"/>
  <text x="315" y="267.9" font-family="Tahoma" font-size="12" transform="rotate(90 315,267.9)" text-rendering="optimizeSpeed" fill="#000000">dry (1663)</text>
  <rect fill="blue" height="17.1" stroke="black" width="12" x="330" y="245.8"/>
  <text x="330" y="267.9" font-family="Tahoma" font-size="12" transform="rotate(90 330,267.9)" text-rendering="optimizeSpeed" fill="#000000">msbuild (1712)</text>
  <rect fill="blue" height="17.7" stroke="black" width="12" x="345" y="245.2"/>
  <text x="345" y="267.9" font-family="Tahoma" font-size="12" transform="rotate(90 345,267.9)" text-rendering="optimizeSpeed" fill="#000000">emma (1771)</text>
  <rect fill="blue" height="17.9" stroke="black" width="12" x="360" y="245.0"/>
  <text x="360" y="267.9" font-family="Tahoma" font-size="12" transform="rotate(90 360,267.9)" text-rendering="optimizeSpeed" fill="#000000">backup (1787)</text>
  <rect fill="blue" height="18.0" stroke="black" width="12" x="375" y="244.9"/>
  <text x="375" y="267.9" font-family="Tahoma" font-size="12" transform="rotate(90 375,267.9)" text-rendering="optimizeSpeed" fill="#000000">scp (1798)</text>
  <rect fill="blue" height="18.7" stroke="black" width="12" x="390" y="244.1"/>
  <text x="390" y="267.9" font-family="Tahoma" font-size="12" transform="rotate(90 390,267.9)" text-rendering="optimizeSpeed" fill="#000000">batch-task (1874)</text>
  <rect fill="blue" height="19.0" stroke="black" width="12" x="405" y="243.9"/>
  <text x="405" y="267.9" font-family="Tahoma" font-size="12" transform="rotate(90 405,267.9)" text-rendering="optimizeSpeed" fill="#000000">build-timeout (1900)</text>
  <rect fill="blue" height="19.6" stroke="black" width="12" x="420" y="243.3"/>
  <text x="420" y="267.9" font-family="Tahoma" font-size="12" transform="rotate(90 420,267.9)" text-rendering="optimizeSpeed" fill="#000000">dashboard-view (1960)</text>
  <rect fill="blue" height="19.7" stroke="black" width="12" x="435" y="243.1"/>
  <text x="435" y="267.9" font-family="Tahoma" font-size="12" transform="rotate(90 435,267.9)" text-rendering="optimizeSpeed" fill="#000000">analysis-collector (1972)</text>
  <rect fill="blue" height="20.2" stroke="black" width="12" x="450" y="242.6"/>
  <text x="450" y="267.9" font-family="Tahoma" font-size="12" transform="rotate(90 450,267.9)" text-rendering="optimizeSpeed" fill="#000000">svn-tag (2025)</text>
  <rect fill="blue" height="20.9" stroke="black" width="12" x="465" y="241.9"/>
  <text x="465" y="267.9" font-family="Tahoma" font-size="12" transform="rotate(90 465,267.9)" text-rendering="optimizeSpeed" fill="#000000">emotional-hudson (2093)</text>
  <rect fill="blue" height="21.4" stroke="black" width="12" x="480" y="241.5"/>
  <text x="480" y="267.9" font-family="Tahoma" font-size="12" transform="rotate(90 480,267.9)" text-rendering="optimizeSpeed" fill="#000000">active-directory (2140)</text>
  <rect fill="blue" height="21.5" stroke="black" width="12" x="495" y="241.3"/>
  <text x="495" y="267.9" font-family="Tahoma" font-size="12" transform="rotate(90 495,267.9)" text-rendering="optimizeSpeed" fill="#000000">jira (2154)</text>
  <rect fill="blue" height="21.6" stroke="black" width="12" x="510" y="241.3"/>
  <text x="510" y="267.9" font-family="Tahoma" font-size="12" transform="rotate(90 510,267.9)" text-rendering="optimizeSpeed" fill="#000000">git (2158)</text>
  <rect fill="blue" height="21.7" stroke="black" width="12" x="525" y="241.2"/>
  <text x="525" y="267.9" font-family="Tahoma" font-size="12" transform="rotate(90 525,267.9)" text-rendering="optimizeSpeed" fill="#000000">deploy (2169)</text>
  <rect fill="blue" height="23.9" stroke="black" width="12" x="540" y="239.0"/>
  <text x="540" y="267.9" font-family="Tahoma" font-size="12" transform="rotate(90 540,267.9)" text-rendering="optimizeSpeed" fill="#000000">chucknorris (2385)</text>
  <rect fill="blue" height="24.9" stroke="black" width="12" x="555" y="238.0"/>
  <text x="555" y="267.9" font-family="Tahoma" font-size="12" transform="rotate(90 555,267.9)" text-rendering="optimizeSpeed" fill="#000000">tasks (2487)</text>
  <rect fill="blue" height="25.2" stroke="black" width="12" x="570" y="237.7"/>
  <text x="570" y="267.9" font-family="Tahoma" font-size="12" transform="rotate(90 570,267.9)" text-rendering="optimizeSpeed" fill="#000000">violations (2521)</text>
  <rect fill="blue" height="25.9" stroke="black" width="12" x="585" y="236.9"/>
  <text x="585" y="267.9" font-family="Tahoma" font-size="12" transform="rotate(90 585,267.9)" text-rendering="optimizeSpeed" fill="#000000">sonar (2595)</text>
  <rect fill="blue" height="28.2" stroke="black" width="12" x="600" y="234.7"/>
  <text x="600" y="267.9" font-family="Tahoma" font-size="12" transform="rotate(90 600,267.9)" text-rendering="optimizeSpeed" fill="#000000">disk-usage (2816)</text>
  <rect fill="blue" height="31.1" stroke="black" width="12" x="615" y="231.7"/>
  <text x="615" y="267.9" font-family="Tahoma" font-size="12" transform="rotate(90 615,267.9)" text-rendering="optimizeSpeed" fill="#000000">warnings (3114)</text>
  <rect fill="blue" height="33.0" stroke="black" width="12" x="630" y="229.9"/>
  <text x="630" y="267.9" font-family="Tahoma" font-size="12" transform="rotate(90 630,267.9)" text-rendering="optimizeSpeed" fill="#000000">pmd (3297)</text>
  <rect fill="blue" height="37.5" stroke="black" width="12" x="645" y="225.4"/>
  <text x="645" y="267.9" font-family="Tahoma" font-size="12" transform="rotate(90 645,267.9)" text-rendering="optimizeSpeed" fill="#000000">checkstyle (3747)</text>
  <rect fill="blue" height="37.8" stroke="black" width="12" x="660" y="225.0"/>
  <text x="660" y="267.9" font-family="Tahoma" font-size="12" transform="rotate(90 660,267.9)" text-rendering="optimizeSpeed" fill="#000000">cobertura (3782)</text>
  <rect fill="blue" height="38.8" stroke="black" width="12" x="675" y="224.1"/>
  <text x="675" y="267.9" font-family="Tahoma" font-size="12" transform="rotate(90 675,267.9)" text-rendering="optimizeSpeed" fill="#000000">greenballs (3878)</text>
  <rect fill="blue" height="40.5" stroke="black" width="12" x="690" y="222.3"/>
  <text x="690" y="267.9" font-family="Tahoma" font-size="12" transform="rotate(90 690,267.9)" text-rendering="optimizeSpeed" fill="#000000">findbugs (4053)</text>
  <rect fill="blue" height="45.9" stroke="black" width="12" x="705" y="217.0"/>
  <text x="705" y="267.9" font-family="Tahoma" font-size="12" transform="rotate(90 705,267.9)" text-rendering="optimizeSpeed" fill="#000000">email-ext (4588)</text>
  <rect fill="blue" height="61.6" stroke="black" width="12" x="720" y="201.3"/>
  <text x="720" y="267.9" font-family="Tahoma" font-size="12" transform="rotate(90 720,267.9)" text-rendering="optimizeSpeed" fill="#000000">analysis-core (6161)</text>
  <rect fill="blue" height="127.9" stroke="black" width="12" x="735" y="135.0"/>
  <text x="735" y="267.9" font-family="Tahoma" font-size="12" transform="rotate(90 735,267.9)" text-rendering="optimizeSpeed" fill="#000000">scis-ad (12791)</text>
  <rect fill="blue" height="174.3" stroke="black" width="12" x="750" y="88.6"/>
  <text x="750" y="267.9" font-family="Tahoma" font-size="12" transform="rotate(90 750,267.9)" text-rendering="optimizeSpeed" fill="#000000">cvs (17429)</text>
  <rect fill="blue" height="210.3" stroke="black" width="12" x="765" y="52.5"/>
  <text x="765" y="267.9" font-family="Tahoma" font-size="12" transform="rotate(90 765,267.9)" text-rendering="optimizeSpeed" fill="#000000">subversion (21032)</text>
  <rect fill="blue" height="211.2" stroke="black" width="12" x="780" y="51.7"/>
  <text x="780" y="267.9" font-family="Tahoma" font-size="12" transform="rotate(90 780,267.9)" text-rendering="optimizeSpeed" fill="#000000">maven-plugin (21121)</text>
  <rect fill="blue" height="212.9" stroke="black" width="12" x="795" y="50.0"/>
  <text x="795" y="267.9" font-family="Tahoma" font-size="12" transform="rotate(90 795,267.9)" text-rendering="optimizeSpeed" fill="#000000">ssh-slaves (21287)</text>
  <text x="10" y="40" font-family="Tahoma" font-size="20" text-rendering="optimizeSpeed" fill="#000000">Plugin installations (installations &gt; 1000)</text>
</svg>
