<svg xmlns="http://www.w3.org/2000/svg" version="1.1" preserveAspectRatio="xMidYMid meet" viewBox="0 0 155 490.2">
  <rect fill="blue" height="0.0" stroke="black" width="12" x="15" y="190.2"/>
  <text x="15" y="195.2" font-family="Tahoma" font-size="12" transform="rotate(90 15,195.2)" text-rendering="optimizeSpeed" fill="#000000">hudson-plugins-jprt-JPRTJob (1)</text>
  <rect fill="blue" height="0.0" stroke="black" width="12" x="30" y="190.2"/>
  <text x="30" y="195.2" font-family="Tahoma" font-size="12" transform="rotate(90 30,195.2)" text-rendering="optimizeSpeed" fill="#000000">hudson-plugins-jprt-FreeStyleProject (12)</text>
  <rect fill="blue" height="0.4" stroke="black" width="12" x="45" y="189.8"/>
  <text x="45" y="195.2" font-family="Tahoma" font-size="12" transform="rotate(90 45,195.2)" text-rendering="optimizeSpeed" fill="#000000">hudson-ivy-IvyModuleSet (373)</text>
  <rect fill="blue" height="0.6" stroke="black" width="12" x="60" y="189.6"/>
  <text x="60" y="195.2" font-family="Tahoma" font-size="12" transform="rotate(90 60,195.2)" text-rendering="optimizeSpeed" fill="#000000">hudson-model-ExternalJob (631)</text>
  <rect fill="blue" height="4.5" stroke="black" width="12" x="75" y="185.7"/>
  <text x="75" y="195.2" font-family="Tahoma" font-size="12" transform="rotate(90 75,195.2)" text-rendering="optimizeSpeed" fill="#000000">hudson-matrix-MatrixProject (4513)</text>
  <rect fill="blue" height="52.5" stroke="black" width="12" x="90" y="137.7"/>
  <text x="90" y="195.2" font-family="Tahoma" font-size="12" transform="rotate(90 90,195.2)" text-rendering="optimizeSpeed" fill="#000000">hudson-maven-MavenModuleSet (52468)</text>
  <rect fill="blue" height="140.2" stroke="black" width="12" x="105" y="50.0"/>
  <text x="105" y="195.2" font-family="Tahoma" font-size="12" transform="rotate(90 105,195.2)" text-rendering="optimizeSpeed" fill="#000000">hudson-model-FreeStyleProject (140208)</text>
  <text x="10" y="40" font-family="Tahoma" font-size="20" text-rendering="optimizeSpeed" fill="#000000">Jobs (total: 198206)</text>
</svg>
