<svg xmlns="http://www.w3.org/2000/svg" version="1.1" preserveAspectRatio="xMidYMid meet" viewBox="0 0 215 563.9">
  <rect fill="blue" height="48.1" stroke="black" width="12" x="15" y="215.8"/>
  <text x="15" y="268.9" font-family="Tahoma" font-size="12" transform="rotate(90 15,268.9)" text-rendering="optimizeSpeed" fill="#000000">1.368 (481)</text>
  <rect fill="blue" height="65.6" stroke="black" width="12" x="30" y="198.3"/>
  <text x="30" y="268.9" font-family="Tahoma" font-size="12" transform="rotate(90 30,268.9)" text-rendering="optimizeSpeed" fill="#000000">1.369 (656)</text>
  <rect fill="blue" height="17.0" stroke="black" width="12" x="45" y="246.9"/>
  <text x="45" y="268.9" font-family="Tahoma" font-size="12" transform="rotate(90 45,268.9)" text-rendering="optimizeSpeed" fill="#000000">1.370 (170)</text>
  <rect fill="blue" height="55.8" stroke="black" width="12" x="60" y="208.1"/>
  <text x="60" y="268.9" font-family="Tahoma" font-size="12" transform="rotate(90 60,268.9)" text-rendering="optimizeSpeed" fill="#000000">1.371 (558)</text>
  <rect fill="blue" height="84.4" stroke="black" width="12" x="75" y="179.5"/>
  <text x="75" y="268.9" font-family="Tahoma" font-size="12" transform="rotate(90 75,268.9)" text-rendering="optimizeSpeed" fill="#000000">1.372 (844)</text>
  <rect fill="blue" height="105.7" stroke="black" width="12" x="90" y="158.2"/>
  <text x="90" y="268.9" font-family="Tahoma" font-size="12" transform="rotate(90 90,268.9)" text-rendering="optimizeSpeed" fill="#000000">1.373 (1057)</text>
  <rect fill="blue" height="161.6" stroke="black" width="12" x="105" y="102.3"/>
  <text x="105" y="268.9" font-family="Tahoma" font-size="12" transform="rotate(90 105,268.9)" text-rendering="optimizeSpeed" fill="#000000">1.374 (1616)</text>
  <rect fill="blue" height="156.1" stroke="black" width="12" x="120" y="107.8"/>
  <text x="120" y="268.9" font-family="Tahoma" font-size="12" transform="rotate(90 120,268.9)" text-rendering="optimizeSpeed" fill="#000000">1.375 (1561)</text>
  <rect fill="blue" height="201.3" stroke="black" width="12" x="135" y="62.6"/>
  <text x="135" y="268.9" font-family="Tahoma" font-size="12" transform="rotate(90 135,268.9)" text-rendering="optimizeSpeed" fill="#000000">1.376 (2013)</text>
  <rect fill="blue" height="213.9" stroke="black" width="12" x="150" y="50.0"/>
  <text x="150" y="268.9" font-family="Tahoma" font-size="12" transform="rotate(90 150,268.9)" text-rendering="optimizeSpeed" fill="#000000">1.377 (2139)</text>
  <rect fill="blue" height="164.0" stroke="black" width="12" x="165" y="99.9"/>
  <text x="165" y="268.9" font-family="Tahoma" font-size="12" transform="rotate(90 165,268.9)" text-rendering="optimizeSpeed" fill="#000000">1.378 (1640)</text>
  <text x="10" y="40" font-family="Tahoma" font-size="20" text-rendering="optimizeSpeed" fill="#000000">Jenkins installations (total: 12735)</text>
</svg>
