<svg xmlns="http://www.w3.org/2000/svg" version="1.1" preserveAspectRatio="xMidYMid meet" viewBox="0 0 740 1143.3">
  <rect fill="blue" height="0.1" stroke="black" width="12" x="15" y="843.2"/>
  <text x="15" y="848.3" font-family="Tahoma" font-size="12" transform="rotate(90 15,848.3)" text-rendering="optimizeSpeed" fill="#000000">Linux (mips32) (1)</text>
  <rect fill="blue" height="0.1" stroke="black" width="12" x="30" y="843.2"/>
  <text x="30" y="848.3" font-family="Tahoma" font-size="12" transform="rotate(90 30,848.3)" text-rendering="optimizeSpeed" fill="#000000">Linux (nova) (1)</text>
  <rect fill="blue" height="0.1" stroke="black" width="12" x="45" y="843.2"/>
  <text x="45" y="848.3" font-family="Tahoma" font-size="12" transform="rotate(90 45,848.3)" text-rendering="optimizeSpeed" fill="#000000">Linux (s390) (1)</text>
  <rect fill="blue" height="0.1" stroke="black" width="12" x="60" y="843.2"/>
  <text x="60" y="848.3" font-family="Tahoma" font-size="12" transform="rotate(90 60,848.3)" text-rendering="optimizeSpeed" fill="#000000">NetBSD (amd64) (1)</text>
  <rect fill="blue" height="0.1" stroke="black" width="12" x="75" y="843.2"/>
  <text x="75" y="848.3" font-family="Tahoma" font-size="12" transform="rotate(90 75,848.3)" text-rendering="optimizeSpeed" fill="#000000">NetBSD (i386) (1)</text>
  <rect fill="blue" height="0.1" stroke="black" width="12" x="90" y="843.2"/>
  <text x="90" y="848.3" font-family="Tahoma" font-size="12" transform="rotate(90 90,848.3)" text-rendering="optimizeSpeed" fill="#000000">Windows 2003 (ia64) (1)</text>
  <rect fill="blue" height="0.2" stroke="black" width="12" x="105" y="843.1"/>
  <text x="105" y="848.3" font-family="Tahoma" font-size="12" transform="rotate(90 105,848.3)" text-rendering="optimizeSpeed" fill="#000000">OpenBSD (i386) (2)</text>
  <rect fill="blue" height="0.3" stroke="black" width="12" x="120" y="843.0"/>
  <text x="120" y="848.3" font-family="Tahoma" font-size="12" transform="rotate(90 120,848.3)" text-rendering="optimizeSpeed" fill="#000000">Linux (sparc) (3)</text>
  <rect fill="blue" height="0.4" stroke="black" width="12" x="135" y="842.9"/>
  <text x="135" y="848.3" font-family="Tahoma" font-size="12" transform="rotate(90 135,848.3)" text-rendering="optimizeSpeed" fill="#000000">Linux (arm) (4)</text>
  <rect fill="blue" height="0.5" stroke="black" width="12" x="150" y="842.8"/>
  <text x="150" y="848.3" font-family="Tahoma" font-size="12" transform="rotate(90 150,848.3)" text-rendering="optimizeSpeed" fill="#000000">Linux (s390x) (5)</text>
  <rect fill="blue" height="0.5" stroke="black" width="12" x="165" y="842.8"/>
  <text x="165" y="848.3" font-family="Tahoma" font-size="12" transform="rotate(90 165,848.3)" text-rendering="optimizeSpeed" fill="#000000">Windows Server 2003 (amd64) (5)</text>
  <rect fill="blue" height="0.6" stroke="black" width="12" x="180" y="842.7"/>
  <text x="180" y="848.3" font-family="Tahoma" font-size="12" transform="rotate(90 180,848.3)" text-rendering="optimizeSpeed" fill="#000000">Windows NT (unknown) (x86) (6)</text>
  <rect fill="blue" height="0.9" stroke="black" width="12" x="195" y="842.4"/>
  <text x="195" y="848.3" font-family="Tahoma" font-size="12" transform="rotate(90 195,848.3)" text-rendering="optimizeSpeed" fill="#000000">SunOS (amd64) (9)</text>
  <rect fill="blue" height="1.0" stroke="black" width="12" x="210" y="842.3"/>
  <text x="210" y="848.3" font-family="Tahoma" font-size="12" transform="rotate(90 210,848.3)" text-rendering="optimizeSpeed" fill="#000000">Linux (ia64) (10)</text>
  <rect fill="blue" height="1.1" stroke="black" width="12" x="225" y="842.2"/>
  <text x="225" y="848.3" font-family="Tahoma" font-size="12" transform="rotate(90 225,848.3)" text-rendering="optimizeSpeed" fill="#000000">Linux (ppc) (11)</text>
  <rect fill="blue" height="1.4" stroke="black" width="12" x="240" y="841.9"/>
  <text x="240" y="848.3" font-family="Tahoma" font-size="12" transform="rotate(90 240,848.3)" text-rendering="optimizeSpeed" fill="#000000">Mac OS X (ppc) (14)</text>
  <rect fill="blue" height="1.4" stroke="black" width="12" x="255" y="841.9"/>
  <text x="255" y="848.3" font-family="Tahoma" font-size="12" transform="rotate(90 255,848.3)" text-rendering="optimizeSpeed" fill="#000000">SunOS (sparcv9) (14)</text>
  <rect fill="blue" height="1.5" stroke="black" width="12" x="270" y="841.8"/>
  <text x="270" y="848.3" font-family="Tahoma" font-size="12" transform="rotate(90 270,848.3)" text-rendering="optimizeSpeed" fill="#000000">Linux (ppc64) (15)</text>
  <rect fill="blue" height="2.5" stroke="black" width="12" x="285" y="840.8"/>
  <text x="285" y="848.3" font-family="Tahoma" font-size="12" transform="rotate(90 285,848.3)" text-rendering="optimizeSpeed" fill="#000000">Windows Server 2003 (x86) (25)</text>
  <rect fill="blue" height="3.2" stroke="black" width="12" x="300" y="840.1"/>
  <text x="300" y="848.3" font-family="Tahoma" font-size="12" transform="rotate(90 300,848.3)" text-rendering="optimizeSpeed" fill="#000000">HP-UX (PA_RISC2.0) (32)</text>
  <rect fill="blue" height="3.9" stroke="black" width="12" x="315" y="839.4"/>
  <text x="315" y="848.3" font-family="Tahoma" font-size="12" transform="rotate(90 315,848.3)" text-rendering="optimizeSpeed" fill="#000000">Windows Vista (amd64) (39)</text>
  <rect fill="blue" height="4.1" stroke="black" width="12" x="330" y="839.2"/>
  <text x="330" y="848.3" font-family="Tahoma" font-size="12" transform="rotate(90 330,848.3)" text-rendering="optimizeSpeed" fill="#000000">FreeBSD (amd64) (41)</text>
  <rect fill="blue" height="4.1" stroke="black" width="12" x="345" y="839.2"/>
  <text x="345" y="848.3" font-family="Tahoma" font-size="12" transform="rotate(90 345,848.3)" text-rendering="optimizeSpeed" fill="#000000">FreeBSD (i386) (41)</text>
  <rect fill="blue" height="5.3" stroke="black" width="12" x="360" y="838.0"/>
  <text x="360" y="848.3" font-family="Tahoma" font-size="12" transform="rotate(90 360,848.3)" text-rendering="optimizeSpeed" fill="#000000">AIX (ppc64) (53)</text>
  <rect fill="blue" height="5.3" stroke="black" width="12" x="375" y="838.0"/>
  <text x="375" y="848.3" font-family="Tahoma" font-size="12" transform="rotate(90 375,848.3)" text-rendering="optimizeSpeed" fill="#000000">Linux (x86) (53)</text>
  <rect fill="blue" height="5.4" stroke="black" width="12" x="390" y="837.9"/>
  <text x="390" y="848.3" font-family="Tahoma" font-size="12" transform="rotate(90 390,848.3)" text-rendering="optimizeSpeed" fill="#000000">AIX (ppc) (54)</text>
  <rect fill="blue" height="5.5" stroke="black" width="12" x="405" y="837.8"/>
  <text x="405" y="848.3" font-family="Tahoma" font-size="12" transform="rotate(90 405,848.3)" text-rendering="optimizeSpeed" fill="#000000">HP-UX (IA64N) (55)</text>
  <rect fill="blue" height="6.2" stroke="black" width="12" x="420" y="837.1"/>
  <text x="420" y="848.3" font-family="Tahoma" font-size="12" transform="rotate(90 420,848.3)" text-rendering="optimizeSpeed" fill="#000000">Windows XP (amd64) (62)</text>
  <rect fill="blue" height="6.4" stroke="black" width="12" x="435" y="836.9"/>
  <text x="435" y="848.3" font-family="Tahoma" font-size="12" transform="rotate(90 435,848.3)" text-rendering="optimizeSpeed" fill="#000000">Windows 2000 (x86) (64)</text>
  <rect fill="blue" height="15.1" stroke="black" width="12" x="450" y="828.2"/>
  <text x="450" y="848.3" font-family="Tahoma" font-size="12" transform="rotate(90 450,848.3)" text-rendering="optimizeSpeed" fill="#000000">Mac OS X (i386) (151)</text>
  <rect fill="blue" height="16.4" stroke="black" width="12" x="465" y="826.9"/>
  <text x="465" y="848.3" font-family="Tahoma" font-size="12" transform="rotate(90 465,848.3)" text-rendering="optimizeSpeed" fill="#000000">Windows Server 2008 R2 (x86) (164)</text>
  <rect fill="blue" height="17.6" stroke="black" width="12" x="480" y="825.7"/>
  <text x="480" y="848.3" font-family="Tahoma" font-size="12" transform="rotate(90 480,848.3)" text-rendering="optimizeSpeed" fill="#000000">Windows Vista (x86) (176)</text>
  <rect fill="blue" height="20.0" stroke="black" width="12" x="495" y="823.3"/>
  <text x="495" y="848.3" font-family="Tahoma" font-size="12" transform="rotate(90 495,848.3)" text-rendering="optimizeSpeed" fill="#000000">Windows Server 2008 (amd64) (200)</text>
  <rect fill="blue" height="24.4" stroke="black" width="12" x="510" y="818.9"/>
  <text x="510" y="848.3" font-family="Tahoma" font-size="12" transform="rotate(90 510,848.3)" text-rendering="optimizeSpeed" fill="#000000">Windows 2003 (amd64) (244)</text>
  <rect fill="blue" height="25.9" stroke="black" width="12" x="525" y="817.4"/>
  <text x="525" y="848.3" font-family="Tahoma" font-size="12" transform="rotate(90 525,848.3)" text-rendering="optimizeSpeed" fill="#000000">SunOS (x86) (259)</text>
  <rect fill="blue" height="30.9" stroke="black" width="12" x="540" y="812.4"/>
  <text x="540" y="848.3" font-family="Tahoma" font-size="12" transform="rotate(90 540,848.3)" text-rendering="optimizeSpeed" fill="#000000">Windows Server 2008 R2 (amd64) (309)</text>
  <rect fill="blue" height="31.2" stroke="black" width="12" x="555" y="812.1"/>
  <text x="555" y="848.3" font-family="Tahoma" font-size="12" transform="rotate(90 555,848.3)" text-rendering="optimizeSpeed" fill="#000000">Windows 7 (amd64) (312)</text>
  <rect fill="blue" height="35.3" stroke="black" width="12" x="570" y="808.0"/>
  <text x="570" y="848.3" font-family="Tahoma" font-size="12" transform="rotate(90 570,848.3)" text-rendering="optimizeSpeed" fill="#000000">Windows Server 2008 (x86) (353)</text>
  <rect fill="blue" height="44.2" stroke="black" width="12" x="585" y="799.1"/>
  <text x="585" y="848.3" font-family="Tahoma" font-size="12" transform="rotate(90 585,848.3)" text-rendering="optimizeSpeed" fill="#000000">Windows 7 (x86) (442)</text>
  <rect fill="blue" height="52.1" stroke="black" width="12" x="600" y="791.2"/>
  <text x="600" y="848.3" font-family="Tahoma" font-size="12" transform="rotate(90 600,848.3)" text-rendering="optimizeSpeed" fill="#000000">Mac OS X (x86_64) (521)</text>
  <rect fill="blue" height="53.2" stroke="black" width="12" x="615" y="790.1"/>
  <text x="615" y="848.3" font-family="Tahoma" font-size="12" transform="rotate(90 615,848.3)" text-rendering="optimizeSpeed" fill="#000000">SunOS (sparc) (532)</text>
  <rect fill="blue" height="222.7" stroke="black" width="12" x="630" y="620.6"/>
  <text x="630" y="848.3" font-family="Tahoma" font-size="12" transform="rotate(90 630,848.3)" text-rendering="optimizeSpeed" fill="#000000">Windows 2003 (x86) (2227)</text>
  <rect fill="blue" height="277.4" stroke="black" width="12" x="645" y="565.9"/>
  <text x="645" y="848.3" font-family="Tahoma" font-size="12" transform="rotate(90 645,848.3)" text-rendering="optimizeSpeed" fill="#000000">Windows XP (x86) (2774)</text>
  <rect fill="blue" height="567.9" stroke="black" width="12" x="660" y="275.4"/>
  <text x="660" y="848.3" font-family="Tahoma" font-size="12" transform="rotate(90 660,848.3)" text-rendering="optimizeSpeed" fill="#000000">Linux (i386) (5679)</text>
  <rect fill="blue" height="592.0" stroke="black" width="12" x="675" y="251.3"/>
  <text x="675" y="848.3" font-family="Tahoma" font-size="12" transform="rotate(90 675,848.3)" text-rendering="optimizeSpeed" fill="#000000">Linux (amd64) (5920)</text>
  <rect fill="blue" height="793.3" stroke="black" width="12" x="690" y="50.0"/>
  <text x="690" y="848.3" font-family="Tahoma" font-size="12" transform="rotate(90 690,848.3)" text-rendering="optimizeSpeed" fill="#000000">N/A (7933)</text>
  <text x="10" y="40" font-family="Tahoma" font-size="20" text-rendering="optimizeSpeed" fill="#000000">Nodes (total: 28819)</text>
</svg>
