<svg xmlns="http://www.w3.org/2000/svg" version="1.1" preserveAspectRatio="xMidYMid meet" viewBox="0 0 185 611.3">
  <rect fill="blue" height="0.0" stroke="black" width="12" x="15" y="311.3"/>
  <text x="15" y="316.3" font-family="Tahoma" font-size="12" transform="rotate(90 15,316.3)" text-rendering="optimizeSpeed" fill="#000000">hudson-plugins-jprt-JPRTJob (1)</text>
  <rect fill="blue" height="0.0" stroke="black" width="12" x="30" y="311.3"/>
  <text x="30" y="316.3" font-family="Tahoma" font-size="12" transform="rotate(90 30,316.3)" text-rendering="optimizeSpeed" fill="#000000">hudson-plugins-multibuild-MultiBuildJob (1)</text>
  <rect fill="blue" height="0.0" stroke="black" width="12" x="45" y="311.3"/>
  <text x="45" y="316.3" font-family="Tahoma" font-size="12" transform="rotate(90 45,316.3)" text-rendering="optimizeSpeed" fill="#000000">hudson-plugins-sectioned_view-TaobaoStyleProject (4)</text>
  <rect fill="blue" height="0.0" stroke="black" width="12" x="60" y="311.3"/>
  <text x="60" y="316.3" font-family="Tahoma" font-size="12" transform="rotate(90 60,316.3)" text-rendering="optimizeSpeed" fill="#000000">hudson-workflow-WorkflowProject (29)</text>
  <rect fill="blue" height="0.5" stroke="black" width="12" x="75" y="310.8"/>
  <text x="75" y="316.3" font-family="Tahoma" font-size="12" transform="rotate(90 75,316.3)" text-rendering="optimizeSpeed" fill="#000000">hudson-model-ExternalJob (547)</text>
  <rect fill="blue" height="0.7" stroke="black" width="12" x="90" y="310.6"/>
  <text x="90" y="316.3" font-family="Tahoma" font-size="12" transform="rotate(90 90,316.3)" text-rendering="optimizeSpeed" fill="#000000">hudson-ivy-IvyModuleSet (689)</text>
  <rect fill="blue" height="8.3" stroke="black" width="12" x="105" y="303.0"/>
  <text x="105" y="316.3" font-family="Tahoma" font-size="12" transform="rotate(90 105,316.3)" text-rendering="optimizeSpeed" fill="#000000">hudson-matrix-MatrixProject (8282)</text>
  <rect fill="blue" height="98.9" stroke="black" width="12" x="120" y="212.4"/>
  <text x="120" y="316.3" font-family="Tahoma" font-size="12" transform="rotate(90 120,316.3)" text-rendering="optimizeSpeed" fill="#000000">hudson-maven-MavenModuleSet (98917)</text>
  <rect fill="blue" height="261.3" stroke="black" width="12" x="135" y="50.0"/>
  <text x="135" y="316.3" font-family="Tahoma" font-size="12" transform="rotate(90 135,316.3)" text-rendering="optimizeSpeed" fill="#000000">hudson-model-FreeStyleProject (261322)</text>
  <text x="10" y="40" font-family="Tahoma" font-size="20" text-rendering="optimizeSpeed" fill="#000000">Jobs (total: 369792)</text>
</svg>
