<svg xmlns="http://www.w3.org/2000/svg" version="1.1" preserveAspectRatio="xMidYMid meet" viewBox="0 0 1610 541.8">
  <rect fill="blue" height="5.3" stroke="black" width="12" x="15" y="236.5"/>
  <text x="15" y="246.8" font-family="Tahoma" font-size="12" transform="rotate(90 15,246.8)" text-rendering="optimizeSpeed" fill="#000000">next-build-number (528)</text>
  <rect fill="blue" height="5.3" stroke="black" width="12" x="30" y="236.5"/>
  <text x="30" y="246.8" font-family="Tahoma" font-size="12" transform="rotate(90 30,246.8)" text-rendering="optimizeSpeed" fill="#000000">claim (530)</text>
  <rect fill="blue" height="5.3" stroke="black" width="12" x="45" y="236.5"/>
  <text x="45" y="246.8" font-family="Tahoma" font-size="12" transform="rotate(90 45,246.8)" text-rendering="optimizeSpeed" fill="#000000">port-allocator (535)</text>
  <rect fill="blue" height="5.4" stroke="black" width="12" x="60" y="236.5"/>
  <text x="60" y="246.8" font-family="Tahoma" font-size="12" transform="rotate(90 60,246.8)" text-rendering="optimizeSpeed" fill="#000000">url-change-trigger (536)</text>
  <rect fill="blue" height="5.5" stroke="black" width="12" x="75" y="236.3"/>
  <text x="75" y="246.8" font-family="Tahoma" font-size="12" transform="rotate(90 75,246.8)" text-rendering="optimizeSpeed" fill="#000000">ldapemail (548)</text>
  <rect fill="blue" height="5.5" stroke="black" width="12" x="90" y="236.3"/>
  <text x="90" y="246.8" font-family="Tahoma" font-size="12" transform="rotate(90 90,246.8)" text-rendering="optimizeSpeed" fill="#000000">xfpanel (550)</text>
  <rect fill="blue" height="5.5" stroke="black" width="12" x="105" y="236.3"/>
  <text x="105" y="246.8" font-family="Tahoma" font-size="12" transform="rotate(90 105,246.8)" text-rendering="optimizeSpeed" fill="#000000">xvnc (550)</text>
  <rect fill="blue" height="5.6" stroke="black" width="12" x="120" y="236.3"/>
  <text x="120" y="246.8" font-family="Tahoma" font-size="12" transform="rotate(90 120,246.8)" text-rendering="optimizeSpeed" fill="#000000">jobConfigHistory (556)</text>
  <rect fill="blue" height="5.6" stroke="black" width="12" x="135" y="236.2"/>
  <text x="135" y="246.8" font-family="Tahoma" font-size="12" transform="rotate(90 135,246.8)" text-rendering="optimizeSpeed" fill="#000000">nested-view (559)</text>
  <rect fill="blue" height="5.7" stroke="black" width="12" x="150" y="236.1"/>
  <text x="150" y="246.8" font-family="Tahoma" font-size="12" transform="rotate(90 150,246.8)" text-rendering="optimizeSpeed" fill="#000000">viewVC (568)</text>
  <rect fill="blue" height="5.8" stroke="black" width="12" x="165" y="236.0"/>
  <text x="165" y="246.8" font-family="Tahoma" font-size="12" transform="rotate(90 165,246.8)" text-rendering="optimizeSpeed" fill="#000000">locale (585)</text>
  <rect fill="blue" height="5.9" stroke="black" width="12" x="180" y="235.9"/>
  <text x="180" y="246.8" font-family="Tahoma" font-size="12" transform="rotate(90 180,246.8)" text-rendering="optimizeSpeed" fill="#000000">nant (588)</text>
  <rect fill="blue" height="5.9" stroke="black" width="12" x="195" y="235.9"/>
  <text x="195" y="246.8" font-family="Tahoma" font-size="12" transform="rotate(90 195,246.8)" text-rendering="optimizeSpeed" fill="#000000">downstream-ext (590)</text>
  <rect fill="blue" height="6.0" stroke="black" width="12" x="210" y="235.8"/>
  <text x="210" y="246.8" font-family="Tahoma" font-size="12" transform="rotate(90 210,246.8)" text-rendering="optimizeSpeed" fill="#000000">description-setter (604)</text>
  <rect fill="blue" height="6.1" stroke="black" width="12" x="225" y="235.7"/>
  <text x="225" y="246.8" font-family="Tahoma" font-size="12" transform="rotate(90 225,246.8)" text-rendering="optimizeSpeed" fill="#000000">sloccount (610)</text>
  <rect fill="blue" height="6.2" stroke="black" width="12" x="240" y="235.6"/>
  <text x="240" y="246.8" font-family="Tahoma" font-size="12" transform="rotate(90 240,246.8)" text-rendering="optimizeSpeed" fill="#000000">copy-to-slave (619)</text>
  <rect fill="blue" height="6.3" stroke="black" width="12" x="255" y="235.6"/>
  <text x="255" y="246.8" font-family="Tahoma" font-size="12" transform="rotate(90 255,246.8)" text-rendering="optimizeSpeed" fill="#000000">hudsontrayapp (626)</text>
  <rect fill="blue" height="6.3" stroke="black" width="12" x="270" y="235.6"/>
  <text x="270" y="246.8" font-family="Tahoma" font-size="12" transform="rotate(90 270,246.8)" text-rendering="optimizeSpeed" fill="#000000">clearcase (627)</text>
  <rect fill="blue" height="6.3" stroke="black" width="12" x="285" y="235.5"/>
  <text x="285" y="246.8" font-family="Tahoma" font-size="12" transform="rotate(90 285,246.8)" text-rendering="optimizeSpeed" fill="#000000">ruby (630)</text>
  <rect fill="blue" height="6.3" stroke="black" width="12" x="300" y="235.5"/>
  <text x="300" y="246.8" font-family="Tahoma" font-size="12" transform="rotate(90 300,246.8)" text-rendering="optimizeSpeed" fill="#000000">groovy (635)</text>
  <rect fill="blue" height="6.4" stroke="black" width="12" x="315" y="235.4"/>
  <text x="315" y="246.8" font-family="Tahoma" font-size="12" transform="rotate(90 315,246.8)" text-rendering="optimizeSpeed" fill="#000000">changelog-history (639)</text>
  <rect fill="blue" height="6.5" stroke="black" width="12" x="330" y="235.4"/>
  <text x="330" y="246.8" font-family="Tahoma" font-size="12" transform="rotate(90 330,246.8)" text-rendering="optimizeSpeed" fill="#000000">redmine (645)</text>
  <rect fill="blue" height="6.5" stroke="black" width="12" x="345" y="235.4"/>
  <text x="345" y="246.8" font-family="Tahoma" font-size="12" transform="rotate(90 345,246.8)" text-rendering="optimizeSpeed" fill="#000000">monitoring (646)</text>
  <rect fill="blue" height="6.9" stroke="black" width="12" x="360" y="234.9"/>
  <text x="360" y="246.8" font-family="Tahoma" font-size="12" transform="rotate(90 360,246.8)" text-rendering="optimizeSpeed" fill="#000000">versionnumber (690)</text>
  <rect fill="blue" height="6.9" stroke="black" width="12" x="375" y="234.9"/>
  <text x="375" y="246.8" font-family="Tahoma" font-size="12" transform="rotate(90 375,246.8)" text-rendering="optimizeSpeed" fill="#000000">join (692)</text>
  <rect fill="blue" height="7.0" stroke="black" width="12" x="390" y="234.9"/>
  <text x="390" y="246.8" font-family="Tahoma" font-size="12" transform="rotate(90 390,246.8)" text-rendering="optimizeSpeed" fill="#000000">template-project (695)</text>
  <rect fill="blue" height="7.0" stroke="black" width="12" x="405" y="234.8"/>
  <text x="405" y="246.8" font-family="Tahoma" font-size="12" transform="rotate(90 405,246.8)" text-rendering="optimizeSpeed" fill="#000000">sectioned-view (701)</text>
  <rect fill="blue" height="7.0" stroke="black" width="12" x="420" y="234.8"/>
  <text x="420" y="246.8" font-family="Tahoma" font-size="12" transform="rotate(90 420,246.8)" text-rendering="optimizeSpeed" fill="#000000">iphoneview (704)</text>
  <rect fill="blue" height="7.1" stroke="black" width="12" x="435" y="234.8"/>
  <text x="435" y="246.8" font-family="Tahoma" font-size="12" transform="rotate(90 435,246.8)" text-rendering="optimizeSpeed" fill="#000000">seleniumhq (707)</text>
  <rect fill="blue" height="7.1" stroke="black" width="12" x="450" y="234.7"/>
  <text x="450" y="246.8" font-family="Tahoma" font-size="12" transform="rotate(90 450,246.8)" text-rendering="optimizeSpeed" fill="#000000">github (708)</text>
  <rect fill="blue" height="7.2" stroke="black" width="12" x="465" y="234.6"/>
  <text x="465" y="246.8" font-family="Tahoma" font-size="12" transform="rotate(90 465,246.8)" text-rendering="optimizeSpeed" fill="#000000">doxygen (720)</text>
  <rect fill="blue" height="7.3" stroke="black" width="12" x="480" y="234.6"/>
  <text x="480" y="246.8" font-family="Tahoma" font-size="12" transform="rotate(90 480,246.8)" text-rendering="optimizeSpeed" fill="#000000">artifactory (727)</text>
  <rect fill="blue" height="7.4" stroke="black" width="12" x="495" y="234.5"/>
  <text x="495" y="246.8" font-family="Tahoma" font-size="12" transform="rotate(90 495,246.8)" text-rendering="optimizeSpeed" fill="#000000">rake (737)</text>
  <rect fill="blue" height="7.4" stroke="black" width="12" x="510" y="234.4"/>
  <text x="510" y="246.8" font-family="Tahoma" font-size="12" transform="rotate(90 510,246.8)" text-rendering="optimizeSpeed" fill="#000000">doclinks (739)</text>
  <rect fill="blue" height="7.7" stroke="black" width="12" x="525" y="234.1"/>
  <text x="525" y="246.8" font-family="Tahoma" font-size="12" transform="rotate(90 525,246.8)" text-rendering="optimizeSpeed" fill="#000000">text-finder (773)</text>
  <rect fill="blue" height="8.3" stroke="black" width="12" x="540" y="233.6"/>
  <text x="540" y="246.8" font-family="Tahoma" font-size="12" transform="rotate(90 540,246.8)" text-rendering="optimizeSpeed" fill="#000000">copyarchiver (826)</text>
  <rect fill="blue" height="8.3" stroke="black" width="12" x="555" y="233.5"/>
  <text x="555" y="246.8" font-family="Tahoma" font-size="12" transform="rotate(90 555,246.8)" text-rendering="optimizeSpeed" fill="#000000">python (833)</text>
  <rect fill="blue" height="8.3" stroke="black" width="12" x="570" y="233.5"/>
  <text x="570" y="246.8" font-family="Tahoma" font-size="12" transform="rotate(90 570,246.8)" text-rendering="optimizeSpeed" fill="#000000">perforce (835)</text>
  <rect fill="blue" height="8.4" stroke="black" width="12" x="585" y="233.5"/>
  <text x="585" y="246.8" font-family="Tahoma" font-size="12" transform="rotate(90 585,246.8)" text-rendering="optimizeSpeed" fill="#000000">ftppublisher (837)</text>
  <rect fill="blue" height="8.4" stroke="black" width="12" x="600" y="233.4"/>
  <text x="600" y="246.8" font-family="Tahoma" font-size="12" transform="rotate(90 600,246.8)" text-rendering="optimizeSpeed" fill="#000000">maven-info (840)</text>
  <rect fill="blue" height="8.4" stroke="black" width="12" x="615" y="233.4"/>
  <text x="615" y="246.8" font-family="Tahoma" font-size="12" transform="rotate(90 615,246.8)" text-rendering="optimizeSpeed" fill="#000000">hudson-pview-plugin (841)</text>
  <rect fill="blue" height="8.6" stroke="black" width="12" x="630" y="233.2"/>
  <text x="630" y="246.8" font-family="Tahoma" font-size="12" transform="rotate(90 630,246.8)" text-rendering="optimizeSpeed" fill="#000000">log-parser (860)</text>
  <rect fill="blue" height="8.8" stroke="black" width="12" x="645" y="233.1"/>
  <text x="645" y="246.8" font-family="Tahoma" font-size="12" transform="rotate(90 645,246.8)" text-rendering="optimizeSpeed" fill="#000000">downstream-buildview (876)</text>
  <rect fill="blue" height="9.0" stroke="black" width="12" x="660" y="232.9"/>
  <text x="660" y="246.8" font-family="Tahoma" font-size="12" transform="rotate(90 660,246.8)" text-rendering="optimizeSpeed" fill="#000000">sidebar-link (896)</text>
  <rect fill="blue" height="9.0" stroke="black" width="12" x="675" y="232.8"/>
  <text x="675" y="246.8" font-family="Tahoma" font-size="12" transform="rotate(90 675,246.8)" text-rendering="optimizeSpeed" fill="#000000">jdepend (899)</text>
  <rect fill="blue" height="9.2" stroke="black" width="12" x="690" y="232.6"/>
  <text x="690" y="246.8" font-family="Tahoma" font-size="12" transform="rotate(90 690,246.8)" text-rendering="optimizeSpeed" fill="#000000">statusmonitor (925)</text>
  <rect fill="blue" height="9.3" stroke="black" width="12" x="705" y="232.5"/>
  <text x="705" y="246.8" font-family="Tahoma" font-size="12" transform="rotate(90 705,246.8)" text-rendering="optimizeSpeed" fill="#000000">copyartifact (931)</text>
  <rect fill="blue" height="9.4" stroke="black" width="12" x="720" y="232.4"/>
  <text x="720" y="246.8" font-family="Tahoma" font-size="12" transform="rotate(90 720,246.8)" text-rendering="optimizeSpeed" fill="#000000">nunit (938)</text>
  <rect fill="blue" height="9.4" stroke="black" width="12" x="735" y="232.4"/>
  <text x="735" y="246.8" font-family="Tahoma" font-size="12" transform="rotate(90 735,246.8)" text-rendering="optimizeSpeed" fill="#000000">dependencyanalyzer (939)</text>
  <rect fill="blue" height="9.5" stroke="black" width="12" x="750" y="232.3"/>
  <text x="750" y="246.8" font-family="Tahoma" font-size="12" transform="rotate(90 750,246.8)" text-rendering="optimizeSpeed" fill="#000000">promoted-builds (952)</text>
  <rect fill="blue" height="9.6" stroke="black" width="12" x="765" y="232.2"/>
  <text x="765" y="246.8" font-family="Tahoma" font-size="12" transform="rotate(90 765,246.8)" text-rendering="optimizeSpeed" fill="#000000">trac (961)</text>
  <rect fill="blue" height="9.6" stroke="black" width="12" x="780" y="232.2"/>
  <text x="780" y="246.8" font-family="Tahoma" font-size="12" transform="rotate(90 780,246.8)" text-rendering="optimizeSpeed" fill="#000000">plot (964)</text>
  <rect fill="blue" height="9.8" stroke="black" width="12" x="795" y="232.1"/>
  <text x="795" y="246.8" font-family="Tahoma" font-size="12" transform="rotate(90 795,246.8)" text-rendering="optimizeSpeed" fill="#000000">performance (977)</text>
  <rect fill="blue" height="9.9" stroke="black" width="12" x="810" y="232.0"/>
  <text x="810" y="246.8" font-family="Tahoma" font-size="12" transform="rotate(90 810,246.8)" text-rendering="optimizeSpeed" fill="#000000">ssh (987)</text>
  <rect fill="blue" height="10.0" stroke="black" width="12" x="825" y="231.9"/>
  <text x="825" y="246.8" font-family="Tahoma" font-size="12" transform="rotate(90 825,246.8)" text-rendering="optimizeSpeed" fill="#000000">locks-and-latches (996)</text>
  <rect fill="blue" height="10.0" stroke="black" width="12" x="840" y="231.8"/>
  <text x="840" y="246.8" font-family="Tahoma" font-size="12" transform="rotate(90 840,246.8)" text-rendering="optimizeSpeed" fill="#000000">clover (999)</text>
  <rect fill="blue" height="10.0" stroke="black" width="12" x="855" y="231.8"/>
  <text x="855" y="246.8" font-family="Tahoma" font-size="12" transform="rotate(90 855,246.8)" text-rendering="optimizeSpeed" fill="#000000">jabber (1000)</text>
  <rect fill="blue" height="10.2" stroke="black" width="12" x="870" y="231.7"/>
  <text x="870" y="246.8" font-family="Tahoma" font-size="12" transform="rotate(90 870,246.8)" text-rendering="optimizeSpeed" fill="#000000">audit-trail (1015)</text>
  <rect fill="blue" height="10.2" stroke="black" width="12" x="885" y="231.6"/>
  <text x="885" y="246.8" font-family="Tahoma" font-size="12" transform="rotate(90 885,246.8)" text-rendering="optimizeSpeed" fill="#000000">release (1020)</text>
  <rect fill="blue" height="10.4" stroke="black" width="12" x="900" y="231.4"/>
  <text x="900" y="246.8" font-family="Tahoma" font-size="12" transform="rotate(90 900,246.8)" text-rendering="optimizeSpeed" fill="#000000">radiatorviewplugin (1042)</text>
  <rect fill="blue" height="11.1" stroke="black" width="12" x="915" y="230.7"/>
  <text x="915" y="246.8" font-family="Tahoma" font-size="12" transform="rotate(90 915,246.8)" text-rendering="optimizeSpeed" fill="#000000">svn-release-mgr (1114)</text>
  <rect fill="blue" height="12.0" stroke="black" width="12" x="930" y="229.8"/>
  <text x="930" y="246.8" font-family="Tahoma" font-size="12" transform="rotate(90 930,246.8)" text-rendering="optimizeSpeed" fill="#000000">mercurial (1202)</text>
  <rect fill="blue" height="13.1" stroke="black" width="12" x="945" y="228.7"/>
  <text x="945" y="246.8" font-family="Tahoma" font-size="12" transform="rotate(90 945,246.8)" text-rendering="optimizeSpeed" fill="#000000">setenv (1310)</text>
  <rect fill="blue" height="13.2" stroke="black" width="12" x="960" y="228.6"/>
  <text x="960" y="246.8" font-family="Tahoma" font-size="12" transform="rotate(90 960,246.8)" text-rendering="optimizeSpeed" fill="#000000">m2-extra-steps (1320)</text>
  <rect fill="blue" height="13.2" stroke="black" width="12" x="975" y="228.6"/>
  <text x="975" y="246.8" font-family="Tahoma" font-size="12" transform="rotate(90 975,246.8)" text-rendering="optimizeSpeed" fill="#000000">ci-game (1322)</text>
  <rect fill="blue" height="14.2" stroke="black" width="12" x="990" y="227.6"/>
  <text x="990" y="246.8" font-family="Tahoma" font-size="12" transform="rotate(90 990,246.8)" text-rendering="optimizeSpeed" fill="#000000">parameterized-trigger (1419)</text>
  <rect fill="blue" height="14.7" stroke="black" width="12" x="1005" y="227.2"/>
  <text x="1005" y="246.8" font-family="Tahoma" font-size="12" transform="rotate(90 1005,246.8)" text-rendering="optimizeSpeed" fill="#000000">emma (1467)</text>
  <rect fill="blue" height="14.8" stroke="black" width="12" x="1020" y="227.1"/>
  <text x="1020" y="246.8" font-family="Tahoma" font-size="12" transform="rotate(90 1020,246.8)" text-rendering="optimizeSpeed" fill="#000000">batch-task (1475)</text>
  <rect fill="blue" height="14.8" stroke="black" width="12" x="1035" y="227.0"/>
  <text x="1035" y="246.8" font-family="Tahoma" font-size="12" transform="rotate(90 1035,246.8)" text-rendering="optimizeSpeed" fill="#000000">postbuild-task (1484)</text>
  <rect fill="blue" height="15.6" stroke="black" width="12" x="1050" y="226.3"/>
  <text x="1050" y="246.8" font-family="Tahoma" font-size="12" transform="rotate(90 1050,246.8)" text-rendering="optimizeSpeed" fill="#000000">msbuild (1556)</text>
  <rect fill="blue" height="15.6" stroke="black" width="12" x="1065" y="226.2"/>
  <text x="1065" y="246.8" font-family="Tahoma" font-size="12" transform="rotate(90 1065,246.8)" text-rendering="optimizeSpeed" fill="#000000">emotional-hudson (1558)</text>
  <rect fill="blue" height="15.6" stroke="black" width="12" x="1080" y="226.2"/>
  <text x="1080" y="246.8" font-family="Tahoma" font-size="12" transform="rotate(90 1080,246.8)" text-rendering="optimizeSpeed" fill="#000000">instant-messaging (1563)</text>
  <rect fill="blue" height="15.7" stroke="black" width="12" x="1095" y="226.1"/>
  <text x="1095" y="246.8" font-family="Tahoma" font-size="12" transform="rotate(90 1095,246.8)" text-rendering="optimizeSpeed" fill="#000000">m2release (1571)</text>
  <rect fill="blue" height="16.2" stroke="black" width="12" x="1110" y="225.6"/>
  <text x="1110" y="246.8" font-family="Tahoma" font-size="12" transform="rotate(90 1110,246.8)" text-rendering="optimizeSpeed" fill="#000000">xunit (1622)</text>
  <rect fill="blue" height="16.5" stroke="black" width="12" x="1125" y="225.4"/>
  <text x="1125" y="246.8" font-family="Tahoma" font-size="12" transform="rotate(90 1125,246.8)" text-rendering="optimizeSpeed" fill="#000000">build-timeout (1647)</text>
  <rect fill="blue" height="16.6" stroke="black" width="12" x="1140" y="225.2"/>
  <text x="1140" y="246.8" font-family="Tahoma" font-size="12" transform="rotate(90 1140,246.8)" text-rendering="optimizeSpeed" fill="#000000">svn-tag (1664)</text>
  <rect fill="blue" height="16.9" stroke="black" width="12" x="1155" y="225.0"/>
  <text x="1155" y="246.8" font-family="Tahoma" font-size="12" transform="rotate(90 1155,246.8)" text-rendering="optimizeSpeed" fill="#000000">scp (1686)</text>
  <rect fill="blue" height="17.2" stroke="black" width="12" x="1170" y="224.6"/>
  <text x="1170" y="246.8" font-family="Tahoma" font-size="12" transform="rotate(90 1170,246.8)" text-rendering="optimizeSpeed" fill="#000000">dry (1722)</text>
  <rect fill="blue" height="17.9" stroke="black" width="12" x="1185" y="224.0"/>
  <text x="1185" y="246.8" font-family="Tahoma" font-size="12" transform="rotate(90 1185,246.8)" text-rendering="optimizeSpeed" fill="#000000">htmlpublisher (1785)</text>
  <rect fill="blue" height="18.7" stroke="black" width="12" x="1200" y="223.1"/>
  <text x="1200" y="246.8" font-family="Tahoma" font-size="12" transform="rotate(90 1200,246.8)" text-rendering="optimizeSpeed" fill="#000000">active-directory (1871)</text>
  <rect fill="blue" height="18.8" stroke="black" width="12" x="1215" y="223.1"/>
  <text x="1215" y="246.8" font-family="Tahoma" font-size="12" transform="rotate(90 1215,246.8)" text-rendering="optimizeSpeed" fill="#000000">backup (1876)</text>
  <rect fill="blue" height="18.8" stroke="black" width="12" x="1230" y="223.0"/>
  <text x="1230" y="246.8" font-family="Tahoma" font-size="12" transform="rotate(90 1230,246.8)" text-rendering="optimizeSpeed" fill="#000000">jira (1880)</text>
  <rect fill="blue" height="19.4" stroke="black" width="12" x="1245" y="222.5"/>
  <text x="1245" y="246.8" font-family="Tahoma" font-size="12" transform="rotate(90 1245,246.8)" text-rendering="optimizeSpeed" fill="#000000">deploy (1935)</text>
  <rect fill="blue" height="19.9" stroke="black" width="12" x="1260" y="222.0"/>
  <text x="1260" y="246.8" font-family="Tahoma" font-size="12" transform="rotate(90 1260,246.8)" text-rendering="optimizeSpeed" fill="#000000">dashboard-view (1986)</text>
  <rect fill="blue" height="20.8" stroke="black" width="12" x="1275" y="221.0"/>
  <text x="1275" y="246.8" font-family="Tahoma" font-size="12" transform="rotate(90 1275,246.8)" text-rendering="optimizeSpeed" fill="#000000">tasks (2083)</text>
  <rect fill="blue" height="22.6" stroke="black" width="12" x="1290" y="219.2"/>
  <text x="1290" y="246.8" font-family="Tahoma" font-size="12" transform="rotate(90 1290,246.8)" text-rendering="optimizeSpeed" fill="#000000">violations (2261)</text>
  <rect fill="blue" height="23.9" stroke="black" width="12" x="1305" y="217.9"/>
  <text x="1305" y="246.8" font-family="Tahoma" font-size="12" transform="rotate(90 1305,246.8)" text-rendering="optimizeSpeed" fill="#000000">chucknorris (2394)</text>
  <rect fill="blue" height="24.8" stroke="black" width="12" x="1320" y="217.1"/>
  <text x="1320" y="246.8" font-family="Tahoma" font-size="12" transform="rotate(90 1320,246.8)" text-rendering="optimizeSpeed" fill="#000000">analysis-collector (2475)</text>
  <rect fill="blue" height="25.0" stroke="black" width="12" x="1335" y="216.8"/>
  <text x="1335" y="246.8" font-family="Tahoma" font-size="12" transform="rotate(90 1335,246.8)" text-rendering="optimizeSpeed" fill="#000000">disk-usage (2504)</text>
  <rect fill="blue" height="27.0" stroke="black" width="12" x="1350" y="214.9"/>
  <text x="1350" y="246.8" font-family="Tahoma" font-size="12" transform="rotate(90 1350,246.8)" text-rendering="optimizeSpeed" fill="#000000">sonar (2696)</text>
  <rect fill="blue" height="27.6" stroke="black" width="12" x="1365" y="214.2"/>
  <text x="1365" y="246.8" font-family="Tahoma" font-size="12" transform="rotate(90 1365,246.8)" text-rendering="optimizeSpeed" fill="#000000">warnings (2765)</text>
  <rect fill="blue" height="29.7" stroke="black" width="12" x="1380" y="212.1"/>
  <text x="1380" y="246.8" font-family="Tahoma" font-size="12" transform="rotate(90 1380,246.8)" text-rendering="optimizeSpeed" fill="#000000">pmd (2971)</text>
  <rect fill="blue" height="29.9" stroke="black" width="12" x="1395" y="211.9"/>
  <text x="1395" y="246.8" font-family="Tahoma" font-size="12" transform="rotate(90 1395,246.8)" text-rendering="optimizeSpeed" fill="#000000">git (2992)</text>
  <rect fill="blue" height="32.8" stroke="black" width="12" x="1410" y="209.0"/>
  <text x="1410" y="246.8" font-family="Tahoma" font-size="12" transform="rotate(90 1410,246.8)" text-rendering="optimizeSpeed" fill="#000000">cobertura (3278)</text>
  <rect fill="blue" height="34.9" stroke="black" width="12" x="1425" y="206.9"/>
  <text x="1425" y="246.8" font-family="Tahoma" font-size="12" transform="rotate(90 1425,246.8)" text-rendering="optimizeSpeed" fill="#000000">findbugs (3490)</text>
  <rect fill="blue" height="35.2" stroke="black" width="12" x="1440" y="206.6"/>
  <text x="1440" y="246.8" font-family="Tahoma" font-size="12" transform="rotate(90 1440,246.8)" text-rendering="optimizeSpeed" fill="#000000">checkstyle (3524)</text>
  <rect fill="blue" height="39.1" stroke="black" width="12" x="1455" y="202.7"/>
  <text x="1455" y="246.8" font-family="Tahoma" font-size="12" transform="rotate(90 1455,246.8)" text-rendering="optimizeSpeed" fill="#000000">greenballs (3914)</text>
  <rect fill="blue" height="41.8" stroke="black" width="12" x="1470" y="200.0"/>
  <text x="1470" y="246.8" font-family="Tahoma" font-size="12" transform="rotate(90 1470,246.8)" text-rendering="optimizeSpeed" fill="#000000">email-ext (4178)</text>
  <rect fill="blue" height="49.3" stroke="black" width="12" x="1485" y="192.6"/>
  <text x="1485" y="246.8" font-family="Tahoma" font-size="12" transform="rotate(90 1485,246.8)" text-rendering="optimizeSpeed" fill="#000000">scis-ad (4926)</text>
  <rect fill="blue" height="66.5" stroke="black" width="12" x="1500" y="175.3"/>
  <text x="1500" y="246.8" font-family="Tahoma" font-size="12" transform="rotate(90 1500,246.8)" text-rendering="optimizeSpeed" fill="#000000">analysis-core (6648)</text>
  <rect fill="blue" height="184.2" stroke="black" width="12" x="1515" y="57.6"/>
  <text x="1515" y="246.8" font-family="Tahoma" font-size="12" transform="rotate(90 1515,246.8)" text-rendering="optimizeSpeed" fill="#000000">cvs (18421)</text>
  <rect fill="blue" height="188.9" stroke="black" width="12" x="1530" y="52.9"/>
  <text x="1530" y="246.8" font-family="Tahoma" font-size="12" transform="rotate(90 1530,246.8)" text-rendering="optimizeSpeed" fill="#000000">maven-plugin (18890)</text>
  <rect fill="blue" height="191.8" stroke="black" width="12" x="1545" y="50.0"/>
  <text x="1545" y="246.8" font-family="Tahoma" font-size="12" transform="rotate(90 1545,246.8)" text-rendering="optimizeSpeed" fill="#000000">subversion (19178)</text>
  <rect fill="blue" height="191.8" stroke="black" width="12" x="1560" y="50.0"/>
  <text x="1560" y="246.8" font-family="Tahoma" font-size="12" transform="rotate(90 1560,246.8)" text-rendering="optimizeSpeed" fill="#000000">ssh-slaves (19182)</text>
  <text x="10" y="40" font-family="Tahoma" font-size="20" text-rendering="optimizeSpeed" fill="#000000">Plugin installations (installations &gt; 500)</text>
</svg>
