<svg xmlns="http://www.w3.org/2000/svg" version="1.1" preserveAspectRatio="xMidYMid meet" viewBox="0 0 170 613.3">
  <rect fill="blue" height="0.0" stroke="black" width="12" x="15" y="313.3"/>
  <text x="15" y="318.3" font-family="Tahoma" font-size="12" transform="rotate(90 15,318.3)" text-rendering="optimizeSpeed" fill="#000000">hudson-masterjob-IvyModuleSet (1)</text>
  <rect fill="blue" height="0.0" stroke="black" width="12" x="30" y="313.3"/>
  <text x="30" y="318.3" font-family="Tahoma" font-size="12" transform="rotate(90 30,318.3)" text-rendering="optimizeSpeed" fill="#000000">hudson-plugins-jprt-JPRTJob (1)</text>
  <rect fill="blue" height="0.0" stroke="black" width="12" x="45" y="313.3"/>
  <text x="45" y="318.3" font-family="Tahoma" font-size="12" transform="rotate(90 45,318.3)" text-rendering="optimizeSpeed" fill="#000000">hudson-drools-DroolsProject (3)</text>
  <rect fill="blue" height="0.2" stroke="black" width="12" x="60" y="313.1"/>
  <text x="60" y="318.3" font-family="Tahoma" font-size="12" transform="rotate(90 60,318.3)" text-rendering="optimizeSpeed" fill="#000000">hudson-ivy-IvyModuleSet (189)</text>
  <rect fill="blue" height="0.6" stroke="black" width="12" x="75" y="312.7"/>
  <text x="75" y="318.3" font-family="Tahoma" font-size="12" transform="rotate(90 75,318.3)" text-rendering="optimizeSpeed" fill="#000000">hudson-model-ExternalJob (551)</text>
  <rect fill="blue" height="6.6" stroke="black" width="12" x="90" y="306.7"/>
  <text x="90" y="318.3" font-family="Tahoma" font-size="12" transform="rotate(90 90,318.3)" text-rendering="optimizeSpeed" fill="#000000">hudson-matrix-MatrixProject (6643)</text>
  <rect fill="blue" height="92.0" stroke="black" width="12" x="105" y="221.3"/>
  <text x="105" y="318.3" font-family="Tahoma" font-size="12" transform="rotate(90 105,318.3)" text-rendering="optimizeSpeed" fill="#000000">hudson-maven-MavenModuleSet (91976)</text>
  <rect fill="blue" height="263.3" stroke="black" width="12" x="120" y="50.0"/>
  <text x="120" y="318.3" font-family="Tahoma" font-size="12" transform="rotate(90 120,318.3)" text-rendering="optimizeSpeed" fill="#000000">hudson-model-FreeStyleProject (263295)</text>
  <text x="10" y="40" font-family="Tahoma" font-size="20" text-rendering="optimizeSpeed" fill="#000000">Jobs (total: 362659)</text>
</svg>
