<svg xmlns="http://www.w3.org/2000/svg" version="1.1" preserveAspectRatio="xMidYMid meet" viewBox="0 0 2090 900.5">
  <rect fill="blue" height="83.2" stroke="black" width="12" x="15" y="517.3"/>
  <text x="15" y="605.5" font-family="Tahoma" font-size="12" transform="rotate(90 15,605.5)" text-rendering="optimizeSpeed" fill="#000000">0 (2079)</text>
  <rect fill="blue" height="101.8" stroke="black" width="12" x="30" y="498.6"/>
  <text x="30" y="605.5" font-family="Tahoma" font-size="12" transform="rotate(90 30,605.5)" text-rendering="optimizeSpeed" fill="#000000">1 (2546)</text>
  <rect fill="blue" height="550.5" stroke="black" width="12" x="45" y="50.0"/>
  <text x="45" y="605.5" font-family="Tahoma" font-size="12" transform="rotate(90 45,605.5)" text-rendering="optimizeSpeed" fill="#000000">2 (13762)</text>
  <rect fill="blue" height="52.7" stroke="black" width="12" x="60" y="547.8"/>
  <text x="60" y="605.5" font-family="Tahoma" font-size="12" transform="rotate(90 60,605.5)" text-rendering="optimizeSpeed" fill="#000000">3 (1318)</text>
  <rect fill="blue" height="58.1" stroke="black" width="12" x="75" y="542.4"/>
  <text x="75" y="605.5" font-family="Tahoma" font-size="12" transform="rotate(90 75,605.5)" text-rendering="optimizeSpeed" fill="#000000">4 (1452)</text>
  <rect fill="blue" height="27.7" stroke="black" width="12" x="90" y="572.8"/>
  <text x="90" y="605.5" font-family="Tahoma" font-size="12" transform="rotate(90 90,605.5)" text-rendering="optimizeSpeed" fill="#000000">5 (692)</text>
  <rect fill="blue" height="21.7" stroke="black" width="12" x="105" y="578.8"/>
  <text x="105" y="605.5" font-family="Tahoma" font-size="12" transform="rotate(90 105,605.5)" text-rendering="optimizeSpeed" fill="#000000">6 (543)</text>
  <rect fill="blue" height="11.2" stroke="black" width="12" x="120" y="589.3"/>
  <text x="120" y="605.5" font-family="Tahoma" font-size="12" transform="rotate(90 120,605.5)" text-rendering="optimizeSpeed" fill="#000000">7 (279)</text>
  <rect fill="blue" height="14.6" stroke="black" width="12" x="135" y="585.9"/>
  <text x="135" y="605.5" font-family="Tahoma" font-size="12" transform="rotate(90 135,605.5)" text-rendering="optimizeSpeed" fill="#000000">8 (364)</text>
  <rect fill="blue" height="6.7" stroke="black" width="12" x="150" y="593.8"/>
  <text x="150" y="605.5" font-family="Tahoma" font-size="12" transform="rotate(90 150,605.5)" text-rendering="optimizeSpeed" fill="#000000">9 (167)</text>
  <rect fill="blue" height="12.9" stroke="black" width="12" x="165" y="587.6"/>
  <text x="165" y="605.5" font-family="Tahoma" font-size="12" transform="rotate(90 165,605.5)" text-rendering="optimizeSpeed" fill="#000000">10 (322)</text>
  <rect fill="blue" height="4.2" stroke="black" width="12" x="180" y="596.2"/>
  <text x="180" y="605.5" font-family="Tahoma" font-size="12" transform="rotate(90 180,605.5)" text-rendering="optimizeSpeed" fill="#000000">11 (106)</text>
  <rect fill="blue" height="5.8" stroke="black" width="12" x="195" y="594.7"/>
  <text x="195" y="605.5" font-family="Tahoma" font-size="12" transform="rotate(90 195,605.5)" text-rendering="optimizeSpeed" fill="#000000">12 (145)</text>
  <rect fill="blue" height="3.2" stroke="black" width="12" x="210" y="597.3"/>
  <text x="210" y="605.5" font-family="Tahoma" font-size="12" transform="rotate(90 210,605.5)" text-rendering="optimizeSpeed" fill="#000000">13 (80)</text>
  <rect fill="blue" height="4.2" stroke="black" width="12" x="225" y="596.2"/>
  <text x="225" y="605.5" font-family="Tahoma" font-size="12" transform="rotate(90 225,605.5)" text-rendering="optimizeSpeed" fill="#000000">14 (106)</text>
  <rect fill="blue" height="4.2" stroke="black" width="12" x="240" y="596.3"/>
  <text x="240" y="605.5" font-family="Tahoma" font-size="12" transform="rotate(90 240,605.5)" text-rendering="optimizeSpeed" fill="#000000">15 (104)</text>
  <rect fill="blue" height="4.2" stroke="black" width="12" x="255" y="596.3"/>
  <text x="255" y="605.5" font-family="Tahoma" font-size="12" transform="rotate(90 255,605.5)" text-rendering="optimizeSpeed" fill="#000000">16 (105)</text>
  <rect fill="blue" height="2.3" stroke="black" width="12" x="270" y="598.2"/>
  <text x="270" y="605.5" font-family="Tahoma" font-size="12" transform="rotate(90 270,605.5)" text-rendering="optimizeSpeed" fill="#000000">17 (57)</text>
  <rect fill="blue" height="2.0" stroke="black" width="12" x="285" y="598.5"/>
  <text x="285" y="605.5" font-family="Tahoma" font-size="12" transform="rotate(90 285,605.5)" text-rendering="optimizeSpeed" fill="#000000">18 (49)</text>
  <rect fill="blue" height="1.6" stroke="black" width="12" x="300" y="598.9"/>
  <text x="300" y="605.5" font-family="Tahoma" font-size="12" transform="rotate(90 300,605.5)" text-rendering="optimizeSpeed" fill="#000000">19 (40)</text>
  <rect fill="blue" height="3.0" stroke="black" width="12" x="315" y="597.5"/>
  <text x="315" y="605.5" font-family="Tahoma" font-size="12" transform="rotate(90 315,605.5)" text-rendering="optimizeSpeed" fill="#000000">20 (74)</text>
  <rect fill="blue" height="1.4" stroke="black" width="12" x="330" y="599.1"/>
  <text x="330" y="605.5" font-family="Tahoma" font-size="12" transform="rotate(90 330,605.5)" text-rendering="optimizeSpeed" fill="#000000">21 (35)</text>
  <rect fill="blue" height="1.6" stroke="black" width="12" x="345" y="598.9"/>
  <text x="345" y="605.5" font-family="Tahoma" font-size="12" transform="rotate(90 345,605.5)" text-rendering="optimizeSpeed" fill="#000000">22 (39)</text>
  <rect fill="blue" height="0.8" stroke="black" width="12" x="360" y="599.7"/>
  <text x="360" y="605.5" font-family="Tahoma" font-size="12" transform="rotate(90 360,605.5)" text-rendering="optimizeSpeed" fill="#000000">23 (20)</text>
  <rect fill="blue" height="1.7" stroke="black" width="12" x="375" y="598.8"/>
  <text x="375" y="605.5" font-family="Tahoma" font-size="12" transform="rotate(90 375,605.5)" text-rendering="optimizeSpeed" fill="#000000">24 (42)</text>
  <rect fill="blue" height="1.2" stroke="black" width="12" x="390" y="599.3"/>
  <text x="390" y="605.5" font-family="Tahoma" font-size="12" transform="rotate(90 390,605.5)" text-rendering="optimizeSpeed" fill="#000000">25 (30)</text>
  <rect fill="blue" height="0.9" stroke="black" width="12" x="405" y="599.6"/>
  <text x="405" y="605.5" font-family="Tahoma" font-size="12" transform="rotate(90 405,605.5)" text-rendering="optimizeSpeed" fill="#000000">26 (22)</text>
  <rect fill="blue" height="0.6" stroke="black" width="12" x="420" y="599.9"/>
  <text x="420" y="605.5" font-family="Tahoma" font-size="12" transform="rotate(90 420,605.5)" text-rendering="optimizeSpeed" fill="#000000">27 (14)</text>
  <rect fill="blue" height="1.2" stroke="black" width="12" x="435" y="599.3"/>
  <text x="435" y="605.5" font-family="Tahoma" font-size="12" transform="rotate(90 435,605.5)" text-rendering="optimizeSpeed" fill="#000000">28 (29)</text>
  <rect fill="blue" height="0.6" stroke="black" width="12" x="450" y="599.9"/>
  <text x="450" y="605.5" font-family="Tahoma" font-size="12" transform="rotate(90 450,605.5)" text-rendering="optimizeSpeed" fill="#000000">29 (15)</text>
  <rect fill="blue" height="0.9" stroke="black" width="12" x="465" y="599.6"/>
  <text x="465" y="605.5" font-family="Tahoma" font-size="12" transform="rotate(90 465,605.5)" text-rendering="optimizeSpeed" fill="#000000">30 (23)</text>
  <rect fill="blue" height="0.5" stroke="black" width="12" x="480" y="600.0"/>
  <text x="480" y="605.5" font-family="Tahoma" font-size="12" transform="rotate(90 480,605.5)" text-rendering="optimizeSpeed" fill="#000000">31 (12)</text>
  <rect fill="blue" height="0.9" stroke="black" width="12" x="495" y="599.6"/>
  <text x="495" y="605.5" font-family="Tahoma" font-size="12" transform="rotate(90 495,605.5)" text-rendering="optimizeSpeed" fill="#000000">32 (22)</text>
  <rect fill="blue" height="0.5" stroke="black" width="12" x="510" y="600.0"/>
  <text x="510" y="605.5" font-family="Tahoma" font-size="12" transform="rotate(90 510,605.5)" text-rendering="optimizeSpeed" fill="#000000">33 (13)</text>
  <rect fill="blue" height="0.5" stroke="black" width="12" x="525" y="600.0"/>
  <text x="525" y="605.5" font-family="Tahoma" font-size="12" transform="rotate(90 525,605.5)" text-rendering="optimizeSpeed" fill="#000000">34 (12)</text>
  <rect fill="blue" height="0.6" stroke="black" width="12" x="540" y="599.8"/>
  <text x="540" y="605.5" font-family="Tahoma" font-size="12" transform="rotate(90 540,605.5)" text-rendering="optimizeSpeed" fill="#000000">35 (16)</text>
  <rect fill="blue" height="0.3" stroke="black" width="12" x="555" y="600.2"/>
  <text x="555" y="605.5" font-family="Tahoma" font-size="12" transform="rotate(90 555,605.5)" text-rendering="optimizeSpeed" fill="#000000">36 (7)</text>
  <rect fill="blue" height="0.3" stroke="black" width="12" x="570" y="600.2"/>
  <text x="570" y="605.5" font-family="Tahoma" font-size="12" transform="rotate(90 570,605.5)" text-rendering="optimizeSpeed" fill="#000000">37 (7)</text>
  <rect fill="blue" height="0.3" stroke="black" width="12" x="585" y="600.2"/>
  <text x="585" y="605.5" font-family="Tahoma" font-size="12" transform="rotate(90 585,605.5)" text-rendering="optimizeSpeed" fill="#000000">38 (7)</text>
  <rect fill="blue" height="0.2" stroke="black" width="12" x="600" y="600.2"/>
  <text x="600" y="605.5" font-family="Tahoma" font-size="12" transform="rotate(90 600,605.5)" text-rendering="optimizeSpeed" fill="#000000">39 (6)</text>
  <rect fill="blue" height="0.3" stroke="black" width="12" x="615" y="600.2"/>
  <text x="615" y="605.5" font-family="Tahoma" font-size="12" transform="rotate(90 615,605.5)" text-rendering="optimizeSpeed" fill="#000000">40 (7)</text>
  <rect fill="blue" height="0.2" stroke="black" width="12" x="630" y="600.2"/>
  <text x="630" y="605.5" font-family="Tahoma" font-size="12" transform="rotate(90 630,605.5)" text-rendering="optimizeSpeed" fill="#000000">41 (6)</text>
  <rect fill="blue" height="0.2" stroke="black" width="12" x="645" y="600.3"/>
  <text x="645" y="605.5" font-family="Tahoma" font-size="12" transform="rotate(90 645,605.5)" text-rendering="optimizeSpeed" fill="#000000">42 (5)</text>
  <rect fill="blue" height="0.2" stroke="black" width="12" x="660" y="600.3"/>
  <text x="660" y="605.5" font-family="Tahoma" font-size="12" transform="rotate(90 660,605.5)" text-rendering="optimizeSpeed" fill="#000000">43 (4)</text>
  <rect fill="blue" height="0.2" stroke="black" width="12" x="675" y="600.2"/>
  <text x="675" y="605.5" font-family="Tahoma" font-size="12" transform="rotate(90 675,605.5)" text-rendering="optimizeSpeed" fill="#000000">44 (6)</text>
  <rect fill="blue" height="0.2" stroke="black" width="12" x="690" y="600.3"/>
  <text x="690" y="605.5" font-family="Tahoma" font-size="12" transform="rotate(90 690,605.5)" text-rendering="optimizeSpeed" fill="#000000">45 (5)</text>
  <rect fill="blue" height="0.2" stroke="black" width="12" x="705" y="600.3"/>
  <text x="705" y="605.5" font-family="Tahoma" font-size="12" transform="rotate(90 705,605.5)" text-rendering="optimizeSpeed" fill="#000000">46 (5)</text>
  <rect fill="blue" height="0.2" stroke="black" width="12" x="720" y="600.3"/>
  <text x="720" y="605.5" font-family="Tahoma" font-size="12" transform="rotate(90 720,605.5)" text-rendering="optimizeSpeed" fill="#000000">47 (4)</text>
  <rect fill="blue" height="0.2" stroke="black" width="12" x="735" y="600.2"/>
  <text x="735" y="605.5" font-family="Tahoma" font-size="12" transform="rotate(90 735,605.5)" text-rendering="optimizeSpeed" fill="#000000">48 (6)</text>
  <rect fill="blue" height="0.4" stroke="black" width="12" x="750" y="600.1"/>
  <text x="750" y="605.5" font-family="Tahoma" font-size="12" transform="rotate(90 750,605.5)" text-rendering="optimizeSpeed" fill="#000000">49 (10)</text>
  <rect fill="blue" height="0.2" stroke="black" width="12" x="765" y="600.3"/>
  <text x="765" y="605.5" font-family="Tahoma" font-size="12" transform="rotate(90 765,605.5)" text-rendering="optimizeSpeed" fill="#000000">50 (4)</text>
  <rect fill="blue" height="0.2" stroke="black" width="12" x="780" y="600.3"/>
  <text x="780" y="605.5" font-family="Tahoma" font-size="12" transform="rotate(90 780,605.5)" text-rendering="optimizeSpeed" fill="#000000">51 (4)</text>
  <rect fill="blue" height="0.1" stroke="black" width="12" x="795" y="600.4"/>
  <text x="795" y="605.5" font-family="Tahoma" font-size="12" transform="rotate(90 795,605.5)" text-rendering="optimizeSpeed" fill="#000000">52 (2)</text>
  <rect fill="blue" height="0.2" stroke="black" width="12" x="810" y="600.3"/>
  <text x="810" y="605.5" font-family="Tahoma" font-size="12" transform="rotate(90 810,605.5)" text-rendering="optimizeSpeed" fill="#000000">53 (5)</text>
  <rect fill="blue" height="0.2" stroke="black" width="12" x="825" y="600.3"/>
  <text x="825" y="605.5" font-family="Tahoma" font-size="12" transform="rotate(90 825,605.5)" text-rendering="optimizeSpeed" fill="#000000">54 (4)</text>
  <rect fill="blue" height="0.2" stroke="black" width="12" x="840" y="600.2"/>
  <text x="840" y="605.5" font-family="Tahoma" font-size="12" transform="rotate(90 840,605.5)" text-rendering="optimizeSpeed" fill="#000000">55 (6)</text>
  <rect fill="blue" height="0.1" stroke="black" width="12" x="855" y="600.4"/>
  <text x="855" y="605.5" font-family="Tahoma" font-size="12" transform="rotate(90 855,605.5)" text-rendering="optimizeSpeed" fill="#000000">56 (2)</text>
  <rect fill="blue" height="0.2" stroke="black" width="12" x="870" y="600.3"/>
  <text x="870" y="605.5" font-family="Tahoma" font-size="12" transform="rotate(90 870,605.5)" text-rendering="optimizeSpeed" fill="#000000">57 (5)</text>
  <rect fill="blue" height="0.0" stroke="black" width="12" x="885" y="600.4"/>
  <text x="885" y="605.5" font-family="Tahoma" font-size="12" transform="rotate(90 885,605.5)" text-rendering="optimizeSpeed" fill="#000000">58 (1)</text>
  <rect fill="blue" height="0.0" stroke="black" width="12" x="900" y="600.4"/>
  <text x="900" y="605.5" font-family="Tahoma" font-size="12" transform="rotate(90 900,605.5)" text-rendering="optimizeSpeed" fill="#000000">59 (1)</text>
  <rect fill="blue" height="0.1" stroke="black" width="12" x="915" y="600.4"/>
  <text x="915" y="605.5" font-family="Tahoma" font-size="12" transform="rotate(90 915,605.5)" text-rendering="optimizeSpeed" fill="#000000">60 (2)</text>
  <rect fill="blue" height="0.0" stroke="black" width="12" x="930" y="600.4"/>
  <text x="930" y="605.5" font-family="Tahoma" font-size="12" transform="rotate(90 930,605.5)" text-rendering="optimizeSpeed" fill="#000000">61 (1)</text>
  <rect fill="blue" height="0.1" stroke="black" width="12" x="945" y="600.4"/>
  <text x="945" y="605.5" font-family="Tahoma" font-size="12" transform="rotate(90 945,605.5)" text-rendering="optimizeSpeed" fill="#000000">62 (2)</text>
  <rect fill="blue" height="0.2" stroke="black" width="12" x="960" y="600.3"/>
  <text x="960" y="605.5" font-family="Tahoma" font-size="12" transform="rotate(90 960,605.5)" text-rendering="optimizeSpeed" fill="#000000">63 (5)</text>
  <rect fill="blue" height="0.1" stroke="black" width="12" x="975" y="600.4"/>
  <text x="975" y="605.5" font-family="Tahoma" font-size="12" transform="rotate(90 975,605.5)" text-rendering="optimizeSpeed" fill="#000000">64 (3)</text>
  <rect fill="blue" height="0.1" stroke="black" width="12" x="990" y="600.4"/>
  <text x="990" y="605.5" font-family="Tahoma" font-size="12" transform="rotate(90 990,605.5)" text-rendering="optimizeSpeed" fill="#000000">65 (2)</text>
  <rect fill="blue" height="0.0" stroke="black" width="12" x="1005" y="600.4"/>
  <text x="1005" y="605.5" font-family="Tahoma" font-size="12" transform="rotate(90 1005,605.5)" text-rendering="optimizeSpeed" fill="#000000">66 (1)</text>
  <rect fill="blue" height="0.2" stroke="black" width="12" x="1020" y="600.3"/>
  <text x="1020" y="605.5" font-family="Tahoma" font-size="12" transform="rotate(90 1020,605.5)" text-rendering="optimizeSpeed" fill="#000000">67 (5)</text>
  <rect fill="blue" height="0.1" stroke="black" width="12" x="1035" y="600.4"/>
  <text x="1035" y="605.5" font-family="Tahoma" font-size="12" transform="rotate(90 1035,605.5)" text-rendering="optimizeSpeed" fill="#000000">68 (2)</text>
  <rect fill="blue" height="0.1" stroke="black" width="12" x="1050" y="600.4"/>
  <text x="1050" y="605.5" font-family="Tahoma" font-size="12" transform="rotate(90 1050,605.5)" text-rendering="optimizeSpeed" fill="#000000">69 (2)</text>
  <rect fill="blue" height="0.1" stroke="black" width="12" x="1065" y="600.4"/>
  <text x="1065" y="605.5" font-family="Tahoma" font-size="12" transform="rotate(90 1065,605.5)" text-rendering="optimizeSpeed" fill="#000000">71 (2)</text>
  <rect fill="blue" height="0.0" stroke="black" width="12" x="1080" y="600.4"/>
  <text x="1080" y="605.5" font-family="Tahoma" font-size="12" transform="rotate(90 1080,605.5)" text-rendering="optimizeSpeed" fill="#000000">72 (1)</text>
  <rect fill="blue" height="0.1" stroke="black" width="12" x="1095" y="600.4"/>
  <text x="1095" y="605.5" font-family="Tahoma" font-size="12" transform="rotate(90 1095,605.5)" text-rendering="optimizeSpeed" fill="#000000">73 (2)</text>
  <rect fill="blue" height="0.0" stroke="black" width="12" x="1110" y="600.4"/>
  <text x="1110" y="605.5" font-family="Tahoma" font-size="12" transform="rotate(90 1110,605.5)" text-rendering="optimizeSpeed" fill="#000000">74 (1)</text>
  <rect fill="blue" height="0.0" stroke="black" width="12" x="1125" y="600.4"/>
  <text x="1125" y="605.5" font-family="Tahoma" font-size="12" transform="rotate(90 1125,605.5)" text-rendering="optimizeSpeed" fill="#000000">75 (1)</text>
  <rect fill="blue" height="0.1" stroke="black" width="12" x="1140" y="600.4"/>
  <text x="1140" y="605.5" font-family="Tahoma" font-size="12" transform="rotate(90 1140,605.5)" text-rendering="optimizeSpeed" fill="#000000">76 (2)</text>
  <rect fill="blue" height="0.1" stroke="black" width="12" x="1155" y="600.4"/>
  <text x="1155" y="605.5" font-family="Tahoma" font-size="12" transform="rotate(90 1155,605.5)" text-rendering="optimizeSpeed" fill="#000000">78 (2)</text>
  <rect fill="blue" height="0.1" stroke="black" width="12" x="1170" y="600.4"/>
  <text x="1170" y="605.5" font-family="Tahoma" font-size="12" transform="rotate(90 1170,605.5)" text-rendering="optimizeSpeed" fill="#000000">79 (2)</text>
  <rect fill="blue" height="0.0" stroke="black" width="12" x="1185" y="600.4"/>
  <text x="1185" y="605.5" font-family="Tahoma" font-size="12" transform="rotate(90 1185,605.5)" text-rendering="optimizeSpeed" fill="#000000">80 (1)</text>
  <rect fill="blue" height="0.0" stroke="black" width="12" x="1200" y="600.4"/>
  <text x="1200" y="605.5" font-family="Tahoma" font-size="12" transform="rotate(90 1200,605.5)" text-rendering="optimizeSpeed" fill="#000000">81 (1)</text>
  <rect fill="blue" height="0.1" stroke="black" width="12" x="1215" y="600.4"/>
  <text x="1215" y="605.5" font-family="Tahoma" font-size="12" transform="rotate(90 1215,605.5)" text-rendering="optimizeSpeed" fill="#000000">82 (2)</text>
  <rect fill="blue" height="0.0" stroke="black" width="12" x="1230" y="600.4"/>
  <text x="1230" y="605.5" font-family="Tahoma" font-size="12" transform="rotate(90 1230,605.5)" text-rendering="optimizeSpeed" fill="#000000">84 (1)</text>
  <rect fill="blue" height="0.1" stroke="black" width="12" x="1245" y="600.4"/>
  <text x="1245" y="605.5" font-family="Tahoma" font-size="12" transform="rotate(90 1245,605.5)" text-rendering="optimizeSpeed" fill="#000000">85 (2)</text>
  <rect fill="blue" height="0.2" stroke="black" width="12" x="1260" y="600.3"/>
  <text x="1260" y="605.5" font-family="Tahoma" font-size="12" transform="rotate(90 1260,605.5)" text-rendering="optimizeSpeed" fill="#000000">86 (4)</text>
  <rect fill="blue" height="0.0" stroke="black" width="12" x="1275" y="600.4"/>
  <text x="1275" y="605.5" font-family="Tahoma" font-size="12" transform="rotate(90 1275,605.5)" text-rendering="optimizeSpeed" fill="#000000">87 (1)</text>
  <rect fill="blue" height="0.0" stroke="black" width="12" x="1290" y="600.4"/>
  <text x="1290" y="605.5" font-family="Tahoma" font-size="12" transform="rotate(90 1290,605.5)" text-rendering="optimizeSpeed" fill="#000000">93 (1)</text>
  <rect fill="blue" height="0.1" stroke="black" width="12" x="1305" y="600.4"/>
  <text x="1305" y="605.5" font-family="Tahoma" font-size="12" transform="rotate(90 1305,605.5)" text-rendering="optimizeSpeed" fill="#000000">96 (2)</text>
  <rect fill="blue" height="0.1" stroke="black" width="12" x="1320" y="600.4"/>
  <text x="1320" y="605.5" font-family="Tahoma" font-size="12" transform="rotate(90 1320,605.5)" text-rendering="optimizeSpeed" fill="#000000">97 (2)</text>
  <rect fill="blue" height="0.1" stroke="black" width="12" x="1335" y="600.4"/>
  <text x="1335" y="605.5" font-family="Tahoma" font-size="12" transform="rotate(90 1335,605.5)" text-rendering="optimizeSpeed" fill="#000000">102 (2)</text>
  <rect fill="blue" height="0.0" stroke="black" width="12" x="1350" y="600.4"/>
  <text x="1350" y="605.5" font-family="Tahoma" font-size="12" transform="rotate(90 1350,605.5)" text-rendering="optimizeSpeed" fill="#000000">103 (1)</text>
  <rect fill="blue" height="0.0" stroke="black" width="12" x="1365" y="600.4"/>
  <text x="1365" y="605.5" font-family="Tahoma" font-size="12" transform="rotate(90 1365,605.5)" text-rendering="optimizeSpeed" fill="#000000">104 (1)</text>
  <rect fill="blue" height="0.0" stroke="black" width="12" x="1380" y="600.4"/>
  <text x="1380" y="605.5" font-family="Tahoma" font-size="12" transform="rotate(90 1380,605.5)" text-rendering="optimizeSpeed" fill="#000000">106 (1)</text>
  <rect fill="blue" height="0.1" stroke="black" width="12" x="1395" y="600.4"/>
  <text x="1395" y="605.5" font-family="Tahoma" font-size="12" transform="rotate(90 1395,605.5)" text-rendering="optimizeSpeed" fill="#000000">108 (2)</text>
  <rect fill="blue" height="0.0" stroke="black" width="12" x="1410" y="600.4"/>
  <text x="1410" y="605.5" font-family="Tahoma" font-size="12" transform="rotate(90 1410,605.5)" text-rendering="optimizeSpeed" fill="#000000">109 (1)</text>
  <rect fill="blue" height="0.1" stroke="black" width="12" x="1425" y="600.4"/>
  <text x="1425" y="605.5" font-family="Tahoma" font-size="12" transform="rotate(90 1425,605.5)" text-rendering="optimizeSpeed" fill="#000000">110 (2)</text>
  <rect fill="blue" height="0.1" stroke="black" width="12" x="1440" y="600.4"/>
  <text x="1440" y="605.5" font-family="Tahoma" font-size="12" transform="rotate(90 1440,605.5)" text-rendering="optimizeSpeed" fill="#000000">111 (2)</text>
  <rect fill="blue" height="0.0" stroke="black" width="12" x="1455" y="600.4"/>
  <text x="1455" y="605.5" font-family="Tahoma" font-size="12" transform="rotate(90 1455,605.5)" text-rendering="optimizeSpeed" fill="#000000">112 (1)</text>
  <rect fill="blue" height="0.1" stroke="black" width="12" x="1470" y="600.4"/>
  <text x="1470" y="605.5" font-family="Tahoma" font-size="12" transform="rotate(90 1470,605.5)" text-rendering="optimizeSpeed" fill="#000000">115 (2)</text>
  <rect fill="blue" height="0.1" stroke="black" width="12" x="1485" y="600.4"/>
  <text x="1485" y="605.5" font-family="Tahoma" font-size="12" transform="rotate(90 1485,605.5)" text-rendering="optimizeSpeed" fill="#000000">119 (2)</text>
  <rect fill="blue" height="0.0" stroke="black" width="12" x="1500" y="600.4"/>
  <text x="1500" y="605.5" font-family="Tahoma" font-size="12" transform="rotate(90 1500,605.5)" text-rendering="optimizeSpeed" fill="#000000">121 (1)</text>
  <rect fill="blue" height="0.1" stroke="black" width="12" x="1515" y="600.4"/>
  <text x="1515" y="605.5" font-family="Tahoma" font-size="12" transform="rotate(90 1515,605.5)" text-rendering="optimizeSpeed" fill="#000000">122 (2)</text>
  <rect fill="blue" height="0.0" stroke="black" width="12" x="1530" y="600.4"/>
  <text x="1530" y="605.5" font-family="Tahoma" font-size="12" transform="rotate(90 1530,605.5)" text-rendering="optimizeSpeed" fill="#000000">123 (1)</text>
  <rect fill="blue" height="0.0" stroke="black" width="12" x="1545" y="600.4"/>
  <text x="1545" y="605.5" font-family="Tahoma" font-size="12" transform="rotate(90 1545,605.5)" text-rendering="optimizeSpeed" fill="#000000">125 (1)</text>
  <rect fill="blue" height="0.0" stroke="black" width="12" x="1560" y="600.4"/>
  <text x="1560" y="605.5" font-family="Tahoma" font-size="12" transform="rotate(90 1560,605.5)" text-rendering="optimizeSpeed" fill="#000000">127 (1)</text>
  <rect fill="blue" height="0.0" stroke="black" width="12" x="1575" y="600.4"/>
  <text x="1575" y="605.5" font-family="Tahoma" font-size="12" transform="rotate(90 1575,605.5)" text-rendering="optimizeSpeed" fill="#000000">128 (1)</text>
  <rect fill="blue" height="0.0" stroke="black" width="12" x="1590" y="600.4"/>
  <text x="1590" y="605.5" font-family="Tahoma" font-size="12" transform="rotate(90 1590,605.5)" text-rendering="optimizeSpeed" fill="#000000">129 (1)</text>
  <rect fill="blue" height="0.0" stroke="black" width="12" x="1605" y="600.4"/>
  <text x="1605" y="605.5" font-family="Tahoma" font-size="12" transform="rotate(90 1605,605.5)" text-rendering="optimizeSpeed" fill="#000000">130 (1)</text>
  <rect fill="blue" height="0.0" stroke="black" width="12" x="1620" y="600.4"/>
  <text x="1620" y="605.5" font-family="Tahoma" font-size="12" transform="rotate(90 1620,605.5)" text-rendering="optimizeSpeed" fill="#000000">131 (1)</text>
  <rect fill="blue" height="0.1" stroke="black" width="12" x="1635" y="600.4"/>
  <text x="1635" y="605.5" font-family="Tahoma" font-size="12" transform="rotate(90 1635,605.5)" text-rendering="optimizeSpeed" fill="#000000">132 (2)</text>
  <rect fill="blue" height="0.0" stroke="black" width="12" x="1650" y="600.4"/>
  <text x="1650" y="605.5" font-family="Tahoma" font-size="12" transform="rotate(90 1650,605.5)" text-rendering="optimizeSpeed" fill="#000000">140 (1)</text>
  <rect fill="blue" height="0.0" stroke="black" width="12" x="1665" y="600.4"/>
  <text x="1665" y="605.5" font-family="Tahoma" font-size="12" transform="rotate(90 1665,605.5)" text-rendering="optimizeSpeed" fill="#000000">143 (1)</text>
  <rect fill="blue" height="0.0" stroke="black" width="12" x="1680" y="600.4"/>
  <text x="1680" y="605.5" font-family="Tahoma" font-size="12" transform="rotate(90 1680,605.5)" text-rendering="optimizeSpeed" fill="#000000">145 (1)</text>
  <rect fill="blue" height="0.0" stroke="black" width="12" x="1695" y="600.4"/>
  <text x="1695" y="605.5" font-family="Tahoma" font-size="12" transform="rotate(90 1695,605.5)" text-rendering="optimizeSpeed" fill="#000000">149 (1)</text>
  <rect fill="blue" height="0.0" stroke="black" width="12" x="1710" y="600.4"/>
  <text x="1710" y="605.5" font-family="Tahoma" font-size="12" transform="rotate(90 1710,605.5)" text-rendering="optimizeSpeed" fill="#000000">151 (1)</text>
  <rect fill="blue" height="0.0" stroke="black" width="12" x="1725" y="600.4"/>
  <text x="1725" y="605.5" font-family="Tahoma" font-size="12" transform="rotate(90 1725,605.5)" text-rendering="optimizeSpeed" fill="#000000">153 (1)</text>
  <rect fill="blue" height="0.1" stroke="black" width="12" x="1740" y="600.4"/>
  <text x="1740" y="605.5" font-family="Tahoma" font-size="12" transform="rotate(90 1740,605.5)" text-rendering="optimizeSpeed" fill="#000000">156 (2)</text>
  <rect fill="blue" height="0.0" stroke="black" width="12" x="1755" y="600.4"/>
  <text x="1755" y="605.5" font-family="Tahoma" font-size="12" transform="rotate(90 1755,605.5)" text-rendering="optimizeSpeed" fill="#000000">160 (1)</text>
  <rect fill="blue" height="0.0" stroke="black" width="12" x="1770" y="600.4"/>
  <text x="1770" y="605.5" font-family="Tahoma" font-size="12" transform="rotate(90 1770,605.5)" text-rendering="optimizeSpeed" fill="#000000">179 (1)</text>
  <rect fill="blue" height="0.0" stroke="black" width="12" x="1785" y="600.4"/>
  <text x="1785" y="605.5" font-family="Tahoma" font-size="12" transform="rotate(90 1785,605.5)" text-rendering="optimizeSpeed" fill="#000000">185 (1)</text>
  <rect fill="blue" height="0.0" stroke="black" width="12" x="1800" y="600.4"/>
  <text x="1800" y="605.5" font-family="Tahoma" font-size="12" transform="rotate(90 1800,605.5)" text-rendering="optimizeSpeed" fill="#000000">186 (1)</text>
  <rect fill="blue" height="0.0" stroke="black" width="12" x="1815" y="600.4"/>
  <text x="1815" y="605.5" font-family="Tahoma" font-size="12" transform="rotate(90 1815,605.5)" text-rendering="optimizeSpeed" fill="#000000">189 (1)</text>
  <rect fill="blue" height="0.0" stroke="black" width="12" x="1830" y="600.4"/>
  <text x="1830" y="605.5" font-family="Tahoma" font-size="12" transform="rotate(90 1830,605.5)" text-rendering="optimizeSpeed" fill="#000000">196 (1)</text>
  <rect fill="blue" height="0.0" stroke="black" width="12" x="1845" y="600.4"/>
  <text x="1845" y="605.5" font-family="Tahoma" font-size="12" transform="rotate(90 1845,605.5)" text-rendering="optimizeSpeed" fill="#000000">199 (1)</text>
  <rect fill="blue" height="0.0" stroke="black" width="12" x="1860" y="600.4"/>
  <text x="1860" y="605.5" font-family="Tahoma" font-size="12" transform="rotate(90 1860,605.5)" text-rendering="optimizeSpeed" fill="#000000">215 (1)</text>
  <rect fill="blue" height="0.0" stroke="black" width="12" x="1875" y="600.4"/>
  <text x="1875" y="605.5" font-family="Tahoma" font-size="12" transform="rotate(90 1875,605.5)" text-rendering="optimizeSpeed" fill="#000000">221 (1)</text>
  <rect fill="blue" height="0.0" stroke="black" width="12" x="1890" y="600.4"/>
  <text x="1890" y="605.5" font-family="Tahoma" font-size="12" transform="rotate(90 1890,605.5)" text-rendering="optimizeSpeed" fill="#000000">224 (1)</text>
  <rect fill="blue" height="0.0" stroke="black" width="12" x="1905" y="600.4"/>
  <text x="1905" y="605.5" font-family="Tahoma" font-size="12" transform="rotate(90 1905,605.5)" text-rendering="optimizeSpeed" fill="#000000">236 (1)</text>
  <rect fill="blue" height="0.0" stroke="black" width="12" x="1920" y="600.4"/>
  <text x="1920" y="605.5" font-family="Tahoma" font-size="12" transform="rotate(90 1920,605.5)" text-rendering="optimizeSpeed" fill="#000000">254 (1)</text>
  <rect fill="blue" height="0.0" stroke="black" width="12" x="1935" y="600.4"/>
  <text x="1935" y="605.5" font-family="Tahoma" font-size="12" transform="rotate(90 1935,605.5)" text-rendering="optimizeSpeed" fill="#000000">269 (1)</text>
  <rect fill="blue" height="0.0" stroke="black" width="12" x="1950" y="600.4"/>
  <text x="1950" y="605.5" font-family="Tahoma" font-size="12" transform="rotate(90 1950,605.5)" text-rendering="optimizeSpeed" fill="#000000">273 (1)</text>
  <rect fill="blue" height="0.0" stroke="black" width="12" x="1965" y="600.4"/>
  <text x="1965" y="605.5" font-family="Tahoma" font-size="12" transform="rotate(90 1965,605.5)" text-rendering="optimizeSpeed" fill="#000000">287 (1)</text>
  <rect fill="blue" height="0.0" stroke="black" width="12" x="1980" y="600.4"/>
  <text x="1980" y="605.5" font-family="Tahoma" font-size="12" transform="rotate(90 1980,605.5)" text-rendering="optimizeSpeed" fill="#000000">309 (1)</text>
  <rect fill="blue" height="0.0" stroke="black" width="12" x="1995" y="600.4"/>
  <text x="1995" y="605.5" font-family="Tahoma" font-size="12" transform="rotate(90 1995,605.5)" text-rendering="optimizeSpeed" fill="#000000">333 (1)</text>
  <rect fill="blue" height="0.0" stroke="black" width="12" x="2010" y="600.4"/>
  <text x="2010" y="605.5" font-family="Tahoma" font-size="12" transform="rotate(90 2010,605.5)" text-rendering="optimizeSpeed" fill="#000000">396 (1)</text>
  <rect fill="blue" height="0.0" stroke="black" width="12" x="2025" y="600.4"/>
  <text x="2025" y="605.5" font-family="Tahoma" font-size="12" transform="rotate(90 2025,605.5)" text-rendering="optimizeSpeed" fill="#000000">540 (1)</text>
  <rect fill="blue" height="0.0" stroke="black" width="12" x="2040" y="600.4"/>
  <text x="2040" y="605.5" font-family="Tahoma" font-size="12" transform="rotate(90 2040,605.5)" text-rendering="optimizeSpeed" fill="#000000">2183 (1)</text>
  <text x="10" y="40" font-family="Tahoma" font-size="20" text-rendering="optimizeSpeed" fill="#000000">Executors per install (total: 24965)</text>
</svg>
