<svg xmlns="http://www.w3.org/2000/svg" version="1.1" preserveAspectRatio="xMidYMid meet" viewBox="0 0 785 1419.0">
  <rect fill="blue" height="0.1" stroke="black" width="12" x="15" y="1118.9"/>
  <text x="15" y="1124.0" font-family="Tahoma" font-size="12" transform="rotate(90 15,1124.0)" text-rendering="optimizeSpeed" fill="#000000">Linux (mips32) (1)</text>
  <rect fill="blue" height="0.1" stroke="black" width="12" x="30" y="1118.9"/>
  <text x="30" y="1124.0" font-family="Tahoma" font-size="12" transform="rotate(90 30,1124.0)" text-rendering="optimizeSpeed" fill="#000000">Linux (nova) (1)</text>
  <rect fill="blue" height="0.1" stroke="black" width="12" x="45" y="1118.9"/>
  <text x="45" y="1124.0" font-family="Tahoma" font-size="12" transform="rotate(90 45,1124.0)" text-rendering="optimizeSpeed" fill="#000000">Linux (s390) (1)</text>
  <rect fill="blue" height="0.1" stroke="black" width="12" x="60" y="1118.9"/>
  <text x="60" y="1124.0" font-family="Tahoma" font-size="12" transform="rotate(90 60,1124.0)" text-rendering="optimizeSpeed" fill="#000000">NetBSD (amd64) (1)</text>
  <rect fill="blue" height="0.1" stroke="black" width="12" x="75" y="1118.9"/>
  <text x="75" y="1124.0" font-family="Tahoma" font-size="12" transform="rotate(90 75,1124.0)" text-rendering="optimizeSpeed" fill="#000000">OS/400 (PowerPC) (1)</text>
  <rect fill="blue" height="0.1" stroke="black" width="12" x="90" y="1118.9"/>
  <text x="90" y="1124.0" font-family="Tahoma" font-size="12" transform="rotate(90 90,1124.0)" text-rendering="optimizeSpeed" fill="#000000">OpenBSD (amd64) (1)</text>
  <rect fill="blue" height="0.1" stroke="black" width="12" x="105" y="1118.9"/>
  <text x="105" y="1124.0" font-family="Tahoma" font-size="12" transform="rotate(90 105,1124.0)" text-rendering="optimizeSpeed" fill="#000000">OpenBSD (i386) (1)</text>
  <rect fill="blue" height="0.1" stroke="black" width="12" x="120" y="1118.9"/>
  <text x="120" y="1124.0" font-family="Tahoma" font-size="12" transform="rotate(90 120,1124.0)" text-rendering="optimizeSpeed" fill="#000000">Windows 2003 (ia64) (1)</text>
  <rect fill="blue" height="0.1" stroke="black" width="12" x="135" y="1118.9"/>
  <text x="135" y="1124.0" font-family="Tahoma" font-size="12" transform="rotate(90 135,1124.0)" text-rendering="optimizeSpeed" fill="#000000">Windows NT (unknown) (amd64) (1)</text>
  <rect fill="blue" height="0.1" stroke="black" width="12" x="150" y="1118.9"/>
  <text x="150" y="1124.0" font-family="Tahoma" font-size="12" transform="rotate(90 150,1124.0)" text-rendering="optimizeSpeed" fill="#000000">Windows Server 2008 (ia64) (1)</text>
  <rect fill="blue" height="0.2" stroke="black" width="12" x="165" y="1118.8"/>
  <text x="165" y="1124.0" font-family="Tahoma" font-size="12" transform="rotate(90 165,1124.0)" text-rendering="optimizeSpeed" fill="#000000">Linux (sparc) (2)</text>
  <rect fill="blue" height="0.3" stroke="black" width="12" x="180" y="1118.7"/>
  <text x="180" y="1124.0" font-family="Tahoma" font-size="12" transform="rotate(90 180,1124.0)" text-rendering="optimizeSpeed" fill="#000000">Linux (arm) (3)</text>
  <rect fill="blue" height="0.3" stroke="black" width="12" x="195" y="1118.7"/>
  <text x="195" y="1124.0" font-family="Tahoma" font-size="12" transform="rotate(90 195,1124.0)" text-rendering="optimizeSpeed" fill="#000000">Windows Server 2003 (amd64) (3)</text>
  <rect fill="blue" height="0.9" stroke="black" width="12" x="210" y="1118.1"/>
  <text x="210" y="1124.0" font-family="Tahoma" font-size="12" transform="rotate(90 210,1124.0)" text-rendering="optimizeSpeed" fill="#000000">SunOS (amd64) (9)</text>
  <rect fill="blue" height="1.0" stroke="black" width="12" x="225" y="1118.0"/>
  <text x="225" y="1124.0" font-family="Tahoma" font-size="12" transform="rotate(90 225,1124.0)" text-rendering="optimizeSpeed" fill="#000000">Linux (ia64) (10)</text>
  <rect fill="blue" height="1.1" stroke="black" width="12" x="240" y="1117.9"/>
  <text x="240" y="1124.0" font-family="Tahoma" font-size="12" transform="rotate(90 240,1124.0)" text-rendering="optimizeSpeed" fill="#000000">Linux (s390x) (11)</text>
  <rect fill="blue" height="1.2" stroke="black" width="12" x="255" y="1117.8"/>
  <text x="255" y="1124.0" font-family="Tahoma" font-size="12" transform="rotate(90 255,1124.0)" text-rendering="optimizeSpeed" fill="#000000">Windows NT (unknown) (x86) (12)</text>
  <rect fill="blue" height="1.3" stroke="black" width="12" x="270" y="1117.7"/>
  <text x="270" y="1124.0" font-family="Tahoma" font-size="12" transform="rotate(90 270,1124.0)" text-rendering="optimizeSpeed" fill="#000000">Linux (ppc) (13)</text>
  <rect fill="blue" height="1.5" stroke="black" width="12" x="285" y="1117.5"/>
  <text x="285" y="1124.0" font-family="Tahoma" font-size="12" transform="rotate(90 285,1124.0)" text-rendering="optimizeSpeed" fill="#000000">SunOS (sparcv9) (15)</text>
  <rect fill="blue" height="1.9" stroke="black" width="12" x="300" y="1117.1"/>
  <text x="300" y="1124.0" font-family="Tahoma" font-size="12" transform="rotate(90 300,1124.0)" text-rendering="optimizeSpeed" fill="#000000">Linux (ppc64) (19)</text>
  <rect fill="blue" height="2.1" stroke="black" width="12" x="315" y="1116.9"/>
  <text x="315" y="1124.0" font-family="Tahoma" font-size="12" transform="rotate(90 315,1124.0)" text-rendering="optimizeSpeed" fill="#000000">Mac OS X (ppc) (21)</text>
  <rect fill="blue" height="2.9" stroke="black" width="12" x="330" y="1116.1"/>
  <text x="330" y="1124.0" font-family="Tahoma" font-size="12" transform="rotate(90 330,1124.0)" text-rendering="optimizeSpeed" fill="#000000">HP-UX (PA_RISC2.0) (29)</text>
  <rect fill="blue" height="3.3" stroke="black" width="12" x="345" y="1115.7"/>
  <text x="345" y="1124.0" font-family="Tahoma" font-size="12" transform="rotate(90 345,1124.0)" text-rendering="optimizeSpeed" fill="#000000">Windows Server 2003 (x86) (33)</text>
  <rect fill="blue" height="3.8" stroke="black" width="12" x="360" y="1115.2"/>
  <text x="360" y="1124.0" font-family="Tahoma" font-size="12" transform="rotate(90 360,1124.0)" text-rendering="optimizeSpeed" fill="#000000">FreeBSD (amd64) (38)</text>
  <rect fill="blue" height="4.1" stroke="black" width="12" x="375" y="1114.9"/>
  <text x="375" y="1124.0" font-family="Tahoma" font-size="12" transform="rotate(90 375,1124.0)" text-rendering="optimizeSpeed" fill="#000000">Windows Vista (amd64) (41)</text>
  <rect fill="blue" height="5.2" stroke="black" width="12" x="390" y="1113.8"/>
  <text x="390" y="1124.0" font-family="Tahoma" font-size="12" transform="rotate(90 390,1124.0)" text-rendering="optimizeSpeed" fill="#000000">FreeBSD (i386) (52)</text>
  <rect fill="blue" height="5.2" stroke="black" width="12" x="405" y="1113.8"/>
  <text x="405" y="1124.0" font-family="Tahoma" font-size="12" transform="rotate(90 405,1124.0)" text-rendering="optimizeSpeed" fill="#000000">HP-UX (IA64N) (52)</text>
  <rect fill="blue" height="5.4" stroke="black" width="12" x="420" y="1113.6"/>
  <text x="420" y="1124.0" font-family="Tahoma" font-size="12" transform="rotate(90 420,1124.0)" text-rendering="optimizeSpeed" fill="#000000">AIX (ppc64) (54)</text>
  <rect fill="blue" height="5.8" stroke="black" width="12" x="435" y="1113.2"/>
  <text x="435" y="1124.0" font-family="Tahoma" font-size="12" transform="rotate(90 435,1124.0)" text-rendering="optimizeSpeed" fill="#000000">Linux (x86) (58)</text>
  <rect fill="blue" height="7.6" stroke="black" width="12" x="450" y="1111.4"/>
  <text x="450" y="1124.0" font-family="Tahoma" font-size="12" transform="rotate(90 450,1124.0)" text-rendering="optimizeSpeed" fill="#000000">Windows 2000 (x86) (76)</text>
  <rect fill="blue" height="7.9" stroke="black" width="12" x="465" y="1111.1"/>
  <text x="465" y="1124.0" font-family="Tahoma" font-size="12" transform="rotate(90 465,1124.0)" text-rendering="optimizeSpeed" fill="#000000">AIX (ppc) (79)</text>
  <rect fill="blue" height="7.9" stroke="black" width="12" x="480" y="1111.1"/>
  <text x="480" y="1124.0" font-family="Tahoma" font-size="12" transform="rotate(90 480,1124.0)" text-rendering="optimizeSpeed" fill="#000000">Windows XP (amd64) (79)</text>
  <rect fill="blue" height="15.8" stroke="black" width="12" x="495" y="1103.2"/>
  <text x="495" y="1124.0" font-family="Tahoma" font-size="12" transform="rotate(90 495,1124.0)" text-rendering="optimizeSpeed" fill="#000000">Mac OS X (i386) (158)</text>
  <rect fill="blue" height="23.1" stroke="black" width="12" x="510" y="1095.9"/>
  <text x="510" y="1124.0" font-family="Tahoma" font-size="12" transform="rotate(90 510,1124.0)" text-rendering="optimizeSpeed" fill="#000000">Windows Vista (x86) (231)</text>
  <rect fill="blue" height="23.8" stroke="black" width="12" x="525" y="1095.2"/>
  <text x="525" y="1124.0" font-family="Tahoma" font-size="12" transform="rotate(90 525,1124.0)" text-rendering="optimizeSpeed" fill="#000000">Windows Server 2008 (amd64) (238)</text>
  <rect fill="blue" height="25.0" stroke="black" width="12" x="540" y="1094.0"/>
  <text x="540" y="1124.0" font-family="Tahoma" font-size="12" transform="rotate(90 540,1124.0)" text-rendering="optimizeSpeed" fill="#000000">Windows Server 2008 R2 (x86) (250)</text>
  <rect fill="blue" height="30.4" stroke="black" width="12" x="555" y="1088.6"/>
  <text x="555" y="1124.0" font-family="Tahoma" font-size="12" transform="rotate(90 555,1124.0)" text-rendering="optimizeSpeed" fill="#000000">Windows 2003 (amd64) (304)</text>
  <rect fill="blue" height="32.9" stroke="black" width="12" x="570" y="1086.1"/>
  <text x="570" y="1124.0" font-family="Tahoma" font-size="12" transform="rotate(90 570,1124.0)" text-rendering="optimizeSpeed" fill="#000000">SunOS (x86) (329)</text>
  <rect fill="blue" height="42.9" stroke="black" width="12" x="585" y="1076.1"/>
  <text x="585" y="1124.0" font-family="Tahoma" font-size="12" transform="rotate(90 585,1124.0)" text-rendering="optimizeSpeed" fill="#000000">Windows Server 2008 (x86) (429)</text>
  <rect fill="blue" height="43.5" stroke="black" width="12" x="600" y="1075.5"/>
  <text x="600" y="1124.0" font-family="Tahoma" font-size="12" transform="rotate(90 600,1124.0)" text-rendering="optimizeSpeed" fill="#000000">Windows 7 (amd64) (435)</text>
  <rect fill="blue" height="45.5" stroke="black" width="12" x="615" y="1073.5"/>
  <text x="615" y="1124.0" font-family="Tahoma" font-size="12" transform="rotate(90 615,1124.0)" text-rendering="optimizeSpeed" fill="#000000">Windows Server 2008 R2 (amd64) (455)</text>
  <rect fill="blue" height="60.7" stroke="black" width="12" x="630" y="1058.3"/>
  <text x="630" y="1124.0" font-family="Tahoma" font-size="12" transform="rotate(90 630,1124.0)" text-rendering="optimizeSpeed" fill="#000000">SunOS (sparc) (607)</text>
  <rect fill="blue" height="61.4" stroke="black" width="12" x="645" y="1057.6"/>
  <text x="645" y="1124.0" font-family="Tahoma" font-size="12" transform="rotate(90 645,1124.0)" text-rendering="optimizeSpeed" fill="#000000">Windows 7 (x86) (614)</text>
  <rect fill="blue" height="68.8" stroke="black" width="12" x="660" y="1050.2"/>
  <text x="660" y="1124.0" font-family="Tahoma" font-size="12" transform="rotate(90 660,1124.0)" text-rendering="optimizeSpeed" fill="#000000">Mac OS X (x86_64) (688)</text>
  <rect fill="blue" height="269.6" stroke="black" width="12" x="675" y="849.4"/>
  <text x="675" y="1124.0" font-family="Tahoma" font-size="12" transform="rotate(90 675,1124.0)" text-rendering="optimizeSpeed" fill="#000000">Windows 2003 (x86) (2696)</text>
  <rect fill="blue" height="324.1" stroke="black" width="12" x="690" y="794.9"/>
  <text x="690" y="1124.0" font-family="Tahoma" font-size="12" transform="rotate(90 690,1124.0)" text-rendering="optimizeSpeed" fill="#000000">Windows XP (x86) (3241)</text>
  <rect fill="blue" height="699.8" stroke="black" width="12" x="705" y="419.2"/>
  <text x="705" y="1124.0" font-family="Tahoma" font-size="12" transform="rotate(90 705,1124.0)" text-rendering="optimizeSpeed" fill="#000000">Linux (i386) (6998)</text>
  <rect fill="blue" height="768.4" stroke="black" width="12" x="720" y="350.6"/>
  <text x="720" y="1124.0" font-family="Tahoma" font-size="12" transform="rotate(90 720,1124.0)" text-rendering="optimizeSpeed" fill="#000000">Linux (amd64) (7684)</text>
  <rect fill="blue" height="1069.0" stroke="black" width="12" x="735" y="50.0"/>
  <text x="735" y="1124.0" font-family="Tahoma" font-size="12" transform="rotate(90 735,1124.0)" text-rendering="optimizeSpeed" fill="#000000">N/A (10690)</text>
  <text x="10" y="40" font-family="Tahoma" font-size="20" text-rendering="optimizeSpeed" fill="#000000">Nodes (total: 36766)</text>
</svg>
