<svg xmlns="http://www.w3.org/2000/svg" version="1.1" preserveAspectRatio="xMidYMid meet" viewBox="0 0 185 648.1">
  <rect fill="blue" height="0.0" stroke="black" width="12" x="15" y="348.1"/>
  <text x="15" y="353.1" font-family="Tahoma" font-size="12" transform="rotate(90 15,353.1)" text-rendering="optimizeSpeed" fill="#000000">hudson-plugins-multibuild-MultiBuildJob (1)</text>
  <rect fill="blue" height="0.0" stroke="black" width="12" x="30" y="348.1"/>
  <text x="30" y="353.1" font-family="Tahoma" font-size="12" transform="rotate(90 30,353.1)" text-rendering="optimizeSpeed" fill="#000000">hudson-plugins-parameterlocks-ParameterLocksProject (3)</text>
  <rect fill="blue" height="0.0" stroke="black" width="12" x="45" y="348.1"/>
  <text x="45" y="353.1" font-family="Tahoma" font-size="12" transform="rotate(90 45,353.1)" text-rendering="optimizeSpeed" fill="#000000">hudson-plugins-sectioned_view-TaobaoStyleProject (4)</text>
  <rect fill="blue" height="0.0" stroke="black" width="12" x="60" y="348.0"/>
  <text x="60" y="353.1" font-family="Tahoma" font-size="12" transform="rotate(90 60,353.1)" text-rendering="optimizeSpeed" fill="#000000">hudson-workflow-WorkflowProject (31)</text>
  <rect fill="blue" height="0.7" stroke="black" width="12" x="75" y="347.3"/>
  <text x="75" y="353.1" font-family="Tahoma" font-size="12" transform="rotate(90 75,353.1)" text-rendering="optimizeSpeed" fill="#000000">hudson-model-ExternalJob (734)</text>
  <rect fill="blue" height="0.8" stroke="black" width="12" x="90" y="347.2"/>
  <text x="90" y="353.1" font-family="Tahoma" font-size="12" transform="rotate(90 90,353.1)" text-rendering="optimizeSpeed" fill="#000000">hudson-ivy-IvyModuleSet (827)</text>
  <rect fill="blue" height="9.7" stroke="black" width="12" x="105" y="338.3"/>
  <text x="105" y="353.1" font-family="Tahoma" font-size="12" transform="rotate(90 105,353.1)" text-rendering="optimizeSpeed" fill="#000000">hudson-matrix-MatrixProject (9737)</text>
  <rect fill="blue" height="104.7" stroke="black" width="12" x="120" y="243.4"/>
  <text x="120" y="353.1" font-family="Tahoma" font-size="12" transform="rotate(90 120,353.1)" text-rendering="optimizeSpeed" fill="#000000">hudson-maven-MavenModuleSet (104688)</text>
  <rect fill="blue" height="298.1" stroke="black" width="12" x="135" y="50.0"/>
  <text x="135" y="353.1" font-family="Tahoma" font-size="12" transform="rotate(90 135,353.1)" text-rendering="optimizeSpeed" fill="#000000">hudson-model-FreeStyleProject (298069)</text>
  <text x="10" y="40" font-family="Tahoma" font-size="20" text-rendering="optimizeSpeed" fill="#000000">Jobs (total: 414094)</text>
</svg>
