<svg xmlns="http://www.w3.org/2000/svg" version="1.1" preserveAspectRatio="xMidYMid meet" viewBox="0 0 1250 659.1">
  <rect fill="blue" height="7.8" stroke="black" width="12" x="15" y="351.3"/>
  <text x="15" y="364.1" font-family="Tahoma" font-size="12" transform="rotate(90 15,364.1)" text-rendering="optimizeSpeed" fill="#000000">1.368 (78)</text>
  <rect fill="blue" height="11.2" stroke="black" width="12" x="30" y="347.9"/>
  <text x="30" y="364.1" font-family="Tahoma" font-size="12" transform="rotate(90 30,364.1)" text-rendering="optimizeSpeed" fill="#000000">1.369 (112)</text>
  <rect fill="blue" height="2.3" stroke="black" width="12" x="45" y="356.8"/>
  <text x="45" y="364.1" font-family="Tahoma" font-size="12" transform="rotate(90 45,364.1)" text-rendering="optimizeSpeed" fill="#000000">1.370 (23)</text>
  <rect fill="blue" height="7.2" stroke="black" width="12" x="60" y="351.9"/>
  <text x="60" y="364.1" font-family="Tahoma" font-size="12" transform="rotate(90 60,364.1)" text-rendering="optimizeSpeed" fill="#000000">1.371 (72)</text>
  <rect fill="blue" height="10.1" stroke="black" width="12" x="75" y="349.0"/>
  <text x="75" y="364.1" font-family="Tahoma" font-size="12" transform="rotate(90 75,364.1)" text-rendering="optimizeSpeed" fill="#000000">1.372 (101)</text>
  <rect fill="blue" height="10.2" stroke="black" width="12" x="90" y="348.9"/>
  <text x="90" y="364.1" font-family="Tahoma" font-size="12" transform="rotate(90 90,364.1)" text-rendering="optimizeSpeed" fill="#000000">1.373 (102)</text>
  <rect fill="blue" height="17.2" stroke="black" width="12" x="105" y="341.9"/>
  <text x="105" y="364.1" font-family="Tahoma" font-size="12" transform="rotate(90 105,364.1)" text-rendering="optimizeSpeed" fill="#000000">1.374 (172)</text>
  <rect fill="blue" height="10.3" stroke="black" width="12" x="120" y="348.8"/>
  <text x="120" y="364.1" font-family="Tahoma" font-size="12" transform="rotate(90 120,364.1)" text-rendering="optimizeSpeed" fill="#000000">1.375 (103)</text>
  <rect fill="blue" height="14.1" stroke="black" width="12" x="135" y="345.0"/>
  <text x="135" y="364.1" font-family="Tahoma" font-size="12" transform="rotate(90 135,364.1)" text-rendering="optimizeSpeed" fill="#000000">1.376 (141)</text>
  <rect fill="blue" height="14.1" stroke="black" width="12" x="150" y="345.0"/>
  <text x="150" y="364.1" font-family="Tahoma" font-size="12" transform="rotate(90 150,364.1)" text-rendering="optimizeSpeed" fill="#000000">1.377 (141)</text>
  <rect fill="blue" height="10.2" stroke="black" width="12" x="165" y="348.9"/>
  <text x="165" y="364.1" font-family="Tahoma" font-size="12" transform="rotate(90 165,364.1)" text-rendering="optimizeSpeed" fill="#000000">1.378 (102)</text>
  <rect fill="blue" height="21.7" stroke="black" width="12" x="180" y="337.4"/>
  <text x="180" y="364.1" font-family="Tahoma" font-size="12" transform="rotate(90 180,364.1)" text-rendering="optimizeSpeed" fill="#000000">1.379 (217)</text>
  <rect fill="blue" height="7.5" stroke="black" width="12" x="195" y="351.6"/>
  <text x="195" y="364.1" font-family="Tahoma" font-size="12" transform="rotate(90 195,364.1)" text-rendering="optimizeSpeed" fill="#000000">1.380 (75)</text>
  <rect fill="blue" height="23.1" stroke="black" width="12" x="210" y="336.0"/>
  <text x="210" y="364.1" font-family="Tahoma" font-size="12" transform="rotate(90 210,364.1)" text-rendering="optimizeSpeed" fill="#000000">1.381 (231)</text>
  <rect fill="blue" height="6.2" stroke="black" width="12" x="225" y="352.9"/>
  <text x="225" y="364.1" font-family="Tahoma" font-size="12" transform="rotate(90 225,364.1)" text-rendering="optimizeSpeed" fill="#000000">1.382 (62)</text>
  <rect fill="blue" height="15.9" stroke="black" width="12" x="240" y="343.2"/>
  <text x="240" y="364.1" font-family="Tahoma" font-size="12" transform="rotate(90 240,364.1)" text-rendering="optimizeSpeed" fill="#000000">1.383 (159)</text>
  <rect fill="blue" height="22.4" stroke="black" width="12" x="255" y="336.7"/>
  <text x="255" y="364.1" font-family="Tahoma" font-size="12" transform="rotate(90 255,364.1)" text-rendering="optimizeSpeed" fill="#000000">1.384 (224)</text>
  <rect fill="blue" height="11.6" stroke="black" width="12" x="270" y="347.5"/>
  <text x="270" y="364.1" font-family="Tahoma" font-size="12" transform="rotate(90 270,364.1)" text-rendering="optimizeSpeed" fill="#000000">1.385 (116)</text>
  <rect fill="blue" height="62.3" stroke="black" width="12" x="285" y="296.8"/>
  <text x="285" y="364.1" font-family="Tahoma" font-size="12" transform="rotate(90 285,364.1)" text-rendering="optimizeSpeed" fill="#000000">1.386 (623)</text>
  <rect fill="blue" height="8.0" stroke="black" width="12" x="300" y="351.1"/>
  <text x="300" y="364.1" font-family="Tahoma" font-size="12" transform="rotate(90 300,364.1)" text-rendering="optimizeSpeed" fill="#000000">1.387 (80)</text>
  <rect fill="blue" height="10.1" stroke="black" width="12" x="315" y="349.0"/>
  <text x="315" y="364.1" font-family="Tahoma" font-size="12" transform="rotate(90 315,364.1)" text-rendering="optimizeSpeed" fill="#000000">1.388 (101)</text>
  <rect fill="blue" height="20.8" stroke="black" width="12" x="330" y="338.3"/>
  <text x="330" y="364.1" font-family="Tahoma" font-size="12" transform="rotate(90 330,364.1)" text-rendering="optimizeSpeed" fill="#000000">1.389 (208)</text>
  <rect fill="blue" height="1.2" stroke="black" width="12" x="345" y="357.9"/>
  <text x="345" y="364.1" font-family="Tahoma" font-size="12" transform="rotate(90 345,364.1)" text-rendering="optimizeSpeed" fill="#000000">1.390 (12)</text>
  <rect fill="blue" height="5.8" stroke="black" width="12" x="360" y="353.3"/>
  <text x="360" y="364.1" font-family="Tahoma" font-size="12" transform="rotate(90 360,364.1)" text-rendering="optimizeSpeed" fill="#000000">1.391 (58)</text>
  <rect fill="blue" height="22.0" stroke="black" width="12" x="375" y="337.1"/>
  <text x="375" y="364.1" font-family="Tahoma" font-size="12" transform="rotate(90 375,364.1)" text-rendering="optimizeSpeed" fill="#000000">1.392 (220)</text>
  <rect fill="blue" height="0.2" stroke="black" width="12" x="390" y="358.9"/>
  <text x="390" y="364.1" font-family="Tahoma" font-size="12" transform="rotate(90 390,364.1)" text-rendering="optimizeSpeed" fill="#000000">1.392.LI10 (2)</text>
  <rect fill="blue" height="45.0" stroke="black" width="12" x="405" y="314.1"/>
  <text x="405" y="364.1" font-family="Tahoma" font-size="12" transform="rotate(90 405,364.1)" text-rendering="optimizeSpeed" fill="#000000">1.393 (450)</text>
  <rect fill="blue" height="50.9" stroke="black" width="12" x="420" y="308.2"/>
  <text x="420" y="364.1" font-family="Tahoma" font-size="12" transform="rotate(90 420,364.1)" text-rendering="optimizeSpeed" fill="#000000">1.394 (509)</text>
  <rect fill="blue" height="107.7" stroke="black" width="12" x="435" y="251.4"/>
  <text x="435" y="364.1" font-family="Tahoma" font-size="12" transform="rotate(90 435,364.1)" text-rendering="optimizeSpeed" fill="#000000">1.395 (1077)</text>
  <rect fill="blue" height="79.8" stroke="black" width="12" x="450" y="279.3"/>
  <text x="450" y="364.1" font-family="Tahoma" font-size="12" transform="rotate(90 450,364.1)" text-rendering="optimizeSpeed" fill="#000000">1.395.1 (798)</text>
  <rect fill="blue" height="7.9" stroke="black" width="12" x="465" y="351.2"/>
  <text x="465" y="364.1" font-family="Tahoma" font-size="12" transform="rotate(90 465,364.1)" text-rendering="optimizeSpeed" fill="#000000">1.396 (79)</text>
  <rect fill="blue" height="6.7" stroke="black" width="12" x="480" y="352.4"/>
  <text x="480" y="364.1" font-family="Tahoma" font-size="12" transform="rotate(90 480,364.1)" text-rendering="optimizeSpeed" fill="#000000">1.397 (67)</text>
  <rect fill="blue" height="6.3" stroke="black" width="12" x="495" y="352.8"/>
  <text x="495" y="364.1" font-family="Tahoma" font-size="12" transform="rotate(90 495,364.1)" text-rendering="optimizeSpeed" fill="#000000">1.398 (63)</text>
  <rect fill="blue" height="19.3" stroke="black" width="12" x="510" y="339.8"/>
  <text x="510" y="364.1" font-family="Tahoma" font-size="12" transform="rotate(90 510,364.1)" text-rendering="optimizeSpeed" fill="#000000">1.399 (193)</text>
  <rect fill="blue" height="13.2" stroke="black" width="12" x="525" y="345.9"/>
  <text x="525" y="364.1" font-family="Tahoma" font-size="12" transform="rotate(90 525,364.1)" text-rendering="optimizeSpeed" fill="#000000">1.400 (132)</text>
  <rect fill="blue" height="0.4" stroke="black" width="12" x="540" y="358.7"/>
  <text x="540" y="364.1" font-family="Tahoma" font-size="12" transform="rotate(90 540,364.1)" text-rendering="optimizeSpeed" fill="#000000">1.400.0.10 (4)</text>
  <rect fill="blue" height="0.1" stroke="black" width="12" x="555" y="359.0"/>
  <text x="555" y="364.1" font-family="Tahoma" font-size="12" transform="rotate(90 555,364.1)" text-rendering="optimizeSpeed" fill="#000000">1.400.0.2 (1)</text>
  <rect fill="blue" height="0.3" stroke="black" width="12" x="570" y="358.8"/>
  <text x="570" y="364.1" font-family="Tahoma" font-size="12" transform="rotate(90 570,364.1)" text-rendering="optimizeSpeed" fill="#000000">1.400.0.6 (3)</text>
  <rect fill="blue" height="0.1" stroke="black" width="12" x="585" y="359.0"/>
  <text x="585" y="364.1" font-family="Tahoma" font-size="12" transform="rotate(90 585,364.1)" text-rendering="optimizeSpeed" fill="#000000">1.400.0.8 (1)</text>
  <rect fill="blue" height="0.3" stroke="black" width="12" x="600" y="358.8"/>
  <text x="600" y="364.1" font-family="Tahoma" font-size="12" transform="rotate(90 600,364.1)" text-rendering="optimizeSpeed" fill="#000000">1.400.0.9 (3)</text>
  <rect fill="blue" height="13.6" stroke="black" width="12" x="615" y="345.5"/>
  <text x="615" y="364.1" font-family="Tahoma" font-size="12" transform="rotate(90 615,364.1)" text-rendering="optimizeSpeed" fill="#000000">1.401 (136)</text>
  <rect fill="blue" height="14.4" stroke="black" width="12" x="630" y="344.7"/>
  <text x="630" y="364.1" font-family="Tahoma" font-size="12" transform="rotate(90 630,364.1)" text-rendering="optimizeSpeed" fill="#000000">1.403 (144)</text>
  <rect fill="blue" height="20.7" stroke="black" width="12" x="645" y="338.4"/>
  <text x="645" y="364.1" font-family="Tahoma" font-size="12" transform="rotate(90 645,364.1)" text-rendering="optimizeSpeed" fill="#000000">1.404 (207)</text>
  <rect fill="blue" height="14.7" stroke="black" width="12" x="660" y="344.4"/>
  <text x="660" y="364.1" font-family="Tahoma" font-size="12" transform="rotate(90 660,364.1)" text-rendering="optimizeSpeed" fill="#000000">1.405 (147)</text>
  <rect fill="blue" height="14.2" stroke="black" width="12" x="675" y="344.9"/>
  <text x="675" y="364.1" font-family="Tahoma" font-size="12" transform="rotate(90 675,364.1)" text-rendering="optimizeSpeed" fill="#000000">1.406 (142)</text>
  <rect fill="blue" height="4.3" stroke="black" width="12" x="690" y="354.8"/>
  <text x="690" y="364.1" font-family="Tahoma" font-size="12" transform="rotate(90 690,364.1)" text-rendering="optimizeSpeed" fill="#000000">1.407 (43)</text>
  <rect fill="blue" height="16.7" stroke="black" width="12" x="705" y="342.4"/>
  <text x="705" y="364.1" font-family="Tahoma" font-size="12" transform="rotate(90 705,364.1)" text-rendering="optimizeSpeed" fill="#000000">1.408 (167)</text>
  <rect fill="blue" height="20.7" stroke="black" width="12" x="720" y="338.4"/>
  <text x="720" y="364.1" font-family="Tahoma" font-size="12" transform="rotate(90 720,364.1)" text-rendering="optimizeSpeed" fill="#000000">1.409 (207)</text>
  <rect fill="blue" height="45.6" stroke="black" width="12" x="735" y="313.5"/>
  <text x="735" y="364.1" font-family="Tahoma" font-size="12" transform="rotate(90 735,364.1)" text-rendering="optimizeSpeed" fill="#000000">1.409.1 (456)</text>
  <rect fill="blue" height="50.0" stroke="black" width="12" x="750" y="309.1"/>
  <text x="750" y="364.1" font-family="Tahoma" font-size="12" transform="rotate(90 750,364.1)" text-rendering="optimizeSpeed" fill="#000000">1.409.2 (500)</text>
  <rect fill="blue" height="31.0" stroke="black" width="12" x="765" y="328.1"/>
  <text x="765" y="364.1" font-family="Tahoma" font-size="12" transform="rotate(90 765,364.1)" text-rendering="optimizeSpeed" fill="#000000">1.410 (310)</text>
  <rect fill="blue" height="25.5" stroke="black" width="12" x="780" y="333.6"/>
  <text x="780" y="364.1" font-family="Tahoma" font-size="12" transform="rotate(90 780,364.1)" text-rendering="optimizeSpeed" fill="#000000">1.411 (255)</text>
  <rect fill="blue" height="0.1" stroke="black" width="12" x="795" y="359.0"/>
  <text x="795" y="364.1" font-family="Tahoma" font-size="12" transform="rotate(90 795,364.1)" text-rendering="optimizeSpeed" fill="#000000">1.412-ialbors (1)</text>
  <rect fill="blue" height="21.7" stroke="black" width="12" x="810" y="337.4"/>
  <text x="810" y="364.1" font-family="Tahoma" font-size="12" transform="rotate(90 810,364.1)" text-rendering="optimizeSpeed" fill="#000000">1.412 (217)</text>
  <rect fill="blue" height="51.3" stroke="black" width="12" x="825" y="307.8"/>
  <text x="825" y="364.1" font-family="Tahoma" font-size="12" transform="rotate(90 825,364.1)" text-rendering="optimizeSpeed" fill="#000000">1.413 (513)</text>
  <rect fill="blue" height="34.6" stroke="black" width="12" x="840" y="324.5"/>
  <text x="840" y="364.1" font-family="Tahoma" font-size="12" transform="rotate(90 840,364.1)" text-rendering="optimizeSpeed" fill="#000000">1.414 (346)</text>
  <rect fill="blue" height="24.2" stroke="black" width="12" x="855" y="334.9"/>
  <text x="855" y="364.1" font-family="Tahoma" font-size="12" transform="rotate(90 855,364.1)" text-rendering="optimizeSpeed" fill="#000000">1.415 (242)</text>
  <rect fill="blue" height="6.5" stroke="black" width="12" x="870" y="352.6"/>
  <text x="870" y="364.1" font-family="Tahoma" font-size="12" transform="rotate(90 870,364.1)" text-rendering="optimizeSpeed" fill="#000000">1.416 (65)</text>
  <rect fill="blue" height="31.1" stroke="black" width="12" x="885" y="328.0"/>
  <text x="885" y="364.1" font-family="Tahoma" font-size="12" transform="rotate(90 885,364.1)" text-rendering="optimizeSpeed" fill="#000000">1.417 (311)</text>
  <rect fill="blue" height="38.7" stroke="black" width="12" x="900" y="320.4"/>
  <text x="900" y="364.1" font-family="Tahoma" font-size="12" transform="rotate(90 900,364.1)" text-rendering="optimizeSpeed" fill="#000000">1.418 (387)</text>
  <rect fill="blue" height="30.6" stroke="black" width="12" x="915" y="328.5"/>
  <text x="915" y="364.1" font-family="Tahoma" font-size="12" transform="rotate(90 915,364.1)" text-rendering="optimizeSpeed" fill="#000000">1.419 (306)</text>
  <rect fill="blue" height="36.6" stroke="black" width="12" x="930" y="322.5"/>
  <text x="930" y="364.1" font-family="Tahoma" font-size="12" transform="rotate(90 930,364.1)" text-rendering="optimizeSpeed" fill="#000000">1.420 (366)</text>
  <rect fill="blue" height="44.4" stroke="black" width="12" x="945" y="314.7"/>
  <text x="945" y="364.1" font-family="Tahoma" font-size="12" transform="rotate(90 945,364.1)" text-rendering="optimizeSpeed" fill="#000000">1.421 (444)</text>
  <rect fill="blue" height="0.1" stroke="black" width="12" x="960" y="359.0"/>
  <text x="960" y="364.1" font-family="Tahoma" font-size="12" transform="rotate(90 960,364.1)" text-rendering="optimizeSpeed" fill="#000000">1.422 (1)</text>
  <rect fill="blue" height="40.2" stroke="black" width="12" x="975" y="318.9"/>
  <text x="975" y="364.1" font-family="Tahoma" font-size="12" transform="rotate(90 975,364.1)" text-rendering="optimizeSpeed" fill="#000000">1.423 (402)</text>
  <rect fill="blue" height="46.4" stroke="black" width="12" x="990" y="312.7"/>
  <text x="990" y="364.1" font-family="Tahoma" font-size="12" transform="rotate(90 990,364.1)" text-rendering="optimizeSpeed" fill="#000000">1.424 (464)</text>
  <rect fill="blue" height="59.2" stroke="black" width="12" x="1005" y="299.9"/>
  <text x="1005" y="364.1" font-family="Tahoma" font-size="12" transform="rotate(90 1005,364.1)" text-rendering="optimizeSpeed" fill="#000000">1.425 (592)</text>
  <rect fill="blue" height="27.6" stroke="black" width="12" x="1020" y="331.5"/>
  <text x="1020" y="364.1" font-family="Tahoma" font-size="12" transform="rotate(90 1020,364.1)" text-rendering="optimizeSpeed" fill="#000000">1.426 (276)</text>
  <rect fill="blue" height="0.1" stroke="black" width="12" x="1035" y="359.0"/>
  <text x="1035" y="364.1" font-family="Tahoma" font-size="12" transform="rotate(90 1035,364.1)" text-rendering="optimizeSpeed" fill="#000000">1.427-j1 (1)</text>
  <rect fill="blue" height="83.4" stroke="black" width="12" x="1050" y="275.7"/>
  <text x="1050" y="364.1" font-family="Tahoma" font-size="12" transform="rotate(90 1050,364.1)" text-rendering="optimizeSpeed" fill="#000000">1.427 (834)</text>
  <rect fill="blue" height="88.0" stroke="black" width="12" x="1065" y="271.1"/>
  <text x="1065" y="364.1" font-family="Tahoma" font-size="12" transform="rotate(90 1065,364.1)" text-rendering="optimizeSpeed" fill="#000000">1.428 (880)</text>
  <rect fill="blue" height="56.4" stroke="black" width="12" x="1080" y="302.7"/>
  <text x="1080" y="364.1" font-family="Tahoma" font-size="12" transform="rotate(90 1080,364.1)" text-rendering="optimizeSpeed" fill="#000000">1.429 (564)</text>
  <rect fill="blue" height="114.2" stroke="black" width="12" x="1095" y="244.9"/>
  <text x="1095" y="364.1" font-family="Tahoma" font-size="12" transform="rotate(90 1095,364.1)" text-rendering="optimizeSpeed" fill="#000000">1.430 (1142)</text>
  <rect fill="blue" height="108.3" stroke="black" width="12" x="1110" y="250.8"/>
  <text x="1110" y="364.1" font-family="Tahoma" font-size="12" transform="rotate(90 1110,364.1)" text-rendering="optimizeSpeed" fill="#000000">1.431 (1083)</text>
  <rect fill="blue" height="140.7" stroke="black" width="12" x="1125" y="218.4"/>
  <text x="1125" y="364.1" font-family="Tahoma" font-size="12" transform="rotate(90 1125,364.1)" text-rendering="optimizeSpeed" fill="#000000">1.432 (1407)</text>
  <rect fill="blue" height="216.2" stroke="black" width="12" x="1140" y="142.9"/>
  <text x="1140" y="364.1" font-family="Tahoma" font-size="12" transform="rotate(90 1140,364.1)" text-rendering="optimizeSpeed" fill="#000000">1.433 (2162)</text>
  <rect fill="blue" height="292.8" stroke="black" width="12" x="1155" y="66.3"/>
  <text x="1155" y="364.1" font-family="Tahoma" font-size="12" transform="rotate(90 1155,364.1)" text-rendering="optimizeSpeed" fill="#000000">1.434 (2928)</text>
  <rect fill="blue" height="150.5" stroke="black" width="12" x="1170" y="208.6"/>
  <text x="1170" y="364.1" font-family="Tahoma" font-size="12" transform="rotate(90 1170,364.1)" text-rendering="optimizeSpeed" fill="#000000">1.435 (1505)</text>
  <rect fill="blue" height="309.1" stroke="black" width="12" x="1185" y="50.0"/>
  <text x="1185" y="364.1" font-family="Tahoma" font-size="12" transform="rotate(90 1185,364.1)" text-rendering="optimizeSpeed" fill="#000000">1.436 (3091)</text>
  <rect fill="blue" height="7.3" stroke="black" width="12" x="1200" y="351.8"/>
  <text x="1200" y="364.1" font-family="Tahoma" font-size="12" transform="rotate(90 1200,364.1)" text-rendering="optimizeSpeed" fill="#000000">1.437 (73)</text>
  <text x="10" y="40" font-family="Tahoma" font-size="20" text-rendering="optimizeSpeed" fill="#000000">Jenkins installations (total: 30232)</text>
</svg>
