<svg xmlns="http://www.w3.org/2000/svg" version="1.1" preserveAspectRatio="xMidYMid meet" viewBox="0 0 560 935.1">
  <rect fill="blue" height="21.3" stroke="black" width="12" x="15" y="613.8"/>
  <text x="15" y="640.1" font-family="Tahoma" font-size="12" transform="rotate(90 15,640.1)" text-rendering="optimizeSpeed" fill="#000000">1.368 (213)</text>
  <rect fill="blue" height="23.4" stroke="black" width="12" x="30" y="611.7"/>
  <text x="30" y="640.1" font-family="Tahoma" font-size="12" transform="rotate(90 30,640.1)" text-rendering="optimizeSpeed" fill="#000000">1.369 (234)</text>
  <rect fill="blue" height="5.4" stroke="black" width="12" x="45" y="629.7"/>
  <text x="45" y="640.1" font-family="Tahoma" font-size="12" transform="rotate(90 45,640.1)" text-rendering="optimizeSpeed" fill="#000000">1.370 (54)</text>
  <rect fill="blue" height="17.9" stroke="black" width="12" x="60" y="617.2"/>
  <text x="60" y="640.1" font-family="Tahoma" font-size="12" transform="rotate(90 60,640.1)" text-rendering="optimizeSpeed" fill="#000000">1.371 (179)</text>
  <rect fill="blue" height="24.0" stroke="black" width="12" x="75" y="611.1"/>
  <text x="75" y="640.1" font-family="Tahoma" font-size="12" transform="rotate(90 75,640.1)" text-rendering="optimizeSpeed" fill="#000000">1.372 (240)</text>
  <rect fill="blue" height="26.4" stroke="black" width="12" x="90" y="608.7"/>
  <text x="90" y="640.1" font-family="Tahoma" font-size="12" transform="rotate(90 90,640.1)" text-rendering="optimizeSpeed" fill="#000000">1.373 (264)</text>
  <rect fill="blue" height="33.2" stroke="black" width="12" x="105" y="601.9"/>
  <text x="105" y="640.1" font-family="Tahoma" font-size="12" transform="rotate(90 105,640.1)" text-rendering="optimizeSpeed" fill="#000000">1.374 (332)</text>
  <rect fill="blue" height="25.2" stroke="black" width="12" x="120" y="609.9"/>
  <text x="120" y="640.1" font-family="Tahoma" font-size="12" transform="rotate(90 120,640.1)" text-rendering="optimizeSpeed" fill="#000000">1.375 (252)</text>
  <rect fill="blue" height="33.7" stroke="black" width="12" x="135" y="601.4"/>
  <text x="135" y="640.1" font-family="Tahoma" font-size="12" transform="rotate(90 135,640.1)" text-rendering="optimizeSpeed" fill="#000000">1.376 (337)</text>
  <rect fill="blue" height="39.7" stroke="black" width="12" x="150" y="595.4"/>
  <text x="150" y="640.1" font-family="Tahoma" font-size="12" transform="rotate(90 150,640.1)" text-rendering="optimizeSpeed" fill="#000000">1.377 (397)</text>
  <rect fill="blue" height="29.0" stroke="black" width="12" x="165" y="606.1"/>
  <text x="165" y="640.1" font-family="Tahoma" font-size="12" transform="rotate(90 165,640.1)" text-rendering="optimizeSpeed" fill="#000000">1.378 (290)</text>
  <rect fill="blue" height="57.3" stroke="black" width="12" x="180" y="577.8"/>
  <text x="180" y="640.1" font-family="Tahoma" font-size="12" transform="rotate(90 180,640.1)" text-rendering="optimizeSpeed" fill="#000000">1.379 (573)</text>
  <rect fill="blue" height="21.5" stroke="black" width="12" x="195" y="613.6"/>
  <text x="195" y="640.1" font-family="Tahoma" font-size="12" transform="rotate(90 195,640.1)" text-rendering="optimizeSpeed" fill="#000000">1.380 (215)</text>
  <rect fill="blue" height="60.9" stroke="black" width="12" x="210" y="574.2"/>
  <text x="210" y="640.1" font-family="Tahoma" font-size="12" transform="rotate(90 210,640.1)" text-rendering="optimizeSpeed" fill="#000000">1.381 (609)</text>
  <rect fill="blue" height="24.3" stroke="black" width="12" x="225" y="610.8"/>
  <text x="225" y="640.1" font-family="Tahoma" font-size="12" transform="rotate(90 225,640.1)" text-rendering="optimizeSpeed" fill="#000000">1.382 (243)</text>
  <rect fill="blue" height="45.5" stroke="black" width="12" x="240" y="589.6"/>
  <text x="240" y="640.1" font-family="Tahoma" font-size="12" transform="rotate(90 240,640.1)" text-rendering="optimizeSpeed" fill="#000000">1.383 (455)</text>
  <rect fill="blue" height="0.4" stroke="black" width="12" x="255" y="634.7"/>
  <text x="255" y="640.1" font-family="Tahoma" font-size="12" transform="rotate(90 255,640.1)" text-rendering="optimizeSpeed" fill="#000000">1.383.2 (4)</text>
  <rect fill="blue" height="60.5" stroke="black" width="12" x="270" y="574.6"/>
  <text x="270" y="640.1" font-family="Tahoma" font-size="12" transform="rotate(90 270,640.1)" text-rendering="optimizeSpeed" fill="#000000">1.384 (605)</text>
  <rect fill="blue" height="39.1" stroke="black" width="12" x="285" y="596.0"/>
  <text x="285" y="640.1" font-family="Tahoma" font-size="12" transform="rotate(90 285,640.1)" text-rendering="optimizeSpeed" fill="#000000">1.385 (391)</text>
  <rect fill="blue" height="179.5" stroke="black" width="12" x="300" y="455.6"/>
  <text x="300" y="640.1" font-family="Tahoma" font-size="12" transform="rotate(90 300,640.1)" text-rendering="optimizeSpeed" fill="#000000">1.386 (1795)</text>
  <rect fill="blue" height="24.8" stroke="black" width="12" x="315" y="610.3"/>
  <text x="315" y="640.1" font-family="Tahoma" font-size="12" transform="rotate(90 315,640.1)" text-rendering="optimizeSpeed" fill="#000000">1.387 (248)</text>
  <rect fill="blue" height="35.3" stroke="black" width="12" x="330" y="599.8"/>
  <text x="330" y="640.1" font-family="Tahoma" font-size="12" transform="rotate(90 330,640.1)" text-rendering="optimizeSpeed" fill="#000000">1.388 (353)</text>
  <rect fill="blue" height="73.0" stroke="black" width="12" x="345" y="562.1"/>
  <text x="345" y="640.1" font-family="Tahoma" font-size="12" transform="rotate(90 345,640.1)" text-rendering="optimizeSpeed" fill="#000000">1.389 (730)</text>
  <rect fill="blue" height="6.0" stroke="black" width="12" x="360" y="629.1"/>
  <text x="360" y="640.1" font-family="Tahoma" font-size="12" transform="rotate(90 360,640.1)" text-rendering="optimizeSpeed" fill="#000000">1.390 (60)</text>
  <rect fill="blue" height="18.0" stroke="black" width="12" x="375" y="617.1"/>
  <text x="375" y="640.1" font-family="Tahoma" font-size="12" transform="rotate(90 375,640.1)" text-rendering="optimizeSpeed" fill="#000000">1.391 (180)</text>
  <rect fill="blue" height="83.9" stroke="black" width="12" x="390" y="551.2"/>
  <text x="390" y="640.1" font-family="Tahoma" font-size="12" transform="rotate(90 390,640.1)" text-rendering="optimizeSpeed" fill="#000000">1.392 (839)</text>
  <rect fill="blue" height="166.2" stroke="black" width="12" x="405" y="468.9"/>
  <text x="405" y="640.1" font-family="Tahoma" font-size="12" transform="rotate(90 405,640.1)" text-rendering="optimizeSpeed" fill="#000000">1.393 (1662)</text>
  <rect fill="blue" height="91.3" stroke="black" width="12" x="420" y="543.8"/>
  <text x="420" y="640.1" font-family="Tahoma" font-size="12" transform="rotate(90 420,640.1)" text-rendering="optimizeSpeed" fill="#000000">1.394 (913)</text>
  <rect fill="blue" height="585.1" stroke="black" width="12" x="435" y="50.0"/>
  <text x="435" y="640.1" font-family="Tahoma" font-size="12" transform="rotate(90 435,640.1)" text-rendering="optimizeSpeed" fill="#000000">1.395 (5851)</text>
  <rect fill="blue" height="115.3" stroke="black" width="12" x="450" y="519.8"/>
  <text x="450" y="640.1" font-family="Tahoma" font-size="12" transform="rotate(90 450,640.1)" text-rendering="optimizeSpeed" fill="#000000">1.396 (1153)</text>
  <rect fill="blue" height="0.2" stroke="black" width="12" x="465" y="634.9"/>
  <text x="465" y="640.1" font-family="Tahoma" font-size="12" transform="rotate(90 465,640.1)" text-rendering="optimizeSpeed" fill="#000000">1.396-0ubuntu1~test8 (2)</text>
  <rect fill="blue" height="113.5" stroke="black" width="12" x="480" y="521.6"/>
  <text x="480" y="640.1" font-family="Tahoma" font-size="12" transform="rotate(90 480,640.1)" text-rendering="optimizeSpeed" fill="#000000">1.397 (1135)</text>
  <rect fill="blue" height="125.3" stroke="black" width="12" x="495" y="509.8"/>
  <text x="495" y="640.1" font-family="Tahoma" font-size="12" transform="rotate(90 495,640.1)" text-rendering="optimizeSpeed" fill="#000000">1.398 (1253)</text>
  <rect fill="blue" height="17.3" stroke="black" width="12" x="510" y="617.8"/>
  <text x="510" y="640.1" font-family="Tahoma" font-size="12" transform="rotate(90 510,640.1)" text-rendering="optimizeSpeed" fill="#000000">1.399 (173)</text>
  <text x="10" y="40" font-family="Tahoma" font-size="20" text-rendering="optimizeSpeed" fill="#000000">Jenkins installations (total: 22234)</text>
</svg>
