<svg xmlns="http://www.w3.org/2000/svg" version="1.1" preserveAspectRatio="xMidYMid meet" viewBox="0 0 800 1747.0">
  <rect fill="blue" height="0.1" stroke="black" width="12" x="15" y="1446.9"/>
  <text x="15" y="1452.0" font-family="Tahoma" font-size="12" transform="rotate(90 15,1452.0)" text-rendering="optimizeSpeed" fill="#000000">Darwin (i386) (1)</text>
  <rect fill="blue" height="0.1" stroke="black" width="12" x="30" y="1446.9"/>
  <text x="30" y="1452.0" font-family="Tahoma" font-size="12" transform="rotate(90 30,1452.0)" text-rendering="optimizeSpeed" fill="#000000">HP-UX (PA_RISC2.0W) (1)</text>
  <rect fill="blue" height="0.1" stroke="black" width="12" x="45" y="1446.9"/>
  <text x="45" y="1452.0" font-family="Tahoma" font-size="12" transform="rotate(90 45,1452.0)" text-rendering="optimizeSpeed" fill="#000000">Linux (nova) (1)</text>
  <rect fill="blue" height="0.1" stroke="black" width="12" x="60" y="1446.9"/>
  <text x="60" y="1452.0" font-family="Tahoma" font-size="12" transform="rotate(90 60,1452.0)" text-rendering="optimizeSpeed" fill="#000000">Linux (s390) (1)</text>
  <rect fill="blue" height="0.1" stroke="black" width="12" x="75" y="1446.9"/>
  <text x="75" y="1452.0" font-family="Tahoma" font-size="12" transform="rotate(90 75,1452.0)" text-rendering="optimizeSpeed" fill="#000000">Linux (sparc) (1)</text>
  <rect fill="blue" height="0.1" stroke="black" width="12" x="90" y="1446.9"/>
  <text x="90" y="1452.0" font-family="Tahoma" font-size="12" transform="rotate(90 90,1452.0)" text-rendering="optimizeSpeed" fill="#000000">NetBSD (amd64) (1)</text>
  <rect fill="blue" height="0.1" stroke="black" width="12" x="105" y="1446.9"/>
  <text x="105" y="1452.0" font-family="Tahoma" font-size="12" transform="rotate(90 105,1452.0)" text-rendering="optimizeSpeed" fill="#000000">OpenBSD (i386) (1)</text>
  <rect fill="blue" height="0.1" stroke="black" width="12" x="120" y="1446.9"/>
  <text x="120" y="1452.0" font-family="Tahoma" font-size="12" transform="rotate(90 120,1452.0)" text-rendering="optimizeSpeed" fill="#000000">UnixWare (IA32) (1)</text>
  <rect fill="blue" height="0.1" stroke="black" width="12" x="135" y="1446.9"/>
  <text x="135" y="1452.0" font-family="Tahoma" font-size="12" transform="rotate(90 135,1452.0)" text-rendering="optimizeSpeed" fill="#000000">Windows Server 2008 (ia64) (1)</text>
  <rect fill="blue" height="0.1" stroke="black" width="12" x="150" y="1446.9"/>
  <text x="150" y="1452.0" font-family="Tahoma" font-size="12" transform="rotate(90 150,1452.0)" text-rendering="optimizeSpeed" fill="#000000">linux (amd64) (1)</text>
  <rect fill="blue" height="0.2" stroke="black" width="12" x="165" y="1446.8"/>
  <text x="165" y="1452.0" font-family="Tahoma" font-size="12" transform="rotate(90 165,1452.0)" text-rendering="optimizeSpeed" fill="#000000">HP-UX (IA64W) (2)</text>
  <rect fill="blue" height="0.2" stroke="black" width="12" x="180" y="1446.8"/>
  <text x="180" y="1452.0" font-family="Tahoma" font-size="12" transform="rotate(90 180,1452.0)" text-rendering="optimizeSpeed" fill="#000000">OpenBSD (amd64) (2)</text>
  <rect fill="blue" height="0.2" stroke="black" width="12" x="195" y="1446.8"/>
  <text x="195" y="1452.0" font-family="Tahoma" font-size="12" transform="rotate(90 195,1452.0)" text-rendering="optimizeSpeed" fill="#000000">Windows Server 2003 (amd64) (2)</text>
  <rect fill="blue" height="0.8" stroke="black" width="12" x="210" y="1446.2"/>
  <text x="210" y="1452.0" font-family="Tahoma" font-size="12" transform="rotate(90 210,1452.0)" text-rendering="optimizeSpeed" fill="#000000">Linux (arm) (8)</text>
  <rect fill="blue" height="0.9" stroke="black" width="12" x="225" y="1446.1"/>
  <text x="225" y="1452.0" font-family="Tahoma" font-size="12" transform="rotate(90 225,1452.0)" text-rendering="optimizeSpeed" fill="#000000">Linux (s390x) (9)</text>
  <rect fill="blue" height="1.2" stroke="black" width="12" x="240" y="1445.8"/>
  <text x="240" y="1452.0" font-family="Tahoma" font-size="12" transform="rotate(90 240,1452.0)" text-rendering="optimizeSpeed" fill="#000000">Linux (ppc) (12)</text>
  <rect fill="blue" height="1.4" stroke="black" width="12" x="255" y="1445.6"/>
  <text x="255" y="1452.0" font-family="Tahoma" font-size="12" transform="rotate(90 255,1452.0)" text-rendering="optimizeSpeed" fill="#000000">Linux (ppc64) (14)</text>
  <rect fill="blue" height="1.4" stroke="black" width="12" x="270" y="1445.6"/>
  <text x="270" y="1452.0" font-family="Tahoma" font-size="12" transform="rotate(90 270,1452.0)" text-rendering="optimizeSpeed" fill="#000000">Mac OS X (ppc) (14)</text>
  <rect fill="blue" height="1.6" stroke="black" width="12" x="285" y="1445.4"/>
  <text x="285" y="1452.0" font-family="Tahoma" font-size="12" transform="rotate(90 285,1452.0)" text-rendering="optimizeSpeed" fill="#000000">Linux (ia64) (16)</text>
  <rect fill="blue" height="1.6" stroke="black" width="12" x="300" y="1445.4"/>
  <text x="300" y="1452.0" font-family="Tahoma" font-size="12" transform="rotate(90 300,1452.0)" text-rendering="optimizeSpeed" fill="#000000">SunOS (amd64) (16)</text>
  <rect fill="blue" height="1.6" stroke="black" width="12" x="315" y="1445.4"/>
  <text x="315" y="1452.0" font-family="Tahoma" font-size="12" transform="rotate(90 315,1452.0)" text-rendering="optimizeSpeed" fill="#000000">Windows NT (unknown) (x86) (16)</text>
  <rect fill="blue" height="1.7" stroke="black" width="12" x="330" y="1445.3"/>
  <text x="330" y="1452.0" font-family="Tahoma" font-size="12" transform="rotate(90 330,1452.0)" text-rendering="optimizeSpeed" fill="#000000">SunOS (sparcv9) (17)</text>
  <rect fill="blue" height="3.0" stroke="black" width="12" x="345" y="1444.0"/>
  <text x="345" y="1452.0" font-family="Tahoma" font-size="12" transform="rotate(90 345,1452.0)" text-rendering="optimizeSpeed" fill="#000000">Windows Server 2003 (x86) (30)</text>
  <rect fill="blue" height="4.6" stroke="black" width="12" x="360" y="1442.4"/>
  <text x="360" y="1452.0" font-family="Tahoma" font-size="12" transform="rotate(90 360,1452.0)" text-rendering="optimizeSpeed" fill="#000000">HP-UX (PA_RISC2.0) (46)</text>
  <rect fill="blue" height="5.0" stroke="black" width="12" x="375" y="1442.0"/>
  <text x="375" y="1452.0" font-family="Tahoma" font-size="12" transform="rotate(90 375,1452.0)" text-rendering="optimizeSpeed" fill="#000000">Windows Vista (amd64) (50)</text>
  <rect fill="blue" height="5.3" stroke="black" width="12" x="390" y="1441.7"/>
  <text x="390" y="1452.0" font-family="Tahoma" font-size="12" transform="rotate(90 390,1452.0)" text-rendering="optimizeSpeed" fill="#000000">Windows 2000 (x86) (53)</text>
  <rect fill="blue" height="6.2" stroke="black" width="12" x="405" y="1440.8"/>
  <text x="405" y="1452.0" font-family="Tahoma" font-size="12" transform="rotate(90 405,1452.0)" text-rendering="optimizeSpeed" fill="#000000">FreeBSD (i386) (62)</text>
  <rect fill="blue" height="6.3" stroke="black" width="12" x="420" y="1440.7"/>
  <text x="420" y="1452.0" font-family="Tahoma" font-size="12" transform="rotate(90 420,1452.0)" text-rendering="optimizeSpeed" fill="#000000">Linux (x86) (63)</text>
  <rect fill="blue" height="6.9" stroke="black" width="12" x="435" y="1440.1"/>
  <text x="435" y="1452.0" font-family="Tahoma" font-size="12" transform="rotate(90 435,1452.0)" text-rendering="optimizeSpeed" fill="#000000">FreeBSD (amd64) (69)</text>
  <rect fill="blue" height="8.4" stroke="black" width="12" x="450" y="1438.6"/>
  <text x="450" y="1452.0" font-family="Tahoma" font-size="12" transform="rotate(90 450,1452.0)" text-rendering="optimizeSpeed" fill="#000000">Windows XP (amd64) (84)</text>
  <rect fill="blue" height="9.8" stroke="black" width="12" x="465" y="1437.2"/>
  <text x="465" y="1452.0" font-family="Tahoma" font-size="12" transform="rotate(90 465,1452.0)" text-rendering="optimizeSpeed" fill="#000000">HP-UX (IA64N) (98)</text>
  <rect fill="blue" height="10.9" stroke="black" width="12" x="480" y="1436.1"/>
  <text x="480" y="1452.0" font-family="Tahoma" font-size="12" transform="rotate(90 480,1452.0)" text-rendering="optimizeSpeed" fill="#000000">AIX (ppc64) (109)</text>
  <rect fill="blue" height="11.0" stroke="black" width="12" x="495" y="1436.0"/>
  <text x="495" y="1452.0" font-family="Tahoma" font-size="12" transform="rotate(90 495,1452.0)" text-rendering="optimizeSpeed" fill="#000000">AIX (ppc) (110)</text>
  <rect fill="blue" height="16.3" stroke="black" width="12" x="510" y="1430.7"/>
  <text x="510" y="1452.0" font-family="Tahoma" font-size="12" transform="rotate(90 510,1452.0)" text-rendering="optimizeSpeed" fill="#000000">Mac OS X (i386) (163)</text>
  <rect fill="blue" height="26.1" stroke="black" width="12" x="525" y="1420.9"/>
  <text x="525" y="1452.0" font-family="Tahoma" font-size="12" transform="rotate(90 525,1452.0)" text-rendering="optimizeSpeed" fill="#000000">Windows Vista (x86) (261)</text>
  <rect fill="blue" height="30.3" stroke="black" width="12" x="540" y="1416.7"/>
  <text x="540" y="1452.0" font-family="Tahoma" font-size="12" transform="rotate(90 540,1452.0)" text-rendering="optimizeSpeed" fill="#000000">Windows Server 2008 (amd64) (303)</text>
  <rect fill="blue" height="34.9" stroke="black" width="12" x="555" y="1412.1"/>
  <text x="555" y="1452.0" font-family="Tahoma" font-size="12" transform="rotate(90 555,1452.0)" text-rendering="optimizeSpeed" fill="#000000">Windows 2003 (amd64) (349)</text>
  <rect fill="blue" height="37.4" stroke="black" width="12" x="570" y="1409.6"/>
  <text x="570" y="1452.0" font-family="Tahoma" font-size="12" transform="rotate(90 570,1452.0)" text-rendering="optimizeSpeed" fill="#000000">SunOS (x86) (374)</text>
  <rect fill="blue" height="58.0" stroke="black" width="12" x="585" y="1389.0"/>
  <text x="585" y="1452.0" font-family="Tahoma" font-size="12" transform="rotate(90 585,1452.0)" text-rendering="optimizeSpeed" fill="#000000">Windows 7 (amd64) (580)</text>
  <rect fill="blue" height="63.6" stroke="black" width="12" x="600" y="1383.4"/>
  <text x="600" y="1452.0" font-family="Tahoma" font-size="12" transform="rotate(90 600,1452.0)" text-rendering="optimizeSpeed" fill="#000000">Windows Server 2008 (x86) (636)</text>
  <rect fill="blue" height="66.4" stroke="black" width="12" x="615" y="1380.6"/>
  <text x="615" y="1452.0" font-family="Tahoma" font-size="12" transform="rotate(90 615,1452.0)" text-rendering="optimizeSpeed" fill="#000000">Windows Server 2008 R2 (x86) (664)</text>
  <rect fill="blue" height="70.1" stroke="black" width="12" x="630" y="1376.9"/>
  <text x="630" y="1452.0" font-family="Tahoma" font-size="12" transform="rotate(90 630,1452.0)" text-rendering="optimizeSpeed" fill="#000000">Windows Server 2008 R2 (amd64) (701)</text>
  <rect fill="blue" height="70.7" stroke="black" width="12" x="645" y="1376.3"/>
  <text x="645" y="1452.0" font-family="Tahoma" font-size="12" transform="rotate(90 645,1452.0)" text-rendering="optimizeSpeed" fill="#000000">SunOS (sparc) (707)</text>
  <rect fill="blue" height="93.7" stroke="black" width="12" x="660" y="1353.3"/>
  <text x="660" y="1452.0" font-family="Tahoma" font-size="12" transform="rotate(90 660,1452.0)" text-rendering="optimizeSpeed" fill="#000000">Mac OS X (x86_64) (937)</text>
  <rect fill="blue" height="111.7" stroke="black" width="12" x="675" y="1335.3"/>
  <text x="675" y="1452.0" font-family="Tahoma" font-size="12" transform="rotate(90 675,1452.0)" text-rendering="optimizeSpeed" fill="#000000">Windows 7 (x86) (1117)</text>
  <rect fill="blue" height="322.4" stroke="black" width="12" x="690" y="1124.6"/>
  <text x="690" y="1452.0" font-family="Tahoma" font-size="12" transform="rotate(90 690,1452.0)" text-rendering="optimizeSpeed" fill="#000000">Windows 2003 (x86) (3224)</text>
  <rect fill="blue" height="376.6" stroke="black" width="12" x="705" y="1070.4"/>
  <text x="705" y="1452.0" font-family="Tahoma" font-size="12" transform="rotate(90 705,1452.0)" text-rendering="optimizeSpeed" fill="#000000">Windows XP (x86) (3766)</text>
  <rect fill="blue" height="825.5" stroke="black" width="12" x="720" y="621.5"/>
  <text x="720" y="1452.0" font-family="Tahoma" font-size="12" transform="rotate(90 720,1452.0)" text-rendering="optimizeSpeed" fill="#000000">Linux (i386) (8255)</text>
  <rect fill="blue" height="1128.3" stroke="black" width="12" x="735" y="318.7"/>
  <text x="735" y="1452.0" font-family="Tahoma" font-size="12" transform="rotate(90 735,1452.0)" text-rendering="optimizeSpeed" fill="#000000">Linux (amd64) (11283)</text>
  <rect fill="blue" height="1397.0" stroke="black" width="12" x="750" y="50.0"/>
  <text x="750" y="1452.0" font-family="Tahoma" font-size="12" transform="rotate(90 750,1452.0)" text-rendering="optimizeSpeed" fill="#000000">N/A (13970)</text>
  <text x="10" y="40" font-family="Tahoma" font-size="20" text-rendering="optimizeSpeed" fill="#000000">Nodes (total: 48202)</text>
</svg>
