<svg xmlns="http://www.w3.org/2000/svg" version="1.1" preserveAspectRatio="xMidYMid meet" viewBox="0 0 720 1550">
  <text x="30" y="40" font-family="sans-serif" font-size="16">Nodes, total: 48202</text>
  <path d="M 200,300 L 0.0,150.0 A 150,150 0 0 1 5.0,150.0 Z" fill="BurlyWood" stroke="black" stroke-width="1"/>
  <rect x="370" y="50" width="20" height="30" fill="BurlyWood" stroke="black" stroke-width="1"/>
  <text x="400" y="38" font-family="sans-serif" font-size="16">AIX (ppc) (110)</text>
  <path d="M 200,300 L 5.0,150.0 A 150,150 0 0 1 10.0,149.9 Z" fill="CadetBlue" stroke="black" stroke-width="1"/>
  <rect x="370" y="51" width="20" height="30" fill="CadetBlue" stroke="black" stroke-width="1"/>
  <text x="400" y="68" font-family="sans-serif" font-size="16">AIX (ppc64) (109)</text>
  <path d="M 200,300 L 10.0,149.9 A 150,150 0 0 1 10.0,149.9 Z" fill="red" stroke="black" stroke-width="1"/>
  <rect x="370" y="52" width="20" height="30" fill="red" stroke="black" stroke-width="1"/>
  <text x="400" y="98" font-family="sans-serif" font-size="16">Darwin (i386) (1)</text>
  <path d="M 200,300 L 10.0,149.9 A 150,150 0 0 1 13.2,149.9 Z" fill="blue" stroke="black" stroke-width="1"/>
  <rect x="370" y="53" width="20" height="30" fill="blue" stroke="black" stroke-width="1"/>
  <text x="400" y="128" font-family="sans-serif" font-size="16">FreeBSD (amd64) (69)</text>
  <path d="M 200,300 L 13.2,149.9 A 150,150 0 0 1 16.0,149.8 Z" fill="yellow" stroke="black" stroke-width="1"/>
  <rect x="370" y="54" width="20" height="30" fill="yellow" stroke="black" stroke-width="1"/>
  <text x="400" y="158" font-family="sans-serif" font-size="16">FreeBSD (i386) (62)</text>
  <path d="M 200,300 L 16.0,149.8 A 150,150 0 0 1 20.5,149.7 Z" fill="green" stroke="black" stroke-width="1"/>
  <rect x="370" y="55" width="20" height="30" fill="green" stroke="black" stroke-width="1"/>
  <text x="400" y="188" font-family="sans-serif" font-size="16">HP-UX (IA64N) (98)</text>
  <path d="M 200,300 L 20.5,149.7 A 150,150 0 0 1 20.6,149.7 Z" fill="gold" stroke="black" stroke-width="1"/>
  <rect x="370" y="56" width="20" height="30" fill="gold" stroke="black" stroke-width="1"/>
  <text x="400" y="218" font-family="sans-serif" font-size="16">HP-UX (IA64W) (2)</text>
  <path d="M 200,300 L 20.6,149.7 A 150,150 0 0 1 22.7,149.7 Z" fill="brown" stroke="black" stroke-width="1"/>
  <rect x="370" y="57" width="20" height="30" fill="brown" stroke="black" stroke-width="1"/>
  <text x="400" y="248" font-family="sans-serif" font-size="16">HP-UX (PA_RISC2.0) (46)</text>
  <path d="M 200,300 L 22.7,149.7 A 150,150 0 0 1 22.7,149.7 Z" fill="Azure" stroke="black" stroke-width="1"/>
  <rect x="370" y="58" width="20" height="30" fill="Azure" stroke="black" stroke-width="1"/>
  <text x="400" y="278" font-family="sans-serif" font-size="16">HP-UX (PA_RISC2.0W) (1)</text>
  <path d="M 200,300 L 22.7,149.7 A 150,150 0 0 1 349.8,5.3 Z" fill="pink" stroke="black" stroke-width="1"/>
  <rect x="370" y="59" width="20" height="30" fill="pink" stroke="black" stroke-width="1"/>
  <text x="400" y="308" font-family="sans-serif" font-size="16">Linux (amd64) (11283)</text>
  <path d="M 200,300 L 349.8,5.3 A 150,150 0 0 1 349.8,5.1 Z" fill="khaki" stroke="black" stroke-width="1"/>
  <rect x="370" y="60" width="20" height="30" fill="khaki" stroke="black" stroke-width="1"/>
  <text x="400" y="338" font-family="sans-serif" font-size="16">Linux (arm) (8)</text>
  <path d="M 200,300 L 349.8,5.1 A 150,150 0 0 1 176.6,-129.5 Z" fill="gray" stroke="black" stroke-width="1"/>
  <rect x="370" y="61" width="20" height="30" fill="gray" stroke="black" stroke-width="1"/>
  <text x="400" y="368" font-family="sans-serif" font-size="16">Linux (i386) (8255)</text>
  <path d="M 200,300 L 176.6,-129.5 A 150,150 0 0 1 176.0,-129.7 Z" fill="Aqua" stroke="black" stroke-width="1"/>
  <rect x="370" y="62" width="20" height="30" fill="Aqua" stroke="black" stroke-width="1"/>
  <text x="400" y="398" font-family="sans-serif" font-size="16">Linux (ia64) (16)</text>
  <path d="M 200,300 L 176.0,-129.7 A 150,150 0 0 1 175.9,-129.7 Z" fill="Aquamarine" stroke="black" stroke-width="1"/>
  <rect x="370" y="63" width="20" height="30" fill="Aquamarine" stroke="black" stroke-width="1"/>
  <text x="400" y="428" font-family="sans-serif" font-size="16">Linux (nova) (1)</text>
  <path d="M 200,300 L 175.9,-129.7 A 150,150 0 0 1 175.4,-129.8 Z" fill="beige" stroke="black" stroke-width="1"/>
  <rect x="370" y="64" width="20" height="30" fill="beige" stroke="black" stroke-width="1"/>
  <text x="400" y="458" font-family="sans-serif" font-size="16">Linux (ppc) (12)</text>
  <path d="M 200,300 L 175.4,-129.8 A 150,150 0 0 1 174.9,-129.9 Z" fill="blueviolet" stroke="black" stroke-width="1"/>
  <rect x="370" y="65" width="20" height="30" fill="blueviolet" stroke="black" stroke-width="1"/>
  <text x="400" y="488" font-family="sans-serif" font-size="16">Linux (ppc64) (14)</text>
  <path d="M 200,300 L 174.9,-129.9 A 150,150 0 0 1 174.8,-129.9 Z" fill="Bisque" stroke="black" stroke-width="1"/>
  <rect x="370" y="66" width="20" height="30" fill="Bisque" stroke="black" stroke-width="1"/>
  <text x="400" y="518" font-family="sans-serif" font-size="16">Linux (s390) (1)</text>
  <path d="M 200,300 L 174.8,-129.9 A 150,150 0 0 1 174.5,-130.0 Z" fill="coral" stroke="black" stroke-width="1"/>
  <rect x="370" y="67" width="20" height="30" fill="coral" stroke="black" stroke-width="1"/>
  <text x="400" y="548" font-family="sans-serif" font-size="16">Linux (s390x) (9)</text>
  <path d="M 200,300 L 174.5,-130.0 A 150,150 0 0 1 174.5,-130.0 Z" fill="darkblue" stroke="black" stroke-width="1"/>
  <rect x="370" y="68" width="20" height="30" fill="darkblue" stroke="black" stroke-width="1"/>
  <text x="400" y="578" font-family="sans-serif" font-size="16">Linux (sparc) (1)</text>
  <path d="M 200,300 L 174.5,-130.0 A 150,150 0 0 1 172.0,-130.6 Z" fill="crimson" stroke="black" stroke-width="1"/>
  <rect x="370" y="69" width="20" height="30" fill="crimson" stroke="black" stroke-width="1"/>
  <text x="400" y="608" font-family="sans-serif" font-size="16">Linux (x86) (63)</text>
  <path d="M 200,300 L 172.0,-130.6 A 150,150 0 0 1 165.4,-132.2 Z" fill="cyan" stroke="black" stroke-width="1"/>
  <rect x="370" y="70" width="20" height="30" fill="cyan" stroke="black" stroke-width="1"/>
  <text x="400" y="638" font-family="sans-serif" font-size="16">Mac OS X (i386) (163)</text>
  <path d="M 200,300 L 165.4,-132.2 A 150,150 0 0 1 164.9,-132.3 Z" fill="darkred" stroke="black" stroke-width="1"/>
  <rect x="370" y="71" width="20" height="30" fill="darkred" stroke="black" stroke-width="1"/>
  <text x="400" y="668" font-family="sans-serif" font-size="16">Mac OS X (ppc) (14)</text>
  <path d="M 200,300 L 164.9,-132.3 A 150,150 0 0 1 126.0,-139.9 Z" fill="ivory" stroke="black" stroke-width="1"/>
  <rect x="370" y="72" width="20" height="30" fill="ivory" stroke="black" stroke-width="1"/>
  <text x="400" y="698" font-family="sans-serif" font-size="16">Mac OS X (x86_64) (937)</text>
  <path d="M 200,300 L 126.0,-139.9 A 150,150 0 0 1 -347.6,-17.7 Z" fill="lime" stroke="black" stroke-width="1"/>
  <rect x="370" y="73" width="20" height="30" fill="lime" stroke="black" stroke-width="1"/>
  <text x="400" y="728" font-family="sans-serif" font-size="16">N/A (13970)</text>
  <path d="M 200,300 L -347.6,-17.7 A 150,150 0 0 1 -347.6,-17.7 Z" fill="maroon" stroke="black" stroke-width="1"/>
  <rect x="370" y="74" width="20" height="30" fill="maroon" stroke="black" stroke-width="1"/>
  <text x="400" y="758" font-family="sans-serif" font-size="16">NetBSD (amd64) (1)</text>
  <path d="M 200,300 L -347.6,-17.7 A 150,150 0 0 1 -347.6,-17.6 Z" fill="navy" stroke="black" stroke-width="1"/>
  <rect x="370" y="75" width="20" height="30" fill="navy" stroke="black" stroke-width="1"/>
  <text x="400" y="788" font-family="sans-serif" font-size="16">OpenBSD (amd64) (2)</text>
  <path d="M 200,300 L -347.6,-17.6 A 150,150 0 0 1 -347.6,-17.6 Z" fill="olive" stroke="black" stroke-width="1"/>
  <rect x="370" y="76" width="20" height="30" fill="olive" stroke="black" stroke-width="1"/>
  <text x="400" y="818" font-family="sans-serif" font-size="16">OpenBSD (i386) (1)</text>
  <path d="M 200,300 L -347.6,-17.6 A 150,150 0 0 1 -347.7,-17.3 Z" fill="plum" stroke="black" stroke-width="1"/>
  <rect x="370" y="77" width="20" height="30" fill="plum" stroke="black" stroke-width="1"/>
  <text x="400" y="848" font-family="sans-serif" font-size="16">SunOS (amd64) (16)</text>
  <path d="M 200,300 L -347.7,-17.3 A 150,150 0 0 1 -349.9,-3.5 Z" fill="peru" stroke="black" stroke-width="1"/>
  <rect x="370" y="78" width="20" height="30" fill="peru" stroke="black" stroke-width="1"/>
  <text x="400" y="878" font-family="sans-serif" font-size="16">SunOS (sparc) (707)</text>
  <path d="M 200,300 L -349.9,-3.5 A 150,150 0 0 1 -349.9,-3.2 Z" fill="silver" stroke="black" stroke-width="1"/>
  <rect x="370" y="79" width="20" height="30" fill="silver" stroke="black" stroke-width="1"/>
  <text x="400" y="908" font-family="sans-serif" font-size="16">SunOS (sparcv9) (17)</text>
  <path d="M 200,300 L -349.9,-3.2 A 150,150 0 0 1 -349.9,4.1 Z" fill="tan" stroke="black" stroke-width="1"/>
  <rect x="370" y="80" width="20" height="30" fill="tan" stroke="black" stroke-width="1"/>
  <text x="400" y="938" font-family="sans-serif" font-size="16">SunOS (x86) (374)</text>
  <path d="M 200,300 L -349.9,4.1 A 150,150 0 0 1 -349.9,4.2 Z" fill="teal" stroke="black" stroke-width="1"/>
  <rect x="370" y="81" width="20" height="30" fill="teal" stroke="black" stroke-width="1"/>
  <text x="400" y="968" font-family="sans-serif" font-size="16">UnixWare (IA32) (1)</text>
  <path d="M 200,300 L -349.9,4.2 A 150,150 0 0 1 -349.8,5.2 Z" fill="violet" stroke="black" stroke-width="1"/>
  <rect x="370" y="82" width="20" height="30" fill="violet" stroke="black" stroke-width="1"/>
  <text x="400" y="998" font-family="sans-serif" font-size="16">Windows 2000 (x86) (53)</text>
  <path d="M 200,300 L -349.8,5.2 A 150,150 0 0 1 -348.9,12.0 Z" fill="AliceBlue" stroke="black" stroke-width="1"/>
  <rect x="370" y="83" width="20" height="30" fill="AliceBlue" stroke="black" stroke-width="1"/>
  <text x="400" y="1028" font-family="sans-serif" font-size="16">Windows 2003 (amd64) (349)</text>
  <path d="M 200,300 L -348.9,12.0 A 150,150 0 0 1 -307.1,72.0 Z" fill="DarkOliveGreen" stroke="black" stroke-width="1"/>
  <rect x="370" y="84" width="20" height="30" fill="DarkOliveGreen" stroke="black" stroke-width="1"/>
  <text x="400" y="1058" font-family="sans-serif" font-size="16">Windows 2003 (x86) (3224)</text>
  <path d="M 200,300 L -307.1,72.0 A 150,150 0 0 1 -293.5,81.7 Z" fill="Indigo" stroke="black" stroke-width="1"/>
  <rect x="370" y="85" width="20" height="30" fill="Indigo" stroke="black" stroke-width="1"/>
  <text x="400" y="1088" font-family="sans-serif" font-size="16">Windows 7 (amd64) (580)</text>
  <path d="M 200,300 L -293.5,81.7 A 150,150 0 0 1 -262.8,99.1 Z" fill="MediumPurple" stroke="black" stroke-width="1"/>
  <rect x="370" y="86" width="20" height="30" fill="MediumPurple" stroke="black" stroke-width="1"/>
  <text x="400" y="1118" font-family="sans-serif" font-size="16">Windows 7 (x86) (1117)</text>
  <path d="M 200,300 L -262.8,99.1 A 150,150 0 0 1 -262.3,99.3 Z" fill="Purple" stroke="black" stroke-width="1"/>
  <rect x="370" y="87" width="20" height="30" fill="Purple" stroke="black" stroke-width="1"/>
  <text x="400" y="1148" font-family="sans-serif" font-size="16">Windows NT (unknown) (x86) (16)</text>
  <path d="M 200,300 L -262.3,99.3 A 150,150 0 0 1 -262.2,99.3 Z" fill="AntiqueWhite" stroke="black" stroke-width="1"/>
  <rect x="370" y="88" width="20" height="30" fill="AntiqueWhite" stroke="black" stroke-width="1"/>
  <text x="400" y="1178" font-family="sans-serif" font-size="16">Windows Server 2003 (amd64) (2)</text>
  <path d="M 200,300 L -262.2,99.3 A 150,150 0 0 1 -261.3,99.8 Z" fill="DarkOrange" stroke="black" stroke-width="1"/>
  <rect x="370" y="89" width="20" height="30" fill="DarkOrange" stroke="black" stroke-width="1"/>
  <text x="400" y="1208" font-family="sans-serif" font-size="16">Windows Server 2003 (x86) (30)</text>
  <path d="M 200,300 L -261.3,99.8 A 150,150 0 0 1 -251.9,104.1 Z" fill="Ivory" stroke="black" stroke-width="1"/>
  <rect x="370" y="90" width="20" height="30" fill="Ivory" stroke="black" stroke-width="1"/>
  <text x="400" y="1238" font-family="sans-serif" font-size="16">Windows Server 2008 (amd64) (303)</text>
  <path d="M 200,300 L -251.9,104.1 A 150,150 0 0 1 -251.9,104.1 Z" fill="MediumSeaGreen" stroke="black" stroke-width="1"/>
  <rect x="370" y="91" width="20" height="30" fill="MediumSeaGreen" stroke="black" stroke-width="1"/>
  <text x="400" y="1268" font-family="sans-serif" font-size="16">Windows Server 2008 (ia64) (1)</text>
  <path d="M 200,300 L -251.9,104.1 A 150,150 0 0 1 -230.9,112.7 Z" fill="Red" stroke="black" stroke-width="1"/>
  <rect x="370" y="92" width="20" height="30" fill="Red" stroke="black" stroke-width="1"/>
  <text x="400" y="1298" font-family="sans-serif" font-size="16">Windows Server 2008 (x86) (636)</text>
  <path d="M 200,300 L -230.9,112.7 A 150,150 0 0 1 -205.9,121.3 Z" fill="Aqua" stroke="black" stroke-width="1"/>
  <rect x="370" y="93" width="20" height="30" fill="Aqua" stroke="black" stroke-width="1"/>
  <text x="400" y="1328" font-family="sans-serif" font-size="16">Windows Server 2008 R2 (amd64) (701)</text>
  <path d="M 200,300 L -205.9,121.3 A 150,150 0 0 1 -180.7,128.5 Z" fill="DarkOrchid" stroke="black" stroke-width="1"/>
  <rect x="370" y="94" width="20" height="30" fill="DarkOrchid" stroke="black" stroke-width="1"/>
  <text x="400" y="1358" font-family="sans-serif" font-size="16">Windows Server 2008 R2 (x86) (664)</text>
  <path d="M 200,300 L -180.7,128.5 A 150,150 0 0 1 -178.7,129.0 Z" fill="Khaki" stroke="black" stroke-width="1"/>
  <rect x="370" y="95" width="20" height="30" fill="Khaki" stroke="black" stroke-width="1"/>
  <text x="400" y="1388" font-family="sans-serif" font-size="16">Windows Vista (amd64) (50)</text>
  <path d="M 200,300 L -178.7,129.0 A 150,150 0 0 1 -168.4,131.5 Z" fill="MediumSlateBlue" stroke="black" stroke-width="1"/>
  <rect x="370" y="96" width="20" height="30" fill="MediumSlateBlue" stroke="black" stroke-width="1"/>
  <text x="400" y="1418" font-family="sans-serif" font-size="16">Windows Vista (x86) (261)</text>
  <path d="M 200,300 L -168.4,131.5 A 150,150 0 0 1 -165.0,132.3 Z" fill="RosyBrown" stroke="black" stroke-width="1"/>
  <rect x="370" y="97" width="20" height="30" fill="RosyBrown" stroke="black" stroke-width="1"/>
  <text x="400" y="1448" font-family="sans-serif" font-size="16">Windows XP (amd64) (84)</text>
  <path d="M 200,300 L -165.0,132.3 A 150,150 0 0 1 -0.0,150.0 Z" fill="AquaMarine" stroke="black" stroke-width="1"/>
  <rect x="370" y="98" width="20" height="30" fill="AquaMarine" stroke="black" stroke-width="1"/>
  <text x="400" y="1478" font-family="sans-serif" font-size="16">Windows XP (x86) (3766)</text>
  <path d="M 200,300 L -0.0,150.0 A 150,150 0 0 1 -0.0,150.0 Z" fill="DarkRed" stroke="black" stroke-width="1"/>
  <rect x="370" y="99" width="20" height="30" fill="DarkRed" stroke="black" stroke-width="1"/>
  <text x="400" y="1508" font-family="sans-serif" font-size="16">linux (amd64) (1)</text>
</svg>
