<svg xmlns="http://www.w3.org/2000/svg" version="1.1" preserveAspectRatio="xMidYMid meet" viewBox="0 0 2015 948.1">
  <rect fill="blue" height="86.9" stroke="black" width="12" x="15" y="561.2"/>
  <text x="15" y="653.1" font-family="Tahoma" font-size="12" transform="rotate(90 15,653.1)" text-rendering="optimizeSpeed" fill="#000000">0 (2172)</text>
  <rect fill="blue" height="108.6" stroke="black" width="12" x="30" y="539.4"/>
  <text x="30" y="653.1" font-family="Tahoma" font-size="12" transform="rotate(90 30,653.1)" text-rendering="optimizeSpeed" fill="#000000">1 (2716)</text>
  <rect fill="blue" height="598.1" stroke="black" width="12" x="45" y="50.0"/>
  <text x="45" y="653.1" font-family="Tahoma" font-size="12" transform="rotate(90 45,653.1)" text-rendering="optimizeSpeed" fill="#000000">2 (14952)</text>
  <rect fill="blue" height="54.9" stroke="black" width="12" x="60" y="593.2"/>
  <text x="60" y="653.1" font-family="Tahoma" font-size="12" transform="rotate(90 60,653.1)" text-rendering="optimizeSpeed" fill="#000000">3 (1373)</text>
  <rect fill="blue" height="62.4" stroke="black" width="12" x="75" y="585.7"/>
  <text x="75" y="653.1" font-family="Tahoma" font-size="12" transform="rotate(90 75,653.1)" text-rendering="optimizeSpeed" fill="#000000">4 (1560)</text>
  <rect fill="blue" height="30.9" stroke="black" width="12" x="90" y="617.2"/>
  <text x="90" y="653.1" font-family="Tahoma" font-size="12" transform="rotate(90 90,653.1)" text-rendering="optimizeSpeed" fill="#000000">5 (773)</text>
  <rect fill="blue" height="22.7" stroke="black" width="12" x="105" y="625.4"/>
  <text x="105" y="653.1" font-family="Tahoma" font-size="12" transform="rotate(90 105,653.1)" text-rendering="optimizeSpeed" fill="#000000">6 (568)</text>
  <rect fill="blue" height="12.8" stroke="black" width="12" x="120" y="635.3"/>
  <text x="120" y="653.1" font-family="Tahoma" font-size="12" transform="rotate(90 120,653.1)" text-rendering="optimizeSpeed" fill="#000000">7 (319)</text>
  <rect fill="blue" height="17.8" stroke="black" width="12" x="135" y="630.3"/>
  <text x="135" y="653.1" font-family="Tahoma" font-size="12" transform="rotate(90 135,653.1)" text-rendering="optimizeSpeed" fill="#000000">8 (444)</text>
  <rect fill="blue" height="8.0" stroke="black" width="12" x="150" y="640.1"/>
  <text x="150" y="653.1" font-family="Tahoma" font-size="12" transform="rotate(90 150,653.1)" text-rendering="optimizeSpeed" fill="#000000">9 (199)</text>
  <rect fill="blue" height="14.6" stroke="black" width="12" x="165" y="633.4"/>
  <text x="165" y="653.1" font-family="Tahoma" font-size="12" transform="rotate(90 165,653.1)" text-rendering="optimizeSpeed" fill="#000000">10 (366)</text>
  <rect fill="blue" height="4.8" stroke="black" width="12" x="180" y="643.3"/>
  <text x="180" y="653.1" font-family="Tahoma" font-size="12" transform="rotate(90 180,653.1)" text-rendering="optimizeSpeed" fill="#000000">11 (119)</text>
  <rect fill="blue" height="5.3" stroke="black" width="12" x="195" y="642.8"/>
  <text x="195" y="653.1" font-family="Tahoma" font-size="12" transform="rotate(90 195,653.1)" text-rendering="optimizeSpeed" fill="#000000">12 (133)</text>
  <rect fill="blue" height="4.2" stroke="black" width="12" x="210" y="643.8"/>
  <text x="210" y="653.1" font-family="Tahoma" font-size="12" transform="rotate(90 210,653.1)" text-rendering="optimizeSpeed" fill="#000000">13 (106)</text>
  <rect fill="blue" height="4.5" stroke="black" width="12" x="225" y="643.6"/>
  <text x="225" y="653.1" font-family="Tahoma" font-size="12" transform="rotate(90 225,653.1)" text-rendering="optimizeSpeed" fill="#000000">14 (113)</text>
  <rect fill="blue" height="4.2" stroke="black" width="12" x="240" y="643.8"/>
  <text x="240" y="653.1" font-family="Tahoma" font-size="12" transform="rotate(90 240,653.1)" text-rendering="optimizeSpeed" fill="#000000">15 (106)</text>
  <rect fill="blue" height="4.9" stroke="black" width="12" x="255" y="643.2"/>
  <text x="255" y="653.1" font-family="Tahoma" font-size="12" transform="rotate(90 255,653.1)" text-rendering="optimizeSpeed" fill="#000000">16 (123)</text>
  <rect fill="blue" height="2.8" stroke="black" width="12" x="270" y="645.3"/>
  <text x="270" y="653.1" font-family="Tahoma" font-size="12" transform="rotate(90 270,653.1)" text-rendering="optimizeSpeed" fill="#000000">17 (69)</text>
  <rect fill="blue" height="2.6" stroke="black" width="12" x="285" y="645.5"/>
  <text x="285" y="653.1" font-family="Tahoma" font-size="12" transform="rotate(90 285,653.1)" text-rendering="optimizeSpeed" fill="#000000">18 (65)</text>
  <rect fill="blue" height="1.7" stroke="black" width="12" x="300" y="646.4"/>
  <text x="300" y="653.1" font-family="Tahoma" font-size="12" transform="rotate(90 300,653.1)" text-rendering="optimizeSpeed" fill="#000000">19 (42)</text>
  <rect fill="blue" height="3.6" stroke="black" width="12" x="315" y="644.5"/>
  <text x="315" y="653.1" font-family="Tahoma" font-size="12" transform="rotate(90 315,653.1)" text-rendering="optimizeSpeed" fill="#000000">20 (89)</text>
  <rect fill="blue" height="1.6" stroke="black" width="12" x="330" y="646.5"/>
  <text x="330" y="653.1" font-family="Tahoma" font-size="12" transform="rotate(90 330,653.1)" text-rendering="optimizeSpeed" fill="#000000">21 (40)</text>
  <rect fill="blue" height="1.8" stroke="black" width="12" x="345" y="646.2"/>
  <text x="345" y="653.1" font-family="Tahoma" font-size="12" transform="rotate(90 345,653.1)" text-rendering="optimizeSpeed" fill="#000000">22 (46)</text>
  <rect fill="blue" height="0.6" stroke="black" width="12" x="360" y="647.4"/>
  <text x="360" y="653.1" font-family="Tahoma" font-size="12" transform="rotate(90 360,653.1)" text-rendering="optimizeSpeed" fill="#000000">23 (16)</text>
  <rect fill="blue" height="1.5" stroke="black" width="12" x="375" y="646.6"/>
  <text x="375" y="653.1" font-family="Tahoma" font-size="12" transform="rotate(90 375,653.1)" text-rendering="optimizeSpeed" fill="#000000">24 (38)</text>
  <rect fill="blue" height="1.5" stroke="black" width="12" x="390" y="646.6"/>
  <text x="390" y="653.1" font-family="Tahoma" font-size="12" transform="rotate(90 390,653.1)" text-rendering="optimizeSpeed" fill="#000000">25 (38)</text>
  <rect fill="blue" height="1.0" stroke="black" width="12" x="405" y="647.1"/>
  <text x="405" y="653.1" font-family="Tahoma" font-size="12" transform="rotate(90 405,653.1)" text-rendering="optimizeSpeed" fill="#000000">26 (24)</text>
  <rect fill="blue" height="0.8" stroke="black" width="12" x="420" y="647.3"/>
  <text x="420" y="653.1" font-family="Tahoma" font-size="12" transform="rotate(90 420,653.1)" text-rendering="optimizeSpeed" fill="#000000">27 (19)</text>
  <rect fill="blue" height="1.0" stroke="black" width="12" x="435" y="647.1"/>
  <text x="435" y="653.1" font-family="Tahoma" font-size="12" transform="rotate(90 435,653.1)" text-rendering="optimizeSpeed" fill="#000000">28 (25)</text>
  <rect fill="blue" height="0.6" stroke="black" width="12" x="450" y="647.5"/>
  <text x="450" y="653.1" font-family="Tahoma" font-size="12" transform="rotate(90 450,653.1)" text-rendering="optimizeSpeed" fill="#000000">29 (15)</text>
  <rect fill="blue" height="1.0" stroke="black" width="12" x="465" y="647.0"/>
  <text x="465" y="653.1" font-family="Tahoma" font-size="12" transform="rotate(90 465,653.1)" text-rendering="optimizeSpeed" fill="#000000">30 (26)</text>
  <rect fill="blue" height="0.5" stroke="black" width="12" x="480" y="647.6"/>
  <text x="480" y="653.1" font-family="Tahoma" font-size="12" transform="rotate(90 480,653.1)" text-rendering="optimizeSpeed" fill="#000000">31 (13)</text>
  <rect fill="blue" height="1.1" stroke="black" width="12" x="495" y="647.0"/>
  <text x="495" y="653.1" font-family="Tahoma" font-size="12" transform="rotate(90 495,653.1)" text-rendering="optimizeSpeed" fill="#000000">32 (28)</text>
  <rect fill="blue" height="0.4" stroke="black" width="12" x="510" y="647.6"/>
  <text x="510" y="653.1" font-family="Tahoma" font-size="12" transform="rotate(90 510,653.1)" text-rendering="optimizeSpeed" fill="#000000">33 (11)</text>
  <rect fill="blue" height="0.5" stroke="black" width="12" x="525" y="647.6"/>
  <text x="525" y="653.1" font-family="Tahoma" font-size="12" transform="rotate(90 525,653.1)" text-rendering="optimizeSpeed" fill="#000000">34 (13)</text>
  <rect fill="blue" height="0.8" stroke="black" width="12" x="540" y="647.3"/>
  <text x="540" y="653.1" font-family="Tahoma" font-size="12" transform="rotate(90 540,653.1)" text-rendering="optimizeSpeed" fill="#000000">35 (20)</text>
  <rect fill="blue" height="0.4" stroke="black" width="12" x="555" y="647.7"/>
  <text x="555" y="653.1" font-family="Tahoma" font-size="12" transform="rotate(90 555,653.1)" text-rendering="optimizeSpeed" fill="#000000">36 (9)</text>
  <rect fill="blue" height="0.4" stroke="black" width="12" x="570" y="647.7"/>
  <text x="570" y="653.1" font-family="Tahoma" font-size="12" transform="rotate(90 570,653.1)" text-rendering="optimizeSpeed" fill="#000000">37 (9)</text>
  <rect fill="blue" height="0.4" stroke="black" width="12" x="585" y="647.7"/>
  <text x="585" y="653.1" font-family="Tahoma" font-size="12" transform="rotate(90 585,653.1)" text-rendering="optimizeSpeed" fill="#000000">38 (9)</text>
  <rect fill="blue" height="0.4" stroke="black" width="12" x="600" y="647.7"/>
  <text x="600" y="653.1" font-family="Tahoma" font-size="12" transform="rotate(90 600,653.1)" text-rendering="optimizeSpeed" fill="#000000">39 (9)</text>
  <rect fill="blue" height="0.5" stroke="black" width="12" x="615" y="647.6"/>
  <text x="615" y="653.1" font-family="Tahoma" font-size="12" transform="rotate(90 615,653.1)" text-rendering="optimizeSpeed" fill="#000000">40 (13)</text>
  <rect fill="blue" height="0.3" stroke="black" width="12" x="630" y="647.8"/>
  <text x="630" y="653.1" font-family="Tahoma" font-size="12" transform="rotate(90 630,653.1)" text-rendering="optimizeSpeed" fill="#000000">41 (7)</text>
  <rect fill="blue" height="0.2" stroke="black" width="12" x="645" y="647.8"/>
  <text x="645" y="653.1" font-family="Tahoma" font-size="12" transform="rotate(90 645,653.1)" text-rendering="optimizeSpeed" fill="#000000">42 (6)</text>
  <rect fill="blue" height="0.2" stroke="black" width="12" x="660" y="647.8"/>
  <text x="660" y="653.1" font-family="Tahoma" font-size="12" transform="rotate(90 660,653.1)" text-rendering="optimizeSpeed" fill="#000000">43 (6)</text>
  <rect fill="blue" height="0.2" stroke="black" width="12" x="675" y="647.9"/>
  <text x="675" y="653.1" font-family="Tahoma" font-size="12" transform="rotate(90 675,653.1)" text-rendering="optimizeSpeed" fill="#000000">44 (4)</text>
  <rect fill="blue" height="0.3" stroke="black" width="12" x="690" y="647.8"/>
  <text x="690" y="653.1" font-family="Tahoma" font-size="12" transform="rotate(90 690,653.1)" text-rendering="optimizeSpeed" fill="#000000">45 (7)</text>
  <rect fill="blue" height="0.3" stroke="black" width="12" x="705" y="647.8"/>
  <text x="705" y="653.1" font-family="Tahoma" font-size="12" transform="rotate(90 705,653.1)" text-rendering="optimizeSpeed" fill="#000000">46 (7)</text>
  <rect fill="blue" height="0.3" stroke="black" width="12" x="720" y="647.8"/>
  <text x="720" y="653.1" font-family="Tahoma" font-size="12" transform="rotate(90 720,653.1)" text-rendering="optimizeSpeed" fill="#000000">47 (7)</text>
  <rect fill="blue" height="0.2" stroke="black" width="12" x="735" y="647.9"/>
  <text x="735" y="653.1" font-family="Tahoma" font-size="12" transform="rotate(90 735,653.1)" text-rendering="optimizeSpeed" fill="#000000">48 (4)</text>
  <rect fill="blue" height="0.2" stroke="black" width="12" x="750" y="647.8"/>
  <text x="750" y="653.1" font-family="Tahoma" font-size="12" transform="rotate(90 750,653.1)" text-rendering="optimizeSpeed" fill="#000000">49 (6)</text>
  <rect fill="blue" height="0.4" stroke="black" width="12" x="765" y="647.7"/>
  <text x="765" y="653.1" font-family="Tahoma" font-size="12" transform="rotate(90 765,653.1)" text-rendering="optimizeSpeed" fill="#000000">50 (9)</text>
  <rect fill="blue" height="0.2" stroke="black" width="12" x="780" y="647.9"/>
  <text x="780" y="653.1" font-family="Tahoma" font-size="12" transform="rotate(90 780,653.1)" text-rendering="optimizeSpeed" fill="#000000">51 (4)</text>
  <rect fill="blue" height="0.2" stroke="black" width="12" x="795" y="647.9"/>
  <text x="795" y="653.1" font-family="Tahoma" font-size="12" transform="rotate(90 795,653.1)" text-rendering="optimizeSpeed" fill="#000000">52 (5)</text>
  <rect fill="blue" height="0.1" stroke="black" width="12" x="810" y="648.0"/>
  <text x="810" y="653.1" font-family="Tahoma" font-size="12" transform="rotate(90 810,653.1)" text-rendering="optimizeSpeed" fill="#000000">53 (3)</text>
  <rect fill="blue" height="0.3" stroke="black" width="12" x="825" y="647.8"/>
  <text x="825" y="653.1" font-family="Tahoma" font-size="12" transform="rotate(90 825,653.1)" text-rendering="optimizeSpeed" fill="#000000">54 (8)</text>
  <rect fill="blue" height="0.2" stroke="black" width="12" x="840" y="647.9"/>
  <text x="840" y="653.1" font-family="Tahoma" font-size="12" transform="rotate(90 840,653.1)" text-rendering="optimizeSpeed" fill="#000000">55 (4)</text>
  <rect fill="blue" height="0.2" stroke="black" width="12" x="855" y="647.8"/>
  <text x="855" y="653.1" font-family="Tahoma" font-size="12" transform="rotate(90 855,653.1)" text-rendering="optimizeSpeed" fill="#000000">56 (6)</text>
  <rect fill="blue" height="0.2" stroke="black" width="12" x="870" y="647.9"/>
  <text x="870" y="653.1" font-family="Tahoma" font-size="12" transform="rotate(90 870,653.1)" text-rendering="optimizeSpeed" fill="#000000">57 (4)</text>
  <rect fill="blue" height="0.2" stroke="black" width="12" x="885" y="647.8"/>
  <text x="885" y="653.1" font-family="Tahoma" font-size="12" transform="rotate(90 885,653.1)" text-rendering="optimizeSpeed" fill="#000000">58 (6)</text>
  <rect fill="blue" height="0.1" stroke="black" width="12" x="900" y="648.0"/>
  <text x="900" y="653.1" font-family="Tahoma" font-size="12" transform="rotate(90 900,653.1)" text-rendering="optimizeSpeed" fill="#000000">59 (3)</text>
  <rect fill="blue" height="0.1" stroke="black" width="12" x="915" y="648.0"/>
  <text x="915" y="653.1" font-family="Tahoma" font-size="12" transform="rotate(90 915,653.1)" text-rendering="optimizeSpeed" fill="#000000">60 (2)</text>
  <rect fill="blue" height="0.1" stroke="black" width="12" x="930" y="648.0"/>
  <text x="930" y="653.1" font-family="Tahoma" font-size="12" transform="rotate(90 930,653.1)" text-rendering="optimizeSpeed" fill="#000000">61 (2)</text>
  <rect fill="blue" height="0.1" stroke="black" width="12" x="945" y="648.0"/>
  <text x="945" y="653.1" font-family="Tahoma" font-size="12" transform="rotate(90 945,653.1)" text-rendering="optimizeSpeed" fill="#000000">62 (2)</text>
  <rect fill="blue" height="0.1" stroke="black" width="12" x="960" y="648.0"/>
  <text x="960" y="653.1" font-family="Tahoma" font-size="12" transform="rotate(90 960,653.1)" text-rendering="optimizeSpeed" fill="#000000">63 (3)</text>
  <rect fill="blue" height="0.1" stroke="black" width="12" x="975" y="648.0"/>
  <text x="975" y="653.1" font-family="Tahoma" font-size="12" transform="rotate(90 975,653.1)" text-rendering="optimizeSpeed" fill="#000000">64 (3)</text>
  <rect fill="blue" height="0.1" stroke="black" width="12" x="990" y="648.0"/>
  <text x="990" y="653.1" font-family="Tahoma" font-size="12" transform="rotate(90 990,653.1)" text-rendering="optimizeSpeed" fill="#000000">65 (2)</text>
  <rect fill="blue" height="0.1" stroke="black" width="12" x="1005" y="648.0"/>
  <text x="1005" y="653.1" font-family="Tahoma" font-size="12" transform="rotate(90 1005,653.1)" text-rendering="optimizeSpeed" fill="#000000">66 (3)</text>
  <rect fill="blue" height="0.2" stroke="black" width="12" x="1020" y="647.9"/>
  <text x="1020" y="653.1" font-family="Tahoma" font-size="12" transform="rotate(90 1020,653.1)" text-rendering="optimizeSpeed" fill="#000000">67 (4)</text>
  <rect fill="blue" height="0.1" stroke="black" width="12" x="1035" y="648.0"/>
  <text x="1035" y="653.1" font-family="Tahoma" font-size="12" transform="rotate(90 1035,653.1)" text-rendering="optimizeSpeed" fill="#000000">68 (2)</text>
  <rect fill="blue" height="0.0" stroke="black" width="12" x="1050" y="648.0"/>
  <text x="1050" y="653.1" font-family="Tahoma" font-size="12" transform="rotate(90 1050,653.1)" text-rendering="optimizeSpeed" fill="#000000">69 (1)</text>
  <rect fill="blue" height="0.1" stroke="black" width="12" x="1065" y="648.0"/>
  <text x="1065" y="653.1" font-family="Tahoma" font-size="12" transform="rotate(90 1065,653.1)" text-rendering="optimizeSpeed" fill="#000000">70 (2)</text>
  <rect fill="blue" height="0.2" stroke="black" width="12" x="1080" y="647.9"/>
  <text x="1080" y="653.1" font-family="Tahoma" font-size="12" transform="rotate(90 1080,653.1)" text-rendering="optimizeSpeed" fill="#000000">71 (4)</text>
  <rect fill="blue" height="0.1" stroke="black" width="12" x="1095" y="648.0"/>
  <text x="1095" y="653.1" font-family="Tahoma" font-size="12" transform="rotate(90 1095,653.1)" text-rendering="optimizeSpeed" fill="#000000">72 (3)</text>
  <rect fill="blue" height="0.2" stroke="black" width="12" x="1110" y="647.9"/>
  <text x="1110" y="653.1" font-family="Tahoma" font-size="12" transform="rotate(90 1110,653.1)" text-rendering="optimizeSpeed" fill="#000000">73 (4)</text>
  <rect fill="blue" height="0.0" stroke="black" width="12" x="1125" y="648.0"/>
  <text x="1125" y="653.1" font-family="Tahoma" font-size="12" transform="rotate(90 1125,653.1)" text-rendering="optimizeSpeed" fill="#000000">74 (1)</text>
  <rect fill="blue" height="0.1" stroke="black" width="12" x="1140" y="648.0"/>
  <text x="1140" y="653.1" font-family="Tahoma" font-size="12" transform="rotate(90 1140,653.1)" text-rendering="optimizeSpeed" fill="#000000">75 (2)</text>
  <rect fill="blue" height="0.0" stroke="black" width="12" x="1155" y="648.0"/>
  <text x="1155" y="653.1" font-family="Tahoma" font-size="12" transform="rotate(90 1155,653.1)" text-rendering="optimizeSpeed" fill="#000000">76 (1)</text>
  <rect fill="blue" height="0.0" stroke="black" width="12" x="1170" y="648.0"/>
  <text x="1170" y="653.1" font-family="Tahoma" font-size="12" transform="rotate(90 1170,653.1)" text-rendering="optimizeSpeed" fill="#000000">78 (1)</text>
  <rect fill="blue" height="0.1" stroke="black" width="12" x="1185" y="648.0"/>
  <text x="1185" y="653.1" font-family="Tahoma" font-size="12" transform="rotate(90 1185,653.1)" text-rendering="optimizeSpeed" fill="#000000">79 (3)</text>
  <rect fill="blue" height="0.1" stroke="black" width="12" x="1200" y="648.0"/>
  <text x="1200" y="653.1" font-family="Tahoma" font-size="12" transform="rotate(90 1200,653.1)" text-rendering="optimizeSpeed" fill="#000000">80 (2)</text>
  <rect fill="blue" height="0.1" stroke="black" width="12" x="1215" y="648.0"/>
  <text x="1215" y="653.1" font-family="Tahoma" font-size="12" transform="rotate(90 1215,653.1)" text-rendering="optimizeSpeed" fill="#000000">82 (2)</text>
  <rect fill="blue" height="0.1" stroke="black" width="12" x="1230" y="648.0"/>
  <text x="1230" y="653.1" font-family="Tahoma" font-size="12" transform="rotate(90 1230,653.1)" text-rendering="optimizeSpeed" fill="#000000">83 (2)</text>
  <rect fill="blue" height="0.1" stroke="black" width="12" x="1245" y="648.0"/>
  <text x="1245" y="653.1" font-family="Tahoma" font-size="12" transform="rotate(90 1245,653.1)" text-rendering="optimizeSpeed" fill="#000000">84 (2)</text>
  <rect fill="blue" height="0.1" stroke="black" width="12" x="1260" y="648.0"/>
  <text x="1260" y="653.1" font-family="Tahoma" font-size="12" transform="rotate(90 1260,653.1)" text-rendering="optimizeSpeed" fill="#000000">85 (3)</text>
  <rect fill="blue" height="0.1" stroke="black" width="12" x="1275" y="648.0"/>
  <text x="1275" y="653.1" font-family="Tahoma" font-size="12" transform="rotate(90 1275,653.1)" text-rendering="optimizeSpeed" fill="#000000">86 (3)</text>
  <rect fill="blue" height="0.1" stroke="black" width="12" x="1290" y="648.0"/>
  <text x="1290" y="653.1" font-family="Tahoma" font-size="12" transform="rotate(90 1290,653.1)" text-rendering="optimizeSpeed" fill="#000000">87 (2)</text>
  <rect fill="blue" height="0.0" stroke="black" width="12" x="1305" y="648.0"/>
  <text x="1305" y="653.1" font-family="Tahoma" font-size="12" transform="rotate(90 1305,653.1)" text-rendering="optimizeSpeed" fill="#000000">88 (1)</text>
  <rect fill="blue" height="0.0" stroke="black" width="12" x="1320" y="648.0"/>
  <text x="1320" y="653.1" font-family="Tahoma" font-size="12" transform="rotate(90 1320,653.1)" text-rendering="optimizeSpeed" fill="#000000">90 (1)</text>
  <rect fill="blue" height="0.0" stroke="black" width="12" x="1335" y="648.0"/>
  <text x="1335" y="653.1" font-family="Tahoma" font-size="12" transform="rotate(90 1335,653.1)" text-rendering="optimizeSpeed" fill="#000000">95 (1)</text>
  <rect fill="blue" height="0.0" stroke="black" width="12" x="1350" y="648.0"/>
  <text x="1350" y="653.1" font-family="Tahoma" font-size="12" transform="rotate(90 1350,653.1)" text-rendering="optimizeSpeed" fill="#000000">96 (1)</text>
  <rect fill="blue" height="0.0" stroke="black" width="12" x="1365" y="648.0"/>
  <text x="1365" y="653.1" font-family="Tahoma" font-size="12" transform="rotate(90 1365,653.1)" text-rendering="optimizeSpeed" fill="#000000">97 (1)</text>
  <rect fill="blue" height="0.1" stroke="black" width="12" x="1380" y="648.0"/>
  <text x="1380" y="653.1" font-family="Tahoma" font-size="12" transform="rotate(90 1380,653.1)" text-rendering="optimizeSpeed" fill="#000000">98 (2)</text>
  <rect fill="blue" height="0.1" stroke="black" width="12" x="1395" y="648.0"/>
  <text x="1395" y="653.1" font-family="Tahoma" font-size="12" transform="rotate(90 1395,653.1)" text-rendering="optimizeSpeed" fill="#000000">100 (2)</text>
  <rect fill="blue" height="0.0" stroke="black" width="12" x="1410" y="648.0"/>
  <text x="1410" y="653.1" font-family="Tahoma" font-size="12" transform="rotate(90 1410,653.1)" text-rendering="optimizeSpeed" fill="#000000">101 (1)</text>
  <rect fill="blue" height="0.0" stroke="black" width="12" x="1425" y="648.0"/>
  <text x="1425" y="653.1" font-family="Tahoma" font-size="12" transform="rotate(90 1425,653.1)" text-rendering="optimizeSpeed" fill="#000000">102 (1)</text>
  <rect fill="blue" height="0.1" stroke="black" width="12" x="1440" y="648.0"/>
  <text x="1440" y="653.1" font-family="Tahoma" font-size="12" transform="rotate(90 1440,653.1)" text-rendering="optimizeSpeed" fill="#000000">103 (2)</text>
  <rect fill="blue" height="0.1" stroke="black" width="12" x="1455" y="648.0"/>
  <text x="1455" y="653.1" font-family="Tahoma" font-size="12" transform="rotate(90 1455,653.1)" text-rendering="optimizeSpeed" fill="#000000">104 (2)</text>
  <rect fill="blue" height="0.0" stroke="black" width="12" x="1470" y="648.0"/>
  <text x="1470" y="653.1" font-family="Tahoma" font-size="12" transform="rotate(90 1470,653.1)" text-rendering="optimizeSpeed" fill="#000000">106 (1)</text>
  <rect fill="blue" height="0.0" stroke="black" width="12" x="1485" y="648.0"/>
  <text x="1485" y="653.1" font-family="Tahoma" font-size="12" transform="rotate(90 1485,653.1)" text-rendering="optimizeSpeed" fill="#000000">108 (1)</text>
  <rect fill="blue" height="0.1" stroke="black" width="12" x="1500" y="648.0"/>
  <text x="1500" y="653.1" font-family="Tahoma" font-size="12" transform="rotate(90 1500,653.1)" text-rendering="optimizeSpeed" fill="#000000">109 (2)</text>
  <rect fill="blue" height="0.1" stroke="black" width="12" x="1515" y="648.0"/>
  <text x="1515" y="653.1" font-family="Tahoma" font-size="12" transform="rotate(90 1515,653.1)" text-rendering="optimizeSpeed" fill="#000000">110 (3)</text>
  <rect fill="blue" height="0.1" stroke="black" width="12" x="1530" y="648.0"/>
  <text x="1530" y="653.1" font-family="Tahoma" font-size="12" transform="rotate(90 1530,653.1)" text-rendering="optimizeSpeed" fill="#000000">111 (2)</text>
  <rect fill="blue" height="0.1" stroke="black" width="12" x="1545" y="648.0"/>
  <text x="1545" y="653.1" font-family="Tahoma" font-size="12" transform="rotate(90 1545,653.1)" text-rendering="optimizeSpeed" fill="#000000">115 (2)</text>
  <rect fill="blue" height="0.1" stroke="black" width="12" x="1560" y="648.0"/>
  <text x="1560" y="653.1" font-family="Tahoma" font-size="12" transform="rotate(90 1560,653.1)" text-rendering="optimizeSpeed" fill="#000000">116 (3)</text>
  <rect fill="blue" height="0.1" stroke="black" width="12" x="1575" y="648.0"/>
  <text x="1575" y="653.1" font-family="Tahoma" font-size="12" transform="rotate(90 1575,653.1)" text-rendering="optimizeSpeed" fill="#000000">123 (2)</text>
  <rect fill="blue" height="0.0" stroke="black" width="12" x="1590" y="648.0"/>
  <text x="1590" y="653.1" font-family="Tahoma" font-size="12" transform="rotate(90 1590,653.1)" text-rendering="optimizeSpeed" fill="#000000">125 (1)</text>
  <rect fill="blue" height="0.1" stroke="black" width="12" x="1605" y="648.0"/>
  <text x="1605" y="653.1" font-family="Tahoma" font-size="12" transform="rotate(90 1605,653.1)" text-rendering="optimizeSpeed" fill="#000000">127 (3)</text>
  <rect fill="blue" height="0.0" stroke="black" width="12" x="1620" y="648.0"/>
  <text x="1620" y="653.1" font-family="Tahoma" font-size="12" transform="rotate(90 1620,653.1)" text-rendering="optimizeSpeed" fill="#000000">128 (1)</text>
  <rect fill="blue" height="0.0" stroke="black" width="12" x="1635" y="648.0"/>
  <text x="1635" y="653.1" font-family="Tahoma" font-size="12" transform="rotate(90 1635,653.1)" text-rendering="optimizeSpeed" fill="#000000">130 (1)</text>
  <rect fill="blue" height="0.0" stroke="black" width="12" x="1650" y="648.0"/>
  <text x="1650" y="653.1" font-family="Tahoma" font-size="12" transform="rotate(90 1650,653.1)" text-rendering="optimizeSpeed" fill="#000000">136 (1)</text>
  <rect fill="blue" height="0.0" stroke="black" width="12" x="1665" y="648.0"/>
  <text x="1665" y="653.1" font-family="Tahoma" font-size="12" transform="rotate(90 1665,653.1)" text-rendering="optimizeSpeed" fill="#000000">137 (1)</text>
  <rect fill="blue" height="0.1" stroke="black" width="12" x="1680" y="648.0"/>
  <text x="1680" y="653.1" font-family="Tahoma" font-size="12" transform="rotate(90 1680,653.1)" text-rendering="optimizeSpeed" fill="#000000">144 (2)</text>
  <rect fill="blue" height="0.0" stroke="black" width="12" x="1695" y="648.0"/>
  <text x="1695" y="653.1" font-family="Tahoma" font-size="12" transform="rotate(90 1695,653.1)" text-rendering="optimizeSpeed" fill="#000000">148 (1)</text>
  <rect fill="blue" height="0.1" stroke="black" width="12" x="1710" y="648.0"/>
  <text x="1710" y="653.1" font-family="Tahoma" font-size="12" transform="rotate(90 1710,653.1)" text-rendering="optimizeSpeed" fill="#000000">158 (2)</text>
  <rect fill="blue" height="0.0" stroke="black" width="12" x="1725" y="648.0"/>
  <text x="1725" y="653.1" font-family="Tahoma" font-size="12" transform="rotate(90 1725,653.1)" text-rendering="optimizeSpeed" fill="#000000">175 (1)</text>
  <rect fill="blue" height="0.0" stroke="black" width="12" x="1740" y="648.0"/>
  <text x="1740" y="653.1" font-family="Tahoma" font-size="12" transform="rotate(90 1740,653.1)" text-rendering="optimizeSpeed" fill="#000000">190 (1)</text>
  <rect fill="blue" height="0.0" stroke="black" width="12" x="1755" y="648.0"/>
  <text x="1755" y="653.1" font-family="Tahoma" font-size="12" transform="rotate(90 1755,653.1)" text-rendering="optimizeSpeed" fill="#000000">193 (1)</text>
  <rect fill="blue" height="0.0" stroke="black" width="12" x="1770" y="648.0"/>
  <text x="1770" y="653.1" font-family="Tahoma" font-size="12" transform="rotate(90 1770,653.1)" text-rendering="optimizeSpeed" fill="#000000">216 (1)</text>
  <rect fill="blue" height="0.0" stroke="black" width="12" x="1785" y="648.0"/>
  <text x="1785" y="653.1" font-family="Tahoma" font-size="12" transform="rotate(90 1785,653.1)" text-rendering="optimizeSpeed" fill="#000000">219 (1)</text>
  <rect fill="blue" height="0.0" stroke="black" width="12" x="1800" y="648.0"/>
  <text x="1800" y="653.1" font-family="Tahoma" font-size="12" transform="rotate(90 1800,653.1)" text-rendering="optimizeSpeed" fill="#000000">221 (1)</text>
  <rect fill="blue" height="0.0" stroke="black" width="12" x="1815" y="648.0"/>
  <text x="1815" y="653.1" font-family="Tahoma" font-size="12" transform="rotate(90 1815,653.1)" text-rendering="optimizeSpeed" fill="#000000">238 (1)</text>
  <rect fill="blue" height="0.0" stroke="black" width="12" x="1830" y="648.0"/>
  <text x="1830" y="653.1" font-family="Tahoma" font-size="12" transform="rotate(90 1830,653.1)" text-rendering="optimizeSpeed" fill="#000000">245 (1)</text>
  <rect fill="blue" height="0.0" stroke="black" width="12" x="1845" y="648.0"/>
  <text x="1845" y="653.1" font-family="Tahoma" font-size="12" transform="rotate(90 1845,653.1)" text-rendering="optimizeSpeed" fill="#000000">253 (1)</text>
  <rect fill="blue" height="0.0" stroke="black" width="12" x="1860" y="648.0"/>
  <text x="1860" y="653.1" font-family="Tahoma" font-size="12" transform="rotate(90 1860,653.1)" text-rendering="optimizeSpeed" fill="#000000">256 (1)</text>
  <rect fill="blue" height="0.0" stroke="black" width="12" x="1875" y="648.0"/>
  <text x="1875" y="653.1" font-family="Tahoma" font-size="12" transform="rotate(90 1875,653.1)" text-rendering="optimizeSpeed" fill="#000000">311 (1)</text>
  <rect fill="blue" height="0.0" stroke="black" width="12" x="1890" y="648.0"/>
  <text x="1890" y="653.1" font-family="Tahoma" font-size="12" transform="rotate(90 1890,653.1)" text-rendering="optimizeSpeed" fill="#000000">319 (1)</text>
  <rect fill="blue" height="0.1" stroke="black" width="12" x="1905" y="648.0"/>
  <text x="1905" y="653.1" font-family="Tahoma" font-size="12" transform="rotate(90 1905,653.1)" text-rendering="optimizeSpeed" fill="#000000">336 (2)</text>
  <rect fill="blue" height="0.0" stroke="black" width="12" x="1920" y="648.0"/>
  <text x="1920" y="653.1" font-family="Tahoma" font-size="12" transform="rotate(90 1920,653.1)" text-rendering="optimizeSpeed" fill="#000000">349 (1)</text>
  <rect fill="blue" height="0.0" stroke="black" width="12" x="1935" y="648.0"/>
  <text x="1935" y="653.1" font-family="Tahoma" font-size="12" transform="rotate(90 1935,653.1)" text-rendering="optimizeSpeed" fill="#000000">367 (1)</text>
  <rect fill="blue" height="0.0" stroke="black" width="12" x="1950" y="648.0"/>
  <text x="1950" y="653.1" font-family="Tahoma" font-size="12" transform="rotate(90 1950,653.1)" text-rendering="optimizeSpeed" fill="#000000">396 (1)</text>
  <rect fill="blue" height="0.0" stroke="black" width="12" x="1965" y="648.0"/>
  <text x="1965" y="653.1" font-family="Tahoma" font-size="12" transform="rotate(90 1965,653.1)" text-rendering="optimizeSpeed" fill="#000000">3173 (1)</text>
  <text x="10" y="40" font-family="Tahoma" font-size="20" text-rendering="optimizeSpeed" fill="#000000">Executors per install (total: 27057)</text>
</svg>
