<svg xmlns="http://www.w3.org/2000/svg" version="1.1" preserveAspectRatio="xMidYMid meet" viewBox="0 0 995 580.6">
  <rect fill="blue" height="10.0" stroke="black" width="12" x="15" y="270.6"/>
  <text x="15" y="285.6" font-family="Tahoma" font-size="12" transform="rotate(90 15,285.6)" text-rendering="optimizeSpeed" fill="#000000">1.368 (100)</text>
  <rect fill="blue" height="13.2" stroke="black" width="12" x="30" y="267.4"/>
  <text x="30" y="285.6" font-family="Tahoma" font-size="12" transform="rotate(90 30,285.6)" text-rendering="optimizeSpeed" fill="#000000">1.369 (132)</text>
  <rect fill="blue" height="3.1" stroke="black" width="12" x="45" y="277.5"/>
  <text x="45" y="285.6" font-family="Tahoma" font-size="12" transform="rotate(90 45,285.6)" text-rendering="optimizeSpeed" fill="#000000">1.370 (31)</text>
  <rect fill="blue" height="9.4" stroke="black" width="12" x="60" y="271.2"/>
  <text x="60" y="285.6" font-family="Tahoma" font-size="12" transform="rotate(90 60,285.6)" text-rendering="optimizeSpeed" fill="#000000">1.371 (94)</text>
  <rect fill="blue" height="11.1" stroke="black" width="12" x="75" y="269.5"/>
  <text x="75" y="285.6" font-family="Tahoma" font-size="12" transform="rotate(90 75,285.6)" text-rendering="optimizeSpeed" fill="#000000">1.372 (111)</text>
  <rect fill="blue" height="12.1" stroke="black" width="12" x="90" y="268.5"/>
  <text x="90" y="285.6" font-family="Tahoma" font-size="12" transform="rotate(90 90,285.6)" text-rendering="optimizeSpeed" fill="#000000">1.373 (121)</text>
  <rect fill="blue" height="21.3" stroke="black" width="12" x="105" y="259.3"/>
  <text x="105" y="285.6" font-family="Tahoma" font-size="12" transform="rotate(90 105,285.6)" text-rendering="optimizeSpeed" fill="#000000">1.374 (213)</text>
  <rect fill="blue" height="14.6" stroke="black" width="12" x="120" y="266.0"/>
  <text x="120" y="285.6" font-family="Tahoma" font-size="12" transform="rotate(90 120,285.6)" text-rendering="optimizeSpeed" fill="#000000">1.375 (146)</text>
  <rect fill="blue" height="17.0" stroke="black" width="12" x="135" y="263.6"/>
  <text x="135" y="285.6" font-family="Tahoma" font-size="12" transform="rotate(90 135,285.6)" text-rendering="optimizeSpeed" fill="#000000">1.376 (170)</text>
  <rect fill="blue" height="18.3" stroke="black" width="12" x="150" y="262.3"/>
  <text x="150" y="285.6" font-family="Tahoma" font-size="12" transform="rotate(90 150,285.6)" text-rendering="optimizeSpeed" fill="#000000">1.377 (183)</text>
  <rect fill="blue" height="14.5" stroke="black" width="12" x="165" y="266.1"/>
  <text x="165" y="285.6" font-family="Tahoma" font-size="12" transform="rotate(90 165,285.6)" text-rendering="optimizeSpeed" fill="#000000">1.378 (145)</text>
  <rect fill="blue" height="31.4" stroke="black" width="12" x="180" y="249.2"/>
  <text x="180" y="285.6" font-family="Tahoma" font-size="12" transform="rotate(90 180,285.6)" text-rendering="optimizeSpeed" fill="#000000">1.379 (314)</text>
  <rect fill="blue" height="8.6" stroke="black" width="12" x="195" y="272.0"/>
  <text x="195" y="285.6" font-family="Tahoma" font-size="12" transform="rotate(90 195,285.6)" text-rendering="optimizeSpeed" fill="#000000">1.380 (86)</text>
  <rect fill="blue" height="30.2" stroke="black" width="12" x="210" y="250.4"/>
  <text x="210" y="285.6" font-family="Tahoma" font-size="12" transform="rotate(90 210,285.6)" text-rendering="optimizeSpeed" fill="#000000">1.381 (302)</text>
  <rect fill="blue" height="10.9" stroke="black" width="12" x="225" y="269.7"/>
  <text x="225" y="285.6" font-family="Tahoma" font-size="12" transform="rotate(90 225,285.6)" text-rendering="optimizeSpeed" fill="#000000">1.382 (109)</text>
  <rect fill="blue" height="20.7" stroke="black" width="12" x="240" y="259.9"/>
  <text x="240" y="285.6" font-family="Tahoma" font-size="12" transform="rotate(90 240,285.6)" text-rendering="optimizeSpeed" fill="#000000">1.383 (207)</text>
  <rect fill="blue" height="28.4" stroke="black" width="12" x="255" y="252.2"/>
  <text x="255" y="285.6" font-family="Tahoma" font-size="12" transform="rotate(90 255,285.6)" text-rendering="optimizeSpeed" fill="#000000">1.384 (284)</text>
  <rect fill="blue" height="15.9" stroke="black" width="12" x="270" y="264.7"/>
  <text x="270" y="285.6" font-family="Tahoma" font-size="12" transform="rotate(90 270,285.6)" text-rendering="optimizeSpeed" fill="#000000">1.385 (159)</text>
  <rect fill="blue" height="81.6" stroke="black" width="12" x="285" y="199.0"/>
  <text x="285" y="285.6" font-family="Tahoma" font-size="12" transform="rotate(90 285,285.6)" text-rendering="optimizeSpeed" fill="#000000">1.386 (816)</text>
  <rect fill="blue" height="9.0" stroke="black" width="12" x="300" y="271.6"/>
  <text x="300" y="285.6" font-family="Tahoma" font-size="12" transform="rotate(90 300,285.6)" text-rendering="optimizeSpeed" fill="#000000">1.387 (90)</text>
  <rect fill="blue" height="13.6" stroke="black" width="12" x="315" y="267.0"/>
  <text x="315" y="285.6" font-family="Tahoma" font-size="12" transform="rotate(90 315,285.6)" text-rendering="optimizeSpeed" fill="#000000">1.388 (136)</text>
  <rect fill="blue" height="28.2" stroke="black" width="12" x="330" y="252.4"/>
  <text x="330" y="285.6" font-family="Tahoma" font-size="12" transform="rotate(90 330,285.6)" text-rendering="optimizeSpeed" fill="#000000">1.389 (282)</text>
  <rect fill="blue" height="2.6" stroke="black" width="12" x="345" y="278.0"/>
  <text x="345" y="285.6" font-family="Tahoma" font-size="12" transform="rotate(90 345,285.6)" text-rendering="optimizeSpeed" fill="#000000">1.390 (26)</text>
  <rect fill="blue" height="7.7" stroke="black" width="12" x="360" y="272.9"/>
  <text x="360" y="285.6" font-family="Tahoma" font-size="12" transform="rotate(90 360,285.6)" text-rendering="optimizeSpeed" fill="#000000">1.391 (77)</text>
  <rect fill="blue" height="29.5" stroke="black" width="12" x="375" y="251.1"/>
  <text x="375" y="285.6" font-family="Tahoma" font-size="12" transform="rotate(90 375,285.6)" text-rendering="optimizeSpeed" fill="#000000">1.392 (295)</text>
  <rect fill="blue" height="0.2" stroke="black" width="12" x="390" y="280.4"/>
  <text x="390" y="285.6" font-family="Tahoma" font-size="12" transform="rotate(90 390,285.6)" text-rendering="optimizeSpeed" fill="#000000">1.392.LI8 (2)</text>
  <rect fill="blue" height="0.1" stroke="black" width="12" x="405" y="280.5"/>
  <text x="405" y="285.6" font-family="Tahoma" font-size="12" transform="rotate(90 405,285.6)" text-rendering="optimizeSpeed" fill="#000000">1.392.LI9 (1)</text>
  <rect fill="blue" height="57.2" stroke="black" width="12" x="420" y="223.4"/>
  <text x="420" y="285.6" font-family="Tahoma" font-size="12" transform="rotate(90 420,285.6)" text-rendering="optimizeSpeed" fill="#000000">1.393 (572)</text>
  <rect fill="blue" height="51.1" stroke="black" width="12" x="435" y="229.5"/>
  <text x="435" y="285.6" font-family="Tahoma" font-size="12" transform="rotate(90 435,285.6)" text-rendering="optimizeSpeed" fill="#000000">1.394 (511)</text>
  <rect fill="blue" height="147.7" stroke="black" width="12" x="450" y="132.9"/>
  <text x="450" y="285.6" font-family="Tahoma" font-size="12" transform="rotate(90 450,285.6)" text-rendering="optimizeSpeed" fill="#000000">1.395 (1477)</text>
  <rect fill="blue" height="89.8" stroke="black" width="12" x="465" y="190.8"/>
  <text x="465" y="285.6" font-family="Tahoma" font-size="12" transform="rotate(90 465,285.6)" text-rendering="optimizeSpeed" fill="#000000">1.395.1 (898)</text>
  <rect fill="blue" height="12.9" stroke="black" width="12" x="480" y="267.7"/>
  <text x="480" y="285.6" font-family="Tahoma" font-size="12" transform="rotate(90 480,285.6)" text-rendering="optimizeSpeed" fill="#000000">1.396 (129)</text>
  <rect fill="blue" height="9.8" stroke="black" width="12" x="495" y="270.8"/>
  <text x="495" y="285.6" font-family="Tahoma" font-size="12" transform="rotate(90 495,285.6)" text-rendering="optimizeSpeed" fill="#000000">1.397 (98)</text>
  <rect fill="blue" height="9.5" stroke="black" width="12" x="510" y="271.1"/>
  <text x="510" y="285.6" font-family="Tahoma" font-size="12" transform="rotate(90 510,285.6)" text-rendering="optimizeSpeed" fill="#000000">1.398 (95)</text>
  <rect fill="blue" height="23.7" stroke="black" width="12" x="525" y="256.9"/>
  <text x="525" y="285.6" font-family="Tahoma" font-size="12" transform="rotate(90 525,285.6)" text-rendering="optimizeSpeed" fill="#000000">1.399 (237)</text>
  <rect fill="blue" height="17.2" stroke="black" width="12" x="540" y="263.4"/>
  <text x="540" y="285.6" font-family="Tahoma" font-size="12" transform="rotate(90 540,285.6)" text-rendering="optimizeSpeed" fill="#000000">1.400 (172)</text>
  <rect fill="blue" height="0.1" stroke="black" width="12" x="555" y="280.5"/>
  <text x="555" y="285.6" font-family="Tahoma" font-size="12" transform="rotate(90 555,285.6)" text-rendering="optimizeSpeed" fill="#000000">1.400.0.5 (1)</text>
  <rect fill="blue" height="0.4" stroke="black" width="12" x="570" y="280.2"/>
  <text x="570" y="285.6" font-family="Tahoma" font-size="12" transform="rotate(90 570,285.6)" text-rendering="optimizeSpeed" fill="#000000">1.400.0.6 (4)</text>
  <rect fill="blue" height="0.7" stroke="black" width="12" x="585" y="279.9"/>
  <text x="585" y="285.6" font-family="Tahoma" font-size="12" transform="rotate(90 585,285.6)" text-rendering="optimizeSpeed" fill="#000000">1.400.0.8 (7)</text>
  <rect fill="blue" height="20.3" stroke="black" width="12" x="600" y="260.3"/>
  <text x="600" y="285.6" font-family="Tahoma" font-size="12" transform="rotate(90 600,285.6)" text-rendering="optimizeSpeed" fill="#000000">1.401 (203)</text>
  <rect fill="blue" height="24.7" stroke="black" width="12" x="615" y="255.9"/>
  <text x="615" y="285.6" font-family="Tahoma" font-size="12" transform="rotate(90 615,285.6)" text-rendering="optimizeSpeed" fill="#000000">1.403 (247)</text>
  <rect fill="blue" height="29.2" stroke="black" width="12" x="630" y="251.4"/>
  <text x="630" y="285.6" font-family="Tahoma" font-size="12" transform="rotate(90 630,285.6)" text-rendering="optimizeSpeed" fill="#000000">1.404 (292)</text>
  <rect fill="blue" height="26.9" stroke="black" width="12" x="645" y="253.7"/>
  <text x="645" y="285.6" font-family="Tahoma" font-size="12" transform="rotate(90 645,285.6)" text-rendering="optimizeSpeed" fill="#000000">1.405 (269)</text>
  <rect fill="blue" height="25.0" stroke="black" width="12" x="660" y="255.6"/>
  <text x="660" y="285.6" font-family="Tahoma" font-size="12" transform="rotate(90 660,285.6)" text-rendering="optimizeSpeed" fill="#000000">1.406 (250)</text>
  <rect fill="blue" height="8.2" stroke="black" width="12" x="675" y="272.4"/>
  <text x="675" y="285.6" font-family="Tahoma" font-size="12" transform="rotate(90 675,285.6)" text-rendering="optimizeSpeed" fill="#000000">1.407 (82)</text>
  <rect fill="blue" height="28.8" stroke="black" width="12" x="690" y="251.8"/>
  <text x="690" y="285.6" font-family="Tahoma" font-size="12" transform="rotate(90 690,285.6)" text-rendering="optimizeSpeed" fill="#000000">1.408 (288)</text>
  <rect fill="blue" height="34.0" stroke="black" width="12" x="705" y="246.6"/>
  <text x="705" y="285.6" font-family="Tahoma" font-size="12" transform="rotate(90 705,285.6)" text-rendering="optimizeSpeed" fill="#000000">1.409 (340)</text>
  <rect fill="blue" height="48.9" stroke="black" width="12" x="720" y="231.7"/>
  <text x="720" y="285.6" font-family="Tahoma" font-size="12" transform="rotate(90 720,285.6)" text-rendering="optimizeSpeed" fill="#000000">1.409.1 (489)</text>
  <rect fill="blue" height="54.4" stroke="black" width="12" x="735" y="226.2"/>
  <text x="735" y="285.6" font-family="Tahoma" font-size="12" transform="rotate(90 735,285.6)" text-rendering="optimizeSpeed" fill="#000000">1.410 (544)</text>
  <rect fill="blue" height="47.7" stroke="black" width="12" x="750" y="232.9"/>
  <text x="750" y="285.6" font-family="Tahoma" font-size="12" transform="rotate(90 750,285.6)" text-rendering="optimizeSpeed" fill="#000000">1.411 (477)</text>
  <rect fill="blue" height="39.5" stroke="black" width="12" x="765" y="241.1"/>
  <text x="765" y="285.6" font-family="Tahoma" font-size="12" transform="rotate(90 765,285.6)" text-rendering="optimizeSpeed" fill="#000000">1.412 (395)</text>
  <rect fill="blue" height="105.0" stroke="black" width="12" x="780" y="175.6"/>
  <text x="780" y="285.6" font-family="Tahoma" font-size="12" transform="rotate(90 780,285.6)" text-rendering="optimizeSpeed" fill="#000000">1.413 (1050)</text>
  <rect fill="blue" height="84.1" stroke="black" width="12" x="795" y="196.5"/>
  <text x="795" y="285.6" font-family="Tahoma" font-size="12" transform="rotate(90 795,285.6)" text-rendering="optimizeSpeed" fill="#000000">1.414 (841)</text>
  <rect fill="blue" height="0.2" stroke="black" width="12" x="810" y="280.4"/>
  <text x="810" y="285.6" font-family="Tahoma" font-size="12" transform="rotate(90 810,285.6)" text-rendering="optimizeSpeed" fill="#000000">1.415-alpha-cb-1 (2)</text>
  <rect fill="blue" height="60.3" stroke="black" width="12" x="825" y="220.3"/>
  <text x="825" y="285.6" font-family="Tahoma" font-size="12" transform="rotate(90 825,285.6)" text-rendering="optimizeSpeed" fill="#000000">1.415 (603)</text>
  <rect fill="blue" height="16.3" stroke="black" width="12" x="840" y="264.3"/>
  <text x="840" y="285.6" font-family="Tahoma" font-size="12" transform="rotate(90 840,285.6)" text-rendering="optimizeSpeed" fill="#000000">1.416 (163)</text>
  <rect fill="blue" height="88.8" stroke="black" width="12" x="855" y="191.8"/>
  <text x="855" y="285.6" font-family="Tahoma" font-size="12" transform="rotate(90 855,285.6)" text-rendering="optimizeSpeed" fill="#000000">1.417 (888)</text>
  <rect fill="blue" height="158.4" stroke="black" width="12" x="870" y="122.2"/>
  <text x="870" y="285.6" font-family="Tahoma" font-size="12" transform="rotate(90 870,285.6)" text-rendering="optimizeSpeed" fill="#000000">1.418 (1584)</text>
  <rect fill="blue" height="136.3" stroke="black" width="12" x="885" y="144.3"/>
  <text x="885" y="285.6" font-family="Tahoma" font-size="12" transform="rotate(90 885,285.6)" text-rendering="optimizeSpeed" fill="#000000">1.419 (1363)</text>
  <rect fill="blue" height="171.3" stroke="black" width="12" x="900" y="109.3"/>
  <text x="900" y="285.6" font-family="Tahoma" font-size="12" transform="rotate(90 900,285.6)" text-rendering="optimizeSpeed" fill="#000000">1.420 (1713)</text>
  <rect fill="blue" height="230.6" stroke="black" width="12" x="915" y="50.0"/>
  <text x="915" y="285.6" font-family="Tahoma" font-size="12" transform="rotate(90 915,285.6)" text-rendering="optimizeSpeed" fill="#000000">1.421 (2306)</text>
  <rect fill="blue" height="2.6" stroke="black" width="12" x="930" y="278.0"/>
  <text x="930" y="285.6" font-family="Tahoma" font-size="12" transform="rotate(90 930,285.6)" text-rendering="optimizeSpeed" fill="#000000">1.422 (26)</text>
  <rect fill="blue" height="183.3" stroke="black" width="12" x="945" y="97.3"/>
  <text x="945" y="285.6" font-family="Tahoma" font-size="12" transform="rotate(90 945,285.6)" text-rendering="optimizeSpeed" fill="#000000">1.423 (1833)</text>
  <text x="10" y="40" font-family="Tahoma" font-size="20" text-rendering="optimizeSpeed" fill="#000000">Jenkins installations (total: 25081)</text>
</svg>
