<svg xmlns="http://www.w3.org/2000/svg" version="1.1" preserveAspectRatio="xMidYMid meet" viewBox="0 0 1715 860.2">
  <rect fill="blue" height="77.8" stroke="black" width="12" x="15" y="482.4"/>
  <text x="15" y="565.2" font-family="Tahoma" font-size="12" transform="rotate(90 15,565.2)" text-rendering="optimizeSpeed" fill="#000000">0 (1945)</text>
  <rect fill="blue" height="91.6" stroke="black" width="12" x="30" y="468.5"/>
  <text x="30" y="565.2" font-family="Tahoma" font-size="12" transform="rotate(90 30,565.2)" text-rendering="optimizeSpeed" fill="#000000">1 (2291)</text>
  <rect fill="blue" height="510.2" stroke="black" width="12" x="45" y="50.0"/>
  <text x="45" y="565.2" font-family="Tahoma" font-size="12" transform="rotate(90 45,565.2)" text-rendering="optimizeSpeed" fill="#000000">2 (12754)</text>
  <rect fill="blue" height="45.0" stroke="black" width="12" x="60" y="515.2"/>
  <text x="60" y="565.2" font-family="Tahoma" font-size="12" transform="rotate(90 60,565.2)" text-rendering="optimizeSpeed" fill="#000000">3 (1124)</text>
  <rect fill="blue" height="46.4" stroke="black" width="12" x="75" y="513.8"/>
  <text x="75" y="565.2" font-family="Tahoma" font-size="12" transform="rotate(90 75,565.2)" text-rendering="optimizeSpeed" fill="#000000">4 (1159)</text>
  <rect fill="blue" height="24.7" stroke="black" width="12" x="90" y="535.5"/>
  <text x="90" y="565.2" font-family="Tahoma" font-size="12" transform="rotate(90 90,565.2)" text-rendering="optimizeSpeed" fill="#000000">5 (617)</text>
  <rect fill="blue" height="16.2" stroke="black" width="12" x="105" y="543.9"/>
  <text x="105" y="565.2" font-family="Tahoma" font-size="12" transform="rotate(90 105,565.2)" text-rendering="optimizeSpeed" fill="#000000">6 (406)</text>
  <rect fill="blue" height="8.4" stroke="black" width="12" x="120" y="551.7"/>
  <text x="120" y="565.2" font-family="Tahoma" font-size="12" transform="rotate(90 120,565.2)" text-rendering="optimizeSpeed" fill="#000000">7 (211)</text>
  <rect fill="blue" height="11.9" stroke="black" width="12" x="135" y="548.2"/>
  <text x="135" y="565.2" font-family="Tahoma" font-size="12" transform="rotate(90 135,565.2)" text-rendering="optimizeSpeed" fill="#000000">8 (298)</text>
  <rect fill="blue" height="5.2" stroke="black" width="12" x="150" y="555.0"/>
  <text x="150" y="565.2" font-family="Tahoma" font-size="12" transform="rotate(90 150,565.2)" text-rendering="optimizeSpeed" fill="#000000">9 (129)</text>
  <rect fill="blue" height="10.6" stroke="black" width="12" x="165" y="549.6"/>
  <text x="165" y="565.2" font-family="Tahoma" font-size="12" transform="rotate(90 165,565.2)" text-rendering="optimizeSpeed" fill="#000000">10 (264)</text>
  <rect fill="blue" height="3.8" stroke="black" width="12" x="180" y="556.4"/>
  <text x="180" y="565.2" font-family="Tahoma" font-size="12" transform="rotate(90 180,565.2)" text-rendering="optimizeSpeed" fill="#000000">11 (94)</text>
  <rect fill="blue" height="4.5" stroke="black" width="12" x="195" y="555.7"/>
  <text x="195" y="565.2" font-family="Tahoma" font-size="12" transform="rotate(90 195,565.2)" text-rendering="optimizeSpeed" fill="#000000">12 (112)</text>
  <rect fill="blue" height="2.8" stroke="black" width="12" x="210" y="557.4"/>
  <text x="210" y="565.2" font-family="Tahoma" font-size="12" transform="rotate(90 210,565.2)" text-rendering="optimizeSpeed" fill="#000000">13 (70)</text>
  <rect fill="blue" height="3.2" stroke="black" width="12" x="225" y="557.0"/>
  <text x="225" y="565.2" font-family="Tahoma" font-size="12" transform="rotate(90 225,565.2)" text-rendering="optimizeSpeed" fill="#000000">14 (79)</text>
  <rect fill="blue" height="3.0" stroke="black" width="12" x="240" y="557.1"/>
  <text x="240" y="565.2" font-family="Tahoma" font-size="12" transform="rotate(90 240,565.2)" text-rendering="optimizeSpeed" fill="#000000">15 (76)</text>
  <rect fill="blue" height="2.7" stroke="black" width="12" x="255" y="557.4"/>
  <text x="255" y="565.2" font-family="Tahoma" font-size="12" transform="rotate(90 255,565.2)" text-rendering="optimizeSpeed" fill="#000000">16 (68)</text>
  <rect fill="blue" height="1.4" stroke="black" width="12" x="270" y="558.8"/>
  <text x="270" y="565.2" font-family="Tahoma" font-size="12" transform="rotate(90 270,565.2)" text-rendering="optimizeSpeed" fill="#000000">17 (34)</text>
  <rect fill="blue" height="1.9" stroke="black" width="12" x="285" y="558.2"/>
  <text x="285" y="565.2" font-family="Tahoma" font-size="12" transform="rotate(90 285,565.2)" text-rendering="optimizeSpeed" fill="#000000">18 (48)</text>
  <rect fill="blue" height="1.1" stroke="black" width="12" x="300" y="559.1"/>
  <text x="300" y="565.2" font-family="Tahoma" font-size="12" transform="rotate(90 300,565.2)" text-rendering="optimizeSpeed" fill="#000000">19 (27)</text>
  <rect fill="blue" height="3.0" stroke="black" width="12" x="315" y="557.2"/>
  <text x="315" y="565.2" font-family="Tahoma" font-size="12" transform="rotate(90 315,565.2)" text-rendering="optimizeSpeed" fill="#000000">20 (74)</text>
  <rect fill="blue" height="1.2" stroke="black" width="12" x="330" y="558.9"/>
  <text x="330" y="565.2" font-family="Tahoma" font-size="12" transform="rotate(90 330,565.2)" text-rendering="optimizeSpeed" fill="#000000">21 (31)</text>
  <rect fill="blue" height="1.2" stroke="black" width="12" x="345" y="559.0"/>
  <text x="345" y="565.2" font-family="Tahoma" font-size="12" transform="rotate(90 345,565.2)" text-rendering="optimizeSpeed" fill="#000000">22 (29)</text>
  <rect fill="blue" height="0.4" stroke="black" width="12" x="360" y="559.8"/>
  <text x="360" y="565.2" font-family="Tahoma" font-size="12" transform="rotate(90 360,565.2)" text-rendering="optimizeSpeed" fill="#000000">23 (10)</text>
  <rect fill="blue" height="0.8" stroke="black" width="12" x="375" y="559.3"/>
  <text x="375" y="565.2" font-family="Tahoma" font-size="12" transform="rotate(90 375,565.2)" text-rendering="optimizeSpeed" fill="#000000">24 (21)</text>
  <rect fill="blue" height="1.0" stroke="black" width="12" x="390" y="559.1"/>
  <text x="390" y="565.2" font-family="Tahoma" font-size="12" transform="rotate(90 390,565.2)" text-rendering="optimizeSpeed" fill="#000000">25 (26)</text>
  <rect fill="blue" height="0.8" stroke="black" width="12" x="405" y="559.4"/>
  <text x="405" y="565.2" font-family="Tahoma" font-size="12" transform="rotate(90 405,565.2)" text-rendering="optimizeSpeed" fill="#000000">26 (20)</text>
  <rect fill="blue" height="0.5" stroke="black" width="12" x="420" y="559.7"/>
  <text x="420" y="565.2" font-family="Tahoma" font-size="12" transform="rotate(90 420,565.2)" text-rendering="optimizeSpeed" fill="#000000">27 (12)</text>
  <rect fill="blue" height="0.4" stroke="black" width="12" x="435" y="559.7"/>
  <text x="435" y="565.2" font-family="Tahoma" font-size="12" transform="rotate(90 435,565.2)" text-rendering="optimizeSpeed" fill="#000000">28 (11)</text>
  <rect fill="blue" height="0.6" stroke="black" width="12" x="450" y="559.6"/>
  <text x="450" y="565.2" font-family="Tahoma" font-size="12" transform="rotate(90 450,565.2)" text-rendering="optimizeSpeed" fill="#000000">29 (15)</text>
  <rect fill="blue" height="0.7" stroke="black" width="12" x="465" y="559.4"/>
  <text x="465" y="565.2" font-family="Tahoma" font-size="12" transform="rotate(90 465,565.2)" text-rendering="optimizeSpeed" fill="#000000">30 (18)</text>
  <rect fill="blue" height="0.4" stroke="black" width="12" x="480" y="559.8"/>
  <text x="480" y="565.2" font-family="Tahoma" font-size="12" transform="rotate(90 480,565.2)" text-rendering="optimizeSpeed" fill="#000000">31 (9)</text>
  <rect fill="blue" height="0.4" stroke="black" width="12" x="495" y="559.8"/>
  <text x="495" y="565.2" font-family="Tahoma" font-size="12" transform="rotate(90 495,565.2)" text-rendering="optimizeSpeed" fill="#000000">32 (10)</text>
  <rect fill="blue" height="0.3" stroke="black" width="12" x="510" y="559.8"/>
  <text x="510" y="565.2" font-family="Tahoma" font-size="12" transform="rotate(90 510,565.2)" text-rendering="optimizeSpeed" fill="#000000">33 (8)</text>
  <rect fill="blue" height="0.4" stroke="black" width="12" x="525" y="559.7"/>
  <text x="525" y="565.2" font-family="Tahoma" font-size="12" transform="rotate(90 525,565.2)" text-rendering="optimizeSpeed" fill="#000000">34 (11)</text>
  <rect fill="blue" height="0.4" stroke="black" width="12" x="540" y="559.7"/>
  <text x="540" y="565.2" font-family="Tahoma" font-size="12" transform="rotate(90 540,565.2)" text-rendering="optimizeSpeed" fill="#000000">35 (11)</text>
  <rect fill="blue" height="0.4" stroke="black" width="12" x="555" y="559.7"/>
  <text x="555" y="565.2" font-family="Tahoma" font-size="12" transform="rotate(90 555,565.2)" text-rendering="optimizeSpeed" fill="#000000">36 (11)</text>
  <rect fill="blue" height="0.3" stroke="black" width="12" x="570" y="559.8"/>
  <text x="570" y="565.2" font-family="Tahoma" font-size="12" transform="rotate(90 570,565.2)" text-rendering="optimizeSpeed" fill="#000000">37 (8)</text>
  <rect fill="blue" height="0.2" stroke="black" width="12" x="585" y="560.0"/>
  <text x="585" y="565.2" font-family="Tahoma" font-size="12" transform="rotate(90 585,565.2)" text-rendering="optimizeSpeed" fill="#000000">38 (4)</text>
  <rect fill="blue" height="0.2" stroke="black" width="12" x="600" y="559.9"/>
  <text x="600" y="565.2" font-family="Tahoma" font-size="12" transform="rotate(90 600,565.2)" text-rendering="optimizeSpeed" fill="#000000">39 (6)</text>
  <rect fill="blue" height="0.3" stroke="black" width="12" x="615" y="559.8"/>
  <text x="615" y="565.2" font-family="Tahoma" font-size="12" transform="rotate(90 615,565.2)" text-rendering="optimizeSpeed" fill="#000000">40 (8)</text>
  <rect fill="blue" height="0.1" stroke="black" width="12" x="630" y="560.1"/>
  <text x="630" y="565.2" font-family="Tahoma" font-size="12" transform="rotate(90 630,565.2)" text-rendering="optimizeSpeed" fill="#000000">41 (2)</text>
  <rect fill="blue" height="0.2" stroke="black" width="12" x="645" y="560.0"/>
  <text x="645" y="565.2" font-family="Tahoma" font-size="12" transform="rotate(90 645,565.2)" text-rendering="optimizeSpeed" fill="#000000">42 (5)</text>
  <rect fill="blue" height="0.1" stroke="black" width="12" x="660" y="560.1"/>
  <text x="660" y="565.2" font-family="Tahoma" font-size="12" transform="rotate(90 660,565.2)" text-rendering="optimizeSpeed" fill="#000000">43 (2)</text>
  <rect fill="blue" height="0.2" stroke="black" width="12" x="675" y="560.0"/>
  <text x="675" y="565.2" font-family="Tahoma" font-size="12" transform="rotate(90 675,565.2)" text-rendering="optimizeSpeed" fill="#000000">44 (5)</text>
  <rect fill="blue" height="0.1" stroke="black" width="12" x="690" y="560.1"/>
  <text x="690" y="565.2" font-family="Tahoma" font-size="12" transform="rotate(90 690,565.2)" text-rendering="optimizeSpeed" fill="#000000">45 (2)</text>
  <rect fill="blue" height="0.1" stroke="black" width="12" x="705" y="560.0"/>
  <text x="705" y="565.2" font-family="Tahoma" font-size="12" transform="rotate(90 705,565.2)" text-rendering="optimizeSpeed" fill="#000000">46 (3)</text>
  <rect fill="blue" height="0.0" stroke="black" width="12" x="720" y="560.1"/>
  <text x="720" y="565.2" font-family="Tahoma" font-size="12" transform="rotate(90 720,565.2)" text-rendering="optimizeSpeed" fill="#000000">47 (1)</text>
  <rect fill="blue" height="0.3" stroke="black" width="12" x="735" y="559.9"/>
  <text x="735" y="565.2" font-family="Tahoma" font-size="12" transform="rotate(90 735,565.2)" text-rendering="optimizeSpeed" fill="#000000">48 (7)</text>
  <rect fill="blue" height="0.0" stroke="black" width="12" x="750" y="560.1"/>
  <text x="750" y="565.2" font-family="Tahoma" font-size="12" transform="rotate(90 750,565.2)" text-rendering="optimizeSpeed" fill="#000000">49 (1)</text>
  <rect fill="blue" height="0.2" stroke="black" width="12" x="765" y="560.0"/>
  <text x="765" y="565.2" font-family="Tahoma" font-size="12" transform="rotate(90 765,565.2)" text-rendering="optimizeSpeed" fill="#000000">50 (4)</text>
  <rect fill="blue" height="0.2" stroke="black" width="12" x="780" y="560.0"/>
  <text x="780" y="565.2" font-family="Tahoma" font-size="12" transform="rotate(90 780,565.2)" text-rendering="optimizeSpeed" fill="#000000">51 (5)</text>
  <rect fill="blue" height="0.2" stroke="black" width="12" x="795" y="559.9"/>
  <text x="795" y="565.2" font-family="Tahoma" font-size="12" transform="rotate(90 795,565.2)" text-rendering="optimizeSpeed" fill="#000000">52 (6)</text>
  <rect fill="blue" height="0.2" stroke="black" width="12" x="810" y="560.0"/>
  <text x="810" y="565.2" font-family="Tahoma" font-size="12" transform="rotate(90 810,565.2)" text-rendering="optimizeSpeed" fill="#000000">54 (4)</text>
  <rect fill="blue" height="0.0" stroke="black" width="12" x="825" y="560.1"/>
  <text x="825" y="565.2" font-family="Tahoma" font-size="12" transform="rotate(90 825,565.2)" text-rendering="optimizeSpeed" fill="#000000">55 (1)</text>
  <rect fill="blue" height="0.1" stroke="black" width="12" x="840" y="560.1"/>
  <text x="840" y="565.2" font-family="Tahoma" font-size="12" transform="rotate(90 840,565.2)" text-rendering="optimizeSpeed" fill="#000000">56 (2)</text>
  <rect fill="blue" height="0.1" stroke="black" width="12" x="855" y="560.1"/>
  <text x="855" y="565.2" font-family="Tahoma" font-size="12" transform="rotate(90 855,565.2)" text-rendering="optimizeSpeed" fill="#000000">57 (2)</text>
  <rect fill="blue" height="0.1" stroke="black" width="12" x="870" y="560.1"/>
  <text x="870" y="565.2" font-family="Tahoma" font-size="12" transform="rotate(90 870,565.2)" text-rendering="optimizeSpeed" fill="#000000">58 (2)</text>
  <rect fill="blue" height="0.0" stroke="black" width="12" x="885" y="560.1"/>
  <text x="885" y="565.2" font-family="Tahoma" font-size="12" transform="rotate(90 885,565.2)" text-rendering="optimizeSpeed" fill="#000000">60 (1)</text>
  <rect fill="blue" height="0.2" stroke="black" width="12" x="900" y="560.0"/>
  <text x="900" y="565.2" font-family="Tahoma" font-size="12" transform="rotate(90 900,565.2)" text-rendering="optimizeSpeed" fill="#000000">63 (5)</text>
  <rect fill="blue" height="0.1" stroke="black" width="12" x="915" y="560.1"/>
  <text x="915" y="565.2" font-family="Tahoma" font-size="12" transform="rotate(90 915,565.2)" text-rendering="optimizeSpeed" fill="#000000">64 (2)</text>
  <rect fill="blue" height="0.1" stroke="black" width="12" x="930" y="560.1"/>
  <text x="930" y="565.2" font-family="Tahoma" font-size="12" transform="rotate(90 930,565.2)" text-rendering="optimizeSpeed" fill="#000000">66 (2)</text>
  <rect fill="blue" height="0.0" stroke="black" width="12" x="945" y="560.1"/>
  <text x="945" y="565.2" font-family="Tahoma" font-size="12" transform="rotate(90 945,565.2)" text-rendering="optimizeSpeed" fill="#000000">67 (1)</text>
  <rect fill="blue" height="0.1" stroke="black" width="12" x="960" y="560.0"/>
  <text x="960" y="565.2" font-family="Tahoma" font-size="12" transform="rotate(90 960,565.2)" text-rendering="optimizeSpeed" fill="#000000">69 (3)</text>
  <rect fill="blue" height="0.1" stroke="black" width="12" x="975" y="560.1"/>
  <text x="975" y="565.2" font-family="Tahoma" font-size="12" transform="rotate(90 975,565.2)" text-rendering="optimizeSpeed" fill="#000000">70 (2)</text>
  <rect fill="blue" height="0.0" stroke="black" width="12" x="990" y="560.1"/>
  <text x="990" y="565.2" font-family="Tahoma" font-size="12" transform="rotate(90 990,565.2)" text-rendering="optimizeSpeed" fill="#000000">71 (1)</text>
  <rect fill="blue" height="0.0" stroke="black" width="12" x="1005" y="560.1"/>
  <text x="1005" y="565.2" font-family="Tahoma" font-size="12" transform="rotate(90 1005,565.2)" text-rendering="optimizeSpeed" fill="#000000">72 (1)</text>
  <rect fill="blue" height="0.0" stroke="black" width="12" x="1020" y="560.1"/>
  <text x="1020" y="565.2" font-family="Tahoma" font-size="12" transform="rotate(90 1020,565.2)" text-rendering="optimizeSpeed" fill="#000000">76 (1)</text>
  <rect fill="blue" height="0.1" stroke="black" width="12" x="1035" y="560.1"/>
  <text x="1035" y="565.2" font-family="Tahoma" font-size="12" transform="rotate(90 1035,565.2)" text-rendering="optimizeSpeed" fill="#000000">80 (2)</text>
  <rect fill="blue" height="0.1" stroke="black" width="12" x="1050" y="560.0"/>
  <text x="1050" y="565.2" font-family="Tahoma" font-size="12" transform="rotate(90 1050,565.2)" text-rendering="optimizeSpeed" fill="#000000">81 (3)</text>
  <rect fill="blue" height="0.0" stroke="black" width="12" x="1065" y="560.1"/>
  <text x="1065" y="565.2" font-family="Tahoma" font-size="12" transform="rotate(90 1065,565.2)" text-rendering="optimizeSpeed" fill="#000000">84 (1)</text>
  <rect fill="blue" height="0.0" stroke="black" width="12" x="1080" y="560.1"/>
  <text x="1080" y="565.2" font-family="Tahoma" font-size="12" transform="rotate(90 1080,565.2)" text-rendering="optimizeSpeed" fill="#000000">87 (1)</text>
  <rect fill="blue" height="0.0" stroke="black" width="12" x="1095" y="560.1"/>
  <text x="1095" y="565.2" font-family="Tahoma" font-size="12" transform="rotate(90 1095,565.2)" text-rendering="optimizeSpeed" fill="#000000">88 (1)</text>
  <rect fill="blue" height="0.0" stroke="black" width="12" x="1110" y="560.1"/>
  <text x="1110" y="565.2" font-family="Tahoma" font-size="12" transform="rotate(90 1110,565.2)" text-rendering="optimizeSpeed" fill="#000000">90 (1)</text>
  <rect fill="blue" height="0.1" stroke="black" width="12" x="1125" y="560.1"/>
  <text x="1125" y="565.2" font-family="Tahoma" font-size="12" transform="rotate(90 1125,565.2)" text-rendering="optimizeSpeed" fill="#000000">91 (2)</text>
  <rect fill="blue" height="0.0" stroke="black" width="12" x="1140" y="560.1"/>
  <text x="1140" y="565.2" font-family="Tahoma" font-size="12" transform="rotate(90 1140,565.2)" text-rendering="optimizeSpeed" fill="#000000">92 (1)</text>
  <rect fill="blue" height="0.1" stroke="black" width="12" x="1155" y="560.1"/>
  <text x="1155" y="565.2" font-family="Tahoma" font-size="12" transform="rotate(90 1155,565.2)" text-rendering="optimizeSpeed" fill="#000000">93 (2)</text>
  <rect fill="blue" height="0.0" stroke="black" width="12" x="1170" y="560.1"/>
  <text x="1170" y="565.2" font-family="Tahoma" font-size="12" transform="rotate(90 1170,565.2)" text-rendering="optimizeSpeed" fill="#000000">95 (1)</text>
  <rect fill="blue" height="0.0" stroke="black" width="12" x="1185" y="560.1"/>
  <text x="1185" y="565.2" font-family="Tahoma" font-size="12" transform="rotate(90 1185,565.2)" text-rendering="optimizeSpeed" fill="#000000">97 (1)</text>
  <rect fill="blue" height="0.0" stroke="black" width="12" x="1200" y="560.1"/>
  <text x="1200" y="565.2" font-family="Tahoma" font-size="12" transform="rotate(90 1200,565.2)" text-rendering="optimizeSpeed" fill="#000000">100 (1)</text>
  <rect fill="blue" height="0.0" stroke="black" width="12" x="1215" y="560.1"/>
  <text x="1215" y="565.2" font-family="Tahoma" font-size="12" transform="rotate(90 1215,565.2)" text-rendering="optimizeSpeed" fill="#000000">101 (1)</text>
  <rect fill="blue" height="0.1" stroke="black" width="12" x="1230" y="560.1"/>
  <text x="1230" y="565.2" font-family="Tahoma" font-size="12" transform="rotate(90 1230,565.2)" text-rendering="optimizeSpeed" fill="#000000">103 (2)</text>
  <rect fill="blue" height="0.1" stroke="black" width="12" x="1245" y="560.1"/>
  <text x="1245" y="565.2" font-family="Tahoma" font-size="12" transform="rotate(90 1245,565.2)" text-rendering="optimizeSpeed" fill="#000000">106 (2)</text>
  <rect fill="blue" height="0.0" stroke="black" width="12" x="1260" y="560.1"/>
  <text x="1260" y="565.2" font-family="Tahoma" font-size="12" transform="rotate(90 1260,565.2)" text-rendering="optimizeSpeed" fill="#000000">108 (1)</text>
  <rect fill="blue" height="0.0" stroke="black" width="12" x="1275" y="560.1"/>
  <text x="1275" y="565.2" font-family="Tahoma" font-size="12" transform="rotate(90 1275,565.2)" text-rendering="optimizeSpeed" fill="#000000">112 (1)</text>
  <rect fill="blue" height="0.0" stroke="black" width="12" x="1290" y="560.1"/>
  <text x="1290" y="565.2" font-family="Tahoma" font-size="12" transform="rotate(90 1290,565.2)" text-rendering="optimizeSpeed" fill="#000000">113 (1)</text>
  <rect fill="blue" height="0.0" stroke="black" width="12" x="1305" y="560.1"/>
  <text x="1305" y="565.2" font-family="Tahoma" font-size="12" transform="rotate(90 1305,565.2)" text-rendering="optimizeSpeed" fill="#000000">114 (1)</text>
  <rect fill="blue" height="0.0" stroke="black" width="12" x="1320" y="560.1"/>
  <text x="1320" y="565.2" font-family="Tahoma" font-size="12" transform="rotate(90 1320,565.2)" text-rendering="optimizeSpeed" fill="#000000">117 (1)</text>
  <rect fill="blue" height="0.0" stroke="black" width="12" x="1335" y="560.1"/>
  <text x="1335" y="565.2" font-family="Tahoma" font-size="12" transform="rotate(90 1335,565.2)" text-rendering="optimizeSpeed" fill="#000000">118 (1)</text>
  <rect fill="blue" height="0.0" stroke="black" width="12" x="1350" y="560.1"/>
  <text x="1350" y="565.2" font-family="Tahoma" font-size="12" transform="rotate(90 1350,565.2)" text-rendering="optimizeSpeed" fill="#000000">120 (1)</text>
  <rect fill="blue" height="0.0" stroke="black" width="12" x="1365" y="560.1"/>
  <text x="1365" y="565.2" font-family="Tahoma" font-size="12" transform="rotate(90 1365,565.2)" text-rendering="optimizeSpeed" fill="#000000">125 (1)</text>
  <rect fill="blue" height="0.1" stroke="black" width="12" x="1380" y="560.1"/>
  <text x="1380" y="565.2" font-family="Tahoma" font-size="12" transform="rotate(90 1380,565.2)" text-rendering="optimizeSpeed" fill="#000000">130 (2)</text>
  <rect fill="blue" height="0.0" stroke="black" width="12" x="1395" y="560.1"/>
  <text x="1395" y="565.2" font-family="Tahoma" font-size="12" transform="rotate(90 1395,565.2)" text-rendering="optimizeSpeed" fill="#000000">134 (1)</text>
  <rect fill="blue" height="0.0" stroke="black" width="12" x="1410" y="560.1"/>
  <text x="1410" y="565.2" font-family="Tahoma" font-size="12" transform="rotate(90 1410,565.2)" text-rendering="optimizeSpeed" fill="#000000">135 (1)</text>
  <rect fill="blue" height="0.0" stroke="black" width="12" x="1425" y="560.1"/>
  <text x="1425" y="565.2" font-family="Tahoma" font-size="12" transform="rotate(90 1425,565.2)" text-rendering="optimizeSpeed" fill="#000000">140 (1)</text>
  <rect fill="blue" height="0.0" stroke="black" width="12" x="1440" y="560.1"/>
  <text x="1440" y="565.2" font-family="Tahoma" font-size="12" transform="rotate(90 1440,565.2)" text-rendering="optimizeSpeed" fill="#000000">144 (1)</text>
  <rect fill="blue" height="0.0" stroke="black" width="12" x="1455" y="560.1"/>
  <text x="1455" y="565.2" font-family="Tahoma" font-size="12" transform="rotate(90 1455,565.2)" text-rendering="optimizeSpeed" fill="#000000">145 (1)</text>
  <rect fill="blue" height="0.0" stroke="black" width="12" x="1470" y="560.1"/>
  <text x="1470" y="565.2" font-family="Tahoma" font-size="12" transform="rotate(90 1470,565.2)" text-rendering="optimizeSpeed" fill="#000000">151 (1)</text>
  <rect fill="blue" height="0.0" stroke="black" width="12" x="1485" y="560.1"/>
  <text x="1485" y="565.2" font-family="Tahoma" font-size="12" transform="rotate(90 1485,565.2)" text-rendering="optimizeSpeed" fill="#000000">160 (1)</text>
  <rect fill="blue" height="0.0" stroke="black" width="12" x="1500" y="560.1"/>
  <text x="1500" y="565.2" font-family="Tahoma" font-size="12" transform="rotate(90 1500,565.2)" text-rendering="optimizeSpeed" fill="#000000">161 (1)</text>
  <rect fill="blue" height="0.0" stroke="black" width="12" x="1515" y="560.1"/>
  <text x="1515" y="565.2" font-family="Tahoma" font-size="12" transform="rotate(90 1515,565.2)" text-rendering="optimizeSpeed" fill="#000000">181 (1)</text>
  <rect fill="blue" height="0.0" stroke="black" width="12" x="1530" y="560.1"/>
  <text x="1530" y="565.2" font-family="Tahoma" font-size="12" transform="rotate(90 1530,565.2)" text-rendering="optimizeSpeed" fill="#000000">182 (1)</text>
  <rect fill="blue" height="0.0" stroke="black" width="12" x="1545" y="560.1"/>
  <text x="1545" y="565.2" font-family="Tahoma" font-size="12" transform="rotate(90 1545,565.2)" text-rendering="optimizeSpeed" fill="#000000">192 (1)</text>
  <rect fill="blue" height="0.0" stroke="black" width="12" x="1560" y="560.1"/>
  <text x="1560" y="565.2" font-family="Tahoma" font-size="12" transform="rotate(90 1560,565.2)" text-rendering="optimizeSpeed" fill="#000000">212 (1)</text>
  <rect fill="blue" height="0.0" stroke="black" width="12" x="1575" y="560.1"/>
  <text x="1575" y="565.2" font-family="Tahoma" font-size="12" transform="rotate(90 1575,565.2)" text-rendering="optimizeSpeed" fill="#000000">214 (1)</text>
  <rect fill="blue" height="0.1" stroke="black" width="12" x="1590" y="560.1"/>
  <text x="1590" y="565.2" font-family="Tahoma" font-size="12" transform="rotate(90 1590,565.2)" text-rendering="optimizeSpeed" fill="#000000">221 (2)</text>
  <rect fill="blue" height="0.0" stroke="black" width="12" x="1605" y="560.1"/>
  <text x="1605" y="565.2" font-family="Tahoma" font-size="12" transform="rotate(90 1605,565.2)" text-rendering="optimizeSpeed" fill="#000000">277 (1)</text>
  <rect fill="blue" height="0.0" stroke="black" width="12" x="1620" y="560.1"/>
  <text x="1620" y="565.2" font-family="Tahoma" font-size="12" transform="rotate(90 1620,565.2)" text-rendering="optimizeSpeed" fill="#000000">325 (1)</text>
  <rect fill="blue" height="0.0" stroke="black" width="12" x="1635" y="560.1"/>
  <text x="1635" y="565.2" font-family="Tahoma" font-size="12" transform="rotate(90 1635,565.2)" text-rendering="optimizeSpeed" fill="#000000">334 (1)</text>
  <rect fill="blue" height="0.0" stroke="black" width="12" x="1650" y="560.1"/>
  <text x="1650" y="565.2" font-family="Tahoma" font-size="12" transform="rotate(90 1650,565.2)" text-rendering="optimizeSpeed" fill="#000000">1140 (1)</text>
  <rect fill="blue" height="0.0" stroke="black" width="12" x="1665" y="560.1"/>
  <text x="1665" y="565.2" font-family="Tahoma" font-size="12" transform="rotate(90 1665,565.2)" text-rendering="optimizeSpeed" fill="#000000">1420 (1)</text>
  <text x="10" y="40" font-family="Tahoma" font-size="20" text-rendering="optimizeSpeed" fill="#000000">Executors per install (total: 22284)</text>
</svg>
