<svg xmlns="http://www.w3.org/2000/svg" version="1.1" preserveAspectRatio="xMidYMid meet" viewBox="0 0 1985 592.2">
  <rect fill="blue" height="5.1" stroke="black" width="12" x="15" y="287.0"/>
  <text x="15" y="297.2" font-family="Tahoma" font-size="12" transform="rotate(90 15,297.2)" text-rendering="optimizeSpeed" fill="#000000">gradle (513)</text>
  <rect fill="blue" height="5.1" stroke="black" width="12" x="30" y="287.0"/>
  <text x="30" y="297.2" font-family="Tahoma" font-size="12" transform="rotate(90 30,297.2)" text-rendering="optimizeSpeed" fill="#000000">build-publisher (514)</text>
  <rect fill="blue" height="5.2" stroke="black" width="12" x="45" y="287.0"/>
  <text x="45" y="297.2" font-family="Tahoma" font-size="12" transform="rotate(90 45,297.2)" text-rendering="optimizeSpeed" fill="#000000">token-macro (523)</text>
  <rect fill="blue" height="5.2" stroke="black" width="12" x="60" y="286.9"/>
  <text x="60" y="297.2" font-family="Tahoma" font-size="12" transform="rotate(90 60,297.2)" text-rendering="optimizeSpeed" fill="#000000">slave-status (525)</text>
  <rect fill="blue" height="5.5" stroke="black" width="12" x="75" y="286.6"/>
  <text x="75" y="297.2" font-family="Tahoma" font-size="12" transform="rotate(90 75,297.2)" text-rendering="optimizeSpeed" fill="#000000">bugzilla (553)</text>
  <rect fill="blue" height="5.8" stroke="black" width="12" x="90" y="286.4"/>
  <text x="90" y="297.2" font-family="Tahoma" font-size="12" transform="rotate(90 90,297.2)" text-rendering="optimizeSpeed" fill="#000000">testng-plugin (578)</text>
  <rect fill="blue" height="5.8" stroke="black" width="12" x="105" y="286.4"/>
  <text x="105" y="297.2" font-family="Tahoma" font-size="12" transform="rotate(90 105,297.2)" text-rendering="optimizeSpeed" fill="#000000">mstest (581)</text>
  <rect fill="blue" height="5.9" stroke="black" width="12" x="120" y="286.2"/>
  <text x="120" y="297.2" font-family="Tahoma" font-size="12" transform="rotate(90 120,297.2)" text-rendering="optimizeSpeed" fill="#000000">svnpublisher (593)</text>
  <rect fill="blue" height="6.0" stroke="black" width="12" x="135" y="286.2"/>
  <text x="135" y="297.2" font-family="Tahoma" font-size="12" transform="rotate(90 135,297.2)" text-rendering="optimizeSpeed" fill="#000000">role-strategy (597)</text>
  <rect fill="blue" height="6.0" stroke="black" width="12" x="150" y="286.2"/>
  <text x="150" y="297.2" font-family="Tahoma" font-size="12" transform="rotate(90 150,297.2)" text-rendering="optimizeSpeed" fill="#000000">rubyMetrics (601)</text>
  <rect fill="blue" height="6.0" stroke="black" width="12" x="165" y="286.1"/>
  <text x="165" y="297.2" font-family="Tahoma" font-size="12" transform="rotate(90 165,297.2)" text-rendering="optimizeSpeed" fill="#000000">grails (603)</text>
  <rect fill="blue" height="6.0" stroke="black" width="12" x="180" y="286.1"/>
  <text x="180" y="297.2" font-family="Tahoma" font-size="12" transform="rotate(90 180,297.2)" text-rendering="optimizeSpeed" fill="#000000">configurationslicing (604)</text>
  <rect fill="blue" height="6.2" stroke="black" width="12" x="195" y="286.0"/>
  <text x="195" y="297.2" font-family="Tahoma" font-size="12" transform="rotate(90 195,297.2)" text-rendering="optimizeSpeed" fill="#000000">ldapemail (621)</text>
  <rect fill="blue" height="6.3" stroke="black" width="12" x="210" y="285.8"/>
  <text x="210" y="297.2" font-family="Tahoma" font-size="12" transform="rotate(90 210,297.2)" text-rendering="optimizeSpeed" fill="#000000">thinBackup (635)</text>
  <rect fill="blue" height="6.4" stroke="black" width="12" x="225" y="285.8"/>
  <text x="225" y="297.2" font-family="Tahoma" font-size="12" transform="rotate(90 225,297.2)" text-rendering="optimizeSpeed" fill="#000000">cron_column (639)</text>
  <rect fill="blue" height="6.4" stroke="black" width="12" x="240" y="285.7"/>
  <text x="240" y="297.2" font-family="Tahoma" font-size="12" transform="rotate(90 240,297.2)" text-rendering="optimizeSpeed" fill="#000000">viewVC (644)</text>
  <rect fill="blue" height="6.5" stroke="black" width="12" x="255" y="285.7"/>
  <text x="255" y="297.2" font-family="Tahoma" font-size="12" transform="rotate(90 255,297.2)" text-rendering="optimizeSpeed" fill="#000000">ircbot (648)</text>
  <rect fill="blue" height="6.5" stroke="black" width="12" x="270" y="285.7"/>
  <text x="270" y="297.2" font-family="Tahoma" font-size="12" transform="rotate(90 270,297.2)" text-rendering="optimizeSpeed" fill="#000000">build-pipeline-plugin (650)</text>
  <rect fill="blue" height="6.5" stroke="black" width="12" x="285" y="285.6"/>
  <text x="285" y="297.2" font-family="Tahoma" font-size="12" transform="rotate(90 285,297.2)" text-rendering="optimizeSpeed" fill="#000000">maven-info (655)</text>
  <rect fill="blue" height="6.7" stroke="black" width="12" x="300" y="285.5"/>
  <text x="300" y="297.2" font-family="Tahoma" font-size="12" transform="rotate(90 300,297.2)" text-rendering="optimizeSpeed" fill="#000000">envfile (666)</text>
  <rect fill="blue" height="6.8" stroke="black" width="12" x="315" y="285.4"/>
  <text x="315" y="297.2" font-family="Tahoma" font-size="12" transform="rotate(90 315,297.2)" text-rendering="optimizeSpeed" fill="#000000">cppcheck (681)</text>
  <rect fill="blue" height="7.1" stroke="black" width="12" x="330" y="285.1"/>
  <text x="330" y="297.2" font-family="Tahoma" font-size="12" transform="rotate(90 330,297.2)" text-rendering="optimizeSpeed" fill="#000000">saferestart (707)</text>
  <rect fill="blue" height="7.2" stroke="black" width="12" x="345" y="285.0"/>
  <text x="345" y="297.2" font-family="Tahoma" font-size="12" transform="rotate(90 345,297.2)" text-rendering="optimizeSpeed" fill="#000000">changelog-history (719)</text>
  <rect fill="blue" height="7.2" stroke="black" width="12" x="360" y="285.0"/>
  <text x="360" y="297.2" font-family="Tahoma" font-size="12" transform="rotate(90 360,297.2)" text-rendering="optimizeSpeed" fill="#000000">url-change-trigger (723)</text>
  <rect fill="blue" height="7.2" stroke="black" width="12" x="375" y="284.9"/>
  <text x="375" y="297.2" font-family="Tahoma" font-size="12" transform="rotate(90 375,297.2)" text-rendering="optimizeSpeed" fill="#000000">global-build-stats (724)</text>
  <rect fill="blue" height="7.4" stroke="black" width="12" x="390" y="284.8"/>
  <text x="390" y="297.2" font-family="Tahoma" font-size="12" transform="rotate(90 390,297.2)" text-rendering="optimizeSpeed" fill="#000000">nant (743)</text>
  <rect fill="blue" height="7.4" stroke="black" width="12" x="405" y="284.7"/>
  <text x="405" y="297.2" font-family="Tahoma" font-size="12" transform="rotate(90 405,297.2)" text-rendering="optimizeSpeed" fill="#000000">xfpanel (744)</text>
  <rect fill="blue" height="7.6" stroke="black" width="12" x="420" y="284.5"/>
  <text x="420" y="297.2" font-family="Tahoma" font-size="12" transform="rotate(90 420,297.2)" text-rendering="optimizeSpeed" fill="#000000">claim (763)</text>
  <rect fill="blue" height="7.6" stroke="black" width="12" x="435" y="284.5"/>
  <text x="435" y="297.2" font-family="Tahoma" font-size="12" transform="rotate(90 435,297.2)" text-rendering="optimizeSpeed" fill="#000000">clearcase (763)</text>
  <rect fill="blue" height="7.6" stroke="black" width="12" x="450" y="284.5"/>
  <text x="450" y="297.2" font-family="Tahoma" font-size="12" transform="rotate(90 450,297.2)" text-rendering="optimizeSpeed" fill="#000000">view-job-filters (764)</text>
  <rect fill="blue" height="7.7" stroke="black" width="12" x="465" y="284.5"/>
  <text x="465" y="297.2" font-family="Tahoma" font-size="12" transform="rotate(90 465,297.2)" text-rendering="optimizeSpeed" fill="#000000">depgraph-view (767)</text>
  <rect fill="blue" height="7.7" stroke="black" width="12" x="480" y="284.5"/>
  <text x="480" y="297.2" font-family="Tahoma" font-size="12" transform="rotate(90 480,297.2)" text-rendering="optimizeSpeed" fill="#000000">next-build-number (767)</text>
  <rect fill="blue" height="7.8" stroke="black" width="12" x="495" y="284.4"/>
  <text x="495" y="297.2" font-family="Tahoma" font-size="12" transform="rotate(90 495,297.2)" text-rendering="optimizeSpeed" fill="#000000">hudsontrayapp (782)</text>
  <rect fill="blue" height="7.9" stroke="black" width="12" x="510" y="284.3"/>
  <text x="510" y="297.2" font-family="Tahoma" font-size="12" transform="rotate(90 510,297.2)" text-rendering="optimizeSpeed" fill="#000000">xvnc (789)</text>
  <rect fill="blue" height="8.1" stroke="black" width="12" x="525" y="284.1"/>
  <text x="525" y="297.2" font-family="Tahoma" font-size="12" transform="rotate(90 525,297.2)" text-rendering="optimizeSpeed" fill="#000000">template-project (812)</text>
  <rect fill="blue" height="8.2" stroke="black" width="12" x="540" y="284.0"/>
  <text x="540" y="297.2" font-family="Tahoma" font-size="12" transform="rotate(90 540,297.2)" text-rendering="optimizeSpeed" fill="#000000">compact-columns (821)</text>
  <rect fill="blue" height="8.3" stroke="black" width="12" x="555" y="283.9"/>
  <text x="555" y="297.2" font-family="Tahoma" font-size="12" transform="rotate(90 555,297.2)" text-rendering="optimizeSpeed" fill="#000000">sloccount (831)</text>
  <rect fill="blue" height="8.3" stroke="black" width="12" x="570" y="283.9"/>
  <text x="570" y="297.2" font-family="Tahoma" font-size="12" transform="rotate(90 570,297.2)" text-rendering="optimizeSpeed" fill="#000000">locale (832)</text>
  <rect fill="blue" height="8.5" stroke="black" width="12" x="585" y="283.7"/>
  <text x="585" y="297.2" font-family="Tahoma" font-size="12" transform="rotate(90 585,297.2)" text-rendering="optimizeSpeed" fill="#000000">nested-view (851)</text>
  <rect fill="blue" height="8.6" stroke="black" width="12" x="600" y="283.6"/>
  <text x="600" y="297.2" font-family="Tahoma" font-size="12" transform="rotate(90 600,297.2)" text-rendering="optimizeSpeed" fill="#000000">monitoring (861)</text>
  <rect fill="blue" height="8.7" stroke="black" width="12" x="615" y="283.5"/>
  <text x="615" y="297.2" font-family="Tahoma" font-size="12" transform="rotate(90 615,297.2)" text-rendering="optimizeSpeed" fill="#000000">sectioned-view (865)</text>
  <rect fill="blue" height="8.7" stroke="black" width="12" x="630" y="283.5"/>
  <text x="630" y="297.2" font-family="Tahoma" font-size="12" transform="rotate(90 630,297.2)" text-rendering="optimizeSpeed" fill="#000000">port-allocator (867)</text>
  <rect fill="blue" height="8.8" stroke="black" width="12" x="645" y="283.4"/>
  <text x="645" y="297.2" font-family="Tahoma" font-size="12" transform="rotate(90 645,297.2)" text-rendering="optimizeSpeed" fill="#000000">redmine (881)</text>
  <rect fill="blue" height="8.8" stroke="black" width="12" x="660" y="283.3"/>
  <text x="660" y="297.2" font-family="Tahoma" font-size="12" transform="rotate(90 660,297.2)" text-rendering="optimizeSpeed" fill="#000000">ruby (883)</text>
  <rect fill="blue" height="8.9" stroke="black" width="12" x="675" y="283.3"/>
  <text x="675" y="297.2" font-family="Tahoma" font-size="12" transform="rotate(90 675,297.2)" text-rendering="optimizeSpeed" fill="#000000">iphoneview (891)</text>
  <rect fill="blue" height="9.0" stroke="black" width="12" x="690" y="283.2"/>
  <text x="690" y="297.2" font-family="Tahoma" font-size="12" transform="rotate(90 690,297.2)" text-rendering="optimizeSpeed" fill="#000000">description-setter (898)</text>
  <rect fill="blue" height="9.0" stroke="black" width="12" x="705" y="283.2"/>
  <text x="705" y="297.2" font-family="Tahoma" font-size="12" transform="rotate(90 705,297.2)" text-rendering="optimizeSpeed" fill="#000000">downstream-ext (898)</text>
  <rect fill="blue" height="9.0" stroke="black" width="12" x="720" y="283.1"/>
  <text x="720" y="297.2" font-family="Tahoma" font-size="12" transform="rotate(90 720,297.2)" text-rendering="optimizeSpeed" fill="#000000">seleniumhq (904)</text>
  <rect fill="blue" height="9.1" stroke="black" width="12" x="735" y="283.1"/>
  <text x="735" y="297.2" font-family="Tahoma" font-size="12" transform="rotate(90 735,297.2)" text-rendering="optimizeSpeed" fill="#000000">doclinks (912)</text>
  <rect fill="blue" height="9.2" stroke="black" width="12" x="750" y="282.9"/>
  <text x="750" y="297.2" font-family="Tahoma" font-size="12" transform="rotate(90 750,297.2)" text-rendering="optimizeSpeed" fill="#000000">versionnumber (925)</text>
  <rect fill="blue" height="9.3" stroke="black" width="12" x="765" y="282.9"/>
  <text x="765" y="297.2" font-family="Tahoma" font-size="12" transform="rotate(90 765,297.2)" text-rendering="optimizeSpeed" fill="#000000">ftppublisher (930)</text>
  <rect fill="blue" height="9.6" stroke="black" width="12" x="780" y="282.6"/>
  <text x="780" y="297.2" font-family="Tahoma" font-size="12" transform="rotate(90 780,297.2)" text-rendering="optimizeSpeed" fill="#000000">doxygen (958)</text>
  <rect fill="blue" height="9.6" stroke="black" width="12" x="795" y="282.6"/>
  <text x="795" y="297.2" font-family="Tahoma" font-size="12" transform="rotate(90 795,297.2)" text-rendering="optimizeSpeed" fill="#000000">copy-to-slave (961)</text>
  <rect fill="blue" height="9.7" stroke="black" width="12" x="810" y="282.4"/>
  <text x="810" y="297.2" font-family="Tahoma" font-size="12" transform="rotate(90 810,297.2)" text-rendering="optimizeSpeed" fill="#000000">groovy (974)</text>
  <rect fill="blue" height="9.9" stroke="black" width="12" x="825" y="282.3"/>
  <text x="825" y="297.2" font-family="Tahoma" font-size="12" transform="rotate(90 825,297.2)" text-rendering="optimizeSpeed" fill="#000000">publish-over-ssh (990)</text>
  <rect fill="blue" height="10.3" stroke="black" width="12" x="840" y="281.9"/>
  <text x="840" y="297.2" font-family="Tahoma" font-size="12" transform="rotate(90 840,297.2)" text-rendering="optimizeSpeed" fill="#000000">jobConfigHistory (1028)</text>
  <rect fill="blue" height="10.4" stroke="black" width="12" x="855" y="281.8"/>
  <text x="855" y="297.2" font-family="Tahoma" font-size="12" transform="rotate(90 855,297.2)" text-rendering="optimizeSpeed" fill="#000000">artifactory (1037)</text>
  <rect fill="blue" height="10.4" stroke="black" width="12" x="870" y="281.8"/>
  <text x="870" y="297.2" font-family="Tahoma" font-size="12" transform="rotate(90 870,297.2)" text-rendering="optimizeSpeed" fill="#000000">timestamper (1039)</text>
  <rect fill="blue" height="10.4" stroke="black" width="12" x="885" y="281.8"/>
  <text x="885" y="297.2" font-family="Tahoma" font-size="12" transform="rotate(90 885,297.2)" text-rendering="optimizeSpeed" fill="#000000">trac (1039)</text>
  <rect fill="blue" height="10.5" stroke="black" width="12" x="900" y="281.7"/>
  <text x="900" y="297.2" font-family="Tahoma" font-size="12" transform="rotate(90 900,297.2)" text-rendering="optimizeSpeed" fill="#000000">dependencyanalyzer (1048)</text>
  <rect fill="blue" height="10.5" stroke="black" width="12" x="915" y="281.7"/>
  <text x="915" y="297.2" font-family="Tahoma" font-size="12" transform="rotate(90 915,297.2)" text-rendering="optimizeSpeed" fill="#000000">text-finder (1051)</text>
  <rect fill="blue" height="10.5" stroke="black" width="12" x="930" y="281.6"/>
  <text x="930" y="297.2" font-family="Tahoma" font-size="12" transform="rotate(90 930,297.2)" text-rendering="optimizeSpeed" fill="#000000">copyarchiver (1054)</text>
  <rect fill="blue" height="10.7" stroke="black" width="12" x="945" y="281.5"/>
  <text x="945" y="297.2" font-family="Tahoma" font-size="12" transform="rotate(90 945,297.2)" text-rendering="optimizeSpeed" fill="#000000">rake (1073)</text>
  <rect fill="blue" height="11.0" stroke="black" width="12" x="960" y="281.1"/>
  <text x="960" y="297.2" font-family="Tahoma" font-size="12" transform="rotate(90 960,297.2)" text-rendering="optimizeSpeed" fill="#000000">hudson-pview-plugin (1104)</text>
  <rect fill="blue" height="11.2" stroke="black" width="12" x="975" y="281.0"/>
  <text x="975" y="297.2" font-family="Tahoma" font-size="12" transform="rotate(90 975,297.2)" text-rendering="optimizeSpeed" fill="#000000">join (1121)</text>
  <rect fill="blue" height="11.4" stroke="black" width="12" x="990" y="280.8"/>
  <text x="990" y="297.2" font-family="Tahoma" font-size="12" transform="rotate(90 990,297.2)" text-rendering="optimizeSpeed" fill="#000000">python (1139)</text>
  <rect fill="blue" height="11.9" stroke="black" width="12" x="1005" y="280.2"/>
  <text x="1005" y="297.2" font-family="Tahoma" font-size="12" transform="rotate(90 1005,297.2)" text-rendering="optimizeSpeed" fill="#000000">statusmonitor (1195)</text>
  <rect fill="blue" height="12.2" stroke="black" width="12" x="1020" y="280.0"/>
  <text x="1020" y="297.2" font-family="Tahoma" font-size="12" transform="rotate(90 1020,297.2)" text-rendering="optimizeSpeed" fill="#000000">downstream-buildview (1218)</text>
  <rect fill="blue" height="12.2" stroke="black" width="12" x="1035" y="280.0"/>
  <text x="1035" y="297.2" font-family="Tahoma" font-size="12" transform="rotate(90 1035,297.2)" text-rendering="optimizeSpeed" fill="#000000">perforce (1221)</text>
  <rect fill="blue" height="12.3" stroke="black" width="12" x="1050" y="279.9"/>
  <text x="1050" y="297.2" font-family="Tahoma" font-size="12" transform="rotate(90 1050,297.2)" text-rendering="optimizeSpeed" fill="#000000">clover (1228)</text>
  <rect fill="blue" height="12.4" stroke="black" width="12" x="1065" y="279.8"/>
  <text x="1065" y="297.2" font-family="Tahoma" font-size="12" transform="rotate(90 1065,297.2)" text-rendering="optimizeSpeed" fill="#000000">sidebar-link (1240)</text>
  <rect fill="blue" height="12.4" stroke="black" width="12" x="1080" y="279.8"/>
  <text x="1080" y="297.2" font-family="Tahoma" font-size="12" transform="rotate(90 1080,297.2)" text-rendering="optimizeSpeed" fill="#000000">release (1243)</text>
  <rect fill="blue" height="12.7" stroke="black" width="12" x="1095" y="279.5"/>
  <text x="1095" y="297.2" font-family="Tahoma" font-size="12" transform="rotate(90 1095,297.2)" text-rendering="optimizeSpeed" fill="#000000">svn-release-mgr (1268)</text>
  <rect fill="blue" height="12.9" stroke="black" width="12" x="1110" y="279.2"/>
  <text x="1110" y="297.2" font-family="Tahoma" font-size="12" transform="rotate(90 1110,297.2)" text-rendering="optimizeSpeed" fill="#000000">nunit (1294)</text>
  <rect fill="blue" height="13.0" stroke="black" width="12" x="1125" y="279.2"/>
  <text x="1125" y="297.2" font-family="Tahoma" font-size="12" transform="rotate(90 1125,297.2)" text-rendering="optimizeSpeed" fill="#000000">jabber (1296)</text>
  <rect fill="blue" height="13.2" stroke="black" width="12" x="1140" y="279.0"/>
  <text x="1140" y="297.2" font-family="Tahoma" font-size="12" transform="rotate(90 1140,297.2)" text-rendering="optimizeSpeed" fill="#000000">radiatorviewplugin (1316)</text>
  <rect fill="blue" height="13.5" stroke="black" width="12" x="1155" y="278.7"/>
  <text x="1155" y="297.2" font-family="Tahoma" font-size="12" transform="rotate(90 1155,297.2)" text-rendering="optimizeSpeed" fill="#000000">performance (1351)</text>
  <rect fill="blue" height="13.6" stroke="black" width="12" x="1170" y="278.5"/>
  <text x="1170" y="297.2" font-family="Tahoma" font-size="12" transform="rotate(90 1170,297.2)" text-rendering="optimizeSpeed" fill="#000000">audit-trail (1364)</text>
  <rect fill="blue" height="14.1" stroke="black" width="12" x="1185" y="278.1"/>
  <text x="1185" y="297.2" font-family="Tahoma" font-size="12" transform="rotate(90 1185,297.2)" text-rendering="optimizeSpeed" fill="#000000">jdepend (1407)</text>
  <rect fill="blue" height="14.2" stroke="black" width="12" x="1200" y="278.0"/>
  <text x="1200" y="297.2" font-family="Tahoma" font-size="12" transform="rotate(90 1200,297.2)" text-rendering="optimizeSpeed" fill="#000000">ssh (1419)</text>
  <rect fill="blue" height="14.7" stroke="black" width="12" x="1215" y="277.5"/>
  <text x="1215" y="297.2" font-family="Tahoma" font-size="12" transform="rotate(90 1215,297.2)" text-rendering="optimizeSpeed" fill="#000000">promoted-builds (1472)</text>
  <rect fill="blue" height="14.8" stroke="black" width="12" x="1230" y="277.4"/>
  <text x="1230" y="297.2" font-family="Tahoma" font-size="12" transform="rotate(90 1230,297.2)" text-rendering="optimizeSpeed" fill="#000000">log-parser (1479)</text>
  <rect fill="blue" height="15.2" stroke="black" width="12" x="1245" y="276.9"/>
  <text x="1245" y="297.2" font-family="Tahoma" font-size="12" transform="rotate(90 1245,297.2)" text-rendering="optimizeSpeed" fill="#000000">locks-and-latches (1524)</text>
  <rect fill="blue" height="15.8" stroke="black" width="12" x="1260" y="276.3"/>
  <text x="1260" y="297.2" font-family="Tahoma" font-size="12" transform="rotate(90 1260,297.2)" text-rendering="optimizeSpeed" fill="#000000">ci-game (1583)</text>
  <rect fill="blue" height="16.1" stroke="black" width="12" x="1275" y="276.0"/>
  <text x="1275" y="297.2" font-family="Tahoma" font-size="12" transform="rotate(90 1275,297.2)" text-rendering="optimizeSpeed" fill="#000000">github (1615)</text>
  <rect fill="blue" height="16.3" stroke="black" width="12" x="1290" y="275.9"/>
  <text x="1290" y="297.2" font-family="Tahoma" font-size="12" transform="rotate(90 1290,297.2)" text-rendering="optimizeSpeed" fill="#000000">emotional-hudson (1626)</text>
  <rect fill="blue" height="17.5" stroke="black" width="12" x="1305" y="274.7"/>
  <text x="1305" y="297.2" font-family="Tahoma" font-size="12" transform="rotate(90 1305,297.2)" text-rendering="optimizeSpeed" fill="#000000">m2-extra-steps (1746)</text>
  <rect fill="blue" height="17.6" stroke="black" width="12" x="1320" y="274.6"/>
  <text x="1320" y="297.2" font-family="Tahoma" font-size="12" transform="rotate(90 1320,297.2)" text-rendering="optimizeSpeed" fill="#000000">emma (1760)</text>
  <rect fill="blue" height="17.9" stroke="black" width="12" x="1335" y="274.2"/>
  <text x="1335" y="297.2" font-family="Tahoma" font-size="12" transform="rotate(90 1335,297.2)" text-rendering="optimizeSpeed" fill="#000000">batch-task (1795)</text>
  <rect fill="blue" height="18.2" stroke="black" width="12" x="1350" y="274.0"/>
  <text x="1350" y="297.2" font-family="Tahoma" font-size="12" transform="rotate(90 1350,297.2)" text-rendering="optimizeSpeed" fill="#000000">mercurial (1816)</text>
  <rect fill="blue" height="18.2" stroke="black" width="12" x="1365" y="274.0"/>
  <text x="1365" y="297.2" font-family="Tahoma" font-size="12" transform="rotate(90 1365,297.2)" text-rendering="optimizeSpeed" fill="#000000">plot (1820)</text>
  <rect fill="blue" height="18.7" stroke="black" width="12" x="1380" y="273.5"/>
  <text x="1380" y="297.2" font-family="Tahoma" font-size="12" transform="rotate(90 1380,297.2)" text-rendering="optimizeSpeed" fill="#000000">copyartifact (1868)</text>
  <rect fill="blue" height="19.3" stroke="black" width="12" x="1395" y="272.9"/>
  <text x="1395" y="297.2" font-family="Tahoma" font-size="12" transform="rotate(90 1395,297.2)" text-rendering="optimizeSpeed" fill="#000000">svn-tag (1932)</text>
  <rect fill="blue" height="19.9" stroke="black" width="12" x="1410" y="272.3"/>
  <text x="1410" y="297.2" font-family="Tahoma" font-size="12" transform="rotate(90 1410,297.2)" text-rendering="optimizeSpeed" fill="#000000">m2release (1990)</text>
  <rect fill="blue" height="20.5" stroke="black" width="12" x="1425" y="271.7"/>
  <text x="1425" y="297.2" font-family="Tahoma" font-size="12" transform="rotate(90 1425,297.2)" text-rendering="optimizeSpeed" fill="#000000">scp (2047)</text>
  <rect fill="blue" height="21.1" stroke="black" width="12" x="1440" y="271.1"/>
  <text x="1440" y="297.2" font-family="Tahoma" font-size="12" transform="rotate(90 1440,297.2)" text-rendering="optimizeSpeed" fill="#000000">msbuild (2106)</text>
  <rect fill="blue" height="21.1" stroke="black" width="12" x="1455" y="271.0"/>
  <text x="1455" y="297.2" font-family="Tahoma" font-size="12" transform="rotate(90 1455,297.2)" text-rendering="optimizeSpeed" fill="#000000">instant-messaging (2113)</text>
  <rect fill="blue" height="21.5" stroke="black" width="12" x="1470" y="270.7"/>
  <text x="1470" y="297.2" font-family="Tahoma" font-size="12" transform="rotate(90 1470,297.2)" text-rendering="optimizeSpeed" fill="#000000">postbuild-task (2146)</text>
  <rect fill="blue" height="21.5" stroke="black" width="12" x="1485" y="270.7"/>
  <text x="1485" y="297.2" font-family="Tahoma" font-size="12" transform="rotate(90 1485,297.2)" text-rendering="optimizeSpeed" fill="#000000">setenv (2146)</text>
  <rect fill="blue" height="23.8" stroke="black" width="12" x="1500" y="268.3"/>
  <text x="1500" y="297.2" font-family="Tahoma" font-size="12" transform="rotate(90 1500,297.2)" text-rendering="optimizeSpeed" fill="#000000">build-timeout (2384)</text>
  <rect fill="blue" height="24.0" stroke="black" width="12" x="1515" y="268.2"/>
  <text x="1515" y="297.2" font-family="Tahoma" font-size="12" transform="rotate(90 1515,297.2)" text-rendering="optimizeSpeed" fill="#000000">backup (2400)</text>
  <rect fill="blue" height="24.1" stroke="black" width="12" x="1530" y="268.1"/>
  <text x="1530" y="297.2" font-family="Tahoma" font-size="12" transform="rotate(90 1530,297.2)" text-rendering="optimizeSpeed" fill="#000000">deploy (2409)</text>
  <rect fill="blue" height="24.4" stroke="black" width="12" x="1545" y="267.8"/>
  <text x="1545" y="297.2" font-family="Tahoma" font-size="12" transform="rotate(90 1545,297.2)" text-rendering="optimizeSpeed" fill="#000000">tasks (2440)</text>
  <rect fill="blue" height="24.4" stroke="black" width="12" x="1560" y="267.8"/>
  <text x="1560" y="297.2" font-family="Tahoma" font-size="12" transform="rotate(90 1560,297.2)" text-rendering="optimizeSpeed" fill="#000000">jira (2441)</text>
  <rect fill="blue" height="25.6" stroke="black" width="12" x="1575" y="266.6"/>
  <text x="1575" y="297.2" font-family="Tahoma" font-size="12" transform="rotate(90 1575,297.2)" text-rendering="optimizeSpeed" fill="#000000">active-directory (2556)</text>
  <rect fill="blue" height="25.6" stroke="black" width="12" x="1590" y="266.5"/>
  <text x="1590" y="297.2" font-family="Tahoma" font-size="12" transform="rotate(90 1590,297.2)" text-rendering="optimizeSpeed" fill="#000000">parameterized-trigger (2563)</text>
  <rect fill="blue" height="25.9" stroke="black" width="12" x="1605" y="266.3"/>
  <text x="1605" y="297.2" font-family="Tahoma" font-size="12" transform="rotate(90 1605,297.2)" text-rendering="optimizeSpeed" fill="#000000">xunit (2585)</text>
  <rect fill="blue" height="26.0" stroke="black" width="12" x="1620" y="266.2"/>
  <text x="1620" y="297.2" font-family="Tahoma" font-size="12" transform="rotate(90 1620,297.2)" text-rendering="optimizeSpeed" fill="#000000">dry (2597)</text>
  <rect fill="blue" height="29.9" stroke="black" width="12" x="1635" y="262.2"/>
  <text x="1635" y="297.2" font-family="Tahoma" font-size="12" transform="rotate(90 1635,297.2)" text-rendering="optimizeSpeed" fill="#000000">chucknorris (2993)</text>
  <rect fill="blue" height="30.8" stroke="black" width="12" x="1650" y="261.4"/>
  <text x="1650" y="297.2" font-family="Tahoma" font-size="12" transform="rotate(90 1650,297.2)" text-rendering="optimizeSpeed" fill="#000000">htmlpublisher (3075)</text>
  <rect fill="blue" height="31.4" stroke="black" width="12" x="1665" y="260.8"/>
  <text x="1665" y="297.2" font-family="Tahoma" font-size="12" transform="rotate(90 1665,297.2)" text-rendering="optimizeSpeed" fill="#000000">dashboard-view (3137)</text>
  <rect fill="blue" height="31.6" stroke="black" width="12" x="1680" y="260.6"/>
  <text x="1680" y="297.2" font-family="Tahoma" font-size="12" transform="rotate(90 1680,297.2)" text-rendering="optimizeSpeed" fill="#000000">analysis-collector (3156)</text>
  <rect fill="blue" height="33.8" stroke="black" width="12" x="1695" y="258.4"/>
  <text x="1695" y="297.2" font-family="Tahoma" font-size="12" transform="rotate(90 1695,297.2)" text-rendering="optimizeSpeed" fill="#000000">disk-usage (3375)</text>
  <rect fill="blue" height="34.1" stroke="black" width="12" x="1710" y="258.1"/>
  <text x="1710" y="297.2" font-family="Tahoma" font-size="12" transform="rotate(90 1710,297.2)" text-rendering="optimizeSpeed" fill="#000000">violations (3406)</text>
  <rect fill="blue" height="35.0" stroke="black" width="12" x="1725" y="257.2"/>
  <text x="1725" y="297.2" font-family="Tahoma" font-size="12" transform="rotate(90 1725,297.2)" text-rendering="optimizeSpeed" fill="#000000">warnings (3497)</text>
  <rect fill="blue" height="35.2" stroke="black" width="12" x="1740" y="257.0"/>
  <text x="1740" y="297.2" font-family="Tahoma" font-size="12" transform="rotate(90 1740,297.2)" text-rendering="optimizeSpeed" fill="#000000">sonar (3516)</text>
  <rect fill="blue" height="40.0" stroke="black" width="12" x="1755" y="252.1"/>
  <text x="1755" y="297.2" font-family="Tahoma" font-size="12" transform="rotate(90 1755,297.2)" text-rendering="optimizeSpeed" fill="#000000">scis-ad (4005)</text>
  <rect fill="blue" height="40.4" stroke="black" width="12" x="1770" y="251.8"/>
  <text x="1770" y="297.2" font-family="Tahoma" font-size="12" transform="rotate(90 1770,297.2)" text-rendering="optimizeSpeed" fill="#000000">pmd (4035)</text>
  <rect fill="blue" height="41.2" stroke="black" width="12" x="1785" y="250.9"/>
  <text x="1785" y="297.2" font-family="Tahoma" font-size="12" transform="rotate(90 1785,297.2)" text-rendering="optimizeSpeed" fill="#000000">findbugs (4125)</text>
  <rect fill="blue" height="43.2" stroke="black" width="12" x="1800" y="249.0"/>
  <text x="1800" y="297.2" font-family="Tahoma" font-size="12" transform="rotate(90 1800,297.2)" text-rendering="optimizeSpeed" fill="#000000">cobertura (4320)</text>
  <rect fill="blue" height="44.8" stroke="black" width="12" x="1815" y="247.3"/>
  <text x="1815" y="297.2" font-family="Tahoma" font-size="12" transform="rotate(90 1815,297.2)" text-rendering="optimizeSpeed" fill="#000000">checkstyle (4484)</text>
  <rect fill="blue" height="54.4" stroke="black" width="12" x="1830" y="237.8"/>
  <text x="1830" y="297.2" font-family="Tahoma" font-size="12" transform="rotate(90 1830,297.2)" text-rendering="optimizeSpeed" fill="#000000">greenballs (5443)</text>
  <rect fill="blue" height="56.5" stroke="black" width="12" x="1845" y="235.7"/>
  <text x="1845" y="297.2" font-family="Tahoma" font-size="12" transform="rotate(90 1845,297.2)" text-rendering="optimizeSpeed" fill="#000000">git (5645)</text>
  <rect fill="blue" height="57.1" stroke="black" width="12" x="1860" y="235.1"/>
  <text x="1860" y="297.2" font-family="Tahoma" font-size="12" transform="rotate(90 1860,297.2)" text-rendering="optimizeSpeed" fill="#000000">email-ext (5709)</text>
  <rect fill="blue" height="85.1" stroke="black" width="12" x="1875" y="207.1"/>
  <text x="1875" y="297.2" font-family="Tahoma" font-size="12" transform="rotate(90 1875,297.2)" text-rendering="optimizeSpeed" fill="#000000">analysis-core (8512)</text>
  <rect fill="blue" height="227.4" stroke="black" width="12" x="1890" y="64.8"/>
  <text x="1890" y="297.2" font-family="Tahoma" font-size="12" transform="rotate(90 1890,297.2)" text-rendering="optimizeSpeed" fill="#000000">cvs (22739)</text>
  <rect fill="blue" height="236.5" stroke="black" width="12" x="1905" y="55.7"/>
  <text x="1905" y="297.2" font-family="Tahoma" font-size="12" transform="rotate(90 1905,297.2)" text-rendering="optimizeSpeed" fill="#000000">maven-plugin (23651)</text>
  <rect fill="blue" height="240.0" stroke="black" width="12" x="1920" y="52.2"/>
  <text x="1920" y="297.2" font-family="Tahoma" font-size="12" transform="rotate(90 1920,297.2)" text-rendering="optimizeSpeed" fill="#000000">subversion (24002)</text>
  <rect fill="blue" height="242.2" stroke="black" width="12" x="1935" y="50.0"/>
  <text x="1935" y="297.2" font-family="Tahoma" font-size="12" transform="rotate(90 1935,297.2)" text-rendering="optimizeSpeed" fill="#000000">ssh-slaves (24218)</text>
  <text x="10" y="40" font-family="Tahoma" font-size="20" text-rendering="optimizeSpeed" fill="#000000">Plugin installations (installations &gt; 500)</text>
</svg>
