<svg xmlns="http://www.w3.org/2000/svg" version="1.1" preserveAspectRatio="xMidYMid meet" viewBox="0 0 1265 626.5">
  <rect fill="blue" height="10.2" stroke="black" width="12" x="15" y="316.3"/>
  <text x="15" y="331.5" font-family="Tahoma" font-size="12" transform="rotate(90 15,331.5)" text-rendering="optimizeSpeed" fill="#000000">redmine (1016)</text>
  <rect fill="blue" height="10.2" stroke="black" width="12" x="30" y="316.2"/>
  <text x="30" y="331.5" font-family="Tahoma" font-size="12" transform="rotate(90 30,331.5)" text-rendering="optimizeSpeed" fill="#000000">view-job-filters (1022)</text>
  <rect fill="blue" height="10.2" stroke="black" width="12" x="45" y="316.2"/>
  <text x="45" y="331.5" font-family="Tahoma" font-size="12" transform="rotate(90 45,331.5)" text-rendering="optimizeSpeed" fill="#000000">groovy (1024)</text>
  <rect fill="blue" height="10.3" stroke="black" width="12" x="60" y="316.2"/>
  <text x="60" y="331.5" font-family="Tahoma" font-size="12" transform="rotate(90 60,331.5)" text-rendering="optimizeSpeed" fill="#000000">versionnumber (1028)</text>
  <rect fill="blue" height="10.5" stroke="black" width="12" x="75" y="316.0"/>
  <text x="75" y="331.5" font-family="Tahoma" font-size="12" transform="rotate(90 75,331.5)" text-rendering="optimizeSpeed" fill="#000000">doxygen (1046)</text>
  <rect fill="blue" height="10.9" stroke="black" width="12" x="90" y="315.6"/>
  <text x="90" y="331.5" font-family="Tahoma" font-size="12" transform="rotate(90 90,331.5)" text-rendering="optimizeSpeed" fill="#000000">trac (1089)</text>
  <rect fill="blue" height="11.2" stroke="black" width="12" x="105" y="315.3"/>
  <text x="105" y="331.5" font-family="Tahoma" font-size="12" transform="rotate(90 105,331.5)" text-rendering="optimizeSpeed" fill="#000000">copy-to-slave (1115)</text>
  <rect fill="blue" height="11.2" stroke="black" width="12" x="120" y="315.2"/>
  <text x="120" y="331.5" font-family="Tahoma" font-size="12" transform="rotate(90 120,331.5)" text-rendering="optimizeSpeed" fill="#000000">dependencyanalyzer (1125)</text>
  <rect fill="blue" height="11.3" stroke="black" width="12" x="135" y="315.2"/>
  <text x="135" y="331.5" font-family="Tahoma" font-size="12" transform="rotate(90 135,331.5)" text-rendering="optimizeSpeed" fill="#000000">text-finder (1127)</text>
  <rect fill="blue" height="11.6" stroke="black" width="12" x="150" y="314.9"/>
  <text x="150" y="331.5" font-family="Tahoma" font-size="12" transform="rotate(90 150,331.5)" text-rendering="optimizeSpeed" fill="#000000">artifactory (1158)</text>
  <rect fill="blue" height="11.8" stroke="black" width="12" x="165" y="314.7"/>
  <text x="165" y="331.5" font-family="Tahoma" font-size="12" transform="rotate(90 165,331.5)" text-rendering="optimizeSpeed" fill="#000000">hudson-pview-plugin (1178)</text>
  <rect fill="blue" height="11.9" stroke="black" width="12" x="180" y="314.6"/>
  <text x="180" y="331.5" font-family="Tahoma" font-size="12" transform="rotate(90 180,331.5)" text-rendering="optimizeSpeed" fill="#000000">jobConfigHistory (1189)</text>
  <rect fill="blue" height="12.0" stroke="black" width="12" x="195" y="314.5"/>
  <text x="195" y="331.5" font-family="Tahoma" font-size="12" transform="rotate(90 195,331.5)" text-rendering="optimizeSpeed" fill="#000000">timestamper (1197)</text>
  <rect fill="blue" height="12.3" stroke="black" width="12" x="210" y="314.1"/>
  <text x="210" y="331.5" font-family="Tahoma" font-size="12" transform="rotate(90 210,331.5)" text-rendering="optimizeSpeed" fill="#000000">rake (1235)</text>
  <rect fill="blue" height="12.5" stroke="black" width="12" x="225" y="314.0"/>
  <text x="225" y="331.5" font-family="Tahoma" font-size="12" transform="rotate(90 225,331.5)" text-rendering="optimizeSpeed" fill="#000000">python (1249)</text>
  <rect fill="blue" height="12.8" stroke="black" width="12" x="240" y="313.7"/>
  <text x="240" y="331.5" font-family="Tahoma" font-size="12" transform="rotate(90 240,331.5)" text-rendering="optimizeSpeed" fill="#000000">statusmonitor (1280)</text>
  <rect fill="blue" height="12.8" stroke="black" width="12" x="255" y="313.6"/>
  <text x="255" y="331.5" font-family="Tahoma" font-size="12" transform="rotate(90 255,331.5)" text-rendering="optimizeSpeed" fill="#000000">svn-release-mgr (1284)</text>
  <rect fill="blue" height="13.0" stroke="black" width="12" x="270" y="313.5"/>
  <text x="270" y="331.5" font-family="Tahoma" font-size="12" transform="rotate(90 270,331.5)" text-rendering="optimizeSpeed" fill="#000000">clover (1297)</text>
  <rect fill="blue" height="13.0" stroke="black" width="12" x="285" y="313.5"/>
  <text x="285" y="331.5" font-family="Tahoma" font-size="12" transform="rotate(90 285,331.5)" text-rendering="optimizeSpeed" fill="#000000">downstream-buildview (1299)</text>
  <rect fill="blue" height="13.3" stroke="black" width="12" x="300" y="313.1"/>
  <text x="300" y="331.5" font-family="Tahoma" font-size="12" transform="rotate(90 300,331.5)" text-rendering="optimizeSpeed" fill="#000000">join (1334)</text>
  <rect fill="blue" height="13.6" stroke="black" width="12" x="315" y="312.9"/>
  <text x="315" y="331.5" font-family="Tahoma" font-size="12" transform="rotate(90 315,331.5)" text-rendering="optimizeSpeed" fill="#000000">publish-over-ssh (1361)</text>
  <rect fill="blue" height="13.9" stroke="black" width="12" x="330" y="312.5"/>
  <text x="330" y="331.5" font-family="Tahoma" font-size="12" transform="rotate(90 330,331.5)" text-rendering="optimizeSpeed" fill="#000000">sidebar-link (1392)</text>
  <rect fill="blue" height="13.9" stroke="black" width="12" x="345" y="312.5"/>
  <text x="345" y="331.5" font-family="Tahoma" font-size="12" transform="rotate(90 345,331.5)" text-rendering="optimizeSpeed" fill="#000000">perforce (1393)</text>
  <rect fill="blue" height="14.0" stroke="black" width="12" x="360" y="312.4"/>
  <text x="360" y="331.5" font-family="Tahoma" font-size="12" transform="rotate(90 360,331.5)" text-rendering="optimizeSpeed" fill="#000000">release (1403)</text>
  <rect fill="blue" height="14.4" stroke="black" width="12" x="375" y="312.1"/>
  <text x="375" y="331.5" font-family="Tahoma" font-size="12" transform="rotate(90 375,331.5)" text-rendering="optimizeSpeed" fill="#000000">jabber (1438)</text>
  <rect fill="blue" height="14.8" stroke="black" width="12" x="390" y="311.6"/>
  <text x="390" y="331.5" font-family="Tahoma" font-size="12" transform="rotate(90 390,331.5)" text-rendering="optimizeSpeed" fill="#000000">nunit (1482)</text>
  <rect fill="blue" height="15.1" stroke="black" width="12" x="405" y="311.4"/>
  <text x="405" y="331.5" font-family="Tahoma" font-size="12" transform="rotate(90 405,331.5)" text-rendering="optimizeSpeed" fill="#000000">radiatorviewplugin (1510)</text>
  <rect fill="blue" height="15.3" stroke="black" width="12" x="420" y="311.2"/>
  <text x="420" y="331.5" font-family="Tahoma" font-size="12" transform="rotate(90 420,331.5)" text-rendering="optimizeSpeed" fill="#000000">audit-trail (1527)</text>
  <rect fill="blue" height="15.4" stroke="black" width="12" x="435" y="311.0"/>
  <text x="435" y="331.5" font-family="Tahoma" font-size="12" transform="rotate(90 435,331.5)" text-rendering="optimizeSpeed" fill="#000000">emotional-hudson (1542)</text>
  <rect fill="blue" height="15.5" stroke="black" width="12" x="450" y="310.9"/>
  <text x="450" y="331.5" font-family="Tahoma" font-size="12" transform="rotate(90 450,331.5)" text-rendering="optimizeSpeed" fill="#000000">performance (1553)</text>
  <rect fill="blue" height="16.0" stroke="black" width="12" x="465" y="310.5"/>
  <text x="465" y="331.5" font-family="Tahoma" font-size="12" transform="rotate(90 465,331.5)" text-rendering="optimizeSpeed" fill="#000000">jdepend (1598)</text>
  <rect fill="blue" height="16.5" stroke="black" width="12" x="480" y="309.9"/>
  <text x="480" y="331.5" font-family="Tahoma" font-size="12" transform="rotate(90 480,331.5)" text-rendering="optimizeSpeed" fill="#000000">promoted-builds (1652)</text>
  <rect fill="blue" height="16.7" stroke="black" width="12" x="495" y="309.8"/>
  <text x="495" y="331.5" font-family="Tahoma" font-size="12" transform="rotate(90 495,331.5)" text-rendering="optimizeSpeed" fill="#000000">ci-game (1669)</text>
  <rect fill="blue" height="16.9" stroke="black" width="12" x="510" y="309.6"/>
  <text x="510" y="331.5" font-family="Tahoma" font-size="12" transform="rotate(90 510,331.5)" text-rendering="optimizeSpeed" fill="#000000">locks-and-latches (1687)</text>
  <rect fill="blue" height="16.9" stroke="black" width="12" x="525" y="309.6"/>
  <text x="525" y="331.5" font-family="Tahoma" font-size="12" transform="rotate(90 525,331.5)" text-rendering="optimizeSpeed" fill="#000000">ssh (1687)</text>
  <rect fill="blue" height="16.9" stroke="black" width="12" x="540" y="309.6"/>
  <text x="540" y="331.5" font-family="Tahoma" font-size="12" transform="rotate(90 540,331.5)" text-rendering="optimizeSpeed" fill="#000000">log-parser (1690)</text>
  <rect fill="blue" height="19.3" stroke="black" width="12" x="555" y="307.2"/>
  <text x="555" y="331.5" font-family="Tahoma" font-size="12" transform="rotate(90 555,331.5)" text-rendering="optimizeSpeed" fill="#000000">m2-extra-steps (1926)</text>
  <rect fill="blue" height="19.3" stroke="black" width="12" x="570" y="307.1"/>
  <text x="570" y="331.5" font-family="Tahoma" font-size="12" transform="rotate(90 570,331.5)" text-rendering="optimizeSpeed" fill="#000000">emma (1934)</text>
  <rect fill="blue" height="19.8" stroke="black" width="12" x="585" y="306.7"/>
  <text x="585" y="331.5" font-family="Tahoma" font-size="12" transform="rotate(90 585,331.5)" text-rendering="optimizeSpeed" fill="#000000">batch-task (1980)</text>
  <rect fill="blue" height="20.4" stroke="black" width="12" x="600" y="306.1"/>
  <text x="600" y="331.5" font-family="Tahoma" font-size="12" transform="rotate(90 600,331.5)" text-rendering="optimizeSpeed" fill="#000000">github (2036)</text>
  <rect fill="blue" height="20.6" stroke="black" width="12" x="615" y="305.9"/>
  <text x="615" y="331.5" font-family="Tahoma" font-size="12" transform="rotate(90 615,331.5)" text-rendering="optimizeSpeed" fill="#000000">setenv (2057)</text>
  <rect fill="blue" height="20.8" stroke="black" width="12" x="630" y="305.6"/>
  <text x="630" y="331.5" font-family="Tahoma" font-size="12" transform="rotate(90 630,331.5)" text-rendering="optimizeSpeed" fill="#000000">plot (2083)</text>
  <rect fill="blue" height="20.9" stroke="black" width="12" x="645" y="305.6"/>
  <text x="645" y="331.5" font-family="Tahoma" font-size="12" transform="rotate(90 645,331.5)" text-rendering="optimizeSpeed" fill="#000000">svn-tag (2085)</text>
  <rect fill="blue" height="21.6" stroke="black" width="12" x="660" y="304.8"/>
  <text x="660" y="331.5" font-family="Tahoma" font-size="12" transform="rotate(90 660,331.5)" text-rendering="optimizeSpeed" fill="#000000">mercurial (2163)</text>
  <rect fill="blue" height="21.8" stroke="black" width="12" x="675" y="304.6"/>
  <text x="675" y="331.5" font-family="Tahoma" font-size="12" transform="rotate(90 675,331.5)" text-rendering="optimizeSpeed" fill="#000000">m2release (2184)</text>
  <rect fill="blue" height="22.5" stroke="black" width="12" x="690" y="303.9"/>
  <text x="690" y="331.5" font-family="Tahoma" font-size="12" transform="rotate(90 690,331.5)" text-rendering="optimizeSpeed" fill="#000000">scp (2252)</text>
  <rect fill="blue" height="22.8" stroke="black" width="12" x="705" y="303.7"/>
  <text x="705" y="331.5" font-family="Tahoma" font-size="12" transform="rotate(90 705,331.5)" text-rendering="optimizeSpeed" fill="#000000">copyartifact (2280)</text>
  <rect fill="blue" height="24.2" stroke="black" width="12" x="720" y="302.2"/>
  <text x="720" y="331.5" font-family="Tahoma" font-size="12" transform="rotate(90 720,331.5)" text-rendering="optimizeSpeed" fill="#000000">instant-messaging (2422)</text>
  <rect fill="blue" height="24.3" stroke="black" width="12" x="735" y="302.2"/>
  <text x="735" y="331.5" font-family="Tahoma" font-size="12" transform="rotate(90 735,331.5)" text-rendering="optimizeSpeed" fill="#000000">postbuild-task (2429)</text>
  <rect fill="blue" height="24.9" stroke="black" width="12" x="750" y="301.6"/>
  <text x="750" y="331.5" font-family="Tahoma" font-size="12" transform="rotate(90 750,331.5)" text-rendering="optimizeSpeed" fill="#000000">msbuild (2485)</text>
  <rect fill="blue" height="25.8" stroke="black" width="12" x="765" y="300.7"/>
  <text x="765" y="331.5" font-family="Tahoma" font-size="12" transform="rotate(90 765,331.5)" text-rendering="optimizeSpeed" fill="#000000">backup (2578)</text>
  <rect fill="blue" height="26.1" stroke="black" width="12" x="780" y="300.3"/>
  <text x="780" y="331.5" font-family="Tahoma" font-size="12" transform="rotate(90 780,331.5)" text-rendering="optimizeSpeed" fill="#000000">tasks (2615)</text>
  <rect fill="blue" height="26.6" stroke="black" width="12" x="795" y="299.9"/>
  <text x="795" y="331.5" font-family="Tahoma" font-size="12" transform="rotate(90 795,331.5)" text-rendering="optimizeSpeed" fill="#000000">deploy (2658)</text>
  <rect fill="blue" height="26.7" stroke="black" width="12" x="810" y="299.8"/>
  <text x="810" y="331.5" font-family="Tahoma" font-size="12" transform="rotate(90 810,331.5)" text-rendering="optimizeSpeed" fill="#000000">jira (2666)</text>
  <rect fill="blue" height="27.2" stroke="black" width="12" x="825" y="299.2"/>
  <text x="825" y="331.5" font-family="Tahoma" font-size="12" transform="rotate(90 825,331.5)" text-rendering="optimizeSpeed" fill="#000000">build-timeout (2721)</text>
  <rect fill="blue" height="27.6" stroke="black" width="12" x="840" y="298.8"/>
  <text x="840" y="331.5" font-family="Tahoma" font-size="12" transform="rotate(90 840,331.5)" text-rendering="optimizeSpeed" fill="#000000">active-directory (2764)</text>
  <rect fill="blue" height="29.1" stroke="black" width="12" x="855" y="297.4"/>
  <text x="855" y="331.5" font-family="Tahoma" font-size="12" transform="rotate(90 855,331.5)" text-rendering="optimizeSpeed" fill="#000000">dry (2905)</text>
  <rect fill="blue" height="29.7" stroke="black" width="12" x="870" y="296.8"/>
  <text x="870" y="331.5" font-family="Tahoma" font-size="12" transform="rotate(90 870,331.5)" text-rendering="optimizeSpeed" fill="#000000">xunit (2970)</text>
  <rect fill="blue" height="30.8" stroke="black" width="12" x="885" y="295.7"/>
  <text x="885" y="331.5" font-family="Tahoma" font-size="12" transform="rotate(90 885,331.5)" text-rendering="optimizeSpeed" fill="#000000">parameterized-trigger (3078)</text>
  <rect fill="blue" height="32.9" stroke="black" width="12" x="900" y="293.6"/>
  <text x="900" y="331.5" font-family="Tahoma" font-size="12" transform="rotate(90 900,331.5)" text-rendering="optimizeSpeed" fill="#000000">chucknorris (3285)</text>
  <rect fill="blue" height="34.4" stroke="black" width="12" x="915" y="292.1"/>
  <text x="915" y="331.5" font-family="Tahoma" font-size="12" transform="rotate(90 915,331.5)" text-rendering="optimizeSpeed" fill="#000000">analysis-collector (3439)</text>
  <rect fill="blue" height="36.4" stroke="black" width="12" x="930" y="290.1"/>
  <text x="930" y="331.5" font-family="Tahoma" font-size="12" transform="rotate(90 930,331.5)" text-rendering="optimizeSpeed" fill="#000000">disk-usage (3640)</text>
  <rect fill="blue" height="36.4" stroke="black" width="12" x="945" y="290.0"/>
  <text x="945" y="331.5" font-family="Tahoma" font-size="12" transform="rotate(90 945,331.5)" text-rendering="optimizeSpeed" fill="#000000">htmlpublisher (3641)</text>
  <rect fill="blue" height="36.5" stroke="black" width="12" x="960" y="290.0"/>
  <text x="960" y="331.5" font-family="Tahoma" font-size="12" transform="rotate(90 960,331.5)" text-rendering="optimizeSpeed" fill="#000000">dashboard-view (3650)</text>
  <rect fill="blue" height="38.0" stroke="black" width="12" x="975" y="288.5"/>
  <text x="975" y="331.5" font-family="Tahoma" font-size="12" transform="rotate(90 975,331.5)" text-rendering="optimizeSpeed" fill="#000000">warnings (3796)</text>
  <rect fill="blue" height="38.7" stroke="black" width="12" x="990" y="287.8"/>
  <text x="990" y="331.5" font-family="Tahoma" font-size="12" transform="rotate(90 990,331.5)" text-rendering="optimizeSpeed" fill="#000000">violations (3867)</text>
  <rect fill="blue" height="39.2" stroke="black" width="12" x="1005" y="287.3"/>
  <text x="1005" y="331.5" font-family="Tahoma" font-size="12" transform="rotate(90 1005,331.5)" text-rendering="optimizeSpeed" fill="#000000">scis-ad (3916)</text>
  <rect fill="blue" height="39.8" stroke="black" width="12" x="1020" y="286.6"/>
  <text x="1020" y="331.5" font-family="Tahoma" font-size="12" transform="rotate(90 1020,331.5)" text-rendering="optimizeSpeed" fill="#000000">sonar (3982)</text>
  <rect fill="blue" height="44.4" stroke="black" width="12" x="1035" y="282.1"/>
  <text x="1035" y="331.5" font-family="Tahoma" font-size="12" transform="rotate(90 1035,331.5)" text-rendering="optimizeSpeed" fill="#000000">pmd (4438)</text>
  <rect fill="blue" height="44.5" stroke="black" width="12" x="1050" y="281.9"/>
  <text x="1050" y="331.5" font-family="Tahoma" font-size="12" transform="rotate(90 1050,331.5)" text-rendering="optimizeSpeed" fill="#000000">findbugs (4453)</text>
  <rect fill="blue" height="48.5" stroke="black" width="12" x="1065" y="278.0"/>
  <text x="1065" y="331.5" font-family="Tahoma" font-size="12" transform="rotate(90 1065,331.5)" text-rendering="optimizeSpeed" fill="#000000">cobertura (4845)</text>
  <rect fill="blue" height="49.5" stroke="black" width="12" x="1080" y="277.0"/>
  <text x="1080" y="331.5" font-family="Tahoma" font-size="12" transform="rotate(90 1080,331.5)" text-rendering="optimizeSpeed" fill="#000000">checkstyle (4947)</text>
  <rect fill="blue" height="62.7" stroke="black" width="12" x="1095" y="263.8"/>
  <text x="1095" y="331.5" font-family="Tahoma" font-size="12" transform="rotate(90 1095,331.5)" text-rendering="optimizeSpeed" fill="#000000">greenballs (6270)</text>
  <rect fill="blue" height="64.6" stroke="black" width="12" x="1110" y="261.9"/>
  <text x="1110" y="331.5" font-family="Tahoma" font-size="12" transform="rotate(90 1110,331.5)" text-rendering="optimizeSpeed" fill="#000000">email-ext (6456)</text>
  <rect fill="blue" height="70.3" stroke="black" width="12" x="1125" y="256.1"/>
  <text x="1125" y="331.5" font-family="Tahoma" font-size="12" transform="rotate(90 1125,331.5)" text-rendering="optimizeSpeed" fill="#000000">translation (7034)</text>
  <rect fill="blue" height="72.5" stroke="black" width="12" x="1140" y="253.9"/>
  <text x="1140" y="331.5" font-family="Tahoma" font-size="12" transform="rotate(90 1140,331.5)" text-rendering="optimizeSpeed" fill="#000000">git (7255)</text>
  <rect fill="blue" height="93.9" stroke="black" width="12" x="1155" y="232.6"/>
  <text x="1155" y="331.5" font-family="Tahoma" font-size="12" transform="rotate(90 1155,331.5)" text-rendering="optimizeSpeed" fill="#000000">analysis-core (9387)</text>
  <rect fill="blue" height="259.1" stroke="black" width="12" x="1170" y="67.4"/>
  <text x="1170" y="331.5" font-family="Tahoma" font-size="12" transform="rotate(90 1170,331.5)" text-rendering="optimizeSpeed" fill="#000000">cvs (25911)</text>
  <rect fill="blue" height="270.3" stroke="black" width="12" x="1185" y="56.2"/>
  <text x="1185" y="331.5" font-family="Tahoma" font-size="12" transform="rotate(90 1185,331.5)" text-rendering="optimizeSpeed" fill="#000000">maven-plugin (27030)</text>
  <rect fill="blue" height="273.4" stroke="black" width="12" x="1200" y="53.0"/>
  <text x="1200" y="331.5" font-family="Tahoma" font-size="12" transform="rotate(90 1200,331.5)" text-rendering="optimizeSpeed" fill="#000000">subversion (27342)</text>
  <rect fill="blue" height="276.5" stroke="black" width="12" x="1215" y="50.0"/>
  <text x="1215" y="331.5" font-family="Tahoma" font-size="12" transform="rotate(90 1215,331.5)" text-rendering="optimizeSpeed" fill="#000000">ssh-slaves (27646)</text>
  <text x="10" y="40" font-family="Tahoma" font-size="20" text-rendering="optimizeSpeed" fill="#000000">Plugin installations (installations &gt; 1000)</text>
</svg>
