<svg xmlns="http://www.w3.org/2000/svg" version="1.1" preserveAspectRatio="xMidYMid meet" viewBox="0 0 1850 568.1">
  <rect fill="blue" height="5.2" stroke="black" width="12" x="15" y="262.9"/>
  <text x="15" y="273.1" font-family="Tahoma" font-size="12" transform="rotate(90 15,273.1)" text-rendering="optimizeSpeed" fill="#000000">grails (517)</text>
  <rect fill="blue" height="5.2" stroke="black" width="12" x="30" y="262.9"/>
  <text x="30" y="273.1" font-family="Tahoma" font-size="12" transform="rotate(90 30,273.1)" text-rendering="optimizeSpeed" fill="#000000">svnpublisher (524)</text>
  <rect fill="blue" height="5.3" stroke="black" width="12" x="45" y="262.8"/>
  <text x="45" y="273.1" font-family="Tahoma" font-size="12" transform="rotate(90 45,273.1)" text-rendering="optimizeSpeed" fill="#000000">configurationslicing (527)</text>
  <rect fill="blue" height="5.3" stroke="black" width="12" x="60" y="262.8"/>
  <text x="60" y="273.1" font-family="Tahoma" font-size="12" transform="rotate(90 60,273.1)" text-rendering="optimizeSpeed" fill="#000000">publish-over-ssh (529)</text>
  <rect fill="blue" height="5.3" stroke="black" width="12" x="75" y="262.8"/>
  <text x="75" y="273.1" font-family="Tahoma" font-size="12" transform="rotate(90 75,273.1)" text-rendering="optimizeSpeed" fill="#000000">mstest (530)</text>
  <rect fill="blue" height="5.5" stroke="black" width="12" x="90" y="262.6"/>
  <text x="90" y="273.1" font-family="Tahoma" font-size="12" transform="rotate(90 90,273.1)" text-rendering="optimizeSpeed" fill="#000000">build-publisher (546)</text>
  <rect fill="blue" height="5.5" stroke="black" width="12" x="105" y="262.6"/>
  <text x="105" y="273.1" font-family="Tahoma" font-size="12" transform="rotate(90 105,273.1)" text-rendering="optimizeSpeed" fill="#000000">depgraph-view (546)</text>
  <rect fill="blue" height="5.5" stroke="black" width="12" x="120" y="262.6"/>
  <text x="120" y="273.1" font-family="Tahoma" font-size="12" transform="rotate(90 120,273.1)" text-rendering="optimizeSpeed" fill="#000000">bugzilla (547)</text>
  <rect fill="blue" height="5.6" stroke="black" width="12" x="135" y="262.5"/>
  <text x="135" y="273.1" font-family="Tahoma" font-size="12" transform="rotate(90 135,273.1)" text-rendering="optimizeSpeed" fill="#000000">cron_column (558)</text>
  <rect fill="blue" height="5.7" stroke="black" width="12" x="150" y="262.4"/>
  <text x="150" y="273.1" font-family="Tahoma" font-size="12" transform="rotate(90 150,273.1)" text-rendering="optimizeSpeed" fill="#000000">envfile (570)</text>
  <rect fill="blue" height="5.8" stroke="black" width="12" x="165" y="262.4"/>
  <text x="165" y="273.1" font-family="Tahoma" font-size="12" transform="rotate(90 165,273.1)" text-rendering="optimizeSpeed" fill="#000000">ircbot (575)</text>
  <rect fill="blue" height="5.9" stroke="black" width="12" x="180" y="262.2"/>
  <text x="180" y="273.1" font-family="Tahoma" font-size="12" transform="rotate(90 180,273.1)" text-rendering="optimizeSpeed" fill="#000000">cppcheck (586)</text>
  <rect fill="blue" height="5.9" stroke="black" width="12" x="195" y="262.2"/>
  <text x="195" y="273.1" font-family="Tahoma" font-size="12" transform="rotate(90 195,273.1)" text-rendering="optimizeSpeed" fill="#000000">ldapemail (594)</text>
  <rect fill="blue" height="6.1" stroke="black" width="12" x="210" y="262.0"/>
  <text x="210" y="273.1" font-family="Tahoma" font-size="12" transform="rotate(90 210,273.1)" text-rendering="optimizeSpeed" fill="#000000">view-job-filters (614)</text>
  <rect fill="blue" height="6.2" stroke="black" width="12" x="225" y="262.0"/>
  <text x="225" y="273.1" font-family="Tahoma" font-size="12" transform="rotate(90 225,273.1)" text-rendering="optimizeSpeed" fill="#000000">viewVC (616)</text>
  <rect fill="blue" height="6.3" stroke="black" width="12" x="240" y="261.8"/>
  <text x="240" y="273.1" font-family="Tahoma" font-size="12" transform="rotate(90 240,273.1)" text-rendering="optimizeSpeed" fill="#000000">global-build-stats (632)</text>
  <rect fill="blue" height="6.4" stroke="black" width="12" x="255" y="261.7"/>
  <text x="255" y="273.1" font-family="Tahoma" font-size="12" transform="rotate(90 255,273.1)" text-rendering="optimizeSpeed" fill="#000000">compact-columns (637)</text>
  <rect fill="blue" height="6.7" stroke="black" width="12" x="270" y="261.4"/>
  <text x="270" y="273.1" font-family="Tahoma" font-size="12" transform="rotate(90 270,273.1)" text-rendering="optimizeSpeed" fill="#000000">next-build-number (672)</text>
  <rect fill="blue" height="6.8" stroke="black" width="12" x="285" y="261.4"/>
  <text x="285" y="273.1" font-family="Tahoma" font-size="12" transform="rotate(90 285,273.1)" text-rendering="optimizeSpeed" fill="#000000">claim (676)</text>
  <rect fill="blue" height="6.8" stroke="black" width="12" x="300" y="261.3"/>
  <text x="300" y="273.1" font-family="Tahoma" font-size="12" transform="rotate(90 300,273.1)" text-rendering="optimizeSpeed" fill="#000000">nant (678)</text>
  <rect fill="blue" height="6.9" stroke="black" width="12" x="315" y="261.2"/>
  <text x="315" y="273.1" font-family="Tahoma" font-size="12" transform="rotate(90 315,273.1)" text-rendering="optimizeSpeed" fill="#000000">url-change-trigger (691)</text>
  <rect fill="blue" height="7.0" stroke="black" width="12" x="330" y="261.1"/>
  <text x="330" y="273.1" font-family="Tahoma" font-size="12" transform="rotate(90 330,273.1)" text-rendering="optimizeSpeed" fill="#000000">changelog-history (705)</text>
  <rect fill="blue" height="7.0" stroke="black" width="12" x="345" y="261.1"/>
  <text x="345" y="273.1" font-family="Tahoma" font-size="12" transform="rotate(90 345,273.1)" text-rendering="optimizeSpeed" fill="#000000">xfpanel (705)</text>
  <rect fill="blue" height="7.1" stroke="black" width="12" x="360" y="261.0"/>
  <text x="360" y="273.1" font-family="Tahoma" font-size="12" transform="rotate(90 360,273.1)" text-rendering="optimizeSpeed" fill="#000000">xvnc (708)</text>
  <rect fill="blue" height="7.2" stroke="black" width="12" x="375" y="261.0"/>
  <text x="375" y="273.1" font-family="Tahoma" font-size="12" transform="rotate(90 375,273.1)" text-rendering="optimizeSpeed" fill="#000000">clearcase (716)</text>
  <rect fill="blue" height="7.3" stroke="black" width="12" x="390" y="260.8"/>
  <text x="390" y="273.1" font-family="Tahoma" font-size="12" transform="rotate(90 390,273.1)" text-rendering="optimizeSpeed" fill="#000000">maven-info (734)</text>
  <rect fill="blue" height="7.4" stroke="black" width="12" x="405" y="260.7"/>
  <text x="405" y="273.1" font-family="Tahoma" font-size="12" transform="rotate(90 405,273.1)" text-rendering="optimizeSpeed" fill="#000000">nested-view (744)</text>
  <rect fill="blue" height="7.6" stroke="black" width="12" x="420" y="260.5"/>
  <text x="420" y="273.1" font-family="Tahoma" font-size="12" transform="rotate(90 420,273.1)" text-rendering="optimizeSpeed" fill="#000000">port-allocator (759)</text>
  <rect fill="blue" height="7.6" stroke="black" width="12" x="435" y="260.5"/>
  <text x="435" y="273.1" font-family="Tahoma" font-size="12" transform="rotate(90 435,273.1)" text-rendering="optimizeSpeed" fill="#000000">sloccount (759)</text>
  <rect fill="blue" height="7.6" stroke="black" width="12" x="450" y="260.5"/>
  <text x="450" y="273.1" font-family="Tahoma" font-size="12" transform="rotate(90 450,273.1)" text-rendering="optimizeSpeed" fill="#000000">locale (761)</text>
  <rect fill="blue" height="7.7" stroke="black" width="12" x="465" y="260.4"/>
  <text x="465" y="273.1" font-family="Tahoma" font-size="12" transform="rotate(90 465,273.1)" text-rendering="optimizeSpeed" fill="#000000">monitoring (770)</text>
  <rect fill="blue" height="7.8" stroke="black" width="12" x="480" y="260.3"/>
  <text x="480" y="273.1" font-family="Tahoma" font-size="12" transform="rotate(90 480,273.1)" text-rendering="optimizeSpeed" fill="#000000">hudsontrayapp (779)</text>
  <rect fill="blue" height="7.8" stroke="black" width="12" x="495" y="260.3"/>
  <text x="495" y="273.1" font-family="Tahoma" font-size="12" transform="rotate(90 495,273.1)" text-rendering="optimizeSpeed" fill="#000000">ruby (780)</text>
  <rect fill="blue" height="7.8" stroke="black" width="12" x="510" y="260.3"/>
  <text x="510" y="273.1" font-family="Tahoma" font-size="12" transform="rotate(90 510,273.1)" text-rendering="optimizeSpeed" fill="#000000">template-project (783)</text>
  <rect fill="blue" height="7.9" stroke="black" width="12" x="525" y="260.2"/>
  <text x="525" y="273.1" font-family="Tahoma" font-size="12" transform="rotate(90 525,273.1)" text-rendering="optimizeSpeed" fill="#000000">description-setter (793)</text>
  <rect fill="blue" height="8.1" stroke="black" width="12" x="540" y="260.1"/>
  <text x="540" y="273.1" font-family="Tahoma" font-size="12" transform="rotate(90 540,273.1)" text-rendering="optimizeSpeed" fill="#000000">downstream-ext (805)</text>
  <rect fill="blue" height="8.1" stroke="black" width="12" x="555" y="260.0"/>
  <text x="555" y="273.1" font-family="Tahoma" font-size="12" transform="rotate(90 555,273.1)" text-rendering="optimizeSpeed" fill="#000000">timestamper (807)</text>
  <rect fill="blue" height="8.1" stroke="black" width="12" x="570" y="260.0"/>
  <text x="570" y="273.1" font-family="Tahoma" font-size="12" transform="rotate(90 570,273.1)" text-rendering="optimizeSpeed" fill="#000000">groovy (809)</text>
  <rect fill="blue" height="8.1" stroke="black" width="12" x="585" y="260.0"/>
  <text x="585" y="273.1" font-family="Tahoma" font-size="12" transform="rotate(90 585,273.1)" text-rendering="optimizeSpeed" fill="#000000">jobConfigHistory (814)</text>
  <rect fill="blue" height="8.2" stroke="black" width="12" x="600" y="259.9"/>
  <text x="600" y="273.1" font-family="Tahoma" font-size="12" transform="rotate(90 600,273.1)" text-rendering="optimizeSpeed" fill="#000000">redmine (822)</text>
  <rect fill="blue" height="8.3" stroke="black" width="12" x="615" y="259.8"/>
  <text x="615" y="273.1" font-family="Tahoma" font-size="12" transform="rotate(90 615,273.1)" text-rendering="optimizeSpeed" fill="#000000">copy-to-slave (829)</text>
  <rect fill="blue" height="8.3" stroke="black" width="12" x="630" y="259.8"/>
  <text x="630" y="273.1" font-family="Tahoma" font-size="12" transform="rotate(90 630,273.1)" text-rendering="optimizeSpeed" fill="#000000">seleniumhq (831)</text>
  <rect fill="blue" height="8.4" stroke="black" width="12" x="645" y="259.7"/>
  <text x="645" y="273.1" font-family="Tahoma" font-size="12" transform="rotate(90 645,273.1)" text-rendering="optimizeSpeed" fill="#000000">sectioned-view (843)</text>
  <rect fill="blue" height="8.5" stroke="black" width="12" x="660" y="259.6"/>
  <text x="660" y="273.1" font-family="Tahoma" font-size="12" transform="rotate(90 660,273.1)" text-rendering="optimizeSpeed" fill="#000000">iphoneview (853)</text>
  <rect fill="blue" height="8.7" stroke="black" width="12" x="675" y="259.5"/>
  <text x="675" y="273.1" font-family="Tahoma" font-size="12" transform="rotate(90 675,273.1)" text-rendering="optimizeSpeed" fill="#000000">doxygen (865)</text>
  <rect fill="blue" height="8.8" stroke="black" width="12" x="690" y="259.3"/>
  <text x="690" y="273.1" font-family="Tahoma" font-size="12" transform="rotate(90 690,273.1)" text-rendering="optimizeSpeed" fill="#000000">versionnumber (877)</text>
  <rect fill="blue" height="8.9" stroke="black" width="12" x="705" y="259.2"/>
  <text x="705" y="273.1" font-family="Tahoma" font-size="12" transform="rotate(90 705,273.1)" text-rendering="optimizeSpeed" fill="#000000">ftppublisher (892)</text>
  <rect fill="blue" height="9.0" stroke="black" width="12" x="720" y="259.1"/>
  <text x="720" y="273.1" font-family="Tahoma" font-size="12" transform="rotate(90 720,273.1)" text-rendering="optimizeSpeed" fill="#000000">doclinks (902)</text>
  <rect fill="blue" height="9.1" stroke="black" width="12" x="735" y="259.0"/>
  <text x="735" y="273.1" font-family="Tahoma" font-size="12" transform="rotate(90 735,273.1)" text-rendering="optimizeSpeed" fill="#000000">artifactory (906)</text>
  <rect fill="blue" height="9.2" stroke="black" width="12" x="750" y="258.9"/>
  <text x="750" y="273.1" font-family="Tahoma" font-size="12" transform="rotate(90 750,273.1)" text-rendering="optimizeSpeed" fill="#000000">join (919)</text>
  <rect fill="blue" height="9.3" stroke="black" width="12" x="765" y="258.8"/>
  <text x="765" y="273.1" font-family="Tahoma" font-size="12" transform="rotate(90 765,273.1)" text-rendering="optimizeSpeed" fill="#000000">rake (932)</text>
  <rect fill="blue" height="9.6" stroke="black" width="12" x="780" y="258.5"/>
  <text x="780" y="273.1" font-family="Tahoma" font-size="12" transform="rotate(90 780,273.1)" text-rendering="optimizeSpeed" fill="#000000">text-finder (963)</text>
  <rect fill="blue" height="9.9" stroke="black" width="12" x="795" y="258.2"/>
  <text x="795" y="273.1" font-family="Tahoma" font-size="12" transform="rotate(90 795,273.1)" text-rendering="optimizeSpeed" fill="#000000">dependencyanalyzer (990)</text>
  <rect fill="blue" height="10.0" stroke="black" width="12" x="810" y="258.1"/>
  <text x="810" y="273.1" font-family="Tahoma" font-size="12" transform="rotate(90 810,273.1)" text-rendering="optimizeSpeed" fill="#000000">python (999)</text>
  <rect fill="blue" height="10.1" stroke="black" width="12" x="825" y="258.0"/>
  <text x="825" y="273.1" font-family="Tahoma" font-size="12" transform="rotate(90 825,273.1)" text-rendering="optimizeSpeed" fill="#000000">hudson-pview-plugin (1013)</text>
  <rect fill="blue" height="10.2" stroke="black" width="12" x="840" y="257.9"/>
  <text x="840" y="273.1" font-family="Tahoma" font-size="12" transform="rotate(90 840,273.1)" text-rendering="optimizeSpeed" fill="#000000">trac (1017)</text>
  <rect fill="blue" height="10.2" stroke="black" width="12" x="855" y="257.9"/>
  <text x="855" y="273.1" font-family="Tahoma" font-size="12" transform="rotate(90 855,273.1)" text-rendering="optimizeSpeed" fill="#000000">copyarchiver (1024)</text>
  <rect fill="blue" height="10.3" stroke="black" width="12" x="870" y="257.8"/>
  <text x="870" y="273.1" font-family="Tahoma" font-size="12" transform="rotate(90 870,273.1)" text-rendering="optimizeSpeed" fill="#000000">perforce (1030)</text>
  <rect fill="blue" height="10.7" stroke="black" width="12" x="885" y="257.4"/>
  <text x="885" y="273.1" font-family="Tahoma" font-size="12" transform="rotate(90 885,273.1)" text-rendering="optimizeSpeed" fill="#000000">statusmonitor (1070)</text>
  <rect fill="blue" height="11.1" stroke="black" width="12" x="900" y="257.0"/>
  <text x="900" y="273.1" font-family="Tahoma" font-size="12" transform="rotate(90 900,273.1)" text-rendering="optimizeSpeed" fill="#000000">downstream-buildview (1108)</text>
  <rect fill="blue" height="11.4" stroke="black" width="12" x="915" y="256.7"/>
  <text x="915" y="273.1" font-family="Tahoma" font-size="12" transform="rotate(90 915,273.1)" text-rendering="optimizeSpeed" fill="#000000">sidebar-link (1142)</text>
  <rect fill="blue" height="11.6" stroke="black" width="12" x="930" y="256.6"/>
  <text x="930" y="273.1" font-family="Tahoma" font-size="12" transform="rotate(90 930,273.1)" text-rendering="optimizeSpeed" fill="#000000">nunit (1155)</text>
  <rect fill="blue" height="11.7" stroke="black" width="12" x="945" y="256.4"/>
  <text x="945" y="273.1" font-family="Tahoma" font-size="12" transform="rotate(90 945,273.1)" text-rendering="optimizeSpeed" fill="#000000">radiatorviewplugin (1171)</text>
  <rect fill="blue" height="11.8" stroke="black" width="12" x="960" y="256.3"/>
  <text x="960" y="273.1" font-family="Tahoma" font-size="12" transform="rotate(90 960,273.1)" text-rendering="optimizeSpeed" fill="#000000">svn-release-mgr (1181)</text>
  <rect fill="blue" height="11.8" stroke="black" width="12" x="975" y="256.3"/>
  <text x="975" y="273.1" font-family="Tahoma" font-size="12" transform="rotate(90 975,273.1)" text-rendering="optimizeSpeed" fill="#000000">jabber (1183)</text>
  <rect fill="blue" height="12.0" stroke="black" width="12" x="990" y="256.1"/>
  <text x="990" y="273.1" font-family="Tahoma" font-size="12" transform="rotate(90 990,273.1)" text-rendering="optimizeSpeed" fill="#000000">github (1203)</text>
  <rect fill="blue" height="12.1" stroke="black" width="12" x="1005" y="256.0"/>
  <text x="1005" y="273.1" font-family="Tahoma" font-size="12" transform="rotate(90 1005,273.1)" text-rendering="optimizeSpeed" fill="#000000">ssh (1214)</text>
  <rect fill="blue" height="12.2" stroke="black" width="12" x="1020" y="255.9"/>
  <text x="1020" y="273.1" font-family="Tahoma" font-size="12" transform="rotate(90 1020,273.1)" text-rendering="optimizeSpeed" fill="#000000">performance (1216)</text>
  <rect fill="blue" height="12.2" stroke="black" width="12" x="1035" y="255.9"/>
  <text x="1035" y="273.1" font-family="Tahoma" font-size="12" transform="rotate(90 1035,273.1)" text-rendering="optimizeSpeed" fill="#000000">promoted-builds (1220)</text>
  <rect fill="blue" height="12.2" stroke="black" width="12" x="1050" y="255.9"/>
  <text x="1050" y="273.1" font-family="Tahoma" font-size="12" transform="rotate(90 1050,273.1)" text-rendering="optimizeSpeed" fill="#000000">release (1221)</text>
  <rect fill="blue" height="12.3" stroke="black" width="12" x="1065" y="255.8"/>
  <text x="1065" y="273.1" font-family="Tahoma" font-size="12" transform="rotate(90 1065,273.1)" text-rendering="optimizeSpeed" fill="#000000">log-parser (1234)</text>
  <rect fill="blue" height="12.6" stroke="black" width="12" x="1080" y="255.5"/>
  <text x="1080" y="273.1" font-family="Tahoma" font-size="12" transform="rotate(90 1080,273.1)" text-rendering="optimizeSpeed" fill="#000000">audit-trail (1260)</text>
  <rect fill="blue" height="12.7" stroke="black" width="12" x="1095" y="255.4"/>
  <text x="1095" y="273.1" font-family="Tahoma" font-size="12" transform="rotate(90 1095,273.1)" text-rendering="optimizeSpeed" fill="#000000">jdepend (1274)</text>
  <rect fill="blue" height="13.6" stroke="black" width="12" x="1110" y="254.5"/>
  <text x="1110" y="273.1" font-family="Tahoma" font-size="12" transform="rotate(90 1110,273.1)" text-rendering="optimizeSpeed" fill="#000000">locks-and-latches (1359)</text>
  <rect fill="blue" height="13.6" stroke="black" width="12" x="1125" y="254.5"/>
  <text x="1125" y="273.1" font-family="Tahoma" font-size="12" transform="rotate(90 1125,273.1)" text-rendering="optimizeSpeed" fill="#000000">clover (1360)</text>
  <rect fill="blue" height="14.5" stroke="black" width="12" x="1140" y="253.6"/>
  <text x="1140" y="273.1" font-family="Tahoma" font-size="12" transform="rotate(90 1140,273.1)" text-rendering="optimizeSpeed" fill="#000000">copyartifact (1447)</text>
  <rect fill="blue" height="14.9" stroke="black" width="12" x="1155" y="253.2"/>
  <text x="1155" y="273.1" font-family="Tahoma" font-size="12" transform="rotate(90 1155,273.1)" text-rendering="optimizeSpeed" fill="#000000">mercurial (1491)</text>
  <rect fill="blue" height="14.9" stroke="black" width="12" x="1170" y="253.2"/>
  <text x="1170" y="273.1" font-family="Tahoma" font-size="12" transform="rotate(90 1170,273.1)" text-rendering="optimizeSpeed" fill="#000000">plot (1494)</text>
  <rect fill="blue" height="15.2" stroke="black" width="12" x="1185" y="252.9"/>
  <text x="1185" y="273.1" font-family="Tahoma" font-size="12" transform="rotate(90 1185,273.1)" text-rendering="optimizeSpeed" fill="#000000">ci-game (1525)</text>
  <rect fill="blue" height="16.1" stroke="black" width="12" x="1200" y="252.0"/>
  <text x="1200" y="273.1" font-family="Tahoma" font-size="12" transform="rotate(90 1200,273.1)" text-rendering="optimizeSpeed" fill="#000000">m2-extra-steps (1607)</text>
  <rect fill="blue" height="16.6" stroke="black" width="12" x="1215" y="251.5"/>
  <text x="1215" y="273.1" font-family="Tahoma" font-size="12" transform="rotate(90 1215,273.1)" text-rendering="optimizeSpeed" fill="#000000">emma (1659)</text>
  <rect fill="blue" height="17.0" stroke="black" width="12" x="1230" y="251.1"/>
  <text x="1230" y="273.1" font-family="Tahoma" font-size="12" transform="rotate(90 1230,273.1)" text-rendering="optimizeSpeed" fill="#000000">emotional-hudson (1701)</text>
  <rect fill="blue" height="17.1" stroke="black" width="12" x="1245" y="251.0"/>
  <text x="1245" y="273.1" font-family="Tahoma" font-size="12" transform="rotate(90 1245,273.1)" text-rendering="optimizeSpeed" fill="#000000">batch-task (1715)</text>
  <rect fill="blue" height="18.3" stroke="black" width="12" x="1260" y="249.8"/>
  <text x="1260" y="273.1" font-family="Tahoma" font-size="12" transform="rotate(90 1260,273.1)" text-rendering="optimizeSpeed" fill="#000000">svn-tag (1831)</text>
  <rect fill="blue" height="18.4" stroke="black" width="12" x="1275" y="249.7"/>
  <text x="1275" y="273.1" font-family="Tahoma" font-size="12" transform="rotate(90 1275,273.1)" text-rendering="optimizeSpeed" fill="#000000">setenv (1839)</text>
  <rect fill="blue" height="18.6" stroke="black" width="12" x="1290" y="249.5"/>
  <text x="1290" y="273.1" font-family="Tahoma" font-size="12" transform="rotate(90 1290,273.1)" text-rendering="optimizeSpeed" fill="#000000">m2release (1860)</text>
  <rect fill="blue" height="18.7" stroke="black" width="12" x="1305" y="249.4"/>
  <text x="1305" y="273.1" font-family="Tahoma" font-size="12" transform="rotate(90 1305,273.1)" text-rendering="optimizeSpeed" fill="#000000">msbuild (1872)</text>
  <rect fill="blue" height="19.1" stroke="black" width="12" x="1320" y="249.0"/>
  <text x="1320" y="273.1" font-family="Tahoma" font-size="12" transform="rotate(90 1320,273.1)" text-rendering="optimizeSpeed" fill="#000000">postbuild-task (1907)</text>
  <rect fill="blue" height="19.4" stroke="black" width="12" x="1335" y="248.8"/>
  <text x="1335" y="273.1" font-family="Tahoma" font-size="12" transform="rotate(90 1335,273.1)" text-rendering="optimizeSpeed" fill="#000000">instant-messaging (1936)</text>
  <rect fill="blue" height="19.8" stroke="black" width="12" x="1350" y="248.3"/>
  <text x="1350" y="273.1" font-family="Tahoma" font-size="12" transform="rotate(90 1350,273.1)" text-rendering="optimizeSpeed" fill="#000000">scp (1981)</text>
  <rect fill="blue" height="20.7" stroke="black" width="12" x="1365" y="247.4"/>
  <text x="1365" y="273.1" font-family="Tahoma" font-size="12" transform="rotate(90 1365,273.1)" text-rendering="optimizeSpeed" fill="#000000">parameterized-trigger (2068)</text>
  <rect fill="blue" height="21.5" stroke="black" width="12" x="1380" y="246.6"/>
  <text x="1380" y="273.1" font-family="Tahoma" font-size="12" transform="rotate(90 1380,273.1)" text-rendering="optimizeSpeed" fill="#000000">build-timeout (2147)</text>
  <rect fill="blue" height="22.0" stroke="black" width="12" x="1395" y="246.1"/>
  <text x="1395" y="273.1" font-family="Tahoma" font-size="12" transform="rotate(90 1395,273.1)" text-rendering="optimizeSpeed" fill="#000000">backup (2204)</text>
  <rect fill="blue" height="22.2" stroke="black" width="12" x="1410" y="245.9"/>
  <text x="1410" y="273.1" font-family="Tahoma" font-size="12" transform="rotate(90 1410,273.1)" text-rendering="optimizeSpeed" fill="#000000">xunit (2225)</text>
  <rect fill="blue" height="22.6" stroke="black" width="12" x="1425" y="245.5"/>
  <text x="1425" y="273.1" font-family="Tahoma" font-size="12" transform="rotate(90 1425,273.1)" text-rendering="optimizeSpeed" fill="#000000">dry (2264)</text>
  <rect fill="blue" height="22.6" stroke="black" width="12" x="1440" y="245.5"/>
  <text x="1440" y="273.1" font-family="Tahoma" font-size="12" transform="rotate(90 1440,273.1)" text-rendering="optimizeSpeed" fill="#000000">jira (2265)</text>
  <rect fill="blue" height="22.9" stroke="black" width="12" x="1455" y="245.2"/>
  <text x="1455" y="273.1" font-family="Tahoma" font-size="12" transform="rotate(90 1455,273.1)" text-rendering="optimizeSpeed" fill="#000000">deploy (2287)</text>
  <rect fill="blue" height="22.9" stroke="black" width="12" x="1470" y="245.2"/>
  <text x="1470" y="273.1" font-family="Tahoma" font-size="12" transform="rotate(90 1470,273.1)" text-rendering="optimizeSpeed" fill="#000000">active-directory (2292)</text>
  <rect fill="blue" height="23.3" stroke="black" width="12" x="1485" y="244.8"/>
  <text x="1485" y="273.1" font-family="Tahoma" font-size="12" transform="rotate(90 1485,273.1)" text-rendering="optimizeSpeed" fill="#000000">tasks (2334)</text>
  <rect fill="blue" height="26.1" stroke="black" width="12" x="1500" y="242.0"/>
  <text x="1500" y="273.1" font-family="Tahoma" font-size="12" transform="rotate(90 1500,273.1)" text-rendering="optimizeSpeed" fill="#000000">htmlpublisher (2608)</text>
  <rect fill="blue" height="26.3" stroke="black" width="12" x="1515" y="241.8"/>
  <text x="1515" y="273.1" font-family="Tahoma" font-size="12" transform="rotate(90 1515,273.1)" text-rendering="optimizeSpeed" fill="#000000">dashboard-view (2632)</text>
  <rect fill="blue" height="28.6" stroke="black" width="12" x="1530" y="239.5"/>
  <text x="1530" y="273.1" font-family="Tahoma" font-size="12" transform="rotate(90 1530,273.1)" text-rendering="optimizeSpeed" fill="#000000">analysis-collector (2860)</text>
  <rect fill="blue" height="28.7" stroke="black" width="12" x="1545" y="239.4"/>
  <text x="1545" y="273.1" font-family="Tahoma" font-size="12" transform="rotate(90 1545,273.1)" text-rendering="optimizeSpeed" fill="#000000">chucknorris (2871)</text>
  <rect fill="blue" height="30.2" stroke="black" width="12" x="1560" y="237.9"/>
  <text x="1560" y="273.1" font-family="Tahoma" font-size="12" transform="rotate(90 1560,273.1)" text-rendering="optimizeSpeed" fill="#000000">violations (3018)</text>
  <rect fill="blue" height="31.3" stroke="black" width="12" x="1575" y="236.8"/>
  <text x="1575" y="273.1" font-family="Tahoma" font-size="12" transform="rotate(90 1575,273.1)" text-rendering="optimizeSpeed" fill="#000000">disk-usage (3129)</text>
  <rect fill="blue" height="31.8" stroke="black" width="12" x="1590" y="236.3"/>
  <text x="1590" y="273.1" font-family="Tahoma" font-size="12" transform="rotate(90 1590,273.1)" text-rendering="optimizeSpeed" fill="#000000">warnings (3178)</text>
  <rect fill="blue" height="32.9" stroke="black" width="12" x="1605" y="235.2"/>
  <text x="1605" y="273.1" font-family="Tahoma" font-size="12" transform="rotate(90 1605,273.1)" text-rendering="optimizeSpeed" fill="#000000">sonar (3291)</text>
  <rect fill="blue" height="35.9" stroke="black" width="12" x="1620" y="232.2"/>
  <text x="1620" y="273.1" font-family="Tahoma" font-size="12" transform="rotate(90 1620,273.1)" text-rendering="optimizeSpeed" fill="#000000">pmd (3588)</text>
  <rect fill="blue" height="38.9" stroke="black" width="12" x="1635" y="229.2"/>
  <text x="1635" y="273.1" font-family="Tahoma" font-size="12" transform="rotate(90 1635,273.1)" text-rendering="optimizeSpeed" fill="#000000">findbugs (3894)</text>
  <rect fill="blue" height="40.0" stroke="black" width="12" x="1650" y="228.1"/>
  <text x="1650" y="273.1" font-family="Tahoma" font-size="12" transform="rotate(90 1650,273.1)" text-rendering="optimizeSpeed" fill="#000000">cobertura (3998)</text>
  <rect fill="blue" height="41.5" stroke="black" width="12" x="1665" y="226.7"/>
  <text x="1665" y="273.1" font-family="Tahoma" font-size="12" transform="rotate(90 1665,273.1)" text-rendering="optimizeSpeed" fill="#000000">checkstyle (4145)</text>
  <rect fill="blue" height="43.6" stroke="black" width="12" x="1680" y="224.5"/>
  <text x="1680" y="273.1" font-family="Tahoma" font-size="12" transform="rotate(90 1680,273.1)" text-rendering="optimizeSpeed" fill="#000000">git (4364)</text>
  <rect fill="blue" height="46.1" stroke="black" width="12" x="1695" y="222.0"/>
  <text x="1695" y="273.1" font-family="Tahoma" font-size="12" transform="rotate(90 1695,273.1)" text-rendering="optimizeSpeed" fill="#000000">scis-ad (4607)</text>
  <rect fill="blue" height="48.5" stroke="black" width="12" x="1710" y="219.6"/>
  <text x="1710" y="273.1" font-family="Tahoma" font-size="12" transform="rotate(90 1710,273.1)" text-rendering="optimizeSpeed" fill="#000000">greenballs (4851)</text>
  <rect fill="blue" height="50.9" stroke="black" width="12" x="1725" y="217.2"/>
  <text x="1725" y="273.1" font-family="Tahoma" font-size="12" transform="rotate(90 1725,273.1)" text-rendering="optimizeSpeed" fill="#000000">email-ext (5088)</text>
  <rect fill="blue" height="77.5" stroke="black" width="12" x="1740" y="190.6"/>
  <text x="1740" y="273.1" font-family="Tahoma" font-size="12" transform="rotate(90 1740,273.1)" text-rendering="optimizeSpeed" fill="#000000">analysis-core (7746)</text>
  <rect fill="blue" height="205.8" stroke="black" width="12" x="1755" y="62.3"/>
  <text x="1755" y="273.1" font-family="Tahoma" font-size="12" transform="rotate(90 1755,273.1)" text-rendering="optimizeSpeed" fill="#000000">cvs (20581)</text>
  <rect fill="blue" height="213.5" stroke="black" width="12" x="1770" y="54.6"/>
  <text x="1770" y="273.1" font-family="Tahoma" font-size="12" transform="rotate(90 1770,273.1)" text-rendering="optimizeSpeed" fill="#000000">maven-plugin (21348)</text>
  <rect fill="blue" height="216.9" stroke="black" width="12" x="1785" y="51.2"/>
  <text x="1785" y="273.1" font-family="Tahoma" font-size="12" transform="rotate(90 1785,273.1)" text-rendering="optimizeSpeed" fill="#000000">subversion (21691)</text>
  <rect fill="blue" height="218.1" stroke="black" width="12" x="1800" y="50.0"/>
  <text x="1800" y="273.1" font-family="Tahoma" font-size="12" transform="rotate(90 1800,273.1)" text-rendering="optimizeSpeed" fill="#000000">ssh-slaves (21811)</text>
  <text x="10" y="40" font-family="Tahoma" font-size="20" text-rendering="optimizeSpeed" fill="#000000">Plugin installations (installations &gt; 500)</text>
</svg>
