<svg xmlns="http://www.w3.org/2000/svg" version="1.1" preserveAspectRatio="xMidYMid meet" viewBox="0 0 1745 566.1">
  <rect fill="blue" height="5.0" stroke="black" width="12" x="15" y="261.0"/>
  <text x="15" y="271.1" font-family="Tahoma" font-size="12" transform="rotate(90 15,271.1)" text-rendering="optimizeSpeed" fill="#000000">svnpublisher (502)</text>
  <rect fill="blue" height="5.0" stroke="black" width="12" x="30" y="261.0"/>
  <text x="30" y="271.1" font-family="Tahoma" font-size="12" transform="rotate(90 30,271.1)" text-rendering="optimizeSpeed" fill="#000000">configurationslicing (504)</text>
  <rect fill="blue" height="5.1" stroke="black" width="12" x="45" y="261.0"/>
  <text x="45" y="271.1" font-family="Tahoma" font-size="12" transform="rotate(90 45,271.1)" text-rendering="optimizeSpeed" fill="#000000">grails (506)</text>
  <rect fill="blue" height="5.1" stroke="black" width="12" x="60" y="261.0"/>
  <text x="60" y="271.1" font-family="Tahoma" font-size="12" transform="rotate(90 60,271.1)" text-rendering="optimizeSpeed" fill="#000000">global-build-stats (508)</text>
  <rect fill="blue" height="5.1" stroke="black" width="12" x="75" y="260.9"/>
  <text x="75" y="271.1" font-family="Tahoma" font-size="12" transform="rotate(90 75,271.1)" text-rendering="optimizeSpeed" fill="#000000">cron_column (513)</text>
  <rect fill="blue" height="5.2" stroke="black" width="12" x="90" y="260.9"/>
  <text x="90" y="271.1" font-family="Tahoma" font-size="12" transform="rotate(90 90,271.1)" text-rendering="optimizeSpeed" fill="#000000">bugzilla (522)</text>
  <rect fill="blue" height="5.2" stroke="black" width="12" x="105" y="260.9"/>
  <text x="105" y="271.1" font-family="Tahoma" font-size="12" transform="rotate(90 105,271.1)" text-rendering="optimizeSpeed" fill="#000000">cppcheck (522)</text>
  <rect fill="blue" height="5.5" stroke="black" width="12" x="120" y="260.6"/>
  <text x="120" y="271.1" font-family="Tahoma" font-size="12" transform="rotate(90 120,271.1)" text-rendering="optimizeSpeed" fill="#000000">compact-columns (548)</text>
  <rect fill="blue" height="5.8" stroke="black" width="12" x="135" y="260.3"/>
  <text x="135" y="271.1" font-family="Tahoma" font-size="12" transform="rotate(90 135,271.1)" text-rendering="optimizeSpeed" fill="#000000">next-build-number (579)</text>
  <rect fill="blue" height="5.8" stroke="black" width="12" x="150" y="260.3"/>
  <text x="150" y="271.1" font-family="Tahoma" font-size="12" transform="rotate(90 150,271.1)" text-rendering="optimizeSpeed" fill="#000000">timestamper (580)</text>
  <rect fill="blue" height="5.8" stroke="black" width="12" x="165" y="260.3"/>
  <text x="165" y="271.1" font-family="Tahoma" font-size="12" transform="rotate(90 165,271.1)" text-rendering="optimizeSpeed" fill="#000000">claim (581)</text>
  <rect fill="blue" height="5.8" stroke="black" width="12" x="180" y="260.3"/>
  <text x="180" y="271.1" font-family="Tahoma" font-size="12" transform="rotate(90 180,271.1)" text-rendering="optimizeSpeed" fill="#000000">port-allocator (581)</text>
  <rect fill="blue" height="5.9" stroke="black" width="12" x="195" y="260.2"/>
  <text x="195" y="271.1" font-family="Tahoma" font-size="12" transform="rotate(90 195,271.1)" text-rendering="optimizeSpeed" fill="#000000">url-change-trigger (587)</text>
  <rect fill="blue" height="5.9" stroke="black" width="12" x="210" y="260.2"/>
  <text x="210" y="271.1" font-family="Tahoma" font-size="12" transform="rotate(90 210,271.1)" text-rendering="optimizeSpeed" fill="#000000">ldapemail (591)</text>
  <rect fill="blue" height="6.0" stroke="black" width="12" x="225" y="260.1"/>
  <text x="225" y="271.1" font-family="Tahoma" font-size="12" transform="rotate(90 225,271.1)" text-rendering="optimizeSpeed" fill="#000000">xvnc (596)</text>
  <rect fill="blue" height="6.1" stroke="black" width="12" x="240" y="259.9"/>
  <text x="240" y="271.1" font-family="Tahoma" font-size="12" transform="rotate(90 240,271.1)" text-rendering="optimizeSpeed" fill="#000000">xfpanel (613)</text>
  <rect fill="blue" height="6.2" stroke="black" width="12" x="255" y="259.9"/>
  <text x="255" y="271.1" font-family="Tahoma" font-size="12" transform="rotate(90 255,271.1)" text-rendering="optimizeSpeed" fill="#000000">viewVC (617)</text>
  <rect fill="blue" height="6.4" stroke="black" width="12" x="270" y="259.7"/>
  <text x="270" y="271.1" font-family="Tahoma" font-size="12" transform="rotate(90 270,271.1)" text-rendering="optimizeSpeed" fill="#000000">nested-view (640)</text>
  <rect fill="blue" height="6.5" stroke="black" width="12" x="285" y="259.6"/>
  <text x="285" y="271.1" font-family="Tahoma" font-size="12" transform="rotate(90 285,271.1)" text-rendering="optimizeSpeed" fill="#000000">locale (645)</text>
  <rect fill="blue" height="6.5" stroke="black" width="12" x="300" y="259.5"/>
  <text x="300" y="271.1" font-family="Tahoma" font-size="12" transform="rotate(90 300,271.1)" text-rendering="optimizeSpeed" fill="#000000">nant (652)</text>
  <rect fill="blue" height="6.5" stroke="black" width="12" x="315" y="259.5"/>
  <text x="315" y="271.1" font-family="Tahoma" font-size="12" transform="rotate(90 315,271.1)" text-rendering="optimizeSpeed" fill="#000000">jobConfigHistory (655)</text>
  <rect fill="blue" height="6.6" stroke="black" width="12" x="330" y="259.5"/>
  <text x="330" y="271.1" font-family="Tahoma" font-size="12" transform="rotate(90 330,271.1)" text-rendering="optimizeSpeed" fill="#000000">downstream-ext (659)</text>
  <rect fill="blue" height="6.7" stroke="black" width="12" x="345" y="259.3"/>
  <text x="345" y="271.1" font-family="Tahoma" font-size="12" transform="rotate(90 345,271.1)" text-rendering="optimizeSpeed" fill="#000000">description-setter (674)</text>
  <rect fill="blue" height="6.8" stroke="black" width="12" x="360" y="259.3"/>
  <text x="360" y="271.1" font-family="Tahoma" font-size="12" transform="rotate(90 360,271.1)" text-rendering="optimizeSpeed" fill="#000000">changelog-history (677)</text>
  <rect fill="blue" height="6.8" stroke="black" width="12" x="375" y="259.3"/>
  <text x="375" y="271.1" font-family="Tahoma" font-size="12" transform="rotate(90 375,271.1)" text-rendering="optimizeSpeed" fill="#000000">sloccount (677)</text>
  <rect fill="blue" height="6.8" stroke="black" width="12" x="390" y="259.3"/>
  <text x="390" y="271.1" font-family="Tahoma" font-size="12" transform="rotate(90 390,271.1)" text-rendering="optimizeSpeed" fill="#000000">hudsontrayapp (681)</text>
  <rect fill="blue" height="6.9" stroke="black" width="12" x="405" y="259.2"/>
  <text x="405" y="271.1" font-family="Tahoma" font-size="12" transform="rotate(90 405,271.1)" text-rendering="optimizeSpeed" fill="#000000">monitoring (688)</text>
  <rect fill="blue" height="7.0" stroke="black" width="12" x="420" y="259.1"/>
  <text x="420" y="271.1" font-family="Tahoma" font-size="12" transform="rotate(90 420,271.1)" text-rendering="optimizeSpeed" fill="#000000">copy-to-slave (695)</text>
  <rect fill="blue" height="7.0" stroke="black" width="12" x="435" y="259.0"/>
  <text x="435" y="271.1" font-family="Tahoma" font-size="12" transform="rotate(90 435,271.1)" text-rendering="optimizeSpeed" fill="#000000">ruby (704)</text>
  <rect fill="blue" height="7.3" stroke="black" width="12" x="450" y="258.7"/>
  <text x="450" y="271.1" font-family="Tahoma" font-size="12" transform="rotate(90 450,271.1)" text-rendering="optimizeSpeed" fill="#000000">clearcase (734)</text>
  <rect fill="blue" height="7.3" stroke="black" width="12" x="465" y="258.7"/>
  <text x="465" y="271.1" font-family="Tahoma" font-size="12" transform="rotate(90 465,271.1)" text-rendering="optimizeSpeed" fill="#000000">groovy (734)</text>
  <rect fill="blue" height="7.4" stroke="black" width="12" x="480" y="258.7"/>
  <text x="480" y="271.1" font-family="Tahoma" font-size="12" transform="rotate(90 480,271.1)" text-rendering="optimizeSpeed" fill="#000000">redmine (737)</text>
  <rect fill="blue" height="7.6" stroke="black" width="12" x="495" y="258.5"/>
  <text x="495" y="271.1" font-family="Tahoma" font-size="12" transform="rotate(90 495,271.1)" text-rendering="optimizeSpeed" fill="#000000">sectioned-view (761)</text>
  <rect fill="blue" height="7.7" stroke="black" width="12" x="510" y="258.4"/>
  <text x="510" y="271.1" font-family="Tahoma" font-size="12" transform="rotate(90 510,271.1)" text-rendering="optimizeSpeed" fill="#000000">join (771)</text>
  <rect fill="blue" height="7.7" stroke="black" width="12" x="525" y="258.4"/>
  <text x="525" y="271.1" font-family="Tahoma" font-size="12" transform="rotate(90 525,271.1)" text-rendering="optimizeSpeed" fill="#000000">versionnumber (771)</text>
  <rect fill="blue" height="7.9" stroke="black" width="12" x="540" y="258.1"/>
  <text x="540" y="271.1" font-family="Tahoma" font-size="12" transform="rotate(90 540,271.1)" text-rendering="optimizeSpeed" fill="#000000">template-project (793)</text>
  <rect fill="blue" height="7.9" stroke="black" width="12" x="555" y="258.1"/>
  <text x="555" y="271.1" font-family="Tahoma" font-size="12" transform="rotate(90 555,271.1)" text-rendering="optimizeSpeed" fill="#000000">artifactory (794)</text>
  <rect fill="blue" height="8.0" stroke="black" width="12" x="570" y="258.1"/>
  <text x="570" y="271.1" font-family="Tahoma" font-size="12" transform="rotate(90 570,271.1)" text-rendering="optimizeSpeed" fill="#000000">seleniumhq (795)</text>
  <rect fill="blue" height="8.0" stroke="black" width="12" x="585" y="258.1"/>
  <text x="585" y="271.1" font-family="Tahoma" font-size="12" transform="rotate(90 585,271.1)" text-rendering="optimizeSpeed" fill="#000000">doxygen (797)</text>
  <rect fill="blue" height="8.0" stroke="black" width="12" x="600" y="258.1"/>
  <text x="600" y="271.1" font-family="Tahoma" font-size="12" transform="rotate(90 600,271.1)" text-rendering="optimizeSpeed" fill="#000000">iphoneview (797)</text>
  <rect fill="blue" height="8.2" stroke="black" width="12" x="615" y="257.9"/>
  <text x="615" y="271.1" font-family="Tahoma" font-size="12" transform="rotate(90 615,271.1)" text-rendering="optimizeSpeed" fill="#000000">rake (815)</text>
  <rect fill="blue" height="8.2" stroke="black" width="12" x="630" y="257.9"/>
  <text x="630" y="271.1" font-family="Tahoma" font-size="12" transform="rotate(90 630,271.1)" text-rendering="optimizeSpeed" fill="#000000">maven-info (819)</text>
  <rect fill="blue" height="8.3" stroke="black" width="12" x="645" y="257.8"/>
  <text x="645" y="271.1" font-family="Tahoma" font-size="12" transform="rotate(90 645,271.1)" text-rendering="optimizeSpeed" fill="#000000">doclinks (829)</text>
  <rect fill="blue" height="8.4" stroke="black" width="12" x="660" y="257.7"/>
  <text x="660" y="271.1" font-family="Tahoma" font-size="12" transform="rotate(90 660,271.1)" text-rendering="optimizeSpeed" fill="#000000">text-finder (841)</text>
  <rect fill="blue" height="8.7" stroke="black" width="12" x="675" y="257.4"/>
  <text x="675" y="271.1" font-family="Tahoma" font-size="12" transform="rotate(90 675,271.1)" text-rendering="optimizeSpeed" fill="#000000">github (868)</text>
  <rect fill="blue" height="9.0" stroke="black" width="12" x="690" y="257.1"/>
  <text x="690" y="271.1" font-family="Tahoma" font-size="12" transform="rotate(90 690,271.1)" text-rendering="optimizeSpeed" fill="#000000">ftppublisher (897)</text>
  <rect fill="blue" height="9.1" stroke="black" width="12" x="705" y="257.0"/>
  <text x="705" y="271.1" font-family="Tahoma" font-size="12" transform="rotate(90 705,271.1)" text-rendering="optimizeSpeed" fill="#000000">python (905)</text>
  <rect fill="blue" height="9.1" stroke="black" width="12" x="720" y="257.0"/>
  <text x="720" y="271.1" font-family="Tahoma" font-size="12" transform="rotate(90 720,271.1)" text-rendering="optimizeSpeed" fill="#000000">copyarchiver (908)</text>
  <rect fill="blue" height="9.3" stroke="black" width="12" x="735" y="256.8"/>
  <text x="735" y="271.1" font-family="Tahoma" font-size="12" transform="rotate(90 735,271.1)" text-rendering="optimizeSpeed" fill="#000000">hudson-pview-plugin (926)</text>
  <rect fill="blue" height="9.3" stroke="black" width="12" x="750" y="256.7"/>
  <text x="750" y="271.1" font-family="Tahoma" font-size="12" transform="rotate(90 750,271.1)" text-rendering="optimizeSpeed" fill="#000000">perforce (935)</text>
  <rect fill="blue" height="9.7" stroke="black" width="12" x="765" y="256.4"/>
  <text x="765" y="271.1" font-family="Tahoma" font-size="12" transform="rotate(90 765,271.1)" text-rendering="optimizeSpeed" fill="#000000">downstream-buildview (965)</text>
  <rect fill="blue" height="9.7" stroke="black" width="12" x="780" y="256.4"/>
  <text x="780" y="271.1" font-family="Tahoma" font-size="12" transform="rotate(90 780,271.1)" text-rendering="optimizeSpeed" fill="#000000">log-parser (967)</text>
  <rect fill="blue" height="9.9" stroke="black" width="12" x="795" y="256.2"/>
  <text x="795" y="271.1" font-family="Tahoma" font-size="12" transform="rotate(90 795,271.1)" text-rendering="optimizeSpeed" fill="#000000">dependencyanalyzer (987)</text>
  <rect fill="blue" height="10.1" stroke="black" width="12" x="810" y="256.0"/>
  <text x="810" y="271.1" font-family="Tahoma" font-size="12" transform="rotate(90 810,271.1)" text-rendering="optimizeSpeed" fill="#000000">sidebar-link (1008)</text>
  <rect fill="blue" height="10.2" stroke="black" width="12" x="825" y="255.9"/>
  <text x="825" y="271.1" font-family="Tahoma" font-size="12" transform="rotate(90 825,271.1)" text-rendering="optimizeSpeed" fill="#000000">statusmonitor (1018)</text>
  <rect fill="blue" height="10.4" stroke="black" width="12" x="840" y="255.7"/>
  <text x="840" y="271.1" font-family="Tahoma" font-size="12" transform="rotate(90 840,271.1)" text-rendering="optimizeSpeed" fill="#000000">trac (1037)</text>
  <rect fill="blue" height="10.4" stroke="black" width="12" x="855" y="255.6"/>
  <text x="855" y="271.1" font-family="Tahoma" font-size="12" transform="rotate(90 855,271.1)" text-rendering="optimizeSpeed" fill="#000000">plot (1043)</text>
  <rect fill="blue" height="10.5" stroke="black" width="12" x="870" y="255.5"/>
  <text x="870" y="271.1" font-family="Tahoma" font-size="12" transform="rotate(90 870,271.1)" text-rendering="optimizeSpeed" fill="#000000">jdepend (1054)</text>
  <rect fill="blue" height="10.7" stroke="black" width="12" x="885" y="255.4"/>
  <text x="885" y="271.1" font-family="Tahoma" font-size="12" transform="rotate(90 885,271.1)" text-rendering="optimizeSpeed" fill="#000000">promoted-builds (1065)</text>
  <rect fill="blue" height="10.8" stroke="black" width="12" x="900" y="255.3"/>
  <text x="900" y="271.1" font-family="Tahoma" font-size="12" transform="rotate(90 900,271.1)" text-rendering="optimizeSpeed" fill="#000000">copyartifact (1077)</text>
  <rect fill="blue" height="10.8" stroke="black" width="12" x="915" y="255.3"/>
  <text x="915" y="271.1" font-family="Tahoma" font-size="12" transform="rotate(90 915,271.1)" text-rendering="optimizeSpeed" fill="#000000">nunit (1081)</text>
  <rect fill="blue" height="10.9" stroke="black" width="12" x="930" y="255.2"/>
  <text x="930" y="271.1" font-family="Tahoma" font-size="12" transform="rotate(90 930,271.1)" text-rendering="optimizeSpeed" fill="#000000">performance (1091)</text>
  <rect fill="blue" height="11.0" stroke="black" width="12" x="945" y="255.1"/>
  <text x="945" y="271.1" font-family="Tahoma" font-size="12" transform="rotate(90 945,271.1)" text-rendering="optimizeSpeed" fill="#000000">ssh (1099)</text>
  <rect fill="blue" height="11.2" stroke="black" width="12" x="960" y="254.9"/>
  <text x="960" y="271.1" font-family="Tahoma" font-size="12" transform="rotate(90 960,271.1)" text-rendering="optimizeSpeed" fill="#000000">audit-trail (1119)</text>
  <rect fill="blue" height="11.2" stroke="black" width="12" x="975" y="254.8"/>
  <text x="975" y="271.1" font-family="Tahoma" font-size="12" transform="rotate(90 975,271.1)" text-rendering="optimizeSpeed" fill="#000000">radiatorviewplugin (1125)</text>
  <rect fill="blue" height="11.3" stroke="black" width="12" x="990" y="254.8"/>
  <text x="990" y="271.1" font-family="Tahoma" font-size="12" transform="rotate(90 990,271.1)" text-rendering="optimizeSpeed" fill="#000000">release (1126)</text>
  <rect fill="blue" height="11.3" stroke="black" width="12" x="1005" y="254.8"/>
  <text x="1005" y="271.1" font-family="Tahoma" font-size="12" transform="rotate(90 1005,271.1)" text-rendering="optimizeSpeed" fill="#000000">jabber (1127)</text>
  <rect fill="blue" height="11.3" stroke="black" width="12" x="1020" y="254.7"/>
  <text x="1020" y="271.1" font-family="Tahoma" font-size="12" transform="rotate(90 1020,271.1)" text-rendering="optimizeSpeed" fill="#000000">locks-and-latches (1135)</text>
  <rect fill="blue" height="11.5" stroke="black" width="12" x="1035" y="254.5"/>
  <text x="1035" y="271.1" font-family="Tahoma" font-size="12" transform="rotate(90 1035,271.1)" text-rendering="optimizeSpeed" fill="#000000">clover (1154)</text>
  <rect fill="blue" height="12.1" stroke="black" width="12" x="1050" y="254.0"/>
  <text x="1050" y="271.1" font-family="Tahoma" font-size="12" transform="rotate(90 1050,271.1)" text-rendering="optimizeSpeed" fill="#000000">svn-release-mgr (1209)</text>
  <rect fill="blue" height="13.7" stroke="black" width="12" x="1065" y="252.4"/>
  <text x="1065" y="271.1" font-family="Tahoma" font-size="12" transform="rotate(90 1065,271.1)" text-rendering="optimizeSpeed" fill="#000000">mercurial (1368)</text>
  <rect fill="blue" height="14.2" stroke="black" width="12" x="1080" y="251.9"/>
  <text x="1080" y="271.1" font-family="Tahoma" font-size="12" transform="rotate(90 1080,271.1)" text-rendering="optimizeSpeed" fill="#000000">ci-game (1415)</text>
  <rect fill="blue" height="14.5" stroke="black" width="12" x="1095" y="251.6"/>
  <text x="1095" y="271.1" font-family="Tahoma" font-size="12" transform="rotate(90 1095,271.1)" text-rendering="optimizeSpeed" fill="#000000">m2-extra-steps (1446)</text>
  <rect fill="blue" height="14.8" stroke="black" width="12" x="1110" y="251.3"/>
  <text x="1110" y="271.1" font-family="Tahoma" font-size="12" transform="rotate(90 1110,271.1)" text-rendering="optimizeSpeed" fill="#000000">setenv (1480)</text>
  <rect fill="blue" height="15.9" stroke="black" width="12" x="1125" y="250.1"/>
  <text x="1125" y="271.1" font-family="Tahoma" font-size="12" transform="rotate(90 1125,271.1)" text-rendering="optimizeSpeed" fill="#000000">parameterized-trigger (1593)</text>
  <rect fill="blue" height="16.3" stroke="black" width="12" x="1140" y="249.8"/>
  <text x="1140" y="271.1" font-family="Tahoma" font-size="12" transform="rotate(90 1140,271.1)" text-rendering="optimizeSpeed" fill="#000000">batch-task (1626)</text>
  <rect fill="blue" height="16.4" stroke="black" width="12" x="1155" y="249.6"/>
  <text x="1155" y="271.1" font-family="Tahoma" font-size="12" transform="rotate(90 1155,271.1)" text-rendering="optimizeSpeed" fill="#000000">postbuild-task (1645)</text>
  <rect fill="blue" height="16.5" stroke="black" width="12" x="1170" y="249.6"/>
  <text x="1170" y="271.1" font-family="Tahoma" font-size="12" transform="rotate(90 1170,271.1)" text-rendering="optimizeSpeed" fill="#000000">emma (1646)</text>
  <rect fill="blue" height="16.6" stroke="black" width="12" x="1185" y="249.5"/>
  <text x="1185" y="271.1" font-family="Tahoma" font-size="12" transform="rotate(90 1185,271.1)" text-rendering="optimizeSpeed" fill="#000000">emotional-hudson (1655)</text>
  <rect fill="blue" height="17.3" stroke="black" width="12" x="1200" y="248.8"/>
  <text x="1200" y="271.1" font-family="Tahoma" font-size="12" transform="rotate(90 1200,271.1)" text-rendering="optimizeSpeed" fill="#000000">msbuild (1728)</text>
  <rect fill="blue" height="17.5" stroke="black" width="12" x="1215" y="248.6"/>
  <text x="1215" y="271.1" font-family="Tahoma" font-size="12" transform="rotate(90 1215,271.1)" text-rendering="optimizeSpeed" fill="#000000">m2release (1746)</text>
  <rect fill="blue" height="17.6" stroke="black" width="12" x="1230" y="248.5"/>
  <text x="1230" y="271.1" font-family="Tahoma" font-size="12" transform="rotate(90 1230,271.1)" text-rendering="optimizeSpeed" fill="#000000">instant-messaging (1758)</text>
  <rect fill="blue" height="18.1" stroke="black" width="12" x="1245" y="247.9"/>
  <text x="1245" y="271.1" font-family="Tahoma" font-size="12" transform="rotate(90 1245,271.1)" text-rendering="optimizeSpeed" fill="#000000">svn-tag (1814)</text>
  <rect fill="blue" height="18.4" stroke="black" width="12" x="1260" y="247.6"/>
  <text x="1260" y="271.1" font-family="Tahoma" font-size="12" transform="rotate(90 1260,271.1)" text-rendering="optimizeSpeed" fill="#000000">build-timeout (1845)</text>
  <rect fill="blue" height="18.9" stroke="black" width="12" x="1275" y="247.2"/>
  <text x="1275" y="271.1" font-family="Tahoma" font-size="12" transform="rotate(90 1275,271.1)" text-rendering="optimizeSpeed" fill="#000000">scp (1887)</text>
  <rect fill="blue" height="18.9" stroke="black" width="12" x="1290" y="247.2"/>
  <text x="1290" y="271.1" font-family="Tahoma" font-size="12" transform="rotate(90 1290,271.1)" text-rendering="optimizeSpeed" fill="#000000">xunit (1892)</text>
  <rect fill="blue" height="19.5" stroke="black" width="12" x="1305" y="246.6"/>
  <text x="1305" y="271.1" font-family="Tahoma" font-size="12" transform="rotate(90 1305,271.1)" text-rendering="optimizeSpeed" fill="#000000">dry (1948)</text>
  <rect fill="blue" height="20.8" stroke="black" width="12" x="1320" y="245.3"/>
  <text x="1320" y="271.1" font-family="Tahoma" font-size="12" transform="rotate(90 1320,271.1)" text-rendering="optimizeSpeed" fill="#000000">htmlpublisher (2076)</text>
  <rect fill="blue" height="20.8" stroke="black" width="12" x="1335" y="245.3"/>
  <text x="1335" y="271.1" font-family="Tahoma" font-size="12" transform="rotate(90 1335,271.1)" text-rendering="optimizeSpeed" fill="#000000">jira (2080)</text>
  <rect fill="blue" height="20.8" stroke="black" width="12" x="1350" y="245.2"/>
  <text x="1350" y="271.1" font-family="Tahoma" font-size="12" transform="rotate(90 1350,271.1)" text-rendering="optimizeSpeed" fill="#000000">active-directory (2084)</text>
  <rect fill="blue" height="20.9" stroke="black" width="12" x="1365" y="245.2"/>
  <text x="1365" y="271.1" font-family="Tahoma" font-size="12" transform="rotate(90 1365,271.1)" text-rendering="optimizeSpeed" fill="#000000">backup (2085)</text>
  <rect fill="blue" height="21.7" stroke="black" width="12" x="1380" y="244.4"/>
  <text x="1380" y="271.1" font-family="Tahoma" font-size="12" transform="rotate(90 1380,271.1)" text-rendering="optimizeSpeed" fill="#000000">deploy (2166)</text>
  <rect fill="blue" height="22.1" stroke="black" width="12" x="1395" y="244.0"/>
  <text x="1395" y="271.1" font-family="Tahoma" font-size="12" transform="rotate(90 1395,271.1)" text-rendering="optimizeSpeed" fill="#000000">tasks (2212)</text>
  <rect fill="blue" height="22.2" stroke="black" width="12" x="1410" y="243.9"/>
  <text x="1410" y="271.1" font-family="Tahoma" font-size="12" transform="rotate(90 1410,271.1)" text-rendering="optimizeSpeed" fill="#000000">dashboard-view (2220)</text>
  <rect fill="blue" height="25.8" stroke="black" width="12" x="1425" y="240.2"/>
  <text x="1425" y="271.1" font-family="Tahoma" font-size="12" transform="rotate(90 1425,271.1)" text-rendering="optimizeSpeed" fill="#000000">violations (2584)</text>
  <rect fill="blue" height="26.9" stroke="black" width="12" x="1440" y="239.2"/>
  <text x="1440" y="271.1" font-family="Tahoma" font-size="12" transform="rotate(90 1440,271.1)" text-rendering="optimizeSpeed" fill="#000000">chucknorris (2689)</text>
  <rect fill="blue" height="27.5" stroke="black" width="12" x="1455" y="238.6"/>
  <text x="1455" y="271.1" font-family="Tahoma" font-size="12" transform="rotate(90 1455,271.1)" text-rendering="optimizeSpeed" fill="#000000">analysis-collector (2751)</text>
  <rect fill="blue" height="27.6" stroke="black" width="12" x="1470" y="238.5"/>
  <text x="1470" y="271.1" font-family="Tahoma" font-size="12" transform="rotate(90 1470,271.1)" text-rendering="optimizeSpeed" fill="#000000">disk-usage (2758)</text>
  <rect fill="blue" height="29.5" stroke="black" width="12" x="1485" y="236.6"/>
  <text x="1485" y="271.1" font-family="Tahoma" font-size="12" transform="rotate(90 1485,271.1)" text-rendering="optimizeSpeed" fill="#000000">warnings (2951)</text>
  <rect fill="blue" height="29.9" stroke="black" width="12" x="1500" y="236.1"/>
  <text x="1500" y="271.1" font-family="Tahoma" font-size="12" transform="rotate(90 1500,271.1)" text-rendering="optimizeSpeed" fill="#000000">sonar (2994)</text>
  <rect fill="blue" height="33.1" stroke="black" width="12" x="1515" y="233.0"/>
  <text x="1515" y="271.1" font-family="Tahoma" font-size="12" transform="rotate(90 1515,271.1)" text-rendering="optimizeSpeed" fill="#000000">pmd (3310)</text>
  <rect fill="blue" height="34.8" stroke="black" width="12" x="1530" y="231.2"/>
  <text x="1530" y="271.1" font-family="Tahoma" font-size="12" transform="rotate(90 1530,271.1)" text-rendering="optimizeSpeed" fill="#000000">git (3483)</text>
  <rect fill="blue" height="36.6" stroke="black" width="12" x="1545" y="229.5"/>
  <text x="1545" y="271.1" font-family="Tahoma" font-size="12" transform="rotate(90 1545,271.1)" text-rendering="optimizeSpeed" fill="#000000">cobertura (3662)</text>
  <rect fill="blue" height="37.8" stroke="black" width="12" x="1560" y="228.3"/>
  <text x="1560" y="271.1" font-family="Tahoma" font-size="12" transform="rotate(90 1560,271.1)" text-rendering="optimizeSpeed" fill="#000000">findbugs (3775)</text>
  <rect fill="blue" height="38.5" stroke="black" width="12" x="1575" y="227.6"/>
  <text x="1575" y="271.1" font-family="Tahoma" font-size="12" transform="rotate(90 1575,271.1)" text-rendering="optimizeSpeed" fill="#000000">checkstyle (3851)</text>
  <rect fill="blue" height="43.4" stroke="black" width="12" x="1590" y="222.7"/>
  <text x="1590" y="271.1" font-family="Tahoma" font-size="12" transform="rotate(90 1590,271.1)" text-rendering="optimizeSpeed" fill="#000000">greenballs (4338)</text>
  <rect fill="blue" height="46.0" stroke="black" width="12" x="1605" y="220.1"/>
  <text x="1605" y="271.1" font-family="Tahoma" font-size="12" transform="rotate(90 1605,271.1)" text-rendering="optimizeSpeed" fill="#000000">email-ext (4599)</text>
  <rect fill="blue" height="52.1" stroke="black" width="12" x="1620" y="213.9"/>
  <text x="1620" y="271.1" font-family="Tahoma" font-size="12" transform="rotate(90 1620,271.1)" text-rendering="optimizeSpeed" fill="#000000">scis-ad (5215)</text>
  <rect fill="blue" height="73.3" stroke="black" width="12" x="1635" y="192.7"/>
  <text x="1635" y="271.1" font-family="Tahoma" font-size="12" transform="rotate(90 1635,271.1)" text-rendering="optimizeSpeed" fill="#000000">analysis-core (7333)</text>
  <rect fill="blue" height="207.3" stroke="black" width="12" x="1650" y="58.8"/>
  <text x="1650" y="271.1" font-family="Tahoma" font-size="12" transform="rotate(90 1650,271.1)" text-rendering="optimizeSpeed" fill="#000000">cvs (20727)</text>
  <rect fill="blue" height="212.6" stroke="black" width="12" x="1665" y="53.5"/>
  <text x="1665" y="271.1" font-family="Tahoma" font-size="12" transform="rotate(90 1665,271.1)" text-rendering="optimizeSpeed" fill="#000000">maven-plugin (21262)</text>
  <rect fill="blue" height="215.7" stroke="black" width="12" x="1680" y="50.3"/>
  <text x="1680" y="271.1" font-family="Tahoma" font-size="12" transform="rotate(90 1680,271.1)" text-rendering="optimizeSpeed" fill="#000000">subversion (21573)</text>
  <rect fill="blue" height="216.1" stroke="black" width="12" x="1695" y="50.0"/>
  <text x="1695" y="271.1" font-family="Tahoma" font-size="12" transform="rotate(90 1695,271.1)" text-rendering="optimizeSpeed" fill="#000000">ssh-slaves (21607)</text>
  <text x="10" y="40" font-family="Tahoma" font-size="20" text-rendering="optimizeSpeed" fill="#000000">Plugin installations (installations &gt; 500)</text>
</svg>
