<svg xmlns="http://www.w3.org/2000/svg" version="1.1" preserveAspectRatio="xMidYMid meet" viewBox="0 0 1970 590.1">
  <rect fill="blue" height="5.1" stroke="black" width="12" x="15" y="285.0"/>
  <text x="15" y="295.1" font-family="Tahoma" font-size="12" transform="rotate(90 15,295.1)" text-rendering="optimizeSpeed" fill="#000000">build-publisher (514)</text>
  <rect fill="blue" height="5.2" stroke="black" width="12" x="30" y="284.8"/>
  <text x="30" y="295.1" font-family="Tahoma" font-size="12" transform="rotate(90 30,295.1)" text-rendering="optimizeSpeed" fill="#000000">build-pipeline-plugin (524)</text>
  <rect fill="blue" height="5.3" stroke="black" width="12" x="45" y="284.8"/>
  <text x="45" y="295.1" font-family="Tahoma" font-size="12" transform="rotate(90 45,295.1)" text-rendering="optimizeSpeed" fill="#000000">slave-status (530)</text>
  <rect fill="blue" height="5.3" stroke="black" width="12" x="60" y="284.8"/>
  <text x="60" y="295.1" font-family="Tahoma" font-size="12" transform="rotate(90 60,295.1)" text-rendering="optimizeSpeed" fill="#000000">role-strategy (534)</text>
  <rect fill="blue" height="5.3" stroke="black" width="12" x="75" y="284.8"/>
  <text x="75" y="295.1" font-family="Tahoma" font-size="12" transform="rotate(90 75,295.1)" text-rendering="optimizeSpeed" fill="#000000">testng-plugin (534)</text>
  <rect fill="blue" height="5.3" stroke="black" width="12" x="90" y="284.8"/>
  <text x="90" y="295.1" font-family="Tahoma" font-size="12" transform="rotate(90 90,295.1)" text-rendering="optimizeSpeed" fill="#000000">ui-samples-plugin (534)</text>
  <rect fill="blue" height="5.6" stroke="black" width="12" x="105" y="284.5"/>
  <text x="105" y="295.1" font-family="Tahoma" font-size="12" transform="rotate(90 105,295.1)" text-rendering="optimizeSpeed" fill="#000000">thinBackup (556)</text>
  <rect fill="blue" height="5.6" stroke="black" width="12" x="120" y="284.5"/>
  <text x="120" y="295.1" font-family="Tahoma" font-size="12" transform="rotate(90 120,295.1)" text-rendering="optimizeSpeed" fill="#000000">bugzilla (557)</text>
  <rect fill="blue" height="5.6" stroke="black" width="12" x="135" y="284.5"/>
  <text x="135" y="295.1" font-family="Tahoma" font-size="12" transform="rotate(90 135,295.1)" text-rendering="optimizeSpeed" fill="#000000">rubyMetrics (560)</text>
  <rect fill="blue" height="5.7" stroke="black" width="12" x="150" y="284.4"/>
  <text x="150" y="295.1" font-family="Tahoma" font-size="12" transform="rotate(90 150,295.1)" text-rendering="optimizeSpeed" fill="#000000">configurationslicing (572)</text>
  <rect fill="blue" height="5.9" stroke="black" width="12" x="165" y="284.2"/>
  <text x="165" y="295.1" font-family="Tahoma" font-size="12" transform="rotate(90 165,295.1)" text-rendering="optimizeSpeed" fill="#000000">ldapemail (586)</text>
  <rect fill="blue" height="5.9" stroke="black" width="12" x="180" y="284.2"/>
  <text x="180" y="295.1" font-family="Tahoma" font-size="12" transform="rotate(90 180,295.1)" text-rendering="optimizeSpeed" fill="#000000">svnpublisher (589)</text>
  <rect fill="blue" height="6.0" stroke="black" width="12" x="195" y="284.1"/>
  <text x="195" y="295.1" font-family="Tahoma" font-size="12" transform="rotate(90 195,295.1)" text-rendering="optimizeSpeed" fill="#000000">grails (603)</text>
  <rect fill="blue" height="6.2" stroke="black" width="12" x="210" y="283.9"/>
  <text x="210" y="295.1" font-family="Tahoma" font-size="12" transform="rotate(90 210,295.1)" text-rendering="optimizeSpeed" fill="#000000">mstest (615)</text>
  <rect fill="blue" height="6.2" stroke="black" width="12" x="225" y="283.9"/>
  <text x="225" y="295.1" font-family="Tahoma" font-size="12" transform="rotate(90 225,295.1)" text-rendering="optimizeSpeed" fill="#000000">cron_column (620)</text>
  <rect fill="blue" height="6.2" stroke="black" width="12" x="240" y="283.9"/>
  <text x="240" y="295.1" font-family="Tahoma" font-size="12" transform="rotate(90 240,295.1)" text-rendering="optimizeSpeed" fill="#000000">saferestart (620)</text>
  <rect fill="blue" height="6.3" stroke="black" width="12" x="255" y="283.8"/>
  <text x="255" y="295.1" font-family="Tahoma" font-size="12" transform="rotate(90 255,295.1)" text-rendering="optimizeSpeed" fill="#000000">envfile (628)</text>
  <rect fill="blue" height="6.4" stroke="black" width="12" x="270" y="283.7"/>
  <text x="270" y="295.1" font-family="Tahoma" font-size="12" transform="rotate(90 270,295.1)" text-rendering="optimizeSpeed" fill="#000000">ircbot (643)</text>
  <rect fill="blue" height="6.5" stroke="black" width="12" x="285" y="283.6"/>
  <text x="285" y="295.1" font-family="Tahoma" font-size="12" transform="rotate(90 285,295.1)" text-rendering="optimizeSpeed" fill="#000000">cppcheck (650)</text>
  <rect fill="blue" height="6.5" stroke="black" width="12" x="300" y="283.5"/>
  <text x="300" y="295.1" font-family="Tahoma" font-size="12" transform="rotate(90 300,295.1)" text-rendering="optimizeSpeed" fill="#000000">viewVC (654)</text>
  <rect fill="blue" height="6.8" stroke="black" width="12" x="315" y="283.3"/>
  <text x="315" y="295.1" font-family="Tahoma" font-size="12" transform="rotate(90 315,295.1)" text-rendering="optimizeSpeed" fill="#000000">depgraph-view (676)</text>
  <rect fill="blue" height="6.8" stroke="black" width="12" x="330" y="283.2"/>
  <text x="330" y="295.1" font-family="Tahoma" font-size="12" transform="rotate(90 330,295.1)" text-rendering="optimizeSpeed" fill="#000000">global-build-stats (685)</text>
  <rect fill="blue" height="7.1" stroke="black" width="12" x="345" y="283.0"/>
  <text x="345" y="295.1" font-family="Tahoma" font-size="12" transform="rotate(90 345,295.1)" text-rendering="optimizeSpeed" fill="#000000">maven-info (707)</text>
  <rect fill="blue" height="7.1" stroke="black" width="12" x="360" y="283.0"/>
  <text x="360" y="295.1" font-family="Tahoma" font-size="12" transform="rotate(90 360,295.1)" text-rendering="optimizeSpeed" fill="#000000">changelog-history (714)</text>
  <rect fill="blue" height="7.2" stroke="black" width="12" x="375" y="282.9"/>
  <text x="375" y="295.1" font-family="Tahoma" font-size="12" transform="rotate(90 375,295.1)" text-rendering="optimizeSpeed" fill="#000000">url-change-trigger (721)</text>
  <rect fill="blue" height="7.3" stroke="black" width="12" x="390" y="282.8"/>
  <text x="390" y="295.1" font-family="Tahoma" font-size="12" transform="rotate(90 390,295.1)" text-rendering="optimizeSpeed" fill="#000000">xfpanel (732)</text>
  <rect fill="blue" height="7.3" stroke="black" width="12" x="405" y="282.8"/>
  <text x="405" y="295.1" font-family="Tahoma" font-size="12" transform="rotate(90 405,295.1)" text-rendering="optimizeSpeed" fill="#000000">xvnc (734)</text>
  <rect fill="blue" height="7.4" stroke="black" width="12" x="420" y="282.7"/>
  <text x="420" y="295.1" font-family="Tahoma" font-size="12" transform="rotate(90 420,295.1)" text-rendering="optimizeSpeed" fill="#000000">nant (736)</text>
  <rect fill="blue" height="7.4" stroke="black" width="12" x="435" y="282.7"/>
  <text x="435" y="295.1" font-family="Tahoma" font-size="12" transform="rotate(90 435,295.1)" text-rendering="optimizeSpeed" fill="#000000">view-job-filters (743)</text>
  <rect fill="blue" height="7.5" stroke="black" width="12" x="450" y="282.6"/>
  <text x="450" y="295.1" font-family="Tahoma" font-size="12" transform="rotate(90 450,295.1)" text-rendering="optimizeSpeed" fill="#000000">compact-columns (747)</text>
  <rect fill="blue" height="7.5" stroke="black" width="12" x="465" y="282.6"/>
  <text x="465" y="295.1" font-family="Tahoma" font-size="12" transform="rotate(90 465,295.1)" text-rendering="optimizeSpeed" fill="#000000">next-build-number (752)</text>
  <rect fill="blue" height="7.6" stroke="black" width="12" x="480" y="282.5"/>
  <text x="480" y="295.1" font-family="Tahoma" font-size="12" transform="rotate(90 480,295.1)" text-rendering="optimizeSpeed" fill="#000000">claim (761)</text>
  <rect fill="blue" height="7.7" stroke="black" width="12" x="495" y="282.4"/>
  <text x="495" y="295.1" font-family="Tahoma" font-size="12" transform="rotate(90 495,295.1)" text-rendering="optimizeSpeed" fill="#000000">clearcase (772)</text>
  <rect fill="blue" height="7.9" stroke="black" width="12" x="510" y="282.2"/>
  <text x="510" y="295.1" font-family="Tahoma" font-size="12" transform="rotate(90 510,295.1)" text-rendering="optimizeSpeed" fill="#000000">hudsontrayapp (790)</text>
  <rect fill="blue" height="8.0" stroke="black" width="12" x="525" y="282.1"/>
  <text x="525" y="295.1" font-family="Tahoma" font-size="12" transform="rotate(90 525,295.1)" text-rendering="optimizeSpeed" fill="#000000">template-project (802)</text>
  <rect fill="blue" height="8.1" stroke="black" width="12" x="540" y="282.0"/>
  <text x="540" y="295.1" font-family="Tahoma" font-size="12" transform="rotate(90 540,295.1)" text-rendering="optimizeSpeed" fill="#000000">port-allocator (813)</text>
  <rect fill="blue" height="8.2" stroke="black" width="12" x="555" y="281.9"/>
  <text x="555" y="295.1" font-family="Tahoma" font-size="12" transform="rotate(90 555,295.1)" text-rendering="optimizeSpeed" fill="#000000">nested-view (821)</text>
  <rect fill="blue" height="8.3" stroke="black" width="12" x="570" y="281.8"/>
  <text x="570" y="295.1" font-family="Tahoma" font-size="12" transform="rotate(90 570,295.1)" text-rendering="optimizeSpeed" fill="#000000">locale (827)</text>
  <rect fill="blue" height="8.3" stroke="black" width="12" x="585" y="281.8"/>
  <text x="585" y="295.1" font-family="Tahoma" font-size="12" transform="rotate(90 585,295.1)" text-rendering="optimizeSpeed" fill="#000000">publish-over-ssh (832)</text>
  <rect fill="blue" height="8.3" stroke="black" width="12" x="600" y="281.8"/>
  <text x="600" y="295.1" font-family="Tahoma" font-size="12" transform="rotate(90 600,295.1)" text-rendering="optimizeSpeed" fill="#000000">sloccount (832)</text>
  <rect fill="blue" height="8.4" stroke="black" width="12" x="615" y="281.7"/>
  <text x="615" y="295.1" font-family="Tahoma" font-size="12" transform="rotate(90 615,295.1)" text-rendering="optimizeSpeed" fill="#000000">monitoring (837)</text>
  <rect fill="blue" height="8.5" stroke="black" width="12" x="630" y="281.6"/>
  <text x="630" y="295.1" font-family="Tahoma" font-size="12" transform="rotate(90 630,295.1)" text-rendering="optimizeSpeed" fill="#000000">ruby (850)</text>
  <rect fill="blue" height="8.6" stroke="black" width="12" x="645" y="281.5"/>
  <text x="645" y="295.1" font-family="Tahoma" font-size="12" transform="rotate(90 645,295.1)" text-rendering="optimizeSpeed" fill="#000000">sectioned-view (857)</text>
  <rect fill="blue" height="8.6" stroke="black" width="12" x="660" y="281.5"/>
  <text x="660" y="295.1" font-family="Tahoma" font-size="12" transform="rotate(90 660,295.1)" text-rendering="optimizeSpeed" fill="#000000">description-setter (860)</text>
  <rect fill="blue" height="8.6" stroke="black" width="12" x="675" y="281.5"/>
  <text x="675" y="295.1" font-family="Tahoma" font-size="12" transform="rotate(90 675,295.1)" text-rendering="optimizeSpeed" fill="#000000">seleniumhq (861)</text>
  <rect fill="blue" height="8.7" stroke="black" width="12" x="690" y="281.4"/>
  <text x="690" y="295.1" font-family="Tahoma" font-size="12" transform="rotate(90 690,295.1)" text-rendering="optimizeSpeed" fill="#000000">downstream-ext (871)</text>
  <rect fill="blue" height="9.0" stroke="black" width="12" x="705" y="281.0"/>
  <text x="705" y="295.1" font-family="Tahoma" font-size="12" transform="rotate(90 705,295.1)" text-rendering="optimizeSpeed" fill="#000000">doclinks (904)</text>
  <rect fill="blue" height="9.0" stroke="black" width="12" x="720" y="281.0"/>
  <text x="720" y="295.1" font-family="Tahoma" font-size="12" transform="rotate(90 720,295.1)" text-rendering="optimizeSpeed" fill="#000000">iphoneview (904)</text>
  <rect fill="blue" height="9.1" stroke="black" width="12" x="735" y="281.0"/>
  <text x="735" y="295.1" font-family="Tahoma" font-size="12" transform="rotate(90 735,295.1)" text-rendering="optimizeSpeed" fill="#000000">redmine (909)</text>
  <rect fill="blue" height="9.1" stroke="black" width="12" x="750" y="281.0"/>
  <text x="750" y="295.1" font-family="Tahoma" font-size="12" transform="rotate(90 750,295.1)" text-rendering="optimizeSpeed" fill="#000000">groovy (914)</text>
  <rect fill="blue" height="9.2" stroke="black" width="12" x="765" y="280.9"/>
  <text x="765" y="295.1" font-family="Tahoma" font-size="12" transform="rotate(90 765,295.1)" text-rendering="optimizeSpeed" fill="#000000">ftppublisher (922)</text>
  <rect fill="blue" height="9.3" stroke="black" width="12" x="780" y="280.8"/>
  <text x="780" y="295.1" font-family="Tahoma" font-size="12" transform="rotate(90 780,295.1)" text-rendering="optimizeSpeed" fill="#000000">copy-to-slave (928)</text>
  <rect fill="blue" height="9.4" stroke="black" width="12" x="795" y="280.7"/>
  <text x="795" y="295.1" font-family="Tahoma" font-size="12" transform="rotate(90 795,295.1)" text-rendering="optimizeSpeed" fill="#000000">versionnumber (936)</text>
  <rect fill="blue" height="9.4" stroke="black" width="12" x="810" y="280.7"/>
  <text x="810" y="295.1" font-family="Tahoma" font-size="12" transform="rotate(90 810,295.1)" text-rendering="optimizeSpeed" fill="#000000">doxygen (937)</text>
  <rect fill="blue" height="9.4" stroke="black" width="12" x="825" y="280.7"/>
  <text x="825" y="295.1" font-family="Tahoma" font-size="12" transform="rotate(90 825,295.1)" text-rendering="optimizeSpeed" fill="#000000">timestamper (937)</text>
  <rect fill="blue" height="9.6" stroke="black" width="12" x="840" y="280.5"/>
  <text x="840" y="295.1" font-family="Tahoma" font-size="12" transform="rotate(90 840,295.1)" text-rendering="optimizeSpeed" fill="#000000">jobConfigHistory (960)</text>
  <rect fill="blue" height="10.0" stroke="black" width="12" x="855" y="280.1"/>
  <text x="855" y="295.1" font-family="Tahoma" font-size="12" transform="rotate(90 855,295.1)" text-rendering="optimizeSpeed" fill="#000000">artifactory (997)</text>
  <rect fill="blue" height="10.4" stroke="black" width="12" x="870" y="279.6"/>
  <text x="870" y="295.1" font-family="Tahoma" font-size="12" transform="rotate(90 870,295.1)" text-rendering="optimizeSpeed" fill="#000000">rake (1045)</text>
  <rect fill="blue" height="10.5" stroke="black" width="12" x="885" y="279.6"/>
  <text x="885" y="295.1" font-family="Tahoma" font-size="12" transform="rotate(90 885,295.1)" text-rendering="optimizeSpeed" fill="#000000">trac (1048)</text>
  <rect fill="blue" height="10.5" stroke="black" width="12" x="900" y="279.6"/>
  <text x="900" y="295.1" font-family="Tahoma" font-size="12" transform="rotate(90 900,295.1)" text-rendering="optimizeSpeed" fill="#000000">text-finder (1051)</text>
  <rect fill="blue" height="10.5" stroke="black" width="12" x="915" y="279.6"/>
  <text x="915" y="295.1" font-family="Tahoma" font-size="12" transform="rotate(90 915,295.1)" text-rendering="optimizeSpeed" fill="#000000">dependencyanalyzer (1053)</text>
  <rect fill="blue" height="10.7" stroke="black" width="12" x="930" y="279.4"/>
  <text x="930" y="295.1" font-family="Tahoma" font-size="12" transform="rotate(90 930,295.1)" text-rendering="optimizeSpeed" fill="#000000">hudson-pview-plugin (1073)</text>
  <rect fill="blue" height="10.9" stroke="black" width="12" x="945" y="279.2"/>
  <text x="945" y="295.1" font-family="Tahoma" font-size="12" transform="rotate(90 945,295.1)" text-rendering="optimizeSpeed" fill="#000000">copyarchiver (1092)</text>
  <rect fill="blue" height="10.9" stroke="black" width="12" x="960" y="279.1"/>
  <text x="960" y="295.1" font-family="Tahoma" font-size="12" transform="rotate(90 960,295.1)" text-rendering="optimizeSpeed" fill="#000000">join (1094)</text>
  <rect fill="blue" height="11.2" stroke="black" width="12" x="975" y="278.9"/>
  <text x="975" y="295.1" font-family="Tahoma" font-size="12" transform="rotate(90 975,295.1)" text-rendering="optimizeSpeed" fill="#000000">python (1117)</text>
  <rect fill="blue" height="11.4" stroke="black" width="12" x="990" y="278.7"/>
  <text x="990" y="295.1" font-family="Tahoma" font-size="12" transform="rotate(90 990,295.1)" text-rendering="optimizeSpeed" fill="#000000">statusmonitor (1140)</text>
  <rect fill="blue" height="11.9" stroke="black" width="12" x="1005" y="278.2"/>
  <text x="1005" y="295.1" font-family="Tahoma" font-size="12" transform="rotate(90 1005,295.1)" text-rendering="optimizeSpeed" fill="#000000">downstream-buildview (1190)</text>
  <rect fill="blue" height="11.9" stroke="black" width="12" x="1020" y="278.2"/>
  <text x="1020" y="295.1" font-family="Tahoma" font-size="12" transform="rotate(90 1020,295.1)" text-rendering="optimizeSpeed" fill="#000000">perforce (1193)</text>
  <rect fill="blue" height="12.2" stroke="black" width="12" x="1035" y="277.9"/>
  <text x="1035" y="295.1" font-family="Tahoma" font-size="12" transform="rotate(90 1035,295.1)" text-rendering="optimizeSpeed" fill="#000000">sidebar-link (1220)</text>
  <rect fill="blue" height="12.6" stroke="black" width="12" x="1050" y="277.5"/>
  <text x="1050" y="295.1" font-family="Tahoma" font-size="12" transform="rotate(90 1050,295.1)" text-rendering="optimizeSpeed" fill="#000000">svn-release-mgr (1256)</text>
  <rect fill="blue" height="12.7" stroke="black" width="12" x="1065" y="277.4"/>
  <text x="1065" y="295.1" font-family="Tahoma" font-size="12" transform="rotate(90 1065,295.1)" text-rendering="optimizeSpeed" fill="#000000">release (1267)</text>
  <rect fill="blue" height="13.0" stroke="black" width="12" x="1080" y="277.0"/>
  <text x="1080" y="295.1" font-family="Tahoma" font-size="12" transform="rotate(90 1080,295.1)" text-rendering="optimizeSpeed" fill="#000000">clover (1304)</text>
  <rect fill="blue" height="13.1" stroke="black" width="12" x="1095" y="277.0"/>
  <text x="1095" y="295.1" font-family="Tahoma" font-size="12" transform="rotate(90 1095,295.1)" text-rendering="optimizeSpeed" fill="#000000">nunit (1305)</text>
  <rect fill="blue" height="13.1" stroke="black" width="12" x="1110" y="277.0"/>
  <text x="1110" y="295.1" font-family="Tahoma" font-size="12" transform="rotate(90 1110,295.1)" text-rendering="optimizeSpeed" fill="#000000">radiatorviewplugin (1312)</text>
  <rect fill="blue" height="13.3" stroke="black" width="12" x="1125" y="276.8"/>
  <text x="1125" y="295.1" font-family="Tahoma" font-size="12" transform="rotate(90 1125,295.1)" text-rendering="optimizeSpeed" fill="#000000">performance (1326)</text>
  <rect fill="blue" height="13.3" stroke="black" width="12" x="1140" y="276.8"/>
  <text x="1140" y="295.1" font-family="Tahoma" font-size="12" transform="rotate(90 1140,295.1)" text-rendering="optimizeSpeed" fill="#000000">jabber (1331)</text>
  <rect fill="blue" height="13.6" stroke="black" width="12" x="1155" y="276.5"/>
  <text x="1155" y="295.1" font-family="Tahoma" font-size="12" transform="rotate(90 1155,295.1)" text-rendering="optimizeSpeed" fill="#000000">audit-trail (1356)</text>
  <rect fill="blue" height="13.7" stroke="black" width="12" x="1170" y="276.4"/>
  <text x="1170" y="295.1" font-family="Tahoma" font-size="12" transform="rotate(90 1170,295.1)" text-rendering="optimizeSpeed" fill="#000000">ssh (1367)</text>
  <rect fill="blue" height="13.9" stroke="black" width="12" x="1185" y="276.2"/>
  <text x="1185" y="295.1" font-family="Tahoma" font-size="12" transform="rotate(90 1185,295.1)" text-rendering="optimizeSpeed" fill="#000000">jdepend (1386)</text>
  <rect fill="blue" height="14.2" stroke="black" width="12" x="1200" y="275.9"/>
  <text x="1200" y="295.1" font-family="Tahoma" font-size="12" transform="rotate(90 1200,295.1)" text-rendering="optimizeSpeed" fill="#000000">log-parser (1415)</text>
  <rect fill="blue" height="14.4" stroke="black" width="12" x="1215" y="275.7"/>
  <text x="1215" y="295.1" font-family="Tahoma" font-size="12" transform="rotate(90 1215,295.1)" text-rendering="optimizeSpeed" fill="#000000">promoted-builds (1439)</text>
  <rect fill="blue" height="14.7" stroke="black" width="12" x="1230" y="275.3"/>
  <text x="1230" y="295.1" font-family="Tahoma" font-size="12" transform="rotate(90 1230,295.1)" text-rendering="optimizeSpeed" fill="#000000">github (1474)</text>
  <rect fill="blue" height="14.8" stroke="black" width="12" x="1245" y="275.3"/>
  <text x="1245" y="295.1" font-family="Tahoma" font-size="12" transform="rotate(90 1245,295.1)" text-rendering="optimizeSpeed" fill="#000000">locks-and-latches (1479)</text>
  <rect fill="blue" height="15.9" stroke="black" width="12" x="1260" y="274.2"/>
  <text x="1260" y="295.1" font-family="Tahoma" font-size="12" transform="rotate(90 1260,295.1)" text-rendering="optimizeSpeed" fill="#000000">ci-game (1587)</text>
  <rect fill="blue" height="16.2" stroke="black" width="12" x="1275" y="273.9"/>
  <text x="1275" y="295.1" font-family="Tahoma" font-size="12" transform="rotate(90 1275,295.1)" text-rendering="optimizeSpeed" fill="#000000">emotional-hudson (1620)</text>
  <rect fill="blue" height="17.3" stroke="black" width="12" x="1290" y="272.8"/>
  <text x="1290" y="295.1" font-family="Tahoma" font-size="12" transform="rotate(90 1290,295.1)" text-rendering="optimizeSpeed" fill="#000000">emma (1732)</text>
  <rect fill="blue" height="17.5" stroke="black" width="12" x="1305" y="272.6"/>
  <text x="1305" y="295.1" font-family="Tahoma" font-size="12" transform="rotate(90 1305,295.1)" text-rendering="optimizeSpeed" fill="#000000">mercurial (1747)</text>
  <rect fill="blue" height="17.5" stroke="black" width="12" x="1320" y="272.6"/>
  <text x="1320" y="295.1" font-family="Tahoma" font-size="12" transform="rotate(90 1320,295.1)" text-rendering="optimizeSpeed" fill="#000000">m2-extra-steps (1752)</text>
  <rect fill="blue" height="17.6" stroke="black" width="12" x="1335" y="272.5"/>
  <text x="1335" y="295.1" font-family="Tahoma" font-size="12" transform="rotate(90 1335,295.1)" text-rendering="optimizeSpeed" fill="#000000">plot (1763)</text>
  <rect fill="blue" height="17.9" stroke="black" width="12" x="1350" y="272.2"/>
  <text x="1350" y="295.1" font-family="Tahoma" font-size="12" transform="rotate(90 1350,295.1)" text-rendering="optimizeSpeed" fill="#000000">copyartifact (1788)</text>
  <rect fill="blue" height="18.0" stroke="black" width="12" x="1365" y="272.1"/>
  <text x="1365" y="295.1" font-family="Tahoma" font-size="12" transform="rotate(90 1365,295.1)" text-rendering="optimizeSpeed" fill="#000000">batch-task (1800)</text>
  <rect fill="blue" height="19.7" stroke="black" width="12" x="1380" y="270.4"/>
  <text x="1380" y="295.1" font-family="Tahoma" font-size="12" transform="rotate(90 1380,295.1)" text-rendering="optimizeSpeed" fill="#000000">svn-tag (1968)</text>
  <rect fill="blue" height="19.7" stroke="black" width="12" x="1395" y="270.4"/>
  <text x="1395" y="295.1" font-family="Tahoma" font-size="12" transform="rotate(90 1395,295.1)" text-rendering="optimizeSpeed" fill="#000000">m2release (1970)</text>
  <rect fill="blue" height="20.6" stroke="black" width="12" x="1410" y="269.5"/>
  <text x="1410" y="295.1" font-family="Tahoma" font-size="12" transform="rotate(90 1410,295.1)" text-rendering="optimizeSpeed" fill="#000000">scp (2061)</text>
  <rect fill="blue" height="20.8" stroke="black" width="12" x="1425" y="269.3"/>
  <text x="1425" y="295.1" font-family="Tahoma" font-size="12" transform="rotate(90 1425,295.1)" text-rendering="optimizeSpeed" fill="#000000">setenv (2076)</text>
  <rect fill="blue" height="21.2" stroke="black" width="12" x="1440" y="268.9"/>
  <text x="1440" y="295.1" font-family="Tahoma" font-size="12" transform="rotate(90 1440,295.1)" text-rendering="optimizeSpeed" fill="#000000">postbuild-task (2116)</text>
  <rect fill="blue" height="21.4" stroke="black" width="12" x="1455" y="268.7"/>
  <text x="1455" y="295.1" font-family="Tahoma" font-size="12" transform="rotate(90 1455,295.1)" text-rendering="optimizeSpeed" fill="#000000">instant-messaging (2142)</text>
  <rect fill="blue" height="21.5" stroke="black" width="12" x="1470" y="268.6"/>
  <text x="1470" y="295.1" font-family="Tahoma" font-size="12" transform="rotate(90 1470,295.1)" text-rendering="optimizeSpeed" fill="#000000">msbuild (2150)</text>
  <rect fill="blue" height="23.1" stroke="black" width="12" x="1485" y="267.0"/>
  <text x="1485" y="295.1" font-family="Tahoma" font-size="12" transform="rotate(90 1485,295.1)" text-rendering="optimizeSpeed" fill="#000000">backup (2306)</text>
  <rect fill="blue" height="23.5" stroke="black" width="12" x="1500" y="266.6"/>
  <text x="1500" y="295.1" font-family="Tahoma" font-size="12" transform="rotate(90 1500,295.1)" text-rendering="optimizeSpeed" fill="#000000">build-timeout (2353)</text>
  <rect fill="blue" height="23.6" stroke="black" width="12" x="1515" y="266.5"/>
  <text x="1515" y="295.1" font-family="Tahoma" font-size="12" transform="rotate(90 1515,295.1)" text-rendering="optimizeSpeed" fill="#000000">deploy (2357)</text>
  <rect fill="blue" height="23.9" stroke="black" width="12" x="1530" y="266.2"/>
  <text x="1530" y="295.1" font-family="Tahoma" font-size="12" transform="rotate(90 1530,295.1)" text-rendering="optimizeSpeed" fill="#000000">jira (2390)</text>
  <rect fill="blue" height="24.2" stroke="black" width="12" x="1545" y="265.9"/>
  <text x="1545" y="295.1" font-family="Tahoma" font-size="12" transform="rotate(90 1545,295.1)" text-rendering="optimizeSpeed" fill="#000000">tasks (2416)</text>
  <rect fill="blue" height="24.4" stroke="black" width="12" x="1560" y="265.7"/>
  <text x="1560" y="295.1" font-family="Tahoma" font-size="12" transform="rotate(90 1560,295.1)" text-rendering="optimizeSpeed" fill="#000000">parameterized-trigger (2441)</text>
  <rect fill="blue" height="25.4" stroke="black" width="12" x="1575" y="264.7"/>
  <text x="1575" y="295.1" font-family="Tahoma" font-size="12" transform="rotate(90 1575,295.1)" text-rendering="optimizeSpeed" fill="#000000">dry (2535)</text>
  <rect fill="blue" height="25.4" stroke="black" width="12" x="1590" y="264.7"/>
  <text x="1590" y="295.1" font-family="Tahoma" font-size="12" transform="rotate(90 1590,295.1)" text-rendering="optimizeSpeed" fill="#000000">xunit (2538)</text>
  <rect fill="blue" height="25.7" stroke="black" width="12" x="1605" y="264.4"/>
  <text x="1605" y="295.1" font-family="Tahoma" font-size="12" transform="rotate(90 1605,295.1)" text-rendering="optimizeSpeed" fill="#000000">active-directory (2572)</text>
  <rect fill="blue" height="29.8" stroke="black" width="12" x="1620" y="260.2"/>
  <text x="1620" y="295.1" font-family="Tahoma" font-size="12" transform="rotate(90 1620,295.1)" text-rendering="optimizeSpeed" fill="#000000">htmlpublisher (2984)</text>
  <rect fill="blue" height="29.9" stroke="black" width="12" x="1635" y="260.2"/>
  <text x="1635" y="295.1" font-family="Tahoma" font-size="12" transform="rotate(90 1635,295.1)" text-rendering="optimizeSpeed" fill="#000000">chucknorris (2987)</text>
  <rect fill="blue" height="30.1" stroke="black" width="12" x="1650" y="259.9"/>
  <text x="1650" y="295.1" font-family="Tahoma" font-size="12" transform="rotate(90 1650,295.1)" text-rendering="optimizeSpeed" fill="#000000">dashboard-view (3015)</text>
  <rect fill="blue" height="30.4" stroke="black" width="12" x="1665" y="259.7"/>
  <text x="1665" y="295.1" font-family="Tahoma" font-size="12" transform="rotate(90 1665,295.1)" text-rendering="optimizeSpeed" fill="#000000">analysis-collector (3042)</text>
  <rect fill="blue" height="33.2" stroke="black" width="12" x="1680" y="256.9"/>
  <text x="1680" y="295.1" font-family="Tahoma" font-size="12" transform="rotate(90 1680,295.1)" text-rendering="optimizeSpeed" fill="#000000">disk-usage (3323)</text>
  <rect fill="blue" height="33.5" stroke="black" width="12" x="1695" y="256.6"/>
  <text x="1695" y="295.1" font-family="Tahoma" font-size="12" transform="rotate(90 1695,295.1)" text-rendering="optimizeSpeed" fill="#000000">violations (3352)</text>
  <rect fill="blue" height="34.5" stroke="black" width="12" x="1710" y="255.6"/>
  <text x="1710" y="295.1" font-family="Tahoma" font-size="12" transform="rotate(90 1710,295.1)" text-rendering="optimizeSpeed" fill="#000000">warnings (3451)</text>
  <rect fill="blue" height="34.8" stroke="black" width="12" x="1725" y="255.3"/>
  <text x="1725" y="295.1" font-family="Tahoma" font-size="12" transform="rotate(90 1725,295.1)" text-rendering="optimizeSpeed" fill="#000000">sonar (3481)</text>
  <rect fill="blue" height="39.5" stroke="black" width="12" x="1740" y="250.6"/>
  <text x="1740" y="295.1" font-family="Tahoma" font-size="12" transform="rotate(90 1740,295.1)" text-rendering="optimizeSpeed" fill="#000000">pmd (3947)</text>
  <rect fill="blue" height="41.0" stroke="black" width="12" x="1755" y="249.1"/>
  <text x="1755" y="295.1" font-family="Tahoma" font-size="12" transform="rotate(90 1755,295.1)" text-rendering="optimizeSpeed" fill="#000000">findbugs (4096)</text>
  <rect fill="blue" height="42.6" stroke="black" width="12" x="1770" y="247.5"/>
  <text x="1770" y="295.1" font-family="Tahoma" font-size="12" transform="rotate(90 1770,295.1)" text-rendering="optimizeSpeed" fill="#000000">scis-ad (4257)</text>
  <rect fill="blue" height="42.9" stroke="black" width="12" x="1785" y="247.2"/>
  <text x="1785" y="295.1" font-family="Tahoma" font-size="12" transform="rotate(90 1785,295.1)" text-rendering="optimizeSpeed" fill="#000000">cobertura (4293)</text>
  <rect fill="blue" height="44.5" stroke="black" width="12" x="1800" y="245.6"/>
  <text x="1800" y="295.1" font-family="Tahoma" font-size="12" transform="rotate(90 1800,295.1)" text-rendering="optimizeSpeed" fill="#000000">checkstyle (4451)</text>
  <rect fill="blue" height="53.0" stroke="black" width="12" x="1815" y="237.1"/>
  <text x="1815" y="295.1" font-family="Tahoma" font-size="12" transform="rotate(90 1815,295.1)" text-rendering="optimizeSpeed" fill="#000000">git (5295)</text>
  <rect fill="blue" height="53.4" stroke="black" width="12" x="1830" y="236.7"/>
  <text x="1830" y="295.1" font-family="Tahoma" font-size="12" transform="rotate(90 1830,295.1)" text-rendering="optimizeSpeed" fill="#000000">greenballs (5342)</text>
  <rect fill="blue" height="55.7" stroke="black" width="12" x="1845" y="234.4"/>
  <text x="1845" y="295.1" font-family="Tahoma" font-size="12" transform="rotate(90 1845,295.1)" text-rendering="optimizeSpeed" fill="#000000">email-ext (5572)</text>
  <rect fill="blue" height="84.0" stroke="black" width="12" x="1860" y="206.1"/>
  <text x="1860" y="295.1" font-family="Tahoma" font-size="12" transform="rotate(90 1860,295.1)" text-rendering="optimizeSpeed" fill="#000000">analysis-core (8402)</text>
  <rect fill="blue" height="225.8" stroke="black" width="12" x="1875" y="64.2"/>
  <text x="1875" y="295.1" font-family="Tahoma" font-size="12" transform="rotate(90 1875,295.1)" text-rendering="optimizeSpeed" fill="#000000">cvs (22585)</text>
  <rect fill="blue" height="235.2" stroke="black" width="12" x="1890" y="54.9"/>
  <text x="1890" y="295.1" font-family="Tahoma" font-size="12" transform="rotate(90 1890,295.1)" text-rendering="optimizeSpeed" fill="#000000">maven-plugin (23517)</text>
  <rect fill="blue" height="238.5" stroke="black" width="12" x="1905" y="51.6"/>
  <text x="1905" y="295.1" font-family="Tahoma" font-size="12" transform="rotate(90 1905,295.1)" text-rendering="optimizeSpeed" fill="#000000">subversion (23847)</text>
  <rect fill="blue" height="240.1" stroke="black" width="12" x="1920" y="50.0"/>
  <text x="1920" y="295.1" font-family="Tahoma" font-size="12" transform="rotate(90 1920,295.1)" text-rendering="optimizeSpeed" fill="#000000">ssh-slaves (24009)</text>
  <text x="10" y="40" font-family="Tahoma" font-size="20" text-rendering="optimizeSpeed" fill="#000000">Plugin installations (installations &gt; 500)</text>
</svg>
