<svg xmlns="http://www.w3.org/2000/svg" version="1.1" preserveAspectRatio="xMidYMid meet" viewBox="0 0 1115 623.4">
  <rect fill="blue" height="8.6" stroke="black" width="12" x="15" y="314.8"/>
  <text x="15" y="328.4" font-family="Tahoma" font-size="12" transform="rotate(90 15,328.4)" text-rendering="optimizeSpeed" fill="#000000">1.368 (86)</text>
  <rect fill="blue" height="11.4" stroke="black" width="12" x="30" y="312.0"/>
  <text x="30" y="328.4" font-family="Tahoma" font-size="12" transform="rotate(90 30,328.4)" text-rendering="optimizeSpeed" fill="#000000">1.369 (114)</text>
  <rect fill="blue" height="3.0" stroke="black" width="12" x="45" y="320.4"/>
  <text x="45" y="328.4" font-family="Tahoma" font-size="12" transform="rotate(90 45,328.4)" text-rendering="optimizeSpeed" fill="#000000">1.370 (30)</text>
  <rect fill="blue" height="7.6" stroke="black" width="12" x="60" y="315.8"/>
  <text x="60" y="328.4" font-family="Tahoma" font-size="12" transform="rotate(90 60,328.4)" text-rendering="optimizeSpeed" fill="#000000">1.371 (76)</text>
  <rect fill="blue" height="10.1" stroke="black" width="12" x="75" y="313.3"/>
  <text x="75" y="328.4" font-family="Tahoma" font-size="12" transform="rotate(90 75,328.4)" text-rendering="optimizeSpeed" fill="#000000">1.372 (101)</text>
  <rect fill="blue" height="10.0" stroke="black" width="12" x="90" y="313.4"/>
  <text x="90" y="328.4" font-family="Tahoma" font-size="12" transform="rotate(90 90,328.4)" text-rendering="optimizeSpeed" fill="#000000">1.373 (100)</text>
  <rect fill="blue" height="19.7" stroke="black" width="12" x="105" y="303.7"/>
  <text x="105" y="328.4" font-family="Tahoma" font-size="12" transform="rotate(90 105,328.4)" text-rendering="optimizeSpeed" fill="#000000">1.374 (197)</text>
  <rect fill="blue" height="10.5" stroke="black" width="12" x="120" y="312.9"/>
  <text x="120" y="328.4" font-family="Tahoma" font-size="12" transform="rotate(90 120,328.4)" text-rendering="optimizeSpeed" fill="#000000">1.375 (105)</text>
  <rect fill="blue" height="15.3" stroke="black" width="12" x="135" y="308.1"/>
  <text x="135" y="328.4" font-family="Tahoma" font-size="12" transform="rotate(90 135,328.4)" text-rendering="optimizeSpeed" fill="#000000">1.376 (153)</text>
  <rect fill="blue" height="16.4" stroke="black" width="12" x="150" y="307.0"/>
  <text x="150" y="328.4" font-family="Tahoma" font-size="12" transform="rotate(90 150,328.4)" text-rendering="optimizeSpeed" fill="#000000">1.377 (164)</text>
  <rect fill="blue" height="11.3" stroke="black" width="12" x="165" y="312.1"/>
  <text x="165" y="328.4" font-family="Tahoma" font-size="12" transform="rotate(90 165,328.4)" text-rendering="optimizeSpeed" fill="#000000">1.378 (113)</text>
  <rect fill="blue" height="24.4" stroke="black" width="12" x="180" y="299.0"/>
  <text x="180" y="328.4" font-family="Tahoma" font-size="12" transform="rotate(90 180,328.4)" text-rendering="optimizeSpeed" fill="#000000">1.379 (244)</text>
  <rect fill="blue" height="7.8" stroke="black" width="12" x="195" y="315.6"/>
  <text x="195" y="328.4" font-family="Tahoma" font-size="12" transform="rotate(90 195,328.4)" text-rendering="optimizeSpeed" fill="#000000">1.380 (78)</text>
  <rect fill="blue" height="28.2" stroke="black" width="12" x="210" y="295.2"/>
  <text x="210" y="328.4" font-family="Tahoma" font-size="12" transform="rotate(90 210,328.4)" text-rendering="optimizeSpeed" fill="#000000">1.381 (282)</text>
  <rect fill="blue" height="7.6" stroke="black" width="12" x="225" y="315.8"/>
  <text x="225" y="328.4" font-family="Tahoma" font-size="12" transform="rotate(90 225,328.4)" text-rendering="optimizeSpeed" fill="#000000">1.382 (76)</text>
  <rect fill="blue" height="18.0" stroke="black" width="12" x="240" y="305.4"/>
  <text x="240" y="328.4" font-family="Tahoma" font-size="12" transform="rotate(90 240,328.4)" text-rendering="optimizeSpeed" fill="#000000">1.383 (180)</text>
  <rect fill="blue" height="24.7" stroke="black" width="12" x="255" y="298.7"/>
  <text x="255" y="328.4" font-family="Tahoma" font-size="12" transform="rotate(90 255,328.4)" text-rendering="optimizeSpeed" fill="#000000">1.384 (247)</text>
  <rect fill="blue" height="11.9" stroke="black" width="12" x="270" y="311.5"/>
  <text x="270" y="328.4" font-family="Tahoma" font-size="12" transform="rotate(90 270,328.4)" text-rendering="optimizeSpeed" fill="#000000">1.385 (119)</text>
  <rect fill="blue" height="66.9" stroke="black" width="12" x="285" y="256.5"/>
  <text x="285" y="328.4" font-family="Tahoma" font-size="12" transform="rotate(90 285,328.4)" text-rendering="optimizeSpeed" fill="#000000">1.386 (669)</text>
  <rect fill="blue" height="8.8" stroke="black" width="12" x="300" y="314.6"/>
  <text x="300" y="328.4" font-family="Tahoma" font-size="12" transform="rotate(90 300,328.4)" text-rendering="optimizeSpeed" fill="#000000">1.387 (88)</text>
  <rect fill="blue" height="11.0" stroke="black" width="12" x="315" y="312.4"/>
  <text x="315" y="328.4" font-family="Tahoma" font-size="12" transform="rotate(90 315,328.4)" text-rendering="optimizeSpeed" fill="#000000">1.388 (110)</text>
  <rect fill="blue" height="23.0" stroke="black" width="12" x="330" y="300.4"/>
  <text x="330" y="328.4" font-family="Tahoma" font-size="12" transform="rotate(90 330,328.4)" text-rendering="optimizeSpeed" fill="#000000">1.389 (230)</text>
  <rect fill="blue" height="1.6" stroke="black" width="12" x="345" y="321.8"/>
  <text x="345" y="328.4" font-family="Tahoma" font-size="12" transform="rotate(90 345,328.4)" text-rendering="optimizeSpeed" fill="#000000">1.390 (16)</text>
  <rect fill="blue" height="5.7" stroke="black" width="12" x="360" y="317.7"/>
  <text x="360" y="328.4" font-family="Tahoma" font-size="12" transform="rotate(90 360,328.4)" text-rendering="optimizeSpeed" fill="#000000">1.391 (57)</text>
  <rect fill="blue" height="25.3" stroke="black" width="12" x="375" y="298.1"/>
  <text x="375" y="328.4" font-family="Tahoma" font-size="12" transform="rotate(90 375,328.4)" text-rendering="optimizeSpeed" fill="#000000">1.392 (253)</text>
  <rect fill="blue" height="0.2" stroke="black" width="12" x="390" y="323.2"/>
  <text x="390" y="328.4" font-family="Tahoma" font-size="12" transform="rotate(90 390,328.4)" text-rendering="optimizeSpeed" fill="#000000">1.392.LI10 (2)</text>
  <rect fill="blue" height="50.9" stroke="black" width="12" x="405" y="272.5"/>
  <text x="405" y="328.4" font-family="Tahoma" font-size="12" transform="rotate(90 405,328.4)" text-rendering="optimizeSpeed" fill="#000000">1.393 (509)</text>
  <rect fill="blue" height="48.5" stroke="black" width="12" x="420" y="274.9"/>
  <text x="420" y="328.4" font-family="Tahoma" font-size="12" transform="rotate(90 420,328.4)" text-rendering="optimizeSpeed" fill="#000000">1.394 (485)</text>
  <rect fill="blue" height="119.6" stroke="black" width="12" x="435" y="203.8"/>
  <text x="435" y="328.4" font-family="Tahoma" font-size="12" transform="rotate(90 435,328.4)" text-rendering="optimizeSpeed" fill="#000000">1.395 (1196)</text>
  <rect fill="blue" height="82.5" stroke="black" width="12" x="450" y="240.9"/>
  <text x="450" y="328.4" font-family="Tahoma" font-size="12" transform="rotate(90 450,328.4)" text-rendering="optimizeSpeed" fill="#000000">1.395.1 (825)</text>
  <rect fill="blue" height="10.0" stroke="black" width="12" x="465" y="313.4"/>
  <text x="465" y="328.4" font-family="Tahoma" font-size="12" transform="rotate(90 465,328.4)" text-rendering="optimizeSpeed" fill="#000000">1.396 (100)</text>
  <rect fill="blue" height="8.3" stroke="black" width="12" x="480" y="315.1"/>
  <text x="480" y="328.4" font-family="Tahoma" font-size="12" transform="rotate(90 480,328.4)" text-rendering="optimizeSpeed" fill="#000000">1.397 (83)</text>
  <rect fill="blue" height="7.2" stroke="black" width="12" x="495" y="316.2"/>
  <text x="495" y="328.4" font-family="Tahoma" font-size="12" transform="rotate(90 495,328.4)" text-rendering="optimizeSpeed" fill="#000000">1.398 (72)</text>
  <rect fill="blue" height="20.0" stroke="black" width="12" x="510" y="303.4"/>
  <text x="510" y="328.4" font-family="Tahoma" font-size="12" transform="rotate(90 510,328.4)" text-rendering="optimizeSpeed" fill="#000000">1.399 (200)</text>
  <rect fill="blue" height="14.8" stroke="black" width="12" x="525" y="308.6"/>
  <text x="525" y="328.4" font-family="Tahoma" font-size="12" transform="rotate(90 525,328.4)" text-rendering="optimizeSpeed" fill="#000000">1.400 (148)</text>
  <rect fill="blue" height="0.2" stroke="black" width="12" x="540" y="323.2"/>
  <text x="540" y="328.4" font-family="Tahoma" font-size="12" transform="rotate(90 540,328.4)" text-rendering="optimizeSpeed" fill="#000000">1.400.0.2 (2)</text>
  <rect fill="blue" height="0.4" stroke="black" width="12" x="555" y="323.0"/>
  <text x="555" y="328.4" font-family="Tahoma" font-size="12" transform="rotate(90 555,328.4)" text-rendering="optimizeSpeed" fill="#000000">1.400.0.6 (4)</text>
  <rect fill="blue" height="0.3" stroke="black" width="12" x="570" y="323.1"/>
  <text x="570" y="328.4" font-family="Tahoma" font-size="12" transform="rotate(90 570,328.4)" text-rendering="optimizeSpeed" fill="#000000">1.400.0.9 (3)</text>
  <rect fill="blue" height="14.7" stroke="black" width="12" x="585" y="308.7"/>
  <text x="585" y="328.4" font-family="Tahoma" font-size="12" transform="rotate(90 585,328.4)" text-rendering="optimizeSpeed" fill="#000000">1.401 (147)</text>
  <rect fill="blue" height="17.0" stroke="black" width="12" x="600" y="306.4"/>
  <text x="600" y="328.4" font-family="Tahoma" font-size="12" transform="rotate(90 600,328.4)" text-rendering="optimizeSpeed" fill="#000000">1.403 (170)</text>
  <rect fill="blue" height="21.6" stroke="black" width="12" x="615" y="301.8"/>
  <text x="615" y="328.4" font-family="Tahoma" font-size="12" transform="rotate(90 615,328.4)" text-rendering="optimizeSpeed" fill="#000000">1.404 (216)</text>
  <rect fill="blue" height="19.7" stroke="black" width="12" x="630" y="303.7"/>
  <text x="630" y="328.4" font-family="Tahoma" font-size="12" transform="rotate(90 630,328.4)" text-rendering="optimizeSpeed" fill="#000000">1.405 (197)</text>
  <rect fill="blue" height="21.5" stroke="black" width="12" x="645" y="301.9"/>
  <text x="645" y="328.4" font-family="Tahoma" font-size="12" transform="rotate(90 645,328.4)" text-rendering="optimizeSpeed" fill="#000000">1.406 (215)</text>
  <rect fill="blue" height="5.1" stroke="black" width="12" x="660" y="318.3"/>
  <text x="660" y="328.4" font-family="Tahoma" font-size="12" transform="rotate(90 660,328.4)" text-rendering="optimizeSpeed" fill="#000000">1.407 (51)</text>
  <rect fill="blue" height="19.6" stroke="black" width="12" x="675" y="303.8"/>
  <text x="675" y="328.4" font-family="Tahoma" font-size="12" transform="rotate(90 675,328.4)" text-rendering="optimizeSpeed" fill="#000000">1.408 (196)</text>
  <rect fill="blue" height="23.1" stroke="black" width="12" x="690" y="300.3"/>
  <text x="690" y="328.4" font-family="Tahoma" font-size="12" transform="rotate(90 690,328.4)" text-rendering="optimizeSpeed" fill="#000000">1.409 (231)</text>
  <rect fill="blue" height="56.5" stroke="black" width="12" x="705" y="266.9"/>
  <text x="705" y="328.4" font-family="Tahoma" font-size="12" transform="rotate(90 705,328.4)" text-rendering="optimizeSpeed" fill="#000000">1.409.1 (565)</text>
  <rect fill="blue" height="23.3" stroke="black" width="12" x="720" y="300.1"/>
  <text x="720" y="328.4" font-family="Tahoma" font-size="12" transform="rotate(90 720,328.4)" text-rendering="optimizeSpeed" fill="#000000">1.409.2 (233)</text>
  <rect fill="blue" height="36.5" stroke="black" width="12" x="735" y="286.9"/>
  <text x="735" y="328.4" font-family="Tahoma" font-size="12" transform="rotate(90 735,328.4)" text-rendering="optimizeSpeed" fill="#000000">1.410 (365)</text>
  <rect fill="blue" height="32.0" stroke="black" width="12" x="750" y="291.4"/>
  <text x="750" y="328.4" font-family="Tahoma" font-size="12" transform="rotate(90 750,328.4)" text-rendering="optimizeSpeed" fill="#000000">1.411 (320)</text>
  <rect fill="blue" height="27.1" stroke="black" width="12" x="765" y="296.3"/>
  <text x="765" y="328.4" font-family="Tahoma" font-size="12" transform="rotate(90 765,328.4)" text-rendering="optimizeSpeed" fill="#000000">1.412 (271)</text>
  <rect fill="blue" height="58.7" stroke="black" width="12" x="780" y="264.7"/>
  <text x="780" y="328.4" font-family="Tahoma" font-size="12" transform="rotate(90 780,328.4)" text-rendering="optimizeSpeed" fill="#000000">1.413 (587)</text>
  <rect fill="blue" height="42.2" stroke="black" width="12" x="795" y="281.2"/>
  <text x="795" y="328.4" font-family="Tahoma" font-size="12" transform="rotate(90 795,328.4)" text-rendering="optimizeSpeed" fill="#000000">1.414 (422)</text>
  <rect fill="blue" height="31.4" stroke="black" width="12" x="810" y="292.0"/>
  <text x="810" y="328.4" font-family="Tahoma" font-size="12" transform="rotate(90 810,328.4)" text-rendering="optimizeSpeed" fill="#000000">1.415 (314)</text>
  <rect fill="blue" height="8.6" stroke="black" width="12" x="825" y="314.8"/>
  <text x="825" y="328.4" font-family="Tahoma" font-size="12" transform="rotate(90 825,328.4)" text-rendering="optimizeSpeed" fill="#000000">1.416 (86)</text>
  <rect fill="blue" height="40.6" stroke="black" width="12" x="840" y="282.8"/>
  <text x="840" y="328.4" font-family="Tahoma" font-size="12" transform="rotate(90 840,328.4)" text-rendering="optimizeSpeed" fill="#000000">1.417 (406)</text>
  <rect fill="blue" height="48.8" stroke="black" width="12" x="855" y="274.6"/>
  <text x="855" y="328.4" font-family="Tahoma" font-size="12" transform="rotate(90 855,328.4)" text-rendering="optimizeSpeed" fill="#000000">1.418 (488)</text>
  <rect fill="blue" height="38.4" stroke="black" width="12" x="870" y="285.0"/>
  <text x="870" y="328.4" font-family="Tahoma" font-size="12" transform="rotate(90 870,328.4)" text-rendering="optimizeSpeed" fill="#000000">1.419 (384)</text>
  <rect fill="blue" height="49.0" stroke="black" width="12" x="885" y="274.4"/>
  <text x="885" y="328.4" font-family="Tahoma" font-size="12" transform="rotate(90 885,328.4)" text-rendering="optimizeSpeed" fill="#000000">1.420 (490)</text>
  <rect fill="blue" height="62.0" stroke="black" width="12" x="900" y="261.4"/>
  <text x="900" y="328.4" font-family="Tahoma" font-size="12" transform="rotate(90 900,328.4)" text-rendering="optimizeSpeed" fill="#000000">1.421 (620)</text>
  <rect fill="blue" height="53.9" stroke="black" width="12" x="915" y="269.5"/>
  <text x="915" y="328.4" font-family="Tahoma" font-size="12" transform="rotate(90 915,328.4)" text-rendering="optimizeSpeed" fill="#000000">1.423 (539)</text>
  <rect fill="blue" height="68.6" stroke="black" width="12" x="930" y="254.8"/>
  <text x="930" y="328.4" font-family="Tahoma" font-size="12" transform="rotate(90 930,328.4)" text-rendering="optimizeSpeed" fill="#000000">1.424 (686)</text>
  <rect fill="blue" height="79.7" stroke="black" width="12" x="945" y="243.7"/>
  <text x="945" y="328.4" font-family="Tahoma" font-size="12" transform="rotate(90 945,328.4)" text-rendering="optimizeSpeed" fill="#000000">1.425 (797)</text>
  <rect fill="blue" height="39.8" stroke="black" width="12" x="960" y="283.6"/>
  <text x="960" y="328.4" font-family="Tahoma" font-size="12" transform="rotate(90 960,328.4)" text-rendering="optimizeSpeed" fill="#000000">1.426 (398)</text>
  <rect fill="blue" height="0.1" stroke="black" width="12" x="975" y="323.3"/>
  <text x="975" y="328.4" font-family="Tahoma" font-size="12" transform="rotate(90 975,328.4)" text-rendering="optimizeSpeed" fill="#000000">1.427-j1 (1)</text>
  <rect fill="blue" height="137.9" stroke="black" width="12" x="990" y="185.5"/>
  <text x="990" y="328.4" font-family="Tahoma" font-size="12" transform="rotate(90 990,328.4)" text-rendering="optimizeSpeed" fill="#000000">1.427 (1379)</text>
  <rect fill="blue" height="199.2" stroke="black" width="12" x="1005" y="124.2"/>
  <text x="1005" y="328.4" font-family="Tahoma" font-size="12" transform="rotate(90 1005,328.4)" text-rendering="optimizeSpeed" fill="#000000">1.428 (1992)</text>
  <rect fill="blue" height="137.5" stroke="black" width="12" x="1020" y="185.9"/>
  <text x="1020" y="328.4" font-family="Tahoma" font-size="12" transform="rotate(90 1020,328.4)" text-rendering="optimizeSpeed" fill="#000000">1.429 (1375)</text>
  <rect fill="blue" height="261.8" stroke="black" width="12" x="1035" y="61.6"/>
  <text x="1035" y="328.4" font-family="Tahoma" font-size="12" transform="rotate(90 1035,328.4)" text-rendering="optimizeSpeed" fill="#000000">1.430 (2618)</text>
  <rect fill="blue" height="273.4" stroke="black" width="12" x="1050" y="50.0"/>
  <text x="1050" y="328.4" font-family="Tahoma" font-size="12" transform="rotate(90 1050,328.4)" text-rendering="optimizeSpeed" fill="#000000">1.431 (2734)</text>
  <rect fill="blue" height="165.2" stroke="black" width="12" x="1065" y="158.2"/>
  <text x="1065" y="328.4" font-family="Tahoma" font-size="12" transform="rotate(90 1065,328.4)" text-rendering="optimizeSpeed" fill="#000000">1.432 (1652)</text>
  <text x="10" y="40" font-family="Tahoma" font-size="20" text-rendering="optimizeSpeed" fill="#000000">Jenkins installations (total: 28662)</text>
</svg>
