<svg xmlns="http://www.w3.org/2000/svg" version="1.1" preserveAspectRatio="xMidYMid meet" viewBox="0 0 335 566.1">
  <rect fill="blue" height="25.8" stroke="black" width="12" x="15" y="240.2"/>
  <text x="15" y="271.1" font-family="Tahoma" font-size="12" transform="rotate(90 15,271.1)" text-rendering="optimizeSpeed" fill="#000000">violations (2584)</text>
  <rect fill="blue" height="26.9" stroke="black" width="12" x="30" y="239.2"/>
  <text x="30" y="271.1" font-family="Tahoma" font-size="12" transform="rotate(90 30,271.1)" text-rendering="optimizeSpeed" fill="#000000">chucknorris (2689)</text>
  <rect fill="blue" height="27.5" stroke="black" width="12" x="45" y="238.6"/>
  <text x="45" y="271.1" font-family="Tahoma" font-size="12" transform="rotate(90 45,271.1)" text-rendering="optimizeSpeed" fill="#000000">analysis-collector (2751)</text>
  <rect fill="blue" height="27.6" stroke="black" width="12" x="60" y="238.5"/>
  <text x="60" y="271.1" font-family="Tahoma" font-size="12" transform="rotate(90 60,271.1)" text-rendering="optimizeSpeed" fill="#000000">disk-usage (2758)</text>
  <rect fill="blue" height="29.5" stroke="black" width="12" x="75" y="236.6"/>
  <text x="75" y="271.1" font-family="Tahoma" font-size="12" transform="rotate(90 75,271.1)" text-rendering="optimizeSpeed" fill="#000000">warnings (2951)</text>
  <rect fill="blue" height="29.9" stroke="black" width="12" x="90" y="236.1"/>
  <text x="90" y="271.1" font-family="Tahoma" font-size="12" transform="rotate(90 90,271.1)" text-rendering="optimizeSpeed" fill="#000000">sonar (2994)</text>
  <rect fill="blue" height="33.1" stroke="black" width="12" x="105" y="233.0"/>
  <text x="105" y="271.1" font-family="Tahoma" font-size="12" transform="rotate(90 105,271.1)" text-rendering="optimizeSpeed" fill="#000000">pmd (3310)</text>
  <rect fill="blue" height="34.8" stroke="black" width="12" x="120" y="231.2"/>
  <text x="120" y="271.1" font-family="Tahoma" font-size="12" transform="rotate(90 120,271.1)" text-rendering="optimizeSpeed" fill="#000000">git (3483)</text>
  <rect fill="blue" height="36.6" stroke="black" width="12" x="135" y="229.5"/>
  <text x="135" y="271.1" font-family="Tahoma" font-size="12" transform="rotate(90 135,271.1)" text-rendering="optimizeSpeed" fill="#000000">cobertura (3662)</text>
  <rect fill="blue" height="37.8" stroke="black" width="12" x="150" y="228.3"/>
  <text x="150" y="271.1" font-family="Tahoma" font-size="12" transform="rotate(90 150,271.1)" text-rendering="optimizeSpeed" fill="#000000">findbugs (3775)</text>
  <rect fill="blue" height="38.5" stroke="black" width="12" x="165" y="227.6"/>
  <text x="165" y="271.1" font-family="Tahoma" font-size="12" transform="rotate(90 165,271.1)" text-rendering="optimizeSpeed" fill="#000000">checkstyle (3851)</text>
  <rect fill="blue" height="43.4" stroke="black" width="12" x="180" y="222.7"/>
  <text x="180" y="271.1" font-family="Tahoma" font-size="12" transform="rotate(90 180,271.1)" text-rendering="optimizeSpeed" fill="#000000">greenballs (4338)</text>
  <rect fill="blue" height="46.0" stroke="black" width="12" x="195" y="220.1"/>
  <text x="195" y="271.1" font-family="Tahoma" font-size="12" transform="rotate(90 195,271.1)" text-rendering="optimizeSpeed" fill="#000000">email-ext (4599)</text>
  <rect fill="blue" height="52.1" stroke="black" width="12" x="210" y="213.9"/>
  <text x="210" y="271.1" font-family="Tahoma" font-size="12" transform="rotate(90 210,271.1)" text-rendering="optimizeSpeed" fill="#000000">scis-ad (5215)</text>
  <rect fill="blue" height="73.3" stroke="black" width="12" x="225" y="192.7"/>
  <text x="225" y="271.1" font-family="Tahoma" font-size="12" transform="rotate(90 225,271.1)" text-rendering="optimizeSpeed" fill="#000000">analysis-core (7333)</text>
  <rect fill="blue" height="207.3" stroke="black" width="12" x="240" y="58.8"/>
  <text x="240" y="271.1" font-family="Tahoma" font-size="12" transform="rotate(90 240,271.1)" text-rendering="optimizeSpeed" fill="#000000">cvs (20727)</text>
  <rect fill="blue" height="212.6" stroke="black" width="12" x="255" y="53.5"/>
  <text x="255" y="271.1" font-family="Tahoma" font-size="12" transform="rotate(90 255,271.1)" text-rendering="optimizeSpeed" fill="#000000">maven-plugin (21262)</text>
  <rect fill="blue" height="215.7" stroke="black" width="12" x="270" y="50.3"/>
  <text x="270" y="271.1" font-family="Tahoma" font-size="12" transform="rotate(90 270,271.1)" text-rendering="optimizeSpeed" fill="#000000">subversion (21573)</text>
  <rect fill="blue" height="216.1" stroke="black" width="12" x="285" y="50.0"/>
  <text x="285" y="271.1" font-family="Tahoma" font-size="12" transform="rotate(90 285,271.1)" text-rendering="optimizeSpeed" fill="#000000">ssh-slaves (21607)</text>
  <text x="10" y="40" font-family="Tahoma" font-size="20" text-rendering="optimizeSpeed" fill="#000000">Plugin installations (installations &gt; 2500)</text>
</svg>
