<svg xmlns="http://www.w3.org/2000/svg" version="1.1" preserveAspectRatio="xMidYMid meet" viewBox="0 0 185 890.7">
  <rect fill="blue" height="0.0" stroke="black" width="12" x="15" y="590.7"/>
  <text x="15" y="595.7" font-family="Tahoma" font-size="12" transform="rotate(90 15,595.7)" text-rendering="optimizeSpeed" fill="#000000">hudson-jbpm-JbpmProject (3)</text>
  <rect fill="blue" height="0.0" stroke="black" width="12" x="30" y="590.7"/>
  <text x="30" y="595.7" font-family="Tahoma" font-size="12" transform="rotate(90 30,595.7)" text-rendering="optimizeSpeed" fill="#000000">hudson-aarworkflow-AARWorkflowProject (12)</text>
  <rect fill="blue" height="0.1" stroke="black" width="12" x="45" y="590.6"/>
  <text x="45" y="595.7" font-family="Tahoma" font-size="12" transform="rotate(90 45,595.7)" text-rendering="optimizeSpeed" fill="#000000">hudson-workflow-WorkflowProject (110)</text>
  <rect fill="blue" height="1.8" stroke="black" width="12" x="60" y="589.0"/>
  <text x="60" y="595.7" font-family="Tahoma" font-size="12" transform="rotate(90 60,595.7)" text-rendering="optimizeSpeed" fill="#000000">hudson-mm-MMModuleSet (1751)</text>
  <rect fill="blue" height="2.3" stroke="black" width="12" x="75" y="588.4"/>
  <text x="75" y="595.7" font-family="Tahoma" font-size="12" transform="rotate(90 75,595.7)" text-rendering="optimizeSpeed" fill="#000000">hudson-ivy-IvyModuleSet (2295)</text>
  <rect fill="blue" height="4.3" stroke="black" width="12" x="90" y="586.5"/>
  <text x="90" y="595.7" font-family="Tahoma" font-size="12" transform="rotate(90 90,595.7)" text-rendering="optimizeSpeed" fill="#000000">hudson-model-ExternalJob (4276)</text>
  <rect fill="blue" height="22.5" stroke="black" width="12" x="105" y="568.2"/>
  <text x="105" y="595.7" font-family="Tahoma" font-size="12" transform="rotate(90 105,595.7)" text-rendering="optimizeSpeed" fill="#000000">hudson-matrix-MatrixProject (22530)</text>
  <rect fill="blue" height="162.1" stroke="black" width="12" x="120" y="428.6"/>
  <text x="120" y="595.7" font-family="Tahoma" font-size="12" transform="rotate(90 120,595.7)" text-rendering="optimizeSpeed" fill="#000000">hudson-maven-MavenModuleSet (162092)</text>
  <rect fill="blue" height="540.7" stroke="black" width="12" x="135" y="50.0"/>
  <text x="135" y="595.7" font-family="Tahoma" font-size="12" transform="rotate(90 135,595.7)" text-rendering="optimizeSpeed" fill="#000000">hudson-model-FreeStyleProject (540726)</text>
  <text x="10" y="40" font-family="Tahoma" font-size="20" text-rendering="optimizeSpeed" fill="#000000">Jobs (total: 733795)</text>
</svg>
