<svg xmlns="http://www.w3.org/2000/svg" version="1.1" preserveAspectRatio="xMidYMid meet" viewBox="0 0 720 1460">
  <text x="30" y="40" font-family="sans-serif" font-size="16">Nodes, total: 57967</text>
  <path d="M 200,300 L 0.0,150.0 A 150,150 0 0 1 6.6,150.0 Z" fill="BurlyWood" stroke="black" stroke-width="1"/>
  <rect x="370" y="50" width="20" height="30" fill="BurlyWood" stroke="black" stroke-width="1"/>
  <text x="400" y="38" font-family="sans-serif" font-size="16">AIX (ppc) (175)</text>
  <path d="M 200,300 L 6.6,150.0 A 150,150 0 0 1 10.7,149.9 Z" fill="CadetBlue" stroke="black" stroke-width="1"/>
  <rect x="370" y="51" width="20" height="30" fill="CadetBlue" stroke="black" stroke-width="1"/>
  <text x="400" y="68" font-family="sans-serif" font-size="16">AIX (ppc64) (108)</text>
  <path d="M 200,300 L 10.7,149.9 A 150,150 0 0 1 13.5,149.9 Z" fill="red" stroke="black" stroke-width="1"/>
  <rect x="370" y="52" width="20" height="30" fill="red" stroke="black" stroke-width="1"/>
  <text x="400" y="98" font-family="sans-serif" font-size="16">FreeBSD (amd64) (73)</text>
  <path d="M 200,300 L 13.5,149.9 A 150,150 0 0 1 15.7,149.8 Z" fill="blue" stroke="black" stroke-width="1"/>
  <rect x="370" y="53" width="20" height="30" fill="blue" stroke="black" stroke-width="1"/>
  <text x="400" y="128" font-family="sans-serif" font-size="16">FreeBSD (i386) (58)</text>
  <path d="M 200,300 L 15.7,149.8 A 150,150 0 0 1 20.2,149.7 Z" fill="yellow" stroke="black" stroke-width="1"/>
  <rect x="370" y="54" width="20" height="30" fill="yellow" stroke="black" stroke-width="1"/>
  <text x="400" y="158" font-family="sans-serif" font-size="16">HP-UX (IA64N) (120)</text>
  <path d="M 200,300 L 20.2,149.7 A 150,150 0 0 1 20.9,149.7 Z" fill="green" stroke="black" stroke-width="1"/>
  <rect x="370" y="55" width="20" height="30" fill="green" stroke="black" stroke-width="1"/>
  <text x="400" y="188" font-family="sans-serif" font-size="16">HP-UX (IA64W) (18)</text>
  <path d="M 200,300 L 20.9,149.7 A 150,150 0 0 1 23.2,149.7 Z" fill="gold" stroke="black" stroke-width="1"/>
  <rect x="370" y="56" width="20" height="30" fill="gold" stroke="black" stroke-width="1"/>
  <text x="400" y="218" font-family="sans-serif" font-size="16">HP-UX (PA_RISC2.0) (60)</text>
  <path d="M 200,300 L 23.2,149.7 A 150,150 0 0 1 23.2,149.7 Z" fill="brown" stroke="black" stroke-width="1"/>
  <rect x="370" y="57" width="20" height="30" fill="brown" stroke="black" stroke-width="1"/>
  <text x="400" y="248" font-family="sans-serif" font-size="16">HP-UX (PA_RISC2.0W) (1)</text>
  <path d="M 200,300 L 23.2,149.7 A 150,150 0 0 1 349.8,-5.0 Z" fill="Azure" stroke="black" stroke-width="1"/>
  <rect x="370" y="58" width="20" height="30" fill="Azure" stroke="black" stroke-width="1"/>
  <text x="400" y="278" font-family="sans-serif" font-size="16">Linux (amd64) (14186)</text>
  <path d="M 200,300 L 349.8,-5.0 A 150,150 0 0 1 349.8,-5.1 Z" fill="pink" stroke="black" stroke-width="1"/>
  <rect x="370" y="59" width="20" height="30" fill="pink" stroke="black" stroke-width="1"/>
  <text x="400" y="308" font-family="sans-serif" font-size="16">Linux (arm) (7)</text>
  <path d="M 200,300 L 349.8,-5.1 A 150,150 0 0 1 186.6,-126.9 Z" fill="khaki" stroke="black" stroke-width="1"/>
  <rect x="370" y="60" width="20" height="30" fill="khaki" stroke="black" stroke-width="1"/>
  <text x="400" y="338" font-family="sans-serif" font-size="16">Linux (i386) (8989)</text>
  <path d="M 200,300 L 186.6,-126.9 A 150,150 0 0 1 186.2,-127.0 Z" fill="gray" stroke="black" stroke-width="1"/>
  <rect x="370" y="61" width="20" height="30" fill="gray" stroke="black" stroke-width="1"/>
  <text x="400" y="368" font-family="sans-serif" font-size="16">Linux (ia64) (14)</text>
  <path d="M 200,300 L 186.2,-127.0 A 150,150 0 0 1 185.5,-127.2 Z" fill="Aqua" stroke="black" stroke-width="1"/>
  <rect x="370" y="62" width="20" height="30" fill="Aqua" stroke="black" stroke-width="1"/>
  <text x="400" y="398" font-family="sans-serif" font-size="16">Linux (ppc) (21)</text>
  <path d="M 200,300 L 185.5,-127.2 A 150,150 0 0 1 185.0,-127.3 Z" fill="Aquamarine" stroke="black" stroke-width="1"/>
  <rect x="370" y="63" width="20" height="30" fill="Aquamarine" stroke="black" stroke-width="1"/>
  <text x="400" y="428" font-family="sans-serif" font-size="16">Linux (ppc64) (16)</text>
  <path d="M 200,300 L 185.0,-127.3 A 150,150 0 0 1 184.7,-127.4 Z" fill="beige" stroke="black" stroke-width="1"/>
  <rect x="370" y="64" width="20" height="30" fill="beige" stroke="black" stroke-width="1"/>
  <text x="400" y="458" font-family="sans-serif" font-size="16">Linux (s390x) (10)</text>
  <path d="M 200,300 L 184.7,-127.4 A 150,150 0 0 1 184.6,-127.4 Z" fill="blueviolet" stroke="black" stroke-width="1"/>
  <rect x="370" y="65" width="20" height="30" fill="blueviolet" stroke="black" stroke-width="1"/>
  <text x="400" y="488" font-family="sans-serif" font-size="16">Linux (sparc) (1)</text>
  <path d="M 200,300 L 184.6,-127.4 A 150,150 0 0 1 181.9,-128.2 Z" fill="Bisque" stroke="black" stroke-width="1"/>
  <rect x="370" y="66" width="20" height="30" fill="Bisque" stroke="black" stroke-width="1"/>
  <text x="400" y="518" font-family="sans-serif" font-size="16">Linux (x86) (86)</text>
  <path d="M 200,300 L 181.9,-128.2 A 150,150 0 0 1 177.6,-129.3 Z" fill="coral" stroke="black" stroke-width="1"/>
  <rect x="370" y="67" width="20" height="30" fill="coral" stroke="black" stroke-width="1"/>
  <text x="400" y="548" font-family="sans-serif" font-size="16">Mac OS X (i386) (131)</text>
  <path d="M 200,300 L 177.6,-129.3 A 150,150 0 0 1 177.2,-129.4 Z" fill="darkblue" stroke="black" stroke-width="1"/>
  <rect x="370" y="68" width="20" height="30" fill="darkblue" stroke="black" stroke-width="1"/>
  <text x="400" y="578" font-family="sans-serif" font-size="16">Mac OS X (ppc) (13)</text>
  <path d="M 200,300 L 177.2,-129.4 A 150,150 0 0 1 133.7,-138.6 Z" fill="crimson" stroke="black" stroke-width="1"/>
  <rect x="370" y="69" width="20" height="30" fill="crimson" stroke="black" stroke-width="1"/>
  <text x="400" y="608" font-family="sans-serif" font-size="16">Mac OS X (x86_64) (1281)</text>
  <path d="M 200,300 L 133.7,-138.6 A 150,150 0 0 1 -348.7,-12.9 Z" fill="cyan" stroke="black" stroke-width="1"/>
  <rect x="370" y="70" width="20" height="30" fill="cyan" stroke="black" stroke-width="1"/>
  <text x="400" y="638" font-family="sans-serif" font-size="16">N/A (17312)</text>
  <path d="M 200,300 L -348.7,-12.9 A 150,150 0 0 1 -348.7,-12.9 Z" fill="darkred" stroke="black" stroke-width="1"/>
  <rect x="370" y="71" width="20" height="30" fill="darkred" stroke="black" stroke-width="1"/>
  <text x="400" y="668" font-family="sans-serif" font-size="16">NetBSD (amd64) (1)</text>
  <path d="M 200,300 L -348.7,-12.9 A 150,150 0 0 1 -348.7,-12.8 Z" fill="ivory" stroke="black" stroke-width="1"/>
  <rect x="370" y="72" width="20" height="30" fill="ivory" stroke="black" stroke-width="1"/>
  <text x="400" y="698" font-family="sans-serif" font-size="16">OpenBSD (amd64) (3)</text>
  <path d="M 200,300 L -348.7,-12.8 A 150,150 0 0 1 -348.7,-12.8 Z" fill="lime" stroke="black" stroke-width="1"/>
  <rect x="370" y="73" width="20" height="30" fill="lime" stroke="black" stroke-width="1"/>
  <text x="400" y="728" font-family="sans-serif" font-size="16">OpenBSD (i386) (3)</text>
  <path d="M 200,300 L -348.7,-12.8 A 150,150 0 0 1 -348.8,-12.4 Z" fill="maroon" stroke="black" stroke-width="1"/>
  <rect x="370" y="74" width="20" height="30" fill="maroon" stroke="black" stroke-width="1"/>
  <text x="400" y="758" font-family="sans-serif" font-size="16">SunOS (amd64) (22)</text>
  <path d="M 200,300 L -348.8,-12.4 A 150,150 0 0 1 -350.0,0.5 Z" fill="navy" stroke="black" stroke-width="1"/>
  <rect x="370" y="75" width="20" height="30" fill="navy" stroke="black" stroke-width="1"/>
  <text x="400" y="788" font-family="sans-serif" font-size="16">SunOS (sparc) (797)</text>
  <path d="M 200,300 L -350.0,0.5 A 150,150 0 0 1 -350.0,1.2 Z" fill="olive" stroke="black" stroke-width="1"/>
  <rect x="370" y="76" width="20" height="30" fill="olive" stroke="black" stroke-width="1"/>
  <text x="400" y="818" font-family="sans-serif" font-size="16">SunOS (sparcv9) (41)</text>
  <path d="M 200,300 L -350.0,1.2 A 150,150 0 0 1 -349.5,8.4 Z" fill="plum" stroke="black" stroke-width="1"/>
  <rect x="370" y="77" width="20" height="30" fill="plum" stroke="black" stroke-width="1"/>
  <text x="400" y="848" font-family="sans-serif" font-size="16">SunOS (x86) (443)</text>
  <path d="M 200,300 L -349.5,8.4 A 150,150 0 0 1 -349.3,9.2 Z" fill="peru" stroke="black" stroke-width="1"/>
  <rect x="370" y="78" width="20" height="30" fill="peru" stroke="black" stroke-width="1"/>
  <text x="400" y="878" font-family="sans-serif" font-size="16">Windows 2000 (x86) (54)</text>
  <path d="M 200,300 L -349.3,9.2 A 150,150 0 0 1 -348.1,15.6 Z" fill="silver" stroke="black" stroke-width="1"/>
  <rect x="370" y="79" width="20" height="30" fill="silver" stroke="black" stroke-width="1"/>
  <text x="400" y="908" font-family="sans-serif" font-size="16">Windows 2003 (amd64) (391)</text>
  <path d="M 200,300 L -348.1,15.6 A 150,150 0 0 1 -348.1,15.6 Z" fill="tan" stroke="black" stroke-width="1"/>
  <rect x="370" y="80" width="20" height="30" fill="tan" stroke="black" stroke-width="1"/>
  <text x="400" y="938" font-family="sans-serif" font-size="16">Windows 2003 (ia64) (1)</text>
  <path d="M 200,300 L -348.1,15.6 A 150,150 0 0 1 -310.8,68.9 Z" fill="teal" stroke="black" stroke-width="1"/>
  <rect x="370" y="81" width="20" height="30" fill="teal" stroke="black" stroke-width="1"/>
  <text x="400" y="968" font-family="sans-serif" font-size="16">Windows 2003 (x86) (3445)</text>
  <path d="M 200,300 L -310.8,68.9 A 150,150 0 0 1 -295.8,80.2 Z" fill="violet" stroke="black" stroke-width="1"/>
  <rect x="370" y="82" width="20" height="30" fill="violet" stroke="black" stroke-width="1"/>
  <text x="400" y="998" font-family="sans-serif" font-size="16">Windows 7 (amd64) (799)</text>
  <path d="M 200,300 L -295.8,80.2 A 150,150 0 0 1 -257.8,101.4 Z" fill="AliceBlue" stroke="black" stroke-width="1"/>
  <rect x="370" y="83" width="20" height="30" fill="AliceBlue" stroke="black" stroke-width="1"/>
  <text x="400" y="1028" font-family="sans-serif" font-size="16">Windows 7 (x86) (1647)</text>
  <path d="M 200,300 L -257.8,101.4 A 150,150 0 0 1 -257.8,101.5 Z" fill="DarkOliveGreen" stroke="black" stroke-width="1"/>
  <rect x="370" y="84" width="20" height="30" fill="DarkOliveGreen" stroke="black" stroke-width="1"/>
  <text x="400" y="1058" font-family="sans-serif" font-size="16">Windows NT (unknown) (amd64) (1)</text>
  <path d="M 200,300 L -257.8,101.5 A 150,150 0 0 1 -257.2,101.7 Z" fill="Indigo" stroke="black" stroke-width="1"/>
  <rect x="370" y="85" width="20" height="30" fill="Indigo" stroke="black" stroke-width="1"/>
  <text x="400" y="1088" font-family="sans-serif" font-size="16">Windows NT (unknown) (x86) (22)</text>
  <path d="M 200,300 L -257.2,101.7 A 150,150 0 0 1 -257.2,101.7 Z" fill="MediumPurple" stroke="black" stroke-width="1"/>
  <rect x="370" y="86" width="20" height="30" fill="MediumPurple" stroke="black" stroke-width="1"/>
  <text x="400" y="1118" font-family="sans-serif" font-size="16">Windows Server 2003 (amd64) (2)</text>
  <path d="M 200,300 L -257.2,101.7 A 150,150 0 0 1 -256.4,102.1 Z" fill="Purple" stroke="black" stroke-width="1"/>
  <rect x="370" y="87" width="20" height="30" fill="Purple" stroke="black" stroke-width="1"/>
  <text x="400" y="1148" font-family="sans-serif" font-size="16">Windows Server 2003 (x86) (30)</text>
  <path d="M 200,300 L -256.4,102.1 A 150,150 0 0 1 -247.3,106.1 Z" fill="AntiqueWhite" stroke="black" stroke-width="1"/>
  <rect x="370" y="88" width="20" height="30" fill="AntiqueWhite" stroke="black" stroke-width="1"/>
  <text x="400" y="1178" font-family="sans-serif" font-size="16">Windows Server 2008 (amd64) (345)</text>
  <path d="M 200,300 L -247.3,106.1 A 150,150 0 0 1 -226.7,114.3 Z" fill="DarkOrange" stroke="black" stroke-width="1"/>
  <rect x="370" y="89" width="20" height="30" fill="DarkOrange" stroke="black" stroke-width="1"/>
  <text x="400" y="1208" font-family="sans-serif" font-size="16">Windows Server 2008 (x86) (741)</text>
  <path d="M 200,300 L -226.7,114.3 A 150,150 0 0 1 -198.5,123.5 Z" fill="Ivory" stroke="black" stroke-width="1"/>
  <rect x="370" y="90" width="20" height="30" fill="Ivory" stroke="black" stroke-width="1"/>
  <text x="400" y="1238" font-family="sans-serif" font-size="16">Windows Server 2008 R2 (amd64) (936)</text>
  <path d="M 200,300 L -198.5,123.5 A 150,150 0 0 1 -165.2,132.2 Z" fill="MediumSeaGreen" stroke="black" stroke-width="1"/>
  <rect x="370" y="91" width="20" height="30" fill="MediumSeaGreen" stroke="black" stroke-width="1"/>
  <text x="400" y="1268" font-family="sans-serif" font-size="16">Windows Server 2008 R2 (x86) (1028)</text>
  <path d="M 200,300 L -165.2,132.2 A 150,150 0 0 1 -163.7,132.6 Z" fill="Red" stroke="black" stroke-width="1"/>
  <rect x="370" y="92" width="20" height="30" fill="Red" stroke="black" stroke-width="1"/>
  <text x="400" y="1298" font-family="sans-serif" font-size="16">Windows Vista (amd64) (44)</text>
  <path d="M 200,300 L -163.7,132.6 A 150,150 0 0 1 -153.0,134.9 Z" fill="Aqua" stroke="black" stroke-width="1"/>
  <rect x="370" y="93" width="20" height="30" fill="Aqua" stroke="black" stroke-width="1"/>
  <text x="400" y="1328" font-family="sans-serif" font-size="16">Windows Vista (x86) (318)</text>
  <path d="M 200,300 L -153.0,134.9 A 150,150 0 0 1 -150.1,135.5 Z" fill="DarkOrchid" stroke="black" stroke-width="1"/>
  <rect x="370" y="94" width="20" height="30" fill="DarkOrchid" stroke="black" stroke-width="1"/>
  <text x="400" y="1358" font-family="sans-serif" font-size="16">Windows XP (amd64) (84)</text>
  <path d="M 200,300 L -150.1,135.5 A 150,150 0 0 1 -0.0,150.0 Z" fill="Khaki" stroke="black" stroke-width="1"/>
  <rect x="370" y="95" width="20" height="30" fill="Khaki" stroke="black" stroke-width="1"/>
  <text x="400" y="1388" font-family="sans-serif" font-size="16">Windows XP (x86) (4088)</text>
  <path d="M 200,300 L -0.0,150.0 A 150,150 0 0 1 0.0,150.0 Z" fill="MediumSlateBlue" stroke="black" stroke-width="1"/>
  <rect x="370" y="96" width="20" height="30" fill="MediumSlateBlue" stroke="black" stroke-width="1"/>
  <text x="400" y="1418" font-family="sans-serif" font-size="16">z/OS (s390x) (1)</text>
</svg>
