<svg xmlns="http://www.w3.org/2000/svg" version="1.1" preserveAspectRatio="xMidYMid meet" viewBox="0 0 170 817.2">
  <rect fill="blue" height="0.0" stroke="black" width="12" x="15" y="517.2"/>
  <text x="15" y="522.2" font-family="Tahoma" font-size="12" transform="rotate(90 15,522.2)" text-rendering="optimizeSpeed" fill="#000000">hudson-aarworkflow-AARWorkflowProject (4)</text>
  <rect fill="blue" height="0.1" stroke="black" width="12" x="30" y="517.1"/>
  <text x="30" y="522.2" font-family="Tahoma" font-size="12" transform="rotate(90 30,522.2)" text-rendering="optimizeSpeed" fill="#000000">hudson-workflow-WorkflowProject (96)</text>
  <rect fill="blue" height="0.7" stroke="black" width="12" x="45" y="516.5"/>
  <text x="45" y="522.2" font-family="Tahoma" font-size="12" transform="rotate(90 45,522.2)" text-rendering="optimizeSpeed" fill="#000000">hudson-mm-MMModuleSet (684)</text>
  <rect fill="blue" height="1.1" stroke="black" width="12" x="60" y="516.1"/>
  <text x="60" y="522.2" font-family="Tahoma" font-size="12" transform="rotate(90 60,522.2)" text-rendering="optimizeSpeed" fill="#000000">hudson-model-ExternalJob (1139)</text>
  <rect fill="blue" height="1.6" stroke="black" width="12" x="75" y="515.7"/>
  <text x="75" y="522.2" font-family="Tahoma" font-size="12" transform="rotate(90 75,522.2)" text-rendering="optimizeSpeed" fill="#000000">hudson-ivy-IvyModuleSet (1572)</text>
  <rect fill="blue" height="20.2" stroke="black" width="12" x="90" y="497.1"/>
  <text x="90" y="522.2" font-family="Tahoma" font-size="12" transform="rotate(90 90,522.2)" text-rendering="optimizeSpeed" fill="#000000">hudson-matrix-MatrixProject (20174)</text>
  <rect fill="blue" height="147.9" stroke="black" width="12" x="105" y="369.3"/>
  <text x="105" y="522.2" font-family="Tahoma" font-size="12" transform="rotate(90 105,522.2)" text-rendering="optimizeSpeed" fill="#000000">hudson-maven-MavenModuleSet (147908)</text>
  <rect fill="blue" height="467.2" stroke="black" width="12" x="120" y="50.0"/>
  <text x="120" y="522.2" font-family="Tahoma" font-size="12" transform="rotate(90 120,522.2)" text-rendering="optimizeSpeed" fill="#000000">hudson-model-FreeStyleProject (467225)</text>
  <text x="10" y="40" font-family="Tahoma" font-size="20" text-rendering="optimizeSpeed" fill="#000000">Jobs (total: 638802)</text>
</svg>
