<svg xmlns="http://www.w3.org/2000/svg" version="1.1" preserveAspectRatio="xMidYMid meet" viewBox="0 0 515 626.5">
  <rect fill="blue" height="25.8" stroke="black" width="12" x="15" y="300.7"/>
  <text x="15" y="331.5" font-family="Tahoma" font-size="12" transform="rotate(90 15,331.5)" text-rendering="optimizeSpeed" fill="#000000">backup (2578)</text>
  <rect fill="blue" height="26.1" stroke="black" width="12" x="30" y="300.3"/>
  <text x="30" y="331.5" font-family="Tahoma" font-size="12" transform="rotate(90 30,331.5)" text-rendering="optimizeSpeed" fill="#000000">tasks (2615)</text>
  <rect fill="blue" height="26.6" stroke="black" width="12" x="45" y="299.9"/>
  <text x="45" y="331.5" font-family="Tahoma" font-size="12" transform="rotate(90 45,331.5)" text-rendering="optimizeSpeed" fill="#000000">deploy (2658)</text>
  <rect fill="blue" height="26.7" stroke="black" width="12" x="60" y="299.8"/>
  <text x="60" y="331.5" font-family="Tahoma" font-size="12" transform="rotate(90 60,331.5)" text-rendering="optimizeSpeed" fill="#000000">jira (2666)</text>
  <rect fill="blue" height="27.2" stroke="black" width="12" x="75" y="299.2"/>
  <text x="75" y="331.5" font-family="Tahoma" font-size="12" transform="rotate(90 75,331.5)" text-rendering="optimizeSpeed" fill="#000000">build-timeout (2721)</text>
  <rect fill="blue" height="27.6" stroke="black" width="12" x="90" y="298.8"/>
  <text x="90" y="331.5" font-family="Tahoma" font-size="12" transform="rotate(90 90,331.5)" text-rendering="optimizeSpeed" fill="#000000">active-directory (2764)</text>
  <rect fill="blue" height="29.1" stroke="black" width="12" x="105" y="297.4"/>
  <text x="105" y="331.5" font-family="Tahoma" font-size="12" transform="rotate(90 105,331.5)" text-rendering="optimizeSpeed" fill="#000000">dry (2905)</text>
  <rect fill="blue" height="29.7" stroke="black" width="12" x="120" y="296.8"/>
  <text x="120" y="331.5" font-family="Tahoma" font-size="12" transform="rotate(90 120,331.5)" text-rendering="optimizeSpeed" fill="#000000">xunit (2970)</text>
  <rect fill="blue" height="30.8" stroke="black" width="12" x="135" y="295.7"/>
  <text x="135" y="331.5" font-family="Tahoma" font-size="12" transform="rotate(90 135,331.5)" text-rendering="optimizeSpeed" fill="#000000">parameterized-trigger (3078)</text>
  <rect fill="blue" height="32.9" stroke="black" width="12" x="150" y="293.6"/>
  <text x="150" y="331.5" font-family="Tahoma" font-size="12" transform="rotate(90 150,331.5)" text-rendering="optimizeSpeed" fill="#000000">chucknorris (3285)</text>
  <rect fill="blue" height="34.4" stroke="black" width="12" x="165" y="292.1"/>
  <text x="165" y="331.5" font-family="Tahoma" font-size="12" transform="rotate(90 165,331.5)" text-rendering="optimizeSpeed" fill="#000000">analysis-collector (3439)</text>
  <rect fill="blue" height="36.4" stroke="black" width="12" x="180" y="290.1"/>
  <text x="180" y="331.5" font-family="Tahoma" font-size="12" transform="rotate(90 180,331.5)" text-rendering="optimizeSpeed" fill="#000000">disk-usage (3640)</text>
  <rect fill="blue" height="36.4" stroke="black" width="12" x="195" y="290.0"/>
  <text x="195" y="331.5" font-family="Tahoma" font-size="12" transform="rotate(90 195,331.5)" text-rendering="optimizeSpeed" fill="#000000">htmlpublisher (3641)</text>
  <rect fill="blue" height="36.5" stroke="black" width="12" x="210" y="290.0"/>
  <text x="210" y="331.5" font-family="Tahoma" font-size="12" transform="rotate(90 210,331.5)" text-rendering="optimizeSpeed" fill="#000000">dashboard-view (3650)</text>
  <rect fill="blue" height="38.0" stroke="black" width="12" x="225" y="288.5"/>
  <text x="225" y="331.5" font-family="Tahoma" font-size="12" transform="rotate(90 225,331.5)" text-rendering="optimizeSpeed" fill="#000000">warnings (3796)</text>
  <rect fill="blue" height="38.7" stroke="black" width="12" x="240" y="287.8"/>
  <text x="240" y="331.5" font-family="Tahoma" font-size="12" transform="rotate(90 240,331.5)" text-rendering="optimizeSpeed" fill="#000000">violations (3867)</text>
  <rect fill="blue" height="39.2" stroke="black" width="12" x="255" y="287.3"/>
  <text x="255" y="331.5" font-family="Tahoma" font-size="12" transform="rotate(90 255,331.5)" text-rendering="optimizeSpeed" fill="#000000">scis-ad (3916)</text>
  <rect fill="blue" height="39.8" stroke="black" width="12" x="270" y="286.6"/>
  <text x="270" y="331.5" font-family="Tahoma" font-size="12" transform="rotate(90 270,331.5)" text-rendering="optimizeSpeed" fill="#000000">sonar (3982)</text>
  <rect fill="blue" height="44.4" stroke="black" width="12" x="285" y="282.1"/>
  <text x="285" y="331.5" font-family="Tahoma" font-size="12" transform="rotate(90 285,331.5)" text-rendering="optimizeSpeed" fill="#000000">pmd (4438)</text>
  <rect fill="blue" height="44.5" stroke="black" width="12" x="300" y="281.9"/>
  <text x="300" y="331.5" font-family="Tahoma" font-size="12" transform="rotate(90 300,331.5)" text-rendering="optimizeSpeed" fill="#000000">findbugs (4453)</text>
  <rect fill="blue" height="48.5" stroke="black" width="12" x="315" y="278.0"/>
  <text x="315" y="331.5" font-family="Tahoma" font-size="12" transform="rotate(90 315,331.5)" text-rendering="optimizeSpeed" fill="#000000">cobertura (4845)</text>
  <rect fill="blue" height="49.5" stroke="black" width="12" x="330" y="277.0"/>
  <text x="330" y="331.5" font-family="Tahoma" font-size="12" transform="rotate(90 330,331.5)" text-rendering="optimizeSpeed" fill="#000000">checkstyle (4947)</text>
  <rect fill="blue" height="62.7" stroke="black" width="12" x="345" y="263.8"/>
  <text x="345" y="331.5" font-family="Tahoma" font-size="12" transform="rotate(90 345,331.5)" text-rendering="optimizeSpeed" fill="#000000">greenballs (6270)</text>
  <rect fill="blue" height="64.6" stroke="black" width="12" x="360" y="261.9"/>
  <text x="360" y="331.5" font-family="Tahoma" font-size="12" transform="rotate(90 360,331.5)" text-rendering="optimizeSpeed" fill="#000000">email-ext (6456)</text>
  <rect fill="blue" height="70.3" stroke="black" width="12" x="375" y="256.1"/>
  <text x="375" y="331.5" font-family="Tahoma" font-size="12" transform="rotate(90 375,331.5)" text-rendering="optimizeSpeed" fill="#000000">translation (7034)</text>
  <rect fill="blue" height="72.5" stroke="black" width="12" x="390" y="253.9"/>
  <text x="390" y="331.5" font-family="Tahoma" font-size="12" transform="rotate(90 390,331.5)" text-rendering="optimizeSpeed" fill="#000000">git (7255)</text>
  <rect fill="blue" height="93.9" stroke="black" width="12" x="405" y="232.6"/>
  <text x="405" y="331.5" font-family="Tahoma" font-size="12" transform="rotate(90 405,331.5)" text-rendering="optimizeSpeed" fill="#000000">analysis-core (9387)</text>
  <rect fill="blue" height="259.1" stroke="black" width="12" x="420" y="67.4"/>
  <text x="420" y="331.5" font-family="Tahoma" font-size="12" transform="rotate(90 420,331.5)" text-rendering="optimizeSpeed" fill="#000000">cvs (25911)</text>
  <rect fill="blue" height="270.3" stroke="black" width="12" x="435" y="56.2"/>
  <text x="435" y="331.5" font-family="Tahoma" font-size="12" transform="rotate(90 435,331.5)" text-rendering="optimizeSpeed" fill="#000000">maven-plugin (27030)</text>
  <rect fill="blue" height="273.4" stroke="black" width="12" x="450" y="53.0"/>
  <text x="450" y="331.5" font-family="Tahoma" font-size="12" transform="rotate(90 450,331.5)" text-rendering="optimizeSpeed" fill="#000000">subversion (27342)</text>
  <rect fill="blue" height="276.5" stroke="black" width="12" x="465" y="50.0"/>
  <text x="465" y="331.5" font-family="Tahoma" font-size="12" transform="rotate(90 465,331.5)" text-rendering="optimizeSpeed" fill="#000000">ssh-slaves (27646)</text>
  <text x="10" y="40" font-family="Tahoma" font-size="20" text-rendering="optimizeSpeed" fill="#000000">Plugin installations (installations &gt; 2500)</text>
</svg>
