<svg xmlns="http://www.w3.org/2000/svg" version="1.1" preserveAspectRatio="xMidYMid meet" viewBox="0 0 720 1520">
  <text x="30" y="40" font-family="sans-serif" font-size="16">Nodes, total: 41094</text>
  <path d="M 200,300 L 0.0,150.0 A 150,150 0 0 1 4.4,150.0 Z" fill="BurlyWood" stroke="black" stroke-width="1"/>
  <rect x="370" y="50" width="20" height="30" fill="BurlyWood" stroke="black" stroke-width="1"/>
  <text x="400" y="38" font-family="sans-serif" font-size="16">AIX (ppc) (83)</text>
  <path d="M 200,300 L 4.4,150.0 A 150,150 0 0 1 8.8,150.0 Z" fill="CadetBlue" stroke="black" stroke-width="1"/>
  <rect x="370" y="51" width="20" height="30" fill="CadetBlue" stroke="black" stroke-width="1"/>
  <text x="400" y="68" font-family="sans-serif" font-size="16">AIX (ppc64) (81)</text>
  <path d="M 200,300 L 8.8,150.0 A 150,150 0 0 1 11.6,149.9 Z" fill="red" stroke="black" stroke-width="1"/>
  <rect x="370" y="52" width="20" height="30" fill="red" stroke="black" stroke-width="1"/>
  <text x="400" y="98" font-family="sans-serif" font-size="16">FreeBSD (amd64) (53)</text>
  <path d="M 200,300 L 11.6,149.9 A 150,150 0 0 1 15.0,149.9 Z" fill="blue" stroke="black" stroke-width="1"/>
  <rect x="370" y="53" width="20" height="30" fill="blue" stroke="black" stroke-width="1"/>
  <text x="400" y="128" font-family="sans-serif" font-size="16">FreeBSD (i386) (63)</text>
  <path d="M 200,300 L 15.0,149.9 A 150,150 0 0 1 18.8,149.8 Z" fill="yellow" stroke="black" stroke-width="1"/>
  <rect x="370" y="54" width="20" height="30" fill="yellow" stroke="black" stroke-width="1"/>
  <text x="400" y="158" font-family="sans-serif" font-size="16">HP-UX (IA64N) (71)</text>
  <path d="M 200,300 L 18.8,149.8 A 150,150 0 0 1 18.9,149.8 Z" fill="green" stroke="black" stroke-width="1"/>
  <rect x="370" y="55" width="20" height="30" fill="green" stroke="black" stroke-width="1"/>
  <text x="400" y="188" font-family="sans-serif" font-size="16">HP-UX (IA64W) (2)</text>
  <path d="M 200,300 L 18.9,149.8 A 150,150 0 0 1 21.1,149.7 Z" fill="gold" stroke="black" stroke-width="1"/>
  <rect x="370" y="56" width="20" height="30" fill="gold" stroke="black" stroke-width="1"/>
  <text x="400" y="218" font-family="sans-serif" font-size="16">HP-UX (PA_RISC2.0) (41)</text>
  <path d="M 200,300 L 21.1,149.7 A 150,150 0 0 1 347.6,17.7 Z" fill="brown" stroke="black" stroke-width="1"/>
  <rect x="370" y="57" width="20" height="30" fill="brown" stroke="black" stroke-width="1"/>
  <text x="400" y="248" font-family="sans-serif" font-size="16">Linux (amd64) (9107)</text>
  <path d="M 200,300 L 347.6,17.7 A 150,150 0 0 1 347.6,17.6 Z" fill="Azure" stroke="black" stroke-width="1"/>
  <rect x="370" y="58" width="20" height="30" fill="Azure" stroke="black" stroke-width="1"/>
  <text x="400" y="278" font-family="sans-serif" font-size="16">Linux (arm) (3)</text>
  <path d="M 200,300 L 347.6,17.6 A 150,150 0 0 1 177.6,-129.3 Z" fill="pink" stroke="black" stroke-width="1"/>
  <rect x="370" y="59" width="20" height="30" fill="pink" stroke="black" stroke-width="1"/>
  <text x="400" y="308" font-family="sans-serif" font-size="16">Linux (i386) (7563)</text>
  <path d="M 200,300 L 177.6,-129.3 A 150,150 0 0 1 176.8,-129.5 Z" fill="khaki" stroke="black" stroke-width="1"/>
  <rect x="370" y="60" width="20" height="30" fill="khaki" stroke="black" stroke-width="1"/>
  <text x="400" y="338" font-family="sans-serif" font-size="16">Linux (ia64) (17)</text>
  <path d="M 200,300 L 176.8,-129.5 A 150,150 0 0 1 176.1,-129.6 Z" fill="gray" stroke="black" stroke-width="1"/>
  <rect x="370" y="61" width="20" height="30" fill="gray" stroke="black" stroke-width="1"/>
  <text x="400" y="368" font-family="sans-serif" font-size="16">Linux (ppc) (14)</text>
  <path d="M 200,300 L 176.1,-129.6 A 150,150 0 0 1 175.2,-129.9 Z" fill="Aqua" stroke="black" stroke-width="1"/>
  <rect x="370" y="62" width="20" height="30" fill="Aqua" stroke="black" stroke-width="1"/>
  <text x="400" y="398" font-family="sans-serif" font-size="16">Linux (ppc64) (20)</text>
  <path d="M 200,300 L 175.2,-129.9 A 150,150 0 0 1 175.1,-129.9 Z" fill="Aquamarine" stroke="black" stroke-width="1"/>
  <rect x="370" y="63" width="20" height="30" fill="Aquamarine" stroke="black" stroke-width="1"/>
  <text x="400" y="428" font-family="sans-serif" font-size="16">Linux (s390) (3)</text>
  <path d="M 200,300 L 175.1,-129.9 A 150,150 0 0 1 174.7,-130.0 Z" fill="beige" stroke="black" stroke-width="1"/>
  <rect x="370" y="64" width="20" height="30" fill="beige" stroke="black" stroke-width="1"/>
  <text x="400" y="458" font-family="sans-serif" font-size="16">Linux (s390x) (9)</text>
  <path d="M 200,300 L 174.7,-130.0 A 150,150 0 0 1 172.1,-130.6 Z" fill="blueviolet" stroke="black" stroke-width="1"/>
  <rect x="370" y="65" width="20" height="30" fill="blueviolet" stroke="black" stroke-width="1"/>
  <text x="400" y="488" font-family="sans-serif" font-size="16">Linux (x86) (55)</text>
  <path d="M 200,300 L 172.1,-130.6 A 150,150 0 0 1 165.0,-132.3 Z" fill="Bisque" stroke="black" stroke-width="1"/>
  <rect x="370" y="66" width="20" height="30" fill="Bisque" stroke="black" stroke-width="1"/>
  <text x="400" y="518" font-family="sans-serif" font-size="16">Mac OS X (i386) (152)</text>
  <path d="M 200,300 L 165.0,-132.3 A 150,150 0 0 1 164.1,-132.5 Z" fill="coral" stroke="black" stroke-width="1"/>
  <rect x="370" y="67" width="20" height="30" fill="coral" stroke="black" stroke-width="1"/>
  <text x="400" y="548" font-family="sans-serif" font-size="16">Mac OS X (ppc) (19)</text>
  <path d="M 200,300 L 164.1,-132.5 A 150,150 0 0 1 126.7,-139.8 Z" fill="darkblue" stroke="black" stroke-width="1"/>
  <rect x="370" y="68" width="20" height="30" fill="darkblue" stroke="black" stroke-width="1"/>
  <text x="400" y="578" font-family="sans-serif" font-size="16">Mac OS X (x86_64) (768)</text>
  <path d="M 200,300 L 126.7,-139.8 A 150,150 0 0 1 -344.6,-26.3 Z" fill="crimson" stroke="black" stroke-width="1"/>
  <rect x="370" y="69" width="20" height="30" fill="crimson" stroke="black" stroke-width="1"/>
  <text x="400" y="608" font-family="sans-serif" font-size="16">N/A (11543)</text>
  <path d="M 200,300 L -344.6,-26.3 A 150,150 0 0 1 -344.6,-26.3 Z" fill="cyan" stroke="black" stroke-width="1"/>
  <rect x="370" y="70" width="20" height="30" fill="cyan" stroke="black" stroke-width="1"/>
  <text x="400" y="638" font-family="sans-serif" font-size="16">NetBSD (amd64) (1)</text>
  <path d="M 200,300 L -344.6,-26.3 A 150,150 0 0 1 -344.6,-26.3 Z" fill="darkred" stroke="black" stroke-width="1"/>
  <rect x="370" y="71" width="20" height="30" fill="darkred" stroke="black" stroke-width="1"/>
  <text x="400" y="668" font-family="sans-serif" font-size="16">NetBSD (i386) (1)</text>
  <path d="M 200,300 L -344.6,-26.3 A 150,150 0 0 1 -344.6,-26.3 Z" fill="ivory" stroke="black" stroke-width="1"/>
  <rect x="370" y="72" width="20" height="30" fill="ivory" stroke="black" stroke-width="1"/>
  <text x="400" y="698" font-family="sans-serif" font-size="16">OS/400 (PowerPC) (1)</text>
  <path d="M 200,300 L -344.6,-26.3 A 150,150 0 0 1 -344.6,-26.2 Z" fill="lime" stroke="black" stroke-width="1"/>
  <rect x="370" y="73" width="20" height="30" fill="lime" stroke="black" stroke-width="1"/>
  <text x="400" y="728" font-family="sans-serif" font-size="16">OpenBSD (amd64) (2)</text>
  <path d="M 200,300 L -344.6,-26.2 A 150,150 0 0 1 -344.6,-26.2 Z" fill="maroon" stroke="black" stroke-width="1"/>
  <rect x="370" y="74" width="20" height="30" fill="maroon" stroke="black" stroke-width="1"/>
  <text x="400" y="758" font-family="sans-serif" font-size="16">OpenBSD (i386) (1)</text>
  <path d="M 200,300 L -344.6,-26.2 A 150,150 0 0 1 -344.8,-25.8 Z" fill="navy" stroke="black" stroke-width="1"/>
  <rect x="370" y="75" width="20" height="30" fill="navy" stroke="black" stroke-width="1"/>
  <text x="400" y="788" font-family="sans-serif" font-size="16">SunOS (amd64) (16)</text>
  <path d="M 200,300 L -344.8,-25.8 A 150,150 0 0 1 -349.2,-10.3 Z" fill="olive" stroke="black" stroke-width="1"/>
  <rect x="370" y="76" width="20" height="30" fill="olive" stroke="black" stroke-width="1"/>
  <text x="400" y="818" font-family="sans-serif" font-size="16">SunOS (sparc) (683)</text>
  <path d="M 200,300 L -349.2,-10.3 A 150,150 0 0 1 -349.2,-9.9 Z" fill="plum" stroke="black" stroke-width="1"/>
  <rect x="370" y="77" width="20" height="30" fill="plum" stroke="black" stroke-width="1"/>
  <text x="400" y="848" font-family="sans-serif" font-size="16">SunOS (sparcv9) (17)</text>
  <path d="M 200,300 L -349.2,-9.9 A 150,150 0 0 1 -350.0,2.2 Z" fill="peru" stroke="black" stroke-width="1"/>
  <rect x="370" y="78" width="20" height="30" fill="peru" stroke="black" stroke-width="1"/>
  <text x="400" y="878" font-family="sans-serif" font-size="16">SunOS (x86) (527)</text>
  <path d="M 200,300 L -350.0,2.2 A 150,150 0 0 1 -350.0,2.2 Z" fill="silver" stroke="black" stroke-width="1"/>
  <rect x="370" y="79" width="20" height="30" fill="silver" stroke="black" stroke-width="1"/>
  <text x="400" y="908" font-family="sans-serif" font-size="16">UnixWare (IA32) (1)</text>
  <path d="M 200,300 L -350.0,2.2 A 150,150 0 0 1 -349.9,3.8 Z" fill="tan" stroke="black" stroke-width="1"/>
  <rect x="370" y="80" width="20" height="30" fill="tan" stroke="black" stroke-width="1"/>
  <text x="400" y="938" font-family="sans-serif" font-size="16">Windows 2000 (x86) (69)</text>
  <path d="M 200,300 L -349.9,3.8 A 150,150 0 0 1 -348.9,11.7 Z" fill="teal" stroke="black" stroke-width="1"/>
  <rect x="370" y="81" width="20" height="30" fill="teal" stroke="black" stroke-width="1"/>
  <text x="400" y="968" font-family="sans-serif" font-size="16">Windows 2003 (amd64) (347)</text>
  <path d="M 200,300 L -348.9,11.7 A 150,150 0 0 1 -348.9,11.8 Z" fill="violet" stroke="black" stroke-width="1"/>
  <rect x="370" y="82" width="20" height="30" fill="violet" stroke="black" stroke-width="1"/>
  <text x="400" y="998" font-family="sans-serif" font-size="16">Windows 2003 (ia64) (1)</text>
  <path d="M 200,300 L -348.9,11.8 A 150,150 0 0 1 -303.1,75.0 Z" fill="AliceBlue" stroke="black" stroke-width="1"/>
  <rect x="370" y="83" width="20" height="30" fill="AliceBlue" stroke="black" stroke-width="1"/>
  <text x="400" y="1028" font-family="sans-serif" font-size="16">Windows 2003 (x86) (2911)</text>
  <path d="M 200,300 L -303.1,75.0 A 150,150 0 0 1 -290.4,83.7 Z" fill="DarkOliveGreen" stroke="black" stroke-width="1"/>
  <rect x="370" y="84" width="20" height="30" fill="DarkOliveGreen" stroke="black" stroke-width="1"/>
  <text x="400" y="1058" font-family="sans-serif" font-size="16">Windows 7 (amd64) (448)</text>
  <path d="M 200,300 L -290.4,83.7 A 150,150 0 0 1 -267.5,96.7 Z" fill="Indigo" stroke="black" stroke-width="1"/>
  <rect x="370" y="85" width="20" height="30" fill="Indigo" stroke="black" stroke-width="1"/>
  <text x="400" y="1088" font-family="sans-serif" font-size="16">Windows 7 (x86) (712)</text>
  <path d="M 200,300 L -267.5,96.7 A 150,150 0 0 1 -267.4,96.8 Z" fill="MediumPurple" stroke="black" stroke-width="1"/>
  <rect x="370" y="86" width="20" height="30" fill="MediumPurple" stroke="black" stroke-width="1"/>
  <text x="400" y="1118" font-family="sans-serif" font-size="16">Windows NT (unknown) (amd64) (1)</text>
  <path d="M 200,300 L -267.4,96.8 A 150,150 0 0 1 -267.1,97.0 Z" fill="Purple" stroke="black" stroke-width="1"/>
  <rect x="370" y="87" width="20" height="30" fill="Purple" stroke="black" stroke-width="1"/>
  <text x="400" y="1148" font-family="sans-serif" font-size="16">Windows NT (unknown) (x86) (11)</text>
  <path d="M 200,300 L -267.1,97.0 A 150,150 0 0 1 -267.0,97.0 Z" fill="AntiqueWhite" stroke="black" stroke-width="1"/>
  <rect x="370" y="88" width="20" height="30" fill="AntiqueWhite" stroke="black" stroke-width="1"/>
  <text x="400" y="1178" font-family="sans-serif" font-size="16">Windows Server 2003 (amd64) (3)</text>
  <path d="M 200,300 L -267.0,97.0 A 150,150 0 0 1 -265.8,97.6 Z" fill="DarkOrange" stroke="black" stroke-width="1"/>
  <rect x="370" y="89" width="20" height="30" fill="DarkOrange" stroke="black" stroke-width="1"/>
  <text x="400" y="1208" font-family="sans-serif" font-size="16">Windows Server 2003 (x86) (32)</text>
  <path d="M 200,300 L -265.8,97.6 A 150,150 0 0 1 -256.6,102.0 Z" fill="Ivory" stroke="black" stroke-width="1"/>
  <rect x="370" y="90" width="20" height="30" fill="Ivory" stroke="black" stroke-width="1"/>
  <text x="400" y="1238" font-family="sans-serif" font-size="16">Windows Server 2008 (amd64) (259)</text>
  <path d="M 200,300 L -256.6,102.0 A 150,150 0 0 1 -256.6,102.0 Z" fill="MediumSeaGreen" stroke="black" stroke-width="1"/>
  <rect x="370" y="91" width="20" height="30" fill="MediumSeaGreen" stroke="black" stroke-width="1"/>
  <text x="400" y="1268" font-family="sans-serif" font-size="16">Windows Server 2008 (ia64) (1)</text>
  <path d="M 200,300 L -256.6,102.0 A 150,150 0 0 1 -236.5,110.6 Z" fill="Red" stroke="black" stroke-width="1"/>
  <rect x="370" y="92" width="20" height="30" fill="Red" stroke="black" stroke-width="1"/>
  <text x="400" y="1298" font-family="sans-serif" font-size="16">Windows Server 2008 (x86) (530)</text>
  <path d="M 200,300 L -236.5,110.6 A 150,150 0 0 1 -211.8,119.4 Z" fill="Aqua" stroke="black" stroke-width="1"/>
  <rect x="370" y="93" width="20" height="30" fill="Aqua" stroke="black" stroke-width="1"/>
  <text x="400" y="1328" font-family="sans-serif" font-size="16">Windows Server 2008 R2 (amd64) (602)</text>
  <path d="M 200,300 L -211.8,119.4 A 150,150 0 0 1 -195.7,124.4 Z" fill="DarkOrchid" stroke="black" stroke-width="1"/>
  <rect x="370" y="94" width="20" height="30" fill="DarkOrchid" stroke="black" stroke-width="1"/>
  <text x="400" y="1358" font-family="sans-serif" font-size="16">Windows Server 2008 R2 (x86) (369)</text>
  <path d="M 200,300 L -195.7,124.4 A 150,150 0 0 1 -193.4,125.0 Z" fill="Khaki" stroke="black" stroke-width="1"/>
  <rect x="370" y="95" width="20" height="30" fill="Khaki" stroke="black" stroke-width="1"/>
  <text x="400" y="1388" font-family="sans-serif" font-size="16">Windows Vista (amd64) (52)</text>
  <path d="M 200,300 L -193.4,125.0 A 150,150 0 0 1 -181.6,128.2 Z" fill="MediumSlateBlue" stroke="black" stroke-width="1"/>
  <rect x="370" y="96" width="20" height="30" fill="MediumSlateBlue" stroke="black" stroke-width="1"/>
  <text x="400" y="1418" font-family="sans-serif" font-size="16">Windows Vista (x86) (261)</text>
  <path d="M 200,300 L -181.6,128.2 A 150,150 0 0 1 -177.3,129.3 Z" fill="RosyBrown" stroke="black" stroke-width="1"/>
  <rect x="370" y="97" width="20" height="30" fill="RosyBrown" stroke="black" stroke-width="1"/>
  <text x="400" y="1448" font-family="sans-serif" font-size="16">Windows XP (amd64) (93)</text>
  <path d="M 200,300 L -177.3,129.3 A 150,150 0 0 1 0.0,150.0 Z" fill="AquaMarine" stroke="black" stroke-width="1"/>
  <rect x="370" y="98" width="20" height="30" fill="AquaMarine" stroke="black" stroke-width="1"/>
  <text x="400" y="1478" font-family="sans-serif" font-size="16">Windows XP (x86) (3475)</text>
</svg>
