<svg xmlns="http://www.w3.org/2000/svg" version="1.1" preserveAspectRatio="xMidYMid meet" viewBox="0 0 720 1580">
  <text x="30" y="40" font-family="sans-serif" font-size="16">Nodes, total: 39028</text>
  <path d="M 200,300 L 0.0,150.0 A 150,150 0 0 1 5.1,150.0 Z" fill="BurlyWood" stroke="black" stroke-width="1"/>
  <rect x="370" y="50" width="20" height="30" fill="BurlyWood" stroke="black" stroke-width="1"/>
  <text x="400" y="38" font-family="sans-serif" font-size="16">AIX (ppc) (90)</text>
  <path d="M 200,300 L 5.1,150.0 A 150,150 0 0 1 9.2,149.9 Z" fill="CadetBlue" stroke="black" stroke-width="1"/>
  <rect x="370" y="51" width="20" height="30" fill="CadetBlue" stroke="black" stroke-width="1"/>
  <text x="400" y="68" font-family="sans-serif" font-size="16">AIX (ppc64) (73)</text>
  <path d="M 200,300 L 9.2,149.9 A 150,150 0 0 1 11.6,149.9 Z" fill="red" stroke="black" stroke-width="1"/>
  <rect x="370" y="52" width="20" height="30" fill="red" stroke="black" stroke-width="1"/>
  <text x="400" y="98" font-family="sans-serif" font-size="16">FreeBSD (amd64) (43)</text>
  <path d="M 200,300 L 11.6,149.9 A 150,150 0 0 1 14.7,149.9 Z" fill="blue" stroke="black" stroke-width="1"/>
  <rect x="370" y="53" width="20" height="30" fill="blue" stroke="black" stroke-width="1"/>
  <text x="400" y="128" font-family="sans-serif" font-size="16">FreeBSD (i386) (55)</text>
  <path d="M 200,300 L 14.7,149.9 A 150,150 0 0 1 18.2,149.8 Z" fill="yellow" stroke="black" stroke-width="1"/>
  <rect x="370" y="54" width="20" height="30" fill="yellow" stroke="black" stroke-width="1"/>
  <text x="400" y="158" font-family="sans-serif" font-size="16">HP-UX (IA64N) (63)</text>
  <path d="M 200,300 L 18.2,149.8 A 150,150 0 0 1 18.4,149.8 Z" fill="green" stroke="black" stroke-width="1"/>
  <rect x="370" y="55" width="20" height="30" fill="green" stroke="black" stroke-width="1"/>
  <text x="400" y="188" font-family="sans-serif" font-size="16">HP-UX (IA64W) (2)</text>
  <path d="M 200,300 L 18.4,149.8 A 150,150 0 0 1 20.7,149.7 Z" fill="gold" stroke="black" stroke-width="1"/>
  <rect x="370" y="56" width="20" height="30" fill="gold" stroke="black" stroke-width="1"/>
  <text x="400" y="218" font-family="sans-serif" font-size="16">HP-UX (PA_RISC2.0) (41)</text>
  <path d="M 200,300 L 20.7,149.7 A 150,150 0 0 1 345.8,23.3 Z" fill="brown" stroke="black" stroke-width="1"/>
  <rect x="370" y="57" width="20" height="30" fill="brown" stroke="black" stroke-width="1"/>
  <text x="400" y="248" font-family="sans-serif" font-size="16">Linux (amd64) (8423)</text>
  <path d="M 200,300 L 345.8,23.3 A 150,150 0 0 1 345.8,23.2 Z" fill="Azure" stroke="black" stroke-width="1"/>
  <rect x="370" y="58" width="20" height="30" fill="Azure" stroke="black" stroke-width="1"/>
  <text x="400" y="278" font-family="sans-serif" font-size="16">Linux (arm) (3)</text>
  <path d="M 200,300 L 345.8,23.2 A 150,150 0 0 1 183.9,-127.6 Z" fill="pink" stroke="black" stroke-width="1"/>
  <rect x="370" y="59" width="20" height="30" fill="pink" stroke="black" stroke-width="1"/>
  <text x="400" y="308" font-family="sans-serif" font-size="16">Linux (i386) (7285)</text>
  <path d="M 200,300 L 183.9,-127.6 A 150,150 0 0 1 183.3,-127.8 Z" fill="khaki" stroke="black" stroke-width="1"/>
  <rect x="370" y="60" width="20" height="30" fill="khaki" stroke="black" stroke-width="1"/>
  <text x="400" y="338" font-family="sans-serif" font-size="16">Linux (ia64) (12)</text>
  <path d="M 200,300 L 183.3,-127.8 A 150,150 0 0 1 183.3,-127.8 Z" fill="gray" stroke="black" stroke-width="1"/>
  <rect x="370" y="61" width="20" height="30" fill="gray" stroke="black" stroke-width="1"/>
  <text x="400" y="368" font-family="sans-serif" font-size="16">Linux (nova) (1)</text>
  <path d="M 200,300 L 183.3,-127.8 A 150,150 0 0 1 182.7,-127.9 Z" fill="Aqua" stroke="black" stroke-width="1"/>
  <rect x="370" y="62" width="20" height="30" fill="Aqua" stroke="black" stroke-width="1"/>
  <text x="400" y="398" font-family="sans-serif" font-size="16">Linux (ppc) (11)</text>
  <path d="M 200,300 L 182.7,-127.9 A 150,150 0 0 1 181.8,-128.2 Z" fill="Aquamarine" stroke="black" stroke-width="1"/>
  <rect x="370" y="63" width="20" height="30" fill="Aquamarine" stroke="black" stroke-width="1"/>
  <text x="400" y="428" font-family="sans-serif" font-size="16">Linux (ppc64) (20)</text>
  <path d="M 200,300 L 181.8,-128.2 A 150,150 0 0 1 181.6,-128.2 Z" fill="beige" stroke="black" stroke-width="1"/>
  <rect x="370" y="64" width="20" height="30" fill="beige" stroke="black" stroke-width="1"/>
  <text x="400" y="458" font-family="sans-serif" font-size="16">Linux (s390) (3)</text>
  <path d="M 200,300 L 181.6,-128.2 A 150,150 0 0 1 181.2,-128.3 Z" fill="blueviolet" stroke="black" stroke-width="1"/>
  <rect x="370" y="65" width="20" height="30" fill="blueviolet" stroke="black" stroke-width="1"/>
  <text x="400" y="488" font-family="sans-serif" font-size="16">Linux (s390x) (9)</text>
  <path d="M 200,300 L 181.2,-128.3 A 150,150 0 0 1 181.1,-128.4 Z" fill="Bisque" stroke="black" stroke-width="1"/>
  <rect x="370" y="66" width="20" height="30" fill="Bisque" stroke="black" stroke-width="1"/>
  <text x="400" y="518" font-family="sans-serif" font-size="16">Linux (sparc) (2)</text>
  <path d="M 200,300 L 181.1,-128.4 A 150,150 0 0 1 179.1,-128.9 Z" fill="coral" stroke="black" stroke-width="1"/>
  <rect x="370" y="67" width="20" height="30" fill="coral" stroke="black" stroke-width="1"/>
  <text x="400" y="548" font-family="sans-serif" font-size="16">Linux (x86) (42)</text>
  <path d="M 200,300 L 179.1,-128.9 A 150,150 0 0 1 170.9,-130.9 Z" fill="darkblue" stroke="black" stroke-width="1"/>
  <rect x="370" y="68" width="20" height="30" fill="darkblue" stroke="black" stroke-width="1"/>
  <text x="400" y="578" font-family="sans-serif" font-size="16">Mac OS X (i386) (167)</text>
  <path d="M 200,300 L 170.9,-130.9 A 150,150 0 0 1 170.0,-131.1 Z" fill="crimson" stroke="black" stroke-width="1"/>
  <rect x="370" y="69" width="20" height="30" fill="crimson" stroke="black" stroke-width="1"/>
  <text x="400" y="608" font-family="sans-serif" font-size="16">Mac OS X (ppc) (19)</text>
  <path d="M 200,300 L 170.0,-131.1 A 150,150 0 0 1 125.2,-140.1 Z" fill="cyan" stroke="black" stroke-width="1"/>
  <rect x="370" y="70" width="20" height="30" fill="cyan" stroke="black" stroke-width="1"/>
  <text x="400" y="638" font-family="sans-serif" font-size="16">Mac OS X (x86_64) (877)</text>
  <path d="M 200,300 L 125.2,-140.1 A 150,150 0 0 1 -345.9,-22.8 Z" fill="darkred" stroke="black" stroke-width="1"/>
  <rect x="370" y="71" width="20" height="30" fill="darkred" stroke="black" stroke-width="1"/>
  <text x="400" y="668" font-family="sans-serif" font-size="16">N/A (11084)</text>
  <path d="M 200,300 L -345.9,-22.8 A 150,150 0 0 1 -346.0,-22.7 Z" fill="ivory" stroke="black" stroke-width="1"/>
  <rect x="370" y="72" width="20" height="30" fill="ivory" stroke="black" stroke-width="1"/>
  <text x="400" y="698" font-family="sans-serif" font-size="16">NetBSD (amd64) (1)</text>
  <path d="M 200,300 L -346.0,-22.7 A 150,150 0 0 1 -346.0,-22.7 Z" fill="lime" stroke="black" stroke-width="1"/>
  <rect x="370" y="73" width="20" height="30" fill="lime" stroke="black" stroke-width="1"/>
  <text x="400" y="728" font-family="sans-serif" font-size="16">NetBSD (i386) (1)</text>
  <path d="M 200,300 L -346.0,-22.7 A 150,150 0 0 1 -346.0,-22.7 Z" fill="maroon" stroke="black" stroke-width="1"/>
  <rect x="370" y="74" width="20" height="30" fill="maroon" stroke="black" stroke-width="1"/>
  <text x="400" y="758" font-family="sans-serif" font-size="16">OpenBSD (amd64) (2)</text>
  <path d="M 200,300 L -346.0,-22.7 A 150,150 0 0 1 -346.0,-22.6 Z" fill="navy" stroke="black" stroke-width="1"/>
  <rect x="370" y="75" width="20" height="30" fill="navy" stroke="black" stroke-width="1"/>
  <text x="400" y="788" font-family="sans-serif" font-size="16">OpenBSD (i386) (3)</text>
  <path d="M 200,300 L -346.0,-22.6 A 150,150 0 0 1 -346.1,-22.3 Z" fill="olive" stroke="black" stroke-width="1"/>
  <rect x="370" y="76" width="20" height="30" fill="olive" stroke="black" stroke-width="1"/>
  <text x="400" y="818" font-family="sans-serif" font-size="16">SunOS (amd64) (12)</text>
  <path d="M 200,300 L -346.1,-22.3 A 150,150 0 0 1 -349.7,-5.9 Z" fill="plum" stroke="black" stroke-width="1"/>
  <rect x="370" y="77" width="20" height="30" fill="plum" stroke="black" stroke-width="1"/>
  <text x="400" y="848" font-family="sans-serif" font-size="16">SunOS (sparc) (682)</text>
  <path d="M 200,300 L -349.7,-5.9 A 150,150 0 0 1 -349.8,-5.5 Z" fill="peru" stroke="black" stroke-width="1"/>
  <rect x="370" y="78" width="20" height="30" fill="peru" stroke="black" stroke-width="1"/>
  <text x="400" y="878" font-family="sans-serif" font-size="16">SunOS (sparcv9) (17)</text>
  <path d="M 200,300 L -349.8,-5.5 A 150,150 0 0 1 -349.6,7.6 Z" fill="silver" stroke="black" stroke-width="1"/>
  <rect x="370" y="79" width="20" height="30" fill="silver" stroke="black" stroke-width="1"/>
  <text x="400" y="908" font-family="sans-serif" font-size="16">SunOS (x86) (542)</text>
  <path d="M 200,300 L -349.6,7.6 A 150,150 0 0 1 -349.6,7.6 Z" fill="tan" stroke="black" stroke-width="1"/>
  <rect x="370" y="80" width="20" height="30" fill="tan" stroke="black" stroke-width="1"/>
  <text x="400" y="938" font-family="sans-serif" font-size="16">UnixWare (IA32) (1)</text>
  <path d="M 200,300 L -349.6,7.6 A 150,150 0 0 1 -349.3,9.2 Z" fill="teal" stroke="black" stroke-width="1"/>
  <rect x="370" y="81" width="20" height="30" fill="teal" stroke="black" stroke-width="1"/>
  <text x="400" y="968" font-family="sans-serif" font-size="16">Windows 2000 (x86) (66)</text>
  <path d="M 200,300 L -349.3,9.2 A 150,150 0 0 1 -347.7,17.1 Z" fill="violet" stroke="black" stroke-width="1"/>
  <rect x="370" y="82" width="20" height="30" fill="violet" stroke="black" stroke-width="1"/>
  <text x="400" y="998" font-family="sans-serif" font-size="16">Windows 2003 (amd64) (327)</text>
  <path d="M 200,300 L -347.7,17.1 A 150,150 0 0 1 -347.7,17.1 Z" fill="AliceBlue" stroke="black" stroke-width="1"/>
  <rect x="370" y="83" width="20" height="30" fill="AliceBlue" stroke="black" stroke-width="1"/>
  <text x="400" y="1028" font-family="sans-serif" font-size="16">Windows 2003 (ia64) (1)</text>
  <path d="M 200,300 L -347.7,17.1 A 150,150 0 0 1 -296.6,79.6 Z" fill="DarkOliveGreen" stroke="black" stroke-width="1"/>
  <rect x="370" y="84" width="20" height="30" fill="DarkOliveGreen" stroke="black" stroke-width="1"/>
  <text x="400" y="1058" font-family="sans-serif" font-size="16">Windows 2003 (x86) (2768)</text>
  <path d="M 200,300 L -296.6,79.6 A 150,150 0 0 1 -282.9,88.3 Z" fill="Indigo" stroke="black" stroke-width="1"/>
  <rect x="370" y="85" width="20" height="30" fill="Indigo" stroke="black" stroke-width="1"/>
  <text x="400" y="1088" font-family="sans-serif" font-size="16">Windows 7 (amd64) (433)</text>
  <path d="M 200,300 L -282.9,88.3 A 150,150 0 0 1 -260.0,100.4 Z" fill="MediumPurple" stroke="black" stroke-width="1"/>
  <rect x="370" y="86" width="20" height="30" fill="MediumPurple" stroke="black" stroke-width="1"/>
  <text x="400" y="1118" font-family="sans-serif" font-size="16">Windows 7 (x86) (646)</text>
  <path d="M 200,300 L -260.0,100.4 A 150,150 0 0 1 -259.9,100.5 Z" fill="Purple" stroke="black" stroke-width="1"/>
  <rect x="370" y="87" width="20" height="30" fill="Purple" stroke="black" stroke-width="1"/>
  <text x="400" y="1148" font-family="sans-serif" font-size="16">Windows NT (unknown) (amd64) (3)</text>
  <path d="M 200,300 L -259.9,100.5 A 150,150 0 0 1 -259.3,100.7 Z" fill="AntiqueWhite" stroke="black" stroke-width="1"/>
  <rect x="370" y="88" width="20" height="30" fill="AntiqueWhite" stroke="black" stroke-width="1"/>
  <text x="400" y="1178" font-family="sans-serif" font-size="16">Windows NT (unknown) (x86) (15)</text>
  <path d="M 200,300 L -259.3,100.7 A 150,150 0 0 1 -259.1,100.8 Z" fill="DarkOrange" stroke="black" stroke-width="1"/>
  <rect x="370" y="89" width="20" height="30" fill="DarkOrange" stroke="black" stroke-width="1"/>
  <text x="400" y="1208" font-family="sans-serif" font-size="16">Windows Server 2003 (amd64) (5)</text>
  <path d="M 200,300 L -259.1,100.8 A 150,150 0 0 1 -257.8,101.5 Z" fill="Ivory" stroke="black" stroke-width="1"/>
  <rect x="370" y="90" width="20" height="30" fill="Ivory" stroke="black" stroke-width="1"/>
  <text x="400" y="1238" font-family="sans-serif" font-size="16">Windows Server 2003 (x86) (35)</text>
  <path d="M 200,300 L -257.8,101.5 A 150,150 0 0 1 -248.3,105.7 Z" fill="MediumSeaGreen" stroke="black" stroke-width="1"/>
  <rect x="370" y="91" width="20" height="30" fill="MediumSeaGreen" stroke="black" stroke-width="1"/>
  <text x="400" y="1268" font-family="sans-serif" font-size="16">Windows Server 2008 (amd64) (245)</text>
  <path d="M 200,300 L -248.3,105.7 A 150,150 0 0 1 -248.2,105.7 Z" fill="Red" stroke="black" stroke-width="1"/>
  <rect x="370" y="92" width="20" height="30" fill="Red" stroke="black" stroke-width="1"/>
  <text x="400" y="1298" font-family="sans-serif" font-size="16">Windows Server 2008 (ia64) (1)</text>
  <path d="M 200,300 L -248.2,105.7 A 150,150 0 0 1 -228.0,113.8 Z" fill="Aqua" stroke="black" stroke-width="1"/>
  <rect x="370" y="93" width="20" height="30" fill="Aqua" stroke="black" stroke-width="1"/>
  <text x="400" y="1328" font-family="sans-serif" font-size="16">Windows Server 2008 (x86) (491)</text>
  <path d="M 200,300 L -228.0,113.8 A 150,150 0 0 1 -205.1,121.5 Z" fill="DarkOrchid" stroke="black" stroke-width="1"/>
  <rect x="370" y="94" width="20" height="30" fill="DarkOrchid" stroke="black" stroke-width="1"/>
  <text x="400" y="1358" font-family="sans-serif" font-size="16">Windows Server 2008 R2 (amd64) (516)</text>
  <path d="M 200,300 L -205.1,121.5 A 150,150 0 0 1 -192.1,125.4 Z" fill="Khaki" stroke="black" stroke-width="1"/>
  <rect x="370" y="95" width="20" height="30" fill="Khaki" stroke="black" stroke-width="1"/>
  <text x="400" y="1388" font-family="sans-serif" font-size="16">Windows Server 2008 R2 (x86) (281)</text>
  <path d="M 200,300 L -192.1,125.4 A 150,150 0 0 1 -189.7,126.0 Z" fill="MediumSlateBlue" stroke="black" stroke-width="1"/>
  <rect x="370" y="96" width="20" height="30" fill="MediumSlateBlue" stroke="black" stroke-width="1"/>
  <text x="400" y="1418" font-family="sans-serif" font-size="16">Windows Vista (amd64) (50)</text>
  <path d="M 200,300 L -189.7,126.0 A 150,150 0 0 1 -178.8,129.0 Z" fill="RosyBrown" stroke="black" stroke-width="1"/>
  <rect x="370" y="97" width="20" height="30" fill="RosyBrown" stroke="black" stroke-width="1"/>
  <text x="400" y="1448" font-family="sans-serif" font-size="16">Windows Vista (x86) (229)</text>
  <path d="M 200,300 L -178.8,129.0 A 150,150 0 0 1 -173.8,130.2 Z" fill="AquaMarine" stroke="black" stroke-width="1"/>
  <rect x="370" y="98" width="20" height="30" fill="AquaMarine" stroke="black" stroke-width="1"/>
  <text x="400" y="1478" font-family="sans-serif" font-size="16">Windows XP (amd64) (103)</text>
  <path d="M 200,300 L -173.8,130.2 A 150,150 0 0 1 -0.1,150.0 Z" fill="DarkRed" stroke="black" stroke-width="1"/>
  <rect x="370" y="99" width="20" height="30" fill="DarkRed" stroke="black" stroke-width="1"/>
  <text x="400" y="1508" font-family="sans-serif" font-size="16">Windows XP (x86) (3226)</text>
  <path d="M 200,300 L -0.1,150.0 A 150,150 0 0 1 -0.0,150.0 Z" fill="Lavender" stroke="black" stroke-width="1"/>
  <rect x="370" y="100" width="20" height="30" fill="Lavender" stroke="black" stroke-width="1"/>
  <text x="400" y="1538" font-family="sans-serif" font-size="16">linux (amd64) (1)</text>
</svg>
