<svg xmlns="http://www.w3.org/2000/svg" version="1.1" preserveAspectRatio="xMidYMid meet" viewBox="0 0 2375 653.7">
  <rect fill="blue" height="5.0" stroke="black" width="12" x="15" y="348.6"/>
  <text x="15" y="358.7" font-family="Tahoma" font-size="12" transform="rotate(90 15,358.7)" text-rendering="optimizeSpeed" fill="#000000">schedule-failed-builds (505)</text>
  <rect fill="blue" height="5.2" stroke="black" width="12" x="30" y="348.5"/>
  <text x="30" y="358.7" font-family="Tahoma" font-size="12" transform="rotate(90 30,358.7)" text-rendering="optimizeSpeed" fill="#000000">PrioritySorter (519)</text>
  <rect fill="blue" height="5.2" stroke="black" width="12" x="45" y="348.4"/>
  <text x="45" y="358.7" font-family="Tahoma" font-size="12" transform="rotate(90 45,358.7)" text-rendering="optimizeSpeed" fill="#000000">cccc (524)</text>
  <rect fill="blue" height="5.2" stroke="black" width="12" x="60" y="348.4"/>
  <text x="60" y="358.7" font-family="Tahoma" font-size="12" transform="rotate(90 60,358.7)" text-rendering="optimizeSpeed" fill="#000000">mask-passwords (525)</text>
  <rect fill="blue" height="5.4" stroke="black" width="12" x="75" y="348.3"/>
  <text x="75" y="358.7" font-family="Tahoma" font-size="12" transform="rotate(90 75,358.7)" text-rendering="optimizeSpeed" fill="#000000">gcal (537)</text>
  <rect fill="blue" height="5.4" stroke="black" width="12" x="90" y="348.3"/>
  <text x="90" y="358.7" font-family="Tahoma" font-size="12" transform="rotate(90 90,358.7)" text-rendering="optimizeSpeed" fill="#000000">matrixtieparent (540)</text>
  <rect fill="blue" height="5.6" stroke="black" width="12" x="105" y="348.1"/>
  <text x="105" y="358.7" font-family="Tahoma" font-size="12" transform="rotate(90 105,358.7)" text-rendering="optimizeSpeed" fill="#000000">screenshot (560)</text>
  <rect fill="blue" height="5.6" stroke="black" width="12" x="120" y="348.0"/>
  <text x="120" y="358.7" font-family="Tahoma" font-size="12" transform="rotate(90 120,358.7)" text-rendering="optimizeSpeed" fill="#000000">groovy-postbuild (563)</text>
  <rect fill="blue" height="5.7" stroke="black" width="12" x="135" y="348.0"/>
  <text x="135" y="358.7" font-family="Tahoma" font-size="12" transform="rotate(90 135,358.7)" text-rendering="optimizeSpeed" fill="#000000">phing (570)</text>
  <rect fill="blue" height="5.7" stroke="black" width="12" x="150" y="348.0"/>
  <text x="150" y="358.7" font-family="Tahoma" font-size="12" transform="rotate(90 150,358.7)" text-rendering="optimizeSpeed" fill="#000000">favorite (572)</text>
  <rect fill="blue" height="5.8" stroke="black" width="12" x="165" y="347.9"/>
  <text x="165" y="358.7" font-family="Tahoma" font-size="12" transform="rotate(90 165,358.7)" text-rendering="optimizeSpeed" fill="#000000">seleniumhtmlreport (575)</text>
  <rect fill="blue" height="5.8" stroke="black" width="12" x="180" y="347.9"/>
  <text x="180" y="358.7" font-family="Tahoma" font-size="12" transform="rotate(90 180,358.7)" text-rendering="optimizeSpeed" fill="#000000">junit-attachments (580)</text>
  <rect fill="blue" height="5.8" stroke="black" width="12" x="195" y="347.9"/>
  <text x="195" y="358.7" font-family="Tahoma" font-size="12" transform="rotate(90 195,358.7)" text-rendering="optimizeSpeed" fill="#000000">powershell (580)</text>
  <rect fill="blue" height="5.8" stroke="black" width="12" x="210" y="347.9"/>
  <text x="210" y="358.7" font-family="Tahoma" font-size="12" transform="rotate(90 210,358.7)" text-rendering="optimizeSpeed" fill="#000000">javancss (582)</text>
  <rect fill="blue" height="5.8" stroke="black" width="12" x="225" y="347.9"/>
  <text x="225" y="358.7" font-family="Tahoma" font-size="12" transform="rotate(90 225,358.7)" text-rendering="optimizeSpeed" fill="#000000">jenkinswalldisplay (582)</text>
  <rect fill="blue" height="5.8" stroke="black" width="12" x="240" y="347.8"/>
  <text x="240" y="358.7" font-family="Tahoma" font-size="12" transform="rotate(90 240,358.7)" text-rendering="optimizeSpeed" fill="#000000">build-publisher (583)</text>
  <rect fill="blue" height="6.0" stroke="black" width="12" x="255" y="347.6"/>
  <text x="255" y="358.7" font-family="Tahoma" font-size="12" transform="rotate(90 255,358.7)" text-rendering="optimizeSpeed" fill="#000000">blame-upstream-commiters (603)</text>
  <rect fill="blue" height="6.0" stroke="black" width="12" x="270" y="347.6"/>
  <text x="270" y="358.7" font-family="Tahoma" font-size="12" transform="rotate(90 270,358.7)" text-rendering="optimizeSpeed" fill="#000000">bugzilla (604)</text>
  <rect fill="blue" height="6.1" stroke="black" width="12" x="285" y="347.6"/>
  <text x="285" y="358.7" font-family="Tahoma" font-size="12" transform="rotate(90 285,358.7)" text-rendering="optimizeSpeed" fill="#000000">show-build-parameters (607)</text>
  <rect fill="blue" height="6.2" stroke="black" width="12" x="300" y="347.5"/>
  <text x="300" y="358.7" font-family="Tahoma" font-size="12" transform="rotate(90 300,358.7)" text-rendering="optimizeSpeed" fill="#000000">android-emulator (621)</text>
  <rect fill="blue" height="6.3" stroke="black" width="12" x="315" y="347.4"/>
  <text x="315" y="358.7" font-family="Tahoma" font-size="12" transform="rotate(90 315,358.7)" text-rendering="optimizeSpeed" fill="#000000">slave-status (630)</text>
  <rect fill="blue" height="6.4" stroke="black" width="12" x="330" y="347.3"/>
  <text x="330" y="358.7" font-family="Tahoma" font-size="12" transform="rotate(90 330,358.7)" text-rendering="optimizeSpeed" fill="#000000">shelve-project-plugin (637)</text>
  <rect fill="blue" height="6.4" stroke="black" width="12" x="345" y="347.3"/>
  <text x="345" y="358.7" font-family="Tahoma" font-size="12" transform="rotate(90 345,358.7)" text-rendering="optimizeSpeed" fill="#000000">publish-over-ftp (639)</text>
  <rect fill="blue" height="6.5" stroke="black" width="12" x="360" y="347.2"/>
  <text x="360" y="358.7" font-family="Tahoma" font-size="12" transform="rotate(90 360,358.7)" text-rendering="optimizeSpeed" fill="#000000">build-name-setter (645)</text>
  <rect fill="blue" height="6.6" stroke="black" width="12" x="375" y="347.1"/>
  <text x="375" y="358.7" font-family="Tahoma" font-size="12" transform="rotate(90 375,358.7)" text-rendering="optimizeSpeed" fill="#000000">ivy (662)</text>
  <rect fill="blue" height="6.7" stroke="black" width="12" x="390" y="347.0"/>
  <text x="390" y="358.7" font-family="Tahoma" font-size="12" transform="rotate(90 390,358.7)" text-rendering="optimizeSpeed" fill="#000000">url-change-trigger (668)</text>
  <rect fill="blue" height="6.8" stroke="black" width="12" x="405" y="346.9"/>
  <text x="405" y="358.7" font-family="Tahoma" font-size="12" transform="rotate(90 405,358.7)" text-rendering="optimizeSpeed" fill="#000000">ldapemail (680)</text>
  <rect fill="blue" height="6.8" stroke="black" width="12" x="420" y="346.9"/>
  <text x="420" y="358.7" font-family="Tahoma" font-size="12" transform="rotate(90 420,358.7)" text-rendering="optimizeSpeed" fill="#000000">rebuild (680)</text>
  <rect fill="blue" height="6.8" stroke="black" width="12" x="435" y="346.8"/>
  <text x="435" y="358.7" font-family="Tahoma" font-size="12" transform="rotate(90 435,358.7)" text-rendering="optimizeSpeed" fill="#000000">maven-info (685)</text>
  <rect fill="blue" height="6.9" stroke="black" width="12" x="450" y="346.8"/>
  <text x="450" y="358.7" font-family="Tahoma" font-size="12" transform="rotate(90 450,358.7)" text-rendering="optimizeSpeed" fill="#000000">gradle (691)</text>
  <rect fill="blue" height="7.4" stroke="black" width="12" x="465" y="346.2"/>
  <text x="465" y="358.7" font-family="Tahoma" font-size="12" transform="rotate(90 465,358.7)" text-rendering="optimizeSpeed" fill="#000000">svnpublisher (744)</text>
  <rect fill="blue" height="7.5" stroke="black" width="12" x="480" y="346.1"/>
  <text x="480" y="358.7" font-family="Tahoma" font-size="12" transform="rotate(90 480,358.7)" text-rendering="optimizeSpeed" fill="#000000">viewVC (753)</text>
  <rect fill="blue" height="7.6" stroke="black" width="12" x="495" y="346.1"/>
  <text x="495" y="358.7" font-family="Tahoma" font-size="12" transform="rotate(90 495,358.7)" text-rendering="optimizeSpeed" fill="#000000">grails (760)</text>
  <rect fill="blue" height="7.8" stroke="black" width="12" x="510" y="345.9"/>
  <text x="510" y="358.7" font-family="Tahoma" font-size="12" transform="rotate(90 510,358.7)" text-rendering="optimizeSpeed" fill="#000000">rubyMetrics (776)</text>
  <rect fill="blue" height="8.1" stroke="black" width="12" x="525" y="345.6"/>
  <text x="525" y="358.7" font-family="Tahoma" font-size="12" transform="rotate(90 525,358.7)" text-rendering="optimizeSpeed" fill="#000000">cron_column (808)</text>
  <rect fill="blue" height="8.1" stroke="black" width="12" x="540" y="345.6"/>
  <text x="540" y="358.7" font-family="Tahoma" font-size="12" transform="rotate(90 540,358.7)" text-rendering="optimizeSpeed" fill="#000000">configurationslicing (811)</text>
  <rect fill="blue" height="8.1" stroke="black" width="12" x="555" y="345.6"/>
  <text x="555" y="358.7" font-family="Tahoma" font-size="12" transform="rotate(90 555,358.7)" text-rendering="optimizeSpeed" fill="#000000">mstest (811)</text>
  <rect fill="blue" height="8.2" stroke="black" width="12" x="570" y="345.5"/>
  <text x="570" y="358.7" font-family="Tahoma" font-size="12" transform="rotate(90 570,358.7)" text-rendering="optimizeSpeed" fill="#000000">console-column-plugin (816)</text>
  <rect fill="blue" height="8.2" stroke="black" width="12" x="585" y="345.5"/>
  <text x="585" y="358.7" font-family="Tahoma" font-size="12" transform="rotate(90 585,358.7)" text-rendering="optimizeSpeed" fill="#000000">ws-cleanup (818)</text>
  <rect fill="blue" height="8.3" stroke="black" width="12" x="600" y="345.4"/>
  <text x="600" y="358.7" font-family="Tahoma" font-size="12" transform="rotate(90 600,358.7)" text-rendering="optimizeSpeed" fill="#000000">envfile (831)</text>
  <rect fill="blue" height="8.3" stroke="black" width="12" x="615" y="345.4"/>
  <text x="615" y="358.7" font-family="Tahoma" font-size="12" transform="rotate(90 615,358.7)" text-rendering="optimizeSpeed" fill="#000000">changelog-history (832)</text>
  <rect fill="blue" height="8.4" stroke="black" width="12" x="630" y="345.2"/>
  <text x="630" y="358.7" font-family="Tahoma" font-size="12" transform="rotate(90 630,358.7)" text-rendering="optimizeSpeed" fill="#000000">hudsontrayapp (842)</text>
  <rect fill="blue" height="8.5" stroke="black" width="12" x="645" y="345.2"/>
  <text x="645" y="358.7" font-family="Tahoma" font-size="12" transform="rotate(90 645,358.7)" text-rendering="optimizeSpeed" fill="#000000">copyarchiver (848)</text>
  <rect fill="blue" height="8.5" stroke="black" width="12" x="660" y="345.2"/>
  <text x="660" y="358.7" font-family="Tahoma" font-size="12" transform="rotate(90 660,358.7)" text-rendering="optimizeSpeed" fill="#000000">testng-plugin (852)</text>
  <rect fill="blue" height="8.6" stroke="black" width="12" x="675" y="345.0"/>
  <text x="675" y="358.7" font-family="Tahoma" font-size="12" transform="rotate(90 675,358.7)" text-rendering="optimizeSpeed" fill="#000000">role-strategy (864)</text>
  <rect fill="blue" height="8.8" stroke="black" width="12" x="690" y="344.9"/>
  <text x="690" y="358.7" font-family="Tahoma" font-size="12" transform="rotate(90 690,358.7)" text-rendering="optimizeSpeed" fill="#000000">cppcheck (876)</text>
  <rect fill="blue" height="8.8" stroke="black" width="12" x="705" y="344.9"/>
  <text x="705" y="358.7" font-family="Tahoma" font-size="12" transform="rotate(90 705,358.7)" text-rendering="optimizeSpeed" fill="#000000">ircbot (880)</text>
  <rect fill="blue" height="8.8" stroke="black" width="12" x="720" y="344.8"/>
  <text x="720" y="358.7" font-family="Tahoma" font-size="12" transform="rotate(90 720,358.7)" text-rendering="optimizeSpeed" fill="#000000">xfpanel (883)</text>
  <rect fill="blue" height="9.0" stroke="black" width="12" x="735" y="344.6"/>
  <text x="735" y="358.7" font-family="Tahoma" font-size="12" transform="rotate(90 735,358.7)" text-rendering="optimizeSpeed" fill="#000000">nant (904)</text>
  <rect fill="blue" height="9.1" stroke="black" width="12" x="750" y="344.6"/>
  <text x="750" y="358.7" font-family="Tahoma" font-size="12" transform="rotate(90 750,358.7)" text-rendering="optimizeSpeed" fill="#000000">saferestart (905)</text>
  <rect fill="blue" height="9.1" stroke="black" width="12" x="765" y="344.6"/>
  <text x="765" y="358.7" font-family="Tahoma" font-size="12" transform="rotate(90 765,358.7)" text-rendering="optimizeSpeed" fill="#000000">clearcase (906)</text>
  <rect fill="blue" height="9.1" stroke="black" width="12" x="780" y="344.6"/>
  <text x="780" y="358.7" font-family="Tahoma" font-size="12" transform="rotate(90 780,358.7)" text-rendering="optimizeSpeed" fill="#000000">template-project (906)</text>
  <rect fill="blue" height="9.2" stroke="black" width="12" x="795" y="344.4"/>
  <text x="795" y="358.7" font-family="Tahoma" font-size="12" transform="rotate(90 795,358.7)" text-rendering="optimizeSpeed" fill="#000000">claim (923)</text>
  <rect fill="blue" height="9.3" stroke="black" width="12" x="810" y="344.3"/>
  <text x="810" y="358.7" font-family="Tahoma" font-size="12" transform="rotate(90 810,358.7)" text-rendering="optimizeSpeed" fill="#000000">global-build-stats (933)</text>
  <rect fill="blue" height="9.6" stroke="black" width="12" x="825" y="344.0"/>
  <text x="825" y="358.7" font-family="Tahoma" font-size="12" transform="rotate(90 825,358.7)" text-rendering="optimizeSpeed" fill="#000000">downstream-ext (963)</text>
  <rect fill="blue" height="9.7" stroke="black" width="12" x="840" y="344.0"/>
  <text x="840" y="358.7" font-family="Tahoma" font-size="12" transform="rotate(90 840,358.7)" text-rendering="optimizeSpeed" fill="#000000">next-build-number (966)</text>
  <rect fill="blue" height="10.0" stroke="black" width="12" x="855" y="343.7"/>
  <text x="855" y="358.7" font-family="Tahoma" font-size="12" transform="rotate(90 855,358.7)" text-rendering="optimizeSpeed" fill="#000000">iphoneview (1001)</text>
  <rect fill="blue" height="10.1" stroke="black" width="12" x="870" y="343.6"/>
  <text x="870" y="358.7" font-family="Tahoma" font-size="12" transform="rotate(90 870,358.7)" text-rendering="optimizeSpeed" fill="#000000">doclinks (1010)</text>
  <rect fill="blue" height="10.2" stroke="black" width="12" x="885" y="343.5"/>
  <text x="885" y="358.7" font-family="Tahoma" font-size="12" transform="rotate(90 885,358.7)" text-rendering="optimizeSpeed" fill="#000000">locale (1020)</text>
  <rect fill="blue" height="10.3" stroke="black" width="12" x="900" y="343.4"/>
  <text x="900" y="358.7" font-family="Tahoma" font-size="12" transform="rotate(90 900,358.7)" text-rendering="optimizeSpeed" fill="#000000">xvnc (1030)</text>
  <rect fill="blue" height="10.4" stroke="black" width="12" x="915" y="343.3"/>
  <text x="915" y="358.7" font-family="Tahoma" font-size="12" transform="rotate(90 915,358.7)" text-rendering="optimizeSpeed" fill="#000000">sectioned-view (1038)</text>
  <rect fill="blue" height="10.4" stroke="black" width="12" x="930" y="343.3"/>
  <text x="930" y="358.7" font-family="Tahoma" font-size="12" transform="rotate(90 930,358.7)" text-rendering="optimizeSpeed" fill="#000000">seleniumhq (1038)</text>
  <rect fill="blue" height="10.4" stroke="black" width="12" x="945" y="343.2"/>
  <text x="945" y="358.7" font-family="Tahoma" font-size="12" transform="rotate(90 945,358.7)" text-rendering="optimizeSpeed" fill="#000000">sloccount (1043)</text>
  <rect fill="blue" height="10.6" stroke="black" width="12" x="960" y="343.1"/>
  <text x="960" y="358.7" font-family="Tahoma" font-size="12" transform="rotate(90 960,358.7)" text-rendering="optimizeSpeed" fill="#000000">ftppublisher (1055)</text>
  <rect fill="blue" height="10.7" stroke="black" width="12" x="975" y="343.0"/>
  <text x="975" y="358.7" font-family="Tahoma" font-size="12" transform="rotate(90 975,358.7)" text-rendering="optimizeSpeed" fill="#000000">trac (1066)</text>
  <rect fill="blue" height="10.9" stroke="black" width="12" x="990" y="342.8"/>
  <text x="990" y="358.7" font-family="Tahoma" font-size="12" transform="rotate(90 990,358.7)" text-rendering="optimizeSpeed" fill="#000000">description-setter (1086)</text>
  <rect fill="blue" height="10.9" stroke="black" width="12" x="1005" y="342.7"/>
  <text x="1005" y="358.7" font-family="Tahoma" font-size="12" transform="rotate(90 1005,358.7)" text-rendering="optimizeSpeed" fill="#000000">ruby (1093)</text>
  <rect fill="blue" height="10.9" stroke="black" width="12" x="1020" y="342.7"/>
  <text x="1020" y="358.7" font-family="Tahoma" font-size="12" transform="rotate(90 1020,358.7)" text-rendering="optimizeSpeed" fill="#000000">thinBackup (1093)</text>
  <rect fill="blue" height="11.0" stroke="black" width="12" x="1035" y="342.7"/>
  <text x="1035" y="358.7" font-family="Tahoma" font-size="12" transform="rotate(90 1035,358.7)" text-rendering="optimizeSpeed" fill="#000000">redmine (1098)</text>
  <rect fill="blue" height="11.1" stroke="black" width="12" x="1050" y="342.6"/>
  <text x="1050" y="358.7" font-family="Tahoma" font-size="12" transform="rotate(90 1050,358.7)" text-rendering="optimizeSpeed" fill="#000000">compact-columns (1110)</text>
  <rect fill="blue" height="11.2" stroke="black" width="12" x="1065" y="342.5"/>
  <text x="1065" y="358.7" font-family="Tahoma" font-size="12" transform="rotate(90 1065,358.7)" text-rendering="optimizeSpeed" fill="#000000">port-allocator (1119)</text>
  <rect fill="blue" height="11.2" stroke="black" width="12" x="1080" y="342.4"/>
  <text x="1080" y="358.7" font-family="Tahoma" font-size="12" transform="rotate(90 1080,358.7)" text-rendering="optimizeSpeed" fill="#000000">nested-view (1124)</text>
  <rect fill="blue" height="11.4" stroke="black" width="12" x="1095" y="342.3"/>
  <text x="1095" y="358.7" font-family="Tahoma" font-size="12" transform="rotate(90 1095,358.7)" text-rendering="optimizeSpeed" fill="#000000">monitoring (1137)</text>
  <rect fill="blue" height="11.5" stroke="black" width="12" x="1110" y="342.2"/>
  <text x="1110" y="358.7" font-family="Tahoma" font-size="12" transform="rotate(90 1110,358.7)" text-rendering="optimizeSpeed" fill="#000000">text-finder (1148)</text>
  <rect fill="blue" height="11.6" stroke="black" width="12" x="1125" y="342.1"/>
  <text x="1125" y="358.7" font-family="Tahoma" font-size="12" transform="rotate(90 1125,358.7)" text-rendering="optimizeSpeed" fill="#000000">dependencyanalyzer (1156)</text>
  <rect fill="blue" height="11.6" stroke="black" width="12" x="1140" y="342.1"/>
  <text x="1140" y="358.7" font-family="Tahoma" font-size="12" transform="rotate(90 1140,358.7)" text-rendering="optimizeSpeed" fill="#000000">groovy (1158)</text>
  <rect fill="blue" height="11.7" stroke="black" width="12" x="1155" y="342.0"/>
  <text x="1155" y="358.7" font-family="Tahoma" font-size="12" transform="rotate(90 1155,358.7)" text-rendering="optimizeSpeed" fill="#000000">doxygen (1171)</text>
  <rect fill="blue" height="11.8" stroke="black" width="12" x="1170" y="341.9"/>
  <text x="1170" y="358.7" font-family="Tahoma" font-size="12" transform="rotate(90 1170,358.7)" text-rendering="optimizeSpeed" fill="#000000">versionnumber (1179)</text>
  <rect fill="blue" height="11.8" stroke="black" width="12" x="1185" y="341.9"/>
  <text x="1185" y="358.7" font-family="Tahoma" font-size="12" transform="rotate(90 1185,358.7)" text-rendering="optimizeSpeed" fill="#000000">hudson-pview-plugin (1180)</text>
  <rect fill="blue" height="12.0" stroke="black" width="12" x="1200" y="341.7"/>
  <text x="1200" y="358.7" font-family="Tahoma" font-size="12" transform="rotate(90 1200,358.7)" text-rendering="optimizeSpeed" fill="#000000">depgraph-view (1196)</text>
  <rect fill="blue" height="12.6" stroke="black" width="12" x="1215" y="341.1"/>
  <text x="1215" y="358.7" font-family="Tahoma" font-size="12" transform="rotate(90 1215,358.7)" text-rendering="optimizeSpeed" fill="#000000">clover (1259)</text>
  <rect fill="blue" height="12.7" stroke="black" width="12" x="1230" y="340.9"/>
  <text x="1230" y="358.7" font-family="Tahoma" font-size="12" transform="rotate(90 1230,358.7)" text-rendering="optimizeSpeed" fill="#000000">copy-to-slave (1274)</text>
  <rect fill="blue" height="13.2" stroke="black" width="12" x="1245" y="340.5"/>
  <text x="1245" y="358.7" font-family="Tahoma" font-size="12" transform="rotate(90 1245,358.7)" text-rendering="optimizeSpeed" fill="#000000">build-pipeline-plugin (1315)</text>
  <rect fill="blue" height="13.3" stroke="black" width="12" x="1260" y="340.4"/>
  <text x="1260" y="358.7" font-family="Tahoma" font-size="12" transform="rotate(90 1260,358.7)" text-rendering="optimizeSpeed" fill="#000000">statusmonitor (1331)</text>
  <rect fill="blue" height="13.3" stroke="black" width="12" x="1275" y="340.4"/>
  <text x="1275" y="358.7" font-family="Tahoma" font-size="12" transform="rotate(90 1275,358.7)" text-rendering="optimizeSpeed" fill="#000000">artifactory (1332)</text>
  <rect fill="blue" height="13.3" stroke="black" width="12" x="1290" y="340.3"/>
  <text x="1290" y="358.7" font-family="Tahoma" font-size="12" transform="rotate(90 1290,358.7)" text-rendering="optimizeSpeed" fill="#000000">view-job-filters (1334)</text>
  <rect fill="blue" height="13.5" stroke="black" width="12" x="1305" y="340.2"/>
  <text x="1305" y="358.7" font-family="Tahoma" font-size="12" transform="rotate(90 1305,358.7)" text-rendering="optimizeSpeed" fill="#000000">rake (1349)</text>
  <rect fill="blue" height="13.9" stroke="black" width="12" x="1320" y="339.7"/>
  <text x="1320" y="358.7" font-family="Tahoma" font-size="12" transform="rotate(90 1320,358.7)" text-rendering="optimizeSpeed" fill="#000000">emotional-hudson (1394)</text>
  <rect fill="blue" height="14.1" stroke="black" width="12" x="1335" y="339.6"/>
  <text x="1335" y="358.7" font-family="Tahoma" font-size="12" transform="rotate(90 1335,358.7)" text-rendering="optimizeSpeed" fill="#000000">svn-release-mgr (1407)</text>
  <rect fill="blue" height="14.2" stroke="black" width="12" x="1350" y="339.5"/>
  <text x="1350" y="358.7" font-family="Tahoma" font-size="12" transform="rotate(90 1350,358.7)" text-rendering="optimizeSpeed" fill="#000000">python (1421)</text>
  <rect fill="blue" height="14.3" stroke="black" width="12" x="1365" y="339.4"/>
  <text x="1365" y="358.7" font-family="Tahoma" font-size="12" transform="rotate(90 1365,358.7)" text-rendering="optimizeSpeed" fill="#000000">timestamper (1428)</text>
  <rect fill="blue" height="14.6" stroke="black" width="12" x="1380" y="339.1"/>
  <text x="1380" y="358.7" font-family="Tahoma" font-size="12" transform="rotate(90 1380,358.7)" text-rendering="optimizeSpeed" fill="#000000">downstream-buildview (1459)</text>
  <rect fill="blue" height="14.9" stroke="black" width="12" x="1395" y="338.8"/>
  <text x="1395" y="358.7" font-family="Tahoma" font-size="12" transform="rotate(90 1395,358.7)" text-rendering="optimizeSpeed" fill="#000000">sidebar-link (1486)</text>
  <rect fill="blue" height="15.0" stroke="black" width="12" x="1410" y="338.6"/>
  <text x="1410" y="358.7" font-family="Tahoma" font-size="12" transform="rotate(90 1410,358.7)" text-rendering="optimizeSpeed" fill="#000000">release (1504)</text>
  <rect fill="blue" height="15.4" stroke="black" width="12" x="1425" y="338.3"/>
  <text x="1425" y="358.7" font-family="Tahoma" font-size="12" transform="rotate(90 1425,358.7)" text-rendering="optimizeSpeed" fill="#000000">token-macro (1541)</text>
  <rect fill="blue" height="15.6" stroke="black" width="12" x="1440" y="338.1"/>
  <text x="1440" y="358.7" font-family="Tahoma" font-size="12" transform="rotate(90 1440,358.7)" text-rendering="optimizeSpeed" fill="#000000">perforce (1561)</text>
  <rect fill="blue" height="15.6" stroke="black" width="12" x="1455" y="338.1"/>
  <text x="1455" y="358.7" font-family="Tahoma" font-size="12" transform="rotate(90 1455,358.7)" text-rendering="optimizeSpeed" fill="#000000">jobConfigHistory (1562)</text>
  <rect fill="blue" height="16.1" stroke="black" width="12" x="1470" y="337.6"/>
  <text x="1470" y="358.7" font-family="Tahoma" font-size="12" transform="rotate(90 1470,358.7)" text-rendering="optimizeSpeed" fill="#000000">join (1612)</text>
  <rect fill="blue" height="16.2" stroke="black" width="12" x="1485" y="337.5"/>
  <text x="1485" y="358.7" font-family="Tahoma" font-size="12" transform="rotate(90 1485,358.7)" text-rendering="optimizeSpeed" fill="#000000">jabber (1620)</text>
  <rect fill="blue" height="16.6" stroke="black" width="12" x="1500" y="337.1"/>
  <text x="1500" y="358.7" font-family="Tahoma" font-size="12" transform="rotate(90 1500,358.7)" text-rendering="optimizeSpeed" fill="#000000">nunit (1655)</text>
  <rect fill="blue" height="16.8" stroke="black" width="12" x="1515" y="336.9"/>
  <text x="1515" y="358.7" font-family="Tahoma" font-size="12" transform="rotate(90 1515,358.7)" text-rendering="optimizeSpeed" fill="#000000">audit-trail (1678)</text>
  <rect fill="blue" height="16.9" stroke="black" width="12" x="1530" y="336.8"/>
  <text x="1530" y="358.7" font-family="Tahoma" font-size="12" transform="rotate(90 1530,358.7)" text-rendering="optimizeSpeed" fill="#000000">radiatorviewplugin (1692)</text>
  <rect fill="blue" height="17.2" stroke="black" width="12" x="1545" y="336.4"/>
  <text x="1545" y="358.7" font-family="Tahoma" font-size="12" transform="rotate(90 1545,358.7)" text-rendering="optimizeSpeed" fill="#000000">ci-game (1725)</text>
  <rect fill="blue" height="17.5" stroke="black" width="12" x="1560" y="336.2"/>
  <text x="1560" y="358.7" font-family="Tahoma" font-size="12" transform="rotate(90 1560,358.7)" text-rendering="optimizeSpeed" fill="#000000">jdepend (1746)</text>
  <rect fill="blue" height="17.7" stroke="black" width="12" x="1575" y="336.0"/>
  <text x="1575" y="358.7" font-family="Tahoma" font-size="12" transform="rotate(90 1575,358.7)" text-rendering="optimizeSpeed" fill="#000000">performance (1767)</text>
  <rect fill="blue" height="18.3" stroke="black" width="12" x="1590" y="335.4"/>
  <text x="1590" y="358.7" font-family="Tahoma" font-size="12" transform="rotate(90 1590,358.7)" text-rendering="optimizeSpeed" fill="#000000">setenv (1829)</text>
  <rect fill="blue" height="18.4" stroke="black" width="12" x="1605" y="335.3"/>
  <text x="1605" y="358.7" font-family="Tahoma" font-size="12" transform="rotate(90 1605,358.7)" text-rendering="optimizeSpeed" fill="#000000">locks-and-latches (1841)</text>
  <rect fill="blue" height="18.4" stroke="black" width="12" x="1620" y="335.2"/>
  <text x="1620" y="358.7" font-family="Tahoma" font-size="12" transform="rotate(90 1620,358.7)" text-rendering="optimizeSpeed" fill="#000000">m2-extra-steps (1844)</text>
  <rect fill="blue" height="19.1" stroke="black" width="12" x="1635" y="334.6"/>
  <text x="1635" y="358.7" font-family="Tahoma" font-size="12" transform="rotate(90 1635,358.7)" text-rendering="optimizeSpeed" fill="#000000">publish-over-ssh (1907)</text>
  <rect fill="blue" height="19.4" stroke="black" width="12" x="1650" y="334.3"/>
  <text x="1650" y="358.7" font-family="Tahoma" font-size="12" transform="rotate(90 1650,358.7)" text-rendering="optimizeSpeed" fill="#000000">ssh (1941)</text>
  <rect fill="blue" height="19.6" stroke="black" width="12" x="1665" y="334.0"/>
  <text x="1665" y="358.7" font-family="Tahoma" font-size="12" transform="rotate(90 1665,358.7)" text-rendering="optimizeSpeed" fill="#000000">promoted-builds (1965)</text>
  <rect fill="blue" height="19.8" stroke="black" width="12" x="1680" y="333.9"/>
  <text x="1680" y="358.7" font-family="Tahoma" font-size="12" transform="rotate(90 1680,358.7)" text-rendering="optimizeSpeed" fill="#000000">log-parser (1978)</text>
  <rect fill="blue" height="20.1" stroke="black" width="12" x="1695" y="333.6"/>
  <text x="1695" y="358.7" font-family="Tahoma" font-size="12" transform="rotate(90 1695,358.7)" text-rendering="optimizeSpeed" fill="#000000">batch-task (2011)</text>
  <rect fill="blue" height="21.4" stroke="black" width="12" x="1710" y="332.2"/>
  <text x="1710" y="358.7" font-family="Tahoma" font-size="12" transform="rotate(90 1710,358.7)" text-rendering="optimizeSpeed" fill="#000000">emma (2145)</text>
  <rect fill="blue" height="22.3" stroke="black" width="12" x="1725" y="331.4"/>
  <text x="1725" y="358.7" font-family="Tahoma" font-size="12" transform="rotate(90 1725,358.7)" text-rendering="optimizeSpeed" fill="#000000">svn-tag (2229)</text>
  <rect fill="blue" height="22.9" stroke="black" width="12" x="1740" y="330.8"/>
  <text x="1740" y="358.7" font-family="Tahoma" font-size="12" transform="rotate(90 1740,358.7)" text-rendering="optimizeSpeed" fill="#000000">mercurial (2291)</text>
  <rect fill="blue" height="23.4" stroke="black" width="12" x="1755" y="330.3"/>
  <text x="1755" y="358.7" font-family="Tahoma" font-size="12" transform="rotate(90 1755,358.7)" text-rendering="optimizeSpeed" fill="#000000">m2release (2341)</text>
  <rect fill="blue" height="23.9" stroke="black" width="12" x="1770" y="329.8"/>
  <text x="1770" y="358.7" font-family="Tahoma" font-size="12" transform="rotate(90 1770,358.7)" text-rendering="optimizeSpeed" fill="#000000">scp (2391)</text>
  <rect fill="blue" height="24.1" stroke="black" width="12" x="1785" y="329.5"/>
  <text x="1785" y="358.7" font-family="Tahoma" font-size="12" transform="rotate(90 1785,358.7)" text-rendering="optimizeSpeed" fill="#000000">plot (2415)</text>
  <rect fill="blue" height="25.9" stroke="black" width="12" x="1800" y="327.7"/>
  <text x="1800" y="358.7" font-family="Tahoma" font-size="12" transform="rotate(90 1800,358.7)" text-rendering="optimizeSpeed" fill="#000000">github (2594)</text>
  <rect fill="blue" height="27.0" stroke="black" width="12" x="1815" y="326.6"/>
  <text x="1815" y="358.7" font-family="Tahoma" font-size="12" transform="rotate(90 1815,358.7)" text-rendering="optimizeSpeed" fill="#000000">postbuild-task (2703)</text>
  <rect fill="blue" height="27.1" stroke="black" width="12" x="1830" y="326.6"/>
  <text x="1830" y="358.7" font-family="Tahoma" font-size="12" transform="rotate(90 1830,358.7)" text-rendering="optimizeSpeed" fill="#000000">backup (2709)</text>
  <rect fill="blue" height="27.5" stroke="black" width="12" x="1845" y="326.1"/>
  <text x="1845" y="358.7" font-family="Tahoma" font-size="12" transform="rotate(90 1845,358.7)" text-rendering="optimizeSpeed" fill="#000000">tasks (2754)</text>
  <rect fill="blue" height="27.6" stroke="black" width="12" x="1860" y="326.1"/>
  <text x="1860" y="358.7" font-family="Tahoma" font-size="12" transform="rotate(90 1860,358.7)" text-rendering="optimizeSpeed" fill="#000000">instant-messaging (2757)</text>
  <rect fill="blue" height="27.9" stroke="black" width="12" x="1875" y="325.7"/>
  <text x="1875" y="358.7" font-family="Tahoma" font-size="12" transform="rotate(90 1875,358.7)" text-rendering="optimizeSpeed" fill="#000000">copyartifact (2795)</text>
  <rect fill="blue" height="28.2" stroke="black" width="12" x="1890" y="325.5"/>
  <text x="1890" y="358.7" font-family="Tahoma" font-size="12" transform="rotate(90 1890,358.7)" text-rendering="optimizeSpeed" fill="#000000">msbuild (2819)</text>
  <rect fill="blue" height="29.1" stroke="black" width="12" x="1905" y="324.6"/>
  <text x="1905" y="358.7" font-family="Tahoma" font-size="12" transform="rotate(90 1905,358.7)" text-rendering="optimizeSpeed" fill="#000000">deploy (2908)</text>
  <rect fill="blue" height="29.4" stroke="black" width="12" x="1920" y="324.3"/>
  <text x="1920" y="358.7" font-family="Tahoma" font-size="12" transform="rotate(90 1920,358.7)" text-rendering="optimizeSpeed" fill="#000000">jira (2937)</text>
  <rect fill="blue" height="30.0" stroke="black" width="12" x="1935" y="323.7"/>
  <text x="1935" y="358.7" font-family="Tahoma" font-size="12" transform="rotate(90 1935,358.7)" text-rendering="optimizeSpeed" fill="#000000">build-timeout (2998)</text>
  <rect fill="blue" height="31.4" stroke="black" width="12" x="1950" y="322.3"/>
  <text x="1950" y="358.7" font-family="Tahoma" font-size="12" transform="rotate(90 1950,358.7)" text-rendering="optimizeSpeed" fill="#000000">dry (3138)</text>
  <rect fill="blue" height="31.8" stroke="black" width="12" x="1965" y="321.9"/>
  <text x="1965" y="358.7" font-family="Tahoma" font-size="12" transform="rotate(90 1965,358.7)" text-rendering="optimizeSpeed" fill="#000000">active-directory (3177)</text>
  <rect fill="blue" height="34.3" stroke="black" width="12" x="1980" y="319.4"/>
  <text x="1980" y="358.7" font-family="Tahoma" font-size="12" transform="rotate(90 1980,358.7)" text-rendering="optimizeSpeed" fill="#000000">xunit (3428)</text>
  <rect fill="blue" height="34.9" stroke="black" width="12" x="1995" y="318.7"/>
  <text x="1995" y="358.7" font-family="Tahoma" font-size="12" transform="rotate(90 1995,358.7)" text-rendering="optimizeSpeed" fill="#000000">chucknorris (3494)</text>
  <rect fill="blue" height="35.0" stroke="black" width="12" x="2010" y="318.7"/>
  <text x="2010" y="358.7" font-family="Tahoma" font-size="12" transform="rotate(90 2010,358.7)" text-rendering="optimizeSpeed" fill="#000000">scis-ad (3499)</text>
  <rect fill="blue" height="37.3" stroke="black" width="12" x="2025" y="316.4"/>
  <text x="2025" y="358.7" font-family="Tahoma" font-size="12" transform="rotate(90 2025,358.7)" text-rendering="optimizeSpeed" fill="#000000">parameterized-trigger (3728)</text>
  <rect fill="blue" height="38.5" stroke="black" width="12" x="2040" y="315.2"/>
  <text x="2040" y="358.7" font-family="Tahoma" font-size="12" transform="rotate(90 2040,358.7)" text-rendering="optimizeSpeed" fill="#000000">analysis-collector (3848)</text>
  <rect fill="blue" height="39.9" stroke="black" width="12" x="2055" y="313.7"/>
  <text x="2055" y="358.7" font-family="Tahoma" font-size="12" transform="rotate(90 2055,358.7)" text-rendering="optimizeSpeed" fill="#000000">disk-usage (3993)</text>
  <rect fill="blue" height="41.1" stroke="black" width="12" x="2070" y="312.6"/>
  <text x="2070" y="358.7" font-family="Tahoma" font-size="12" transform="rotate(90 2070,358.7)" text-rendering="optimizeSpeed" fill="#000000">htmlpublisher (4108)</text>
  <rect fill="blue" height="41.2" stroke="black" width="12" x="2085" y="312.5"/>
  <text x="2085" y="358.7" font-family="Tahoma" font-size="12" transform="rotate(90 2085,358.7)" text-rendering="optimizeSpeed" fill="#000000">warnings (4118)</text>
  <rect fill="blue" height="41.5" stroke="black" width="12" x="2100" y="312.2"/>
  <text x="2100" y="358.7" font-family="Tahoma" font-size="12" transform="rotate(90 2100,358.7)" text-rendering="optimizeSpeed" fill="#000000">dashboard-view (4148)</text>
  <rect fill="blue" height="42.5" stroke="black" width="12" x="2115" y="311.2"/>
  <text x="2115" y="358.7" font-family="Tahoma" font-size="12" transform="rotate(90 2115,358.7)" text-rendering="optimizeSpeed" fill="#000000">violations (4245)</text>
  <rect fill="blue" height="45.6" stroke="black" width="12" x="2130" y="308.0"/>
  <text x="2130" y="358.7" font-family="Tahoma" font-size="12" transform="rotate(90 2130,358.7)" text-rendering="optimizeSpeed" fill="#000000">sonar (4564)</text>
  <rect fill="blue" height="47.9" stroke="black" width="12" x="2145" y="305.8"/>
  <text x="2145" y="358.7" font-family="Tahoma" font-size="12" transform="rotate(90 2145,358.7)" text-rendering="optimizeSpeed" fill="#000000">pmd (4789)</text>
  <rect fill="blue" height="48.4" stroke="black" width="12" x="2160" y="305.3"/>
  <text x="2160" y="358.7" font-family="Tahoma" font-size="12" transform="rotate(90 2160,358.7)" text-rendering="optimizeSpeed" fill="#000000">findbugs (4840)</text>
  <rect fill="blue" height="52.8" stroke="black" width="12" x="2175" y="300.8"/>
  <text x="2175" y="358.7" font-family="Tahoma" font-size="12" transform="rotate(90 2175,358.7)" text-rendering="optimizeSpeed" fill="#000000">cobertura (5283)</text>
  <rect fill="blue" height="54.6" stroke="black" width="12" x="2190" y="299.1"/>
  <text x="2190" y="358.7" font-family="Tahoma" font-size="12" transform="rotate(90 2190,358.7)" text-rendering="optimizeSpeed" fill="#000000">checkstyle (5460)</text>
  <rect fill="blue" height="69.9" stroke="black" width="12" x="2205" y="283.8"/>
  <text x="2205" y="358.7" font-family="Tahoma" font-size="12" transform="rotate(90 2205,358.7)" text-rendering="optimizeSpeed" fill="#000000">greenballs (6989)</text>
  <rect fill="blue" height="73.1" stroke="black" width="12" x="2220" y="280.6"/>
  <text x="2220" y="358.7" font-family="Tahoma" font-size="12" transform="rotate(90 2220,358.7)" text-rendering="optimizeSpeed" fill="#000000">email-ext (7309)</text>
  <rect fill="blue" height="88.4" stroke="black" width="12" x="2235" y="265.3"/>
  <text x="2235" y="358.7" font-family="Tahoma" font-size="12" transform="rotate(90 2235,358.7)" text-rendering="optimizeSpeed" fill="#000000">git (8838)</text>
  <rect fill="blue" height="104.0" stroke="black" width="12" x="2250" y="249.7"/>
  <text x="2250" y="358.7" font-family="Tahoma" font-size="12" transform="rotate(90 2250,358.7)" text-rendering="optimizeSpeed" fill="#000000">analysis-core (10397)</text>
  <rect fill="blue" height="185.0" stroke="black" width="12" x="2265" y="168.7"/>
  <text x="2265" y="358.7" font-family="Tahoma" font-size="12" transform="rotate(90 2265,358.7)" text-rendering="optimizeSpeed" fill="#000000">translation (18501)</text>
  <rect fill="blue" height="284.0" stroke="black" width="12" x="2280" y="69.7"/>
  <text x="2280" y="358.7" font-family="Tahoma" font-size="12" transform="rotate(90 2280,358.7)" text-rendering="optimizeSpeed" fill="#000000">cvs (28402)</text>
  <rect fill="blue" height="296.2" stroke="black" width="12" x="2295" y="57.4"/>
  <text x="2295" y="358.7" font-family="Tahoma" font-size="12" transform="rotate(90 2295,358.7)" text-rendering="optimizeSpeed" fill="#000000">maven-plugin (29624)</text>
  <rect fill="blue" height="300.2" stroke="black" width="12" x="2310" y="53.5"/>
  <text x="2310" y="358.7" font-family="Tahoma" font-size="12" transform="rotate(90 2310,358.7)" text-rendering="optimizeSpeed" fill="#000000">subversion (30017)</text>
  <rect fill="blue" height="303.7" stroke="black" width="12" x="2325" y="50.0"/>
  <text x="2325" y="358.7" font-family="Tahoma" font-size="12" transform="rotate(90 2325,358.7)" text-rendering="optimizeSpeed" fill="#000000">ssh-slaves (30367)</text>
  <text x="10" y="40" font-family="Tahoma" font-size="20" text-rendering="optimizeSpeed" fill="#000000">Plugin installations (installations &gt; 500)</text>
</svg>
