<svg xmlns="http://www.w3.org/2000/svg" version="1.1" preserveAspectRatio="xMidYMid meet" viewBox="0 0 725 737.5">
  <rect fill="blue" height="25.1" stroke="black" width="12" x="15" y="412.5"/>
  <text x="15" y="442.5" font-family="Tahoma" font-size="12" transform="rotate(90 15,442.5)" text-rendering="optimizeSpeed" fill="#000000">emma (2506)</text>
  <rect fill="blue" height="25.6" stroke="black" width="12" x="30" y="411.9"/>
  <text x="30" y="442.5" font-family="Tahoma" font-size="12" transform="rotate(90 30,442.5)" text-rendering="optimizeSpeed" fill="#000000">svn-tag (2561)</text>
  <rect fill="blue" height="26.6" stroke="black" width="12" x="45" y="410.9"/>
  <text x="45" y="442.5" font-family="Tahoma" font-size="12" transform="rotate(90 45,442.5)" text-rendering="optimizeSpeed" fill="#000000">scp (2662)</text>
  <rect fill="blue" height="27.0" stroke="black" width="12" x="60" y="410.5"/>
  <text x="60" y="442.5" font-family="Tahoma" font-size="12" transform="rotate(90 60,442.5)" text-rendering="optimizeSpeed" fill="#000000">publish-over-ssh (2700)</text>
  <rect fill="blue" height="27.4" stroke="black" width="12" x="75" y="410.2"/>
  <text x="75" y="442.5" font-family="Tahoma" font-size="12" transform="rotate(90 75,442.5)" text-rendering="optimizeSpeed" fill="#000000">mercurial (2739)</text>
  <rect fill="blue" height="27.8" stroke="black" width="12" x="90" y="409.8"/>
  <text x="90" y="442.5" font-family="Tahoma" font-size="12" transform="rotate(90 90,442.5)" text-rendering="optimizeSpeed" fill="#000000">m2release (2776)</text>
  <rect fill="blue" height="28.9" stroke="black" width="12" x="105" y="408.7"/>
  <text x="105" y="442.5" font-family="Tahoma" font-size="12" transform="rotate(90 105,442.5)" text-rendering="optimizeSpeed" fill="#000000">token-macro (2885)</text>
  <rect fill="blue" height="30.4" stroke="black" width="12" x="120" y="407.1"/>
  <text x="120" y="442.5" font-family="Tahoma" font-size="12" transform="rotate(90 120,442.5)" text-rendering="optimizeSpeed" fill="#000000">plot (3043)</text>
  <rect fill="blue" height="31.3" stroke="black" width="12" x="135" y="406.2"/>
  <text x="135" y="442.5" font-family="Tahoma" font-size="12" transform="rotate(90 135,442.5)" text-rendering="optimizeSpeed" fill="#000000">backup (3131)</text>
  <rect fill="blue" height="31.4" stroke="black" width="12" x="150" y="406.2"/>
  <text x="150" y="442.5" font-family="Tahoma" font-size="12" transform="rotate(90 150,442.5)" text-rendering="optimizeSpeed" fill="#000000">tasks (3135)</text>
  <rect fill="blue" height="32.1" stroke="black" width="12" x="165" y="405.4"/>
  <text x="165" y="442.5" font-family="Tahoma" font-size="12" transform="rotate(90 165,442.5)" text-rendering="optimizeSpeed" fill="#000000">postbuild-task (3213)</text>
  <rect fill="blue" height="33.2" stroke="black" width="12" x="180" y="404.3"/>
  <text x="180" y="442.5" font-family="Tahoma" font-size="12" transform="rotate(90 180,442.5)" text-rendering="optimizeSpeed" fill="#000000">instant-messaging (3321)</text>
  <rect fill="blue" height="34.0" stroke="black" width="12" x="195" y="403.5"/>
  <text x="195" y="442.5" font-family="Tahoma" font-size="12" transform="rotate(90 195,442.5)" text-rendering="optimizeSpeed" fill="#000000">jira (3405)</text>
  <rect fill="blue" height="34.9" stroke="black" width="12" x="210" y="402.7"/>
  <text x="210" y="442.5" font-family="Tahoma" font-size="12" transform="rotate(90 210,442.5)" text-rendering="optimizeSpeed" fill="#000000">deploy (3489)</text>
  <rect fill="blue" height="35.9" stroke="black" width="12" x="225" y="401.7"/>
  <text x="225" y="442.5" font-family="Tahoma" font-size="12" transform="rotate(90 225,442.5)" text-rendering="optimizeSpeed" fill="#000000">github (3588)</text>
  <rect fill="blue" height="36.2" stroke="black" width="12" x="240" y="401.4"/>
  <text x="240" y="442.5" font-family="Tahoma" font-size="12" transform="rotate(90 240,442.5)" text-rendering="optimizeSpeed" fill="#000000">build-timeout (3616)</text>
  <rect fill="blue" height="36.7" stroke="black" width="12" x="255" y="400.9"/>
  <text x="255" y="442.5" font-family="Tahoma" font-size="12" transform="rotate(90 255,442.5)" text-rendering="optimizeSpeed" fill="#000000">msbuild (3666)</text>
  <rect fill="blue" height="36.9" stroke="black" width="12" x="270" y="400.7"/>
  <text x="270" y="442.5" font-family="Tahoma" font-size="12" transform="rotate(90 270,442.5)" text-rendering="optimizeSpeed" fill="#000000">copyartifact (3689)</text>
  <rect fill="blue" height="38.8" stroke="black" width="12" x="285" y="398.7"/>
  <text x="285" y="442.5" font-family="Tahoma" font-size="12" transform="rotate(90 285,442.5)" text-rendering="optimizeSpeed" fill="#000000">dry (3881)</text>
  <rect fill="blue" height="39.4" stroke="black" width="12" x="300" y="398.1"/>
  <text x="300" y="442.5" font-family="Tahoma" font-size="12" transform="rotate(90 300,442.5)" text-rendering="optimizeSpeed" fill="#000000">active-directory (3941)</text>
  <rect fill="blue" height="41.1" stroke="black" width="12" x="315" y="396.5"/>
  <text x="315" y="442.5" font-family="Tahoma" font-size="12" transform="rotate(90 315,442.5)" text-rendering="optimizeSpeed" fill="#000000">chucknorris (4109)</text>
  <rect fill="blue" height="41.3" stroke="black" width="12" x="330" y="396.3"/>
  <text x="330" y="442.5" font-family="Tahoma" font-size="12" transform="rotate(90 330,442.5)" text-rendering="optimizeSpeed" fill="#000000">analysis-collector (4128)</text>
  <rect fill="blue" height="44.2" stroke="black" width="12" x="345" y="393.4"/>
  <text x="345" y="442.5" font-family="Tahoma" font-size="12" transform="rotate(90 345,442.5)" text-rendering="optimizeSpeed" fill="#000000">xunit (4419)</text>
  <rect fill="blue" height="46.9" stroke="black" width="12" x="360" y="390.6"/>
  <text x="360" y="442.5" font-family="Tahoma" font-size="12" transform="rotate(90 360,442.5)" text-rendering="optimizeSpeed" fill="#000000">disk-usage (4691)</text>
  <rect fill="blue" height="48.4" stroke="black" width="12" x="375" y="389.1"/>
  <text x="375" y="442.5" font-family="Tahoma" font-size="12" transform="rotate(90 375,442.5)" text-rendering="optimizeSpeed" fill="#000000">warnings (4844)</text>
  <rect fill="blue" height="48.6" stroke="black" width="12" x="390" y="389.0"/>
  <text x="390" y="442.5" font-family="Tahoma" font-size="12" transform="rotate(90 390,442.5)" text-rendering="optimizeSpeed" fill="#000000">parameterized-trigger (4858)</text>
  <rect fill="blue" height="50.0" stroke="black" width="12" x="405" y="387.6"/>
  <text x="405" y="442.5" font-family="Tahoma" font-size="12" transform="rotate(90 405,442.5)" text-rendering="optimizeSpeed" fill="#000000">dashboard-view (4998)</text>
  <rect fill="blue" height="52.8" stroke="black" width="12" x="420" y="384.8"/>
  <text x="420" y="442.5" font-family="Tahoma" font-size="12" transform="rotate(90 420,442.5)" text-rendering="optimizeSpeed" fill="#000000">violations (5280)</text>
  <rect fill="blue" height="53.2" stroke="black" width="12" x="435" y="384.3"/>
  <text x="435" y="442.5" font-family="Tahoma" font-size="12" transform="rotate(90 435,442.5)" text-rendering="optimizeSpeed" fill="#000000">htmlpublisher (5324)</text>
  <rect fill="blue" height="57.0" stroke="black" width="12" x="450" y="380.6"/>
  <text x="450" y="442.5" font-family="Tahoma" font-size="12" transform="rotate(90 450,442.5)" text-rendering="optimizeSpeed" fill="#000000">sonar (5697)</text>
  <rect fill="blue" height="57.2" stroke="black" width="12" x="465" y="380.4"/>
  <text x="465" y="442.5" font-family="Tahoma" font-size="12" transform="rotate(90 465,442.5)" text-rendering="optimizeSpeed" fill="#000000">findbugs (5718)</text>
  <rect fill="blue" height="58.5" stroke="black" width="12" x="480" y="379.0"/>
  <text x="480" y="442.5" font-family="Tahoma" font-size="12" transform="rotate(90 480,442.5)" text-rendering="optimizeSpeed" fill="#000000">pmd (5855)</text>
  <rect fill="blue" height="63.3" stroke="black" width="12" x="495" y="374.2"/>
  <text x="495" y="442.5" font-family="Tahoma" font-size="12" transform="rotate(90 495,442.5)" text-rendering="optimizeSpeed" fill="#000000">cobertura (6334)</text>
  <rect fill="blue" height="66.8" stroke="black" width="12" x="510" y="370.7"/>
  <text x="510" y="442.5" font-family="Tahoma" font-size="12" transform="rotate(90 510,442.5)" text-rendering="optimizeSpeed" fill="#000000">checkstyle (6681)</text>
  <rect fill="blue" height="85.2" stroke="black" width="12" x="525" y="352.4"/>
  <text x="525" y="442.5" font-family="Tahoma" font-size="12" transform="rotate(90 525,442.5)" text-rendering="optimizeSpeed" fill="#000000">greenballs (8518)</text>
  <rect fill="blue" height="91.1" stroke="black" width="12" x="540" y="346.5"/>
  <text x="540" y="442.5" font-family="Tahoma" font-size="12" transform="rotate(90 540,442.5)" text-rendering="optimizeSpeed" fill="#000000">email-ext (9108)</text>
  <rect fill="blue" height="122.3" stroke="black" width="12" x="555" y="315.2"/>
  <text x="555" y="442.5" font-family="Tahoma" font-size="12" transform="rotate(90 555,442.5)" text-rendering="optimizeSpeed" fill="#000000">git (12230)</text>
  <rect fill="blue" height="126.8" stroke="black" width="12" x="570" y="310.7"/>
  <text x="570" y="442.5" font-family="Tahoma" font-size="12" transform="rotate(90 570,442.5)" text-rendering="optimizeSpeed" fill="#000000">analysis-core (12682)</text>
  <rect fill="blue" height="284.9" stroke="black" width="12" x="585" y="152.7"/>
  <text x="585" y="442.5" font-family="Tahoma" font-size="12" transform="rotate(90 585,442.5)" text-rendering="optimizeSpeed" fill="#000000">ant (28487)</text>
  <rect fill="blue" height="285.4" stroke="black" width="12" x="600" y="152.2"/>
  <text x="600" y="442.5" font-family="Tahoma" font-size="12" transform="rotate(90 600,442.5)" text-rendering="optimizeSpeed" fill="#000000">javadoc (28537)</text>
  <rect fill="blue" height="286.5" stroke="black" width="12" x="615" y="151.0"/>
  <text x="615" y="442.5" font-family="Tahoma" font-size="12" transform="rotate(90 615,442.5)" text-rendering="optimizeSpeed" fill="#000000">translation (28651)</text>
  <rect fill="blue" height="367.1" stroke="black" width="12" x="630" y="70.4"/>
  <text x="630" y="442.5" font-family="Tahoma" font-size="12" transform="rotate(90 630,442.5)" text-rendering="optimizeSpeed" fill="#000000">cvs (36714)</text>
  <rect fill="blue" height="380.6" stroke="black" width="12" x="645" y="56.9"/>
  <text x="645" y="442.5" font-family="Tahoma" font-size="12" transform="rotate(90 645,442.5)" text-rendering="optimizeSpeed" fill="#000000">maven-plugin (38063)</text>
  <rect fill="blue" height="382.4" stroke="black" width="12" x="660" y="55.2"/>
  <text x="660" y="442.5" font-family="Tahoma" font-size="12" transform="rotate(90 660,442.5)" text-rendering="optimizeSpeed" fill="#000000">subversion (38236)</text>
  <rect fill="blue" height="387.6" stroke="black" width="12" x="675" y="50.0"/>
  <text x="675" y="442.5" font-family="Tahoma" font-size="12" transform="rotate(90 675,442.5)" text-rendering="optimizeSpeed" fill="#000000">ssh-slaves (38755)</text>
  <text x="10" y="40" font-family="Tahoma" font-size="20" text-rendering="optimizeSpeed" fill="#000000">Plugin installations (installations &gt; 2500)</text>
</svg>
