<svg xmlns="http://www.w3.org/2000/svg" version="1.1" preserveAspectRatio="xMidYMid meet" viewBox="0 0 720 1580">
  <text x="30" y="40" font-family="sans-serif" font-size="16">Nodes, total: 87578</text>
  <path d="M 200,300 L 0.0,150.0 A 150,150 0 0 1 4.7,150.0 Z" fill="BurlyWood" stroke="black" stroke-width="1"/>
  <rect x="370" y="50" width="20" height="30" fill="BurlyWood" stroke="black" stroke-width="1"/>
  <text x="400" y="38" font-family="sans-serif" font-size="16">AIX (ppc) (189)</text>
  <path d="M 200,300 L 4.7,150.0 A 150,150 0 0 1 8.8,150.0 Z" fill="CadetBlue" stroke="black" stroke-width="1"/>
  <rect x="370" y="51" width="20" height="30" fill="CadetBlue" stroke="black" stroke-width="1"/>
  <text x="400" y="68" font-family="sans-serif" font-size="16">AIX (ppc64) (160)</text>
  <path d="M 200,300 L 8.8,150.0 A 150,150 0 0 1 8.8,150.0 Z" fill="red" stroke="black" stroke-width="1"/>
  <rect x="370" y="52" width="20" height="30" fill="red" stroke="black" stroke-width="1"/>
  <text x="400" y="98" font-family="sans-serif" font-size="16">Darwin (i386) (1)</text>
  <path d="M 200,300 L 8.8,150.0 A 150,150 0 0 1 12.1,149.9 Z" fill="blue" stroke="black" stroke-width="1"/>
  <rect x="370" y="53" width="20" height="30" fill="blue" stroke="black" stroke-width="1"/>
  <text x="400" y="128" font-family="sans-serif" font-size="16">FreeBSD (amd64) (130)</text>
  <path d="M 200,300 L 12.1,149.9 A 150,150 0 0 1 15.1,149.9 Z" fill="yellow" stroke="black" stroke-width="1"/>
  <rect x="370" y="54" width="20" height="30" fill="yellow" stroke="black" stroke-width="1"/>
  <text x="400" y="158" font-family="sans-serif" font-size="16">FreeBSD (i386) (122)</text>
  <path d="M 200,300 L 15.1,149.9 A 150,150 0 0 1 17.6,149.8 Z" fill="green" stroke="black" stroke-width="1"/>
  <rect x="370" y="55" width="20" height="30" fill="green" stroke="black" stroke-width="1"/>
  <text x="400" y="188" font-family="sans-serif" font-size="16">HP-UX (IA64N) (101)</text>
  <path d="M 200,300 L 17.6,149.8 A 150,150 0 0 1 18.2,149.8 Z" fill="gold" stroke="black" stroke-width="1"/>
  <rect x="370" y="56" width="20" height="30" fill="gold" stroke="black" stroke-width="1"/>
  <text x="400" y="218" font-family="sans-serif" font-size="16">HP-UX (IA64W) (21)</text>
  <path d="M 200,300 L 18.2,149.8 A 150,150 0 0 1 19.7,149.8 Z" fill="brown" stroke="black" stroke-width="1"/>
  <rect x="370" y="57" width="20" height="30" fill="brown" stroke="black" stroke-width="1"/>
  <text x="400" y="248" font-family="sans-serif" font-size="16">HP-UX (PA_RISC2.0) (62)</text>
  <path d="M 200,300 L 19.7,149.8 A 150,150 0 0 1 19.8,149.8 Z" fill="Azure" stroke="black" stroke-width="1"/>
  <rect x="370" y="58" width="20" height="30" fill="Azure" stroke="black" stroke-width="1"/>
  <text x="400" y="278" font-family="sans-serif" font-size="16">HP-UX (PA_RISC2.0W) (1)</text>
  <path d="M 200,300 L 19.8,149.8 A 150,150 0 0 1 344.9,-25.5 Z" fill="pink" stroke="black" stroke-width="1"/>
  <rect x="370" y="59" width="20" height="30" fill="pink" stroke="black" stroke-width="1"/>
  <text x="400" y="308" font-family="sans-serif" font-size="16">Linux (amd64) (23493)</text>
  <path d="M 200,300 L 344.9,-25.5 A 150,150 0 0 1 344.8,-25.8 Z" fill="khaki" stroke="black" stroke-width="1"/>
  <rect x="370" y="60" width="20" height="30" fill="khaki" stroke="black" stroke-width="1"/>
  <text x="400" y="338" font-family="sans-serif" font-size="16">Linux (arm) (20)</text>
  <path d="M 200,300 L 344.8,-25.8 A 150,150 0 0 1 191.4,-125.6 Z" fill="gray" stroke="black" stroke-width="1"/>
  <rect x="370" y="61" width="20" height="30" fill="gray" stroke="black" stroke-width="1"/>
  <text x="400" y="368" font-family="sans-serif" font-size="16">Linux (i386) (11425)</text>
  <path d="M 200,300 L 191.4,-125.6 A 150,150 0 0 1 190.8,-125.8 Z" fill="Aqua" stroke="black" stroke-width="1"/>
  <rect x="370" y="62" width="20" height="30" fill="Aqua" stroke="black" stroke-width="1"/>
  <text x="400" y="398" font-family="sans-serif" font-size="16">Linux (ia64) (29)</text>
  <path d="M 200,300 L 190.8,-125.8 A 150,150 0 0 1 190.8,-125.8 Z" fill="Aquamarine" stroke="black" stroke-width="1"/>
  <rect x="370" y="63" width="20" height="30" fill="Aquamarine" stroke="black" stroke-width="1"/>
  <text x="400" y="428" font-family="sans-serif" font-size="16">Linux (mipsel) (1)</text>
  <path d="M 200,300 L 190.8,-125.8 A 150,150 0 0 1 190.1,-125.9 Z" fill="beige" stroke="black" stroke-width="1"/>
  <rect x="370" y="64" width="20" height="30" fill="beige" stroke="black" stroke-width="1"/>
  <text x="400" y="458" font-family="sans-serif" font-size="16">Linux (ppc) (29)</text>
  <path d="M 200,300 L 190.1,-125.9 A 150,150 0 0 1 189.7,-126.1 Z" fill="blueviolet" stroke="black" stroke-width="1"/>
  <rect x="370" y="65" width="20" height="30" fill="blueviolet" stroke="black" stroke-width="1"/>
  <text x="400" y="488" font-family="sans-serif" font-size="16">Linux (ppc64) (22)</text>
  <path d="M 200,300 L 189.7,-126.1 A 150,150 0 0 1 189.7,-126.1 Z" fill="Bisque" stroke="black" stroke-width="1"/>
  <rect x="370" y="66" width="20" height="30" fill="Bisque" stroke="black" stroke-width="1"/>
  <text x="400" y="518" font-family="sans-serif" font-size="16">Linux (s390) (1)</text>
  <path d="M 200,300 L 189.7,-126.1 A 150,150 0 0 1 189.4,-126.1 Z" fill="coral" stroke="black" stroke-width="1"/>
  <rect x="370" y="67" width="20" height="30" fill="coral" stroke="black" stroke-width="1"/>
  <text x="400" y="548" font-family="sans-serif" font-size="16">Linux (s390x) (11)</text>
  <path d="M 200,300 L 189.4,-126.1 A 150,150 0 0 1 186.7,-126.9 Z" fill="darkblue" stroke="black" stroke-width="1"/>
  <rect x="370" y="68" width="20" height="30" fill="darkblue" stroke="black" stroke-width="1"/>
  <text x="400" y="578" font-family="sans-serif" font-size="16">Linux (x86) (127)</text>
  <path d="M 200,300 L 186.7,-126.9 A 150,150 0 0 1 186.7,-126.9 Z" fill="crimson" stroke="black" stroke-width="1"/>
  <rect x="370" y="69" width="20" height="30" fill="crimson" stroke="black" stroke-width="1"/>
  <text x="400" y="608" font-family="sans-serif" font-size="16">Mac OS X (amd64) (2)</text>
  <path d="M 200,300 L 186.7,-126.9 A 150,150 0 0 1 183.4,-127.8 Z" fill="cyan" stroke="black" stroke-width="1"/>
  <rect x="370" y="70" width="20" height="30" fill="cyan" stroke="black" stroke-width="1"/>
  <text x="400" y="638" font-family="sans-serif" font-size="16">Mac OS X (i386) (153)</text>
  <path d="M 200,300 L 183.4,-127.8 A 150,150 0 0 1 183.1,-127.8 Z" fill="darkred" stroke="black" stroke-width="1"/>
  <rect x="370" y="71" width="20" height="30" fill="darkred" stroke="black" stroke-width="1"/>
  <text x="400" y="668" font-family="sans-serif" font-size="16">Mac OS X (ppc) (15)</text>
  <path d="M 200,300 L 183.1,-127.8 A 150,150 0 0 1 183.1,-127.8 Z" fill="ivory" stroke="black" stroke-width="1"/>
  <rect x="370" y="72" width="20" height="30" fill="ivory" stroke="black" stroke-width="1"/>
  <text x="400" y="698" font-family="sans-serif" font-size="16">Mac OS X (universal) (1)</text>
  <path d="M 200,300 L 183.1,-127.8 A 150,150 0 0 1 124.9,-140.1 Z" fill="lime" stroke="black" stroke-width="1"/>
  <rect x="370" y="73" width="20" height="30" fill="lime" stroke="black" stroke-width="1"/>
  <text x="400" y="728" font-family="sans-serif" font-size="16">Mac OS X (x86_64) (2587)</text>
  <path d="M 200,300 L 124.9,-140.1 A 150,150 0 0 1 -349.3,-9.6 Z" fill="maroon" stroke="black" stroke-width="1"/>
  <rect x="370" y="74" width="20" height="30" fill="maroon" stroke="black" stroke-width="1"/>
  <text x="400" y="758" font-family="sans-serif" font-size="16">N/A (26089)</text>
  <path d="M 200,300 L -349.3,-9.6 A 150,150 0 0 1 -349.3,-9.5 Z" fill="navy" stroke="black" stroke-width="1"/>
  <rect x="370" y="75" width="20" height="30" fill="navy" stroke="black" stroke-width="1"/>
  <text x="400" y="788" font-family="sans-serif" font-size="16">NetBSD (i386) (5)</text>
  <path d="M 200,300 L -349.3,-9.5 A 150,150 0 0 1 -349.3,-9.5 Z" fill="olive" stroke="black" stroke-width="1"/>
  <rect x="370" y="76" width="20" height="30" fill="olive" stroke="black" stroke-width="1"/>
  <text x="400" y="818" font-family="sans-serif" font-size="16">OpenBSD (amd64) (2)</text>
  <path d="M 200,300 L -349.3,-9.5 A 150,150 0 0 1 -349.3,-9.5 Z" fill="plum" stroke="black" stroke-width="1"/>
  <rect x="370" y="77" width="20" height="30" fill="plum" stroke="black" stroke-width="1"/>
  <text x="400" y="848" font-family="sans-serif" font-size="16">OpenBSD (i386) (2)</text>
  <path d="M 200,300 L -349.3,-9.5 A 150,150 0 0 1 -349.3,-9.5 Z" fill="peru" stroke="black" stroke-width="1"/>
  <rect x="370" y="78" width="20" height="30" fill="peru" stroke="black" stroke-width="1"/>
  <text x="400" y="878" font-family="sans-serif" font-size="16">QNX (i386) (1)</text>
  <path d="M 200,300 L -349.3,-9.5 A 150,150 0 0 1 -349.3,-9.2 Z" fill="silver" stroke="black" stroke-width="1"/>
  <rect x="370" y="79" width="20" height="30" fill="silver" stroke="black" stroke-width="1"/>
  <text x="400" y="908" font-family="sans-serif" font-size="16">SunOS (amd64) (24)</text>
  <path d="M 200,300 L -349.3,-9.2 A 150,150 0 0 1 -350.0,0.3 Z" fill="tan" stroke="black" stroke-width="1"/>
  <rect x="370" y="80" width="20" height="30" fill="tan" stroke="black" stroke-width="1"/>
  <text x="400" y="938" font-family="sans-serif" font-size="16">SunOS (sparc) (885)</text>
  <path d="M 200,300 L -350.0,0.3 A 150,150 0 0 1 -350.0,0.9 Z" fill="teal" stroke="black" stroke-width="1"/>
  <rect x="370" y="81" width="20" height="30" fill="teal" stroke="black" stroke-width="1"/>
  <text x="400" y="968" font-family="sans-serif" font-size="16">SunOS (sparcv9) (54)</text>
  <path d="M 200,300 L -350.0,0.9 A 150,150 0 0 1 -349.5,7.7 Z" fill="violet" stroke="black" stroke-width="1"/>
  <rect x="370" y="82" width="20" height="30" fill="violet" stroke="black" stroke-width="1"/>
  <text x="400" y="998" font-family="sans-serif" font-size="16">SunOS (x86) (636)</text>
  <path d="M 200,300 L -349.5,7.7 A 150,150 0 0 1 -349.5,7.7 Z" fill="AliceBlue" stroke="black" stroke-width="1"/>
  <rect x="370" y="83" width="20" height="30" fill="AliceBlue" stroke="black" stroke-width="1"/>
  <text x="400" y="1028" font-family="sans-serif" font-size="16">UnixWare (IA32) (1)</text>
  <path d="M 200,300 L -349.5,7.7 A 150,150 0 0 1 -349.5,8.4 Z" fill="DarkOliveGreen" stroke="black" stroke-width="1"/>
  <rect x="370" y="84" width="20" height="30" fill="DarkOliveGreen" stroke="black" stroke-width="1"/>
  <text x="400" y="1058" font-family="sans-serif" font-size="16">Windows 2000 (x86) (59)</text>
  <path d="M 200,300 L -349.5,8.4 A 150,150 0 0 1 -348.6,13.5 Z" fill="Indigo" stroke="black" stroke-width="1"/>
  <rect x="370" y="85" width="20" height="30" fill="Indigo" stroke="black" stroke-width="1"/>
  <text x="400" y="1088" font-family="sans-serif" font-size="16">Windows 2003 (amd64) (474)</text>
  <path d="M 200,300 L -348.6,13.5 A 150,150 0 0 1 -320.9,59.9 Z" fill="MediumPurple" stroke="black" stroke-width="1"/>
  <rect x="370" y="86" width="20" height="30" fill="MediumPurple" stroke="black" stroke-width="1"/>
  <text x="400" y="1118" font-family="sans-serif" font-size="16">Windows 2003 (x86) (4477)</text>
  <path d="M 200,300 L -320.9,59.9 A 150,150 0 0 1 -304.1,74.3 Z" fill="Purple" stroke="black" stroke-width="1"/>
  <rect x="370" y="87" width="20" height="30" fill="Purple" stroke="black" stroke-width="1"/>
  <text x="400" y="1148" font-family="sans-serif" font-size="16">Windows 7 (amd64) (1492)</text>
  <path d="M 200,300 L -304.1,74.3 A 150,150 0 0 1 -254.4,103.0 Z" fill="AntiqueWhite" stroke="black" stroke-width="1"/>
  <rect x="370" y="88" width="20" height="30" fill="AntiqueWhite" stroke="black" stroke-width="1"/>
  <text x="400" y="1178" font-family="sans-serif" font-size="16">Windows 7 (x86) (3333)</text>
  <path d="M 200,300 L -254.4,103.0 A 150,150 0 0 1 -253.7,103.3 Z" fill="DarkOrange" stroke="black" stroke-width="1"/>
  <rect x="370" y="89" width="20" height="30" fill="DarkOrange" stroke="black" stroke-width="1"/>
  <text x="400" y="1208" font-family="sans-serif" font-size="16">Windows NT (unknown) (amd64) (38)</text>
  <path d="M 200,300 L -253.7,103.3 A 150,150 0 0 1 -253.2,103.6 Z" fill="Ivory" stroke="black" stroke-width="1"/>
  <rect x="370" y="90" width="20" height="30" fill="Ivory" stroke="black" stroke-width="1"/>
  <text x="400" y="1238" font-family="sans-serif" font-size="16">Windows NT (unknown) (x86) (32)</text>
  <path d="M 200,300 L -253.2,103.6 A 150,150 0 0 1 -253.1,103.6 Z" fill="MediumSeaGreen" stroke="black" stroke-width="1"/>
  <rect x="370" y="91" width="20" height="30" fill="MediumSeaGreen" stroke="black" stroke-width="1"/>
  <text x="400" y="1268" font-family="sans-serif" font-size="16">Windows Server 2003 (amd64) (2)</text>
  <path d="M 200,300 L -253.1,103.6 A 150,150 0 0 1 -252.5,103.9 Z" fill="Red" stroke="black" stroke-width="1"/>
  <rect x="370" y="92" width="20" height="30" fill="Red" stroke="black" stroke-width="1"/>
  <text x="400" y="1298" font-family="sans-serif" font-size="16">Windows Server 2003 (x86) (39)</text>
  <path d="M 200,300 L -252.5,103.9 A 150,150 0 0 1 -244.4,107.4 Z" fill="Aqua" stroke="black" stroke-width="1"/>
  <rect x="370" y="93" width="20" height="30" fill="Aqua" stroke="black" stroke-width="1"/>
  <text x="400" y="1328" font-family="sans-serif" font-size="16">Windows Server 2008 (amd64) (457)</text>
  <path d="M 200,300 L -244.4,107.4 A 150,150 0 0 1 -226.4,114.4 Z" fill="DarkOrchid" stroke="black" stroke-width="1"/>
  <rect x="370" y="94" width="20" height="30" fill="DarkOrchid" stroke="black" stroke-width="1"/>
  <text x="400" y="1358" font-family="sans-serif" font-size="16">Windows Server 2008 (x86) (969)</text>
  <path d="M 200,300 L -226.4,114.4 A 150,150 0 0 1 -188.5,126.4 Z" fill="Khaki" stroke="black" stroke-width="1"/>
  <rect x="370" y="95" width="20" height="30" fill="Khaki" stroke="black" stroke-width="1"/>
  <text x="400" y="1388" font-family="sans-serif" font-size="16">Windows Server 2008 R2 (amd64) (1875)</text>
  <path d="M 200,300 L -188.5,126.4 A 150,150 0 0 1 -139.7,137.5 Z" fill="MediumSlateBlue" stroke="black" stroke-width="1"/>
  <rect x="370" y="96" width="20" height="30" fill="MediumSlateBlue" stroke="black" stroke-width="1"/>
  <text x="400" y="1418" font-family="sans-serif" font-size="16">Windows Server 2008 R2 (x86) (2205)</text>
  <path d="M 200,300 L -139.7,137.5 A 150,150 0 0 1 -138.4,137.8 Z" fill="RosyBrown" stroke="black" stroke-width="1"/>
  <rect x="370" y="97" width="20" height="30" fill="RosyBrown" stroke="black" stroke-width="1"/>
  <text x="400" y="1448" font-family="sans-serif" font-size="16">Windows Vista (amd64) (57)</text>
  <path d="M 200,300 L -138.4,137.8 A 150,150 0 0 1 -129.3,139.4 Z" fill="AquaMarine" stroke="black" stroke-width="1"/>
  <rect x="370" y="98" width="20" height="30" fill="AquaMarine" stroke="black" stroke-width="1"/>
  <text x="400" y="1478" font-family="sans-serif" font-size="16">Windows Vista (x86) (391)</text>
  <path d="M 200,300 L -129.3,139.4 A 150,150 0 0 1 -126.4,139.9 Z" fill="DarkRed" stroke="black" stroke-width="1"/>
  <rect x="370" y="99" width="20" height="30" fill="DarkRed" stroke="black" stroke-width="1"/>
  <text x="400" y="1508" font-family="sans-serif" font-size="16">Windows XP (amd64) (126)</text>
  <path d="M 200,300 L -126.4,139.9 A 150,150 0 0 1 -0.0,150.0 Z" fill="Lavender" stroke="black" stroke-width="1"/>
  <rect x="370" y="100" width="20" height="30" fill="Lavender" stroke="black" stroke-width="1"/>
  <text x="400" y="1538" font-family="sans-serif" font-size="16">Windows XP (x86) (5150)</text>
</svg>
