<svg xmlns="http://www.w3.org/2000/svg" version="1.1" preserveAspectRatio="xMidYMid meet" viewBox="0 0 2720 1236.6">
  <rect fill="blue" height="113.0" stroke="black" width="12" x="15" y="823.6"/>
  <text x="15" y="941.6" font-family="Tahoma" font-size="12" transform="rotate(90 15,941.6)" text-rendering="optimizeSpeed" fill="#000000">0 (2825)</text>
  <rect fill="blue" height="152.6" stroke="black" width="12" x="30" y="783.9"/>
  <text x="30" y="941.6" font-family="Tahoma" font-size="12" transform="rotate(90 30,941.6)" text-rendering="optimizeSpeed" fill="#000000">1 (3816)</text>
  <rect fill="blue" height="886.6" stroke="black" width="12" x="45" y="50.0"/>
  <text x="45" y="941.6" font-family="Tahoma" font-size="12" transform="rotate(90 45,941.6)" text-rendering="optimizeSpeed" fill="#000000">2 (22164)</text>
  <rect fill="blue" height="86.3" stroke="black" width="12" x="60" y="850.2"/>
  <text x="60" y="941.6" font-family="Tahoma" font-size="12" transform="rotate(90 60,941.6)" text-rendering="optimizeSpeed" fill="#000000">3 (2158)</text>
  <rect fill="blue" height="97.8" stroke="black" width="12" x="75" y="838.7"/>
  <text x="75" y="941.6" font-family="Tahoma" font-size="12" transform="rotate(90 75,941.6)" text-rendering="optimizeSpeed" fill="#000000">4 (2446)</text>
  <rect fill="blue" height="52.8" stroke="black" width="12" x="90" y="883.7"/>
  <text x="90" y="941.6" font-family="Tahoma" font-size="12" transform="rotate(90 90,941.6)" text-rendering="optimizeSpeed" fill="#000000">5 (1321)</text>
  <rect fill="blue" height="39.1" stroke="black" width="12" x="105" y="897.4"/>
  <text x="105" y="941.6" font-family="Tahoma" font-size="12" transform="rotate(90 105,941.6)" text-rendering="optimizeSpeed" fill="#000000">6 (978)</text>
  <rect fill="blue" height="19.2" stroke="black" width="12" x="120" y="917.4"/>
  <text x="120" y="941.6" font-family="Tahoma" font-size="12" transform="rotate(90 120,941.6)" text-rendering="optimizeSpeed" fill="#000000">7 (480)</text>
  <rect fill="blue" height="28.3" stroke="black" width="12" x="135" y="908.3"/>
  <text x="135" y="941.6" font-family="Tahoma" font-size="12" transform="rotate(90 135,941.6)" text-rendering="optimizeSpeed" fill="#000000">8 (707)</text>
  <rect fill="blue" height="13.4" stroke="black" width="12" x="150" y="923.2"/>
  <text x="150" y="941.6" font-family="Tahoma" font-size="12" transform="rotate(90 150,941.6)" text-rendering="optimizeSpeed" fill="#000000">9 (334)</text>
  <rect fill="blue" height="25.9" stroke="black" width="12" x="165" y="910.6"/>
  <text x="165" y="941.6" font-family="Tahoma" font-size="12" transform="rotate(90 165,941.6)" text-rendering="optimizeSpeed" fill="#000000">10 (648)</text>
  <rect fill="blue" height="8.3" stroke="black" width="12" x="180" y="928.2"/>
  <text x="180" y="941.6" font-family="Tahoma" font-size="12" transform="rotate(90 180,941.6)" text-rendering="optimizeSpeed" fill="#000000">11 (208)</text>
  <rect fill="blue" height="10.5" stroke="black" width="12" x="195" y="926.0"/>
  <text x="195" y="941.6" font-family="Tahoma" font-size="12" transform="rotate(90 195,941.6)" text-rendering="optimizeSpeed" fill="#000000">12 (263)</text>
  <rect fill="blue" height="5.0" stroke="black" width="12" x="210" y="931.5"/>
  <text x="210" y="941.6" font-family="Tahoma" font-size="12" transform="rotate(90 210,941.6)" text-rendering="optimizeSpeed" fill="#000000">13 (126)</text>
  <rect fill="blue" height="6.6" stroke="black" width="12" x="225" y="929.9"/>
  <text x="225" y="941.6" font-family="Tahoma" font-size="12" transform="rotate(90 225,941.6)" text-rendering="optimizeSpeed" fill="#000000">14 (166)</text>
  <rect fill="blue" height="5.9" stroke="black" width="12" x="240" y="930.6"/>
  <text x="240" y="941.6" font-family="Tahoma" font-size="12" transform="rotate(90 240,941.6)" text-rendering="optimizeSpeed" fill="#000000">15 (148)</text>
  <rect fill="blue" height="5.9" stroke="black" width="12" x="255" y="930.7"/>
  <text x="255" y="941.6" font-family="Tahoma" font-size="12" transform="rotate(90 255,941.6)" text-rendering="optimizeSpeed" fill="#000000">16 (147)</text>
  <rect fill="blue" height="4.7" stroke="black" width="12" x="270" y="931.9"/>
  <text x="270" y="941.6" font-family="Tahoma" font-size="12" transform="rotate(90 270,941.6)" text-rendering="optimizeSpeed" fill="#000000">17 (117)</text>
  <rect fill="blue" height="4.0" stroke="black" width="12" x="285" y="932.6"/>
  <text x="285" y="941.6" font-family="Tahoma" font-size="12" transform="rotate(90 285,941.6)" text-rendering="optimizeSpeed" fill="#000000">18 (99)</text>
  <rect fill="blue" height="2.8" stroke="black" width="12" x="300" y="933.8"/>
  <text x="300" y="941.6" font-family="Tahoma" font-size="12" transform="rotate(90 300,941.6)" text-rendering="optimizeSpeed" fill="#000000">19 (69)</text>
  <rect fill="blue" height="6.2" stroke="black" width="12" x="315" y="930.3"/>
  <text x="315" y="941.6" font-family="Tahoma" font-size="12" transform="rotate(90 315,941.6)" text-rendering="optimizeSpeed" fill="#000000">20 (156)</text>
  <rect fill="blue" height="2.6" stroke="black" width="12" x="330" y="934.0"/>
  <text x="330" y="941.6" font-family="Tahoma" font-size="12" transform="rotate(90 330,941.6)" text-rendering="optimizeSpeed" fill="#000000">21 (64)</text>
  <rect fill="blue" height="2.7" stroke="black" width="12" x="345" y="933.9"/>
  <text x="345" y="941.6" font-family="Tahoma" font-size="12" transform="rotate(90 345,941.6)" text-rendering="optimizeSpeed" fill="#000000">22 (67)</text>
  <rect fill="blue" height="2.0" stroke="black" width="12" x="360" y="934.6"/>
  <text x="360" y="941.6" font-family="Tahoma" font-size="12" transform="rotate(90 360,941.6)" text-rendering="optimizeSpeed" fill="#000000">23 (50)</text>
  <rect fill="blue" height="2.5" stroke="black" width="12" x="375" y="934.0"/>
  <text x="375" y="941.6" font-family="Tahoma" font-size="12" transform="rotate(90 375,941.6)" text-rendering="optimizeSpeed" fill="#000000">24 (63)</text>
  <rect fill="blue" height="2.7" stroke="black" width="12" x="390" y="933.8"/>
  <text x="390" y="941.6" font-family="Tahoma" font-size="12" transform="rotate(90 390,941.6)" text-rendering="optimizeSpeed" fill="#000000">25 (68)</text>
  <rect fill="blue" height="1.9" stroke="black" width="12" x="405" y="934.7"/>
  <text x="405" y="941.6" font-family="Tahoma" font-size="12" transform="rotate(90 405,941.6)" text-rendering="optimizeSpeed" fill="#000000">26 (47)</text>
  <rect fill="blue" height="1.2" stroke="black" width="12" x="420" y="935.3"/>
  <text x="420" y="941.6" font-family="Tahoma" font-size="12" transform="rotate(90 420,941.6)" text-rendering="optimizeSpeed" fill="#000000">27 (31)</text>
  <rect fill="blue" height="1.7" stroke="black" width="12" x="435" y="934.8"/>
  <text x="435" y="941.6" font-family="Tahoma" font-size="12" transform="rotate(90 435,941.6)" text-rendering="optimizeSpeed" fill="#000000">28 (43)</text>
  <rect fill="blue" height="1.2" stroke="black" width="12" x="450" y="935.3"/>
  <text x="450" y="941.6" font-family="Tahoma" font-size="12" transform="rotate(90 450,941.6)" text-rendering="optimizeSpeed" fill="#000000">29 (31)</text>
  <rect fill="blue" height="2.2" stroke="black" width="12" x="465" y="934.3"/>
  <text x="465" y="941.6" font-family="Tahoma" font-size="12" transform="rotate(90 465,941.6)" text-rendering="optimizeSpeed" fill="#000000">30 (56)</text>
  <rect fill="blue" height="1.4" stroke="black" width="12" x="480" y="935.2"/>
  <text x="480" y="941.6" font-family="Tahoma" font-size="12" transform="rotate(90 480,941.6)" text-rendering="optimizeSpeed" fill="#000000">31 (34)</text>
  <rect fill="blue" height="1.4" stroke="black" width="12" x="495" y="935.2"/>
  <text x="495" y="941.6" font-family="Tahoma" font-size="12" transform="rotate(90 495,941.6)" text-rendering="optimizeSpeed" fill="#000000">32 (35)</text>
  <rect fill="blue" height="0.9" stroke="black" width="12" x="510" y="935.6"/>
  <text x="510" y="941.6" font-family="Tahoma" font-size="12" transform="rotate(90 510,941.6)" text-rendering="optimizeSpeed" fill="#000000">33 (23)</text>
  <rect fill="blue" height="1.1" stroke="black" width="12" x="525" y="935.4"/>
  <text x="525" y="941.6" font-family="Tahoma" font-size="12" transform="rotate(90 525,941.6)" text-rendering="optimizeSpeed" fill="#000000">34 (28)</text>
  <rect fill="blue" height="0.9" stroke="black" width="12" x="540" y="935.6"/>
  <text x="540" y="941.6" font-family="Tahoma" font-size="12" transform="rotate(90 540,941.6)" text-rendering="optimizeSpeed" fill="#000000">35 (23)</text>
  <rect fill="blue" height="0.9" stroke="black" width="12" x="555" y="935.7"/>
  <text x="555" y="941.6" font-family="Tahoma" font-size="12" transform="rotate(90 555,941.6)" text-rendering="optimizeSpeed" fill="#000000">36 (22)</text>
  <rect fill="blue" height="0.6" stroke="black" width="12" x="570" y="936.0"/>
  <text x="570" y="941.6" font-family="Tahoma" font-size="12" transform="rotate(90 570,941.6)" text-rendering="optimizeSpeed" fill="#000000">37 (15)</text>
  <rect fill="blue" height="0.7" stroke="black" width="12" x="585" y="935.8"/>
  <text x="585" y="941.6" font-family="Tahoma" font-size="12" transform="rotate(90 585,941.6)" text-rendering="optimizeSpeed" fill="#000000">38 (18)</text>
  <rect fill="blue" height="0.7" stroke="black" width="12" x="600" y="935.8"/>
  <text x="600" y="941.6" font-family="Tahoma" font-size="12" transform="rotate(90 600,941.6)" text-rendering="optimizeSpeed" fill="#000000">39 (18)</text>
  <rect fill="blue" height="1.2" stroke="black" width="12" x="615" y="935.4"/>
  <text x="615" y="941.6" font-family="Tahoma" font-size="12" transform="rotate(90 615,941.6)" text-rendering="optimizeSpeed" fill="#000000">40 (30)</text>
  <rect fill="blue" height="0.4" stroke="black" width="12" x="630" y="936.1"/>
  <text x="630" y="941.6" font-family="Tahoma" font-size="12" transform="rotate(90 630,941.6)" text-rendering="optimizeSpeed" fill="#000000">41 (11)</text>
  <rect fill="blue" height="0.7" stroke="black" width="12" x="645" y="935.8"/>
  <text x="645" y="941.6" font-family="Tahoma" font-size="12" transform="rotate(90 645,941.6)" text-rendering="optimizeSpeed" fill="#000000">42 (18)</text>
  <rect fill="blue" height="0.3" stroke="black" width="12" x="660" y="936.2"/>
  <text x="660" y="941.6" font-family="Tahoma" font-size="12" transform="rotate(90 660,941.6)" text-rendering="optimizeSpeed" fill="#000000">43 (8)</text>
  <rect fill="blue" height="0.4" stroke="black" width="12" x="675" y="936.1"/>
  <text x="675" y="941.6" font-family="Tahoma" font-size="12" transform="rotate(90 675,941.6)" text-rendering="optimizeSpeed" fill="#000000">44 (11)</text>
  <rect fill="blue" height="0.7" stroke="black" width="12" x="690" y="935.8"/>
  <text x="690" y="941.6" font-family="Tahoma" font-size="12" transform="rotate(90 690,941.6)" text-rendering="optimizeSpeed" fill="#000000">45 (18)</text>
  <rect fill="blue" height="0.6" stroke="black" width="12" x="705" y="936.0"/>
  <text x="705" y="941.6" font-family="Tahoma" font-size="12" transform="rotate(90 705,941.6)" text-rendering="optimizeSpeed" fill="#000000">46 (15)</text>
  <rect fill="blue" height="0.3" stroke="black" width="12" x="720" y="936.3"/>
  <text x="720" y="941.6" font-family="Tahoma" font-size="12" transform="rotate(90 720,941.6)" text-rendering="optimizeSpeed" fill="#000000">47 (7)</text>
  <rect fill="blue" height="0.4" stroke="black" width="12" x="735" y="936.1"/>
  <text x="735" y="941.6" font-family="Tahoma" font-size="12" transform="rotate(90 735,941.6)" text-rendering="optimizeSpeed" fill="#000000">48 (11)</text>
  <rect fill="blue" height="0.2" stroke="black" width="12" x="750" y="936.4"/>
  <text x="750" y="941.6" font-family="Tahoma" font-size="12" transform="rotate(90 750,941.6)" text-rendering="optimizeSpeed" fill="#000000">49 (4)</text>
  <rect fill="blue" height="0.6" stroke="black" width="12" x="765" y="936.0"/>
  <text x="765" y="941.6" font-family="Tahoma" font-size="12" transform="rotate(90 765,941.6)" text-rendering="optimizeSpeed" fill="#000000">50 (15)</text>
  <rect fill="blue" height="0.4" stroke="black" width="12" x="780" y="936.2"/>
  <text x="780" y="941.6" font-family="Tahoma" font-size="12" transform="rotate(90 780,941.6)" text-rendering="optimizeSpeed" fill="#000000">51 (10)</text>
  <rect fill="blue" height="0.5" stroke="black" width="12" x="795" y="936.1"/>
  <text x="795" y="941.6" font-family="Tahoma" font-size="12" transform="rotate(90 795,941.6)" text-rendering="optimizeSpeed" fill="#000000">52 (12)</text>
  <rect fill="blue" height="0.2" stroke="black" width="12" x="810" y="936.3"/>
  <text x="810" y="941.6" font-family="Tahoma" font-size="12" transform="rotate(90 810,941.6)" text-rendering="optimizeSpeed" fill="#000000">53 (6)</text>
  <rect fill="blue" height="0.2" stroke="black" width="12" x="825" y="936.4"/>
  <text x="825" y="941.6" font-family="Tahoma" font-size="12" transform="rotate(90 825,941.6)" text-rendering="optimizeSpeed" fill="#000000">54 (4)</text>
  <rect fill="blue" height="0.3" stroke="black" width="12" x="840" y="936.2"/>
  <text x="840" y="941.6" font-family="Tahoma" font-size="12" transform="rotate(90 840,941.6)" text-rendering="optimizeSpeed" fill="#000000">55 (8)</text>
  <rect fill="blue" height="0.4" stroke="black" width="12" x="855" y="936.2"/>
  <text x="855" y="941.6" font-family="Tahoma" font-size="12" transform="rotate(90 855,941.6)" text-rendering="optimizeSpeed" fill="#000000">56 (9)</text>
  <rect fill="blue" height="0.2" stroke="black" width="12" x="870" y="936.3"/>
  <text x="870" y="941.6" font-family="Tahoma" font-size="12" transform="rotate(90 870,941.6)" text-rendering="optimizeSpeed" fill="#000000">57 (6)</text>
  <rect fill="blue" height="0.1" stroke="black" width="12" x="885" y="936.4"/>
  <text x="885" y="941.6" font-family="Tahoma" font-size="12" transform="rotate(90 885,941.6)" text-rendering="optimizeSpeed" fill="#000000">58 (3)</text>
  <rect fill="blue" height="0.3" stroke="black" width="12" x="900" y="936.2"/>
  <text x="900" y="941.6" font-family="Tahoma" font-size="12" transform="rotate(90 900,941.6)" text-rendering="optimizeSpeed" fill="#000000">59 (8)</text>
  <rect fill="blue" height="0.4" stroke="black" width="12" x="915" y="936.2"/>
  <text x="915" y="941.6" font-family="Tahoma" font-size="12" transform="rotate(90 915,941.6)" text-rendering="optimizeSpeed" fill="#000000">60 (9)</text>
  <rect fill="blue" height="0.1" stroke="black" width="12" x="930" y="936.4"/>
  <text x="930" y="941.6" font-family="Tahoma" font-size="12" transform="rotate(90 930,941.6)" text-rendering="optimizeSpeed" fill="#000000">61 (3)</text>
  <rect fill="blue" height="0.2" stroke="black" width="12" x="945" y="936.4"/>
  <text x="945" y="941.6" font-family="Tahoma" font-size="12" transform="rotate(90 945,941.6)" text-rendering="optimizeSpeed" fill="#000000">62 (4)</text>
  <rect fill="blue" height="0.1" stroke="black" width="12" x="960" y="936.4"/>
  <text x="960" y="941.6" font-family="Tahoma" font-size="12" transform="rotate(90 960,941.6)" text-rendering="optimizeSpeed" fill="#000000">63 (3)</text>
  <rect fill="blue" height="0.3" stroke="black" width="12" x="975" y="936.3"/>
  <text x="975" y="941.6" font-family="Tahoma" font-size="12" transform="rotate(90 975,941.6)" text-rendering="optimizeSpeed" fill="#000000">64 (7)</text>
  <rect fill="blue" height="0.2" stroke="black" width="12" x="990" y="936.4"/>
  <text x="990" y="941.6" font-family="Tahoma" font-size="12" transform="rotate(90 990,941.6)" text-rendering="optimizeSpeed" fill="#000000">65 (5)</text>
  <rect fill="blue" height="0.3" stroke="black" width="12" x="1005" y="936.3"/>
  <text x="1005" y="941.6" font-family="Tahoma" font-size="12" transform="rotate(90 1005,941.6)" text-rendering="optimizeSpeed" fill="#000000">66 (7)</text>
  <rect fill="blue" height="0.2" stroke="black" width="12" x="1020" y="936.4"/>
  <text x="1020" y="941.6" font-family="Tahoma" font-size="12" transform="rotate(90 1020,941.6)" text-rendering="optimizeSpeed" fill="#000000">67 (5)</text>
  <rect fill="blue" height="0.1" stroke="black" width="12" x="1035" y="936.5"/>
  <text x="1035" y="941.6" font-family="Tahoma" font-size="12" transform="rotate(90 1035,941.6)" text-rendering="optimizeSpeed" fill="#000000">68 (2)</text>
  <rect fill="blue" height="0.2" stroke="black" width="12" x="1050" y="936.4"/>
  <text x="1050" y="941.6" font-family="Tahoma" font-size="12" transform="rotate(90 1050,941.6)" text-rendering="optimizeSpeed" fill="#000000">69 (5)</text>
  <rect fill="blue" height="0.2" stroke="black" width="12" x="1065" y="936.4"/>
  <text x="1065" y="941.6" font-family="Tahoma" font-size="12" transform="rotate(90 1065,941.6)" text-rendering="optimizeSpeed" fill="#000000">70 (5)</text>
  <rect fill="blue" height="0.2" stroke="black" width="12" x="1080" y="936.4"/>
  <text x="1080" y="941.6" font-family="Tahoma" font-size="12" transform="rotate(90 1080,941.6)" text-rendering="optimizeSpeed" fill="#000000">71 (5)</text>
  <rect fill="blue" height="0.1" stroke="black" width="12" x="1095" y="936.4"/>
  <text x="1095" y="941.6" font-family="Tahoma" font-size="12" transform="rotate(90 1095,941.6)" text-rendering="optimizeSpeed" fill="#000000">72 (3)</text>
  <rect fill="blue" height="0.2" stroke="black" width="12" x="1110" y="936.4"/>
  <text x="1110" y="941.6" font-family="Tahoma" font-size="12" transform="rotate(90 1110,941.6)" text-rendering="optimizeSpeed" fill="#000000">73 (4)</text>
  <rect fill="blue" height="0.2" stroke="black" width="12" x="1125" y="936.4"/>
  <text x="1125" y="941.6" font-family="Tahoma" font-size="12" transform="rotate(90 1125,941.6)" text-rendering="optimizeSpeed" fill="#000000">74 (4)</text>
  <rect fill="blue" height="0.1" stroke="black" width="12" x="1140" y="936.4"/>
  <text x="1140" y="941.6" font-family="Tahoma" font-size="12" transform="rotate(90 1140,941.6)" text-rendering="optimizeSpeed" fill="#000000">75 (3)</text>
  <rect fill="blue" height="0.1" stroke="black" width="12" x="1155" y="936.4"/>
  <text x="1155" y="941.6" font-family="Tahoma" font-size="12" transform="rotate(90 1155,941.6)" text-rendering="optimizeSpeed" fill="#000000">76 (3)</text>
  <rect fill="blue" height="0.2" stroke="black" width="12" x="1170" y="936.3"/>
  <text x="1170" y="941.6" font-family="Tahoma" font-size="12" transform="rotate(90 1170,941.6)" text-rendering="optimizeSpeed" fill="#000000">77 (6)</text>
  <rect fill="blue" height="0.2" stroke="black" width="12" x="1185" y="936.4"/>
  <text x="1185" y="941.6" font-family="Tahoma" font-size="12" transform="rotate(90 1185,941.6)" text-rendering="optimizeSpeed" fill="#000000">78 (4)</text>
  <rect fill="blue" height="0.2" stroke="black" width="12" x="1200" y="936.3"/>
  <text x="1200" y="941.6" font-family="Tahoma" font-size="12" transform="rotate(90 1200,941.6)" text-rendering="optimizeSpeed" fill="#000000">79 (6)</text>
  <rect fill="blue" height="0.2" stroke="black" width="12" x="1215" y="936.3"/>
  <text x="1215" y="941.6" font-family="Tahoma" font-size="12" transform="rotate(90 1215,941.6)" text-rendering="optimizeSpeed" fill="#000000">80 (6)</text>
  <rect fill="blue" height="0.1" stroke="black" width="12" x="1230" y="936.5"/>
  <text x="1230" y="941.6" font-family="Tahoma" font-size="12" transform="rotate(90 1230,941.6)" text-rendering="optimizeSpeed" fill="#000000">81 (2)</text>
  <rect fill="blue" height="0.2" stroke="black" width="12" x="1245" y="936.4"/>
  <text x="1245" y="941.6" font-family="Tahoma" font-size="12" transform="rotate(90 1245,941.6)" text-rendering="optimizeSpeed" fill="#000000">82 (5)</text>
  <rect fill="blue" height="0.1" stroke="black" width="12" x="1260" y="936.5"/>
  <text x="1260" y="941.6" font-family="Tahoma" font-size="12" transform="rotate(90 1260,941.6)" text-rendering="optimizeSpeed" fill="#000000">85 (2)</text>
  <rect fill="blue" height="0.1" stroke="black" width="12" x="1275" y="936.4"/>
  <text x="1275" y="941.6" font-family="Tahoma" font-size="12" transform="rotate(90 1275,941.6)" text-rendering="optimizeSpeed" fill="#000000">86 (3)</text>
  <rect fill="blue" height="0.2" stroke="black" width="12" x="1290" y="936.3"/>
  <text x="1290" y="941.6" font-family="Tahoma" font-size="12" transform="rotate(90 1290,941.6)" text-rendering="optimizeSpeed" fill="#000000">87 (6)</text>
  <rect fill="blue" height="0.1" stroke="black" width="12" x="1305" y="936.4"/>
  <text x="1305" y="941.6" font-family="Tahoma" font-size="12" transform="rotate(90 1305,941.6)" text-rendering="optimizeSpeed" fill="#000000">88 (3)</text>
  <rect fill="blue" height="0.1" stroke="black" width="12" x="1320" y="936.4"/>
  <text x="1320" y="941.6" font-family="Tahoma" font-size="12" transform="rotate(90 1320,941.6)" text-rendering="optimizeSpeed" fill="#000000">89 (3)</text>
  <rect fill="blue" height="0.1" stroke="black" width="12" x="1335" y="936.4"/>
  <text x="1335" y="941.6" font-family="Tahoma" font-size="12" transform="rotate(90 1335,941.6)" text-rendering="optimizeSpeed" fill="#000000">90 (3)</text>
  <rect fill="blue" height="0.0" stroke="black" width="12" x="1350" y="936.5"/>
  <text x="1350" y="941.6" font-family="Tahoma" font-size="12" transform="rotate(90 1350,941.6)" text-rendering="optimizeSpeed" fill="#000000">91 (1)</text>
  <rect fill="blue" height="0.2" stroke="black" width="12" x="1365" y="936.4"/>
  <text x="1365" y="941.6" font-family="Tahoma" font-size="12" transform="rotate(90 1365,941.6)" text-rendering="optimizeSpeed" fill="#000000">92 (5)</text>
  <rect fill="blue" height="0.0" stroke="black" width="12" x="1380" y="936.5"/>
  <text x="1380" y="941.6" font-family="Tahoma" font-size="12" transform="rotate(90 1380,941.6)" text-rendering="optimizeSpeed" fill="#000000">94 (1)</text>
  <rect fill="blue" height="0.1" stroke="black" width="12" x="1395" y="936.5"/>
  <text x="1395" y="941.6" font-family="Tahoma" font-size="12" transform="rotate(90 1395,941.6)" text-rendering="optimizeSpeed" fill="#000000">95 (2)</text>
  <rect fill="blue" height="0.1" stroke="black" width="12" x="1410" y="936.4"/>
  <text x="1410" y="941.6" font-family="Tahoma" font-size="12" transform="rotate(90 1410,941.6)" text-rendering="optimizeSpeed" fill="#000000">96 (3)</text>
  <rect fill="blue" height="0.1" stroke="black" width="12" x="1425" y="936.5"/>
  <text x="1425" y="941.6" font-family="Tahoma" font-size="12" transform="rotate(90 1425,941.6)" text-rendering="optimizeSpeed" fill="#000000">97 (2)</text>
  <rect fill="blue" height="0.0" stroke="black" width="12" x="1440" y="936.5"/>
  <text x="1440" y="941.6" font-family="Tahoma" font-size="12" transform="rotate(90 1440,941.6)" text-rendering="optimizeSpeed" fill="#000000">98 (1)</text>
  <rect fill="blue" height="0.1" stroke="black" width="12" x="1455" y="936.5"/>
  <text x="1455" y="941.6" font-family="Tahoma" font-size="12" transform="rotate(90 1455,941.6)" text-rendering="optimizeSpeed" fill="#000000">99 (2)</text>
  <rect fill="blue" height="0.2" stroke="black" width="12" x="1470" y="936.4"/>
  <text x="1470" y="941.6" font-family="Tahoma" font-size="12" transform="rotate(90 1470,941.6)" text-rendering="optimizeSpeed" fill="#000000">100 (5)</text>
  <rect fill="blue" height="0.1" stroke="black" width="12" x="1485" y="936.4"/>
  <text x="1485" y="941.6" font-family="Tahoma" font-size="12" transform="rotate(90 1485,941.6)" text-rendering="optimizeSpeed" fill="#000000">101 (3)</text>
  <rect fill="blue" height="0.1" stroke="black" width="12" x="1500" y="936.5"/>
  <text x="1500" y="941.6" font-family="Tahoma" font-size="12" transform="rotate(90 1500,941.6)" text-rendering="optimizeSpeed" fill="#000000">102 (2)</text>
  <rect fill="blue" height="0.0" stroke="black" width="12" x="1515" y="936.5"/>
  <text x="1515" y="941.6" font-family="Tahoma" font-size="12" transform="rotate(90 1515,941.6)" text-rendering="optimizeSpeed" fill="#000000">103 (1)</text>
  <rect fill="blue" height="0.1" stroke="black" width="12" x="1530" y="936.5"/>
  <text x="1530" y="941.6" font-family="Tahoma" font-size="12" transform="rotate(90 1530,941.6)" text-rendering="optimizeSpeed" fill="#000000">104 (2)</text>
  <rect fill="blue" height="0.0" stroke="black" width="12" x="1545" y="936.5"/>
  <text x="1545" y="941.6" font-family="Tahoma" font-size="12" transform="rotate(90 1545,941.6)" text-rendering="optimizeSpeed" fill="#000000">105 (1)</text>
  <rect fill="blue" height="0.0" stroke="black" width="12" x="1560" y="936.5"/>
  <text x="1560" y="941.6" font-family="Tahoma" font-size="12" transform="rotate(90 1560,941.6)" text-rendering="optimizeSpeed" fill="#000000">106 (1)</text>
  <rect fill="blue" height="0.1" stroke="black" width="12" x="1575" y="936.4"/>
  <text x="1575" y="941.6" font-family="Tahoma" font-size="12" transform="rotate(90 1575,941.6)" text-rendering="optimizeSpeed" fill="#000000">107 (3)</text>
  <rect fill="blue" height="0.1" stroke="black" width="12" x="1590" y="936.5"/>
  <text x="1590" y="941.6" font-family="Tahoma" font-size="12" transform="rotate(90 1590,941.6)" text-rendering="optimizeSpeed" fill="#000000">108 (2)</text>
  <rect fill="blue" height="0.1" stroke="black" width="12" x="1605" y="936.4"/>
  <text x="1605" y="941.6" font-family="Tahoma" font-size="12" transform="rotate(90 1605,941.6)" text-rendering="optimizeSpeed" fill="#000000">109 (3)</text>
  <rect fill="blue" height="0.0" stroke="black" width="12" x="1620" y="936.5"/>
  <text x="1620" y="941.6" font-family="Tahoma" font-size="12" transform="rotate(90 1620,941.6)" text-rendering="optimizeSpeed" fill="#000000">110 (1)</text>
  <rect fill="blue" height="0.2" stroke="black" width="12" x="1635" y="936.4"/>
  <text x="1635" y="941.6" font-family="Tahoma" font-size="12" transform="rotate(90 1635,941.6)" text-rendering="optimizeSpeed" fill="#000000">111 (4)</text>
  <rect fill="blue" height="0.0" stroke="black" width="12" x="1650" y="936.5"/>
  <text x="1650" y="941.6" font-family="Tahoma" font-size="12" transform="rotate(90 1650,941.6)" text-rendering="optimizeSpeed" fill="#000000">112 (1)</text>
  <rect fill="blue" height="0.0" stroke="black" width="12" x="1665" y="936.5"/>
  <text x="1665" y="941.6" font-family="Tahoma" font-size="12" transform="rotate(90 1665,941.6)" text-rendering="optimizeSpeed" fill="#000000">114 (1)</text>
  <rect fill="blue" height="0.1" stroke="black" width="12" x="1680" y="936.4"/>
  <text x="1680" y="941.6" font-family="Tahoma" font-size="12" transform="rotate(90 1680,941.6)" text-rendering="optimizeSpeed" fill="#000000">115 (3)</text>
  <rect fill="blue" height="0.1" stroke="black" width="12" x="1695" y="936.5"/>
  <text x="1695" y="941.6" font-family="Tahoma" font-size="12" transform="rotate(90 1695,941.6)" text-rendering="optimizeSpeed" fill="#000000">117 (2)</text>
  <rect fill="blue" height="0.0" stroke="black" width="12" x="1710" y="936.5"/>
  <text x="1710" y="941.6" font-family="Tahoma" font-size="12" transform="rotate(90 1710,941.6)" text-rendering="optimizeSpeed" fill="#000000">121 (1)</text>
  <rect fill="blue" height="0.1" stroke="black" width="12" x="1725" y="936.5"/>
  <text x="1725" y="941.6" font-family="Tahoma" font-size="12" transform="rotate(90 1725,941.6)" text-rendering="optimizeSpeed" fill="#000000">122 (2)</text>
  <rect fill="blue" height="0.1" stroke="black" width="12" x="1740" y="936.5"/>
  <text x="1740" y="941.6" font-family="Tahoma" font-size="12" transform="rotate(90 1740,941.6)" text-rendering="optimizeSpeed" fill="#000000">123 (2)</text>
  <rect fill="blue" height="0.1" stroke="black" width="12" x="1755" y="936.5"/>
  <text x="1755" y="941.6" font-family="Tahoma" font-size="12" transform="rotate(90 1755,941.6)" text-rendering="optimizeSpeed" fill="#000000">124 (2)</text>
  <rect fill="blue" height="0.2" stroke="black" width="12" x="1770" y="936.4"/>
  <text x="1770" y="941.6" font-family="Tahoma" font-size="12" transform="rotate(90 1770,941.6)" text-rendering="optimizeSpeed" fill="#000000">125 (4)</text>
  <rect fill="blue" height="0.1" stroke="black" width="12" x="1785" y="936.5"/>
  <text x="1785" y="941.6" font-family="Tahoma" font-size="12" transform="rotate(90 1785,941.6)" text-rendering="optimizeSpeed" fill="#000000">126 (2)</text>
  <rect fill="blue" height="0.0" stroke="black" width="12" x="1800" y="936.5"/>
  <text x="1800" y="941.6" font-family="Tahoma" font-size="12" transform="rotate(90 1800,941.6)" text-rendering="optimizeSpeed" fill="#000000">127 (1)</text>
  <rect fill="blue" height="0.1" stroke="black" width="12" x="1815" y="936.5"/>
  <text x="1815" y="941.6" font-family="Tahoma" font-size="12" transform="rotate(90 1815,941.6)" text-rendering="optimizeSpeed" fill="#000000">128 (2)</text>
  <rect fill="blue" height="0.0" stroke="black" width="12" x="1830" y="936.5"/>
  <text x="1830" y="941.6" font-family="Tahoma" font-size="12" transform="rotate(90 1830,941.6)" text-rendering="optimizeSpeed" fill="#000000">129 (1)</text>
  <rect fill="blue" height="0.1" stroke="black" width="12" x="1845" y="936.4"/>
  <text x="1845" y="941.6" font-family="Tahoma" font-size="12" transform="rotate(90 1845,941.6)" text-rendering="optimizeSpeed" fill="#000000">130 (3)</text>
  <rect fill="blue" height="0.1" stroke="black" width="12" x="1860" y="936.5"/>
  <text x="1860" y="941.6" font-family="Tahoma" font-size="12" transform="rotate(90 1860,941.6)" text-rendering="optimizeSpeed" fill="#000000">135 (2)</text>
  <rect fill="blue" height="0.0" stroke="black" width="12" x="1875" y="936.5"/>
  <text x="1875" y="941.6" font-family="Tahoma" font-size="12" transform="rotate(90 1875,941.6)" text-rendering="optimizeSpeed" fill="#000000">136 (1)</text>
  <rect fill="blue" height="0.1" stroke="black" width="12" x="1890" y="936.5"/>
  <text x="1890" y="941.6" font-family="Tahoma" font-size="12" transform="rotate(90 1890,941.6)" text-rendering="optimizeSpeed" fill="#000000">137 (2)</text>
  <rect fill="blue" height="0.0" stroke="black" width="12" x="1905" y="936.5"/>
  <text x="1905" y="941.6" font-family="Tahoma" font-size="12" transform="rotate(90 1905,941.6)" text-rendering="optimizeSpeed" fill="#000000">138 (1)</text>
  <rect fill="blue" height="0.0" stroke="black" width="12" x="1920" y="936.5"/>
  <text x="1920" y="941.6" font-family="Tahoma" font-size="12" transform="rotate(90 1920,941.6)" text-rendering="optimizeSpeed" fill="#000000">139 (1)</text>
  <rect fill="blue" height="0.1" stroke="black" width="12" x="1935" y="936.5"/>
  <text x="1935" y="941.6" font-family="Tahoma" font-size="12" transform="rotate(90 1935,941.6)" text-rendering="optimizeSpeed" fill="#000000">142 (2)</text>
  <rect fill="blue" height="0.0" stroke="black" width="12" x="1950" y="936.5"/>
  <text x="1950" y="941.6" font-family="Tahoma" font-size="12" transform="rotate(90 1950,941.6)" text-rendering="optimizeSpeed" fill="#000000">143 (1)</text>
  <rect fill="blue" height="0.0" stroke="black" width="12" x="1965" y="936.5"/>
  <text x="1965" y="941.6" font-family="Tahoma" font-size="12" transform="rotate(90 1965,941.6)" text-rendering="optimizeSpeed" fill="#000000">149 (1)</text>
  <rect fill="blue" height="0.1" stroke="black" width="12" x="1980" y="936.5"/>
  <text x="1980" y="941.6" font-family="Tahoma" font-size="12" transform="rotate(90 1980,941.6)" text-rendering="optimizeSpeed" fill="#000000">150 (2)</text>
  <rect fill="blue" height="0.0" stroke="black" width="12" x="1995" y="936.5"/>
  <text x="1995" y="941.6" font-family="Tahoma" font-size="12" transform="rotate(90 1995,941.6)" text-rendering="optimizeSpeed" fill="#000000">152 (1)</text>
  <rect fill="blue" height="0.0" stroke="black" width="12" x="2010" y="936.5"/>
  <text x="2010" y="941.6" font-family="Tahoma" font-size="12" transform="rotate(90 2010,941.6)" text-rendering="optimizeSpeed" fill="#000000">154 (1)</text>
  <rect fill="blue" height="0.1" stroke="black" width="12" x="2025" y="936.5"/>
  <text x="2025" y="941.6" font-family="Tahoma" font-size="12" transform="rotate(90 2025,941.6)" text-rendering="optimizeSpeed" fill="#000000">157 (2)</text>
  <rect fill="blue" height="0.0" stroke="black" width="12" x="2040" y="936.5"/>
  <text x="2040" y="941.6" font-family="Tahoma" font-size="12" transform="rotate(90 2040,941.6)" text-rendering="optimizeSpeed" fill="#000000">160 (1)</text>
  <rect fill="blue" height="0.0" stroke="black" width="12" x="2055" y="936.5"/>
  <text x="2055" y="941.6" font-family="Tahoma" font-size="12" transform="rotate(90 2055,941.6)" text-rendering="optimizeSpeed" fill="#000000">161 (1)</text>
  <rect fill="blue" height="0.0" stroke="black" width="12" x="2070" y="936.5"/>
  <text x="2070" y="941.6" font-family="Tahoma" font-size="12" transform="rotate(90 2070,941.6)" text-rendering="optimizeSpeed" fill="#000000">162 (1)</text>
  <rect fill="blue" height="0.0" stroke="black" width="12" x="2085" y="936.5"/>
  <text x="2085" y="941.6" font-family="Tahoma" font-size="12" transform="rotate(90 2085,941.6)" text-rendering="optimizeSpeed" fill="#000000">166 (1)</text>
  <rect fill="blue" height="0.0" stroke="black" width="12" x="2100" y="936.5"/>
  <text x="2100" y="941.6" font-family="Tahoma" font-size="12" transform="rotate(90 2100,941.6)" text-rendering="optimizeSpeed" fill="#000000">167 (1)</text>
  <rect fill="blue" height="0.0" stroke="black" width="12" x="2115" y="936.5"/>
  <text x="2115" y="941.6" font-family="Tahoma" font-size="12" transform="rotate(90 2115,941.6)" text-rendering="optimizeSpeed" fill="#000000">173 (1)</text>
  <rect fill="blue" height="0.0" stroke="black" width="12" x="2130" y="936.5"/>
  <text x="2130" y="941.6" font-family="Tahoma" font-size="12" transform="rotate(90 2130,941.6)" text-rendering="optimizeSpeed" fill="#000000">174 (1)</text>
  <rect fill="blue" height="0.0" stroke="black" width="12" x="2145" y="936.5"/>
  <text x="2145" y="941.6" font-family="Tahoma" font-size="12" transform="rotate(90 2145,941.6)" text-rendering="optimizeSpeed" fill="#000000">177 (1)</text>
  <rect fill="blue" height="0.0" stroke="black" width="12" x="2160" y="936.5"/>
  <text x="2160" y="941.6" font-family="Tahoma" font-size="12" transform="rotate(90 2160,941.6)" text-rendering="optimizeSpeed" fill="#000000">180 (1)</text>
  <rect fill="blue" height="0.0" stroke="black" width="12" x="2175" y="936.5"/>
  <text x="2175" y="941.6" font-family="Tahoma" font-size="12" transform="rotate(90 2175,941.6)" text-rendering="optimizeSpeed" fill="#000000">185 (1)</text>
  <rect fill="blue" height="0.1" stroke="black" width="12" x="2190" y="936.5"/>
  <text x="2190" y="941.6" font-family="Tahoma" font-size="12" transform="rotate(90 2190,941.6)" text-rendering="optimizeSpeed" fill="#000000">186 (2)</text>
  <rect fill="blue" height="0.0" stroke="black" width="12" x="2205" y="936.5"/>
  <text x="2205" y="941.6" font-family="Tahoma" font-size="12" transform="rotate(90 2205,941.6)" text-rendering="optimizeSpeed" fill="#000000">191 (1)</text>
  <rect fill="blue" height="0.0" stroke="black" width="12" x="2220" y="936.5"/>
  <text x="2220" y="941.6" font-family="Tahoma" font-size="12" transform="rotate(90 2220,941.6)" text-rendering="optimizeSpeed" fill="#000000">193 (1)</text>
  <rect fill="blue" height="0.1" stroke="black" width="12" x="2235" y="936.4"/>
  <text x="2235" y="941.6" font-family="Tahoma" font-size="12" transform="rotate(90 2235,941.6)" text-rendering="optimizeSpeed" fill="#000000">200 (3)</text>
  <rect fill="blue" height="0.0" stroke="black" width="12" x="2250" y="936.5"/>
  <text x="2250" y="941.6" font-family="Tahoma" font-size="12" transform="rotate(90 2250,941.6)" text-rendering="optimizeSpeed" fill="#000000">207 (1)</text>
  <rect fill="blue" height="0.0" stroke="black" width="12" x="2265" y="936.5"/>
  <text x="2265" y="941.6" font-family="Tahoma" font-size="12" transform="rotate(90 2265,941.6)" text-rendering="optimizeSpeed" fill="#000000">208 (1)</text>
  <rect fill="blue" height="0.0" stroke="black" width="12" x="2280" y="936.5"/>
  <text x="2280" y="941.6" font-family="Tahoma" font-size="12" transform="rotate(90 2280,941.6)" text-rendering="optimizeSpeed" fill="#000000">210 (1)</text>
  <rect fill="blue" height="0.0" stroke="black" width="12" x="2295" y="936.5"/>
  <text x="2295" y="941.6" font-family="Tahoma" font-size="12" transform="rotate(90 2295,941.6)" text-rendering="optimizeSpeed" fill="#000000">212 (1)</text>
  <rect fill="blue" height="0.0" stroke="black" width="12" x="2310" y="936.5"/>
  <text x="2310" y="941.6" font-family="Tahoma" font-size="12" transform="rotate(90 2310,941.6)" text-rendering="optimizeSpeed" fill="#000000">221 (1)</text>
  <rect fill="blue" height="0.0" stroke="black" width="12" x="2325" y="936.5"/>
  <text x="2325" y="941.6" font-family="Tahoma" font-size="12" transform="rotate(90 2325,941.6)" text-rendering="optimizeSpeed" fill="#000000">223 (1)</text>
  <rect fill="blue" height="0.0" stroke="black" width="12" x="2340" y="936.5"/>
  <text x="2340" y="941.6" font-family="Tahoma" font-size="12" transform="rotate(90 2340,941.6)" text-rendering="optimizeSpeed" fill="#000000">225 (1)</text>
  <rect fill="blue" height="0.0" stroke="black" width="12" x="2355" y="936.5"/>
  <text x="2355" y="941.6" font-family="Tahoma" font-size="12" transform="rotate(90 2355,941.6)" text-rendering="optimizeSpeed" fill="#000000">229 (1)</text>
  <rect fill="blue" height="0.0" stroke="black" width="12" x="2370" y="936.5"/>
  <text x="2370" y="941.6" font-family="Tahoma" font-size="12" transform="rotate(90 2370,941.6)" text-rendering="optimizeSpeed" fill="#000000">243 (1)</text>
  <rect fill="blue" height="0.0" stroke="black" width="12" x="2385" y="936.5"/>
  <text x="2385" y="941.6" font-family="Tahoma" font-size="12" transform="rotate(90 2385,941.6)" text-rendering="optimizeSpeed" fill="#000000">250 (1)</text>
  <rect fill="blue" height="0.0" stroke="black" width="12" x="2400" y="936.5"/>
  <text x="2400" y="941.6" font-family="Tahoma" font-size="12" transform="rotate(90 2400,941.6)" text-rendering="optimizeSpeed" fill="#000000">261 (1)</text>
  <rect fill="blue" height="0.0" stroke="black" width="12" x="2415" y="936.5"/>
  <text x="2415" y="941.6" font-family="Tahoma" font-size="12" transform="rotate(90 2415,941.6)" text-rendering="optimizeSpeed" fill="#000000">272 (1)</text>
  <rect fill="blue" height="0.0" stroke="black" width="12" x="2430" y="936.5"/>
  <text x="2430" y="941.6" font-family="Tahoma" font-size="12" transform="rotate(90 2430,941.6)" text-rendering="optimizeSpeed" fill="#000000">273 (1)</text>
  <rect fill="blue" height="0.0" stroke="black" width="12" x="2445" y="936.5"/>
  <text x="2445" y="941.6" font-family="Tahoma" font-size="12" transform="rotate(90 2445,941.6)" text-rendering="optimizeSpeed" fill="#000000">274 (1)</text>
  <rect fill="blue" height="0.0" stroke="black" width="12" x="2460" y="936.5"/>
  <text x="2460" y="941.6" font-family="Tahoma" font-size="12" transform="rotate(90 2460,941.6)" text-rendering="optimizeSpeed" fill="#000000">292 (1)</text>
  <rect fill="blue" height="0.0" stroke="black" width="12" x="2475" y="936.5"/>
  <text x="2475" y="941.6" font-family="Tahoma" font-size="12" transform="rotate(90 2475,941.6)" text-rendering="optimizeSpeed" fill="#000000">294 (1)</text>
  <rect fill="blue" height="0.0" stroke="black" width="12" x="2490" y="936.5"/>
  <text x="2490" y="941.6" font-family="Tahoma" font-size="12" transform="rotate(90 2490,941.6)" text-rendering="optimizeSpeed" fill="#000000">300 (1)</text>
  <rect fill="blue" height="0.0" stroke="black" width="12" x="2505" y="936.5"/>
  <text x="2505" y="941.6" font-family="Tahoma" font-size="12" transform="rotate(90 2505,941.6)" text-rendering="optimizeSpeed" fill="#000000">307 (1)</text>
  <rect fill="blue" height="0.0" stroke="black" width="12" x="2520" y="936.5"/>
  <text x="2520" y="941.6" font-family="Tahoma" font-size="12" transform="rotate(90 2520,941.6)" text-rendering="optimizeSpeed" fill="#000000">332 (1)</text>
  <rect fill="blue" height="0.1" stroke="black" width="12" x="2535" y="936.5"/>
  <text x="2535" y="941.6" font-family="Tahoma" font-size="12" transform="rotate(90 2535,941.6)" text-rendering="optimizeSpeed" fill="#000000">385 (2)</text>
  <rect fill="blue" height="0.0" stroke="black" width="12" x="2550" y="936.5"/>
  <text x="2550" y="941.6" font-family="Tahoma" font-size="12" transform="rotate(90 2550,941.6)" text-rendering="optimizeSpeed" fill="#000000">426 (1)</text>
  <rect fill="blue" height="0.0" stroke="black" width="12" x="2565" y="936.5"/>
  <text x="2565" y="941.6" font-family="Tahoma" font-size="12" transform="rotate(90 2565,941.6)" text-rendering="optimizeSpeed" fill="#000000">432 (1)</text>
  <rect fill="blue" height="0.0" stroke="black" width="12" x="2580" y="936.5"/>
  <text x="2580" y="941.6" font-family="Tahoma" font-size="12" transform="rotate(90 2580,941.6)" text-rendering="optimizeSpeed" fill="#000000">436 (1)</text>
  <rect fill="blue" height="0.0" stroke="black" width="12" x="2595" y="936.5"/>
  <text x="2595" y="941.6" font-family="Tahoma" font-size="12" transform="rotate(90 2595,941.6)" text-rendering="optimizeSpeed" fill="#000000">455 (1)</text>
  <rect fill="blue" height="0.0" stroke="black" width="12" x="2610" y="936.5"/>
  <text x="2610" y="941.6" font-family="Tahoma" font-size="12" transform="rotate(90 2610,941.6)" text-rendering="optimizeSpeed" fill="#000000">460 (1)</text>
  <rect fill="blue" height="0.0" stroke="black" width="12" x="2625" y="936.5"/>
  <text x="2625" y="941.6" font-family="Tahoma" font-size="12" transform="rotate(90 2625,941.6)" text-rendering="optimizeSpeed" fill="#000000">482 (1)</text>
  <rect fill="blue" height="0.0" stroke="black" width="12" x="2640" y="936.5"/>
  <text x="2640" y="941.6" font-family="Tahoma" font-size="12" transform="rotate(90 2640,941.6)" text-rendering="optimizeSpeed" fill="#000000">513 (1)</text>
  <rect fill="blue" height="0.0" stroke="black" width="12" x="2655" y="936.5"/>
  <text x="2655" y="941.6" font-family="Tahoma" font-size="12" transform="rotate(90 2655,941.6)" text-rendering="optimizeSpeed" fill="#000000">1889 (1)</text>
  <rect fill="blue" height="0.0" stroke="black" width="12" x="2670" y="936.5"/>
  <text x="2670" y="941.6" font-family="Tahoma" font-size="12" transform="rotate(90 2670,941.6)" text-rendering="optimizeSpeed" fill="#000000">4520 (1)</text>
  <text x="10" y="40" font-family="Tahoma" font-size="20" text-rendering="optimizeSpeed" fill="#000000">Executors per install (total: 40588)</text>
</svg>
