<svg xmlns="http://www.w3.org/2000/svg" version="1.1" preserveAspectRatio="xMidYMid meet" viewBox="0 0 245 1590.7">
  <rect fill="blue" height="0.0" stroke="black" width="12" x="15" y="1290.7"/>
  <text x="15" y="1295.7" font-family="Tahoma" font-size="12" transform="rotate(90 15,1295.7)" text-rendering="optimizeSpeed" fill="#000000">hudson-fleetboard-ci-SmokeTestProject (1)</text>
  <rect fill="blue" height="0.0" stroke="black" width="12" x="30" y="1290.7"/>
  <text x="30" y="1295.7" font-family="Tahoma" font-size="12" transform="rotate(90 30,1295.7)" text-rendering="optimizeSpeed" fill="#000000">hudson-plugins-view-dashboard-diab-DiabProject (2)</text>
  <rect fill="blue" height="0.0" stroke="black" width="12" x="45" y="1290.6"/>
  <text x="45" y="1295.7" font-family="Tahoma" font-size="12" transform="rotate(90 45,1295.7)" text-rendering="optimizeSpeed" fill="#000000">hudson-jbpm-JbpmProject (10)</text>
  <rect fill="blue" height="0.0" stroke="black" width="12" x="60" y="1290.6"/>
  <text x="60" y="1295.7" font-family="Tahoma" font-size="12" transform="rotate(90 60,1295.7)" text-rendering="optimizeSpeed" fill="#000000">hudson-ddnmatrix-MatrixProject (13)</text>
  <rect fill="blue" height="0.0" stroke="black" width="12" x="75" y="1290.6"/>
  <text x="75" y="1295.7" font-family="Tahoma" font-size="12" transform="rotate(90 75,1295.7)" text-rendering="optimizeSpeed" fill="#000000">hudson-aarworkflow-AARWorkflowProject (35)</text>
  <rect fill="blue" height="0.1" stroke="black" width="12" x="90" y="1290.5"/>
  <text x="90" y="1295.7" font-family="Tahoma" font-size="12" transform="rotate(90 90,1295.7)" text-rendering="optimizeSpeed" fill="#000000">hudson-workflow-WorkflowProject (144)</text>
  <rect fill="blue" height="0.7" stroke="black" width="12" x="105" y="1289.9"/>
  <text x="105" y="1295.7" font-family="Tahoma" font-size="12" transform="rotate(90 105,1295.7)" text-rendering="optimizeSpeed" fill="#000000">hudson-plugins-project_inheritance-projects-InheritanceProject (717)</text>
  <rect fill="blue" height="1.9" stroke="black" width="12" x="120" y="1288.7"/>
  <text x="120" y="1295.7" font-family="Tahoma" font-size="12" transform="rotate(90 120,1295.7)" text-rendering="optimizeSpeed" fill="#000000">hudson-model-ExternalJob (1945)</text>
  <rect fill="blue" height="4.5" stroke="black" width="12" x="135" y="1286.2"/>
  <text x="135" y="1295.7" font-family="Tahoma" font-size="12" transform="rotate(90 135,1295.7)" text-rendering="optimizeSpeed" fill="#000000">hudson-ivy-IvyModuleSet (4490)</text>
  <rect fill="blue" height="9.8" stroke="black" width="12" x="150" y="1280.8"/>
  <text x="150" y="1295.7" font-family="Tahoma" font-size="12" transform="rotate(90 150,1295.7)" text-rendering="optimizeSpeed" fill="#000000">hudson-mm-MMModuleSet (9847)</text>
  <rect fill="blue" height="56.7" stroke="black" width="12" x="165" y="1234.0"/>
  <text x="165" y="1295.7" font-family="Tahoma" font-size="12" transform="rotate(90 165,1295.7)" text-rendering="optimizeSpeed" fill="#000000">hudson-matrix-MatrixProject (56696)</text>
  <rect fill="blue" height="309.7" stroke="black" width="12" x="180" y="981.0"/>
  <text x="180" y="1295.7" font-family="Tahoma" font-size="12" transform="rotate(90 180,1295.7)" text-rendering="optimizeSpeed" fill="#000000">hudson-maven-MavenModuleSet (309675)</text>
  <rect fill="blue" height="1240.7" stroke="black" width="12" x="195" y="50.0"/>
  <text x="195" y="1295.7" font-family="Tahoma" font-size="12" transform="rotate(90 195,1295.7)" text-rendering="optimizeSpeed" fill="#000000">hudson-model-FreeStyleProject (1240659)</text>
  <text x="10" y="40" font-family="Tahoma" font-size="20" text-rendering="optimizeSpeed" fill="#000000">Jobs (total: 1624234)</text>
</svg>
