<svg xmlns="http://www.w3.org/2000/svg" version="1.1" preserveAspectRatio="xMidYMid meet" viewBox="0 0 720 1580">
  <text x="30" y="40" font-family="sans-serif" font-size="16">Nodes, total: 93633</text>
  <path d="M 200,300 L 0.0,150.0 A 150,150 0 0 1 5.5,150.0 Z" fill="BurlyWood" stroke="black" stroke-width="1"/>
  <rect x="370" y="50" width="20" height="30" fill="BurlyWood" stroke="black" stroke-width="1"/>
  <text x="400" y="38" font-family="sans-serif" font-size="16">AIX (ppc) (234)</text>
  <path d="M 200,300 L 5.5,150.0 A 150,150 0 0 1 9.4,149.9 Z" fill="CadetBlue" stroke="black" stroke-width="1"/>
  <rect x="370" y="51" width="20" height="30" fill="CadetBlue" stroke="black" stroke-width="1"/>
  <text x="400" y="68" font-family="sans-serif" font-size="16">AIX (ppc64) (165)</text>
  <path d="M 200,300 L 9.4,149.9 A 150,150 0 0 1 9.4,149.9 Z" fill="red" stroke="black" stroke-width="1"/>
  <rect x="370" y="52" width="20" height="30" fill="red" stroke="black" stroke-width="1"/>
  <text x="400" y="98" font-family="sans-serif" font-size="16">Darwin (i386) (2)</text>
  <path d="M 200,300 L 9.4,149.9 A 150,150 0 0 1 12.6,149.9 Z" fill="blue" stroke="black" stroke-width="1"/>
  <rect x="370" y="53" width="20" height="30" fill="blue" stroke="black" stroke-width="1"/>
  <text x="400" y="128" font-family="sans-serif" font-size="16">FreeBSD (amd64) (137)</text>
  <path d="M 200,300 L 12.6,149.9 A 150,150 0 0 1 15.5,149.9 Z" fill="yellow" stroke="black" stroke-width="1"/>
  <rect x="370" y="54" width="20" height="30" fill="yellow" stroke="black" stroke-width="1"/>
  <text x="400" y="158" font-family="sans-serif" font-size="16">FreeBSD (i386) (124)</text>
  <path d="M 200,300 L 15.5,149.9 A 150,150 0 0 1 18.3,149.8 Z" fill="green" stroke="black" stroke-width="1"/>
  <rect x="370" y="55" width="20" height="30" fill="green" stroke="black" stroke-width="1"/>
  <text x="400" y="188" font-family="sans-serif" font-size="16">HP-UX (IA64N) (117)</text>
  <path d="M 200,300 L 18.3,149.8 A 150,150 0 0 1 18.8,149.8 Z" fill="gold" stroke="black" stroke-width="1"/>
  <rect x="370" y="56" width="20" height="30" fill="gold" stroke="black" stroke-width="1"/>
  <text x="400" y="218" font-family="sans-serif" font-size="16">HP-UX (IA64W) (20)</text>
  <path d="M 200,300 L 18.8,149.8 A 150,150 0 0 1 20.3,149.7 Z" fill="brown" stroke="black" stroke-width="1"/>
  <rect x="370" y="57" width="20" height="30" fill="brown" stroke="black" stroke-width="1"/>
  <text x="400" y="248" font-family="sans-serif" font-size="16">HP-UX (PA_RISC2.0) (66)</text>
  <path d="M 200,300 L 20.3,149.7 A 150,150 0 0 1 20.3,149.7 Z" fill="Azure" stroke="black" stroke-width="1"/>
  <rect x="370" y="58" width="20" height="30" fill="Azure" stroke="black" stroke-width="1"/>
  <text x="400" y="278" font-family="sans-serif" font-size="16">HP-UX (PA_RISC2.0W) (1)</text>
  <path d="M 200,300 L 20.3,149.7 A 150,150 0 0 1 341.4,-33.0 Z" fill="pink" stroke="black" stroke-width="1"/>
  <rect x="370" y="59" width="20" height="30" fill="pink" stroke="black" stroke-width="1"/>
  <text x="400" y="308" font-family="sans-serif" font-size="16">Linux (amd64) (25849)</text>
  <path d="M 200,300 L 341.4,-33.0 A 150,150 0 0 1 341.3,-33.1 Z" fill="khaki" stroke="black" stroke-width="1"/>
  <rect x="370" y="60" width="20" height="30" fill="khaki" stroke="black" stroke-width="1"/>
  <text x="400" y="338" font-family="sans-serif" font-size="16">Linux (arm) (14)</text>
  <path d="M 200,300 L 341.3,-33.1 A 150,150 0 0 1 191.8,-125.5 Z" fill="gray" stroke="black" stroke-width="1"/>
  <rect x="370" y="61" width="20" height="30" fill="gray" stroke="black" stroke-width="1"/>
  <text x="400" y="368" font-family="sans-serif" font-size="16">Linux (i386) (11444)</text>
  <path d="M 200,300 L 191.8,-125.5 A 150,150 0 0 1 191.3,-125.6 Z" fill="Aqua" stroke="black" stroke-width="1"/>
  <rect x="370" y="62" width="20" height="30" fill="Aqua" stroke="black" stroke-width="1"/>
  <text x="400" y="398" font-family="sans-serif" font-size="16">Linux (ia64) (25)</text>
  <path d="M 200,300 L 191.3,-125.6 A 150,150 0 0 1 190.8,-125.7 Z" fill="Aquamarine" stroke="black" stroke-width="1"/>
  <rect x="370" y="63" width="20" height="30" fill="Aquamarine" stroke="black" stroke-width="1"/>
  <text x="400" y="428" font-family="sans-serif" font-size="16">Linux (ppc) (26)</text>
  <path d="M 200,300 L 190.8,-125.7 A 150,150 0 0 1 190.4,-125.9 Z" fill="beige" stroke="black" stroke-width="1"/>
  <rect x="370" y="64" width="20" height="30" fill="beige" stroke="black" stroke-width="1"/>
  <text x="400" y="458" font-family="sans-serif" font-size="16">Linux (ppc64) (22)</text>
  <path d="M 200,300 L 190.4,-125.9 A 150,150 0 0 1 190.4,-125.9 Z" fill="blueviolet" stroke="black" stroke-width="1"/>
  <rect x="370" y="65" width="20" height="30" fill="blueviolet" stroke="black" stroke-width="1"/>
  <text x="400" y="488" font-family="sans-serif" font-size="16">Linux (s390) (1)</text>
  <path d="M 200,300 L 190.4,-125.9 A 150,150 0 0 1 190.1,-125.9 Z" fill="Bisque" stroke="black" stroke-width="1"/>
  <rect x="370" y="66" width="20" height="30" fill="Bisque" stroke="black" stroke-width="1"/>
  <text x="400" y="518" font-family="sans-serif" font-size="16">Linux (s390x) (11)</text>
  <path d="M 200,300 L 190.1,-125.9 A 150,150 0 0 1 190.1,-125.9 Z" fill="coral" stroke="black" stroke-width="1"/>
  <rect x="370" y="67" width="20" height="30" fill="coral" stroke="black" stroke-width="1"/>
  <text x="400" y="548" font-family="sans-serif" font-size="16">Linux (sparc) (1)</text>
  <path d="M 200,300 L 190.1,-125.9 A 150,150 0 0 1 187.1,-126.8 Z" fill="darkblue" stroke="black" stroke-width="1"/>
  <rect x="370" y="68" width="20" height="30" fill="darkblue" stroke="black" stroke-width="1"/>
  <text x="400" y="578" font-family="sans-serif" font-size="16">Linux (x86) (151)</text>
  <path d="M 200,300 L 187.1,-126.8 A 150,150 0 0 1 187.1,-126.8 Z" fill="crimson" stroke="black" stroke-width="1"/>
  <rect x="370" y="69" width="20" height="30" fill="crimson" stroke="black" stroke-width="1"/>
  <text x="400" y="608" font-family="sans-serif" font-size="16">Mac OS X (amd64) (1)</text>
  <path d="M 200,300 L 187.1,-126.8 A 150,150 0 0 1 184.0,-127.6 Z" fill="cyan" stroke="black" stroke-width="1"/>
  <rect x="370" y="70" width="20" height="30" fill="cyan" stroke="black" stroke-width="1"/>
  <text x="400" y="638" font-family="sans-serif" font-size="16">Mac OS X (i386) (158)</text>
  <path d="M 200,300 L 184.0,-127.6 A 150,150 0 0 1 183.7,-127.7 Z" fill="darkred" stroke="black" stroke-width="1"/>
  <rect x="370" y="71" width="20" height="30" fill="darkred" stroke="black" stroke-width="1"/>
  <text x="400" y="668" font-family="sans-serif" font-size="16">Mac OS X (ppc) (13)</text>
  <path d="M 200,300 L 183.7,-127.7 A 150,150 0 0 1 124.9,-140.1 Z" fill="ivory" stroke="black" stroke-width="1"/>
  <rect x="370" y="72" width="20" height="30" fill="ivory" stroke="black" stroke-width="1"/>
  <text x="400" y="698" font-family="sans-serif" font-size="16">Mac OS X (x86_64) (2798)</text>
  <path d="M 200,300 L 124.9,-140.1 A 150,150 0 0 1 -348.6,-13.2 Z" fill="lime" stroke="black" stroke-width="1"/>
  <rect x="370" y="73" width="20" height="30" fill="lime" stroke="black" stroke-width="1"/>
  <text x="400" y="728" font-family="sans-serif" font-size="16">N/A (27531)</text>
  <path d="M 200,300 L -348.6,-13.2 A 150,150 0 0 1 -348.6,-13.2 Z" fill="maroon" stroke="black" stroke-width="1"/>
  <rect x="370" y="74" width="20" height="30" fill="maroon" stroke="black" stroke-width="1"/>
  <text x="400" y="758" font-family="sans-serif" font-size="16">NetBSD (amd64) (1)</text>
  <path d="M 200,300 L -348.6,-13.2 A 150,150 0 0 1 -348.7,-13.2 Z" fill="navy" stroke="black" stroke-width="1"/>
  <rect x="370" y="75" width="20" height="30" fill="navy" stroke="black" stroke-width="1"/>
  <text x="400" y="788" font-family="sans-serif" font-size="16">NetBSD (i386) (4)</text>
  <path d="M 200,300 L -348.7,-13.2 A 150,150 0 0 1 -348.7,-13.1 Z" fill="olive" stroke="black" stroke-width="1"/>
  <rect x="370" y="76" width="20" height="30" fill="olive" stroke="black" stroke-width="1"/>
  <text x="400" y="818" font-family="sans-serif" font-size="16">OpenBSD (amd64) (3)</text>
  <path d="M 200,300 L -348.7,-13.1 A 150,150 0 0 1 -348.7,-13.1 Z" fill="plum" stroke="black" stroke-width="1"/>
  <rect x="370" y="77" width="20" height="30" fill="plum" stroke="black" stroke-width="1"/>
  <text x="400" y="848" font-family="sans-serif" font-size="16">OpenBSD (i386) (4)</text>
  <path d="M 200,300 L -348.7,-13.1 A 150,150 0 0 1 -348.7,-13.1 Z" fill="peru" stroke="black" stroke-width="1"/>
  <rect x="370" y="78" width="20" height="30" fill="peru" stroke="black" stroke-width="1"/>
  <text x="400" y="878" font-family="sans-serif" font-size="16">QNX (i386) (1)</text>
  <path d="M 200,300 L -348.7,-13.1 A 150,150 0 0 1 -348.7,-12.9 Z" fill="silver" stroke="black" stroke-width="1"/>
  <rect x="370" y="79" width="20" height="30" fill="silver" stroke="black" stroke-width="1"/>
  <text x="400" y="908" font-family="sans-serif" font-size="16">SunOS (amd64) (21)</text>
  <path d="M 200,300 L -348.7,-12.9 A 150,150 0 0 1 -349.9,-3.4 Z" fill="tan" stroke="black" stroke-width="1"/>
  <rect x="370" y="80" width="20" height="30" fill="tan" stroke="black" stroke-width="1"/>
  <text x="400" y="938" font-family="sans-serif" font-size="16">SunOS (sparc) (939)</text>
  <path d="M 200,300 L -349.9,-3.4 A 150,150 0 0 1 -349.9,-2.9 Z" fill="teal" stroke="black" stroke-width="1"/>
  <rect x="370" y="81" width="20" height="30" fill="teal" stroke="black" stroke-width="1"/>
  <text x="400" y="968" font-family="sans-serif" font-size="16">SunOS (sparcv9) (57)</text>
  <path d="M 200,300 L -349.9,-2.9 A 150,150 0 0 1 -349.9,4.0 Z" fill="violet" stroke="black" stroke-width="1"/>
  <rect x="370" y="82" width="20" height="30" fill="violet" stroke="black" stroke-width="1"/>
  <text x="400" y="998" font-family="sans-serif" font-size="16">SunOS (x86) (680)</text>
  <path d="M 200,300 L -349.9,4.0 A 150,150 0 0 1 -349.9,4.0 Z" fill="AliceBlue" stroke="black" stroke-width="1"/>
  <rect x="370" y="83" width="20" height="30" fill="AliceBlue" stroke="black" stroke-width="1"/>
  <text x="400" y="1028" font-family="sans-serif" font-size="16">UnixWare (IA32) (1)</text>
  <path d="M 200,300 L -349.9,4.0 A 150,150 0 0 1 -349.8,4.6 Z" fill="DarkOliveGreen" stroke="black" stroke-width="1"/>
  <rect x="370" y="84" width="20" height="30" fill="DarkOliveGreen" stroke="black" stroke-width="1"/>
  <text x="400" y="1058" font-family="sans-serif" font-size="16">Windows 2000 (x86) (60)</text>
  <path d="M 200,300 L -349.8,4.6 A 150,150 0 0 1 -349.2,10.2 Z" fill="Indigo" stroke="black" stroke-width="1"/>
  <rect x="370" y="85" width="20" height="30" fill="Indigo" stroke="black" stroke-width="1"/>
  <text x="400" y="1088" font-family="sans-serif" font-size="16">Windows 2003 (amd64) (557)</text>
  <path d="M 200,300 L -349.2,10.2 A 150,150 0 0 1 -324.7,56.0 Z" fill="MediumPurple" stroke="black" stroke-width="1"/>
  <rect x="370" y="86" width="20" height="30" fill="MediumPurple" stroke="black" stroke-width="1"/>
  <text x="400" y="1118" font-family="sans-serif" font-size="16">Windows 2003 (x86) (4685)</text>
  <path d="M 200,300 L -324.7,56.0 A 150,150 0 0 1 -308.0,71.3 Z" fill="Purple" stroke="black" stroke-width="1"/>
  <rect x="370" y="87" width="20" height="30" fill="Purple" stroke="black" stroke-width="1"/>
  <text x="400" y="1148" font-family="sans-serif" font-size="16">Windows 7 (amd64) (1678)</text>
  <path d="M 200,300 L -308.0,71.3 A 150,150 0 0 1 -257.8,101.5 Z" fill="AntiqueWhite" stroke="black" stroke-width="1"/>
  <rect x="370" y="88" width="20" height="30" fill="AntiqueWhite" stroke="black" stroke-width="1"/>
  <text x="400" y="1178" font-family="sans-serif" font-size="16">Windows 7 (x86) (3694)</text>
  <path d="M 200,300 L -257.8,101.5 A 150,150 0 0 1 -256.4,102.1 Z" fill="DarkOrange" stroke="black" stroke-width="1"/>
  <rect x="370" y="89" width="20" height="30" fill="DarkOrange" stroke="black" stroke-width="1"/>
  <text x="400" y="1208" font-family="sans-serif" font-size="16">Windows NT (unknown) (amd64) (87)</text>
  <path d="M 200,300 L -256.4,102.1 A 150,150 0 0 1 -255.6,102.5 Z" fill="Ivory" stroke="black" stroke-width="1"/>
  <rect x="370" y="90" width="20" height="30" fill="Ivory" stroke="black" stroke-width="1"/>
  <text x="400" y="1238" font-family="sans-serif" font-size="16">Windows NT (unknown) (x86) (48)</text>
  <path d="M 200,300 L -255.6,102.5 A 150,150 0 0 1 -255.6,102.5 Z" fill="MediumSeaGreen" stroke="black" stroke-width="1"/>
  <rect x="370" y="91" width="20" height="30" fill="MediumSeaGreen" stroke="black" stroke-width="1"/>
  <text x="400" y="1268" font-family="sans-serif" font-size="16">Windows Server 2003 (amd64) (3)</text>
  <path d="M 200,300 L -255.6,102.5 A 150,150 0 0 1 -254.9,102.8 Z" fill="Red" stroke="black" stroke-width="1"/>
  <rect x="370" y="92" width="20" height="30" fill="Red" stroke="black" stroke-width="1"/>
  <text x="400" y="1298" font-family="sans-serif" font-size="16">Windows Server 2003 (x86) (42)</text>
  <path d="M 200,300 L -254.9,102.8 A 150,150 0 0 1 -246.7,106.4 Z" fill="Aqua" stroke="black" stroke-width="1"/>
  <rect x="370" y="93" width="20" height="30" fill="Aqua" stroke="black" stroke-width="1"/>
  <text x="400" y="1328" font-family="sans-serif" font-size="16">Windows Server 2008 (amd64) (499)</text>
  <path d="M 200,300 L -246.7,106.4 A 150,150 0 0 1 -229.1,113.4 Z" fill="DarkOrchid" stroke="black" stroke-width="1"/>
  <rect x="370" y="94" width="20" height="30" fill="DarkOrchid" stroke="black" stroke-width="1"/>
  <text x="400" y="1358" font-family="sans-serif" font-size="16">Windows Server 2008 (x86) (1023)</text>
  <path d="M 200,300 L -229.1,113.4 A 150,150 0 0 1 -189.4,126.1 Z" fill="Khaki" stroke="black" stroke-width="1"/>
  <rect x="370" y="95" width="20" height="30" fill="Khaki" stroke="black" stroke-width="1"/>
  <text x="400" y="1388" font-family="sans-serif" font-size="16">Windows Server 2008 R2 (amd64) (2112)</text>
  <path d="M 200,300 L -189.4,126.1 A 150,150 0 0 1 -139.3,137.6 Z" fill="MediumSlateBlue" stroke="black" stroke-width="1"/>
  <rect x="370" y="96" width="20" height="30" fill="MediumSlateBlue" stroke="black" stroke-width="1"/>
  <text x="400" y="1418" font-family="sans-serif" font-size="16">Windows Server 2008 R2 (x86) (2425)</text>
  <path d="M 200,300 L -139.3,137.6 A 150,150 0 0 1 -138.2,137.8 Z" fill="RosyBrown" stroke="black" stroke-width="1"/>
  <rect x="370" y="97" width="20" height="30" fill="RosyBrown" stroke="black" stroke-width="1"/>
  <text x="400" y="1448" font-family="sans-serif" font-size="16">Windows Vista (amd64) (51)</text>
  <path d="M 200,300 L -138.2,137.8 A 150,150 0 0 1 -128.6,139.5 Z" fill="AquaMarine" stroke="black" stroke-width="1"/>
  <rect x="370" y="98" width="20" height="30" fill="AquaMarine" stroke="black" stroke-width="1"/>
  <text x="400" y="1478" font-family="sans-serif" font-size="16">Windows Vista (x86) (441)</text>
  <path d="M 200,300 L -128.6,139.5 A 150,150 0 0 1 -125.8,140.0 Z" fill="DarkRed" stroke="black" stroke-width="1"/>
  <rect x="370" y="99" width="20" height="30" fill="DarkRed" stroke="black" stroke-width="1"/>
  <text x="400" y="1508" font-family="sans-serif" font-size="16">Windows XP (amd64) (127)</text>
  <path d="M 200,300 L -125.8,140.0 A 150,150 0 0 1 -0.0,150.0 Z" fill="Lavender" stroke="black" stroke-width="1"/>
  <rect x="370" y="100" width="20" height="30" fill="Lavender" stroke="black" stroke-width="1"/>
  <text x="400" y="1538" font-family="sans-serif" font-size="16">Windows XP (x86) (5479)</text>
</svg>
