<svg xmlns="http://www.w3.org/2000/svg" version="1.1" preserveAspectRatio="xMidYMid meet" viewBox="0 0 2240 765.4">
  <rect fill="blue" height="2.5" stroke="black" width="12" x="15" y="462.9"/>
  <text x="15" y="470.4" font-family="Tahoma" font-size="12" transform="rotate(90 15,470.4)" text-rendering="optimizeSpeed" fill="#000000">1.368 (25)</text>
  <rect fill="blue" height="4.4" stroke="black" width="12" x="30" y="461.0"/>
  <text x="30" y="470.4" font-family="Tahoma" font-size="12" transform="rotate(90 30,470.4)" text-rendering="optimizeSpeed" fill="#000000">1.369 (44)</text>
  <rect fill="blue" height="1.2" stroke="black" width="12" x="45" y="464.2"/>
  <text x="45" y="470.4" font-family="Tahoma" font-size="12" transform="rotate(90 45,470.4)" text-rendering="optimizeSpeed" fill="#000000">1.370 (12)</text>
  <rect fill="blue" height="2.3" stroke="black" width="12" x="60" y="463.1"/>
  <text x="60" y="470.4" font-family="Tahoma" font-size="12" transform="rotate(90 60,470.4)" text-rendering="optimizeSpeed" fill="#000000">1.371 (23)</text>
  <rect fill="blue" height="3.1" stroke="black" width="12" x="75" y="462.3"/>
  <text x="75" y="470.4" font-family="Tahoma" font-size="12" transform="rotate(90 75,470.4)" text-rendering="optimizeSpeed" fill="#000000">1.372 (31)</text>
  <rect fill="blue" height="3.0" stroke="black" width="12" x="90" y="462.4"/>
  <text x="90" y="470.4" font-family="Tahoma" font-size="12" transform="rotate(90 90,470.4)" text-rendering="optimizeSpeed" fill="#000000">1.373 (30)</text>
  <rect fill="blue" height="6.4" stroke="black" width="12" x="105" y="459.0"/>
  <text x="105" y="470.4" font-family="Tahoma" font-size="12" transform="rotate(90 105,470.4)" text-rendering="optimizeSpeed" fill="#000000">1.374 (64)</text>
  <rect fill="blue" height="3.1" stroke="black" width="12" x="120" y="462.3"/>
  <text x="120" y="470.4" font-family="Tahoma" font-size="12" transform="rotate(90 120,470.4)" text-rendering="optimizeSpeed" fill="#000000">1.375 (31)</text>
  <rect fill="blue" height="4.8" stroke="black" width="12" x="135" y="460.6"/>
  <text x="135" y="470.4" font-family="Tahoma" font-size="12" transform="rotate(90 135,470.4)" text-rendering="optimizeSpeed" fill="#000000">1.376 (48)</text>
  <rect fill="blue" height="5.8" stroke="black" width="12" x="150" y="459.6"/>
  <text x="150" y="470.4" font-family="Tahoma" font-size="12" transform="rotate(90 150,470.4)" text-rendering="optimizeSpeed" fill="#000000">1.377 (58)</text>
  <rect fill="blue" height="3.9" stroke="black" width="12" x="165" y="461.5"/>
  <text x="165" y="470.4" font-family="Tahoma" font-size="12" transform="rotate(90 165,470.4)" text-rendering="optimizeSpeed" fill="#000000">1.378 (39)</text>
  <rect fill="blue" height="9.7" stroke="black" width="12" x="180" y="455.7"/>
  <text x="180" y="470.4" font-family="Tahoma" font-size="12" transform="rotate(90 180,470.4)" text-rendering="optimizeSpeed" fill="#000000">1.379 (97)</text>
  <rect fill="blue" height="2.2" stroke="black" width="12" x="195" y="463.2"/>
  <text x="195" y="470.4" font-family="Tahoma" font-size="12" transform="rotate(90 195,470.4)" text-rendering="optimizeSpeed" fill="#000000">1.380 (22)</text>
  <rect fill="blue" height="10.3" stroke="black" width="12" x="210" y="455.1"/>
  <text x="210" y="470.4" font-family="Tahoma" font-size="12" transform="rotate(90 210,470.4)" text-rendering="optimizeSpeed" fill="#000000">1.381 (103)</text>
  <rect fill="blue" height="2.5" stroke="black" width="12" x="225" y="462.9"/>
  <text x="225" y="470.4" font-family="Tahoma" font-size="12" transform="rotate(90 225,470.4)" text-rendering="optimizeSpeed" fill="#000000">1.382 (25)</text>
  <rect fill="blue" height="6.5" stroke="black" width="12" x="240" y="458.9"/>
  <text x="240" y="470.4" font-family="Tahoma" font-size="12" transform="rotate(90 240,470.4)" text-rendering="optimizeSpeed" fill="#000000">1.383 (65)</text>
  <rect fill="blue" height="11.0" stroke="black" width="12" x="255" y="454.4"/>
  <text x="255" y="470.4" font-family="Tahoma" font-size="12" transform="rotate(90 255,470.4)" text-rendering="optimizeSpeed" fill="#000000">1.384 (110)</text>
  <rect fill="blue" height="3.7" stroke="black" width="12" x="270" y="461.7"/>
  <text x="270" y="470.4" font-family="Tahoma" font-size="12" transform="rotate(90 270,470.4)" text-rendering="optimizeSpeed" fill="#000000">1.385 (37)</text>
  <rect fill="blue" height="23.0" stroke="black" width="12" x="285" y="442.4"/>
  <text x="285" y="470.4" font-family="Tahoma" font-size="12" transform="rotate(90 285,470.4)" text-rendering="optimizeSpeed" fill="#000000">1.386 (230)</text>
  <rect fill="blue" height="4.1" stroke="black" width="12" x="300" y="461.3"/>
  <text x="300" y="470.4" font-family="Tahoma" font-size="12" transform="rotate(90 300,470.4)" text-rendering="optimizeSpeed" fill="#000000">1.387 (41)</text>
  <rect fill="blue" height="3.3" stroke="black" width="12" x="315" y="462.1"/>
  <text x="315" y="470.4" font-family="Tahoma" font-size="12" transform="rotate(90 315,470.4)" text-rendering="optimizeSpeed" fill="#000000">1.388 (33)</text>
  <rect fill="blue" height="7.0" stroke="black" width="12" x="330" y="458.4"/>
  <text x="330" y="470.4" font-family="Tahoma" font-size="12" transform="rotate(90 330,470.4)" text-rendering="optimizeSpeed" fill="#000000">1.389 (70)</text>
  <rect fill="blue" height="0.4" stroke="black" width="12" x="345" y="465.0"/>
  <text x="345" y="470.4" font-family="Tahoma" font-size="12" transform="rotate(90 345,470.4)" text-rendering="optimizeSpeed" fill="#000000">1.390 (4)</text>
  <rect fill="blue" height="1.5" stroke="black" width="12" x="360" y="463.9"/>
  <text x="360" y="470.4" font-family="Tahoma" font-size="12" transform="rotate(90 360,470.4)" text-rendering="optimizeSpeed" fill="#000000">1.391 (15)</text>
  <rect fill="blue" height="9.3" stroke="black" width="12" x="375" y="456.1"/>
  <text x="375" y="470.4" font-family="Tahoma" font-size="12" transform="rotate(90 375,470.4)" text-rendering="optimizeSpeed" fill="#000000">1.392 (93)</text>
  <rect fill="blue" height="0.1" stroke="black" width="12" x="390" y="465.3"/>
  <text x="390" y="470.4" font-family="Tahoma" font-size="12" transform="rotate(90 390,470.4)" text-rendering="optimizeSpeed" fill="#000000">1.392.LI10 (1)</text>
  <rect fill="blue" height="0.4" stroke="black" width="12" x="405" y="465.0"/>
  <text x="405" y="470.4" font-family="Tahoma" font-size="12" transform="rotate(90 405,470.4)" text-rendering="optimizeSpeed" fill="#000000">1.392.LI22 (4)</text>
  <rect fill="blue" height="17.0" stroke="black" width="12" x="420" y="448.4"/>
  <text x="420" y="470.4" font-family="Tahoma" font-size="12" transform="rotate(90 420,470.4)" text-rendering="optimizeSpeed" fill="#000000">1.393 (170)</text>
  <rect fill="blue" height="20.6" stroke="black" width="12" x="435" y="444.8"/>
  <text x="435" y="470.4" font-family="Tahoma" font-size="12" transform="rotate(90 435,470.4)" text-rendering="optimizeSpeed" fill="#000000">1.394 (206)</text>
  <rect fill="blue" height="36.4" stroke="black" width="12" x="450" y="429.0"/>
  <text x="450" y="470.4" font-family="Tahoma" font-size="12" transform="rotate(90 450,470.4)" text-rendering="optimizeSpeed" fill="#000000">1.395 (364)</text>
  <rect fill="blue" height="40.6" stroke="black" width="12" x="465" y="424.8"/>
  <text x="465" y="470.4" font-family="Tahoma" font-size="12" transform="rotate(90 465,470.4)" text-rendering="optimizeSpeed" fill="#000000">1.395.1 (406)</text>
  <rect fill="blue" height="3.0" stroke="black" width="12" x="480" y="462.4"/>
  <text x="480" y="470.4" font-family="Tahoma" font-size="12" transform="rotate(90 480,470.4)" text-rendering="optimizeSpeed" fill="#000000">1.396 (30)</text>
  <rect fill="blue" height="2.0" stroke="black" width="12" x="495" y="463.4"/>
  <text x="495" y="470.4" font-family="Tahoma" font-size="12" transform="rotate(90 495,470.4)" text-rendering="optimizeSpeed" fill="#000000">1.397 (20)</text>
  <rect fill="blue" height="2.6" stroke="black" width="12" x="510" y="462.8"/>
  <text x="510" y="470.4" font-family="Tahoma" font-size="12" transform="rotate(90 510,470.4)" text-rendering="optimizeSpeed" fill="#000000">1.398 (26)</text>
  <rect fill="blue" height="4.2" stroke="black" width="12" x="525" y="461.2"/>
  <text x="525" y="470.4" font-family="Tahoma" font-size="12" transform="rotate(90 525,470.4)" text-rendering="optimizeSpeed" fill="#000000">1.399 (42)</text>
  <rect fill="blue" height="3.1" stroke="black" width="12" x="540" y="462.3"/>
  <text x="540" y="470.4" font-family="Tahoma" font-size="12" transform="rotate(90 540,470.4)" text-rendering="optimizeSpeed" fill="#000000">1.400 (31)</text>
  <rect fill="blue" height="5.8" stroke="black" width="12" x="555" y="459.6"/>
  <text x="555" y="470.4" font-family="Tahoma" font-size="12" transform="rotate(90 555,470.4)" text-rendering="optimizeSpeed" fill="#000000">1.401 (58)</text>
  <rect fill="blue" height="5.1" stroke="black" width="12" x="570" y="460.3"/>
  <text x="570" y="470.4" font-family="Tahoma" font-size="12" transform="rotate(90 570,470.4)" text-rendering="optimizeSpeed" fill="#000000">1.403 (51)</text>
  <rect fill="blue" height="4.5" stroke="black" width="12" x="585" y="460.9"/>
  <text x="585" y="470.4" font-family="Tahoma" font-size="12" transform="rotate(90 585,470.4)" text-rendering="optimizeSpeed" fill="#000000">1.404 (45)</text>
  <rect fill="blue" height="3.5" stroke="black" width="12" x="600" y="461.9"/>
  <text x="600" y="470.4" font-family="Tahoma" font-size="12" transform="rotate(90 600,470.4)" text-rendering="optimizeSpeed" fill="#000000">1.405 (35)</text>
  <rect fill="blue" height="3.2" stroke="black" width="12" x="615" y="462.2"/>
  <text x="615" y="470.4" font-family="Tahoma" font-size="12" transform="rotate(90 615,470.4)" text-rendering="optimizeSpeed" fill="#000000">1.406 (32)</text>
  <rect fill="blue" height="0.7" stroke="black" width="12" x="630" y="464.7"/>
  <text x="630" y="470.4" font-family="Tahoma" font-size="12" transform="rotate(90 630,470.4)" text-rendering="optimizeSpeed" fill="#000000">1.407 (7)</text>
  <rect fill="blue" height="4.7" stroke="black" width="12" x="645" y="460.7"/>
  <text x="645" y="470.4" font-family="Tahoma" font-size="12" transform="rotate(90 645,470.4)" text-rendering="optimizeSpeed" fill="#000000">1.408 (47)</text>
  <rect fill="blue" height="5.3" stroke="black" width="12" x="660" y="460.1"/>
  <text x="660" y="470.4" font-family="Tahoma" font-size="12" transform="rotate(90 660,470.4)" text-rendering="optimizeSpeed" fill="#000000">1.409 (53)</text>
  <rect fill="blue" height="15.3" stroke="black" width="12" x="675" y="450.1"/>
  <text x="675" y="470.4" font-family="Tahoma" font-size="12" transform="rotate(90 675,470.4)" text-rendering="optimizeSpeed" fill="#000000">1.409.1 (153)</text>
  <rect fill="blue" height="4.4" stroke="black" width="12" x="690" y="461.0"/>
  <text x="690" y="470.4" font-family="Tahoma" font-size="12" transform="rotate(90 690,470.4)" text-rendering="optimizeSpeed" fill="#000000">1.409.2 (44)</text>
  <rect fill="blue" height="3.1" stroke="black" width="12" x="705" y="462.3"/>
  <text x="705" y="470.4" font-family="Tahoma" font-size="12" transform="rotate(90 705,470.4)" text-rendering="optimizeSpeed" fill="#000000">1.409.3 (31)</text>
  <rect fill="blue" height="9.6" stroke="black" width="12" x="720" y="455.8"/>
  <text x="720" y="470.4" font-family="Tahoma" font-size="12" transform="rotate(90 720,470.4)" text-rendering="optimizeSpeed" fill="#000000">1.410 (96)</text>
  <rect fill="blue" height="6.0" stroke="black" width="12" x="735" y="459.4"/>
  <text x="735" y="470.4" font-family="Tahoma" font-size="12" transform="rotate(90 735,470.4)" text-rendering="optimizeSpeed" fill="#000000">1.411 (60)</text>
  <rect fill="blue" height="4.0" stroke="black" width="12" x="750" y="461.4"/>
  <text x="750" y="470.4" font-family="Tahoma" font-size="12" transform="rotate(90 750,470.4)" text-rendering="optimizeSpeed" fill="#000000">1.412 (40)</text>
  <rect fill="blue" height="11.3" stroke="black" width="12" x="765" y="454.1"/>
  <text x="765" y="470.4" font-family="Tahoma" font-size="12" transform="rotate(90 765,470.4)" text-rendering="optimizeSpeed" fill="#000000">1.413 (113)</text>
  <rect fill="blue" height="8.4" stroke="black" width="12" x="780" y="457.0"/>
  <text x="780" y="470.4" font-family="Tahoma" font-size="12" transform="rotate(90 780,470.4)" text-rendering="optimizeSpeed" fill="#000000">1.414 (84)</text>
  <rect fill="blue" height="5.8" stroke="black" width="12" x="795" y="459.6"/>
  <text x="795" y="470.4" font-family="Tahoma" font-size="12" transform="rotate(90 795,470.4)" text-rendering="optimizeSpeed" fill="#000000">1.415 (58)</text>
  <rect fill="blue" height="1.2" stroke="black" width="12" x="810" y="464.2"/>
  <text x="810" y="470.4" font-family="Tahoma" font-size="12" transform="rotate(90 810,470.4)" text-rendering="optimizeSpeed" fill="#000000">1.416 (12)</text>
  <rect fill="blue" height="6.2" stroke="black" width="12" x="825" y="459.2"/>
  <text x="825" y="470.4" font-family="Tahoma" font-size="12" transform="rotate(90 825,470.4)" text-rendering="optimizeSpeed" fill="#000000">1.417 (62)</text>
  <rect fill="blue" height="7.7" stroke="black" width="12" x="840" y="457.7"/>
  <text x="840" y="470.4" font-family="Tahoma" font-size="12" transform="rotate(90 840,470.4)" text-rendering="optimizeSpeed" fill="#000000">1.418 (77)</text>
  <rect fill="blue" height="6.5" stroke="black" width="12" x="855" y="458.9"/>
  <text x="855" y="470.4" font-family="Tahoma" font-size="12" transform="rotate(90 855,470.4)" text-rendering="optimizeSpeed" fill="#000000">1.419 (65)</text>
  <rect fill="blue" height="8.5" stroke="black" width="12" x="870" y="456.9"/>
  <text x="870" y="470.4" font-family="Tahoma" font-size="12" transform="rotate(90 870,470.4)" text-rendering="optimizeSpeed" fill="#000000">1.420 (85)</text>
  <rect fill="blue" height="8.8" stroke="black" width="12" x="885" y="456.6"/>
  <text x="885" y="470.4" font-family="Tahoma" font-size="12" transform="rotate(90 885,470.4)" text-rendering="optimizeSpeed" fill="#000000">1.421 (88)</text>
  <rect fill="blue" height="6.9" stroke="black" width="12" x="900" y="458.5"/>
  <text x="900" y="470.4" font-family="Tahoma" font-size="12" transform="rotate(90 900,470.4)" text-rendering="optimizeSpeed" fill="#000000">1.423 (69)</text>
  <rect fill="blue" height="15.8" stroke="black" width="12" x="915" y="449.6"/>
  <text x="915" y="470.4" font-family="Tahoma" font-size="12" transform="rotate(90 915,470.4)" text-rendering="optimizeSpeed" fill="#000000">1.424 (158)</text>
  <rect fill="blue" height="6.0" stroke="black" width="12" x="930" y="459.4"/>
  <text x="930" y="470.4" font-family="Tahoma" font-size="12" transform="rotate(90 930,470.4)" text-rendering="optimizeSpeed" fill="#000000">1.424.1 (60)</text>
  <rect fill="blue" height="11.2" stroke="black" width="12" x="945" y="454.2"/>
  <text x="945" y="470.4" font-family="Tahoma" font-size="12" transform="rotate(90 945,470.4)" text-rendering="optimizeSpeed" fill="#000000">1.424.2 (112)</text>
  <rect fill="blue" height="0.8" stroke="black" width="12" x="960" y="464.6"/>
  <text x="960" y="470.4" font-family="Tahoma" font-size="12" transform="rotate(90 960,470.4)" text-rendering="optimizeSpeed" fill="#000000">1.424.3 (8)</text>
  <rect fill="blue" height="66.5" stroke="black" width="12" x="975" y="398.9"/>
  <text x="975" y="470.4" font-family="Tahoma" font-size="12" transform="rotate(90 975,470.4)" text-rendering="optimizeSpeed" fill="#000000">1.424.6 (665)</text>
  <rect fill="blue" height="0.1" stroke="black" width="12" x="990" y="465.3"/>
  <text x="990" y="470.4" font-family="Tahoma" font-size="12" transform="rotate(90 990,470.4)" text-rendering="optimizeSpeed" fill="#000000">1.424.6.10 (1)</text>
  <rect fill="blue" height="14.4" stroke="black" width="12" x="1005" y="451.0"/>
  <text x="1005" y="470.4" font-family="Tahoma" font-size="12" transform="rotate(90 1005,470.4)" text-rendering="optimizeSpeed" fill="#000000">1.425 (144)</text>
  <rect fill="blue" height="5.5" stroke="black" width="12" x="1020" y="459.9"/>
  <text x="1020" y="470.4" font-family="Tahoma" font-size="12" transform="rotate(90 1020,470.4)" text-rendering="optimizeSpeed" fill="#000000">1.426 (55)</text>
  <rect fill="blue" height="13.7" stroke="black" width="12" x="1035" y="451.7"/>
  <text x="1035" y="470.4" font-family="Tahoma" font-size="12" transform="rotate(90 1035,470.4)" text-rendering="optimizeSpeed" fill="#000000">1.427 (137)</text>
  <rect fill="blue" height="11.7" stroke="black" width="12" x="1050" y="453.7"/>
  <text x="1050" y="470.4" font-family="Tahoma" font-size="12" transform="rotate(90 1050,470.4)" text-rendering="optimizeSpeed" fill="#000000">1.428 (117)</text>
  <rect fill="blue" height="8.6" stroke="black" width="12" x="1065" y="456.8"/>
  <text x="1065" y="470.4" font-family="Tahoma" font-size="12" transform="rotate(90 1065,470.4)" text-rendering="optimizeSpeed" fill="#000000">1.429 (86)</text>
  <rect fill="blue" height="16.1" stroke="black" width="12" x="1080" y="449.3"/>
  <text x="1080" y="470.4" font-family="Tahoma" font-size="12" transform="rotate(90 1080,470.4)" text-rendering="optimizeSpeed" fill="#000000">1.430 (161)</text>
  <rect fill="blue" height="13.7" stroke="black" width="12" x="1095" y="451.7"/>
  <text x="1095" y="470.4" font-family="Tahoma" font-size="12" transform="rotate(90 1095,470.4)" text-rendering="optimizeSpeed" fill="#000000">1.431 (137)</text>
  <rect fill="blue" height="17.4" stroke="black" width="12" x="1110" y="448.0"/>
  <text x="1110" y="470.4" font-family="Tahoma" font-size="12" transform="rotate(90 1110,470.4)" text-rendering="optimizeSpeed" fill="#000000">1.432 (174)</text>
  <rect fill="blue" height="11.5" stroke="black" width="12" x="1125" y="453.9"/>
  <text x="1125" y="470.4" font-family="Tahoma" font-size="12" transform="rotate(90 1125,470.4)" text-rendering="optimizeSpeed" fill="#000000">1.433 (115)</text>
  <rect fill="blue" height="15.4" stroke="black" width="12" x="1140" y="450.0"/>
  <text x="1140" y="470.4" font-family="Tahoma" font-size="12" transform="rotate(90 1140,470.4)" text-rendering="optimizeSpeed" fill="#000000">1.434 (154)</text>
  <rect fill="blue" height="6.7" stroke="black" width="12" x="1155" y="458.7"/>
  <text x="1155" y="470.4" font-family="Tahoma" font-size="12" transform="rotate(90 1155,470.4)" text-rendering="optimizeSpeed" fill="#000000">1.435 (67)</text>
  <rect fill="blue" height="0.1" stroke="black" width="12" x="1170" y="465.3"/>
  <text x="1170" y="470.4" font-family="Tahoma" font-size="12" transform="rotate(90 1170,470.4)" text-rendering="optimizeSpeed" fill="#000000">1.436-patched (1)</text>
  <rect fill="blue" height="16.8" stroke="black" width="12" x="1185" y="448.6"/>
  <text x="1185" y="470.4" font-family="Tahoma" font-size="12" transform="rotate(90 1185,470.4)" text-rendering="optimizeSpeed" fill="#000000">1.436 (168)</text>
  <rect fill="blue" height="13.8" stroke="black" width="12" x="1200" y="451.6"/>
  <text x="1200" y="470.4" font-family="Tahoma" font-size="12" transform="rotate(90 1200,470.4)" text-rendering="optimizeSpeed" fill="#000000">1.437 (138)</text>
  <rect fill="blue" height="15.6" stroke="black" width="12" x="1215" y="449.8"/>
  <text x="1215" y="470.4" font-family="Tahoma" font-size="12" transform="rotate(90 1215,470.4)" text-rendering="optimizeSpeed" fill="#000000">1.438 (156)</text>
  <rect fill="blue" height="10.6" stroke="black" width="12" x="1230" y="454.8"/>
  <text x="1230" y="470.4" font-family="Tahoma" font-size="12" transform="rotate(90 1230,470.4)" text-rendering="optimizeSpeed" fill="#000000">1.439 (106)</text>
  <rect fill="blue" height="18.3" stroke="black" width="12" x="1245" y="447.1"/>
  <text x="1245" y="470.4" font-family="Tahoma" font-size="12" transform="rotate(90 1245,470.4)" text-rendering="optimizeSpeed" fill="#000000">1.440 (183)</text>
  <rect fill="blue" height="26.9" stroke="black" width="12" x="1260" y="438.5"/>
  <text x="1260" y="470.4" font-family="Tahoma" font-size="12" transform="rotate(90 1260,470.4)" text-rendering="optimizeSpeed" fill="#000000">1.441 (269)</text>
  <rect fill="blue" height="17.1" stroke="black" width="12" x="1275" y="448.3"/>
  <text x="1275" y="470.4" font-family="Tahoma" font-size="12" transform="rotate(90 1275,470.4)" text-rendering="optimizeSpeed" fill="#000000">1.442 (171)</text>
  <rect fill="blue" height="20.3" stroke="black" width="12" x="1290" y="445.1"/>
  <text x="1290" y="470.4" font-family="Tahoma" font-size="12" transform="rotate(90 1290,470.4)" text-rendering="optimizeSpeed" fill="#000000">1.443 (203)</text>
  <rect fill="blue" height="14.6" stroke="black" width="12" x="1305" y="450.8"/>
  <text x="1305" y="470.4" font-family="Tahoma" font-size="12" transform="rotate(90 1305,470.4)" text-rendering="optimizeSpeed" fill="#000000">1.444 (146)</text>
  <rect fill="blue" height="9.1" stroke="black" width="12" x="1320" y="456.3"/>
  <text x="1320" y="470.4" font-family="Tahoma" font-size="12" transform="rotate(90 1320,470.4)" text-rendering="optimizeSpeed" fill="#000000">1.445 (91)</text>
  <rect fill="blue" height="16.3" stroke="black" width="12" x="1335" y="449.1"/>
  <text x="1335" y="470.4" font-family="Tahoma" font-size="12" transform="rotate(90 1335,470.4)" text-rendering="optimizeSpeed" fill="#000000">1.446 (163)</text>
  <rect fill="blue" height="25.9" stroke="black" width="12" x="1350" y="439.5"/>
  <text x="1350" y="470.4" font-family="Tahoma" font-size="12" transform="rotate(90 1350,470.4)" text-rendering="optimizeSpeed" fill="#000000">1.447 (259)</text>
  <rect fill="blue" height="24.1" stroke="black" width="12" x="1365" y="441.3"/>
  <text x="1365" y="470.4" font-family="Tahoma" font-size="12" transform="rotate(90 1365,470.4)" text-rendering="optimizeSpeed" fill="#000000">1.447.1 (241)</text>
  <rect fill="blue" height="0.1" stroke="black" width="12" x="1380" y="465.3"/>
  <text x="1380" y="470.4" font-family="Tahoma" font-size="12" transform="rotate(90 1380,470.4)" text-rendering="optimizeSpeed" fill="#000000">1.447.2-somc-1 (1)</text>
  <rect fill="blue" height="26.0" stroke="black" width="12" x="1395" y="439.4"/>
  <text x="1395" y="470.4" font-family="Tahoma" font-size="12" transform="rotate(90 1395,470.4)" text-rendering="optimizeSpeed" fill="#000000">1.447.2 (260)</text>
  <rect fill="blue" height="16.4" stroke="black" width="12" x="1410" y="449.0"/>
  <text x="1410" y="470.4" font-family="Tahoma" font-size="12" transform="rotate(90 1410,470.4)" text-rendering="optimizeSpeed" fill="#000000">1.448 (164)</text>
  <rect fill="blue" height="27.9" stroke="black" width="12" x="1425" y="437.5"/>
  <text x="1425" y="470.4" font-family="Tahoma" font-size="12" transform="rotate(90 1425,470.4)" text-rendering="optimizeSpeed" fill="#000000">1.449 (279)</text>
  <rect fill="blue" height="51.6" stroke="black" width="12" x="1440" y="413.8"/>
  <text x="1440" y="470.4" font-family="Tahoma" font-size="12" transform="rotate(90 1440,470.4)" text-rendering="optimizeSpeed" fill="#000000">1.450 (516)</text>
  <rect fill="blue" height="53.2" stroke="black" width="12" x="1455" y="412.2"/>
  <text x="1455" y="470.4" font-family="Tahoma" font-size="12" transform="rotate(90 1455,470.4)" text-rendering="optimizeSpeed" fill="#000000">1.451 (532)</text>
  <rect fill="blue" height="36.2" stroke="black" width="12" x="1470" y="429.2"/>
  <text x="1470" y="470.4" font-family="Tahoma" font-size="12" transform="rotate(90 1470,470.4)" text-rendering="optimizeSpeed" fill="#000000">1.452 (362)</text>
  <rect fill="blue" height="1.0" stroke="black" width="12" x="1485" y="464.4"/>
  <text x="1485" y="470.4" font-family="Tahoma" font-size="12" transform="rotate(90 1485,470.4)" text-rendering="optimizeSpeed" fill="#000000">1.453 (10)</text>
  <rect fill="blue" height="32.8" stroke="black" width="12" x="1500" y="432.6"/>
  <text x="1500" y="470.4" font-family="Tahoma" font-size="12" transform="rotate(90 1500,470.4)" text-rendering="optimizeSpeed" fill="#000000">1.454 (328)</text>
  <rect fill="blue" height="34.5" stroke="black" width="12" x="1515" y="430.9"/>
  <text x="1515" y="470.4" font-family="Tahoma" font-size="12" transform="rotate(90 1515,470.4)" text-rendering="optimizeSpeed" fill="#000000">1.455 (345)</text>
  <rect fill="blue" height="51.3" stroke="black" width="12" x="1530" y="414.1"/>
  <text x="1530" y="470.4" font-family="Tahoma" font-size="12" transform="rotate(90 1530,470.4)" text-rendering="optimizeSpeed" fill="#000000">1.456 (513)</text>
  <rect fill="blue" height="39.8" stroke="black" width="12" x="1545" y="425.6"/>
  <text x="1545" y="470.4" font-family="Tahoma" font-size="12" transform="rotate(90 1545,470.4)" text-rendering="optimizeSpeed" fill="#000000">1.457 (398)</text>
  <rect fill="blue" height="35.7" stroke="black" width="12" x="1560" y="429.7"/>
  <text x="1560" y="470.4" font-family="Tahoma" font-size="12" transform="rotate(90 1560,470.4)" text-rendering="optimizeSpeed" fill="#000000">1.458 (357)</text>
  <rect fill="blue" height="32.6" stroke="black" width="12" x="1575" y="432.8"/>
  <text x="1575" y="470.4" font-family="Tahoma" font-size="12" transform="rotate(90 1575,470.4)" text-rendering="optimizeSpeed" fill="#000000">1.459 (326)</text>
  <rect fill="blue" height="55.6" stroke="black" width="12" x="1590" y="409.8"/>
  <text x="1590" y="470.4" font-family="Tahoma" font-size="12" transform="rotate(90 1590,470.4)" text-rendering="optimizeSpeed" fill="#000000">1.460 (556)</text>
  <rect fill="blue" height="36.5" stroke="black" width="12" x="1605" y="428.9"/>
  <text x="1605" y="470.4" font-family="Tahoma" font-size="12" transform="rotate(90 1605,470.4)" text-rendering="optimizeSpeed" fill="#000000">1.461 (365)</text>
  <rect fill="blue" height="36.7" stroke="black" width="12" x="1620" y="428.7"/>
  <text x="1620" y="470.4" font-family="Tahoma" font-size="12" transform="rotate(90 1620,470.4)" text-rendering="optimizeSpeed" fill="#000000">1.462 (367)</text>
  <rect fill="blue" height="38.7" stroke="black" width="12" x="1635" y="426.7"/>
  <text x="1635" y="470.4" font-family="Tahoma" font-size="12" transform="rotate(90 1635,470.4)" text-rendering="optimizeSpeed" fill="#000000">1.463 (387)</text>
  <rect fill="blue" height="46.3" stroke="black" width="12" x="1650" y="419.1"/>
  <text x="1650" y="470.4" font-family="Tahoma" font-size="12" transform="rotate(90 1650,470.4)" text-rendering="optimizeSpeed" fill="#000000">1.464 (463)</text>
  <rect fill="blue" height="0.4" stroke="black" width="12" x="1665" y="465.0"/>
  <text x="1665" y="470.4" font-family="Tahoma" font-size="12" transform="rotate(90 1665,470.4)" text-rendering="optimizeSpeed" fill="#000000">1.464.2ms (4)</text>
  <rect fill="blue" height="50.8" stroke="black" width="12" x="1680" y="414.6"/>
  <text x="1680" y="470.4" font-family="Tahoma" font-size="12" transform="rotate(90 1680,470.4)" text-rendering="optimizeSpeed" fill="#000000">1.465 (508)</text>
  <rect fill="blue" height="0.2" stroke="black" width="12" x="1695" y="465.2"/>
  <text x="1695" y="470.4" font-family="Tahoma" font-size="12" transform="rotate(90 1695,470.4)" text-rendering="optimizeSpeed" fill="#000000">1.466-ialbors (2)</text>
  <rect fill="blue" height="64.7" stroke="black" width="12" x="1710" y="400.7"/>
  <text x="1710" y="470.4" font-family="Tahoma" font-size="12" transform="rotate(90 1710,470.4)" text-rendering="optimizeSpeed" fill="#000000">1.466 (647)</text>
  <rect fill="blue" height="37.1" stroke="black" width="12" x="1725" y="428.3"/>
  <text x="1725" y="470.4" font-family="Tahoma" font-size="12" transform="rotate(90 1725,470.4)" text-rendering="optimizeSpeed" fill="#000000">1.466.1 (371)</text>
  <rect fill="blue" height="0.2" stroke="black" width="12" x="1740" y="465.2"/>
  <text x="1740" y="470.4" font-family="Tahoma" font-size="12" transform="rotate(90 1740,470.4)" text-rendering="optimizeSpeed" fill="#000000">1.466.2+JENKINS-15382 (2)</text>
  <rect fill="blue" height="113.4" stroke="black" width="12" x="1755" y="352.0"/>
  <text x="1755" y="470.4" font-family="Tahoma" font-size="12" transform="rotate(90 1755,470.4)" text-rendering="optimizeSpeed" fill="#000000">1.466.2 (1134)</text>
  <rect fill="blue" height="44.2" stroke="black" width="12" x="1770" y="421.2"/>
  <text x="1770" y="470.4" font-family="Tahoma" font-size="12" transform="rotate(90 1770,470.4)" text-rendering="optimizeSpeed" fill="#000000">1.467 (442)</text>
  <rect fill="blue" height="4.6" stroke="black" width="12" x="1785" y="460.8"/>
  <text x="1785" y="470.4" font-family="Tahoma" font-size="12" transform="rotate(90 1785,470.4)" text-rendering="optimizeSpeed" fill="#000000">1.468 (46)</text>
  <rect fill="blue" height="12.5" stroke="black" width="12" x="1800" y="452.9"/>
  <text x="1800" y="470.4" font-family="Tahoma" font-size="12" transform="rotate(90 1800,470.4)" text-rendering="optimizeSpeed" fill="#000000">1.469 (125)</text>
  <rect fill="blue" height="0.1" stroke="black" width="12" x="1815" y="465.3"/>
  <text x="1815" y="470.4" font-family="Tahoma" font-size="12" transform="rotate(90 1815,470.4)" text-rendering="optimizeSpeed" fill="#000000">1.469.inc1 (1)</text>
  <rect fill="blue" height="40.5" stroke="black" width="12" x="1830" y="424.9"/>
  <text x="1830" y="470.4" font-family="Tahoma" font-size="12" transform="rotate(90 1830,470.4)" text-rendering="optimizeSpeed" fill="#000000">1.470 (405)</text>
  <rect fill="blue" height="46.6" stroke="black" width="12" x="1845" y="418.8"/>
  <text x="1845" y="470.4" font-family="Tahoma" font-size="12" transform="rotate(90 1845,470.4)" text-rendering="optimizeSpeed" fill="#000000">1.471 (466)</text>
  <rect fill="blue" height="61.2" stroke="black" width="12" x="1860" y="404.2"/>
  <text x="1860" y="470.4" font-family="Tahoma" font-size="12" transform="rotate(90 1860,470.4)" text-rendering="optimizeSpeed" fill="#000000">1.472 (612)</text>
  <rect fill="blue" height="74.3" stroke="black" width="12" x="1875" y="391.1"/>
  <text x="1875" y="470.4" font-family="Tahoma" font-size="12" transform="rotate(90 1875,470.4)" text-rendering="optimizeSpeed" fill="#000000">1.473 (743)</text>
  <rect fill="blue" height="101.2" stroke="black" width="12" x="1890" y="364.2"/>
  <text x="1890" y="470.4" font-family="Tahoma" font-size="12" transform="rotate(90 1890,470.4)" text-rendering="optimizeSpeed" fill="#000000">1.474 (1012)</text>
  <rect fill="blue" height="112.8" stroke="black" width="12" x="1905" y="352.6"/>
  <text x="1905" y="470.4" font-family="Tahoma" font-size="12" transform="rotate(90 1905,470.4)" text-rendering="optimizeSpeed" fill="#000000">1.475 (1128)</text>
  <rect fill="blue" height="53.4" stroke="black" width="12" x="1920" y="412.0"/>
  <text x="1920" y="470.4" font-family="Tahoma" font-size="12" transform="rotate(90 1920,470.4)" text-rendering="optimizeSpeed" fill="#000000">1.476 (534)</text>
  <rect fill="blue" height="99.1" stroke="black" width="12" x="1935" y="366.3"/>
  <text x="1935" y="470.4" font-family="Tahoma" font-size="12" transform="rotate(90 1935,470.4)" text-rendering="optimizeSpeed" fill="#000000">1.477 (991)</text>
  <rect fill="blue" height="117.0" stroke="black" width="12" x="1950" y="348.4"/>
  <text x="1950" y="470.4" font-family="Tahoma" font-size="12" transform="rotate(90 1950,470.4)" text-rendering="optimizeSpeed" fill="#000000">1.478 (1170)</text>
  <rect fill="blue" height="45.0" stroke="black" width="12" x="1965" y="420.4"/>
  <text x="1965" y="470.4" font-family="Tahoma" font-size="12" transform="rotate(90 1965,470.4)" text-rendering="optimizeSpeed" fill="#000000">1.479 (450)</text>
  <rect fill="blue" height="92.2" stroke="black" width="12" x="1980" y="373.2"/>
  <text x="1980" y="470.4" font-family="Tahoma" font-size="12" transform="rotate(90 1980,470.4)" text-rendering="optimizeSpeed" fill="#000000">1.480 (922)</text>
  <rect fill="blue" height="46.2" stroke="black" width="12" x="1995" y="419.2"/>
  <text x="1995" y="470.4" font-family="Tahoma" font-size="12" transform="rotate(90 1995,470.4)" text-rendering="optimizeSpeed" fill="#000000">1.480.1 (462)</text>
  <rect fill="blue" height="87.4" stroke="black" width="12" x="2010" y="378.0"/>
  <text x="2010" y="470.4" font-family="Tahoma" font-size="12" transform="rotate(90 2010,470.4)" text-rendering="optimizeSpeed" fill="#000000">1.481 (874)</text>
  <rect fill="blue" height="101.7" stroke="black" width="12" x="2025" y="363.7"/>
  <text x="2025" y="470.4" font-family="Tahoma" font-size="12" transform="rotate(90 2025,470.4)" text-rendering="optimizeSpeed" fill="#000000">1.482 (1017)</text>
  <rect fill="blue" height="112.1" stroke="black" width="12" x="2040" y="353.3"/>
  <text x="2040" y="470.4" font-family="Tahoma" font-size="12" transform="rotate(90 2040,470.4)" text-rendering="optimizeSpeed" fill="#000000">1.483 (1121)</text>
  <rect fill="blue" height="0.1" stroke="black" width="12" x="2055" y="465.3"/>
  <text x="2055" y="470.4" font-family="Tahoma" font-size="12" transform="rotate(90 2055,470.4)" text-rendering="optimizeSpeed" fill="#000000">1.484-fixed (1)</text>
  <rect fill="blue" height="128.2" stroke="black" width="12" x="2070" y="337.2"/>
  <text x="2070" y="470.4" font-family="Tahoma" font-size="12" transform="rotate(90 2070,470.4)" text-rendering="optimizeSpeed" fill="#000000">1.484 (1282)</text>
  <rect fill="blue" height="96.4" stroke="black" width="12" x="2085" y="369.0"/>
  <text x="2085" y="470.4" font-family="Tahoma" font-size="12" transform="rotate(90 2085,470.4)" text-rendering="optimizeSpeed" fill="#000000">1.485 (964)</text>
  <rect fill="blue" height="246.6" stroke="black" width="12" x="2100" y="218.8"/>
  <text x="2100" y="470.4" font-family="Tahoma" font-size="12" transform="rotate(90 2100,470.4)" text-rendering="optimizeSpeed" fill="#000000">1.486 (2466)</text>
  <rect fill="blue" height="127.5" stroke="black" width="12" x="2115" y="337.9"/>
  <text x="2115" y="470.4" font-family="Tahoma" font-size="12" transform="rotate(90 2115,470.4)" text-rendering="optimizeSpeed" fill="#000000">1.487 (1275)</text>
  <rect fill="blue" height="253.1" stroke="black" width="12" x="2130" y="212.3"/>
  <text x="2130" y="470.4" font-family="Tahoma" font-size="12" transform="rotate(90 2130,470.4)" text-rendering="optimizeSpeed" fill="#000000">1.488 (2531)</text>
  <rect fill="blue" height="390.1" stroke="black" width="12" x="2145" y="75.3"/>
  <text x="2145" y="470.4" font-family="Tahoma" font-size="12" transform="rotate(90 2145,470.4)" text-rendering="optimizeSpeed" fill="#000000">1.489 (3901)</text>
  <rect fill="blue" height="280.2" stroke="black" width="12" x="2160" y="185.2"/>
  <text x="2160" y="470.4" font-family="Tahoma" font-size="12" transform="rotate(90 2160,470.4)" text-rendering="optimizeSpeed" fill="#000000">1.490 (2802)</text>
  <rect fill="blue" height="415.4" stroke="black" width="12" x="2175" y="50.0"/>
  <text x="2175" y="470.4" font-family="Tahoma" font-size="12" transform="rotate(90 2175,470.4)" text-rendering="optimizeSpeed" fill="#000000">1.491 (4154)</text>
  <rect fill="blue" height="343.9" stroke="black" width="12" x="2190" y="121.5"/>
  <text x="2190" y="470.4" font-family="Tahoma" font-size="12" transform="rotate(90 2190,470.4)" text-rendering="optimizeSpeed" fill="#000000">1.492 (3439)</text>
  <text x="10" y="40" font-family="Tahoma" font-size="20" text-rendering="optimizeSpeed" fill="#000000">Jenkins installations (total: 53294)</text>
</svg>
