<svg xmlns="http://www.w3.org/2000/svg" version="1.1" preserveAspectRatio="xMidYMid meet" viewBox="0 0 815 3103.1">
  <rect fill="blue" height="0.1" stroke="black" width="12" x="15" y="2803.0"/>
  <text x="15" y="2808.1" font-family="Tahoma" font-size="12" transform="rotate(90 15,2808.1)" text-rendering="optimizeSpeed" fill="#000000">HP-UX (PA_RISC2.0W) (1)</text>
  <rect fill="blue" height="0.1" stroke="black" width="12" x="30" y="2803.0"/>
  <text x="30" y="2808.1" font-family="Tahoma" font-size="12" transform="rotate(90 30,2808.1)" text-rendering="optimizeSpeed" fill="#000000">Linux (s390) (1)</text>
  <rect fill="blue" height="0.1" stroke="black" width="12" x="45" y="2803.0"/>
  <text x="45" y="2808.1" font-family="Tahoma" font-size="12" transform="rotate(90 45,2808.1)" text-rendering="optimizeSpeed" fill="#000000">Linux (sparc) (1)</text>
  <rect fill="blue" height="0.1" stroke="black" width="12" x="60" y="2803.0"/>
  <text x="60" y="2808.1" font-family="Tahoma" font-size="12" transform="rotate(90 60,2808.1)" text-rendering="optimizeSpeed" fill="#000000">Mac OS X (amd64) (1)</text>
  <rect fill="blue" height="0.1" stroke="black" width="12" x="75" y="2803.0"/>
  <text x="75" y="2808.1" font-family="Tahoma" font-size="12" transform="rotate(90 75,2808.1)" text-rendering="optimizeSpeed" fill="#000000">NetBSD (amd64) (1)</text>
  <rect fill="blue" height="0.1" stroke="black" width="12" x="90" y="2803.0"/>
  <text x="90" y="2808.1" font-family="Tahoma" font-size="12" transform="rotate(90 90,2808.1)" text-rendering="optimizeSpeed" fill="#000000">QNX (i386) (1)</text>
  <rect fill="blue" height="0.1" stroke="black" width="12" x="105" y="2803.0"/>
  <text x="105" y="2808.1" font-family="Tahoma" font-size="12" transform="rotate(90 105,2808.1)" text-rendering="optimizeSpeed" fill="#000000">UnixWare (IA32) (1)</text>
  <rect fill="blue" height="0.2" stroke="black" width="12" x="120" y="2802.9"/>
  <text x="120" y="2808.1" font-family="Tahoma" font-size="12" transform="rotate(90 120,2808.1)" text-rendering="optimizeSpeed" fill="#000000">Darwin (i386) (2)</text>
  <rect fill="blue" height="0.3" stroke="black" width="12" x="135" y="2802.8"/>
  <text x="135" y="2808.1" font-family="Tahoma" font-size="12" transform="rotate(90 135,2808.1)" text-rendering="optimizeSpeed" fill="#000000">OpenBSD (amd64) (3)</text>
  <rect fill="blue" height="0.3" stroke="black" width="12" x="150" y="2802.8"/>
  <text x="150" y="2808.1" font-family="Tahoma" font-size="12" transform="rotate(90 150,2808.1)" text-rendering="optimizeSpeed" fill="#000000">Windows Server 2003 (amd64) (3)</text>
  <rect fill="blue" height="0.4" stroke="black" width="12" x="165" y="2802.7"/>
  <text x="165" y="2808.1" font-family="Tahoma" font-size="12" transform="rotate(90 165,2808.1)" text-rendering="optimizeSpeed" fill="#000000">NetBSD (i386) (4)</text>
  <rect fill="blue" height="0.4" stroke="black" width="12" x="180" y="2802.7"/>
  <text x="180" y="2808.1" font-family="Tahoma" font-size="12" transform="rotate(90 180,2808.1)" text-rendering="optimizeSpeed" fill="#000000">OpenBSD (i386) (4)</text>
  <rect fill="blue" height="1.1" stroke="black" width="12" x="195" y="2802.0"/>
  <text x="195" y="2808.1" font-family="Tahoma" font-size="12" transform="rotate(90 195,2808.1)" text-rendering="optimizeSpeed" fill="#000000">Linux (s390x) (11)</text>
  <rect fill="blue" height="1.3" stroke="black" width="12" x="210" y="2801.8"/>
  <text x="210" y="2808.1" font-family="Tahoma" font-size="12" transform="rotate(90 210,2808.1)" text-rendering="optimizeSpeed" fill="#000000">Mac OS X (ppc) (13)</text>
  <rect fill="blue" height="1.4" stroke="black" width="12" x="225" y="2801.7"/>
  <text x="225" y="2808.1" font-family="Tahoma" font-size="12" transform="rotate(90 225,2808.1)" text-rendering="optimizeSpeed" fill="#000000">Linux (arm) (14)</text>
  <rect fill="blue" height="2.0" stroke="black" width="12" x="240" y="2801.1"/>
  <text x="240" y="2808.1" font-family="Tahoma" font-size="12" transform="rotate(90 240,2808.1)" text-rendering="optimizeSpeed" fill="#000000">HP-UX (IA64W) (20)</text>
  <rect fill="blue" height="2.1" stroke="black" width="12" x="255" y="2801.0"/>
  <text x="255" y="2808.1" font-family="Tahoma" font-size="12" transform="rotate(90 255,2808.1)" text-rendering="optimizeSpeed" fill="#000000">SunOS (amd64) (21)</text>
  <rect fill="blue" height="2.2" stroke="black" width="12" x="270" y="2800.9"/>
  <text x="270" y="2808.1" font-family="Tahoma" font-size="12" transform="rotate(90 270,2808.1)" text-rendering="optimizeSpeed" fill="#000000">Linux (ppc64) (22)</text>
  <rect fill="blue" height="2.5" stroke="black" width="12" x="285" y="2800.6"/>
  <text x="285" y="2808.1" font-family="Tahoma" font-size="12" transform="rotate(90 285,2808.1)" text-rendering="optimizeSpeed" fill="#000000">Linux (ia64) (25)</text>
  <rect fill="blue" height="2.6" stroke="black" width="12" x="300" y="2800.5"/>
  <text x="300" y="2808.1" font-family="Tahoma" font-size="12" transform="rotate(90 300,2808.1)" text-rendering="optimizeSpeed" fill="#000000">Linux (ppc) (26)</text>
  <rect fill="blue" height="4.2" stroke="black" width="12" x="315" y="2798.9"/>
  <text x="315" y="2808.1" font-family="Tahoma" font-size="12" transform="rotate(90 315,2808.1)" text-rendering="optimizeSpeed" fill="#000000">Windows Server 2003 (x86) (42)</text>
  <rect fill="blue" height="4.8" stroke="black" width="12" x="330" y="2798.3"/>
  <text x="330" y="2808.1" font-family="Tahoma" font-size="12" transform="rotate(90 330,2808.1)" text-rendering="optimizeSpeed" fill="#000000">Windows NT (unknown) (x86) (48)</text>
  <rect fill="blue" height="5.1" stroke="black" width="12" x="345" y="2798.0"/>
  <text x="345" y="2808.1" font-family="Tahoma" font-size="12" transform="rotate(90 345,2808.1)" text-rendering="optimizeSpeed" fill="#000000">Windows Vista (amd64) (51)</text>
  <rect fill="blue" height="5.7" stroke="black" width="12" x="360" y="2797.4"/>
  <text x="360" y="2808.1" font-family="Tahoma" font-size="12" transform="rotate(90 360,2808.1)" text-rendering="optimizeSpeed" fill="#000000">SunOS (sparcv9) (57)</text>
  <rect fill="blue" height="6.0" stroke="black" width="12" x="375" y="2797.1"/>
  <text x="375" y="2808.1" font-family="Tahoma" font-size="12" transform="rotate(90 375,2808.1)" text-rendering="optimizeSpeed" fill="#000000">Windows 2000 (x86) (60)</text>
  <rect fill="blue" height="6.6" stroke="black" width="12" x="390" y="2796.5"/>
  <text x="390" y="2808.1" font-family="Tahoma" font-size="12" transform="rotate(90 390,2808.1)" text-rendering="optimizeSpeed" fill="#000000">HP-UX (PA_RISC2.0) (66)</text>
  <rect fill="blue" height="8.7" stroke="black" width="12" x="405" y="2794.4"/>
  <text x="405" y="2808.1" font-family="Tahoma" font-size="12" transform="rotate(90 405,2808.1)" text-rendering="optimizeSpeed" fill="#000000">Windows NT (unknown) (amd64) (87)</text>
  <rect fill="blue" height="11.7" stroke="black" width="12" x="420" y="2791.4"/>
  <text x="420" y="2808.1" font-family="Tahoma" font-size="12" transform="rotate(90 420,2808.1)" text-rendering="optimizeSpeed" fill="#000000">HP-UX (IA64N) (117)</text>
  <rect fill="blue" height="12.4" stroke="black" width="12" x="435" y="2790.7"/>
  <text x="435" y="2808.1" font-family="Tahoma" font-size="12" transform="rotate(90 435,2808.1)" text-rendering="optimizeSpeed" fill="#000000">FreeBSD (i386) (124)</text>
  <rect fill="blue" height="12.7" stroke="black" width="12" x="450" y="2790.4"/>
  <text x="450" y="2808.1" font-family="Tahoma" font-size="12" transform="rotate(90 450,2808.1)" text-rendering="optimizeSpeed" fill="#000000">Windows XP (amd64) (127)</text>
  <rect fill="blue" height="13.7" stroke="black" width="12" x="465" y="2789.4"/>
  <text x="465" y="2808.1" font-family="Tahoma" font-size="12" transform="rotate(90 465,2808.1)" text-rendering="optimizeSpeed" fill="#000000">FreeBSD (amd64) (137)</text>
  <rect fill="blue" height="15.1" stroke="black" width="12" x="480" y="2788.0"/>
  <text x="480" y="2808.1" font-family="Tahoma" font-size="12" transform="rotate(90 480,2808.1)" text-rendering="optimizeSpeed" fill="#000000">Linux (x86) (151)</text>
  <rect fill="blue" height="15.8" stroke="black" width="12" x="495" y="2787.3"/>
  <text x="495" y="2808.1" font-family="Tahoma" font-size="12" transform="rotate(90 495,2808.1)" text-rendering="optimizeSpeed" fill="#000000">Mac OS X (i386) (158)</text>
  <rect fill="blue" height="16.5" stroke="black" width="12" x="510" y="2786.6"/>
  <text x="510" y="2808.1" font-family="Tahoma" font-size="12" transform="rotate(90 510,2808.1)" text-rendering="optimizeSpeed" fill="#000000">AIX (ppc64) (165)</text>
  <rect fill="blue" height="23.4" stroke="black" width="12" x="525" y="2779.7"/>
  <text x="525" y="2808.1" font-family="Tahoma" font-size="12" transform="rotate(90 525,2808.1)" text-rendering="optimizeSpeed" fill="#000000">AIX (ppc) (234)</text>
  <rect fill="blue" height="44.1" stroke="black" width="12" x="540" y="2759.0"/>
  <text x="540" y="2808.1" font-family="Tahoma" font-size="12" transform="rotate(90 540,2808.1)" text-rendering="optimizeSpeed" fill="#000000">Windows Vista (x86) (441)</text>
  <rect fill="blue" height="49.9" stroke="black" width="12" x="555" y="2753.2"/>
  <text x="555" y="2808.1" font-family="Tahoma" font-size="12" transform="rotate(90 555,2808.1)" text-rendering="optimizeSpeed" fill="#000000">Windows Server 2008 (amd64) (499)</text>
  <rect fill="blue" height="55.7" stroke="black" width="12" x="570" y="2747.4"/>
  <text x="570" y="2808.1" font-family="Tahoma" font-size="12" transform="rotate(90 570,2808.1)" text-rendering="optimizeSpeed" fill="#000000">Windows 2003 (amd64) (557)</text>
  <rect fill="blue" height="68.0" stroke="black" width="12" x="585" y="2735.1"/>
  <text x="585" y="2808.1" font-family="Tahoma" font-size="12" transform="rotate(90 585,2808.1)" text-rendering="optimizeSpeed" fill="#000000">SunOS (x86) (680)</text>
  <rect fill="blue" height="93.9" stroke="black" width="12" x="600" y="2709.2"/>
  <text x="600" y="2808.1" font-family="Tahoma" font-size="12" transform="rotate(90 600,2808.1)" text-rendering="optimizeSpeed" fill="#000000">SunOS (sparc) (939)</text>
  <rect fill="blue" height="102.3" stroke="black" width="12" x="615" y="2700.8"/>
  <text x="615" y="2808.1" font-family="Tahoma" font-size="12" transform="rotate(90 615,2808.1)" text-rendering="optimizeSpeed" fill="#000000">Windows Server 2008 (x86) (1023)</text>
  <rect fill="blue" height="167.8" stroke="black" width="12" x="630" y="2635.3"/>
  <text x="630" y="2808.1" font-family="Tahoma" font-size="12" transform="rotate(90 630,2808.1)" text-rendering="optimizeSpeed" fill="#000000">Windows 7 (amd64) (1678)</text>
  <rect fill="blue" height="211.2" stroke="black" width="12" x="645" y="2591.9"/>
  <text x="645" y="2808.1" font-family="Tahoma" font-size="12" transform="rotate(90 645,2808.1)" text-rendering="optimizeSpeed" fill="#000000">Windows Server 2008 R2 (amd64) (2112)</text>
  <rect fill="blue" height="242.5" stroke="black" width="12" x="660" y="2560.6"/>
  <text x="660" y="2808.1" font-family="Tahoma" font-size="12" transform="rotate(90 660,2808.1)" text-rendering="optimizeSpeed" fill="#000000">Windows Server 2008 R2 (x86) (2425)</text>
  <rect fill="blue" height="279.8" stroke="black" width="12" x="675" y="2523.3"/>
  <text x="675" y="2808.1" font-family="Tahoma" font-size="12" transform="rotate(90 675,2808.1)" text-rendering="optimizeSpeed" fill="#000000">Mac OS X (x86_64) (2798)</text>
  <rect fill="blue" height="369.4" stroke="black" width="12" x="690" y="2433.7"/>
  <text x="690" y="2808.1" font-family="Tahoma" font-size="12" transform="rotate(90 690,2808.1)" text-rendering="optimizeSpeed" fill="#000000">Windows 7 (x86) (3694)</text>
  <rect fill="blue" height="468.5" stroke="black" width="12" x="705" y="2334.6"/>
  <text x="705" y="2808.1" font-family="Tahoma" font-size="12" transform="rotate(90 705,2808.1)" text-rendering="optimizeSpeed" fill="#000000">Windows 2003 (x86) (4685)</text>
  <rect fill="blue" height="547.9" stroke="black" width="12" x="720" y="2255.2"/>
  <text x="720" y="2808.1" font-family="Tahoma" font-size="12" transform="rotate(90 720,2808.1)" text-rendering="optimizeSpeed" fill="#000000">Windows XP (x86) (5479)</text>
  <rect fill="blue" height="1144.4" stroke="black" width="12" x="735" y="1658.7"/>
  <text x="735" y="2808.1" font-family="Tahoma" font-size="12" transform="rotate(90 735,2808.1)" text-rendering="optimizeSpeed" fill="#000000">Linux (i386) (11444)</text>
  <rect fill="blue" height="2584.9" stroke="black" width="12" x="750" y="218.2"/>
  <text x="750" y="2808.1" font-family="Tahoma" font-size="12" transform="rotate(90 750,2808.1)" text-rendering="optimizeSpeed" fill="#000000">Linux (amd64) (25849)</text>
  <rect fill="blue" height="2753.1" stroke="black" width="12" x="765" y="50.0"/>
  <text x="765" y="2808.1" font-family="Tahoma" font-size="12" transform="rotate(90 765,2808.1)" text-rendering="optimizeSpeed" fill="#000000">N/A (27531)</text>
  <text x="10" y="40" font-family="Tahoma" font-size="20" text-rendering="optimizeSpeed" fill="#000000">Nodes (total: 93633)</text>
</svg>
