<svg xmlns="http://www.w3.org/2000/svg" version="1.1" preserveAspectRatio="xMidYMid meet" viewBox="0 0 2060 764.2">
  <rect fill="blue" height="10.2" stroke="black" width="12" x="15" y="454.0"/>
  <text x="15" y="469.2" font-family="Tahoma" font-size="12" transform="rotate(90 15,469.2)" text-rendering="optimizeSpeed" fill="#000000">android-emulator (1020)</text>
  <rect fill="blue" height="10.3" stroke="black" width="12" x="30" y="454.0"/>
  <text x="30" y="469.2" font-family="Tahoma" font-size="12" transform="rotate(90 30,469.2)" text-rendering="optimizeSpeed" fill="#000000">xfpanel (1026)</text>
  <rect fill="blue" height="10.3" stroke="black" width="12" x="45" y="454.0"/>
  <text x="45" y="469.2" font-family="Tahoma" font-size="12" transform="rotate(90 45,469.2)" text-rendering="optimizeSpeed" fill="#000000">conditional-buildstep (1029)</text>
  <rect fill="blue" height="10.4" stroke="black" width="12" x="60" y="453.9"/>
  <text x="60" y="469.2" font-family="Tahoma" font-size="12" transform="rotate(90 60,469.2)" text-rendering="optimizeSpeed" fill="#000000">jenkinswalldisplay (1036)</text>
  <rect fill="blue" height="10.4" stroke="black" width="12" x="75" y="453.8"/>
  <text x="75" y="469.2" font-family="Tahoma" font-size="12" transform="rotate(90 75,469.2)" text-rendering="optimizeSpeed" fill="#000000">ansicolor (1042)</text>
  <rect fill="blue" height="10.5" stroke="black" width="12" x="90" y="453.8"/>
  <text x="90" y="469.2" font-family="Tahoma" font-size="12" transform="rotate(90 90,469.2)" text-rendering="optimizeSpeed" fill="#000000">ivy (1047)</text>
  <rect fill="blue" height="10.6" stroke="black" width="12" x="105" y="453.6"/>
  <text x="105" y="469.2" font-family="Tahoma" font-size="12" transform="rotate(90 105,469.2)" text-rendering="optimizeSpeed" fill="#000000">gradle (1062)</text>
  <rect fill="blue" height="10.8" stroke="black" width="12" x="120" y="453.4"/>
  <text x="120" y="469.2" font-family="Tahoma" font-size="12" transform="rotate(90 120,469.2)" text-rendering="optimizeSpeed" fill="#000000">clearcase (1084)</text>
  <rect fill="blue" height="10.9" stroke="black" width="12" x="135" y="453.4"/>
  <text x="135" y="469.2" font-family="Tahoma" font-size="12" transform="rotate(90 135,469.2)" text-rendering="optimizeSpeed" fill="#000000">xcode-plugin (1090)</text>
  <rect fill="blue" height="10.9" stroke="black" width="12" x="150" y="453.3"/>
  <text x="150" y="469.2" font-family="Tahoma" font-size="12" transform="rotate(90 150,469.2)" text-rendering="optimizeSpeed" fill="#000000">mstest (1095)</text>
  <rect fill="blue" height="11.0" stroke="black" width="12" x="165" y="453.3"/>
  <text x="165" y="469.2" font-family="Tahoma" font-size="12" transform="rotate(90 165,469.2)" text-rendering="optimizeSpeed" fill="#000000">build-name-setter (1097)</text>
  <rect fill="blue" height="11.0" stroke="black" width="12" x="180" y="453.3"/>
  <text x="180" y="469.2" font-family="Tahoma" font-size="12" transform="rotate(90 180,469.2)" text-rendering="optimizeSpeed" fill="#000000">cron_column (1099)</text>
  <rect fill="blue" height="11.2" stroke="black" width="12" x="195" y="453.1"/>
  <text x="195" y="469.2" font-family="Tahoma" font-size="12" transform="rotate(90 195,469.2)" text-rendering="optimizeSpeed" fill="#000000">envfile (1118)</text>
  <rect fill="blue" height="11.2" stroke="black" width="12" x="210" y="453.0"/>
  <text x="210" y="469.2" font-family="Tahoma" font-size="12" transform="rotate(90 210,469.2)" text-rendering="optimizeSpeed" fill="#000000">iphoneview (1121)</text>
  <rect fill="blue" height="11.3" stroke="black" width="12" x="225" y="452.9"/>
  <text x="225" y="469.2" font-family="Tahoma" font-size="12" transform="rotate(90 225,469.2)" text-rendering="optimizeSpeed" fill="#000000">configurationslicing (1135)</text>
  <rect fill="blue" height="11.4" stroke="black" width="12" x="240" y="452.8"/>
  <text x="240" y="469.2" font-family="Tahoma" font-size="12" transform="rotate(90 240,469.2)" text-rendering="optimizeSpeed" fill="#000000">nant (1144)</text>
  <rect fill="blue" height="11.4" stroke="black" width="12" x="255" y="452.8"/>
  <text x="255" y="469.2" font-family="Tahoma" font-size="12" transform="rotate(90 255,469.2)" text-rendering="optimizeSpeed" fill="#000000">claim (1145)</text>
  <rect fill="blue" height="11.6" stroke="black" width="12" x="270" y="452.7"/>
  <text x="270" y="469.2" font-family="Tahoma" font-size="12" transform="rotate(90 270,469.2)" text-rendering="optimizeSpeed" fill="#000000">template-project (1155)</text>
  <rect fill="blue" height="11.8" stroke="black" width="12" x="285" y="452.5"/>
  <text x="285" y="469.2" font-family="Tahoma" font-size="12" transform="rotate(90 285,469.2)" text-rendering="optimizeSpeed" fill="#000000">trac (1176)</text>
  <rect fill="blue" height="11.8" stroke="black" width="12" x="300" y="452.4"/>
  <text x="300" y="469.2" font-family="Tahoma" font-size="12" transform="rotate(90 300,469.2)" text-rendering="optimizeSpeed" fill="#000000">emotional-jenkins-plugin (1181)</text>
  <rect fill="blue" height="11.9" stroke="black" width="12" x="315" y="452.4"/>
  <text x="315" y="469.2" font-family="Tahoma" font-size="12" transform="rotate(90 315,469.2)" text-rendering="optimizeSpeed" fill="#000000">testng-plugin (1186)</text>
  <rect fill="blue" height="11.9" stroke="black" width="12" x="330" y="452.3"/>
  <text x="330" y="469.2" font-family="Tahoma" font-size="12" transform="rotate(90 330,469.2)" text-rendering="optimizeSpeed" fill="#000000">run-condition (1195)</text>
  <rect fill="blue" height="12.0" stroke="black" width="12" x="345" y="452.3"/>
  <text x="345" y="469.2" font-family="Tahoma" font-size="12" transform="rotate(90 345,469.2)" text-rendering="optimizeSpeed" fill="#000000">ircbot (1197)</text>
  <rect fill="blue" height="12.0" stroke="black" width="12" x="360" y="452.2"/>
  <text x="360" y="469.2" font-family="Tahoma" font-size="12" transform="rotate(90 360,469.2)" text-rendering="optimizeSpeed" fill="#000000">doclinks (1200)</text>
  <rect fill="blue" height="12.1" stroke="black" width="12" x="375" y="452.1"/>
  <text x="375" y="469.2" font-family="Tahoma" font-size="12" transform="rotate(90 375,469.2)" text-rendering="optimizeSpeed" fill="#000000">cppcheck (1212)</text>
  <rect fill="blue" height="12.2" stroke="black" width="12" x="390" y="452.0"/>
  <text x="390" y="469.2" font-family="Tahoma" font-size="12" transform="rotate(90 390,469.2)" text-rendering="optimizeSpeed" fill="#000000">sloccount (1221)</text>
  <rect fill="blue" height="12.3" stroke="black" width="12" x="405" y="452.0"/>
  <text x="405" y="469.2" font-family="Tahoma" font-size="12" transform="rotate(90 405,469.2)" text-rendering="optimizeSpeed" fill="#000000">downstream-ext (1228)</text>
  <rect fill="blue" height="12.4" stroke="black" width="12" x="420" y="451.9"/>
  <text x="420" y="469.2" font-family="Tahoma" font-size="12" transform="rotate(90 420,469.2)" text-rendering="optimizeSpeed" fill="#000000">xvnc (1236)</text>
  <rect fill="blue" height="12.7" stroke="black" width="12" x="435" y="451.6"/>
  <text x="435" y="469.2" font-family="Tahoma" font-size="12" transform="rotate(90 435,469.2)" text-rendering="optimizeSpeed" fill="#000000">saferestart (1265)</text>
  <rect fill="blue" height="12.9" stroke="black" width="12" x="450" y="451.4"/>
  <text x="450" y="469.2" font-family="Tahoma" font-size="12" transform="rotate(90 450,469.2)" text-rendering="optimizeSpeed" fill="#000000">project-stats-plugin (1287)</text>
  <rect fill="blue" height="13.0" stroke="black" width="12" x="465" y="451.2"/>
  <text x="465" y="469.2" font-family="Tahoma" font-size="12" transform="rotate(90 465,469.2)" text-rendering="optimizeSpeed" fill="#000000">role-strategy (1300)</text>
  <rect fill="blue" height="13.1" stroke="black" width="12" x="480" y="451.2"/>
  <text x="480" y="469.2" font-family="Tahoma" font-size="12" transform="rotate(90 480,469.2)" text-rendering="optimizeSpeed" fill="#000000">emotional-hudson (1305)</text>
  <rect fill="blue" height="13.1" stroke="black" width="12" x="495" y="451.2"/>
  <text x="495" y="469.2" font-family="Tahoma" font-size="12" transform="rotate(90 495,469.2)" text-rendering="optimizeSpeed" fill="#000000">ftppublisher (1307)</text>
  <rect fill="blue" height="13.2" stroke="black" width="12" x="510" y="451.1"/>
  <text x="510" y="469.2" font-family="Tahoma" font-size="12" transform="rotate(90 510,469.2)" text-rendering="optimizeSpeed" fill="#000000">ruby (1319)</text>
  <rect fill="blue" height="13.4" stroke="black" width="12" x="525" y="450.9"/>
  <text x="525" y="469.2" font-family="Tahoma" font-size="12" transform="rotate(90 525,469.2)" text-rendering="optimizeSpeed" fill="#000000">next-build-number (1337)</text>
  <rect fill="blue" height="13.5" stroke="black" width="12" x="540" y="450.8"/>
  <text x="540" y="469.2" font-family="Tahoma" font-size="12" transform="rotate(90 540,469.2)" text-rendering="optimizeSpeed" fill="#000000">dependencyanalyzer (1348)</text>
  <rect fill="blue" height="13.7" stroke="black" width="12" x="555" y="450.6"/>
  <text x="555" y="469.2" font-family="Tahoma" font-size="12" transform="rotate(90 555,469.2)" text-rendering="optimizeSpeed" fill="#000000">hudson-pview-plugin (1366)</text>
  <rect fill="blue" height="13.8" stroke="black" width="12" x="570" y="450.5"/>
  <text x="570" y="469.2" font-family="Tahoma" font-size="12" transform="rotate(90 570,469.2)" text-rendering="optimizeSpeed" fill="#000000">seleniumhq (1377)</text>
  <rect fill="blue" height="13.8" stroke="black" width="12" x="585" y="450.4"/>
  <text x="585" y="469.2" font-family="Tahoma" font-size="12" transform="rotate(90 585,469.2)" text-rendering="optimizeSpeed" fill="#000000">locale (1385)</text>
  <rect fill="blue" height="14.0" stroke="black" width="12" x="600" y="450.2"/>
  <text x="600" y="469.2" font-family="Tahoma" font-size="12" transform="rotate(90 600,469.2)" text-rendering="optimizeSpeed" fill="#000000">sectioned-view (1400)</text>
  <rect fill="blue" height="14.3" stroke="black" width="12" x="615" y="449.9"/>
  <text x="615" y="469.2" font-family="Tahoma" font-size="12" transform="rotate(90 615,469.2)" text-rendering="optimizeSpeed" fill="#000000">description-setter (1432)</text>
  <rect fill="blue" height="14.4" stroke="black" width="12" x="630" y="449.8"/>
  <text x="630" y="469.2" font-family="Tahoma" font-size="12" transform="rotate(90 630,469.2)" text-rendering="optimizeSpeed" fill="#000000">redmine (1442)</text>
  <rect fill="blue" height="14.4" stroke="black" width="12" x="645" y="449.8"/>
  <text x="645" y="469.2" font-family="Tahoma" font-size="12" transform="rotate(90 645,469.2)" text-rendering="optimizeSpeed" fill="#000000">console-column-plugin (1444)</text>
  <rect fill="blue" height="14.8" stroke="black" width="12" x="660" y="449.5"/>
  <text x="660" y="469.2" font-family="Tahoma" font-size="12" transform="rotate(90 660,469.2)" text-rendering="optimizeSpeed" fill="#000000">text-finder (1475)</text>
  <rect fill="blue" height="14.8" stroke="black" width="12" x="675" y="449.4"/>
  <text x="675" y="469.2" font-family="Tahoma" font-size="12" transform="rotate(90 675,469.2)" text-rendering="optimizeSpeed" fill="#000000">compact-columns (1481)</text>
  <rect fill="blue" height="14.8" stroke="black" width="12" x="690" y="449.4"/>
  <text x="690" y="469.2" font-family="Tahoma" font-size="12" transform="rotate(90 690,469.2)" text-rendering="optimizeSpeed" fill="#000000">global-build-stats (1481)</text>
  <rect fill="blue" height="15.0" stroke="black" width="12" x="705" y="449.2"/>
  <text x="705" y="469.2" font-family="Tahoma" font-size="12" transform="rotate(90 705,469.2)" text-rendering="optimizeSpeed" fill="#000000">versionnumber (1504)</text>
  <rect fill="blue" height="15.2" stroke="black" width="12" x="720" y="449.0"/>
  <text x="720" y="469.2" font-family="Tahoma" font-size="12" transform="rotate(90 720,469.2)" text-rendering="optimizeSpeed" fill="#000000">all-changes (1521)</text>
  <rect fill="blue" height="15.2" stroke="black" width="12" x="735" y="449.0"/>
  <text x="735" y="469.2" font-family="Tahoma" font-size="12" transform="rotate(90 735,469.2)" text-rendering="optimizeSpeed" fill="#000000">clover (1525)</text>
  <rect fill="blue" height="15.3" stroke="black" width="12" x="750" y="448.9"/>
  <text x="750" y="469.2" font-family="Tahoma" font-size="12" transform="rotate(90 750,469.2)" text-rendering="optimizeSpeed" fill="#000000">nested-view (1534)</text>
  <rect fill="blue" height="15.6" stroke="black" width="12" x="765" y="448.6"/>
  <text x="765" y="469.2" font-family="Tahoma" font-size="12" transform="rotate(90 765,469.2)" text-rendering="optimizeSpeed" fill="#000000">doxygen (1564)</text>
  <rect fill="blue" height="15.8" stroke="black" width="12" x="780" y="448.5"/>
  <text x="780" y="469.2" font-family="Tahoma" font-size="12" transform="rotate(90 780,469.2)" text-rendering="optimizeSpeed" fill="#000000">statusmonitor (1577)</text>
  <rect fill="blue" height="15.9" stroke="black" width="12" x="795" y="448.4"/>
  <text x="795" y="469.2" font-family="Tahoma" font-size="12" transform="rotate(90 795,469.2)" text-rendering="optimizeSpeed" fill="#000000">port-allocator (1590)</text>
  <rect fill="blue" height="16.1" stroke="black" width="12" x="810" y="448.2"/>
  <text x="810" y="469.2" font-family="Tahoma" font-size="12" transform="rotate(90 810,469.2)" text-rendering="optimizeSpeed" fill="#000000">ws-cleanup (1605)</text>
  <rect fill="blue" height="16.5" stroke="black" width="12" x="825" y="447.7"/>
  <text x="825" y="469.2" font-family="Tahoma" font-size="12" transform="rotate(90 825,469.2)" text-rendering="optimizeSpeed" fill="#000000">monitoring (1653)</text>
  <rect fill="blue" height="16.6" stroke="black" width="12" x="840" y="447.7"/>
  <text x="840" y="469.2" font-family="Tahoma" font-size="12" transform="rotate(90 840,469.2)" text-rendering="optimizeSpeed" fill="#000000">thinBackup (1657)</text>
  <rect fill="blue" height="16.6" stroke="black" width="12" x="855" y="447.7"/>
  <text x="855" y="469.2" font-family="Tahoma" font-size="12" transform="rotate(90 855,469.2)" text-rendering="optimizeSpeed" fill="#000000">groovy (1658)</text>
  <rect fill="blue" height="16.6" stroke="black" width="12" x="870" y="447.6"/>
  <text x="870" y="469.2" font-family="Tahoma" font-size="12" transform="rotate(90 870,469.2)" text-rendering="optimizeSpeed" fill="#000000">svn-release-mgr (1660)</text>
  <rect fill="blue" height="16.7" stroke="black" width="12" x="885" y="447.6"/>
  <text x="885" y="469.2" font-family="Tahoma" font-size="12" transform="rotate(90 885,469.2)" text-rendering="optimizeSpeed" fill="#000000">cloverphp (1668)</text>
  <rect fill="blue" height="17.4" stroke="black" width="12" x="900" y="446.8"/>
  <text x="900" y="469.2" font-family="Tahoma" font-size="12" transform="rotate(90 900,469.2)" text-rendering="optimizeSpeed" fill="#000000">depgraph-view (1742)</text>
  <rect fill="blue" height="17.6" stroke="black" width="12" x="915" y="446.7"/>
  <text x="915" y="469.2" font-family="Tahoma" font-size="12" transform="rotate(90 915,469.2)" text-rendering="optimizeSpeed" fill="#000000">rake (1755)</text>
  <rect fill="blue" height="17.8" stroke="black" width="12" x="930" y="446.4"/>
  <text x="930" y="469.2" font-family="Tahoma" font-size="12" transform="rotate(90 930,469.2)" text-rendering="optimizeSpeed" fill="#000000">release (1783)</text>
  <rect fill="blue" height="18.2" stroke="black" width="12" x="945" y="446.0"/>
  <text x="945" y="469.2" font-family="Tahoma" font-size="12" transform="rotate(90 945,469.2)" text-rendering="optimizeSpeed" fill="#000000">m2-extra-steps (1820)</text>
  <rect fill="blue" height="18.2" stroke="black" width="12" x="960" y="446.0"/>
  <text x="960" y="469.2" font-family="Tahoma" font-size="12" transform="rotate(90 960,469.2)" text-rendering="optimizeSpeed" fill="#000000">artifactdeployer (1825)</text>
  <rect fill="blue" height="18.2" stroke="black" width="12" x="975" y="446.0"/>
  <text x="975" y="469.2" font-family="Tahoma" font-size="12" transform="rotate(90 975,469.2)" text-rendering="optimizeSpeed" fill="#000000">copy-to-slave (1825)</text>
  <rect fill="blue" height="18.5" stroke="black" width="12" x="990" y="445.8"/>
  <text x="990" y="469.2" font-family="Tahoma" font-size="12" transform="rotate(90 990,469.2)" text-rendering="optimizeSpeed" fill="#000000">python (1846)</text>
  <rect fill="blue" height="18.9" stroke="black" width="12" x="1005" y="445.4"/>
  <text x="1005" y="469.2" font-family="Tahoma" font-size="12" transform="rotate(90 1005,469.2)" text-rendering="optimizeSpeed" fill="#000000">artifactory (1887)</text>
  <rect fill="blue" height="19.0" stroke="black" width="12" x="1020" y="445.3"/>
  <text x="1020" y="469.2" font-family="Tahoma" font-size="12" transform="rotate(90 1020,469.2)" text-rendering="optimizeSpeed" fill="#000000">downstream-buildview (1897)</text>
  <rect fill="blue" height="19.4" stroke="black" width="12" x="1035" y="444.9"/>
  <text x="1035" y="469.2" font-family="Tahoma" font-size="12" transform="rotate(90 1035,469.2)" text-rendering="optimizeSpeed" fill="#000000">sidebar-link (1940)</text>
  <rect fill="blue" height="19.5" stroke="black" width="12" x="1050" y="444.7"/>
  <text x="1050" y="469.2" font-family="Tahoma" font-size="12" transform="rotate(90 1050,469.2)" text-rendering="optimizeSpeed" fill="#000000">view-job-filters (1953)</text>
  <rect fill="blue" height="20.2" stroke="black" width="12" x="1065" y="444.0"/>
  <text x="1065" y="469.2" font-family="Tahoma" font-size="12" transform="rotate(90 1065,469.2)" text-rendering="optimizeSpeed" fill="#000000">ci-game (2020)</text>
  <rect fill="blue" height="20.2" stroke="black" width="12" x="1080" y="444.0"/>
  <text x="1080" y="469.2" font-family="Tahoma" font-size="12" transform="rotate(90 1080,469.2)" text-rendering="optimizeSpeed" fill="#000000">jabber (2022)</text>
  <rect fill="blue" height="20.2" stroke="black" width="12" x="1095" y="444.0"/>
  <text x="1095" y="469.2" font-family="Tahoma" font-size="12" transform="rotate(90 1095,469.2)" text-rendering="optimizeSpeed" fill="#000000">timestamper (2023)</text>
  <rect fill="blue" height="20.8" stroke="black" width="12" x="1110" y="443.5"/>
  <text x="1110" y="469.2" font-family="Tahoma" font-size="12" transform="rotate(90 1110,469.2)" text-rendering="optimizeSpeed" fill="#000000">perforce (2075)</text>
  <rect fill="blue" height="21.2" stroke="black" width="12" x="1125" y="443.1"/>
  <text x="1125" y="469.2" font-family="Tahoma" font-size="12" transform="rotate(90 1125,469.2)" text-rendering="optimizeSpeed" fill="#000000">audit-trail (2119)</text>
  <rect fill="blue" height="21.2" stroke="black" width="12" x="1140" y="443.0"/>
  <text x="1140" y="469.2" font-family="Tahoma" font-size="12" transform="rotate(90 1140,469.2)" text-rendering="optimizeSpeed" fill="#000000">envinject (2125)</text>
  <rect fill="blue" height="21.5" stroke="black" width="12" x="1155" y="442.8"/>
  <text x="1155" y="469.2" font-family="Tahoma" font-size="12" transform="rotate(90 1155,469.2)" text-rendering="optimizeSpeed" fill="#000000">nunit (2148)</text>
  <rect fill="blue" height="21.9" stroke="black" width="12" x="1170" y="442.3"/>
  <text x="1170" y="469.2" font-family="Tahoma" font-size="12" transform="rotate(90 1170,469.2)" text-rendering="optimizeSpeed" fill="#000000">radiatorviewplugin (2192)</text>
  <rect fill="blue" height="22.6" stroke="black" width="12" x="1185" y="441.6"/>
  <text x="1185" y="469.2" font-family="Tahoma" font-size="12" transform="rotate(90 1185,469.2)" text-rendering="optimizeSpeed" fill="#000000">join (2263)</text>
  <rect fill="blue" height="22.8" stroke="black" width="12" x="1200" y="441.5"/>
  <text x="1200" y="469.2" font-family="Tahoma" font-size="12" transform="rotate(90 1200,469.2)" text-rendering="optimizeSpeed" fill="#000000">locks-and-latches (2275)</text>
  <rect fill="blue" height="23.1" stroke="black" width="12" x="1215" y="441.2"/>
  <text x="1215" y="469.2" font-family="Tahoma" font-size="12" transform="rotate(90 1215,469.2)" text-rendering="optimizeSpeed" fill="#000000">jdepend (2309)</text>
  <rect fill="blue" height="23.1" stroke="black" width="12" x="1230" y="441.1"/>
  <text x="1230" y="469.2" font-family="Tahoma" font-size="12" transform="rotate(90 1230,469.2)" text-rendering="optimizeSpeed" fill="#000000">jobConfigHistory (2313)</text>
  <rect fill="blue" height="23.5" stroke="black" width="12" x="1245" y="440.8"/>
  <text x="1245" y="469.2" font-family="Tahoma" font-size="12" transform="rotate(90 1245,469.2)" text-rendering="optimizeSpeed" fill="#000000">batch-task (2346)</text>
  <rect fill="blue" height="23.5" stroke="black" width="12" x="1260" y="440.7"/>
  <text x="1260" y="469.2" font-family="Tahoma" font-size="12" transform="rotate(90 1260,469.2)" text-rendering="optimizeSpeed" fill="#000000">build-pipeline-plugin (2352)</text>
  <rect fill="blue" height="23.9" stroke="black" width="12" x="1275" y="440.4"/>
  <text x="1275" y="469.2" font-family="Tahoma" font-size="12" transform="rotate(90 1275,469.2)" text-rendering="optimizeSpeed" fill="#000000">performance (2385)</text>
  <rect fill="blue" height="26.3" stroke="black" width="12" x="1290" y="438.0"/>
  <text x="1290" y="469.2" font-family="Tahoma" font-size="12" transform="rotate(90 1290,469.2)" text-rendering="optimizeSpeed" fill="#000000">ssh (2629)</text>
  <rect fill="blue" height="26.8" stroke="black" width="12" x="1305" y="437.5"/>
  <text x="1305" y="469.2" font-family="Tahoma" font-size="12" transform="rotate(90 1305,469.2)" text-rendering="optimizeSpeed" fill="#000000">log-parser (2679)</text>
  <rect fill="blue" height="27.0" stroke="black" width="12" x="1320" y="437.3"/>
  <text x="1320" y="469.2" font-family="Tahoma" font-size="12" transform="rotate(90 1320,469.2)" text-rendering="optimizeSpeed" fill="#000000">svn-tag (2698)</text>
  <rect fill="blue" height="27.0" stroke="black" width="12" x="1335" y="437.2"/>
  <text x="1335" y="469.2" font-family="Tahoma" font-size="12" transform="rotate(90 1335,469.2)" text-rendering="optimizeSpeed" fill="#000000">promoted-builds (2702)</text>
  <rect fill="blue" height="27.8" stroke="black" width="12" x="1350" y="436.5"/>
  <text x="1350" y="469.2" font-family="Tahoma" font-size="12" transform="rotate(90 1350,469.2)" text-rendering="optimizeSpeed" fill="#000000">emma (2775)</text>
  <rect fill="blue" height="28.3" stroke="black" width="12" x="1365" y="435.9"/>
  <text x="1365" y="469.2" font-family="Tahoma" font-size="12" transform="rotate(90 1365,469.2)" text-rendering="optimizeSpeed" fill="#000000">scp (2833)</text>
  <rect fill="blue" height="28.4" stroke="black" width="12" x="1380" y="435.8"/>
  <text x="1380" y="469.2" font-family="Tahoma" font-size="12" transform="rotate(90 1380,469.2)" text-rendering="optimizeSpeed" fill="#000000">mercurial (2843)</text>
  <rect fill="blue" height="28.9" stroke="black" width="12" x="1395" y="435.3"/>
  <text x="1395" y="469.2" font-family="Tahoma" font-size="12" transform="rotate(90 1395,469.2)" text-rendering="optimizeSpeed" fill="#000000">m2release (2891)</text>
  <rect fill="blue" height="31.9" stroke="black" width="12" x="1410" y="432.3"/>
  <text x="1410" y="469.2" font-family="Tahoma" font-size="12" transform="rotate(90 1410,469.2)" text-rendering="optimizeSpeed" fill="#000000">github-api (3195)</text>
  <rect fill="blue" height="32.2" stroke="black" width="12" x="1425" y="432.0"/>
  <text x="1425" y="469.2" font-family="Tahoma" font-size="12" transform="rotate(90 1425,469.2)" text-rendering="optimizeSpeed" fill="#000000">publish-over-ssh (3220)</text>
  <rect fill="blue" height="32.3" stroke="black" width="12" x="1440" y="431.9"/>
  <text x="1440" y="469.2" font-family="Tahoma" font-size="12" transform="rotate(90 1440,469.2)" text-rendering="optimizeSpeed" fill="#000000">backup (3232)</text>
  <rect fill="blue" height="32.5" stroke="black" width="12" x="1455" y="431.8"/>
  <text x="1455" y="469.2" font-family="Tahoma" font-size="12" transform="rotate(90 1455,469.2)" text-rendering="optimizeSpeed" fill="#000000">tasks (3250)</text>
  <rect fill="blue" height="32.6" stroke="black" width="12" x="1470" y="431.7"/>
  <text x="1470" y="469.2" font-family="Tahoma" font-size="12" transform="rotate(90 1470,469.2)" text-rendering="optimizeSpeed" fill="#000000">plot (3258)</text>
  <rect fill="blue" height="34.2" stroke="black" width="12" x="1485" y="430.0"/>
  <text x="1485" y="469.2" font-family="Tahoma" font-size="12" transform="rotate(90 1485,469.2)" text-rendering="optimizeSpeed" fill="#000000">postbuild-task (3424)</text>
  <rect fill="blue" height="35.3" stroke="black" width="12" x="1500" y="428.9"/>
  <text x="1500" y="469.2" font-family="Tahoma" font-size="12" transform="rotate(90 1500,469.2)" text-rendering="optimizeSpeed" fill="#000000">instant-messaging (3533)</text>
  <rect fill="blue" height="36.5" stroke="black" width="12" x="1515" y="427.8"/>
  <text x="1515" y="469.2" font-family="Tahoma" font-size="12" transform="rotate(90 1515,469.2)" text-rendering="optimizeSpeed" fill="#000000">jira (3645)</text>
  <rect fill="blue" height="37.1" stroke="black" width="12" x="1530" y="427.1"/>
  <text x="1530" y="469.2" font-family="Tahoma" font-size="12" transform="rotate(90 1530,469.2)" text-rendering="optimizeSpeed" fill="#000000">deploy (3711)</text>
  <rect fill="blue" height="38.3" stroke="black" width="12" x="1545" y="425.9"/>
  <text x="1545" y="469.2" font-family="Tahoma" font-size="12" transform="rotate(90 1545,469.2)" text-rendering="optimizeSpeed" fill="#000000">token-macro (3833)</text>
  <rect fill="blue" height="39.9" stroke="black" width="12" x="1560" y="424.4"/>
  <text x="1560" y="469.2" font-family="Tahoma" font-size="12" transform="rotate(90 1560,469.2)" text-rendering="optimizeSpeed" fill="#000000">build-timeout (3987)</text>
  <rect fill="blue" height="40.0" stroke="black" width="12" x="1575" y="424.2"/>
  <text x="1575" y="469.2" font-family="Tahoma" font-size="12" transform="rotate(90 1575,469.2)" text-rendering="optimizeSpeed" fill="#000000">github (4000)</text>
  <rect fill="blue" height="40.1" stroke="black" width="12" x="1590" y="424.2"/>
  <text x="1590" y="469.2" font-family="Tahoma" font-size="12" transform="rotate(90 1590,469.2)" text-rendering="optimizeSpeed" fill="#000000">msbuild (4008)</text>
  <rect fill="blue" height="40.6" stroke="black" width="12" x="1605" y="423.7"/>
  <text x="1605" y="469.2" font-family="Tahoma" font-size="12" transform="rotate(90 1605,469.2)" text-rendering="optimizeSpeed" fill="#000000">dry (4059)</text>
  <rect fill="blue" height="41.9" stroke="black" width="12" x="1620" y="422.4"/>
  <text x="1620" y="469.2" font-family="Tahoma" font-size="12" transform="rotate(90 1620,469.2)" text-rendering="optimizeSpeed" fill="#000000">chucknorris (4185)</text>
  <rect fill="blue" height="42.1" stroke="black" width="12" x="1635" y="422.1"/>
  <text x="1635" y="469.2" font-family="Tahoma" font-size="12" transform="rotate(90 1635,469.2)" text-rendering="optimizeSpeed" fill="#000000">copyartifact (4210)</text>
  <rect fill="blue" height="43.6" stroke="black" width="12" x="1650" y="420.7"/>
  <text x="1650" y="469.2" font-family="Tahoma" font-size="12" transform="rotate(90 1650,469.2)" text-rendering="optimizeSpeed" fill="#000000">analysis-collector (4359)</text>
  <rect fill="blue" height="44.4" stroke="black" width="12" x="1665" y="419.9"/>
  <text x="1665" y="469.2" font-family="Tahoma" font-size="12" transform="rotate(90 1665,469.2)" text-rendering="optimizeSpeed" fill="#000000">active-directory (4436)</text>
  <rect fill="blue" height="47.9" stroke="black" width="12" x="1680" y="416.4"/>
  <text x="1680" y="469.2" font-family="Tahoma" font-size="12" transform="rotate(90 1680,469.2)" text-rendering="optimizeSpeed" fill="#000000">xunit (4788)</text>
  <rect fill="blue" height="49.7" stroke="black" width="12" x="1695" y="414.5"/>
  <text x="1695" y="469.2" font-family="Tahoma" font-size="12" transform="rotate(90 1695,469.2)" text-rendering="optimizeSpeed" fill="#000000">disk-usage (4973)</text>
  <rect fill="blue" height="50.7" stroke="black" width="12" x="1710" y="413.6"/>
  <text x="1710" y="469.2" font-family="Tahoma" font-size="12" transform="rotate(90 1710,469.2)" text-rendering="optimizeSpeed" fill="#000000">warnings (5069)</text>
  <rect fill="blue" height="54.8" stroke="black" width="12" x="1725" y="409.4"/>
  <text x="1725" y="469.2" font-family="Tahoma" font-size="12" transform="rotate(90 1725,469.2)" text-rendering="optimizeSpeed" fill="#000000">dashboard-view (5483)</text>
  <rect fill="blue" height="54.9" stroke="black" width="12" x="1740" y="409.3"/>
  <text x="1740" y="469.2" font-family="Tahoma" font-size="12" transform="rotate(90 1740,469.2)" text-rendering="optimizeSpeed" fill="#000000">violations (5492)</text>
  <rect fill="blue" height="55.6" stroke="black" width="12" x="1755" y="408.7"/>
  <text x="1755" y="469.2" font-family="Tahoma" font-size="12" transform="rotate(90 1755,469.2)" text-rendering="optimizeSpeed" fill="#000000">parameterized-trigger (5557)</text>
  <rect fill="blue" height="57.8" stroke="black" width="12" x="1770" y="406.5"/>
  <text x="1770" y="469.2" font-family="Tahoma" font-size="12" transform="rotate(90 1770,469.2)" text-rendering="optimizeSpeed" fill="#000000">htmlpublisher (5780)</text>
  <rect fill="blue" height="59.4" stroke="black" width="12" x="1785" y="404.8"/>
  <text x="1785" y="469.2" font-family="Tahoma" font-size="12" transform="rotate(90 1785,469.2)" text-rendering="optimizeSpeed" fill="#000000">findbugs (5944)</text>
  <rect fill="blue" height="61.4" stroke="black" width="12" x="1800" y="402.8"/>
  <text x="1800" y="469.2" font-family="Tahoma" font-size="12" transform="rotate(90 1800,469.2)" text-rendering="optimizeSpeed" fill="#000000">sonar (6144)</text>
  <rect fill="blue" height="61.6" stroke="black" width="12" x="1815" y="402.7"/>
  <text x="1815" y="469.2" font-family="Tahoma" font-size="12" transform="rotate(90 1815,469.2)" text-rendering="optimizeSpeed" fill="#000000">pmd (6159)</text>
  <rect fill="blue" height="66.8" stroke="black" width="12" x="1830" y="397.4"/>
  <text x="1830" y="469.2" font-family="Tahoma" font-size="12" transform="rotate(90 1830,469.2)" text-rendering="optimizeSpeed" fill="#000000">cobertura (6682)</text>
  <rect fill="blue" height="70.2" stroke="black" width="12" x="1845" y="394.0"/>
  <text x="1845" y="469.2" font-family="Tahoma" font-size="12" transform="rotate(90 1845,469.2)" text-rendering="optimizeSpeed" fill="#000000">checkstyle (7022)</text>
  <rect fill="blue" height="91.0" stroke="black" width="12" x="1860" y="373.3"/>
  <text x="1860" y="469.2" font-family="Tahoma" font-size="12" transform="rotate(90 1860,469.2)" text-rendering="optimizeSpeed" fill="#000000">greenballs (9098)</text>
  <rect fill="blue" height="99.7" stroke="black" width="12" x="1875" y="364.6"/>
  <text x="1875" y="469.2" font-family="Tahoma" font-size="12" transform="rotate(90 1875,469.2)" text-rendering="optimizeSpeed" fill="#000000">email-ext (9965)</text>
  <rect fill="blue" height="134.4" stroke="black" width="12" x="1890" y="329.8"/>
  <text x="1890" y="469.2" font-family="Tahoma" font-size="12" transform="rotate(90 1890,469.2)" text-rendering="optimizeSpeed" fill="#000000">analysis-core (13442)</text>
  <rect fill="blue" height="136.4" stroke="black" width="12" x="1905" y="327.8"/>
  <text x="1905" y="469.2" font-family="Tahoma" font-size="12" transform="rotate(90 1905,469.2)" text-rendering="optimizeSpeed" fill="#000000">git (13641)</text>
  <rect fill="blue" height="330.4" stroke="black" width="12" x="1920" y="133.9"/>
  <text x="1920" y="469.2" font-family="Tahoma" font-size="12" transform="rotate(90 1920,469.2)" text-rendering="optimizeSpeed" fill="#000000">translation (33039)</text>
  <rect fill="blue" height="331.2" stroke="black" width="12" x="1935" y="133.1"/>
  <text x="1935" y="469.2" font-family="Tahoma" font-size="12" transform="rotate(90 1935,469.2)" text-rendering="optimizeSpeed" fill="#000000">ant (33117)</text>
  <rect fill="blue" height="332.1" stroke="black" width="12" x="1950" y="132.2"/>
  <text x="1950" y="469.2" font-family="Tahoma" font-size="12" transform="rotate(90 1950,469.2)" text-rendering="optimizeSpeed" fill="#000000">javadoc (33205)</text>
  <rect fill="blue" height="391.9" stroke="black" width="12" x="1965" y="72.4"/>
  <text x="1965" y="469.2" font-family="Tahoma" font-size="12" transform="rotate(90 1965,469.2)" text-rendering="optimizeSpeed" fill="#000000">cvs (39188)</text>
  <rect fill="blue" height="407.4" stroke="black" width="12" x="1980" y="56.9"/>
  <text x="1980" y="469.2" font-family="Tahoma" font-size="12" transform="rotate(90 1980,469.2)" text-rendering="optimizeSpeed" fill="#000000">maven-plugin (40736)</text>
  <rect fill="blue" height="408.6" stroke="black" width="12" x="1995" y="55.7"/>
  <text x="1995" y="469.2" font-family="Tahoma" font-size="12" transform="rotate(90 1995,469.2)" text-rendering="optimizeSpeed" fill="#000000">subversion (40857)</text>
  <rect fill="blue" height="414.2" stroke="black" width="12" x="2010" y="50.0"/>
  <text x="2010" y="469.2" font-family="Tahoma" font-size="12" transform="rotate(90 2010,469.2)" text-rendering="optimizeSpeed" fill="#000000">ssh-slaves (41425)</text>
  <text x="10" y="40" font-family="Tahoma" font-size="20" text-rendering="optimizeSpeed" fill="#000000">Plugin installations (installations &gt; 1000)</text>
</svg>
