<svg xmlns="http://www.w3.org/2000/svg" version="1.1" preserveAspectRatio="xMidYMid meet" viewBox="0 0 3035 1322.2">
  <rect fill="blue" height="124.6" stroke="black" width="12" x="15" y="897.6"/>
  <text x="15" y="1027.2" font-family="Tahoma" font-size="12" transform="rotate(90 15,1027.2)" text-rendering="optimizeSpeed" fill="#000000">0 (3114)</text>
  <rect fill="blue" height="164.2" stroke="black" width="12" x="30" y="858.0"/>
  <text x="30" y="1027.2" font-family="Tahoma" font-size="12" transform="rotate(90 30,1027.2)" text-rendering="optimizeSpeed" fill="#000000">1 (4105)</text>
  <rect fill="blue" height="972.2" stroke="black" width="12" x="45" y="50.0"/>
  <text x="45" y="1027.2" font-family="Tahoma" font-size="12" transform="rotate(90 45,1027.2)" text-rendering="optimizeSpeed" fill="#000000">2 (24305)</text>
  <rect fill="blue" height="99.0" stroke="black" width="12" x="60" y="923.2"/>
  <text x="60" y="1027.2" font-family="Tahoma" font-size="12" transform="rotate(90 60,1027.2)" text-rendering="optimizeSpeed" fill="#000000">3 (2475)</text>
  <rect fill="blue" height="111.8" stroke="black" width="12" x="75" y="910.4"/>
  <text x="75" y="1027.2" font-family="Tahoma" font-size="12" transform="rotate(90 75,1027.2)" text-rendering="optimizeSpeed" fill="#000000">4 (2794)</text>
  <rect fill="blue" height="59.6" stroke="black" width="12" x="90" y="962.6"/>
  <text x="90" y="1027.2" font-family="Tahoma" font-size="12" transform="rotate(90 90,1027.2)" text-rendering="optimizeSpeed" fill="#000000">5 (1491)</text>
  <rect fill="blue" height="46.1" stroke="black" width="12" x="105" y="976.1"/>
  <text x="105" y="1027.2" font-family="Tahoma" font-size="12" transform="rotate(90 105,1027.2)" text-rendering="optimizeSpeed" fill="#000000">6 (1152)</text>
  <rect fill="blue" height="21.6" stroke="black" width="12" x="120" y="1000.6"/>
  <text x="120" y="1027.2" font-family="Tahoma" font-size="12" transform="rotate(90 120,1027.2)" text-rendering="optimizeSpeed" fill="#000000">7 (540)</text>
  <rect fill="blue" height="31.3" stroke="black" width="12" x="135" y="990.9"/>
  <text x="135" y="1027.2" font-family="Tahoma" font-size="12" transform="rotate(90 135,1027.2)" text-rendering="optimizeSpeed" fill="#000000">8 (783)</text>
  <rect fill="blue" height="14.8" stroke="black" width="12" x="150" y="1007.4"/>
  <text x="150" y="1027.2" font-family="Tahoma" font-size="12" transform="rotate(90 150,1027.2)" text-rendering="optimizeSpeed" fill="#000000">9 (370)</text>
  <rect fill="blue" height="29.8" stroke="black" width="12" x="165" y="992.4"/>
  <text x="165" y="1027.2" font-family="Tahoma" font-size="12" transform="rotate(90 165,1027.2)" text-rendering="optimizeSpeed" fill="#000000">10 (745)</text>
  <rect fill="blue" height="9.5" stroke="black" width="12" x="180" y="1012.7"/>
  <text x="180" y="1027.2" font-family="Tahoma" font-size="12" transform="rotate(90 180,1027.2)" text-rendering="optimizeSpeed" fill="#000000">11 (237)</text>
  <rect fill="blue" height="13.4" stroke="black" width="12" x="195" y="1008.8"/>
  <text x="195" y="1027.2" font-family="Tahoma" font-size="12" transform="rotate(90 195,1027.2)" text-rendering="optimizeSpeed" fill="#000000">12 (335)</text>
  <rect fill="blue" height="7.4" stroke="black" width="12" x="210" y="1014.8"/>
  <text x="210" y="1027.2" font-family="Tahoma" font-size="12" transform="rotate(90 210,1027.2)" text-rendering="optimizeSpeed" fill="#000000">13 (184)</text>
  <rect fill="blue" height="8.5" stroke="black" width="12" x="225" y="1013.7"/>
  <text x="225" y="1027.2" font-family="Tahoma" font-size="12" transform="rotate(90 225,1027.2)" text-rendering="optimizeSpeed" fill="#000000">14 (212)</text>
  <rect fill="blue" height="6.4" stroke="black" width="12" x="240" y="1015.8"/>
  <text x="240" y="1027.2" font-family="Tahoma" font-size="12" transform="rotate(90 240,1027.2)" text-rendering="optimizeSpeed" fill="#000000">15 (159)</text>
  <rect fill="blue" height="7.0" stroke="black" width="12" x="255" y="1015.2"/>
  <text x="255" y="1027.2" font-family="Tahoma" font-size="12" transform="rotate(90 255,1027.2)" text-rendering="optimizeSpeed" fill="#000000">16 (175)</text>
  <rect fill="blue" height="5.3" stroke="black" width="12" x="270" y="1016.9"/>
  <text x="270" y="1027.2" font-family="Tahoma" font-size="12" transform="rotate(90 270,1027.2)" text-rendering="optimizeSpeed" fill="#000000">17 (133)</text>
  <rect fill="blue" height="4.6" stroke="black" width="12" x="285" y="1017.6"/>
  <text x="285" y="1027.2" font-family="Tahoma" font-size="12" transform="rotate(90 285,1027.2)" text-rendering="optimizeSpeed" fill="#000000">18 (115)</text>
  <rect fill="blue" height="3.3" stroke="black" width="12" x="300" y="1018.9"/>
  <text x="300" y="1027.2" font-family="Tahoma" font-size="12" transform="rotate(90 300,1027.2)" text-rendering="optimizeSpeed" fill="#000000">19 (83)</text>
  <rect fill="blue" height="7.7" stroke="black" width="12" x="315" y="1014.5"/>
  <text x="315" y="1027.2" font-family="Tahoma" font-size="12" transform="rotate(90 315,1027.2)" text-rendering="optimizeSpeed" fill="#000000">20 (192)</text>
  <rect fill="blue" height="3.0" stroke="black" width="12" x="330" y="1019.2"/>
  <text x="330" y="1027.2" font-family="Tahoma" font-size="12" transform="rotate(90 330,1027.2)" text-rendering="optimizeSpeed" fill="#000000">21 (75)</text>
  <rect fill="blue" height="3.1" stroke="black" width="12" x="345" y="1019.1"/>
  <text x="345" y="1027.2" font-family="Tahoma" font-size="12" transform="rotate(90 345,1027.2)" text-rendering="optimizeSpeed" fill="#000000">22 (77)</text>
  <rect fill="blue" height="2.6" stroke="black" width="12" x="360" y="1019.6"/>
  <text x="360" y="1027.2" font-family="Tahoma" font-size="12" transform="rotate(90 360,1027.2)" text-rendering="optimizeSpeed" fill="#000000">23 (66)</text>
  <rect fill="blue" height="2.8" stroke="black" width="12" x="375" y="1019.4"/>
  <text x="375" y="1027.2" font-family="Tahoma" font-size="12" transform="rotate(90 375,1027.2)" text-rendering="optimizeSpeed" fill="#000000">24 (69)</text>
  <rect fill="blue" height="2.5" stroke="black" width="12" x="390" y="1019.7"/>
  <text x="390" y="1027.2" font-family="Tahoma" font-size="12" transform="rotate(90 390,1027.2)" text-rendering="optimizeSpeed" fill="#000000">25 (63)</text>
  <rect fill="blue" height="2.2" stroke="black" width="12" x="405" y="1020.0"/>
  <text x="405" y="1027.2" font-family="Tahoma" font-size="12" transform="rotate(90 405,1027.2)" text-rendering="optimizeSpeed" fill="#000000">26 (55)</text>
  <rect fill="blue" height="1.4" stroke="black" width="12" x="420" y="1020.8"/>
  <text x="420" y="1027.2" font-family="Tahoma" font-size="12" transform="rotate(90 420,1027.2)" text-rendering="optimizeSpeed" fill="#000000">27 (36)</text>
  <rect fill="blue" height="2.1" stroke="black" width="12" x="435" y="1020.1"/>
  <text x="435" y="1027.2" font-family="Tahoma" font-size="12" transform="rotate(90 435,1027.2)" text-rendering="optimizeSpeed" fill="#000000">28 (53)</text>
  <rect fill="blue" height="1.4" stroke="black" width="12" x="450" y="1020.8"/>
  <text x="450" y="1027.2" font-family="Tahoma" font-size="12" transform="rotate(90 450,1027.2)" text-rendering="optimizeSpeed" fill="#000000">29 (36)</text>
  <rect fill="blue" height="2.3" stroke="black" width="12" x="465" y="1019.9"/>
  <text x="465" y="1027.2" font-family="Tahoma" font-size="12" transform="rotate(90 465,1027.2)" text-rendering="optimizeSpeed" fill="#000000">30 (57)</text>
  <rect fill="blue" height="1.5" stroke="black" width="12" x="480" y="1020.7"/>
  <text x="480" y="1027.2" font-family="Tahoma" font-size="12" transform="rotate(90 480,1027.2)" text-rendering="optimizeSpeed" fill="#000000">31 (38)</text>
  <rect fill="blue" height="1.9" stroke="black" width="12" x="495" y="1020.3"/>
  <text x="495" y="1027.2" font-family="Tahoma" font-size="12" transform="rotate(90 495,1027.2)" text-rendering="optimizeSpeed" fill="#000000">32 (48)</text>
  <rect fill="blue" height="1.3" stroke="black" width="12" x="510" y="1020.9"/>
  <text x="510" y="1027.2" font-family="Tahoma" font-size="12" transform="rotate(90 510,1027.2)" text-rendering="optimizeSpeed" fill="#000000">33 (32)</text>
  <rect fill="blue" height="1.4" stroke="black" width="12" x="525" y="1020.8"/>
  <text x="525" y="1027.2" font-family="Tahoma" font-size="12" transform="rotate(90 525,1027.2)" text-rendering="optimizeSpeed" fill="#000000">34 (36)</text>
  <rect fill="blue" height="1.1" stroke="black" width="12" x="540" y="1021.1"/>
  <text x="540" y="1027.2" font-family="Tahoma" font-size="12" transform="rotate(90 540,1027.2)" text-rendering="optimizeSpeed" fill="#000000">35 (28)</text>
  <rect fill="blue" height="1.2" stroke="black" width="12" x="555" y="1021.0"/>
  <text x="555" y="1027.2" font-family="Tahoma" font-size="12" transform="rotate(90 555,1027.2)" text-rendering="optimizeSpeed" fill="#000000">36 (30)</text>
  <rect fill="blue" height="0.8" stroke="black" width="12" x="570" y="1021.4"/>
  <text x="570" y="1027.2" font-family="Tahoma" font-size="12" transform="rotate(90 570,1027.2)" text-rendering="optimizeSpeed" fill="#000000">37 (19)</text>
  <rect fill="blue" height="1.0" stroke="black" width="12" x="585" y="1021.2"/>
  <text x="585" y="1027.2" font-family="Tahoma" font-size="12" transform="rotate(90 585,1027.2)" text-rendering="optimizeSpeed" fill="#000000">38 (26)</text>
  <rect fill="blue" height="0.6" stroke="black" width="12" x="600" y="1021.6"/>
  <text x="600" y="1027.2" font-family="Tahoma" font-size="12" transform="rotate(90 600,1027.2)" text-rendering="optimizeSpeed" fill="#000000">39 (15)</text>
  <rect fill="blue" height="1.0" stroke="black" width="12" x="615" y="1021.2"/>
  <text x="615" y="1027.2" font-family="Tahoma" font-size="12" transform="rotate(90 615,1027.2)" text-rendering="optimizeSpeed" fill="#000000">40 (26)</text>
  <rect fill="blue" height="1.1" stroke="black" width="12" x="630" y="1021.1"/>
  <text x="630" y="1027.2" font-family="Tahoma" font-size="12" transform="rotate(90 630,1027.2)" text-rendering="optimizeSpeed" fill="#000000">41 (28)</text>
  <rect fill="blue" height="0.8" stroke="black" width="12" x="645" y="1021.4"/>
  <text x="645" y="1027.2" font-family="Tahoma" font-size="12" transform="rotate(90 645,1027.2)" text-rendering="optimizeSpeed" fill="#000000">42 (21)</text>
  <rect fill="blue" height="0.5" stroke="black" width="12" x="660" y="1021.7"/>
  <text x="660" y="1027.2" font-family="Tahoma" font-size="12" transform="rotate(90 660,1027.2)" text-rendering="optimizeSpeed" fill="#000000">43 (12)</text>
  <rect fill="blue" height="0.8" stroke="black" width="12" x="675" y="1021.4"/>
  <text x="675" y="1027.2" font-family="Tahoma" font-size="12" transform="rotate(90 675,1027.2)" text-rendering="optimizeSpeed" fill="#000000">44 (20)</text>
  <rect fill="blue" height="0.5" stroke="black" width="12" x="690" y="1021.7"/>
  <text x="690" y="1027.2" font-family="Tahoma" font-size="12" transform="rotate(90 690,1027.2)" text-rendering="optimizeSpeed" fill="#000000">45 (13)</text>
  <rect fill="blue" height="0.5" stroke="black" width="12" x="705" y="1021.7"/>
  <text x="705" y="1027.2" font-family="Tahoma" font-size="12" transform="rotate(90 705,1027.2)" text-rendering="optimizeSpeed" fill="#000000">46 (12)</text>
  <rect fill="blue" height="0.8" stroke="black" width="12" x="720" y="1021.4"/>
  <text x="720" y="1027.2" font-family="Tahoma" font-size="12" transform="rotate(90 720,1027.2)" text-rendering="optimizeSpeed" fill="#000000">47 (20)</text>
  <rect fill="blue" height="0.3" stroke="black" width="12" x="735" y="1021.9"/>
  <text x="735" y="1027.2" font-family="Tahoma" font-size="12" transform="rotate(90 735,1027.2)" text-rendering="optimizeSpeed" fill="#000000">48 (8)</text>
  <rect fill="blue" height="0.2" stroke="black" width="12" x="750" y="1022.0"/>
  <text x="750" y="1027.2" font-family="Tahoma" font-size="12" transform="rotate(90 750,1027.2)" text-rendering="optimizeSpeed" fill="#000000">49 (5)</text>
  <rect fill="blue" height="0.5" stroke="black" width="12" x="765" y="1021.7"/>
  <text x="765" y="1027.2" font-family="Tahoma" font-size="12" transform="rotate(90 765,1027.2)" text-rendering="optimizeSpeed" fill="#000000">50 (13)</text>
  <rect fill="blue" height="0.6" stroke="black" width="12" x="780" y="1021.6"/>
  <text x="780" y="1027.2" font-family="Tahoma" font-size="12" transform="rotate(90 780,1027.2)" text-rendering="optimizeSpeed" fill="#000000">51 (16)</text>
  <rect fill="blue" height="0.5" stroke="black" width="12" x="795" y="1021.7"/>
  <text x="795" y="1027.2" font-family="Tahoma" font-size="12" transform="rotate(90 795,1027.2)" text-rendering="optimizeSpeed" fill="#000000">52 (12)</text>
  <rect fill="blue" height="0.4" stroke="black" width="12" x="810" y="1021.8"/>
  <text x="810" y="1027.2" font-family="Tahoma" font-size="12" transform="rotate(90 810,1027.2)" text-rendering="optimizeSpeed" fill="#000000">53 (9)</text>
  <rect fill="blue" height="0.4" stroke="black" width="12" x="825" y="1021.8"/>
  <text x="825" y="1027.2" font-family="Tahoma" font-size="12" transform="rotate(90 825,1027.2)" text-rendering="optimizeSpeed" fill="#000000">54 (10)</text>
  <rect fill="blue" height="0.4" stroke="black" width="12" x="840" y="1021.8"/>
  <text x="840" y="1027.2" font-family="Tahoma" font-size="12" transform="rotate(90 840,1027.2)" text-rendering="optimizeSpeed" fill="#000000">55 (9)</text>
  <rect fill="blue" height="0.5" stroke="black" width="12" x="855" y="1021.7"/>
  <text x="855" y="1027.2" font-family="Tahoma" font-size="12" transform="rotate(90 855,1027.2)" text-rendering="optimizeSpeed" fill="#000000">56 (12)</text>
  <rect fill="blue" height="0.2" stroke="black" width="12" x="870" y="1022.0"/>
  <text x="870" y="1027.2" font-family="Tahoma" font-size="12" transform="rotate(90 870,1027.2)" text-rendering="optimizeSpeed" fill="#000000">57 (6)</text>
  <rect fill="blue" height="0.2" stroke="black" width="12" x="885" y="1022.0"/>
  <text x="885" y="1027.2" font-family="Tahoma" font-size="12" transform="rotate(90 885,1027.2)" text-rendering="optimizeSpeed" fill="#000000">58 (5)</text>
  <rect fill="blue" height="0.3" stroke="black" width="12" x="900" y="1021.9"/>
  <text x="900" y="1027.2" font-family="Tahoma" font-size="12" transform="rotate(90 900,1027.2)" text-rendering="optimizeSpeed" fill="#000000">59 (8)</text>
  <rect fill="blue" height="0.1" stroke="black" width="12" x="915" y="1022.1"/>
  <text x="915" y="1027.2" font-family="Tahoma" font-size="12" transform="rotate(90 915,1027.2)" text-rendering="optimizeSpeed" fill="#000000">60 (3)</text>
  <rect fill="blue" height="0.3" stroke="black" width="12" x="930" y="1021.9"/>
  <text x="930" y="1027.2" font-family="Tahoma" font-size="12" transform="rotate(90 930,1027.2)" text-rendering="optimizeSpeed" fill="#000000">61 (7)</text>
  <rect fill="blue" height="0.2" stroke="black" width="12" x="945" y="1022.0"/>
  <text x="945" y="1027.2" font-family="Tahoma" font-size="12" transform="rotate(90 945,1027.2)" text-rendering="optimizeSpeed" fill="#000000">62 (6)</text>
  <rect fill="blue" height="0.4" stroke="black" width="12" x="960" y="1021.8"/>
  <text x="960" y="1027.2" font-family="Tahoma" font-size="12" transform="rotate(90 960,1027.2)" text-rendering="optimizeSpeed" fill="#000000">63 (9)</text>
  <rect fill="blue" height="0.4" stroke="black" width="12" x="975" y="1021.8"/>
  <text x="975" y="1027.2" font-family="Tahoma" font-size="12" transform="rotate(90 975,1027.2)" text-rendering="optimizeSpeed" fill="#000000">64 (9)</text>
  <rect fill="blue" height="0.3" stroke="black" width="12" x="990" y="1021.9"/>
  <text x="990" y="1027.2" font-family="Tahoma" font-size="12" transform="rotate(90 990,1027.2)" text-rendering="optimizeSpeed" fill="#000000">65 (7)</text>
  <rect fill="blue" height="0.3" stroke="black" width="12" x="1005" y="1021.9"/>
  <text x="1005" y="1027.2" font-family="Tahoma" font-size="12" transform="rotate(90 1005,1027.2)" text-rendering="optimizeSpeed" fill="#000000">66 (8)</text>
  <rect fill="blue" height="0.1" stroke="black" width="12" x="1020" y="1022.1"/>
  <text x="1020" y="1027.2" font-family="Tahoma" font-size="12" transform="rotate(90 1020,1027.2)" text-rendering="optimizeSpeed" fill="#000000">67 (2)</text>
  <rect fill="blue" height="0.4" stroke="black" width="12" x="1035" y="1021.8"/>
  <text x="1035" y="1027.2" font-family="Tahoma" font-size="12" transform="rotate(90 1035,1027.2)" text-rendering="optimizeSpeed" fill="#000000">68 (9)</text>
  <rect fill="blue" height="0.2" stroke="black" width="12" x="1050" y="1022.0"/>
  <text x="1050" y="1027.2" font-family="Tahoma" font-size="12" transform="rotate(90 1050,1027.2)" text-rendering="optimizeSpeed" fill="#000000">69 (6)</text>
  <rect fill="blue" height="0.3" stroke="black" width="12" x="1065" y="1021.9"/>
  <text x="1065" y="1027.2" font-family="Tahoma" font-size="12" transform="rotate(90 1065,1027.2)" text-rendering="optimizeSpeed" fill="#000000">70 (8)</text>
  <rect fill="blue" height="0.3" stroke="black" width="12" x="1080" y="1021.9"/>
  <text x="1080" y="1027.2" font-family="Tahoma" font-size="12" transform="rotate(90 1080,1027.2)" text-rendering="optimizeSpeed" fill="#000000">71 (8)</text>
  <rect fill="blue" height="0.2" stroke="black" width="12" x="1095" y="1022.0"/>
  <text x="1095" y="1027.2" font-family="Tahoma" font-size="12" transform="rotate(90 1095,1027.2)" text-rendering="optimizeSpeed" fill="#000000">72 (5)</text>
  <rect fill="blue" height="0.2" stroke="black" width="12" x="1110" y="1022.0"/>
  <text x="1110" y="1027.2" font-family="Tahoma" font-size="12" transform="rotate(90 1110,1027.2)" text-rendering="optimizeSpeed" fill="#000000">73 (6)</text>
  <rect fill="blue" height="0.0" stroke="black" width="12" x="1125" y="1022.2"/>
  <text x="1125" y="1027.2" font-family="Tahoma" font-size="12" transform="rotate(90 1125,1027.2)" text-rendering="optimizeSpeed" fill="#000000">74 (1)</text>
  <rect fill="blue" height="0.2" stroke="black" width="12" x="1140" y="1022.0"/>
  <text x="1140" y="1027.2" font-family="Tahoma" font-size="12" transform="rotate(90 1140,1027.2)" text-rendering="optimizeSpeed" fill="#000000">75 (4)</text>
  <rect fill="blue" height="0.2" stroke="black" width="12" x="1155" y="1022.0"/>
  <text x="1155" y="1027.2" font-family="Tahoma" font-size="12" transform="rotate(90 1155,1027.2)" text-rendering="optimizeSpeed" fill="#000000">76 (4)</text>
  <rect fill="blue" height="0.2" stroke="black" width="12" x="1170" y="1022.0"/>
  <text x="1170" y="1027.2" font-family="Tahoma" font-size="12" transform="rotate(90 1170,1027.2)" text-rendering="optimizeSpeed" fill="#000000">77 (5)</text>
  <rect fill="blue" height="0.2" stroke="black" width="12" x="1185" y="1022.0"/>
  <text x="1185" y="1027.2" font-family="Tahoma" font-size="12" transform="rotate(90 1185,1027.2)" text-rendering="optimizeSpeed" fill="#000000">78 (5)</text>
  <rect fill="blue" height="0.2" stroke="black" width="12" x="1200" y="1022.0"/>
  <text x="1200" y="1027.2" font-family="Tahoma" font-size="12" transform="rotate(90 1200,1027.2)" text-rendering="optimizeSpeed" fill="#000000">79 (4)</text>
  <rect fill="blue" height="0.0" stroke="black" width="12" x="1215" y="1022.2"/>
  <text x="1215" y="1027.2" font-family="Tahoma" font-size="12" transform="rotate(90 1215,1027.2)" text-rendering="optimizeSpeed" fill="#000000">80 (1)</text>
  <rect fill="blue" height="0.2" stroke="black" width="12" x="1230" y="1022.0"/>
  <text x="1230" y="1027.2" font-family="Tahoma" font-size="12" transform="rotate(90 1230,1027.2)" text-rendering="optimizeSpeed" fill="#000000">81 (4)</text>
  <rect fill="blue" height="0.2" stroke="black" width="12" x="1245" y="1022.0"/>
  <text x="1245" y="1027.2" font-family="Tahoma" font-size="12" transform="rotate(90 1245,1027.2)" text-rendering="optimizeSpeed" fill="#000000">82 (4)</text>
  <rect fill="blue" height="0.0" stroke="black" width="12" x="1260" y="1022.2"/>
  <text x="1260" y="1027.2" font-family="Tahoma" font-size="12" transform="rotate(90 1260,1027.2)" text-rendering="optimizeSpeed" fill="#000000">83 (1)</text>
  <rect fill="blue" height="0.2" stroke="black" width="12" x="1275" y="1022.0"/>
  <text x="1275" y="1027.2" font-family="Tahoma" font-size="12" transform="rotate(90 1275,1027.2)" text-rendering="optimizeSpeed" fill="#000000">84 (5)</text>
  <rect fill="blue" height="0.1" stroke="black" width="12" x="1290" y="1022.1"/>
  <text x="1290" y="1027.2" font-family="Tahoma" font-size="12" transform="rotate(90 1290,1027.2)" text-rendering="optimizeSpeed" fill="#000000">85 (3)</text>
  <rect fill="blue" height="0.1" stroke="black" width="12" x="1305" y="1022.1"/>
  <text x="1305" y="1027.2" font-family="Tahoma" font-size="12" transform="rotate(90 1305,1027.2)" text-rendering="optimizeSpeed" fill="#000000">86 (3)</text>
  <rect fill="blue" height="0.2" stroke="black" width="12" x="1320" y="1022.0"/>
  <text x="1320" y="1027.2" font-family="Tahoma" font-size="12" transform="rotate(90 1320,1027.2)" text-rendering="optimizeSpeed" fill="#000000">87 (5)</text>
  <rect fill="blue" height="0.2" stroke="black" width="12" x="1335" y="1022.0"/>
  <text x="1335" y="1027.2" font-family="Tahoma" font-size="12" transform="rotate(90 1335,1027.2)" text-rendering="optimizeSpeed" fill="#000000">88 (4)</text>
  <rect fill="blue" height="0.0" stroke="black" width="12" x="1350" y="1022.2"/>
  <text x="1350" y="1027.2" font-family="Tahoma" font-size="12" transform="rotate(90 1350,1027.2)" text-rendering="optimizeSpeed" fill="#000000">89 (1)</text>
  <rect fill="blue" height="0.1" stroke="black" width="12" x="1365" y="1022.1"/>
  <text x="1365" y="1027.2" font-family="Tahoma" font-size="12" transform="rotate(90 1365,1027.2)" text-rendering="optimizeSpeed" fill="#000000">90 (2)</text>
  <rect fill="blue" height="0.2" stroke="black" width="12" x="1380" y="1022.0"/>
  <text x="1380" y="1027.2" font-family="Tahoma" font-size="12" transform="rotate(90 1380,1027.2)" text-rendering="optimizeSpeed" fill="#000000">91 (4)</text>
  <rect fill="blue" height="0.2" stroke="black" width="12" x="1395" y="1022.0"/>
  <text x="1395" y="1027.2" font-family="Tahoma" font-size="12" transform="rotate(90 1395,1027.2)" text-rendering="optimizeSpeed" fill="#000000">92 (4)</text>
  <rect fill="blue" height="0.2" stroke="black" width="12" x="1410" y="1022.0"/>
  <text x="1410" y="1027.2" font-family="Tahoma" font-size="12" transform="rotate(90 1410,1027.2)" text-rendering="optimizeSpeed" fill="#000000">93 (4)</text>
  <rect fill="blue" height="0.2" stroke="black" width="12" x="1425" y="1022.0"/>
  <text x="1425" y="1027.2" font-family="Tahoma" font-size="12" transform="rotate(90 1425,1027.2)" text-rendering="optimizeSpeed" fill="#000000">94 (5)</text>
  <rect fill="blue" height="0.1" stroke="black" width="12" x="1440" y="1022.1"/>
  <text x="1440" y="1027.2" font-family="Tahoma" font-size="12" transform="rotate(90 1440,1027.2)" text-rendering="optimizeSpeed" fill="#000000">95 (2)</text>
  <rect fill="blue" height="0.1" stroke="black" width="12" x="1455" y="1022.1"/>
  <text x="1455" y="1027.2" font-family="Tahoma" font-size="12" transform="rotate(90 1455,1027.2)" text-rendering="optimizeSpeed" fill="#000000">96 (2)</text>
  <rect fill="blue" height="0.0" stroke="black" width="12" x="1470" y="1022.2"/>
  <text x="1470" y="1027.2" font-family="Tahoma" font-size="12" transform="rotate(90 1470,1027.2)" text-rendering="optimizeSpeed" fill="#000000">97 (1)</text>
  <rect fill="blue" height="0.0" stroke="black" width="12" x="1485" y="1022.2"/>
  <text x="1485" y="1027.2" font-family="Tahoma" font-size="12" transform="rotate(90 1485,1027.2)" text-rendering="optimizeSpeed" fill="#000000">98 (1)</text>
  <rect fill="blue" height="0.1" stroke="black" width="12" x="1500" y="1022.1"/>
  <text x="1500" y="1027.2" font-family="Tahoma" font-size="12" transform="rotate(90 1500,1027.2)" text-rendering="optimizeSpeed" fill="#000000">99 (2)</text>
  <rect fill="blue" height="0.2" stroke="black" width="12" x="1515" y="1022.0"/>
  <text x="1515" y="1027.2" font-family="Tahoma" font-size="12" transform="rotate(90 1515,1027.2)" text-rendering="optimizeSpeed" fill="#000000">100 (6)</text>
  <rect fill="blue" height="0.0" stroke="black" width="12" x="1530" y="1022.2"/>
  <text x="1530" y="1027.2" font-family="Tahoma" font-size="12" transform="rotate(90 1530,1027.2)" text-rendering="optimizeSpeed" fill="#000000">101 (1)</text>
  <rect fill="blue" height="0.0" stroke="black" width="12" x="1545" y="1022.2"/>
  <text x="1545" y="1027.2" font-family="Tahoma" font-size="12" transform="rotate(90 1545,1027.2)" text-rendering="optimizeSpeed" fill="#000000">102 (1)</text>
  <rect fill="blue" height="0.1" stroke="black" width="12" x="1560" y="1022.1"/>
  <text x="1560" y="1027.2" font-family="Tahoma" font-size="12" transform="rotate(90 1560,1027.2)" text-rendering="optimizeSpeed" fill="#000000">103 (2)</text>
  <rect fill="blue" height="0.1" stroke="black" width="12" x="1575" y="1022.1"/>
  <text x="1575" y="1027.2" font-family="Tahoma" font-size="12" transform="rotate(90 1575,1027.2)" text-rendering="optimizeSpeed" fill="#000000">104 (2)</text>
  <rect fill="blue" height="0.1" stroke="black" width="12" x="1590" y="1022.1"/>
  <text x="1590" y="1027.2" font-family="Tahoma" font-size="12" transform="rotate(90 1590,1027.2)" text-rendering="optimizeSpeed" fill="#000000">105 (3)</text>
  <rect fill="blue" height="0.1" stroke="black" width="12" x="1605" y="1022.1"/>
  <text x="1605" y="1027.2" font-family="Tahoma" font-size="12" transform="rotate(90 1605,1027.2)" text-rendering="optimizeSpeed" fill="#000000">106 (2)</text>
  <rect fill="blue" height="0.0" stroke="black" width="12" x="1620" y="1022.2"/>
  <text x="1620" y="1027.2" font-family="Tahoma" font-size="12" transform="rotate(90 1620,1027.2)" text-rendering="optimizeSpeed" fill="#000000">107 (1)</text>
  <rect fill="blue" height="0.0" stroke="black" width="12" x="1635" y="1022.2"/>
  <text x="1635" y="1027.2" font-family="Tahoma" font-size="12" transform="rotate(90 1635,1027.2)" text-rendering="optimizeSpeed" fill="#000000">108 (1)</text>
  <rect fill="blue" height="0.0" stroke="black" width="12" x="1650" y="1022.2"/>
  <text x="1650" y="1027.2" font-family="Tahoma" font-size="12" transform="rotate(90 1650,1027.2)" text-rendering="optimizeSpeed" fill="#000000">109 (1)</text>
  <rect fill="blue" height="0.1" stroke="black" width="12" x="1665" y="1022.1"/>
  <text x="1665" y="1027.2" font-family="Tahoma" font-size="12" transform="rotate(90 1665,1027.2)" text-rendering="optimizeSpeed" fill="#000000">110 (3)</text>
  <rect fill="blue" height="0.1" stroke="black" width="12" x="1680" y="1022.1"/>
  <text x="1680" y="1027.2" font-family="Tahoma" font-size="12" transform="rotate(90 1680,1027.2)" text-rendering="optimizeSpeed" fill="#000000">111 (3)</text>
  <rect fill="blue" height="0.0" stroke="black" width="12" x="1695" y="1022.2"/>
  <text x="1695" y="1027.2" font-family="Tahoma" font-size="12" transform="rotate(90 1695,1027.2)" text-rendering="optimizeSpeed" fill="#000000">112 (1)</text>
  <rect fill="blue" height="0.0" stroke="black" width="12" x="1710" y="1022.2"/>
  <text x="1710" y="1027.2" font-family="Tahoma" font-size="12" transform="rotate(90 1710,1027.2)" text-rendering="optimizeSpeed" fill="#000000">114 (1)</text>
  <rect fill="blue" height="0.1" stroke="black" width="12" x="1725" y="1022.1"/>
  <text x="1725" y="1027.2" font-family="Tahoma" font-size="12" transform="rotate(90 1725,1027.2)" text-rendering="optimizeSpeed" fill="#000000">115 (3)</text>
  <rect fill="blue" height="0.0" stroke="black" width="12" x="1740" y="1022.2"/>
  <text x="1740" y="1027.2" font-family="Tahoma" font-size="12" transform="rotate(90 1740,1027.2)" text-rendering="optimizeSpeed" fill="#000000">116 (1)</text>
  <rect fill="blue" height="0.0" stroke="black" width="12" x="1755" y="1022.2"/>
  <text x="1755" y="1027.2" font-family="Tahoma" font-size="12" transform="rotate(90 1755,1027.2)" text-rendering="optimizeSpeed" fill="#000000">117 (1)</text>
  <rect fill="blue" height="0.1" stroke="black" width="12" x="1770" y="1022.1"/>
  <text x="1770" y="1027.2" font-family="Tahoma" font-size="12" transform="rotate(90 1770,1027.2)" text-rendering="optimizeSpeed" fill="#000000">118 (3)</text>
  <rect fill="blue" height="0.2" stroke="black" width="12" x="1785" y="1022.0"/>
  <text x="1785" y="1027.2" font-family="Tahoma" font-size="12" transform="rotate(90 1785,1027.2)" text-rendering="optimizeSpeed" fill="#000000">120 (4)</text>
  <rect fill="blue" height="0.1" stroke="black" width="12" x="1800" y="1022.1"/>
  <text x="1800" y="1027.2" font-family="Tahoma" font-size="12" transform="rotate(90 1800,1027.2)" text-rendering="optimizeSpeed" fill="#000000">121 (2)</text>
  <rect fill="blue" height="0.2" stroke="black" width="12" x="1815" y="1022.0"/>
  <text x="1815" y="1027.2" font-family="Tahoma" font-size="12" transform="rotate(90 1815,1027.2)" text-rendering="optimizeSpeed" fill="#000000">122 (4)</text>
  <rect fill="blue" height="0.1" stroke="black" width="12" x="1830" y="1022.1"/>
  <text x="1830" y="1027.2" font-family="Tahoma" font-size="12" transform="rotate(90 1830,1027.2)" text-rendering="optimizeSpeed" fill="#000000">123 (2)</text>
  <rect fill="blue" height="0.1" stroke="black" width="12" x="1845" y="1022.1"/>
  <text x="1845" y="1027.2" font-family="Tahoma" font-size="12" transform="rotate(90 1845,1027.2)" text-rendering="optimizeSpeed" fill="#000000">124 (3)</text>
  <rect fill="blue" height="0.0" stroke="black" width="12" x="1860" y="1022.2"/>
  <text x="1860" y="1027.2" font-family="Tahoma" font-size="12" transform="rotate(90 1860,1027.2)" text-rendering="optimizeSpeed" fill="#000000">125 (1)</text>
  <rect fill="blue" height="0.1" stroke="black" width="12" x="1875" y="1022.1"/>
  <text x="1875" y="1027.2" font-family="Tahoma" font-size="12" transform="rotate(90 1875,1027.2)" text-rendering="optimizeSpeed" fill="#000000">127 (2)</text>
  <rect fill="blue" height="0.0" stroke="black" width="12" x="1890" y="1022.2"/>
  <text x="1890" y="1027.2" font-family="Tahoma" font-size="12" transform="rotate(90 1890,1027.2)" text-rendering="optimizeSpeed" fill="#000000">128 (1)</text>
  <rect fill="blue" height="0.2" stroke="black" width="12" x="1905" y="1022.0"/>
  <text x="1905" y="1027.2" font-family="Tahoma" font-size="12" transform="rotate(90 1905,1027.2)" text-rendering="optimizeSpeed" fill="#000000">130 (4)</text>
  <rect fill="blue" height="0.0" stroke="black" width="12" x="1920" y="1022.2"/>
  <text x="1920" y="1027.2" font-family="Tahoma" font-size="12" transform="rotate(90 1920,1027.2)" text-rendering="optimizeSpeed" fill="#000000">131 (1)</text>
  <rect fill="blue" height="0.0" stroke="black" width="12" x="1935" y="1022.2"/>
  <text x="1935" y="1027.2" font-family="Tahoma" font-size="12" transform="rotate(90 1935,1027.2)" text-rendering="optimizeSpeed" fill="#000000">133 (1)</text>
  <rect fill="blue" height="0.0" stroke="black" width="12" x="1950" y="1022.2"/>
  <text x="1950" y="1027.2" font-family="Tahoma" font-size="12" transform="rotate(90 1950,1027.2)" text-rendering="optimizeSpeed" fill="#000000">135 (1)</text>
  <rect fill="blue" height="0.0" stroke="black" width="12" x="1965" y="1022.2"/>
  <text x="1965" y="1027.2" font-family="Tahoma" font-size="12" transform="rotate(90 1965,1027.2)" text-rendering="optimizeSpeed" fill="#000000">136 (1)</text>
  <rect fill="blue" height="0.1" stroke="black" width="12" x="1980" y="1022.1"/>
  <text x="1980" y="1027.2" font-family="Tahoma" font-size="12" transform="rotate(90 1980,1027.2)" text-rendering="optimizeSpeed" fill="#000000">137 (2)</text>
  <rect fill="blue" height="0.1" stroke="black" width="12" x="1995" y="1022.1"/>
  <text x="1995" y="1027.2" font-family="Tahoma" font-size="12" transform="rotate(90 1995,1027.2)" text-rendering="optimizeSpeed" fill="#000000">139 (2)</text>
  <rect fill="blue" height="0.1" stroke="black" width="12" x="2010" y="1022.1"/>
  <text x="2010" y="1027.2" font-family="Tahoma" font-size="12" transform="rotate(90 2010,1027.2)" text-rendering="optimizeSpeed" fill="#000000">140 (2)</text>
  <rect fill="blue" height="0.1" stroke="black" width="12" x="2025" y="1022.1"/>
  <text x="2025" y="1027.2" font-family="Tahoma" font-size="12" transform="rotate(90 2025,1027.2)" text-rendering="optimizeSpeed" fill="#000000">141 (2)</text>
  <rect fill="blue" height="0.1" stroke="black" width="12" x="2040" y="1022.1"/>
  <text x="2040" y="1027.2" font-family="Tahoma" font-size="12" transform="rotate(90 2040,1027.2)" text-rendering="optimizeSpeed" fill="#000000">143 (2)</text>
  <rect fill="blue" height="0.0" stroke="black" width="12" x="2055" y="1022.2"/>
  <text x="2055" y="1027.2" font-family="Tahoma" font-size="12" transform="rotate(90 2055,1027.2)" text-rendering="optimizeSpeed" fill="#000000">144 (1)</text>
  <rect fill="blue" height="0.0" stroke="black" width="12" x="2070" y="1022.2"/>
  <text x="2070" y="1027.2" font-family="Tahoma" font-size="12" transform="rotate(90 2070,1027.2)" text-rendering="optimizeSpeed" fill="#000000">147 (1)</text>
  <rect fill="blue" height="0.0" stroke="black" width="12" x="2085" y="1022.2"/>
  <text x="2085" y="1027.2" font-family="Tahoma" font-size="12" transform="rotate(90 2085,1027.2)" text-rendering="optimizeSpeed" fill="#000000">148 (1)</text>
  <rect fill="blue" height="0.0" stroke="black" width="12" x="2100" y="1022.2"/>
  <text x="2100" y="1027.2" font-family="Tahoma" font-size="12" transform="rotate(90 2100,1027.2)" text-rendering="optimizeSpeed" fill="#000000">149 (1)</text>
  <rect fill="blue" height="0.0" stroke="black" width="12" x="2115" y="1022.2"/>
  <text x="2115" y="1027.2" font-family="Tahoma" font-size="12" transform="rotate(90 2115,1027.2)" text-rendering="optimizeSpeed" fill="#000000">150 (1)</text>
  <rect fill="blue" height="0.1" stroke="black" width="12" x="2130" y="1022.1"/>
  <text x="2130" y="1027.2" font-family="Tahoma" font-size="12" transform="rotate(90 2130,1027.2)" text-rendering="optimizeSpeed" fill="#000000">151 (2)</text>
  <rect fill="blue" height="0.0" stroke="black" width="12" x="2145" y="1022.2"/>
  <text x="2145" y="1027.2" font-family="Tahoma" font-size="12" transform="rotate(90 2145,1027.2)" text-rendering="optimizeSpeed" fill="#000000">154 (1)</text>
  <rect fill="blue" height="0.0" stroke="black" width="12" x="2160" y="1022.2"/>
  <text x="2160" y="1027.2" font-family="Tahoma" font-size="12" transform="rotate(90 2160,1027.2)" text-rendering="optimizeSpeed" fill="#000000">161 (1)</text>
  <rect fill="blue" height="0.0" stroke="black" width="12" x="2175" y="1022.2"/>
  <text x="2175" y="1027.2" font-family="Tahoma" font-size="12" transform="rotate(90 2175,1027.2)" text-rendering="optimizeSpeed" fill="#000000">162 (1)</text>
  <rect fill="blue" height="0.1" stroke="black" width="12" x="2190" y="1022.1"/>
  <text x="2190" y="1027.2" font-family="Tahoma" font-size="12" transform="rotate(90 2190,1027.2)" text-rendering="optimizeSpeed" fill="#000000">164 (2)</text>
  <rect fill="blue" height="0.0" stroke="black" width="12" x="2205" y="1022.2"/>
  <text x="2205" y="1027.2" font-family="Tahoma" font-size="12" transform="rotate(90 2205,1027.2)" text-rendering="optimizeSpeed" fill="#000000">167 (1)</text>
  <rect fill="blue" height="0.0" stroke="black" width="12" x="2220" y="1022.2"/>
  <text x="2220" y="1027.2" font-family="Tahoma" font-size="12" transform="rotate(90 2220,1027.2)" text-rendering="optimizeSpeed" fill="#000000">175 (1)</text>
  <rect fill="blue" height="0.0" stroke="black" width="12" x="2235" y="1022.2"/>
  <text x="2235" y="1027.2" font-family="Tahoma" font-size="12" transform="rotate(90 2235,1027.2)" text-rendering="optimizeSpeed" fill="#000000">178 (1)</text>
  <rect fill="blue" height="0.1" stroke="black" width="12" x="2250" y="1022.1"/>
  <text x="2250" y="1027.2" font-family="Tahoma" font-size="12" transform="rotate(90 2250,1027.2)" text-rendering="optimizeSpeed" fill="#000000">181 (2)</text>
  <rect fill="blue" height="0.0" stroke="black" width="12" x="2265" y="1022.2"/>
  <text x="2265" y="1027.2" font-family="Tahoma" font-size="12" transform="rotate(90 2265,1027.2)" text-rendering="optimizeSpeed" fill="#000000">187 (1)</text>
  <rect fill="blue" height="0.0" stroke="black" width="12" x="2280" y="1022.2"/>
  <text x="2280" y="1027.2" font-family="Tahoma" font-size="12" transform="rotate(90 2280,1027.2)" text-rendering="optimizeSpeed" fill="#000000">193 (1)</text>
  <rect fill="blue" height="0.1" stroke="black" width="12" x="2295" y="1022.1"/>
  <text x="2295" y="1027.2" font-family="Tahoma" font-size="12" transform="rotate(90 2295,1027.2)" text-rendering="optimizeSpeed" fill="#000000">200 (2)</text>
  <rect fill="blue" height="0.0" stroke="black" width="12" x="2310" y="1022.2"/>
  <text x="2310" y="1027.2" font-family="Tahoma" font-size="12" transform="rotate(90 2310,1027.2)" text-rendering="optimizeSpeed" fill="#000000">201 (1)</text>
  <rect fill="blue" height="0.0" stroke="black" width="12" x="2325" y="1022.2"/>
  <text x="2325" y="1027.2" font-family="Tahoma" font-size="12" transform="rotate(90 2325,1027.2)" text-rendering="optimizeSpeed" fill="#000000">202 (1)</text>
  <rect fill="blue" height="0.0" stroke="black" width="12" x="2340" y="1022.2"/>
  <text x="2340" y="1027.2" font-family="Tahoma" font-size="12" transform="rotate(90 2340,1027.2)" text-rendering="optimizeSpeed" fill="#000000">203 (1)</text>
  <rect fill="blue" height="0.0" stroke="black" width="12" x="2355" y="1022.2"/>
  <text x="2355" y="1027.2" font-family="Tahoma" font-size="12" transform="rotate(90 2355,1027.2)" text-rendering="optimizeSpeed" fill="#000000">208 (1)</text>
  <rect fill="blue" height="0.0" stroke="black" width="12" x="2370" y="1022.2"/>
  <text x="2370" y="1027.2" font-family="Tahoma" font-size="12" transform="rotate(90 2370,1027.2)" text-rendering="optimizeSpeed" fill="#000000">212 (1)</text>
  <rect fill="blue" height="0.1" stroke="black" width="12" x="2385" y="1022.1"/>
  <text x="2385" y="1027.2" font-family="Tahoma" font-size="12" transform="rotate(90 2385,1027.2)" text-rendering="optimizeSpeed" fill="#000000">217 (2)</text>
  <rect fill="blue" height="0.0" stroke="black" width="12" x="2400" y="1022.2"/>
  <text x="2400" y="1027.2" font-family="Tahoma" font-size="12" transform="rotate(90 2400,1027.2)" text-rendering="optimizeSpeed" fill="#000000">219 (1)</text>
  <rect fill="blue" height="0.1" stroke="black" width="12" x="2415" y="1022.1"/>
  <text x="2415" y="1027.2" font-family="Tahoma" font-size="12" transform="rotate(90 2415,1027.2)" text-rendering="optimizeSpeed" fill="#000000">224 (2)</text>
  <rect fill="blue" height="0.0" stroke="black" width="12" x="2430" y="1022.2"/>
  <text x="2430" y="1027.2" font-family="Tahoma" font-size="12" transform="rotate(90 2430,1027.2)" text-rendering="optimizeSpeed" fill="#000000">229 (1)</text>
  <rect fill="blue" height="0.0" stroke="black" width="12" x="2445" y="1022.2"/>
  <text x="2445" y="1027.2" font-family="Tahoma" font-size="12" transform="rotate(90 2445,1027.2)" text-rendering="optimizeSpeed" fill="#000000">238 (1)</text>
  <rect fill="blue" height="0.0" stroke="black" width="12" x="2460" y="1022.2"/>
  <text x="2460" y="1027.2" font-family="Tahoma" font-size="12" transform="rotate(90 2460,1027.2)" text-rendering="optimizeSpeed" fill="#000000">242 (1)</text>
  <rect fill="blue" height="0.0" stroke="black" width="12" x="2475" y="1022.2"/>
  <text x="2475" y="1027.2" font-family="Tahoma" font-size="12" transform="rotate(90 2475,1027.2)" text-rendering="optimizeSpeed" fill="#000000">253 (1)</text>
  <rect fill="blue" height="0.0" stroke="black" width="12" x="2490" y="1022.2"/>
  <text x="2490" y="1027.2" font-family="Tahoma" font-size="12" transform="rotate(90 2490,1027.2)" text-rendering="optimizeSpeed" fill="#000000">255 (1)</text>
  <rect fill="blue" height="0.0" stroke="black" width="12" x="2505" y="1022.2"/>
  <text x="2505" y="1027.2" font-family="Tahoma" font-size="12" transform="rotate(90 2505,1027.2)" text-rendering="optimizeSpeed" fill="#000000">262 (1)</text>
  <rect fill="blue" height="0.0" stroke="black" width="12" x="2520" y="1022.2"/>
  <text x="2520" y="1027.2" font-family="Tahoma" font-size="12" transform="rotate(90 2520,1027.2)" text-rendering="optimizeSpeed" fill="#000000">271 (1)</text>
  <rect fill="blue" height="0.0" stroke="black" width="12" x="2535" y="1022.2"/>
  <text x="2535" y="1027.2" font-family="Tahoma" font-size="12" transform="rotate(90 2535,1027.2)" text-rendering="optimizeSpeed" fill="#000000">275 (1)</text>
  <rect fill="blue" height="0.0" stroke="black" width="12" x="2550" y="1022.2"/>
  <text x="2550" y="1027.2" font-family="Tahoma" font-size="12" transform="rotate(90 2550,1027.2)" text-rendering="optimizeSpeed" fill="#000000">281 (1)</text>
  <rect fill="blue" height="0.0" stroke="black" width="12" x="2565" y="1022.2"/>
  <text x="2565" y="1027.2" font-family="Tahoma" font-size="12" transform="rotate(90 2565,1027.2)" text-rendering="optimizeSpeed" fill="#000000">283 (1)</text>
  <rect fill="blue" height="0.0" stroke="black" width="12" x="2580" y="1022.2"/>
  <text x="2580" y="1027.2" font-family="Tahoma" font-size="12" transform="rotate(90 2580,1027.2)" text-rendering="optimizeSpeed" fill="#000000">302 (1)</text>
  <rect fill="blue" height="0.0" stroke="black" width="12" x="2595" y="1022.2"/>
  <text x="2595" y="1027.2" font-family="Tahoma" font-size="12" transform="rotate(90 2595,1027.2)" text-rendering="optimizeSpeed" fill="#000000">322 (1)</text>
  <rect fill="blue" height="0.0" stroke="black" width="12" x="2610" y="1022.2"/>
  <text x="2610" y="1027.2" font-family="Tahoma" font-size="12" transform="rotate(90 2610,1027.2)" text-rendering="optimizeSpeed" fill="#000000">327 (1)</text>
  <rect fill="blue" height="0.0" stroke="black" width="12" x="2625" y="1022.2"/>
  <text x="2625" y="1027.2" font-family="Tahoma" font-size="12" transform="rotate(90 2625,1027.2)" text-rendering="optimizeSpeed" fill="#000000">331 (1)</text>
  <rect fill="blue" height="0.0" stroke="black" width="12" x="2640" y="1022.2"/>
  <text x="2640" y="1027.2" font-family="Tahoma" font-size="12" transform="rotate(90 2640,1027.2)" text-rendering="optimizeSpeed" fill="#000000">337 (1)</text>
  <rect fill="blue" height="0.0" stroke="black" width="12" x="2655" y="1022.2"/>
  <text x="2655" y="1027.2" font-family="Tahoma" font-size="12" transform="rotate(90 2655,1027.2)" text-rendering="optimizeSpeed" fill="#000000">342 (1)</text>
  <rect fill="blue" height="0.0" stroke="black" width="12" x="2670" y="1022.2"/>
  <text x="2670" y="1027.2" font-family="Tahoma" font-size="12" transform="rotate(90 2670,1027.2)" text-rendering="optimizeSpeed" fill="#000000">347 (1)</text>
  <rect fill="blue" height="0.0" stroke="black" width="12" x="2685" y="1022.2"/>
  <text x="2685" y="1027.2" font-family="Tahoma" font-size="12" transform="rotate(90 2685,1027.2)" text-rendering="optimizeSpeed" fill="#000000">354 (1)</text>
  <rect fill="blue" height="0.0" stroke="black" width="12" x="2700" y="1022.2"/>
  <text x="2700" y="1027.2" font-family="Tahoma" font-size="12" transform="rotate(90 2700,1027.2)" text-rendering="optimizeSpeed" fill="#000000">367 (1)</text>
  <rect fill="blue" height="0.0" stroke="black" width="12" x="2715" y="1022.2"/>
  <text x="2715" y="1027.2" font-family="Tahoma" font-size="12" transform="rotate(90 2715,1027.2)" text-rendering="optimizeSpeed" fill="#000000">371 (1)</text>
  <rect fill="blue" height="0.0" stroke="black" width="12" x="2730" y="1022.2"/>
  <text x="2730" y="1027.2" font-family="Tahoma" font-size="12" transform="rotate(90 2730,1027.2)" text-rendering="optimizeSpeed" fill="#000000">385 (1)</text>
  <rect fill="blue" height="0.0" stroke="black" width="12" x="2745" y="1022.2"/>
  <text x="2745" y="1027.2" font-family="Tahoma" font-size="12" transform="rotate(90 2745,1027.2)" text-rendering="optimizeSpeed" fill="#000000">388 (1)</text>
  <rect fill="blue" height="0.0" stroke="black" width="12" x="2760" y="1022.2"/>
  <text x="2760" y="1027.2" font-family="Tahoma" font-size="12" transform="rotate(90 2760,1027.2)" text-rendering="optimizeSpeed" fill="#000000">419 (1)</text>
  <rect fill="blue" height="0.0" stroke="black" width="12" x="2775" y="1022.2"/>
  <text x="2775" y="1027.2" font-family="Tahoma" font-size="12" transform="rotate(90 2775,1027.2)" text-rendering="optimizeSpeed" fill="#000000">420 (1)</text>
  <rect fill="blue" height="0.0" stroke="black" width="12" x="2790" y="1022.2"/>
  <text x="2790" y="1027.2" font-family="Tahoma" font-size="12" transform="rotate(90 2790,1027.2)" text-rendering="optimizeSpeed" fill="#000000">426 (1)</text>
  <rect fill="blue" height="0.0" stroke="black" width="12" x="2805" y="1022.2"/>
  <text x="2805" y="1027.2" font-family="Tahoma" font-size="12" transform="rotate(90 2805,1027.2)" text-rendering="optimizeSpeed" fill="#000000">432 (1)</text>
  <rect fill="blue" height="0.0" stroke="black" width="12" x="2820" y="1022.2"/>
  <text x="2820" y="1027.2" font-family="Tahoma" font-size="12" transform="rotate(90 2820,1027.2)" text-rendering="optimizeSpeed" fill="#000000">461 (1)</text>
  <rect fill="blue" height="0.0" stroke="black" width="12" x="2835" y="1022.2"/>
  <text x="2835" y="1027.2" font-family="Tahoma" font-size="12" transform="rotate(90 2835,1027.2)" text-rendering="optimizeSpeed" fill="#000000">465 (1)</text>
  <rect fill="blue" height="0.0" stroke="black" width="12" x="2850" y="1022.2"/>
  <text x="2850" y="1027.2" font-family="Tahoma" font-size="12" transform="rotate(90 2850,1027.2)" text-rendering="optimizeSpeed" fill="#000000">483 (1)</text>
  <rect fill="blue" height="0.0" stroke="black" width="12" x="2865" y="1022.2"/>
  <text x="2865" y="1027.2" font-family="Tahoma" font-size="12" transform="rotate(90 2865,1027.2)" text-rendering="optimizeSpeed" fill="#000000">498 (1)</text>
  <rect fill="blue" height="0.0" stroke="black" width="12" x="2880" y="1022.2"/>
  <text x="2880" y="1027.2" font-family="Tahoma" font-size="12" transform="rotate(90 2880,1027.2)" text-rendering="optimizeSpeed" fill="#000000">500 (1)</text>
  <rect fill="blue" height="0.0" stroke="black" width="12" x="2895" y="1022.2"/>
  <text x="2895" y="1027.2" font-family="Tahoma" font-size="12" transform="rotate(90 2895,1027.2)" text-rendering="optimizeSpeed" fill="#000000">565 (1)</text>
  <rect fill="blue" height="0.0" stroke="black" width="12" x="2910" y="1022.2"/>
  <text x="2910" y="1027.2" font-family="Tahoma" font-size="12" transform="rotate(90 2910,1027.2)" text-rendering="optimizeSpeed" fill="#000000">606 (1)</text>
  <rect fill="blue" height="0.0" stroke="black" width="12" x="2925" y="1022.2"/>
  <text x="2925" y="1027.2" font-family="Tahoma" font-size="12" transform="rotate(90 2925,1027.2)" text-rendering="optimizeSpeed" fill="#000000">838 (1)</text>
  <rect fill="blue" height="0.0" stroke="black" width="12" x="2940" y="1022.2"/>
  <text x="2940" y="1027.2" font-family="Tahoma" font-size="12" transform="rotate(90 2940,1027.2)" text-rendering="optimizeSpeed" fill="#000000">1007 (1)</text>
  <rect fill="blue" height="0.0" stroke="black" width="12" x="2955" y="1022.2"/>
  <text x="2955" y="1027.2" font-family="Tahoma" font-size="12" transform="rotate(90 2955,1027.2)" text-rendering="optimizeSpeed" fill="#000000">2277 (1)</text>
  <rect fill="blue" height="0.0" stroke="black" width="12" x="2970" y="1022.2"/>
  <text x="2970" y="1027.2" font-family="Tahoma" font-size="12" transform="rotate(90 2970,1027.2)" text-rendering="optimizeSpeed" fill="#000000">2290 (1)</text>
  <rect fill="blue" height="0.0" stroke="black" width="12" x="2985" y="1022.2"/>
  <text x="2985" y="1027.2" font-family="Tahoma" font-size="12" transform="rotate(90 2985,1027.2)" text-rendering="optimizeSpeed" fill="#000000">4713 (1)</text>
  <text x="10" y="40" font-family="Tahoma" font-size="20" text-rendering="optimizeSpeed" fill="#000000">Executors per install (total: 45139)</text>
</svg>
