<svg xmlns="http://www.w3.org/2000/svg" version="1.1" preserveAspectRatio="xMidYMid meet" viewBox="0 0 665 711.5">
  <rect fill="blue" height="25.9" stroke="black" width="12" x="15" y="385.7"/>
  <text x="15" y="416.5" font-family="Tahoma" font-size="12" transform="rotate(90 15,416.5)" text-rendering="optimizeSpeed" fill="#000000">m2release (2589)</text>
  <rect fill="blue" height="26.0" stroke="black" width="12" x="30" y="385.6"/>
  <text x="30" y="416.5" font-family="Tahoma" font-size="12" transform="rotate(90 30,416.5)" text-rendering="optimizeSpeed" fill="#000000">scp (2598)</text>
  <rect fill="blue" height="26.3" stroke="black" width="12" x="45" y="385.2"/>
  <text x="45" y="416.5" font-family="Tahoma" font-size="12" transform="rotate(90 45,416.5)" text-rendering="optimizeSpeed" fill="#000000">mercurial (2633)</text>
  <rect fill="blue" height="29.1" stroke="black" width="12" x="60" y="382.5"/>
  <text x="60" y="416.5" font-family="Tahoma" font-size="12" transform="rotate(90 60,416.5)" text-rendering="optimizeSpeed" fill="#000000">plot (2905)</text>
  <rect fill="blue" height="29.6" stroke="black" width="12" x="75" y="382.0"/>
  <text x="75" y="416.5" font-family="Tahoma" font-size="12" transform="rotate(90 75,416.5)" text-rendering="optimizeSpeed" fill="#000000">tasks (2956)</text>
  <rect fill="blue" height="30.1" stroke="black" width="12" x="90" y="381.4"/>
  <text x="90" y="416.5" font-family="Tahoma" font-size="12" transform="rotate(90 90,416.5)" text-rendering="optimizeSpeed" fill="#000000">postbuild-task (3012)</text>
  <rect fill="blue" height="30.1" stroke="black" width="12" x="105" y="381.4"/>
  <text x="105" y="416.5" font-family="Tahoma" font-size="12" transform="rotate(90 105,416.5)" text-rendering="optimizeSpeed" fill="#000000">backup (3014)</text>
  <rect fill="blue" height="31.6" stroke="black" width="12" x="120" y="379.9"/>
  <text x="120" y="416.5" font-family="Tahoma" font-size="12" transform="rotate(90 120,416.5)" text-rendering="optimizeSpeed" fill="#000000">instant-messaging (3161)</text>
  <rect fill="blue" height="32.6" stroke="black" width="12" x="135" y="379.0"/>
  <text x="135" y="416.5" font-family="Tahoma" font-size="12" transform="rotate(90 135,416.5)" text-rendering="optimizeSpeed" fill="#000000">github (3257)</text>
  <rect fill="blue" height="32.9" stroke="black" width="12" x="150" y="378.6"/>
  <text x="150" y="416.5" font-family="Tahoma" font-size="12" transform="rotate(90 150,416.5)" text-rendering="optimizeSpeed" fill="#000000">jira (3291)</text>
  <rect fill="blue" height="33.6" stroke="black" width="12" x="165" y="378.0"/>
  <text x="165" y="416.5" font-family="Tahoma" font-size="12" transform="rotate(90 165,416.5)" text-rendering="optimizeSpeed" fill="#000000">deploy (3359)</text>
  <rect fill="blue" height="33.7" stroke="black" width="12" x="180" y="377.8"/>
  <text x="180" y="416.5" font-family="Tahoma" font-size="12" transform="rotate(90 180,416.5)" text-rendering="optimizeSpeed" fill="#000000">copyartifact (3372)</text>
  <rect fill="blue" height="34.1" stroke="black" width="12" x="195" y="377.5"/>
  <text x="195" y="416.5" font-family="Tahoma" font-size="12" transform="rotate(90 195,416.5)" text-rendering="optimizeSpeed" fill="#000000">msbuild (3406)</text>
  <rect fill="blue" height="34.2" stroke="black" width="12" x="210" y="377.3"/>
  <text x="210" y="416.5" font-family="Tahoma" font-size="12" transform="rotate(90 210,416.5)" text-rendering="optimizeSpeed" fill="#000000">build-timeout (3423)</text>
  <rect fill="blue" height="36.1" stroke="black" width="12" x="225" y="375.4"/>
  <text x="225" y="416.5" font-family="Tahoma" font-size="12" transform="rotate(90 225,416.5)" text-rendering="optimizeSpeed" fill="#000000">dry (3611)</text>
  <rect fill="blue" height="37.4" stroke="black" width="12" x="240" y="374.2"/>
  <text x="240" y="416.5" font-family="Tahoma" font-size="12" transform="rotate(90 240,416.5)" text-rendering="optimizeSpeed" fill="#000000">active-directory (3739)</text>
  <rect fill="blue" height="39.0" stroke="black" width="12" x="255" y="372.6"/>
  <text x="255" y="416.5" font-family="Tahoma" font-size="12" transform="rotate(90 255,416.5)" text-rendering="optimizeSpeed" fill="#000000">chucknorris (3899)</text>
  <rect fill="blue" height="41.2" stroke="black" width="12" x="270" y="370.3"/>
  <text x="270" y="416.5" font-family="Tahoma" font-size="12" transform="rotate(90 270,416.5)" text-rendering="optimizeSpeed" fill="#000000">xunit (4123)</text>
  <rect fill="blue" height="43.5" stroke="black" width="12" x="285" y="368.0"/>
  <text x="285" y="416.5" font-family="Tahoma" font-size="12" transform="rotate(90 285,416.5)" text-rendering="optimizeSpeed" fill="#000000">analysis-collector (4350)</text>
  <rect fill="blue" height="44.0" stroke="black" width="12" x="300" y="367.5"/>
  <text x="300" y="416.5" font-family="Tahoma" font-size="12" transform="rotate(90 300,416.5)" text-rendering="optimizeSpeed" fill="#000000">disk-usage (4401)</text>
  <rect fill="blue" height="44.4" stroke="black" width="12" x="315" y="367.1"/>
  <text x="315" y="416.5" font-family="Tahoma" font-size="12" transform="rotate(90 315,416.5)" text-rendering="optimizeSpeed" fill="#000000">parameterized-trigger (4444)</text>
  <rect fill="blue" height="45.9" stroke="black" width="12" x="330" y="365.7"/>
  <text x="330" y="416.5" font-family="Tahoma" font-size="12" transform="rotate(90 330,416.5)" text-rendering="optimizeSpeed" fill="#000000">warnings (4586)</text>
  <rect fill="blue" height="47.0" stroke="black" width="12" x="345" y="364.5"/>
  <text x="345" y="416.5" font-family="Tahoma" font-size="12" transform="rotate(90 345,416.5)" text-rendering="optimizeSpeed" fill="#000000">dashboard-view (4704)</text>
  <rect fill="blue" height="48.6" stroke="black" width="12" x="360" y="362.9"/>
  <text x="360" y="416.5" font-family="Tahoma" font-size="12" transform="rotate(90 360,416.5)" text-rendering="optimizeSpeed" fill="#000000">violations (4862)</text>
  <rect fill="blue" height="49.5" stroke="black" width="12" x="375" y="362.0"/>
  <text x="375" y="416.5" font-family="Tahoma" font-size="12" transform="rotate(90 375,416.5)" text-rendering="optimizeSpeed" fill="#000000">htmlpublisher (4954)</text>
  <rect fill="blue" height="51.9" stroke="black" width="12" x="390" y="359.7"/>
  <text x="390" y="416.5" font-family="Tahoma" font-size="12" transform="rotate(90 390,416.5)" text-rendering="optimizeSpeed" fill="#000000">sonar (5189)</text>
  <rect fill="blue" height="53.2" stroke="black" width="12" x="405" y="358.4"/>
  <text x="405" y="416.5" font-family="Tahoma" font-size="12" transform="rotate(90 405,416.5)" text-rendering="optimizeSpeed" fill="#000000">findbugs (5319)</text>
  <rect fill="blue" height="54.4" stroke="black" width="12" x="420" y="357.2"/>
  <text x="420" y="416.5" font-family="Tahoma" font-size="12" transform="rotate(90 420,416.5)" text-rendering="optimizeSpeed" fill="#000000">pmd (5436)</text>
  <rect fill="blue" height="59.5" stroke="black" width="12" x="435" y="352.0"/>
  <text x="435" y="416.5" font-family="Tahoma" font-size="12" transform="rotate(90 435,416.5)" text-rendering="optimizeSpeed" fill="#000000">cobertura (5954)</text>
  <rect fill="blue" height="62.0" stroke="black" width="12" x="450" y="349.6"/>
  <text x="450" y="416.5" font-family="Tahoma" font-size="12" transform="rotate(90 450,416.5)" text-rendering="optimizeSpeed" fill="#000000">checkstyle (6199)</text>
  <rect fill="blue" height="80.2" stroke="black" width="12" x="465" y="331.4"/>
  <text x="465" y="416.5" font-family="Tahoma" font-size="12" transform="rotate(90 465,416.5)" text-rendering="optimizeSpeed" fill="#000000">greenballs (8017)</text>
  <rect fill="blue" height="85.0" stroke="black" width="12" x="480" y="326.5"/>
  <text x="480" y="416.5" font-family="Tahoma" font-size="12" transform="rotate(90 480,416.5)" text-rendering="optimizeSpeed" fill="#000000">email-ext (8504)</text>
  <rect fill="blue" height="111.5" stroke="black" width="12" x="495" y="300.1"/>
  <text x="495" y="416.5" font-family="Tahoma" font-size="12" transform="rotate(90 495,416.5)" text-rendering="optimizeSpeed" fill="#000000">git (11149)</text>
  <rect fill="blue" height="118.3" stroke="black" width="12" x="510" y="293.3"/>
  <text x="510" y="416.5" font-family="Tahoma" font-size="12" transform="rotate(90 510,416.5)" text-rendering="optimizeSpeed" fill="#000000">analysis-core (11829)</text>
  <rect fill="blue" height="253.2" stroke="black" width="12" x="525" y="158.3"/>
  <text x="525" y="416.5" font-family="Tahoma" font-size="12" transform="rotate(90 525,416.5)" text-rendering="optimizeSpeed" fill="#000000">ant (25325)</text>
  <rect fill="blue" height="253.7" stroke="black" width="12" x="540" y="157.8"/>
  <text x="540" y="416.5" font-family="Tahoma" font-size="12" transform="rotate(90 540,416.5)" text-rendering="optimizeSpeed" fill="#000000">javadoc (25372)</text>
  <rect fill="blue" height="255.9" stroke="black" width="12" x="555" y="155.7"/>
  <text x="555" y="416.5" font-family="Tahoma" font-size="12" transform="rotate(90 555,416.5)" text-rendering="optimizeSpeed" fill="#000000">translation (25586)</text>
  <rect fill="blue" height="342.5" stroke="black" width="12" x="570" y="69.1"/>
  <text x="570" y="416.5" font-family="Tahoma" font-size="12" transform="rotate(90 570,416.5)" text-rendering="optimizeSpeed" fill="#000000">cvs (34246)</text>
  <rect fill="blue" height="354.8" stroke="black" width="12" x="585" y="56.7"/>
  <text x="585" y="416.5" font-family="Tahoma" font-size="12" transform="rotate(90 585,416.5)" text-rendering="optimizeSpeed" fill="#000000">maven-plugin (35482)</text>
  <rect fill="blue" height="357.3" stroke="black" width="12" x="600" y="54.2"/>
  <text x="600" y="416.5" font-family="Tahoma" font-size="12" transform="rotate(90 600,416.5)" text-rendering="optimizeSpeed" fill="#000000">subversion (35732)</text>
  <rect fill="blue" height="361.6" stroke="black" width="12" x="615" y="50.0"/>
  <text x="615" y="416.5" font-family="Tahoma" font-size="12" transform="rotate(90 615,416.5)" text-rendering="optimizeSpeed" fill="#000000">ssh-slaves (36155)</text>
  <text x="10" y="40" font-family="Tahoma" font-size="20" text-rendering="optimizeSpeed" fill="#000000">Plugin installations (installations &gt; 2500)</text>
</svg>
