<svg xmlns="http://www.w3.org/2000/svg" version="1.1" preserveAspectRatio="xMidYMid meet" viewBox="0 0 720 1670">
  <text x="30" y="40" font-family="sans-serif" font-size="16">Nodes, total: 124236</text>
  <path d="M 200,300 L 0.0,150.0 A 150,150 0 0 1 4.8,150.0 Z" fill="BurlyWood" stroke="black" stroke-width="1"/>
  <rect x="370" y="50" width="20" height="30" fill="BurlyWood" stroke="black" stroke-width="1"/>
  <text x="400" y="38" font-family="sans-serif" font-size="16">AIX (ppc) (271)</text>
  <path d="M 200,300 L 4.8,150.0 A 150,150 0 0 1 8.2,150.0 Z" fill="CadetBlue" stroke="black" stroke-width="1"/>
  <rect x="370" y="51" width="20" height="30" fill="CadetBlue" stroke="black" stroke-width="1"/>
  <text x="400" y="68" font-family="sans-serif" font-size="16">AIX (ppc64) (192)</text>
  <path d="M 200,300 L 8.2,150.0 A 150,150 0 0 1 8.2,150.0 Z" fill="red" stroke="black" stroke-width="1"/>
  <rect x="370" y="52" width="20" height="30" fill="red" stroke="black" stroke-width="1"/>
  <text x="400" y="98" font-family="sans-serif" font-size="16">Bitrig (amd64) (2)</text>
  <path d="M 200,300 L 8.2,150.0 A 150,150 0 0 1 8.3,150.0 Z" fill="blue" stroke="black" stroke-width="1"/>
  <rect x="370" y="53" width="20" height="30" fill="blue" stroke="black" stroke-width="1"/>
  <text x="400" y="128" font-family="sans-serif" font-size="16">Darwin (amd64) (2)</text>
  <path d="M 200,300 L 8.3,150.0 A 150,150 0 0 1 8.3,150.0 Z" fill="yellow" stroke="black" stroke-width="1"/>
  <rect x="370" y="54" width="20" height="30" fill="yellow" stroke="black" stroke-width="1"/>
  <text x="400" y="158" font-family="sans-serif" font-size="16">Darwin (ppc) (1)</text>
  <path d="M 200,300 L 8.3,150.0 A 150,150 0 0 1 8.3,150.0 Z" fill="green" stroke="black" stroke-width="1"/>
  <rect x="370" y="55" width="20" height="30" fill="green" stroke="black" stroke-width="1"/>
  <text x="400" y="188" font-family="sans-serif" font-size="16">Darwin (universal) (1)</text>
  <path d="M 200,300 L 8.3,150.0 A 150,150 0 0 1 11.7,149.9 Z" fill="gold" stroke="black" stroke-width="1"/>
  <rect x="370" y="56" width="20" height="30" fill="gold" stroke="black" stroke-width="1"/>
  <text x="400" y="218" font-family="sans-serif" font-size="16">FreeBSD (amd64) (194)</text>
  <path d="M 200,300 L 11.7,149.9 A 150,150 0 0 1 13.1,149.9 Z" fill="brown" stroke="black" stroke-width="1"/>
  <rect x="370" y="57" width="20" height="30" fill="brown" stroke="black" stroke-width="1"/>
  <text x="400" y="248" font-family="sans-serif" font-size="16">FreeBSD (i386) (79)</text>
  <path d="M 200,300 L 13.1,149.9 A 150,150 0 0 1 15.7,149.8 Z" fill="Azure" stroke="black" stroke-width="1"/>
  <rect x="370" y="58" width="20" height="30" fill="Azure" stroke="black" stroke-width="1"/>
  <text x="400" y="278" font-family="sans-serif" font-size="16">HP-UX (IA64N) (148)</text>
  <path d="M 200,300 L 15.7,149.8 A 150,150 0 0 1 16.2,149.8 Z" fill="pink" stroke="black" stroke-width="1"/>
  <rect x="370" y="59" width="20" height="30" fill="pink" stroke="black" stroke-width="1"/>
  <text x="400" y="308" font-family="sans-serif" font-size="16">HP-UX (IA64W) (25)</text>
  <path d="M 200,300 L 16.2,149.8 A 150,150 0 0 1 17.3,149.8 Z" fill="khaki" stroke="black" stroke-width="1"/>
  <rect x="370" y="60" width="20" height="30" fill="khaki" stroke="black" stroke-width="1"/>
  <text x="400" y="338" font-family="sans-serif" font-size="16">HP-UX (PA_RISC2.0) (65)</text>
  <path d="M 200,300 L 17.3,149.8 A 150,150 0 0 1 308.9,-70.5 Z" fill="gray" stroke="black" stroke-width="1"/>
  <rect x="370" y="61" width="20" height="30" fill="gray" stroke="black" stroke-width="1"/>
  <text x="400" y="368" font-family="sans-serif" font-size="16">Linux (amd64) (39760)</text>
  <path d="M 200,300 L 308.9,-70.5 A 150,150 0 0 1 308.6,-70.8 Z" fill="Aqua" stroke="black" stroke-width="1"/>
  <rect x="370" y="62" width="20" height="30" fill="Aqua" stroke="black" stroke-width="1"/>
  <text x="400" y="398" font-family="sans-serif" font-size="16">Linux (arm) (33)</text>
  <path d="M 200,300 L 308.6,-70.8 A 150,150 0 0 1 132.4,-138.8 Z" fill="Aquamarine" stroke="black" stroke-width="1"/>
  <rect x="370" y="63" width="20" height="30" fill="Aquamarine" stroke="black" stroke-width="1"/>
  <text x="400" y="428" font-family="sans-serif" font-size="16">Linux (i386) (13672)</text>
  <path d="M 200,300 L 132.4,-138.8 A 150,150 0 0 1 132.1,-138.9 Z" fill="beige" stroke="black" stroke-width="1"/>
  <rect x="370" y="64" width="20" height="30" fill="beige" stroke="black" stroke-width="1"/>
  <text x="400" y="458" font-family="sans-serif" font-size="16">Linux (ia64) (18)</text>
  <path d="M 200,300 L 132.1,-138.9 A 150,150 0 0 1 131.7,-139.0 Z" fill="blueviolet" stroke="black" stroke-width="1"/>
  <rect x="370" y="65" width="20" height="30" fill="blueviolet" stroke="black" stroke-width="1"/>
  <text x="400" y="488" font-family="sans-serif" font-size="16">Linux (ppc) (27)</text>
  <path d="M 200,300 L 131.7,-139.0 A 150,150 0 0 1 131.4,-139.0 Z" fill="Bisque" stroke="black" stroke-width="1"/>
  <rect x="370" y="66" width="20" height="30" fill="Bisque" stroke="black" stroke-width="1"/>
  <text x="400" y="518" font-family="sans-serif" font-size="16">Linux (ppc64) (20)</text>
  <path d="M 200,300 L 131.4,-139.0 A 150,150 0 0 1 130.8,-139.1 Z" fill="coral" stroke="black" stroke-width="1"/>
  <rect x="370" y="67" width="20" height="30" fill="coral" stroke="black" stroke-width="1"/>
  <text x="400" y="548" font-family="sans-serif" font-size="16">Linux (s390x) (36)</text>
  <path d="M 200,300 L 130.8,-139.1 A 150,150 0 0 1 128.9,-139.5 Z" fill="darkblue" stroke="black" stroke-width="1"/>
  <rect x="370" y="68" width="20" height="30" fill="darkblue" stroke="black" stroke-width="1"/>
  <text x="400" y="578" font-family="sans-serif" font-size="16">Linux (x86) (116)</text>
  <path d="M 200,300 L 128.9,-139.5 A 150,150 0 0 1 128.7,-139.5 Z" fill="crimson" stroke="black" stroke-width="1"/>
  <rect x="370" y="69" width="20" height="30" fill="crimson" stroke="black" stroke-width="1"/>
  <text x="400" y="608" font-family="sans-serif" font-size="16">Mac OS X (amd64) (9)</text>
  <path d="M 200,300 L 128.7,-139.5 A 150,150 0 0 1 126.8,-139.8 Z" fill="cyan" stroke="black" stroke-width="1"/>
  <rect x="370" y="70" width="20" height="30" fill="cyan" stroke="black" stroke-width="1"/>
  <text x="400" y="638" font-family="sans-serif" font-size="16">Mac OS X (i386) (119)</text>
  <path d="M 200,300 L 126.8,-139.8 A 150,150 0 0 1 126.5,-139.9 Z" fill="darkred" stroke="black" stroke-width="1"/>
  <rect x="370" y="71" width="20" height="30" fill="darkred" stroke="black" stroke-width="1"/>
  <text x="400" y="668" font-family="sans-serif" font-size="16">Mac OS X (ppc) (17)</text>
  <path d="M 200,300 L 126.5,-139.9 A 150,150 0 0 1 42.3,-148.9 Z" fill="ivory" stroke="black" stroke-width="1"/>
  <rect x="370" y="72" width="20" height="30" fill="ivory" stroke="black" stroke-width="1"/>
  <text x="400" y="698" font-family="sans-serif" font-size="16">Mac OS X (x86_64) (4918)</text>
  <path d="M 200,300 L 42.3,-148.9 A 150,150 0 0 1 -346.1,-22.4 Z" fill="lime" stroke="black" stroke-width="1"/>
  <rect x="370" y="73" width="20" height="30" fill="lime" stroke="black" stroke-width="1"/>
  <text x="400" y="728" font-family="sans-serif" font-size="16">N/A (30482)</text>
  <path d="M 200,300 L -346.1,-22.4 A 150,150 0 0 1 -346.1,-22.4 Z" fill="maroon" stroke="black" stroke-width="1"/>
  <rect x="370" y="74" width="20" height="30" fill="maroon" stroke="black" stroke-width="1"/>
  <text x="400" y="758" font-family="sans-serif" font-size="16">NetBSD (amd64) (1)</text>
  <path d="M 200,300 L -346.1,-22.4 A 150,150 0 0 1 -346.1,-22.4 Z" fill="navy" stroke="black" stroke-width="1"/>
  <rect x="370" y="75" width="20" height="30" fill="navy" stroke="black" stroke-width="1"/>
  <text x="400" y="788" font-family="sans-serif" font-size="16">NetBSD (i386) (1)</text>
  <path d="M 200,300 L -346.1,-22.4 A 150,150 0 0 1 -346.1,-22.4 Z" fill="olive" stroke="black" stroke-width="1"/>
  <rect x="370" y="76" width="20" height="30" fill="olive" stroke="black" stroke-width="1"/>
  <text x="400" y="818" font-family="sans-serif" font-size="16">OpenBSD (amd64) (5)</text>
  <path d="M 200,300 L -346.1,-22.4 A 150,150 0 0 1 -346.1,-22.4 Z" fill="plum" stroke="black" stroke-width="1"/>
  <rect x="370" y="77" width="20" height="30" fill="plum" stroke="black" stroke-width="1"/>
  <text x="400" y="848" font-family="sans-serif" font-size="16">OpenBSD (i386) (3)</text>
  <path d="M 200,300 L -346.1,-22.4 A 150,150 0 0 1 -346.2,-22.1 Z" fill="peru" stroke="black" stroke-width="1"/>
  <rect x="370" y="78" width="20" height="30" fill="peru" stroke="black" stroke-width="1"/>
  <text x="400" y="878" font-family="sans-serif" font-size="16">SunOS (amd64) (34)</text>
  <path d="M 200,300 L -346.2,-22.1 A 150,150 0 0 1 -348.8,-12.6 Z" fill="silver" stroke="black" stroke-width="1"/>
  <rect x="370" y="79" width="20" height="30" fill="silver" stroke="black" stroke-width="1"/>
  <text x="400" y="908" font-family="sans-serif" font-size="16">SunOS (sparc) (1259)</text>
  <path d="M 200,300 L -348.8,-12.6 A 150,150 0 0 1 -348.9,-12.0 Z" fill="tan" stroke="black" stroke-width="1"/>
  <rect x="370" y="80" width="20" height="30" fill="tan" stroke="black" stroke-width="1"/>
  <text x="400" y="938" font-family="sans-serif" font-size="16">SunOS (sparcv9) (90)</text>
  <path d="M 200,300 L -348.9,-12.0 A 150,150 0 0 1 -349.7,-5.9 Z" fill="teal" stroke="black" stroke-width="1"/>
  <rect x="370" y="81" width="20" height="30" fill="teal" stroke="black" stroke-width="1"/>
  <text x="400" y="968" font-family="sans-serif" font-size="16">SunOS (x86) (803)</text>
  <path d="M 200,300 L -349.7,-5.9 A 150,150 0 0 1 -349.8,-5.5 Z" fill="violet" stroke="black" stroke-width="1"/>
  <rect x="370" y="82" width="20" height="30" fill="violet" stroke="black" stroke-width="1"/>
  <text x="400" y="998" font-family="sans-serif" font-size="16">Windows 2000 (x86) (49)</text>
  <path d="M 200,300 L -349.8,-5.5 A 150,150 0 0 1 -350.0,-0.8 Z" fill="AliceBlue" stroke="black" stroke-width="1"/>
  <rect x="370" y="83" width="20" height="30" fill="AliceBlue" stroke="black" stroke-width="1"/>
  <text x="400" y="1028" font-family="sans-serif" font-size="16">Windows 2003 (amd64) (613)</text>
  <path d="M 200,300 L -350.0,-0.8 A 150,150 0 0 1 -340.6,34.6 Z" fill="DarkOliveGreen" stroke="black" stroke-width="1"/>
  <rect x="370" y="84" width="20" height="30" fill="DarkOliveGreen" stroke="black" stroke-width="1"/>
  <text x="400" y="1058" font-family="sans-serif" font-size="16">Windows 2003 (x86) (4715)</text>
  <path d="M 200,300 L -340.6,34.6 A 150,150 0 0 1 -323.5,57.2 Z" fill="Indigo" stroke="black" stroke-width="1"/>
  <rect x="370" y="85" width="20" height="30" fill="Indigo" stroke="black" stroke-width="1"/>
  <text x="400" y="1088" font-family="sans-serif" font-size="16">Windows 7 (amd64) (3134)</text>
  <path d="M 200,300 L -323.5,57.2 A 150,150 0 0 1 -265.5,97.8 Z" fill="MediumPurple" stroke="black" stroke-width="1"/>
  <rect x="370" y="86" width="20" height="30" fill="MediumPurple" stroke="black" stroke-width="1"/>
  <text x="400" y="1118" font-family="sans-serif" font-size="16">Windows 7 (x86) (6299)</text>
  <path d="M 200,300 L -265.5,97.8 A 150,150 0 0 1 -264.3,98.3 Z" fill="Purple" stroke="black" stroke-width="1"/>
  <rect x="370" y="87" width="20" height="30" fill="Purple" stroke="black" stroke-width="1"/>
  <text x="400" y="1148" font-family="sans-serif" font-size="16">Windows 8 (amd64) (96)</text>
  <path d="M 200,300 L -264.3,98.3 A 150,150 0 0 1 -263.5,98.7 Z" fill="AntiqueWhite" stroke="black" stroke-width="1"/>
  <rect x="370" y="88" width="20" height="30" fill="AntiqueWhite" stroke="black" stroke-width="1"/>
  <text x="400" y="1178" font-family="sans-serif" font-size="16">Windows 8 (x86) (71)</text>
  <path d="M 200,300 L -263.5,98.7 A 150,150 0 0 1 -261.4,99.7 Z" fill="DarkOrange" stroke="black" stroke-width="1"/>
  <rect x="370" y="89" width="20" height="30" fill="DarkOrange" stroke="black" stroke-width="1"/>
  <text x="400" y="1208" font-family="sans-serif" font-size="16">Windows NT (unknown) (amd64) (181)</text>
  <path d="M 200,300 L -261.4,99.7 A 150,150 0 0 1 -259.3,100.7 Z" fill="Ivory" stroke="black" stroke-width="1"/>
  <rect x="370" y="90" width="20" height="30" fill="Ivory" stroke="black" stroke-width="1"/>
  <text x="400" y="1238" font-family="sans-serif" font-size="16">Windows NT (unknown) (x86) (177)</text>
  <path d="M 200,300 L -259.3,100.7 A 150,150 0 0 1 -259.3,100.8 Z" fill="MediumSeaGreen" stroke="black" stroke-width="1"/>
  <rect x="370" y="91" width="20" height="30" fill="MediumSeaGreen" stroke="black" stroke-width="1"/>
  <text x="400" y="1268" font-family="sans-serif" font-size="16">Windows NT (x86) (1)</text>
  <path d="M 200,300 L -259.3,100.8 A 150,150 0 0 1 -259.2,100.8 Z" fill="Red" stroke="black" stroke-width="1"/>
  <rect x="370" y="92" width="20" height="30" fill="Red" stroke="black" stroke-width="1"/>
  <text x="400" y="1298" font-family="sans-serif" font-size="16">Windows Server 2003 (amd64) (5)</text>
  <path d="M 200,300 L -259.2,100.8 A 150,150 0 0 1 -258.7,101.0 Z" fill="Aqua" stroke="black" stroke-width="1"/>
  <rect x="370" y="93" width="20" height="30" fill="Aqua" stroke="black" stroke-width="1"/>
  <text x="400" y="1328" font-family="sans-serif" font-size="16">Windows Server 2003 (x86) (42)</text>
  <path d="M 200,300 L -258.7,101.0 A 150,150 0 0 1 -251.9,104.2 Z" fill="DarkOrchid" stroke="black" stroke-width="1"/>
  <rect x="370" y="94" width="20" height="30" fill="DarkOrchid" stroke="black" stroke-width="1"/>
  <text x="400" y="1358" font-family="sans-serif" font-size="16">Windows Server 2008 (amd64) (567)</text>
  <path d="M 200,300 L -251.9,104.2 A 150,150 0 0 1 -235.0,111.2 Z" fill="Khaki" stroke="black" stroke-width="1"/>
  <rect x="370" y="95" width="20" height="30" fill="Khaki" stroke="black" stroke-width="1"/>
  <text x="400" y="1388" font-family="sans-serif" font-size="16">Windows Server 2008 (x86) (1328)</text>
  <path d="M 200,300 L -235.0,111.2 A 150,150 0 0 1 -182.5,128.0 Z" fill="MediumSlateBlue" stroke="black" stroke-width="1"/>
  <rect x="370" y="96" width="20" height="30" fill="MediumSlateBlue" stroke="black" stroke-width="1"/>
  <text x="400" y="1418" font-family="sans-serif" font-size="16">Windows Server 2008 R2 (amd64) (3708)</text>
  <path d="M 200,300 L -182.5,128.0 A 150,150 0 0 1 -117.8,141.2 Z" fill="RosyBrown" stroke="black" stroke-width="1"/>
  <rect x="370" y="97" width="20" height="30" fill="RosyBrown" stroke="black" stroke-width="1"/>
  <text x="400" y="1448" font-family="sans-serif" font-size="16">Windows Server 2008 R2 (x86) (4059)</text>
  <path d="M 200,300 L -117.8,141.2 A 150,150 0 0 1 -117.3,141.3 Z" fill="AquaMarine" stroke="black" stroke-width="1"/>
  <rect x="370" y="98" width="20" height="30" fill="AquaMarine" stroke="black" stroke-width="1"/>
  <text x="400" y="1478" font-family="sans-serif" font-size="16">Windows Server 2012 (amd64) (29)</text>
  <path d="M 200,300 L -117.3,141.3 A 150,150 0 0 1 -116.9,141.4 Z" fill="DarkRed" stroke="black" stroke-width="1"/>
  <rect x="370" y="99" width="20" height="30" fill="DarkRed" stroke="black" stroke-width="1"/>
  <text x="400" y="1508" font-family="sans-serif" font-size="16">Windows Server 2012 (x86) (25)</text>
  <path d="M 200,300 L -116.9,141.4 A 150,150 0 0 1 -115.6,141.6 Z" fill="Lavender" stroke="black" stroke-width="1"/>
  <rect x="370" y="100" width="20" height="30" fill="Lavender" stroke="black" stroke-width="1"/>
  <text x="400" y="1538" font-family="sans-serif" font-size="16">Windows Vista (amd64) (78)</text>
  <path d="M 200,300 L -115.6,141.6 A 150,150 0 0 1 -107.5,142.8 Z" fill="MediumSpringGreen" stroke="black" stroke-width="1"/>
  <rect x="370" y="101" width="20" height="30" fill="MediumSpringGreen" stroke="black" stroke-width="1"/>
  <text x="400" y="1568" font-family="sans-serif" font-size="16">Windows Vista (x86) (484)</text>
  <path d="M 200,300 L -107.5,142.8 A 150,150 0 0 1 -104.9,143.1 Z" fill="RoyalBlue" stroke="black" stroke-width="1"/>
  <rect x="370" y="102" width="20" height="30" fill="RoyalBlue" stroke="black" stroke-width="1"/>
  <text x="400" y="1598" font-family="sans-serif" font-size="16">Windows XP (amd64) (156)</text>
  <path d="M 200,300 L -104.9,143.1 A 150,150 0 0 1 -0.0,150.0 Z" fill="Azure" stroke="black" stroke-width="1"/>
  <rect x="370" y="103" width="20" height="30" fill="Azure" stroke="black" stroke-width="1"/>
  <text x="400" y="1628" font-family="sans-serif" font-size="16">Windows XP (x86) (6016)</text>
</svg>
