<svg xmlns="http://www.w3.org/2000/svg" version="1.1" preserveAspectRatio="xMidYMid meet" viewBox="0 0 720 1610">
  <text x="30" y="40" font-family="sans-serif" font-size="16">Nodes, total: 73776</text>
  <path d="M 200,300 L 0.0,150.0 A 150,150 0 0 1 5.2,150.0 Z" fill="BurlyWood" stroke="black" stroke-width="1"/>
  <rect x="370" y="50" width="20" height="30" fill="BurlyWood" stroke="black" stroke-width="1"/>
  <text x="400" y="38" font-family="sans-serif" font-size="16">AIX (ppc) (174)</text>
  <path d="M 200,300 L 5.2,150.0 A 150,150 0 0 1 9.2,149.9 Z" fill="CadetBlue" stroke="black" stroke-width="1"/>
  <rect x="370" y="51" width="20" height="30" fill="CadetBlue" stroke="black" stroke-width="1"/>
  <text x="400" y="68" font-family="sans-serif" font-size="16">AIX (ppc64) (136)</text>
  <path d="M 200,300 L 9.2,149.9 A 150,150 0 0 1 9.3,149.9 Z" fill="red" stroke="black" stroke-width="1"/>
  <rect x="370" y="52" width="20" height="30" fill="red" stroke="black" stroke-width="1"/>
  <text x="400" y="98" font-family="sans-serif" font-size="16">Darwin (i386) (1)</text>
  <path d="M 200,300 L 9.3,149.9 A 150,150 0 0 1 12.2,149.9 Z" fill="blue" stroke="black" stroke-width="1"/>
  <rect x="370" y="53" width="20" height="30" fill="blue" stroke="black" stroke-width="1"/>
  <text x="400" y="128" font-family="sans-serif" font-size="16">FreeBSD (amd64) (99)</text>
  <path d="M 200,300 L 12.2,149.9 A 150,150 0 0 1 14.5,149.9 Z" fill="yellow" stroke="black" stroke-width="1"/>
  <rect x="370" y="54" width="20" height="30" fill="yellow" stroke="black" stroke-width="1"/>
  <text x="400" y="158" font-family="sans-serif" font-size="16">FreeBSD (i386) (75)</text>
  <path d="M 200,300 L 14.5,149.9 A 150,150 0 0 1 17.6,149.8 Z" fill="green" stroke="black" stroke-width="1"/>
  <rect x="370" y="55" width="20" height="30" fill="green" stroke="black" stroke-width="1"/>
  <text x="400" y="188" font-family="sans-serif" font-size="16">HP-UX (IA64N) (105)</text>
  <path d="M 200,300 L 17.6,149.8 A 150,150 0 0 1 18.2,149.8 Z" fill="gold" stroke="black" stroke-width="1"/>
  <rect x="370" y="56" width="20" height="30" fill="gold" stroke="black" stroke-width="1"/>
  <text x="400" y="218" font-family="sans-serif" font-size="16">HP-UX (IA64W) (22)</text>
  <path d="M 200,300 L 18.2,149.8 A 150,150 0 0 1 19.9,149.8 Z" fill="brown" stroke="black" stroke-width="1"/>
  <rect x="370" y="57" width="20" height="30" fill="brown" stroke="black" stroke-width="1"/>
  <text x="400" y="248" font-family="sans-serif" font-size="16">HP-UX (PA_RISC2.0) (57)</text>
  <path d="M 200,300 L 19.9,149.8 A 150,150 0 0 1 20.0,149.8 Z" fill="Azure" stroke="black" stroke-width="1"/>
  <rect x="370" y="58" width="20" height="30" fill="Azure" stroke="black" stroke-width="1"/>
  <text x="400" y="278" font-family="sans-serif" font-size="16">HP-UX (PA_RISC2.0W) (1)</text>
  <path d="M 200,300 L 20.0,149.8 A 150,150 0 0 1 348.9,-11.7 Z" fill="pink" stroke="black" stroke-width="1"/>
  <rect x="370" y="59" width="20" height="30" fill="pink" stroke="black" stroke-width="1"/>
  <text x="400" y="308" font-family="sans-serif" font-size="16">Linux (amd64) (18690)</text>
  <path d="M 200,300 L 348.9,-11.7 A 150,150 0 0 1 348.9,-11.8 Z" fill="khaki" stroke="black" stroke-width="1"/>
  <rect x="370" y="60" width="20" height="30" fill="khaki" stroke="black" stroke-width="1"/>
  <text x="400" y="338" font-family="sans-serif" font-size="16">Linux (arm) (9)</text>
  <path d="M 200,300 L 348.9,-11.8 A 150,150 0 0 1 208.4,-120.5 Z" fill="gray" stroke="black" stroke-width="1"/>
  <rect x="370" y="61" width="20" height="30" fill="gray" stroke="black" stroke-width="1"/>
  <text x="400" y="368" font-family="sans-serif" font-size="16">Linux (i386) (10028)</text>
  <path d="M 200,300 L 208.4,-120.5 A 150,150 0 0 1 208.0,-120.6 Z" fill="Aqua" stroke="black" stroke-width="1"/>
  <rect x="370" y="62" width="20" height="30" fill="Aqua" stroke="black" stroke-width="1"/>
  <text x="400" y="398" font-family="sans-serif" font-size="16">Linux (ia64) (20)</text>
  <path d="M 200,300 L 208.0,-120.6 A 150,150 0 0 1 207.9,-120.7 Z" fill="Aquamarine" stroke="black" stroke-width="1"/>
  <rect x="370" y="63" width="20" height="30" fill="Aquamarine" stroke="black" stroke-width="1"/>
  <text x="400" y="428" font-family="sans-serif" font-size="16">Linux (nova) (1)</text>
  <path d="M 200,300 L 207.9,-120.7 A 150,150 0 0 1 207.4,-120.8 Z" fill="beige" stroke="black" stroke-width="1"/>
  <rect x="370" y="64" width="20" height="30" fill="beige" stroke="black" stroke-width="1"/>
  <text x="400" y="458" font-family="sans-serif" font-size="16">Linux (ppc) (24)</text>
  <path d="M 200,300 L 207.4,-120.8 A 150,150 0 0 1 206.9,-121.0 Z" fill="blueviolet" stroke="black" stroke-width="1"/>
  <rect x="370" y="65" width="20" height="30" fill="blueviolet" stroke="black" stroke-width="1"/>
  <text x="400" y="488" font-family="sans-serif" font-size="16">Linux (ppc64) (19)</text>
  <path d="M 200,300 L 206.9,-121.0 A 150,150 0 0 1 206.8,-121.0 Z" fill="Bisque" stroke="black" stroke-width="1"/>
  <rect x="370" y="66" width="20" height="30" fill="Bisque" stroke="black" stroke-width="1"/>
  <text x="400" y="518" font-family="sans-serif" font-size="16">Linux (s390x) (4)</text>
  <path d="M 200,300 L 206.8,-121.0 A 150,150 0 0 1 206.8,-121.0 Z" fill="coral" stroke="black" stroke-width="1"/>
  <rect x="370" y="67" width="20" height="30" fill="coral" stroke="black" stroke-width="1"/>
  <text x="400" y="548" font-family="sans-serif" font-size="16">Linux (sparc) (1)</text>
  <path d="M 200,300 L 206.8,-121.0 A 150,150 0 0 1 202.8,-122.3 Z" fill="darkblue" stroke="black" stroke-width="1"/>
  <rect x="370" y="68" width="20" height="30" fill="darkblue" stroke="black" stroke-width="1"/>
  <text x="400" y="578" font-family="sans-serif" font-size="16">Linux (x86) (165)</text>
  <path d="M 200,300 L 202.8,-122.3 A 150,150 0 0 1 202.8,-122.3 Z" fill="crimson" stroke="black" stroke-width="1"/>
  <rect x="370" y="69" width="20" height="30" fill="crimson" stroke="black" stroke-width="1"/>
  <text x="400" y="608" font-family="sans-serif" font-size="16">Linux (x86_64) (1)</text>
  <path d="M 200,300 L 202.8,-122.3 A 150,150 0 0 1 202.7,-122.3 Z" fill="cyan" stroke="black" stroke-width="1"/>
  <rect x="370" y="70" width="20" height="30" fill="cyan" stroke="black" stroke-width="1"/>
  <text x="400" y="638" font-family="sans-serif" font-size="16">Mac OS X (amd64) (2)</text>
  <path d="M 200,300 L 202.7,-122.3 A 150,150 0 0 1 199.0,-123.4 Z" fill="darkred" stroke="black" stroke-width="1"/>
  <rect x="370" y="71" width="20" height="30" fill="darkred" stroke="black" stroke-width="1"/>
  <text x="400" y="668" font-family="sans-serif" font-size="16">Mac OS X (i386) (154)</text>
  <path d="M 200,300 L 199.0,-123.4 A 150,150 0 0 1 198.7,-123.5 Z" fill="ivory" stroke="black" stroke-width="1"/>
  <rect x="370" y="72" width="20" height="30" fill="ivory" stroke="black" stroke-width="1"/>
  <text x="400" y="698" font-family="sans-serif" font-size="16">Mac OS X (ppc) (10)</text>
  <path d="M 200,300 L 198.7,-123.5 A 150,150 0 0 1 149.2,-135.7 Z" fill="lime" stroke="black" stroke-width="1"/>
  <rect x="370" y="73" width="20" height="30" fill="lime" stroke="black" stroke-width="1"/>
  <text x="400" y="728" font-family="sans-serif" font-size="16">Mac OS X (x86_64) (1919)</text>
  <path d="M 200,300 L 149.2,-135.7 A 150,150 0 0 1 -349.3,-9.7 Z" fill="maroon" stroke="black" stroke-width="1"/>
  <rect x="370" y="74" width="20" height="30" fill="maroon" stroke="black" stroke-width="1"/>
  <text x="400" y="758" font-family="sans-serif" font-size="16">N/A (22852)</text>
  <path d="M 200,300 L -349.3,-9.7 A 150,150 0 0 1 -349.3,-9.7 Z" fill="navy" stroke="black" stroke-width="1"/>
  <rect x="370" y="75" width="20" height="30" fill="navy" stroke="black" stroke-width="1"/>
  <text x="400" y="788" font-family="sans-serif" font-size="16">NetBSD (amd64) (2)</text>
  <path d="M 200,300 L -349.3,-9.7 A 150,150 0 0 1 -349.3,-9.7 Z" fill="olive" stroke="black" stroke-width="1"/>
  <rect x="370" y="76" width="20" height="30" fill="olive" stroke="black" stroke-width="1"/>
  <text x="400" y="818" font-family="sans-serif" font-size="16">OpenBSD (amd64) (4)</text>
  <path d="M 200,300 L -349.3,-9.7 A 150,150 0 0 1 -349.3,-9.6 Z" fill="plum" stroke="black" stroke-width="1"/>
  <rect x="370" y="77" width="20" height="30" fill="plum" stroke="black" stroke-width="1"/>
  <text x="400" y="848" font-family="sans-serif" font-size="16">OpenBSD (i386) (3)</text>
  <path d="M 200,300 L -349.3,-9.6 A 150,150 0 0 1 -349.3,-9.3 Z" fill="peru" stroke="black" stroke-width="1"/>
  <rect x="370" y="78" width="20" height="30" fill="peru" stroke="black" stroke-width="1"/>
  <text x="400" y="878" font-family="sans-serif" font-size="16">SunOS (amd64) (26)</text>
  <path d="M 200,300 L -349.3,-9.3 A 150,150 0 0 1 -350.0,2.3 Z" fill="silver" stroke="black" stroke-width="1"/>
  <rect x="370" y="79" width="20" height="30" fill="silver" stroke="black" stroke-width="1"/>
  <text x="400" y="908" font-family="sans-serif" font-size="16">SunOS (sparc) (909)</text>
  <path d="M 200,300 L -350.0,2.3 A 150,150 0 0 1 -349.9,2.8 Z" fill="tan" stroke="black" stroke-width="1"/>
  <rect x="370" y="80" width="20" height="30" fill="tan" stroke="black" stroke-width="1"/>
  <text x="400" y="938" font-family="sans-serif" font-size="16">SunOS (sparcv9) (41)</text>
  <path d="M 200,300 L -349.9,2.8 A 150,150 0 0 1 -349.2,10.0 Z" fill="teal" stroke="black" stroke-width="1"/>
  <rect x="370" y="81" width="20" height="30" fill="teal" stroke="black" stroke-width="1"/>
  <text x="400" y="968" font-family="sans-serif" font-size="16">SunOS (x86) (564)</text>
  <path d="M 200,300 L -349.2,10.0 A 150,150 0 0 1 -349.2,10.0 Z" fill="violet" stroke="black" stroke-width="1"/>
  <rect x="370" y="82" width="20" height="30" fill="violet" stroke="black" stroke-width="1"/>
  <text x="400" y="998" font-family="sans-serif" font-size="16">UnixWare (IA32) (1)</text>
  <path d="M 200,300 L -349.2,10.0 A 150,150 0 0 1 -349.1,10.8 Z" fill="AliceBlue" stroke="black" stroke-width="1"/>
  <rect x="370" y="83" width="20" height="30" fill="AliceBlue" stroke="black" stroke-width="1"/>
  <text x="400" y="1028" font-family="sans-serif" font-size="16">Windows 2000 (x86) (61)</text>
  <path d="M 200,300 L -349.1,10.8 A 150,150 0 0 1 -347.7,17.0 Z" fill="DarkOliveGreen" stroke="black" stroke-width="1"/>
  <rect x="370" y="84" width="20" height="30" fill="DarkOliveGreen" stroke="black" stroke-width="1"/>
  <text x="400" y="1058" font-family="sans-serif" font-size="16">Windows 2003 (amd64) (488)</text>
  <path d="M 200,300 L -347.7,17.0 A 150,150 0 0 1 -347.7,17.0 Z" fill="Indigo" stroke="black" stroke-width="1"/>
  <rect x="370" y="85" width="20" height="30" fill="Indigo" stroke="black" stroke-width="1"/>
  <text x="400" y="1088" font-family="sans-serif" font-size="16">Windows 2003 (ia64) (1)</text>
  <path d="M 200,300 L -347.7,17.0 A 150,150 0 0 1 -315.5,64.9 Z" fill="MediumPurple" stroke="black" stroke-width="1"/>
  <rect x="370" y="86" width="20" height="30" fill="MediumPurple" stroke="black" stroke-width="1"/>
  <text x="400" y="1118" font-family="sans-serif" font-size="16">Windows 2003 (x86) (3918)</text>
  <path d="M 200,300 L -315.5,64.9 A 150,150 0 0 1 -300.5,76.9 Z" fill="Purple" stroke="black" stroke-width="1"/>
  <rect x="370" y="87" width="20" height="30" fill="Purple" stroke="black" stroke-width="1"/>
  <text x="400" y="1148" font-family="sans-serif" font-size="16">Windows 7 (amd64) (1065)</text>
  <path d="M 200,300 L -300.5,76.9 A 150,150 0 0 1 -257.3,101.7 Z" fill="AntiqueWhite" stroke="black" stroke-width="1"/>
  <rect x="370" y="88" width="20" height="30" fill="AntiqueWhite" stroke="black" stroke-width="1"/>
  <text x="400" y="1178" font-family="sans-serif" font-size="16">Windows 7 (x86) (2426)</text>
  <path d="M 200,300 L -257.3,101.7 A 150,150 0 0 1 -257.2,101.7 Z" fill="DarkOrange" stroke="black" stroke-width="1"/>
  <rect x="370" y="89" width="20" height="30" fill="DarkOrange" stroke="black" stroke-width="1"/>
  <text x="400" y="1208" font-family="sans-serif" font-size="16">Windows NT (unknown) (amd64) (5)</text>
  <path d="M 200,300 L -257.2,101.7 A 150,150 0 0 1 -256.9,101.9 Z" fill="Ivory" stroke="black" stroke-width="1"/>
  <rect x="370" y="90" width="20" height="30" fill="Ivory" stroke="black" stroke-width="1"/>
  <text x="400" y="1238" font-family="sans-serif" font-size="16">Windows NT (unknown) (x86) (16)</text>
  <path d="M 200,300 L -256.9,101.9 A 150,150 0 0 1 -256.9,101.9 Z" fill="MediumSeaGreen" stroke="black" stroke-width="1"/>
  <rect x="370" y="91" width="20" height="30" fill="MediumSeaGreen" stroke="black" stroke-width="1"/>
  <text x="400" y="1268" font-family="sans-serif" font-size="16">Windows Server 2003 (amd64) (1)</text>
  <path d="M 200,300 L -256.9,101.9 A 150,150 0 0 1 -256.3,102.2 Z" fill="Red" stroke="black" stroke-width="1"/>
  <rect x="370" y="92" width="20" height="30" fill="Red" stroke="black" stroke-width="1"/>
  <text x="400" y="1298" font-family="sans-serif" font-size="16">Windows Server 2003 (x86) (30)</text>
  <path d="M 200,300 L -256.3,102.2 A 150,150 0 0 1 -248.9,105.4 Z" fill="Aqua" stroke="black" stroke-width="1"/>
  <rect x="370" y="93" width="20" height="30" fill="Aqua" stroke="black" stroke-width="1"/>
  <text x="400" y="1328" font-family="sans-serif" font-size="16">Windows Server 2008 (amd64) (355)</text>
  <path d="M 200,300 L -248.9,105.4 A 150,150 0 0 1 -229.2,113.4 Z" fill="DarkOrchid" stroke="black" stroke-width="1"/>
  <rect x="370" y="94" width="20" height="30" fill="DarkOrchid" stroke="black" stroke-width="1"/>
  <text x="400" y="1358" font-family="sans-serif" font-size="16">Windows Server 2008 (x86) (907)</text>
  <path d="M 200,300 L -229.2,113.4 A 150,150 0 0 1 -194.5,124.7 Z" fill="Khaki" stroke="black" stroke-width="1"/>
  <rect x="370" y="95" width="20" height="30" fill="Khaki" stroke="black" stroke-width="1"/>
  <text x="400" y="1388" font-family="sans-serif" font-size="16">Windows Server 2008 R2 (amd64) (1466)</text>
  <path d="M 200,300 L -194.5,124.7 A 150,150 0 0 1 -153.9,134.7 Z" fill="MediumSlateBlue" stroke="black" stroke-width="1"/>
  <rect x="370" y="96" width="20" height="30" fill="MediumSlateBlue" stroke="black" stroke-width="1"/>
  <text x="400" y="1418" font-family="sans-serif" font-size="16">Windows Server 2008 R2 (x86) (1573)</text>
  <path d="M 200,300 L -153.9,134.7 A 150,150 0 0 1 -152.5,135.0 Z" fill="RosyBrown" stroke="black" stroke-width="1"/>
  <rect x="370" y="97" width="20" height="30" fill="RosyBrown" stroke="black" stroke-width="1"/>
  <text x="400" y="1448" font-family="sans-serif" font-size="16">Windows Vista (amd64) (53)</text>
  <path d="M 200,300 L -152.5,135.0 A 150,150 0 0 1 -142.4,137.0 Z" fill="AquaMarine" stroke="black" stroke-width="1"/>
  <rect x="370" y="98" width="20" height="30" fill="AquaMarine" stroke="black" stroke-width="1"/>
  <text x="400" y="1478" font-family="sans-serif" font-size="16">Windows Vista (x86) (373)</text>
  <path d="M 200,300 L -142.4,137.0 A 150,150 0 0 1 -138.6,137.7 Z" fill="DarkRed" stroke="black" stroke-width="1"/>
  <rect x="370" y="99" width="20" height="30" fill="DarkRed" stroke="black" stroke-width="1"/>
  <text x="400" y="1508" font-family="sans-serif" font-size="16">Windows XP (amd64) (140)</text>
  <path d="M 200,300 L -138.6,137.7 A 150,150 0 0 1 -0.0,150.0 Z" fill="Lavender" stroke="black" stroke-width="1"/>
  <rect x="370" y="100" width="20" height="30" fill="Lavender" stroke="black" stroke-width="1"/>
  <text x="400" y="1538" font-family="sans-serif" font-size="16">Windows XP (x86) (4778)</text>
  <path d="M 200,300 L -0.0,150.0 A 150,150 0 0 1 0.0,150.0 Z" fill="MediumSpringGreen" stroke="black" stroke-width="1"/>
  <rect x="370" y="101" width="20" height="30" fill="MediumSpringGreen" stroke="black" stroke-width="1"/>
  <text x="400" y="1568" font-family="sans-serif" font-size="16">linux (amd64) (1)</text>
</svg>
