<svg xmlns="http://www.w3.org/2000/svg" version="1.1" preserveAspectRatio="xMidYMid meet" viewBox="0 0 3005 737.5">
  <rect fill="blue" height="5.1" stroke="black" width="12" x="15" y="432.5"/>
  <text x="15" y="442.5" font-family="Tahoma" font-size="12" transform="rotate(90 15,442.5)" text-rendering="optimizeSpeed" fill="#000000">fitnesse (509)</text>
  <rect fill="blue" height="5.2" stroke="black" width="12" x="30" y="432.4"/>
  <text x="30" y="442.5" font-family="Tahoma" font-size="12" transform="rotate(90 30,442.5)" text-rendering="optimizeSpeed" fill="#000000">job-exporter (519)</text>
  <rect fill="blue" height="5.2" stroke="black" width="12" x="45" y="432.3"/>
  <text x="45" y="442.5" font-family="Tahoma" font-size="12" transform="rotate(90 45,442.5)" text-rendering="optimizeSpeed" fill="#000000">maven-deployment-linker (522)</text>
  <rect fill="blue" height="5.3" stroke="black" width="12" x="60" y="432.3"/>
  <text x="60" y="442.5" font-family="Tahoma" font-size="12" transform="rotate(90 60,442.5)" text-rendering="optimizeSpeed" fill="#000000">selenium-aes (526)</text>
  <rect fill="blue" height="5.3" stroke="black" width="12" x="75" y="432.3"/>
  <text x="75" y="442.5" font-family="Tahoma" font-size="12" transform="rotate(90 75,442.5)" text-rendering="optimizeSpeed" fill="#000000">testlink (526)</text>
  <rect fill="blue" height="5.3" stroke="black" width="12" x="90" y="432.3"/>
  <text x="90" y="442.5" font-family="Tahoma" font-size="12" transform="rotate(90 90,442.5)" text-rendering="optimizeSpeed" fill="#000000">filesystem_scm (527)</text>
  <rect fill="blue" height="5.3" stroke="black" width="12" x="105" y="432.3"/>
  <text x="105" y="442.5" font-family="Tahoma" font-size="12" transform="rotate(90 105,442.5)" text-rendering="optimizeSpeed" fill="#000000">multiple-scms (529)</text>
  <rect fill="blue" height="5.3" stroke="black" width="12" x="120" y="432.2"/>
  <text x="120" y="442.5" font-family="Tahoma" font-size="12" transform="rotate(90 120,442.5)" text-rendering="optimizeSpeed" fill="#000000">sitemonitor (530)</text>
  <rect fill="blue" height="5.3" stroke="black" width="12" x="135" y="432.2"/>
  <text x="135" y="442.5" font-family="Tahoma" font-size="12" transform="rotate(90 135,442.5)" text-rendering="optimizeSpeed" fill="#000000">createjobadvanced (532)</text>
  <rect fill="blue" height="5.3" stroke="black" width="12" x="150" y="432.2"/>
  <text x="150" y="442.5" font-family="Tahoma" font-size="12" transform="rotate(90 150,442.5)" text-rendering="optimizeSpeed" fill="#000000">WebSVN2 (534)</text>
  <rect fill="blue" height="5.3" stroke="black" width="12" x="165" y="432.2"/>
  <text x="165" y="442.5" font-family="Tahoma" font-size="12" transform="rotate(90 165,442.5)" text-rendering="optimizeSpeed" fill="#000000">extended-read-permission (534)</text>
  <rect fill="blue" height="5.4" stroke="black" width="12" x="180" y="432.1"/>
  <text x="180" y="442.5" font-family="Tahoma" font-size="12" transform="rotate(90 180,442.5)" text-rendering="optimizeSpeed" fill="#000000">status-view (542)</text>
  <rect fill="blue" height="5.5" stroke="black" width="12" x="195" y="432.1"/>
  <text x="195" y="442.5" font-family="Tahoma" font-size="12" transform="rotate(90 195,442.5)" text-rendering="optimizeSpeed" fill="#000000">bulk-builder (546)</text>
  <rect fill="blue" height="5.5" stroke="black" width="12" x="210" y="432.1"/>
  <text x="210" y="442.5" font-family="Tahoma" font-size="12" transform="rotate(90 210,442.5)" text-rendering="optimizeSpeed" fill="#000000">jquery-ui (547)</text>
  <rect fill="blue" height="5.5" stroke="black" width="12" x="225" y="432.0"/>
  <text x="225" y="442.5" font-family="Tahoma" font-size="12" transform="rotate(90 225,442.5)" text-rendering="optimizeSpeed" fill="#000000">mantis (551)</text>
  <rect fill="blue" height="5.5" stroke="black" width="12" x="240" y="432.0"/>
  <text x="240" y="442.5" font-family="Tahoma" font-size="12" transform="rotate(90 240,442.5)" text-rendering="optimizeSpeed" fill="#000000">selenium (555)</text>
  <rect fill="blue" height="5.6" stroke="black" width="12" x="255" y="432.0"/>
  <text x="255" y="442.5" font-family="Tahoma" font-size="12" transform="rotate(90 255,442.5)" text-rendering="optimizeSpeed" fill="#000000">files-found-trigger (558)</text>
  <rect fill="blue" height="5.6" stroke="black" width="12" x="270" y="431.9"/>
  <text x="270" y="442.5" font-family="Tahoma" font-size="12" transform="rotate(90 270,442.5)" text-rendering="optimizeSpeed" fill="#000000">cmakebuilder (561)</text>
  <rect fill="blue" height="5.7" stroke="black" width="12" x="285" y="431.9"/>
  <text x="285" y="442.5" font-family="Tahoma" font-size="12" transform="rotate(90 285,442.5)" text-rendering="optimizeSpeed" fill="#000000">next-executions (566)</text>
  <rect fill="blue" height="5.7" stroke="black" width="12" x="300" y="431.8"/>
  <text x="300" y="442.5" font-family="Tahoma" font-size="12" transform="rotate(90 300,442.5)" text-rendering="optimizeSpeed" fill="#000000">throttle-concurrents (572)</text>
  <rect fill="blue" height="5.8" stroke="black" width="12" x="315" y="431.8"/>
  <text x="315" y="442.5" font-family="Tahoma" font-size="12" transform="rotate(90 315,442.5)" text-rendering="optimizeSpeed" fill="#000000">extended-choice-parameter (575)</text>
  <rect fill="blue" height="5.8" stroke="black" width="12" x="330" y="431.8"/>
  <text x="330" y="442.5" font-family="Tahoma" font-size="12" transform="rotate(90 330,442.5)" text-rendering="optimizeSpeed" fill="#000000">ncover (575)</text>
  <rect fill="blue" height="5.8" stroke="black" width="12" x="345" y="431.7"/>
  <text x="345" y="442.5" font-family="Tahoma" font-size="12" transform="rotate(90 345,442.5)" text-rendering="optimizeSpeed" fill="#000000">jquery (581)</text>
  <rect fill="blue" height="5.9" stroke="black" width="12" x="360" y="431.7"/>
  <text x="360" y="442.5" font-family="Tahoma" font-size="12" transform="rotate(90 360,442.5)" text-rendering="optimizeSpeed" fill="#000000">gcal (589)</text>
  <rect fill="blue" height="6.0" stroke="black" width="12" x="375" y="431.6"/>
  <text x="375" y="442.5" font-family="Tahoma" font-size="12" transform="rotate(90 375,442.5)" text-rendering="optimizeSpeed" fill="#000000">ui-samples-plugin (595)</text>
  <rect fill="blue" height="6.0" stroke="black" width="12" x="390" y="431.6"/>
  <text x="390" y="442.5" font-family="Tahoma" font-size="12" transform="rotate(90 390,442.5)" text-rendering="optimizeSpeed" fill="#000000">notification (597)</text>
  <rect fill="blue" height="6.0" stroke="black" width="12" x="405" y="431.5"/>
  <text x="405" y="442.5" font-family="Tahoma" font-size="12" transform="rotate(90 405,442.5)" text-rendering="optimizeSpeed" fill="#000000">periodicbackup (601)</text>
  <rect fill="blue" height="6.1" stroke="black" width="12" x="420" y="431.4"/>
  <text x="420" y="442.5" font-family="Tahoma" font-size="12" transform="rotate(90 420,442.5)" text-rendering="optimizeSpeed" fill="#000000">clone-workspace-scm (610)</text>
  <rect fill="blue" height="6.1" stroke="black" width="12" x="435" y="431.4"/>
  <text x="435" y="442.5" font-family="Tahoma" font-size="12" transform="rotate(90 435,442.5)" text-rendering="optimizeSpeed" fill="#000000">gerrit-trigger (613)</text>
  <rect fill="blue" height="6.1" stroke="black" width="12" x="450" y="431.4"/>
  <text x="450" y="442.5" font-family="Tahoma" font-size="12" transform="rotate(90 450,442.5)" text-rendering="optimizeSpeed" fill="#000000">screenshot (613)</text>
  <rect fill="blue" height="6.2" stroke="black" width="12" x="465" y="431.4"/>
  <text x="465" y="442.5" font-family="Tahoma" font-size="12" transform="rotate(90 465,442.5)" text-rendering="optimizeSpeed" fill="#000000">schedule-failed-builds (619)</text>
  <rect fill="blue" height="6.2" stroke="black" width="12" x="480" y="431.3"/>
  <text x="480" y="442.5" font-family="Tahoma" font-size="12" transform="rotate(90 480,442.5)" text-rendering="optimizeSpeed" fill="#000000">scm-sync-configuration (622)</text>
  <rect fill="blue" height="6.2" stroke="black" width="12" x="495" y="431.3"/>
  <text x="495" y="442.5" font-family="Tahoma" font-size="12" transform="rotate(90 495,442.5)" text-rendering="optimizeSpeed" fill="#000000">PrioritySorter (624)</text>
  <rect fill="blue" height="6.4" stroke="black" width="12" x="510" y="431.2"/>
  <text x="510" y="442.5" font-family="Tahoma" font-size="12" transform="rotate(90 510,442.5)" text-rendering="optimizeSpeed" fill="#000000">cccc (639)</text>
  <rect fill="blue" height="6.4" stroke="black" width="12" x="525" y="431.1"/>
  <text x="525" y="442.5" font-family="Tahoma" font-size="12" transform="rotate(90 525,442.5)" text-rendering="optimizeSpeed" fill="#000000">gravatar (642)</text>
  <rect fill="blue" height="6.5" stroke="black" width="12" x="540" y="431.1"/>
  <text x="540" y="442.5" font-family="Tahoma" font-size="12" transform="rotate(90 540,442.5)" text-rendering="optimizeSpeed" fill="#000000">javancss (645)</text>
  <rect fill="blue" height="6.5" stroke="black" width="12" x="555" y="431.0"/>
  <text x="555" y="442.5" font-family="Tahoma" font-size="12" transform="rotate(90 555,442.5)" text-rendering="optimizeSpeed" fill="#000000">bugzilla (653)</text>
  <rect fill="blue" height="6.6" stroke="black" width="12" x="570" y="431.0"/>
  <text x="570" y="442.5" font-family="Tahoma" font-size="12" transform="rotate(90 570,442.5)" text-rendering="optimizeSpeed" fill="#000000">matrixtieparent (658)</text>
  <rect fill="blue" height="6.7" stroke="black" width="12" x="585" y="430.9"/>
  <text x="585" y="442.5" font-family="Tahoma" font-size="12" transform="rotate(90 585,442.5)" text-rendering="optimizeSpeed" fill="#000000">git-parameter (665)</text>
  <rect fill="blue" height="7.0" stroke="black" width="12" x="600" y="430.6"/>
  <text x="600" y="442.5" font-family="Tahoma" font-size="12" transform="rotate(90 600,442.5)" text-rendering="optimizeSpeed" fill="#000000">blame-upstream-commiters (696)</text>
  <rect fill="blue" height="7.0" stroke="black" width="12" x="615" y="430.6"/>
  <text x="615" y="442.5" font-family="Tahoma" font-size="12" transform="rotate(90 615,442.5)" text-rendering="optimizeSpeed" fill="#000000">build-publisher (696)</text>
  <rect fill="blue" height="7.0" stroke="black" width="12" x="630" y="430.6"/>
  <text x="630" y="442.5" font-family="Tahoma" font-size="12" transform="rotate(90 630,442.5)" text-rendering="optimizeSpeed" fill="#000000">groovy-postbuild (698)</text>
  <rect fill="blue" height="7.0" stroke="black" width="12" x="645" y="430.5"/>
  <text x="645" y="442.5" font-family="Tahoma" font-size="12" transform="rotate(90 645,442.5)" text-rendering="optimizeSpeed" fill="#000000">extra-columns (704)</text>
  <rect fill="blue" height="7.1" stroke="black" width="12" x="660" y="430.4"/>
  <text x="660" y="442.5" font-family="Tahoma" font-size="12" transform="rotate(90 660,442.5)" text-rendering="optimizeSpeed" fill="#000000">favorite (710)</text>
  <rect fill="blue" height="7.3" stroke="black" width="12" x="675" y="430.3"/>
  <text x="675" y="442.5" font-family="Tahoma" font-size="12" transform="rotate(90 675,442.5)" text-rendering="optimizeSpeed" fill="#000000">junit-attachments (727)</text>
  <rect fill="blue" height="7.3" stroke="black" width="12" x="690" y="430.3"/>
  <text x="690" y="442.5" font-family="Tahoma" font-size="12" transform="rotate(90 690,442.5)" text-rendering="optimizeSpeed" fill="#000000">slave-status (729)</text>
  <rect fill="blue" height="7.4" stroke="black" width="12" x="705" y="430.2"/>
  <text x="705" y="442.5" font-family="Tahoma" font-size="12" transform="rotate(90 705,442.5)" text-rendering="optimizeSpeed" fill="#000000">mask-passwords (736)</text>
  <rect fill="blue" height="7.4" stroke="black" width="12" x="720" y="430.2"/>
  <text x="720" y="442.5" font-family="Tahoma" font-size="12" transform="rotate(90 720,442.5)" text-rendering="optimizeSpeed" fill="#000000">conditional-buildstep (739)</text>
  <rect fill="blue" height="7.6" stroke="black" width="12" x="735" y="429.9"/>
  <text x="735" y="442.5" font-family="Tahoma" font-size="12" transform="rotate(90 735,442.5)" text-rendering="optimizeSpeed" fill="#000000">maven-info (761)</text>
  <rect fill="blue" height="7.6" stroke="black" width="12" x="750" y="429.9"/>
  <text x="750" y="442.5" font-family="Tahoma" font-size="12" transform="rotate(90 750,442.5)" text-rendering="optimizeSpeed" fill="#000000">powershell (761)</text>
  <rect fill="blue" height="7.7" stroke="black" width="12" x="765" y="429.8"/>
  <text x="765" y="442.5" font-family="Tahoma" font-size="12" transform="rotate(90 765,442.5)" text-rendering="optimizeSpeed" fill="#000000">run-condition (774)</text>
  <rect fill="blue" height="7.8" stroke="black" width="12" x="780" y="429.7"/>
  <text x="780" y="442.5" font-family="Tahoma" font-size="12" transform="rotate(90 780,442.5)" text-rendering="optimizeSpeed" fill="#000000">shelve-project-plugin (781)</text>
  <rect fill="blue" height="7.9" stroke="black" width="12" x="795" y="429.6"/>
  <text x="795" y="442.5" font-family="Tahoma" font-size="12" transform="rotate(90 795,442.5)" text-rendering="optimizeSpeed" fill="#000000">show-build-parameters (790)</text>
  <rect fill="blue" height="8.0" stroke="black" width="12" x="810" y="429.6"/>
  <text x="810" y="442.5" font-family="Tahoma" font-size="12" transform="rotate(90 810,442.5)" text-rendering="optimizeSpeed" fill="#000000">xcode-plugin (797)</text>
  <rect fill="blue" height="8.0" stroke="black" width="12" x="825" y="429.5"/>
  <text x="825" y="442.5" font-family="Tahoma" font-size="12" transform="rotate(90 825,442.5)" text-rendering="optimizeSpeed" fill="#000000">seleniumhtmlreport (803)</text>
  <rect fill="blue" height="8.2" stroke="black" width="12" x="840" y="429.4"/>
  <text x="840" y="442.5" font-family="Tahoma" font-size="12" transform="rotate(90 840,442.5)" text-rendering="optimizeSpeed" fill="#000000">viewVC (817)</text>
  <rect fill="blue" height="8.2" stroke="black" width="12" x="855" y="429.3"/>
  <text x="855" y="442.5" font-family="Tahoma" font-size="12" transform="rotate(90 855,442.5)" text-rendering="optimizeSpeed" fill="#000000">phing (825)</text>
  <rect fill="blue" height="8.4" stroke="black" width="12" x="870" y="429.2"/>
  <text x="870" y="442.5" font-family="Tahoma" font-size="12" transform="rotate(90 870,442.5)" text-rendering="optimizeSpeed" fill="#000000">ldapemail (836)</text>
  <rect fill="blue" height="8.4" stroke="black" width="12" x="885" y="429.2"/>
  <text x="885" y="442.5" font-family="Tahoma" font-size="12" transform="rotate(90 885,442.5)" text-rendering="optimizeSpeed" fill="#000000">publish-over-ftp (836)</text>
  <rect fill="blue" height="8.4" stroke="black" width="12" x="900" y="429.2"/>
  <text x="900" y="442.5" font-family="Tahoma" font-size="12" transform="rotate(90 900,442.5)" text-rendering="optimizeSpeed" fill="#000000">ansicolor (839)</text>
  <rect fill="blue" height="8.6" stroke="black" width="12" x="915" y="429.0"/>
  <text x="915" y="442.5" font-family="Tahoma" font-size="12" transform="rotate(90 915,442.5)" text-rendering="optimizeSpeed" fill="#000000">github-oauth (857)</text>
  <rect fill="blue" height="8.8" stroke="black" width="12" x="930" y="428.7"/>
  <text x="930" y="442.5" font-family="Tahoma" font-size="12" transform="rotate(90 930,442.5)" text-rendering="optimizeSpeed" fill="#000000">svnpublisher (881)</text>
  <rect fill="blue" height="8.8" stroke="black" width="12" x="945" y="428.7"/>
  <text x="945" y="442.5" font-family="Tahoma" font-size="12" transform="rotate(90 945,442.5)" text-rendering="optimizeSpeed" fill="#000000">grails (884)</text>
  <rect fill="blue" height="8.8" stroke="black" width="12" x="960" y="428.7"/>
  <text x="960" y="442.5" font-family="Tahoma" font-size="12" transform="rotate(90 960,442.5)" text-rendering="optimizeSpeed" fill="#000000">rebuild (885)</text>
  <rect fill="blue" height="8.9" stroke="black" width="12" x="975" y="428.7"/>
  <text x="975" y="442.5" font-family="Tahoma" font-size="12" transform="rotate(90 975,442.5)" text-rendering="optimizeSpeed" fill="#000000">build-name-setter (889)</text>
  <rect fill="blue" height="9.0" stroke="black" width="12" x="990" y="428.6"/>
  <text x="990" y="442.5" font-family="Tahoma" font-size="12" transform="rotate(90 990,442.5)" text-rendering="optimizeSpeed" fill="#000000">android-emulator (896)</text>
  <rect fill="blue" height="9.0" stroke="black" width="12" x="1005" y="428.5"/>
  <text x="1005" y="442.5" font-family="Tahoma" font-size="12" transform="rotate(90 1005,442.5)" text-rendering="optimizeSpeed" fill="#000000">jenkinswalldisplay (900)</text>
  <rect fill="blue" height="9.0" stroke="black" width="12" x="1020" y="428.5"/>
  <text x="1020" y="442.5" font-family="Tahoma" font-size="12" transform="rotate(90 1020,442.5)" text-rendering="optimizeSpeed" fill="#000000">rubyMetrics (904)</text>
  <rect fill="blue" height="9.1" stroke="black" width="12" x="1035" y="428.4"/>
  <text x="1035" y="442.5" font-family="Tahoma" font-size="12" transform="rotate(90 1035,442.5)" text-rendering="optimizeSpeed" fill="#000000">gradle (910)</text>
  <rect fill="blue" height="9.2" stroke="black" width="12" x="1050" y="428.4"/>
  <text x="1050" y="442.5" font-family="Tahoma" font-size="12" transform="rotate(90 1050,442.5)" text-rendering="optimizeSpeed" fill="#000000">ivy (916)</text>
  <rect fill="blue" height="9.3" stroke="black" width="12" x="1065" y="428.3"/>
  <text x="1065" y="442.5" font-family="Tahoma" font-size="12" transform="rotate(90 1065,442.5)" text-rendering="optimizeSpeed" fill="#000000">changelog-history (927)</text>
  <rect fill="blue" height="9.6" stroke="black" width="12" x="1080" y="428.0"/>
  <text x="1080" y="442.5" font-family="Tahoma" font-size="12" transform="rotate(90 1080,442.5)" text-rendering="optimizeSpeed" fill="#000000">hudsontrayapp (955)</text>
  <rect fill="blue" height="9.8" stroke="black" width="12" x="1095" y="427.8"/>
  <text x="1095" y="442.5" font-family="Tahoma" font-size="12" transform="rotate(90 1095,442.5)" text-rendering="optimizeSpeed" fill="#000000">configurationslicing (975)</text>
  <rect fill="blue" height="9.9" stroke="black" width="12" x="1110" y="427.6"/>
  <text x="1110" y="442.5" font-family="Tahoma" font-size="12" transform="rotate(90 1110,442.5)" text-rendering="optimizeSpeed" fill="#000000">xfpanel (995)</text>
  <rect fill="blue" height="10.3" stroke="black" width="12" x="1125" y="427.2"/>
  <text x="1125" y="442.5" font-family="Tahoma" font-size="12" transform="rotate(90 1125,442.5)" text-rendering="optimizeSpeed" fill="#000000">claim (1032)</text>
  <rect fill="blue" height="10.3" stroke="black" width="12" x="1140" y="427.2"/>
  <text x="1140" y="442.5" font-family="Tahoma" font-size="12" transform="rotate(90 1140,442.5)" text-rendering="optimizeSpeed" fill="#000000">mstest (1034)</text>
  <rect fill="blue" height="10.4" stroke="black" width="12" x="1155" y="427.2"/>
  <text x="1155" y="442.5" font-family="Tahoma" font-size="12" transform="rotate(90 1155,442.5)" text-rendering="optimizeSpeed" fill="#000000">cron_column (1038)</text>
  <rect fill="blue" height="10.4" stroke="black" width="12" x="1170" y="427.1"/>
  <text x="1170" y="442.5" font-family="Tahoma" font-size="12" transform="rotate(90 1170,442.5)" text-rendering="optimizeSpeed" fill="#000000">envfile (1044)</text>
  <rect fill="blue" height="10.6" stroke="black" width="12" x="1185" y="427.0"/>
  <text x="1185" y="442.5" font-family="Tahoma" font-size="12" transform="rotate(90 1185,442.5)" text-rendering="optimizeSpeed" fill="#000000">emotional-jenkins-plugin (1055)</text>
  <rect fill="blue" height="10.8" stroke="black" width="12" x="1200" y="426.8"/>
  <text x="1200" y="442.5" font-family="Tahoma" font-size="12" transform="rotate(90 1200,442.5)" text-rendering="optimizeSpeed" fill="#000000">clearcase (1076)</text>
  <rect fill="blue" height="10.8" stroke="black" width="12" x="1215" y="426.7"/>
  <text x="1215" y="442.5" font-family="Tahoma" font-size="12" transform="rotate(90 1215,442.5)" text-rendering="optimizeSpeed" fill="#000000">nant (1082)</text>
  <rect fill="blue" height="10.9" stroke="black" width="12" x="1230" y="426.7"/>
  <text x="1230" y="442.5" font-family="Tahoma" font-size="12" transform="rotate(90 1230,442.5)" text-rendering="optimizeSpeed" fill="#000000">testng-plugin (1089)</text>
  <rect fill="blue" height="10.9" stroke="black" width="12" x="1245" y="426.6"/>
  <text x="1245" y="442.5" font-family="Tahoma" font-size="12" transform="rotate(90 1245,442.5)" text-rendering="optimizeSpeed" fill="#000000">template-project (1094)</text>
  <rect fill="blue" height="11.1" stroke="black" width="12" x="1260" y="426.4"/>
  <text x="1260" y="442.5" font-family="Tahoma" font-size="12" transform="rotate(90 1260,442.5)" text-rendering="optimizeSpeed" fill="#000000">ircbot (1113)</text>
  <rect fill="blue" height="11.2" stroke="black" width="12" x="1275" y="426.4"/>
  <text x="1275" y="442.5" font-family="Tahoma" font-size="12" transform="rotate(90 1275,442.5)" text-rendering="optimizeSpeed" fill="#000000">iphoneview (1116)</text>
  <rect fill="blue" height="11.2" stroke="black" width="12" x="1290" y="426.4"/>
  <text x="1290" y="442.5" font-family="Tahoma" font-size="12" transform="rotate(90 1290,442.5)" text-rendering="optimizeSpeed" fill="#000000">role-strategy (1119)</text>
  <rect fill="blue" height="11.3" stroke="black" width="12" x="1305" y="426.2"/>
  <text x="1305" y="442.5" font-family="Tahoma" font-size="12" transform="rotate(90 1305,442.5)" text-rendering="optimizeSpeed" fill="#000000">cppcheck (1133)</text>
  <rect fill="blue" height="11.4" stroke="black" width="12" x="1320" y="426.1"/>
  <text x="1320" y="442.5" font-family="Tahoma" font-size="12" transform="rotate(90 1320,442.5)" text-rendering="optimizeSpeed" fill="#000000">downstream-ext (1145)</text>
  <rect fill="blue" height="11.5" stroke="black" width="12" x="1335" y="426.1"/>
  <text x="1335" y="442.5" font-family="Tahoma" font-size="12" transform="rotate(90 1335,442.5)" text-rendering="optimizeSpeed" fill="#000000">project-stats-plugin (1147)</text>
  <rect fill="blue" height="11.6" stroke="black" width="12" x="1350" y="425.9"/>
  <text x="1350" y="442.5" font-family="Tahoma" font-size="12" transform="rotate(90 1350,442.5)" text-rendering="optimizeSpeed" fill="#000000">saferestart (1164)</text>
  <rect fill="blue" height="11.7" stroke="black" width="12" x="1365" y="425.9"/>
  <text x="1365" y="442.5" font-family="Tahoma" font-size="12" transform="rotate(90 1365,442.5)" text-rendering="optimizeSpeed" fill="#000000">doclinks (1165)</text>
  <rect fill="blue" height="11.7" stroke="black" width="12" x="1380" y="425.9"/>
  <text x="1380" y="442.5" font-family="Tahoma" font-size="12" transform="rotate(90 1380,442.5)" text-rendering="optimizeSpeed" fill="#000000">xvnc (1168)</text>
  <rect fill="blue" height="11.8" stroke="black" width="12" x="1395" y="425.7"/>
  <text x="1395" y="442.5" font-family="Tahoma" font-size="12" transform="rotate(90 1395,442.5)" text-rendering="optimizeSpeed" fill="#000000">sloccount (1184)</text>
  <rect fill="blue" height="11.9" stroke="black" width="12" x="1410" y="425.7"/>
  <text x="1410" y="442.5" font-family="Tahoma" font-size="12" transform="rotate(90 1410,442.5)" text-rendering="optimizeSpeed" fill="#000000">next-build-number (1187)</text>
  <rect fill="blue" height="12.3" stroke="black" width="12" x="1425" y="425.3"/>
  <text x="1425" y="442.5" font-family="Tahoma" font-size="12" transform="rotate(90 1425,442.5)" text-rendering="optimizeSpeed" fill="#000000">trac (1226)</text>
  <rect fill="blue" height="12.4" stroke="black" width="12" x="1440" y="425.1"/>
  <text x="1440" y="442.5" font-family="Tahoma" font-size="12" transform="rotate(90 1440,442.5)" text-rendering="optimizeSpeed" fill="#000000">sectioned-view (1241)</text>
  <rect fill="blue" height="12.5" stroke="black" width="12" x="1455" y="425.1"/>
  <text x="1455" y="442.5" font-family="Tahoma" font-size="12" transform="rotate(90 1455,442.5)" text-rendering="optimizeSpeed" fill="#000000">ftppublisher (1249)</text>
  <rect fill="blue" height="12.6" stroke="black" width="12" x="1470" y="424.9"/>
  <text x="1470" y="442.5" font-family="Tahoma" font-size="12" transform="rotate(90 1470,442.5)" text-rendering="optimizeSpeed" fill="#000000">ruby (1261)</text>
  <rect fill="blue" height="12.7" stroke="black" width="12" x="1485" y="424.9"/>
  <text x="1485" y="442.5" font-family="Tahoma" font-size="12" transform="rotate(90 1485,442.5)" text-rendering="optimizeSpeed" fill="#000000">description-setter (1265)</text>
  <rect fill="blue" height="12.8" stroke="black" width="12" x="1500" y="424.8"/>
  <text x="1500" y="442.5" font-family="Tahoma" font-size="12" transform="rotate(90 1500,442.5)" text-rendering="optimizeSpeed" fill="#000000">global-build-stats (1277)</text>
  <rect fill="blue" height="12.8" stroke="black" width="12" x="1515" y="424.7"/>
  <text x="1515" y="442.5" font-family="Tahoma" font-size="12" transform="rotate(90 1515,442.5)" text-rendering="optimizeSpeed" fill="#000000">locale (1283)</text>
  <rect fill="blue" height="12.9" stroke="black" width="12" x="1530" y="424.6"/>
  <text x="1530" y="442.5" font-family="Tahoma" font-size="12" transform="rotate(90 1530,442.5)" text-rendering="optimizeSpeed" fill="#000000">seleniumhq (1293)</text>
  <rect fill="blue" height="13.0" stroke="black" width="12" x="1545" y="424.5"/>
  <text x="1545" y="442.5" font-family="Tahoma" font-size="12" transform="rotate(90 1545,442.5)" text-rendering="optimizeSpeed" fill="#000000">all-changes (1302)</text>
  <rect fill="blue" height="13.0" stroke="black" width="12" x="1560" y="424.5"/>
  <text x="1560" y="442.5" font-family="Tahoma" font-size="12" transform="rotate(90 1560,442.5)" text-rendering="optimizeSpeed" fill="#000000">dependencyanalyzer (1302)</text>
  <rect fill="blue" height="13.3" stroke="black" width="12" x="1575" y="424.3"/>
  <text x="1575" y="442.5" font-family="Tahoma" font-size="12" transform="rotate(90 1575,442.5)" text-rendering="optimizeSpeed" fill="#000000">ws-cleanup (1327)</text>
  <rect fill="blue" height="13.3" stroke="black" width="12" x="1590" y="424.2"/>
  <text x="1590" y="442.5" font-family="Tahoma" font-size="12" transform="rotate(90 1590,442.5)" text-rendering="optimizeSpeed" fill="#000000">hudson-pview-plugin (1332)</text>
  <rect fill="blue" height="13.4" stroke="black" width="12" x="1605" y="424.2"/>
  <text x="1605" y="442.5" font-family="Tahoma" font-size="12" transform="rotate(90 1605,442.5)" text-rendering="optimizeSpeed" fill="#000000">console-column-plugin (1336)</text>
  <rect fill="blue" height="13.4" stroke="black" width="12" x="1620" y="424.2"/>
  <text x="1620" y="442.5" font-family="Tahoma" font-size="12" transform="rotate(90 1620,442.5)" text-rendering="optimizeSpeed" fill="#000000">redmine (1337)</text>
  <rect fill="blue" height="13.6" stroke="black" width="12" x="1635" y="423.9"/>
  <text x="1635" y="442.5" font-family="Tahoma" font-size="12" transform="rotate(90 1635,442.5)" text-rendering="optimizeSpeed" fill="#000000">emotional-hudson (1360)</text>
  <rect fill="blue" height="13.7" stroke="black" width="12" x="1650" y="423.8"/>
  <text x="1650" y="442.5" font-family="Tahoma" font-size="12" transform="rotate(90 1650,442.5)" text-rendering="optimizeSpeed" fill="#000000">text-finder (1371)</text>
  <rect fill="blue" height="13.8" stroke="black" width="12" x="1665" y="423.7"/>
  <text x="1665" y="442.5" font-family="Tahoma" font-size="12" transform="rotate(90 1665,442.5)" text-rendering="optimizeSpeed" fill="#000000">nested-view (1382)</text>
  <rect fill="blue" height="14.0" stroke="black" width="12" x="1680" y="423.5"/>
  <text x="1680" y="442.5" font-family="Tahoma" font-size="12" transform="rotate(90 1680,442.5)" text-rendering="optimizeSpeed" fill="#000000">versionnumber (1403)</text>
  <rect fill="blue" height="14.1" stroke="black" width="12" x="1695" y="423.4"/>
  <text x="1695" y="442.5" font-family="Tahoma" font-size="12" transform="rotate(90 1695,442.5)" text-rendering="optimizeSpeed" fill="#000000">compact-columns (1414)</text>
  <rect fill="blue" height="14.5" stroke="black" width="12" x="1710" y="423.1"/>
  <text x="1710" y="442.5" font-family="Tahoma" font-size="12" transform="rotate(90 1710,442.5)" text-rendering="optimizeSpeed" fill="#000000">doxygen (1448)</text>
  <rect fill="blue" height="14.5" stroke="black" width="12" x="1725" y="423.0"/>
  <text x="1725" y="442.5" font-family="Tahoma" font-size="12" transform="rotate(90 1725,442.5)" text-rendering="optimizeSpeed" fill="#000000">groovy (1451)</text>
  <rect fill="blue" height="14.6" stroke="black" width="12" x="1740" y="422.9"/>
  <text x="1740" y="442.5" font-family="Tahoma" font-size="12" transform="rotate(90 1740,442.5)" text-rendering="optimizeSpeed" fill="#000000">monitoring (1461)</text>
  <rect fill="blue" height="14.6" stroke="black" width="12" x="1755" y="422.9"/>
  <text x="1755" y="442.5" font-family="Tahoma" font-size="12" transform="rotate(90 1755,442.5)" text-rendering="optimizeSpeed" fill="#000000">port-allocator (1463)</text>
  <rect fill="blue" height="14.7" stroke="black" width="12" x="1770" y="422.8"/>
  <text x="1770" y="442.5" font-family="Tahoma" font-size="12" transform="rotate(90 1770,442.5)" text-rendering="optimizeSpeed" fill="#000000">thinBackup (1472)</text>
  <rect fill="blue" height="15.0" stroke="black" width="12" x="1785" y="422.5"/>
  <text x="1785" y="442.5" font-family="Tahoma" font-size="12" transform="rotate(90 1785,442.5)" text-rendering="optimizeSpeed" fill="#000000">clover (1500)</text>
  <rect fill="blue" height="15.2" stroke="black" width="12" x="1800" y="422.4"/>
  <text x="1800" y="442.5" font-family="Tahoma" font-size="12" transform="rotate(90 1800,442.5)" text-rendering="optimizeSpeed" fill="#000000">statusmonitor (1516)</text>
  <rect fill="blue" height="15.3" stroke="black" width="12" x="1815" y="422.3"/>
  <text x="1815" y="442.5" font-family="Tahoma" font-size="12" transform="rotate(90 1815,442.5)" text-rendering="optimizeSpeed" fill="#000000">cloverphp (1527)</text>
  <rect fill="blue" height="15.4" stroke="black" width="12" x="1830" y="422.2"/>
  <text x="1830" y="442.5" font-family="Tahoma" font-size="12" transform="rotate(90 1830,442.5)" text-rendering="optimizeSpeed" fill="#000000">artifactdeployer (1537)</text>
  <rect fill="blue" height="15.4" stroke="black" width="12" x="1845" y="422.1"/>
  <text x="1845" y="442.5" font-family="Tahoma" font-size="12" transform="rotate(90 1845,442.5)" text-rendering="optimizeSpeed" fill="#000000">depgraph-view (1545)</text>
  <rect fill="blue" height="16.1" stroke="black" width="12" x="1860" y="421.5"/>
  <text x="1860" y="442.5" font-family="Tahoma" font-size="12" transform="rotate(90 1860,442.5)" text-rendering="optimizeSpeed" fill="#000000">envinject (1609)</text>
  <rect fill="blue" height="16.4" stroke="black" width="12" x="1875" y="421.1"/>
  <text x="1875" y="442.5" font-family="Tahoma" font-size="12" transform="rotate(90 1875,442.5)" text-rendering="optimizeSpeed" fill="#000000">rake (1642)</text>
  <rect fill="blue" height="16.5" stroke="black" width="12" x="1890" y="421.0"/>
  <text x="1890" y="442.5" font-family="Tahoma" font-size="12" transform="rotate(90 1890,442.5)" text-rendering="optimizeSpeed" fill="#000000">svn-release-mgr (1651)</text>
  <rect fill="blue" height="16.7" stroke="black" width="12" x="1905" y="420.9"/>
  <text x="1905" y="442.5" font-family="Tahoma" font-size="12" transform="rotate(90 1905,442.5)" text-rendering="optimizeSpeed" fill="#000000">copy-to-slave (1668)</text>
  <rect fill="blue" height="17.0" stroke="black" width="12" x="1920" y="420.6"/>
  <text x="1920" y="442.5" font-family="Tahoma" font-size="12" transform="rotate(90 1920,442.5)" text-rendering="optimizeSpeed" fill="#000000">artifactory (1696)</text>
  <rect fill="blue" height="17.1" stroke="black" width="12" x="1935" y="420.5"/>
  <text x="1935" y="442.5" font-family="Tahoma" font-size="12" transform="rotate(90 1935,442.5)" text-rendering="optimizeSpeed" fill="#000000">release (1709)</text>
  <rect fill="blue" height="17.2" stroke="black" width="12" x="1950" y="420.3"/>
  <text x="1950" y="442.5" font-family="Tahoma" font-size="12" transform="rotate(90 1950,442.5)" text-rendering="optimizeSpeed" fill="#000000">python (1724)</text>
  <rect fill="blue" height="17.2" stroke="black" width="12" x="1965" y="420.3"/>
  <text x="1965" y="442.5" font-family="Tahoma" font-size="12" transform="rotate(90 1965,442.5)" text-rendering="optimizeSpeed" fill="#000000">view-job-filters (1724)</text>
  <rect fill="blue" height="17.6" stroke="black" width="12" x="1980" y="420.0"/>
  <text x="1980" y="442.5" font-family="Tahoma" font-size="12" transform="rotate(90 1980,442.5)" text-rendering="optimizeSpeed" fill="#000000">downstream-buildview (1755)</text>
  <rect fill="blue" height="17.6" stroke="black" width="12" x="1995" y="419.9"/>
  <text x="1995" y="442.5" font-family="Tahoma" font-size="12" transform="rotate(90 1995,442.5)" text-rendering="optimizeSpeed" fill="#000000">timestamper (1764)</text>
  <rect fill="blue" height="18.1" stroke="black" width="12" x="2010" y="419.5"/>
  <text x="2010" y="442.5" font-family="Tahoma" font-size="12" transform="rotate(90 2010,442.5)" text-rendering="optimizeSpeed" fill="#000000">sidebar-link (1805)</text>
  <rect fill="blue" height="18.5" stroke="black" width="12" x="2025" y="419.1"/>
  <text x="2025" y="442.5" font-family="Tahoma" font-size="12" transform="rotate(90 2025,442.5)" text-rendering="optimizeSpeed" fill="#000000">m2-extra-steps (1847)</text>
  <rect fill="blue" height="19.1" stroke="black" width="12" x="2040" y="418.4"/>
  <text x="2040" y="442.5" font-family="Tahoma" font-size="12" transform="rotate(90 2040,442.5)" text-rendering="optimizeSpeed" fill="#000000">jabber (1911)</text>
  <rect fill="blue" height="19.3" stroke="black" width="12" x="2055" y="418.2"/>
  <text x="2055" y="442.5" font-family="Tahoma" font-size="12" transform="rotate(90 2055,442.5)" text-rendering="optimizeSpeed" fill="#000000">perforce (1932)</text>
  <rect fill="blue" height="19.4" stroke="black" width="12" x="2070" y="418.1"/>
  <text x="2070" y="442.5" font-family="Tahoma" font-size="12" transform="rotate(90 2070,442.5)" text-rendering="optimizeSpeed" fill="#000000">build-pipeline-plugin (1944)</text>
  <rect fill="blue" height="19.5" stroke="black" width="12" x="2085" y="418.0"/>
  <text x="2085" y="442.5" font-family="Tahoma" font-size="12" transform="rotate(90 2085,442.5)" text-rendering="optimizeSpeed" fill="#000000">audit-trail (1954)</text>
  <rect fill="blue" height="20.0" stroke="black" width="12" x="2100" y="417.5"/>
  <text x="2100" y="442.5" font-family="Tahoma" font-size="12" transform="rotate(90 2100,442.5)" text-rendering="optimizeSpeed" fill="#000000">ci-game (2000)</text>
  <rect fill="blue" height="20.1" stroke="black" width="12" x="2115" y="417.4"/>
  <text x="2115" y="442.5" font-family="Tahoma" font-size="12" transform="rotate(90 2115,442.5)" text-rendering="optimizeSpeed" fill="#000000">join (2015)</text>
  <rect fill="blue" height="20.4" stroke="black" width="12" x="2130" y="417.2"/>
  <text x="2130" y="442.5" font-family="Tahoma" font-size="12" transform="rotate(90 2130,442.5)" text-rendering="optimizeSpeed" fill="#000000">jobConfigHistory (2038)</text>
  <rect fill="blue" height="20.5" stroke="black" width="12" x="2145" y="417.1"/>
  <text x="2145" y="442.5" font-family="Tahoma" font-size="12" transform="rotate(90 2145,442.5)" text-rendering="optimizeSpeed" fill="#000000">radiatorviewplugin (2047)</text>
  <rect fill="blue" height="20.5" stroke="black" width="12" x="2160" y="417.0"/>
  <text x="2160" y="442.5" font-family="Tahoma" font-size="12" transform="rotate(90 2160,442.5)" text-rendering="optimizeSpeed" fill="#000000">nunit (2053)</text>
  <rect fill="blue" height="21.4" stroke="black" width="12" x="2175" y="416.1"/>
  <text x="2175" y="442.5" font-family="Tahoma" font-size="12" transform="rotate(90 2175,442.5)" text-rendering="optimizeSpeed" fill="#000000">locks-and-latches (2141)</text>
  <rect fill="blue" height="21.7" stroke="black" width="12" x="2190" y="415.8"/>
  <text x="2190" y="442.5" font-family="Tahoma" font-size="12" transform="rotate(90 2190,442.5)" text-rendering="optimizeSpeed" fill="#000000">performance (2173)</text>
  <rect fill="blue" height="21.9" stroke="black" width="12" x="2205" y="415.7"/>
  <text x="2205" y="442.5" font-family="Tahoma" font-size="12" transform="rotate(90 2205,442.5)" text-rendering="optimizeSpeed" fill="#000000">jdepend (2185)</text>
  <rect fill="blue" height="22.3" stroke="black" width="12" x="2220" y="415.2"/>
  <text x="2220" y="442.5" font-family="Tahoma" font-size="12" transform="rotate(90 2220,442.5)" text-rendering="optimizeSpeed" fill="#000000">batch-task (2232)</text>
  <rect fill="blue" height="24.1" stroke="black" width="12" x="2235" y="413.4"/>
  <text x="2235" y="442.5" font-family="Tahoma" font-size="12" transform="rotate(90 2235,442.5)" text-rendering="optimizeSpeed" fill="#000000">ssh (2413)</text>
  <rect fill="blue" height="24.4" stroke="black" width="12" x="2250" y="413.1"/>
  <text x="2250" y="442.5" font-family="Tahoma" font-size="12" transform="rotate(90 2250,442.5)" text-rendering="optimizeSpeed" fill="#000000">promoted-builds (2440)</text>
  <rect fill="blue" height="24.6" stroke="black" width="12" x="2265" y="413.0"/>
  <text x="2265" y="442.5" font-family="Tahoma" font-size="12" transform="rotate(90 2265,442.5)" text-rendering="optimizeSpeed" fill="#000000">log-parser (2455)</text>
  <rect fill="blue" height="24.7" stroke="black" width="12" x="2280" y="412.8"/>
  <text x="2280" y="442.5" font-family="Tahoma" font-size="12" transform="rotate(90 2280,442.5)" text-rendering="optimizeSpeed" fill="#000000">github-api (2471)</text>
  <rect fill="blue" height="25.1" stroke="black" width="12" x="2295" y="412.5"/>
  <text x="2295" y="442.5" font-family="Tahoma" font-size="12" transform="rotate(90 2295,442.5)" text-rendering="optimizeSpeed" fill="#000000">emma (2506)</text>
  <rect fill="blue" height="25.6" stroke="black" width="12" x="2310" y="411.9"/>
  <text x="2310" y="442.5" font-family="Tahoma" font-size="12" transform="rotate(90 2310,442.5)" text-rendering="optimizeSpeed" fill="#000000">svn-tag (2561)</text>
  <rect fill="blue" height="26.6" stroke="black" width="12" x="2325" y="410.9"/>
  <text x="2325" y="442.5" font-family="Tahoma" font-size="12" transform="rotate(90 2325,442.5)" text-rendering="optimizeSpeed" fill="#000000">scp (2662)</text>
  <rect fill="blue" height="27.0" stroke="black" width="12" x="2340" y="410.5"/>
  <text x="2340" y="442.5" font-family="Tahoma" font-size="12" transform="rotate(90 2340,442.5)" text-rendering="optimizeSpeed" fill="#000000">publish-over-ssh (2700)</text>
  <rect fill="blue" height="27.4" stroke="black" width="12" x="2355" y="410.2"/>
  <text x="2355" y="442.5" font-family="Tahoma" font-size="12" transform="rotate(90 2355,442.5)" text-rendering="optimizeSpeed" fill="#000000">mercurial (2739)</text>
  <rect fill="blue" height="27.8" stroke="black" width="12" x="2370" y="409.8"/>
  <text x="2370" y="442.5" font-family="Tahoma" font-size="12" transform="rotate(90 2370,442.5)" text-rendering="optimizeSpeed" fill="#000000">m2release (2776)</text>
  <rect fill="blue" height="28.9" stroke="black" width="12" x="2385" y="408.7"/>
  <text x="2385" y="442.5" font-family="Tahoma" font-size="12" transform="rotate(90 2385,442.5)" text-rendering="optimizeSpeed" fill="#000000">token-macro (2885)</text>
  <rect fill="blue" height="30.4" stroke="black" width="12" x="2400" y="407.1"/>
  <text x="2400" y="442.5" font-family="Tahoma" font-size="12" transform="rotate(90 2400,442.5)" text-rendering="optimizeSpeed" fill="#000000">plot (3043)</text>
  <rect fill="blue" height="31.3" stroke="black" width="12" x="2415" y="406.2"/>
  <text x="2415" y="442.5" font-family="Tahoma" font-size="12" transform="rotate(90 2415,442.5)" text-rendering="optimizeSpeed" fill="#000000">backup (3131)</text>
  <rect fill="blue" height="31.4" stroke="black" width="12" x="2430" y="406.2"/>
  <text x="2430" y="442.5" font-family="Tahoma" font-size="12" transform="rotate(90 2430,442.5)" text-rendering="optimizeSpeed" fill="#000000">tasks (3135)</text>
  <rect fill="blue" height="32.1" stroke="black" width="12" x="2445" y="405.4"/>
  <text x="2445" y="442.5" font-family="Tahoma" font-size="12" transform="rotate(90 2445,442.5)" text-rendering="optimizeSpeed" fill="#000000">postbuild-task (3213)</text>
  <rect fill="blue" height="33.2" stroke="black" width="12" x="2460" y="404.3"/>
  <text x="2460" y="442.5" font-family="Tahoma" font-size="12" transform="rotate(90 2460,442.5)" text-rendering="optimizeSpeed" fill="#000000">instant-messaging (3321)</text>
  <rect fill="blue" height="34.0" stroke="black" width="12" x="2475" y="403.5"/>
  <text x="2475" y="442.5" font-family="Tahoma" font-size="12" transform="rotate(90 2475,442.5)" text-rendering="optimizeSpeed" fill="#000000">jira (3405)</text>
  <rect fill="blue" height="34.9" stroke="black" width="12" x="2490" y="402.7"/>
  <text x="2490" y="442.5" font-family="Tahoma" font-size="12" transform="rotate(90 2490,442.5)" text-rendering="optimizeSpeed" fill="#000000">deploy (3489)</text>
  <rect fill="blue" height="35.9" stroke="black" width="12" x="2505" y="401.7"/>
  <text x="2505" y="442.5" font-family="Tahoma" font-size="12" transform="rotate(90 2505,442.5)" text-rendering="optimizeSpeed" fill="#000000">github (3588)</text>
  <rect fill="blue" height="36.2" stroke="black" width="12" x="2520" y="401.4"/>
  <text x="2520" y="442.5" font-family="Tahoma" font-size="12" transform="rotate(90 2520,442.5)" text-rendering="optimizeSpeed" fill="#000000">build-timeout (3616)</text>
  <rect fill="blue" height="36.7" stroke="black" width="12" x="2535" y="400.9"/>
  <text x="2535" y="442.5" font-family="Tahoma" font-size="12" transform="rotate(90 2535,442.5)" text-rendering="optimizeSpeed" fill="#000000">msbuild (3666)</text>
  <rect fill="blue" height="36.9" stroke="black" width="12" x="2550" y="400.7"/>
  <text x="2550" y="442.5" font-family="Tahoma" font-size="12" transform="rotate(90 2550,442.5)" text-rendering="optimizeSpeed" fill="#000000">copyartifact (3689)</text>
  <rect fill="blue" height="38.8" stroke="black" width="12" x="2565" y="398.7"/>
  <text x="2565" y="442.5" font-family="Tahoma" font-size="12" transform="rotate(90 2565,442.5)" text-rendering="optimizeSpeed" fill="#000000">dry (3881)</text>
  <rect fill="blue" height="39.4" stroke="black" width="12" x="2580" y="398.1"/>
  <text x="2580" y="442.5" font-family="Tahoma" font-size="12" transform="rotate(90 2580,442.5)" text-rendering="optimizeSpeed" fill="#000000">active-directory (3941)</text>
  <rect fill="blue" height="41.1" stroke="black" width="12" x="2595" y="396.5"/>
  <text x="2595" y="442.5" font-family="Tahoma" font-size="12" transform="rotate(90 2595,442.5)" text-rendering="optimizeSpeed" fill="#000000">chucknorris (4109)</text>
  <rect fill="blue" height="41.3" stroke="black" width="12" x="2610" y="396.3"/>
  <text x="2610" y="442.5" font-family="Tahoma" font-size="12" transform="rotate(90 2610,442.5)" text-rendering="optimizeSpeed" fill="#000000">analysis-collector (4128)</text>
  <rect fill="blue" height="44.2" stroke="black" width="12" x="2625" y="393.4"/>
  <text x="2625" y="442.5" font-family="Tahoma" font-size="12" transform="rotate(90 2625,442.5)" text-rendering="optimizeSpeed" fill="#000000">xunit (4419)</text>
  <rect fill="blue" height="46.9" stroke="black" width="12" x="2640" y="390.6"/>
  <text x="2640" y="442.5" font-family="Tahoma" font-size="12" transform="rotate(90 2640,442.5)" text-rendering="optimizeSpeed" fill="#000000">disk-usage (4691)</text>
  <rect fill="blue" height="48.4" stroke="black" width="12" x="2655" y="389.1"/>
  <text x="2655" y="442.5" font-family="Tahoma" font-size="12" transform="rotate(90 2655,442.5)" text-rendering="optimizeSpeed" fill="#000000">warnings (4844)</text>
  <rect fill="blue" height="48.6" stroke="black" width="12" x="2670" y="389.0"/>
  <text x="2670" y="442.5" font-family="Tahoma" font-size="12" transform="rotate(90 2670,442.5)" text-rendering="optimizeSpeed" fill="#000000">parameterized-trigger (4858)</text>
  <rect fill="blue" height="50.0" stroke="black" width="12" x="2685" y="387.6"/>
  <text x="2685" y="442.5" font-family="Tahoma" font-size="12" transform="rotate(90 2685,442.5)" text-rendering="optimizeSpeed" fill="#000000">dashboard-view (4998)</text>
  <rect fill="blue" height="52.8" stroke="black" width="12" x="2700" y="384.8"/>
  <text x="2700" y="442.5" font-family="Tahoma" font-size="12" transform="rotate(90 2700,442.5)" text-rendering="optimizeSpeed" fill="#000000">violations (5280)</text>
  <rect fill="blue" height="53.2" stroke="black" width="12" x="2715" y="384.3"/>
  <text x="2715" y="442.5" font-family="Tahoma" font-size="12" transform="rotate(90 2715,442.5)" text-rendering="optimizeSpeed" fill="#000000">htmlpublisher (5324)</text>
  <rect fill="blue" height="57.0" stroke="black" width="12" x="2730" y="380.6"/>
  <text x="2730" y="442.5" font-family="Tahoma" font-size="12" transform="rotate(90 2730,442.5)" text-rendering="optimizeSpeed" fill="#000000">sonar (5697)</text>
  <rect fill="blue" height="57.2" stroke="black" width="12" x="2745" y="380.4"/>
  <text x="2745" y="442.5" font-family="Tahoma" font-size="12" transform="rotate(90 2745,442.5)" text-rendering="optimizeSpeed" fill="#000000">findbugs (5718)</text>
  <rect fill="blue" height="58.5" stroke="black" width="12" x="2760" y="379.0"/>
  <text x="2760" y="442.5" font-family="Tahoma" font-size="12" transform="rotate(90 2760,442.5)" text-rendering="optimizeSpeed" fill="#000000">pmd (5855)</text>
  <rect fill="blue" height="63.3" stroke="black" width="12" x="2775" y="374.2"/>
  <text x="2775" y="442.5" font-family="Tahoma" font-size="12" transform="rotate(90 2775,442.5)" text-rendering="optimizeSpeed" fill="#000000">cobertura (6334)</text>
  <rect fill="blue" height="66.8" stroke="black" width="12" x="2790" y="370.7"/>
  <text x="2790" y="442.5" font-family="Tahoma" font-size="12" transform="rotate(90 2790,442.5)" text-rendering="optimizeSpeed" fill="#000000">checkstyle (6681)</text>
  <rect fill="blue" height="85.2" stroke="black" width="12" x="2805" y="352.4"/>
  <text x="2805" y="442.5" font-family="Tahoma" font-size="12" transform="rotate(90 2805,442.5)" text-rendering="optimizeSpeed" fill="#000000">greenballs (8518)</text>
  <rect fill="blue" height="91.1" stroke="black" width="12" x="2820" y="346.5"/>
  <text x="2820" y="442.5" font-family="Tahoma" font-size="12" transform="rotate(90 2820,442.5)" text-rendering="optimizeSpeed" fill="#000000">email-ext (9108)</text>
  <rect fill="blue" height="122.3" stroke="black" width="12" x="2835" y="315.2"/>
  <text x="2835" y="442.5" font-family="Tahoma" font-size="12" transform="rotate(90 2835,442.5)" text-rendering="optimizeSpeed" fill="#000000">git (12230)</text>
  <rect fill="blue" height="126.8" stroke="black" width="12" x="2850" y="310.7"/>
  <text x="2850" y="442.5" font-family="Tahoma" font-size="12" transform="rotate(90 2850,442.5)" text-rendering="optimizeSpeed" fill="#000000">analysis-core (12682)</text>
  <rect fill="blue" height="284.9" stroke="black" width="12" x="2865" y="152.7"/>
  <text x="2865" y="442.5" font-family="Tahoma" font-size="12" transform="rotate(90 2865,442.5)" text-rendering="optimizeSpeed" fill="#000000">ant (28487)</text>
  <rect fill="blue" height="285.4" stroke="black" width="12" x="2880" y="152.2"/>
  <text x="2880" y="442.5" font-family="Tahoma" font-size="12" transform="rotate(90 2880,442.5)" text-rendering="optimizeSpeed" fill="#000000">javadoc (28537)</text>
  <rect fill="blue" height="286.5" stroke="black" width="12" x="2895" y="151.0"/>
  <text x="2895" y="442.5" font-family="Tahoma" font-size="12" transform="rotate(90 2895,442.5)" text-rendering="optimizeSpeed" fill="#000000">translation (28651)</text>
  <rect fill="blue" height="367.1" stroke="black" width="12" x="2910" y="70.4"/>
  <text x="2910" y="442.5" font-family="Tahoma" font-size="12" transform="rotate(90 2910,442.5)" text-rendering="optimizeSpeed" fill="#000000">cvs (36714)</text>
  <rect fill="blue" height="380.6" stroke="black" width="12" x="2925" y="56.9"/>
  <text x="2925" y="442.5" font-family="Tahoma" font-size="12" transform="rotate(90 2925,442.5)" text-rendering="optimizeSpeed" fill="#000000">maven-plugin (38063)</text>
  <rect fill="blue" height="382.4" stroke="black" width="12" x="2940" y="55.2"/>
  <text x="2940" y="442.5" font-family="Tahoma" font-size="12" transform="rotate(90 2940,442.5)" text-rendering="optimizeSpeed" fill="#000000">subversion (38236)</text>
  <rect fill="blue" height="387.6" stroke="black" width="12" x="2955" y="50.0"/>
  <text x="2955" y="442.5" font-family="Tahoma" font-size="12" transform="rotate(90 2955,442.5)" text-rendering="optimizeSpeed" fill="#000000">ssh-slaves (38755)</text>
  <text x="10" y="40" font-family="Tahoma" font-size="20" text-rendering="optimizeSpeed" fill="#000000">Plugin installations (installations &gt; 500)</text>
</svg>
