<svg xmlns="http://www.w3.org/2000/svg" version="1.1" preserveAspectRatio="xMidYMid meet" viewBox="0 0 1670 695.5">
  <rect fill="blue" height="5.4" stroke="black" width="12" x="15" y="390.1"/>
  <text x="15" y="400.5" font-family="Tahoma" font-size="12" transform="rotate(90 15,400.5)" text-rendering="optimizeSpeed" fill="#000000">1.368 (54)</text>
  <rect fill="blue" height="7.5" stroke="black" width="12" x="30" y="388.0"/>
  <text x="30" y="400.5" font-family="Tahoma" font-size="12" transform="rotate(90 30,400.5)" text-rendering="optimizeSpeed" fill="#000000">1.369 (75)</text>
  <rect fill="blue" height="2.2" stroke="black" width="12" x="45" y="393.3"/>
  <text x="45" y="400.5" font-family="Tahoma" font-size="12" transform="rotate(90 45,400.5)" text-rendering="optimizeSpeed" fill="#000000">1.370 (22)</text>
  <rect fill="blue" height="5.0" stroke="black" width="12" x="60" y="390.5"/>
  <text x="60" y="400.5" font-family="Tahoma" font-size="12" transform="rotate(90 60,400.5)" text-rendering="optimizeSpeed" fill="#000000">1.371 (50)</text>
  <rect fill="blue" height="8.0" stroke="black" width="12" x="75" y="387.5"/>
  <text x="75" y="400.5" font-family="Tahoma" font-size="12" transform="rotate(90 75,400.5)" text-rendering="optimizeSpeed" fill="#000000">1.372 (80)</text>
  <rect fill="blue" height="6.1" stroke="black" width="12" x="90" y="389.4"/>
  <text x="90" y="400.5" font-family="Tahoma" font-size="12" transform="rotate(90 90,400.5)" text-rendering="optimizeSpeed" fill="#000000">1.373 (61)</text>
  <rect fill="blue" height="12.0" stroke="black" width="12" x="105" y="383.5"/>
  <text x="105" y="400.5" font-family="Tahoma" font-size="12" transform="rotate(90 105,400.5)" text-rendering="optimizeSpeed" fill="#000000">1.374 (120)</text>
  <rect fill="blue" height="5.8" stroke="black" width="12" x="120" y="389.7"/>
  <text x="120" y="400.5" font-family="Tahoma" font-size="12" transform="rotate(90 120,400.5)" text-rendering="optimizeSpeed" fill="#000000">1.375 (58)</text>
  <rect fill="blue" height="9.3" stroke="black" width="12" x="135" y="386.2"/>
  <text x="135" y="400.5" font-family="Tahoma" font-size="12" transform="rotate(90 135,400.5)" text-rendering="optimizeSpeed" fill="#000000">1.376 (93)</text>
  <rect fill="blue" height="9.9" stroke="black" width="12" x="150" y="385.6"/>
  <text x="150" y="400.5" font-family="Tahoma" font-size="12" transform="rotate(90 150,400.5)" text-rendering="optimizeSpeed" fill="#000000">1.377 (99)</text>
  <rect fill="blue" height="7.4" stroke="black" width="12" x="165" y="388.1"/>
  <text x="165" y="400.5" font-family="Tahoma" font-size="12" transform="rotate(90 165,400.5)" text-rendering="optimizeSpeed" fill="#000000">1.378 (74)</text>
  <rect fill="blue" height="16.9" stroke="black" width="12" x="180" y="378.6"/>
  <text x="180" y="400.5" font-family="Tahoma" font-size="12" transform="rotate(90 180,400.5)" text-rendering="optimizeSpeed" fill="#000000">1.379 (169)</text>
  <rect fill="blue" height="4.4" stroke="black" width="12" x="195" y="391.1"/>
  <text x="195" y="400.5" font-family="Tahoma" font-size="12" transform="rotate(90 195,400.5)" text-rendering="optimizeSpeed" fill="#000000">1.380 (44)</text>
  <rect fill="blue" height="15.9" stroke="black" width="12" x="210" y="379.6"/>
  <text x="210" y="400.5" font-family="Tahoma" font-size="12" transform="rotate(90 210,400.5)" text-rendering="optimizeSpeed" fill="#000000">1.381 (159)</text>
  <rect fill="blue" height="3.9" stroke="black" width="12" x="225" y="391.6"/>
  <text x="225" y="400.5" font-family="Tahoma" font-size="12" transform="rotate(90 225,400.5)" text-rendering="optimizeSpeed" fill="#000000">1.382 (39)</text>
  <rect fill="blue" height="10.2" stroke="black" width="12" x="240" y="385.3"/>
  <text x="240" y="400.5" font-family="Tahoma" font-size="12" transform="rotate(90 240,400.5)" text-rendering="optimizeSpeed" fill="#000000">1.383 (102)</text>
  <rect fill="blue" height="15.2" stroke="black" width="12" x="255" y="380.3"/>
  <text x="255" y="400.5" font-family="Tahoma" font-size="12" transform="rotate(90 255,400.5)" text-rendering="optimizeSpeed" fill="#000000">1.384 (152)</text>
  <rect fill="blue" height="6.6" stroke="black" width="12" x="270" y="388.9"/>
  <text x="270" y="400.5" font-family="Tahoma" font-size="12" transform="rotate(90 270,400.5)" text-rendering="optimizeSpeed" fill="#000000">1.385 (66)</text>
  <rect fill="blue" height="44.4" stroke="black" width="12" x="285" y="351.1"/>
  <text x="285" y="400.5" font-family="Tahoma" font-size="12" transform="rotate(90 285,400.5)" text-rendering="optimizeSpeed" fill="#000000">1.386 (444)</text>
  <rect fill="blue" height="4.8" stroke="black" width="12" x="300" y="390.7"/>
  <text x="300" y="400.5" font-family="Tahoma" font-size="12" transform="rotate(90 300,400.5)" text-rendering="optimizeSpeed" fill="#000000">1.387 (48)</text>
  <rect fill="blue" height="5.4" stroke="black" width="12" x="315" y="390.1"/>
  <text x="315" y="400.5" font-family="Tahoma" font-size="12" transform="rotate(90 315,400.5)" text-rendering="optimizeSpeed" fill="#000000">1.388 (54)</text>
  <rect fill="blue" height="13.6" stroke="black" width="12" x="330" y="381.9"/>
  <text x="330" y="400.5" font-family="Tahoma" font-size="12" transform="rotate(90 330,400.5)" text-rendering="optimizeSpeed" fill="#000000">1.389 (136)</text>
  <rect fill="blue" height="0.8" stroke="black" width="12" x="345" y="394.7"/>
  <text x="345" y="400.5" font-family="Tahoma" font-size="12" transform="rotate(90 345,400.5)" text-rendering="optimizeSpeed" fill="#000000">1.390 (8)</text>
  <rect fill="blue" height="2.7" stroke="black" width="12" x="360" y="392.8"/>
  <text x="360" y="400.5" font-family="Tahoma" font-size="12" transform="rotate(90 360,400.5)" text-rendering="optimizeSpeed" fill="#000000">1.391 (27)</text>
  <rect fill="blue" height="13.7" stroke="black" width="12" x="375" y="381.8"/>
  <text x="375" y="400.5" font-family="Tahoma" font-size="12" transform="rotate(90 375,400.5)" text-rendering="optimizeSpeed" fill="#000000">1.392 (137)</text>
  <rect fill="blue" height="0.4" stroke="black" width="12" x="390" y="395.1"/>
  <text x="390" y="400.5" font-family="Tahoma" font-size="12" transform="rotate(90 390,400.5)" text-rendering="optimizeSpeed" fill="#000000">1.392.LI10 (4)</text>
  <rect fill="blue" height="29.1" stroke="black" width="12" x="405" y="366.4"/>
  <text x="405" y="400.5" font-family="Tahoma" font-size="12" transform="rotate(90 405,400.5)" text-rendering="optimizeSpeed" fill="#000000">1.393 (291)</text>
  <rect fill="blue" height="30.4" stroke="black" width="12" x="420" y="365.1"/>
  <text x="420" y="400.5" font-family="Tahoma" font-size="12" transform="rotate(90 420,400.5)" text-rendering="optimizeSpeed" fill="#000000">1.394 (304)</text>
  <rect fill="blue" height="69.8" stroke="black" width="12" x="435" y="325.7"/>
  <text x="435" y="400.5" font-family="Tahoma" font-size="12" transform="rotate(90 435,400.5)" text-rendering="optimizeSpeed" fill="#000000">1.395 (698)</text>
  <rect fill="blue" height="59.3" stroke="black" width="12" x="450" y="336.2"/>
  <text x="450" y="400.5" font-family="Tahoma" font-size="12" transform="rotate(90 450,400.5)" text-rendering="optimizeSpeed" fill="#000000">1.395.1 (593)</text>
  <rect fill="blue" height="4.9" stroke="black" width="12" x="465" y="390.6"/>
  <text x="465" y="400.5" font-family="Tahoma" font-size="12" transform="rotate(90 465,400.5)" text-rendering="optimizeSpeed" fill="#000000">1.396 (49)</text>
  <rect fill="blue" height="4.0" stroke="black" width="12" x="480" y="391.5"/>
  <text x="480" y="400.5" font-family="Tahoma" font-size="12" transform="rotate(90 480,400.5)" text-rendering="optimizeSpeed" fill="#000000">1.397 (40)</text>
  <rect fill="blue" height="4.5" stroke="black" width="12" x="495" y="391.0"/>
  <text x="495" y="400.5" font-family="Tahoma" font-size="12" transform="rotate(90 495,400.5)" text-rendering="optimizeSpeed" fill="#000000">1.398 (45)</text>
  <rect fill="blue" height="14.3" stroke="black" width="12" x="510" y="381.2"/>
  <text x="510" y="400.5" font-family="Tahoma" font-size="12" transform="rotate(90 510,400.5)" text-rendering="optimizeSpeed" fill="#000000">1.399 (143)</text>
  <rect fill="blue" height="8.0" stroke="black" width="12" x="525" y="387.5"/>
  <text x="525" y="400.5" font-family="Tahoma" font-size="12" transform="rotate(90 525,400.5)" text-rendering="optimizeSpeed" fill="#000000">1.400 (80)</text>
  <rect fill="blue" height="0.2" stroke="black" width="12" x="540" y="395.3"/>
  <text x="540" y="400.5" font-family="Tahoma" font-size="12" transform="rotate(90 540,400.5)" text-rendering="optimizeSpeed" fill="#000000">1.400.0.6 (2)</text>
  <rect fill="blue" height="0.1" stroke="black" width="12" x="555" y="395.4"/>
  <text x="555" y="400.5" font-family="Tahoma" font-size="12" transform="rotate(90 555,400.5)" text-rendering="optimizeSpeed" fill="#000000">1.400.0.9 (1)</text>
  <rect fill="blue" height="9.3" stroke="black" width="12" x="570" y="386.2"/>
  <text x="570" y="400.5" font-family="Tahoma" font-size="12" transform="rotate(90 570,400.5)" text-rendering="optimizeSpeed" fill="#000000">1.401 (93)</text>
  <rect fill="blue" height="8.5" stroke="black" width="12" x="585" y="387.0"/>
  <text x="585" y="400.5" font-family="Tahoma" font-size="12" transform="rotate(90 585,400.5)" text-rendering="optimizeSpeed" fill="#000000">1.403 (85)</text>
  <rect fill="blue" height="10.4" stroke="black" width="12" x="600" y="385.1"/>
  <text x="600" y="400.5" font-family="Tahoma" font-size="12" transform="rotate(90 600,400.5)" text-rendering="optimizeSpeed" fill="#000000">1.404 (104)</text>
  <rect fill="blue" height="8.2" stroke="black" width="12" x="615" y="387.3"/>
  <text x="615" y="400.5" font-family="Tahoma" font-size="12" transform="rotate(90 615,400.5)" text-rendering="optimizeSpeed" fill="#000000">1.405 (82)</text>
  <rect fill="blue" height="7.4" stroke="black" width="12" x="630" y="388.1"/>
  <text x="630" y="400.5" font-family="Tahoma" font-size="12" transform="rotate(90 630,400.5)" text-rendering="optimizeSpeed" fill="#000000">1.406 (74)</text>
  <rect fill="blue" height="2.0" stroke="black" width="12" x="645" y="393.5"/>
  <text x="645" y="400.5" font-family="Tahoma" font-size="12" transform="rotate(90 645,400.5)" text-rendering="optimizeSpeed" fill="#000000">1.407 (20)</text>
  <rect fill="blue" height="9.8" stroke="black" width="12" x="660" y="385.7"/>
  <text x="660" y="400.5" font-family="Tahoma" font-size="12" transform="rotate(90 660,400.5)" text-rendering="optimizeSpeed" fill="#000000">1.408 (98)</text>
  <rect fill="blue" height="15.5" stroke="black" width="12" x="675" y="380.0"/>
  <text x="675" y="400.5" font-family="Tahoma" font-size="12" transform="rotate(90 675,400.5)" text-rendering="optimizeSpeed" fill="#000000">1.409 (155)</text>
  <rect fill="blue" height="41.7" stroke="black" width="12" x="690" y="353.8"/>
  <text x="690" y="400.5" font-family="Tahoma" font-size="12" transform="rotate(90 690,400.5)" text-rendering="optimizeSpeed" fill="#000000">1.409.1 (417)</text>
  <rect fill="blue" height="12.2" stroke="black" width="12" x="705" y="383.3"/>
  <text x="705" y="400.5" font-family="Tahoma" font-size="12" transform="rotate(90 705,400.5)" text-rendering="optimizeSpeed" fill="#000000">1.409.2 (122)</text>
  <rect fill="blue" height="6.7" stroke="black" width="12" x="720" y="388.8"/>
  <text x="720" y="400.5" font-family="Tahoma" font-size="12" transform="rotate(90 720,400.5)" text-rendering="optimizeSpeed" fill="#000000">1.409.3 (67)</text>
  <rect fill="blue" height="20.5" stroke="black" width="12" x="735" y="375.0"/>
  <text x="735" y="400.5" font-family="Tahoma" font-size="12" transform="rotate(90 735,400.5)" text-rendering="optimizeSpeed" fill="#000000">1.410 (205)</text>
  <rect fill="blue" height="13.6" stroke="black" width="12" x="750" y="381.9"/>
  <text x="750" y="400.5" font-family="Tahoma" font-size="12" transform="rotate(90 750,400.5)" text-rendering="optimizeSpeed" fill="#000000">1.411 (136)</text>
  <rect fill="blue" height="10.5" stroke="black" width="12" x="765" y="385.0"/>
  <text x="765" y="400.5" font-family="Tahoma" font-size="12" transform="rotate(90 765,400.5)" text-rendering="optimizeSpeed" fill="#000000">1.412 (105)</text>
  <rect fill="blue" height="28.9" stroke="black" width="12" x="780" y="366.6"/>
  <text x="780" y="400.5" font-family="Tahoma" font-size="12" transform="rotate(90 780,400.5)" text-rendering="optimizeSpeed" fill="#000000">1.413 (289)</text>
  <rect fill="blue" height="18.3" stroke="black" width="12" x="795" y="377.2"/>
  <text x="795" y="400.5" font-family="Tahoma" font-size="12" transform="rotate(90 795,400.5)" text-rendering="optimizeSpeed" fill="#000000">1.414 (183)</text>
  <rect fill="blue" height="11.8" stroke="black" width="12" x="810" y="383.7"/>
  <text x="810" y="400.5" font-family="Tahoma" font-size="12" transform="rotate(90 810,400.5)" text-rendering="optimizeSpeed" fill="#000000">1.415 (118)</text>
  <rect fill="blue" height="3.1" stroke="black" width="12" x="825" y="392.4"/>
  <text x="825" y="400.5" font-family="Tahoma" font-size="12" transform="rotate(90 825,400.5)" text-rendering="optimizeSpeed" fill="#000000">1.416 (31)</text>
  <rect fill="blue" height="15.8" stroke="black" width="12" x="840" y="379.7"/>
  <text x="840" y="400.5" font-family="Tahoma" font-size="12" transform="rotate(90 840,400.5)" text-rendering="optimizeSpeed" fill="#000000">1.417 (158)</text>
  <rect fill="blue" height="17.3" stroke="black" width="12" x="855" y="378.2"/>
  <text x="855" y="400.5" font-family="Tahoma" font-size="12" transform="rotate(90 855,400.5)" text-rendering="optimizeSpeed" fill="#000000">1.418 (173)</text>
  <rect fill="blue" height="15.9" stroke="black" width="12" x="870" y="379.6"/>
  <text x="870" y="400.5" font-family="Tahoma" font-size="12" transform="rotate(90 870,400.5)" text-rendering="optimizeSpeed" fill="#000000">1.419 (159)</text>
  <rect fill="blue" height="17.7" stroke="black" width="12" x="885" y="377.8"/>
  <text x="885" y="400.5" font-family="Tahoma" font-size="12" transform="rotate(90 885,400.5)" text-rendering="optimizeSpeed" fill="#000000">1.420 (177)</text>
  <rect fill="blue" height="19.0" stroke="black" width="12" x="900" y="376.5"/>
  <text x="900" y="400.5" font-family="Tahoma" font-size="12" transform="rotate(90 900,400.5)" text-rendering="optimizeSpeed" fill="#000000">1.421 (190)</text>
  <rect fill="blue" height="18.1" stroke="black" width="12" x="915" y="377.4"/>
  <text x="915" y="400.5" font-family="Tahoma" font-size="12" transform="rotate(90 915,400.5)" text-rendering="optimizeSpeed" fill="#000000">1.423 (181)</text>
  <rect fill="blue" height="25.5" stroke="black" width="12" x="930" y="370.0"/>
  <text x="930" y="400.5" font-family="Tahoma" font-size="12" transform="rotate(90 930,400.5)" text-rendering="optimizeSpeed" fill="#000000">1.424 (255)</text>
  <rect fill="blue" height="0.3" stroke="black" width="12" x="945" y="395.2"/>
  <text x="945" y="400.5" font-family="Tahoma" font-size="12" transform="rotate(90 945,400.5)" text-rendering="optimizeSpeed" fill="#000000">1.424.0.1 (3)</text>
  <rect fill="blue" height="20.0" stroke="black" width="12" x="960" y="375.5"/>
  <text x="960" y="400.5" font-family="Tahoma" font-size="12" transform="rotate(90 960,400.5)" text-rendering="optimizeSpeed" fill="#000000">1.424.1 (200)</text>
  <rect fill="blue" height="36.3" stroke="black" width="12" x="975" y="359.2"/>
  <text x="975" y="400.5" font-family="Tahoma" font-size="12" transform="rotate(90 975,400.5)" text-rendering="optimizeSpeed" fill="#000000">1.424.2 (363)</text>
  <rect fill="blue" height="12.6" stroke="black" width="12" x="990" y="382.9"/>
  <text x="990" y="400.5" font-family="Tahoma" font-size="12" transform="rotate(90 990,400.5)" text-rendering="optimizeSpeed" fill="#000000">1.424.3 (126)</text>
  <rect fill="blue" height="0.3" stroke="black" width="12" x="1005" y="395.2"/>
  <text x="1005" y="400.5" font-family="Tahoma" font-size="12" transform="rotate(90 1005,400.5)" text-rendering="optimizeSpeed" fill="#000000">1.424.4 (3)</text>
  <rect fill="blue" height="1.7" stroke="black" width="12" x="1020" y="393.8"/>
  <text x="1020" y="400.5" font-family="Tahoma" font-size="12" transform="rotate(90 1020,400.5)" text-rendering="optimizeSpeed" fill="#000000">1.424.5 (17)</text>
  <rect fill="blue" height="0.1" stroke="black" width="12" x="1035" y="395.4"/>
  <text x="1035" y="400.5" font-family="Tahoma" font-size="12" transform="rotate(90 1035,400.5)" text-rendering="optimizeSpeed" fill="#000000">1.424.5.1  (1)</text>
  <rect fill="blue" height="45.3" stroke="black" width="12" x="1050" y="350.2"/>
  <text x="1050" y="400.5" font-family="Tahoma" font-size="12" transform="rotate(90 1050,400.5)" text-rendering="optimizeSpeed" fill="#000000">1.424.6 (453)</text>
  <rect fill="blue" height="0.4" stroke="black" width="12" x="1065" y="395.1"/>
  <text x="1065" y="400.5" font-family="Tahoma" font-size="12" transform="rotate(90 1065,400.5)" text-rendering="optimizeSpeed" fill="#000000">1.424.6.1  (4)</text>
  <rect fill="blue" height="0.1" stroke="black" width="12" x="1080" y="395.4"/>
  <text x="1080" y="400.5" font-family="Tahoma" font-size="12" transform="rotate(90 1080,400.5)" text-rendering="optimizeSpeed" fill="#000000">1.424.6.thales (1)</text>
  <rect fill="blue" height="28.8" stroke="black" width="12" x="1095" y="366.7"/>
  <text x="1095" y="400.5" font-family="Tahoma" font-size="12" transform="rotate(90 1095,400.5)" text-rendering="optimizeSpeed" fill="#000000">1.425 (288)</text>
  <rect fill="blue" height="10.7" stroke="black" width="12" x="1110" y="384.8"/>
  <text x="1110" y="400.5" font-family="Tahoma" font-size="12" transform="rotate(90 1110,400.5)" text-rendering="optimizeSpeed" fill="#000000">1.426 (107)</text>
  <rect fill="blue" height="29.0" stroke="black" width="12" x="1125" y="366.5"/>
  <text x="1125" y="400.5" font-family="Tahoma" font-size="12" transform="rotate(90 1125,400.5)" text-rendering="optimizeSpeed" fill="#000000">1.427 (290)</text>
  <rect fill="blue" height="31.2" stroke="black" width="12" x="1140" y="364.3"/>
  <text x="1140" y="400.5" font-family="Tahoma" font-size="12" transform="rotate(90 1140,400.5)" text-rendering="optimizeSpeed" fill="#000000">1.428 (312)</text>
  <rect fill="blue" height="20.2" stroke="black" width="12" x="1155" y="375.3"/>
  <text x="1155" y="400.5" font-family="Tahoma" font-size="12" transform="rotate(90 1155,400.5)" text-rendering="optimizeSpeed" fill="#000000">1.429 (202)</text>
  <rect fill="blue" height="36.7" stroke="black" width="12" x="1170" y="358.8"/>
  <text x="1170" y="400.5" font-family="Tahoma" font-size="12" transform="rotate(90 1170,400.5)" text-rendering="optimizeSpeed" fill="#000000">1.430 (367)</text>
  <rect fill="blue" height="28.5" stroke="black" width="12" x="1185" y="367.0"/>
  <text x="1185" y="400.5" font-family="Tahoma" font-size="12" transform="rotate(90 1185,400.5)" text-rendering="optimizeSpeed" fill="#000000">1.431 (285)</text>
  <rect fill="blue" height="40.4" stroke="black" width="12" x="1200" y="355.1"/>
  <text x="1200" y="400.5" font-family="Tahoma" font-size="12" transform="rotate(90 1200,400.5)" text-rendering="optimizeSpeed" fill="#000000">1.432 (404)</text>
  <rect fill="blue" height="31.3" stroke="black" width="12" x="1215" y="364.2"/>
  <text x="1215" y="400.5" font-family="Tahoma" font-size="12" transform="rotate(90 1215,400.5)" text-rendering="optimizeSpeed" fill="#000000">1.433 (313)</text>
  <rect fill="blue" height="45.5" stroke="black" width="12" x="1230" y="350.0"/>
  <text x="1230" y="400.5" font-family="Tahoma" font-size="12" transform="rotate(90 1230,400.5)" text-rendering="optimizeSpeed" fill="#000000">1.434 (455)</text>
  <rect fill="blue" height="21.6" stroke="black" width="12" x="1245" y="373.9"/>
  <text x="1245" y="400.5" font-family="Tahoma" font-size="12" transform="rotate(90 1245,400.5)" text-rendering="optimizeSpeed" fill="#000000">1.435 (216)</text>
  <rect fill="blue" height="0.1" stroke="black" width="12" x="1260" y="395.4"/>
  <text x="1260" y="400.5" font-family="Tahoma" font-size="12" transform="rotate(90 1260,400.5)" text-rendering="optimizeSpeed" fill="#000000">1.436-patched (1)</text>
  <rect fill="blue" height="43.7" stroke="black" width="12" x="1275" y="351.8"/>
  <text x="1275" y="400.5" font-family="Tahoma" font-size="12" transform="rotate(90 1275,400.5)" text-rendering="optimizeSpeed" fill="#000000">1.436 (437)</text>
  <rect fill="blue" height="39.4" stroke="black" width="12" x="1290" y="356.1"/>
  <text x="1290" y="400.5" font-family="Tahoma" font-size="12" transform="rotate(90 1290,400.5)" text-rendering="optimizeSpeed" fill="#000000">1.437 (394)</text>
  <rect fill="blue" height="41.6" stroke="black" width="12" x="1305" y="353.9"/>
  <text x="1305" y="400.5" font-family="Tahoma" font-size="12" transform="rotate(90 1305,400.5)" text-rendering="optimizeSpeed" fill="#000000">1.438 (416)</text>
  <rect fill="blue" height="31.5" stroke="black" width="12" x="1320" y="364.0"/>
  <text x="1320" y="400.5" font-family="Tahoma" font-size="12" transform="rotate(90 1320,400.5)" text-rendering="optimizeSpeed" fill="#000000">1.439 (315)</text>
  <rect fill="blue" height="0.1" stroke="black" width="12" x="1335" y="395.4"/>
  <text x="1335" y="400.5" font-family="Tahoma" font-size="12" transform="rotate(90 1335,400.5)" text-rendering="optimizeSpeed" fill="#000000">1.440-NOKIA (1)</text>
  <rect fill="blue" height="51.6" stroke="black" width="12" x="1350" y="343.9"/>
  <text x="1350" y="400.5" font-family="Tahoma" font-size="12" transform="rotate(90 1350,400.5)" text-rendering="optimizeSpeed" fill="#000000">1.440 (516)</text>
  <rect fill="blue" height="67.7" stroke="black" width="12" x="1365" y="327.8"/>
  <text x="1365" y="400.5" font-family="Tahoma" font-size="12" transform="rotate(90 1365,400.5)" text-rendering="optimizeSpeed" fill="#000000">1.441 (677)</text>
  <rect fill="blue" height="57.3" stroke="black" width="12" x="1380" y="338.2"/>
  <text x="1380" y="400.5" font-family="Tahoma" font-size="12" transform="rotate(90 1380,400.5)" text-rendering="optimizeSpeed" fill="#000000">1.442 (573)</text>
  <rect fill="blue" height="59.3" stroke="black" width="12" x="1395" y="336.2"/>
  <text x="1395" y="400.5" font-family="Tahoma" font-size="12" transform="rotate(90 1395,400.5)" text-rendering="optimizeSpeed" fill="#000000">1.443 (593)</text>
  <rect fill="blue" height="43.8" stroke="black" width="12" x="1410" y="351.7"/>
  <text x="1410" y="400.5" font-family="Tahoma" font-size="12" transform="rotate(90 1410,400.5)" text-rendering="optimizeSpeed" fill="#000000">1.444 (438)</text>
  <rect fill="blue" height="35.7" stroke="black" width="12" x="1425" y="359.8"/>
  <text x="1425" y="400.5" font-family="Tahoma" font-size="12" transform="rotate(90 1425,400.5)" text-rendering="optimizeSpeed" fill="#000000">1.445 (357)</text>
  <rect fill="blue" height="55.3" stroke="black" width="12" x="1440" y="340.2"/>
  <text x="1440" y="400.5" font-family="Tahoma" font-size="12" transform="rotate(90 1440,400.5)" text-rendering="optimizeSpeed" fill="#000000">1.446 (553)</text>
  <rect fill="blue" height="84.7" stroke="black" width="12" x="1455" y="310.8"/>
  <text x="1455" y="400.5" font-family="Tahoma" font-size="12" transform="rotate(90 1455,400.5)" text-rendering="optimizeSpeed" fill="#000000">1.447 (847)</text>
  <rect fill="blue" height="2.4" stroke="black" width="12" x="1470" y="393.1"/>
  <text x="1470" y="400.5" font-family="Tahoma" font-size="12" transform="rotate(90 1470,400.5)" text-rendering="optimizeSpeed" fill="#000000">1.447.1 (24)</text>
  <rect fill="blue" height="61.7" stroke="black" width="12" x="1485" y="333.8"/>
  <text x="1485" y="400.5" font-family="Tahoma" font-size="12" transform="rotate(90 1485,400.5)" text-rendering="optimizeSpeed" fill="#000000">1.448 (617)</text>
  <rect fill="blue" height="99.3" stroke="black" width="12" x="1500" y="296.2"/>
  <text x="1500" y="400.5" font-family="Tahoma" font-size="12" transform="rotate(90 1500,400.5)" text-rendering="optimizeSpeed" fill="#000000">1.449 (993)</text>
  <rect fill="blue" height="216.4" stroke="black" width="12" x="1515" y="179.1"/>
  <text x="1515" y="400.5" font-family="Tahoma" font-size="12" transform="rotate(90 1515,400.5)" text-rendering="optimizeSpeed" fill="#000000">1.450 (2164)</text>
  <rect fill="blue" height="271.0" stroke="black" width="12" x="1530" y="124.5"/>
  <text x="1530" y="400.5" font-family="Tahoma" font-size="12" transform="rotate(90 1530,400.5)" text-rendering="optimizeSpeed" fill="#000000">1.451 (2710)</text>
  <rect fill="blue" height="235.8" stroke="black" width="12" x="1545" y="159.7"/>
  <text x="1545" y="400.5" font-family="Tahoma" font-size="12" transform="rotate(90 1545,400.5)" text-rendering="optimizeSpeed" fill="#000000">1.452 (2358)</text>
  <rect fill="blue" height="13.3" stroke="black" width="12" x="1560" y="382.2"/>
  <text x="1560" y="400.5" font-family="Tahoma" font-size="12" transform="rotate(90 1560,400.5)" text-rendering="optimizeSpeed" fill="#000000">1.453 (133)</text>
  <rect fill="blue" height="265.9" stroke="black" width="12" x="1575" y="129.6"/>
  <text x="1575" y="400.5" font-family="Tahoma" font-size="12" transform="rotate(90 1575,400.5)" text-rendering="optimizeSpeed" fill="#000000">1.454 (2659)</text>
  <rect fill="blue" height="310.2" stroke="black" width="12" x="1590" y="85.3"/>
  <text x="1590" y="400.5" font-family="Tahoma" font-size="12" transform="rotate(90 1590,400.5)" text-rendering="optimizeSpeed" fill="#000000">1.455 (3102)</text>
  <rect fill="blue" height="345.5" stroke="black" width="12" x="1605" y="50.0"/>
  <text x="1605" y="400.5" font-family="Tahoma" font-size="12" transform="rotate(90 1605,400.5)" text-rendering="optimizeSpeed" fill="#000000">1.456 (3455)</text>
  <rect fill="blue" height="289.3" stroke="black" width="12" x="1620" y="106.2"/>
  <text x="1620" y="400.5" font-family="Tahoma" font-size="12" transform="rotate(90 1620,400.5)" text-rendering="optimizeSpeed" fill="#000000">1.457 (2893)</text>
  <text x="10" y="40" font-family="Tahoma" font-size="20" text-rendering="optimizeSpeed" fill="#000000">Jenkins installations (total: 39934)</text>
</svg>
