<svg xmlns="http://www.w3.org/2000/svg" version="1.1" preserveAspectRatio="xMidYMid meet" viewBox="0 0 755 742.8">
  <rect fill="blue" height="25.1" stroke="black" width="12" x="15" y="417.7"/>
  <text x="15" y="447.8" font-family="Tahoma" font-size="12" transform="rotate(90 15,447.8)" text-rendering="optimizeSpeed" fill="#000000">log-parser (2508)</text>
  <rect fill="blue" height="25.5" stroke="black" width="12" x="30" y="417.2"/>
  <text x="30" y="447.8" font-family="Tahoma" font-size="12" transform="rotate(90 30,447.8)" text-rendering="optimizeSpeed" fill="#000000">emma (2554)</text>
  <rect fill="blue" height="25.8" stroke="black" width="12" x="45" y="417.0"/>
  <text x="45" y="447.8" font-family="Tahoma" font-size="12" transform="rotate(90 45,447.8)" text-rendering="optimizeSpeed" fill="#000000">svn-tag (2579)</text>
  <rect fill="blue" height="26.8" stroke="black" width="12" x="60" y="416.0"/>
  <text x="60" y="447.8" font-family="Tahoma" font-size="12" transform="rotate(90 60,447.8)" text-rendering="optimizeSpeed" fill="#000000">scp (2676)</text>
  <rect fill="blue" height="27.5" stroke="black" width="12" x="75" y="415.3"/>
  <text x="75" y="447.8" font-family="Tahoma" font-size="12" transform="rotate(90 75,447.8)" text-rendering="optimizeSpeed" fill="#000000">mercurial (2746)</text>
  <rect fill="blue" height="27.7" stroke="black" width="12" x="90" y="415.1"/>
  <text x="90" y="447.8" font-family="Tahoma" font-size="12" transform="rotate(90 90,447.8)" text-rendering="optimizeSpeed" fill="#000000">m2release (2770)</text>
  <rect fill="blue" height="27.8" stroke="black" width="12" x="105" y="415.0"/>
  <text x="105" y="447.8" font-family="Tahoma" font-size="12" transform="rotate(90 105,447.8)" text-rendering="optimizeSpeed" fill="#000000">github-api (2775)</text>
  <rect fill="blue" height="29.4" stroke="black" width="12" x="120" y="413.4"/>
  <text x="120" y="447.8" font-family="Tahoma" font-size="12" transform="rotate(90 120,447.8)" text-rendering="optimizeSpeed" fill="#000000">publish-over-ssh (2941)</text>
  <rect fill="blue" height="31.2" stroke="black" width="12" x="135" y="411.5"/>
  <text x="135" y="447.8" font-family="Tahoma" font-size="12" transform="rotate(90 135,447.8)" text-rendering="optimizeSpeed" fill="#000000">tasks (3123)</text>
  <rect fill="blue" height="31.4" stroke="black" width="12" x="150" y="411.4"/>
  <text x="150" y="447.8" font-family="Tahoma" font-size="12" transform="rotate(90 150,447.8)" text-rendering="optimizeSpeed" fill="#000000">backup (3142)</text>
  <rect fill="blue" height="31.6" stroke="black" width="12" x="165" y="411.1"/>
  <text x="165" y="447.8" font-family="Tahoma" font-size="12" transform="rotate(90 165,447.8)" text-rendering="optimizeSpeed" fill="#000000">plot (3164)</text>
  <rect fill="blue" height="32.5" stroke="black" width="12" x="180" y="410.3"/>
  <text x="180" y="447.8" font-family="Tahoma" font-size="12" transform="rotate(90 180,447.8)" text-rendering="optimizeSpeed" fill="#000000">postbuild-task (3247)</text>
  <rect fill="blue" height="33.0" stroke="black" width="12" x="195" y="409.8"/>
  <text x="195" y="447.8" font-family="Tahoma" font-size="12" transform="rotate(90 195,447.8)" text-rendering="optimizeSpeed" fill="#000000">token-macro (3299)</text>
  <rect fill="blue" height="33.6" stroke="black" width="12" x="210" y="409.2"/>
  <text x="210" y="447.8" font-family="Tahoma" font-size="12" transform="rotate(90 210,447.8)" text-rendering="optimizeSpeed" fill="#000000">instant-messaging (3357)</text>
  <rect fill="blue" height="34.8" stroke="black" width="12" x="225" y="408.0"/>
  <text x="225" y="447.8" font-family="Tahoma" font-size="12" transform="rotate(90 225,447.8)" text-rendering="optimizeSpeed" fill="#000000">jira (3475)</text>
  <rect fill="blue" height="34.8" stroke="black" width="12" x="240" y="408.0"/>
  <text x="240" y="447.8" font-family="Tahoma" font-size="12" transform="rotate(90 240,447.8)" text-rendering="optimizeSpeed" fill="#000000">deploy (3479)</text>
  <rect fill="blue" height="36.9" stroke="black" width="12" x="255" y="405.9"/>
  <text x="255" y="447.8" font-family="Tahoma" font-size="12" transform="rotate(90 255,447.8)" text-rendering="optimizeSpeed" fill="#000000">github (3690)</text>
  <rect fill="blue" height="37.5" stroke="black" width="12" x="270" y="405.3"/>
  <text x="270" y="447.8" font-family="Tahoma" font-size="12" transform="rotate(90 270,447.8)" text-rendering="optimizeSpeed" fill="#000000">build-timeout (3750)</text>
  <rect fill="blue" height="37.8" stroke="black" width="12" x="285" y="405.0"/>
  <text x="285" y="447.8" font-family="Tahoma" font-size="12" transform="rotate(90 285,447.8)" text-rendering="optimizeSpeed" fill="#000000">msbuild (3781)</text>
  <rect fill="blue" height="38.7" stroke="black" width="12" x="300" y="404.1"/>
  <text x="300" y="447.8" font-family="Tahoma" font-size="12" transform="rotate(90 300,447.8)" text-rendering="optimizeSpeed" fill="#000000">copyartifact (3866)</text>
  <rect fill="blue" height="39.7" stroke="black" width="12" x="315" y="403.0"/>
  <text x="315" y="447.8" font-family="Tahoma" font-size="12" transform="rotate(90 315,447.8)" text-rendering="optimizeSpeed" fill="#000000">dry (3973)</text>
  <rect fill="blue" height="40.2" stroke="black" width="12" x="330" y="402.6"/>
  <text x="330" y="447.8" font-family="Tahoma" font-size="12" transform="rotate(90 330,447.8)" text-rendering="optimizeSpeed" fill="#000000">analysis-collector (4021)</text>
  <rect fill="blue" height="40.4" stroke="black" width="12" x="345" y="402.4"/>
  <text x="345" y="447.8" font-family="Tahoma" font-size="12" transform="rotate(90 345,447.8)" text-rendering="optimizeSpeed" fill="#000000">chucknorris (4040)</text>
  <rect fill="blue" height="41.4" stroke="black" width="12" x="360" y="401.4"/>
  <text x="360" y="447.8" font-family="Tahoma" font-size="12" transform="rotate(90 360,447.8)" text-rendering="optimizeSpeed" fill="#000000">active-directory (4136)</text>
  <rect fill="blue" height="45.4" stroke="black" width="12" x="375" y="397.4"/>
  <text x="375" y="447.8" font-family="Tahoma" font-size="12" transform="rotate(90 375,447.8)" text-rendering="optimizeSpeed" fill="#000000">xunit (4535)</text>
  <rect fill="blue" height="47.4" stroke="black" width="12" x="390" y="395.4"/>
  <text x="390" y="447.8" font-family="Tahoma" font-size="12" transform="rotate(90 390,447.8)" text-rendering="optimizeSpeed" fill="#000000">disk-usage (4742)</text>
  <rect fill="blue" height="48.7" stroke="black" width="12" x="405" y="394.1"/>
  <text x="405" y="447.8" font-family="Tahoma" font-size="12" transform="rotate(90 405,447.8)" text-rendering="optimizeSpeed" fill="#000000">warnings (4869)</text>
  <rect fill="blue" height="51.0" stroke="black" width="12" x="420" y="391.8"/>
  <text x="420" y="447.8" font-family="Tahoma" font-size="12" transform="rotate(90 420,447.8)" text-rendering="optimizeSpeed" fill="#000000">parameterized-trigger (5095)</text>
  <rect fill="blue" height="52.0" stroke="black" width="12" x="435" y="390.8"/>
  <text x="435" y="447.8" font-family="Tahoma" font-size="12" transform="rotate(90 435,447.8)" text-rendering="optimizeSpeed" fill="#000000">dashboard-view (5198)</text>
  <rect fill="blue" height="52.6" stroke="black" width="12" x="450" y="390.2"/>
  <text x="450" y="447.8" font-family="Tahoma" font-size="12" transform="rotate(90 450,447.8)" text-rendering="optimizeSpeed" fill="#000000">violations (5259)</text>
  <rect fill="blue" height="55.3" stroke="black" width="12" x="465" y="387.5"/>
  <text x="465" y="447.8" font-family="Tahoma" font-size="12" transform="rotate(90 465,447.8)" text-rendering="optimizeSpeed" fill="#000000">htmlpublisher (5529)</text>
  <rect fill="blue" height="56.6" stroke="black" width="12" x="480" y="386.1"/>
  <text x="480" y="447.8" font-family="Tahoma" font-size="12" transform="rotate(90 480,447.8)" text-rendering="optimizeSpeed" fill="#000000">findbugs (5663)</text>
  <rect fill="blue" height="58.0" stroke="black" width="12" x="495" y="384.7"/>
  <text x="495" y="447.8" font-family="Tahoma" font-size="12" transform="rotate(90 495,447.8)" text-rendering="optimizeSpeed" fill="#000000">sonar (5805)</text>
  <rect fill="blue" height="59.1" stroke="black" width="12" x="510" y="383.7"/>
  <text x="510" y="447.8" font-family="Tahoma" font-size="12" transform="rotate(90 510,447.8)" text-rendering="optimizeSpeed" fill="#000000">pmd (5908)</text>
  <rect fill="blue" height="63.9" stroke="black" width="12" x="525" y="378.9"/>
  <text x="525" y="447.8" font-family="Tahoma" font-size="12" transform="rotate(90 525,447.8)" text-rendering="optimizeSpeed" fill="#000000">cobertura (6386)</text>
  <rect fill="blue" height="67.2" stroke="black" width="12" x="540" y="375.6"/>
  <text x="540" y="447.8" font-family="Tahoma" font-size="12" transform="rotate(90 540,447.8)" text-rendering="optimizeSpeed" fill="#000000">checkstyle (6715)</text>
  <rect fill="blue" height="87.6" stroke="black" width="12" x="555" y="355.2"/>
  <text x="555" y="447.8" font-family="Tahoma" font-size="12" transform="rotate(90 555,447.8)" text-rendering="optimizeSpeed" fill="#000000">greenballs (8760)</text>
  <rect fill="blue" height="93.7" stroke="black" width="12" x="570" y="349.1"/>
  <text x="570" y="447.8" font-family="Tahoma" font-size="12" transform="rotate(90 570,447.8)" text-rendering="optimizeSpeed" fill="#000000">email-ext (9369)</text>
  <rect fill="blue" height="126.9" stroke="black" width="12" x="585" y="315.9"/>
  <text x="585" y="447.8" font-family="Tahoma" font-size="12" transform="rotate(90 585,447.8)" text-rendering="optimizeSpeed" fill="#000000">git (12688)</text>
  <rect fill="blue" height="127.8" stroke="black" width="12" x="600" y="315.0"/>
  <text x="600" y="447.8" font-family="Tahoma" font-size="12" transform="rotate(90 600,447.8)" text-rendering="optimizeSpeed" fill="#000000">analysis-core (12778)</text>
  <rect fill="blue" height="303.6" stroke="black" width="12" x="615" y="139.2"/>
  <text x="615" y="447.8" font-family="Tahoma" font-size="12" transform="rotate(90 615,447.8)" text-rendering="optimizeSpeed" fill="#000000">translation (30361)</text>
  <rect fill="blue" height="303.8" stroke="black" width="12" x="630" y="139.0"/>
  <text x="630" y="447.8" font-family="Tahoma" font-size="12" transform="rotate(90 630,447.8)" text-rendering="optimizeSpeed" fill="#000000">ant (30383)</text>
  <rect fill="blue" height="304.4" stroke="black" width="12" x="645" y="138.4"/>
  <text x="645" y="447.8" font-family="Tahoma" font-size="12" transform="rotate(90 645,447.8)" text-rendering="optimizeSpeed" fill="#000000">javadoc (30440)</text>
  <rect fill="blue" height="372.1" stroke="black" width="12" x="660" y="70.7"/>
  <text x="660" y="447.8" font-family="Tahoma" font-size="12" transform="rotate(90 660,447.8)" text-rendering="optimizeSpeed" fill="#000000">cvs (37209)</text>
  <rect fill="blue" height="386.5" stroke="black" width="12" x="675" y="56.3"/>
  <text x="675" y="447.8" font-family="Tahoma" font-size="12" transform="rotate(90 675,447.8)" text-rendering="optimizeSpeed" fill="#000000">maven-plugin (38650)</text>
  <rect fill="blue" height="387.6" stroke="black" width="12" x="690" y="55.1"/>
  <text x="690" y="447.8" font-family="Tahoma" font-size="12" transform="rotate(90 690,447.8)" text-rendering="optimizeSpeed" fill="#000000">subversion (38763)</text>
  <rect fill="blue" height="392.8" stroke="black" width="12" x="705" y="50.0"/>
  <text x="705" y="447.8" font-family="Tahoma" font-size="12" transform="rotate(90 705,447.8)" text-rendering="optimizeSpeed" fill="#000000">ssh-slaves (39278)</text>
  <text x="10" y="40" font-family="Tahoma" font-size="20" text-rendering="optimizeSpeed" fill="#000000">Plugin installations (installations &gt; 2500)</text>
</svg>
