<svg xmlns="http://www.w3.org/2000/svg" version="1.1" preserveAspectRatio="xMidYMid meet" viewBox="0 0 1910 742.8">
  <rect fill="blue" height="10.2" stroke="black" width="12" x="15" y="432.5"/>
  <text x="15" y="447.8" font-family="Tahoma" font-size="12" transform="rotate(90 15,447.8)" text-rendering="optimizeSpeed" fill="#000000">configurationslicing (1025)</text>
  <rect fill="blue" height="10.5" stroke="black" width="12" x="30" y="432.3"/>
  <text x="30" y="447.8" font-family="Tahoma" font-size="12" transform="rotate(90 30,447.8)" text-rendering="optimizeSpeed" fill="#000000">template-project (1046)</text>
  <rect fill="blue" height="10.5" stroke="black" width="12" x="45" y="432.3"/>
  <text x="45" y="447.8" font-family="Tahoma" font-size="12" transform="rotate(90 45,447.8)" text-rendering="optimizeSpeed" fill="#000000">mstest (1047)</text>
  <rect fill="blue" height="10.5" stroke="black" width="12" x="60" y="432.3"/>
  <text x="60" y="447.8" font-family="Tahoma" font-size="12" transform="rotate(90 60,447.8)" text-rendering="optimizeSpeed" fill="#000000">cron_column (1050)</text>
  <rect fill="blue" height="10.5" stroke="black" width="12" x="75" y="432.2"/>
  <text x="75" y="447.8" font-family="Tahoma" font-size="12" transform="rotate(90 75,447.8)" text-rendering="optimizeSpeed" fill="#000000">claim (1053)</text>
  <rect fill="blue" height="10.6" stroke="black" width="12" x="90" y="432.2"/>
  <text x="90" y="447.8" font-family="Tahoma" font-size="12" transform="rotate(90 90,447.8)" text-rendering="optimizeSpeed" fill="#000000">clearcase (1061)</text>
  <rect fill="blue" height="10.6" stroke="black" width="12" x="105" y="432.2"/>
  <text x="105" y="447.8" font-family="Tahoma" font-size="12" transform="rotate(90 105,447.8)" text-rendering="optimizeSpeed" fill="#000000">envfile (1062)</text>
  <rect fill="blue" height="11.0" stroke="black" width="12" x="120" y="431.8"/>
  <text x="120" y="447.8" font-family="Tahoma" font-size="12" transform="rotate(90 120,447.8)" text-rendering="optimizeSpeed" fill="#000000">iphoneview (1102)</text>
  <rect fill="blue" height="11.2" stroke="black" width="12" x="135" y="431.6"/>
  <text x="135" y="447.8" font-family="Tahoma" font-size="12" transform="rotate(90 135,447.8)" text-rendering="optimizeSpeed" fill="#000000">emotional-jenkins-plugin (1122)</text>
  <rect fill="blue" height="11.3" stroke="black" width="12" x="150" y="431.4"/>
  <text x="150" y="447.8" font-family="Tahoma" font-size="12" transform="rotate(90 150,447.8)" text-rendering="optimizeSpeed" fill="#000000">testng-plugin (1134)</text>
  <rect fill="blue" height="11.4" stroke="black" width="12" x="165" y="431.4"/>
  <text x="165" y="447.8" font-family="Tahoma" font-size="12" transform="rotate(90 165,447.8)" text-rendering="optimizeSpeed" fill="#000000">nant (1137)</text>
  <rect fill="blue" height="11.5" stroke="black" width="12" x="180" y="431.3"/>
  <text x="180" y="447.8" font-family="Tahoma" font-size="12" transform="rotate(90 180,447.8)" text-rendering="optimizeSpeed" fill="#000000">cppcheck (1150)</text>
  <rect fill="blue" height="11.5" stroke="black" width="12" x="195" y="431.3"/>
  <text x="195" y="447.8" font-family="Tahoma" font-size="12" transform="rotate(90 195,447.8)" text-rendering="optimizeSpeed" fill="#000000">ircbot (1151)</text>
  <rect fill="blue" height="11.6" stroke="black" width="12" x="210" y="431.2"/>
  <text x="210" y="447.8" font-family="Tahoma" font-size="12" transform="rotate(90 210,447.8)" text-rendering="optimizeSpeed" fill="#000000">doclinks (1162)</text>
  <rect fill="blue" height="11.7" stroke="black" width="12" x="225" y="431.1"/>
  <text x="225" y="447.8" font-family="Tahoma" font-size="12" transform="rotate(90 225,447.8)" text-rendering="optimizeSpeed" fill="#000000">downstream-ext (1165)</text>
  <rect fill="blue" height="11.7" stroke="black" width="12" x="240" y="431.1"/>
  <text x="240" y="447.8" font-family="Tahoma" font-size="12" transform="rotate(90 240,447.8)" text-rendering="optimizeSpeed" fill="#000000">role-strategy (1170)</text>
  <rect fill="blue" height="11.9" stroke="black" width="12" x="255" y="430.9"/>
  <text x="255" y="447.8" font-family="Tahoma" font-size="12" transform="rotate(90 255,447.8)" text-rendering="optimizeSpeed" fill="#000000">xvnc (1186)</text>
  <rect fill="blue" height="11.9" stroke="black" width="12" x="270" y="430.9"/>
  <text x="270" y="447.8" font-family="Tahoma" font-size="12" transform="rotate(90 270,447.8)" text-rendering="optimizeSpeed" fill="#000000">sloccount (1192)</text>
  <rect fill="blue" height="12.0" stroke="black" width="12" x="285" y="430.8"/>
  <text x="285" y="447.8" font-family="Tahoma" font-size="12" transform="rotate(90 285,447.8)" text-rendering="optimizeSpeed" fill="#000000">trac (1199)</text>
  <rect fill="blue" height="12.1" stroke="black" width="12" x="300" y="430.7"/>
  <text x="300" y="447.8" font-family="Tahoma" font-size="12" transform="rotate(90 300,447.8)" text-rendering="optimizeSpeed" fill="#000000">saferestart (1209)</text>
  <rect fill="blue" height="12.2" stroke="black" width="12" x="315" y="430.6"/>
  <text x="315" y="447.8" font-family="Tahoma" font-size="12" transform="rotate(90 315,447.8)" text-rendering="optimizeSpeed" fill="#000000">next-build-number (1215)</text>
  <rect fill="blue" height="12.2" stroke="black" width="12" x="330" y="430.6"/>
  <text x="330" y="447.8" font-family="Tahoma" font-size="12" transform="rotate(90 330,447.8)" text-rendering="optimizeSpeed" fill="#000000">sectioned-view (1215)</text>
  <rect fill="blue" height="12.2" stroke="black" width="12" x="345" y="430.5"/>
  <text x="345" y="447.8" font-family="Tahoma" font-size="12" transform="rotate(90 345,447.8)" text-rendering="optimizeSpeed" fill="#000000">project-stats-plugin (1223)</text>
  <rect fill="blue" height="12.7" stroke="black" width="12" x="360" y="430.1"/>
  <text x="360" y="447.8" font-family="Tahoma" font-size="12" transform="rotate(90 360,447.8)" text-rendering="optimizeSpeed" fill="#000000">ftppublisher (1270)</text>
  <rect fill="blue" height="12.8" stroke="black" width="12" x="375" y="430.0"/>
  <text x="375" y="447.8" font-family="Tahoma" font-size="12" transform="rotate(90 375,447.8)" text-rendering="optimizeSpeed" fill="#000000">ruby (1275)</text>
  <rect fill="blue" height="13.0" stroke="black" width="12" x="390" y="429.8"/>
  <text x="390" y="447.8" font-family="Tahoma" font-size="12" transform="rotate(90 390,447.8)" text-rendering="optimizeSpeed" fill="#000000">locale (1299)</text>
  <rect fill="blue" height="13.0" stroke="black" width="12" x="405" y="429.8"/>
  <text x="405" y="447.8" font-family="Tahoma" font-size="12" transform="rotate(90 405,447.8)" text-rendering="optimizeSpeed" fill="#000000">dependencyanalyzer (1300)</text>
  <rect fill="blue" height="13.2" stroke="black" width="12" x="420" y="429.6"/>
  <text x="420" y="447.8" font-family="Tahoma" font-size="12" transform="rotate(90 420,447.8)" text-rendering="optimizeSpeed" fill="#000000">seleniumhq (1316)</text>
  <rect fill="blue" height="13.3" stroke="black" width="12" x="435" y="429.5"/>
  <text x="435" y="447.8" font-family="Tahoma" font-size="12" transform="rotate(90 435,447.8)" text-rendering="optimizeSpeed" fill="#000000">emotional-hudson (1327)</text>
  <rect fill="blue" height="13.3" stroke="black" width="12" x="450" y="429.5"/>
  <text x="450" y="447.8" font-family="Tahoma" font-size="12" transform="rotate(90 450,447.8)" text-rendering="optimizeSpeed" fill="#000000">description-setter (1329)</text>
  <rect fill="blue" height="13.4" stroke="black" width="12" x="465" y="429.4"/>
  <text x="465" y="447.8" font-family="Tahoma" font-size="12" transform="rotate(90 465,447.8)" text-rendering="optimizeSpeed" fill="#000000">hudson-pview-plugin (1337)</text>
  <rect fill="blue" height="13.4" stroke="black" width="12" x="480" y="429.4"/>
  <text x="480" y="447.8" font-family="Tahoma" font-size="12" transform="rotate(90 480,447.8)" text-rendering="optimizeSpeed" fill="#000000">console-column-plugin (1340)</text>
  <rect fill="blue" height="13.5" stroke="black" width="12" x="495" y="429.3"/>
  <text x="495" y="447.8" font-family="Tahoma" font-size="12" transform="rotate(90 495,447.8)" text-rendering="optimizeSpeed" fill="#000000">global-build-stats (1351)</text>
  <rect fill="blue" height="13.7" stroke="black" width="12" x="510" y="429.1"/>
  <text x="510" y="447.8" font-family="Tahoma" font-size="12" transform="rotate(90 510,447.8)" text-rendering="optimizeSpeed" fill="#000000">all-changes (1368)</text>
  <rect fill="blue" height="13.9" stroke="black" width="12" x="525" y="428.9"/>
  <text x="525" y="447.8" font-family="Tahoma" font-size="12" transform="rotate(90 525,447.8)" text-rendering="optimizeSpeed" fill="#000000">redmine (1391)</text>
  <rect fill="blue" height="14.0" stroke="black" width="12" x="540" y="428.8"/>
  <text x="540" y="447.8" font-family="Tahoma" font-size="12" transform="rotate(90 540,447.8)" text-rendering="optimizeSpeed" fill="#000000">nested-view (1403)</text>
  <rect fill="blue" height="14.1" stroke="black" width="12" x="555" y="428.7"/>
  <text x="555" y="447.8" font-family="Tahoma" font-size="12" transform="rotate(90 555,447.8)" text-rendering="optimizeSpeed" fill="#000000">compact-columns (1406)</text>
  <rect fill="blue" height="14.1" stroke="black" width="12" x="570" y="428.6"/>
  <text x="570" y="447.8" font-family="Tahoma" font-size="12" transform="rotate(90 570,447.8)" text-rendering="optimizeSpeed" fill="#000000">text-finder (1413)</text>
  <rect fill="blue" height="14.3" stroke="black" width="12" x="585" y="428.5"/>
  <text x="585" y="447.8" font-family="Tahoma" font-size="12" transform="rotate(90 585,447.8)" text-rendering="optimizeSpeed" fill="#000000">versionnumber (1429)</text>
  <rect fill="blue" height="14.3" stroke="black" width="12" x="600" y="428.4"/>
  <text x="600" y="447.8" font-family="Tahoma" font-size="12" transform="rotate(90 600,447.8)" text-rendering="optimizeSpeed" fill="#000000">ws-cleanup (1434)</text>
  <rect fill="blue" height="14.8" stroke="black" width="12" x="615" y="427.9"/>
  <text x="615" y="447.8" font-family="Tahoma" font-size="12" transform="rotate(90 615,447.8)" text-rendering="optimizeSpeed" fill="#000000">clover (1485)</text>
  <rect fill="blue" height="15.1" stroke="black" width="12" x="630" y="427.7"/>
  <text x="630" y="447.8" font-family="Tahoma" font-size="12" transform="rotate(90 630,447.8)" text-rendering="optimizeSpeed" fill="#000000">port-allocator (1511)</text>
  <rect fill="blue" height="15.2" stroke="black" width="12" x="645" y="427.6"/>
  <text x="645" y="447.8" font-family="Tahoma" font-size="12" transform="rotate(90 645,447.8)" text-rendering="optimizeSpeed" fill="#000000">doxygen (1515)</text>
  <rect fill="blue" height="15.2" stroke="black" width="12" x="660" y="427.6"/>
  <text x="660" y="447.8" font-family="Tahoma" font-size="12" transform="rotate(90 660,447.8)" text-rendering="optimizeSpeed" fill="#000000">statusmonitor (1517)</text>
  <rect fill="blue" height="15.3" stroke="black" width="12" x="675" y="427.5"/>
  <text x="675" y="447.8" font-family="Tahoma" font-size="12" transform="rotate(90 675,447.8)" text-rendering="optimizeSpeed" fill="#000000">groovy (1529)</text>
  <rect fill="blue" height="15.4" stroke="black" width="12" x="690" y="427.4"/>
  <text x="690" y="447.8" font-family="Tahoma" font-size="12" transform="rotate(90 690,447.8)" text-rendering="optimizeSpeed" fill="#000000">thinBackup (1542)</text>
  <rect fill="blue" height="15.5" stroke="black" width="12" x="705" y="427.3"/>
  <text x="705" y="447.8" font-family="Tahoma" font-size="12" transform="rotate(90 705,447.8)" text-rendering="optimizeSpeed" fill="#000000">monitoring (1550)</text>
  <rect fill="blue" height="16.1" stroke="black" width="12" x="720" y="426.7"/>
  <text x="720" y="447.8" font-family="Tahoma" font-size="12" transform="rotate(90 720,447.8)" text-rendering="optimizeSpeed" fill="#000000">cloverphp (1606)</text>
  <rect fill="blue" height="16.2" stroke="black" width="12" x="735" y="426.6"/>
  <text x="735" y="447.8" font-family="Tahoma" font-size="12" transform="rotate(90 735,447.8)" text-rendering="optimizeSpeed" fill="#000000">depgraph-view (1618)</text>
  <rect fill="blue" height="16.3" stroke="black" width="12" x="750" y="426.5"/>
  <text x="750" y="447.8" font-family="Tahoma" font-size="12" transform="rotate(90 750,447.8)" text-rendering="optimizeSpeed" fill="#000000">svn-release-mgr (1632)</text>
  <rect fill="blue" height="16.5" stroke="black" width="12" x="765" y="426.3"/>
  <text x="765" y="447.8" font-family="Tahoma" font-size="12" transform="rotate(90 765,447.8)" text-rendering="optimizeSpeed" fill="#000000">artifactdeployer (1651)</text>
  <rect fill="blue" height="16.7" stroke="black" width="12" x="780" y="426.0"/>
  <text x="780" y="447.8" font-family="Tahoma" font-size="12" transform="rotate(90 780,447.8)" text-rendering="optimizeSpeed" fill="#000000">rake (1674)</text>
  <rect fill="blue" height="16.9" stroke="black" width="12" x="795" y="425.9"/>
  <text x="795" y="447.8" font-family="Tahoma" font-size="12" transform="rotate(90 795,447.8)" text-rendering="optimizeSpeed" fill="#000000">python (1686)</text>
  <rect fill="blue" height="16.9" stroke="black" width="12" x="810" y="425.9"/>
  <text x="810" y="447.8" font-family="Tahoma" font-size="12" transform="rotate(90 810,447.8)" text-rendering="optimizeSpeed" fill="#000000">release (1689)</text>
  <rect fill="blue" height="17.0" stroke="black" width="12" x="825" y="425.8"/>
  <text x="825" y="447.8" font-family="Tahoma" font-size="12" transform="rotate(90 825,447.8)" text-rendering="optimizeSpeed" fill="#000000">copy-to-slave (1701)</text>
  <rect fill="blue" height="17.2" stroke="black" width="12" x="840" y="425.5"/>
  <text x="840" y="447.8" font-family="Tahoma" font-size="12" transform="rotate(90 840,447.8)" text-rendering="optimizeSpeed" fill="#000000">artifactory (1724)</text>
  <rect fill="blue" height="17.6" stroke="black" width="12" x="855" y="425.1"/>
  <text x="855" y="447.8" font-family="Tahoma" font-size="12" transform="rotate(90 855,447.8)" text-rendering="optimizeSpeed" fill="#000000">downstream-buildview (1763)</text>
  <rect fill="blue" height="17.8" stroke="black" width="12" x="870" y="424.9"/>
  <text x="870" y="447.8" font-family="Tahoma" font-size="12" transform="rotate(90 870,447.8)" text-rendering="optimizeSpeed" fill="#000000">view-job-filters (1784)</text>
  <rect fill="blue" height="17.9" stroke="black" width="12" x="885" y="424.9"/>
  <text x="885" y="447.8" font-family="Tahoma" font-size="12" transform="rotate(90 885,447.8)" text-rendering="optimizeSpeed" fill="#000000">m2-extra-steps (1785)</text>
  <rect fill="blue" height="18.5" stroke="black" width="12" x="900" y="424.3"/>
  <text x="900" y="447.8" font-family="Tahoma" font-size="12" transform="rotate(90 900,447.8)" text-rendering="optimizeSpeed" fill="#000000">envinject (1851)</text>
  <rect fill="blue" height="18.5" stroke="black" width="12" x="915" y="424.2"/>
  <text x="915" y="447.8" font-family="Tahoma" font-size="12" transform="rotate(90 915,447.8)" text-rendering="optimizeSpeed" fill="#000000">sidebar-link (1854)</text>
  <rect fill="blue" height="18.7" stroke="black" width="12" x="930" y="424.1"/>
  <text x="930" y="447.8" font-family="Tahoma" font-size="12" transform="rotate(90 930,447.8)" text-rendering="optimizeSpeed" fill="#000000">timestamper (1868)</text>
  <rect fill="blue" height="19.1" stroke="black" width="12" x="945" y="423.7"/>
  <text x="945" y="447.8" font-family="Tahoma" font-size="12" transform="rotate(90 945,447.8)" text-rendering="optimizeSpeed" fill="#000000">jabber (1911)</text>
  <rect fill="blue" height="19.8" stroke="black" width="12" x="960" y="423.0"/>
  <text x="960" y="447.8" font-family="Tahoma" font-size="12" transform="rotate(90 960,447.8)" text-rendering="optimizeSpeed" fill="#000000">ci-game (1982)</text>
  <rect fill="blue" height="20.0" stroke="black" width="12" x="975" y="422.8"/>
  <text x="975" y="447.8" font-family="Tahoma" font-size="12" transform="rotate(90 975,447.8)" text-rendering="optimizeSpeed" fill="#000000">audit-trail (1998)</text>
  <rect fill="blue" height="20.0" stroke="black" width="12" x="990" y="422.8"/>
  <text x="990" y="447.8" font-family="Tahoma" font-size="12" transform="rotate(90 990,447.8)" text-rendering="optimizeSpeed" fill="#000000">perforce (1999)</text>
  <rect fill="blue" height="20.7" stroke="black" width="12" x="1005" y="422.1"/>
  <text x="1005" y="447.8" font-family="Tahoma" font-size="12" transform="rotate(90 1005,447.8)" text-rendering="optimizeSpeed" fill="#000000">nunit (2067)</text>
  <rect fill="blue" height="20.8" stroke="black" width="12" x="1020" y="421.9"/>
  <text x="1020" y="447.8" font-family="Tahoma" font-size="12" transform="rotate(90 1020,447.8)" text-rendering="optimizeSpeed" fill="#000000">radiatorviewplugin (2084)</text>
  <rect fill="blue" height="20.9" stroke="black" width="12" x="1035" y="421.9"/>
  <text x="1035" y="447.8" font-family="Tahoma" font-size="12" transform="rotate(90 1035,447.8)" text-rendering="optimizeSpeed" fill="#000000">build-pipeline-plugin (2091)</text>
  <rect fill="blue" height="21.2" stroke="black" width="12" x="1050" y="421.6"/>
  <text x="1050" y="447.8" font-family="Tahoma" font-size="12" transform="rotate(90 1050,447.8)" text-rendering="optimizeSpeed" fill="#000000">join (2121)</text>
  <rect fill="blue" height="21.6" stroke="black" width="12" x="1065" y="421.2"/>
  <text x="1065" y="447.8" font-family="Tahoma" font-size="12" transform="rotate(90 1065,447.8)" text-rendering="optimizeSpeed" fill="#000000">jobConfigHistory (2155)</text>
  <rect fill="blue" height="21.6" stroke="black" width="12" x="1080" y="421.2"/>
  <text x="1080" y="447.8" font-family="Tahoma" font-size="12" transform="rotate(90 1080,447.8)" text-rendering="optimizeSpeed" fill="#000000">locks-and-latches (2156)</text>
  <rect fill="blue" height="22.0" stroke="black" width="12" x="1095" y="420.8"/>
  <text x="1095" y="447.8" font-family="Tahoma" font-size="12" transform="rotate(90 1095,447.8)" text-rendering="optimizeSpeed" fill="#000000">batch-task (2203)</text>
  <rect fill="blue" height="22.4" stroke="black" width="12" x="1110" y="420.4"/>
  <text x="1110" y="447.8" font-family="Tahoma" font-size="12" transform="rotate(90 1110,447.8)" text-rendering="optimizeSpeed" fill="#000000">performance (2237)</text>
  <rect fill="blue" height="22.7" stroke="black" width="12" x="1125" y="420.1"/>
  <text x="1125" y="447.8" font-family="Tahoma" font-size="12" transform="rotate(90 1125,447.8)" text-rendering="optimizeSpeed" fill="#000000">jdepend (2269)</text>
  <rect fill="blue" height="24.6" stroke="black" width="12" x="1140" y="418.1"/>
  <text x="1140" y="447.8" font-family="Tahoma" font-size="12" transform="rotate(90 1140,447.8)" text-rendering="optimizeSpeed" fill="#000000">ssh (2465)</text>
  <rect fill="blue" height="24.9" stroke="black" width="12" x="1155" y="417.9"/>
  <text x="1155" y="447.8" font-family="Tahoma" font-size="12" transform="rotate(90 1155,447.8)" text-rendering="optimizeSpeed" fill="#000000">promoted-builds (2492)</text>
  <rect fill="blue" height="25.1" stroke="black" width="12" x="1170" y="417.7"/>
  <text x="1170" y="447.8" font-family="Tahoma" font-size="12" transform="rotate(90 1170,447.8)" text-rendering="optimizeSpeed" fill="#000000">log-parser (2508)</text>
  <rect fill="blue" height="25.5" stroke="black" width="12" x="1185" y="417.2"/>
  <text x="1185" y="447.8" font-family="Tahoma" font-size="12" transform="rotate(90 1185,447.8)" text-rendering="optimizeSpeed" fill="#000000">emma (2554)</text>
  <rect fill="blue" height="25.8" stroke="black" width="12" x="1200" y="417.0"/>
  <text x="1200" y="447.8" font-family="Tahoma" font-size="12" transform="rotate(90 1200,447.8)" text-rendering="optimizeSpeed" fill="#000000">svn-tag (2579)</text>
  <rect fill="blue" height="26.8" stroke="black" width="12" x="1215" y="416.0"/>
  <text x="1215" y="447.8" font-family="Tahoma" font-size="12" transform="rotate(90 1215,447.8)" text-rendering="optimizeSpeed" fill="#000000">scp (2676)</text>
  <rect fill="blue" height="27.5" stroke="black" width="12" x="1230" y="415.3"/>
  <text x="1230" y="447.8" font-family="Tahoma" font-size="12" transform="rotate(90 1230,447.8)" text-rendering="optimizeSpeed" fill="#000000">mercurial (2746)</text>
  <rect fill="blue" height="27.7" stroke="black" width="12" x="1245" y="415.1"/>
  <text x="1245" y="447.8" font-family="Tahoma" font-size="12" transform="rotate(90 1245,447.8)" text-rendering="optimizeSpeed" fill="#000000">m2release (2770)</text>
  <rect fill="blue" height="27.8" stroke="black" width="12" x="1260" y="415.0"/>
  <text x="1260" y="447.8" font-family="Tahoma" font-size="12" transform="rotate(90 1260,447.8)" text-rendering="optimizeSpeed" fill="#000000">github-api (2775)</text>
  <rect fill="blue" height="29.4" stroke="black" width="12" x="1275" y="413.4"/>
  <text x="1275" y="447.8" font-family="Tahoma" font-size="12" transform="rotate(90 1275,447.8)" text-rendering="optimizeSpeed" fill="#000000">publish-over-ssh (2941)</text>
  <rect fill="blue" height="31.2" stroke="black" width="12" x="1290" y="411.5"/>
  <text x="1290" y="447.8" font-family="Tahoma" font-size="12" transform="rotate(90 1290,447.8)" text-rendering="optimizeSpeed" fill="#000000">tasks (3123)</text>
  <rect fill="blue" height="31.4" stroke="black" width="12" x="1305" y="411.4"/>
  <text x="1305" y="447.8" font-family="Tahoma" font-size="12" transform="rotate(90 1305,447.8)" text-rendering="optimizeSpeed" fill="#000000">backup (3142)</text>
  <rect fill="blue" height="31.6" stroke="black" width="12" x="1320" y="411.1"/>
  <text x="1320" y="447.8" font-family="Tahoma" font-size="12" transform="rotate(90 1320,447.8)" text-rendering="optimizeSpeed" fill="#000000">plot (3164)</text>
  <rect fill="blue" height="32.5" stroke="black" width="12" x="1335" y="410.3"/>
  <text x="1335" y="447.8" font-family="Tahoma" font-size="12" transform="rotate(90 1335,447.8)" text-rendering="optimizeSpeed" fill="#000000">postbuild-task (3247)</text>
  <rect fill="blue" height="33.0" stroke="black" width="12" x="1350" y="409.8"/>
  <text x="1350" y="447.8" font-family="Tahoma" font-size="12" transform="rotate(90 1350,447.8)" text-rendering="optimizeSpeed" fill="#000000">token-macro (3299)</text>
  <rect fill="blue" height="33.6" stroke="black" width="12" x="1365" y="409.2"/>
  <text x="1365" y="447.8" font-family="Tahoma" font-size="12" transform="rotate(90 1365,447.8)" text-rendering="optimizeSpeed" fill="#000000">instant-messaging (3357)</text>
  <rect fill="blue" height="34.8" stroke="black" width="12" x="1380" y="408.0"/>
  <text x="1380" y="447.8" font-family="Tahoma" font-size="12" transform="rotate(90 1380,447.8)" text-rendering="optimizeSpeed" fill="#000000">jira (3475)</text>
  <rect fill="blue" height="34.8" stroke="black" width="12" x="1395" y="408.0"/>
  <text x="1395" y="447.8" font-family="Tahoma" font-size="12" transform="rotate(90 1395,447.8)" text-rendering="optimizeSpeed" fill="#000000">deploy (3479)</text>
  <rect fill="blue" height="36.9" stroke="black" width="12" x="1410" y="405.9"/>
  <text x="1410" y="447.8" font-family="Tahoma" font-size="12" transform="rotate(90 1410,447.8)" text-rendering="optimizeSpeed" fill="#000000">github (3690)</text>
  <rect fill="blue" height="37.5" stroke="black" width="12" x="1425" y="405.3"/>
  <text x="1425" y="447.8" font-family="Tahoma" font-size="12" transform="rotate(90 1425,447.8)" text-rendering="optimizeSpeed" fill="#000000">build-timeout (3750)</text>
  <rect fill="blue" height="37.8" stroke="black" width="12" x="1440" y="405.0"/>
  <text x="1440" y="447.8" font-family="Tahoma" font-size="12" transform="rotate(90 1440,447.8)" text-rendering="optimizeSpeed" fill="#000000">msbuild (3781)</text>
  <rect fill="blue" height="38.7" stroke="black" width="12" x="1455" y="404.1"/>
  <text x="1455" y="447.8" font-family="Tahoma" font-size="12" transform="rotate(90 1455,447.8)" text-rendering="optimizeSpeed" fill="#000000">copyartifact (3866)</text>
  <rect fill="blue" height="39.7" stroke="black" width="12" x="1470" y="403.0"/>
  <text x="1470" y="447.8" font-family="Tahoma" font-size="12" transform="rotate(90 1470,447.8)" text-rendering="optimizeSpeed" fill="#000000">dry (3973)</text>
  <rect fill="blue" height="40.2" stroke="black" width="12" x="1485" y="402.6"/>
  <text x="1485" y="447.8" font-family="Tahoma" font-size="12" transform="rotate(90 1485,447.8)" text-rendering="optimizeSpeed" fill="#000000">analysis-collector (4021)</text>
  <rect fill="blue" height="40.4" stroke="black" width="12" x="1500" y="402.4"/>
  <text x="1500" y="447.8" font-family="Tahoma" font-size="12" transform="rotate(90 1500,447.8)" text-rendering="optimizeSpeed" fill="#000000">chucknorris (4040)</text>
  <rect fill="blue" height="41.4" stroke="black" width="12" x="1515" y="401.4"/>
  <text x="1515" y="447.8" font-family="Tahoma" font-size="12" transform="rotate(90 1515,447.8)" text-rendering="optimizeSpeed" fill="#000000">active-directory (4136)</text>
  <rect fill="blue" height="45.4" stroke="black" width="12" x="1530" y="397.4"/>
  <text x="1530" y="447.8" font-family="Tahoma" font-size="12" transform="rotate(90 1530,447.8)" text-rendering="optimizeSpeed" fill="#000000">xunit (4535)</text>
  <rect fill="blue" height="47.4" stroke="black" width="12" x="1545" y="395.4"/>
  <text x="1545" y="447.8" font-family="Tahoma" font-size="12" transform="rotate(90 1545,447.8)" text-rendering="optimizeSpeed" fill="#000000">disk-usage (4742)</text>
  <rect fill="blue" height="48.7" stroke="black" width="12" x="1560" y="394.1"/>
  <text x="1560" y="447.8" font-family="Tahoma" font-size="12" transform="rotate(90 1560,447.8)" text-rendering="optimizeSpeed" fill="#000000">warnings (4869)</text>
  <rect fill="blue" height="51.0" stroke="black" width="12" x="1575" y="391.8"/>
  <text x="1575" y="447.8" font-family="Tahoma" font-size="12" transform="rotate(90 1575,447.8)" text-rendering="optimizeSpeed" fill="#000000">parameterized-trigger (5095)</text>
  <rect fill="blue" height="52.0" stroke="black" width="12" x="1590" y="390.8"/>
  <text x="1590" y="447.8" font-family="Tahoma" font-size="12" transform="rotate(90 1590,447.8)" text-rendering="optimizeSpeed" fill="#000000">dashboard-view (5198)</text>
  <rect fill="blue" height="52.6" stroke="black" width="12" x="1605" y="390.2"/>
  <text x="1605" y="447.8" font-family="Tahoma" font-size="12" transform="rotate(90 1605,447.8)" text-rendering="optimizeSpeed" fill="#000000">violations (5259)</text>
  <rect fill="blue" height="55.3" stroke="black" width="12" x="1620" y="387.5"/>
  <text x="1620" y="447.8" font-family="Tahoma" font-size="12" transform="rotate(90 1620,447.8)" text-rendering="optimizeSpeed" fill="#000000">htmlpublisher (5529)</text>
  <rect fill="blue" height="56.6" stroke="black" width="12" x="1635" y="386.1"/>
  <text x="1635" y="447.8" font-family="Tahoma" font-size="12" transform="rotate(90 1635,447.8)" text-rendering="optimizeSpeed" fill="#000000">findbugs (5663)</text>
  <rect fill="blue" height="58.0" stroke="black" width="12" x="1650" y="384.7"/>
  <text x="1650" y="447.8" font-family="Tahoma" font-size="12" transform="rotate(90 1650,447.8)" text-rendering="optimizeSpeed" fill="#000000">sonar (5805)</text>
  <rect fill="blue" height="59.1" stroke="black" width="12" x="1665" y="383.7"/>
  <text x="1665" y="447.8" font-family="Tahoma" font-size="12" transform="rotate(90 1665,447.8)" text-rendering="optimizeSpeed" fill="#000000">pmd (5908)</text>
  <rect fill="blue" height="63.9" stroke="black" width="12" x="1680" y="378.9"/>
  <text x="1680" y="447.8" font-family="Tahoma" font-size="12" transform="rotate(90 1680,447.8)" text-rendering="optimizeSpeed" fill="#000000">cobertura (6386)</text>
  <rect fill="blue" height="67.2" stroke="black" width="12" x="1695" y="375.6"/>
  <text x="1695" y="447.8" font-family="Tahoma" font-size="12" transform="rotate(90 1695,447.8)" text-rendering="optimizeSpeed" fill="#000000">checkstyle (6715)</text>
  <rect fill="blue" height="87.6" stroke="black" width="12" x="1710" y="355.2"/>
  <text x="1710" y="447.8" font-family="Tahoma" font-size="12" transform="rotate(90 1710,447.8)" text-rendering="optimizeSpeed" fill="#000000">greenballs (8760)</text>
  <rect fill="blue" height="93.7" stroke="black" width="12" x="1725" y="349.1"/>
  <text x="1725" y="447.8" font-family="Tahoma" font-size="12" transform="rotate(90 1725,447.8)" text-rendering="optimizeSpeed" fill="#000000">email-ext (9369)</text>
  <rect fill="blue" height="126.9" stroke="black" width="12" x="1740" y="315.9"/>
  <text x="1740" y="447.8" font-family="Tahoma" font-size="12" transform="rotate(90 1740,447.8)" text-rendering="optimizeSpeed" fill="#000000">git (12688)</text>
  <rect fill="blue" height="127.8" stroke="black" width="12" x="1755" y="315.0"/>
  <text x="1755" y="447.8" font-family="Tahoma" font-size="12" transform="rotate(90 1755,447.8)" text-rendering="optimizeSpeed" fill="#000000">analysis-core (12778)</text>
  <rect fill="blue" height="303.6" stroke="black" width="12" x="1770" y="139.2"/>
  <text x="1770" y="447.8" font-family="Tahoma" font-size="12" transform="rotate(90 1770,447.8)" text-rendering="optimizeSpeed" fill="#000000">translation (30361)</text>
  <rect fill="blue" height="303.8" stroke="black" width="12" x="1785" y="139.0"/>
  <text x="1785" y="447.8" font-family="Tahoma" font-size="12" transform="rotate(90 1785,447.8)" text-rendering="optimizeSpeed" fill="#000000">ant (30383)</text>
  <rect fill="blue" height="304.4" stroke="black" width="12" x="1800" y="138.4"/>
  <text x="1800" y="447.8" font-family="Tahoma" font-size="12" transform="rotate(90 1800,447.8)" text-rendering="optimizeSpeed" fill="#000000">javadoc (30440)</text>
  <rect fill="blue" height="372.1" stroke="black" width="12" x="1815" y="70.7"/>
  <text x="1815" y="447.8" font-family="Tahoma" font-size="12" transform="rotate(90 1815,447.8)" text-rendering="optimizeSpeed" fill="#000000">cvs (37209)</text>
  <rect fill="blue" height="386.5" stroke="black" width="12" x="1830" y="56.3"/>
  <text x="1830" y="447.8" font-family="Tahoma" font-size="12" transform="rotate(90 1830,447.8)" text-rendering="optimizeSpeed" fill="#000000">maven-plugin (38650)</text>
  <rect fill="blue" height="387.6" stroke="black" width="12" x="1845" y="55.1"/>
  <text x="1845" y="447.8" font-family="Tahoma" font-size="12" transform="rotate(90 1845,447.8)" text-rendering="optimizeSpeed" fill="#000000">subversion (38763)</text>
  <rect fill="blue" height="392.8" stroke="black" width="12" x="1860" y="50.0"/>
  <text x="1860" y="447.8" font-family="Tahoma" font-size="12" transform="rotate(90 1860,447.8)" text-rendering="optimizeSpeed" fill="#000000">ssh-slaves (39278)</text>
  <text x="10" y="40" font-family="Tahoma" font-size="20" text-rendering="optimizeSpeed" fill="#000000">Plugin installations (installations &gt; 1000)</text>
</svg>
