<svg xmlns="http://www.w3.org/2000/svg" version="1.1" preserveAspectRatio="xMidYMid meet" viewBox="0 0 1805 711.5">
  <rect fill="blue" height="10.1" stroke="black" width="12" x="15" y="401.5"/>
  <text x="15" y="416.5" font-family="Tahoma" font-size="12" transform="rotate(90 15,416.5)" text-rendering="optimizeSpeed" fill="#000000">testng-plugin (1005)</text>
  <rect fill="blue" height="10.2" stroke="black" width="12" x="30" y="401.3"/>
  <text x="30" y="416.5" font-family="Tahoma" font-size="12" transform="rotate(90 30,416.5)" text-rendering="optimizeSpeed" fill="#000000">clearcase (1021)</text>
  <rect fill="blue" height="10.4" stroke="black" width="12" x="45" y="401.1"/>
  <text x="45" y="416.5" font-family="Tahoma" font-size="12" transform="rotate(90 45,416.5)" text-rendering="optimizeSpeed" fill="#000000">template-project (1042)</text>
  <rect fill="blue" height="10.5" stroke="black" width="12" x="60" y="401.0"/>
  <text x="60" y="416.5" font-family="Tahoma" font-size="12" transform="rotate(90 60,416.5)" text-rendering="optimizeSpeed" fill="#000000">nant (1054)</text>
  <rect fill="blue" height="10.6" stroke="black" width="12" x="75" y="400.9"/>
  <text x="75" y="416.5" font-family="Tahoma" font-size="12" transform="rotate(90 75,416.5)" text-rendering="optimizeSpeed" fill="#000000">ircbot (1064)</text>
  <rect fill="blue" height="10.7" stroke="black" width="12" x="90" y="400.9"/>
  <text x="90" y="416.5" font-family="Tahoma" font-size="12" transform="rotate(90 90,416.5)" text-rendering="optimizeSpeed" fill="#000000">project-stats-plugin (1066)</text>
  <rect fill="blue" height="10.7" stroke="black" width="12" x="105" y="400.8"/>
  <text x="105" y="416.5" font-family="Tahoma" font-size="12" transform="rotate(90 105,416.5)" text-rendering="optimizeSpeed" fill="#000000">cppcheck (1074)</text>
  <rect fill="blue" height="10.8" stroke="black" width="12" x="120" y="400.8"/>
  <text x="120" y="416.5" font-family="Tahoma" font-size="12" transform="rotate(90 120,416.5)" text-rendering="optimizeSpeed" fill="#000000">saferestart (1077)</text>
  <rect fill="blue" height="11.0" stroke="black" width="12" x="135" y="400.5"/>
  <text x="135" y="416.5" font-family="Tahoma" font-size="12" transform="rotate(90 135,416.5)" text-rendering="optimizeSpeed" fill="#000000">downstream-ext (1102)</text>
  <rect fill="blue" height="11.0" stroke="black" width="12" x="150" y="400.5"/>
  <text x="150" y="416.5" font-family="Tahoma" font-size="12" transform="rotate(90 150,416.5)" text-rendering="optimizeSpeed" fill="#000000">iphoneview (1102)</text>
  <rect fill="blue" height="11.1" stroke="black" width="12" x="165" y="400.4"/>
  <text x="165" y="416.5" font-family="Tahoma" font-size="12" transform="rotate(90 165,416.5)" text-rendering="optimizeSpeed" fill="#000000">sloccount (1112)</text>
  <rect fill="blue" height="11.2" stroke="black" width="12" x="180" y="400.4"/>
  <text x="180" y="416.5" font-family="Tahoma" font-size="12" transform="rotate(90 180,416.5)" text-rendering="optimizeSpeed" fill="#000000">ws-cleanup (1116)</text>
  <rect fill="blue" height="11.2" stroke="black" width="12" x="195" y="400.3"/>
  <text x="195" y="416.5" font-family="Tahoma" font-size="12" transform="rotate(90 195,416.5)" text-rendering="optimizeSpeed" fill="#000000">next-build-number (1120)</text>
  <rect fill="blue" height="11.3" stroke="black" width="12" x="210" y="400.3"/>
  <text x="210" y="416.5" font-family="Tahoma" font-size="12" transform="rotate(90 210,416.5)" text-rendering="optimizeSpeed" fill="#000000">xvnc (1126)</text>
  <rect fill="blue" height="11.4" stroke="black" width="12" x="225" y="400.1"/>
  <text x="225" y="416.5" font-family="Tahoma" font-size="12" transform="rotate(90 225,416.5)" text-rendering="optimizeSpeed" fill="#000000">all-changes (1141)</text>
  <rect fill="blue" height="11.4" stroke="black" width="12" x="240" y="400.1"/>
  <text x="240" y="416.5" font-family="Tahoma" font-size="12" transform="rotate(90 240,416.5)" text-rendering="optimizeSpeed" fill="#000000">doclinks (1145)</text>
  <rect fill="blue" height="11.5" stroke="black" width="12" x="255" y="400.1"/>
  <text x="255" y="416.5" font-family="Tahoma" font-size="12" transform="rotate(90 255,416.5)" text-rendering="optimizeSpeed" fill="#000000">global-build-stats (1149)</text>
  <rect fill="blue" height="11.6" stroke="black" width="12" x="270" y="399.9"/>
  <text x="270" y="416.5" font-family="Tahoma" font-size="12" transform="rotate(90 270,416.5)" text-rendering="optimizeSpeed" fill="#000000">trac (1163)</text>
  <rect fill="blue" height="11.6" stroke="black" width="12" x="285" y="399.9"/>
  <text x="285" y="416.5" font-family="Tahoma" font-size="12" transform="rotate(90 285,416.5)" text-rendering="optimizeSpeed" fill="#000000">console-column-plugin (1164)</text>
  <rect fill="blue" height="11.9" stroke="black" width="12" x="300" y="399.6"/>
  <text x="300" y="416.5" font-family="Tahoma" font-size="12" transform="rotate(90 300,416.5)" text-rendering="optimizeSpeed" fill="#000000">sectioned-view (1191)</text>
  <rect fill="blue" height="12.0" stroke="black" width="12" x="315" y="399.5"/>
  <text x="315" y="416.5" font-family="Tahoma" font-size="12" transform="rotate(90 315,416.5)" text-rendering="optimizeSpeed" fill="#000000">ruby (1202)</text>
  <rect fill="blue" height="12.1" stroke="black" width="12" x="330" y="399.5"/>
  <text x="330" y="416.5" font-family="Tahoma" font-size="12" transform="rotate(90 330,416.5)" text-rendering="optimizeSpeed" fill="#000000">description-setter (1205)</text>
  <rect fill="blue" height="12.1" stroke="black" width="12" x="345" y="399.4"/>
  <text x="345" y="416.5" font-family="Tahoma" font-size="12" transform="rotate(90 345,416.5)" text-rendering="optimizeSpeed" fill="#000000">ftppublisher (1213)</text>
  <rect fill="blue" height="12.2" stroke="black" width="12" x="360" y="399.3"/>
  <text x="360" y="416.5" font-family="Tahoma" font-size="12" transform="rotate(90 360,416.5)" text-rendering="optimizeSpeed" fill="#000000">seleniumhq (1221)</text>
  <rect fill="blue" height="12.3" stroke="black" width="12" x="375" y="399.3"/>
  <text x="375" y="416.5" font-family="Tahoma" font-size="12" transform="rotate(90 375,416.5)" text-rendering="optimizeSpeed" fill="#000000">locale (1227)</text>
  <rect fill="blue" height="12.3" stroke="black" width="12" x="390" y="399.2"/>
  <text x="390" y="416.5" font-family="Tahoma" font-size="12" transform="rotate(90 390,416.5)" text-rendering="optimizeSpeed" fill="#000000">dependencyanalyzer (1235)</text>
  <rect fill="blue" height="12.6" stroke="black" width="12" x="405" y="399.0"/>
  <text x="405" y="416.5" font-family="Tahoma" font-size="12" transform="rotate(90 405,416.5)" text-rendering="optimizeSpeed" fill="#000000">redmine (1259)</text>
  <rect fill="blue" height="13.1" stroke="black" width="12" x="420" y="398.5"/>
  <text x="420" y="416.5" font-family="Tahoma" font-size="12" transform="rotate(90 420,416.5)" text-rendering="optimizeSpeed" fill="#000000">hudson-pview-plugin (1307)</text>
  <rect fill="blue" height="13.1" stroke="black" width="12" x="435" y="398.4"/>
  <text x="435" y="416.5" font-family="Tahoma" font-size="12" transform="rotate(90 435,416.5)" text-rendering="optimizeSpeed" fill="#000000">text-finder (1310)</text>
  <rect fill="blue" height="13.2" stroke="black" width="12" x="450" y="398.4"/>
  <text x="450" y="416.5" font-family="Tahoma" font-size="12" transform="rotate(90 450,416.5)" text-rendering="optimizeSpeed" fill="#000000">compact-columns (1316)</text>
  <rect fill="blue" height="13.2" stroke="black" width="12" x="465" y="398.3"/>
  <text x="465" y="416.5" font-family="Tahoma" font-size="12" transform="rotate(90 465,416.5)" text-rendering="optimizeSpeed" fill="#000000">monitoring (1325)</text>
  <rect fill="blue" height="13.3" stroke="black" width="12" x="480" y="398.2"/>
  <text x="480" y="416.5" font-family="Tahoma" font-size="12" transform="rotate(90 480,416.5)" text-rendering="optimizeSpeed" fill="#000000">nested-view (1330)</text>
  <rect fill="blue" height="13.4" stroke="black" width="12" x="495" y="398.2"/>
  <text x="495" y="416.5" font-family="Tahoma" font-size="12" transform="rotate(90 495,416.5)" text-rendering="optimizeSpeed" fill="#000000">doxygen (1338)</text>
  <rect fill="blue" height="13.4" stroke="black" width="12" x="510" y="398.1"/>
  <text x="510" y="416.5" font-family="Tahoma" font-size="12" transform="rotate(90 510,416.5)" text-rendering="optimizeSpeed" fill="#000000">thinBackup (1344)</text>
  <rect fill="blue" height="13.5" stroke="black" width="12" x="525" y="398.1"/>
  <text x="525" y="416.5" font-family="Tahoma" font-size="12" transform="rotate(90 525,416.5)" text-rendering="optimizeSpeed" fill="#000000">groovy (1348)</text>
  <rect fill="blue" height="13.5" stroke="black" width="12" x="540" y="398.1"/>
  <text x="540" y="416.5" font-family="Tahoma" font-size="12" transform="rotate(90 540,416.5)" text-rendering="optimizeSpeed" fill="#000000">versionnumber (1349)</text>
  <rect fill="blue" height="13.5" stroke="black" width="12" x="555" y="398.0"/>
  <text x="555" y="416.5" font-family="Tahoma" font-size="12" transform="rotate(90 555,416.5)" text-rendering="optimizeSpeed" fill="#000000">envinject (1354)</text>
  <rect fill="blue" height="13.6" stroke="black" width="12" x="570" y="398.0"/>
  <text x="570" y="416.5" font-family="Tahoma" font-size="12" transform="rotate(90 570,416.5)" text-rendering="optimizeSpeed" fill="#000000">cloverphp (1356)</text>
  <rect fill="blue" height="13.6" stroke="black" width="12" x="585" y="397.9"/>
  <text x="585" y="416.5" font-family="Tahoma" font-size="12" transform="rotate(90 585,416.5)" text-rendering="optimizeSpeed" fill="#000000">artifactdeployer (1364)</text>
  <rect fill="blue" height="13.8" stroke="black" width="12" x="600" y="397.8"/>
  <text x="600" y="416.5" font-family="Tahoma" font-size="12" transform="rotate(90 600,416.5)" text-rendering="optimizeSpeed" fill="#000000">port-allocator (1375)</text>
  <rect fill="blue" height="13.8" stroke="black" width="12" x="615" y="397.7"/>
  <text x="615" y="416.5" font-family="Tahoma" font-size="12" transform="rotate(90 615,416.5)" text-rendering="optimizeSpeed" fill="#000000">emotional-hudson (1383)</text>
  <rect fill="blue" height="13.9" stroke="black" width="12" x="630" y="397.6"/>
  <text x="630" y="416.5" font-family="Tahoma" font-size="12" transform="rotate(90 630,416.5)" text-rendering="optimizeSpeed" fill="#000000">depgraph-view (1390)</text>
  <rect fill="blue" height="14.4" stroke="black" width="12" x="645" y="397.2"/>
  <text x="645" y="416.5" font-family="Tahoma" font-size="12" transform="rotate(90 645,416.5)" text-rendering="optimizeSpeed" fill="#000000">clover (1439)</text>
  <rect fill="blue" height="14.6" stroke="black" width="12" x="660" y="397.0"/>
  <text x="660" y="416.5" font-family="Tahoma" font-size="12" transform="rotate(90 660,416.5)" text-rendering="optimizeSpeed" fill="#000000">statusmonitor (1458)</text>
  <rect fill="blue" height="15.0" stroke="black" width="12" x="675" y="396.6"/>
  <text x="675" y="416.5" font-family="Tahoma" font-size="12" transform="rotate(90 675,416.5)" text-rendering="optimizeSpeed" fill="#000000">artifactory (1497)</text>
  <rect fill="blue" height="15.3" stroke="black" width="12" x="690" y="396.3"/>
  <text x="690" y="416.5" font-family="Tahoma" font-size="12" transform="rotate(90 690,416.5)" text-rendering="optimizeSpeed" fill="#000000">copy-to-slave (1529)</text>
  <rect fill="blue" height="15.5" stroke="black" width="12" x="705" y="396.1"/>
  <text x="705" y="416.5" font-family="Tahoma" font-size="12" transform="rotate(90 705,416.5)" text-rendering="optimizeSpeed" fill="#000000">rake (1548)</text>
  <rect fill="blue" height="15.9" stroke="black" width="12" x="720" y="395.6"/>
  <text x="720" y="416.5" font-family="Tahoma" font-size="12" transform="rotate(90 720,416.5)" text-rendering="optimizeSpeed" fill="#000000">svn-release-mgr (1591)</text>
  <rect fill="blue" height="15.9" stroke="black" width="12" x="735" y="395.6"/>
  <text x="735" y="416.5" font-family="Tahoma" font-size="12" transform="rotate(90 735,416.5)" text-rendering="optimizeSpeed" fill="#000000">view-job-filters (1591)</text>
  <rect fill="blue" height="16.3" stroke="black" width="12" x="750" y="395.3"/>
  <text x="750" y="416.5" font-family="Tahoma" font-size="12" transform="rotate(90 750,416.5)" text-rendering="optimizeSpeed" fill="#000000">python (1628)</text>
  <rect fill="blue" height="16.4" stroke="black" width="12" x="765" y="395.2"/>
  <text x="765" y="416.5" font-family="Tahoma" font-size="12" transform="rotate(90 765,416.5)" text-rendering="optimizeSpeed" fill="#000000">release (1635)</text>
  <rect fill="blue" height="16.5" stroke="black" width="12" x="780" y="395.1"/>
  <text x="780" y="416.5" font-family="Tahoma" font-size="12" transform="rotate(90 780,416.5)" text-rendering="optimizeSpeed" fill="#000000">downstream-buildview (1649)</text>
  <rect fill="blue" height="16.6" stroke="black" width="12" x="795" y="394.9"/>
  <text x="795" y="416.5" font-family="Tahoma" font-size="12" transform="rotate(90 795,416.5)" text-rendering="optimizeSpeed" fill="#000000">timestamper (1664)</text>
  <rect fill="blue" height="17.0" stroke="black" width="12" x="810" y="394.5"/>
  <text x="810" y="416.5" font-family="Tahoma" font-size="12" transform="rotate(90 810,416.5)" text-rendering="optimizeSpeed" fill="#000000">build-pipeline-plugin (1704)</text>
  <rect fill="blue" height="17.3" stroke="black" width="12" x="825" y="394.3"/>
  <text x="825" y="416.5" font-family="Tahoma" font-size="12" transform="rotate(90 825,416.5)" text-rendering="optimizeSpeed" fill="#000000">sidebar-link (1729)</text>
  <rect fill="blue" height="17.7" stroke="black" width="12" x="840" y="393.8"/>
  <text x="840" y="416.5" font-family="Tahoma" font-size="12" transform="rotate(90 840,416.5)" text-rendering="optimizeSpeed" fill="#000000">perforce (1773)</text>
  <rect fill="blue" height="18.3" stroke="black" width="12" x="855" y="393.2"/>
  <text x="855" y="416.5" font-family="Tahoma" font-size="12" transform="rotate(90 855,416.5)" text-rendering="optimizeSpeed" fill="#000000">jabber (1831)</text>
  <rect fill="blue" height="18.6" stroke="black" width="12" x="870" y="393.0"/>
  <text x="870" y="416.5" font-family="Tahoma" font-size="12" transform="rotate(90 870,416.5)" text-rendering="optimizeSpeed" fill="#000000">join (1859)</text>
  <rect fill="blue" height="18.7" stroke="black" width="12" x="885" y="392.9"/>
  <text x="885" y="416.5" font-family="Tahoma" font-size="12" transform="rotate(90 885,416.5)" text-rendering="optimizeSpeed" fill="#000000">audit-trail (1866)</text>
  <rect fill="blue" height="18.7" stroke="black" width="12" x="900" y="392.8"/>
  <text x="900" y="416.5" font-family="Tahoma" font-size="12" transform="rotate(90 900,416.5)" text-rendering="optimizeSpeed" fill="#000000">m2-extra-steps (1871)</text>
  <rect fill="blue" height="18.8" stroke="black" width="12" x="915" y="392.8"/>
  <text x="915" y="416.5" font-family="Tahoma" font-size="12" transform="rotate(90 915,416.5)" text-rendering="optimizeSpeed" fill="#000000">jobConfigHistory (1875)</text>
  <rect fill="blue" height="19.0" stroke="black" width="12" x="930" y="392.6"/>
  <text x="930" y="416.5" font-family="Tahoma" font-size="12" transform="rotate(90 930,416.5)" text-rendering="optimizeSpeed" fill="#000000">github-api (1896)</text>
  <rect fill="blue" height="19.0" stroke="black" width="12" x="945" y="392.5"/>
  <text x="945" y="416.5" font-family="Tahoma" font-size="12" transform="rotate(90 945,416.5)" text-rendering="optimizeSpeed" fill="#000000">nunit (1900)</text>
  <rect fill="blue" height="19.2" stroke="black" width="12" x="960" y="392.3"/>
  <text x="960" y="416.5" font-family="Tahoma" font-size="12" transform="rotate(90 960,416.5)" text-rendering="optimizeSpeed" fill="#000000">ci-game (1925)</text>
  <rect fill="blue" height="19.3" stroke="black" width="12" x="975" y="392.2"/>
  <text x="975" y="416.5" font-family="Tahoma" font-size="12" transform="rotate(90 975,416.5)" text-rendering="optimizeSpeed" fill="#000000">radiatorviewplugin (1931)</text>
  <rect fill="blue" height="20.3" stroke="black" width="12" x="990" y="391.2"/>
  <text x="990" y="416.5" font-family="Tahoma" font-size="12" transform="rotate(90 990,416.5)" text-rendering="optimizeSpeed" fill="#000000">locks-and-latches (2031)</text>
  <rect fill="blue" height="20.4" stroke="black" width="12" x="1005" y="391.2"/>
  <text x="1005" y="416.5" font-family="Tahoma" font-size="12" transform="rotate(90 1005,416.5)" text-rendering="optimizeSpeed" fill="#000000">performance (2036)</text>
  <rect fill="blue" height="20.8" stroke="black" width="12" x="1020" y="390.8"/>
  <text x="1020" y="416.5" font-family="Tahoma" font-size="12" transform="rotate(90 1020,416.5)" text-rendering="optimizeSpeed" fill="#000000">jdepend (2078)</text>
  <rect fill="blue" height="21.7" stroke="black" width="12" x="1035" y="389.8"/>
  <text x="1035" y="416.5" font-family="Tahoma" font-size="12" transform="rotate(90 1035,416.5)" text-rendering="optimizeSpeed" fill="#000000">batch-task (2170)</text>
  <rect fill="blue" height="22.4" stroke="black" width="12" x="1050" y="389.2"/>
  <text x="1050" y="416.5" font-family="Tahoma" font-size="12" transform="rotate(90 1050,416.5)" text-rendering="optimizeSpeed" fill="#000000">promoted-builds (2236)</text>
  <rect fill="blue" height="22.4" stroke="black" width="12" x="1065" y="389.1"/>
  <text x="1065" y="416.5" font-family="Tahoma" font-size="12" transform="rotate(90 1065,416.5)" text-rendering="optimizeSpeed" fill="#000000">ssh (2242)</text>
  <rect fill="blue" height="23.3" stroke="black" width="12" x="1080" y="388.2"/>
  <text x="1080" y="416.5" font-family="Tahoma" font-size="12" transform="rotate(90 1080,416.5)" text-rendering="optimizeSpeed" fill="#000000">log-parser (2330)</text>
  <rect fill="blue" height="23.9" stroke="black" width="12" x="1095" y="387.6"/>
  <text x="1095" y="416.5" font-family="Tahoma" font-size="12" transform="rotate(90 1095,416.5)" text-rendering="optimizeSpeed" fill="#000000">token-macro (2395)</text>
  <rect fill="blue" height="24.2" stroke="black" width="12" x="1110" y="387.4"/>
  <text x="1110" y="416.5" font-family="Tahoma" font-size="12" transform="rotate(90 1110,416.5)" text-rendering="optimizeSpeed" fill="#000000">emma (2419)</text>
  <rect fill="blue" height="24.3" stroke="black" width="12" x="1125" y="387.2"/>
  <text x="1125" y="416.5" font-family="Tahoma" font-size="12" transform="rotate(90 1125,416.5)" text-rendering="optimizeSpeed" fill="#000000">publish-over-ssh (2434)</text>
  <rect fill="blue" height="24.6" stroke="black" width="12" x="1140" y="386.9"/>
  <text x="1140" y="416.5" font-family="Tahoma" font-size="12" transform="rotate(90 1140,416.5)" text-rendering="optimizeSpeed" fill="#000000">svn-tag (2464)</text>
  <rect fill="blue" height="25.9" stroke="black" width="12" x="1155" y="385.7"/>
  <text x="1155" y="416.5" font-family="Tahoma" font-size="12" transform="rotate(90 1155,416.5)" text-rendering="optimizeSpeed" fill="#000000">m2release (2589)</text>
  <rect fill="blue" height="26.0" stroke="black" width="12" x="1170" y="385.6"/>
  <text x="1170" y="416.5" font-family="Tahoma" font-size="12" transform="rotate(90 1170,416.5)" text-rendering="optimizeSpeed" fill="#000000">scp (2598)</text>
  <rect fill="blue" height="26.3" stroke="black" width="12" x="1185" y="385.2"/>
  <text x="1185" y="416.5" font-family="Tahoma" font-size="12" transform="rotate(90 1185,416.5)" text-rendering="optimizeSpeed" fill="#000000">mercurial (2633)</text>
  <rect fill="blue" height="29.1" stroke="black" width="12" x="1200" y="382.5"/>
  <text x="1200" y="416.5" font-family="Tahoma" font-size="12" transform="rotate(90 1200,416.5)" text-rendering="optimizeSpeed" fill="#000000">plot (2905)</text>
  <rect fill="blue" height="29.6" stroke="black" width="12" x="1215" y="382.0"/>
  <text x="1215" y="416.5" font-family="Tahoma" font-size="12" transform="rotate(90 1215,416.5)" text-rendering="optimizeSpeed" fill="#000000">tasks (2956)</text>
  <rect fill="blue" height="30.1" stroke="black" width="12" x="1230" y="381.4"/>
  <text x="1230" y="416.5" font-family="Tahoma" font-size="12" transform="rotate(90 1230,416.5)" text-rendering="optimizeSpeed" fill="#000000">postbuild-task (3012)</text>
  <rect fill="blue" height="30.1" stroke="black" width="12" x="1245" y="381.4"/>
  <text x="1245" y="416.5" font-family="Tahoma" font-size="12" transform="rotate(90 1245,416.5)" text-rendering="optimizeSpeed" fill="#000000">backup (3014)</text>
  <rect fill="blue" height="31.6" stroke="black" width="12" x="1260" y="379.9"/>
  <text x="1260" y="416.5" font-family="Tahoma" font-size="12" transform="rotate(90 1260,416.5)" text-rendering="optimizeSpeed" fill="#000000">instant-messaging (3161)</text>
  <rect fill="blue" height="32.6" stroke="black" width="12" x="1275" y="379.0"/>
  <text x="1275" y="416.5" font-family="Tahoma" font-size="12" transform="rotate(90 1275,416.5)" text-rendering="optimizeSpeed" fill="#000000">github (3257)</text>
  <rect fill="blue" height="32.9" stroke="black" width="12" x="1290" y="378.6"/>
  <text x="1290" y="416.5" font-family="Tahoma" font-size="12" transform="rotate(90 1290,416.5)" text-rendering="optimizeSpeed" fill="#000000">jira (3291)</text>
  <rect fill="blue" height="33.6" stroke="black" width="12" x="1305" y="378.0"/>
  <text x="1305" y="416.5" font-family="Tahoma" font-size="12" transform="rotate(90 1305,416.5)" text-rendering="optimizeSpeed" fill="#000000">deploy (3359)</text>
  <rect fill="blue" height="33.7" stroke="black" width="12" x="1320" y="377.8"/>
  <text x="1320" y="416.5" font-family="Tahoma" font-size="12" transform="rotate(90 1320,416.5)" text-rendering="optimizeSpeed" fill="#000000">copyartifact (3372)</text>
  <rect fill="blue" height="34.1" stroke="black" width="12" x="1335" y="377.5"/>
  <text x="1335" y="416.5" font-family="Tahoma" font-size="12" transform="rotate(90 1335,416.5)" text-rendering="optimizeSpeed" fill="#000000">msbuild (3406)</text>
  <rect fill="blue" height="34.2" stroke="black" width="12" x="1350" y="377.3"/>
  <text x="1350" y="416.5" font-family="Tahoma" font-size="12" transform="rotate(90 1350,416.5)" text-rendering="optimizeSpeed" fill="#000000">build-timeout (3423)</text>
  <rect fill="blue" height="36.1" stroke="black" width="12" x="1365" y="375.4"/>
  <text x="1365" y="416.5" font-family="Tahoma" font-size="12" transform="rotate(90 1365,416.5)" text-rendering="optimizeSpeed" fill="#000000">dry (3611)</text>
  <rect fill="blue" height="37.4" stroke="black" width="12" x="1380" y="374.2"/>
  <text x="1380" y="416.5" font-family="Tahoma" font-size="12" transform="rotate(90 1380,416.5)" text-rendering="optimizeSpeed" fill="#000000">active-directory (3739)</text>
  <rect fill="blue" height="39.0" stroke="black" width="12" x="1395" y="372.6"/>
  <text x="1395" y="416.5" font-family="Tahoma" font-size="12" transform="rotate(90 1395,416.5)" text-rendering="optimizeSpeed" fill="#000000">chucknorris (3899)</text>
  <rect fill="blue" height="41.2" stroke="black" width="12" x="1410" y="370.3"/>
  <text x="1410" y="416.5" font-family="Tahoma" font-size="12" transform="rotate(90 1410,416.5)" text-rendering="optimizeSpeed" fill="#000000">xunit (4123)</text>
  <rect fill="blue" height="43.5" stroke="black" width="12" x="1425" y="368.0"/>
  <text x="1425" y="416.5" font-family="Tahoma" font-size="12" transform="rotate(90 1425,416.5)" text-rendering="optimizeSpeed" fill="#000000">analysis-collector (4350)</text>
  <rect fill="blue" height="44.0" stroke="black" width="12" x="1440" y="367.5"/>
  <text x="1440" y="416.5" font-family="Tahoma" font-size="12" transform="rotate(90 1440,416.5)" text-rendering="optimizeSpeed" fill="#000000">disk-usage (4401)</text>
  <rect fill="blue" height="44.4" stroke="black" width="12" x="1455" y="367.1"/>
  <text x="1455" y="416.5" font-family="Tahoma" font-size="12" transform="rotate(90 1455,416.5)" text-rendering="optimizeSpeed" fill="#000000">parameterized-trigger (4444)</text>
  <rect fill="blue" height="45.9" stroke="black" width="12" x="1470" y="365.7"/>
  <text x="1470" y="416.5" font-family="Tahoma" font-size="12" transform="rotate(90 1470,416.5)" text-rendering="optimizeSpeed" fill="#000000">warnings (4586)</text>
  <rect fill="blue" height="47.0" stroke="black" width="12" x="1485" y="364.5"/>
  <text x="1485" y="416.5" font-family="Tahoma" font-size="12" transform="rotate(90 1485,416.5)" text-rendering="optimizeSpeed" fill="#000000">dashboard-view (4704)</text>
  <rect fill="blue" height="48.6" stroke="black" width="12" x="1500" y="362.9"/>
  <text x="1500" y="416.5" font-family="Tahoma" font-size="12" transform="rotate(90 1500,416.5)" text-rendering="optimizeSpeed" fill="#000000">violations (4862)</text>
  <rect fill="blue" height="49.5" stroke="black" width="12" x="1515" y="362.0"/>
  <text x="1515" y="416.5" font-family="Tahoma" font-size="12" transform="rotate(90 1515,416.5)" text-rendering="optimizeSpeed" fill="#000000">htmlpublisher (4954)</text>
  <rect fill="blue" height="51.9" stroke="black" width="12" x="1530" y="359.7"/>
  <text x="1530" y="416.5" font-family="Tahoma" font-size="12" transform="rotate(90 1530,416.5)" text-rendering="optimizeSpeed" fill="#000000">sonar (5189)</text>
  <rect fill="blue" height="53.2" stroke="black" width="12" x="1545" y="358.4"/>
  <text x="1545" y="416.5" font-family="Tahoma" font-size="12" transform="rotate(90 1545,416.5)" text-rendering="optimizeSpeed" fill="#000000">findbugs (5319)</text>
  <rect fill="blue" height="54.4" stroke="black" width="12" x="1560" y="357.2"/>
  <text x="1560" y="416.5" font-family="Tahoma" font-size="12" transform="rotate(90 1560,416.5)" text-rendering="optimizeSpeed" fill="#000000">pmd (5436)</text>
  <rect fill="blue" height="59.5" stroke="black" width="12" x="1575" y="352.0"/>
  <text x="1575" y="416.5" font-family="Tahoma" font-size="12" transform="rotate(90 1575,416.5)" text-rendering="optimizeSpeed" fill="#000000">cobertura (5954)</text>
  <rect fill="blue" height="62.0" stroke="black" width="12" x="1590" y="349.6"/>
  <text x="1590" y="416.5" font-family="Tahoma" font-size="12" transform="rotate(90 1590,416.5)" text-rendering="optimizeSpeed" fill="#000000">checkstyle (6199)</text>
  <rect fill="blue" height="80.2" stroke="black" width="12" x="1605" y="331.4"/>
  <text x="1605" y="416.5" font-family="Tahoma" font-size="12" transform="rotate(90 1605,416.5)" text-rendering="optimizeSpeed" fill="#000000">greenballs (8017)</text>
  <rect fill="blue" height="85.0" stroke="black" width="12" x="1620" y="326.5"/>
  <text x="1620" y="416.5" font-family="Tahoma" font-size="12" transform="rotate(90 1620,416.5)" text-rendering="optimizeSpeed" fill="#000000">email-ext (8504)</text>
  <rect fill="blue" height="111.5" stroke="black" width="12" x="1635" y="300.1"/>
  <text x="1635" y="416.5" font-family="Tahoma" font-size="12" transform="rotate(90 1635,416.5)" text-rendering="optimizeSpeed" fill="#000000">git (11149)</text>
  <rect fill="blue" height="118.3" stroke="black" width="12" x="1650" y="293.3"/>
  <text x="1650" y="416.5" font-family="Tahoma" font-size="12" transform="rotate(90 1650,416.5)" text-rendering="optimizeSpeed" fill="#000000">analysis-core (11829)</text>
  <rect fill="blue" height="253.2" stroke="black" width="12" x="1665" y="158.3"/>
  <text x="1665" y="416.5" font-family="Tahoma" font-size="12" transform="rotate(90 1665,416.5)" text-rendering="optimizeSpeed" fill="#000000">ant (25325)</text>
  <rect fill="blue" height="253.7" stroke="black" width="12" x="1680" y="157.8"/>
  <text x="1680" y="416.5" font-family="Tahoma" font-size="12" transform="rotate(90 1680,416.5)" text-rendering="optimizeSpeed" fill="#000000">javadoc (25372)</text>
  <rect fill="blue" height="255.9" stroke="black" width="12" x="1695" y="155.7"/>
  <text x="1695" y="416.5" font-family="Tahoma" font-size="12" transform="rotate(90 1695,416.5)" text-rendering="optimizeSpeed" fill="#000000">translation (25586)</text>
  <rect fill="blue" height="342.5" stroke="black" width="12" x="1710" y="69.1"/>
  <text x="1710" y="416.5" font-family="Tahoma" font-size="12" transform="rotate(90 1710,416.5)" text-rendering="optimizeSpeed" fill="#000000">cvs (34246)</text>
  <rect fill="blue" height="354.8" stroke="black" width="12" x="1725" y="56.7"/>
  <text x="1725" y="416.5" font-family="Tahoma" font-size="12" transform="rotate(90 1725,416.5)" text-rendering="optimizeSpeed" fill="#000000">maven-plugin (35482)</text>
  <rect fill="blue" height="357.3" stroke="black" width="12" x="1740" y="54.2"/>
  <text x="1740" y="416.5" font-family="Tahoma" font-size="12" transform="rotate(90 1740,416.5)" text-rendering="optimizeSpeed" fill="#000000">subversion (35732)</text>
  <rect fill="blue" height="361.6" stroke="black" width="12" x="1755" y="50.0"/>
  <text x="1755" y="416.5" font-family="Tahoma" font-size="12" transform="rotate(90 1755,416.5)" text-rendering="optimizeSpeed" fill="#000000">ssh-slaves (36155)</text>
  <text x="10" y="40" font-family="Tahoma" font-size="20" text-rendering="optimizeSpeed" fill="#000000">Plugin installations (installations &gt; 1000)</text>
</svg>
