<svg xmlns="http://www.w3.org/2000/svg" version="1.1" preserveAspectRatio="xMidYMid meet" viewBox="0 0 200 1139.3">
  <rect fill="blue" height="0.0" stroke="black" width="12" x="15" y="839.3"/>
  <text x="15" y="844.3" font-family="Tahoma" font-size="12" transform="rotate(90 15,844.3)" text-rendering="optimizeSpeed" fill="#000000">hudson-jbpm-JbpmProject (12)</text>
  <rect fill="blue" height="0.0" stroke="black" width="12" x="30" y="839.3"/>
  <text x="30" y="844.3" font-family="Tahoma" font-size="12" transform="rotate(90 30,844.3)" text-rendering="optimizeSpeed" fill="#000000">hudson-aarworkflow-AARWorkflowProject (23)</text>
  <rect fill="blue" height="0.0" stroke="black" width="12" x="45" y="839.3"/>
  <text x="45" y="844.3" font-family="Tahoma" font-size="12" transform="rotate(90 45,844.3)" text-rendering="optimizeSpeed" fill="#000000">hudson-mm-MMModuleSet (34)</text>
  <rect fill="blue" height="0.0" stroke="black" width="12" x="60" y="839.3"/>
  <text x="60" y="844.3" font-family="Tahoma" font-size="12" transform="rotate(90 60,844.3)" text-rendering="optimizeSpeed" fill="#000000">hudson-plugins-project_inheritance-projects-InheritanceProject (35)</text>
  <rect fill="blue" height="0.1" stroke="black" width="12" x="75" y="839.2"/>
  <text x="75" y="844.3" font-family="Tahoma" font-size="12" transform="rotate(90 75,844.3)" text-rendering="optimizeSpeed" fill="#000000">hudson-workflow-WorkflowProject (140)</text>
  <rect fill="blue" height="3.4" stroke="black" width="12" x="90" y="836.0"/>
  <text x="90" y="844.3" font-family="Tahoma" font-size="12" transform="rotate(90 90,844.3)" text-rendering="optimizeSpeed" fill="#000000">hudson-ivy-IvyModuleSet (3352)</text>
  <rect fill="blue" height="5.5" stroke="black" width="12" x="105" y="833.8"/>
  <text x="105" y="844.3" font-family="Tahoma" font-size="12" transform="rotate(90 105,844.3)" text-rendering="optimizeSpeed" fill="#000000">hudson-model-ExternalJob (5536)</text>
  <rect fill="blue" height="37.2" stroke="black" width="12" x="120" y="802.1"/>
  <text x="120" y="844.3" font-family="Tahoma" font-size="12" transform="rotate(90 120,844.3)" text-rendering="optimizeSpeed" fill="#000000">hudson-matrix-MatrixProject (37209)</text>
  <rect fill="blue" height="227.2" stroke="black" width="12" x="135" y="612.1"/>
  <text x="135" y="844.3" font-family="Tahoma" font-size="12" transform="rotate(90 135,844.3)" text-rendering="optimizeSpeed" fill="#000000">hudson-maven-MavenModuleSet (227182)</text>
  <rect fill="blue" height="789.3" stroke="black" width="12" x="150" y="50.0"/>
  <text x="150" y="844.3" font-family="Tahoma" font-size="12" transform="rotate(90 150,844.3)" text-rendering="optimizeSpeed" fill="#000000">hudson-model-FreeStyleProject (789324)</text>
  <text x="10" y="40" font-family="Tahoma" font-size="20" text-rendering="optimizeSpeed" fill="#000000">Jobs (total: 1062847)</text>
</svg>
