<svg xmlns="http://www.w3.org/2000/svg" version="1.1" preserveAspectRatio="xMidYMid meet" viewBox="0 0 720 1880">
  <text x="30" y="40" font-family="sans-serif" font-size="16">Nodes, total: 169350</text>
  <path d="M 200,300 L 0.0,150.0 A 150,150 0 0 1 4.1,150.0 Z" fill="BurlyWood" stroke="black" stroke-width="1"/>
  <rect x="370" y="50" width="20" height="30" fill="BurlyWood" stroke="black" stroke-width="1"/>
  <text x="400" y="38" font-family="sans-serif" font-size="16">AIX (ppc) (316)</text>
  <path d="M 200,300 L 4.1,150.0 A 150,150 0 0 1 7.6,150.0 Z" fill="CadetBlue" stroke="black" stroke-width="1"/>
  <rect x="370" y="51" width="20" height="30" fill="CadetBlue" stroke="black" stroke-width="1"/>
  <text x="400" y="68" font-family="sans-serif" font-size="16">AIX (ppc64) (268)</text>
  <path d="M 200,300 L 7.6,150.0 A 150,150 0 0 1 7.6,150.0 Z" fill="red" stroke="black" stroke-width="1"/>
  <rect x="370" y="52" width="20" height="30" fill="red" stroke="black" stroke-width="1"/>
  <text x="400" y="98" font-family="sans-serif" font-size="16">Darwin (i386) (3)</text>
  <path d="M 200,300 L 7.6,150.0 A 150,150 0 0 1 7.6,150.0 Z" fill="blue" stroke="black" stroke-width="1"/>
  <rect x="370" y="53" width="20" height="30" fill="blue" stroke="black" stroke-width="1"/>
  <text x="400" y="128" font-family="sans-serif" font-size="16">Darwin (universal) (1)</text>
  <path d="M 200,300 L 7.6,150.0 A 150,150 0 0 1 10.7,149.9 Z" fill="yellow" stroke="black" stroke-width="1"/>
  <rect x="370" y="54" width="20" height="30" fill="yellow" stroke="black" stroke-width="1"/>
  <text x="400" y="158" font-family="sans-serif" font-size="16">FreeBSD (amd64) (235)</text>
  <path d="M 200,300 L 10.7,149.9 A 150,150 0 0 1 12.3,149.9 Z" fill="green" stroke="black" stroke-width="1"/>
  <rect x="370" y="55" width="20" height="30" fill="green" stroke="black" stroke-width="1"/>
  <text x="400" y="188" font-family="sans-serif" font-size="16">FreeBSD (i386) (122)</text>
  <path d="M 200,300 L 12.3,149.9 A 150,150 0 0 1 12.3,149.9 Z" fill="gold" stroke="black" stroke-width="1"/>
  <rect x="370" y="56" width="20" height="30" fill="gold" stroke="black" stroke-width="1"/>
  <text x="400" y="218" font-family="sans-serif" font-size="16">GNU/kFreeBSD (amd64) (1)</text>
  <path d="M 200,300 L 12.3,149.9 A 150,150 0 0 1 14.1,149.9 Z" fill="brown" stroke="black" stroke-width="1"/>
  <rect x="370" y="57" width="20" height="30" fill="brown" stroke="black" stroke-width="1"/>
  <text x="400" y="248" font-family="sans-serif" font-size="16">HP-UX (IA64N) (137)</text>
  <path d="M 200,300 L 14.1,149.9 A 150,150 0 0 1 14.4,149.9 Z" fill="Azure" stroke="black" stroke-width="1"/>
  <rect x="370" y="58" width="20" height="30" fill="Azure" stroke="black" stroke-width="1"/>
  <text x="400" y="278" font-family="sans-serif" font-size="16">HP-UX (IA64W) (28)</text>
  <path d="M 200,300 L 14.4,149.9 A 150,150 0 0 1 15.3,149.9 Z" fill="pink" stroke="black" stroke-width="1"/>
  <rect x="370" y="59" width="20" height="30" fill="pink" stroke="black" stroke-width="1"/>
  <text x="400" y="308" font-family="sans-serif" font-size="16">HP-UX (PA_RISC2.0) (69)</text>
  <path d="M 200,300 L 15.3,149.9 A 150,150 0 0 1 15.3,149.9 Z" fill="khaki" stroke="black" stroke-width="1"/>
  <rect x="370" y="60" width="20" height="30" fill="khaki" stroke="black" stroke-width="1"/>
  <text x="400" y="338" font-family="sans-serif" font-size="16">HP-UX (PA_RISC2.0W) (1)</text>
  <path d="M 200,300 L 15.3,149.9 A 150,150 0 0 1 15.3,149.9 Z" fill="gray" stroke="black" stroke-width="1"/>
  <rect x="370" y="61" width="20" height="30" fill="gray" stroke="black" stroke-width="1"/>
  <text x="400" y="368" font-family="sans-serif" font-size="16">HP-UX (ia64) (1)</text>
  <path d="M 200,300 L 15.3,149.9 A 150,150 0 0 1 265.9,-97.6 Z" fill="Aqua" stroke="black" stroke-width="1"/>
  <rect x="370" y="62" width="20" height="30" fill="Aqua" stroke="black" stroke-width="1"/>
  <text x="400" y="398" font-family="sans-serif" font-size="16">Linux (amd64) (60241)</text>
  <path d="M 200,300 L 265.9,-97.6 A 150,150 0 0 1 265.2,-97.9 Z" fill="Aquamarine" stroke="black" stroke-width="1"/>
  <rect x="370" y="63" width="20" height="30" fill="Aquamarine" stroke="black" stroke-width="1"/>
  <text x="400" y="428" font-family="sans-serif" font-size="16">Linux (arm) (77)</text>
  <path d="M 200,300 L 265.2,-97.9 A 150,150 0 0 1 92.4,-144.7 Z" fill="beige" stroke="black" stroke-width="1"/>
  <rect x="370" y="64" width="20" height="30" fill="beige" stroke="black" stroke-width="1"/>
  <text x="400" y="458" font-family="sans-serif" font-size="16">Linux (i386) (15976)</text>
  <path d="M 200,300 L 92.4,-144.7 A 150,150 0 0 1 92.1,-144.7 Z" fill="blueviolet" stroke="black" stroke-width="1"/>
  <rect x="370" y="65" width="20" height="30" fill="blueviolet" stroke="black" stroke-width="1"/>
  <text x="400" y="488" font-family="sans-serif" font-size="16">Linux (ia64) (20)</text>
  <path d="M 200,300 L 92.1,-144.7 A 150,150 0 0 1 92.1,-144.7 Z" fill="Bisque" stroke="black" stroke-width="1"/>
  <rect x="370" y="66" width="20" height="30" fill="Bisque" stroke="black" stroke-width="1"/>
  <text x="400" y="518" font-family="sans-serif" font-size="16">Linux (mipsel) (1)</text>
  <path d="M 200,300 L 92.1,-144.7 A 150,150 0 0 1 91.7,-144.8 Z" fill="coral" stroke="black" stroke-width="1"/>
  <rect x="370" y="67" width="20" height="30" fill="coral" stroke="black" stroke-width="1"/>
  <text x="400" y="548" font-family="sans-serif" font-size="16">Linux (ppc) (33)</text>
  <path d="M 200,300 L 91.7,-144.8 A 150,150 0 0 1 91.1,-144.8 Z" fill="darkblue" stroke="black" stroke-width="1"/>
  <rect x="370" y="68" width="20" height="30" fill="darkblue" stroke="black" stroke-width="1"/>
  <text x="400" y="578" font-family="sans-serif" font-size="16">Linux (ppc64) (44)</text>
  <path d="M 200,300 L 91.1,-144.8 A 150,150 0 0 1 91.1,-144.8 Z" fill="crimson" stroke="black" stroke-width="1"/>
  <rect x="370" y="69" width="20" height="30" fill="crimson" stroke="black" stroke-width="1"/>
  <text x="400" y="608" font-family="sans-serif" font-size="16">Linux (s390) (3)</text>
  <path d="M 200,300 L 91.1,-144.8 A 150,150 0 0 1 90.6,-144.9 Z" fill="cyan" stroke="black" stroke-width="1"/>
  <rect x="370" y="70" width="20" height="30" fill="cyan" stroke="black" stroke-width="1"/>
  <text x="400" y="638" font-family="sans-serif" font-size="16">Linux (s390x) (42)</text>
  <path d="M 200,300 L 90.6,-144.9 A 150,150 0 0 1 90.6,-144.9 Z" fill="darkred" stroke="black" stroke-width="1"/>
  <rect x="370" y="71" width="20" height="30" fill="darkred" stroke="black" stroke-width="1"/>
  <text x="400" y="668" font-family="sans-serif" font-size="16">Linux (sparc) (1)</text>
  <path d="M 200,300 L 90.6,-144.9 A 150,150 0 0 1 88.7,-145.1 Z" fill="ivory" stroke="black" stroke-width="1"/>
  <rect x="370" y="72" width="20" height="30" fill="ivory" stroke="black" stroke-width="1"/>
  <text x="400" y="698" font-family="sans-serif" font-size="16">Linux (x86) (148)</text>
  <path d="M 200,300 L 88.7,-145.1 A 150,150 0 0 1 88.6,-145.1 Z" fill="lime" stroke="black" stroke-width="1"/>
  <rect x="370" y="73" width="20" height="30" fill="lime" stroke="black" stroke-width="1"/>
  <text x="400" y="728" font-family="sans-serif" font-size="16">Mac OS X (amd64) (9)</text>
  <path d="M 200,300 L 88.6,-145.1 A 150,150 0 0 1 87.4,-145.2 Z" fill="maroon" stroke="black" stroke-width="1"/>
  <rect x="370" y="74" width="20" height="30" fill="maroon" stroke="black" stroke-width="1"/>
  <text x="400" y="758" font-family="sans-serif" font-size="16">Mac OS X (i386) (94)</text>
  <path d="M 200,300 L 87.4,-145.2 A 150,150 0 0 1 87.4,-145.3 Z" fill="navy" stroke="black" stroke-width="1"/>
  <rect x="370" y="75" width="20" height="30" fill="navy" stroke="black" stroke-width="1"/>
  <text x="400" y="788" font-family="sans-serif" font-size="16">Mac OS X (ppc) (5)</text>
  <path d="M 200,300 L 87.4,-145.3 A 150,150 0 0 1 -6.3,-150.0 Z" fill="olive" stroke="black" stroke-width="1"/>
  <rect x="370" y="76" width="20" height="30" fill="olive" stroke="black" stroke-width="1"/>
  <text x="400" y="818" font-family="sans-serif" font-size="16">Mac OS X (x86_64) (7285)</text>
  <path d="M 200,300 L -6.3,-150.0 A 150,150 0 0 1 -341.2,-33.5 Z" fill="plum" stroke="black" stroke-width="1"/>
  <rect x="370" y="77" width="20" height="30" fill="plum" stroke="black" stroke-width="1"/>
  <text x="400" y="848" font-family="sans-serif" font-size="16">N/A (35785)</text>
  <path d="M 200,300 L -341.2,-33.5 A 150,150 0 0 1 -341.2,-33.5 Z" fill="peru" stroke="black" stroke-width="1"/>
  <rect x="370" y="78" width="20" height="30" fill="peru" stroke="black" stroke-width="1"/>
  <text x="400" y="878" font-family="sans-serif" font-size="16">NetBSD (amd64) (4)</text>
  <path d="M 200,300 L -341.2,-33.5 A 150,150 0 0 1 -341.2,-33.4 Z" fill="silver" stroke="black" stroke-width="1"/>
  <rect x="370" y="79" width="20" height="30" fill="silver" stroke="black" stroke-width="1"/>
  <text x="400" y="908" font-family="sans-serif" font-size="16">NetBSD (i386) (3)</text>
  <path d="M 200,300 L -341.2,-33.4 A 150,150 0 0 1 -341.2,-33.4 Z" fill="tan" stroke="black" stroke-width="1"/>
  <rect x="370" y="80" width="20" height="30" fill="tan" stroke="black" stroke-width="1"/>
  <text x="400" y="938" font-family="sans-serif" font-size="16">OS/400 (PowerPC) (1)</text>
  <path d="M 200,300 L -341.2,-33.4 A 150,150 0 0 1 -341.2,-33.4 Z" fill="teal" stroke="black" stroke-width="1"/>
  <rect x="370" y="81" width="20" height="30" fill="teal" stroke="black" stroke-width="1"/>
  <text x="400" y="968" font-family="sans-serif" font-size="16">OpenBSD (amd64) (6)</text>
  <path d="M 200,300 L -341.2,-33.4 A 150,150 0 0 1 -341.2,-33.4 Z" fill="violet" stroke="black" stroke-width="1"/>
  <rect x="370" y="82" width="20" height="30" fill="violet" stroke="black" stroke-width="1"/>
  <text x="400" y="998" font-family="sans-serif" font-size="16">OpenBSD (i386) (5)</text>
  <path d="M 200,300 L -341.2,-33.4 A 150,150 0 0 1 -341.4,-33.1 Z" fill="AliceBlue" stroke="black" stroke-width="1"/>
  <rect x="370" y="83" width="20" height="30" fill="AliceBlue" stroke="black" stroke-width="1"/>
  <text x="400" y="1028" font-family="sans-serif" font-size="16">SunOS (amd64) (57)</text>
  <path d="M 200,300 L -341.4,-33.1 A 150,150 0 0 1 -345.2,-24.8 Z" fill="DarkOliveGreen" stroke="black" stroke-width="1"/>
  <rect x="370" y="84" width="20" height="30" fill="DarkOliveGreen" stroke="black" stroke-width="1"/>
  <text x="400" y="1058" font-family="sans-serif" font-size="16">SunOS (sparc) (1513)</text>
  <path d="M 200,300 L -345.2,-24.8 A 150,150 0 0 1 -345.4,-24.3 Z" fill="Indigo" stroke="black" stroke-width="1"/>
  <rect x="370" y="85" width="20" height="30" fill="Indigo" stroke="black" stroke-width="1"/>
  <text x="400" y="1088" font-family="sans-serif" font-size="16">SunOS (sparcv9) (97)</text>
  <path d="M 200,300 L -345.4,-24.3 A 150,150 0 0 1 -347.2,-18.9 Z" fill="MediumPurple" stroke="black" stroke-width="1"/>
  <rect x="370" y="86" width="20" height="30" fill="MediumPurple" stroke="black" stroke-width="1"/>
  <text x="400" y="1118" font-family="sans-serif" font-size="16">SunOS (x86) (972)</text>
  <path d="M 200,300 L -347.2,-18.9 A 150,150 0 0 1 -347.2,-18.9 Z" fill="Purple" stroke="black" stroke-width="1"/>
  <rect x="370" y="87" width="20" height="30" fill="Purple" stroke="black" stroke-width="1"/>
  <text x="400" y="1148" font-family="sans-serif" font-size="16">UnixWare (IA32) (1)</text>
  <path d="M 200,300 L -347.2,-18.9 A 150,150 0 0 1 -347.3,-18.5 Z" fill="AntiqueWhite" stroke="black" stroke-width="1"/>
  <rect x="370" y="88" width="20" height="30" fill="AntiqueWhite" stroke="black" stroke-width="1"/>
  <text x="400" y="1178" font-family="sans-serif" font-size="16">Windows 2000 (x86) (66)</text>
  <path d="M 200,300 L -347.3,-18.5 A 150,150 0 0 1 -348.4,-14.4 Z" fill="DarkOrange" stroke="black" stroke-width="1"/>
  <rect x="370" y="89" width="20" height="30" fill="DarkOrange" stroke="black" stroke-width="1"/>
  <text x="400" y="1208" font-family="sans-serif" font-size="16">Windows 2003 (amd64) (746)</text>
  <path d="M 200,300 L -348.4,-14.4 A 150,150 0 0 1 -348.6,13.2 Z" fill="Ivory" stroke="black" stroke-width="1"/>
  <rect x="370" y="90" width="20" height="30" fill="Ivory" stroke="black" stroke-width="1"/>
  <text x="400" y="1238" font-family="sans-serif" font-size="16">Windows 2003 (x86) (4978)</text>
  <path d="M 200,300 L -348.6,13.2 A 150,150 0 0 1 -335.2,43.2 Z" fill="MediumSeaGreen" stroke="black" stroke-width="1"/>
  <rect x="370" y="91" width="20" height="30" fill="MediumSeaGreen" stroke="black" stroke-width="1"/>
  <text x="400" y="1268" font-family="sans-serif" font-size="16">Windows 7 (amd64) (5491)</text>
  <path d="M 200,300 L -335.2,43.2 A 150,150 0 0 1 -271.7,94.6 Z" fill="Red" stroke="black" stroke-width="1"/>
  <rect x="370" y="92" width="20" height="30" fill="Red" stroke="black" stroke-width="1"/>
  <text x="400" y="1298" font-family="sans-serif" font-size="16">Windows 7 (x86) (10514)</text>
  <path d="M 200,300 L -271.7,94.6 A 150,150 0 0 1 -269.3,95.8 Z" fill="Aqua" stroke="black" stroke-width="1"/>
  <rect x="370" y="93" width="20" height="30" fill="Aqua" stroke="black" stroke-width="1"/>
  <text x="400" y="1328" font-family="sans-serif" font-size="16">Windows 8 (amd64) (289)</text>
  <path d="M 200,300 L -269.3,95.8 A 150,150 0 0 1 -265.3,97.8 Z" fill="DarkOrchid" stroke="black" stroke-width="1"/>
  <rect x="370" y="94" width="20" height="30" fill="DarkOrchid" stroke="black" stroke-width="1"/>
  <text x="400" y="1358" font-family="sans-serif" font-size="16">Windows 8 (x86) (474)</text>
  <path d="M 200,300 L -265.3,97.8 A 150,150 0 0 1 -263.6,98.7 Z" fill="Khaki" stroke="black" stroke-width="1"/>
  <rect x="370" y="95" width="20" height="30" fill="Khaki" stroke="black" stroke-width="1"/>
  <text x="400" y="1388" font-family="sans-serif" font-size="16">Windows NT (unknown) (amd64) (201)</text>
  <path d="M 200,300 L -263.6,98.7 A 150,150 0 0 1 -260.3,100.3 Z" fill="MediumSlateBlue" stroke="black" stroke-width="1"/>
  <rect x="370" y="96" width="20" height="30" fill="MediumSlateBlue" stroke="black" stroke-width="1"/>
  <text x="400" y="1418" font-family="sans-serif" font-size="16">Windows NT (unknown) (x86) (378)</text>
  <path d="M 200,300 L -260.3,100.3 A 150,150 0 0 1 -260.3,100.3 Z" fill="RosyBrown" stroke="black" stroke-width="1"/>
  <rect x="370" y="97" width="20" height="30" fill="RosyBrown" stroke="black" stroke-width="1"/>
  <text x="400" y="1448" font-family="sans-serif" font-size="16">Windows Server 2003 (amd64) (7)</text>
  <path d="M 200,300 L -260.3,100.3 A 150,150 0 0 1 -260.0,100.4 Z" fill="AquaMarine" stroke="black" stroke-width="1"/>
  <rect x="370" y="98" width="20" height="30" fill="AquaMarine" stroke="black" stroke-width="1"/>
  <text x="400" y="1478" font-family="sans-serif" font-size="16">Windows Server 2003 (x86) (32)</text>
  <path d="M 200,300 L -260.0,100.4 A 150,150 0 0 1 -254.2,103.1 Z" fill="DarkRed" stroke="black" stroke-width="1"/>
  <rect x="370" y="99" width="20" height="30" fill="DarkRed" stroke="black" stroke-width="1"/>
  <text x="400" y="1508" font-family="sans-serif" font-size="16">Windows Server 2008 (amd64) (664)</text>
  <path d="M 200,300 L -254.2,103.1 A 150,150 0 0 1 -239.7,109.3 Z" fill="Lavender" stroke="black" stroke-width="1"/>
  <rect x="370" y="100" width="20" height="30" fill="Lavender" stroke="black" stroke-width="1"/>
  <text x="400" y="1538" font-family="sans-serif" font-size="16">Windows Server 2008 (x86) (1573)</text>
  <path d="M 200,300 L -239.7,109.3 A 150,150 0 0 1 -172.2,130.6 Z" fill="MediumSpringGreen" stroke="black" stroke-width="1"/>
  <rect x="370" y="101" width="20" height="30" fill="MediumSpringGreen" stroke="black" stroke-width="1"/>
  <text x="400" y="1568" font-family="sans-serif" font-size="16">Windows Server 2008 R2 (amd64) (6470)</text>
  <path d="M 200,300 L -172.2,130.6 A 150,150 0 0 1 -98.2,144.0 Z" fill="RoyalBlue" stroke="black" stroke-width="1"/>
  <rect x="370" y="102" width="20" height="30" fill="RoyalBlue" stroke="black" stroke-width="1"/>
  <text x="400" y="1598" font-family="sans-serif" font-size="16">Windows Server 2008 R2 (x86) (6195)</text>
  <path d="M 200,300 L -98.2,144.0 A 150,150 0 0 1 -94.9,144.4 Z" fill="Azure" stroke="black" stroke-width="1"/>
  <rect x="370" y="103" width="20" height="30" fill="Azure" stroke="black" stroke-width="1"/>
  <text x="400" y="1628" font-family="sans-serif" font-size="16">Windows Server 2012 (amd64) (268)</text>
  <path d="M 200,300 L -94.9,144.4 A 150,150 0 0 1 -91.9,144.7 Z" fill="DarkSalmon" stroke="black" stroke-width="1"/>
  <rect x="370" y="104" width="20" height="30" fill="DarkSalmon" stroke="black" stroke-width="1"/>
  <text x="400" y="1658" font-family="sans-serif" font-size="16">Windows Server 2012 (x86) (235)</text>
  <path d="M 200,300 L -91.9,144.7 A 150,150 0 0 1 -91.9,144.7 Z" fill="LavenderBlush" stroke="black" stroke-width="1"/>
  <rect x="370" y="105" width="20" height="30" fill="LavenderBlush" stroke="black" stroke-width="1"/>
  <text x="400" y="1688" font-family="sans-serif" font-size="16">Windows Server 8 (amd64) (1)</text>
  <path d="M 200,300 L -91.9,144.7 A 150,150 0 0 1 -90.5,144.9 Z" fill="MediumTurquoise" stroke="black" stroke-width="1"/>
  <rect x="370" y="106" width="20" height="30" fill="MediumTurquoise" stroke="black" stroke-width="1"/>
  <text x="400" y="1718" font-family="sans-serif" font-size="16">Windows Vista (amd64) (114)</text>
  <path d="M 200,300 L -90.5,144.9 A 150,150 0 0 1 -83.7,145.7 Z" fill="SaddleBrown" stroke="black" stroke-width="1"/>
  <rect x="370" y="107" width="20" height="30" fill="SaddleBrown" stroke="black" stroke-width="1"/>
  <text x="400" y="1748" font-family="sans-serif" font-size="16">Windows Vista (x86) (544)</text>
  <path d="M 200,300 L -83.7,145.7 A 150,150 0 0 1 -81.6,145.9 Z" fill="Beige" stroke="black" stroke-width="1"/>
  <rect x="370" y="108" width="20" height="30" fill="Beige" stroke="black" stroke-width="1"/>
  <text x="400" y="1778" font-family="sans-serif" font-size="16">Windows XP (amd64) (160)</text>
  <path d="M 200,300 L -81.6,145.9 A 150,150 0 0 1 -0.0,150.0 Z" fill="DarkSeaGreen" stroke="black" stroke-width="1"/>
  <rect x="370" y="109" width="20" height="30" fill="DarkSeaGreen" stroke="black" stroke-width="1"/>
  <text x="400" y="1808" font-family="sans-serif" font-size="16">Windows XP (x86) (6344)</text>
  <path d="M 200,300 L -0.0,150.0 A 150,150 0 0 1 -0.0,150.0 Z" fill="LawnGreen" stroke="black" stroke-width="1"/>
  <rect x="370" y="110" width="20" height="30" fill="LawnGreen" stroke="black" stroke-width="1"/>
  <text x="400" y="1838" font-family="sans-serif" font-size="16">z/OS (s390) (1)</text>
</svg>
