<svg xmlns="http://www.w3.org/2000/svg" version="1.1" preserveAspectRatio="xMidYMid meet" viewBox="0 0 1865 1062.9">
  <rect fill="blue" height="25.1" stroke="black" width="12" x="15" y="737.8"/>
  <text x="15" y="767.9" font-family="Tahoma" font-size="12" transform="rotate(90 15,767.9)" text-rendering="optimizeSpeed" fill="#000000">throttle-concurrents (2507)</text>
  <rect fill="blue" height="25.2" stroke="black" width="12" x="30" y="737.7"/>
  <text x="30" y="767.9" font-family="Tahoma" font-size="12" transform="rotate(90 30,767.9)" text-rendering="optimizeSpeed" fill="#000000">doxygen (2525)</text>
  <rect fill="blue" height="25.3" stroke="black" width="12" x="45" y="737.6"/>
  <text x="45" y="767.9" font-family="Tahoma" font-size="12" transform="rotate(90 45,767.9)" text-rendering="optimizeSpeed" fill="#000000">versionnumber (2528)</text>
  <rect fill="blue" height="25.3" stroke="black" width="12" x="60" y="737.6"/>
  <text x="60" y="767.9" font-family="Tahoma" font-size="12" transform="rotate(90 60,767.9)" text-rendering="optimizeSpeed" fill="#000000">config-file-provider (2532)</text>
  <rect fill="blue" height="25.6" stroke="black" width="12" x="75" y="737.3"/>
  <text x="75" y="767.9" font-family="Tahoma" font-size="12" transform="rotate(90 75,767.9)" text-rendering="optimizeSpeed" fill="#000000">android-emulator (2561)</text>
  <rect fill="blue" height="25.8" stroke="black" width="12" x="90" y="737.1"/>
  <text x="90" y="767.9" font-family="Tahoma" font-size="12" transform="rotate(90 90,767.9)" text-rendering="optimizeSpeed" fill="#000000">rake (2578)</text>
  <rect fill="blue" height="26.0" stroke="black" width="12" x="105" y="736.9"/>
  <text x="105" y="767.9" font-family="Tahoma" font-size="12" transform="rotate(90 105,767.9)" text-rendering="optimizeSpeed" fill="#000000">text-finder (2603)</text>
  <rect fill="blue" height="26.1" stroke="black" width="12" x="120" y="736.9"/>
  <text x="120" y="767.9" font-family="Tahoma" font-size="12" transform="rotate(90 120,767.9)" text-rendering="optimizeSpeed" fill="#000000">radiatorviewplugin (2605)</text>
  <rect fill="blue" height="26.1" stroke="black" width="12" x="135" y="736.8"/>
  <text x="135" y="767.9" font-family="Tahoma" font-size="12" transform="rotate(90 135,767.9)" text-rendering="optimizeSpeed" fill="#000000">next-build-number (2608)</text>
  <rect fill="blue" height="26.3" stroke="black" width="12" x="150" y="736.7"/>
  <text x="150" y="767.9" font-family="Tahoma" font-size="12" transform="rotate(90 150,767.9)" text-rendering="optimizeSpeed" fill="#000000">nodelabelparameter (2626)</text>
  <rect fill="blue" height="26.3" stroke="black" width="12" x="165" y="736.6"/>
  <text x="165" y="767.9" font-family="Tahoma" font-size="12" transform="rotate(90 165,767.9)" text-rendering="optimizeSpeed" fill="#000000">build-flow-plugin (2631)</text>
  <rect fill="blue" height="26.3" stroke="black" width="12" x="180" y="736.6"/>
  <text x="180" y="767.9" font-family="Tahoma" font-size="12" transform="rotate(90 180,767.9)" text-rendering="optimizeSpeed" fill="#000000">claim (2632)</text>
  <rect fill="blue" height="26.7" stroke="black" width="12" x="195" y="736.2"/>
  <text x="195" y="767.9" font-family="Tahoma" font-size="12" transform="rotate(90 195,767.9)" text-rendering="optimizeSpeed" fill="#000000">jenkins-multijob-plugin (2670)</text>
  <rect fill="blue" height="27.0" stroke="black" width="12" x="210" y="735.9"/>
  <text x="210" y="767.9" font-family="Tahoma" font-size="12" transform="rotate(90 210,767.9)" text-rendering="optimizeSpeed" fill="#000000">global-build-stats (2702)</text>
  <rect fill="blue" height="27.1" stroke="black" width="12" x="225" y="735.8"/>
  <text x="225" y="767.9" font-family="Tahoma" font-size="12" transform="rotate(90 225,767.9)" text-rendering="optimizeSpeed" fill="#000000">multiple-scms (2714)</text>
  <rect fill="blue" height="27.3" stroke="black" width="12" x="240" y="735.6"/>
  <text x="240" y="767.9" font-family="Tahoma" font-size="12" transform="rotate(90 240,767.9)" text-rendering="optimizeSpeed" fill="#000000">release (2728)</text>
  <rect fill="blue" height="27.4" stroke="black" width="12" x="255" y="735.5"/>
  <text x="255" y="767.9" font-family="Tahoma" font-size="12" transform="rotate(90 255,767.9)" text-rendering="optimizeSpeed" fill="#000000">description-setter (2741)</text>
  <rect fill="blue" height="27.4" stroke="black" width="12" x="270" y="735.5"/>
  <text x="270" y="767.9" font-family="Tahoma" font-size="12" transform="rotate(90 270,767.9)" text-rendering="optimizeSpeed" fill="#000000">batch-task (2744)</text>
  <rect fill="blue" height="27.5" stroke="black" width="12" x="285" y="735.4"/>
  <text x="285" y="767.9" font-family="Tahoma" font-size="12" transform="rotate(90 285,767.9)" text-rendering="optimizeSpeed" fill="#000000">rebuild (2754)</text>
  <rect fill="blue" height="27.8" stroke="black" width="12" x="300" y="735.1"/>
  <text x="300" y="767.9" font-family="Tahoma" font-size="12" transform="rotate(90 300,767.9)" text-rendering="optimizeSpeed" fill="#000000">all-changes (2784)</text>
  <rect fill="blue" height="28.3" stroke="black" width="12" x="315" y="734.6"/>
  <text x="315" y="767.9" font-family="Tahoma" font-size="12" transform="rotate(90 315,767.9)" text-rendering="optimizeSpeed" fill="#000000">configurationslicing (2828)</text>
  <rect fill="blue" height="28.6" stroke="black" width="12" x="330" y="734.3"/>
  <text x="330" y="767.9" font-family="Tahoma" font-size="12" transform="rotate(90 330,767.9)" text-rendering="optimizeSpeed" fill="#000000">sidebar-link (2859)</text>
  <rect fill="blue" height="28.7" stroke="black" width="12" x="345" y="734.2"/>
  <text x="345" y="767.9" font-family="Tahoma" font-size="12" transform="rotate(90 345,767.9)" text-rendering="optimizeSpeed" fill="#000000">saferestart (2867)</text>
  <rect fill="blue" height="29.4" stroke="black" width="12" x="360" y="733.5"/>
  <text x="360" y="767.9" font-family="Tahoma" font-size="12" transform="rotate(90 360,767.9)" text-rendering="optimizeSpeed" fill="#000000">console-column-plugin (2945)</text>
  <rect fill="blue" height="29.9" stroke="black" width="12" x="375" y="733.0"/>
  <text x="375" y="767.9" font-family="Tahoma" font-size="12" transform="rotate(90 375,767.9)" text-rendering="optimizeSpeed" fill="#000000">simple-theme-plugin (2994)</text>
  <rect fill="blue" height="30.0" stroke="black" width="12" x="390" y="732.9"/>
  <text x="390" y="767.9" font-family="Tahoma" font-size="12" transform="rotate(90 390,767.9)" text-rendering="optimizeSpeed" fill="#000000">downstream-buildview (3000)</text>
  <rect fill="blue" height="30.9" stroke="black" width="12" x="405" y="732.1"/>
  <text x="405" y="767.9" font-family="Tahoma" font-size="12" transform="rotate(90 405,767.9)" text-rendering="optimizeSpeed" fill="#000000">audit-trail (3085)</text>
  <rect fill="blue" height="31.7" stroke="black" width="12" x="420" y="731.2"/>
  <text x="420" y="767.9" font-family="Tahoma" font-size="12" transform="rotate(90 420,767.9)" text-rendering="optimizeSpeed" fill="#000000">locks-and-latches (3170)</text>
  <rect fill="blue" height="31.8" stroke="black" width="12" x="435" y="731.1"/>
  <text x="435" y="767.9" font-family="Tahoma" font-size="12" transform="rotate(90 435,767.9)" text-rendering="optimizeSpeed" fill="#000000">perforce (3184)</text>
  <rect fill="blue" height="32.0" stroke="black" width="12" x="450" y="730.9"/>
  <text x="450" y="767.9" font-family="Tahoma" font-size="12" transform="rotate(90 450,767.9)" text-rendering="optimizeSpeed" fill="#000000">port-allocator (3204)</text>
  <rect fill="blue" height="32.2" stroke="black" width="12" x="465" y="730.7"/>
  <text x="465" y="767.9" font-family="Tahoma" font-size="12" transform="rotate(90 465,767.9)" text-rendering="optimizeSpeed" fill="#000000">cloverphp (3225)</text>
  <rect fill="blue" height="32.3" stroke="black" width="12" x="480" y="730.7"/>
  <text x="480" y="767.9" font-family="Tahoma" font-size="12" transform="rotate(90 480,767.9)" text-rendering="optimizeSpeed" fill="#000000">git-parameter (3226)</text>
  <rect fill="blue" height="32.9" stroke="black" width="12" x="495" y="730.0"/>
  <text x="495" y="767.9" font-family="Tahoma" font-size="12" transform="rotate(90 495,767.9)" text-rendering="optimizeSpeed" fill="#000000">depgraph-view (3288)</text>
  <rect fill="blue" height="33.5" stroke="black" width="12" x="510" y="729.5"/>
  <text x="510" y="767.9" font-family="Tahoma" font-size="12" transform="rotate(90 510,767.9)" text-rendering="optimizeSpeed" fill="#000000">python (3345)</text>
  <rect fill="blue" height="33.6" stroke="black" width="12" x="525" y="729.3"/>
  <text x="525" y="767.9" font-family="Tahoma" font-size="12" transform="rotate(90 525,767.9)" text-rendering="optimizeSpeed" fill="#000000">nunit (3358)</text>
  <rect fill="blue" height="33.7" stroke="black" width="12" x="540" y="729.2"/>
  <text x="540" y="767.9" font-family="Tahoma" font-size="12" transform="rotate(90 540,767.9)" text-rendering="optimizeSpeed" fill="#000000">nested-view (3370)</text>
  <rect fill="blue" height="33.7" stroke="black" width="12" x="555" y="729.2"/>
  <text x="555" y="767.9" font-family="Tahoma" font-size="12" transform="rotate(90 555,767.9)" text-rendering="optimizeSpeed" fill="#000000">xcode-plugin (3371)</text>
  <rect fill="blue" height="34.5" stroke="black" width="12" x="570" y="728.4"/>
  <text x="570" y="767.9" font-family="Tahoma" font-size="12" transform="rotate(90 570,767.9)" text-rendering="optimizeSpeed" fill="#000000">git-server (3451)</text>
  <rect fill="blue" height="34.9" stroke="black" width="12" x="585" y="728.1"/>
  <text x="585" y="767.9" font-family="Tahoma" font-size="12" transform="rotate(90 585,767.9)" text-rendering="optimizeSpeed" fill="#000000">join (3486)</text>
  <rect fill="blue" height="35.4" stroke="black" width="12" x="600" y="727.5"/>
  <text x="600" y="767.9" font-family="Tahoma" font-size="12" transform="rotate(90 600,767.9)" text-rendering="optimizeSpeed" fill="#000000">svn-tag (3539)</text>
  <rect fill="blue" height="35.6" stroke="black" width="12" x="615" y="727.4"/>
  <text x="615" y="767.9" font-family="Tahoma" font-size="12" transform="rotate(90 615,767.9)" text-rendering="optimizeSpeed" fill="#000000">gradle (3556)</text>
  <rect fill="blue" height="35.9" stroke="black" width="12" x="630" y="727.1"/>
  <text x="630" y="767.9" font-family="Tahoma" font-size="12" transform="rotate(90 630,767.9)" text-rendering="optimizeSpeed" fill="#000000">emma (3586)</text>
  <rect fill="blue" height="36.0" stroke="black" width="12" x="645" y="726.9"/>
  <text x="645" y="767.9" font-family="Tahoma" font-size="12" transform="rotate(90 645,767.9)" text-rendering="optimizeSpeed" fill="#000000">jquery-ui (3599)</text>
  <rect fill="blue" height="36.1" stroke="black" width="12" x="660" y="726.8"/>
  <text x="660" y="767.9" font-family="Tahoma" font-size="12" transform="rotate(90 660,767.9)" text-rendering="optimizeSpeed" fill="#000000">jdepend (3611)</text>
  <rect fill="blue" height="36.4" stroke="black" width="12" x="675" y="726.5"/>
  <text x="675" y="767.9" font-family="Tahoma" font-size="12" transform="rotate(90 675,767.9)" text-rendering="optimizeSpeed" fill="#000000">artifactory (3644)</text>
  <rect fill="blue" height="36.7" stroke="black" width="12" x="690" y="726.2"/>
  <text x="690" y="767.9" font-family="Tahoma" font-size="12" transform="rotate(90 690,767.9)" text-rendering="optimizeSpeed" fill="#000000">ansicolor (3673)</text>
  <rect fill="blue" height="37.3" stroke="black" width="12" x="705" y="725.6"/>
  <text x="705" y="767.9" font-family="Tahoma" font-size="12" transform="rotate(90 705,767.9)" text-rendering="optimizeSpeed" fill="#000000">build-name-setter (3734)</text>
  <rect fill="blue" height="37.9" stroke="black" width="12" x="720" y="725.0"/>
  <text x="720" y="767.9" font-family="Tahoma" font-size="12" transform="rotate(90 720,767.9)" text-rendering="optimizeSpeed" fill="#000000">role-strategy (3791)</text>
  <rect fill="blue" height="38.9" stroke="black" width="12" x="735" y="724.0"/>
  <text x="735" y="767.9" font-family="Tahoma" font-size="12" transform="rotate(90 735,767.9)" text-rendering="optimizeSpeed" fill="#000000">copy-to-slave (3888)</text>
  <rect fill="blue" height="39.0" stroke="black" width="12" x="750" y="724.0"/>
  <text x="750" y="767.9" font-family="Tahoma" font-size="12" transform="rotate(90 750,767.9)" text-rendering="optimizeSpeed" fill="#000000">ruby-runtime (3895)</text>
  <rect fill="blue" height="40.1" stroke="black" width="12" x="765" y="722.8"/>
  <text x="765" y="767.9" font-family="Tahoma" font-size="12" transform="rotate(90 765,767.9)" text-rendering="optimizeSpeed" fill="#000000">mercurial (4011)</text>
  <rect fill="blue" height="40.4" stroke="black" width="12" x="780" y="722.6"/>
  <text x="780" y="767.9" font-family="Tahoma" font-size="12" transform="rotate(90 780,767.9)" text-rendering="optimizeSpeed" fill="#000000">monitoring (4035)</text>
  <rect fill="blue" height="40.8" stroke="black" width="12" x="795" y="722.1"/>
  <text x="795" y="767.9" font-family="Tahoma" font-size="12" transform="rotate(90 795,767.9)" text-rendering="optimizeSpeed" fill="#000000">tasks (4084)</text>
  <rect fill="blue" height="41.4" stroke="black" width="12" x="810" y="721.5"/>
  <text x="810" y="767.9" font-family="Tahoma" font-size="12" transform="rotate(90 810,767.9)" text-rendering="optimizeSpeed" fill="#000000">view-job-filters (4140)</text>
  <rect fill="blue" height="41.9" stroke="black" width="12" x="825" y="721.0"/>
  <text x="825" y="767.9" font-family="Tahoma" font-size="12" transform="rotate(90 825,767.9)" text-rendering="optimizeSpeed" fill="#000000">artifactdeployer (4187)</text>
  <rect fill="blue" height="42.2" stroke="black" width="12" x="840" y="720.8"/>
  <text x="840" y="767.9" font-family="Tahoma" font-size="12" transform="rotate(90 840,767.9)" text-rendering="optimizeSpeed" fill="#000000">groovy (4216)</text>
  <rect fill="blue" height="42.2" stroke="black" width="12" x="855" y="720.7"/>
  <text x="855" y="767.9" font-family="Tahoma" font-size="12" transform="rotate(90 855,767.9)" text-rendering="optimizeSpeed" fill="#000000">scp (4221)</text>
  <rect fill="blue" height="42.4" stroke="black" width="12" x="870" y="720.5"/>
  <text x="870" y="767.9" font-family="Tahoma" font-size="12" transform="rotate(90 870,767.9)" text-rendering="optimizeSpeed" fill="#000000">performance (4239)</text>
  <rect fill="blue" height="42.8" stroke="black" width="12" x="885" y="720.1"/>
  <text x="885" y="767.9" font-family="Tahoma" font-size="12" transform="rotate(90 885,767.9)" text-rendering="optimizeSpeed" fill="#000000">m2release (4282)</text>
  <rect fill="blue" height="47.9" stroke="black" width="12" x="900" y="715.0"/>
  <text x="900" y="767.9" font-family="Tahoma" font-size="12" transform="rotate(90 900,767.9)" text-rendering="optimizeSpeed" fill="#000000">thinBackup (4792)</text>
  <rect fill="blue" height="48.0" stroke="black" width="12" x="915" y="714.9"/>
  <text x="915" y="767.9" font-family="Tahoma" font-size="12" transform="rotate(90 915,767.9)" text-rendering="optimizeSpeed" fill="#000000">backup (4801)</text>
  <rect fill="blue" height="48.0" stroke="black" width="12" x="930" y="714.9"/>
  <text x="930" y="767.9" font-family="Tahoma" font-size="12" transform="rotate(90 930,767.9)" text-rendering="optimizeSpeed" fill="#000000">promoted-builds (4804)</text>
  <rect fill="blue" height="49.5" stroke="black" width="12" x="945" y="713.4"/>
  <text x="945" y="767.9" font-family="Tahoma" font-size="12" transform="rotate(90 945,767.9)" text-rendering="optimizeSpeed" fill="#000000">instant-messaging (4950)</text>
  <rect fill="blue" height="53.4" stroke="black" width="12" x="960" y="709.5"/>
  <text x="960" y="767.9" font-family="Tahoma" font-size="12" transform="rotate(90 960,767.9)" text-rendering="optimizeSpeed" fill="#000000">timestamper (5344)</text>
  <rect fill="blue" height="53.9" stroke="black" width="12" x="975" y="709.1"/>
  <text x="975" y="767.9" font-family="Tahoma" font-size="12" transform="rotate(90 975,767.9)" text-rendering="optimizeSpeed" fill="#000000">plot (5385)</text>
  <rect fill="blue" height="55.6" stroke="black" width="12" x="990" y="707.3"/>
  <text x="990" y="767.9" font-family="Tahoma" font-size="12" transform="rotate(90 990,767.9)" text-rendering="optimizeSpeed" fill="#000000">conditional-buildstep (5557)</text>
  <rect fill="blue" height="56.0" stroke="black" width="12" x="1005" y="706.9"/>
  <text x="1005" y="767.9" font-family="Tahoma" font-size="12" transform="rotate(90 1005,767.9)" text-rendering="optimizeSpeed" fill="#000000">chucknorris (5597)</text>
  <rect fill="blue" height="56.0" stroke="black" width="12" x="1020" y="706.9"/>
  <text x="1020" y="767.9" font-family="Tahoma" font-size="12" transform="rotate(90 1020,767.9)" text-rendering="optimizeSpeed" fill="#000000">log-parser (5598)</text>
  <rect fill="blue" height="57.2" stroke="black" width="12" x="1035" y="705.7"/>
  <text x="1035" y="767.9" font-family="Tahoma" font-size="12" transform="rotate(90 1035,767.9)" text-rendering="optimizeSpeed" fill="#000000">jira (5718)</text>
  <rect fill="blue" height="59.4" stroke="black" width="12" x="1050" y="703.5"/>
  <text x="1050" y="767.9" font-family="Tahoma" font-size="12" transform="rotate(90 1050,767.9)" text-rendering="optimizeSpeed" fill="#000000">ssh (5937)</text>
  <rect fill="blue" height="60.0" stroke="black" width="12" x="1065" y="702.9"/>
  <text x="1065" y="767.9" font-family="Tahoma" font-size="12" transform="rotate(90 1065,767.9)" text-rendering="optimizeSpeed" fill="#000000">dry (6000)</text>
  <rect fill="blue" height="61.8" stroke="black" width="12" x="1080" y="701.1"/>
  <text x="1080" y="767.9" font-family="Tahoma" font-size="12" transform="rotate(90 1080,767.9)" text-rendering="optimizeSpeed" fill="#000000">deploy (6183)</text>
  <rect fill="blue" height="64.3" stroke="black" width="12" x="1095" y="698.7"/>
  <text x="1095" y="767.9" font-family="Tahoma" font-size="12" transform="rotate(90 1095,767.9)" text-rendering="optimizeSpeed" fill="#000000">ws-cleanup (6426)</text>
  <rect fill="blue" height="65.8" stroke="black" width="12" x="1110" y="697.1"/>
  <text x="1110" y="767.9" font-family="Tahoma" font-size="12" transform="rotate(90 1110,767.9)" text-rendering="optimizeSpeed" fill="#000000">jobConfigHistory (6580)</text>
  <rect fill="blue" height="66.7" stroke="black" width="12" x="1125" y="696.2"/>
  <text x="1125" y="767.9" font-family="Tahoma" font-size="12" transform="rotate(90 1125,767.9)" text-rendering="optimizeSpeed" fill="#000000">postbuild-task (6669)</text>
  <rect fill="blue" height="69.5" stroke="black" width="12" x="1140" y="693.5"/>
  <text x="1140" y="767.9" font-family="Tahoma" font-size="12" transform="rotate(90 1140,767.9)" text-rendering="optimizeSpeed" fill="#000000">run-condition (6945)</text>
  <rect fill="blue" height="69.5" stroke="black" width="12" x="1155" y="693.4"/>
  <text x="1155" y="767.9" font-family="Tahoma" font-size="12" transform="rotate(90 1155,767.9)" text-rendering="optimizeSpeed" fill="#000000">analysis-collector (6951)</text>
  <rect fill="blue" height="72.9" stroke="black" width="12" x="1170" y="690.0"/>
  <text x="1170" y="767.9" font-family="Tahoma" font-size="12" transform="rotate(90 1170,767.9)" text-rendering="optimizeSpeed" fill="#000000">msbuild (7289)</text>
  <rect fill="blue" height="73.9" stroke="black" width="12" x="1185" y="689.0"/>
  <text x="1185" y="767.9" font-family="Tahoma" font-size="12" transform="rotate(90 1185,767.9)" text-rendering="optimizeSpeed" fill="#000000">warnings (7388)</text>
  <rect fill="blue" height="75.7" stroke="black" width="12" x="1200" y="687.3"/>
  <text x="1200" y="767.9" font-family="Tahoma" font-size="12" transform="rotate(90 1200,767.9)" text-rendering="optimizeSpeed" fill="#000000">build-timeout (7566)</text>
  <rect fill="blue" height="75.8" stroke="black" width="12" x="1215" y="687.2"/>
  <text x="1215" y="767.9" font-family="Tahoma" font-size="12" transform="rotate(90 1215,767.9)" text-rendering="optimizeSpeed" fill="#000000">build-pipeline-plugin (7576)</text>
  <rect fill="blue" height="76.4" stroke="black" width="12" x="1230" y="686.5"/>
  <text x="1230" y="767.9" font-family="Tahoma" font-size="12" transform="rotate(90 1230,767.9)" text-rendering="optimizeSpeed" fill="#000000">publish-over-ssh (7644)</text>
  <rect fill="blue" height="81.5" stroke="black" width="12" x="1245" y="681.4"/>
  <text x="1245" y="767.9" font-family="Tahoma" font-size="12" transform="rotate(90 1245,767.9)" text-rendering="optimizeSpeed" fill="#000000">active-directory (8152)</text>
  <rect fill="blue" height="81.9" stroke="black" width="12" x="1260" y="681.0"/>
  <text x="1260" y="767.9" font-family="Tahoma" font-size="12" transform="rotate(90 1260,767.9)" text-rendering="optimizeSpeed" fill="#000000">findbugs (8187)</text>
  <rect fill="blue" height="88.2" stroke="black" width="12" x="1275" y="674.7"/>
  <text x="1275" y="767.9" font-family="Tahoma" font-size="12" transform="rotate(90 1275,767.9)" text-rendering="optimizeSpeed" fill="#000000">xunit (8821)</text>
  <rect fill="blue" height="88.4" stroke="black" width="12" x="1290" y="674.5"/>
  <text x="1290" y="767.9" font-family="Tahoma" font-size="12" transform="rotate(90 1290,767.9)" text-rendering="optimizeSpeed" fill="#000000">violations (8843)</text>
  <rect fill="blue" height="90.7" stroke="black" width="12" x="1305" y="672.2"/>
  <text x="1305" y="767.9" font-family="Tahoma" font-size="12" transform="rotate(90 1305,767.9)" text-rendering="optimizeSpeed" fill="#000000">pmd (9068)</text>
  <rect fill="blue" height="90.8" stroke="black" width="12" x="1320" y="672.1"/>
  <text x="1320" y="767.9" font-family="Tahoma" font-size="12" transform="rotate(90 1320,767.9)" text-rendering="optimizeSpeed" fill="#000000">disk-usage (9077)</text>
  <rect fill="blue" height="93.8" stroke="black" width="12" x="1335" y="669.1"/>
  <text x="1335" y="767.9" font-family="Tahoma" font-size="12" transform="rotate(90 1335,767.9)" text-rendering="optimizeSpeed" fill="#000000">github (9378)</text>
  <rect fill="blue" height="97.7" stroke="black" width="12" x="1350" y="665.2"/>
  <text x="1350" y="767.9" font-family="Tahoma" font-size="12" transform="rotate(90 1350,767.9)" text-rendering="optimizeSpeed" fill="#000000">github-api (9772)</text>
  <rect fill="blue" height="97.9" stroke="black" width="12" x="1365" y="665.0"/>
  <text x="1365" y="767.9" font-family="Tahoma" font-size="12" transform="rotate(90 1365,767.9)" text-rendering="optimizeSpeed" fill="#000000">copyartifact (9794)</text>
  <rect fill="blue" height="101.0" stroke="black" width="12" x="1380" y="661.9"/>
  <text x="1380" y="767.9" font-family="Tahoma" font-size="12" transform="rotate(90 1380,767.9)" text-rendering="optimizeSpeed" fill="#000000">dashboard-view (10100)</text>
  <rect fill="blue" height="101.6" stroke="black" width="12" x="1395" y="661.3"/>
  <text x="1395" y="767.9" font-family="Tahoma" font-size="12" transform="rotate(90 1395,767.9)" text-rendering="optimizeSpeed" fill="#000000">checkstyle (10163)</text>
  <rect fill="blue" height="102.0" stroke="black" width="12" x="1410" y="660.9"/>
  <text x="1410" y="767.9" font-family="Tahoma" font-size="12" transform="rotate(90 1410,767.9)" text-rendering="optimizeSpeed" fill="#000000">cobertura (10202)</text>
  <rect fill="blue" height="104.4" stroke="black" width="12" x="1425" y="658.5"/>
  <text x="1425" y="767.9" font-family="Tahoma" font-size="12" transform="rotate(90 1425,767.9)" text-rendering="optimizeSpeed" fill="#000000">jquery (10440)</text>
  <rect fill="blue" height="105.0" stroke="black" width="12" x="1440" y="657.9"/>
  <text x="1440" y="767.9" font-family="Tahoma" font-size="12" transform="rotate(90 1440,767.9)" text-rendering="optimizeSpeed" fill="#000000">sonar (10503)</text>
  <rect fill="blue" height="106.8" stroke="black" width="12" x="1455" y="656.1"/>
  <text x="1455" y="767.9" font-family="Tahoma" font-size="12" transform="rotate(90 1455,767.9)" text-rendering="optimizeSpeed" fill="#000000">ssh-agent (10678)</text>
  <rect fill="blue" height="107.0" stroke="black" width="12" x="1470" y="655.9"/>
  <text x="1470" y="767.9" font-family="Tahoma" font-size="12" transform="rotate(90 1470,767.9)" text-rendering="optimizeSpeed" fill="#000000">envinject (10699)</text>
  <rect fill="blue" height="111.6" stroke="black" width="12" x="1485" y="651.3"/>
  <text x="1485" y="767.9" font-family="Tahoma" font-size="12" transform="rotate(90 1485,767.9)" text-rendering="optimizeSpeed" fill="#000000">htmlpublisher (11161)</text>
  <rect fill="blue" height="134.3" stroke="black" width="12" x="1500" y="628.6"/>
  <text x="1500" y="767.9" font-family="Tahoma" font-size="12" transform="rotate(90 1500,767.9)" text-rendering="optimizeSpeed" fill="#000000">scm-api (13434)</text>
  <rect fill="blue" height="154.3" stroke="black" width="12" x="1515" y="608.6"/>
  <text x="1515" y="767.9" font-family="Tahoma" font-size="12" transform="rotate(90 1515,767.9)" text-rendering="optimizeSpeed" fill="#000000">greenballs (15428)</text>
  <rect fill="blue" height="169.2" stroke="black" width="12" x="1530" y="593.7"/>
  <text x="1530" y="767.9" font-family="Tahoma" font-size="12" transform="rotate(90 1530,767.9)" text-rendering="optimizeSpeed" fill="#000000">parameterized-trigger (16923)</text>
  <rect fill="blue" height="205.8" stroke="black" width="12" x="1545" y="557.1"/>
  <text x="1545" y="767.9" font-family="Tahoma" font-size="12" transform="rotate(90 1545,767.9)" text-rendering="optimizeSpeed" fill="#000000">email-ext (20584)</text>
  <rect fill="blue" height="212.8" stroke="black" width="12" x="1560" y="550.1"/>
  <text x="1560" y="767.9" font-family="Tahoma" font-size="12" transform="rotate(90 1560,767.9)" text-rendering="optimizeSpeed" fill="#000000">analysis-core (21277)</text>
  <rect fill="blue" height="253.0" stroke="black" width="12" x="1575" y="509.9"/>
  <text x="1575" y="767.9" font-family="Tahoma" font-size="12" transform="rotate(90 1575,767.9)" text-rendering="optimizeSpeed" fill="#000000">token-macro (25302)</text>
  <rect fill="blue" height="253.9" stroke="black" width="12" x="1590" y="509.0"/>
  <text x="1590" y="767.9" font-family="Tahoma" font-size="12" transform="rotate(90 1590,767.9)" text-rendering="optimizeSpeed" fill="#000000">matrix-auth (25387)</text>
  <rect fill="blue" height="280.6" stroke="black" width="12" x="1605" y="482.3"/>
  <text x="1605" y="767.9" font-family="Tahoma" font-size="12" transform="rotate(90 1605,767.9)" text-rendering="optimizeSpeed" fill="#000000">git-client (28059)</text>
  <rect fill="blue" height="333.9" stroke="black" width="12" x="1620" y="429.0"/>
  <text x="1620" y="767.9" font-family="Tahoma" font-size="12" transform="rotate(90 1620,767.9)" text-rendering="optimizeSpeed" fill="#000000">git (33393)</text>
  <rect fill="blue" height="570.5" stroke="black" width="12" x="1635" y="192.4"/>
  <text x="1635" y="767.9" font-family="Tahoma" font-size="12" transform="rotate(90 1635,767.9)" text-rendering="optimizeSpeed" fill="#000000">ssh-credentials (57051)</text>
  <rect fill="blue" height="575.0" stroke="black" width="12" x="1650" y="187.9"/>
  <text x="1650" y="767.9" font-family="Tahoma" font-size="12" transform="rotate(90 1650,767.9)" text-rendering="optimizeSpeed" fill="#000000">credentials (57498)</text>
  <rect fill="blue" height="613.2" stroke="black" width="12" x="1665" y="149.7"/>
  <text x="1665" y="767.9" font-family="Tahoma" font-size="12" transform="rotate(90 1665,767.9)" text-rendering="optimizeSpeed" fill="#000000">mailer (61322)</text>
  <rect fill="blue" height="653.2" stroke="black" width="12" x="1680" y="109.7"/>
  <text x="1680" y="767.9" font-family="Tahoma" font-size="12" transform="rotate(90 1680,767.9)" text-rendering="optimizeSpeed" fill="#000000">ldap (65325)</text>
  <rect fill="blue" height="657.2" stroke="black" width="12" x="1695" y="105.8"/>
  <text x="1695" y="767.9" font-family="Tahoma" font-size="12" transform="rotate(90 1695,767.9)" text-rendering="optimizeSpeed" fill="#000000">pam-auth (65716)</text>
  <rect fill="blue" height="663.0" stroke="black" width="12" x="1710" y="99.9"/>
  <text x="1710" y="767.9" font-family="Tahoma" font-size="12" transform="rotate(90 1710,767.9)" text-rendering="optimizeSpeed" fill="#000000">external-monitor-job (66302)</text>
  <rect fill="blue" height="671.3" stroke="black" width="12" x="1725" y="91.6"/>
  <text x="1725" y="767.9" font-family="Tahoma" font-size="12" transform="rotate(90 1725,767.9)" text-rendering="optimizeSpeed" fill="#000000">cvs (67134)</text>
  <rect fill="blue" height="691.2" stroke="black" width="12" x="1740" y="71.7"/>
  <text x="1740" y="767.9" font-family="Tahoma" font-size="12" transform="rotate(90 1740,767.9)" text-rendering="optimizeSpeed" fill="#000000">translation (69120)</text>
  <rect fill="blue" height="696.7" stroke="black" width="12" x="1755" y="66.2"/>
  <text x="1755" y="767.9" font-family="Tahoma" font-size="12" transform="rotate(90 1755,767.9)" text-rendering="optimizeSpeed" fill="#000000">ant (69670)</text>
  <rect fill="blue" height="700.6" stroke="black" width="12" x="1770" y="62.3"/>
  <text x="1770" y="767.9" font-family="Tahoma" font-size="12" transform="rotate(90 1770,767.9)" text-rendering="optimizeSpeed" fill="#000000">subversion (70058)</text>
  <rect fill="blue" height="701.4" stroke="black" width="12" x="1785" y="61.5"/>
  <text x="1785" y="767.9" font-family="Tahoma" font-size="12" transform="rotate(90 1785,767.9)" text-rendering="optimizeSpeed" fill="#000000">javadoc (70137)</text>
  <rect fill="blue" height="708.6" stroke="black" width="12" x="1800" y="54.3"/>
  <text x="1800" y="767.9" font-family="Tahoma" font-size="12" transform="rotate(90 1800,767.9)" text-rendering="optimizeSpeed" fill="#000000">maven-plugin (70865)</text>
  <rect fill="blue" height="712.9" stroke="black" width="12" x="1815" y="50.0"/>
  <text x="1815" y="767.9" font-family="Tahoma" font-size="12" transform="rotate(90 1815,767.9)" text-rendering="optimizeSpeed" fill="#000000">ssh-slaves (71292)</text>
  <text x="10" y="40" font-family="Tahoma" font-size="20" text-rendering="optimizeSpeed" fill="#000000">Plugin installations (installations &gt; 2500)</text>
</svg>
