<svg xmlns="http://www.w3.org/2000/svg" version="1.1" preserveAspectRatio="xMidYMid meet" viewBox="0 0 2495 1041.6">
  <rect fill="blue" height="1.7" stroke="black" width="12" x="15" y="739.9"/>
  <text x="15" y="746.6" font-family="Tahoma" font-size="12" transform="rotate(90 15,746.6)" text-rendering="optimizeSpeed" fill="#000000">1.368 (17)</text>
  <rect fill="blue" height="3.6" stroke="black" width="12" x="30" y="738.0"/>
  <text x="30" y="746.6" font-family="Tahoma" font-size="12" transform="rotate(90 30,746.6)" text-rendering="optimizeSpeed" fill="#000000">1.369 (36)</text>
  <rect fill="blue" height="1.0" stroke="black" width="12" x="45" y="740.6"/>
  <text x="45" y="746.6" font-family="Tahoma" font-size="12" transform="rotate(90 45,746.6)" text-rendering="optimizeSpeed" fill="#000000">1.370 (10)</text>
  <rect fill="blue" height="2.1" stroke="black" width="12" x="60" y="739.5"/>
  <text x="60" y="746.6" font-family="Tahoma" font-size="12" transform="rotate(90 60,746.6)" text-rendering="optimizeSpeed" fill="#000000">1.371 (21)</text>
  <rect fill="blue" height="2.9" stroke="black" width="12" x="75" y="738.7"/>
  <text x="75" y="746.6" font-family="Tahoma" font-size="12" transform="rotate(90 75,746.6)" text-rendering="optimizeSpeed" fill="#000000">1.372 (29)</text>
  <rect fill="blue" height="2.8" stroke="black" width="12" x="90" y="738.8"/>
  <text x="90" y="746.6" font-family="Tahoma" font-size="12" transform="rotate(90 90,746.6)" text-rendering="optimizeSpeed" fill="#000000">1.373 (28)</text>
  <rect fill="blue" height="4.8" stroke="black" width="12" x="105" y="736.8"/>
  <text x="105" y="746.6" font-family="Tahoma" font-size="12" transform="rotate(90 105,746.6)" text-rendering="optimizeSpeed" fill="#000000">1.374 (48)</text>
  <rect fill="blue" height="2.3" stroke="black" width="12" x="120" y="739.3"/>
  <text x="120" y="746.6" font-family="Tahoma" font-size="12" transform="rotate(90 120,746.6)" text-rendering="optimizeSpeed" fill="#000000">1.375 (23)</text>
  <rect fill="blue" height="3.9" stroke="black" width="12" x="135" y="737.7"/>
  <text x="135" y="746.6" font-family="Tahoma" font-size="12" transform="rotate(90 135,746.6)" text-rendering="optimizeSpeed" fill="#000000">1.376 (39)</text>
  <rect fill="blue" height="5.0" stroke="black" width="12" x="150" y="736.6"/>
  <text x="150" y="746.6" font-family="Tahoma" font-size="12" transform="rotate(90 150,746.6)" text-rendering="optimizeSpeed" fill="#000000">1.377 (50)</text>
  <rect fill="blue" height="3.1" stroke="black" width="12" x="165" y="738.5"/>
  <text x="165" y="746.6" font-family="Tahoma" font-size="12" transform="rotate(90 165,746.6)" text-rendering="optimizeSpeed" fill="#000000">1.378 (31)</text>
  <rect fill="blue" height="7.6" stroke="black" width="12" x="180" y="734.0"/>
  <text x="180" y="746.6" font-family="Tahoma" font-size="12" transform="rotate(90 180,746.6)" text-rendering="optimizeSpeed" fill="#000000">1.379 (76)</text>
  <rect fill="blue" height="2.0" stroke="black" width="12" x="195" y="739.6"/>
  <text x="195" y="746.6" font-family="Tahoma" font-size="12" transform="rotate(90 195,746.6)" text-rendering="optimizeSpeed" fill="#000000">1.380 (20)</text>
  <rect fill="blue" height="9.0" stroke="black" width="12" x="210" y="732.6"/>
  <text x="210" y="746.6" font-family="Tahoma" font-size="12" transform="rotate(90 210,746.6)" text-rendering="optimizeSpeed" fill="#000000">1.381 (90)</text>
  <rect fill="blue" height="1.6" stroke="black" width="12" x="225" y="740.0"/>
  <text x="225" y="746.6" font-family="Tahoma" font-size="12" transform="rotate(90 225,746.6)" text-rendering="optimizeSpeed" fill="#000000">1.382 (16)</text>
  <rect fill="blue" height="5.3" stroke="black" width="12" x="240" y="736.3"/>
  <text x="240" y="746.6" font-family="Tahoma" font-size="12" transform="rotate(90 240,746.6)" text-rendering="optimizeSpeed" fill="#000000">1.383 (53)</text>
  <rect fill="blue" height="8.8" stroke="black" width="12" x="255" y="732.8"/>
  <text x="255" y="746.6" font-family="Tahoma" font-size="12" transform="rotate(90 255,746.6)" text-rendering="optimizeSpeed" fill="#000000">1.384 (88)</text>
  <rect fill="blue" height="3.4" stroke="black" width="12" x="270" y="738.2"/>
  <text x="270" y="746.6" font-family="Tahoma" font-size="12" transform="rotate(90 270,746.6)" text-rendering="optimizeSpeed" fill="#000000">1.385 (34)</text>
  <rect fill="blue" height="20.1" stroke="black" width="12" x="285" y="721.5"/>
  <text x="285" y="746.6" font-family="Tahoma" font-size="12" transform="rotate(90 285,746.6)" text-rendering="optimizeSpeed" fill="#000000">1.386 (201)</text>
  <rect fill="blue" height="3.4" stroke="black" width="12" x="300" y="738.2"/>
  <text x="300" y="746.6" font-family="Tahoma" font-size="12" transform="rotate(90 300,746.6)" text-rendering="optimizeSpeed" fill="#000000">1.387 (34)</text>
  <rect fill="blue" height="2.9" stroke="black" width="12" x="315" y="738.7"/>
  <text x="315" y="746.6" font-family="Tahoma" font-size="12" transform="rotate(90 315,746.6)" text-rendering="optimizeSpeed" fill="#000000">1.388 (29)</text>
  <rect fill="blue" height="6.9" stroke="black" width="12" x="330" y="734.7"/>
  <text x="330" y="746.6" font-family="Tahoma" font-size="12" transform="rotate(90 330,746.6)" text-rendering="optimizeSpeed" fill="#000000">1.389 (69)</text>
  <rect fill="blue" height="0.4" stroke="black" width="12" x="345" y="741.2"/>
  <text x="345" y="746.6" font-family="Tahoma" font-size="12" transform="rotate(90 345,746.6)" text-rendering="optimizeSpeed" fill="#000000">1.390 (4)</text>
  <rect fill="blue" height="1.1" stroke="black" width="12" x="360" y="740.5"/>
  <text x="360" y="746.6" font-family="Tahoma" font-size="12" transform="rotate(90 360,746.6)" text-rendering="optimizeSpeed" fill="#000000">1.391 (11)</text>
  <rect fill="blue" height="6.1" stroke="black" width="12" x="375" y="735.5"/>
  <text x="375" y="746.6" font-family="Tahoma" font-size="12" transform="rotate(90 375,746.6)" text-rendering="optimizeSpeed" fill="#000000">1.392 (61)</text>
  <rect fill="blue" height="0.1" stroke="black" width="12" x="390" y="741.5"/>
  <text x="390" y="746.6" font-family="Tahoma" font-size="12" transform="rotate(90 390,746.6)" text-rendering="optimizeSpeed" fill="#000000">1.392.LI21 (1)</text>
  <rect fill="blue" height="0.3" stroke="black" width="12" x="405" y="741.3"/>
  <text x="405" y="746.6" font-family="Tahoma" font-size="12" transform="rotate(90 405,746.6)" text-rendering="optimizeSpeed" fill="#000000">1.392.LI22 (3)</text>
  <rect fill="blue" height="12.4" stroke="black" width="12" x="420" y="729.2"/>
  <text x="420" y="746.6" font-family="Tahoma" font-size="12" transform="rotate(90 420,746.6)" text-rendering="optimizeSpeed" fill="#000000">1.393 (124)</text>
  <rect fill="blue" height="13.4" stroke="black" width="12" x="435" y="728.2"/>
  <text x="435" y="746.6" font-family="Tahoma" font-size="12" transform="rotate(90 435,746.6)" text-rendering="optimizeSpeed" fill="#000000">1.394 (134)</text>
  <rect fill="blue" height="32.1" stroke="black" width="12" x="450" y="709.5"/>
  <text x="450" y="746.6" font-family="Tahoma" font-size="12" transform="rotate(90 450,746.6)" text-rendering="optimizeSpeed" fill="#000000">1.395 (321)</text>
  <rect fill="blue" height="34.2" stroke="black" width="12" x="465" y="707.4"/>
  <text x="465" y="746.6" font-family="Tahoma" font-size="12" transform="rotate(90 465,746.6)" text-rendering="optimizeSpeed" fill="#000000">1.395.1 (342)</text>
  <rect fill="blue" height="1.8" stroke="black" width="12" x="480" y="739.8"/>
  <text x="480" y="746.6" font-family="Tahoma" font-size="12" transform="rotate(90 480,746.6)" text-rendering="optimizeSpeed" fill="#000000">1.396 (18)</text>
  <rect fill="blue" height="1.2" stroke="black" width="12" x="495" y="740.4"/>
  <text x="495" y="746.6" font-family="Tahoma" font-size="12" transform="rotate(90 495,746.6)" text-rendering="optimizeSpeed" fill="#000000">1.397 (12)</text>
  <rect fill="blue" height="2.2" stroke="black" width="12" x="510" y="739.4"/>
  <text x="510" y="746.6" font-family="Tahoma" font-size="12" transform="rotate(90 510,746.6)" text-rendering="optimizeSpeed" fill="#000000">1.398 (22)</text>
  <rect fill="blue" height="3.1" stroke="black" width="12" x="525" y="738.5"/>
  <text x="525" y="746.6" font-family="Tahoma" font-size="12" transform="rotate(90 525,746.6)" text-rendering="optimizeSpeed" fill="#000000">1.399 (31)</text>
  <rect fill="blue" height="2.6" stroke="black" width="12" x="540" y="739.0"/>
  <text x="540" y="746.6" font-family="Tahoma" font-size="12" transform="rotate(90 540,746.6)" text-rendering="optimizeSpeed" fill="#000000">1.400 (26)</text>
  <rect fill="blue" height="5.8" stroke="black" width="12" x="555" y="735.8"/>
  <text x="555" y="746.6" font-family="Tahoma" font-size="12" transform="rotate(90 555,746.6)" text-rendering="optimizeSpeed" fill="#000000">1.401 (58)</text>
  <rect fill="blue" height="3.0" stroke="black" width="12" x="570" y="738.6"/>
  <text x="570" y="746.6" font-family="Tahoma" font-size="12" transform="rotate(90 570,746.6)" text-rendering="optimizeSpeed" fill="#000000">1.403 (30)</text>
  <rect fill="blue" height="3.5" stroke="black" width="12" x="585" y="738.1"/>
  <text x="585" y="746.6" font-family="Tahoma" font-size="12" transform="rotate(90 585,746.6)" text-rendering="optimizeSpeed" fill="#000000">1.404 (35)</text>
  <rect fill="blue" height="2.7" stroke="black" width="12" x="600" y="738.9"/>
  <text x="600" y="746.6" font-family="Tahoma" font-size="12" transform="rotate(90 600,746.6)" text-rendering="optimizeSpeed" fill="#000000">1.405 (27)</text>
  <rect fill="blue" height="3.2" stroke="black" width="12" x="615" y="738.4"/>
  <text x="615" y="746.6" font-family="Tahoma" font-size="12" transform="rotate(90 615,746.6)" text-rendering="optimizeSpeed" fill="#000000">1.406 (32)</text>
  <rect fill="blue" height="0.6" stroke="black" width="12" x="630" y="741.0"/>
  <text x="630" y="746.6" font-family="Tahoma" font-size="12" transform="rotate(90 630,746.6)" text-rendering="optimizeSpeed" fill="#000000">1.407 (6)</text>
  <rect fill="blue" height="3.2" stroke="black" width="12" x="645" y="738.4"/>
  <text x="645" y="746.6" font-family="Tahoma" font-size="12" transform="rotate(90 645,746.6)" text-rendering="optimizeSpeed" fill="#000000">1.408 (32)</text>
  <rect fill="blue" height="4.1" stroke="black" width="12" x="660" y="737.5"/>
  <text x="660" y="746.6" font-family="Tahoma" font-size="12" transform="rotate(90 660,746.6)" text-rendering="optimizeSpeed" fill="#000000">1.409 (41)</text>
  <rect fill="blue" height="12.8" stroke="black" width="12" x="675" y="728.8"/>
  <text x="675" y="746.6" font-family="Tahoma" font-size="12" transform="rotate(90 675,746.6)" text-rendering="optimizeSpeed" fill="#000000">1.409.1 (128)</text>
  <rect fill="blue" height="4.0" stroke="black" width="12" x="690" y="737.6"/>
  <text x="690" y="746.6" font-family="Tahoma" font-size="12" transform="rotate(90 690,746.6)" text-rendering="optimizeSpeed" fill="#000000">1.409.2 (40)</text>
  <rect fill="blue" height="2.7" stroke="black" width="12" x="705" y="738.9"/>
  <text x="705" y="746.6" font-family="Tahoma" font-size="12" transform="rotate(90 705,746.6)" text-rendering="optimizeSpeed" fill="#000000">1.409.3 (27)</text>
  <rect fill="blue" height="8.6" stroke="black" width="12" x="720" y="733.0"/>
  <text x="720" y="746.6" font-family="Tahoma" font-size="12" transform="rotate(90 720,746.6)" text-rendering="optimizeSpeed" fill="#000000">1.410 (86)</text>
  <rect fill="blue" height="4.3" stroke="black" width="12" x="735" y="737.3"/>
  <text x="735" y="746.6" font-family="Tahoma" font-size="12" transform="rotate(90 735,746.6)" text-rendering="optimizeSpeed" fill="#000000">1.411 (43)</text>
  <rect fill="blue" height="3.5" stroke="black" width="12" x="750" y="738.1"/>
  <text x="750" y="746.6" font-family="Tahoma" font-size="12" transform="rotate(90 750,746.6)" text-rendering="optimizeSpeed" fill="#000000">1.412 (35)</text>
  <rect fill="blue" height="8.7" stroke="black" width="12" x="765" y="732.9"/>
  <text x="765" y="746.6" font-family="Tahoma" font-size="12" transform="rotate(90 765,746.6)" text-rendering="optimizeSpeed" fill="#000000">1.413 (87)</text>
  <rect fill="blue" height="6.8" stroke="black" width="12" x="780" y="734.8"/>
  <text x="780" y="746.6" font-family="Tahoma" font-size="12" transform="rotate(90 780,746.6)" text-rendering="optimizeSpeed" fill="#000000">1.414 (68)</text>
  <rect fill="blue" height="4.2" stroke="black" width="12" x="795" y="737.4"/>
  <text x="795" y="746.6" font-family="Tahoma" font-size="12" transform="rotate(90 795,746.6)" text-rendering="optimizeSpeed" fill="#000000">1.415 (42)</text>
  <rect fill="blue" height="1.3" stroke="black" width="12" x="810" y="740.3"/>
  <text x="810" y="746.6" font-family="Tahoma" font-size="12" transform="rotate(90 810,746.6)" text-rendering="optimizeSpeed" fill="#000000">1.416 (13)</text>
  <rect fill="blue" height="4.0" stroke="black" width="12" x="825" y="737.6"/>
  <text x="825" y="746.6" font-family="Tahoma" font-size="12" transform="rotate(90 825,746.6)" text-rendering="optimizeSpeed" fill="#000000">1.417 (40)</text>
  <rect fill="blue" height="5.8" stroke="black" width="12" x="840" y="735.8"/>
  <text x="840" y="746.6" font-family="Tahoma" font-size="12" transform="rotate(90 840,746.6)" text-rendering="optimizeSpeed" fill="#000000">1.418 (58)</text>
  <rect fill="blue" height="4.7" stroke="black" width="12" x="855" y="736.9"/>
  <text x="855" y="746.6" font-family="Tahoma" font-size="12" transform="rotate(90 855,746.6)" text-rendering="optimizeSpeed" fill="#000000">1.419 (47)</text>
  <rect fill="blue" height="6.6" stroke="black" width="12" x="870" y="735.0"/>
  <text x="870" y="746.6" font-family="Tahoma" font-size="12" transform="rotate(90 870,746.6)" text-rendering="optimizeSpeed" fill="#000000">1.420 (66)</text>
  <rect fill="blue" height="7.2" stroke="black" width="12" x="885" y="734.4"/>
  <text x="885" y="746.6" font-family="Tahoma" font-size="12" transform="rotate(90 885,746.6)" text-rendering="optimizeSpeed" fill="#000000">1.421 (72)</text>
  <rect fill="blue" height="6.0" stroke="black" width="12" x="900" y="735.6"/>
  <text x="900" y="746.6" font-family="Tahoma" font-size="12" transform="rotate(90 900,746.6)" text-rendering="optimizeSpeed" fill="#000000">1.423 (60)</text>
  <rect fill="blue" height="11.3" stroke="black" width="12" x="915" y="730.3"/>
  <text x="915" y="746.6" font-family="Tahoma" font-size="12" transform="rotate(90 915,746.6)" text-rendering="optimizeSpeed" fill="#000000">1.424 (113)</text>
  <rect fill="blue" height="6.1" stroke="black" width="12" x="930" y="735.5"/>
  <text x="930" y="746.6" font-family="Tahoma" font-size="12" transform="rotate(90 930,746.6)" text-rendering="optimizeSpeed" fill="#000000">1.424.1 (61)</text>
  <rect fill="blue" height="7.9" stroke="black" width="12" x="945" y="733.7"/>
  <text x="945" y="746.6" font-family="Tahoma" font-size="12" transform="rotate(90 945,746.6)" text-rendering="optimizeSpeed" fill="#000000">1.424.2 (79)</text>
  <rect fill="blue" height="0.8" stroke="black" width="12" x="960" y="740.8"/>
  <text x="960" y="746.6" font-family="Tahoma" font-size="12" transform="rotate(90 960,746.6)" text-rendering="optimizeSpeed" fill="#000000">1.424.3 (8)</text>
  <rect fill="blue" height="62.7" stroke="black" width="12" x="975" y="678.9"/>
  <text x="975" y="746.6" font-family="Tahoma" font-size="12" transform="rotate(90 975,746.6)" text-rendering="optimizeSpeed" fill="#000000">1.424.6 (627)</text>
  <rect fill="blue" height="0.1" stroke="black" width="12" x="990" y="741.5"/>
  <text x="990" y="746.6" font-family="Tahoma" font-size="12" transform="rotate(90 990,746.6)" text-rendering="optimizeSpeed" fill="#000000">1.424.6.1  (1)</text>
  <rect fill="blue" height="0.1" stroke="black" width="12" x="1005" y="741.5"/>
  <text x="1005" y="746.6" font-family="Tahoma" font-size="12" transform="rotate(90 1005,746.6)" text-rendering="optimizeSpeed" fill="#000000">1.424.6.10 (1)</text>
  <rect fill="blue" height="10.5" stroke="black" width="12" x="1020" y="731.1"/>
  <text x="1020" y="746.6" font-family="Tahoma" font-size="12" transform="rotate(90 1020,746.6)" text-rendering="optimizeSpeed" fill="#000000">1.425 (105)</text>
  <rect fill="blue" height="4.2" stroke="black" width="12" x="1035" y="737.4"/>
  <text x="1035" y="746.6" font-family="Tahoma" font-size="12" transform="rotate(90 1035,746.6)" text-rendering="optimizeSpeed" fill="#000000">1.426 (42)</text>
  <rect fill="blue" height="10.6" stroke="black" width="12" x="1050" y="731.0"/>
  <text x="1050" y="746.6" font-family="Tahoma" font-size="12" transform="rotate(90 1050,746.6)" text-rendering="optimizeSpeed" fill="#000000">1.427 (106)</text>
  <rect fill="blue" height="9.1" stroke="black" width="12" x="1065" y="732.5"/>
  <text x="1065" y="746.6" font-family="Tahoma" font-size="12" transform="rotate(90 1065,746.6)" text-rendering="optimizeSpeed" fill="#000000">1.428 (91)</text>
  <rect fill="blue" height="7.3" stroke="black" width="12" x="1080" y="734.3"/>
  <text x="1080" y="746.6" font-family="Tahoma" font-size="12" transform="rotate(90 1080,746.6)" text-rendering="optimizeSpeed" fill="#000000">1.429 (73)</text>
  <rect fill="blue" height="13.2" stroke="black" width="12" x="1095" y="728.4"/>
  <text x="1095" y="746.6" font-family="Tahoma" font-size="12" transform="rotate(90 1095,746.6)" text-rendering="optimizeSpeed" fill="#000000">1.430 (132)</text>
  <rect fill="blue" height="9.9" stroke="black" width="12" x="1110" y="731.7"/>
  <text x="1110" y="746.6" font-family="Tahoma" font-size="12" transform="rotate(90 1110,746.6)" text-rendering="optimizeSpeed" fill="#000000">1.431 (99)</text>
  <rect fill="blue" height="14.3" stroke="black" width="12" x="1125" y="727.3"/>
  <text x="1125" y="746.6" font-family="Tahoma" font-size="12" transform="rotate(90 1125,746.6)" text-rendering="optimizeSpeed" fill="#000000">1.432 (143)</text>
  <rect fill="blue" height="8.4" stroke="black" width="12" x="1140" y="733.2"/>
  <text x="1140" y="746.6" font-family="Tahoma" font-size="12" transform="rotate(90 1140,746.6)" text-rendering="optimizeSpeed" fill="#000000">1.433 (84)</text>
  <rect fill="blue" height="11.6" stroke="black" width="12" x="1155" y="730.0"/>
  <text x="1155" y="746.6" font-family="Tahoma" font-size="12" transform="rotate(90 1155,746.6)" text-rendering="optimizeSpeed" fill="#000000">1.434 (116)</text>
  <rect fill="blue" height="5.6" stroke="black" width="12" x="1170" y="736.0"/>
  <text x="1170" y="746.6" font-family="Tahoma" font-size="12" transform="rotate(90 1170,746.6)" text-rendering="optimizeSpeed" fill="#000000">1.435 (56)</text>
  <rect fill="blue" height="12.5" stroke="black" width="12" x="1185" y="729.1"/>
  <text x="1185" y="746.6" font-family="Tahoma" font-size="12" transform="rotate(90 1185,746.6)" text-rendering="optimizeSpeed" fill="#000000">1.436 (125)</text>
  <rect fill="blue" height="10.8" stroke="black" width="12" x="1200" y="730.8"/>
  <text x="1200" y="746.6" font-family="Tahoma" font-size="12" transform="rotate(90 1200,746.6)" text-rendering="optimizeSpeed" fill="#000000">1.437 (108)</text>
  <rect fill="blue" height="10.8" stroke="black" width="12" x="1215" y="730.8"/>
  <text x="1215" y="746.6" font-family="Tahoma" font-size="12" transform="rotate(90 1215,746.6)" text-rendering="optimizeSpeed" fill="#000000">1.438 (108)</text>
  <rect fill="blue" height="8.1" stroke="black" width="12" x="1230" y="733.5"/>
  <text x="1230" y="746.6" font-family="Tahoma" font-size="12" transform="rotate(90 1230,746.6)" text-rendering="optimizeSpeed" fill="#000000">1.439 (81)</text>
  <rect fill="blue" height="13.3" stroke="black" width="12" x="1245" y="728.3"/>
  <text x="1245" y="746.6" font-family="Tahoma" font-size="12" transform="rotate(90 1245,746.6)" text-rendering="optimizeSpeed" fill="#000000">1.440 (133)</text>
  <rect fill="blue" height="22.0" stroke="black" width="12" x="1260" y="719.6"/>
  <text x="1260" y="746.6" font-family="Tahoma" font-size="12" transform="rotate(90 1260,746.6)" text-rendering="optimizeSpeed" fill="#000000">1.441 (220)</text>
  <rect fill="blue" height="15.7" stroke="black" width="12" x="1275" y="725.9"/>
  <text x="1275" y="746.6" font-family="Tahoma" font-size="12" transform="rotate(90 1275,746.6)" text-rendering="optimizeSpeed" fill="#000000">1.442 (157)</text>
  <rect fill="blue" height="14.2" stroke="black" width="12" x="1290" y="727.4"/>
  <text x="1290" y="746.6" font-family="Tahoma" font-size="12" transform="rotate(90 1290,746.6)" text-rendering="optimizeSpeed" fill="#000000">1.443 (142)</text>
  <rect fill="blue" height="11.2" stroke="black" width="12" x="1305" y="730.4"/>
  <text x="1305" y="746.6" font-family="Tahoma" font-size="12" transform="rotate(90 1305,746.6)" text-rendering="optimizeSpeed" fill="#000000">1.444 (112)</text>
  <rect fill="blue" height="7.3" stroke="black" width="12" x="1320" y="734.3"/>
  <text x="1320" y="746.6" font-family="Tahoma" font-size="12" transform="rotate(90 1320,746.6)" text-rendering="optimizeSpeed" fill="#000000">1.445 (73)</text>
  <rect fill="blue" height="11.7" stroke="black" width="12" x="1335" y="729.9"/>
  <text x="1335" y="746.6" font-family="Tahoma" font-size="12" transform="rotate(90 1335,746.6)" text-rendering="optimizeSpeed" fill="#000000">1.446 (117)</text>
  <rect fill="blue" height="19.5" stroke="black" width="12" x="1350" y="722.1"/>
  <text x="1350" y="746.6" font-family="Tahoma" font-size="12" transform="rotate(90 1350,746.6)" text-rendering="optimizeSpeed" fill="#000000">1.447 (195)</text>
  <rect fill="blue" height="15.2" stroke="black" width="12" x="1365" y="726.4"/>
  <text x="1365" y="746.6" font-family="Tahoma" font-size="12" transform="rotate(90 1365,746.6)" text-rendering="optimizeSpeed" fill="#000000">1.447.1 (152)</text>
  <rect fill="blue" height="0.2" stroke="black" width="12" x="1380" y="741.4"/>
  <text x="1380" y="746.6" font-family="Tahoma" font-size="12" transform="rotate(90 1380,746.6)" text-rendering="optimizeSpeed" fill="#000000">1.447.2-somc-1 (2)</text>
  <rect fill="blue" height="21.6" stroke="black" width="12" x="1395" y="720.0"/>
  <text x="1395" y="746.6" font-family="Tahoma" font-size="12" transform="rotate(90 1395,746.6)" text-rendering="optimizeSpeed" fill="#000000">1.447.2 (216)</text>
  <rect fill="blue" height="0.1" stroke="black" width="12" x="1410" y="741.5"/>
  <text x="1410" y="746.6" font-family="Tahoma" font-size="12" transform="rotate(90 1410,746.6)" text-rendering="optimizeSpeed" fill="#000000">1.447.6 (1)</text>
  <rect fill="blue" height="0.1" stroke="black" width="12" x="1425" y="741.5"/>
  <text x="1425" y="746.6" font-family="Tahoma" font-size="12" transform="rotate(90 1425,746.6)" text-rendering="optimizeSpeed" fill="#000000">1.447.7 (1)</text>
  <rect fill="blue" height="12.8" stroke="black" width="12" x="1440" y="728.8"/>
  <text x="1440" y="746.6" font-family="Tahoma" font-size="12" transform="rotate(90 1440,746.6)" text-rendering="optimizeSpeed" fill="#000000">1.448 (128)</text>
  <rect fill="blue" height="20.6" stroke="black" width="12" x="1455" y="721.0"/>
  <text x="1455" y="746.6" font-family="Tahoma" font-size="12" transform="rotate(90 1455,746.6)" text-rendering="optimizeSpeed" fill="#000000">1.449 (206)</text>
  <rect fill="blue" height="40.2" stroke="black" width="12" x="1470" y="701.4"/>
  <text x="1470" y="746.6" font-family="Tahoma" font-size="12" transform="rotate(90 1470,746.6)" text-rendering="optimizeSpeed" fill="#000000">1.450 (402)</text>
  <rect fill="blue" height="35.9" stroke="black" width="12" x="1485" y="705.7"/>
  <text x="1485" y="746.6" font-family="Tahoma" font-size="12" transform="rotate(90 1485,746.6)" text-rendering="optimizeSpeed" fill="#000000">1.451 (359)</text>
  <rect fill="blue" height="27.5" stroke="black" width="12" x="1500" y="714.1"/>
  <text x="1500" y="746.6" font-family="Tahoma" font-size="12" transform="rotate(90 1500,746.6)" text-rendering="optimizeSpeed" fill="#000000">1.452 (275)</text>
  <rect fill="blue" height="0.5" stroke="black" width="12" x="1515" y="741.1"/>
  <text x="1515" y="746.6" font-family="Tahoma" font-size="12" transform="rotate(90 1515,746.6)" text-rendering="optimizeSpeed" fill="#000000">1.453 (5)</text>
  <rect fill="blue" height="24.0" stroke="black" width="12" x="1530" y="717.6"/>
  <text x="1530" y="746.6" font-family="Tahoma" font-size="12" transform="rotate(90 1530,746.6)" text-rendering="optimizeSpeed" fill="#000000">1.454 (240)</text>
  <rect fill="blue" height="27.6" stroke="black" width="12" x="1545" y="714.0"/>
  <text x="1545" y="746.6" font-family="Tahoma" font-size="12" transform="rotate(90 1545,746.6)" text-rendering="optimizeSpeed" fill="#000000">1.455 (276)</text>
  <rect fill="blue" height="40.9" stroke="black" width="12" x="1560" y="700.7"/>
  <text x="1560" y="746.6" font-family="Tahoma" font-size="12" transform="rotate(90 1560,746.6)" text-rendering="optimizeSpeed" fill="#000000">1.456 (409)</text>
  <rect fill="blue" height="28.1" stroke="black" width="12" x="1575" y="713.5"/>
  <text x="1575" y="746.6" font-family="Tahoma" font-size="12" transform="rotate(90 1575,746.6)" text-rendering="optimizeSpeed" fill="#000000">1.457 (281)</text>
  <rect fill="blue" height="25.9" stroke="black" width="12" x="1590" y="715.7"/>
  <text x="1590" y="746.6" font-family="Tahoma" font-size="12" transform="rotate(90 1590,746.6)" text-rendering="optimizeSpeed" fill="#000000">1.458 (259)</text>
  <rect fill="blue" height="24.9" stroke="black" width="12" x="1605" y="716.7"/>
  <text x="1605" y="746.6" font-family="Tahoma" font-size="12" transform="rotate(90 1605,746.6)" text-rendering="optimizeSpeed" fill="#000000">1.459 (249)</text>
  <rect fill="blue" height="41.1" stroke="black" width="12" x="1620" y="700.5"/>
  <text x="1620" y="746.6" font-family="Tahoma" font-size="12" transform="rotate(90 1620,746.6)" text-rendering="optimizeSpeed" fill="#000000">1.460 (411)</text>
  <rect fill="blue" height="0.1" stroke="black" width="12" x="1635" y="741.5"/>
  <text x="1635" y="746.6" font-family="Tahoma" font-size="12" transform="rotate(90 1635,746.6)" text-rendering="optimizeSpeed" fill="#000000">1.460.1-vanguard-1 (1)</text>
  <rect fill="blue" height="27.6" stroke="black" width="12" x="1650" y="714.0"/>
  <text x="1650" y="746.6" font-family="Tahoma" font-size="12" transform="rotate(90 1650,746.6)" text-rendering="optimizeSpeed" fill="#000000">1.461 (276)</text>
  <rect fill="blue" height="24.8" stroke="black" width="12" x="1665" y="716.8"/>
  <text x="1665" y="746.6" font-family="Tahoma" font-size="12" transform="rotate(90 1665,746.6)" text-rendering="optimizeSpeed" fill="#000000">1.462 (248)</text>
  <rect fill="blue" height="28.1" stroke="black" width="12" x="1680" y="713.5"/>
  <text x="1680" y="746.6" font-family="Tahoma" font-size="12" transform="rotate(90 1680,746.6)" text-rendering="optimizeSpeed" fill="#000000">1.463 (281)</text>
  <rect fill="blue" height="32.1" stroke="black" width="12" x="1695" y="709.5"/>
  <text x="1695" y="746.6" font-family="Tahoma" font-size="12" transform="rotate(90 1695,746.6)" text-rendering="optimizeSpeed" fill="#000000">1.464 (321)</text>
  <rect fill="blue" height="0.9" stroke="black" width="12" x="1710" y="740.7"/>
  <text x="1710" y="746.6" font-family="Tahoma" font-size="12" transform="rotate(90 1710,746.6)" text-rendering="optimizeSpeed" fill="#000000">1.464.2ms (9)</text>
  <rect fill="blue" height="37.1" stroke="black" width="12" x="1725" y="704.5"/>
  <text x="1725" y="746.6" font-family="Tahoma" font-size="12" transform="rotate(90 1725,746.6)" text-rendering="optimizeSpeed" fill="#000000">1.465 (371)</text>
  <rect fill="blue" height="51.5" stroke="black" width="12" x="1740" y="690.1"/>
  <text x="1740" y="746.6" font-family="Tahoma" font-size="12" transform="rotate(90 1740,746.6)" text-rendering="optimizeSpeed" fill="#000000">1.466 (515)</text>
  <rect fill="blue" height="23.0" stroke="black" width="12" x="1755" y="718.6"/>
  <text x="1755" y="746.6" font-family="Tahoma" font-size="12" transform="rotate(90 1755,746.6)" text-rendering="optimizeSpeed" fill="#000000">1.466.1 (230)</text>
  <rect fill="blue" height="63.3" stroke="black" width="12" x="1770" y="678.3"/>
  <text x="1770" y="746.6" font-family="Tahoma" font-size="12" transform="rotate(90 1770,746.6)" text-rendering="optimizeSpeed" fill="#000000">1.466.2 (633)</text>
  <rect fill="blue" height="0.1" stroke="black" width="12" x="1785" y="741.5"/>
  <text x="1785" y="746.6" font-family="Tahoma" font-size="12" transform="rotate(90 1785,746.6)" text-rendering="optimizeSpeed" fill="#000000">1.466.2+JENKINS-15382 (1)</text>
  <rect fill="blue" height="0.1" stroke="black" width="12" x="1800" y="741.5"/>
  <text x="1800" y="746.6" font-family="Tahoma" font-size="12" transform="rotate(90 1800,746.6)" text-rendering="optimizeSpeed" fill="#000000">1.466.2.2 (1)</text>
  <rect fill="blue" height="32.3" stroke="black" width="12" x="1815" y="709.3"/>
  <text x="1815" y="746.6" font-family="Tahoma" font-size="12" transform="rotate(90 1815,746.6)" text-rendering="optimizeSpeed" fill="#000000">1.467 (323)</text>
  <rect fill="blue" height="2.6" stroke="black" width="12" x="1830" y="739.0"/>
  <text x="1830" y="746.6" font-family="Tahoma" font-size="12" transform="rotate(90 1830,746.6)" text-rendering="optimizeSpeed" fill="#000000">1.468 (26)</text>
  <rect fill="blue" height="8.0" stroke="black" width="12" x="1845" y="733.6"/>
  <text x="1845" y="746.6" font-family="Tahoma" font-size="12" transform="rotate(90 1845,746.6)" text-rendering="optimizeSpeed" fill="#000000">1.469 (80)</text>
  <rect fill="blue" height="28.4" stroke="black" width="12" x="1860" y="713.2"/>
  <text x="1860" y="746.6" font-family="Tahoma" font-size="12" transform="rotate(90 1860,746.6)" text-rendering="optimizeSpeed" fill="#000000">1.470 (284)</text>
  <rect fill="blue" height="33.2" stroke="black" width="12" x="1875" y="708.4"/>
  <text x="1875" y="746.6" font-family="Tahoma" font-size="12" transform="rotate(90 1875,746.6)" text-rendering="optimizeSpeed" fill="#000000">1.471 (332)</text>
  <rect fill="blue" height="39.1" stroke="black" width="12" x="1890" y="702.5"/>
  <text x="1890" y="746.6" font-family="Tahoma" font-size="12" transform="rotate(90 1890,746.6)" text-rendering="optimizeSpeed" fill="#000000">1.472 (391)</text>
  <rect fill="blue" height="48.9" stroke="black" width="12" x="1905" y="692.7"/>
  <text x="1905" y="746.6" font-family="Tahoma" font-size="12" transform="rotate(90 1905,746.6)" text-rendering="optimizeSpeed" fill="#000000">1.473 (489)</text>
  <rect fill="blue" height="64.9" stroke="black" width="12" x="1920" y="676.7"/>
  <text x="1920" y="746.6" font-family="Tahoma" font-size="12" transform="rotate(90 1920,746.6)" text-rendering="optimizeSpeed" fill="#000000">1.474 (649)</text>
  <rect fill="blue" height="76.7" stroke="black" width="12" x="1935" y="664.9"/>
  <text x="1935" y="746.6" font-family="Tahoma" font-size="12" transform="rotate(90 1935,746.6)" text-rendering="optimizeSpeed" fill="#000000">1.475 (767)</text>
  <rect fill="blue" height="34.0" stroke="black" width="12" x="1950" y="707.6"/>
  <text x="1950" y="746.6" font-family="Tahoma" font-size="12" transform="rotate(90 1950,746.6)" text-rendering="optimizeSpeed" fill="#000000">1.476 (340)</text>
  <rect fill="blue" height="64.8" stroke="black" width="12" x="1965" y="676.8"/>
  <text x="1965" y="746.6" font-family="Tahoma" font-size="12" transform="rotate(90 1965,746.6)" text-rendering="optimizeSpeed" fill="#000000">1.477 (648)</text>
  <rect fill="blue" height="65.9" stroke="black" width="12" x="1980" y="675.7"/>
  <text x="1980" y="746.6" font-family="Tahoma" font-size="12" transform="rotate(90 1980,746.6)" text-rendering="optimizeSpeed" fill="#000000">1.478 (659)</text>
  <rect fill="blue" height="24.8" stroke="black" width="12" x="1995" y="716.8"/>
  <text x="1995" y="746.6" font-family="Tahoma" font-size="12" transform="rotate(90 1995,746.6)" text-rendering="optimizeSpeed" fill="#000000">1.479 (248)</text>
  <rect fill="blue" height="54.4" stroke="black" width="12" x="2010" y="687.2"/>
  <text x="2010" y="746.6" font-family="Tahoma" font-size="12" transform="rotate(90 2010,746.6)" text-rendering="optimizeSpeed" fill="#000000">1.480 (544)</text>
  <rect fill="blue" height="0.1" stroke="black" width="12" x="2025" y="741.5"/>
  <text x="2025" y="746.6" font-family="Tahoma" font-size="12" transform="rotate(90 2025,746.6)" text-rendering="optimizeSpeed" fill="#000000">1.480.1-Schneider-1.2 (1)</text>
  <rect fill="blue" height="54.7" stroke="black" width="12" x="2040" y="686.9"/>
  <text x="2040" y="746.6" font-family="Tahoma" font-size="12" transform="rotate(90 2040,746.6)" text-rendering="optimizeSpeed" fill="#000000">1.480.1 (547)</text>
  <rect fill="blue" height="92.0" stroke="black" width="12" x="2055" y="649.6"/>
  <text x="2055" y="746.6" font-family="Tahoma" font-size="12" transform="rotate(90 2055,746.6)" text-rendering="optimizeSpeed" fill="#000000">1.480.2 (920)</text>
  <rect fill="blue" height="58.2" stroke="black" width="12" x="2070" y="683.4"/>
  <text x="2070" y="746.6" font-family="Tahoma" font-size="12" transform="rotate(90 2070,746.6)" text-rendering="optimizeSpeed" fill="#000000">1.480.3 (582)</text>
  <rect fill="blue" height="47.7" stroke="black" width="12" x="2085" y="693.9"/>
  <text x="2085" y="746.6" font-family="Tahoma" font-size="12" transform="rotate(90 2085,746.6)" text-rendering="optimizeSpeed" fill="#000000">1.481 (477)</text>
  <rect fill="blue" height="57.1" stroke="black" width="12" x="2100" y="684.5"/>
  <text x="2100" y="746.6" font-family="Tahoma" font-size="12" transform="rotate(90 2100,746.6)" text-rendering="optimizeSpeed" fill="#000000">1.482 (571)</text>
  <rect fill="blue" height="61.0" stroke="black" width="12" x="2115" y="680.6"/>
  <text x="2115" y="746.6" font-family="Tahoma" font-size="12" transform="rotate(90 2115,746.6)" text-rendering="optimizeSpeed" fill="#000000">1.483 (610)</text>
  <rect fill="blue" height="65.9" stroke="black" width="12" x="2130" y="675.7"/>
  <text x="2130" y="746.6" font-family="Tahoma" font-size="12" transform="rotate(90 2130,746.6)" text-rendering="optimizeSpeed" fill="#000000">1.484 (659)</text>
  <rect fill="blue" height="38.7" stroke="black" width="12" x="2145" y="702.9"/>
  <text x="2145" y="746.6" font-family="Tahoma" font-size="12" transform="rotate(90 2145,746.6)" text-rendering="optimizeSpeed" fill="#000000">1.485 (387)</text>
  <rect fill="blue" height="102.7" stroke="black" width="12" x="2160" y="638.9"/>
  <text x="2160" y="746.6" font-family="Tahoma" font-size="12" transform="rotate(90 2160,746.6)" text-rendering="optimizeSpeed" fill="#000000">1.486 (1027)</text>
  <rect fill="blue" height="45.9" stroke="black" width="12" x="2175" y="695.7"/>
  <text x="2175" y="746.6" font-family="Tahoma" font-size="12" transform="rotate(90 2175,746.6)" text-rendering="optimizeSpeed" fill="#000000">1.487 (459)</text>
  <rect fill="blue" height="69.1" stroke="black" width="12" x="2190" y="672.5"/>
  <text x="2190" y="746.6" font-family="Tahoma" font-size="12" transform="rotate(90 2190,746.6)" text-rendering="optimizeSpeed" fill="#000000">1.488 (691)</text>
  <rect fill="blue" height="91.2" stroke="black" width="12" x="2205" y="650.4"/>
  <text x="2205" y="746.6" font-family="Tahoma" font-size="12" transform="rotate(90 2205,746.6)" text-rendering="optimizeSpeed" fill="#000000">1.489 (912)</text>
  <rect fill="blue" height="61.1" stroke="black" width="12" x="2220" y="680.5"/>
  <text x="2220" y="746.6" font-family="Tahoma" font-size="12" transform="rotate(90 2220,746.6)" text-rendering="optimizeSpeed" fill="#000000">1.490 (611)</text>
  <rect fill="blue" height="91.9" stroke="black" width="12" x="2235" y="649.7"/>
  <text x="2235" y="746.6" font-family="Tahoma" font-size="12" transform="rotate(90 2235,746.6)" text-rendering="optimizeSpeed" fill="#000000">1.491 (919)</text>
  <rect fill="blue" height="176.9" stroke="black" width="12" x="2250" y="564.7"/>
  <text x="2250" y="746.6" font-family="Tahoma" font-size="12" transform="rotate(90 2250,746.6)" text-rendering="optimizeSpeed" fill="#000000">1.492 (1769)</text>
  <rect fill="blue" height="102.5" stroke="black" width="12" x="2265" y="639.1"/>
  <text x="2265" y="746.6" font-family="Tahoma" font-size="12" transform="rotate(90 2265,746.6)" text-rendering="optimizeSpeed" fill="#000000">1.493 (1025)</text>
  <rect fill="blue" height="109.5" stroke="black" width="12" x="2280" y="632.1"/>
  <text x="2280" y="746.6" font-family="Tahoma" font-size="12" transform="rotate(90 2280,746.6)" text-rendering="optimizeSpeed" fill="#000000">1.494 (1095)</text>
  <rect fill="blue" height="52.0" stroke="black" width="12" x="2295" y="689.6"/>
  <text x="2295" y="746.6" font-family="Tahoma" font-size="12" transform="rotate(90 2295,746.6)" text-rendering="optimizeSpeed" fill="#000000">1.495 (520)</text>
  <rect fill="blue" height="87.0" stroke="black" width="12" x="2310" y="654.6"/>
  <text x="2310" y="746.6" font-family="Tahoma" font-size="12" transform="rotate(90 2310,746.6)" text-rendering="optimizeSpeed" fill="#000000">1.496 (870)</text>
  <rect fill="blue" height="27.5" stroke="black" width="12" x="2325" y="714.1"/>
  <text x="2325" y="746.6" font-family="Tahoma" font-size="12" transform="rotate(90 2325,746.6)" text-rendering="optimizeSpeed" fill="#000000">1.497 (275)</text>
  <rect fill="blue" height="134.8" stroke="black" width="12" x="2340" y="606.8"/>
  <text x="2340" y="746.6" font-family="Tahoma" font-size="12" transform="rotate(90 2340,746.6)" text-rendering="optimizeSpeed" fill="#000000">1.498 (1348)</text>
  <rect fill="blue" height="311.5" stroke="black" width="12" x="2355" y="430.1"/>
  <text x="2355" y="746.6" font-family="Tahoma" font-size="12" transform="rotate(90 2355,746.6)" text-rendering="optimizeSpeed" fill="#000000">1.499 (3115)</text>
  <rect fill="blue" height="657.7" stroke="black" width="12" x="2370" y="83.9"/>
  <text x="2370" y="746.6" font-family="Tahoma" font-size="12" transform="rotate(90 2370,746.6)" text-rendering="optimizeSpeed" fill="#000000">1.500 (6577)</text>
  <rect fill="blue" height="318.1" stroke="black" width="12" x="2385" y="423.5"/>
  <text x="2385" y="746.6" font-family="Tahoma" font-size="12" transform="rotate(90 2385,746.6)" text-rendering="optimizeSpeed" fill="#000000">1.501 (3181)</text>
  <rect fill="blue" height="691.6" stroke="black" width="12" x="2400" y="50.0"/>
  <text x="2400" y="746.6" font-family="Tahoma" font-size="12" transform="rotate(90 2400,746.6)" text-rendering="optimizeSpeed" fill="#000000">1.502 (6916)</text>
  <rect fill="blue" height="0.1" stroke="black" width="12" x="2415" y="741.5"/>
  <text x="2415" y="746.6" font-family="Tahoma" font-size="12" transform="rotate(90 2415,746.6)" text-rendering="optimizeSpeed" fill="#000000">1.502.19 (1)</text>
  <rect fill="blue" height="180.1" stroke="black" width="12" x="2430" y="561.5"/>
  <text x="2430" y="746.6" font-family="Tahoma" font-size="12" transform="rotate(90 2430,746.6)" text-rendering="optimizeSpeed" fill="#000000">1.503 (1801)</text>
  <rect fill="blue" height="0.1" stroke="black" width="12" x="2445" y="741.5"/>
  <text x="2445" y="746.6" font-family="Tahoma" font-size="12" transform="rotate(90 2445,746.6)" text-rendering="optimizeSpeed" fill="#000000">1.504.5 (1)</text>
  <text x="10" y="40" font-family="Tahoma" font-size="20" text-rendering="optimizeSpeed" fill="#000000">Jenkins installations (total: 57239)</text>
</svg>
