<svg xmlns="http://www.w3.org/2000/svg" version="1.1" preserveAspectRatio="xMidYMid meet" viewBox="0 0 2660 804.6">
  <rect fill="blue" height="1.0" stroke="black" width="12" x="15" y="503.6"/>
  <text x="15" y="509.6" font-family="Tahoma" font-size="12" transform="rotate(90 15,509.6)" text-rendering="optimizeSpeed" fill="#000000">1.396 (10)</text>
  <rect fill="blue" height="0.7" stroke="black" width="12" x="30" y="503.9"/>
  <text x="30" y="509.6" font-family="Tahoma" font-size="12" transform="rotate(90 30,509.6)" text-rendering="optimizeSpeed" fill="#000000">1.397 (7)</text>
  <rect fill="blue" height="1.1" stroke="black" width="12" x="45" y="503.5"/>
  <text x="45" y="509.6" font-family="Tahoma" font-size="12" transform="rotate(90 45,509.6)" text-rendering="optimizeSpeed" fill="#000000">1.398 (11)</text>
  <rect fill="blue" height="1.8" stroke="black" width="12" x="60" y="502.8"/>
  <text x="60" y="509.6" font-family="Tahoma" font-size="12" transform="rotate(90 60,509.6)" text-rendering="optimizeSpeed" fill="#000000">1.399 (18)</text>
  <rect fill="blue" height="1.9" stroke="black" width="12" x="75" y="502.7"/>
  <text x="75" y="509.6" font-family="Tahoma" font-size="12" transform="rotate(90 75,509.6)" text-rendering="optimizeSpeed" fill="#000000">1.400 (19)</text>
  <rect fill="blue" height="3.3" stroke="black" width="12" x="90" y="501.3"/>
  <text x="90" y="509.6" font-family="Tahoma" font-size="12" transform="rotate(90 90,509.6)" text-rendering="optimizeSpeed" fill="#000000">1.401 (33)</text>
  <rect fill="blue" height="1.9" stroke="black" width="12" x="105" y="502.7"/>
  <text x="105" y="509.6" font-family="Tahoma" font-size="12" transform="rotate(90 105,509.6)" text-rendering="optimizeSpeed" fill="#000000">1.403 (19)</text>
  <rect fill="blue" height="2.0" stroke="black" width="12" x="120" y="502.6"/>
  <text x="120" y="509.6" font-family="Tahoma" font-size="12" transform="rotate(90 120,509.6)" text-rendering="optimizeSpeed" fill="#000000">1.404 (20)</text>
  <rect fill="blue" height="2.2" stroke="black" width="12" x="135" y="502.4"/>
  <text x="135" y="509.6" font-family="Tahoma" font-size="12" transform="rotate(90 135,509.6)" text-rendering="optimizeSpeed" fill="#000000">1.405 (22)</text>
  <rect fill="blue" height="1.3" stroke="black" width="12" x="150" y="503.3"/>
  <text x="150" y="509.6" font-family="Tahoma" font-size="12" transform="rotate(90 150,509.6)" text-rendering="optimizeSpeed" fill="#000000">1.406 (13)</text>
  <rect fill="blue" height="0.4" stroke="black" width="12" x="165" y="504.2"/>
  <text x="165" y="509.6" font-family="Tahoma" font-size="12" transform="rotate(90 165,509.6)" text-rendering="optimizeSpeed" fill="#000000">1.407 (4)</text>
  <rect fill="blue" height="2.3" stroke="black" width="12" x="180" y="502.3"/>
  <text x="180" y="509.6" font-family="Tahoma" font-size="12" transform="rotate(90 180,509.6)" text-rendering="optimizeSpeed" fill="#000000">1.408 (23)</text>
  <rect fill="blue" height="2.1" stroke="black" width="12" x="195" y="502.5"/>
  <text x="195" y="509.6" font-family="Tahoma" font-size="12" transform="rotate(90 195,509.6)" text-rendering="optimizeSpeed" fill="#000000">1.409 (21)</text>
  <rect fill="blue" height="6.2" stroke="black" width="12" x="210" y="498.4"/>
  <text x="210" y="509.6" font-family="Tahoma" font-size="12" transform="rotate(90 210,509.6)" text-rendering="optimizeSpeed" fill="#000000">1.409.1 (62)</text>
  <rect fill="blue" height="2.9" stroke="black" width="12" x="225" y="501.7"/>
  <text x="225" y="509.6" font-family="Tahoma" font-size="12" transform="rotate(90 225,509.6)" text-rendering="optimizeSpeed" fill="#000000">1.409.2 (29)</text>
  <rect fill="blue" height="1.4" stroke="black" width="12" x="240" y="503.2"/>
  <text x="240" y="509.6" font-family="Tahoma" font-size="12" transform="rotate(90 240,509.6)" text-rendering="optimizeSpeed" fill="#000000">1.409.3 (14)</text>
  <rect fill="blue" height="6.4" stroke="black" width="12" x="255" y="498.2"/>
  <text x="255" y="509.6" font-family="Tahoma" font-size="12" transform="rotate(90 255,509.6)" text-rendering="optimizeSpeed" fill="#000000">1.410 (64)</text>
  <rect fill="blue" height="2.7" stroke="black" width="12" x="270" y="501.9"/>
  <text x="270" y="509.6" font-family="Tahoma" font-size="12" transform="rotate(90 270,509.6)" text-rendering="optimizeSpeed" fill="#000000">1.411 (27)</text>
  <rect fill="blue" height="1.8" stroke="black" width="12" x="285" y="502.8"/>
  <text x="285" y="509.6" font-family="Tahoma" font-size="12" transform="rotate(90 285,509.6)" text-rendering="optimizeSpeed" fill="#000000">1.412 (18)</text>
  <rect fill="blue" height="5.1" stroke="black" width="12" x="300" y="499.5"/>
  <text x="300" y="509.6" font-family="Tahoma" font-size="12" transform="rotate(90 300,509.6)" text-rendering="optimizeSpeed" fill="#000000">1.413 (51)</text>
  <rect fill="blue" height="3.3" stroke="black" width="12" x="315" y="501.3"/>
  <text x="315" y="509.6" font-family="Tahoma" font-size="12" transform="rotate(90 315,509.6)" text-rendering="optimizeSpeed" fill="#000000">1.414 (33)</text>
  <rect fill="blue" height="3.8" stroke="black" width="12" x="330" y="500.8"/>
  <text x="330" y="509.6" font-family="Tahoma" font-size="12" transform="rotate(90 330,509.6)" text-rendering="optimizeSpeed" fill="#000000">1.415 (38)</text>
  <rect fill="blue" height="1.0" stroke="black" width="12" x="345" y="503.6"/>
  <text x="345" y="509.6" font-family="Tahoma" font-size="12" transform="rotate(90 345,509.6)" text-rendering="optimizeSpeed" fill="#000000">1.416 (10)</text>
  <rect fill="blue" height="1.6" stroke="black" width="12" x="360" y="503.0"/>
  <text x="360" y="509.6" font-family="Tahoma" font-size="12" transform="rotate(90 360,509.6)" text-rendering="optimizeSpeed" fill="#000000">1.417 (16)</text>
  <rect fill="blue" height="3.1" stroke="black" width="12" x="375" y="501.5"/>
  <text x="375" y="509.6" font-family="Tahoma" font-size="12" transform="rotate(90 375,509.6)" text-rendering="optimizeSpeed" fill="#000000">1.418 (31)</text>
  <rect fill="blue" height="2.7" stroke="black" width="12" x="390" y="501.9"/>
  <text x="390" y="509.6" font-family="Tahoma" font-size="12" transform="rotate(90 390,509.6)" text-rendering="optimizeSpeed" fill="#000000">1.419 (27)</text>
  <rect fill="blue" height="4.8" stroke="black" width="12" x="405" y="499.8"/>
  <text x="405" y="509.6" font-family="Tahoma" font-size="12" transform="rotate(90 405,509.6)" text-rendering="optimizeSpeed" fill="#000000">1.420 (48)</text>
  <rect fill="blue" height="4.9" stroke="black" width="12" x="420" y="499.7"/>
  <text x="420" y="509.6" font-family="Tahoma" font-size="12" transform="rotate(90 420,509.6)" text-rendering="optimizeSpeed" fill="#000000">1.421 (49)</text>
  <rect fill="blue" height="4.6" stroke="black" width="12" x="435" y="500.0"/>
  <text x="435" y="509.6" font-family="Tahoma" font-size="12" transform="rotate(90 435,509.6)" text-rendering="optimizeSpeed" fill="#000000">1.423 (46)</text>
  <rect fill="blue" height="8.2" stroke="black" width="12" x="450" y="496.4"/>
  <text x="450" y="509.6" font-family="Tahoma" font-size="12" transform="rotate(90 450,509.6)" text-rendering="optimizeSpeed" fill="#000000">1.424 (82)</text>
  <rect fill="blue" height="3.8" stroke="black" width="12" x="465" y="500.8"/>
  <text x="465" y="509.6" font-family="Tahoma" font-size="12" transform="rotate(90 465,509.6)" text-rendering="optimizeSpeed" fill="#000000">1.424.1 (38)</text>
  <rect fill="blue" height="3.7" stroke="black" width="12" x="480" y="500.9"/>
  <text x="480" y="509.6" font-family="Tahoma" font-size="12" transform="rotate(90 480,509.6)" text-rendering="optimizeSpeed" fill="#000000">1.424.2 (37)</text>
  <rect fill="blue" height="0.5" stroke="black" width="12" x="495" y="504.1"/>
  <text x="495" y="509.6" font-family="Tahoma" font-size="12" transform="rotate(90 495,509.6)" text-rendering="optimizeSpeed" fill="#000000">1.424.3 (5)</text>
  <rect fill="blue" height="56.7" stroke="black" width="12" x="510" y="447.9"/>
  <text x="510" y="509.6" font-family="Tahoma" font-size="12" transform="rotate(90 510,509.6)" text-rendering="optimizeSpeed" fill="#000000">1.424.6 (567)</text>
  <rect fill="blue" height="0.1" stroke="black" width="12" x="525" y="504.5"/>
  <text x="525" y="509.6" font-family="Tahoma" font-size="12" transform="rotate(90 525,509.6)" text-rendering="optimizeSpeed" fill="#000000">1.424.6.10 (1)</text>
  <rect fill="blue" height="5.9" stroke="black" width="12" x="540" y="498.7"/>
  <text x="540" y="509.6" font-family="Tahoma" font-size="12" transform="rotate(90 540,509.6)" text-rendering="optimizeSpeed" fill="#000000">1.425 (59)</text>
  <rect fill="blue" height="2.4" stroke="black" width="12" x="555" y="502.2"/>
  <text x="555" y="509.6" font-family="Tahoma" font-size="12" transform="rotate(90 555,509.6)" text-rendering="optimizeSpeed" fill="#000000">1.426 (24)</text>
  <rect fill="blue" height="5.7" stroke="black" width="12" x="570" y="498.9"/>
  <text x="570" y="509.6" font-family="Tahoma" font-size="12" transform="rotate(90 570,509.6)" text-rendering="optimizeSpeed" fill="#000000">1.427 (57)</text>
  <rect fill="blue" height="4.8" stroke="black" width="12" x="585" y="499.8"/>
  <text x="585" y="509.6" font-family="Tahoma" font-size="12" transform="rotate(90 585,509.6)" text-rendering="optimizeSpeed" fill="#000000">1.428 (48)</text>
  <rect fill="blue" height="4.7" stroke="black" width="12" x="600" y="499.9"/>
  <text x="600" y="509.6" font-family="Tahoma" font-size="12" transform="rotate(90 600,509.6)" text-rendering="optimizeSpeed" fill="#000000">1.429 (47)</text>
  <rect fill="blue" height="8.7" stroke="black" width="12" x="615" y="495.9"/>
  <text x="615" y="509.6" font-family="Tahoma" font-size="12" transform="rotate(90 615,509.6)" text-rendering="optimizeSpeed" fill="#000000">1.430 (87)</text>
  <rect fill="blue" height="7.1" stroke="black" width="12" x="630" y="497.5"/>
  <text x="630" y="509.6" font-family="Tahoma" font-size="12" transform="rotate(90 630,509.6)" text-rendering="optimizeSpeed" fill="#000000">1.431 (71)</text>
  <rect fill="blue" height="8.1" stroke="black" width="12" x="645" y="496.5"/>
  <text x="645" y="509.6" font-family="Tahoma" font-size="12" transform="rotate(90 645,509.6)" text-rendering="optimizeSpeed" fill="#000000">1.432 (81)</text>
  <rect fill="blue" height="5.6" stroke="black" width="12" x="660" y="499.0"/>
  <text x="660" y="509.6" font-family="Tahoma" font-size="12" transform="rotate(90 660,509.6)" text-rendering="optimizeSpeed" fill="#000000">1.433 (56)</text>
  <rect fill="blue" height="7.1" stroke="black" width="12" x="675" y="497.5"/>
  <text x="675" y="509.6" font-family="Tahoma" font-size="12" transform="rotate(90 675,509.6)" text-rendering="optimizeSpeed" fill="#000000">1.434 (71)</text>
  <rect fill="blue" height="3.8" stroke="black" width="12" x="690" y="500.8"/>
  <text x="690" y="509.6" font-family="Tahoma" font-size="12" transform="rotate(90 690,509.6)" text-rendering="optimizeSpeed" fill="#000000">1.435 (38)</text>
  <rect fill="blue" height="7.9" stroke="black" width="12" x="705" y="496.7"/>
  <text x="705" y="509.6" font-family="Tahoma" font-size="12" transform="rotate(90 705,509.6)" text-rendering="optimizeSpeed" fill="#000000">1.436 (79)</text>
  <rect fill="blue" height="6.2" stroke="black" width="12" x="720" y="498.4"/>
  <text x="720" y="509.6" font-family="Tahoma" font-size="12" transform="rotate(90 720,509.6)" text-rendering="optimizeSpeed" fill="#000000">1.437 (62)</text>
  <rect fill="blue" height="8.1" stroke="black" width="12" x="735" y="496.5"/>
  <text x="735" y="509.6" font-family="Tahoma" font-size="12" transform="rotate(90 735,509.6)" text-rendering="optimizeSpeed" fill="#000000">1.438 (81)</text>
  <rect fill="blue" height="4.2" stroke="black" width="12" x="750" y="500.4"/>
  <text x="750" y="509.6" font-family="Tahoma" font-size="12" transform="rotate(90 750,509.6)" text-rendering="optimizeSpeed" fill="#000000">1.439 (42)</text>
  <rect fill="blue" height="8.2" stroke="black" width="12" x="765" y="496.4"/>
  <text x="765" y="509.6" font-family="Tahoma" font-size="12" transform="rotate(90 765,509.6)" text-rendering="optimizeSpeed" fill="#000000">1.440 (82)</text>
  <rect fill="blue" height="14.5" stroke="black" width="12" x="780" y="490.1"/>
  <text x="780" y="509.6" font-family="Tahoma" font-size="12" transform="rotate(90 780,509.6)" text-rendering="optimizeSpeed" fill="#000000">1.441 (145)</text>
  <rect fill="blue" height="8.3" stroke="black" width="12" x="795" y="496.3"/>
  <text x="795" y="509.6" font-family="Tahoma" font-size="12" transform="rotate(90 795,509.6)" text-rendering="optimizeSpeed" fill="#000000">1.442 (83)</text>
  <rect fill="blue" height="7.9" stroke="black" width="12" x="810" y="496.7"/>
  <text x="810" y="509.6" font-family="Tahoma" font-size="12" transform="rotate(90 810,509.6)" text-rendering="optimizeSpeed" fill="#000000">1.443 (79)</text>
  <rect fill="blue" height="6.2" stroke="black" width="12" x="825" y="498.4"/>
  <text x="825" y="509.6" font-family="Tahoma" font-size="12" transform="rotate(90 825,509.6)" text-rendering="optimizeSpeed" fill="#000000">1.444 (62)</text>
  <rect fill="blue" height="4.5" stroke="black" width="12" x="840" y="500.1"/>
  <text x="840" y="509.6" font-family="Tahoma" font-size="12" transform="rotate(90 840,509.6)" text-rendering="optimizeSpeed" fill="#000000">1.445 (45)</text>
  <rect fill="blue" height="7.3" stroke="black" width="12" x="855" y="497.3"/>
  <text x="855" y="509.6" font-family="Tahoma" font-size="12" transform="rotate(90 855,509.6)" text-rendering="optimizeSpeed" fill="#000000">1.446 (73)</text>
  <rect fill="blue" height="11.3" stroke="black" width="12" x="870" y="493.3"/>
  <text x="870" y="509.6" font-family="Tahoma" font-size="12" transform="rotate(90 870,509.6)" text-rendering="optimizeSpeed" fill="#000000">1.447 (113)</text>
  <rect fill="blue" height="9.8" stroke="black" width="12" x="885" y="494.8"/>
  <text x="885" y="509.6" font-family="Tahoma" font-size="12" transform="rotate(90 885,509.6)" text-rendering="optimizeSpeed" fill="#000000">1.447.1 (98)</text>
  <rect fill="blue" height="0.1" stroke="black" width="12" x="900" y="504.5"/>
  <text x="900" y="509.6" font-family="Tahoma" font-size="12" transform="rotate(90 900,509.6)" text-rendering="optimizeSpeed" fill="#000000">1.447.2-somc-1 (1)</text>
  <rect fill="blue" height="8.9" stroke="black" width="12" x="915" y="495.7"/>
  <text x="915" y="509.6" font-family="Tahoma" font-size="12" transform="rotate(90 915,509.6)" text-rendering="optimizeSpeed" fill="#000000">1.447.2 (89)</text>
  <rect fill="blue" height="5.3" stroke="black" width="12" x="930" y="499.3"/>
  <text x="930" y="509.6" font-family="Tahoma" font-size="12" transform="rotate(90 930,509.6)" text-rendering="optimizeSpeed" fill="#000000">1.448 (53)</text>
  <rect fill="blue" height="9.8" stroke="black" width="12" x="945" y="494.8"/>
  <text x="945" y="509.6" font-family="Tahoma" font-size="12" transform="rotate(90 945,509.6)" text-rendering="optimizeSpeed" fill="#000000">1.449 (98)</text>
  <rect fill="blue" height="22.6" stroke="black" width="12" x="960" y="482.0"/>
  <text x="960" y="509.6" font-family="Tahoma" font-size="12" transform="rotate(90 960,509.6)" text-rendering="optimizeSpeed" fill="#000000">1.450 (226)</text>
  <rect fill="blue" height="18.0" stroke="black" width="12" x="975" y="486.6"/>
  <text x="975" y="509.6" font-family="Tahoma" font-size="12" transform="rotate(90 975,509.6)" text-rendering="optimizeSpeed" fill="#000000">1.451 (180)</text>
  <rect fill="blue" height="11.3" stroke="black" width="12" x="990" y="493.3"/>
  <text x="990" y="509.6" font-family="Tahoma" font-size="12" transform="rotate(90 990,509.6)" text-rendering="optimizeSpeed" fill="#000000">1.452 (113)</text>
  <rect fill="blue" height="0.2" stroke="black" width="12" x="1005" y="504.4"/>
  <text x="1005" y="509.6" font-family="Tahoma" font-size="12" transform="rotate(90 1005,509.6)" text-rendering="optimizeSpeed" fill="#000000">1.453 (2)</text>
  <rect fill="blue" height="12.5" stroke="black" width="12" x="1020" y="492.1"/>
  <text x="1020" y="509.6" font-family="Tahoma" font-size="12" transform="rotate(90 1020,509.6)" text-rendering="optimizeSpeed" fill="#000000">1.454 (125)</text>
  <rect fill="blue" height="15.7" stroke="black" width="12" x="1035" y="488.9"/>
  <text x="1035" y="509.6" font-family="Tahoma" font-size="12" transform="rotate(90 1035,509.6)" text-rendering="optimizeSpeed" fill="#000000">1.455 (157)</text>
  <rect fill="blue" height="27.7" stroke="black" width="12" x="1050" y="476.9"/>
  <text x="1050" y="509.6" font-family="Tahoma" font-size="12" transform="rotate(90 1050,509.6)" text-rendering="optimizeSpeed" fill="#000000">1.456 (277)</text>
  <rect fill="blue" height="15.7" stroke="black" width="12" x="1065" y="488.9"/>
  <text x="1065" y="509.6" font-family="Tahoma" font-size="12" transform="rotate(90 1065,509.6)" text-rendering="optimizeSpeed" fill="#000000">1.457 (157)</text>
  <rect fill="blue" height="0.1" stroke="black" width="12" x="1080" y="504.5"/>
  <text x="1080" y="509.6" font-family="Tahoma" font-size="12" transform="rotate(90 1080,509.6)" text-rendering="optimizeSpeed" fill="#000000">1.458-fusion-01 (1)</text>
  <rect fill="blue" height="18.2" stroke="black" width="12" x="1095" y="486.4"/>
  <text x="1095" y="509.6" font-family="Tahoma" font-size="12" transform="rotate(90 1095,509.6)" text-rendering="optimizeSpeed" fill="#000000">1.458 (182)</text>
  <rect fill="blue" height="10.9" stroke="black" width="12" x="1110" y="493.7"/>
  <text x="1110" y="509.6" font-family="Tahoma" font-size="12" transform="rotate(90 1110,509.6)" text-rendering="optimizeSpeed" fill="#000000">1.459 (109)</text>
  <rect fill="blue" height="0.2" stroke="black" width="12" x="1125" y="504.4"/>
  <text x="1125" y="509.6" font-family="Tahoma" font-size="12" transform="rotate(90 1125,509.6)" text-rendering="optimizeSpeed" fill="#000000">1.460-fusion-01 (2)</text>
  <rect fill="blue" height="21.7" stroke="black" width="12" x="1140" y="482.9"/>
  <text x="1140" y="509.6" font-family="Tahoma" font-size="12" transform="rotate(90 1140,509.6)" text-rendering="optimizeSpeed" fill="#000000">1.460 (217)</text>
  <rect fill="blue" height="15.4" stroke="black" width="12" x="1155" y="489.2"/>
  <text x="1155" y="509.6" font-family="Tahoma" font-size="12" transform="rotate(90 1155,509.6)" text-rendering="optimizeSpeed" fill="#000000">1.461 (154)</text>
  <rect fill="blue" height="14.2" stroke="black" width="12" x="1170" y="490.4"/>
  <text x="1170" y="509.6" font-family="Tahoma" font-size="12" transform="rotate(90 1170,509.6)" text-rendering="optimizeSpeed" fill="#000000">1.462 (142)</text>
  <rect fill="blue" height="13.6" stroke="black" width="12" x="1185" y="491.0"/>
  <text x="1185" y="509.6" font-family="Tahoma" font-size="12" transform="rotate(90 1185,509.6)" text-rendering="optimizeSpeed" fill="#000000">1.463 (136)</text>
  <rect fill="blue" height="19.0" stroke="black" width="12" x="1200" y="485.6"/>
  <text x="1200" y="509.6" font-family="Tahoma" font-size="12" transform="rotate(90 1200,509.6)" text-rendering="optimizeSpeed" fill="#000000">1.464 (190)</text>
  <rect fill="blue" height="0.6" stroke="black" width="12" x="1215" y="504.0"/>
  <text x="1215" y="509.6" font-family="Tahoma" font-size="12" transform="rotate(90 1215,509.6)" text-rendering="optimizeSpeed" fill="#000000">1.464.2ms (6)</text>
  <rect fill="blue" height="16.3" stroke="black" width="12" x="1230" y="488.3"/>
  <text x="1230" y="509.6" font-family="Tahoma" font-size="12" transform="rotate(90 1230,509.6)" text-rendering="optimizeSpeed" fill="#000000">1.465 (163)</text>
  <rect fill="blue" height="22.4" stroke="black" width="12" x="1245" y="482.2"/>
  <text x="1245" y="509.6" font-family="Tahoma" font-size="12" transform="rotate(90 1245,509.6)" text-rendering="optimizeSpeed" fill="#000000">1.466 (224)</text>
  <rect fill="blue" height="13.0" stroke="black" width="12" x="1260" y="491.6"/>
  <text x="1260" y="509.6" font-family="Tahoma" font-size="12" transform="rotate(90 1260,509.6)" text-rendering="optimizeSpeed" fill="#000000">1.466.1 (130)</text>
  <rect fill="blue" height="38.3" stroke="black" width="12" x="1275" y="466.3"/>
  <text x="1275" y="509.6" font-family="Tahoma" font-size="12" transform="rotate(90 1275,509.6)" text-rendering="optimizeSpeed" fill="#000000">1.466.2 (383)</text>
  <rect fill="blue" height="16.3" stroke="black" width="12" x="1290" y="488.3"/>
  <text x="1290" y="509.6" font-family="Tahoma" font-size="12" transform="rotate(90 1290,509.6)" text-rendering="optimizeSpeed" fill="#000000">1.467 (163)</text>
  <rect fill="blue" height="1.2" stroke="black" width="12" x="1305" y="503.4"/>
  <text x="1305" y="509.6" font-family="Tahoma" font-size="12" transform="rotate(90 1305,509.6)" text-rendering="optimizeSpeed" fill="#000000">1.468 (12)</text>
  <rect fill="blue" height="4.5" stroke="black" width="12" x="1320" y="500.1"/>
  <text x="1320" y="509.6" font-family="Tahoma" font-size="12" transform="rotate(90 1320,509.6)" text-rendering="optimizeSpeed" fill="#000000">1.469 (45)</text>
  <rect fill="blue" height="12.2" stroke="black" width="12" x="1335" y="492.4"/>
  <text x="1335" y="509.6" font-family="Tahoma" font-size="12" transform="rotate(90 1335,509.6)" text-rendering="optimizeSpeed" fill="#000000">1.470 (122)</text>
  <rect fill="blue" height="15.5" stroke="black" width="12" x="1350" y="489.1"/>
  <text x="1350" y="509.6" font-family="Tahoma" font-size="12" transform="rotate(90 1350,509.6)" text-rendering="optimizeSpeed" fill="#000000">1.471 (155)</text>
  <rect fill="blue" height="23.5" stroke="black" width="12" x="1365" y="481.1"/>
  <text x="1365" y="509.6" font-family="Tahoma" font-size="12" transform="rotate(90 1365,509.6)" text-rendering="optimizeSpeed" fill="#000000">1.472 (235)</text>
  <rect fill="blue" height="22.9" stroke="black" width="12" x="1380" y="481.7"/>
  <text x="1380" y="509.6" font-family="Tahoma" font-size="12" transform="rotate(90 1380,509.6)" text-rendering="optimizeSpeed" fill="#000000">1.473 (229)</text>
  <rect fill="blue" height="28.5" stroke="black" width="12" x="1395" y="476.1"/>
  <text x="1395" y="509.6" font-family="Tahoma" font-size="12" transform="rotate(90 1395,509.6)" text-rendering="optimizeSpeed" fill="#000000">1.474 (285)</text>
  <rect fill="blue" height="35.8" stroke="black" width="12" x="1410" y="468.8"/>
  <text x="1410" y="509.6" font-family="Tahoma" font-size="12" transform="rotate(90 1410,509.6)" text-rendering="optimizeSpeed" fill="#000000">1.475 (358)</text>
  <rect fill="blue" height="16.6" stroke="black" width="12" x="1425" y="488.0"/>
  <text x="1425" y="509.6" font-family="Tahoma" font-size="12" transform="rotate(90 1425,509.6)" text-rendering="optimizeSpeed" fill="#000000">1.476 (166)</text>
  <rect fill="blue" height="30.2" stroke="black" width="12" x="1440" y="474.4"/>
  <text x="1440" y="509.6" font-family="Tahoma" font-size="12" transform="rotate(90 1440,509.6)" text-rendering="optimizeSpeed" fill="#000000">1.477 (302)</text>
  <rect fill="blue" height="29.8" stroke="black" width="12" x="1455" y="474.8"/>
  <text x="1455" y="509.6" font-family="Tahoma" font-size="12" transform="rotate(90 1455,509.6)" text-rendering="optimizeSpeed" fill="#000000">1.478 (298)</text>
  <rect fill="blue" height="10.2" stroke="black" width="12" x="1470" y="494.4"/>
  <text x="1470" y="509.6" font-family="Tahoma" font-size="12" transform="rotate(90 1470,509.6)" text-rendering="optimizeSpeed" fill="#000000">1.479 (102)</text>
  <rect fill="blue" height="27.7" stroke="black" width="12" x="1485" y="476.9"/>
  <text x="1485" y="509.6" font-family="Tahoma" font-size="12" transform="rotate(90 1485,509.6)" text-rendering="optimizeSpeed" fill="#000000">1.480 (277)</text>
  <rect fill="blue" height="22.4" stroke="black" width="12" x="1500" y="482.2"/>
  <text x="1500" y="509.6" font-family="Tahoma" font-size="12" transform="rotate(90 1500,509.6)" text-rendering="optimizeSpeed" fill="#000000">1.480.1 (224)</text>
  <rect fill="blue" height="19.7" stroke="black" width="12" x="1515" y="484.9"/>
  <text x="1515" y="509.6" font-family="Tahoma" font-size="12" transform="rotate(90 1515,509.6)" text-rendering="optimizeSpeed" fill="#000000">1.480.2 (197)</text>
  <rect fill="blue" height="0.2" stroke="black" width="12" x="1530" y="504.4"/>
  <text x="1530" y="509.6" font-family="Tahoma" font-size="12" transform="rotate(90 1530,509.6)" text-rendering="optimizeSpeed" fill="#000000">1.480.3-somc-1 (2)</text>
  <rect fill="blue" height="73.1" stroke="black" width="12" x="1545" y="431.5"/>
  <text x="1545" y="509.6" font-family="Tahoma" font-size="12" transform="rotate(90 1545,509.6)" text-rendering="optimizeSpeed" fill="#000000">1.480.3 (731)</text>
  <rect fill="blue" height="0.5" stroke="black" width="12" x="1560" y="504.1"/>
  <text x="1560" y="509.6" font-family="Tahoma" font-size="12" transform="rotate(90 1560,509.6)" text-rendering="optimizeSpeed" fill="#000000">1.480.4 (5)</text>
  <rect fill="blue" height="21.1" stroke="black" width="12" x="1575" y="483.5"/>
  <text x="1575" y="509.6" font-family="Tahoma" font-size="12" transform="rotate(90 1575,509.6)" text-rendering="optimizeSpeed" fill="#000000">1.481 (211)</text>
  <rect fill="blue" height="21.8" stroke="black" width="12" x="1590" y="482.8"/>
  <text x="1590" y="509.6" font-family="Tahoma" font-size="12" transform="rotate(90 1590,509.6)" text-rendering="optimizeSpeed" fill="#000000">1.482 (218)</text>
  <rect fill="blue" height="28.4" stroke="black" width="12" x="1605" y="476.2"/>
  <text x="1605" y="509.6" font-family="Tahoma" font-size="12" transform="rotate(90 1605,509.6)" text-rendering="optimizeSpeed" fill="#000000">1.483 (284)</text>
  <rect fill="blue" height="27.2" stroke="black" width="12" x="1620" y="477.4"/>
  <text x="1620" y="509.6" font-family="Tahoma" font-size="12" transform="rotate(90 1620,509.6)" text-rendering="optimizeSpeed" fill="#000000">1.484 (272)</text>
  <rect fill="blue" height="13.1" stroke="black" width="12" x="1635" y="491.5"/>
  <text x="1635" y="509.6" font-family="Tahoma" font-size="12" transform="rotate(90 1635,509.6)" text-rendering="optimizeSpeed" fill="#000000">1.485 (131)</text>
  <rect fill="blue" height="37.4" stroke="black" width="12" x="1650" y="467.2"/>
  <text x="1650" y="509.6" font-family="Tahoma" font-size="12" transform="rotate(90 1650,509.6)" text-rendering="optimizeSpeed" fill="#000000">1.486 (374)</text>
  <rect fill="blue" height="17.5" stroke="black" width="12" x="1665" y="487.1"/>
  <text x="1665" y="509.6" font-family="Tahoma" font-size="12" transform="rotate(90 1665,509.6)" text-rendering="optimizeSpeed" fill="#000000">1.487 (175)</text>
  <rect fill="blue" height="24.7" stroke="black" width="12" x="1680" y="479.9"/>
  <text x="1680" y="509.6" font-family="Tahoma" font-size="12" transform="rotate(90 1680,509.6)" text-rendering="optimizeSpeed" fill="#000000">1.488 (247)</text>
  <rect fill="blue" height="30.4" stroke="black" width="12" x="1695" y="474.2"/>
  <text x="1695" y="509.6" font-family="Tahoma" font-size="12" transform="rotate(90 1695,509.6)" text-rendering="optimizeSpeed" fill="#000000">1.489 (304)</text>
  <rect fill="blue" height="23.3" stroke="black" width="12" x="1710" y="481.3"/>
  <text x="1710" y="509.6" font-family="Tahoma" font-size="12" transform="rotate(90 1710,509.6)" text-rendering="optimizeSpeed" fill="#000000">1.490 (233)</text>
  <rect fill="blue" height="35.9" stroke="black" width="12" x="1725" y="468.7"/>
  <text x="1725" y="509.6" font-family="Tahoma" font-size="12" transform="rotate(90 1725,509.6)" text-rendering="optimizeSpeed" fill="#000000">1.491 (359)</text>
  <rect fill="blue" height="57.3" stroke="black" width="12" x="1740" y="447.3"/>
  <text x="1740" y="509.6" font-family="Tahoma" font-size="12" transform="rotate(90 1740,509.6)" text-rendering="optimizeSpeed" fill="#000000">1.492 (573)</text>
  <rect fill="blue" height="29.8" stroke="black" width="12" x="1755" y="474.8"/>
  <text x="1755" y="509.6" font-family="Tahoma" font-size="12" transform="rotate(90 1755,509.6)" text-rendering="optimizeSpeed" fill="#000000">1.493 (298)</text>
  <rect fill="blue" height="29.7" stroke="black" width="12" x="1770" y="474.9"/>
  <text x="1770" y="509.6" font-family="Tahoma" font-size="12" transform="rotate(90 1770,509.6)" text-rendering="optimizeSpeed" fill="#000000">1.494 (297)</text>
  <rect fill="blue" height="13.8" stroke="black" width="12" x="1785" y="490.8"/>
  <text x="1785" y="509.6" font-family="Tahoma" font-size="12" transform="rotate(90 1785,509.6)" text-rendering="optimizeSpeed" fill="#000000">1.495 (138)</text>
  <rect fill="blue" height="19.8" stroke="black" width="12" x="1800" y="484.8"/>
  <text x="1800" y="509.6" font-family="Tahoma" font-size="12" transform="rotate(90 1800,509.6)" text-rendering="optimizeSpeed" fill="#000000">1.496 (198)</text>
  <rect fill="blue" height="8.0" stroke="black" width="12" x="1815" y="496.6"/>
  <text x="1815" y="509.6" font-family="Tahoma" font-size="12" transform="rotate(90 1815,509.6)" text-rendering="optimizeSpeed" fill="#000000">1.497 (80)</text>
  <rect fill="blue" height="31.9" stroke="black" width="12" x="1830" y="472.7"/>
  <text x="1830" y="509.6" font-family="Tahoma" font-size="12" transform="rotate(90 1830,509.6)" text-rendering="optimizeSpeed" fill="#000000">1.498 (319)</text>
  <rect fill="blue" height="0.1" stroke="black" width="12" x="1845" y="504.5"/>
  <text x="1845" y="509.6" font-family="Tahoma" font-size="12" transform="rotate(90 1845,509.6)" text-rendering="optimizeSpeed" fill="#000000">1.498.1 (1)</text>
  <rect fill="blue" height="64.7" stroke="black" width="12" x="1860" y="439.9"/>
  <text x="1860" y="509.6" font-family="Tahoma" font-size="12" transform="rotate(90 1860,509.6)" text-rendering="optimizeSpeed" fill="#000000">1.499 (647)</text>
  <rect fill="blue" height="75.1" stroke="black" width="12" x="1875" y="429.5"/>
  <text x="1875" y="509.6" font-family="Tahoma" font-size="12" transform="rotate(90 1875,509.6)" text-rendering="optimizeSpeed" fill="#000000">1.500 (751)</text>
  <rect fill="blue" height="34.0" stroke="black" width="12" x="1890" y="470.6"/>
  <text x="1890" y="509.6" font-family="Tahoma" font-size="12" transform="rotate(90 1890,509.6)" text-rendering="optimizeSpeed" fill="#000000">1.501 (340)</text>
  <rect fill="blue" height="66.9" stroke="black" width="12" x="1905" y="437.7"/>
  <text x="1905" y="509.6" font-family="Tahoma" font-size="12" transform="rotate(90 1905,509.6)" text-rendering="optimizeSpeed" fill="#000000">1.502 (669)</text>
  <rect fill="blue" height="28.6" stroke="black" width="12" x="1920" y="476.0"/>
  <text x="1920" y="509.6" font-family="Tahoma" font-size="12" transform="rotate(90 1920,509.6)" text-rendering="optimizeSpeed" fill="#000000">1.503 (286)</text>
  <rect fill="blue" height="51.7" stroke="black" width="12" x="1935" y="452.9"/>
  <text x="1935" y="509.6" font-family="Tahoma" font-size="12" transform="rotate(90 1935,509.6)" text-rendering="optimizeSpeed" fill="#000000">1.504 (517)</text>
  <rect fill="blue" height="55.0" stroke="black" width="12" x="1950" y="449.6"/>
  <text x="1950" y="509.6" font-family="Tahoma" font-size="12" transform="rotate(90 1950,509.6)" text-rendering="optimizeSpeed" fill="#000000">1.505 (550)</text>
  <rect fill="blue" height="72.1" stroke="black" width="12" x="1965" y="432.5"/>
  <text x="1965" y="509.6" font-family="Tahoma" font-size="12" transform="rotate(90 1965,509.6)" text-rendering="optimizeSpeed" fill="#000000">1.506 (721)</text>
  <rect fill="blue" height="7.9" stroke="black" width="12" x="1980" y="496.7"/>
  <text x="1980" y="509.6" font-family="Tahoma" font-size="12" transform="rotate(90 1980,509.6)" text-rendering="optimizeSpeed" fill="#000000">1.507 (79)</text>
  <rect fill="blue" height="47.2" stroke="black" width="12" x="1995" y="457.4"/>
  <text x="1995" y="509.6" font-family="Tahoma" font-size="12" transform="rotate(90 1995,509.6)" text-rendering="optimizeSpeed" fill="#000000">1.508 (472)</text>
  <rect fill="blue" height="45.7" stroke="black" width="12" x="2010" y="458.9"/>
  <text x="2010" y="509.6" font-family="Tahoma" font-size="12" transform="rotate(90 2010,509.6)" text-rendering="optimizeSpeed" fill="#000000">1.509 (457)</text>
  <rect fill="blue" height="62.8" stroke="black" width="12" x="2025" y="441.8"/>
  <text x="2025" y="509.6" font-family="Tahoma" font-size="12" transform="rotate(90 2025,509.6)" text-rendering="optimizeSpeed" fill="#000000">1.509.1 (628)</text>
  <rect fill="blue" height="141.3" stroke="black" width="12" x="2040" y="363.3"/>
  <text x="2040" y="509.6" font-family="Tahoma" font-size="12" transform="rotate(90 2040,509.6)" text-rendering="optimizeSpeed" fill="#000000">1.509.2 (1413)</text>
  <rect fill="blue" height="0.1" stroke="black" width="12" x="2055" y="504.5"/>
  <text x="2055" y="509.6" font-family="Tahoma" font-size="12" transform="rotate(90 2055,509.6)" text-rendering="optimizeSpeed" fill="#000000">1.509.2.1 (1)</text>
  <rect fill="blue" height="0.2" stroke="black" width="12" x="2070" y="504.4"/>
  <text x="2070" y="509.6" font-family="Tahoma" font-size="12" transform="rotate(90 2070,509.6)" text-rendering="optimizeSpeed" fill="#000000">1.509.2.2ms (2)</text>
  <rect fill="blue" height="0.1" stroke="black" width="12" x="2085" y="504.5"/>
  <text x="2085" y="509.6" font-family="Tahoma" font-size="12" transform="rotate(90 2085,509.6)" text-rendering="optimizeSpeed" fill="#000000">1.509.2.6ms (1)</text>
  <rect fill="blue" height="0.8" stroke="black" width="12" x="2100" y="503.8"/>
  <text x="2100" y="509.6" font-family="Tahoma" font-size="12" transform="rotate(90 2100,509.6)" text-rendering="optimizeSpeed" fill="#000000">1.509.2.JENKINS-14362-jzlib (8)</text>
  <rect fill="blue" height="123.4" stroke="black" width="12" x="2115" y="381.2"/>
  <text x="2115" y="509.6" font-family="Tahoma" font-size="12" transform="rotate(90 2115,509.6)" text-rendering="optimizeSpeed" fill="#000000">1.509.3 (1234)</text>
  <rect fill="blue" height="0.2" stroke="black" width="12" x="2130" y="504.4"/>
  <text x="2130" y="509.6" font-family="Tahoma" font-size="12" transform="rotate(90 2130,509.6)" text-rendering="optimizeSpeed" fill="#000000">1.509.3.JENKINS-14362-jzlib (2)</text>
  <rect fill="blue" height="147.6" stroke="black" width="12" x="2145" y="357.0"/>
  <text x="2145" y="509.6" font-family="Tahoma" font-size="12" transform="rotate(90 2145,509.6)" text-rendering="optimizeSpeed" fill="#000000">1.509.4 (1476)</text>
  <rect fill="blue" height="80.0" stroke="black" width="12" x="2160" y="424.6"/>
  <text x="2160" y="509.6" font-family="Tahoma" font-size="12" transform="rotate(90 2160,509.6)" text-rendering="optimizeSpeed" fill="#000000">1.510 (800)</text>
  <rect fill="blue" height="78.1" stroke="black" width="12" x="2175" y="426.5"/>
  <text x="2175" y="509.6" font-family="Tahoma" font-size="12" transform="rotate(90 2175,509.6)" text-rendering="optimizeSpeed" fill="#000000">1.511 (781)</text>
  <rect fill="blue" height="75.2" stroke="black" width="12" x="2190" y="429.4"/>
  <text x="2190" y="509.6" font-family="Tahoma" font-size="12" transform="rotate(90 2190,509.6)" text-rendering="optimizeSpeed" fill="#000000">1.512 (752)</text>
  <rect fill="blue" height="31.3" stroke="black" width="12" x="2205" y="473.3"/>
  <text x="2205" y="509.6" font-family="Tahoma" font-size="12" transform="rotate(90 2205,509.6)" text-rendering="optimizeSpeed" fill="#000000">1.513 (313)</text>
  <rect fill="blue" height="0.1" stroke="black" width="12" x="2220" y="504.5"/>
  <text x="2220" y="509.6" font-family="Tahoma" font-size="12" transform="rotate(90 2220,509.6)" text-rendering="optimizeSpeed" fill="#000000">1.513.JENKINS-14362-jzlib (1)</text>
  <rect fill="blue" height="158.4" stroke="black" width="12" x="2235" y="346.2"/>
  <text x="2235" y="509.6" font-family="Tahoma" font-size="12" transform="rotate(90 2235,509.6)" text-rendering="optimizeSpeed" fill="#000000">1.514 (1584)</text>
  <rect fill="blue" height="0.1" stroke="black" width="12" x="2250" y="504.5"/>
  <text x="2250" y="509.6" font-family="Tahoma" font-size="12" transform="rotate(90 2250,509.6)" text-rendering="optimizeSpeed" fill="#000000">1.515-LUDIA-1 (1)</text>
  <rect fill="blue" height="88.2" stroke="black" width="12" x="2265" y="416.4"/>
  <text x="2265" y="509.6" font-family="Tahoma" font-size="12" transform="rotate(90 2265,509.6)" text-rendering="optimizeSpeed" fill="#000000">1.515 (882)</text>
  <rect fill="blue" height="53.8" stroke="black" width="12" x="2280" y="450.8"/>
  <text x="2280" y="509.6" font-family="Tahoma" font-size="12" transform="rotate(90 2280,509.6)" text-rendering="optimizeSpeed" fill="#000000">1.516 (538)</text>
  <rect fill="blue" height="113.4" stroke="black" width="12" x="2295" y="391.2"/>
  <text x="2295" y="509.6" font-family="Tahoma" font-size="12" transform="rotate(90 2295,509.6)" text-rendering="optimizeSpeed" fill="#000000">1.517 (1134)</text>
  <rect fill="blue" height="90.3" stroke="black" width="12" x="2310" y="414.3"/>
  <text x="2310" y="509.6" font-family="Tahoma" font-size="12" transform="rotate(90 2310,509.6)" text-rendering="optimizeSpeed" fill="#000000">1.518 (903)</text>
  <rect fill="blue" height="89.3" stroke="black" width="12" x="2325" y="415.3"/>
  <text x="2325" y="509.6" font-family="Tahoma" font-size="12" transform="rotate(90 2325,509.6)" text-rendering="optimizeSpeed" fill="#000000">1.519 (893)</text>
  <rect fill="blue" height="81.4" stroke="black" width="12" x="2340" y="423.2"/>
  <text x="2340" y="509.6" font-family="Tahoma" font-size="12" transform="rotate(90 2340,509.6)" text-rendering="optimizeSpeed" fill="#000000">1.520 (814)</text>
  <rect fill="blue" height="50.5" stroke="black" width="12" x="2355" y="454.1"/>
  <text x="2355" y="509.6" font-family="Tahoma" font-size="12" transform="rotate(90 2355,509.6)" text-rendering="optimizeSpeed" fill="#000000">1.521 (505)</text>
  <rect fill="blue" height="122.1" stroke="black" width="12" x="2370" y="382.5"/>
  <text x="2370" y="509.6" font-family="Tahoma" font-size="12" transform="rotate(90 2370,509.6)" text-rendering="optimizeSpeed" fill="#000000">1.522 (1221)</text>
  <rect fill="blue" height="156.3" stroke="black" width="12" x="2385" y="348.3"/>
  <text x="2385" y="509.6" font-family="Tahoma" font-size="12" transform="rotate(90 2385,509.6)" text-rendering="optimizeSpeed" fill="#000000">1.523 (1563)</text>
  <rect fill="blue" height="74.9" stroke="black" width="12" x="2400" y="429.7"/>
  <text x="2400" y="509.6" font-family="Tahoma" font-size="12" transform="rotate(90 2400,509.6)" text-rendering="optimizeSpeed" fill="#000000">1.524 (749)</text>
  <rect fill="blue" height="0.2" stroke="black" width="12" x="2415" y="504.4"/>
  <text x="2415" y="509.6" font-family="Tahoma" font-size="12" transform="rotate(90 2415,509.6)" text-rendering="optimizeSpeed" fill="#000000">1.525-AMADEUS-1 (2)</text>
  <rect fill="blue" height="122.7" stroke="black" width="12" x="2430" y="381.9"/>
  <text x="2430" y="509.6" font-family="Tahoma" font-size="12" transform="rotate(90 2430,509.6)" text-rendering="optimizeSpeed" fill="#000000">1.525 (1227)</text>
  <rect fill="blue" height="142.8" stroke="black" width="12" x="2445" y="361.8"/>
  <text x="2445" y="509.6" font-family="Tahoma" font-size="12" transform="rotate(90 2445,509.6)" text-rendering="optimizeSpeed" fill="#000000">1.526 (1428)</text>
  <rect fill="blue" height="98.8" stroke="black" width="12" x="2460" y="405.8"/>
  <text x="2460" y="509.6" font-family="Tahoma" font-size="12" transform="rotate(90 2460,509.6)" text-rendering="optimizeSpeed" fill="#000000">1.527 (988)</text>
  <rect fill="blue" height="162.5" stroke="black" width="12" x="2475" y="342.1"/>
  <text x="2475" y="509.6" font-family="Tahoma" font-size="12" transform="rotate(90 2475,509.6)" text-rendering="optimizeSpeed" fill="#000000">1.528 (1625)</text>
  <rect fill="blue" height="279.5" stroke="black" width="12" x="2490" y="225.1"/>
  <text x="2490" y="509.6" font-family="Tahoma" font-size="12" transform="rotate(90 2490,509.6)" text-rendering="optimizeSpeed" fill="#000000">1.529 (2795)</text>
  <rect fill="blue" height="177.8" stroke="black" width="12" x="2505" y="326.8"/>
  <text x="2505" y="509.6" font-family="Tahoma" font-size="12" transform="rotate(90 2505,509.6)" text-rendering="optimizeSpeed" fill="#000000">1.530 (1778)</text>
  <rect fill="blue" height="236.4" stroke="black" width="12" x="2520" y="268.2"/>
  <text x="2520" y="509.6" font-family="Tahoma" font-size="12" transform="rotate(90 2520,509.6)" text-rendering="optimizeSpeed" fill="#000000">1.531 (2364)</text>
  <rect fill="blue" height="193.4" stroke="black" width="12" x="2535" y="311.2"/>
  <text x="2535" y="509.6" font-family="Tahoma" font-size="12" transform="rotate(90 2535,509.6)" text-rendering="optimizeSpeed" fill="#000000">1.532 (1934)</text>
  <rect fill="blue" height="410.8" stroke="black" width="12" x="2550" y="93.8"/>
  <text x="2550" y="509.6" font-family="Tahoma" font-size="12" transform="rotate(90 2550,509.6)" text-rendering="optimizeSpeed" fill="#000000">1.533 (4108)</text>
  <rect fill="blue" height="454.6" stroke="black" width="12" x="2565" y="50.0"/>
  <text x="2565" y="509.6" font-family="Tahoma" font-size="12" transform="rotate(90 2565,509.6)" text-rendering="optimizeSpeed" fill="#000000">1.534 (4546)</text>
  <rect fill="blue" height="409.6" stroke="black" width="12" x="2580" y="95.0"/>
  <text x="2580" y="509.6" font-family="Tahoma" font-size="12" transform="rotate(90 2580,509.6)" text-rendering="optimizeSpeed" fill="#000000">1.535 (4096)</text>
  <rect fill="blue" height="407.7" stroke="black" width="12" x="2595" y="96.9"/>
  <text x="2595" y="509.6" font-family="Tahoma" font-size="12" transform="rotate(90 2595,509.6)" text-rendering="optimizeSpeed" fill="#000000">1.536 (4077)</text>
  <rect fill="blue" height="403.8" stroke="black" width="12" x="2610" y="100.8"/>
  <text x="2610" y="509.6" font-family="Tahoma" font-size="12" transform="rotate(90 2610,509.6)" text-rendering="optimizeSpeed" fill="#000000">1.537 (4038)</text>
  <text x="10" y="40" font-family="Tahoma" font-size="20" text-rendering="optimizeSpeed" fill="#000000">Jenkins installations (total: 74027)</text>
</svg>
