<svg xmlns="http://www.w3.org/2000/svg" version="1.1" preserveAspectRatio="xMidYMid meet" viewBox="0 0 230 2333.1">
  <rect fill="blue" height="0.0" stroke="black" width="12" x="15" y="2033.1"/>
  <text x="15" y="2038.1" font-family="Tahoma" font-size="12" transform="rotate(90 15,2038.1)" text-rendering="optimizeSpeed" fill="#000000">hudson-plugins-jprt-JPRTJob (2)</text>
  <rect fill="blue" height="0.0" stroke="black" width="12" x="30" y="2033.1"/>
  <text x="30" y="2038.1" font-family="Tahoma" font-size="12" transform="rotate(90 30,2038.1)" text-rendering="optimizeSpeed" fill="#000000">hudson-plugin-mediatek-cmweb-MtkCMWebProject (4)</text>
  <rect fill="blue" height="0.0" stroke="black" width="12" x="45" y="2033.1"/>
  <text x="45" y="2038.1" font-family="Tahoma" font-size="12" transform="rotate(90 45,2038.1)" text-rendering="optimizeSpeed" fill="#000000">hudson-plugins-jprt-NewFreeStyleProject (26)</text>
  <rect fill="blue" height="0.0" stroke="black" width="12" x="60" y="2033.1"/>
  <text x="60" y="2038.1" font-family="Tahoma" font-size="12" transform="rotate(90 60,2038.1)" text-rendering="optimizeSpeed" fill="#000000">hudson-aarworkflow-AARWorkflowProject (38)</text>
  <rect fill="blue" height="0.1" stroke="black" width="12" x="75" y="2033.0"/>
  <text x="75" y="2038.1" font-family="Tahoma" font-size="12" transform="rotate(90 75,2038.1)" text-rendering="optimizeSpeed" fill="#000000">hudson-mm-MMModuleSet (139)</text>
  <rect fill="blue" height="0.1" stroke="black" width="12" x="90" y="2033.0"/>
  <text x="90" y="2038.1" font-family="Tahoma" font-size="12" transform="rotate(90 90,2038.1)" text-rendering="optimizeSpeed" fill="#000000">hudson-workflow-WorkflowProject (143)</text>
  <rect fill="blue" height="1.5" stroke="black" width="12" x="105" y="2031.6"/>
  <text x="105" y="2038.1" font-family="Tahoma" font-size="12" transform="rotate(90 105,2038.1)" text-rendering="optimizeSpeed" fill="#000000">hudson-plugins-project_inheritance-projects-InheritanceProject (1479)</text>
  <rect fill="blue" height="5.9" stroke="black" width="12" x="120" y="2027.2"/>
  <text x="120" y="2038.1" font-family="Tahoma" font-size="12" transform="rotate(90 120,2038.1)" text-rendering="optimizeSpeed" fill="#000000">hudson-ivy-IvyModuleSet (5873)</text>
  <rect fill="blue" height="7.4" stroke="black" width="12" x="135" y="2025.8"/>
  <text x="135" y="2038.1" font-family="Tahoma" font-size="12" transform="rotate(90 135,2038.1)" text-rendering="optimizeSpeed" fill="#000000">hudson-model-ExternalJob (7357)</text>
  <rect fill="blue" height="66.1" stroke="black" width="12" x="150" y="1967.0"/>
  <text x="150" y="2038.1" font-family="Tahoma" font-size="12" transform="rotate(90 150,2038.1)" text-rendering="optimizeSpeed" fill="#000000">hudson-matrix-MatrixProject (66070)</text>
  <rect fill="blue" height="430.4" stroke="black" width="12" x="165" y="1602.7"/>
  <text x="165" y="2038.1" font-family="Tahoma" font-size="12" transform="rotate(90 165,2038.1)" text-rendering="optimizeSpeed" fill="#000000">hudson-maven-MavenModuleSet (430398)</text>
  <rect fill="blue" height="1983.1" stroke="black" width="12" x="180" y="50.0"/>
  <text x="180" y="2038.1" font-family="Tahoma" font-size="12" transform="rotate(90 180,2038.1)" text-rendering="optimizeSpeed" fill="#000000">hudson-model-FreeStyleProject (1983108)</text>
  <text x="10" y="40" font-family="Tahoma" font-size="20" text-rendering="optimizeSpeed" fill="#000000">Jobs (total: 2494637)</text>
</svg>
