<svg xmlns="http://www.w3.org/2000/svg" version="1.1" preserveAspectRatio="xMidYMid meet" viewBox="0 0 215 2354.9">
  <rect fill="blue" height="0.0" stroke="black" width="12" x="15" y="2054.9"/>
  <text x="15" y="2059.9" font-family="Tahoma" font-size="12" transform="rotate(90 15,2059.9)" text-rendering="optimizeSpeed" fill="#000000">hudson-fleetboard-ci-SmokeTestProject (1)</text>
  <rect fill="blue" height="0.0" stroke="black" width="12" x="30" y="2054.9"/>
  <text x="30" y="2059.9" font-family="Tahoma" font-size="12" transform="rotate(90 30,2059.9)" text-rendering="optimizeSpeed" fill="#000000">hudson-jbpm-JbpmProject (10)</text>
  <rect fill="blue" height="0.0" stroke="black" width="12" x="45" y="2054.9"/>
  <text x="45" y="2059.9" font-family="Tahoma" font-size="12" transform="rotate(90 45,2059.9)" text-rendering="optimizeSpeed" fill="#000000">hudson-aarworkflow-AARWorkflowProject (38)</text>
  <rect fill="blue" height="0.1" stroke="black" width="12" x="60" y="2054.9"/>
  <text x="60" y="2059.9" font-family="Tahoma" font-size="12" transform="rotate(90 60,2059.9)" text-rendering="optimizeSpeed" fill="#000000">hudson-mm-MMModuleSet (79)</text>
  <rect fill="blue" height="0.1" stroke="black" width="12" x="75" y="2054.8"/>
  <text x="75" y="2059.9" font-family="Tahoma" font-size="12" transform="rotate(90 75,2059.9)" text-rendering="optimizeSpeed" fill="#000000">hudson-workflow-WorkflowProject (142)</text>
  <rect fill="blue" height="1.1" stroke="black" width="12" x="90" y="2053.8"/>
  <text x="90" y="2059.9" font-family="Tahoma" font-size="12" transform="rotate(90 90,2059.9)" text-rendering="optimizeSpeed" fill="#000000">hudson-plugins-project_inheritance-projects-InheritanceProject (1139)</text>
  <rect fill="blue" height="4.4" stroke="black" width="12" x="105" y="2050.5"/>
  <text x="105" y="2059.9" font-family="Tahoma" font-size="12" transform="rotate(90 105,2059.9)" text-rendering="optimizeSpeed" fill="#000000">hudson-model-ExternalJob (4435)</text>
  <rect fill="blue" height="5.7" stroke="black" width="12" x="120" y="2049.2"/>
  <text x="120" y="2059.9" font-family="Tahoma" font-size="12" transform="rotate(90 120,2059.9)" text-rendering="optimizeSpeed" fill="#000000">hudson-ivy-IvyModuleSet (5745)</text>
  <rect fill="blue" height="62.3" stroke="black" width="12" x="135" y="1992.6"/>
  <text x="135" y="2059.9" font-family="Tahoma" font-size="12" transform="rotate(90 135,2059.9)" text-rendering="optimizeSpeed" fill="#000000">hudson-matrix-MatrixProject (62299)</text>
  <rect fill="blue" height="418.8" stroke="black" width="12" x="150" y="1636.1"/>
  <text x="150" y="2059.9" font-family="Tahoma" font-size="12" transform="rotate(90 150,2059.9)" text-rendering="optimizeSpeed" fill="#000000">hudson-maven-MavenModuleSet (418822)</text>
  <rect fill="blue" height="2004.9" stroke="black" width="12" x="165" y="50.0"/>
  <text x="165" y="2059.9" font-family="Tahoma" font-size="12" transform="rotate(90 165,2059.9)" text-rendering="optimizeSpeed" fill="#000000">hudson-model-FreeStyleProject (2004945)</text>
  <text x="10" y="40" font-family="Tahoma" font-size="20" text-rendering="optimizeSpeed" fill="#000000">Jobs (total: 2497655)</text>
</svg>
