<svg xmlns="http://www.w3.org/2000/svg" version="1.1" preserveAspectRatio="xMidYMid meet" viewBox="0 0 2405 1069.9">
  <rect fill="blue" height="2.1" stroke="black" width="12" x="15" y="767.8"/>
  <text x="15" y="774.9" font-family="Tahoma" font-size="12" transform="rotate(90 15,774.9)" text-rendering="optimizeSpeed" fill="#000000">1.368 (21)</text>
  <rect fill="blue" height="3.8" stroke="black" width="12" x="30" y="766.1"/>
  <text x="30" y="774.9" font-family="Tahoma" font-size="12" transform="rotate(90 30,774.9)" text-rendering="optimizeSpeed" fill="#000000">1.369 (38)</text>
  <rect fill="blue" height="1.1" stroke="black" width="12" x="45" y="768.8"/>
  <text x="45" y="774.9" font-family="Tahoma" font-size="12" transform="rotate(90 45,774.9)" text-rendering="optimizeSpeed" fill="#000000">1.370 (11)</text>
  <rect fill="blue" height="2.1" stroke="black" width="12" x="60" y="767.8"/>
  <text x="60" y="774.9" font-family="Tahoma" font-size="12" transform="rotate(90 60,774.9)" text-rendering="optimizeSpeed" fill="#000000">1.371 (21)</text>
  <rect fill="blue" height="2.9" stroke="black" width="12" x="75" y="767.0"/>
  <text x="75" y="774.9" font-family="Tahoma" font-size="12" transform="rotate(90 75,774.9)" text-rendering="optimizeSpeed" fill="#000000">1.372 (29)</text>
  <rect fill="blue" height="2.8" stroke="black" width="12" x="90" y="767.1"/>
  <text x="90" y="774.9" font-family="Tahoma" font-size="12" transform="rotate(90 90,774.9)" text-rendering="optimizeSpeed" fill="#000000">1.373 (28)</text>
  <rect fill="blue" height="4.9" stroke="black" width="12" x="105" y="765.0"/>
  <text x="105" y="774.9" font-family="Tahoma" font-size="12" transform="rotate(90 105,774.9)" text-rendering="optimizeSpeed" fill="#000000">1.374 (49)</text>
  <rect fill="blue" height="2.2" stroke="black" width="12" x="120" y="767.7"/>
  <text x="120" y="774.9" font-family="Tahoma" font-size="12" transform="rotate(90 120,774.9)" text-rendering="optimizeSpeed" fill="#000000">1.375 (22)</text>
  <rect fill="blue" height="4.4" stroke="black" width="12" x="135" y="765.5"/>
  <text x="135" y="774.9" font-family="Tahoma" font-size="12" transform="rotate(90 135,774.9)" text-rendering="optimizeSpeed" fill="#000000">1.376 (44)</text>
  <rect fill="blue" height="5.2" stroke="black" width="12" x="150" y="764.7"/>
  <text x="150" y="774.9" font-family="Tahoma" font-size="12" transform="rotate(90 150,774.9)" text-rendering="optimizeSpeed" fill="#000000">1.377 (52)</text>
  <rect fill="blue" height="3.4" stroke="black" width="12" x="165" y="766.5"/>
  <text x="165" y="774.9" font-family="Tahoma" font-size="12" transform="rotate(90 165,774.9)" text-rendering="optimizeSpeed" fill="#000000">1.378 (34)</text>
  <rect fill="blue" height="8.7" stroke="black" width="12" x="180" y="761.2"/>
  <text x="180" y="774.9" font-family="Tahoma" font-size="12" transform="rotate(90 180,774.9)" text-rendering="optimizeSpeed" fill="#000000">1.379 (87)</text>
  <rect fill="blue" height="2.1" stroke="black" width="12" x="195" y="767.8"/>
  <text x="195" y="774.9" font-family="Tahoma" font-size="12" transform="rotate(90 195,774.9)" text-rendering="optimizeSpeed" fill="#000000">1.380 (21)</text>
  <rect fill="blue" height="8.6" stroke="black" width="12" x="210" y="761.3"/>
  <text x="210" y="774.9" font-family="Tahoma" font-size="12" transform="rotate(90 210,774.9)" text-rendering="optimizeSpeed" fill="#000000">1.381 (86)</text>
  <rect fill="blue" height="1.9" stroke="black" width="12" x="225" y="768.0"/>
  <text x="225" y="774.9" font-family="Tahoma" font-size="12" transform="rotate(90 225,774.9)" text-rendering="optimizeSpeed" fill="#000000">1.382 (19)</text>
  <rect fill="blue" height="6.3" stroke="black" width="12" x="240" y="763.6"/>
  <text x="240" y="774.9" font-family="Tahoma" font-size="12" transform="rotate(90 240,774.9)" text-rendering="optimizeSpeed" fill="#000000">1.383 (63)</text>
  <rect fill="blue" height="10.3" stroke="black" width="12" x="255" y="759.6"/>
  <text x="255" y="774.9" font-family="Tahoma" font-size="12" transform="rotate(90 255,774.9)" text-rendering="optimizeSpeed" fill="#000000">1.384 (103)</text>
  <rect fill="blue" height="3.6" stroke="black" width="12" x="270" y="766.3"/>
  <text x="270" y="774.9" font-family="Tahoma" font-size="12" transform="rotate(90 270,774.9)" text-rendering="optimizeSpeed" fill="#000000">1.385 (36)</text>
  <rect fill="blue" height="21.6" stroke="black" width="12" x="285" y="748.3"/>
  <text x="285" y="774.9" font-family="Tahoma" font-size="12" transform="rotate(90 285,774.9)" text-rendering="optimizeSpeed" fill="#000000">1.386 (216)</text>
  <rect fill="blue" height="3.4" stroke="black" width="12" x="300" y="766.5"/>
  <text x="300" y="774.9" font-family="Tahoma" font-size="12" transform="rotate(90 300,774.9)" text-rendering="optimizeSpeed" fill="#000000">1.387 (34)</text>
  <rect fill="blue" height="3.0" stroke="black" width="12" x="315" y="766.9"/>
  <text x="315" y="774.9" font-family="Tahoma" font-size="12" transform="rotate(90 315,774.9)" text-rendering="optimizeSpeed" fill="#000000">1.388 (30)</text>
  <rect fill="blue" height="6.6" stroke="black" width="12" x="330" y="763.3"/>
  <text x="330" y="774.9" font-family="Tahoma" font-size="12" transform="rotate(90 330,774.9)" text-rendering="optimizeSpeed" fill="#000000">1.389 (66)</text>
  <rect fill="blue" height="0.6" stroke="black" width="12" x="345" y="769.3"/>
  <text x="345" y="774.9" font-family="Tahoma" font-size="12" transform="rotate(90 345,774.9)" text-rendering="optimizeSpeed" fill="#000000">1.390 (6)</text>
  <rect fill="blue" height="1.3" stroke="black" width="12" x="360" y="768.6"/>
  <text x="360" y="774.9" font-family="Tahoma" font-size="12" transform="rotate(90 360,774.9)" text-rendering="optimizeSpeed" fill="#000000">1.391 (13)</text>
  <rect fill="blue" height="7.5" stroke="black" width="12" x="375" y="762.4"/>
  <text x="375" y="774.9" font-family="Tahoma" font-size="12" transform="rotate(90 375,774.9)" text-rendering="optimizeSpeed" fill="#000000">1.392 (75)</text>
  <rect fill="blue" height="0.3" stroke="black" width="12" x="390" y="769.6"/>
  <text x="390" y="774.9" font-family="Tahoma" font-size="12" transform="rotate(90 390,774.9)" text-rendering="optimizeSpeed" fill="#000000">1.392.LI22 (3)</text>
  <rect fill="blue" height="0.1" stroke="black" width="12" x="405" y="769.8"/>
  <text x="405" y="774.9" font-family="Tahoma" font-size="12" transform="rotate(90 405,774.9)" text-rendering="optimizeSpeed" fill="#000000">1.392.LI23 (1)</text>
  <rect fill="blue" height="15.1" stroke="black" width="12" x="420" y="754.8"/>
  <text x="420" y="774.9" font-family="Tahoma" font-size="12" transform="rotate(90 420,774.9)" text-rendering="optimizeSpeed" fill="#000000">1.393 (151)</text>
  <rect fill="blue" height="14.7" stroke="black" width="12" x="435" y="755.2"/>
  <text x="435" y="774.9" font-family="Tahoma" font-size="12" transform="rotate(90 435,774.9)" text-rendering="optimizeSpeed" fill="#000000">1.394 (147)</text>
  <rect fill="blue" height="33.5" stroke="black" width="12" x="450" y="736.4"/>
  <text x="450" y="774.9" font-family="Tahoma" font-size="12" transform="rotate(90 450,774.9)" text-rendering="optimizeSpeed" fill="#000000">1.395 (335)</text>
  <rect fill="blue" height="37.3" stroke="black" width="12" x="465" y="732.6"/>
  <text x="465" y="774.9" font-family="Tahoma" font-size="12" transform="rotate(90 465,774.9)" text-rendering="optimizeSpeed" fill="#000000">1.395.1 (373)</text>
  <rect fill="blue" height="2.3" stroke="black" width="12" x="480" y="767.6"/>
  <text x="480" y="774.9" font-family="Tahoma" font-size="12" transform="rotate(90 480,774.9)" text-rendering="optimizeSpeed" fill="#000000">1.396 (23)</text>
  <rect fill="blue" height="1.5" stroke="black" width="12" x="495" y="768.4"/>
  <text x="495" y="774.9" font-family="Tahoma" font-size="12" transform="rotate(90 495,774.9)" text-rendering="optimizeSpeed" fill="#000000">1.397 (15)</text>
  <rect fill="blue" height="2.8" stroke="black" width="12" x="510" y="767.1"/>
  <text x="510" y="774.9" font-family="Tahoma" font-size="12" transform="rotate(90 510,774.9)" text-rendering="optimizeSpeed" fill="#000000">1.398 (28)</text>
  <rect fill="blue" height="3.8" stroke="black" width="12" x="525" y="766.1"/>
  <text x="525" y="774.9" font-family="Tahoma" font-size="12" transform="rotate(90 525,774.9)" text-rendering="optimizeSpeed" fill="#000000">1.399 (38)</text>
  <rect fill="blue" height="2.4" stroke="black" width="12" x="540" y="767.5"/>
  <text x="540" y="774.9" font-family="Tahoma" font-size="12" transform="rotate(90 540,774.9)" text-rendering="optimizeSpeed" fill="#000000">1.400 (24)</text>
  <rect fill="blue" height="7.1" stroke="black" width="12" x="555" y="762.8"/>
  <text x="555" y="774.9" font-family="Tahoma" font-size="12" transform="rotate(90 555,774.9)" text-rendering="optimizeSpeed" fill="#000000">1.401 (71)</text>
  <rect fill="blue" height="4.1" stroke="black" width="12" x="570" y="765.8"/>
  <text x="570" y="774.9" font-family="Tahoma" font-size="12" transform="rotate(90 570,774.9)" text-rendering="optimizeSpeed" fill="#000000">1.403 (41)</text>
  <rect fill="blue" height="3.6" stroke="black" width="12" x="585" y="766.3"/>
  <text x="585" y="774.9" font-family="Tahoma" font-size="12" transform="rotate(90 585,774.9)" text-rendering="optimizeSpeed" fill="#000000">1.404 (36)</text>
  <rect fill="blue" height="3.0" stroke="black" width="12" x="600" y="766.9"/>
  <text x="600" y="774.9" font-family="Tahoma" font-size="12" transform="rotate(90 600,774.9)" text-rendering="optimizeSpeed" fill="#000000">1.405 (30)</text>
  <rect fill="blue" height="2.7" stroke="black" width="12" x="615" y="767.2"/>
  <text x="615" y="774.9" font-family="Tahoma" font-size="12" transform="rotate(90 615,774.9)" text-rendering="optimizeSpeed" fill="#000000">1.406 (27)</text>
  <rect fill="blue" height="0.8" stroke="black" width="12" x="630" y="769.1"/>
  <text x="630" y="774.9" font-family="Tahoma" font-size="12" transform="rotate(90 630,774.9)" text-rendering="optimizeSpeed" fill="#000000">1.407 (8)</text>
  <rect fill="blue" height="3.9" stroke="black" width="12" x="645" y="766.0"/>
  <text x="645" y="774.9" font-family="Tahoma" font-size="12" transform="rotate(90 645,774.9)" text-rendering="optimizeSpeed" fill="#000000">1.408 (39)</text>
  <rect fill="blue" height="6.0" stroke="black" width="12" x="660" y="763.9"/>
  <text x="660" y="774.9" font-family="Tahoma" font-size="12" transform="rotate(90 660,774.9)" text-rendering="optimizeSpeed" fill="#000000">1.409 (60)</text>
  <rect fill="blue" height="13.2" stroke="black" width="12" x="675" y="756.7"/>
  <text x="675" y="774.9" font-family="Tahoma" font-size="12" transform="rotate(90 675,774.9)" text-rendering="optimizeSpeed" fill="#000000">1.409.1 (132)</text>
  <rect fill="blue" height="3.7" stroke="black" width="12" x="690" y="766.2"/>
  <text x="690" y="774.9" font-family="Tahoma" font-size="12" transform="rotate(90 690,774.9)" text-rendering="optimizeSpeed" fill="#000000">1.409.2 (37)</text>
  <rect fill="blue" height="2.8" stroke="black" width="12" x="705" y="767.1"/>
  <text x="705" y="774.9" font-family="Tahoma" font-size="12" transform="rotate(90 705,774.9)" text-rendering="optimizeSpeed" fill="#000000">1.409.3 (28)</text>
  <rect fill="blue" height="8.6" stroke="black" width="12" x="720" y="761.3"/>
  <text x="720" y="774.9" font-family="Tahoma" font-size="12" transform="rotate(90 720,774.9)" text-rendering="optimizeSpeed" fill="#000000">1.410 (86)</text>
  <rect fill="blue" height="5.2" stroke="black" width="12" x="735" y="764.7"/>
  <text x="735" y="774.9" font-family="Tahoma" font-size="12" transform="rotate(90 735,774.9)" text-rendering="optimizeSpeed" fill="#000000">1.411 (52)</text>
  <rect fill="blue" height="3.1" stroke="black" width="12" x="750" y="766.8"/>
  <text x="750" y="774.9" font-family="Tahoma" font-size="12" transform="rotate(90 750,774.9)" text-rendering="optimizeSpeed" fill="#000000">1.412 (31)</text>
  <rect fill="blue" height="9.8" stroke="black" width="12" x="765" y="760.1"/>
  <text x="765" y="774.9" font-family="Tahoma" font-size="12" transform="rotate(90 765,774.9)" text-rendering="optimizeSpeed" fill="#000000">1.413 (98)</text>
  <rect fill="blue" height="7.2" stroke="black" width="12" x="780" y="762.7"/>
  <text x="780" y="774.9" font-family="Tahoma" font-size="12" transform="rotate(90 780,774.9)" text-rendering="optimizeSpeed" fill="#000000">1.414 (72)</text>
  <rect fill="blue" height="4.1" stroke="black" width="12" x="795" y="765.8"/>
  <text x="795" y="774.9" font-family="Tahoma" font-size="12" transform="rotate(90 795,774.9)" text-rendering="optimizeSpeed" fill="#000000">1.415 (41)</text>
  <rect fill="blue" height="1.3" stroke="black" width="12" x="810" y="768.6"/>
  <text x="810" y="774.9" font-family="Tahoma" font-size="12" transform="rotate(90 810,774.9)" text-rendering="optimizeSpeed" fill="#000000">1.416 (13)</text>
  <rect fill="blue" height="5.6" stroke="black" width="12" x="825" y="764.3"/>
  <text x="825" y="774.9" font-family="Tahoma" font-size="12" transform="rotate(90 825,774.9)" text-rendering="optimizeSpeed" fill="#000000">1.417 (56)</text>
  <rect fill="blue" height="6.8" stroke="black" width="12" x="840" y="763.1"/>
  <text x="840" y="774.9" font-family="Tahoma" font-size="12" transform="rotate(90 840,774.9)" text-rendering="optimizeSpeed" fill="#000000">1.418 (68)</text>
  <rect fill="blue" height="5.0" stroke="black" width="12" x="855" y="764.9"/>
  <text x="855" y="774.9" font-family="Tahoma" font-size="12" transform="rotate(90 855,774.9)" text-rendering="optimizeSpeed" fill="#000000">1.419 (50)</text>
  <rect fill="blue" height="6.2" stroke="black" width="12" x="870" y="763.7"/>
  <text x="870" y="774.9" font-family="Tahoma" font-size="12" transform="rotate(90 870,774.9)" text-rendering="optimizeSpeed" fill="#000000">1.420 (62)</text>
  <rect fill="blue" height="8.0" stroke="black" width="12" x="885" y="761.9"/>
  <text x="885" y="774.9" font-family="Tahoma" font-size="12" transform="rotate(90 885,774.9)" text-rendering="optimizeSpeed" fill="#000000">1.421 (80)</text>
  <rect fill="blue" height="6.7" stroke="black" width="12" x="900" y="763.2"/>
  <text x="900" y="774.9" font-family="Tahoma" font-size="12" transform="rotate(90 900,774.9)" text-rendering="optimizeSpeed" fill="#000000">1.423 (67)</text>
  <rect fill="blue" height="13.3" stroke="black" width="12" x="915" y="756.6"/>
  <text x="915" y="774.9" font-family="Tahoma" font-size="12" transform="rotate(90 915,774.9)" text-rendering="optimizeSpeed" fill="#000000">1.424 (133)</text>
  <rect fill="blue" height="6.1" stroke="black" width="12" x="930" y="763.8"/>
  <text x="930" y="774.9" font-family="Tahoma" font-size="12" transform="rotate(90 930,774.9)" text-rendering="optimizeSpeed" fill="#000000">1.424.1 (61)</text>
  <rect fill="blue" height="9.4" stroke="black" width="12" x="945" y="760.5"/>
  <text x="945" y="774.9" font-family="Tahoma" font-size="12" transform="rotate(90 945,774.9)" text-rendering="optimizeSpeed" fill="#000000">1.424.2 (94)</text>
  <rect fill="blue" height="1.0" stroke="black" width="12" x="960" y="768.9"/>
  <text x="960" y="774.9" font-family="Tahoma" font-size="12" transform="rotate(90 960,774.9)" text-rendering="optimizeSpeed" fill="#000000">1.424.3 (10)</text>
  <rect fill="blue" height="68.8" stroke="black" width="12" x="975" y="701.1"/>
  <text x="975" y="774.9" font-family="Tahoma" font-size="12" transform="rotate(90 975,774.9)" text-rendering="optimizeSpeed" fill="#000000">1.424.6 (688)</text>
  <rect fill="blue" height="0.1" stroke="black" width="12" x="990" y="769.8"/>
  <text x="990" y="774.9" font-family="Tahoma" font-size="12" transform="rotate(90 990,774.9)" text-rendering="optimizeSpeed" fill="#000000">1.424.6.10 (1)</text>
  <rect fill="blue" height="10.6" stroke="black" width="12" x="1005" y="759.3"/>
  <text x="1005" y="774.9" font-family="Tahoma" font-size="12" transform="rotate(90 1005,774.9)" text-rendering="optimizeSpeed" fill="#000000">1.425 (106)</text>
  <rect fill="blue" height="5.1" stroke="black" width="12" x="1020" y="764.8"/>
  <text x="1020" y="774.9" font-family="Tahoma" font-size="12" transform="rotate(90 1020,774.9)" text-rendering="optimizeSpeed" fill="#000000">1.426 (51)</text>
  <rect fill="blue" height="11.4" stroke="black" width="12" x="1035" y="758.5"/>
  <text x="1035" y="774.9" font-family="Tahoma" font-size="12" transform="rotate(90 1035,774.9)" text-rendering="optimizeSpeed" fill="#000000">1.427 (114)</text>
  <rect fill="blue" height="9.4" stroke="black" width="12" x="1050" y="760.5"/>
  <text x="1050" y="774.9" font-family="Tahoma" font-size="12" transform="rotate(90 1050,774.9)" text-rendering="optimizeSpeed" fill="#000000">1.428 (94)</text>
  <rect fill="blue" height="7.3" stroke="black" width="12" x="1065" y="762.6"/>
  <text x="1065" y="774.9" font-family="Tahoma" font-size="12" transform="rotate(90 1065,774.9)" text-rendering="optimizeSpeed" fill="#000000">1.429 (73)</text>
  <rect fill="blue" height="13.3" stroke="black" width="12" x="1080" y="756.6"/>
  <text x="1080" y="774.9" font-family="Tahoma" font-size="12" transform="rotate(90 1080,774.9)" text-rendering="optimizeSpeed" fill="#000000">1.430 (133)</text>
  <rect fill="blue" height="11.0" stroke="black" width="12" x="1095" y="758.9"/>
  <text x="1095" y="774.9" font-family="Tahoma" font-size="12" transform="rotate(90 1095,774.9)" text-rendering="optimizeSpeed" fill="#000000">1.431 (110)</text>
  <rect fill="blue" height="16.5" stroke="black" width="12" x="1110" y="753.4"/>
  <text x="1110" y="774.9" font-family="Tahoma" font-size="12" transform="rotate(90 1110,774.9)" text-rendering="optimizeSpeed" fill="#000000">1.432 (165)</text>
  <rect fill="blue" height="8.9" stroke="black" width="12" x="1125" y="761.0"/>
  <text x="1125" y="774.9" font-family="Tahoma" font-size="12" transform="rotate(90 1125,774.9)" text-rendering="optimizeSpeed" fill="#000000">1.433 (89)</text>
  <rect fill="blue" height="12.6" stroke="black" width="12" x="1140" y="757.3"/>
  <text x="1140" y="774.9" font-family="Tahoma" font-size="12" transform="rotate(90 1140,774.9)" text-rendering="optimizeSpeed" fill="#000000">1.434 (126)</text>
  <rect fill="blue" height="6.2" stroke="black" width="12" x="1155" y="763.7"/>
  <text x="1155" y="774.9" font-family="Tahoma" font-size="12" transform="rotate(90 1155,774.9)" text-rendering="optimizeSpeed" fill="#000000">1.435 (62)</text>
  <rect fill="blue" height="13.1" stroke="black" width="12" x="1170" y="756.8"/>
  <text x="1170" y="774.9" font-family="Tahoma" font-size="12" transform="rotate(90 1170,774.9)" text-rendering="optimizeSpeed" fill="#000000">1.436 (131)</text>
  <rect fill="blue" height="12.6" stroke="black" width="12" x="1185" y="757.3"/>
  <text x="1185" y="774.9" font-family="Tahoma" font-size="12" transform="rotate(90 1185,774.9)" text-rendering="optimizeSpeed" fill="#000000">1.437 (126)</text>
  <rect fill="blue" height="13.0" stroke="black" width="12" x="1200" y="756.9"/>
  <text x="1200" y="774.9" font-family="Tahoma" font-size="12" transform="rotate(90 1200,774.9)" text-rendering="optimizeSpeed" fill="#000000">1.438 (130)</text>
  <rect fill="blue" height="8.8" stroke="black" width="12" x="1215" y="761.1"/>
  <text x="1215" y="774.9" font-family="Tahoma" font-size="12" transform="rotate(90 1215,774.9)" text-rendering="optimizeSpeed" fill="#000000">1.439 (88)</text>
  <rect fill="blue" height="15.1" stroke="black" width="12" x="1230" y="754.8"/>
  <text x="1230" y="774.9" font-family="Tahoma" font-size="12" transform="rotate(90 1230,774.9)" text-rendering="optimizeSpeed" fill="#000000">1.440 (151)</text>
  <rect fill="blue" height="23.5" stroke="black" width="12" x="1245" y="746.4"/>
  <text x="1245" y="774.9" font-family="Tahoma" font-size="12" transform="rotate(90 1245,774.9)" text-rendering="optimizeSpeed" fill="#000000">1.441 (235)</text>
  <rect fill="blue" height="14.8" stroke="black" width="12" x="1260" y="755.1"/>
  <text x="1260" y="774.9" font-family="Tahoma" font-size="12" transform="rotate(90 1260,774.9)" text-rendering="optimizeSpeed" fill="#000000">1.442 (148)</text>
  <rect fill="blue" height="15.9" stroke="black" width="12" x="1275" y="754.0"/>
  <text x="1275" y="774.9" font-family="Tahoma" font-size="12" transform="rotate(90 1275,774.9)" text-rendering="optimizeSpeed" fill="#000000">1.443 (159)</text>
  <rect fill="blue" height="12.9" stroke="black" width="12" x="1290" y="757.0"/>
  <text x="1290" y="774.9" font-family="Tahoma" font-size="12" transform="rotate(90 1290,774.9)" text-rendering="optimizeSpeed" fill="#000000">1.444 (129)</text>
  <rect fill="blue" height="8.1" stroke="black" width="12" x="1305" y="761.8"/>
  <text x="1305" y="774.9" font-family="Tahoma" font-size="12" transform="rotate(90 1305,774.9)" text-rendering="optimizeSpeed" fill="#000000">1.445 (81)</text>
  <rect fill="blue" height="12.7" stroke="black" width="12" x="1320" y="757.2"/>
  <text x="1320" y="774.9" font-family="Tahoma" font-size="12" transform="rotate(90 1320,774.9)" text-rendering="optimizeSpeed" fill="#000000">1.446 (127)</text>
  <rect fill="blue" height="23.3" stroke="black" width="12" x="1335" y="746.6"/>
  <text x="1335" y="774.9" font-family="Tahoma" font-size="12" transform="rotate(90 1335,774.9)" text-rendering="optimizeSpeed" fill="#000000">1.447 (233)</text>
  <rect fill="blue" height="0.1" stroke="black" width="12" x="1350" y="769.8"/>
  <text x="1350" y="774.9" font-family="Tahoma" font-size="12" transform="rotate(90 1350,774.9)" text-rendering="optimizeSpeed" fill="#000000">1.447.1-alpha-1 (1)</text>
  <rect fill="blue" height="19.0" stroke="black" width="12" x="1365" y="750.9"/>
  <text x="1365" y="774.9" font-family="Tahoma" font-size="12" transform="rotate(90 1365,774.9)" text-rendering="optimizeSpeed" fill="#000000">1.447.1 (190)</text>
  <rect fill="blue" height="0.5" stroke="black" width="12" x="1380" y="769.4"/>
  <text x="1380" y="774.9" font-family="Tahoma" font-size="12" transform="rotate(90 1380,774.9)" text-rendering="optimizeSpeed" fill="#000000">1.447.2-somc-1 (5)</text>
  <rect fill="blue" height="22.8" stroke="black" width="12" x="1395" y="747.1"/>
  <text x="1395" y="774.9" font-family="Tahoma" font-size="12" transform="rotate(90 1395,774.9)" text-rendering="optimizeSpeed" fill="#000000">1.447.2 (228)</text>
  <rect fill="blue" height="13.9" stroke="black" width="12" x="1410" y="756.0"/>
  <text x="1410" y="774.9" font-family="Tahoma" font-size="12" transform="rotate(90 1410,774.9)" text-rendering="optimizeSpeed" fill="#000000">1.448 (139)</text>
  <rect fill="blue" height="22.4" stroke="black" width="12" x="1425" y="747.5"/>
  <text x="1425" y="774.9" font-family="Tahoma" font-size="12" transform="rotate(90 1425,774.9)" text-rendering="optimizeSpeed" fill="#000000">1.449 (224)</text>
  <rect fill="blue" height="44.0" stroke="black" width="12" x="1440" y="725.9"/>
  <text x="1440" y="774.9" font-family="Tahoma" font-size="12" transform="rotate(90 1440,774.9)" text-rendering="optimizeSpeed" fill="#000000">1.450 (440)</text>
  <rect fill="blue" height="43.3" stroke="black" width="12" x="1455" y="726.6"/>
  <text x="1455" y="774.9" font-family="Tahoma" font-size="12" transform="rotate(90 1455,774.9)" text-rendering="optimizeSpeed" fill="#000000">1.451 (433)</text>
  <rect fill="blue" height="29.6" stroke="black" width="12" x="1470" y="740.3"/>
  <text x="1470" y="774.9" font-family="Tahoma" font-size="12" transform="rotate(90 1470,774.9)" text-rendering="optimizeSpeed" fill="#000000">1.452 (296)</text>
  <rect fill="blue" height="0.6" stroke="black" width="12" x="1485" y="769.3"/>
  <text x="1485" y="774.9" font-family="Tahoma" font-size="12" transform="rotate(90 1485,774.9)" text-rendering="optimizeSpeed" fill="#000000">1.453 (6)</text>
  <rect fill="blue" height="26.3" stroke="black" width="12" x="1500" y="743.6"/>
  <text x="1500" y="774.9" font-family="Tahoma" font-size="12" transform="rotate(90 1500,774.9)" text-rendering="optimizeSpeed" fill="#000000">1.454 (263)</text>
  <rect fill="blue" height="29.0" stroke="black" width="12" x="1515" y="740.9"/>
  <text x="1515" y="774.9" font-family="Tahoma" font-size="12" transform="rotate(90 1515,774.9)" text-rendering="optimizeSpeed" fill="#000000">1.455 (290)</text>
  <rect fill="blue" height="44.9" stroke="black" width="12" x="1530" y="725.0"/>
  <text x="1530" y="774.9" font-family="Tahoma" font-size="12" transform="rotate(90 1530,774.9)" text-rendering="optimizeSpeed" fill="#000000">1.456 (449)</text>
  <rect fill="blue" height="30.1" stroke="black" width="12" x="1545" y="739.8"/>
  <text x="1545" y="774.9" font-family="Tahoma" font-size="12" transform="rotate(90 1545,774.9)" text-rendering="optimizeSpeed" fill="#000000">1.457 (301)</text>
  <rect fill="blue" height="28.3" stroke="black" width="12" x="1560" y="741.6"/>
  <text x="1560" y="774.9" font-family="Tahoma" font-size="12" transform="rotate(90 1560,774.9)" text-rendering="optimizeSpeed" fill="#000000">1.458 (283)</text>
  <rect fill="blue" height="24.3" stroke="black" width="12" x="1575" y="745.6"/>
  <text x="1575" y="774.9" font-family="Tahoma" font-size="12" transform="rotate(90 1575,774.9)" text-rendering="optimizeSpeed" fill="#000000">1.459 (243)</text>
  <rect fill="blue" height="46.7" stroke="black" width="12" x="1590" y="723.2"/>
  <text x="1590" y="774.9" font-family="Tahoma" font-size="12" transform="rotate(90 1590,774.9)" text-rendering="optimizeSpeed" fill="#000000">1.460 (467)</text>
  <rect fill="blue" height="28.9" stroke="black" width="12" x="1605" y="741.0"/>
  <text x="1605" y="774.9" font-family="Tahoma" font-size="12" transform="rotate(90 1605,774.9)" text-rendering="optimizeSpeed" fill="#000000">1.461 (289)</text>
  <rect fill="blue" height="27.3" stroke="black" width="12" x="1620" y="742.6"/>
  <text x="1620" y="774.9" font-family="Tahoma" font-size="12" transform="rotate(90 1620,774.9)" text-rendering="optimizeSpeed" fill="#000000">1.462 (273)</text>
  <rect fill="blue" height="32.0" stroke="black" width="12" x="1635" y="737.9"/>
  <text x="1635" y="774.9" font-family="Tahoma" font-size="12" transform="rotate(90 1635,774.9)" text-rendering="optimizeSpeed" fill="#000000">1.463 (320)</text>
  <rect fill="blue" height="39.2" stroke="black" width="12" x="1650" y="730.7"/>
  <text x="1650" y="774.9" font-family="Tahoma" font-size="12" transform="rotate(90 1650,774.9)" text-rendering="optimizeSpeed" fill="#000000">1.464 (392)</text>
  <rect fill="blue" height="2.4" stroke="black" width="12" x="1665" y="767.5"/>
  <text x="1665" y="774.9" font-family="Tahoma" font-size="12" transform="rotate(90 1665,774.9)" text-rendering="optimizeSpeed" fill="#000000">1.464.2ms (24)</text>
  <rect fill="blue" height="41.1" stroke="black" width="12" x="1680" y="728.8"/>
  <text x="1680" y="774.9" font-family="Tahoma" font-size="12" transform="rotate(90 1680,774.9)" text-rendering="optimizeSpeed" fill="#000000">1.465 (411)</text>
  <rect fill="blue" height="62.7" stroke="black" width="12" x="1695" y="707.2"/>
  <text x="1695" y="774.9" font-family="Tahoma" font-size="12" transform="rotate(90 1695,774.9)" text-rendering="optimizeSpeed" fill="#000000">1.466 (627)</text>
  <rect fill="blue" height="28.6" stroke="black" width="12" x="1710" y="741.3"/>
  <text x="1710" y="774.9" font-family="Tahoma" font-size="12" transform="rotate(90 1710,774.9)" text-rendering="optimizeSpeed" fill="#000000">1.466.1 (286)</text>
  <rect fill="blue" height="0.1" stroke="black" width="12" x="1725" y="769.8"/>
  <text x="1725" y="774.9" font-family="Tahoma" font-size="12" transform="rotate(90 1725,774.9)" text-rendering="optimizeSpeed" fill="#000000">1.466.2+JENKINS-15382 (1)</text>
  <rect fill="blue" height="70.9" stroke="black" width="12" x="1740" y="699.0"/>
  <text x="1740" y="774.9" font-family="Tahoma" font-size="12" transform="rotate(90 1740,774.9)" text-rendering="optimizeSpeed" fill="#000000">1.466.2 (709)</text>
  <rect fill="blue" height="33.6" stroke="black" width="12" x="1755" y="736.3"/>
  <text x="1755" y="774.9" font-family="Tahoma" font-size="12" transform="rotate(90 1755,774.9)" text-rendering="optimizeSpeed" fill="#000000">1.467 (336)</text>
  <rect fill="blue" height="3.7" stroke="black" width="12" x="1770" y="766.2"/>
  <text x="1770" y="774.9" font-family="Tahoma" font-size="12" transform="rotate(90 1770,774.9)" text-rendering="optimizeSpeed" fill="#000000">1.468 (37)</text>
  <rect fill="blue" height="9.7" stroke="black" width="12" x="1785" y="760.2"/>
  <text x="1785" y="774.9" font-family="Tahoma" font-size="12" transform="rotate(90 1785,774.9)" text-rendering="optimizeSpeed" fill="#000000">1.469 (97)</text>
  <rect fill="blue" height="0.1" stroke="black" width="12" x="1800" y="769.8"/>
  <text x="1800" y="774.9" font-family="Tahoma" font-size="12" transform="rotate(90 1800,774.9)" text-rendering="optimizeSpeed" fill="#000000">1.469.inc1 (1)</text>
  <rect fill="blue" height="32.4" stroke="black" width="12" x="1815" y="737.5"/>
  <text x="1815" y="774.9" font-family="Tahoma" font-size="12" transform="rotate(90 1815,774.9)" text-rendering="optimizeSpeed" fill="#000000">1.470 (324)</text>
  <rect fill="blue" height="37.0" stroke="black" width="12" x="1830" y="732.9"/>
  <text x="1830" y="774.9" font-family="Tahoma" font-size="12" transform="rotate(90 1830,774.9)" text-rendering="optimizeSpeed" fill="#000000">1.471 (370)</text>
  <rect fill="blue" height="48.7" stroke="black" width="12" x="1845" y="721.2"/>
  <text x="1845" y="774.9" font-family="Tahoma" font-size="12" transform="rotate(90 1845,774.9)" text-rendering="optimizeSpeed" fill="#000000">1.472 (487)</text>
  <rect fill="blue" height="56.8" stroke="black" width="12" x="1860" y="713.1"/>
  <text x="1860" y="774.9" font-family="Tahoma" font-size="12" transform="rotate(90 1860,774.9)" text-rendering="optimizeSpeed" fill="#000000">1.473 (568)</text>
  <rect fill="blue" height="77.2" stroke="black" width="12" x="1875" y="692.7"/>
  <text x="1875" y="774.9" font-family="Tahoma" font-size="12" transform="rotate(90 1875,774.9)" text-rendering="optimizeSpeed" fill="#000000">1.474 (772)</text>
  <rect fill="blue" height="86.8" stroke="black" width="12" x="1890" y="683.1"/>
  <text x="1890" y="774.9" font-family="Tahoma" font-size="12" transform="rotate(90 1890,774.9)" text-rendering="optimizeSpeed" fill="#000000">1.475 (868)</text>
  <rect fill="blue" height="41.1" stroke="black" width="12" x="1905" y="728.8"/>
  <text x="1905" y="774.9" font-family="Tahoma" font-size="12" transform="rotate(90 1905,774.9)" text-rendering="optimizeSpeed" fill="#000000">1.476 (411)</text>
  <rect fill="blue" height="73.5" stroke="black" width="12" x="1920" y="696.4"/>
  <text x="1920" y="774.9" font-family="Tahoma" font-size="12" transform="rotate(90 1920,774.9)" text-rendering="optimizeSpeed" fill="#000000">1.477 (735)</text>
  <rect fill="blue" height="80.5" stroke="black" width="12" x="1935" y="689.4"/>
  <text x="1935" y="774.9" font-family="Tahoma" font-size="12" transform="rotate(90 1935,774.9)" text-rendering="optimizeSpeed" fill="#000000">1.478 (805)</text>
  <rect fill="blue" height="29.3" stroke="black" width="12" x="1950" y="740.6"/>
  <text x="1950" y="774.9" font-family="Tahoma" font-size="12" transform="rotate(90 1950,774.9)" text-rendering="optimizeSpeed" fill="#000000">1.479 (293)</text>
  <rect fill="blue" height="64.6" stroke="black" width="12" x="1965" y="705.3"/>
  <text x="1965" y="774.9" font-family="Tahoma" font-size="12" transform="rotate(90 1965,774.9)" text-rendering="optimizeSpeed" fill="#000000">1.480 (646)</text>
  <rect fill="blue" height="0.1" stroke="black" width="12" x="1980" y="769.8"/>
  <text x="1980" y="774.9" font-family="Tahoma" font-size="12" transform="rotate(90 1980,774.9)" text-rendering="optimizeSpeed" fill="#000000">1.480.1-Schneider-1.2 (1)</text>
  <rect fill="blue" height="76.4" stroke="black" width="12" x="1995" y="693.5"/>
  <text x="1995" y="774.9" font-family="Tahoma" font-size="12" transform="rotate(90 1995,774.9)" text-rendering="optimizeSpeed" fill="#000000">1.480.1 (764)</text>
  <rect fill="blue" height="89.2" stroke="black" width="12" x="2010" y="680.7"/>
  <text x="2010" y="774.9" font-family="Tahoma" font-size="12" transform="rotate(90 2010,774.9)" text-rendering="optimizeSpeed" fill="#000000">1.480.2 (892)</text>
  <rect fill="blue" height="0.1" stroke="black" width="12" x="2025" y="769.8"/>
  <text x="2025" y="774.9" font-family="Tahoma" font-size="12" transform="rotate(90 2025,774.9)" text-rendering="optimizeSpeed" fill="#000000">1.480.2.1 (1)</text>
  <rect fill="blue" height="57.7" stroke="black" width="12" x="2040" y="712.2"/>
  <text x="2040" y="774.9" font-family="Tahoma" font-size="12" transform="rotate(90 2040,774.9)" text-rendering="optimizeSpeed" fill="#000000">1.481 (577)</text>
  <rect fill="blue" height="67.7" stroke="black" width="12" x="2055" y="702.2"/>
  <text x="2055" y="774.9" font-family="Tahoma" font-size="12" transform="rotate(90 2055,774.9)" text-rendering="optimizeSpeed" fill="#000000">1.482 (677)</text>
  <rect fill="blue" height="72.0" stroke="black" width="12" x="2070" y="697.9"/>
  <text x="2070" y="774.9" font-family="Tahoma" font-size="12" transform="rotate(90 2070,774.9)" text-rendering="optimizeSpeed" fill="#000000">1.483 (720)</text>
  <rect fill="blue" height="79.0" stroke="black" width="12" x="2085" y="690.9"/>
  <text x="2085" y="774.9" font-family="Tahoma" font-size="12" transform="rotate(90 2085,774.9)" text-rendering="optimizeSpeed" fill="#000000">1.484 (790)</text>
  <rect fill="blue" height="49.9" stroke="black" width="12" x="2100" y="720.0"/>
  <text x="2100" y="774.9" font-family="Tahoma" font-size="12" transform="rotate(90 2100,774.9)" text-rendering="optimizeSpeed" fill="#000000">1.485 (499)</text>
  <rect fill="blue" height="123.4" stroke="black" width="12" x="2115" y="646.5"/>
  <text x="2115" y="774.9" font-family="Tahoma" font-size="12" transform="rotate(90 2115,774.9)" text-rendering="optimizeSpeed" fill="#000000">1.486 (1234)</text>
  <rect fill="blue" height="55.3" stroke="black" width="12" x="2130" y="714.6"/>
  <text x="2130" y="774.9" font-family="Tahoma" font-size="12" transform="rotate(90 2130,774.9)" text-rendering="optimizeSpeed" fill="#000000">1.487 (553)</text>
  <rect fill="blue" height="91.0" stroke="black" width="12" x="2145" y="678.9"/>
  <text x="2145" y="774.9" font-family="Tahoma" font-size="12" transform="rotate(90 2145,774.9)" text-rendering="optimizeSpeed" fill="#000000">1.488 (910)</text>
  <rect fill="blue" height="121.2" stroke="black" width="12" x="2160" y="648.7"/>
  <text x="2160" y="774.9" font-family="Tahoma" font-size="12" transform="rotate(90 2160,774.9)" text-rendering="optimizeSpeed" fill="#000000">1.489 (1212)</text>
  <rect fill="blue" height="82.3" stroke="black" width="12" x="2175" y="687.6"/>
  <text x="2175" y="774.9" font-family="Tahoma" font-size="12" transform="rotate(90 2175,774.9)" text-rendering="optimizeSpeed" fill="#000000">1.490 (823)</text>
  <rect fill="blue" height="128.6" stroke="black" width="12" x="2190" y="641.3"/>
  <text x="2190" y="774.9" font-family="Tahoma" font-size="12" transform="rotate(90 2190,774.9)" text-rendering="optimizeSpeed" fill="#000000">1.491 (1286)</text>
  <rect fill="blue" height="258.9" stroke="black" width="12" x="2205" y="511.0"/>
  <text x="2205" y="774.9" font-family="Tahoma" font-size="12" transform="rotate(90 2205,774.9)" text-rendering="optimizeSpeed" fill="#000000">1.492 (2589)</text>
  <rect fill="blue" height="158.3" stroke="black" width="12" x="2220" y="611.6"/>
  <text x="2220" y="774.9" font-family="Tahoma" font-size="12" transform="rotate(90 2220,774.9)" text-rendering="optimizeSpeed" fill="#000000">1.493 (1583)</text>
  <rect fill="blue" height="194.6" stroke="black" width="12" x="2235" y="575.3"/>
  <text x="2235" y="774.9" font-family="Tahoma" font-size="12" transform="rotate(90 2235,774.9)" text-rendering="optimizeSpeed" fill="#000000">1.494 (1946)</text>
  <rect fill="blue" height="98.8" stroke="black" width="12" x="2250" y="671.1"/>
  <text x="2250" y="774.9" font-family="Tahoma" font-size="12" transform="rotate(90 2250,774.9)" text-rendering="optimizeSpeed" fill="#000000">1.495 (988)</text>
  <rect fill="blue" height="216.5" stroke="black" width="12" x="2265" y="553.4"/>
  <text x="2265" y="774.9" font-family="Tahoma" font-size="12" transform="rotate(90 2265,774.9)" text-rendering="optimizeSpeed" fill="#000000">1.496 (2165)</text>
  <rect fill="blue" height="64.1" stroke="black" width="12" x="2280" y="705.8"/>
  <text x="2280" y="774.9" font-family="Tahoma" font-size="12" transform="rotate(90 2280,774.9)" text-rendering="optimizeSpeed" fill="#000000">1.497 (641)</text>
  <rect fill="blue" height="325.2" stroke="black" width="12" x="2295" y="444.7"/>
  <text x="2295" y="774.9" font-family="Tahoma" font-size="12" transform="rotate(90 2295,774.9)" text-rendering="optimizeSpeed" fill="#000000">1.498 (3252)</text>
  <rect fill="blue" height="0.1" stroke="black" width="12" x="2310" y="769.8"/>
  <text x="2310" y="774.9" font-family="Tahoma" font-size="12" transform="rotate(90 2310,774.9)" text-rendering="optimizeSpeed" fill="#000000">1.499-UBS-9 (1)</text>
  <rect fill="blue" height="719.9" stroke="black" width="12" x="2325" y="50.0"/>
  <text x="2325" y="774.9" font-family="Tahoma" font-size="12" transform="rotate(90 2325,774.9)" text-rendering="optimizeSpeed" fill="#000000">1.499 (7199)</text>
  <rect fill="blue" height="0.1" stroke="black" width="12" x="2340" y="769.8"/>
  <text x="2340" y="774.9" font-family="Tahoma" font-size="12" transform="rotate(90 2340,774.9)" text-rendering="optimizeSpeed" fill="#000000">1.499.1-CUSTOM (1)</text>
  <rect fill="blue" height="365.8" stroke="black" width="12" x="2355" y="404.1"/>
  <text x="2355" y="774.9" font-family="Tahoma" font-size="12" transform="rotate(90 2355,774.9)" text-rendering="optimizeSpeed" fill="#000000">1.500 (3658)</text>
  <text x="10" y="40" font-family="Tahoma" font-size="20" text-rendering="optimizeSpeed" fill="#000000">Jenkins installations (total: 56777)</text>
</svg>
