<svg xmlns="http://www.w3.org/2000/svg" version="1.1" preserveAspectRatio="xMidYMid meet" viewBox="0 0 1625 1024.8">
  <rect fill="blue" height="25.1" stroke="black" width="12" x="15" y="699.8"/>
  <text x="15" y="729.8" font-family="Tahoma" font-size="12" transform="rotate(90 15,729.8)" text-rendering="optimizeSpeed" fill="#000000">radiatorviewplugin (2505)</text>
  <rect fill="blue" height="25.1" stroke="black" width="12" x="30" y="699.8"/>
  <text x="30" y="729.8" font-family="Tahoma" font-size="12" transform="rotate(90 30,729.8)" text-rendering="optimizeSpeed" fill="#000000">simple-theme-plugin (2509)</text>
  <rect fill="blue" height="25.7" stroke="black" width="12" x="45" y="699.2"/>
  <text x="45" y="729.8" font-family="Tahoma" font-size="12" transform="rotate(90 45,729.8)" text-rendering="optimizeSpeed" fill="#000000">global-build-stats (2568)</text>
  <rect fill="blue" height="25.8" stroke="black" width="12" x="60" y="699.1"/>
  <text x="60" y="729.8" font-family="Tahoma" font-size="12" transform="rotate(90 60,729.8)" text-rendering="optimizeSpeed" fill="#000000">description-setter (2575)</text>
  <rect fill="blue" height="26.0" stroke="black" width="12" x="75" y="698.9"/>
  <text x="75" y="729.8" font-family="Tahoma" font-size="12" transform="rotate(90 75,729.8)" text-rendering="optimizeSpeed" fill="#000000">release (2599)</text>
  <rect fill="blue" height="26.0" stroke="black" width="12" x="90" y="698.8"/>
  <text x="90" y="729.8" font-family="Tahoma" font-size="12" transform="rotate(90 90,729.8)" text-rendering="optimizeSpeed" fill="#000000">configurationslicing (2602)</text>
  <rect fill="blue" height="27.0" stroke="black" width="12" x="105" y="697.8"/>
  <text x="105" y="729.8" font-family="Tahoma" font-size="12" transform="rotate(90 105,729.8)" text-rendering="optimizeSpeed" fill="#000000">sidebar-link (2704)</text>
  <rect fill="blue" height="27.2" stroke="black" width="12" x="120" y="697.6"/>
  <text x="120" y="729.8" font-family="Tahoma" font-size="12" transform="rotate(90 120,729.8)" text-rendering="optimizeSpeed" fill="#000000">batch-task (2721)</text>
  <rect fill="blue" height="27.6" stroke="black" width="12" x="135" y="697.3"/>
  <text x="135" y="729.8" font-family="Tahoma" font-size="12" transform="rotate(90 135,729.8)" text-rendering="optimizeSpeed" fill="#000000">all-changes (2757)</text>
  <rect fill="blue" height="27.9" stroke="black" width="12" x="150" y="696.9"/>
  <text x="150" y="729.8" font-family="Tahoma" font-size="12" transform="rotate(90 150,729.8)" text-rendering="optimizeSpeed" fill="#000000">saferestart (2791)</text>
  <rect fill="blue" height="28.5" stroke="black" width="12" x="165" y="696.3"/>
  <text x="165" y="729.8" font-family="Tahoma" font-size="12" transform="rotate(90 165,729.8)" text-rendering="optimizeSpeed" fill="#000000">console-column-plugin (2854)</text>
  <rect fill="blue" height="29.6" stroke="black" width="12" x="180" y="695.3"/>
  <text x="180" y="729.8" font-family="Tahoma" font-size="12" transform="rotate(90 180,729.8)" text-rendering="optimizeSpeed" fill="#000000">port-allocator (2956)</text>
  <rect fill="blue" height="29.6" stroke="black" width="12" x="195" y="695.3"/>
  <text x="195" y="729.8" font-family="Tahoma" font-size="12" transform="rotate(90 195,729.8)" text-rendering="optimizeSpeed" fill="#000000">downstream-buildview (2957)</text>
  <rect fill="blue" height="30.2" stroke="black" width="12" x="210" y="694.7"/>
  <text x="210" y="729.8" font-family="Tahoma" font-size="12" transform="rotate(90 210,729.8)" text-rendering="optimizeSpeed" fill="#000000">perforce (3016)</text>
  <rect fill="blue" height="30.2" stroke="black" width="12" x="225" y="694.7"/>
  <text x="225" y="729.8" font-family="Tahoma" font-size="12" transform="rotate(90 225,729.8)" text-rendering="optimizeSpeed" fill="#000000">git-parameter (3019)</text>
  <rect fill="blue" height="30.4" stroke="black" width="12" x="240" y="694.5"/>
  <text x="240" y="729.8" font-family="Tahoma" font-size="12" transform="rotate(90 240,729.8)" text-rendering="optimizeSpeed" fill="#000000">gradle (3036)</text>
  <rect fill="blue" height="30.6" stroke="black" width="12" x="255" y="694.2"/>
  <text x="255" y="729.8" font-family="Tahoma" font-size="12" transform="rotate(90 255,729.8)" text-rendering="optimizeSpeed" fill="#000000">audit-trail (3059)</text>
  <rect fill="blue" height="31.1" stroke="black" width="12" x="270" y="693.8"/>
  <text x="270" y="729.8" font-family="Tahoma" font-size="12" transform="rotate(90 270,729.8)" text-rendering="optimizeSpeed" fill="#000000">nested-view (3106)</text>
  <rect fill="blue" height="31.1" stroke="black" width="12" x="285" y="693.7"/>
  <text x="285" y="729.8" font-family="Tahoma" font-size="12" transform="rotate(90 285,729.8)" text-rendering="optimizeSpeed" fill="#000000">git-server (3113)</text>
  <rect fill="blue" height="31.3" stroke="black" width="12" x="300" y="693.5"/>
  <text x="300" y="729.8" font-family="Tahoma" font-size="12" transform="rotate(90 300,729.8)" text-rendering="optimizeSpeed" fill="#000000">cloverphp (3131)</text>
  <rect fill="blue" height="31.4" stroke="black" width="12" x="315" y="693.4"/>
  <text x="315" y="729.8" font-family="Tahoma" font-size="12" transform="rotate(90 315,729.8)" text-rendering="optimizeSpeed" fill="#000000">depgraph-view (3142)</text>
  <rect fill="blue" height="31.5" stroke="black" width="12" x="330" y="693.3"/>
  <text x="330" y="729.8" font-family="Tahoma" font-size="12" transform="rotate(90 330,729.8)" text-rendering="optimizeSpeed" fill="#000000">python (3150)</text>
  <rect fill="blue" height="31.5" stroke="black" width="12" x="345" y="693.3"/>
  <text x="345" y="729.8" font-family="Tahoma" font-size="12" transform="rotate(90 345,729.8)" text-rendering="optimizeSpeed" fill="#000000">locks-and-latches (3152)</text>
  <rect fill="blue" height="32.4" stroke="black" width="12" x="360" y="692.4"/>
  <text x="360" y="729.8" font-family="Tahoma" font-size="12" transform="rotate(90 360,729.8)" text-rendering="optimizeSpeed" fill="#000000">jquery-ui (3240)</text>
  <rect fill="blue" height="32.5" stroke="black" width="12" x="375" y="692.3"/>
  <text x="375" y="729.8" font-family="Tahoma" font-size="12" transform="rotate(90 375,729.8)" text-rendering="optimizeSpeed" fill="#000000">ansicolor (3255)</text>
  <rect fill="blue" height="32.7" stroke="black" width="12" x="390" y="692.1"/>
  <text x="390" y="729.8" font-family="Tahoma" font-size="12" transform="rotate(90 390,729.8)" text-rendering="optimizeSpeed" fill="#000000">xcode-plugin (3274)</text>
  <rect fill="blue" height="32.9" stroke="black" width="12" x="405" y="691.9"/>
  <text x="405" y="729.8" font-family="Tahoma" font-size="12" transform="rotate(90 405,729.8)" text-rendering="optimizeSpeed" fill="#000000">build-name-setter (3290)</text>
  <rect fill="blue" height="33.1" stroke="black" width="12" x="420" y="691.8"/>
  <text x="420" y="729.8" font-family="Tahoma" font-size="12" transform="rotate(90 420,729.8)" text-rendering="optimizeSpeed" fill="#000000">nunit (3306)</text>
  <rect fill="blue" height="33.5" stroke="black" width="12" x="435" y="691.3"/>
  <text x="435" y="729.8" font-family="Tahoma" font-size="12" transform="rotate(90 435,729.8)" text-rendering="optimizeSpeed" fill="#000000">role-strategy (3350)</text>
  <rect fill="blue" height="33.6" stroke="black" width="12" x="450" y="691.2"/>
  <text x="450" y="729.8" font-family="Tahoma" font-size="12" transform="rotate(90 450,729.8)" text-rendering="optimizeSpeed" fill="#000000">join (3364)</text>
  <rect fill="blue" height="34.0" stroke="black" width="12" x="465" y="690.8"/>
  <text x="465" y="729.8" font-family="Tahoma" font-size="12" transform="rotate(90 465,729.8)" text-rendering="optimizeSpeed" fill="#000000">svn-tag (3401)</text>
  <rect fill="blue" height="34.1" stroke="black" width="12" x="480" y="690.7"/>
  <text x="480" y="729.8" font-family="Tahoma" font-size="12" transform="rotate(90 480,729.8)" text-rendering="optimizeSpeed" fill="#000000">ruby-runtime (3415)</text>
  <rect fill="blue" height="35.1" stroke="black" width="12" x="495" y="689.8"/>
  <text x="495" y="729.8" font-family="Tahoma" font-size="12" transform="rotate(90 495,729.8)" text-rendering="optimizeSpeed" fill="#000000">jdepend (3509)</text>
  <rect fill="blue" height="35.7" stroke="black" width="12" x="510" y="689.2"/>
  <text x="510" y="729.8" font-family="Tahoma" font-size="12" transform="rotate(90 510,729.8)" text-rendering="optimizeSpeed" fill="#000000">artifactory (3567)</text>
  <rect fill="blue" height="36.0" stroke="black" width="12" x="525" y="688.8"/>
  <text x="525" y="729.8" font-family="Tahoma" font-size="12" transform="rotate(90 525,729.8)" text-rendering="optimizeSpeed" fill="#000000">copy-to-slave (3600)</text>
  <rect fill="blue" height="36.3" stroke="black" width="12" x="540" y="688.6"/>
  <text x="540" y="729.8" font-family="Tahoma" font-size="12" transform="rotate(90 540,729.8)" text-rendering="optimizeSpeed" fill="#000000">emma (3626)</text>
  <rect fill="blue" height="38.5" stroke="black" width="12" x="555" y="686.4"/>
  <text x="555" y="729.8" font-family="Tahoma" font-size="12" transform="rotate(90 555,729.8)" text-rendering="optimizeSpeed" fill="#000000">monitoring (3847)</text>
  <rect fill="blue" height="38.9" stroke="black" width="12" x="570" y="686.0"/>
  <text x="570" y="729.8" font-family="Tahoma" font-size="12" transform="rotate(90 570,729.8)" text-rendering="optimizeSpeed" fill="#000000">groovy (3888)</text>
  <rect fill="blue" height="39.1" stroke="black" width="12" x="585" y="685.8"/>
  <text x="585" y="729.8" font-family="Tahoma" font-size="12" transform="rotate(90 585,729.8)" text-rendering="optimizeSpeed" fill="#000000">view-job-filters (3906)</text>
  <rect fill="blue" height="39.5" stroke="black" width="12" x="600" y="685.4"/>
  <text x="600" y="729.8" font-family="Tahoma" font-size="12" transform="rotate(90 600,729.8)" text-rendering="optimizeSpeed" fill="#000000">artifactdeployer (3947)</text>
  <rect fill="blue" height="39.6" stroke="black" width="12" x="615" y="685.2"/>
  <text x="615" y="729.8" font-family="Tahoma" font-size="12" transform="rotate(90 615,729.8)" text-rendering="optimizeSpeed" fill="#000000">mercurial (3961)</text>
  <rect fill="blue" height="40.2" stroke="black" width="12" x="630" y="684.6"/>
  <text x="630" y="729.8" font-family="Tahoma" font-size="12" transform="rotate(90 630,729.8)" text-rendering="optimizeSpeed" fill="#000000">performance (4021)</text>
  <rect fill="blue" height="40.2" stroke="black" width="12" x="645" y="684.6"/>
  <text x="645" y="729.8" font-family="Tahoma" font-size="12" transform="rotate(90 645,729.8)" text-rendering="optimizeSpeed" fill="#000000">scp (4021)</text>
  <rect fill="blue" height="40.6" stroke="black" width="12" x="660" y="684.2"/>
  <text x="660" y="729.8" font-family="Tahoma" font-size="12" transform="rotate(90 660,729.8)" text-rendering="optimizeSpeed" fill="#000000">tasks (4063)</text>
  <rect fill="blue" height="41.4" stroke="black" width="12" x="675" y="683.4"/>
  <text x="675" y="729.8" font-family="Tahoma" font-size="12" transform="rotate(90 675,729.8)" text-rendering="optimizeSpeed" fill="#000000">m2release (4141)</text>
  <rect fill="blue" height="44.2" stroke="black" width="12" x="690" y="680.6"/>
  <text x="690" y="729.8" font-family="Tahoma" font-size="12" transform="rotate(90 690,729.8)" text-rendering="optimizeSpeed" fill="#000000">thinBackup (4424)</text>
  <rect fill="blue" height="44.7" stroke="black" width="12" x="705" y="680.2"/>
  <text x="705" y="729.8" font-family="Tahoma" font-size="12" transform="rotate(90 705,729.8)" text-rendering="optimizeSpeed" fill="#000000">promoted-builds (4467)</text>
  <rect fill="blue" height="44.8" stroke="black" width="12" x="720" y="680.0"/>
  <text x="720" y="729.8" font-family="Tahoma" font-size="12" transform="rotate(90 720,729.8)" text-rendering="optimizeSpeed" fill="#000000">conditional-buildstep (4481)</text>
  <rect fill="blue" height="48.2" stroke="black" width="12" x="735" y="676.7"/>
  <text x="735" y="729.8" font-family="Tahoma" font-size="12" transform="rotate(90 735,729.8)" text-rendering="optimizeSpeed" fill="#000000">instant-messaging (4819)</text>
  <rect fill="blue" height="48.5" stroke="black" width="12" x="750" y="676.4"/>
  <text x="750" y="729.8" font-family="Tahoma" font-size="12" transform="rotate(90 750,729.8)" text-rendering="optimizeSpeed" fill="#000000">backup (4845)</text>
  <rect fill="blue" height="48.6" stroke="black" width="12" x="765" y="676.3"/>
  <text x="765" y="729.8" font-family="Tahoma" font-size="12" transform="rotate(90 765,729.8)" text-rendering="optimizeSpeed" fill="#000000">timestamper (4856)</text>
  <rect fill="blue" height="52.5" stroke="black" width="12" x="780" y="672.4"/>
  <text x="780" y="729.8" font-family="Tahoma" font-size="12" transform="rotate(90 780,729.8)" text-rendering="optimizeSpeed" fill="#000000">plot (5248)</text>
  <rect fill="blue" height="53.4" stroke="black" width="12" x="795" y="671.4"/>
  <text x="795" y="729.8" font-family="Tahoma" font-size="12" transform="rotate(90 795,729.8)" text-rendering="optimizeSpeed" fill="#000000">log-parser (5344)</text>
  <rect fill="blue" height="54.3" stroke="black" width="12" x="810" y="670.6"/>
  <text x="810" y="729.8" font-family="Tahoma" font-size="12" transform="rotate(90 810,729.8)" text-rendering="optimizeSpeed" fill="#000000">chucknorris (5427)</text>
  <rect fill="blue" height="54.9" stroke="black" width="12" x="825" y="670.0"/>
  <text x="825" y="729.8" font-family="Tahoma" font-size="12" transform="rotate(90 825,729.8)" text-rendering="optimizeSpeed" fill="#000000">ssh (5488)</text>
  <rect fill="blue" height="56.1" stroke="black" width="12" x="840" y="668.7"/>
  <text x="840" y="729.8" font-family="Tahoma" font-size="12" transform="rotate(90 840,729.8)" text-rendering="optimizeSpeed" fill="#000000">jira (5614)</text>
  <rect fill="blue" height="56.6" stroke="black" width="12" x="855" y="668.2"/>
  <text x="855" y="729.8" font-family="Tahoma" font-size="12" transform="rotate(90 855,729.8)" text-rendering="optimizeSpeed" fill="#000000">ws-cleanup (5665)</text>
  <rect fill="blue" height="57.3" stroke="black" width="12" x="870" y="667.5"/>
  <text x="870" y="729.8" font-family="Tahoma" font-size="12" transform="rotate(90 870,729.8)" text-rendering="optimizeSpeed" fill="#000000">run-condition (5730)</text>
  <rect fill="blue" height="58.7" stroke="black" width="12" x="885" y="666.2"/>
  <text x="885" y="729.8" font-family="Tahoma" font-size="12" transform="rotate(90 885,729.8)" text-rendering="optimizeSpeed" fill="#000000">ssh-agent (5867)</text>
  <rect fill="blue" height="59.0" stroke="black" width="12" x="900" y="665.8"/>
  <text x="900" y="729.8" font-family="Tahoma" font-size="12" transform="rotate(90 900,729.8)" text-rendering="optimizeSpeed" fill="#000000">deploy (5905)</text>
  <rect fill="blue" height="59.5" stroke="black" width="12" x="915" y="665.4"/>
  <text x="915" y="729.8" font-family="Tahoma" font-size="12" transform="rotate(90 915,729.8)" text-rendering="optimizeSpeed" fill="#000000">dry (5949)</text>
  <rect fill="blue" height="60.6" stroke="black" width="12" x="930" y="664.3"/>
  <text x="930" y="729.8" font-family="Tahoma" font-size="12" transform="rotate(90 930,729.8)" text-rendering="optimizeSpeed" fill="#000000">jobConfigHistory (6057)</text>
  <rect fill="blue" height="62.6" stroke="black" width="12" x="945" y="662.2"/>
  <text x="945" y="729.8" font-family="Tahoma" font-size="12" transform="rotate(90 945,729.8)" text-rendering="optimizeSpeed" fill="#000000">postbuild-task (6263)</text>
  <rect fill="blue" height="68.1" stroke="black" width="12" x="960" y="656.7"/>
  <text x="960" y="729.8" font-family="Tahoma" font-size="12" transform="rotate(90 960,729.8)" text-rendering="optimizeSpeed" fill="#000000">build-pipeline-plugin (6814)</text>
  <rect fill="blue" height="68.5" stroke="black" width="12" x="975" y="656.4"/>
  <text x="975" y="729.8" font-family="Tahoma" font-size="12" transform="rotate(90 975,729.8)" text-rendering="optimizeSpeed" fill="#000000">analysis-collector (6847)</text>
  <rect fill="blue" height="69.7" stroke="black" width="12" x="990" y="655.2"/>
  <text x="990" y="729.8" font-family="Tahoma" font-size="12" transform="rotate(90 990,729.8)" text-rendering="optimizeSpeed" fill="#000000">msbuild (6967)</text>
  <rect fill="blue" height="69.7" stroke="black" width="12" x="1005" y="655.2"/>
  <text x="1005" y="729.8" font-family="Tahoma" font-size="12" transform="rotate(90 1005,729.8)" text-rendering="optimizeSpeed" fill="#000000">publish-over-ssh (6969)</text>
  <rect fill="blue" height="71.7" stroke="black" width="12" x="1020" y="653.1"/>
  <text x="1020" y="729.8" font-family="Tahoma" font-size="12" transform="rotate(90 1020,729.8)" text-rendering="optimizeSpeed" fill="#000000">build-timeout (7170)</text>
  <rect fill="blue" height="72.6" stroke="black" width="12" x="1035" y="652.3"/>
  <text x="1035" y="729.8" font-family="Tahoma" font-size="12" transform="rotate(90 1035,729.8)" text-rendering="optimizeSpeed" fill="#000000">warnings (7257)</text>
  <rect fill="blue" height="78.2" stroke="black" width="12" x="1050" y="646.6"/>
  <text x="1050" y="729.8" font-family="Tahoma" font-size="12" transform="rotate(90 1050,729.8)" text-rendering="optimizeSpeed" fill="#000000">active-directory (7822)</text>
  <rect fill="blue" height="81.0" stroke="black" width="12" x="1065" y="643.8"/>
  <text x="1065" y="729.8" font-family="Tahoma" font-size="12" transform="rotate(90 1065,729.8)" text-rendering="optimizeSpeed" fill="#000000">findbugs (8105)</text>
  <rect fill="blue" height="84.0" stroke="black" width="12" x="1080" y="640.9"/>
  <text x="1080" y="729.8" font-family="Tahoma" font-size="12" transform="rotate(90 1080,729.8)" text-rendering="optimizeSpeed" fill="#000000">xunit (8396)</text>
  <rect fill="blue" height="85.2" stroke="black" width="12" x="1095" y="639.6"/>
  <text x="1095" y="729.8" font-family="Tahoma" font-size="12" transform="rotate(90 1095,729.8)" text-rendering="optimizeSpeed" fill="#000000">violations (8520)</text>
  <rect fill="blue" height="86.1" stroke="black" width="12" x="1110" y="638.8"/>
  <text x="1110" y="729.8" font-family="Tahoma" font-size="12" transform="rotate(90 1110,729.8)" text-rendering="optimizeSpeed" fill="#000000">jquery (8609)</text>
  <rect fill="blue" height="87.8" stroke="black" width="12" x="1125" y="637.0"/>
  <text x="1125" y="729.8" font-family="Tahoma" font-size="12" transform="rotate(90 1125,729.8)" text-rendering="optimizeSpeed" fill="#000000">disk-usage (8781)</text>
  <rect fill="blue" height="88.3" stroke="black" width="12" x="1140" y="636.5"/>
  <text x="1140" y="729.8" font-family="Tahoma" font-size="12" transform="rotate(90 1140,729.8)" text-rendering="optimizeSpeed" fill="#000000">github (8831)</text>
  <rect fill="blue" height="89.7" stroke="black" width="12" x="1155" y="635.2"/>
  <text x="1155" y="729.8" font-family="Tahoma" font-size="12" transform="rotate(90 1155,729.8)" text-rendering="optimizeSpeed" fill="#000000">pmd (8969)</text>
  <rect fill="blue" height="91.0" stroke="black" width="12" x="1170" y="633.9"/>
  <text x="1170" y="729.8" font-family="Tahoma" font-size="12" transform="rotate(90 1170,729.8)" text-rendering="optimizeSpeed" fill="#000000">github-api (9097)</text>
  <rect fill="blue" height="91.5" stroke="black" width="12" x="1185" y="633.4"/>
  <text x="1185" y="729.8" font-family="Tahoma" font-size="12" transform="rotate(90 1185,729.8)" text-rendering="optimizeSpeed" fill="#000000">copyartifact (9146)</text>
  <rect fill="blue" height="94.0" stroke="black" width="12" x="1200" y="630.9"/>
  <text x="1200" y="729.8" font-family="Tahoma" font-size="12" transform="rotate(90 1200,729.8)" text-rendering="optimizeSpeed" fill="#000000">envinject (9396)</text>
  <rect fill="blue" height="94.6" stroke="black" width="12" x="1215" y="630.2"/>
  <text x="1215" y="729.8" font-family="Tahoma" font-size="12" transform="rotate(90 1215,729.8)" text-rendering="optimizeSpeed" fill="#000000">dashboard-view (9463)</text>
  <rect fill="blue" height="99.4" stroke="black" width="12" x="1230" y="625.5"/>
  <text x="1230" y="729.8" font-family="Tahoma" font-size="12" transform="rotate(90 1230,729.8)" text-rendering="optimizeSpeed" fill="#000000">cobertura (9939)</text>
  <rect fill="blue" height="100.2" stroke="black" width="12" x="1245" y="624.7"/>
  <text x="1245" y="729.8" font-family="Tahoma" font-size="12" transform="rotate(90 1245,729.8)" text-rendering="optimizeSpeed" fill="#000000">checkstyle (10015)</text>
  <rect fill="blue" height="100.4" stroke="black" width="12" x="1260" y="624.4"/>
  <text x="1260" y="729.8" font-family="Tahoma" font-size="12" transform="rotate(90 1260,729.8)" text-rendering="optimizeSpeed" fill="#000000">sonar (10041)</text>
  <rect fill="blue" height="107.7" stroke="black" width="12" x="1275" y="617.2"/>
  <text x="1275" y="729.8" font-family="Tahoma" font-size="12" transform="rotate(90 1275,729.8)" text-rendering="optimizeSpeed" fill="#000000">htmlpublisher (10767)</text>
  <rect fill="blue" height="144.9" stroke="black" width="12" x="1290" y="579.9"/>
  <text x="1290" y="729.8" font-family="Tahoma" font-size="12" transform="rotate(90 1290,729.8)" text-rendering="optimizeSpeed" fill="#000000">greenballs (14493)</text>
  <rect fill="blue" height="149.9" stroke="black" width="12" x="1305" y="575.0"/>
  <text x="1305" y="729.8" font-family="Tahoma" font-size="12" transform="rotate(90 1305,729.8)" text-rendering="optimizeSpeed" fill="#000000">parameterized-trigger (14988)</text>
  <rect fill="blue" height="196.8" stroke="black" width="12" x="1320" y="528.0"/>
  <text x="1320" y="729.8" font-family="Tahoma" font-size="12" transform="rotate(90 1320,729.8)" text-rendering="optimizeSpeed" fill="#000000">email-ext (19683)</text>
  <rect fill="blue" height="206.4" stroke="black" width="12" x="1335" y="518.4"/>
  <text x="1335" y="729.8" font-family="Tahoma" font-size="12" transform="rotate(90 1335,729.8)" text-rendering="optimizeSpeed" fill="#000000">analysis-core (20644)</text>
  <rect fill="blue" height="220.4" stroke="black" width="12" x="1350" y="504.4"/>
  <text x="1350" y="729.8" font-family="Tahoma" font-size="12" transform="rotate(90 1350,729.8)" text-rendering="optimizeSpeed" fill="#000000">token-macro (22044)</text>
  <rect fill="blue" height="245.7" stroke="black" width="12" x="1365" y="479.2"/>
  <text x="1365" y="729.8" font-family="Tahoma" font-size="12" transform="rotate(90 1365,729.8)" text-rendering="optimizeSpeed" fill="#000000">git-client (24565)</text>
  <rect fill="blue" height="310.2" stroke="black" width="12" x="1380" y="414.7"/>
  <text x="1380" y="729.8" font-family="Tahoma" font-size="12" transform="rotate(90 1380,729.8)" text-rendering="optimizeSpeed" fill="#000000">git (31018)</text>
  <rect fill="blue" height="498.5" stroke="black" width="12" x="1395" y="226.4"/>
  <text x="1395" y="729.8" font-family="Tahoma" font-size="12" transform="rotate(90 1395,729.8)" text-rendering="optimizeSpeed" fill="#000000">ssh-credentials (49846)</text>
  <rect fill="blue" height="502.5" stroke="black" width="12" x="1410" y="222.3"/>
  <text x="1410" y="729.8" font-family="Tahoma" font-size="12" transform="rotate(90 1410,729.8)" text-rendering="optimizeSpeed" fill="#000000">credentials (50254)</text>
  <rect fill="blue" height="553.1" stroke="black" width="12" x="1425" y="171.7"/>
  <text x="1425" y="729.8" font-family="Tahoma" font-size="12" transform="rotate(90 1425,729.8)" text-rendering="optimizeSpeed" fill="#000000">mailer (55312)</text>
  <rect fill="blue" height="607.0" stroke="black" width="12" x="1440" y="117.8"/>
  <text x="1440" y="729.8" font-family="Tahoma" font-size="12" transform="rotate(90 1440,729.8)" text-rendering="optimizeSpeed" fill="#000000">ldap (60704)</text>
  <rect fill="blue" height="610.8" stroke="black" width="12" x="1455" y="114.1"/>
  <text x="1455" y="729.8" font-family="Tahoma" font-size="12" transform="rotate(90 1455,729.8)" text-rendering="optimizeSpeed" fill="#000000">pam-auth (61077)</text>
  <rect fill="blue" height="616.6" stroke="black" width="12" x="1470" y="108.2"/>
  <text x="1470" y="729.8" font-family="Tahoma" font-size="12" transform="rotate(90 1470,729.8)" text-rendering="optimizeSpeed" fill="#000000">external-monitor-job (61665)</text>
  <rect fill="blue" height="634.0" stroke="black" width="12" x="1485" y="90.8"/>
  <text x="1485" y="729.8" font-family="Tahoma" font-size="12" transform="rotate(90 1485,729.8)" text-rendering="optimizeSpeed" fill="#000000">cvs (63400)</text>
  <rect fill="blue" height="651.6" stroke="black" width="12" x="1500" y="73.2"/>
  <text x="1500" y="729.8" font-family="Tahoma" font-size="12" transform="rotate(90 1500,729.8)" text-rendering="optimizeSpeed" fill="#000000">translation (65165)</text>
  <rect fill="blue" height="657.3" stroke="black" width="12" x="1515" y="67.5"/>
  <text x="1515" y="729.8" font-family="Tahoma" font-size="12" transform="rotate(90 1515,729.8)" text-rendering="optimizeSpeed" fill="#000000">ant (65732)</text>
  <rect fill="blue" height="661.1" stroke="black" width="12" x="1530" y="63.8"/>
  <text x="1530" y="729.8" font-family="Tahoma" font-size="12" transform="rotate(90 1530,729.8)" text-rendering="optimizeSpeed" fill="#000000">javadoc (66109)</text>
  <rect fill="blue" height="662.1" stroke="black" width="12" x="1545" y="62.8"/>
  <text x="1545" y="729.8" font-family="Tahoma" font-size="12" transform="rotate(90 1545,729.8)" text-rendering="optimizeSpeed" fill="#000000">subversion (66207)</text>
  <rect fill="blue" height="668.9" stroke="black" width="12" x="1560" y="56.0"/>
  <text x="1560" y="729.8" font-family="Tahoma" font-size="12" transform="rotate(90 1560,729.8)" text-rendering="optimizeSpeed" fill="#000000">maven-plugin (66887)</text>
  <rect fill="blue" height="674.8" stroke="black" width="12" x="1575" y="50.0"/>
  <text x="1575" y="729.8" font-family="Tahoma" font-size="12" transform="rotate(90 1575,729.8)" text-rendering="optimizeSpeed" fill="#000000">ssh-slaves (67484)</text>
  <text x="10" y="40" font-family="Tahoma" font-size="20" text-rendering="optimizeSpeed" fill="#000000">Plugin installations (installations &gt; 2500)</text>
</svg>
