<svg xmlns="http://www.w3.org/2000/svg" version="1.1" preserveAspectRatio="xMidYMid meet" viewBox="0 0 215 1805.6">
  <rect fill="blue" height="0.0" stroke="black" width="12" x="15" y="1505.6"/>
  <text x="15" y="1510.6" font-family="Tahoma" font-size="12" transform="rotate(90 15,1510.6)" text-rendering="optimizeSpeed" fill="#000000">hudson-fleetboard-ci-SmokeTestProject (1)</text>
  <rect fill="blue" height="0.0" stroke="black" width="12" x="30" y="1505.6"/>
  <text x="30" y="1510.6" font-family="Tahoma" font-size="12" transform="rotate(90 30,1510.6)" text-rendering="optimizeSpeed" fill="#000000">hudson-mm-MMModuleSet (5)</text>
  <rect fill="blue" height="0.0" stroke="black" width="12" x="45" y="1505.6"/>
  <text x="45" y="1510.6" font-family="Tahoma" font-size="12" transform="rotate(90 45,1510.6)" text-rendering="optimizeSpeed" fill="#000000">hudson-jbpm-JbpmProject (10)</text>
  <rect fill="blue" height="0.0" stroke="black" width="12" x="60" y="1505.6"/>
  <text x="60" y="1510.6" font-family="Tahoma" font-size="12" transform="rotate(90 60,1510.6)" text-rendering="optimizeSpeed" fill="#000000">hudson-aarworkflow-AARWorkflowProject (38)</text>
  <rect fill="blue" height="0.1" stroke="black" width="12" x="75" y="1505.5"/>
  <text x="75" y="1510.6" font-family="Tahoma" font-size="12" transform="rotate(90 75,1510.6)" text-rendering="optimizeSpeed" fill="#000000">hudson-workflow-WorkflowProject (144)</text>
  <rect fill="blue" height="0.7" stroke="black" width="12" x="90" y="1504.8"/>
  <text x="90" y="1510.6" font-family="Tahoma" font-size="12" transform="rotate(90 90,1510.6)" text-rendering="optimizeSpeed" fill="#000000">hudson-plugins-project_inheritance-projects-InheritanceProject (748)</text>
  <rect fill="blue" height="3.7" stroke="black" width="12" x="105" y="1501.9"/>
  <text x="105" y="1510.6" font-family="Tahoma" font-size="12" transform="rotate(90 105,1510.6)" text-rendering="optimizeSpeed" fill="#000000">hudson-model-ExternalJob (3728)</text>
  <rect fill="blue" height="5.2" stroke="black" width="12" x="120" y="1500.4"/>
  <text x="120" y="1510.6" font-family="Tahoma" font-size="12" transform="rotate(90 120,1510.6)" text-rendering="optimizeSpeed" fill="#000000">hudson-ivy-IvyModuleSet (5228)</text>
  <rect fill="blue" height="53.5" stroke="black" width="12" x="135" y="1452.1"/>
  <text x="135" y="1510.6" font-family="Tahoma" font-size="12" transform="rotate(90 135,1510.6)" text-rendering="optimizeSpeed" fill="#000000">hudson-matrix-MatrixProject (53516)</text>
  <rect fill="blue" height="341.1" stroke="black" width="12" x="150" y="1164.5"/>
  <text x="150" y="1510.6" font-family="Tahoma" font-size="12" transform="rotate(90 150,1510.6)" text-rendering="optimizeSpeed" fill="#000000">hudson-maven-MavenModuleSet (341075)</text>
  <rect fill="blue" height="1455.6" stroke="black" width="12" x="165" y="50.0"/>
  <text x="165" y="1510.6" font-family="Tahoma" font-size="12" transform="rotate(90 165,1510.6)" text-rendering="optimizeSpeed" fill="#000000">hudson-model-FreeStyleProject (1455598)</text>
  <text x="10" y="40" font-family="Tahoma" font-size="20" text-rendering="optimizeSpeed" fill="#000000">Jobs (total: 1860091)</text>
</svg>
