<svg xmlns="http://www.w3.org/2000/svg" version="1.1" preserveAspectRatio="xMidYMid meet" viewBox="0 0 950 6098.1">
  <rect fill="blue" height="0.1" stroke="black" width="12" x="15" y="5798.0"/>
  <text x="15" y="5803.1" font-family="Tahoma" font-size="12" transform="rotate(90 15,5803.1)" text-rendering="optimizeSpeed" fill="#000000">AIX (PowerPC) (1)</text>
  <rect fill="blue" height="0.1" stroke="black" width="12" x="30" y="5798.0"/>
  <text x="30" y="5803.1" font-family="Tahoma" font-size="12" transform="rotate(90 30,5803.1)" text-rendering="optimizeSpeed" fill="#000000">Darwin (i386) (1)</text>
  <rect fill="blue" height="0.1" stroke="black" width="12" x="45" y="5798.0"/>
  <text x="45" y="5803.1" font-family="Tahoma" font-size="12" transform="rotate(90 45,5803.1)" text-rendering="optimizeSpeed" fill="#000000">Darwin (universal) (1)</text>
  <rect fill="blue" height="0.1" stroke="black" width="12" x="60" y="5798.0"/>
  <text x="60" y="5803.1" font-family="Tahoma" font-size="12" transform="rotate(90 60,5803.1)" text-rendering="optimizeSpeed" fill="#000000">HP-UX (ia64) (1)</text>
  <rect fill="blue" height="0.1" stroke="black" width="12" x="75" y="5798.0"/>
  <text x="75" y="5803.1" font-family="Tahoma" font-size="12" transform="rotate(90 75,5803.1)" text-rendering="optimizeSpeed" fill="#000000">Linux (sparc) (1)</text>
  <rect fill="blue" height="0.1" stroke="black" width="12" x="90" y="5798.0"/>
  <text x="90" y="5803.1" font-family="Tahoma" font-size="12" transform="rotate(90 90,5803.1)" text-rendering="optimizeSpeed" fill="#000000">NetBSD (i386) (1)</text>
  <rect fill="blue" height="0.1" stroke="black" width="12" x="105" y="5798.0"/>
  <text x="105" y="5803.1" font-family="Tahoma" font-size="12" transform="rotate(90 105,5803.1)" text-rendering="optimizeSpeed" fill="#000000">UnixWare (IA32) (1)</text>
  <rect fill="blue" height="0.1" stroke="black" width="12" x="120" y="5798.0"/>
  <text x="120" y="5803.1" font-family="Tahoma" font-size="12" transform="rotate(90 120,5803.1)" text-rendering="optimizeSpeed" fill="#000000">Windows NT (unknown) (ARM) (1)</text>
  <rect fill="blue" height="0.1" stroke="black" width="12" x="135" y="5798.0"/>
  <text x="135" y="5803.1" font-family="Tahoma" font-size="12" transform="rotate(90 135,5803.1)" text-rendering="optimizeSpeed" fill="#000000">Windows Server 8 (amd64) (1)</text>
  <rect fill="blue" height="0.1" stroke="black" width="12" x="150" y="5798.0"/>
  <text x="150" y="5803.1" font-family="Tahoma" font-size="12" transform="rotate(90 150,5803.1)" text-rendering="optimizeSpeed" fill="#000000">z/OS (s390) (1)</text>
  <rect fill="blue" height="0.2" stroke="black" width="12" x="165" y="5797.9"/>
  <text x="165" y="5803.1" font-family="Tahoma" font-size="12" transform="rotate(90 165,5803.1)" text-rendering="optimizeSpeed" fill="#000000">NetBSD (amd64) (2)</text>
  <rect fill="blue" height="0.2" stroke="black" width="12" x="180" y="5797.9"/>
  <text x="180" y="5803.1" font-family="Tahoma" font-size="12" transform="rotate(90 180,5803.1)" text-rendering="optimizeSpeed" fill="#000000">z/OS (s390x) (2)</text>
  <rect fill="blue" height="0.4" stroke="black" width="12" x="195" y="5797.7"/>
  <text x="195" y="5803.1" font-family="Tahoma" font-size="12" transform="rotate(90 195,5803.1)" text-rendering="optimizeSpeed" fill="#000000">Linux (s390) (4)</text>
  <rect fill="blue" height="0.5" stroke="black" width="12" x="210" y="5797.6"/>
  <text x="210" y="5803.1" font-family="Tahoma" font-size="12" transform="rotate(90 210,5803.1)" text-rendering="optimizeSpeed" fill="#000000">OpenBSD (amd64) (5)</text>
  <rect fill="blue" height="0.7" stroke="black" width="12" x="225" y="5797.4"/>
  <text x="225" y="5803.1" font-family="Tahoma" font-size="12" transform="rotate(90 225,5803.1)" text-rendering="optimizeSpeed" fill="#000000">OpenBSD (i386) (7)</text>
  <rect fill="blue" height="0.8" stroke="black" width="12" x="240" y="5797.3"/>
  <text x="240" y="5803.1" font-family="Tahoma" font-size="12" transform="rotate(90 240,5803.1)" text-rendering="optimizeSpeed" fill="#000000">Mac OS X (ppc) (8)</text>
  <rect fill="blue" height="0.8" stroke="black" width="12" x="255" y="5797.3"/>
  <text x="255" y="5803.1" font-family="Tahoma" font-size="12" transform="rotate(90 255,5803.1)" text-rendering="optimizeSpeed" fill="#000000">Windows Server 2003 (amd64) (8)</text>
  <rect fill="blue" height="1.0" stroke="black" width="12" x="270" y="5797.1"/>
  <text x="270" y="5803.1" font-family="Tahoma" font-size="12" transform="rotate(90 270,5803.1)" text-rendering="optimizeSpeed" fill="#000000">Mac OS X (amd64) (10)</text>
  <rect fill="blue" height="1.1" stroke="black" width="12" x="285" y="5797.0"/>
  <text x="285" y="5803.1" font-family="Tahoma" font-size="12" transform="rotate(90 285,5803.1)" text-rendering="optimizeSpeed" fill="#000000">Linux (ia64) (11)</text>
  <rect fill="blue" height="2.8" stroke="black" width="12" x="300" y="5795.3"/>
  <text x="300" y="5803.1" font-family="Tahoma" font-size="12" transform="rotate(90 300,5803.1)" text-rendering="optimizeSpeed" fill="#000000">HP-UX (IA64W) (28)</text>
  <rect fill="blue" height="3.4" stroke="black" width="12" x="315" y="5794.7"/>
  <text x="315" y="5803.1" font-family="Tahoma" font-size="12" transform="rotate(90 315,5803.1)" text-rendering="optimizeSpeed" fill="#000000">Linux (ppc) (34)</text>
  <rect fill="blue" height="3.4" stroke="black" width="12" x="330" y="5794.7"/>
  <text x="330" y="5803.1" font-family="Tahoma" font-size="12" transform="rotate(90 330,5803.1)" text-rendering="optimizeSpeed" fill="#000000">Windows Server 2003 (x86) (34)</text>
  <rect fill="blue" height="3.8" stroke="black" width="12" x="345" y="5794.3"/>
  <text x="345" y="5803.1" font-family="Tahoma" font-size="12" transform="rotate(90 345,5803.1)" text-rendering="optimizeSpeed" fill="#000000">Linux (ppc64) (38)</text>
  <rect fill="blue" height="4.5" stroke="black" width="12" x="360" y="5793.6"/>
  <text x="360" y="5803.1" font-family="Tahoma" font-size="12" transform="rotate(90 360,5803.1)" text-rendering="optimizeSpeed" fill="#000000">Linux (s390x) (45)</text>
  <rect fill="blue" height="4.6" stroke="black" width="12" x="375" y="5793.5"/>
  <text x="375" y="5803.1" font-family="Tahoma" font-size="12" transform="rotate(90 375,5803.1)" text-rendering="optimizeSpeed" fill="#000000">SunOS (amd64) (46)</text>
  <rect fill="blue" height="5.4" stroke="black" width="12" x="390" y="5792.7"/>
  <text x="390" y="5803.1" font-family="Tahoma" font-size="12" transform="rotate(90 390,5803.1)" text-rendering="optimizeSpeed" fill="#000000">Windows 2000 (x86) (54)</text>
  <rect fill="blue" height="6.6" stroke="black" width="12" x="405" y="5791.5"/>
  <text x="405" y="5803.1" font-family="Tahoma" font-size="12" transform="rotate(90 405,5803.1)" text-rendering="optimizeSpeed" fill="#000000">HP-UX (PA_RISC2.0) (66)</text>
  <rect fill="blue" height="7.5" stroke="black" width="12" x="420" y="5790.6"/>
  <text x="420" y="5803.1" font-family="Tahoma" font-size="12" transform="rotate(90 420,5803.1)" text-rendering="optimizeSpeed" fill="#000000">Linux (arm) (75)</text>
  <rect fill="blue" height="9.6" stroke="black" width="12" x="435" y="5788.5"/>
  <text x="435" y="5803.1" font-family="Tahoma" font-size="12" transform="rotate(90 435,5803.1)" text-rendering="optimizeSpeed" fill="#000000">FreeBSD (i386) (96)</text>
  <rect fill="blue" height="10.1" stroke="black" width="12" x="450" y="5788.0"/>
  <text x="450" y="5803.1" font-family="Tahoma" font-size="12" transform="rotate(90 450,5803.1)" text-rendering="optimizeSpeed" fill="#000000">SunOS (sparcv9) (101)</text>
  <rect fill="blue" height="10.2" stroke="black" width="12" x="465" y="5787.9"/>
  <text x="465" y="5803.1" font-family="Tahoma" font-size="12" transform="rotate(90 465,5803.1)" text-rendering="optimizeSpeed" fill="#000000">Windows Vista (amd64) (102)</text>
  <rect fill="blue" height="11.1" stroke="black" width="12" x="480" y="5787.0"/>
  <text x="480" y="5803.1" font-family="Tahoma" font-size="12" transform="rotate(90 480,5803.1)" text-rendering="optimizeSpeed" fill="#000000">Mac OS X (i386) (111)</text>
  <rect fill="blue" height="13.7" stroke="black" width="12" x="495" y="5784.4"/>
  <text x="495" y="5803.1" font-family="Tahoma" font-size="12" transform="rotate(90 495,5803.1)" text-rendering="optimizeSpeed" fill="#000000">HP-UX (IA64N) (137)</text>
  <rect fill="blue" height="14.8" stroke="black" width="12" x="510" y="5783.3"/>
  <text x="510" y="5803.1" font-family="Tahoma" font-size="12" transform="rotate(90 510,5803.1)" text-rendering="optimizeSpeed" fill="#000000">Linux (x86) (148)</text>
  <rect fill="blue" height="16.0" stroke="black" width="12" x="525" y="5782.1"/>
  <text x="525" y="5803.1" font-family="Tahoma" font-size="12" transform="rotate(90 525,5803.1)" text-rendering="optimizeSpeed" fill="#000000">Windows XP (amd64) (160)</text>
  <rect fill="blue" height="16.9" stroke="black" width="12" x="540" y="5781.2"/>
  <text x="540" y="5803.1" font-family="Tahoma" font-size="12" transform="rotate(90 540,5803.1)" text-rendering="optimizeSpeed" fill="#000000">Windows Server 2012 (x86) (169)</text>
  <rect fill="blue" height="18.8" stroke="black" width="12" x="555" y="5779.3"/>
  <text x="555" y="5803.1" font-family="Tahoma" font-size="12" transform="rotate(90 555,5803.1)" text-rendering="optimizeSpeed" fill="#000000">Windows NT (unknown) (amd64) (188)</text>
  <rect fill="blue" height="22.6" stroke="black" width="12" x="570" y="5775.5"/>
  <text x="570" y="5803.1" font-family="Tahoma" font-size="12" transform="rotate(90 570,5803.1)" text-rendering="optimizeSpeed" fill="#000000">Windows Server 2012 (amd64) (226)</text>
  <rect fill="blue" height="25.3" stroke="black" width="12" x="585" y="5772.8"/>
  <text x="585" y="5803.1" font-family="Tahoma" font-size="12" transform="rotate(90 585,5803.1)" text-rendering="optimizeSpeed" fill="#000000">FreeBSD (amd64) (253)</text>
  <rect fill="blue" height="26.3" stroke="black" width="12" x="600" y="5771.8"/>
  <text x="600" y="5803.1" font-family="Tahoma" font-size="12" transform="rotate(90 600,5803.1)" text-rendering="optimizeSpeed" fill="#000000">Windows 8 (amd64) (263)</text>
  <rect fill="blue" height="29.7" stroke="black" width="12" x="615" y="5768.4"/>
  <text x="615" y="5803.1" font-family="Tahoma" font-size="12" transform="rotate(90 615,5803.1)" text-rendering="optimizeSpeed" fill="#000000">AIX (ppc64) (297)</text>
  <rect fill="blue" height="32.5" stroke="black" width="12" x="630" y="5765.6"/>
  <text x="630" y="5803.1" font-family="Tahoma" font-size="12" transform="rotate(90 630,5803.1)" text-rendering="optimizeSpeed" fill="#000000">AIX (ppc) (325)</text>
  <rect fill="blue" height="33.4" stroke="black" width="12" x="645" y="5764.7"/>
  <text x="645" y="5803.1" font-family="Tahoma" font-size="12" transform="rotate(90 645,5803.1)" text-rendering="optimizeSpeed" fill="#000000">Windows 8 (x86) (334)</text>
  <rect fill="blue" height="46.8" stroke="black" width="12" x="660" y="5751.3"/>
  <text x="660" y="5803.1" font-family="Tahoma" font-size="12" transform="rotate(90 660,5803.1)" text-rendering="optimizeSpeed" fill="#000000">Windows NT (unknown) (x86) (468)</text>
  <rect fill="blue" height="53.5" stroke="black" width="12" x="675" y="5744.6"/>
  <text x="675" y="5803.1" font-family="Tahoma" font-size="12" transform="rotate(90 675,5803.1)" text-rendering="optimizeSpeed" fill="#000000">Windows Vista (x86) (535)</text>
  <rect fill="blue" height="69.3" stroke="black" width="12" x="690" y="5728.8"/>
  <text x="690" y="5803.1" font-family="Tahoma" font-size="12" transform="rotate(90 690,5803.1)" text-rendering="optimizeSpeed" fill="#000000">Windows 2003 (amd64) (693)</text>
  <rect fill="blue" height="69.5" stroke="black" width="12" x="705" y="5728.6"/>
  <text x="705" y="5803.1" font-family="Tahoma" font-size="12" transform="rotate(90 705,5803.1)" text-rendering="optimizeSpeed" fill="#000000">Windows Server 2008 (amd64) (695)</text>
  <rect fill="blue" height="92.2" stroke="black" width="12" x="720" y="5705.9"/>
  <text x="720" y="5803.1" font-family="Tahoma" font-size="12" transform="rotate(90 720,5803.1)" text-rendering="optimizeSpeed" fill="#000000">SunOS (x86) (922)</text>
  <rect fill="blue" height="139.4" stroke="black" width="12" x="735" y="5658.7"/>
  <text x="735" y="5803.1" font-family="Tahoma" font-size="12" transform="rotate(90 735,5803.1)" text-rendering="optimizeSpeed" fill="#000000">SunOS (sparc) (1394)</text>
  <rect fill="blue" height="159.5" stroke="black" width="12" x="750" y="5638.6"/>
  <text x="750" y="5803.1" font-family="Tahoma" font-size="12" transform="rotate(90 750,5803.1)" text-rendering="optimizeSpeed" fill="#000000">Windows Server 2008 (x86) (1595)</text>
  <rect fill="blue" height="491.7" stroke="black" width="12" x="765" y="5306.4"/>
  <text x="765" y="5803.1" font-family="Tahoma" font-size="12" transform="rotate(90 765,5803.1)" text-rendering="optimizeSpeed" fill="#000000">Windows 2003 (x86) (4917)</text>
  <rect fill="blue" height="518.7" stroke="black" width="12" x="780" y="5279.4"/>
  <text x="780" y="5803.1" font-family="Tahoma" font-size="12" transform="rotate(90 780,5803.1)" text-rendering="optimizeSpeed" fill="#000000">Windows 7 (amd64) (5187)</text>
  <rect fill="blue" height="582.2" stroke="black" width="12" x="795" y="5215.9"/>
  <text x="795" y="5803.1" font-family="Tahoma" font-size="12" transform="rotate(90 795,5803.1)" text-rendering="optimizeSpeed" fill="#000000">Windows Server 2008 R2 (x86) (5822)</text>
  <rect fill="blue" height="601.4" stroke="black" width="12" x="810" y="5196.7"/>
  <text x="810" y="5803.1" font-family="Tahoma" font-size="12" transform="rotate(90 810,5803.1)" text-rendering="optimizeSpeed" fill="#000000">Windows XP (x86) (6014)</text>
  <rect fill="blue" height="619.0" stroke="black" width="12" x="825" y="5179.1"/>
  <text x="825" y="5803.1" font-family="Tahoma" font-size="12" transform="rotate(90 825,5803.1)" text-rendering="optimizeSpeed" fill="#000000">Windows Server 2008 R2 (amd64) (6190)</text>
  <rect fill="blue" height="687.7" stroke="black" width="12" x="840" y="5110.4"/>
  <text x="840" y="5803.1" font-family="Tahoma" font-size="12" transform="rotate(90 840,5803.1)" text-rendering="optimizeSpeed" fill="#000000">Mac OS X (x86_64) (6877)</text>
  <rect fill="blue" height="967.5" stroke="black" width="12" x="855" y="4830.6"/>
  <text x="855" y="5803.1" font-family="Tahoma" font-size="12" transform="rotate(90 855,5803.1)" text-rendering="optimizeSpeed" fill="#000000">Windows 7 (x86) (9675)</text>
  <rect fill="blue" height="1534.8" stroke="black" width="12" x="870" y="4263.3"/>
  <text x="870" y="5803.1" font-family="Tahoma" font-size="12" transform="rotate(90 870,5803.1)" text-rendering="optimizeSpeed" fill="#000000">Linux (i386) (15348)</text>
  <rect fill="blue" height="3983.5" stroke="black" width="12" x="885" y="1814.6"/>
  <text x="885" y="5803.1" font-family="Tahoma" font-size="12" transform="rotate(90 885,5803.1)" text-rendering="optimizeSpeed" fill="#000000">N/A (39835)</text>
  <rect fill="blue" height="5748.1" stroke="black" width="12" x="900" y="50.0"/>
  <text x="900" y="5803.1" font-family="Tahoma" font-size="12" transform="rotate(90 900,5803.1)" text-rendering="optimizeSpeed" fill="#000000">Linux (amd64) (57481)</text>
  <text x="10" y="40" font-family="Tahoma" font-size="20" text-rendering="optimizeSpeed" fill="#000000">Nodes (total: 167045)</text>
</svg>
