<svg xmlns="http://www.w3.org/2000/svg" version="1.1" preserveAspectRatio="xMidYMid meet" viewBox="0 0 920 4891.9">
  <rect fill="blue" height="0.1" stroke="black" width="12" x="15" y="4591.8"/>
  <text x="15" y="4596.9" font-family="Tahoma" font-size="12" transform="rotate(90 15,4596.9)" text-rendering="optimizeSpeed" fill="#000000">Darwin (ppc) (1)</text>
  <rect fill="blue" height="0.1" stroke="black" width="12" x="30" y="4591.8"/>
  <text x="30" y="4596.9" font-family="Tahoma" font-size="12" transform="rotate(90 30,4596.9)" text-rendering="optimizeSpeed" fill="#000000">Linux (sparcv9) (1)</text>
  <rect fill="blue" height="0.1" stroke="black" width="12" x="45" y="4591.8"/>
  <text x="45" y="4596.9" font-family="Tahoma" font-size="12" transform="rotate(90 45,4596.9)" text-rendering="optimizeSpeed" fill="#000000">NetBSD (i386) (1)</text>
  <rect fill="blue" height="0.1" stroke="black" width="12" x="60" y="4591.8"/>
  <text x="60" y="4596.9" font-family="Tahoma" font-size="12" transform="rotate(90 60,4596.9)" text-rendering="optimizeSpeed" fill="#000000">OS/400 (PowerPC) (1)</text>
  <rect fill="blue" height="0.1" stroke="black" width="12" x="75" y="4591.8"/>
  <text x="75" y="4596.9" font-family="Tahoma" font-size="12" transform="rotate(90 75,4596.9)" text-rendering="optimizeSpeed" fill="#000000">UnixWare (IA32) (1)</text>
  <rect fill="blue" height="0.1" stroke="black" width="12" x="90" y="4591.8"/>
  <text x="90" y="4596.9" font-family="Tahoma" font-size="12" transform="rotate(90 90,4596.9)" text-rendering="optimizeSpeed" fill="#000000">Windows NT (x86) (1)</text>
  <rect fill="blue" height="0.1" stroke="black" width="12" x="105" y="4591.8"/>
  <text x="105" y="4596.9" font-family="Tahoma" font-size="12" transform="rotate(90 105,4596.9)" text-rendering="optimizeSpeed" fill="#000000">Windows Server 8 (amd64) (1)</text>
  <rect fill="blue" height="0.2" stroke="black" width="12" x="120" y="4591.7"/>
  <text x="120" y="4596.9" font-family="Tahoma" font-size="12" transform="rotate(90 120,4596.9)" text-rendering="optimizeSpeed" fill="#000000">Bitrig (amd64) (2)</text>
  <rect fill="blue" height="0.2" stroke="black" width="12" x="135" y="4591.7"/>
  <text x="135" y="4596.9" font-family="Tahoma" font-size="12" transform="rotate(90 135,4596.9)" text-rendering="optimizeSpeed" fill="#000000">Darwin (universal) (2)</text>
  <rect fill="blue" height="0.2" stroke="black" width="12" x="150" y="4591.7"/>
  <text x="150" y="4596.9" font-family="Tahoma" font-size="12" transform="rotate(90 150,4596.9)" text-rendering="optimizeSpeed" fill="#000000">Linux (s390) (2)</text>
  <rect fill="blue" height="0.2" stroke="black" width="12" x="165" y="4591.7"/>
  <text x="165" y="4596.9" font-family="Tahoma" font-size="12" transform="rotate(90 165,4596.9)" text-rendering="optimizeSpeed" fill="#000000">NetBSD (amd64) (2)</text>
  <rect fill="blue" height="0.4" stroke="black" width="12" x="180" y="4591.5"/>
  <text x="180" y="4596.9" font-family="Tahoma" font-size="12" transform="rotate(90 180,4596.9)" text-rendering="optimizeSpeed" fill="#000000">OpenBSD (i386) (4)</text>
  <rect fill="blue" height="0.8" stroke="black" width="12" x="195" y="4591.1"/>
  <text x="195" y="4596.9" font-family="Tahoma" font-size="12" transform="rotate(90 195,4596.9)" text-rendering="optimizeSpeed" fill="#000000">Mac OS X (amd64) (8)</text>
  <rect fill="blue" height="0.9" stroke="black" width="12" x="210" y="4591.0"/>
  <text x="210" y="4596.9" font-family="Tahoma" font-size="12" transform="rotate(90 210,4596.9)" text-rendering="optimizeSpeed" fill="#000000">OpenBSD (amd64) (9)</text>
  <rect fill="blue" height="0.9" stroke="black" width="12" x="225" y="4591.0"/>
  <text x="225" y="4596.9" font-family="Tahoma" font-size="12" transform="rotate(90 225,4596.9)" text-rendering="optimizeSpeed" fill="#000000">Windows Server 2003 (amd64) (9)</text>
  <rect fill="blue" height="1.8" stroke="black" width="12" x="240" y="4590.1"/>
  <text x="240" y="4596.9" font-family="Tahoma" font-size="12" transform="rotate(90 240,4596.9)" text-rendering="optimizeSpeed" fill="#000000">Mac OS X (ppc) (18)</text>
  <rect fill="blue" height="1.9" stroke="black" width="12" x="255" y="4590.0"/>
  <text x="255" y="4596.9" font-family="Tahoma" font-size="12" transform="rotate(90 255,4596.9)" text-rendering="optimizeSpeed" fill="#000000">Linux (ia64) (19)</text>
  <rect fill="blue" height="2.1" stroke="black" width="12" x="270" y="4589.8"/>
  <text x="270" y="4596.9" font-family="Tahoma" font-size="12" transform="rotate(90 270,4596.9)" text-rendering="optimizeSpeed" fill="#000000">HP-UX (IA64W) (21)</text>
  <rect fill="blue" height="2.3" stroke="black" width="12" x="285" y="4589.6"/>
  <text x="285" y="4596.9" font-family="Tahoma" font-size="12" transform="rotate(90 285,4596.9)" text-rendering="optimizeSpeed" fill="#000000">Linux (ppc64) (23)</text>
  <rect fill="blue" height="3.4" stroke="black" width="12" x="300" y="4588.5"/>
  <text x="300" y="4596.9" font-family="Tahoma" font-size="12" transform="rotate(90 300,4596.9)" text-rendering="optimizeSpeed" fill="#000000">Linux (ppc) (34)</text>
  <rect fill="blue" height="3.7" stroke="black" width="12" x="315" y="4588.2"/>
  <text x="315" y="4596.9" font-family="Tahoma" font-size="12" transform="rotate(90 315,4596.9)" text-rendering="optimizeSpeed" fill="#000000">Linux (s390x) (37)</text>
  <rect fill="blue" height="3.8" stroke="black" width="12" x="330" y="4588.1"/>
  <text x="330" y="4596.9" font-family="Tahoma" font-size="12" transform="rotate(90 330,4596.9)" text-rendering="optimizeSpeed" fill="#000000">SunOS (amd64) (38)</text>
  <rect fill="blue" height="3.9" stroke="black" width="12" x="345" y="4588.0"/>
  <text x="345" y="4596.9" font-family="Tahoma" font-size="12" transform="rotate(90 345,4596.9)" text-rendering="optimizeSpeed" fill="#000000">Windows Server 2003 (x86) (39)</text>
  <rect fill="blue" height="4.5" stroke="black" width="12" x="360" y="4587.4"/>
  <text x="360" y="4596.9" font-family="Tahoma" font-size="12" transform="rotate(90 360,4596.9)" text-rendering="optimizeSpeed" fill="#000000">Linux (arm) (45)</text>
  <rect fill="blue" height="4.7" stroke="black" width="12" x="375" y="4587.2"/>
  <text x="375" y="4596.9" font-family="Tahoma" font-size="12" transform="rotate(90 375,4596.9)" text-rendering="optimizeSpeed" fill="#000000">Windows Server 2012 (x86) (47)</text>
  <rect fill="blue" height="5.0" stroke="black" width="12" x="390" y="4586.9"/>
  <text x="390" y="4596.9" font-family="Tahoma" font-size="12" transform="rotate(90 390,4596.9)" text-rendering="optimizeSpeed" fill="#000000">Windows 2000 (x86) (50)</text>
  <rect fill="blue" height="6.3" stroke="black" width="12" x="405" y="4585.6"/>
  <text x="405" y="4596.9" font-family="Tahoma" font-size="12" transform="rotate(90 405,4596.9)" text-rendering="optimizeSpeed" fill="#000000">HP-UX (PA_RISC2.0) (63)</text>
  <rect fill="blue" height="7.8" stroke="black" width="12" x="420" y="4584.1"/>
  <text x="420" y="4596.9" font-family="Tahoma" font-size="12" transform="rotate(90 420,4596.9)" text-rendering="optimizeSpeed" fill="#000000">Windows Server 2012 (amd64) (78)</text>
  <rect fill="blue" height="8.7" stroke="black" width="12" x="435" y="4583.2"/>
  <text x="435" y="4596.9" font-family="Tahoma" font-size="12" transform="rotate(90 435,4596.9)" text-rendering="optimizeSpeed" fill="#000000">FreeBSD (i386) (87)</text>
  <rect fill="blue" height="9.5" stroke="black" width="12" x="450" y="4582.4"/>
  <text x="450" y="4596.9" font-family="Tahoma" font-size="12" transform="rotate(90 450,4596.9)" text-rendering="optimizeSpeed" fill="#000000">Windows Vista (amd64) (95)</text>
  <rect fill="blue" height="10.2" stroke="black" width="12" x="465" y="4581.7"/>
  <text x="465" y="4596.9" font-family="Tahoma" font-size="12" transform="rotate(90 465,4596.9)" text-rendering="optimizeSpeed" fill="#000000">SunOS (sparcv9) (102)</text>
  <rect fill="blue" height="11.4" stroke="black" width="12" x="480" y="4580.5"/>
  <text x="480" y="4596.9" font-family="Tahoma" font-size="12" transform="rotate(90 480,4596.9)" text-rendering="optimizeSpeed" fill="#000000">Mac OS X (i386) (114)</text>
  <rect fill="blue" height="11.6" stroke="black" width="12" x="495" y="4580.3"/>
  <text x="495" y="4596.9" font-family="Tahoma" font-size="12" transform="rotate(90 495,4596.9)" text-rendering="optimizeSpeed" fill="#000000">Windows 8 (x86) (116)</text>
  <rect fill="blue" height="13.2" stroke="black" width="12" x="510" y="4578.7"/>
  <text x="510" y="4596.9" font-family="Tahoma" font-size="12" transform="rotate(90 510,4596.9)" text-rendering="optimizeSpeed" fill="#000000">HP-UX (IA64N) (132)</text>
  <rect fill="blue" height="14.0" stroke="black" width="12" x="525" y="4577.9"/>
  <text x="525" y="4596.9" font-family="Tahoma" font-size="12" transform="rotate(90 525,4596.9)" text-rendering="optimizeSpeed" fill="#000000">Linux (x86) (140)</text>
  <rect fill="blue" height="14.1" stroke="black" width="12" x="540" y="4577.8"/>
  <text x="540" y="4596.9" font-family="Tahoma" font-size="12" transform="rotate(90 540,4596.9)" text-rendering="optimizeSpeed" fill="#000000">Windows 8 (amd64) (141)</text>
  <rect fill="blue" height="15.2" stroke="black" width="12" x="555" y="4576.7"/>
  <text x="555" y="4596.9" font-family="Tahoma" font-size="12" transform="rotate(90 555,4596.9)" text-rendering="optimizeSpeed" fill="#000000">Windows NT (unknown) (amd64) (152)</text>
  <rect fill="blue" height="16.9" stroke="black" width="12" x="570" y="4575.0"/>
  <text x="570" y="4596.9" font-family="Tahoma" font-size="12" transform="rotate(90 570,4596.9)" text-rendering="optimizeSpeed" fill="#000000">Windows XP (amd64) (169)</text>
  <rect fill="blue" height="20.9" stroke="black" width="12" x="585" y="4571.0"/>
  <text x="585" y="4596.9" font-family="Tahoma" font-size="12" transform="rotate(90 585,4596.9)" text-rendering="optimizeSpeed" fill="#000000">FreeBSD (amd64) (209)</text>
  <rect fill="blue" height="26.7" stroke="black" width="12" x="600" y="4565.2"/>
  <text x="600" y="4596.9" font-family="Tahoma" font-size="12" transform="rotate(90 600,4596.9)" text-rendering="optimizeSpeed" fill="#000000">AIX (ppc64) (267)</text>
  <rect fill="blue" height="30.6" stroke="black" width="12" x="615" y="4561.3"/>
  <text x="615" y="4596.9" font-family="Tahoma" font-size="12" transform="rotate(90 615,4596.9)" text-rendering="optimizeSpeed" fill="#000000">AIX (ppc) (306)</text>
  <rect fill="blue" height="35.8" stroke="black" width="12" x="630" y="4556.1"/>
  <text x="630" y="4596.9" font-family="Tahoma" font-size="12" transform="rotate(90 630,4596.9)" text-rendering="optimizeSpeed" fill="#000000">Windows NT (unknown) (x86) (358)</text>
  <rect fill="blue" height="51.7" stroke="black" width="12" x="645" y="4540.2"/>
  <text x="645" y="4596.9" font-family="Tahoma" font-size="12" transform="rotate(90 645,4596.9)" text-rendering="optimizeSpeed" fill="#000000">Windows Vista (x86) (517)</text>
  <rect fill="blue" height="56.6" stroke="black" width="12" x="660" y="4535.3"/>
  <text x="660" y="4596.9" font-family="Tahoma" font-size="12" transform="rotate(90 660,4596.9)" text-rendering="optimizeSpeed" fill="#000000">Windows Server 2008 (amd64) (566)</text>
  <rect fill="blue" height="71.4" stroke="black" width="12" x="675" y="4520.5"/>
  <text x="675" y="4596.9" font-family="Tahoma" font-size="12" transform="rotate(90 675,4596.9)" text-rendering="optimizeSpeed" fill="#000000">Windows 2003 (amd64) (714)</text>
  <rect fill="blue" height="75.3" stroke="black" width="12" x="690" y="4516.6"/>
  <text x="690" y="4596.9" font-family="Tahoma" font-size="12" transform="rotate(90 690,4596.9)" text-rendering="optimizeSpeed" fill="#000000">SunOS (x86) (753)</text>
  <rect fill="blue" height="132.1" stroke="black" width="12" x="705" y="4459.8"/>
  <text x="705" y="4596.9" font-family="Tahoma" font-size="12" transform="rotate(90 705,4596.9)" text-rendering="optimizeSpeed" fill="#000000">SunOS (sparc) (1321)</text>
  <rect fill="blue" height="140.8" stroke="black" width="12" x="720" y="4451.1"/>
  <text x="720" y="4596.9" font-family="Tahoma" font-size="12" transform="rotate(90 720,4596.9)" text-rendering="optimizeSpeed" fill="#000000">Windows Server 2008 (x86) (1408)</text>
  <rect fill="blue" height="373.7" stroke="black" width="12" x="735" y="4218.2"/>
  <text x="735" y="4596.9" font-family="Tahoma" font-size="12" transform="rotate(90 735,4596.9)" text-rendering="optimizeSpeed" fill="#000000">Windows 7 (amd64) (3737)</text>
  <rect fill="blue" height="452.5" stroke="black" width="12" x="750" y="4139.4"/>
  <text x="750" y="4596.9" font-family="Tahoma" font-size="12" transform="rotate(90 750,4596.9)" text-rendering="optimizeSpeed" fill="#000000">Windows Server 2008 R2 (amd64) (4525)</text>
  <rect fill="blue" height="460.9" stroke="black" width="12" x="765" y="4131.0"/>
  <text x="765" y="4596.9" font-family="Tahoma" font-size="12" transform="rotate(90 765,4596.9)" text-rendering="optimizeSpeed" fill="#000000">Windows Server 2008 R2 (x86) (4609)</text>
  <rect fill="blue" height="480.6" stroke="black" width="12" x="780" y="4111.3"/>
  <text x="780" y="4596.9" font-family="Tahoma" font-size="12" transform="rotate(90 780,4596.9)" text-rendering="optimizeSpeed" fill="#000000">Windows 2003 (x86) (4806)</text>
  <rect fill="blue" height="571.2" stroke="black" width="12" x="795" y="4020.7"/>
  <text x="795" y="4596.9" font-family="Tahoma" font-size="12" transform="rotate(90 795,4596.9)" text-rendering="optimizeSpeed" fill="#000000">Mac OS X (x86_64) (5712)</text>
  <rect fill="blue" height="628.8" stroke="black" width="12" x="810" y="3963.1"/>
  <text x="810" y="4596.9" font-family="Tahoma" font-size="12" transform="rotate(90 810,4596.9)" text-rendering="optimizeSpeed" fill="#000000">Windows XP (x86) (6288)</text>
  <rect fill="blue" height="751.9" stroke="black" width="12" x="825" y="3840.0"/>
  <text x="825" y="4596.9" font-family="Tahoma" font-size="12" transform="rotate(90 825,4596.9)" text-rendering="optimizeSpeed" fill="#000000">Windows 7 (x86) (7519)</text>
  <rect fill="blue" height="1465.8" stroke="black" width="12" x="840" y="3126.1"/>
  <text x="840" y="4596.9" font-family="Tahoma" font-size="12" transform="rotate(90 840,4596.9)" text-rendering="optimizeSpeed" fill="#000000">Linux (i386) (14658)</text>
  <rect fill="blue" height="3335.7" stroke="black" width="12" x="855" y="1256.2"/>
  <text x="855" y="4596.9" font-family="Tahoma" font-size="12" transform="rotate(90 855,4596.9)" text-rendering="optimizeSpeed" fill="#000000">N/A (33357)</text>
  <rect fill="blue" height="4541.9" stroke="black" width="12" x="870" y="50.0"/>
  <text x="870" y="4596.9" font-family="Tahoma" font-size="12" transform="rotate(90 870,4596.9)" text-rendering="optimizeSpeed" fill="#000000">Linux (amd64) (45419)</text>
  <text x="10" y="40" font-family="Tahoma" font-size="20" text-rendering="optimizeSpeed" fill="#000000">Nodes (total: 138854)</text>
</svg>
