<svg xmlns="http://www.w3.org/2000/svg" version="1.1" preserveAspectRatio="xMidYMid meet" viewBox="0 0 720 1820">
  <text x="30" y="40" font-family="sans-serif" font-size="16">Nodes, total: 197012</text>
  <path d="M 200,300 L 0.0,150.0 A 150,150 0 0 1 3.7,150.0 Z" fill="BurlyWood" stroke="black" stroke-width="1"/>
  <rect x="370" y="50" width="20" height="30" fill="BurlyWood" stroke="black" stroke-width="1"/>
  <text x="400" y="38" font-family="sans-serif" font-size="16">AIX (ppc) (331)</text>
  <path d="M 200,300 L 3.7,150.0 A 150,150 0 0 1 8.1,150.0 Z" fill="CadetBlue" stroke="black" stroke-width="1"/>
  <rect x="370" y="51" width="20" height="30" fill="CadetBlue" stroke="black" stroke-width="1"/>
  <text x="400" y="68" font-family="sans-serif" font-size="16">AIX (ppc64) (396)</text>
  <path d="M 200,300 L 8.1,150.0 A 150,150 0 0 1 8.1,150.0 Z" fill="red" stroke="black" stroke-width="1"/>
  <rect x="370" y="52" width="20" height="30" fill="red" stroke="black" stroke-width="1"/>
  <text x="400" y="98" font-family="sans-serif" font-size="16">Bitrig (amd64) (3)</text>
  <path d="M 200,300 L 8.1,150.0 A 150,150 0 0 1 8.2,150.0 Z" fill="blue" stroke="black" stroke-width="1"/>
  <rect x="370" y="53" width="20" height="30" fill="blue" stroke="black" stroke-width="1"/>
  <text x="400" y="128" font-family="sans-serif" font-size="16">Darwin (i386) (2)</text>
  <path d="M 200,300 L 8.2,150.0 A 150,150 0 0 1 8.2,150.0 Z" fill="yellow" stroke="black" stroke-width="1"/>
  <rect x="370" y="54" width="20" height="30" fill="yellow" stroke="black" stroke-width="1"/>
  <text x="400" y="158" font-family="sans-serif" font-size="16">Darwin (universal) (1)</text>
  <path d="M 200,300 L 8.2,150.0 A 150,150 0 0 1 11.2,149.9 Z" fill="green" stroke="black" stroke-width="1"/>
  <rect x="370" y="55" width="20" height="30" fill="green" stroke="black" stroke-width="1"/>
  <text x="400" y="188" font-family="sans-serif" font-size="16">FreeBSD (amd64) (268)</text>
  <path d="M 200,300 L 11.2,149.9 A 150,150 0 0 1 12.5,149.9 Z" fill="gold" stroke="black" stroke-width="1"/>
  <rect x="370" y="56" width="20" height="30" fill="gold" stroke="black" stroke-width="1"/>
  <text x="400" y="218" font-family="sans-serif" font-size="16">FreeBSD (i386) (121)</text>
  <path d="M 200,300 L 12.5,149.9 A 150,150 0 0 1 14.4,149.9 Z" fill="brown" stroke="black" stroke-width="1"/>
  <rect x="370" y="57" width="20" height="30" fill="brown" stroke="black" stroke-width="1"/>
  <text x="400" y="248" font-family="sans-serif" font-size="16">HP-UX (IA64N) (172)</text>
  <path d="M 200,300 L 14.4,149.9 A 150,150 0 0 1 14.8,149.9 Z" fill="Azure" stroke="black" stroke-width="1"/>
  <rect x="370" y="58" width="20" height="30" fill="Azure" stroke="black" stroke-width="1"/>
  <text x="400" y="278" font-family="sans-serif" font-size="16">HP-UX (IA64W) (31)</text>
  <path d="M 200,300 L 14.8,149.9 A 150,150 0 0 1 15.5,149.9 Z" fill="pink" stroke="black" stroke-width="1"/>
  <rect x="370" y="59" width="20" height="30" fill="pink" stroke="black" stroke-width="1"/>
  <text x="400" y="308" font-family="sans-serif" font-size="16">HP-UX (PA_RISC2.0) (66)</text>
  <path d="M 200,300 L 15.5,149.9 A 150,150 0 0 1 245.3,-107.0 Z" fill="khaki" stroke="black" stroke-width="1"/>
  <rect x="370" y="60" width="20" height="30" fill="khaki" stroke="black" stroke-width="1"/>
  <text x="400" y="338" font-family="sans-serif" font-size="16">Linux (amd64) (72768)</text>
  <path d="M 200,300 L 245.3,-107.0 A 150,150 0 0 1 244.4,-107.4 Z" fill="gray" stroke="black" stroke-width="1"/>
  <rect x="370" y="61" width="20" height="30" fill="gray" stroke="black" stroke-width="1"/>
  <text x="400" y="368" font-family="sans-serif" font-size="16">Linux (arm) (105)</text>
  <path d="M 200,300 L 244.4,-107.4 A 150,150 0 0 1 95.2,-144.3 Z" fill="Aqua" stroke="black" stroke-width="1"/>
  <rect x="370" y="62" width="20" height="30" fill="Aqua" stroke="black" stroke-width="1"/>
  <text x="400" y="398" font-family="sans-serif" font-size="16">Linux (i386) (15600)</text>
  <path d="M 200,300 L 95.2,-144.3 A 150,150 0 0 1 95.0,-144.4 Z" fill="Aquamarine" stroke="black" stroke-width="1"/>
  <rect x="370" y="63" width="20" height="30" fill="Aquamarine" stroke="black" stroke-width="1"/>
  <text x="400" y="428" font-family="sans-serif" font-size="16">Linux (ia64) (21)</text>
  <path d="M 200,300 L 95.0,-144.4 A 150,150 0 0 1 94.7,-144.4 Z" fill="beige" stroke="black" stroke-width="1"/>
  <rect x="370" y="64" width="20" height="30" fill="beige" stroke="black" stroke-width="1"/>
  <text x="400" y="458" font-family="sans-serif" font-size="16">Linux (ppc) (33)</text>
  <path d="M 200,300 L 94.7,-144.4 A 150,150 0 0 1 94.1,-144.5 Z" fill="blueviolet" stroke="black" stroke-width="1"/>
  <rect x="370" y="65" width="20" height="30" fill="blueviolet" stroke="black" stroke-width="1"/>
  <text x="400" y="488" font-family="sans-serif" font-size="16">Linux (ppc64) (51)</text>
  <path d="M 200,300 L 94.1,-144.5 A 150,150 0 0 1 94.0,-144.5 Z" fill="Bisque" stroke="black" stroke-width="1"/>
  <rect x="370" y="66" width="20" height="30" fill="Bisque" stroke="black" stroke-width="1"/>
  <text x="400" y="518" font-family="sans-serif" font-size="16">Linux (s390) (7)</text>
  <path d="M 200,300 L 94.0,-144.5 A 150,150 0 0 1 93.5,-144.5 Z" fill="coral" stroke="black" stroke-width="1"/>
  <rect x="370" y="67" width="20" height="30" fill="coral" stroke="black" stroke-width="1"/>
  <text x="400" y="548" font-family="sans-serif" font-size="16">Linux (s390x) (49)</text>
  <path d="M 200,300 L 93.5,-144.5 A 150,150 0 0 1 93.5,-144.5 Z" fill="darkblue" stroke="black" stroke-width="1"/>
  <rect x="370" y="68" width="20" height="30" fill="darkblue" stroke="black" stroke-width="1"/>
  <text x="400" y="578" font-family="sans-serif" font-size="16">Linux (sparc) (1)</text>
  <path d="M 200,300 L 93.5,-144.5 A 150,150 0 0 1 93.5,-144.5 Z" fill="crimson" stroke="black" stroke-width="1"/>
  <rect x="370" y="69" width="20" height="30" fill="crimson" stroke="black" stroke-width="1"/>
  <text x="400" y="608" font-family="sans-serif" font-size="16">Linux (tile) (1)</text>
  <path d="M 200,300 L 93.5,-144.5 A 150,150 0 0 1 91.8,-144.7 Z" fill="cyan" stroke="black" stroke-width="1"/>
  <rect x="370" y="70" width="20" height="30" fill="cyan" stroke="black" stroke-width="1"/>
  <text x="400" y="638" font-family="sans-serif" font-size="16">Linux (x86) (157)</text>
  <path d="M 200,300 L 91.8,-144.7 A 150,150 0 0 1 91.8,-144.8 Z" fill="darkred" stroke="black" stroke-width="1"/>
  <rect x="370" y="71" width="20" height="30" fill="darkred" stroke="black" stroke-width="1"/>
  <text x="400" y="668" font-family="sans-serif" font-size="16">Mac OS X (amd64) (5)</text>
  <path d="M 200,300 L 91.8,-144.8 A 150,150 0 0 1 91.0,-144.8 Z" fill="ivory" stroke="black" stroke-width="1"/>
  <rect x="370" y="72" width="20" height="30" fill="ivory" stroke="black" stroke-width="1"/>
  <text x="400" y="698" font-family="sans-serif" font-size="16">Mac OS X (i386) (68)</text>
  <path d="M 200,300 L 91.0,-144.8 A 150,150 0 0 1 91.0,-144.8 Z" fill="lime" stroke="black" stroke-width="1"/>
  <rect x="370" y="73" width="20" height="30" fill="lime" stroke="black" stroke-width="1"/>
  <text x="400" y="728" font-family="sans-serif" font-size="16">Mac OS X (ppc) (5)</text>
  <path d="M 200,300 L 91.0,-144.8 A 150,150 0 0 1 2.6,-150.0 Z" fill="maroon" stroke="black" stroke-width="1"/>
  <rect x="370" y="74" width="20" height="30" fill="maroon" stroke="black" stroke-width="1"/>
  <text x="400" y="758" font-family="sans-serif" font-size="16">Mac OS X (x86_64) (8008)</text>
  <path d="M 200,300 L 2.6,-150.0 A 150,150 0 0 1 -348.3,-14.6 Z" fill="navy" stroke="black" stroke-width="1"/>
  <rect x="370" y="75" width="20" height="30" fill="navy" stroke="black" stroke-width="1"/>
  <text x="400" y="788" font-family="sans-serif" font-size="16">N/A (46442)</text>
  <path d="M 200,300 L -348.3,-14.6 A 150,150 0 0 1 -348.4,-14.5 Z" fill="olive" stroke="black" stroke-width="1"/>
  <rect x="370" y="76" width="20" height="30" fill="olive" stroke="black" stroke-width="1"/>
  <text x="400" y="818" font-family="sans-serif" font-size="16">NONSTOP_KERNEL (IA64N) (2)</text>
  <path d="M 200,300 L -348.4,-14.5 A 150,150 0 0 1 -348.4,-14.5 Z" fill="plum" stroke="black" stroke-width="1"/>
  <rect x="370" y="77" width="20" height="30" fill="plum" stroke="black" stroke-width="1"/>
  <text x="400" y="848" font-family="sans-serif" font-size="16">NetBSD (amd64) (3)</text>
  <path d="M 200,300 L -348.4,-14.5 A 150,150 0 0 1 -348.4,-14.5 Z" fill="peru" stroke="black" stroke-width="1"/>
  <rect x="370" y="78" width="20" height="30" fill="peru" stroke="black" stroke-width="1"/>
  <text x="400" y="878" font-family="sans-serif" font-size="16">NetBSD (i386) (4)</text>
  <path d="M 200,300 L -348.4,-14.5 A 150,150 0 0 1 -348.4,-14.5 Z" fill="silver" stroke="black" stroke-width="1"/>
  <rect x="370" y="79" width="20" height="30" fill="silver" stroke="black" stroke-width="1"/>
  <text x="400" y="908" font-family="sans-serif" font-size="16">OS/400 (PowerPC) (2)</text>
  <path d="M 200,300 L -348.4,-14.5 A 150,150 0 0 1 -348.4,-14.4 Z" fill="tan" stroke="black" stroke-width="1"/>
  <rect x="370" y="80" width="20" height="30" fill="tan" stroke="black" stroke-width="1"/>
  <text x="400" y="938" font-family="sans-serif" font-size="16">OpenBSD (amd64) (13)</text>
  <path d="M 200,300 L -348.4,-14.4 A 150,150 0 0 1 -348.4,-14.4 Z" fill="teal" stroke="black" stroke-width="1"/>
  <rect x="370" y="81" width="20" height="30" fill="teal" stroke="black" stroke-width="1"/>
  <text x="400" y="968" font-family="sans-serif" font-size="16">OpenBSD (i386) (4)</text>
  <path d="M 200,300 L -348.4,-14.4 A 150,150 0 0 1 -348.4,-14.2 Z" fill="violet" stroke="black" stroke-width="1"/>
  <rect x="370" y="82" width="20" height="30" fill="violet" stroke="black" stroke-width="1"/>
  <text x="400" y="998" font-family="sans-serif" font-size="16">SunOS (amd64) (49)</text>
  <path d="M 200,300 L -348.4,-14.2 A 150,150 0 0 1 -349.6,-6.9 Z" fill="AliceBlue" stroke="black" stroke-width="1"/>
  <rect x="370" y="83" width="20" height="30" fill="AliceBlue" stroke="black" stroke-width="1"/>
  <text x="400" y="1028" font-family="sans-serif" font-size="16">SunOS (sparc) (1523)</text>
  <path d="M 200,300 L -349.6,-6.9 A 150,150 0 0 1 -349.7,-6.4 Z" fill="DarkOliveGreen" stroke="black" stroke-width="1"/>
  <rect x="370" y="84" width="20" height="30" fill="DarkOliveGreen" stroke="black" stroke-width="1"/>
  <text x="400" y="1058" font-family="sans-serif" font-size="16">SunOS (sparcv9) (117)</text>
  <path d="M 200,300 L -349.7,-6.4 A 150,150 0 0 1 -350.0,-1.6 Z" fill="Indigo" stroke="black" stroke-width="1"/>
  <rect x="370" y="85" width="20" height="30" fill="Indigo" stroke="black" stroke-width="1"/>
  <text x="400" y="1088" font-family="sans-serif" font-size="16">SunOS (x86) (993)</text>
  <path d="M 200,300 L -350.0,-1.6 A 150,150 0 0 1 -350.0,-1.6 Z" fill="MediumPurple" stroke="black" stroke-width="1"/>
  <rect x="370" y="86" width="20" height="30" fill="MediumPurple" stroke="black" stroke-width="1"/>
  <text x="400" y="1118" font-family="sans-serif" font-size="16">UnixWare (IA32) (1)</text>
  <path d="M 200,300 L -350.0,-1.6 A 150,150 0 0 1 -350.0,-1.4 Z" fill="Purple" stroke="black" stroke-width="1"/>
  <rect x="370" y="87" width="20" height="30" fill="Purple" stroke="black" stroke-width="1"/>
  <text x="400" y="1148" font-family="sans-serif" font-size="16">Windows 2000 (x86) (35)</text>
  <path d="M 200,300 L -350.0,-1.4 A 150,150 0 0 1 -350.0,1.9 Z" fill="AntiqueWhite" stroke="black" stroke-width="1"/>
  <rect x="370" y="88" width="20" height="30" fill="AntiqueWhite" stroke="black" stroke-width="1"/>
  <text x="400" y="1178" font-family="sans-serif" font-size="16">Windows 2003 (amd64) (696)</text>
  <path d="M 200,300 L -350.0,1.9 A 150,150 0 0 1 -346.0,22.7 Z" fill="DarkOrange" stroke="black" stroke-width="1"/>
  <rect x="370" y="89" width="20" height="30" fill="DarkOrange" stroke="black" stroke-width="1"/>
  <text x="400" y="1208" font-family="sans-serif" font-size="16">Windows 2003 (x86) (4366)</text>
  <path d="M 200,300 L -346.0,22.7 A 150,150 0 0 1 -326.6,53.9 Z" fill="Ivory" stroke="black" stroke-width="1"/>
  <rect x="370" y="90" width="20" height="30" fill="Ivory" stroke="black" stroke-width="1"/>
  <text x="400" y="1238" font-family="sans-serif" font-size="16">Windows 7 (amd64) (6764)</text>
  <path d="M 200,300 L -326.6,53.9 A 150,150 0 0 1 -255.5,102.5 Z" fill="MediumSeaGreen" stroke="black" stroke-width="1"/>
  <rect x="370" y="91" width="20" height="30" fill="MediumSeaGreen" stroke="black" stroke-width="1"/>
  <text x="400" y="1268" font-family="sans-serif" font-size="16">Windows 7 (x86) (12067)</text>
  <path d="M 200,300 L -255.5,102.5 A 150,150 0 0 1 -250.8,104.6 Z" fill="Red" stroke="black" stroke-width="1"/>
  <rect x="370" y="92" width="20" height="30" fill="Red" stroke="black" stroke-width="1"/>
  <text x="400" y="1298" font-family="sans-serif" font-size="16">Windows 8 (amd64) (606)</text>
  <path d="M 200,300 L -250.8,104.6 A 150,150 0 0 1 -244.7,107.2 Z" fill="Aqua" stroke="black" stroke-width="1"/>
  <rect x="370" y="93" width="20" height="30" fill="Aqua" stroke="black" stroke-width="1"/>
  <text x="400" y="1328" font-family="sans-serif" font-size="16">Windows 8 (x86) (778)</text>
  <path d="M 200,300 L -244.7,107.2 A 150,150 0 0 1 -243.2,107.9 Z" fill="DarkOrchid" stroke="black" stroke-width="1"/>
  <rect x="370" y="94" width="20" height="30" fill="DarkOrchid" stroke="black" stroke-width="1"/>
  <text x="400" y="1358" font-family="sans-serif" font-size="16">Windows NT (unknown) (amd64) (195)</text>
  <path d="M 200,300 L -243.2,107.9 A 150,150 0 0 1 -240.9,108.8 Z" fill="Khaki" stroke="black" stroke-width="1"/>
  <rect x="370" y="95" width="20" height="30" fill="Khaki" stroke="black" stroke-width="1"/>
  <text x="400" y="1388" font-family="sans-serif" font-size="16">Windows NT (unknown) (x86) (277)</text>
  <path d="M 200,300 L -240.9,108.8 A 150,150 0 0 1 -240.9,108.8 Z" fill="MediumSlateBlue" stroke="black" stroke-width="1"/>
  <rect x="370" y="96" width="20" height="30" fill="MediumSlateBlue" stroke="black" stroke-width="1"/>
  <text x="400" y="1418" font-family="sans-serif" font-size="16">Windows Server 2003 (amd64) (3)</text>
  <path d="M 200,300 L -240.9,108.8 A 150,150 0 0 1 -240.7,108.9 Z" fill="RosyBrown" stroke="black" stroke-width="1"/>
  <rect x="370" y="97" width="20" height="30" fill="RosyBrown" stroke="black" stroke-width="1"/>
  <text x="400" y="1448" font-family="sans-serif" font-size="16">Windows Server 2003 (x86) (18)</text>
  <path d="M 200,300 L -240.7,108.9 A 150,150 0 0 1 -235.5,111.0 Z" fill="AquaMarine" stroke="black" stroke-width="1"/>
  <rect x="370" y="98" width="20" height="30" fill="AquaMarine" stroke="black" stroke-width="1"/>
  <text x="400" y="1478" font-family="sans-serif" font-size="16">Windows Server 2008 (amd64) (641)</text>
  <path d="M 200,300 L -235.5,111.0 A 150,150 0 0 1 -222.1,115.9 Z" fill="DarkRed" stroke="black" stroke-width="1"/>
  <rect x="370" y="99" width="20" height="30" fill="DarkRed" stroke="black" stroke-width="1"/>
  <text x="400" y="1508" font-family="sans-serif" font-size="16">Windows Server 2008 (x86) (1588)</text>
  <path d="M 200,300 L -222.1,115.9 A 150,150 0 0 1 -155.4,134.4 Z" fill="Lavender" stroke="black" stroke-width="1"/>
  <rect x="370" y="100" width="20" height="30" fill="Lavender" stroke="black" stroke-width="1"/>
  <text x="400" y="1538" font-family="sans-serif" font-size="16">Windows Server 2008 R2 (amd64) (7129)</text>
  <path d="M 200,300 L -155.4,134.4 A 150,150 0 0 1 -81.2,145.9 Z" fill="MediumSpringGreen" stroke="black" stroke-width="1"/>
  <rect x="370" y="101" width="20" height="30" fill="MediumSpringGreen" stroke="black" stroke-width="1"/>
  <text x="400" y="1568" font-family="sans-serif" font-size="16">Windows Server 2008 R2 (x86) (7083)</text>
  <path d="M 200,300 L -81.2,145.9 A 150,150 0 0 1 -75.2,146.5 Z" fill="RoyalBlue" stroke="black" stroke-width="1"/>
  <rect x="370" y="102" width="20" height="30" fill="RoyalBlue" stroke="black" stroke-width="1"/>
  <text x="400" y="1598" font-family="sans-serif" font-size="16">Windows Server 2012 (amd64) (551)</text>
  <path d="M 200,300 L -75.2,146.5 A 150,150 0 0 1 -65.1,147.4 Z" fill="Azure" stroke="black" stroke-width="1"/>
  <rect x="370" y="103" width="20" height="30" fill="Azure" stroke="black" stroke-width="1"/>
  <text x="400" y="1628" font-family="sans-serif" font-size="16">Windows Server 2012 (x86) (927)</text>
  <path d="M 200,300 L -65.1,147.4 A 150,150 0 0 1 -63.8,147.5 Z" fill="DarkSalmon" stroke="black" stroke-width="1"/>
  <rect x="370" y="104" width="20" height="30" fill="DarkSalmon" stroke="black" stroke-width="1"/>
  <text x="400" y="1658" font-family="sans-serif" font-size="16">Windows Vista (amd64) (117)</text>
  <path d="M 200,300 L -63.8,147.5 A 150,150 0 0 1 -58.1,147.9 Z" fill="LavenderBlush" stroke="black" stroke-width="1"/>
  <rect x="370" y="105" width="20" height="30" fill="LavenderBlush" stroke="black" stroke-width="1"/>
  <text x="400" y="1688" font-family="sans-serif" font-size="16">Windows Vista (x86) (521)</text>
  <path d="M 200,300 L -58.1,147.9 A 150,150 0 0 1 -56.7,148.0 Z" fill="MediumTurquoise" stroke="black" stroke-width="1"/>
  <rect x="370" y="106" width="20" height="30" fill="MediumTurquoise" stroke="black" stroke-width="1"/>
  <text x="400" y="1718" font-family="sans-serif" font-size="16">Windows XP (amd64) (125)</text>
  <path d="M 200,300 L -56.7,148.0 A 150,150 0 0 1 -0.1,150.0 Z" fill="SaddleBrown" stroke="black" stroke-width="1"/>
  <rect x="370" y="107" width="20" height="30" fill="SaddleBrown" stroke="black" stroke-width="1"/>
  <text x="400" y="1748" font-family="sans-serif" font-size="16">Windows XP (x86) (5096)</text>
  <path d="M 200,300 L -0.1,150.0 A 150,150 0 0 1 0.0,150.0 Z" fill="Beige" stroke="black" stroke-width="1"/>
  <rect x="370" y="108" width="20" height="30" fill="Beige" stroke="black" stroke-width="1"/>
  <text x="400" y="1778" font-family="sans-serif" font-size="16">z/OS (s390) (6)</text>
</svg>
