<svg xmlns="http://www.w3.org/2000/svg" version="1.1" preserveAspectRatio="xMidYMid meet" viewBox="0 0 230 2606.9">
  <rect fill="blue" height="0.0" stroke="black" width="12" x="15" y="2306.9"/>
  <text x="15" y="2311.9" font-family="Tahoma" font-size="12" transform="rotate(90 15,2311.9)" text-rendering="optimizeSpeed" fill="#000000">hudson-plugins-jprt-NewFreeStyleProject (1)</text>
  <rect fill="blue" height="0.0" stroke="black" width="12" x="30" y="2306.9"/>
  <text x="30" y="2311.9" font-family="Tahoma" font-size="12" transform="rotate(90 30,2311.9)" text-rendering="optimizeSpeed" fill="#000000">hudson-maven-MavenModuleSetExt (11)</text>
  <rect fill="blue" height="0.0" stroke="black" width="12" x="45" y="2306.9"/>
  <text x="45" y="2311.9" font-family="Tahoma" font-size="12" transform="rotate(90 45,2311.9)" text-rendering="optimizeSpeed" fill="#000000">hudson-aarworkflow-AARWorkflowProject (38)</text>
  <rect fill="blue" height="0.0" stroke="black" width="12" x="60" y="2306.9"/>
  <text x="60" y="2311.9" font-family="Tahoma" font-size="12" transform="rotate(90 60,2311.9)" text-rendering="optimizeSpeed" fill="#000000">hudson-maven-CIModuleSetExt (39)</text>
  <rect fill="blue" height="0.1" stroke="black" width="12" x="75" y="2306.8"/>
  <text x="75" y="2311.9" font-family="Tahoma" font-size="12" transform="rotate(90 75,2311.9)" text-rendering="optimizeSpeed" fill="#000000">hudson-mm-MMModuleSet (98)</text>
  <rect fill="blue" height="0.1" stroke="black" width="12" x="90" y="2306.8"/>
  <text x="90" y="2311.9" font-family="Tahoma" font-size="12" transform="rotate(90 90,2311.9)" text-rendering="optimizeSpeed" fill="#000000">hudson-workflow-WorkflowProject (143)</text>
  <rect fill="blue" height="1.7" stroke="black" width="12" x="105" y="2305.2"/>
  <text x="105" y="2311.9" font-family="Tahoma" font-size="12" transform="rotate(90 105,2311.9)" text-rendering="optimizeSpeed" fill="#000000">hudson-plugins-project_inheritance-projects-InheritanceProject (1710)</text>
  <rect fill="blue" height="5.7" stroke="black" width="12" x="120" y="2301.2"/>
  <text x="120" y="2311.9" font-family="Tahoma" font-size="12" transform="rotate(90 120,2311.9)" text-rendering="optimizeSpeed" fill="#000000">hudson-model-ExternalJob (5694)</text>
  <rect fill="blue" height="6.0" stroke="black" width="12" x="135" y="2300.9"/>
  <text x="135" y="2311.9" font-family="Tahoma" font-size="12" transform="rotate(90 135,2311.9)" text-rendering="optimizeSpeed" fill="#000000">hudson-ivy-IvyModuleSet (6017)</text>
  <rect fill="blue" height="76.8" stroke="black" width="12" x="150" y="2230.1"/>
  <text x="150" y="2311.9" font-family="Tahoma" font-size="12" transform="rotate(90 150,2311.9)" text-rendering="optimizeSpeed" fill="#000000">hudson-matrix-MatrixProject (76850)</text>
  <rect fill="blue" height="469.5" stroke="black" width="12" x="165" y="1837.4"/>
  <text x="165" y="2311.9" font-family="Tahoma" font-size="12" transform="rotate(90 165,2311.9)" text-rendering="optimizeSpeed" fill="#000000">hudson-maven-MavenModuleSet (469483)</text>
  <rect fill="blue" height="2256.9" stroke="black" width="12" x="180" y="50.0"/>
  <text x="180" y="2311.9" font-family="Tahoma" font-size="12" transform="rotate(90 180,2311.9)" text-rendering="optimizeSpeed" fill="#000000">hudson-model-FreeStyleProject (2256910)</text>
  <text x="10" y="40" font-family="Tahoma" font-size="20" text-rendering="optimizeSpeed" fill="#000000">Jobs (total: 2816994)</text>
</svg>
