<svg xmlns="http://www.w3.org/2000/svg" version="1.1" preserveAspectRatio="xMidYMid meet" viewBox="0 0 2525 840.4">
  <rect fill="blue" height="2.0" stroke="black" width="12" x="15" y="538.4"/>
  <text x="15" y="545.4" font-family="Tahoma" font-size="12" transform="rotate(90 15,545.4)" text-rendering="optimizeSpeed" fill="#000000">1.368 (20)</text>
  <rect fill="blue" height="3.1" stroke="black" width="12" x="30" y="537.3"/>
  <text x="30" y="545.4" font-family="Tahoma" font-size="12" transform="rotate(90 30,545.4)" text-rendering="optimizeSpeed" fill="#000000">1.369 (31)</text>
  <rect fill="blue" height="0.9" stroke="black" width="12" x="45" y="539.5"/>
  <text x="45" y="545.4" font-family="Tahoma" font-size="12" transform="rotate(90 45,545.4)" text-rendering="optimizeSpeed" fill="#000000">1.370 (9)</text>
  <rect fill="blue" height="1.7" stroke="black" width="12" x="60" y="538.7"/>
  <text x="60" y="545.4" font-family="Tahoma" font-size="12" transform="rotate(90 60,545.4)" text-rendering="optimizeSpeed" fill="#000000">1.371 (17)</text>
  <rect fill="blue" height="3.2" stroke="black" width="12" x="75" y="537.2"/>
  <text x="75" y="545.4" font-family="Tahoma" font-size="12" transform="rotate(90 75,545.4)" text-rendering="optimizeSpeed" fill="#000000">1.372 (32)</text>
  <rect fill="blue" height="2.0" stroke="black" width="12" x="90" y="538.4"/>
  <text x="90" y="545.4" font-family="Tahoma" font-size="12" transform="rotate(90 90,545.4)" text-rendering="optimizeSpeed" fill="#000000">1.373 (20)</text>
  <rect fill="blue" height="4.8" stroke="black" width="12" x="105" y="535.6"/>
  <text x="105" y="545.4" font-family="Tahoma" font-size="12" transform="rotate(90 105,545.4)" text-rendering="optimizeSpeed" fill="#000000">1.374 (48)</text>
  <rect fill="blue" height="2.4" stroke="black" width="12" x="120" y="538.0"/>
  <text x="120" y="545.4" font-family="Tahoma" font-size="12" transform="rotate(90 120,545.4)" text-rendering="optimizeSpeed" fill="#000000">1.375 (24)</text>
  <rect fill="blue" height="4.2" stroke="black" width="12" x="135" y="536.2"/>
  <text x="135" y="545.4" font-family="Tahoma" font-size="12" transform="rotate(90 135,545.4)" text-rendering="optimizeSpeed" fill="#000000">1.376 (42)</text>
  <rect fill="blue" height="4.5" stroke="black" width="12" x="150" y="535.9"/>
  <text x="150" y="545.4" font-family="Tahoma" font-size="12" transform="rotate(90 150,545.4)" text-rendering="optimizeSpeed" fill="#000000">1.377 (45)</text>
  <rect fill="blue" height="2.9" stroke="black" width="12" x="165" y="537.5"/>
  <text x="165" y="545.4" font-family="Tahoma" font-size="12" transform="rotate(90 165,545.4)" text-rendering="optimizeSpeed" fill="#000000">1.378 (29)</text>
  <rect fill="blue" height="6.9" stroke="black" width="12" x="180" y="533.5"/>
  <text x="180" y="545.4" font-family="Tahoma" font-size="12" transform="rotate(90 180,545.4)" text-rendering="optimizeSpeed" fill="#000000">1.379 (69)</text>
  <rect fill="blue" height="2.1" stroke="black" width="12" x="195" y="538.3"/>
  <text x="195" y="545.4" font-family="Tahoma" font-size="12" transform="rotate(90 195,545.4)" text-rendering="optimizeSpeed" fill="#000000">1.380 (21)</text>
  <rect fill="blue" height="8.3" stroke="black" width="12" x="210" y="532.1"/>
  <text x="210" y="545.4" font-family="Tahoma" font-size="12" transform="rotate(90 210,545.4)" text-rendering="optimizeSpeed" fill="#000000">1.381 (83)</text>
  <rect fill="blue" height="1.5" stroke="black" width="12" x="225" y="538.9"/>
  <text x="225" y="545.4" font-family="Tahoma" font-size="12" transform="rotate(90 225,545.4)" text-rendering="optimizeSpeed" fill="#000000">1.382 (15)</text>
  <rect fill="blue" height="4.6" stroke="black" width="12" x="240" y="535.8"/>
  <text x="240" y="545.4" font-family="Tahoma" font-size="12" transform="rotate(90 240,545.4)" text-rendering="optimizeSpeed" fill="#000000">1.383 (46)</text>
  <rect fill="blue" height="8.9" stroke="black" width="12" x="255" y="531.5"/>
  <text x="255" y="545.4" font-family="Tahoma" font-size="12" transform="rotate(90 255,545.4)" text-rendering="optimizeSpeed" fill="#000000">1.384 (89)</text>
  <rect fill="blue" height="3.3" stroke="black" width="12" x="270" y="537.1"/>
  <text x="270" y="545.4" font-family="Tahoma" font-size="12" transform="rotate(90 270,545.4)" text-rendering="optimizeSpeed" fill="#000000">1.385 (33)</text>
  <rect fill="blue" height="18.3" stroke="black" width="12" x="285" y="522.1"/>
  <text x="285" y="545.4" font-family="Tahoma" font-size="12" transform="rotate(90 285,545.4)" text-rendering="optimizeSpeed" fill="#000000">1.386 (183)</text>
  <rect fill="blue" height="3.1" stroke="black" width="12" x="300" y="537.3"/>
  <text x="300" y="545.4" font-family="Tahoma" font-size="12" transform="rotate(90 300,545.4)" text-rendering="optimizeSpeed" fill="#000000">1.387 (31)</text>
  <rect fill="blue" height="3.0" stroke="black" width="12" x="315" y="537.4"/>
  <text x="315" y="545.4" font-family="Tahoma" font-size="12" transform="rotate(90 315,545.4)" text-rendering="optimizeSpeed" fill="#000000">1.388 (30)</text>
  <rect fill="blue" height="6.2" stroke="black" width="12" x="330" y="534.2"/>
  <text x="330" y="545.4" font-family="Tahoma" font-size="12" transform="rotate(90 330,545.4)" text-rendering="optimizeSpeed" fill="#000000">1.389 (62)</text>
  <rect fill="blue" height="0.5" stroke="black" width="12" x="345" y="539.9"/>
  <text x="345" y="545.4" font-family="Tahoma" font-size="12" transform="rotate(90 345,545.4)" text-rendering="optimizeSpeed" fill="#000000">1.390 (5)</text>
  <rect fill="blue" height="1.0" stroke="black" width="12" x="360" y="539.4"/>
  <text x="360" y="545.4" font-family="Tahoma" font-size="12" transform="rotate(90 360,545.4)" text-rendering="optimizeSpeed" fill="#000000">1.391 (10)</text>
  <rect fill="blue" height="6.2" stroke="black" width="12" x="375" y="534.2"/>
  <text x="375" y="545.4" font-family="Tahoma" font-size="12" transform="rotate(90 375,545.4)" text-rendering="optimizeSpeed" fill="#000000">1.392 (62)</text>
  <rect fill="blue" height="0.3" stroke="black" width="12" x="390" y="540.1"/>
  <text x="390" y="545.4" font-family="Tahoma" font-size="12" transform="rotate(90 390,545.4)" text-rendering="optimizeSpeed" fill="#000000">1.392.LI22 (3)</text>
  <rect fill="blue" height="0.1" stroke="black" width="12" x="405" y="540.3"/>
  <text x="405" y="545.4" font-family="Tahoma" font-size="12" transform="rotate(90 405,545.4)" text-rendering="optimizeSpeed" fill="#000000">1.392.LI23 (1)</text>
  <rect fill="blue" height="13.1" stroke="black" width="12" x="420" y="527.3"/>
  <text x="420" y="545.4" font-family="Tahoma" font-size="12" transform="rotate(90 420,545.4)" text-rendering="optimizeSpeed" fill="#000000">1.393 (131)</text>
  <rect fill="blue" height="15.1" stroke="black" width="12" x="435" y="525.3"/>
  <text x="435" y="545.4" font-family="Tahoma" font-size="12" transform="rotate(90 435,545.4)" text-rendering="optimizeSpeed" fill="#000000">1.394 (151)</text>
  <rect fill="blue" height="30.1" stroke="black" width="12" x="450" y="510.3"/>
  <text x="450" y="545.4" font-family="Tahoma" font-size="12" transform="rotate(90 450,545.4)" text-rendering="optimizeSpeed" fill="#000000">1.395 (301)</text>
  <rect fill="blue" height="31.8" stroke="black" width="12" x="465" y="508.6"/>
  <text x="465" y="545.4" font-family="Tahoma" font-size="12" transform="rotate(90 465,545.4)" text-rendering="optimizeSpeed" fill="#000000">1.395.1 (318)</text>
  <rect fill="blue" height="1.8" stroke="black" width="12" x="480" y="538.6"/>
  <text x="480" y="545.4" font-family="Tahoma" font-size="12" transform="rotate(90 480,545.4)" text-rendering="optimizeSpeed" fill="#000000">1.396 (18)</text>
  <rect fill="blue" height="1.4" stroke="black" width="12" x="495" y="539.0"/>
  <text x="495" y="545.4" font-family="Tahoma" font-size="12" transform="rotate(90 495,545.4)" text-rendering="optimizeSpeed" fill="#000000">1.397 (14)</text>
  <rect fill="blue" height="2.0" stroke="black" width="12" x="510" y="538.4"/>
  <text x="510" y="545.4" font-family="Tahoma" font-size="12" transform="rotate(90 510,545.4)" text-rendering="optimizeSpeed" fill="#000000">1.398 (20)</text>
  <rect fill="blue" height="2.9" stroke="black" width="12" x="525" y="537.5"/>
  <text x="525" y="545.4" font-family="Tahoma" font-size="12" transform="rotate(90 525,545.4)" text-rendering="optimizeSpeed" fill="#000000">1.399 (29)</text>
  <rect fill="blue" height="2.1" stroke="black" width="12" x="540" y="538.3"/>
  <text x="540" y="545.4" font-family="Tahoma" font-size="12" transform="rotate(90 540,545.4)" text-rendering="optimizeSpeed" fill="#000000">1.400 (21)</text>
  <rect fill="blue" height="5.2" stroke="black" width="12" x="555" y="535.2"/>
  <text x="555" y="545.4" font-family="Tahoma" font-size="12" transform="rotate(90 555,545.4)" text-rendering="optimizeSpeed" fill="#000000">1.401 (52)</text>
  <rect fill="blue" height="3.5" stroke="black" width="12" x="570" y="536.9"/>
  <text x="570" y="545.4" font-family="Tahoma" font-size="12" transform="rotate(90 570,545.4)" text-rendering="optimizeSpeed" fill="#000000">1.403 (35)</text>
  <rect fill="blue" height="3.8" stroke="black" width="12" x="585" y="536.6"/>
  <text x="585" y="545.4" font-family="Tahoma" font-size="12" transform="rotate(90 585,545.4)" text-rendering="optimizeSpeed" fill="#000000">1.404 (38)</text>
  <rect fill="blue" height="3.2" stroke="black" width="12" x="600" y="537.2"/>
  <text x="600" y="545.4" font-family="Tahoma" font-size="12" transform="rotate(90 600,545.4)" text-rendering="optimizeSpeed" fill="#000000">1.405 (32)</text>
  <rect fill="blue" height="3.1" stroke="black" width="12" x="615" y="537.3"/>
  <text x="615" y="545.4" font-family="Tahoma" font-size="12" transform="rotate(90 615,545.4)" text-rendering="optimizeSpeed" fill="#000000">1.406 (31)</text>
  <rect fill="blue" height="0.8" stroke="black" width="12" x="630" y="539.6"/>
  <text x="630" y="545.4" font-family="Tahoma" font-size="12" transform="rotate(90 630,545.4)" text-rendering="optimizeSpeed" fill="#000000">1.407 (8)</text>
  <rect fill="blue" height="3.0" stroke="black" width="12" x="645" y="537.4"/>
  <text x="645" y="545.4" font-family="Tahoma" font-size="12" transform="rotate(90 645,545.4)" text-rendering="optimizeSpeed" fill="#000000">1.408 (30)</text>
  <rect fill="blue" height="3.1" stroke="black" width="12" x="660" y="537.3"/>
  <text x="660" y="545.4" font-family="Tahoma" font-size="12" transform="rotate(90 660,545.4)" text-rendering="optimizeSpeed" fill="#000000">1.409 (31)</text>
  <rect fill="blue" height="11.9" stroke="black" width="12" x="675" y="528.5"/>
  <text x="675" y="545.4" font-family="Tahoma" font-size="12" transform="rotate(90 675,545.4)" text-rendering="optimizeSpeed" fill="#000000">1.409.1 (119)</text>
  <rect fill="blue" height="4.3" stroke="black" width="12" x="690" y="536.1"/>
  <text x="690" y="545.4" font-family="Tahoma" font-size="12" transform="rotate(90 690,545.4)" text-rendering="optimizeSpeed" fill="#000000">1.409.2 (43)</text>
  <rect fill="blue" height="2.3" stroke="black" width="12" x="705" y="538.1"/>
  <text x="705" y="545.4" font-family="Tahoma" font-size="12" transform="rotate(90 705,545.4)" text-rendering="optimizeSpeed" fill="#000000">1.409.3 (23)</text>
  <rect fill="blue" height="8.2" stroke="black" width="12" x="720" y="532.2"/>
  <text x="720" y="545.4" font-family="Tahoma" font-size="12" transform="rotate(90 720,545.4)" text-rendering="optimizeSpeed" fill="#000000">1.410 (82)</text>
  <rect fill="blue" height="4.1" stroke="black" width="12" x="735" y="536.3"/>
  <text x="735" y="545.4" font-family="Tahoma" font-size="12" transform="rotate(90 735,545.4)" text-rendering="optimizeSpeed" fill="#000000">1.411 (41)</text>
  <rect fill="blue" height="2.8" stroke="black" width="12" x="750" y="537.6"/>
  <text x="750" y="545.4" font-family="Tahoma" font-size="12" transform="rotate(90 750,545.4)" text-rendering="optimizeSpeed" fill="#000000">1.412 (28)</text>
  <rect fill="blue" height="8.9" stroke="black" width="12" x="765" y="531.5"/>
  <text x="765" y="545.4" font-family="Tahoma" font-size="12" transform="rotate(90 765,545.4)" text-rendering="optimizeSpeed" fill="#000000">1.413 (89)</text>
  <rect fill="blue" height="6.6" stroke="black" width="12" x="780" y="533.8"/>
  <text x="780" y="545.4" font-family="Tahoma" font-size="12" transform="rotate(90 780,545.4)" text-rendering="optimizeSpeed" fill="#000000">1.414 (66)</text>
  <rect fill="blue" height="3.9" stroke="black" width="12" x="795" y="536.5"/>
  <text x="795" y="545.4" font-family="Tahoma" font-size="12" transform="rotate(90 795,545.4)" text-rendering="optimizeSpeed" fill="#000000">1.415 (39)</text>
  <rect fill="blue" height="1.3" stroke="black" width="12" x="810" y="539.1"/>
  <text x="810" y="545.4" font-family="Tahoma" font-size="12" transform="rotate(90 810,545.4)" text-rendering="optimizeSpeed" fill="#000000">1.416 (13)</text>
  <rect fill="blue" height="3.6" stroke="black" width="12" x="825" y="536.8"/>
  <text x="825" y="545.4" font-family="Tahoma" font-size="12" transform="rotate(90 825,545.4)" text-rendering="optimizeSpeed" fill="#000000">1.417 (36)</text>
  <rect fill="blue" height="6.1" stroke="black" width="12" x="840" y="534.3"/>
  <text x="840" y="545.4" font-family="Tahoma" font-size="12" transform="rotate(90 840,545.4)" text-rendering="optimizeSpeed" fill="#000000">1.418 (61)</text>
  <rect fill="blue" height="4.5" stroke="black" width="12" x="855" y="535.9"/>
  <text x="855" y="545.4" font-family="Tahoma" font-size="12" transform="rotate(90 855,545.4)" text-rendering="optimizeSpeed" fill="#000000">1.419 (45)</text>
  <rect fill="blue" height="6.4" stroke="black" width="12" x="870" y="534.0"/>
  <text x="870" y="545.4" font-family="Tahoma" font-size="12" transform="rotate(90 870,545.4)" text-rendering="optimizeSpeed" fill="#000000">1.420 (64)</text>
  <rect fill="blue" height="7.2" stroke="black" width="12" x="885" y="533.2"/>
  <text x="885" y="545.4" font-family="Tahoma" font-size="12" transform="rotate(90 885,545.4)" text-rendering="optimizeSpeed" fill="#000000">1.421 (72)</text>
  <rect fill="blue" height="6.0" stroke="black" width="12" x="900" y="534.4"/>
  <text x="900" y="545.4" font-family="Tahoma" font-size="12" transform="rotate(90 900,545.4)" text-rendering="optimizeSpeed" fill="#000000">1.423 (60)</text>
  <rect fill="blue" height="11.9" stroke="black" width="12" x="915" y="528.5"/>
  <text x="915" y="545.4" font-family="Tahoma" font-size="12" transform="rotate(90 915,545.4)" text-rendering="optimizeSpeed" fill="#000000">1.424 (119)</text>
  <rect fill="blue" height="5.9" stroke="black" width="12" x="930" y="534.5"/>
  <text x="930" y="545.4" font-family="Tahoma" font-size="12" transform="rotate(90 930,545.4)" text-rendering="optimizeSpeed" fill="#000000">1.424.1 (59)</text>
  <rect fill="blue" height="7.3" stroke="black" width="12" x="945" y="533.1"/>
  <text x="945" y="545.4" font-family="Tahoma" font-size="12" transform="rotate(90 945,545.4)" text-rendering="optimizeSpeed" fill="#000000">1.424.2 (73)</text>
  <rect fill="blue" height="0.7" stroke="black" width="12" x="960" y="539.7"/>
  <text x="960" y="545.4" font-family="Tahoma" font-size="12" transform="rotate(90 960,545.4)" text-rendering="optimizeSpeed" fill="#000000">1.424.3 (7)</text>
  <rect fill="blue" height="64.6" stroke="black" width="12" x="975" y="475.8"/>
  <text x="975" y="545.4" font-family="Tahoma" font-size="12" transform="rotate(90 975,545.4)" text-rendering="optimizeSpeed" fill="#000000">1.424.6 (646)</text>
  <rect fill="blue" height="0.1" stroke="black" width="12" x="990" y="540.3"/>
  <text x="990" y="545.4" font-family="Tahoma" font-size="12" transform="rotate(90 990,545.4)" text-rendering="optimizeSpeed" fill="#000000">1.424.6.10 (1)</text>
  <rect fill="blue" height="10.3" stroke="black" width="12" x="1005" y="530.1"/>
  <text x="1005" y="545.4" font-family="Tahoma" font-size="12" transform="rotate(90 1005,545.4)" text-rendering="optimizeSpeed" fill="#000000">1.425 (103)</text>
  <rect fill="blue" height="4.2" stroke="black" width="12" x="1020" y="536.2"/>
  <text x="1020" y="545.4" font-family="Tahoma" font-size="12" transform="rotate(90 1020,545.4)" text-rendering="optimizeSpeed" fill="#000000">1.426 (42)</text>
  <rect fill="blue" height="9.5" stroke="black" width="12" x="1035" y="530.9"/>
  <text x="1035" y="545.4" font-family="Tahoma" font-size="12" transform="rotate(90 1035,545.4)" text-rendering="optimizeSpeed" fill="#000000">1.427 (95)</text>
  <rect fill="blue" height="9.1" stroke="black" width="12" x="1050" y="531.3"/>
  <text x="1050" y="545.4" font-family="Tahoma" font-size="12" transform="rotate(90 1050,545.4)" text-rendering="optimizeSpeed" fill="#000000">1.428 (91)</text>
  <rect fill="blue" height="7.0" stroke="black" width="12" x="1065" y="533.4"/>
  <text x="1065" y="545.4" font-family="Tahoma" font-size="12" transform="rotate(90 1065,545.4)" text-rendering="optimizeSpeed" fill="#000000">1.429 (70)</text>
  <rect fill="blue" height="12.9" stroke="black" width="12" x="1080" y="527.5"/>
  <text x="1080" y="545.4" font-family="Tahoma" font-size="12" transform="rotate(90 1080,545.4)" text-rendering="optimizeSpeed" fill="#000000">1.430 (129)</text>
  <rect fill="blue" height="10.9" stroke="black" width="12" x="1095" y="529.5"/>
  <text x="1095" y="545.4" font-family="Tahoma" font-size="12" transform="rotate(90 1095,545.4)" text-rendering="optimizeSpeed" fill="#000000">1.431 (109)</text>
  <rect fill="blue" height="12.9" stroke="black" width="12" x="1110" y="527.5"/>
  <text x="1110" y="545.4" font-family="Tahoma" font-size="12" transform="rotate(90 1110,545.4)" text-rendering="optimizeSpeed" fill="#000000">1.432 (129)</text>
  <rect fill="blue" height="7.5" stroke="black" width="12" x="1125" y="532.9"/>
  <text x="1125" y="545.4" font-family="Tahoma" font-size="12" transform="rotate(90 1125,545.4)" text-rendering="optimizeSpeed" fill="#000000">1.433 (75)</text>
  <rect fill="blue" height="11.6" stroke="black" width="12" x="1140" y="528.8"/>
  <text x="1140" y="545.4" font-family="Tahoma" font-size="12" transform="rotate(90 1140,545.4)" text-rendering="optimizeSpeed" fill="#000000">1.434 (116)</text>
  <rect fill="blue" height="5.7" stroke="black" width="12" x="1155" y="534.7"/>
  <text x="1155" y="545.4" font-family="Tahoma" font-size="12" transform="rotate(90 1155,545.4)" text-rendering="optimizeSpeed" fill="#000000">1.435 (57)</text>
  <rect fill="blue" height="11.1" stroke="black" width="12" x="1170" y="529.3"/>
  <text x="1170" y="545.4" font-family="Tahoma" font-size="12" transform="rotate(90 1170,545.4)" text-rendering="optimizeSpeed" fill="#000000">1.436 (111)</text>
  <rect fill="blue" height="10.4" stroke="black" width="12" x="1185" y="530.0"/>
  <text x="1185" y="545.4" font-family="Tahoma" font-size="12" transform="rotate(90 1185,545.4)" text-rendering="optimizeSpeed" fill="#000000">1.437 (104)</text>
  <rect fill="blue" height="11.3" stroke="black" width="12" x="1200" y="529.1"/>
  <text x="1200" y="545.4" font-family="Tahoma" font-size="12" transform="rotate(90 1200,545.4)" text-rendering="optimizeSpeed" fill="#000000">1.438 (113)</text>
  <rect fill="blue" height="7.1" stroke="black" width="12" x="1215" y="533.3"/>
  <text x="1215" y="545.4" font-family="Tahoma" font-size="12" transform="rotate(90 1215,545.4)" text-rendering="optimizeSpeed" fill="#000000">1.439 (71)</text>
  <rect fill="blue" height="12.7" stroke="black" width="12" x="1230" y="527.7"/>
  <text x="1230" y="545.4" font-family="Tahoma" font-size="12" transform="rotate(90 1230,545.4)" text-rendering="optimizeSpeed" fill="#000000">1.440 (127)</text>
  <rect fill="blue" height="20.8" stroke="black" width="12" x="1245" y="519.6"/>
  <text x="1245" y="545.4" font-family="Tahoma" font-size="12" transform="rotate(90 1245,545.4)" text-rendering="optimizeSpeed" fill="#000000">1.441 (208)</text>
  <rect fill="blue" height="13.8" stroke="black" width="12" x="1260" y="526.6"/>
  <text x="1260" y="545.4" font-family="Tahoma" font-size="12" transform="rotate(90 1260,545.4)" text-rendering="optimizeSpeed" fill="#000000">1.442 (138)</text>
  <rect fill="blue" height="14.2" stroke="black" width="12" x="1275" y="526.2"/>
  <text x="1275" y="545.4" font-family="Tahoma" font-size="12" transform="rotate(90 1275,545.4)" text-rendering="optimizeSpeed" fill="#000000">1.443 (142)</text>
  <rect fill="blue" height="10.2" stroke="black" width="12" x="1290" y="530.2"/>
  <text x="1290" y="545.4" font-family="Tahoma" font-size="12" transform="rotate(90 1290,545.4)" text-rendering="optimizeSpeed" fill="#000000">1.444 (102)</text>
  <rect fill="blue" height="7.6" stroke="black" width="12" x="1305" y="532.8"/>
  <text x="1305" y="545.4" font-family="Tahoma" font-size="12" transform="rotate(90 1305,545.4)" text-rendering="optimizeSpeed" fill="#000000">1.445 (76)</text>
  <rect fill="blue" height="12.2" stroke="black" width="12" x="1320" y="528.2"/>
  <text x="1320" y="545.4" font-family="Tahoma" font-size="12" transform="rotate(90 1320,545.4)" text-rendering="optimizeSpeed" fill="#000000">1.446 (122)</text>
  <rect fill="blue" height="18.6" stroke="black" width="12" x="1335" y="521.8"/>
  <text x="1335" y="545.4" font-family="Tahoma" font-size="12" transform="rotate(90 1335,545.4)" text-rendering="optimizeSpeed" fill="#000000">1.447 (186)</text>
  <rect fill="blue" height="14.8" stroke="black" width="12" x="1350" y="525.6"/>
  <text x="1350" y="545.4" font-family="Tahoma" font-size="12" transform="rotate(90 1350,545.4)" text-rendering="optimizeSpeed" fill="#000000">1.447.1 (148)</text>
  <rect fill="blue" height="0.5" stroke="black" width="12" x="1365" y="539.9"/>
  <text x="1365" y="545.4" font-family="Tahoma" font-size="12" transform="rotate(90 1365,545.4)" text-rendering="optimizeSpeed" fill="#000000">1.447.2-somc-1 (5)</text>
  <rect fill="blue" height="21.1" stroke="black" width="12" x="1380" y="519.3"/>
  <text x="1380" y="545.4" font-family="Tahoma" font-size="12" transform="rotate(90 1380,545.4)" text-rendering="optimizeSpeed" fill="#000000">1.447.2 (211)</text>
  <rect fill="blue" height="0.2" stroke="black" width="12" x="1395" y="540.2"/>
  <text x="1395" y="545.4" font-family="Tahoma" font-size="12" transform="rotate(90 1395,545.4)" text-rendering="optimizeSpeed" fill="#000000">1.447.7 (2)</text>
  <rect fill="blue" height="11.4" stroke="black" width="12" x="1410" y="529.0"/>
  <text x="1410" y="545.4" font-family="Tahoma" font-size="12" transform="rotate(90 1410,545.4)" text-rendering="optimizeSpeed" fill="#000000">1.448 (114)</text>
  <rect fill="blue" height="19.3" stroke="black" width="12" x="1425" y="521.1"/>
  <text x="1425" y="545.4" font-family="Tahoma" font-size="12" transform="rotate(90 1425,545.4)" text-rendering="optimizeSpeed" fill="#000000">1.449 (193)</text>
  <rect fill="blue" height="37.3" stroke="black" width="12" x="1440" y="503.1"/>
  <text x="1440" y="545.4" font-family="Tahoma" font-size="12" transform="rotate(90 1440,545.4)" text-rendering="optimizeSpeed" fill="#000000">1.450 (373)</text>
  <rect fill="blue" height="35.2" stroke="black" width="12" x="1455" y="505.2"/>
  <text x="1455" y="545.4" font-family="Tahoma" font-size="12" transform="rotate(90 1455,545.4)" text-rendering="optimizeSpeed" fill="#000000">1.451 (352)</text>
  <rect fill="blue" height="25.0" stroke="black" width="12" x="1470" y="515.4"/>
  <text x="1470" y="545.4" font-family="Tahoma" font-size="12" transform="rotate(90 1470,545.4)" text-rendering="optimizeSpeed" fill="#000000">1.452 (250)</text>
  <rect fill="blue" height="0.5" stroke="black" width="12" x="1485" y="539.9"/>
  <text x="1485" y="545.4" font-family="Tahoma" font-size="12" transform="rotate(90 1485,545.4)" text-rendering="optimizeSpeed" fill="#000000">1.453 (5)</text>
  <rect fill="blue" height="22.8" stroke="black" width="12" x="1500" y="517.6"/>
  <text x="1500" y="545.4" font-family="Tahoma" font-size="12" transform="rotate(90 1500,545.4)" text-rendering="optimizeSpeed" fill="#000000">1.454 (228)</text>
  <rect fill="blue" height="24.6" stroke="black" width="12" x="1515" y="515.8"/>
  <text x="1515" y="545.4" font-family="Tahoma" font-size="12" transform="rotate(90 1515,545.4)" text-rendering="optimizeSpeed" fill="#000000">1.455 (246)</text>
  <rect fill="blue" height="41.6" stroke="black" width="12" x="1530" y="498.8"/>
  <text x="1530" y="545.4" font-family="Tahoma" font-size="12" transform="rotate(90 1530,545.4)" text-rendering="optimizeSpeed" fill="#000000">1.456 (416)</text>
  <rect fill="blue" height="26.2" stroke="black" width="12" x="1545" y="514.2"/>
  <text x="1545" y="545.4" font-family="Tahoma" font-size="12" transform="rotate(90 1545,545.4)" text-rendering="optimizeSpeed" fill="#000000">1.457 (262)</text>
  <rect fill="blue" height="24.6" stroke="black" width="12" x="1560" y="515.8"/>
  <text x="1560" y="545.4" font-family="Tahoma" font-size="12" transform="rotate(90 1560,545.4)" text-rendering="optimizeSpeed" fill="#000000">1.458 (246)</text>
  <rect fill="blue" height="21.7" stroke="black" width="12" x="1575" y="518.7"/>
  <text x="1575" y="545.4" font-family="Tahoma" font-size="12" transform="rotate(90 1575,545.4)" text-rendering="optimizeSpeed" fill="#000000">1.459 (217)</text>
  <rect fill="blue" height="37.2" stroke="black" width="12" x="1590" y="503.2"/>
  <text x="1590" y="545.4" font-family="Tahoma" font-size="12" transform="rotate(90 1590,545.4)" text-rendering="optimizeSpeed" fill="#000000">1.460 (372)</text>
  <rect fill="blue" height="0.1" stroke="black" width="12" x="1605" y="540.3"/>
  <text x="1605" y="545.4" font-family="Tahoma" font-size="12" transform="rotate(90 1605,545.4)" text-rendering="optimizeSpeed" fill="#000000">1.460.1-vanguard-1 (1)</text>
  <rect fill="blue" height="26.2" stroke="black" width="12" x="1620" y="514.2"/>
  <text x="1620" y="545.4" font-family="Tahoma" font-size="12" transform="rotate(90 1620,545.4)" text-rendering="optimizeSpeed" fill="#000000">1.461 (262)</text>
  <rect fill="blue" height="23.0" stroke="black" width="12" x="1635" y="517.4"/>
  <text x="1635" y="545.4" font-family="Tahoma" font-size="12" transform="rotate(90 1635,545.4)" text-rendering="optimizeSpeed" fill="#000000">1.462 (230)</text>
  <rect fill="blue" height="25.1" stroke="black" width="12" x="1650" y="515.3"/>
  <text x="1650" y="545.4" font-family="Tahoma" font-size="12" transform="rotate(90 1650,545.4)" text-rendering="optimizeSpeed" fill="#000000">1.463 (251)</text>
  <rect fill="blue" height="30.8" stroke="black" width="12" x="1665" y="509.6"/>
  <text x="1665" y="545.4" font-family="Tahoma" font-size="12" transform="rotate(90 1665,545.4)" text-rendering="optimizeSpeed" fill="#000000">1.464 (308)</text>
  <rect fill="blue" height="1.1" stroke="black" width="12" x="1680" y="539.3"/>
  <text x="1680" y="545.4" font-family="Tahoma" font-size="12" transform="rotate(90 1680,545.4)" text-rendering="optimizeSpeed" fill="#000000">1.464.2ms (11)</text>
  <rect fill="blue" height="32.1" stroke="black" width="12" x="1695" y="508.3"/>
  <text x="1695" y="545.4" font-family="Tahoma" font-size="12" transform="rotate(90 1695,545.4)" text-rendering="optimizeSpeed" fill="#000000">1.465 (321)</text>
  <rect fill="blue" height="41.7" stroke="black" width="12" x="1710" y="498.7"/>
  <text x="1710" y="545.4" font-family="Tahoma" font-size="12" transform="rotate(90 1710,545.4)" text-rendering="optimizeSpeed" fill="#000000">1.466 (417)</text>
  <rect fill="blue" height="21.3" stroke="black" width="12" x="1725" y="519.1"/>
  <text x="1725" y="545.4" font-family="Tahoma" font-size="12" transform="rotate(90 1725,545.4)" text-rendering="optimizeSpeed" fill="#000000">1.466.1 (213)</text>
  <rect fill="blue" height="0.1" stroke="black" width="12" x="1740" y="540.3"/>
  <text x="1740" y="545.4" font-family="Tahoma" font-size="12" transform="rotate(90 1740,545.4)" text-rendering="optimizeSpeed" fill="#000000">1.466.2-m001 (1)</text>
  <rect fill="blue" height="0.1" stroke="black" width="12" x="1755" y="540.3"/>
  <text x="1755" y="545.4" font-family="Tahoma" font-size="12" transform="rotate(90 1755,545.4)" text-rendering="optimizeSpeed" fill="#000000">1.466.2+JENKINS-15382 (1)</text>
  <rect fill="blue" height="63.4" stroke="black" width="12" x="1770" y="477.0"/>
  <text x="1770" y="545.4" font-family="Tahoma" font-size="12" transform="rotate(90 1770,545.4)" text-rendering="optimizeSpeed" fill="#000000">1.466.2 (634)</text>
  <rect fill="blue" height="28.5" stroke="black" width="12" x="1785" y="511.9"/>
  <text x="1785" y="545.4" font-family="Tahoma" font-size="12" transform="rotate(90 1785,545.4)" text-rendering="optimizeSpeed" fill="#000000">1.467 (285)</text>
  <rect fill="blue" height="2.5" stroke="black" width="12" x="1800" y="537.9"/>
  <text x="1800" y="545.4" font-family="Tahoma" font-size="12" transform="rotate(90 1800,545.4)" text-rendering="optimizeSpeed" fill="#000000">1.468 (25)</text>
  <rect fill="blue" height="7.5" stroke="black" width="12" x="1815" y="532.9"/>
  <text x="1815" y="545.4" font-family="Tahoma" font-size="12" transform="rotate(90 1815,545.4)" text-rendering="optimizeSpeed" fill="#000000">1.469 (75)</text>
  <rect fill="blue" height="25.5" stroke="black" width="12" x="1830" y="514.9"/>
  <text x="1830" y="545.4" font-family="Tahoma" font-size="12" transform="rotate(90 1830,545.4)" text-rendering="optimizeSpeed" fill="#000000">1.470 (255)</text>
  <rect fill="blue" height="30.4" stroke="black" width="12" x="1845" y="510.0"/>
  <text x="1845" y="545.4" font-family="Tahoma" font-size="12" transform="rotate(90 1845,545.4)" text-rendering="optimizeSpeed" fill="#000000">1.471 (304)</text>
  <rect fill="blue" height="40.7" stroke="black" width="12" x="1860" y="499.7"/>
  <text x="1860" y="545.4" font-family="Tahoma" font-size="12" transform="rotate(90 1860,545.4)" text-rendering="optimizeSpeed" fill="#000000">1.472 (407)</text>
  <rect fill="blue" height="43.0" stroke="black" width="12" x="1875" y="497.4"/>
  <text x="1875" y="545.4" font-family="Tahoma" font-size="12" transform="rotate(90 1875,545.4)" text-rendering="optimizeSpeed" fill="#000000">1.473 (430)</text>
  <rect fill="blue" height="57.6" stroke="black" width="12" x="1890" y="482.8"/>
  <text x="1890" y="545.4" font-family="Tahoma" font-size="12" transform="rotate(90 1890,545.4)" text-rendering="optimizeSpeed" fill="#000000">1.474 (576)</text>
  <rect fill="blue" height="67.6" stroke="black" width="12" x="1905" y="472.8"/>
  <text x="1905" y="545.4" font-family="Tahoma" font-size="12" transform="rotate(90 1905,545.4)" text-rendering="optimizeSpeed" fill="#000000">1.475 (676)</text>
  <rect fill="blue" height="30.7" stroke="black" width="12" x="1920" y="509.7"/>
  <text x="1920" y="545.4" font-family="Tahoma" font-size="12" transform="rotate(90 1920,545.4)" text-rendering="optimizeSpeed" fill="#000000">1.476 (307)</text>
  <rect fill="blue" height="58.7" stroke="black" width="12" x="1935" y="481.7"/>
  <text x="1935" y="545.4" font-family="Tahoma" font-size="12" transform="rotate(90 1935,545.4)" text-rendering="optimizeSpeed" fill="#000000">1.477 (587)</text>
  <rect fill="blue" height="61.2" stroke="black" width="12" x="1950" y="479.2"/>
  <text x="1950" y="545.4" font-family="Tahoma" font-size="12" transform="rotate(90 1950,545.4)" text-rendering="optimizeSpeed" fill="#000000">1.478 (612)</text>
  <rect fill="blue" height="22.5" stroke="black" width="12" x="1965" y="517.9"/>
  <text x="1965" y="545.4" font-family="Tahoma" font-size="12" transform="rotate(90 1965,545.4)" text-rendering="optimizeSpeed" fill="#000000">1.479 (225)</text>
  <rect fill="blue" height="50.3" stroke="black" width="12" x="1980" y="490.1"/>
  <text x="1980" y="545.4" font-family="Tahoma" font-size="12" transform="rotate(90 1980,545.4)" text-rendering="optimizeSpeed" fill="#000000">1.480 (503)</text>
  <rect fill="blue" height="0.1" stroke="black" width="12" x="1995" y="540.3"/>
  <text x="1995" y="545.4" font-family="Tahoma" font-size="12" transform="rotate(90 1995,545.4)" text-rendering="optimizeSpeed" fill="#000000">1.480.1-Schneider-1.2 (1)</text>
  <rect fill="blue" height="47.8" stroke="black" width="12" x="2010" y="492.6"/>
  <text x="2010" y="545.4" font-family="Tahoma" font-size="12" transform="rotate(90 2010,545.4)" text-rendering="optimizeSpeed" fill="#000000">1.480.1 (478)</text>
  <rect fill="blue" height="59.6" stroke="black" width="12" x="2025" y="480.8"/>
  <text x="2025" y="545.4" font-family="Tahoma" font-size="12" transform="rotate(90 2025,545.4)" text-rendering="optimizeSpeed" fill="#000000">1.480.2 (596)</text>
  <rect fill="blue" height="158.4" stroke="black" width="12" x="2040" y="382.0"/>
  <text x="2040" y="545.4" font-family="Tahoma" font-size="12" transform="rotate(90 2040,545.4)" text-rendering="optimizeSpeed" fill="#000000">1.480.3 (1584)</text>
  <rect fill="blue" height="0.1" stroke="black" width="12" x="2055" y="540.3"/>
  <text x="2055" y="545.4" font-family="Tahoma" font-size="12" transform="rotate(90 2055,545.4)" text-rendering="optimizeSpeed" fill="#000000">1.480.3.2 (1)</text>
  <rect fill="blue" height="43.5" stroke="black" width="12" x="2070" y="496.9"/>
  <text x="2070" y="545.4" font-family="Tahoma" font-size="12" transform="rotate(90 2070,545.4)" text-rendering="optimizeSpeed" fill="#000000">1.481 (435)</text>
  <rect fill="blue" height="49.7" stroke="black" width="12" x="2085" y="490.7"/>
  <text x="2085" y="545.4" font-family="Tahoma" font-size="12" transform="rotate(90 2085,545.4)" text-rendering="optimizeSpeed" fill="#000000">1.482 (497)</text>
  <rect fill="blue" height="54.7" stroke="black" width="12" x="2100" y="485.7"/>
  <text x="2100" y="545.4" font-family="Tahoma" font-size="12" transform="rotate(90 2100,545.4)" text-rendering="optimizeSpeed" fill="#000000">1.483 (547)</text>
  <rect fill="blue" height="57.2" stroke="black" width="12" x="2115" y="483.2"/>
  <text x="2115" y="545.4" font-family="Tahoma" font-size="12" transform="rotate(90 2115,545.4)" text-rendering="optimizeSpeed" fill="#000000">1.484 (572)</text>
  <rect fill="blue" height="32.4" stroke="black" width="12" x="2130" y="508.0"/>
  <text x="2130" y="545.4" font-family="Tahoma" font-size="12" transform="rotate(90 2130,545.4)" text-rendering="optimizeSpeed" fill="#000000">1.485 (324)</text>
  <rect fill="blue" height="86.2" stroke="black" width="12" x="2145" y="454.2"/>
  <text x="2145" y="545.4" font-family="Tahoma" font-size="12" transform="rotate(90 2145,545.4)" text-rendering="optimizeSpeed" fill="#000000">1.486 (862)</text>
  <rect fill="blue" height="38.8" stroke="black" width="12" x="2160" y="501.6"/>
  <text x="2160" y="545.4" font-family="Tahoma" font-size="12" transform="rotate(90 2160,545.4)" text-rendering="optimizeSpeed" fill="#000000">1.487 (388)</text>
  <rect fill="blue" height="59.6" stroke="black" width="12" x="2175" y="480.8"/>
  <text x="2175" y="545.4" font-family="Tahoma" font-size="12" transform="rotate(90 2175,545.4)" text-rendering="optimizeSpeed" fill="#000000">1.488 (596)</text>
  <rect fill="blue" height="78.0" stroke="black" width="12" x="2190" y="462.4"/>
  <text x="2190" y="545.4" font-family="Tahoma" font-size="12" transform="rotate(90 2190,545.4)" text-rendering="optimizeSpeed" fill="#000000">1.489 (780)</text>
  <rect fill="blue" height="49.9" stroke="black" width="12" x="2205" y="490.5"/>
  <text x="2205" y="545.4" font-family="Tahoma" font-size="12" transform="rotate(90 2205,545.4)" text-rendering="optimizeSpeed" fill="#000000">1.490 (499)</text>
  <rect fill="blue" height="80.5" stroke="black" width="12" x="2220" y="459.9"/>
  <text x="2220" y="545.4" font-family="Tahoma" font-size="12" transform="rotate(90 2220,545.4)" text-rendering="optimizeSpeed" fill="#000000">1.491 (805)</text>
  <rect fill="blue" height="145.5" stroke="black" width="12" x="2235" y="394.9"/>
  <text x="2235" y="545.4" font-family="Tahoma" font-size="12" transform="rotate(90 2235,545.4)" text-rendering="optimizeSpeed" fill="#000000">1.492 (1455)</text>
  <rect fill="blue" height="80.8" stroke="black" width="12" x="2250" y="459.6"/>
  <text x="2250" y="545.4" font-family="Tahoma" font-size="12" transform="rotate(90 2250,545.4)" text-rendering="optimizeSpeed" fill="#000000">1.493 (808)</text>
  <rect fill="blue" height="84.4" stroke="black" width="12" x="2265" y="456.0"/>
  <text x="2265" y="545.4" font-family="Tahoma" font-size="12" transform="rotate(90 2265,545.4)" text-rendering="optimizeSpeed" fill="#000000">1.494 (844)</text>
  <rect fill="blue" height="37.4" stroke="black" width="12" x="2280" y="503.0"/>
  <text x="2280" y="545.4" font-family="Tahoma" font-size="12" transform="rotate(90 2280,545.4)" text-rendering="optimizeSpeed" fill="#000000">1.495 (374)</text>
  <rect fill="blue" height="64.7" stroke="black" width="12" x="2295" y="475.7"/>
  <text x="2295" y="545.4" font-family="Tahoma" font-size="12" transform="rotate(90 2295,545.4)" text-rendering="optimizeSpeed" fill="#000000">1.496 (647)</text>
  <rect fill="blue" height="20.9" stroke="black" width="12" x="2310" y="519.5"/>
  <text x="2310" y="545.4" font-family="Tahoma" font-size="12" transform="rotate(90 2310,545.4)" text-rendering="optimizeSpeed" fill="#000000">1.497 (209)</text>
  <rect fill="blue" height="97.1" stroke="black" width="12" x="2325" y="443.3"/>
  <text x="2325" y="545.4" font-family="Tahoma" font-size="12" transform="rotate(90 2325,545.4)" text-rendering="optimizeSpeed" fill="#000000">1.498 (971)</text>
  <rect fill="blue" height="199.3" stroke="black" width="12" x="2340" y="341.1"/>
  <text x="2340" y="545.4" font-family="Tahoma" font-size="12" transform="rotate(90 2340,545.4)" text-rendering="optimizeSpeed" fill="#000000">1.499 (1993)</text>
  <rect fill="blue" height="285.8" stroke="black" width="12" x="2355" y="254.6"/>
  <text x="2355" y="545.4" font-family="Tahoma" font-size="12" transform="rotate(90 2355,545.4)" text-rendering="optimizeSpeed" fill="#000000">1.500 (2858)</text>
  <rect fill="blue" height="140.2" stroke="black" width="12" x="2370" y="400.2"/>
  <text x="2370" y="545.4" font-family="Tahoma" font-size="12" transform="rotate(90 2370,545.4)" text-rendering="optimizeSpeed" fill="#000000">1.501 (1402)</text>
  <rect fill="blue" height="320.9" stroke="black" width="12" x="2385" y="219.5"/>
  <text x="2385" y="545.4" font-family="Tahoma" font-size="12" transform="rotate(90 2385,545.4)" text-rendering="optimizeSpeed" fill="#000000">1.502 (3209)</text>
  <rect fill="blue" height="200.8" stroke="black" width="12" x="2400" y="339.6"/>
  <text x="2400" y="545.4" font-family="Tahoma" font-size="12" transform="rotate(90 2400,545.4)" text-rendering="optimizeSpeed" fill="#000000">1.503 (2008)</text>
  <rect fill="blue" height="410.7" stroke="black" width="12" x="2415" y="129.7"/>
  <text x="2415" y="545.4" font-family="Tahoma" font-size="12" transform="rotate(90 2415,545.4)" text-rendering="optimizeSpeed" fill="#000000">1.504 (4107)</text>
  <rect fill="blue" height="443.8" stroke="black" width="12" x="2430" y="96.6"/>
  <text x="2430" y="545.4" font-family="Tahoma" font-size="12" transform="rotate(90 2430,545.4)" text-rendering="optimizeSpeed" fill="#000000">1.505 (4438)</text>
  <rect fill="blue" height="490.4" stroke="black" width="12" x="2445" y="50.0"/>
  <text x="2445" y="545.4" font-family="Tahoma" font-size="12" transform="rotate(90 2445,545.4)" text-rendering="optimizeSpeed" fill="#000000">1.506 (4904)</text>
  <rect fill="blue" height="78.5" stroke="black" width="12" x="2460" y="461.9"/>
  <text x="2460" y="545.4" font-family="Tahoma" font-size="12" transform="rotate(90 2460,545.4)" text-rendering="optimizeSpeed" fill="#000000">1.507 (785)</text>
  <rect fill="blue" height="346.4" stroke="black" width="12" x="2475" y="194.0"/>
  <text x="2475" y="545.4" font-family="Tahoma" font-size="12" transform="rotate(90 2475,545.4)" text-rendering="optimizeSpeed" fill="#000000">1.508 (3464)</text>
  <text x="10" y="40" font-family="Tahoma" font-size="20" text-rendering="optimizeSpeed" fill="#000000">Jenkins installations (total: 61620)</text>
</svg>
