<svg xmlns="http://www.w3.org/2000/svg" version="1.1" preserveAspectRatio="xMidYMid meet" viewBox="0 0 720 2150">
  <text x="30" y="40" font-family="sans-serif" font-size="16">Nodes, total: 223442</text>
  <path d="M 200,300 L 0.0,150.0 A 150,150 0 0 1 3.8,150.0 Z" fill="BurlyWood" stroke="black" stroke-width="1"/>
  <rect x="370" y="50" width="20" height="30" fill="BurlyWood" stroke="black" stroke-width="1"/>
  <text x="400" y="38" font-family="sans-serif" font-size="16">AIX (ppc) (386)</text>
  <path d="M 200,300 L 3.8,150.0 A 150,150 0 0 1 8.9,150.0 Z" fill="CadetBlue" stroke="black" stroke-width="1"/>
  <rect x="370" y="51" width="20" height="30" fill="CadetBlue" stroke="black" stroke-width="1"/>
  <text x="400" y="68" font-family="sans-serif" font-size="16">AIX (ppc64) (519)</text>
  <path d="M 200,300 L 8.9,150.0 A 150,150 0 0 1 8.9,150.0 Z" fill="red" stroke="black" stroke-width="1"/>
  <rect x="370" y="52" width="20" height="30" fill="red" stroke="black" stroke-width="1"/>
  <text x="400" y="98" font-family="sans-serif" font-size="16">Darwin (amd64) (1)</text>
  <path d="M 200,300 L 8.9,150.0 A 150,150 0 0 1 8.9,150.0 Z" fill="blue" stroke="black" stroke-width="1"/>
  <rect x="370" y="53" width="20" height="30" fill="blue" stroke="black" stroke-width="1"/>
  <text x="400" y="128" font-family="sans-serif" font-size="16">Darwin (i386) (2)</text>
  <path d="M 200,300 L 8.9,150.0 A 150,150 0 0 1 8.9,150.0 Z" fill="yellow" stroke="black" stroke-width="1"/>
  <rect x="370" y="54" width="20" height="30" fill="yellow" stroke="black" stroke-width="1"/>
  <text x="400" y="158" font-family="sans-serif" font-size="16">Darwin (universal) (1)</text>
  <path d="M 200,300 L 8.9,150.0 A 150,150 0 0 1 9.0,150.0 Z" fill="green" stroke="black" stroke-width="1"/>
  <rect x="370" y="55" width="20" height="30" fill="green" stroke="black" stroke-width="1"/>
  <text x="400" y="188" font-family="sans-serif" font-size="16">DragonFly (amd64) (1)</text>
  <path d="M 200,300 L 9.0,150.0 A 150,150 0 0 1 12.0,149.9 Z" fill="gold" stroke="black" stroke-width="1"/>
  <rect x="370" y="56" width="20" height="30" fill="gold" stroke="black" stroke-width="1"/>
  <text x="400" y="218" font-family="sans-serif" font-size="16">FreeBSD (amd64) (307)</text>
  <path d="M 200,300 L 12.0,149.9 A 150,150 0 0 1 13.4,149.9 Z" fill="brown" stroke="black" stroke-width="1"/>
  <rect x="370" y="57" width="20" height="30" fill="brown" stroke="black" stroke-width="1"/>
  <text x="400" y="248" font-family="sans-serif" font-size="16">FreeBSD (i386) (149)</text>
  <path d="M 200,300 L 13.4,149.9 A 150,150 0 0 1 15.4,149.9 Z" fill="Azure" stroke="black" stroke-width="1"/>
  <rect x="370" y="58" width="20" height="30" fill="Azure" stroke="black" stroke-width="1"/>
  <text x="400" y="278" font-family="sans-serif" font-size="16">HP-UX (IA64N) (195)</text>
  <path d="M 200,300 L 15.4,149.9 A 150,150 0 0 1 15.6,149.9 Z" fill="pink" stroke="black" stroke-width="1"/>
  <rect x="370" y="59" width="20" height="30" fill="pink" stroke="black" stroke-width="1"/>
  <text x="400" y="308" font-family="sans-serif" font-size="16">HP-UX (IA64W) (29)</text>
  <path d="M 200,300 L 15.6,149.9 A 150,150 0 0 1 16.4,149.8 Z" fill="khaki" stroke="black" stroke-width="1"/>
  <rect x="370" y="60" width="20" height="30" fill="khaki" stroke="black" stroke-width="1"/>
  <text x="400" y="338" font-family="sans-serif" font-size="16">HP-UX (PA_RISC2.0) (78)</text>
  <path d="M 200,300 L 16.4,149.8 A 150,150 0 0 1 16.4,149.8 Z" fill="gray" stroke="black" stroke-width="1"/>
  <rect x="370" y="61" width="20" height="30" fill="gray" stroke="black" stroke-width="1"/>
  <text x="400" y="368" font-family="sans-serif" font-size="16">HP-UX (PA_RISC2.0W) (1)</text>
  <path d="M 200,300 L 16.4,149.8 A 150,150 0 0 1 16.4,149.8 Z" fill="Aqua" stroke="black" stroke-width="1"/>
  <rect x="370" y="62" width="20" height="30" fill="Aqua" stroke="black" stroke-width="1"/>
  <text x="400" y="398" font-family="sans-serif" font-size="16">HP-UX (ia64) (1)</text>
  <path d="M 200,300 L 16.4,149.8 A 150,150 0 0 1 16.4,149.8 Z" fill="Aquamarine" stroke="black" stroke-width="1"/>
  <rect x="370" y="63" width="20" height="30" fill="Aquamarine" stroke="black" stroke-width="1"/>
  <text x="400" y="428" font-family="sans-serif" font-size="16">HeLiOS (amd64) (1)</text>
  <path d="M 200,300 L 16.4,149.8 A 150,150 0 0 1 16.4,149.8 Z" fill="beige" stroke="black" stroke-width="1"/>
  <rect x="370" y="64" width="20" height="30" fill="beige" stroke="black" stroke-width="1"/>
  <text x="400" y="458" font-family="sans-serif" font-size="16">Linux (aarch64) (1)</text>
  <path d="M 200,300 L 16.4,149.8 A 150,150 0 0 1 226.2,-114.4 Z" fill="blueviolet" stroke="black" stroke-width="1"/>
  <rect x="370" y="65" width="20" height="30" fill="blueviolet" stroke="black" stroke-width="1"/>
  <text x="400" y="488" font-family="sans-serif" font-size="16">Linux (amd64) (85053)</text>
  <path d="M 200,300 L 226.2,-114.4 A 150,150 0 0 1 225.1,-114.9 Z" fill="Bisque" stroke="black" stroke-width="1"/>
  <rect x="370" y="66" width="20" height="30" fill="Bisque" stroke="black" stroke-width="1"/>
  <text x="400" y="518" font-family="sans-serif" font-size="16">Linux (arm) (150)</text>
  <path d="M 200,300 L 225.1,-114.9 A 150,150 0 0 1 85.1,-145.5 Z" fill="coral" stroke="black" stroke-width="1"/>
  <rect x="370" y="67" width="20" height="30" fill="coral" stroke="black" stroke-width="1"/>
  <text x="400" y="548" font-family="sans-serif" font-size="16">Linux (i386) (16115)</text>
  <path d="M 200,300 L 85.1,-145.5 A 150,150 0 0 1 84.9,-145.5 Z" fill="darkblue" stroke="black" stroke-width="1"/>
  <rect x="370" y="68" width="20" height="30" fill="darkblue" stroke="black" stroke-width="1"/>
  <text x="400" y="578" font-family="sans-serif" font-size="16">Linux (ia64) (22)</text>
  <path d="M 200,300 L 84.9,-145.5 A 150,150 0 0 1 84.9,-145.5 Z" fill="crimson" stroke="black" stroke-width="1"/>
  <rect x="370" y="69" width="20" height="30" fill="crimson" stroke="black" stroke-width="1"/>
  <text x="400" y="608" font-family="sans-serif" font-size="16">Linux (mips) (1)</text>
  <path d="M 200,300 L 84.9,-145.5 A 150,150 0 0 1 84.8,-145.5 Z" fill="cyan" stroke="black" stroke-width="1"/>
  <rect x="370" y="70" width="20" height="30" fill="cyan" stroke="black" stroke-width="1"/>
  <text x="400" y="638" font-family="sans-serif" font-size="16">Linux (mipsel) (1)</text>
  <path d="M 200,300 L 84.8,-145.5 A 150,150 0 0 1 84.5,-145.6 Z" fill="darkred" stroke="black" stroke-width="1"/>
  <rect x="370" y="71" width="20" height="30" fill="darkred" stroke="black" stroke-width="1"/>
  <text x="400" y="668" font-family="sans-serif" font-size="16">Linux (ppc) (34)</text>
  <path d="M 200,300 L 84.5,-145.6 A 150,150 0 0 1 83.7,-145.6 Z" fill="ivory" stroke="black" stroke-width="1"/>
  <rect x="370" y="72" width="20" height="30" fill="ivory" stroke="black" stroke-width="1"/>
  <text x="400" y="698" font-family="sans-serif" font-size="16">Linux (ppc64) (85)</text>
  <path d="M 200,300 L 83.7,-145.6 A 150,150 0 0 1 83.7,-145.6 Z" fill="lime" stroke="black" stroke-width="1"/>
  <rect x="370" y="73" width="20" height="30" fill="lime" stroke="black" stroke-width="1"/>
  <text x="400" y="728" font-family="sans-serif" font-size="16">Linux (ppc64le) (1)</text>
  <path d="M 200,300 L 83.7,-145.6 A 150,150 0 0 1 83.6,-145.7 Z" fill="maroon" stroke="black" stroke-width="1"/>
  <rect x="370" y="74" width="20" height="30" fill="maroon" stroke="black" stroke-width="1"/>
  <text x="400" y="758" font-family="sans-serif" font-size="16">Linux (s390) (10)</text>
  <path d="M 200,300 L 83.6,-145.7 A 150,150 0 0 1 83.0,-145.7 Z" fill="navy" stroke="black" stroke-width="1"/>
  <rect x="370" y="75" width="20" height="30" fill="navy" stroke="black" stroke-width="1"/>
  <text x="400" y="788" font-family="sans-serif" font-size="16">Linux (s390x) (67)</text>
  <path d="M 200,300 L 83.0,-145.7 A 150,150 0 0 1 82.9,-145.7 Z" fill="olive" stroke="black" stroke-width="1"/>
  <rect x="370" y="76" width="20" height="30" fill="olive" stroke="black" stroke-width="1"/>
  <text x="400" y="818" font-family="sans-serif" font-size="16">Linux (sparc) (1)</text>
  <path d="M 200,300 L 82.9,-145.7 A 150,150 0 0 1 81.3,-145.9 Z" fill="plum" stroke="black" stroke-width="1"/>
  <rect x="370" y="77" width="20" height="30" fill="plum" stroke="black" stroke-width="1"/>
  <text x="400" y="848" font-family="sans-serif" font-size="16">Linux (x86) (171)</text>
  <path d="M 200,300 L 81.3,-145.9 A 150,150 0 0 1 81.2,-145.9 Z" fill="peru" stroke="black" stroke-width="1"/>
  <rect x="370" y="78" width="20" height="30" fill="peru" stroke="black" stroke-width="1"/>
  <text x="400" y="878" font-family="sans-serif" font-size="16">Mac OS X (amd64) (8)</text>
  <path d="M 200,300 L 81.2,-145.9 A 150,150 0 0 1 80.8,-145.9 Z" fill="silver" stroke="black" stroke-width="1"/>
  <rect x="370" y="79" width="20" height="30" fill="silver" stroke="black" stroke-width="1"/>
  <text x="400" y="908" font-family="sans-serif" font-size="16">Mac OS X (i386) (46)</text>
  <path d="M 200,300 L 80.8,-145.9 A 150,150 0 0 1 80.8,-146.0 Z" fill="tan" stroke="black" stroke-width="1"/>
  <rect x="370" y="80" width="20" height="30" fill="tan" stroke="black" stroke-width="1"/>
  <text x="400" y="938" font-family="sans-serif" font-size="16">Mac OS X (ppc) (2)</text>
  <path d="M 200,300 L 80.8,-146.0 A 150,150 0 0 1 -9.4,-149.9 Z" fill="teal" stroke="black" stroke-width="1"/>
  <rect x="370" y="81" width="20" height="30" fill="teal" stroke="black" stroke-width="1"/>
  <text x="400" y="968" font-family="sans-serif" font-size="16">Mac OS X (x86_64) (9241)</text>
  <path d="M 200,300 L -9.4,-149.9 A 150,150 0 0 1 -347.8,-16.9 Z" fill="violet" stroke="black" stroke-width="1"/>
  <rect x="370" y="82" width="20" height="30" fill="violet" stroke="black" stroke-width="1"/>
  <text x="400" y="998" font-family="sans-serif" font-size="16">N/A (50891)</text>
  <path d="M 200,300 L -347.8,-16.9 A 150,150 0 0 1 -347.8,-16.9 Z" fill="AliceBlue" stroke="black" stroke-width="1"/>
  <rect x="370" y="83" width="20" height="30" fill="AliceBlue" stroke="black" stroke-width="1"/>
  <text x="400" y="1028" font-family="sans-serif" font-size="16">NONSTOP_KERNEL (IA64N) (3)</text>
  <path d="M 200,300 L -347.8,-16.9 A 150,150 0 0 1 -347.8,-16.9 Z" fill="DarkOliveGreen" stroke="black" stroke-width="1"/>
  <rect x="370" y="84" width="20" height="30" fill="DarkOliveGreen" stroke="black" stroke-width="1"/>
  <text x="400" y="1058" font-family="sans-serif" font-size="16">NetBSD (amd64) (4)</text>
  <path d="M 200,300 L -347.8,-16.9 A 150,150 0 0 1 -347.8,-16.8 Z" fill="Indigo" stroke="black" stroke-width="1"/>
  <rect x="370" y="85" width="20" height="30" fill="Indigo" stroke="black" stroke-width="1"/>
  <text x="400" y="1088" font-family="sans-serif" font-size="16">NetBSD (i386) (4)</text>
  <path d="M 200,300 L -347.8,-16.8 A 150,150 0 0 1 -347.8,-16.8 Z" fill="MediumPurple" stroke="black" stroke-width="1"/>
  <rect x="370" y="86" width="20" height="30" fill="MediumPurple" stroke="black" stroke-width="1"/>
  <text x="400" y="1118" font-family="sans-serif" font-size="16">OS/400 (PowerPC) (2)</text>
  <path d="M 200,300 L -347.8,-16.8 A 150,150 0 0 1 -347.8,-16.8 Z" fill="Purple" stroke="black" stroke-width="1"/>
  <rect x="370" y="87" width="20" height="30" fill="Purple" stroke="black" stroke-width="1"/>
  <text x="400" y="1148" font-family="sans-serif" font-size="16">OpenBSD (amd64) (12)</text>
  <path d="M 200,300 L -347.8,-16.8 A 150,150 0 0 1 -347.8,-16.8 Z" fill="AntiqueWhite" stroke="black" stroke-width="1"/>
  <rect x="370" y="88" width="20" height="30" fill="AntiqueWhite" stroke="black" stroke-width="1"/>
  <text x="400" y="1178" font-family="sans-serif" font-size="16">OpenBSD (i386) (4)</text>
  <path d="M 200,300 L -347.8,-16.8 A 150,150 0 0 1 -347.9,-16.4 Z" fill="DarkOrange" stroke="black" stroke-width="1"/>
  <rect x="370" y="89" width="20" height="30" fill="DarkOrange" stroke="black" stroke-width="1"/>
  <text x="400" y="1208" font-family="sans-serif" font-size="16">SunOS (amd64) (93)</text>
  <path d="M 200,300 L -347.9,-16.4 A 150,150 0 0 1 -349.2,-10.0 Z" fill="Ivory" stroke="black" stroke-width="1"/>
  <rect x="370" y="90" width="20" height="30" fill="Ivory" stroke="black" stroke-width="1"/>
  <text x="400" y="1238" font-family="sans-serif" font-size="16">SunOS (sparc) (1512)</text>
  <path d="M 200,300 L -349.2,-10.0 A 150,150 0 0 1 -349.3,-9.5 Z" fill="MediumSeaGreen" stroke="black" stroke-width="1"/>
  <rect x="370" y="91" width="20" height="30" fill="MediumSeaGreen" stroke="black" stroke-width="1"/>
  <text x="400" y="1268" font-family="sans-serif" font-size="16">SunOS (sparcv9) (113)</text>
  <path d="M 200,300 L -349.3,-9.5 A 150,150 0 0 1 -349.8,-5.3 Z" fill="Red" stroke="black" stroke-width="1"/>
  <rect x="370" y="92" width="20" height="30" fill="Red" stroke="black" stroke-width="1"/>
  <text x="400" y="1298" font-family="sans-serif" font-size="16">SunOS (x86) (995)</text>
  <path d="M 200,300 L -349.8,-5.3 A 150,150 0 0 1 -349.8,-5.3 Z" fill="Aqua" stroke="black" stroke-width="1"/>
  <rect x="370" y="93" width="20" height="30" fill="Aqua" stroke="black" stroke-width="1"/>
  <text x="400" y="1328" font-family="sans-serif" font-size="16">UnixWare (IA32) (1)</text>
  <path d="M 200,300 L -349.8,-5.3 A 150,150 0 0 1 -349.8,-5.2 Z" fill="DarkOrchid" stroke="black" stroke-width="1"/>
  <rect x="370" y="94" width="20" height="30" fill="DarkOrchid" stroke="black" stroke-width="1"/>
  <text x="400" y="1358" font-family="sans-serif" font-size="16">Windows 2000 (x86) (28)</text>
  <path d="M 200,300 L -349.8,-5.2 A 150,150 0 0 1 -350.0,-2.4 Z" fill="Khaki" stroke="black" stroke-width="1"/>
  <rect x="370" y="95" width="20" height="30" fill="Khaki" stroke="black" stroke-width="1"/>
  <text x="400" y="1388" font-family="sans-serif" font-size="16">Windows 2003 (amd64) (667)</text>
  <path d="M 200,300 L -350.0,-2.4 A 150,150 0 0 1 -348.0,16.2 Z" fill="MediumSlateBlue" stroke="black" stroke-width="1"/>
  <rect x="370" y="96" width="20" height="30" fill="MediumSlateBlue" stroke="black" stroke-width="1"/>
  <text x="400" y="1418" font-family="sans-serif" font-size="16">Windows 2003 (x86) (4418)</text>
  <path d="M 200,300 L -348.0,16.2 A 150,150 0 0 1 -329.9,50.1 Z" fill="RosyBrown" stroke="black" stroke-width="1"/>
  <rect x="370" y="97" width="20" height="30" fill="RosyBrown" stroke="black" stroke-width="1"/>
  <text x="400" y="1448" font-family="sans-serif" font-size="16">Windows 7 (amd64) (8255)</text>
  <path d="M 200,300 L -329.9,50.1 A 150,150 0 0 1 -255.3,102.6 Z" fill="AquaMarine" stroke="black" stroke-width="1"/>
  <rect x="370" y="98" width="20" height="30" fill="AquaMarine" stroke="black" stroke-width="1"/>
  <text x="400" y="1478" font-family="sans-serif" font-size="16">Windows 7 (x86) (14684)</text>
  <path d="M 200,300 L -255.3,102.6 A 150,150 0 0 1 -250.3,104.8 Z" fill="DarkRed" stroke="black" stroke-width="1"/>
  <rect x="370" y="99" width="20" height="30" fill="DarkRed" stroke="black" stroke-width="1"/>
  <text x="400" y="1508" font-family="sans-serif" font-size="16">Windows 8 (amd64) (740)</text>
  <path d="M 200,300 L -250.3,104.8 A 150,150 0 0 1 -241.9,108.4 Z" fill="Lavender" stroke="black" stroke-width="1"/>
  <rect x="370" y="100" width="20" height="30" fill="Lavender" stroke="black" stroke-width="1"/>
  <text x="400" y="1538" font-family="sans-serif" font-size="16">Windows 8 (x86) (1198)</text>
  <path d="M 200,300 L -241.9,108.4 A 150,150 0 0 1 -241.9,108.4 Z" fill="MediumSpringGreen" stroke="black" stroke-width="1"/>
  <rect x="370" y="101" width="20" height="30" fill="MediumSpringGreen" stroke="black" stroke-width="1"/>
  <text x="400" y="1568" font-family="sans-serif" font-size="16">Windows 8.1 (amd64) (5)</text>
  <path d="M 200,300 L -241.9,108.4 A 150,150 0 0 1 -241.9,108.4 Z" fill="RoyalBlue" stroke="black" stroke-width="1"/>
  <rect x="370" y="102" width="20" height="30" fill="RoyalBlue" stroke="black" stroke-width="1"/>
  <text x="400" y="1598" font-family="sans-serif" font-size="16">Windows 8.1 (x86) (1)</text>
  <path d="M 200,300 L -241.9,108.4 A 150,150 0 0 1 -240.1,109.1 Z" fill="Azure" stroke="black" stroke-width="1"/>
  <rect x="370" y="103" width="20" height="30" fill="Azure" stroke="black" stroke-width="1"/>
  <text x="400" y="1628" font-family="sans-serif" font-size="16">Windows NT (unknown) (amd64) (251)</text>
  <path d="M 200,300 L -240.1,109.1 A 150,150 0 0 1 -237.8,110.1 Z" fill="DarkSalmon" stroke="black" stroke-width="1"/>
  <rect x="370" y="104" width="20" height="30" fill="DarkSalmon" stroke="black" stroke-width="1"/>
  <text x="400" y="1658" font-family="sans-serif" font-size="16">Windows NT (unknown) (x86) (313)</text>
  <path d="M 200,300 L -237.8,110.1 A 150,150 0 0 1 -237.7,110.1 Z" fill="LavenderBlush" stroke="black" stroke-width="1"/>
  <rect x="370" y="105" width="20" height="30" fill="LavenderBlush" stroke="black" stroke-width="1"/>
  <text x="400" y="1688" font-family="sans-serif" font-size="16">Windows Server 2003 (amd64) (12)</text>
  <path d="M 200,300 L -237.7,110.1 A 150,150 0 0 1 -237.6,110.1 Z" fill="MediumTurquoise" stroke="black" stroke-width="1"/>
  <rect x="370" y="106" width="20" height="30" fill="MediumTurquoise" stroke="black" stroke-width="1"/>
  <text x="400" y="1718" font-family="sans-serif" font-size="16">Windows Server 2003 (x86) (17)</text>
  <path d="M 200,300 L -237.6,110.1 A 150,150 0 0 1 -232.7,112.0 Z" fill="SaddleBrown" stroke="black" stroke-width="1"/>
  <rect x="370" y="107" width="20" height="30" fill="SaddleBrown" stroke="black" stroke-width="1"/>
  <text x="400" y="1748" font-family="sans-serif" font-size="16">Windows Server 2008 (amd64) (670)</text>
  <path d="M 200,300 L -232.7,112.0 A 150,150 0 0 1 -220.4,116.5 Z" fill="Beige" stroke="black" stroke-width="1"/>
  <rect x="370" y="108" width="20" height="30" fill="Beige" stroke="black" stroke-width="1"/>
  <text x="400" y="1778" font-family="sans-serif" font-size="16">Windows Server 2008 (x86) (1640)</text>
  <path d="M 200,300 L -220.4,116.5 A 150,150 0 0 1 -151.2,135.3 Z" fill="DarkSeaGreen" stroke="black" stroke-width="1"/>
  <rect x="370" y="109" width="20" height="30" fill="DarkSeaGreen" stroke="black" stroke-width="1"/>
  <text x="400" y="1808" font-family="sans-serif" font-size="16">Windows Server 2008 R2 (amd64) (8348)</text>
  <path d="M 200,300 L -151.2,135.3 A 150,150 0 0 1 -151.1,135.3 Z" fill="LawnGreen" stroke="black" stroke-width="1"/>
  <rect x="370" y="110" width="20" height="30" fill="LawnGreen" stroke="black" stroke-width="1"/>
  <text x="400" y="1838" font-family="sans-serif" font-size="16">Windows Server 2008 R2 (ia64) (1)</text>
  <path d="M 200,300 L -151.1,135.3 A 150,150 0 0 1 -75.1,146.5 Z" fill="MediumVioletRed" stroke="black" stroke-width="1"/>
  <rect x="370" y="111" width="20" height="30" fill="MediumVioletRed" stroke="black" stroke-width="1"/>
  <text x="400" y="1868" font-family="sans-serif" font-size="16">Windows Server 2008 R2 (x86) (8186)</text>
  <path d="M 200,300 L -75.1,146.5 A 150,150 0 0 1 -65.9,147.3 Z" fill="Salmon" stroke="black" stroke-width="1"/>
  <rect x="370" y="112" width="20" height="30" fill="Salmon" stroke="black" stroke-width="1"/>
  <text x="400" y="1898" font-family="sans-serif" font-size="16">Windows Server 2012 (amd64) (957)</text>
  <path d="M 200,300 L -65.9,147.3 A 150,150 0 0 1 -53.5,148.2 Z" fill="Bisque" stroke="black" stroke-width="1"/>
  <rect x="370" y="113" width="20" height="30" fill="Bisque" stroke="black" stroke-width="1"/>
  <text x="400" y="1928" font-family="sans-serif" font-size="16">Windows Server 2012 (x86) (1282)</text>
  <path d="M 200,300 L -53.5,148.2 A 150,150 0 0 1 -53.5,148.2 Z" fill="DarkSlateBlue" stroke="black" stroke-width="1"/>
  <rect x="370" y="114" width="20" height="30" fill="DarkSlateBlue" stroke="black" stroke-width="1"/>
  <text x="400" y="1958" font-family="sans-serif" font-size="16">Windows Server 2012 R2 (amd64) (1)</text>
  <path d="M 200,300 L -53.5,148.2 A 150,150 0 0 1 -52.4,148.3 Z" fill="LemonChiffon" stroke="black" stroke-width="1"/>
  <rect x="370" y="115" width="20" height="30" fill="LemonChiffon" stroke="black" stroke-width="1"/>
  <text x="400" y="1988" font-family="sans-serif" font-size="16">Windows Vista (amd64) (109)</text>
  <path d="M 200,300 L -52.4,148.3 A 150,150 0 0 1 -46.6,148.7 Z" fill="MidnightBlue" stroke="black" stroke-width="1"/>
  <rect x="370" y="116" width="20" height="30" fill="MidnightBlue" stroke="black" stroke-width="1"/>
  <text x="400" y="2018" font-family="sans-serif" font-size="16">Windows Vista (x86) (596)</text>
  <path d="M 200,300 L -46.6,148.7 A 150,150 0 0 1 -45.5,148.7 Z" fill="SandyBrown" stroke="black" stroke-width="1"/>
  <rect x="370" y="117" width="20" height="30" fill="SandyBrown" stroke="black" stroke-width="1"/>
  <text x="400" y="2048" font-family="sans-serif" font-size="16">Windows XP (amd64) (116)</text>
  <path d="M 200,300 L -45.5,148.7 A 150,150 0 0 1 -0.0,150.0 Z" fill="Black" stroke="black" stroke-width="1"/>
  <rect x="370" y="118" width="20" height="30" fill="Black" stroke="black" stroke-width="1"/>
  <text x="400" y="2078" font-family="sans-serif" font-size="16">Windows XP (x86) (4630)</text>
  <path d="M 200,300 L -0.0,150.0 A 150,150 0 0 1 0.0,150.0 Z" fill="DarkSlateGray" stroke="black" stroke-width="1"/>
  <rect x="370" y="119" width="20" height="30" fill="DarkSlateGray" stroke="black" stroke-width="1"/>
  <text x="400" y="2108" font-family="sans-serif" font-size="16">z/OS (s390) (3)</text>
</svg>
