<svg xmlns="http://www.w3.org/2000/svg" version="1.1" preserveAspectRatio="xMidYMid meet" viewBox="0 0 230 4104.7">
  <rect fill="blue" height="0.0" stroke="black" width="12" x="15" y="3804.7"/>
  <text x="15" y="3809.7" font-family="Tahoma" font-size="12" transform="rotate(90 15,3809.7)" text-rendering="optimizeSpeed" fill="#000000">org-jvnet-hudson-main-build-ADEProject (1)</text>
  <rect fill="blue" height="0.0" stroke="black" width="12" x="30" y="3804.7"/>
  <text x="30" y="3809.7" font-family="Tahoma" font-size="12" transform="rotate(90 30,3809.7)" text-rendering="optimizeSpeed" fill="#000000">org-jvnet-hudson-maven3-Maven3Project (1)</text>
  <rect fill="blue" height="0.0" stroke="black" width="12" x="45" y="3804.7"/>
  <text x="45" y="3809.7" font-family="Tahoma" font-size="12" transform="rotate(90 45,3809.7)" text-rendering="optimizeSpeed" fill="#000000">hudson-plugins-job_dependency-projects-MasterProject (10)</text>
  <rect fill="blue" height="0.0" stroke="black" width="12" x="60" y="3804.6"/>
  <text x="60" y="3809.7" font-family="Tahoma" font-size="12" transform="rotate(90 60,3809.7)" text-rendering="optimizeSpeed" fill="#000000">hudson-model-RunOnceProject (24)</text>
  <rect fill="blue" height="0.0" stroke="black" width="12" x="75" y="3804.6"/>
  <text x="75" y="3809.7" font-family="Tahoma" font-size="12" transform="rotate(90 75,3809.7)" text-rendering="optimizeSpeed" fill="#000000">hudson-aarworkflow-AARWorkflowProject (38)</text>
  <rect fill="blue" height="0.1" stroke="black" width="12" x="90" y="3804.5"/>
  <text x="90" y="3809.7" font-family="Tahoma" font-size="12" transform="rotate(90 90,3809.7)" text-rendering="optimizeSpeed" fill="#000000">hudson-workflow-WorkflowProject (144)</text>
  <rect fill="blue" height="3.7" stroke="black" width="12" x="105" y="3801.0"/>
  <text x="105" y="3809.7" font-family="Tahoma" font-size="12" transform="rotate(90 105,3809.7)" text-rendering="optimizeSpeed" fill="#000000">hudson-model-ExternalJob (3690)</text>
  <rect fill="blue" height="6.8" stroke="black" width="12" x="120" y="3797.9"/>
  <text x="120" y="3809.7" font-family="Tahoma" font-size="12" transform="rotate(90 120,3809.7)" text-rendering="optimizeSpeed" fill="#000000">hudson-ivy-IvyModuleSet (6779)</text>
  <rect fill="blue" height="9.4" stroke="black" width="12" x="135" y="3795.3"/>
  <text x="135" y="3809.7" font-family="Tahoma" font-size="12" transform="rotate(90 135,3809.7)" text-rendering="optimizeSpeed" fill="#000000">hudson-plugins-project_inheritance-projects-InheritanceProject (9390)</text>
  <rect fill="blue" height="146.7" stroke="black" width="12" x="150" y="3657.9"/>
  <text x="150" y="3809.7" font-family="Tahoma" font-size="12" transform="rotate(90 150,3809.7)" text-rendering="optimizeSpeed" fill="#000000">hudson-matrix-MatrixProject (146725)</text>
  <rect fill="blue" height="703.5" stroke="black" width="12" x="165" y="3101.2"/>
  <text x="165" y="3809.7" font-family="Tahoma" font-size="12" transform="rotate(90 165,3809.7)" text-rendering="optimizeSpeed" fill="#000000">hudson-maven-MavenModuleSet (703501)</text>
  <rect fill="blue" height="3754.7" stroke="black" width="12" x="180" y="50.0"/>
  <text x="180" y="3809.7" font-family="Tahoma" font-size="12" transform="rotate(90 180,3809.7)" text-rendering="optimizeSpeed" fill="#000000">hudson-model-FreeStyleProject (3754663)</text>
  <text x="10" y="40" font-family="Tahoma" font-size="20" text-rendering="optimizeSpeed" fill="#000000">Jobs (total: 4624966)</text>
</svg>
