<svg xmlns="http://www.w3.org/2000/svg" version="1.1" preserveAspectRatio="xMidYMid meet" viewBox="0 0 1085 12426.0">
  <rect fill="blue" height="0.1" stroke="black" width="12" x="15" y="12125.9"/>
  <text x="15" y="12131.0" font-family="Tahoma" font-size="12" transform="rotate(90 15,12131.0)" text-rendering="optimizeSpeed" fill="#000000">DragonFly (i386) (1)</text>
  <rect fill="blue" height="0.1" stroke="black" width="12" x="30" y="12125.9"/>
  <text x="30" y="12131.0" font-family="Tahoma" font-size="12" transform="rotate(90 30,12131.0)" text-rendering="optimizeSpeed" fill="#000000">HP-UX (PA_RISC2.0W) (1)</text>
  <rect fill="blue" height="0.1" stroke="black" width="12" x="45" y="12125.9"/>
  <text x="45" y="12131.0" font-family="Tahoma" font-size="12" transform="rotate(90 45,12131.0)" text-rendering="optimizeSpeed" fill="#000000">Linux (x86_64) (1)</text>
  <rect fill="blue" height="0.1" stroke="black" width="12" x="60" y="12125.9"/>
  <text x="60" y="12131.0" font-family="Tahoma" font-size="12" transform="rotate(90 60,12131.0)" text-rendering="optimizeSpeed" fill="#000000">Mac OS X (ppc) (1)</text>
  <rect fill="blue" height="0.1" stroke="black" width="12" x="75" y="12125.9"/>
  <text x="75" y="12131.0" font-family="Tahoma" font-size="12" transform="rotate(90 75,12131.0)" text-rendering="optimizeSpeed" fill="#000000">NONSTOP_KERNEL (IA64N) (1)</text>
  <rect fill="blue" height="0.1" stroke="black" width="12" x="90" y="12125.9"/>
  <text x="90" y="12131.0" font-family="Tahoma" font-size="12" transform="rotate(90 90,12131.0)" text-rendering="optimizeSpeed" fill="#000000">Windows 2003 (ia64) (1)</text>
  <rect fill="blue" height="0.1" stroke="black" width="12" x="105" y="12125.9"/>
  <text x="105" y="12131.0" font-family="Tahoma" font-size="12" transform="rotate(90 105,12131.0)" text-rendering="optimizeSpeed" fill="#000000">Windows Server 2008 R2 (ia64) (1)</text>
  <rect fill="blue" height="0.2" stroke="black" width="12" x="120" y="12125.8"/>
  <text x="120" y="12131.0" font-family="Tahoma" font-size="12" transform="rotate(90 120,12131.0)" text-rendering="optimizeSpeed" fill="#000000">Darwin (i386) (2)</text>
  <rect fill="blue" height="0.2" stroke="black" width="12" x="135" y="12125.8"/>
  <text x="135" y="12131.0" font-family="Tahoma" font-size="12" transform="rotate(90 135,12131.0)" text-rendering="optimizeSpeed" fill="#000000">DragonFlyBSD (amd64) (2)</text>
  <rect fill="blue" height="0.2" stroke="black" width="12" x="150" y="12125.8"/>
  <text x="150" y="12131.0" font-family="Tahoma" font-size="12" transform="rotate(90 150,12131.0)" text-rendering="optimizeSpeed" fill="#000000">z/OS (s390x) (2)</text>
  <rect fill="blue" height="0.3" stroke="black" width="12" x="165" y="12125.7"/>
  <text x="165" y="12131.0" font-family="Tahoma" font-size="12" transform="rotate(90 165,12131.0)" text-rendering="optimizeSpeed" fill="#000000">Linux (aarch64) (3)</text>
  <rect fill="blue" height="0.3" stroke="black" width="12" x="180" y="12125.7"/>
  <text x="180" y="12131.0" font-family="Tahoma" font-size="12" transform="rotate(90 180,12131.0)" text-rendering="optimizeSpeed" fill="#000000">OpenBSD (i386) (3)</text>
  <rect fill="blue" height="0.3" stroke="black" width="12" x="195" y="12125.7"/>
  <text x="195" y="12131.0" font-family="Tahoma" font-size="12" transform="rotate(90 195,12131.0)" text-rendering="optimizeSpeed" fill="#000000">z/OS (s390) (3)</text>
  <rect fill="blue" height="0.4" stroke="black" width="12" x="210" y="12125.6"/>
  <text x="210" y="12131.0" font-family="Tahoma" font-size="12" transform="rotate(90 210,12131.0)" text-rendering="optimizeSpeed" fill="#000000">HP-UX (ia64) (4)</text>
  <rect fill="blue" height="0.4" stroke="black" width="12" x="225" y="12125.6"/>
  <text x="225" y="12131.0" font-family="Tahoma" font-size="12" transform="rotate(90 225,12131.0)" text-rendering="optimizeSpeed" fill="#000000">Mac OS X (amd64) (4)</text>
  <rect fill="blue" height="0.4" stroke="black" width="12" x="240" y="12125.6"/>
  <text x="240" y="12131.0" font-family="Tahoma" font-size="12" transform="rotate(90 240,12131.0)" text-rendering="optimizeSpeed" fill="#000000">Windows (amd64) (4)</text>
  <rect fill="blue" height="0.5" stroke="black" width="12" x="255" y="12125.5"/>
  <text x="255" y="12131.0" font-family="Tahoma" font-size="12" transform="rotate(90 255,12131.0)" text-rendering="optimizeSpeed" fill="#000000">NetBSD (amd64) (5)</text>
  <rect fill="blue" height="0.5" stroke="black" width="12" x="270" y="12125.5"/>
  <text x="270" y="12131.0" font-family="Tahoma" font-size="12" transform="rotate(90 270,12131.0)" text-rendering="optimizeSpeed" fill="#000000">OS/400 (PowerPC) (5)</text>
  <rect fill="blue" height="0.8" stroke="black" width="12" x="285" y="12125.2"/>
  <text x="285" y="12131.0" font-family="Tahoma" font-size="12" transform="rotate(90 285,12131.0)" text-rendering="optimizeSpeed" fill="#000000">Linux (s390) (8)</text>
  <rect fill="blue" height="0.8" stroke="black" width="12" x="300" y="12125.2"/>
  <text x="300" y="12131.0" font-family="Tahoma" font-size="12" transform="rotate(90 300,12131.0)" text-rendering="optimizeSpeed" fill="#000000">NetBSD (i386) (8)</text>
  <rect fill="blue" height="0.9" stroke="black" width="12" x="315" y="12125.1"/>
  <text x="315" y="12131.0" font-family="Tahoma" font-size="12" transform="rotate(90 315,12131.0)" text-rendering="optimizeSpeed" fill="#000000">Windows Server 2003 (amd64) (9)</text>
  <rect fill="blue" height="1.5" stroke="black" width="12" x="330" y="12124.5"/>
  <text x="330" y="12131.0" font-family="Tahoma" font-size="12" transform="rotate(90 330,12131.0)" text-rendering="optimizeSpeed" fill="#000000">HP-UX (IA64W) (15)</text>
  <rect fill="blue" height="1.5" stroke="black" width="12" x="345" y="12124.5"/>
  <text x="345" y="12131.0" font-family="Tahoma" font-size="12" transform="rotate(90 345,12131.0)" text-rendering="optimizeSpeed" fill="#000000">Linux (ppc64le) (15)</text>
  <rect fill="blue" height="1.7" stroke="black" width="12" x="360" y="12124.3"/>
  <text x="360" y="12131.0" font-family="Tahoma" font-size="12" transform="rotate(90 360,12131.0)" text-rendering="optimizeSpeed" fill="#000000">Linux (ia64) (17)</text>
  <rect fill="blue" height="1.7" stroke="black" width="12" x="375" y="12124.3"/>
  <text x="375" y="12131.0" font-family="Tahoma" font-size="12" transform="rotate(90 375,12131.0)" text-rendering="optimizeSpeed" fill="#000000">OpenBSD (amd64) (17)</text>
  <rect fill="blue" height="2.3" stroke="black" width="12" x="390" y="12123.7"/>
  <text x="390" y="12131.0" font-family="Tahoma" font-size="12" transform="rotate(90 390,12131.0)" text-rendering="optimizeSpeed" fill="#000000">Mac OS X (i386) (23)</text>
  <rect fill="blue" height="3.1" stroke="black" width="12" x="405" y="12122.9"/>
  <text x="405" y="12131.0" font-family="Tahoma" font-size="12" transform="rotate(90 405,12131.0)" text-rendering="optimizeSpeed" fill="#000000">Windows 2000 (x86) (31)</text>
  <rect fill="blue" height="3.6" stroke="black" width="12" x="420" y="12122.4"/>
  <text x="420" y="12131.0" font-family="Tahoma" font-size="12" transform="rotate(90 420,12131.0)" text-rendering="optimizeSpeed" fill="#000000">Linux (ppc) (36)</text>
  <rect fill="blue" height="4.2" stroke="black" width="12" x="435" y="12121.8"/>
  <text x="435" y="12131.0" font-family="Tahoma" font-size="12" transform="rotate(90 435,12131.0)" text-rendering="optimizeSpeed" fill="#000000">Windows Server 2003 (x86) (42)</text>
  <rect fill="blue" height="6.4" stroke="black" width="12" x="450" y="12119.6"/>
  <text x="450" y="12131.0" font-family="Tahoma" font-size="12" transform="rotate(90 450,12131.0)" text-rendering="optimizeSpeed" fill="#000000">HP-UX (PA_RISC2.0) (64)</text>
  <rect fill="blue" height="8.4" stroke="black" width="12" x="465" y="12117.6"/>
  <text x="465" y="12131.0" font-family="Tahoma" font-size="12" transform="rotate(90 465,12131.0)" text-rendering="optimizeSpeed" fill="#000000">Windows XP (amd64) (84)</text>
  <rect fill="blue" height="8.7" stroke="black" width="12" x="480" y="12117.3"/>
  <text x="480" y="12131.0" font-family="Tahoma" font-size="12" transform="rotate(90 480,12131.0)" text-rendering="optimizeSpeed" fill="#000000">Linux (s390x) (87)</text>
  <rect fill="blue" height="10.3" stroke="black" width="12" x="495" y="12115.7"/>
  <text x="495" y="12131.0" font-family="Tahoma" font-size="12" transform="rotate(90 495,12131.0)" text-rendering="optimizeSpeed" fill="#000000">Windows Vista (amd64) (103)</text>
  <rect fill="blue" height="11.8" stroke="black" width="12" x="510" y="12114.2"/>
  <text x="510" y="12131.0" font-family="Tahoma" font-size="12" transform="rotate(90 510,12131.0)" text-rendering="optimizeSpeed" fill="#000000">Linux (ppc64) (118)</text>
  <rect fill="blue" height="13.8" stroke="black" width="12" x="525" y="12112.2"/>
  <text x="525" y="12131.0" font-family="Tahoma" font-size="12" transform="rotate(90 525,12131.0)" text-rendering="optimizeSpeed" fill="#000000">SunOS (amd64) (138)</text>
  <rect fill="blue" height="14.5" stroke="black" width="12" x="540" y="12111.5"/>
  <text x="540" y="12131.0" font-family="Tahoma" font-size="12" transform="rotate(90 540,12131.0)" text-rendering="optimizeSpeed" fill="#000000">SunOS (sparcv9) (145)</text>
  <rect fill="blue" height="17.4" stroke="black" width="12" x="555" y="12108.6"/>
  <text x="555" y="12131.0" font-family="Tahoma" font-size="12" transform="rotate(90 555,12131.0)" text-rendering="optimizeSpeed" fill="#000000">FreeBSD (i386) (174)</text>
  <rect fill="blue" height="17.9" stroke="black" width="12" x="570" y="12108.1"/>
  <text x="570" y="12131.0" font-family="Tahoma" font-size="12" transform="rotate(90 570,12131.0)" text-rendering="optimizeSpeed" fill="#000000">Linux (x86) (179)</text>
  <rect fill="blue" height="22.2" stroke="black" width="12" x="585" y="12103.8"/>
  <text x="585" y="12131.0" font-family="Tahoma" font-size="12" transform="rotate(90 585,12131.0)" text-rendering="optimizeSpeed" fill="#000000">Linux (arm) (222)</text>
  <rect fill="blue" height="23.6" stroke="black" width="12" x="600" y="12102.4"/>
  <text x="600" y="12131.0" font-family="Tahoma" font-size="12" transform="rotate(90 600,12131.0)" text-rendering="optimizeSpeed" fill="#000000">HP-UX (IA64N) (236)</text>
  <rect fill="blue" height="32.1" stroke="black" width="12" x="615" y="12093.9"/>
  <text x="615" y="12131.0" font-family="Tahoma" font-size="12" transform="rotate(90 615,12131.0)" text-rendering="optimizeSpeed" fill="#000000">Windows NT (unknown) (x86) (321)</text>
  <rect fill="blue" height="34.1" stroke="black" width="12" x="630" y="12091.9"/>
  <text x="630" y="12131.0" font-family="Tahoma" font-size="12" transform="rotate(90 630,12131.0)" text-rendering="optimizeSpeed" fill="#000000">Windows Server 2012 R2 (x86) (341)</text>
  <rect fill="blue" height="35.6" stroke="black" width="12" x="645" y="12090.4"/>
  <text x="645" y="12131.0" font-family="Tahoma" font-size="12" transform="rotate(90 645,12131.0)" text-rendering="optimizeSpeed" fill="#000000">Windows NT (unknown) (amd64) (356)</text>
  <rect fill="blue" height="41.1" stroke="black" width="12" x="660" y="12084.9"/>
  <text x="660" y="12131.0" font-family="Tahoma" font-size="12" transform="rotate(90 660,12131.0)" text-rendering="optimizeSpeed" fill="#000000">Windows 8.1 (x86) (411)</text>
  <rect fill="blue" height="42.6" stroke="black" width="12" x="675" y="12083.4"/>
  <text x="675" y="12131.0" font-family="Tahoma" font-size="12" transform="rotate(90 675,12131.0)" text-rendering="optimizeSpeed" fill="#000000">FreeBSD (amd64) (426)</text>
  <rect fill="blue" height="45.3" stroke="black" width="12" x="690" y="12080.7"/>
  <text x="690" y="12131.0" font-family="Tahoma" font-size="12" transform="rotate(90 690,12131.0)" text-rendering="optimizeSpeed" fill="#000000">AIX (ppc) (453)</text>
  <rect fill="blue" height="59.5" stroke="black" width="12" x="705" y="12066.5"/>
  <text x="705" y="12131.0" font-family="Tahoma" font-size="12" transform="rotate(90 705,12131.0)" text-rendering="optimizeSpeed" fill="#000000">Windows Vista (x86) (595)</text>
  <rect fill="blue" height="60.5" stroke="black" width="12" x="720" y="12065.5"/>
  <text x="720" y="12131.0" font-family="Tahoma" font-size="12" transform="rotate(90 720,12131.0)" text-rendering="optimizeSpeed" fill="#000000">Windows 8.1 (amd64) (605)</text>
  <rect fill="blue" height="63.5" stroke="black" width="12" x="735" y="12062.5"/>
  <text x="735" y="12131.0" font-family="Tahoma" font-size="12" transform="rotate(90 735,12131.0)" text-rendering="optimizeSpeed" fill="#000000">Windows 2003 (amd64) (635)</text>
  <rect fill="blue" height="75.1" stroke="black" width="12" x="750" y="12050.9"/>
  <text x="750" y="12131.0" font-family="Tahoma" font-size="12" transform="rotate(90 750,12131.0)" text-rendering="optimizeSpeed" fill="#000000">AIX (ppc64) (751)</text>
  <rect fill="blue" height="79.6" stroke="black" width="12" x="765" y="12046.4"/>
  <text x="765" y="12131.0" font-family="Tahoma" font-size="12" transform="rotate(90 765,12131.0)" text-rendering="optimizeSpeed" fill="#000000">Windows Server 2008 (amd64) (796)</text>
  <rect fill="blue" height="85.8" stroke="black" width="12" x="780" y="12040.2"/>
  <text x="780" y="12131.0" font-family="Tahoma" font-size="12" transform="rotate(90 780,12131.0)" text-rendering="optimizeSpeed" fill="#000000">Windows 8 (amd64) (858)</text>
  <rect fill="blue" height="115.8" stroke="black" width="12" x="795" y="12010.2"/>
  <text x="795" y="12131.0" font-family="Tahoma" font-size="12" transform="rotate(90 795,12131.0)" text-rendering="optimizeSpeed" fill="#000000">Windows Server 2012 R2 (amd64) (1158)</text>
  <rect fill="blue" height="128.8" stroke="black" width="12" x="810" y="11997.2"/>
  <text x="810" y="12131.0" font-family="Tahoma" font-size="12" transform="rotate(90 810,12131.0)" text-rendering="optimizeSpeed" fill="#000000">SunOS (x86) (1288)</text>
  <rect fill="blue" height="159.3" stroke="black" width="12" x="825" y="11966.7"/>
  <text x="825" y="12131.0" font-family="Tahoma" font-size="12" transform="rotate(90 825,12131.0)" text-rendering="optimizeSpeed" fill="#000000">SunOS (sparc) (1593)</text>
  <rect fill="blue" height="164.1" stroke="black" width="12" x="840" y="11961.9"/>
  <text x="840" y="12131.0" font-family="Tahoma" font-size="12" transform="rotate(90 840,12131.0)" text-rendering="optimizeSpeed" fill="#000000">Windows Server 2008 (x86) (1641)</text>
  <rect fill="blue" height="165.3" stroke="black" width="12" x="855" y="11960.7"/>
  <text x="855" y="12131.0" font-family="Tahoma" font-size="12" transform="rotate(90 855,12131.0)" text-rendering="optimizeSpeed" fill="#000000">Windows Server 2012 (amd64) (1653)</text>
  <rect fill="blue" height="173.4" stroke="black" width="12" x="870" y="11952.6"/>
  <text x="870" y="12131.0" font-family="Tahoma" font-size="12" transform="rotate(90 870,12131.0)" text-rendering="optimizeSpeed" fill="#000000">Windows 8 (x86) (1734)</text>
  <rect fill="blue" height="255.8" stroke="black" width="12" x="885" y="11870.2"/>
  <text x="885" y="12131.0" font-family="Tahoma" font-size="12" transform="rotate(90 885,12131.0)" text-rendering="optimizeSpeed" fill="#000000">Windows Server 2012 (x86) (2558)</text>
  <rect fill="blue" height="340.0" stroke="black" width="12" x="900" y="11786.0"/>
  <text x="900" y="12131.0" font-family="Tahoma" font-size="12" transform="rotate(90 900,12131.0)" text-rendering="optimizeSpeed" fill="#000000">Windows XP (x86) (3400)</text>
  <rect fill="blue" height="421.2" stroke="black" width="12" x="915" y="11704.8"/>
  <text x="915" y="12131.0" font-family="Tahoma" font-size="12" transform="rotate(90 915,12131.0)" text-rendering="optimizeSpeed" fill="#000000">Windows 2003 (x86) (4212)</text>
  <rect fill="blue" height="963.8" stroke="black" width="12" x="930" y="11162.2"/>
  <text x="930" y="12131.0" font-family="Tahoma" font-size="12" transform="rotate(90 930,12131.0)" text-rendering="optimizeSpeed" fill="#000000">Windows Server 2008 R2 (x86) (9638)</text>
  <rect fill="blue" height="1141.2" stroke="black" width="12" x="945" y="10984.8"/>
  <text x="945" y="12131.0" font-family="Tahoma" font-size="12" transform="rotate(90 945,12131.0)" text-rendering="optimizeSpeed" fill="#000000">Windows 7 (amd64) (11412)</text>
  <rect fill="blue" height="1187.6" stroke="black" width="12" x="960" y="10938.4"/>
  <text x="960" y="12131.0" font-family="Tahoma" font-size="12" transform="rotate(90 960,12131.0)" text-rendering="optimizeSpeed" fill="#000000">Mac OS X (x86_64) (11876)</text>
  <rect fill="blue" height="1200.5" stroke="black" width="12" x="975" y="10925.5"/>
  <text x="975" y="12131.0" font-family="Tahoma" font-size="12" transform="rotate(90 975,12131.0)" text-rendering="optimizeSpeed" fill="#000000">Windows Server 2008 R2 (amd64) (12005)</text>
  <rect fill="blue" height="1631.8" stroke="black" width="12" x="990" y="10494.2"/>
  <text x="990" y="12131.0" font-family="Tahoma" font-size="12" transform="rotate(90 990,12131.0)" text-rendering="optimizeSpeed" fill="#000000">Linux (i386) (16318)</text>
  <rect fill="blue" height="1854.8" stroke="black" width="12" x="1005" y="10271.2"/>
  <text x="1005" y="12131.0" font-family="Tahoma" font-size="12" transform="rotate(90 1005,12131.0)" text-rendering="optimizeSpeed" fill="#000000">Windows 7 (x86) (18548)</text>
  <rect fill="blue" height="7116.5" stroke="black" width="12" x="1020" y="5009.5"/>
  <text x="1020" y="12131.0" font-family="Tahoma" font-size="12" transform="rotate(90 1020,12131.0)" text-rendering="optimizeSpeed" fill="#000000">N/A (71165)</text>
  <rect fill="blue" height="12076.0" stroke="black" width="12" x="1035" y="50.0"/>
  <text x="1035" y="12131.0" font-family="Tahoma" font-size="12" transform="rotate(90 1035,12131.0)" text-rendering="optimizeSpeed" fill="#000000">Linux (amd64) (120760)</text>
  <text x="10" y="40" font-family="Tahoma" font-size="20" text-rendering="optimizeSpeed" fill="#000000">Nodes (total: 299322)</text>
</svg>
