<svg xmlns="http://www.w3.org/2000/svg" version="1.1" preserveAspectRatio="xMidYMid meet" viewBox="0 0 1100 8855.3">
  <rect fill="blue" height="0.1" stroke="black" width="12" x="15" y="8555.2"/>
  <text x="15" y="8560.3" font-family="Tahoma" font-size="12" transform="rotate(90 15,8560.3)" text-rendering="optimizeSpeed" fill="#000000">Darwin (amd64) (1)</text>
  <rect fill="blue" height="0.1" stroke="black" width="12" x="30" y="8555.2"/>
  <text x="30" y="8560.3" font-family="Tahoma" font-size="12" transform="rotate(90 30,8560.3)" text-rendering="optimizeSpeed" fill="#000000">Darwin (universal) (1)</text>
  <rect fill="blue" height="0.1" stroke="black" width="12" x="45" y="8555.2"/>
  <text x="45" y="8560.3" font-family="Tahoma" font-size="12" transform="rotate(90 45,8560.3)" text-rendering="optimizeSpeed" fill="#000000">DragonFly (amd64) (1)</text>
  <rect fill="blue" height="0.1" stroke="black" width="12" x="60" y="8555.2"/>
  <text x="60" y="8560.3" font-family="Tahoma" font-size="12" transform="rotate(90 60,8560.3)" text-rendering="optimizeSpeed" fill="#000000">HP-UX (PA_RISC2.0W) (1)</text>
  <rect fill="blue" height="0.1" stroke="black" width="12" x="75" y="8555.2"/>
  <text x="75" y="8560.3" font-family="Tahoma" font-size="12" transform="rotate(90 75,8560.3)" text-rendering="optimizeSpeed" fill="#000000">HP-UX (ia64) (1)</text>
  <rect fill="blue" height="0.1" stroke="black" width="12" x="90" y="8555.2"/>
  <text x="90" y="8560.3" font-family="Tahoma" font-size="12" transform="rotate(90 90,8560.3)" text-rendering="optimizeSpeed" fill="#000000">HeLiOS (amd64) (1)</text>
  <rect fill="blue" height="0.1" stroke="black" width="12" x="105" y="8555.2"/>
  <text x="105" y="8560.3" font-family="Tahoma" font-size="12" transform="rotate(90 105,8560.3)" text-rendering="optimizeSpeed" fill="#000000">Linux (aarch64) (1)</text>
  <rect fill="blue" height="0.1" stroke="black" width="12" x="120" y="8555.2"/>
  <text x="120" y="8560.3" font-family="Tahoma" font-size="12" transform="rotate(90 120,8560.3)" text-rendering="optimizeSpeed" fill="#000000">Linux (mips) (1)</text>
  <rect fill="blue" height="0.1" stroke="black" width="12" x="135" y="8555.2"/>
  <text x="135" y="8560.3" font-family="Tahoma" font-size="12" transform="rotate(90 135,8560.3)" text-rendering="optimizeSpeed" fill="#000000">Linux (mipsel) (1)</text>
  <rect fill="blue" height="0.1" stroke="black" width="12" x="150" y="8555.2"/>
  <text x="150" y="8560.3" font-family="Tahoma" font-size="12" transform="rotate(90 150,8560.3)" text-rendering="optimizeSpeed" fill="#000000">Linux (ppc64le) (1)</text>
  <rect fill="blue" height="0.1" stroke="black" width="12" x="165" y="8555.2"/>
  <text x="165" y="8560.3" font-family="Tahoma" font-size="12" transform="rotate(90 165,8560.3)" text-rendering="optimizeSpeed" fill="#000000">Linux (sparc) (1)</text>
  <rect fill="blue" height="0.1" stroke="black" width="12" x="180" y="8555.2"/>
  <text x="180" y="8560.3" font-family="Tahoma" font-size="12" transform="rotate(90 180,8560.3)" text-rendering="optimizeSpeed" fill="#000000">UnixWare (IA32) (1)</text>
  <rect fill="blue" height="0.1" stroke="black" width="12" x="195" y="8555.2"/>
  <text x="195" y="8560.3" font-family="Tahoma" font-size="12" transform="rotate(90 195,8560.3)" text-rendering="optimizeSpeed" fill="#000000">Windows 8.1 (x86) (1)</text>
  <rect fill="blue" height="0.1" stroke="black" width="12" x="210" y="8555.2"/>
  <text x="210" y="8560.3" font-family="Tahoma" font-size="12" transform="rotate(90 210,8560.3)" text-rendering="optimizeSpeed" fill="#000000">Windows Server 2008 R2 (ia64) (1)</text>
  <rect fill="blue" height="0.1" stroke="black" width="12" x="225" y="8555.2"/>
  <text x="225" y="8560.3" font-family="Tahoma" font-size="12" transform="rotate(90 225,8560.3)" text-rendering="optimizeSpeed" fill="#000000">Windows Server 2012 R2 (amd64) (1)</text>
  <rect fill="blue" height="0.2" stroke="black" width="12" x="240" y="8555.1"/>
  <text x="240" y="8560.3" font-family="Tahoma" font-size="12" transform="rotate(90 240,8560.3)" text-rendering="optimizeSpeed" fill="#000000">Darwin (i386) (2)</text>
  <rect fill="blue" height="0.2" stroke="black" width="12" x="255" y="8555.1"/>
  <text x="255" y="8560.3" font-family="Tahoma" font-size="12" transform="rotate(90 255,8560.3)" text-rendering="optimizeSpeed" fill="#000000">Mac OS X (ppc) (2)</text>
  <rect fill="blue" height="0.2" stroke="black" width="12" x="270" y="8555.1"/>
  <text x="270" y="8560.3" font-family="Tahoma" font-size="12" transform="rotate(90 270,8560.3)" text-rendering="optimizeSpeed" fill="#000000">OS/400 (PowerPC) (2)</text>
  <rect fill="blue" height="0.3" stroke="black" width="12" x="285" y="8555.0"/>
  <text x="285" y="8560.3" font-family="Tahoma" font-size="12" transform="rotate(90 285,8560.3)" text-rendering="optimizeSpeed" fill="#000000">NONSTOP_KERNEL (IA64N) (3)</text>
  <rect fill="blue" height="0.3" stroke="black" width="12" x="300" y="8555.0"/>
  <text x="300" y="8560.3" font-family="Tahoma" font-size="12" transform="rotate(90 300,8560.3)" text-rendering="optimizeSpeed" fill="#000000">z/OS (s390) (3)</text>
  <rect fill="blue" height="0.4" stroke="black" width="12" x="315" y="8554.9"/>
  <text x="315" y="8560.3" font-family="Tahoma" font-size="12" transform="rotate(90 315,8560.3)" text-rendering="optimizeSpeed" fill="#000000">NetBSD (amd64) (4)</text>
  <rect fill="blue" height="0.4" stroke="black" width="12" x="330" y="8554.9"/>
  <text x="330" y="8560.3" font-family="Tahoma" font-size="12" transform="rotate(90 330,8560.3)" text-rendering="optimizeSpeed" fill="#000000">NetBSD (i386) (4)</text>
  <rect fill="blue" height="0.4" stroke="black" width="12" x="345" y="8554.9"/>
  <text x="345" y="8560.3" font-family="Tahoma" font-size="12" transform="rotate(90 345,8560.3)" text-rendering="optimizeSpeed" fill="#000000">OpenBSD (i386) (4)</text>
  <rect fill="blue" height="0.5" stroke="black" width="12" x="360" y="8554.8"/>
  <text x="360" y="8560.3" font-family="Tahoma" font-size="12" transform="rotate(90 360,8560.3)" text-rendering="optimizeSpeed" fill="#000000">Windows 8.1 (amd64) (5)</text>
  <rect fill="blue" height="0.8" stroke="black" width="12" x="375" y="8554.5"/>
  <text x="375" y="8560.3" font-family="Tahoma" font-size="12" transform="rotate(90 375,8560.3)" text-rendering="optimizeSpeed" fill="#000000">Mac OS X (amd64) (8)</text>
  <rect fill="blue" height="1.0" stroke="black" width="12" x="390" y="8554.3"/>
  <text x="390" y="8560.3" font-family="Tahoma" font-size="12" transform="rotate(90 390,8560.3)" text-rendering="optimizeSpeed" fill="#000000">Linux (s390) (10)</text>
  <rect fill="blue" height="1.2" stroke="black" width="12" x="405" y="8554.1"/>
  <text x="405" y="8560.3" font-family="Tahoma" font-size="12" transform="rotate(90 405,8560.3)" text-rendering="optimizeSpeed" fill="#000000">OpenBSD (amd64) (12)</text>
  <rect fill="blue" height="1.2" stroke="black" width="12" x="420" y="8554.1"/>
  <text x="420" y="8560.3" font-family="Tahoma" font-size="12" transform="rotate(90 420,8560.3)" text-rendering="optimizeSpeed" fill="#000000">Windows Server 2003 (amd64) (12)</text>
  <rect fill="blue" height="1.7" stroke="black" width="12" x="435" y="8553.6"/>
  <text x="435" y="8560.3" font-family="Tahoma" font-size="12" transform="rotate(90 435,8560.3)" text-rendering="optimizeSpeed" fill="#000000">Windows Server 2003 (x86) (17)</text>
  <rect fill="blue" height="2.2" stroke="black" width="12" x="450" y="8553.1"/>
  <text x="450" y="8560.3" font-family="Tahoma" font-size="12" transform="rotate(90 450,8560.3)" text-rendering="optimizeSpeed" fill="#000000">Linux (ia64) (22)</text>
  <rect fill="blue" height="2.8" stroke="black" width="12" x="465" y="8552.5"/>
  <text x="465" y="8560.3" font-family="Tahoma" font-size="12" transform="rotate(90 465,8560.3)" text-rendering="optimizeSpeed" fill="#000000">Windows 2000 (x86) (28)</text>
  <rect fill="blue" height="2.9" stroke="black" width="12" x="480" y="8552.4"/>
  <text x="480" y="8560.3" font-family="Tahoma" font-size="12" transform="rotate(90 480,8560.3)" text-rendering="optimizeSpeed" fill="#000000">HP-UX (IA64W) (29)</text>
  <rect fill="blue" height="3.4" stroke="black" width="12" x="495" y="8551.9"/>
  <text x="495" y="8560.3" font-family="Tahoma" font-size="12" transform="rotate(90 495,8560.3)" text-rendering="optimizeSpeed" fill="#000000">Linux (ppc) (34)</text>
  <rect fill="blue" height="4.6" stroke="black" width="12" x="510" y="8550.7"/>
  <text x="510" y="8560.3" font-family="Tahoma" font-size="12" transform="rotate(90 510,8560.3)" text-rendering="optimizeSpeed" fill="#000000">Mac OS X (i386) (46)</text>
  <rect fill="blue" height="6.7" stroke="black" width="12" x="525" y="8548.6"/>
  <text x="525" y="8560.3" font-family="Tahoma" font-size="12" transform="rotate(90 525,8560.3)" text-rendering="optimizeSpeed" fill="#000000">Linux (s390x) (67)</text>
  <rect fill="blue" height="7.8" stroke="black" width="12" x="540" y="8547.5"/>
  <text x="540" y="8560.3" font-family="Tahoma" font-size="12" transform="rotate(90 540,8560.3)" text-rendering="optimizeSpeed" fill="#000000">HP-UX (PA_RISC2.0) (78)</text>
  <rect fill="blue" height="8.5" stroke="black" width="12" x="555" y="8546.8"/>
  <text x="555" y="8560.3" font-family="Tahoma" font-size="12" transform="rotate(90 555,8560.3)" text-rendering="optimizeSpeed" fill="#000000">Linux (ppc64) (85)</text>
  <rect fill="blue" height="9.3" stroke="black" width="12" x="570" y="8546.0"/>
  <text x="570" y="8560.3" font-family="Tahoma" font-size="12" transform="rotate(90 570,8560.3)" text-rendering="optimizeSpeed" fill="#000000">SunOS (amd64) (93)</text>
  <rect fill="blue" height="10.9" stroke="black" width="12" x="585" y="8544.4"/>
  <text x="585" y="8560.3" font-family="Tahoma" font-size="12" transform="rotate(90 585,8560.3)" text-rendering="optimizeSpeed" fill="#000000">Windows Vista (amd64) (109)</text>
  <rect fill="blue" height="11.3" stroke="black" width="12" x="600" y="8544.0"/>
  <text x="600" y="8560.3" font-family="Tahoma" font-size="12" transform="rotate(90 600,8560.3)" text-rendering="optimizeSpeed" fill="#000000">SunOS (sparcv9) (113)</text>
  <rect fill="blue" height="11.6" stroke="black" width="12" x="615" y="8543.7"/>
  <text x="615" y="8560.3" font-family="Tahoma" font-size="12" transform="rotate(90 615,8560.3)" text-rendering="optimizeSpeed" fill="#000000">Windows XP (amd64) (116)</text>
  <rect fill="blue" height="14.9" stroke="black" width="12" x="630" y="8540.4"/>
  <text x="630" y="8560.3" font-family="Tahoma" font-size="12" transform="rotate(90 630,8560.3)" text-rendering="optimizeSpeed" fill="#000000">FreeBSD (i386) (149)</text>
  <rect fill="blue" height="15.0" stroke="black" width="12" x="645" y="8540.3"/>
  <text x="645" y="8560.3" font-family="Tahoma" font-size="12" transform="rotate(90 645,8560.3)" text-rendering="optimizeSpeed" fill="#000000">Linux (arm) (150)</text>
  <rect fill="blue" height="17.1" stroke="black" width="12" x="660" y="8538.2"/>
  <text x="660" y="8560.3" font-family="Tahoma" font-size="12" transform="rotate(90 660,8560.3)" text-rendering="optimizeSpeed" fill="#000000">Linux (x86) (171)</text>
  <rect fill="blue" height="19.5" stroke="black" width="12" x="675" y="8535.8"/>
  <text x="675" y="8560.3" font-family="Tahoma" font-size="12" transform="rotate(90 675,8560.3)" text-rendering="optimizeSpeed" fill="#000000">HP-UX (IA64N) (195)</text>
  <rect fill="blue" height="25.1" stroke="black" width="12" x="690" y="8530.2"/>
  <text x="690" y="8560.3" font-family="Tahoma" font-size="12" transform="rotate(90 690,8560.3)" text-rendering="optimizeSpeed" fill="#000000">Windows NT (unknown) (amd64) (251)</text>
  <rect fill="blue" height="30.7" stroke="black" width="12" x="705" y="8524.6"/>
  <text x="705" y="8560.3" font-family="Tahoma" font-size="12" transform="rotate(90 705,8560.3)" text-rendering="optimizeSpeed" fill="#000000">FreeBSD (amd64) (307)</text>
  <rect fill="blue" height="31.3" stroke="black" width="12" x="720" y="8524.0"/>
  <text x="720" y="8560.3" font-family="Tahoma" font-size="12" transform="rotate(90 720,8560.3)" text-rendering="optimizeSpeed" fill="#000000">Windows NT (unknown) (x86) (313)</text>
  <rect fill="blue" height="38.6" stroke="black" width="12" x="735" y="8516.7"/>
  <text x="735" y="8560.3" font-family="Tahoma" font-size="12" transform="rotate(90 735,8560.3)" text-rendering="optimizeSpeed" fill="#000000">AIX (ppc) (386)</text>
  <rect fill="blue" height="51.9" stroke="black" width="12" x="750" y="8503.4"/>
  <text x="750" y="8560.3" font-family="Tahoma" font-size="12" transform="rotate(90 750,8560.3)" text-rendering="optimizeSpeed" fill="#000000">AIX (ppc64) (519)</text>
  <rect fill="blue" height="59.6" stroke="black" width="12" x="765" y="8495.7"/>
  <text x="765" y="8560.3" font-family="Tahoma" font-size="12" transform="rotate(90 765,8560.3)" text-rendering="optimizeSpeed" fill="#000000">Windows Vista (x86) (596)</text>
  <rect fill="blue" height="66.7" stroke="black" width="12" x="780" y="8488.6"/>
  <text x="780" y="8560.3" font-family="Tahoma" font-size="12" transform="rotate(90 780,8560.3)" text-rendering="optimizeSpeed" fill="#000000">Windows 2003 (amd64) (667)</text>
  <rect fill="blue" height="67.0" stroke="black" width="12" x="795" y="8488.3"/>
  <text x="795" y="8560.3" font-family="Tahoma" font-size="12" transform="rotate(90 795,8560.3)" text-rendering="optimizeSpeed" fill="#000000">Windows Server 2008 (amd64) (670)</text>
  <rect fill="blue" height="74.0" stroke="black" width="12" x="810" y="8481.3"/>
  <text x="810" y="8560.3" font-family="Tahoma" font-size="12" transform="rotate(90 810,8560.3)" text-rendering="optimizeSpeed" fill="#000000">Windows 8 (amd64) (740)</text>
  <rect fill="blue" height="95.7" stroke="black" width="12" x="825" y="8459.6"/>
  <text x="825" y="8560.3" font-family="Tahoma" font-size="12" transform="rotate(90 825,8560.3)" text-rendering="optimizeSpeed" fill="#000000">Windows Server 2012 (amd64) (957)</text>
  <rect fill="blue" height="99.5" stroke="black" width="12" x="840" y="8455.8"/>
  <text x="840" y="8560.3" font-family="Tahoma" font-size="12" transform="rotate(90 840,8560.3)" text-rendering="optimizeSpeed" fill="#000000">SunOS (x86) (995)</text>
  <rect fill="blue" height="119.8" stroke="black" width="12" x="855" y="8435.5"/>
  <text x="855" y="8560.3" font-family="Tahoma" font-size="12" transform="rotate(90 855,8560.3)" text-rendering="optimizeSpeed" fill="#000000">Windows 8 (x86) (1198)</text>
  <rect fill="blue" height="128.2" stroke="black" width="12" x="870" y="8427.1"/>
  <text x="870" y="8560.3" font-family="Tahoma" font-size="12" transform="rotate(90 870,8560.3)" text-rendering="optimizeSpeed" fill="#000000">Windows Server 2012 (x86) (1282)</text>
  <rect fill="blue" height="151.2" stroke="black" width="12" x="885" y="8404.1"/>
  <text x="885" y="8560.3" font-family="Tahoma" font-size="12" transform="rotate(90 885,8560.3)" text-rendering="optimizeSpeed" fill="#000000">SunOS (sparc) (1512)</text>
  <rect fill="blue" height="164.0" stroke="black" width="12" x="900" y="8391.3"/>
  <text x="900" y="8560.3" font-family="Tahoma" font-size="12" transform="rotate(90 900,8560.3)" text-rendering="optimizeSpeed" fill="#000000">Windows Server 2008 (x86) (1640)</text>
  <rect fill="blue" height="441.8" stroke="black" width="12" x="915" y="8113.5"/>
  <text x="915" y="8560.3" font-family="Tahoma" font-size="12" transform="rotate(90 915,8560.3)" text-rendering="optimizeSpeed" fill="#000000">Windows 2003 (x86) (4418)</text>
  <rect fill="blue" height="463.0" stroke="black" width="12" x="930" y="8092.3"/>
  <text x="930" y="8560.3" font-family="Tahoma" font-size="12" transform="rotate(90 930,8560.3)" text-rendering="optimizeSpeed" fill="#000000">Windows XP (x86) (4630)</text>
  <rect fill="blue" height="818.6" stroke="black" width="12" x="945" y="7736.7"/>
  <text x="945" y="8560.3" font-family="Tahoma" font-size="12" transform="rotate(90 945,8560.3)" text-rendering="optimizeSpeed" fill="#000000">Windows Server 2008 R2 (x86) (8186)</text>
  <rect fill="blue" height="825.5" stroke="black" width="12" x="960" y="7729.8"/>
  <text x="960" y="8560.3" font-family="Tahoma" font-size="12" transform="rotate(90 960,8560.3)" text-rendering="optimizeSpeed" fill="#000000">Windows 7 (amd64) (8255)</text>
  <rect fill="blue" height="834.8" stroke="black" width="12" x="975" y="7720.5"/>
  <text x="975" y="8560.3" font-family="Tahoma" font-size="12" transform="rotate(90 975,8560.3)" text-rendering="optimizeSpeed" fill="#000000">Windows Server 2008 R2 (amd64) (8348)</text>
  <rect fill="blue" height="924.1" stroke="black" width="12" x="990" y="7631.2"/>
  <text x="990" y="8560.3" font-family="Tahoma" font-size="12" transform="rotate(90 990,8560.3)" text-rendering="optimizeSpeed" fill="#000000">Mac OS X (x86_64) (9241)</text>
  <rect fill="blue" height="1468.4" stroke="black" width="12" x="1005" y="7086.9"/>
  <text x="1005" y="8560.3" font-family="Tahoma" font-size="12" transform="rotate(90 1005,8560.3)" text-rendering="optimizeSpeed" fill="#000000">Windows 7 (x86) (14684)</text>
  <rect fill="blue" height="1611.5" stroke="black" width="12" x="1020" y="6943.8"/>
  <text x="1020" y="8560.3" font-family="Tahoma" font-size="12" transform="rotate(90 1020,8560.3)" text-rendering="optimizeSpeed" fill="#000000">Linux (i386) (16115)</text>
  <rect fill="blue" height="5089.1" stroke="black" width="12" x="1035" y="3466.2"/>
  <text x="1035" y="8560.3" font-family="Tahoma" font-size="12" transform="rotate(90 1035,8560.3)" text-rendering="optimizeSpeed" fill="#000000">N/A (50891)</text>
  <rect fill="blue" height="8505.3" stroke="black" width="12" x="1050" y="50.0"/>
  <text x="1050" y="8560.3" font-family="Tahoma" font-size="12" transform="rotate(90 1050,8560.3)" text-rendering="optimizeSpeed" fill="#000000">Linux (amd64) (85053)</text>
  <text x="10" y="40" font-family="Tahoma" font-size="20" text-rendering="optimizeSpeed" fill="#000000">Nodes (total: 223442)</text>
</svg>
