<svg xmlns="http://www.w3.org/2000/svg" version="1.1" preserveAspectRatio="xMidYMid meet" viewBox="0 0 245 3029.1">
  <rect fill="blue" height="0.0" stroke="black" width="12" x="15" y="2729.1"/>
  <text x="15" y="2734.1" font-family="Tahoma" font-size="12" transform="rotate(90 15,2734.1)" text-rendering="optimizeSpeed" fill="#000000">org-jvnet-hudson-maven3-Maven3Project (1)</text>
  <rect fill="blue" height="0.0" stroke="black" width="12" x="30" y="2729.1"/>
  <text x="30" y="2734.1" font-family="Tahoma" font-size="12" transform="rotate(90 30,2734.1)" text-rendering="optimizeSpeed" fill="#000000">hudson-mm-MMModuleSet (5)</text>
  <rect fill="blue" height="0.0" stroke="black" width="12" x="45" y="2729.1"/>
  <text x="45" y="2734.1" font-family="Tahoma" font-size="12" transform="rotate(90 45,2734.1)" text-rendering="optimizeSpeed" fill="#000000">hudson-maven-MavenModuleSetExt (10)</text>
  <rect fill="blue" height="0.0" stroke="black" width="12" x="60" y="2729.1"/>
  <text x="60" y="2734.1" font-family="Tahoma" font-size="12" transform="rotate(90 60,2734.1)" text-rendering="optimizeSpeed" fill="#000000">hudson-plugins-job_dependency-projects-MasterProject (21)</text>
  <rect fill="blue" height="0.0" stroke="black" width="12" x="75" y="2729.1"/>
  <text x="75" y="2734.1" font-family="Tahoma" font-size="12" transform="rotate(90 75,2734.1)" text-rendering="optimizeSpeed" fill="#000000">hudson-maven-CIModuleSetExt (37)</text>
  <rect fill="blue" height="0.0" stroke="black" width="12" x="90" y="2729.1"/>
  <text x="90" y="2734.1" font-family="Tahoma" font-size="12" transform="rotate(90 90,2734.1)" text-rendering="optimizeSpeed" fill="#000000">hudson-aarworkflow-AARWorkflowProject (38)</text>
  <rect fill="blue" height="0.1" stroke="black" width="12" x="105" y="2729.0"/>
  <text x="105" y="2734.1" font-family="Tahoma" font-size="12" transform="rotate(90 105,2734.1)" text-rendering="optimizeSpeed" fill="#000000">hudson-workflow-WorkflowProject (143)</text>
  <rect fill="blue" height="2.9" stroke="black" width="12" x="120" y="2726.3"/>
  <text x="120" y="2734.1" font-family="Tahoma" font-size="12" transform="rotate(90 120,2734.1)" text-rendering="optimizeSpeed" fill="#000000">hudson-plugins-project_inheritance-projects-InheritanceProject (2851)</text>
  <rect fill="blue" height="4.2" stroke="black" width="12" x="135" y="2725.0"/>
  <text x="135" y="2734.1" font-family="Tahoma" font-size="12" transform="rotate(90 135,2734.1)" text-rendering="optimizeSpeed" fill="#000000">hudson-model-ExternalJob (4154)</text>
  <rect fill="blue" height="5.6" stroke="black" width="12" x="150" y="2723.6"/>
  <text x="150" y="2734.1" font-family="Tahoma" font-size="12" transform="rotate(90 150,2734.1)" text-rendering="optimizeSpeed" fill="#000000">hudson-ivy-IvyModuleSet (5562)</text>
  <rect fill="blue" height="90.1" stroke="black" width="12" x="165" y="2639.1"/>
  <text x="165" y="2734.1" font-family="Tahoma" font-size="12" transform="rotate(90 165,2734.1)" text-rendering="optimizeSpeed" fill="#000000">hudson-matrix-MatrixProject (90072)</text>
  <rect fill="blue" height="548.2" stroke="black" width="12" x="180" y="2181.0"/>
  <text x="180" y="2734.1" font-family="Tahoma" font-size="12" transform="rotate(90 180,2734.1)" text-rendering="optimizeSpeed" fill="#000000">hudson-maven-MavenModuleSet (548188)</text>
  <rect fill="blue" height="2679.1" stroke="black" width="12" x="195" y="50.0"/>
  <text x="195" y="2734.1" font-family="Tahoma" font-size="12" transform="rotate(90 195,2734.1)" text-rendering="optimizeSpeed" fill="#000000">hudson-model-FreeStyleProject (2679144)</text>
  <text x="10" y="40" font-family="Tahoma" font-size="20" text-rendering="optimizeSpeed" fill="#000000">Jobs (total: 3330226)</text>
</svg>
