<svg xmlns="http://www.w3.org/2000/svg" version="1.1" preserveAspectRatio="xMidYMid meet" viewBox="0 0 230 2853.7">
  <rect fill="blue" height="0.0" stroke="black" width="12" x="15" y="2553.7"/>
  <text x="15" y="2558.7" font-family="Tahoma" font-size="12" transform="rotate(90 15,2558.7)" text-rendering="optimizeSpeed" fill="#000000">org-jvnet-hudson-maven3-Maven3Project (1)</text>
  <rect fill="blue" height="0.0" stroke="black" width="12" x="30" y="2553.7"/>
  <text x="30" y="2558.7" font-family="Tahoma" font-size="12" transform="rotate(90 30,2558.7)" text-rendering="optimizeSpeed" fill="#000000">hudson-mm-MMModuleSet (2)</text>
  <rect fill="blue" height="0.0" stroke="black" width="12" x="45" y="2553.7"/>
  <text x="45" y="2558.7" font-family="Tahoma" font-size="12" transform="rotate(90 45,2558.7)" text-rendering="optimizeSpeed" fill="#000000">hudson-maven-MavenModuleSetExt (10)</text>
  <rect fill="blue" height="0.0" stroke="black" width="12" x="60" y="2553.7"/>
  <text x="60" y="2558.7" font-family="Tahoma" font-size="12" transform="rotate(90 60,2558.7)" text-rendering="optimizeSpeed" fill="#000000">hudson-aarworkflow-AARWorkflowProject (38)</text>
  <rect fill="blue" height="0.0" stroke="black" width="12" x="75" y="2553.7"/>
  <text x="75" y="2558.7" font-family="Tahoma" font-size="12" transform="rotate(90 75,2558.7)" text-rendering="optimizeSpeed" fill="#000000">hudson-maven-CIModuleSetExt (38)</text>
  <rect fill="blue" height="0.1" stroke="black" width="12" x="90" y="2553.6"/>
  <text x="90" y="2558.7" font-family="Tahoma" font-size="12" transform="rotate(90 90,2558.7)" text-rendering="optimizeSpeed" fill="#000000">hudson-workflow-WorkflowProject (143)</text>
  <rect fill="blue" height="2.6" stroke="black" width="12" x="105" y="2551.1"/>
  <text x="105" y="2558.7" font-family="Tahoma" font-size="12" transform="rotate(90 105,2558.7)" text-rendering="optimizeSpeed" fill="#000000">hudson-plugins-project_inheritance-projects-InheritanceProject (2593)</text>
  <rect fill="blue" height="4.2" stroke="black" width="12" x="120" y="2549.6"/>
  <text x="120" y="2558.7" font-family="Tahoma" font-size="12" transform="rotate(90 120,2558.7)" text-rendering="optimizeSpeed" fill="#000000">hudson-model-ExternalJob (4192)</text>
  <rect fill="blue" height="5.4" stroke="black" width="12" x="135" y="2548.4"/>
  <text x="135" y="2558.7" font-family="Tahoma" font-size="12" transform="rotate(90 135,2558.7)" text-rendering="optimizeSpeed" fill="#000000">hudson-ivy-IvyModuleSet (5366)</text>
  <rect fill="blue" height="85.1" stroke="black" width="12" x="150" y="2468.7"/>
  <text x="150" y="2558.7" font-family="Tahoma" font-size="12" transform="rotate(90 150,2558.7)" text-rendering="optimizeSpeed" fill="#000000">hudson-matrix-MatrixProject (85064)</text>
  <rect fill="blue" height="507.3" stroke="black" width="12" x="165" y="2046.4"/>
  <text x="165" y="2558.7" font-family="Tahoma" font-size="12" transform="rotate(90 165,2558.7)" text-rendering="optimizeSpeed" fill="#000000">hudson-maven-MavenModuleSet (507322)</text>
  <rect fill="blue" height="2503.7" stroke="black" width="12" x="180" y="50.0"/>
  <text x="180" y="2558.7" font-family="Tahoma" font-size="12" transform="rotate(90 180,2558.7)" text-rendering="optimizeSpeed" fill="#000000">hudson-model-FreeStyleProject (2503742)</text>
  <text x="10" y="40" font-family="Tahoma" font-size="20" text-rendering="optimizeSpeed" fill="#000000">Jobs (total: 3108511)</text>
</svg>
