<svg xmlns="http://www.w3.org/2000/svg" version="1.1" preserveAspectRatio="xMidYMid meet" viewBox="0 0 2045 1110.7">
  <rect fill="blue" height="25.5" stroke="black" width="12" x="15" y="785.2"/>
  <text x="15" y="815.7" font-family="Tahoma" font-size="12" transform="rotate(90 15,815.7)" text-rendering="optimizeSpeed" fill="#000000">powershell (2553)</text>
  <rect fill="blue" height="25.9" stroke="black" width="12" x="30" y="784.9"/>
  <text x="30" y="815.7" font-family="Tahoma" font-size="12" transform="rotate(90 30,815.7)" text-rendering="optimizeSpeed" fill="#000000">publish-over-ftp (2587)</text>
  <rect fill="blue" height="26.0" stroke="black" width="12" x="45" y="784.8"/>
  <text x="45" y="815.7" font-family="Tahoma" font-size="12" transform="rotate(90 45,815.7)" text-rendering="optimizeSpeed" fill="#000000">scriptler (2598)</text>
  <rect fill="blue" height="26.0" stroke="black" width="12" x="60" y="784.7"/>
  <text x="60" y="815.7" font-family="Tahoma" font-size="12" transform="rotate(90 60,815.7)" text-rendering="optimizeSpeed" fill="#000000">doxygen (2599)</text>
  <rect fill="blue" height="26.0" stroke="black" width="12" x="75" y="784.7"/>
  <text x="75" y="815.7" font-family="Tahoma" font-size="12" transform="rotate(90 75,815.7)" text-rendering="optimizeSpeed" fill="#000000">testng-plugin (2600)</text>
  <rect fill="blue" height="26.5" stroke="black" width="12" x="90" y="784.3"/>
  <text x="90" y="815.7" font-family="Tahoma" font-size="12" transform="rotate(90 90,815.7)" text-rendering="optimizeSpeed" fill="#000000">versionnumber (2646)</text>
  <rect fill="blue" height="26.6" stroke="black" width="12" x="105" y="784.1"/>
  <text x="105" y="815.7" font-family="Tahoma" font-size="12" transform="rotate(90 105,815.7)" text-rendering="optimizeSpeed" fill="#000000">radiatorviewplugin (2659)</text>
  <rect fill="blue" height="26.6" stroke="black" width="12" x="120" y="784.1"/>
  <text x="120" y="815.7" font-family="Tahoma" font-size="12" transform="rotate(90 120,815.7)" text-rendering="optimizeSpeed" fill="#000000">rake (2662)</text>
  <rect fill="blue" height="26.7" stroke="black" width="12" x="135" y="784.0"/>
  <text x="135" y="815.7" font-family="Tahoma" font-size="12" transform="rotate(90 135,815.7)" text-rendering="optimizeSpeed" fill="#000000">github-oauth (2674)</text>
  <rect fill="blue" height="26.8" stroke="black" width="12" x="150" y="784.0"/>
  <text x="150" y="815.7" font-family="Tahoma" font-size="12" transform="rotate(90 150,815.7)" text-rendering="optimizeSpeed" fill="#000000">project-stats-plugin (2677)</text>
  <rect fill="blue" height="27.3" stroke="black" width="12" x="165" y="783.5"/>
  <text x="165" y="815.7" font-family="Tahoma" font-size="12" transform="rotate(90 165,815.7)" text-rendering="optimizeSpeed" fill="#000000">batch-task (2726)</text>
  <rect fill="blue" height="27.3" stroke="black" width="12" x="180" y="783.4"/>
  <text x="180" y="815.7" font-family="Tahoma" font-size="12" transform="rotate(90 180,815.7)" text-rendering="optimizeSpeed" fill="#000000">buildgraph-view (2734)</text>
  <rect fill="blue" height="27.5" stroke="black" width="12" x="195" y="783.2"/>
  <text x="195" y="815.7" font-family="Tahoma" font-size="12" transform="rotate(90 195,815.7)" text-rendering="optimizeSpeed" fill="#000000">claim (2748)</text>
  <rect fill="blue" height="27.6" stroke="black" width="12" x="210" y="783.1"/>
  <text x="210" y="815.7" font-family="Tahoma" font-size="12" transform="rotate(90 210,815.7)" text-rendering="optimizeSpeed" fill="#000000">mask-passwords (2762)</text>
  <rect fill="blue" height="28.0" stroke="black" width="12" x="225" y="782.7"/>
  <text x="225" y="815.7" font-family="Tahoma" font-size="12" transform="rotate(90 225,815.7)" text-rendering="optimizeSpeed" fill="#000000">release (2801)</text>
  <rect fill="blue" height="28.3" stroke="black" width="12" x="240" y="782.5"/>
  <text x="240" y="815.7" font-family="Tahoma" font-size="12" transform="rotate(90 240,815.7)" text-rendering="optimizeSpeed" fill="#000000">android-emulator (2826)</text>
  <rect fill="blue" height="28.3" stroke="black" width="12" x="255" y="782.5"/>
  <text x="255" y="815.7" font-family="Tahoma" font-size="12" transform="rotate(90 255,815.7)" text-rendering="optimizeSpeed" fill="#000000">extra-columns (2827)</text>
  <rect fill="blue" height="28.4" stroke="black" width="12" x="270" y="782.3"/>
  <text x="270" y="815.7" font-family="Tahoma" font-size="12" transform="rotate(90 270,815.7)" text-rendering="optimizeSpeed" fill="#000000">all-changes (2841)</text>
  <rect fill="blue" height="28.5" stroke="black" width="12" x="285" y="782.3"/>
  <text x="285" y="815.7" font-family="Tahoma" font-size="12" transform="rotate(90 285,815.7)" text-rendering="optimizeSpeed" fill="#000000">groovy-postbuild (2846)</text>
  <rect fill="blue" height="28.5" stroke="black" width="12" x="300" y="782.2"/>
  <text x="300" y="815.7" font-family="Tahoma" font-size="12" transform="rotate(90 300,815.7)" text-rendering="optimizeSpeed" fill="#000000">next-build-number (2849)</text>
  <rect fill="blue" height="28.7" stroke="black" width="12" x="315" y="782.0"/>
  <text x="315" y="815.7" font-family="Tahoma" font-size="12" transform="rotate(90 315,815.7)" text-rendering="optimizeSpeed" fill="#000000">text-finder (2869)</text>
  <rect fill="blue" height="28.8" stroke="black" width="12" x="330" y="781.9"/>
  <text x="330" y="815.7" font-family="Tahoma" font-size="12" transform="rotate(90 330,815.7)" text-rendering="optimizeSpeed" fill="#000000">global-build-stats (2884)</text>
  <rect fill="blue" height="29.3" stroke="black" width="12" x="345" y="781.4"/>
  <text x="345" y="815.7" font-family="Tahoma" font-size="12" transform="rotate(90 345,815.7)" text-rendering="optimizeSpeed" fill="#000000">throttle-concurrents (2930)</text>
  <rect fill="blue" height="29.7" stroke="black" width="12" x="360" y="781.1"/>
  <text x="360" y="815.7" font-family="Tahoma" font-size="12" transform="rotate(90 360,815.7)" text-rendering="optimizeSpeed" fill="#000000">extended-choice-parameter (2967)</text>
  <rect fill="blue" height="29.8" stroke="black" width="12" x="375" y="780.9"/>
  <text x="375" y="815.7" font-family="Tahoma" font-size="12" transform="rotate(90 375,815.7)" text-rendering="optimizeSpeed" fill="#000000">nodelabelparameter (2978)</text>
  <rect fill="blue" height="29.8" stroke="black" width="12" x="390" y="780.9"/>
  <text x="390" y="815.7" font-family="Tahoma" font-size="12" transform="rotate(90 390,815.7)" text-rendering="optimizeSpeed" fill="#000000">description-setter (2984)</text>
  <rect fill="blue" height="29.9" stroke="black" width="12" x="405" y="780.8"/>
  <text x="405" y="815.7" font-family="Tahoma" font-size="12" transform="rotate(90 405,815.7)" text-rendering="optimizeSpeed" fill="#000000">sidebar-link (2994)</text>
  <rect fill="blue" height="30.3" stroke="black" width="12" x="420" y="780.4"/>
  <text x="420" y="815.7" font-family="Tahoma" font-size="12" transform="rotate(90 420,815.7)" text-rendering="optimizeSpeed" fill="#000000">config-file-provider (3030)</text>
  <rect fill="blue" height="30.6" stroke="black" width="12" x="435" y="780.1"/>
  <text x="435" y="815.7" font-family="Tahoma" font-size="12" transform="rotate(90 435,815.7)" text-rendering="optimizeSpeed" fill="#000000">console-column-plugin (3059)</text>
  <rect fill="blue" height="31.1" stroke="black" width="12" x="450" y="779.6"/>
  <text x="450" y="815.7" font-family="Tahoma" font-size="12" transform="rotate(90 450,815.7)" text-rendering="optimizeSpeed" fill="#000000">build-flow-plugin (3115)</text>
  <rect fill="blue" height="31.2" stroke="black" width="12" x="465" y="779.5"/>
  <text x="465" y="815.7" font-family="Tahoma" font-size="12" transform="rotate(90 465,815.7)" text-rendering="optimizeSpeed" fill="#000000">downstream-buildview (3123)</text>
  <rect fill="blue" height="31.4" stroke="black" width="12" x="480" y="779.3"/>
  <text x="480" y="815.7" font-family="Tahoma" font-size="12" transform="rotate(90 480,815.7)" text-rendering="optimizeSpeed" fill="#000000">configurationslicing (3140)</text>
  <rect fill="blue" height="32.5" stroke="black" width="12" x="495" y="778.2"/>
  <text x="495" y="815.7" font-family="Tahoma" font-size="12" transform="rotate(90 495,815.7)" text-rendering="optimizeSpeed" fill="#000000">audit-trail (3252)</text>
  <rect fill="blue" height="32.6" stroke="black" width="12" x="510" y="778.1"/>
  <text x="510" y="815.7" font-family="Tahoma" font-size="12" transform="rotate(90 510,815.7)" text-rendering="optimizeSpeed" fill="#000000">saferestart (3258)</text>
  <rect fill="blue" height="32.8" stroke="black" width="12" x="525" y="777.9"/>
  <text x="525" y="815.7" font-family="Tahoma" font-size="12" transform="rotate(90 525,815.7)" text-rendering="optimizeSpeed" fill="#000000">locks-and-latches (3281)</text>
  <rect fill="blue" height="33.0" stroke="black" width="12" x="540" y="777.7"/>
  <text x="540" y="815.7" font-family="Tahoma" font-size="12" transform="rotate(90 540,815.7)" text-rendering="optimizeSpeed" fill="#000000">jenkins-multijob-plugin (3301)</text>
  <rect fill="blue" height="33.0" stroke="black" width="12" x="555" y="777.7"/>
  <text x="555" y="815.7" font-family="Tahoma" font-size="12" transform="rotate(90 555,815.7)" text-rendering="optimizeSpeed" fill="#000000">rebuild (3305)</text>
  <rect fill="blue" height="33.3" stroke="black" width="12" x="570" y="777.5"/>
  <text x="570" y="815.7" font-family="Tahoma" font-size="12" transform="rotate(90 570,815.7)" text-rendering="optimizeSpeed" fill="#000000">multiple-scms (3327)</text>
  <rect fill="blue" height="33.4" stroke="black" width="12" x="585" y="777.3"/>
  <text x="585" y="815.7" font-family="Tahoma" font-size="12" transform="rotate(90 585,815.7)" text-rendering="optimizeSpeed" fill="#000000">perforce (3341)</text>
  <rect fill="blue" height="34.5" stroke="black" width="12" x="600" y="776.2"/>
  <text x="600" y="815.7" font-family="Tahoma" font-size="12" transform="rotate(90 600,815.7)" text-rendering="optimizeSpeed" fill="#000000">depgraph-view (3451)</text>
  <rect fill="blue" height="34.8" stroke="black" width="12" x="615" y="776.0"/>
  <text x="615" y="815.7" font-family="Tahoma" font-size="12" transform="rotate(90 615,815.7)" text-rendering="optimizeSpeed" fill="#000000">cloverphp (3475)</text>
  <rect fill="blue" height="35.2" stroke="black" width="12" x="630" y="775.5"/>
  <text x="630" y="815.7" font-family="Tahoma" font-size="12" transform="rotate(90 630,815.7)" text-rendering="optimizeSpeed" fill="#000000">python (3523)</text>
  <rect fill="blue" height="35.3" stroke="black" width="12" x="645" y="775.4"/>
  <text x="645" y="815.7" font-family="Tahoma" font-size="12" transform="rotate(90 645,815.7)" text-rendering="optimizeSpeed" fill="#000000">port-allocator (3528)</text>
  <rect fill="blue" height="35.4" stroke="black" width="12" x="660" y="775.4"/>
  <text x="660" y="815.7" font-family="Tahoma" font-size="12" transform="rotate(90 660,815.7)" text-rendering="optimizeSpeed" fill="#000000">nunit (3536)</text>
  <rect fill="blue" height="35.6" stroke="black" width="12" x="675" y="775.1"/>
  <text x="675" y="815.7" font-family="Tahoma" font-size="12" transform="rotate(90 675,815.7)" text-rendering="optimizeSpeed" fill="#000000">xcode-plugin (3563)</text>
  <rect fill="blue" height="36.0" stroke="black" width="12" x="690" y="774.7"/>
  <text x="690" y="815.7" font-family="Tahoma" font-size="12" transform="rotate(90 690,815.7)" text-rendering="optimizeSpeed" fill="#000000">git-parameter (3604)</text>
  <rect fill="blue" height="36.2" stroke="black" width="12" x="705" y="774.5"/>
  <text x="705" y="815.7" font-family="Tahoma" font-size="12" transform="rotate(90 705,815.7)" text-rendering="optimizeSpeed" fill="#000000">svn-tag (3622)</text>
  <rect fill="blue" height="36.8" stroke="black" width="12" x="720" y="773.9"/>
  <text x="720" y="815.7" font-family="Tahoma" font-size="12" transform="rotate(90 720,815.7)" text-rendering="optimizeSpeed" fill="#000000">join (3679)</text>
  <rect fill="blue" height="36.9" stroke="black" width="12" x="735" y="773.8"/>
  <text x="735" y="815.7" font-family="Tahoma" font-size="12" transform="rotate(90 735,815.7)" text-rendering="optimizeSpeed" fill="#000000">simple-theme-plugin (3691)</text>
  <rect fill="blue" height="37.0" stroke="black" width="12" x="750" y="773.7"/>
  <text x="750" y="815.7" font-family="Tahoma" font-size="12" transform="rotate(90 750,815.7)" text-rendering="optimizeSpeed" fill="#000000">emma (3699)</text>
  <rect fill="blue" height="37.8" stroke="black" width="12" x="765" y="772.9"/>
  <text x="765" y="815.7" font-family="Tahoma" font-size="12" transform="rotate(90 765,815.7)" text-rendering="optimizeSpeed" fill="#000000">nested-view (3783)</text>
  <rect fill="blue" height="38.1" stroke="black" width="12" x="780" y="772.7"/>
  <text x="780" y="815.7" font-family="Tahoma" font-size="12" transform="rotate(90 780,815.7)" text-rendering="optimizeSpeed" fill="#000000">jdepend (3806)</text>
  <rect fill="blue" height="38.7" stroke="black" width="12" x="795" y="772.0"/>
  <text x="795" y="815.7" font-family="Tahoma" font-size="12" transform="rotate(90 795,815.7)" text-rendering="optimizeSpeed" fill="#000000">jquery-ui (3872)</text>
  <rect fill="blue" height="40.2" stroke="black" width="12" x="810" y="770.5"/>
  <text x="810" y="815.7" font-family="Tahoma" font-size="12" transform="rotate(90 810,815.7)" text-rendering="optimizeSpeed" fill="#000000">artifactory (4023)</text>
  <rect fill="blue" height="40.5" stroke="black" width="12" x="825" y="770.2"/>
  <text x="825" y="815.7" font-family="Tahoma" font-size="12" transform="rotate(90 825,815.7)" text-rendering="optimizeSpeed" fill="#000000">git-server (4054)</text>
  <rect fill="blue" height="41.2" stroke="black" width="12" x="840" y="769.5"/>
  <text x="840" y="815.7" font-family="Tahoma" font-size="12" transform="rotate(90 840,815.7)" text-rendering="optimizeSpeed" fill="#000000">mercurial (4125)</text>
  <rect fill="blue" height="42.0" stroke="black" width="12" x="855" y="768.8"/>
  <text x="855" y="815.7" font-family="Tahoma" font-size="12" transform="rotate(90 855,815.7)" text-rendering="optimizeSpeed" fill="#000000">build-name-setter (4196)</text>
  <rect fill="blue" height="42.2" stroke="black" width="12" x="870" y="768.6"/>
  <text x="870" y="815.7" font-family="Tahoma" font-size="12" transform="rotate(90 870,815.7)" text-rendering="optimizeSpeed" fill="#000000">tasks (4216)</text>
  <rect fill="blue" height="43.4" stroke="black" width="12" x="885" y="767.3"/>
  <text x="885" y="815.7" font-family="Tahoma" font-size="12" transform="rotate(90 885,815.7)" text-rendering="optimizeSpeed" fill="#000000">copy-to-slave (4339)</text>
  <rect fill="blue" height="43.8" stroke="black" width="12" x="900" y="767.0"/>
  <text x="900" y="815.7" font-family="Tahoma" font-size="12" transform="rotate(90 900,815.7)" text-rendering="optimizeSpeed" fill="#000000">ansicolor (4375)</text>
  <rect fill="blue" height="44.0" stroke="black" width="12" x="915" y="766.7"/>
  <text x="915" y="815.7" font-family="Tahoma" font-size="12" transform="rotate(90 915,815.7)" text-rendering="optimizeSpeed" fill="#000000">scp (4404)</text>
  <rect fill="blue" height="44.1" stroke="black" width="12" x="930" y="766.6"/>
  <text x="930" y="815.7" font-family="Tahoma" font-size="12" transform="rotate(90 930,815.7)" text-rendering="optimizeSpeed" fill="#000000">role-strategy (4409)</text>
  <rect fill="blue" height="44.4" stroke="black" width="12" x="945" y="766.3"/>
  <text x="945" y="815.7" font-family="Tahoma" font-size="12" transform="rotate(90 945,815.7)" text-rendering="optimizeSpeed" fill="#000000">gradle (4439)</text>
  <rect fill="blue" height="44.5" stroke="black" width="12" x="960" y="766.2"/>
  <text x="960" y="815.7" font-family="Tahoma" font-size="12" transform="rotate(90 960,815.7)" text-rendering="optimizeSpeed" fill="#000000">view-job-filters (4454)</text>
  <rect fill="blue" height="44.9" stroke="black" width="12" x="975" y="765.8"/>
  <text x="975" y="815.7" font-family="Tahoma" font-size="12" transform="rotate(90 975,815.7)" text-rendering="optimizeSpeed" fill="#000000">m2release (4493)</text>
  <rect fill="blue" height="45.6" stroke="black" width="12" x="990" y="765.1"/>
  <text x="990" y="815.7" font-family="Tahoma" font-size="12" transform="rotate(90 990,815.7)" text-rendering="optimizeSpeed" fill="#000000">artifactdeployer (4565)</text>
  <rect fill="blue" height="45.8" stroke="black" width="12" x="1005" y="764.9"/>
  <text x="1005" y="815.7" font-family="Tahoma" font-size="12" transform="rotate(90 1005,815.7)" text-rendering="optimizeSpeed" fill="#000000">performance (4582)</text>
  <rect fill="blue" height="46.4" stroke="black" width="12" x="1020" y="764.3"/>
  <text x="1020" y="815.7" font-family="Tahoma" font-size="12" transform="rotate(90 1020,815.7)" text-rendering="optimizeSpeed" fill="#000000">ruby-runtime (4638)</text>
  <rect fill="blue" height="46.4" stroke="black" width="12" x="1035" y="764.3"/>
  <text x="1035" y="815.7" font-family="Tahoma" font-size="12" transform="rotate(90 1035,815.7)" text-rendering="optimizeSpeed" fill="#000000">monitoring (4642)</text>
  <rect fill="blue" height="48.4" stroke="black" width="12" x="1050" y="762.3"/>
  <text x="1050" y="815.7" font-family="Tahoma" font-size="12" transform="rotate(90 1050,815.7)" text-rendering="optimizeSpeed" fill="#000000">groovy (4844)</text>
  <rect fill="blue" height="50.8" stroke="black" width="12" x="1065" y="759.9"/>
  <text x="1065" y="815.7" font-family="Tahoma" font-size="12" transform="rotate(90 1065,815.7)" text-rendering="optimizeSpeed" fill="#000000">backup (5082)</text>
  <rect fill="blue" height="51.3" stroke="black" width="12" x="1080" y="759.4"/>
  <text x="1080" y="815.7" font-family="Tahoma" font-size="12" transform="rotate(90 1080,815.7)" text-rendering="optimizeSpeed" fill="#000000">instant-messaging (5133)</text>
  <rect fill="blue" height="52.8" stroke="black" width="12" x="1095" y="757.9"/>
  <text x="1095" y="815.7" font-family="Tahoma" font-size="12" transform="rotate(90 1095,815.7)" text-rendering="optimizeSpeed" fill="#000000">promoted-builds (5280)</text>
  <rect fill="blue" height="54.3" stroke="black" width="12" x="1110" y="756.4"/>
  <text x="1110" y="815.7" font-family="Tahoma" font-size="12" transform="rotate(90 1110,815.7)" text-rendering="optimizeSpeed" fill="#000000">thinBackup (5431)</text>
  <rect fill="blue" height="57.5" stroke="black" width="12" x="1125" y="753.2"/>
  <text x="1125" y="815.7" font-family="Tahoma" font-size="12" transform="rotate(90 1125,815.7)" text-rendering="optimizeSpeed" fill="#000000">chucknorris (5755)</text>
  <rect fill="blue" height="58.0" stroke="black" width="12" x="1140" y="752.7"/>
  <text x="1140" y="815.7" font-family="Tahoma" font-size="12" transform="rotate(90 1140,815.7)" text-rendering="optimizeSpeed" fill="#000000">plot (5804)</text>
  <rect fill="blue" height="59.8" stroke="black" width="12" x="1155" y="751.0"/>
  <text x="1155" y="815.7" font-family="Tahoma" font-size="12" transform="rotate(90 1155,815.7)" text-rendering="optimizeSpeed" fill="#000000">log-parser (5976)</text>
  <rect fill="blue" height="60.3" stroke="black" width="12" x="1170" y="750.5"/>
  <text x="1170" y="815.7" font-family="Tahoma" font-size="12" transform="rotate(90 1170,815.7)" text-rendering="optimizeSpeed" fill="#000000">timestamper (6027)</text>
  <rect fill="blue" height="62.9" stroke="black" width="12" x="1185" y="747.9"/>
  <text x="1185" y="815.7" font-family="Tahoma" font-size="12" transform="rotate(90 1185,815.7)" text-rendering="optimizeSpeed" fill="#000000">jira (6287)</text>
  <rect fill="blue" height="64.0" stroke="black" width="12" x="1200" y="746.7"/>
  <text x="1200" y="815.7" font-family="Tahoma" font-size="12" transform="rotate(90 1200,815.7)" text-rendering="optimizeSpeed" fill="#000000">ssh (6402)</text>
  <rect fill="blue" height="64.5" stroke="black" width="12" x="1215" y="746.2"/>
  <text x="1215" y="815.7" font-family="Tahoma" font-size="12" transform="rotate(90 1215,815.7)" text-rendering="optimizeSpeed" fill="#000000">dry (6449)</text>
  <rect fill="blue" height="65.9" stroke="black" width="12" x="1230" y="744.9"/>
  <text x="1230" y="815.7" font-family="Tahoma" font-size="12" transform="rotate(90 1230,815.7)" text-rendering="optimizeSpeed" fill="#000000">deploy (6586)</text>
  <rect fill="blue" height="71.7" stroke="black" width="12" x="1245" y="739.0"/>
  <text x="1245" y="815.7" font-family="Tahoma" font-size="12" transform="rotate(90 1245,815.7)" text-rendering="optimizeSpeed" fill="#000000">analysis-collector (7174)</text>
  <rect fill="blue" height="72.9" stroke="black" width="12" x="1260" y="737.8"/>
  <text x="1260" y="815.7" font-family="Tahoma" font-size="12" transform="rotate(90 1260,815.7)" text-rendering="optimizeSpeed" fill="#000000">postbuild-task (7289)</text>
  <rect fill="blue" height="73.2" stroke="black" width="12" x="1275" y="737.5"/>
  <text x="1275" y="815.7" font-family="Tahoma" font-size="12" transform="rotate(90 1275,815.7)" text-rendering="optimizeSpeed" fill="#000000">jobConfigHistory (7321)</text>
  <rect fill="blue" height="73.6" stroke="black" width="12" x="1290" y="737.1"/>
  <text x="1290" y="815.7" font-family="Tahoma" font-size="12" transform="rotate(90 1290,815.7)" text-rendering="optimizeSpeed" fill="#000000">ws-cleanup (7362)</text>
  <rect fill="blue" height="73.8" stroke="black" width="12" x="1305" y="737.0"/>
  <text x="1305" y="815.7" font-family="Tahoma" font-size="12" transform="rotate(90 1305,815.7)" text-rendering="optimizeSpeed" fill="#000000">conditional-buildstep (7376)</text>
  <rect fill="blue" height="78.9" stroke="black" width="12" x="1320" y="731.8"/>
  <text x="1320" y="815.7" font-family="Tahoma" font-size="12" transform="rotate(90 1320,815.7)" text-rendering="optimizeSpeed" fill="#000000">msbuild (7888)</text>
  <rect fill="blue" height="79.7" stroke="black" width="12" x="1335" y="731.0"/>
  <text x="1335" y="815.7" font-family="Tahoma" font-size="12" transform="rotate(90 1335,815.7)" text-rendering="optimizeSpeed" fill="#000000">warnings (7974)</text>
  <rect fill="blue" height="83.0" stroke="black" width="12" x="1350" y="727.7"/>
  <text x="1350" y="815.7" font-family="Tahoma" font-size="12" transform="rotate(90 1350,815.7)" text-rendering="optimizeSpeed" fill="#000000">build-timeout (8301)</text>
  <rect fill="blue" height="84.6" stroke="black" width="12" x="1365" y="726.1"/>
  <text x="1365" y="815.7" font-family="Tahoma" font-size="12" transform="rotate(90 1365,815.7)" text-rendering="optimizeSpeed" fill="#000000">build-pipeline-plugin (8462)</text>
  <rect fill="blue" height="84.7" stroke="black" width="12" x="1380" y="726.0"/>
  <text x="1380" y="815.7" font-family="Tahoma" font-size="12" transform="rotate(90 1380,815.7)" text-rendering="optimizeSpeed" fill="#000000">publish-over-ssh (8473)</text>
  <rect fill="blue" height="87.3" stroke="black" width="12" x="1395" y="723.4"/>
  <text x="1395" y="815.7" font-family="Tahoma" font-size="12" transform="rotate(90 1395,815.7)" text-rendering="optimizeSpeed" fill="#000000">findbugs (8733)</text>
  <rect fill="blue" height="88.4" stroke="black" width="12" x="1410" y="722.4"/>
  <text x="1410" y="815.7" font-family="Tahoma" font-size="12" transform="rotate(90 1410,815.7)" text-rendering="optimizeSpeed" fill="#000000">active-directory (8836)</text>
  <rect fill="blue" height="89.0" stroke="black" width="12" x="1425" y="721.7"/>
  <text x="1425" y="815.7" font-family="Tahoma" font-size="12" transform="rotate(90 1425,815.7)" text-rendering="optimizeSpeed" fill="#000000">run-condition (8903)</text>
  <rect fill="blue" height="92.9" stroke="black" width="12" x="1440" y="717.8"/>
  <text x="1440" y="815.7" font-family="Tahoma" font-size="12" transform="rotate(90 1440,815.7)" text-rendering="optimizeSpeed" fill="#000000">violations (9289)</text>
  <rect fill="blue" height="94.8" stroke="black" width="12" x="1455" y="715.9"/>
  <text x="1455" y="815.7" font-family="Tahoma" font-size="12" transform="rotate(90 1455,815.7)" text-rendering="optimizeSpeed" fill="#000000">xunit (9483)</text>
  <rect fill="blue" height="95.6" stroke="black" width="12" x="1470" y="715.1"/>
  <text x="1470" y="815.7" font-family="Tahoma" font-size="12" transform="rotate(90 1470,815.7)" text-rendering="optimizeSpeed" fill="#000000">ssh-agent (9563)</text>
  <rect fill="blue" height="96.5" stroke="black" width="12" x="1485" y="714.2"/>
  <text x="1485" y="815.7" font-family="Tahoma" font-size="12" transform="rotate(90 1485,815.7)" text-rendering="optimizeSpeed" fill="#000000">disk-usage (9649)</text>
  <rect fill="blue" height="97.7" stroke="black" width="12" x="1500" y="713.0"/>
  <text x="1500" y="815.7" font-family="Tahoma" font-size="12" transform="rotate(90 1500,815.7)" text-rendering="optimizeSpeed" fill="#000000">pmd (9771)</text>
  <rect fill="blue" height="105.4" stroke="black" width="12" x="1515" y="705.3"/>
  <text x="1515" y="815.7" font-family="Tahoma" font-size="12" transform="rotate(90 1515,815.7)" text-rendering="optimizeSpeed" fill="#000000">github (10539)</text>
  <rect fill="blue" height="108.2" stroke="black" width="12" x="1530" y="702.6"/>
  <text x="1530" y="815.7" font-family="Tahoma" font-size="12" transform="rotate(90 1530,815.7)" text-rendering="optimizeSpeed" fill="#000000">copyartifact (10815)</text>
  <rect fill="blue" height="108.7" stroke="black" width="12" x="1545" y="702.1"/>
  <text x="1545" y="815.7" font-family="Tahoma" font-size="12" transform="rotate(90 1545,815.7)" text-rendering="optimizeSpeed" fill="#000000">checkstyle (10865)</text>
  <rect fill="blue" height="108.8" stroke="black" width="12" x="1560" y="701.9"/>
  <text x="1560" y="815.7" font-family="Tahoma" font-size="12" transform="rotate(90 1560,815.7)" text-rendering="optimizeSpeed" fill="#000000">cobertura (10878)</text>
  <rect fill="blue" height="109.0" stroke="black" width="12" x="1575" y="701.7"/>
  <text x="1575" y="815.7" font-family="Tahoma" font-size="12" transform="rotate(90 1575,815.7)" text-rendering="optimizeSpeed" fill="#000000">dashboard-view (10905)</text>
  <rect fill="blue" height="110.2" stroke="black" width="12" x="1590" y="700.5"/>
  <text x="1590" y="815.7" font-family="Tahoma" font-size="12" transform="rotate(90 1590,815.7)" text-rendering="optimizeSpeed" fill="#000000">github-api (11025)</text>
  <rect fill="blue" height="112.7" stroke="black" width="12" x="1605" y="698.0"/>
  <text x="1605" y="815.7" font-family="Tahoma" font-size="12" transform="rotate(90 1605,815.7)" text-rendering="optimizeSpeed" fill="#000000">sonar (11274)</text>
  <rect fill="blue" height="122.5" stroke="black" width="12" x="1620" y="688.2"/>
  <text x="1620" y="815.7" font-family="Tahoma" font-size="12" transform="rotate(90 1620,815.7)" text-rendering="optimizeSpeed" fill="#000000">htmlpublisher (12253)</text>
  <rect fill="blue" height="127.2" stroke="black" width="12" x="1635" y="683.5"/>
  <text x="1635" y="815.7" font-family="Tahoma" font-size="12" transform="rotate(90 1635,815.7)" text-rendering="optimizeSpeed" fill="#000000">jquery (12719)</text>
  <rect fill="blue" height="127.5" stroke="black" width="12" x="1650" y="683.2"/>
  <text x="1650" y="815.7" font-family="Tahoma" font-size="12" transform="rotate(90 1650,815.7)" text-rendering="optimizeSpeed" fill="#000000">envinject (12751)</text>
  <rect fill="blue" height="165.1" stroke="black" width="12" x="1665" y="645.7"/>
  <text x="1665" y="815.7" font-family="Tahoma" font-size="12" transform="rotate(90 1665,815.7)" text-rendering="optimizeSpeed" fill="#000000">greenballs (16505)</text>
  <rect fill="blue" height="195.4" stroke="black" width="12" x="1680" y="615.4"/>
  <text x="1680" y="815.7" font-family="Tahoma" font-size="12" transform="rotate(90 1680,815.7)" text-rendering="optimizeSpeed" fill="#000000">parameterized-trigger (19536)</text>
  <rect fill="blue" height="225.6" stroke="black" width="12" x="1695" y="585.2"/>
  <text x="1695" y="815.7" font-family="Tahoma" font-size="12" transform="rotate(90 1695,815.7)" text-rendering="optimizeSpeed" fill="#000000">analysis-core (22557)</text>
  <rect fill="blue" height="226.2" stroke="black" width="12" x="1710" y="584.5"/>
  <text x="1710" y="815.7" font-family="Tahoma" font-size="12" transform="rotate(90 1710,815.7)" text-rendering="optimizeSpeed" fill="#000000">email-ext (22624)</text>
  <rect fill="blue" height="273.2" stroke="black" width="12" x="1725" y="537.5"/>
  <text x="1725" y="815.7" font-family="Tahoma" font-size="12" transform="rotate(90 1725,815.7)" text-rendering="optimizeSpeed" fill="#000000">windows-slaves (27319)</text>
  <rect fill="blue" height="291.2" stroke="black" width="12" x="1740" y="519.5"/>
  <text x="1740" y="815.7" font-family="Tahoma" font-size="12" transform="rotate(90 1740,815.7)" text-rendering="optimizeSpeed" fill="#000000">scm-api (29121)</text>
  <rect fill="blue" height="295.8" stroke="black" width="12" x="1755" y="514.9"/>
  <text x="1755" y="815.7" font-family="Tahoma" font-size="12" transform="rotate(90 1755,815.7)" text-rendering="optimizeSpeed" fill="#000000">token-macro (29583)</text>
  <rect fill="blue" height="330.3" stroke="black" width="12" x="1770" y="480.4"/>
  <text x="1770" y="815.7" font-family="Tahoma" font-size="12" transform="rotate(90 1770,815.7)" text-rendering="optimizeSpeed" fill="#000000">git-client (33031)</text>
  <rect fill="blue" height="375.0" stroke="black" width="12" x="1785" y="435.7"/>
  <text x="1785" y="815.7" font-family="Tahoma" font-size="12" transform="rotate(90 1785,815.7)" text-rendering="optimizeSpeed" fill="#000000">git (37500)</text>
  <rect fill="blue" height="421.7" stroke="black" width="12" x="1800" y="389.1"/>
  <text x="1800" y="815.7" font-family="Tahoma" font-size="12" transform="rotate(90 1800,815.7)" text-rendering="optimizeSpeed" fill="#000000">matrix-auth (42166)</text>
  <rect fill="blue" height="651.5" stroke="black" width="12" x="1815" y="159.2"/>
  <text x="1815" y="815.7" font-family="Tahoma" font-size="12" transform="rotate(90 1815,815.7)" text-rendering="optimizeSpeed" fill="#000000">ssh-credentials (65151)</text>
  <rect fill="blue" height="655.4" stroke="black" width="12" x="1830" y="155.4"/>
  <text x="1830" y="815.7" font-family="Tahoma" font-size="12" transform="rotate(90 1830,815.7)" text-rendering="optimizeSpeed" fill="#000000">credentials (65536)</text>
  <rect fill="blue" height="684.1" stroke="black" width="12" x="1845" y="126.6"/>
  <text x="1845" y="815.7" font-family="Tahoma" font-size="12" transform="rotate(90 1845,815.7)" text-rendering="optimizeSpeed" fill="#000000">mailer (68410)</text>
  <rect fill="blue" height="708.1" stroke="black" width="12" x="1860" y="102.6"/>
  <text x="1860" y="815.7" font-family="Tahoma" font-size="12" transform="rotate(90 1860,815.7)" text-rendering="optimizeSpeed" fill="#000000">ldap (70814)</text>
  <rect fill="blue" height="712.1" stroke="black" width="12" x="1875" y="98.6"/>
  <text x="1875" y="815.7" font-family="Tahoma" font-size="12" transform="rotate(90 1875,815.7)" text-rendering="optimizeSpeed" fill="#000000">pam-auth (71211)</text>
  <rect fill="blue" height="718.1" stroke="black" width="12" x="1890" y="92.6"/>
  <text x="1890" y="815.7" font-family="Tahoma" font-size="12" transform="rotate(90 1890,815.7)" text-rendering="optimizeSpeed" fill="#000000">cvs (71808)</text>
  <rect fill="blue" height="718.8" stroke="black" width="12" x="1905" y="91.9"/>
  <text x="1905" y="815.7" font-family="Tahoma" font-size="12" transform="rotate(90 1905,815.7)" text-rendering="optimizeSpeed" fill="#000000">external-monitor-job (71879)</text>
  <rect fill="blue" height="739.7" stroke="black" width="12" x="1920" y="71.0"/>
  <text x="1920" y="815.7" font-family="Tahoma" font-size="12" transform="rotate(90 1920,815.7)" text-rendering="optimizeSpeed" fill="#000000">translation (73969)</text>
  <rect fill="blue" height="745.6" stroke="black" width="12" x="1935" y="65.1"/>
  <text x="1935" y="815.7" font-family="Tahoma" font-size="12" transform="rotate(90 1935,815.7)" text-rendering="optimizeSpeed" fill="#000000">ant (74564)</text>
  <rect fill="blue" height="746.2" stroke="black" width="12" x="1950" y="64.5"/>
  <text x="1950" y="815.7" font-family="Tahoma" font-size="12" transform="rotate(90 1950,815.7)" text-rendering="optimizeSpeed" fill="#000000">subversion (74618)</text>
  <rect fill="blue" height="751.0" stroke="black" width="12" x="1965" y="59.8"/>
  <text x="1965" y="815.7" font-family="Tahoma" font-size="12" transform="rotate(90 1965,815.7)" text-rendering="optimizeSpeed" fill="#000000">javadoc (75095)</text>
  <rect fill="blue" height="756.9" stroke="black" width="12" x="1980" y="53.8"/>
  <text x="1980" y="815.7" font-family="Tahoma" font-size="12" transform="rotate(90 1980,815.7)" text-rendering="optimizeSpeed" fill="#000000">maven-plugin (75688)</text>
  <rect fill="blue" height="760.7" stroke="black" width="12" x="1995" y="50.0"/>
  <text x="1995" y="815.7" font-family="Tahoma" font-size="12" transform="rotate(90 1995,815.7)" text-rendering="optimizeSpeed" fill="#000000">ssh-slaves (76073)</text>
  <text x="10" y="40" font-family="Tahoma" font-size="20" text-rendering="optimizeSpeed" fill="#000000">Plugin installations (installations &gt; 2500)</text>
</svg>
