<svg xmlns="http://www.w3.org/2000/svg" version="1.1" preserveAspectRatio="xMidYMid meet" viewBox="0 0 2090 1151.8">
  <rect fill="blue" height="25.2" stroke="black" width="12" x="15" y="826.6"/>
  <text x="15" y="856.8" font-family="Tahoma" font-size="12" transform="rotate(90 15,856.8)" text-rendering="optimizeSpeed" fill="#000000">jabber (2524)</text>
  <rect fill="blue" height="26.2" stroke="black" width="12" x="30" y="825.5"/>
  <text x="30" y="856.8" font-family="Tahoma" font-size="12" transform="rotate(90 30,856.8)" text-rendering="optimizeSpeed" fill="#000000">jacoco (2625)</text>
  <rect fill="blue" height="27.0" stroke="black" width="12" x="45" y="824.8"/>
  <text x="45" y="856.8" font-family="Tahoma" font-size="12" transform="rotate(90 45,856.8)" text-rendering="optimizeSpeed" fill="#000000">doxygen (2703)</text>
  <rect fill="blue" height="27.1" stroke="black" width="12" x="60" y="824.7"/>
  <text x="60" y="856.8" font-family="Tahoma" font-size="12" transform="rotate(90 60,856.8)" text-rendering="optimizeSpeed" fill="#000000">radiatorviewplugin (2706)</text>
  <rect fill="blue" height="27.2" stroke="black" width="12" x="75" y="824.5"/>
  <text x="75" y="856.8" font-family="Tahoma" font-size="12" transform="rotate(90 75,856.8)" text-rendering="optimizeSpeed" fill="#000000">powershell (2725)</text>
  <rect fill="blue" height="27.3" stroke="black" width="12" x="90" y="824.5"/>
  <text x="90" y="856.8" font-family="Tahoma" font-size="12" transform="rotate(90 90,856.8)" text-rendering="optimizeSpeed" fill="#000000">testng-plugin (2727)</text>
  <rect fill="blue" height="27.3" stroke="black" width="12" x="105" y="824.5"/>
  <text x="105" y="856.8" font-family="Tahoma" font-size="12" transform="rotate(90 105,856.8)" text-rendering="optimizeSpeed" fill="#000000">batch-task (2731)</text>
  <rect fill="blue" height="27.3" stroke="black" width="12" x="120" y="824.5"/>
  <text x="120" y="856.8" font-family="Tahoma" font-size="12" transform="rotate(90 120,856.8)" text-rendering="optimizeSpeed" fill="#000000">scriptler (2731)</text>
  <rect fill="blue" height="27.3" stroke="black" width="12" x="135" y="824.5"/>
  <text x="135" y="856.8" font-family="Tahoma" font-size="12" transform="rotate(90 135,856.8)" text-rendering="optimizeSpeed" fill="#000000">github-oauth (2733)</text>
  <rect fill="blue" height="27.5" stroke="black" width="12" x="150" y="824.3"/>
  <text x="150" y="856.8" font-family="Tahoma" font-size="12" transform="rotate(90 150,856.8)" text-rendering="optimizeSpeed" fill="#000000">rake (2747)</text>
  <rect fill="blue" height="27.5" stroke="black" width="12" x="165" y="824.3"/>
  <text x="165" y="856.8" font-family="Tahoma" font-size="12" transform="rotate(90 165,856.8)" text-rendering="optimizeSpeed" fill="#000000">project-stats-plugin (2754)</text>
  <rect fill="blue" height="27.7" stroke="black" width="12" x="180" y="824.1"/>
  <text x="180" y="856.8" font-family="Tahoma" font-size="12" transform="rotate(90 180,856.8)" text-rendering="optimizeSpeed" fill="#000000">versionnumber (2766)</text>
  <rect fill="blue" height="27.7" stroke="black" width="12" x="195" y="824.1"/>
  <text x="195" y="856.8" font-family="Tahoma" font-size="12" transform="rotate(90 195,856.8)" text-rendering="optimizeSpeed" fill="#000000">publish-over-ftp (2767)</text>
  <rect fill="blue" height="28.6" stroke="black" width="12" x="210" y="823.2"/>
  <text x="210" y="856.8" font-family="Tahoma" font-size="12" transform="rotate(90 210,856.8)" text-rendering="optimizeSpeed" fill="#000000">claim (2864)</text>
  <rect fill="blue" height="29.0" stroke="black" width="12" x="225" y="822.8"/>
  <text x="225" y="856.8" font-family="Tahoma" font-size="12" transform="rotate(90 225,856.8)" text-rendering="optimizeSpeed" fill="#000000">mask-passwords (2896)</text>
  <rect fill="blue" height="29.0" stroke="black" width="12" x="240" y="822.8"/>
  <text x="240" y="856.8" font-family="Tahoma" font-size="12" transform="rotate(90 240,856.8)" text-rendering="optimizeSpeed" fill="#000000">release (2904)</text>
  <rect fill="blue" height="29.1" stroke="black" width="12" x="255" y="822.8"/>
  <text x="255" y="856.8" font-family="Tahoma" font-size="12" transform="rotate(90 255,856.8)" text-rendering="optimizeSpeed" fill="#000000">all-changes (2905)</text>
  <rect fill="blue" height="29.5" stroke="black" width="12" x="270" y="822.3"/>
  <text x="270" y="856.8" font-family="Tahoma" font-size="12" transform="rotate(90 270,856.8)" text-rendering="optimizeSpeed" fill="#000000">android-emulator (2948)</text>
  <rect fill="blue" height="29.8" stroke="black" width="12" x="285" y="822.0"/>
  <text x="285" y="856.8" font-family="Tahoma" font-size="12" transform="rotate(90 285,856.8)" text-rendering="optimizeSpeed" fill="#000000">next-build-number (2979)</text>
  <rect fill="blue" height="29.8" stroke="black" width="12" x="300" y="822.0"/>
  <text x="300" y="856.8" font-family="Tahoma" font-size="12" transform="rotate(90 300,856.8)" text-rendering="optimizeSpeed" fill="#000000">global-build-stats (2982)</text>
  <rect fill="blue" height="29.9" stroke="black" width="12" x="315" y="821.9"/>
  <text x="315" y="856.8" font-family="Tahoma" font-size="12" transform="rotate(90 315,856.8)" text-rendering="optimizeSpeed" fill="#000000">text-finder (2994)</text>
  <rect fill="blue" height="30.0" stroke="black" width="12" x="330" y="821.8"/>
  <text x="330" y="856.8" font-family="Tahoma" font-size="12" transform="rotate(90 330,856.8)" text-rendering="optimizeSpeed" fill="#000000">groovy-postbuild (3002)</text>
  <rect fill="blue" height="30.3" stroke="black" width="12" x="345" y="821.5"/>
  <text x="345" y="856.8" font-family="Tahoma" font-size="12" transform="rotate(90 345,856.8)" text-rendering="optimizeSpeed" fill="#000000">extra-columns (3031)</text>
  <rect fill="blue" height="30.6" stroke="black" width="12" x="360" y="821.2"/>
  <text x="360" y="856.8" font-family="Tahoma" font-size="12" transform="rotate(90 360,856.8)" text-rendering="optimizeSpeed" fill="#000000">description-setter (3059)</text>
  <rect fill="blue" height="30.8" stroke="black" width="12" x="375" y="821.0"/>
  <text x="375" y="856.8" font-family="Tahoma" font-size="12" transform="rotate(90 375,856.8)" text-rendering="optimizeSpeed" fill="#000000">sidebar-link (3075)</text>
  <rect fill="blue" height="31.1" stroke="black" width="12" x="390" y="820.7"/>
  <text x="390" y="856.8" font-family="Tahoma" font-size="12" transform="rotate(90 390,856.8)" text-rendering="optimizeSpeed" fill="#000000">throttle-concurrents (3107)</text>
  <rect fill="blue" height="31.4" stroke="black" width="12" x="405" y="820.4"/>
  <text x="405" y="856.8" font-family="Tahoma" font-size="12" transform="rotate(90 405,856.8)" text-rendering="optimizeSpeed" fill="#000000">buildgraph-view (3136)</text>
  <rect fill="blue" height="31.7" stroke="black" width="12" x="420" y="820.1"/>
  <text x="420" y="856.8" font-family="Tahoma" font-size="12" transform="rotate(90 420,856.8)" text-rendering="optimizeSpeed" fill="#000000">extended-choice-parameter (3170)</text>
  <rect fill="blue" height="31.8" stroke="black" width="12" x="435" y="820.0"/>
  <text x="435" y="856.8" font-family="Tahoma" font-size="12" transform="rotate(90 435,856.8)" text-rendering="optimizeSpeed" fill="#000000">console-column-plugin (3176)</text>
  <rect fill="blue" height="32.1" stroke="black" width="12" x="450" y="819.7"/>
  <text x="450" y="856.8" font-family="Tahoma" font-size="12" transform="rotate(90 450,856.8)" text-rendering="optimizeSpeed" fill="#000000">downstream-buildview (3210)</text>
  <rect fill="blue" height="32.3" stroke="black" width="12" x="465" y="819.5"/>
  <text x="465" y="856.8" font-family="Tahoma" font-size="12" transform="rotate(90 465,856.8)" text-rendering="optimizeSpeed" fill="#000000">nodelabelparameter (3226)</text>
  <rect fill="blue" height="32.3" stroke="black" width="12" x="480" y="819.5"/>
  <text x="480" y="856.8" font-family="Tahoma" font-size="12" transform="rotate(90 480,856.8)" text-rendering="optimizeSpeed" fill="#000000">config-file-provider (3228)</text>
  <rect fill="blue" height="33.0" stroke="black" width="12" x="495" y="818.8"/>
  <text x="495" y="856.8" font-family="Tahoma" font-size="12" transform="rotate(90 495,856.8)" text-rendering="optimizeSpeed" fill="#000000">audit-trail (3305)</text>
  <rect fill="blue" height="33.1" stroke="black" width="12" x="510" y="818.6"/>
  <text x="510" y="856.8" font-family="Tahoma" font-size="12" transform="rotate(90 510,856.8)" text-rendering="optimizeSpeed" fill="#000000">configurationslicing (3315)</text>
  <rect fill="blue" height="33.4" stroke="black" width="12" x="525" y="818.4"/>
  <text x="525" y="856.8" font-family="Tahoma" font-size="12" transform="rotate(90 525,856.8)" text-rendering="optimizeSpeed" fill="#000000">locks-and-latches (3342)</text>
  <rect fill="blue" height="33.5" stroke="black" width="12" x="540" y="818.3"/>
  <text x="540" y="856.8" font-family="Tahoma" font-size="12" transform="rotate(90 540,856.8)" text-rendering="optimizeSpeed" fill="#000000">build-flow-plugin (3348)</text>
  <rect fill="blue" height="34.2" stroke="black" width="12" x="555" y="817.6"/>
  <text x="555" y="856.8" font-family="Tahoma" font-size="12" transform="rotate(90 555,856.8)" text-rendering="optimizeSpeed" fill="#000000">saferestart (3418)</text>
  <rect fill="blue" height="34.8" stroke="black" width="12" x="570" y="817.0"/>
  <text x="570" y="856.8" font-family="Tahoma" font-size="12" transform="rotate(90 570,856.8)" text-rendering="optimizeSpeed" fill="#000000">perforce (3483)</text>
  <rect fill="blue" height="35.5" stroke="black" width="12" x="585" y="816.2"/>
  <text x="585" y="856.8" font-family="Tahoma" font-size="12" transform="rotate(90 585,856.8)" text-rendering="optimizeSpeed" fill="#000000">jenkins-multijob-plugin (3555)</text>
  <rect fill="blue" height="35.7" stroke="black" width="12" x="600" y="816.1"/>
  <text x="600" y="856.8" font-family="Tahoma" font-size="12" transform="rotate(90 600,856.8)" text-rendering="optimizeSpeed" fill="#000000">cloverphp (3574)</text>
  <rect fill="blue" height="36.2" stroke="black" width="12" x="615" y="815.6"/>
  <text x="615" y="856.8" font-family="Tahoma" font-size="12" transform="rotate(90 615,856.8)" text-rendering="optimizeSpeed" fill="#000000">rebuild (3619)</text>
  <rect fill="blue" height="36.4" stroke="black" width="12" x="630" y="815.4"/>
  <text x="630" y="856.8" font-family="Tahoma" font-size="12" transform="rotate(90 630,856.8)" text-rendering="optimizeSpeed" fill="#000000">depgraph-view (3641)</text>
  <rect fill="blue" height="36.4" stroke="black" width="12" x="645" y="815.4"/>
  <text x="645" y="856.8" font-family="Tahoma" font-size="12" transform="rotate(90 645,856.8)" text-rendering="optimizeSpeed" fill="#000000">multiple-scms (3641)</text>
  <rect fill="blue" height="36.7" stroke="black" width="12" x="660" y="815.1"/>
  <text x="660" y="856.8" font-family="Tahoma" font-size="12" transform="rotate(90 660,856.8)" text-rendering="optimizeSpeed" fill="#000000">nunit (3674)</text>
  <rect fill="blue" height="36.8" stroke="black" width="12" x="675" y="815.0"/>
  <text x="675" y="856.8" font-family="Tahoma" font-size="12" transform="rotate(90 675,856.8)" text-rendering="optimizeSpeed" fill="#000000">port-allocator (3675)</text>
  <rect fill="blue" height="36.9" stroke="black" width="12" x="690" y="815.0"/>
  <text x="690" y="856.8" font-family="Tahoma" font-size="12" transform="rotate(90 690,856.8)" text-rendering="optimizeSpeed" fill="#000000">svn-tag (3685)</text>
  <rect fill="blue" height="37.0" stroke="black" width="12" x="705" y="814.8"/>
  <text x="705" y="856.8" font-family="Tahoma" font-size="12" transform="rotate(90 705,856.8)" text-rendering="optimizeSpeed" fill="#000000">python (3702)</text>
  <rect fill="blue" height="37.5" stroke="black" width="12" x="720" y="814.3"/>
  <text x="720" y="856.8" font-family="Tahoma" font-size="12" transform="rotate(90 720,856.8)" text-rendering="optimizeSpeed" fill="#000000">emma (3750)</text>
  <rect fill="blue" height="37.5" stroke="black" width="12" x="735" y="814.3"/>
  <text x="735" y="856.8" font-family="Tahoma" font-size="12" transform="rotate(90 735,856.8)" text-rendering="optimizeSpeed" fill="#000000">xcode-plugin (3750)</text>
  <rect fill="blue" height="38.2" stroke="black" width="12" x="750" y="813.6"/>
  <text x="750" y="856.8" font-family="Tahoma" font-size="12" transform="rotate(90 750,856.8)" text-rendering="optimizeSpeed" fill="#000000">git-parameter (3817)</text>
  <rect fill="blue" height="38.7" stroke="black" width="12" x="765" y="813.1"/>
  <text x="765" y="856.8" font-family="Tahoma" font-size="12" transform="rotate(90 765,856.8)" text-rendering="optimizeSpeed" fill="#000000">join (3870)</text>
  <rect fill="blue" height="39.0" stroke="black" width="12" x="780" y="812.8"/>
  <text x="780" y="856.8" font-family="Tahoma" font-size="12" transform="rotate(90 780,856.8)" text-rendering="optimizeSpeed" fill="#000000">jdepend (3897)</text>
  <rect fill="blue" height="40.2" stroke="black" width="12" x="795" y="811.6"/>
  <text x="795" y="856.8" font-family="Tahoma" font-size="12" transform="rotate(90 795,856.8)" text-rendering="optimizeSpeed" fill="#000000">nested-view (4022)</text>
  <rect fill="blue" height="40.6" stroke="black" width="12" x="810" y="811.2"/>
  <text x="810" y="856.8" font-family="Tahoma" font-size="12" transform="rotate(90 810,856.8)" text-rendering="optimizeSpeed" fill="#000000">simple-theme-plugin (4058)</text>
  <rect fill="blue" height="42.4" stroke="black" width="12" x="825" y="809.5"/>
  <text x="825" y="856.8" font-family="Tahoma" font-size="12" transform="rotate(90 825,856.8)" text-rendering="optimizeSpeed" fill="#000000">artifactory (4235)</text>
  <rect fill="blue" height="43.0" stroke="black" width="12" x="840" y="808.8"/>
  <text x="840" y="856.8" font-family="Tahoma" font-size="12" transform="rotate(90 840,856.8)" text-rendering="optimizeSpeed" fill="#000000">git-server (4300)</text>
  <rect fill="blue" height="43.0" stroke="black" width="12" x="855" y="808.8"/>
  <text x="855" y="856.8" font-family="Tahoma" font-size="12" transform="rotate(90 855,856.8)" text-rendering="optimizeSpeed" fill="#000000">tasks (4300)</text>
  <rect fill="blue" height="43.1" stroke="black" width="12" x="870" y="808.7"/>
  <text x="870" y="856.8" font-family="Tahoma" font-size="12" transform="rotate(90 870,856.8)" text-rendering="optimizeSpeed" fill="#000000">mercurial (4312)</text>
  <rect fill="blue" height="43.9" stroke="black" width="12" x="885" y="807.9"/>
  <text x="885" y="856.8" font-family="Tahoma" font-size="12" transform="rotate(90 885,856.8)" text-rendering="optimizeSpeed" fill="#000000">jquery-ui (4393)</text>
  <rect fill="blue" height="44.9" stroke="black" width="12" x="900" y="806.9"/>
  <text x="900" y="856.8" font-family="Tahoma" font-size="12" transform="rotate(90 900,856.8)" text-rendering="optimizeSpeed" fill="#000000">copy-to-slave (4489)</text>
  <rect fill="blue" height="45.1" stroke="black" width="12" x="915" y="806.7"/>
  <text x="915" y="856.8" font-family="Tahoma" font-size="12" transform="rotate(90 915,856.8)" text-rendering="optimizeSpeed" fill="#000000">build-name-setter (4506)</text>
  <rect fill="blue" height="45.8" stroke="black" width="12" x="930" y="806.0"/>
  <text x="930" y="856.8" font-family="Tahoma" font-size="12" transform="rotate(90 930,856.8)" text-rendering="optimizeSpeed" fill="#000000">scp (4580)</text>
  <rect fill="blue" height="46.0" stroke="black" width="12" x="945" y="805.8"/>
  <text x="945" y="856.8" font-family="Tahoma" font-size="12" transform="rotate(90 945,856.8)" text-rendering="optimizeSpeed" fill="#000000">m2release (4597)</text>
  <rect fill="blue" height="46.2" stroke="black" width="12" x="960" y="805.6"/>
  <text x="960" y="856.8" font-family="Tahoma" font-size="12" transform="rotate(90 960,856.8)" text-rendering="optimizeSpeed" fill="#000000">view-job-filters (4624)</text>
  <rect fill="blue" height="46.9" stroke="black" width="12" x="975" y="804.9"/>
  <text x="975" y="856.8" font-family="Tahoma" font-size="12" transform="rotate(90 975,856.8)" text-rendering="optimizeSpeed" fill="#000000">ansicolor (4687)</text>
  <rect fill="blue" height="47.5" stroke="black" width="12" x="990" y="804.2"/>
  <text x="990" y="856.8" font-family="Tahoma" font-size="12" transform="rotate(90 990,856.8)" text-rendering="optimizeSpeed" fill="#000000">artifactdeployer (4755)</text>
  <rect fill="blue" height="47.9" stroke="black" width="12" x="1005" y="804.0"/>
  <text x="1005" y="856.8" font-family="Tahoma" font-size="12" transform="rotate(90 1005,856.8)" text-rendering="optimizeSpeed" fill="#000000">role-strategy (4785)</text>
  <rect fill="blue" height="47.9" stroke="black" width="12" x="1020" y="803.9"/>
  <text x="1020" y="856.8" font-family="Tahoma" font-size="12" transform="rotate(90 1020,856.8)" text-rendering="optimizeSpeed" fill="#000000">performance (4793)</text>
  <rect fill="blue" height="48.8" stroke="black" width="12" x="1035" y="803.0"/>
  <text x="1035" y="856.8" font-family="Tahoma" font-size="12" transform="rotate(90 1035,856.8)" text-rendering="optimizeSpeed" fill="#000000">monitoring (4875)</text>
  <rect fill="blue" height="48.9" stroke="black" width="12" x="1050" y="802.9"/>
  <text x="1050" y="856.8" font-family="Tahoma" font-size="12" transform="rotate(90 1050,856.8)" text-rendering="optimizeSpeed" fill="#000000">gradle (4893)</text>
  <rect fill="blue" height="50.4" stroke="black" width="12" x="1065" y="801.4"/>
  <text x="1065" y="856.8" font-family="Tahoma" font-size="12" transform="rotate(90 1065,856.8)" text-rendering="optimizeSpeed" fill="#000000">groovy (5040)</text>
  <rect fill="blue" height="50.7" stroke="black" width="12" x="1080" y="801.1"/>
  <text x="1080" y="856.8" font-family="Tahoma" font-size="12" transform="rotate(90 1080,856.8)" text-rendering="optimizeSpeed" fill="#000000">ruby-runtime (5066)</text>
  <rect fill="blue" height="53.2" stroke="black" width="12" x="1095" y="798.6"/>
  <text x="1095" y="856.8" font-family="Tahoma" font-size="12" transform="rotate(90 1095,856.8)" text-rendering="optimizeSpeed" fill="#000000">backup (5324)</text>
  <rect fill="blue" height="53.7" stroke="black" width="12" x="1110" y="798.1"/>
  <text x="1110" y="856.8" font-family="Tahoma" font-size="12" transform="rotate(90 1110,856.8)" text-rendering="optimizeSpeed" fill="#000000">instant-messaging (5370)</text>
  <rect fill="blue" height="55.1" stroke="black" width="12" x="1125" y="796.7"/>
  <text x="1125" y="856.8" font-family="Tahoma" font-size="12" transform="rotate(90 1125,856.8)" text-rendering="optimizeSpeed" fill="#000000">promoted-builds (5507)</text>
  <rect fill="blue" height="56.6" stroke="black" width="12" x="1140" y="795.2"/>
  <text x="1140" y="856.8" font-family="Tahoma" font-size="12" transform="rotate(90 1140,856.8)" text-rendering="optimizeSpeed" fill="#000000">thinBackup (5662)</text>
  <rect fill="blue" height="59.2" stroke="black" width="12" x="1155" y="792.5"/>
  <text x="1155" y="856.8" font-family="Tahoma" font-size="12" transform="rotate(90 1155,856.8)" text-rendering="optimizeSpeed" fill="#000000">plot (5925)</text>
  <rect fill="blue" height="59.3" stroke="black" width="12" x="1170" y="792.5"/>
  <text x="1170" y="856.8" font-family="Tahoma" font-size="12" transform="rotate(90 1170,856.8)" text-rendering="optimizeSpeed" fill="#000000">chucknorris (5930)</text>
  <rect fill="blue" height="62.9" stroke="black" width="12" x="1185" y="788.9"/>
  <text x="1185" y="856.8" font-family="Tahoma" font-size="12" transform="rotate(90 1185,856.8)" text-rendering="optimizeSpeed" fill="#000000">log-parser (6287)</text>
  <rect fill="blue" height="65.1" stroke="black" width="12" x="1200" y="786.7"/>
  <text x="1200" y="856.8" font-family="Tahoma" font-size="12" transform="rotate(90 1200,856.8)" text-rendering="optimizeSpeed" fill="#000000">jira (6506)</text>
  <rect fill="blue" height="65.5" stroke="black" width="12" x="1215" y="786.3"/>
  <text x="1215" y="856.8" font-family="Tahoma" font-size="12" transform="rotate(90 1215,856.8)" text-rendering="optimizeSpeed" fill="#000000">timestamper (6546)</text>
  <rect fill="blue" height="66.6" stroke="black" width="12" x="1230" y="785.2"/>
  <text x="1230" y="856.8" font-family="Tahoma" font-size="12" transform="rotate(90 1230,856.8)" text-rendering="optimizeSpeed" fill="#000000">ssh (6656)</text>
  <rect fill="blue" height="66.8" stroke="black" width="12" x="1245" y="785.0"/>
  <text x="1245" y="856.8" font-family="Tahoma" font-size="12" transform="rotate(90 1245,856.8)" text-rendering="optimizeSpeed" fill="#000000">dry (6679)</text>
  <rect fill="blue" height="68.4" stroke="black" width="12" x="1260" y="783.4"/>
  <text x="1260" y="856.8" font-family="Tahoma" font-size="12" transform="rotate(90 1260,856.8)" text-rendering="optimizeSpeed" fill="#000000">deploy (6838)</text>
  <rect fill="blue" height="73.9" stroke="black" width="12" x="1275" y="777.9"/>
  <text x="1275" y="856.8" font-family="Tahoma" font-size="12" transform="rotate(90 1275,856.8)" text-rendering="optimizeSpeed" fill="#000000">analysis-collector (7391)</text>
  <rect fill="blue" height="76.1" stroke="black" width="12" x="1290" y="775.7"/>
  <text x="1290" y="856.8" font-family="Tahoma" font-size="12" transform="rotate(90 1290,856.8)" text-rendering="optimizeSpeed" fill="#000000">postbuild-task (7614)</text>
  <rect fill="blue" height="77.8" stroke="black" width="12" x="1305" y="774.0"/>
  <text x="1305" y="856.8" font-family="Tahoma" font-size="12" transform="rotate(90 1305,856.8)" text-rendering="optimizeSpeed" fill="#000000">jobConfigHistory (7783)</text>
  <rect fill="blue" height="79.0" stroke="black" width="12" x="1320" y="772.8"/>
  <text x="1320" y="856.8" font-family="Tahoma" font-size="12" transform="rotate(90 1320,856.8)" text-rendering="optimizeSpeed" fill="#000000">ws-cleanup (7900)</text>
  <rect fill="blue" height="81.2" stroke="black" width="12" x="1335" y="770.6"/>
  <text x="1335" y="856.8" font-family="Tahoma" font-size="12" transform="rotate(90 1335,856.8)" text-rendering="optimizeSpeed" fill="#000000">conditional-buildstep (8118)</text>
  <rect fill="blue" height="83.2" stroke="black" width="12" x="1350" y="768.6"/>
  <text x="1350" y="856.8" font-family="Tahoma" font-size="12" transform="rotate(90 1350,856.8)" text-rendering="optimizeSpeed" fill="#000000">warnings (8319)</text>
  <rect fill="blue" height="83.6" stroke="black" width="12" x="1365" y="768.2"/>
  <text x="1365" y="856.8" font-family="Tahoma" font-size="12" transform="rotate(90 1365,856.8)" text-rendering="optimizeSpeed" fill="#000000">msbuild (8361)</text>
  <rect fill="blue" height="86.2" stroke="black" width="12" x="1380" y="765.6"/>
  <text x="1380" y="856.8" font-family="Tahoma" font-size="12" transform="rotate(90 1380,856.8)" text-rendering="optimizeSpeed" fill="#000000">build-timeout (8620)</text>
  <rect fill="blue" height="89.9" stroke="black" width="12" x="1395" y="761.9"/>
  <text x="1395" y="856.8" font-family="Tahoma" font-size="12" transform="rotate(90 1395,856.8)" text-rendering="optimizeSpeed" fill="#000000">publish-over-ssh (8987)</text>
  <rect fill="blue" height="90.3" stroke="black" width="12" x="1410" y="761.5"/>
  <text x="1410" y="856.8" font-family="Tahoma" font-size="12" transform="rotate(90 1410,856.8)" text-rendering="optimizeSpeed" fill="#000000">build-pipeline-plugin (9027)</text>
  <rect fill="blue" height="90.3" stroke="black" width="12" x="1425" y="761.5"/>
  <text x="1425" y="856.8" font-family="Tahoma" font-size="12" transform="rotate(90 1425,856.8)" text-rendering="optimizeSpeed" fill="#000000">findbugs (9032)</text>
  <rect fill="blue" height="92.6" stroke="black" width="12" x="1440" y="759.2"/>
  <text x="1440" y="856.8" font-family="Tahoma" font-size="12" transform="rotate(90 1440,856.8)" text-rendering="optimizeSpeed" fill="#000000">active-directory (9258)</text>
  <rect fill="blue" height="96.7" stroke="black" width="12" x="1455" y="755.1"/>
  <text x="1455" y="856.8" font-family="Tahoma" font-size="12" transform="rotate(90 1455,856.8)" text-rendering="optimizeSpeed" fill="#000000">violations (9671)</text>
  <rect fill="blue" height="96.7" stroke="black" width="12" x="1470" y="755.1"/>
  <text x="1470" y="856.8" font-family="Tahoma" font-size="12" transform="rotate(90 1470,856.8)" text-rendering="optimizeSpeed" fill="#000000">run-condition (9672)</text>
  <rect fill="blue" height="98.0" stroke="black" width="12" x="1485" y="753.8"/>
  <text x="1485" y="856.8" font-family="Tahoma" font-size="12" transform="rotate(90 1485,856.8)" text-rendering="optimizeSpeed" fill="#000000">ssh-agent (9795)</text>
  <rect fill="blue" height="99.0" stroke="black" width="12" x="1500" y="752.8"/>
  <text x="1500" y="856.8" font-family="Tahoma" font-size="12" transform="rotate(90 1500,856.8)" text-rendering="optimizeSpeed" fill="#000000">xunit (9903)</text>
  <rect fill="blue" height="99.4" stroke="black" width="12" x="1515" y="752.4"/>
  <text x="1515" y="856.8" font-family="Tahoma" font-size="12" transform="rotate(90 1515,856.8)" text-rendering="optimizeSpeed" fill="#000000">disk-usage (9940)</text>
  <rect fill="blue" height="100.5" stroke="black" width="12" x="1530" y="751.2"/>
  <text x="1530" y="856.8" font-family="Tahoma" font-size="12" transform="rotate(90 1530,856.8)" text-rendering="optimizeSpeed" fill="#000000">pmd (10055)</text>
  <rect fill="blue" height="110.7" stroke="black" width="12" x="1545" y="741.1"/>
  <text x="1545" y="856.8" font-family="Tahoma" font-size="12" transform="rotate(90 1545,856.8)" text-rendering="optimizeSpeed" fill="#000000">github (11065)</text>
  <rect fill="blue" height="113.1" stroke="black" width="12" x="1560" y="738.7"/>
  <text x="1560" y="856.8" font-family="Tahoma" font-size="12" transform="rotate(90 1560,856.8)" text-rendering="optimizeSpeed" fill="#000000">checkstyle (11314)</text>
  <rect fill="blue" height="113.5" stroke="black" width="12" x="1575" y="738.3"/>
  <text x="1575" y="856.8" font-family="Tahoma" font-size="12" transform="rotate(90 1575,856.8)" text-rendering="optimizeSpeed" fill="#000000">cobertura (11346)</text>
  <rect fill="blue" height="114.3" stroke="black" width="12" x="1590" y="737.5"/>
  <text x="1590" y="856.8" font-family="Tahoma" font-size="12" transform="rotate(90 1590,856.8)" text-rendering="optimizeSpeed" fill="#000000">dashboard-view (11429)</text>
  <rect fill="blue" height="114.4" stroke="black" width="12" x="1605" y="737.4"/>
  <text x="1605" y="856.8" font-family="Tahoma" font-size="12" transform="rotate(90 1605,856.8)" text-rendering="optimizeSpeed" fill="#000000">copyartifact (11440)</text>
  <rect fill="blue" height="115.9" stroke="black" width="12" x="1620" y="735.9"/>
  <text x="1620" y="856.8" font-family="Tahoma" font-size="12" transform="rotate(90 1620,856.8)" text-rendering="optimizeSpeed" fill="#000000">github-api (11591)</text>
  <rect fill="blue" height="116.7" stroke="black" width="12" x="1635" y="735.1"/>
  <text x="1635" y="856.8" font-family="Tahoma" font-size="12" transform="rotate(90 1635,856.8)" text-rendering="optimizeSpeed" fill="#000000">sonar (11666)</text>
  <rect fill="blue" height="128.6" stroke="black" width="12" x="1650" y="723.2"/>
  <text x="1650" y="856.8" font-family="Tahoma" font-size="12" transform="rotate(90 1650,856.8)" text-rendering="optimizeSpeed" fill="#000000">htmlpublisher (12855)</text>
  <rect fill="blue" height="137.3" stroke="black" width="12" x="1665" y="714.5"/>
  <text x="1665" y="856.8" font-family="Tahoma" font-size="12" transform="rotate(90 1665,856.8)" text-rendering="optimizeSpeed" fill="#000000">envinject (13726)</text>
  <rect fill="blue" height="139.4" stroke="black" width="12" x="1680" y="712.4"/>
  <text x="1680" y="856.8" font-family="Tahoma" font-size="12" transform="rotate(90 1680,856.8)" text-rendering="optimizeSpeed" fill="#000000">jquery (13942)</text>
  <rect fill="blue" height="172.2" stroke="black" width="12" x="1695" y="679.7"/>
  <text x="1695" y="856.8" font-family="Tahoma" font-size="12" transform="rotate(90 1695,856.8)" text-rendering="optimizeSpeed" fill="#000000">greenballs (17215)</text>
  <rect fill="blue" height="205.9" stroke="black" width="12" x="1710" y="645.9"/>
  <text x="1710" y="856.8" font-family="Tahoma" font-size="12" transform="rotate(90 1710,856.8)" text-rendering="optimizeSpeed" fill="#000000">antisamy-markup-formatter (20593)</text>
  <rect fill="blue" height="208.3" stroke="black" width="12" x="1725" y="643.5"/>
  <text x="1725" y="856.8" font-family="Tahoma" font-size="12" transform="rotate(90 1725,856.8)" text-rendering="optimizeSpeed" fill="#000000">parameterized-trigger (20830)</text>
  <rect fill="blue" height="234.2" stroke="black" width="12" x="1740" y="617.6"/>
  <text x="1740" y="856.8" font-family="Tahoma" font-size="12" transform="rotate(90 1740,856.8)" text-rendering="optimizeSpeed" fill="#000000">analysis-core (23424)</text>
  <rect fill="blue" height="237.1" stroke="black" width="12" x="1755" y="614.7"/>
  <text x="1755" y="856.8" font-family="Tahoma" font-size="12" transform="rotate(90 1755,856.8)" text-rendering="optimizeSpeed" fill="#000000">email-ext (23710)</text>
  <rect fill="blue" height="317.1" stroke="black" width="12" x="1770" y="534.7"/>
  <text x="1770" y="856.8" font-family="Tahoma" font-size="12" transform="rotate(90 1770,856.8)" text-rendering="optimizeSpeed" fill="#000000">token-macro (31710)</text>
  <rect fill="blue" height="350.2" stroke="black" width="12" x="1785" y="501.6"/>
  <text x="1785" y="856.8" font-family="Tahoma" font-size="12" transform="rotate(90 1785,856.8)" text-rendering="optimizeSpeed" fill="#000000">scm-api (35017)</text>
  <rect fill="blue" height="353.4" stroke="black" width="12" x="1800" y="498.4"/>
  <text x="1800" y="856.8" font-family="Tahoma" font-size="12" transform="rotate(90 1800,856.8)" text-rendering="optimizeSpeed" fill="#000000">git-client (35337)</text>
  <rect fill="blue" height="354.3" stroke="black" width="12" x="1815" y="497.5"/>
  <text x="1815" y="856.8" font-family="Tahoma" font-size="12" transform="rotate(90 1815,856.8)" text-rendering="optimizeSpeed" fill="#000000">windows-slaves (35430)</text>
  <rect fill="blue" height="396.0" stroke="black" width="12" x="1830" y="455.8"/>
  <text x="1830" y="856.8" font-family="Tahoma" font-size="12" transform="rotate(90 1830,856.8)" text-rendering="optimizeSpeed" fill="#000000">git (39603)</text>
  <rect fill="blue" height="477.2" stroke="black" width="12" x="1845" y="374.6"/>
  <text x="1845" y="856.8" font-family="Tahoma" font-size="12" transform="rotate(90 1845,856.8)" text-rendering="optimizeSpeed" fill="#000000">matrix-auth (47722)</text>
  <rect fill="blue" height="697.6" stroke="black" width="12" x="1860" y="154.2"/>
  <text x="1860" y="856.8" font-family="Tahoma" font-size="12" transform="rotate(90 1860,856.8)" text-rendering="optimizeSpeed" fill="#000000">ssh-credentials (69757)</text>
  <rect fill="blue" height="701.4" stroke="black" width="12" x="1875" y="150.4"/>
  <text x="1875" y="856.8" font-family="Tahoma" font-size="12" transform="rotate(90 1875,856.8)" text-rendering="optimizeSpeed" fill="#000000">credentials (70137)</text>
  <rect fill="blue" height="729.7" stroke="black" width="12" x="1890" y="122.1"/>
  <text x="1890" y="856.8" font-family="Tahoma" font-size="12" transform="rotate(90 1890,856.8)" text-rendering="optimizeSpeed" fill="#000000">mailer (72968)</text>
  <rect fill="blue" height="750.2" stroke="black" width="12" x="1905" y="101.6"/>
  <text x="1905" y="856.8" font-family="Tahoma" font-size="12" transform="rotate(90 1905,856.8)" text-rendering="optimizeSpeed" fill="#000000">ldap (75024)</text>
  <rect fill="blue" height="754.4" stroke="black" width="12" x="1920" y="97.4"/>
  <text x="1920" y="856.8" font-family="Tahoma" font-size="12" transform="rotate(90 1920,856.8)" text-rendering="optimizeSpeed" fill="#000000">pam-auth (75442)</text>
  <rect fill="blue" height="758.5" stroke="black" width="12" x="1935" y="93.3"/>
  <text x="1935" y="856.8" font-family="Tahoma" font-size="12" transform="rotate(90 1935,856.8)" text-rendering="optimizeSpeed" fill="#000000">cvs (75845)</text>
  <rect fill="blue" height="761.4" stroke="black" width="12" x="1950" y="90.4"/>
  <text x="1950" y="856.8" font-family="Tahoma" font-size="12" transform="rotate(90 1950,856.8)" text-rendering="optimizeSpeed" fill="#000000">external-monitor-job (76140)</text>
  <rect fill="blue" height="780.4" stroke="black" width="12" x="1965" y="71.4"/>
  <text x="1965" y="856.8" font-family="Tahoma" font-size="12" transform="rotate(90 1965,856.8)" text-rendering="optimizeSpeed" fill="#000000">translation (78039)</text>
  <rect fill="blue" height="786.1" stroke="black" width="12" x="1980" y="65.7"/>
  <text x="1980" y="856.8" font-family="Tahoma" font-size="12" transform="rotate(90 1980,856.8)" text-rendering="optimizeSpeed" fill="#000000">subversion (78611)</text>
  <rect fill="blue" height="786.1" stroke="black" width="12" x="1995" y="65.7"/>
  <text x="1995" y="856.8" font-family="Tahoma" font-size="12" transform="rotate(90 1995,856.8)" text-rendering="optimizeSpeed" fill="#000000">ant (78614)</text>
  <rect fill="blue" height="792.8" stroke="black" width="12" x="2010" y="59.0"/>
  <text x="2010" y="856.8" font-family="Tahoma" font-size="12" transform="rotate(90 2010,856.8)" text-rendering="optimizeSpeed" fill="#000000">javadoc (79276)</text>
  <rect fill="blue" height="798.9" stroke="black" width="12" x="2025" y="52.9"/>
  <text x="2025" y="856.8" font-family="Tahoma" font-size="12" transform="rotate(90 2025,856.8)" text-rendering="optimizeSpeed" fill="#000000">maven-plugin (79894)</text>
  <rect fill="blue" height="801.8" stroke="black" width="12" x="2040" y="50.0"/>
  <text x="2040" y="856.8" font-family="Tahoma" font-size="12" transform="rotate(90 2040,856.8)" text-rendering="optimizeSpeed" fill="#000000">ssh-slaves (80180)</text>
  <text x="10" y="40" font-family="Tahoma" font-size="20" text-rendering="optimizeSpeed" fill="#000000">Plugin installations (installations &gt; 2500)</text>
</svg>
