<svg xmlns="http://www.w3.org/2000/svg" version="1.1" preserveAspectRatio="xMidYMid meet" viewBox="0 0 1130 12699.7">
  <rect fill="blue" height="0.1" stroke="black" width="12" x="15" y="12399.6"/>
  <text x="15" y="12404.7" font-family="Tahoma" font-size="12" transform="rotate(90 15,12404.7)" text-rendering="optimizeSpeed" fill="#000000">DragonFly (i386) (1)</text>
  <rect fill="blue" height="0.1" stroke="black" width="12" x="30" y="12399.6"/>
  <text x="30" y="12404.7" font-family="Tahoma" font-size="12" transform="rotate(90 30,12404.7)" text-rendering="optimizeSpeed" fill="#000000">HP-UX (PA_RISC2.0W) (1)</text>
  <rect fill="blue" height="0.1" stroke="black" width="12" x="45" y="12399.6"/>
  <text x="45" y="12404.7" font-family="Tahoma" font-size="12" transform="rotate(90 45,12404.7)" text-rendering="optimizeSpeed" fill="#000000">Haiku (i386) (1)</text>
  <rect fill="blue" height="0.1" stroke="black" width="12" x="60" y="12399.6"/>
  <text x="60" y="12404.7" font-family="Tahoma" font-size="12" transform="rotate(90 60,12404.7)" text-rendering="optimizeSpeed" fill="#000000">Linux (x86_64) (1)</text>
  <rect fill="blue" height="0.1" stroke="black" width="12" x="75" y="12399.6"/>
  <text x="75" y="12404.7" font-family="Tahoma" font-size="12" transform="rotate(90 75,12404.7)" text-rendering="optimizeSpeed" fill="#000000">Mac OS X (ppc) (1)</text>
  <rect fill="blue" height="0.1" stroke="black" width="12" x="90" y="12399.6"/>
  <text x="90" y="12404.7" font-family="Tahoma" font-size="12" transform="rotate(90 90,12404.7)" text-rendering="optimizeSpeed" fill="#000000">Unknown (x86_64) (1)</text>
  <rect fill="blue" height="0.1" stroke="black" width="12" x="105" y="12399.6"/>
  <text x="105" y="12404.7" font-family="Tahoma" font-size="12" transform="rotate(90 105,12404.7)" text-rendering="optimizeSpeed" fill="#000000">Windows (x86) (1)</text>
  <rect fill="blue" height="0.1" stroke="black" width="12" x="120" y="12399.6"/>
  <text x="120" y="12404.7" font-family="Tahoma" font-size="12" transform="rotate(90 120,12404.7)" text-rendering="optimizeSpeed" fill="#000000">Windows 2003 (ia64) (1)</text>
  <rect fill="blue" height="0.1" stroke="black" width="12" x="135" y="12399.6"/>
  <text x="135" y="12404.7" font-family="Tahoma" font-size="12" transform="rotate(90 135,12404.7)" text-rendering="optimizeSpeed" fill="#000000">Windows Server 2008 (ia64) (1)</text>
  <rect fill="blue" height="0.1" stroke="black" width="12" x="150" y="12399.6"/>
  <text x="150" y="12404.7" font-family="Tahoma" font-size="12" transform="rotate(90 150,12404.7)" text-rendering="optimizeSpeed" fill="#000000">Windows Server 2008 R2 (ia64) (1)</text>
  <rect fill="blue" height="0.2" stroke="black" width="12" x="165" y="12399.5"/>
  <text x="165" y="12404.7" font-family="Tahoma" font-size="12" transform="rotate(90 165,12404.7)" text-rendering="optimizeSpeed" fill="#000000">Darwin (i386) (2)</text>
  <rect fill="blue" height="0.2" stroke="black" width="12" x="180" y="12399.5"/>
  <text x="180" y="12404.7" font-family="Tahoma" font-size="12" transform="rotate(90 180,12404.7)" text-rendering="optimizeSpeed" fill="#000000">DragonFlyBSD (amd64) (2)</text>
  <rect fill="blue" height="0.2" stroke="black" width="12" x="195" y="12399.5"/>
  <text x="195" y="12404.7" font-family="Tahoma" font-size="12" transform="rotate(90 195,12404.7)" text-rendering="optimizeSpeed" fill="#000000">Mac OS X (amd64) (2)</text>
  <rect fill="blue" height="0.2" stroke="black" width="12" x="210" y="12399.5"/>
  <text x="210" y="12404.7" font-family="Tahoma" font-size="12" transform="rotate(90 210,12404.7)" text-rendering="optimizeSpeed" fill="#000000">z/OS (s390) (2)</text>
  <rect fill="blue" height="0.3" stroke="black" width="12" x="225" y="12399.4"/>
  <text x="225" y="12404.7" font-family="Tahoma" font-size="12" transform="rotate(90 225,12404.7)" text-rendering="optimizeSpeed" fill="#000000">NetBSD (amd64) (3)</text>
  <rect fill="blue" height="0.3" stroke="black" width="12" x="240" y="12399.4"/>
  <text x="240" y="12404.7" font-family="Tahoma" font-size="12" transform="rotate(90 240,12404.7)" text-rendering="optimizeSpeed" fill="#000000">OS/400 (PowerPC) (3)</text>
  <rect fill="blue" height="0.3" stroke="black" width="12" x="255" y="12399.4"/>
  <text x="255" y="12404.7" font-family="Tahoma" font-size="12" transform="rotate(90 255,12404.7)" text-rendering="optimizeSpeed" fill="#000000">OpenBSD (i386) (3)</text>
  <rect fill="blue" height="0.3" stroke="black" width="12" x="270" y="12399.4"/>
  <text x="270" y="12404.7" font-family="Tahoma" font-size="12" transform="rotate(90 270,12404.7)" text-rendering="optimizeSpeed" fill="#000000">Windows (amd64) (3)</text>
  <rect fill="blue" height="0.4" stroke="black" width="12" x="285" y="12399.3"/>
  <text x="285" y="12404.7" font-family="Tahoma" font-size="12" transform="rotate(90 285,12404.7)" text-rendering="optimizeSpeed" fill="#000000">HP-UX (ia64) (4)</text>
  <rect fill="blue" height="0.4" stroke="black" width="12" x="300" y="12399.3"/>
  <text x="300" y="12404.7" font-family="Tahoma" font-size="12" transform="rotate(90 300,12404.7)" text-rendering="optimizeSpeed" fill="#000000">Linux (aarch64) (4)</text>
  <rect fill="blue" height="0.4" stroke="black" width="12" x="315" y="12399.3"/>
  <text x="315" y="12404.7" font-family="Tahoma" font-size="12" transform="rotate(90 315,12404.7)" text-rendering="optimizeSpeed" fill="#000000">z/OS (s390x) (4)</text>
  <rect fill="blue" height="0.8" stroke="black" width="12" x="330" y="12398.9"/>
  <text x="330" y="12404.7" font-family="Tahoma" font-size="12" transform="rotate(90 330,12404.7)" text-rendering="optimizeSpeed" fill="#000000">NetBSD (i386) (8)</text>
  <rect fill="blue" height="1.0" stroke="black" width="12" x="345" y="12398.7"/>
  <text x="345" y="12404.7" font-family="Tahoma" font-size="12" transform="rotate(90 345,12404.7)" text-rendering="optimizeSpeed" fill="#000000">Windows Server 2003 (amd64) (10)</text>
  <rect fill="blue" height="1.3" stroke="black" width="12" x="360" y="12398.4"/>
  <text x="360" y="12404.7" font-family="Tahoma" font-size="12" transform="rotate(90 360,12404.7)" text-rendering="optimizeSpeed" fill="#000000">Linux (s390) (13)</text>
  <rect fill="blue" height="1.4" stroke="black" width="12" x="375" y="12398.3"/>
  <text x="375" y="12404.7" font-family="Tahoma" font-size="12" transform="rotate(90 375,12404.7)" text-rendering="optimizeSpeed" fill="#000000">Linux (ppc64le) (14)</text>
  <rect fill="blue" height="1.5" stroke="black" width="12" x="390" y="12398.2"/>
  <text x="390" y="12404.7" font-family="Tahoma" font-size="12" transform="rotate(90 390,12404.7)" text-rendering="optimizeSpeed" fill="#000000">OpenBSD (amd64) (15)</text>
  <rect fill="blue" height="1.6" stroke="black" width="12" x="405" y="12398.1"/>
  <text x="405" y="12404.7" font-family="Tahoma" font-size="12" transform="rotate(90 405,12404.7)" text-rendering="optimizeSpeed" fill="#000000">HP-UX (IA64W) (16)</text>
  <rect fill="blue" height="1.6" stroke="black" width="12" x="420" y="12398.1"/>
  <text x="420" y="12404.7" font-family="Tahoma" font-size="12" transform="rotate(90 420,12404.7)" text-rendering="optimizeSpeed" fill="#000000">Linux (ia64) (16)</text>
  <rect fill="blue" height="2.2" stroke="black" width="12" x="435" y="12397.5"/>
  <text x="435" y="12404.7" font-family="Tahoma" font-size="12" transform="rotate(90 435,12404.7)" text-rendering="optimizeSpeed" fill="#000000">Mac OS X (i386) (22)</text>
  <rect fill="blue" height="3.3" stroke="black" width="12" x="450" y="12396.4"/>
  <text x="450" y="12404.7" font-family="Tahoma" font-size="12" transform="rotate(90 450,12404.7)" text-rendering="optimizeSpeed" fill="#000000">Windows 2000 (x86) (33)</text>
  <rect fill="blue" height="4.2" stroke="black" width="12" x="465" y="12395.5"/>
  <text x="465" y="12404.7" font-family="Tahoma" font-size="12" transform="rotate(90 465,12404.7)" text-rendering="optimizeSpeed" fill="#000000">Linux (ppc) (42)</text>
  <rect fill="blue" height="5.8" stroke="black" width="12" x="480" y="12393.9"/>
  <text x="480" y="12404.7" font-family="Tahoma" font-size="12" transform="rotate(90 480,12404.7)" text-rendering="optimizeSpeed" fill="#000000">Windows Server 2003 (x86) (58)</text>
  <rect fill="blue" height="6.4" stroke="black" width="12" x="495" y="12393.3"/>
  <text x="495" y="12404.7" font-family="Tahoma" font-size="12" transform="rotate(90 495,12404.7)" text-rendering="optimizeSpeed" fill="#000000">HP-UX (PA_RISC2.0) (64)</text>
  <rect fill="blue" height="7.8" stroke="black" width="12" x="510" y="12391.9"/>
  <text x="510" y="12404.7" font-family="Tahoma" font-size="12" transform="rotate(90 510,12404.7)" text-rendering="optimizeSpeed" fill="#000000">Windows XP (amd64) (78)</text>
  <rect fill="blue" height="8.8" stroke="black" width="12" x="525" y="12390.9"/>
  <text x="525" y="12404.7" font-family="Tahoma" font-size="12" transform="rotate(90 525,12404.7)" text-rendering="optimizeSpeed" fill="#000000">Linux (s390x) (88)</text>
  <rect fill="blue" height="10.2" stroke="black" width="12" x="540" y="12389.5"/>
  <text x="540" y="12404.7" font-family="Tahoma" font-size="12" transform="rotate(90 540,12404.7)" text-rendering="optimizeSpeed" fill="#000000">Windows Vista (amd64) (102)</text>
  <rect fill="blue" height="12.5" stroke="black" width="12" x="555" y="12387.2"/>
  <text x="555" y="12404.7" font-family="Tahoma" font-size="12" transform="rotate(90 555,12404.7)" text-rendering="optimizeSpeed" fill="#000000">Linux (ppc64) (125)</text>
  <rect fill="blue" height="13.6" stroke="black" width="12" x="570" y="12386.1"/>
  <text x="570" y="12404.7" font-family="Tahoma" font-size="12" transform="rotate(90 570,12404.7)" text-rendering="optimizeSpeed" fill="#000000">SunOS (amd64) (136)</text>
  <rect fill="blue" height="13.6" stroke="black" width="12" x="585" y="12386.1"/>
  <text x="585" y="12404.7" font-family="Tahoma" font-size="12" transform="rotate(90 585,12404.7)" text-rendering="optimizeSpeed" fill="#000000">SunOS (sparcv9) (136)</text>
  <rect fill="blue" height="17.5" stroke="black" width="12" x="600" y="12382.2"/>
  <text x="600" y="12404.7" font-family="Tahoma" font-size="12" transform="rotate(90 600,12404.7)" text-rendering="optimizeSpeed" fill="#000000">Linux (x86) (175)</text>
  <rect fill="blue" height="21.5" stroke="black" width="12" x="615" y="12378.2"/>
  <text x="615" y="12404.7" font-family="Tahoma" font-size="12" transform="rotate(90 615,12404.7)" text-rendering="optimizeSpeed" fill="#000000">FreeBSD (i386) (215)</text>
  <rect fill="blue" height="22.2" stroke="black" width="12" x="630" y="12377.5"/>
  <text x="630" y="12404.7" font-family="Tahoma" font-size="12" transform="rotate(90 630,12404.7)" text-rendering="optimizeSpeed" fill="#000000">Linux (arm) (222)</text>
  <rect fill="blue" height="23.5" stroke="black" width="12" x="645" y="12376.2"/>
  <text x="645" y="12404.7" font-family="Tahoma" font-size="12" transform="rotate(90 645,12404.7)" text-rendering="optimizeSpeed" fill="#000000">HP-UX (IA64N) (235)</text>
  <rect fill="blue" height="31.4" stroke="black" width="12" x="660" y="12368.3"/>
  <text x="660" y="12404.7" font-family="Tahoma" font-size="12" transform="rotate(90 660,12404.7)" text-rendering="optimizeSpeed" fill="#000000">Windows NT (unknown) (amd64) (314)</text>
  <rect fill="blue" height="36.1" stroke="black" width="12" x="675" y="12363.6"/>
  <text x="675" y="12404.7" font-family="Tahoma" font-size="12" transform="rotate(90 675,12404.7)" text-rendering="optimizeSpeed" fill="#000000">Windows NT (unknown) (x86) (361)</text>
  <rect fill="blue" height="37.5" stroke="black" width="12" x="690" y="12362.2"/>
  <text x="690" y="12404.7" font-family="Tahoma" font-size="12" transform="rotate(90 690,12404.7)" text-rendering="optimizeSpeed" fill="#000000">Windows Server 2012 R2 (x86) (375)</text>
  <rect fill="blue" height="43.5" stroke="black" width="12" x="705" y="12356.2"/>
  <text x="705" y="12404.7" font-family="Tahoma" font-size="12" transform="rotate(90 705,12404.7)" text-rendering="optimizeSpeed" fill="#000000">FreeBSD (amd64) (435)</text>
  <rect fill="blue" height="44.1" stroke="black" width="12" x="720" y="12355.6"/>
  <text x="720" y="12404.7" font-family="Tahoma" font-size="12" transform="rotate(90 720,12404.7)" text-rendering="optimizeSpeed" fill="#000000">Windows 8.1 (x86) (441)</text>
  <rect fill="blue" height="47.2" stroke="black" width="12" x="735" y="12352.5"/>
  <text x="735" y="12404.7" font-family="Tahoma" font-size="12" transform="rotate(90 735,12404.7)" text-rendering="optimizeSpeed" fill="#000000">AIX (ppc) (472)</text>
  <rect fill="blue" height="60.1" stroke="black" width="12" x="750" y="12339.6"/>
  <text x="750" y="12404.7" font-family="Tahoma" font-size="12" transform="rotate(90 750,12404.7)" text-rendering="optimizeSpeed" fill="#000000">Windows 2003 (amd64) (601)</text>
  <rect fill="blue" height="60.9" stroke="black" width="12" x="765" y="12338.8"/>
  <text x="765" y="12404.7" font-family="Tahoma" font-size="12" transform="rotate(90 765,12404.7)" text-rendering="optimizeSpeed" fill="#000000">Windows 8.1 (amd64) (609)</text>
  <rect fill="blue" height="63.0" stroke="black" width="12" x="780" y="12336.7"/>
  <text x="780" y="12404.7" font-family="Tahoma" font-size="12" transform="rotate(90 780,12404.7)" text-rendering="optimizeSpeed" fill="#000000">Windows Vista (x86) (630)</text>
  <rect fill="blue" height="75.7" stroke="black" width="12" x="795" y="12324.0"/>
  <text x="795" y="12404.7" font-family="Tahoma" font-size="12" transform="rotate(90 795,12404.7)" text-rendering="optimizeSpeed" fill="#000000">AIX (ppc64) (757)</text>
  <rect fill="blue" height="78.0" stroke="black" width="12" x="810" y="12321.7"/>
  <text x="810" y="12404.7" font-family="Tahoma" font-size="12" transform="rotate(90 810,12404.7)" text-rendering="optimizeSpeed" fill="#000000">Windows Server 2008 (amd64) (780)</text>
  <rect fill="blue" height="82.3" stroke="black" width="12" x="825" y="12317.4"/>
  <text x="825" y="12404.7" font-family="Tahoma" font-size="12" transform="rotate(90 825,12404.7)" text-rendering="optimizeSpeed" fill="#000000">Windows 8 (amd64) (823)</text>
  <rect fill="blue" height="127.7" stroke="black" width="12" x="840" y="12272.0"/>
  <text x="840" y="12404.7" font-family="Tahoma" font-size="12" transform="rotate(90 840,12404.7)" text-rendering="optimizeSpeed" fill="#000000">Windows Server 2012 R2 (amd64) (1277)</text>
  <rect fill="blue" height="131.9" stroke="black" width="12" x="855" y="12267.8"/>
  <text x="855" y="12404.7" font-family="Tahoma" font-size="12" transform="rotate(90 855,12404.7)" text-rendering="optimizeSpeed" fill="#000000">SunOS (x86) (1319)</text>
  <rect fill="blue" height="161.4" stroke="black" width="12" x="870" y="12238.3"/>
  <text x="870" y="12404.7" font-family="Tahoma" font-size="12" transform="rotate(90 870,12404.7)" text-rendering="optimizeSpeed" fill="#000000">SunOS (sparc) (1614)</text>
  <rect fill="blue" height="161.6" stroke="black" width="12" x="885" y="12238.1"/>
  <text x="885" y="12404.7" font-family="Tahoma" font-size="12" transform="rotate(90 885,12404.7)" text-rendering="optimizeSpeed" fill="#000000">Windows Server 2008 (x86) (1616)</text>
  <rect fill="blue" height="178.4" stroke="black" width="12" x="900" y="12221.3"/>
  <text x="900" y="12404.7" font-family="Tahoma" font-size="12" transform="rotate(90 900,12404.7)" text-rendering="optimizeSpeed" fill="#000000">Windows 8 (x86) (1784)</text>
  <rect fill="blue" height="180.6" stroke="black" width="12" x="915" y="12219.1"/>
  <text x="915" y="12404.7" font-family="Tahoma" font-size="12" transform="rotate(90 915,12404.7)" text-rendering="optimizeSpeed" fill="#000000">Windows Server 2012 (amd64) (1806)</text>
  <rect fill="blue" height="270.6" stroke="black" width="12" x="930" y="12129.1"/>
  <text x="930" y="12404.7" font-family="Tahoma" font-size="12" transform="rotate(90 930,12404.7)" text-rendering="optimizeSpeed" fill="#000000">Windows Server 2012 (x86) (2706)</text>
  <rect fill="blue" height="341.0" stroke="black" width="12" x="945" y="12058.7"/>
  <text x="945" y="12404.7" font-family="Tahoma" font-size="12" transform="rotate(90 945,12404.7)" text-rendering="optimizeSpeed" fill="#000000">Windows XP (x86) (3410)</text>
  <rect fill="blue" height="419.8" stroke="black" width="12" x="960" y="11979.9"/>
  <text x="960" y="12404.7" font-family="Tahoma" font-size="12" transform="rotate(90 960,12404.7)" text-rendering="optimizeSpeed" fill="#000000">Windows 2003 (x86) (4198)</text>
  <rect fill="blue" height="962.2" stroke="black" width="12" x="975" y="11437.5"/>
  <text x="975" y="12404.7" font-family="Tahoma" font-size="12" transform="rotate(90 975,12404.7)" text-rendering="optimizeSpeed" fill="#000000">Windows Server 2008 R2 (x86) (9622)</text>
  <rect fill="blue" height="1169.1" stroke="black" width="12" x="990" y="11230.6"/>
  <text x="990" y="12404.7" font-family="Tahoma" font-size="12" transform="rotate(90 990,12404.7)" text-rendering="optimizeSpeed" fill="#000000">Windows 7 (amd64) (11691)</text>
  <rect fill="blue" height="1174.9" stroke="black" width="12" x="1005" y="11224.8"/>
  <text x="1005" y="12404.7" font-family="Tahoma" font-size="12" transform="rotate(90 1005,12404.7)" text-rendering="optimizeSpeed" fill="#000000">Windows Server 2008 R2 (amd64) (11749)</text>
  <rect fill="blue" height="1188.8" stroke="black" width="12" x="1020" y="11210.9"/>
  <text x="1020" y="12404.7" font-family="Tahoma" font-size="12" transform="rotate(90 1020,12404.7)" text-rendering="optimizeSpeed" fill="#000000">Mac OS X (x86_64) (11888)</text>
  <rect fill="blue" height="1664.2" stroke="black" width="12" x="1035" y="10735.5"/>
  <text x="1035" y="12404.7" font-family="Tahoma" font-size="12" transform="rotate(90 1035,12404.7)" text-rendering="optimizeSpeed" fill="#000000">Linux (i386) (16642)</text>
  <rect fill="blue" height="1879.1" stroke="black" width="12" x="1050" y="10520.6"/>
  <text x="1050" y="12404.7" font-family="Tahoma" font-size="12" transform="rotate(90 1050,12404.7)" text-rendering="optimizeSpeed" fill="#000000">Windows 7 (x86) (18791)</text>
  <rect fill="blue" height="7300.2" stroke="black" width="12" x="1065" y="5099.5"/>
  <text x="1065" y="12404.7" font-family="Tahoma" font-size="12" transform="rotate(90 1065,12404.7)" text-rendering="optimizeSpeed" fill="#000000">N/A (73002)</text>
  <rect fill="blue" height="12349.7" stroke="black" width="12" x="1080" y="50.0"/>
  <text x="1080" y="12404.7" font-family="Tahoma" font-size="12" transform="rotate(90 1080,12404.7)" text-rendering="optimizeSpeed" fill="#000000">Linux (amd64) (123497)</text>
  <text x="10" y="40" font-family="Tahoma" font-size="20" text-rendering="optimizeSpeed" fill="#000000">Nodes (total: 305075)</text>
</svg>
