<svg xmlns="http://www.w3.org/2000/svg" version="1.1" preserveAspectRatio="xMidYMid meet" viewBox="0 0 2315 1241.8">
  <rect fill="blue" height="25.0" stroke="black" width="12" x="15" y="916.8"/>
  <text x="15" y="946.8" font-family="Tahoma" font-size="12" transform="rotate(90 15,946.8)" text-rendering="optimizeSpeed" fill="#000000">build-user-vars-plugin (2501)</text>
  <rect fill="blue" height="25.0" stroke="black" width="12" x="30" y="916.8"/>
  <text x="30" y="946.8" font-family="Tahoma" font-size="12" transform="rotate(90 30,946.8)" text-rendering="optimizeSpeed" fill="#000000">gerrit-trigger (2503)</text>
  <rect fill="blue" height="25.3" stroke="black" width="12" x="45" y="916.5"/>
  <text x="45" y="946.8" font-family="Tahoma" font-size="12" transform="rotate(90 45,946.8)" text-rendering="optimizeSpeed" fill="#000000">compact-columns (2534)</text>
  <rect fill="blue" height="25.3" stroke="black" width="12" x="60" y="916.5"/>
  <text x="60" y="946.8" font-family="Tahoma" font-size="12" transform="rotate(90 60,946.8)" text-rendering="optimizeSpeed" fill="#000000">ftppublisher (2534)</text>
  <rect fill="blue" height="25.3" stroke="black" width="12" x="75" y="916.5"/>
  <text x="75" y="946.8" font-family="Tahoma" font-size="12" transform="rotate(90 75,946.8)" text-rendering="optimizeSpeed" fill="#000000">mstest (2534)</text>
  <rect fill="blue" height="25.5" stroke="black" width="12" x="90" y="916.3"/>
  <text x="90" y="946.8" font-family="Tahoma" font-size="12" transform="rotate(90 90,946.8)" text-rendering="optimizeSpeed" fill="#000000">locale (2553)</text>
  <rect fill="blue" height="25.6" stroke="black" width="12" x="105" y="916.3"/>
  <text x="105" y="946.8" font-family="Tahoma" font-size="12" transform="rotate(90 105,946.8)" text-rendering="optimizeSpeed" fill="#000000">xvfb (2556)</text>
  <rect fill="blue" height="25.6" stroke="black" width="12" x="120" y="916.2"/>
  <text x="120" y="946.8" font-family="Tahoma" font-size="12" transform="rotate(90 120,946.8)" text-rendering="optimizeSpeed" fill="#000000">jabber (2563)</text>
  <rect fill="blue" height="27.0" stroke="black" width="12" x="135" y="914.9"/>
  <text x="135" y="946.8" font-family="Tahoma" font-size="12" transform="rotate(90 135,946.8)" text-rendering="optimizeSpeed" fill="#000000">postbuildscript (2696)</text>
  <rect fill="blue" height="27.1" stroke="black" width="12" x="150" y="914.7"/>
  <text x="150" y="946.8" font-family="Tahoma" font-size="12" transform="rotate(90 150,946.8)" text-rendering="optimizeSpeed" fill="#000000">project-stats-plugin (2708)</text>
  <rect fill="blue" height="27.2" stroke="black" width="12" x="165" y="914.6"/>
  <text x="165" y="946.8" font-family="Tahoma" font-size="12" transform="rotate(90 165,946.8)" text-rendering="optimizeSpeed" fill="#000000">cppcheck (2725)</text>
  <rect fill="blue" height="27.3" stroke="black" width="12" x="180" y="914.6"/>
  <text x="180" y="946.8" font-family="Tahoma" font-size="12" transform="rotate(90 180,946.8)" text-rendering="optimizeSpeed" fill="#000000">radiatorviewplugin (2726)</text>
  <rect fill="blue" height="27.4" stroke="black" width="12" x="195" y="914.4"/>
  <text x="195" y="946.8" font-family="Tahoma" font-size="12" transform="rotate(90 195,946.8)" text-rendering="optimizeSpeed" fill="#000000">flexible-publish (2744)</text>
  <rect fill="blue" height="28.4" stroke="black" width="12" x="210" y="913.5"/>
  <text x="210" y="946.8" font-family="Tahoma" font-size="12" transform="rotate(90 210,946.8)" text-rendering="optimizeSpeed" fill="#000000">doxygen (2835)</text>
  <rect fill="blue" height="28.7" stroke="black" width="12" x="225" y="913.1"/>
  <text x="225" y="946.8" font-family="Tahoma" font-size="12" transform="rotate(90 225,946.8)" text-rendering="optimizeSpeed" fill="#000000">batch-task (2868)</text>
  <rect fill="blue" height="28.9" stroke="black" width="12" x="240" y="912.9"/>
  <text x="240" y="946.8" font-family="Tahoma" font-size="12" transform="rotate(90 240,946.8)" text-rendering="optimizeSpeed" fill="#000000">rake (2894)</text>
  <rect fill="blue" height="29.2" stroke="black" width="12" x="255" y="912.7"/>
  <text x="255" y="946.8" font-family="Tahoma" font-size="12" transform="rotate(90 255,946.8)" text-rendering="optimizeSpeed" fill="#000000">job-import-plugin (2917)</text>
  <rect fill="blue" height="30.3" stroke="black" width="12" x="270" y="911.5"/>
  <text x="270" y="946.8" font-family="Tahoma" font-size="12" transform="rotate(90 270,946.8)" text-rendering="optimizeSpeed" fill="#000000">ghprb (3028)</text>
  <rect fill="blue" height="30.5" stroke="black" width="12" x="285" y="911.3"/>
  <text x="285" y="946.8" font-family="Tahoma" font-size="12" transform="rotate(90 285,946.8)" text-rendering="optimizeSpeed" fill="#000000">testng-plugin (3049)</text>
  <rect fill="blue" height="30.6" stroke="black" width="12" x="300" y="911.2"/>
  <text x="300" y="946.8" font-family="Tahoma" font-size="12" transform="rotate(90 300,946.8)" text-rendering="optimizeSpeed" fill="#000000">all-changes (3063)</text>
  <rect fill="blue" height="30.7" stroke="black" width="12" x="315" y="911.1"/>
  <text x="315" y="946.8" font-family="Tahoma" font-size="12" transform="rotate(90 315,946.8)" text-rendering="optimizeSpeed" fill="#000000">versionnumber (3074)</text>
  <rect fill="blue" height="31.2" stroke="black" width="12" x="330" y="910.6"/>
  <text x="330" y="946.8" font-family="Tahoma" font-size="12" transform="rotate(90 330,946.8)" text-rendering="optimizeSpeed" fill="#000000">claim (3120)</text>
  <rect fill="blue" height="31.8" stroke="black" width="12" x="345" y="910.1"/>
  <text x="345" y="946.8" font-family="Tahoma" font-size="12" transform="rotate(90 345,946.8)" text-rendering="optimizeSpeed" fill="#000000">powershell (3175)</text>
  <rect fill="blue" height="32.0" stroke="black" width="12" x="360" y="909.8"/>
  <text x="360" y="946.8" font-family="Tahoma" font-size="12" transform="rotate(90 360,946.8)" text-rendering="optimizeSpeed" fill="#000000">release (3205)</text>
  <rect fill="blue" height="32.1" stroke="black" width="12" x="375" y="909.7"/>
  <text x="375" y="946.8" font-family="Tahoma" font-size="12" transform="rotate(90 375,946.8)" text-rendering="optimizeSpeed" fill="#000000">build-monitor-plugin (3210)</text>
  <rect fill="blue" height="32.1" stroke="black" width="12" x="390" y="909.7"/>
  <text x="390" y="946.8" font-family="Tahoma" font-size="12" transform="rotate(90 390,946.8)" text-rendering="optimizeSpeed" fill="#000000">publish-over-ftp (3210)</text>
  <rect fill="blue" height="32.4" stroke="black" width="12" x="405" y="909.4"/>
  <text x="405" y="946.8" font-family="Tahoma" font-size="12" transform="rotate(90 405,946.8)" text-rendering="optimizeSpeed" fill="#000000">github-oauth (3239)</text>
  <rect fill="blue" height="32.6" stroke="black" width="12" x="420" y="909.3"/>
  <text x="420" y="946.8" font-family="Tahoma" font-size="12" transform="rotate(90 420,946.8)" text-rendering="optimizeSpeed" fill="#000000">global-build-stats (3256)</text>
  <rect fill="blue" height="32.7" stroke="black" width="12" x="435" y="909.1"/>
  <text x="435" y="946.8" font-family="Tahoma" font-size="12" transform="rotate(90 435,946.8)" text-rendering="optimizeSpeed" fill="#000000">sidebar-link (3273)</text>
  <rect fill="blue" height="33.3" stroke="black" width="12" x="450" y="908.5"/>
  <text x="450" y="946.8" font-family="Tahoma" font-size="12" transform="rotate(90 450,946.8)" text-rendering="optimizeSpeed" fill="#000000">android-emulator (3329)</text>
  <rect fill="blue" height="33.4" stroke="black" width="12" x="465" y="908.5"/>
  <text x="465" y="946.8" font-family="Tahoma" font-size="12" transform="rotate(90 465,946.8)" text-rendering="optimizeSpeed" fill="#000000">scriptler (3337)</text>
  <rect fill="blue" height="33.5" stroke="black" width="12" x="480" y="908.4"/>
  <text x="480" y="946.8" font-family="Tahoma" font-size="12" transform="rotate(90 480,946.8)" text-rendering="optimizeSpeed" fill="#000000">console-column-plugin (3346)</text>
  <rect fill="blue" height="33.6" stroke="black" width="12" x="495" y="908.2"/>
  <text x="495" y="946.8" font-family="Tahoma" font-size="12" transform="rotate(90 495,946.8)" text-rendering="optimizeSpeed" fill="#000000">text-finder (3358)</text>
  <rect fill="blue" height="33.7" stroke="black" width="12" x="510" y="908.1"/>
  <text x="510" y="946.8" font-family="Tahoma" font-size="12" transform="rotate(90 510,946.8)" text-rendering="optimizeSpeed" fill="#000000">locks-and-latches (3370)</text>
  <rect fill="blue" height="33.8" stroke="black" width="12" x="525" y="908.0"/>
  <text x="525" y="946.8" font-family="Tahoma" font-size="12" transform="rotate(90 525,946.8)" text-rendering="optimizeSpeed" fill="#000000">downstream-buildview (3382)</text>
  <rect fill="blue" height="33.8" stroke="black" width="12" x="540" y="908.0"/>
  <text x="540" y="946.8" font-family="Tahoma" font-size="12" transform="rotate(90 540,946.8)" text-rendering="optimizeSpeed" fill="#000000">next-build-number (3384)</text>
  <rect fill="blue" height="34.5" stroke="black" width="12" x="555" y="907.3"/>
  <text x="555" y="946.8" font-family="Tahoma" font-size="12" transform="rotate(90 555,946.8)" text-rendering="optimizeSpeed" fill="#000000">audit-trail (3452)</text>
  <rect fill="blue" height="34.5" stroke="black" width="12" x="570" y="907.3"/>
  <text x="570" y="946.8" font-family="Tahoma" font-size="12" transform="rotate(90 570,946.8)" text-rendering="optimizeSpeed" fill="#000000">description-setter (3454)</text>
  <rect fill="blue" height="34.5" stroke="black" width="12" x="585" y="907.3"/>
  <text x="585" y="946.8" font-family="Tahoma" font-size="12" transform="rotate(90 585,946.8)" text-rendering="optimizeSpeed" fill="#000000">mask-passwords (3454)</text>
  <rect fill="blue" height="35.4" stroke="black" width="12" x="600" y="906.4"/>
  <text x="600" y="946.8" font-family="Tahoma" font-size="12" transform="rotate(90 600,946.8)" text-rendering="optimizeSpeed" fill="#000000">jacoco (3543)</text>
  <rect fill="blue" height="35.7" stroke="black" width="12" x="615" y="906.2"/>
  <text x="615" y="946.8" font-family="Tahoma" font-size="12" transform="rotate(90 615,946.8)" text-rendering="optimizeSpeed" fill="#000000">extra-columns (3567)</text>
  <rect fill="blue" height="35.8" stroke="black" width="12" x="630" y="906.1"/>
  <text x="630" y="946.8" font-family="Tahoma" font-size="12" transform="rotate(90 630,946.8)" text-rendering="optimizeSpeed" fill="#000000">saferestart (3576)</text>
  <rect fill="blue" height="36.4" stroke="black" width="12" x="645" y="905.4"/>
  <text x="645" y="946.8" font-family="Tahoma" font-size="12" transform="rotate(90 645,946.8)" text-rendering="optimizeSpeed" fill="#000000">groovy-postbuild (3639)</text>
  <rect fill="blue" height="36.7" stroke="black" width="12" x="660" y="905.1"/>
  <text x="660" y="946.8" font-family="Tahoma" font-size="12" transform="rotate(90 660,946.8)" text-rendering="optimizeSpeed" fill="#000000">configurationslicing (3674)</text>
  <rect fill="blue" height="37.1" stroke="black" width="12" x="675" y="904.7"/>
  <text x="675" y="946.8" font-family="Tahoma" font-size="12" transform="rotate(90 675,946.8)" text-rendering="optimizeSpeed" fill="#000000">perforce (3714)</text>
  <rect fill="blue" height="37.7" stroke="black" width="12" x="690" y="904.2"/>
  <text x="690" y="946.8" font-family="Tahoma" font-size="12" transform="rotate(90 690,946.8)" text-rendering="optimizeSpeed" fill="#000000">throttle-concurrents (3766)</text>
  <rect fill="blue" height="37.7" stroke="black" width="12" x="705" y="904.1"/>
  <text x="705" y="946.8" font-family="Tahoma" font-size="12" transform="rotate(90 705,946.8)" text-rendering="optimizeSpeed" fill="#000000">emma (3768)</text>
  <rect fill="blue" height="38.0" stroke="black" width="12" x="720" y="903.8"/>
  <text x="720" y="946.8" font-family="Tahoma" font-size="12" transform="rotate(90 720,946.8)" text-rendering="optimizeSpeed" fill="#000000">svn-tag (3805)</text>
  <rect fill="blue" height="38.4" stroke="black" width="12" x="735" y="903.4"/>
  <text x="735" y="946.8" font-family="Tahoma" font-size="12" transform="rotate(90 735,946.8)" text-rendering="optimizeSpeed" fill="#000000">cloverphp (3842)</text>
  <rect fill="blue" height="39.0" stroke="black" width="12" x="750" y="902.8"/>
  <text x="750" y="946.8" font-family="Tahoma" font-size="12" transform="rotate(90 750,946.8)" text-rendering="optimizeSpeed" fill="#000000">nunit (3904)</text>
  <rect fill="blue" height="39.6" stroke="black" width="12" x="765" y="902.3"/>
  <text x="765" y="946.8" font-family="Tahoma" font-size="12" transform="rotate(90 765,946.8)" text-rendering="optimizeSpeed" fill="#000000">depgraph-view (3956)</text>
  <rect fill="blue" height="39.8" stroke="black" width="12" x="780" y="902.0"/>
  <text x="780" y="946.8" font-family="Tahoma" font-size="12" transform="rotate(90 780,946.8)" text-rendering="optimizeSpeed" fill="#000000">build-flow-plugin (3982)</text>
  <rect fill="blue" height="40.2" stroke="black" width="12" x="795" y="901.6"/>
  <text x="795" y="946.8" font-family="Tahoma" font-size="12" transform="rotate(90 795,946.8)" text-rendering="optimizeSpeed" fill="#000000">python (4020)</text>
  <rect fill="blue" height="40.2" stroke="black" width="12" x="810" y="901.6"/>
  <text x="810" y="946.8" font-family="Tahoma" font-size="12" transform="rotate(90 810,946.8)" text-rendering="optimizeSpeed" fill="#000000">extended-choice-parameter (4023)</text>
  <rect fill="blue" height="40.5" stroke="black" width="12" x="825" y="901.3"/>
  <text x="825" y="946.8" font-family="Tahoma" font-size="12" transform="rotate(90 825,946.8)" text-rendering="optimizeSpeed" fill="#000000">nodelabelparameter (4051)</text>
  <rect fill="blue" height="40.6" stroke="black" width="12" x="840" y="901.3"/>
  <text x="840" y="946.8" font-family="Tahoma" font-size="12" transform="rotate(90 840,946.8)" text-rendering="optimizeSpeed" fill="#000000">config-file-provider (4056)</text>
  <rect fill="blue" height="40.7" stroke="black" width="12" x="855" y="901.1"/>
  <text x="855" y="946.8" font-family="Tahoma" font-size="12" transform="rotate(90 855,946.8)" text-rendering="optimizeSpeed" fill="#000000">xcode-plugin (4071)</text>
  <rect fill="blue" height="40.9" stroke="black" width="12" x="870" y="900.9"/>
  <text x="870" y="946.8" font-family="Tahoma" font-size="12" transform="rotate(90 870,946.8)" text-rendering="optimizeSpeed" fill="#000000">buildgraph-view (4094)</text>
  <rect fill="blue" height="41.1" stroke="black" width="12" x="885" y="900.8"/>
  <text x="885" y="946.8" font-family="Tahoma" font-size="12" transform="rotate(90 885,946.8)" text-rendering="optimizeSpeed" fill="#000000">jdepend (4107)</text>
  <rect fill="blue" height="41.1" stroke="black" width="12" x="900" y="900.8"/>
  <text x="900" y="946.8" font-family="Tahoma" font-size="12" transform="rotate(90 900,946.8)" text-rendering="optimizeSpeed" fill="#000000">port-allocator (4107)</text>
  <rect fill="blue" height="42.2" stroke="black" width="12" x="915" y="899.6"/>
  <text x="915" y="946.8" font-family="Tahoma" font-size="12" transform="rotate(90 915,946.8)" text-rendering="optimizeSpeed" fill="#000000">join (4222)</text>
  <rect fill="blue" height="44.4" stroke="black" width="12" x="930" y="897.4"/>
  <text x="930" y="946.8" font-family="Tahoma" font-size="12" transform="rotate(90 930,946.8)" text-rendering="optimizeSpeed" fill="#000000">tasks (4439)</text>
  <rect fill="blue" height="45.0" stroke="black" width="12" x="945" y="896.8"/>
  <text x="945" y="946.8" font-family="Tahoma" font-size="12" transform="rotate(90 945,946.8)" text-rendering="optimizeSpeed" fill="#000000">mercurial (4502)</text>
  <rect fill="blue" height="46.3" stroke="black" width="12" x="960" y="895.5"/>
  <text x="960" y="946.8" font-family="Tahoma" font-size="12" transform="rotate(90 960,946.8)" text-rendering="optimizeSpeed" fill="#000000">rebuild (4627)</text>
  <rect fill="blue" height="46.4" stroke="black" width="12" x="975" y="895.4"/>
  <text x="975" y="946.8" font-family="Tahoma" font-size="12" transform="rotate(90 975,946.8)" text-rendering="optimizeSpeed" fill="#000000">nested-view (4639)</text>
  <rect fill="blue" height="46.5" stroke="black" width="12" x="990" y="895.3"/>
  <text x="990" y="946.8" font-family="Tahoma" font-size="12" transform="rotate(90 990,946.8)" text-rendering="optimizeSpeed" fill="#000000">multiple-scms (4652)</text>
  <rect fill="blue" height="47.5" stroke="black" width="12" x="1005" y="894.3"/>
  <text x="1005" y="946.8" font-family="Tahoma" font-size="12" transform="rotate(90 1005,946.8)" text-rendering="optimizeSpeed" fill="#000000">git-parameter (4749)</text>
  <rect fill="blue" height="48.4" stroke="black" width="12" x="1020" y="893.4"/>
  <text x="1020" y="946.8" font-family="Tahoma" font-size="12" transform="rotate(90 1020,946.8)" text-rendering="optimizeSpeed" fill="#000000">jenkins-multijob-plugin (4841)</text>
  <rect fill="blue" height="48.5" stroke="black" width="12" x="1035" y="893.3"/>
  <text x="1035" y="946.8" font-family="Tahoma" font-size="12" transform="rotate(90 1035,946.8)" text-rendering="optimizeSpeed" fill="#000000">simple-theme-plugin (4847)</text>
  <rect fill="blue" height="49.6" stroke="black" width="12" x="1050" y="892.3"/>
  <text x="1050" y="946.8" font-family="Tahoma" font-size="12" transform="rotate(90 1050,946.8)" text-rendering="optimizeSpeed" fill="#000000">scp (4956)</text>
  <rect fill="blue" height="50.0" stroke="black" width="12" x="1065" y="891.8"/>
  <text x="1065" y="946.8" font-family="Tahoma" font-size="12" transform="rotate(90 1065,946.8)" text-rendering="optimizeSpeed" fill="#000000">artifactory (4999)</text>
  <rect fill="blue" height="50.3" stroke="black" width="12" x="1080" y="891.5"/>
  <text x="1080" y="946.8" font-family="Tahoma" font-size="12" transform="rotate(90 1080,946.8)" text-rendering="optimizeSpeed" fill="#000000">copy-to-slave (5028)</text>
  <rect fill="blue" height="51.2" stroke="black" width="12" x="1095" y="890.6"/>
  <text x="1095" y="946.8" font-family="Tahoma" font-size="12" transform="rotate(90 1095,946.8)" text-rendering="optimizeSpeed" fill="#000000">m2release (5122)</text>
  <rect fill="blue" height="51.4" stroke="black" width="12" x="1110" y="890.4"/>
  <text x="1110" y="946.8" font-family="Tahoma" font-size="12" transform="rotate(90 1110,946.8)" text-rendering="optimizeSpeed" fill="#000000">view-job-filters (5140)</text>
  <rect fill="blue" height="51.5" stroke="black" width="12" x="1125" y="890.3"/>
  <text x="1125" y="946.8" font-family="Tahoma" font-size="12" transform="rotate(90 1125,946.8)" text-rendering="optimizeSpeed" fill="#000000">performance (5154)</text>
  <rect fill="blue" height="52.8" stroke="black" width="12" x="1140" y="889.0"/>
  <text x="1140" y="946.8" font-family="Tahoma" font-size="12" transform="rotate(90 1140,946.8)" text-rendering="optimizeSpeed" fill="#000000">git-server (5277)</text>
  <rect fill="blue" height="53.4" stroke="black" width="12" x="1155" y="888.4"/>
  <text x="1155" y="946.8" font-family="Tahoma" font-size="12" transform="rotate(90 1155,946.8)" text-rendering="optimizeSpeed" fill="#000000">monitoring (5338)</text>
  <rect fill="blue" height="53.8" stroke="black" width="12" x="1170" y="888.0"/>
  <text x="1170" y="946.8" font-family="Tahoma" font-size="12" transform="rotate(90 1170,946.8)" text-rendering="optimizeSpeed" fill="#000000">backup (5377)</text>
  <rect fill="blue" height="54.5" stroke="black" width="12" x="1185" y="887.3"/>
  <text x="1185" y="946.8" font-family="Tahoma" font-size="12" transform="rotate(90 1185,946.8)" text-rendering="optimizeSpeed" fill="#000000">build-name-setter (5453)</text>
  <rect fill="blue" height="54.7" stroke="black" width="12" x="1200" y="887.1"/>
  <text x="1200" y="946.8" font-family="Tahoma" font-size="12" transform="rotate(90 1200,946.8)" text-rendering="optimizeSpeed" fill="#000000">instant-messaging (5469)</text>
  <rect fill="blue" height="55.3" stroke="black" width="12" x="1215" y="886.5"/>
  <text x="1215" y="946.8" font-family="Tahoma" font-size="12" transform="rotate(90 1215,946.8)" text-rendering="optimizeSpeed" fill="#000000">artifactdeployer (5531)</text>
  <rect fill="blue" height="57.5" stroke="black" width="12" x="1230" y="884.3"/>
  <text x="1230" y="946.8" font-family="Tahoma" font-size="12" transform="rotate(90 1230,946.8)" text-rendering="optimizeSpeed" fill="#000000">jquery-ui (5749)</text>
  <rect fill="blue" height="58.6" stroke="black" width="12" x="1245" y="883.2"/>
  <text x="1245" y="946.8" font-family="Tahoma" font-size="12" transform="rotate(90 1245,946.8)" text-rendering="optimizeSpeed" fill="#000000">ansicolor (5860)</text>
  <rect fill="blue" height="59.6" stroke="black" width="12" x="1260" y="882.2"/>
  <text x="1260" y="946.8" font-family="Tahoma" font-size="12" transform="rotate(90 1260,946.8)" text-rendering="optimizeSpeed" fill="#000000">groovy (5960)</text>
  <rect fill="blue" height="60.8" stroke="black" width="12" x="1275" y="881.0"/>
  <text x="1275" y="946.8" font-family="Tahoma" font-size="12" transform="rotate(90 1275,946.8)" text-rendering="optimizeSpeed" fill="#000000">role-strategy (6080)</text>
  <rect fill="blue" height="60.9" stroke="black" width="12" x="1290" y="881.0"/>
  <text x="1290" y="946.8" font-family="Tahoma" font-size="12" transform="rotate(90 1290,946.8)" text-rendering="optimizeSpeed" fill="#000000">chucknorris (6085)</text>
  <rect fill="blue" height="61.0" stroke="black" width="12" x="1305" y="880.9"/>
  <text x="1305" y="946.8" font-family="Tahoma" font-size="12" transform="rotate(90 1305,946.8)" text-rendering="optimizeSpeed" fill="#000000">promoted-builds (6096)</text>
  <rect fill="blue" height="62.9" stroke="black" width="12" x="1320" y="878.9"/>
  <text x="1320" y="946.8" font-family="Tahoma" font-size="12" transform="rotate(90 1320,946.8)" text-rendering="optimizeSpeed" fill="#000000">plot (6293)</text>
  <rect fill="blue" height="63.5" stroke="black" width="12" x="1335" y="878.3"/>
  <text x="1335" y="946.8" font-family="Tahoma" font-size="12" transform="rotate(90 1335,946.8)" text-rendering="optimizeSpeed" fill="#000000">gradle (6352)</text>
  <rect fill="blue" height="63.9" stroke="black" width="12" x="1350" y="877.9"/>
  <text x="1350" y="946.8" font-family="Tahoma" font-size="12" transform="rotate(90 1350,946.8)" text-rendering="optimizeSpeed" fill="#000000">ruby-runtime (6393)</text>
  <rect fill="blue" height="65.7" stroke="black" width="12" x="1365" y="876.1"/>
  <text x="1365" y="946.8" font-family="Tahoma" font-size="12" transform="rotate(90 1365,946.8)" text-rendering="optimizeSpeed" fill="#000000">thinBackup (6574)</text>
  <rect fill="blue" height="68.9" stroke="black" width="12" x="1380" y="872.9"/>
  <text x="1380" y="946.8" font-family="Tahoma" font-size="12" transform="rotate(90 1380,946.8)" text-rendering="optimizeSpeed" fill="#000000">log-parser (6891)</text>
  <rect fill="blue" height="69.1" stroke="black" width="12" x="1395" y="872.7"/>
  <text x="1395" y="946.8" font-family="Tahoma" font-size="12" transform="rotate(90 1395,946.8)" text-rendering="optimizeSpeed" fill="#000000">jira (6910)</text>
  <rect fill="blue" height="69.9" stroke="black" width="12" x="1410" y="871.9"/>
  <text x="1410" y="946.8" font-family="Tahoma" font-size="12" transform="rotate(90 1410,946.8)" text-rendering="optimizeSpeed" fill="#000000">dry (6988)</text>
  <rect fill="blue" height="74.9" stroke="black" width="12" x="1425" y="866.9"/>
  <text x="1425" y="946.8" font-family="Tahoma" font-size="12" transform="rotate(90 1425,946.8)" text-rendering="optimizeSpeed" fill="#000000">timestamper (7490)</text>
  <rect fill="blue" height="76.4" stroke="black" width="12" x="1440" y="865.4"/>
  <text x="1440" y="946.8" font-family="Tahoma" font-size="12" transform="rotate(90 1440,946.8)" text-rendering="optimizeSpeed" fill="#000000">deploy (7641)</text>
  <rect fill="blue" height="76.4" stroke="black" width="12" x="1455" y="865.4"/>
  <text x="1455" y="946.8" font-family="Tahoma" font-size="12" transform="rotate(90 1455,946.8)" text-rendering="optimizeSpeed" fill="#000000">ssh (7644)</text>
  <rect fill="blue" height="78.2" stroke="black" width="12" x="1470" y="863.6"/>
  <text x="1470" y="946.8" font-family="Tahoma" font-size="12" transform="rotate(90 1470,946.8)" text-rendering="optimizeSpeed" fill="#000000">analysis-collector (7822)</text>
  <rect fill="blue" height="85.9" stroke="black" width="12" x="1485" y="855.9"/>
  <text x="1485" y="946.8" font-family="Tahoma" font-size="12" transform="rotate(90 1485,946.8)" text-rendering="optimizeSpeed" fill="#000000">warnings (8589)</text>
  <rect fill="blue" height="86.3" stroke="black" width="12" x="1500" y="855.5"/>
  <text x="1500" y="946.8" font-family="Tahoma" font-size="12" transform="rotate(90 1500,946.8)" text-rendering="optimizeSpeed" fill="#000000">postbuild-task (8634)</text>
  <rect fill="blue" height="91.3" stroke="black" width="12" x="1515" y="850.5"/>
  <text x="1515" y="946.8" font-family="Tahoma" font-size="12" transform="rotate(90 1515,946.8)" text-rendering="optimizeSpeed" fill="#000000">jobConfigHistory (9133)</text>
  <rect fill="blue" height="91.6" stroke="black" width="12" x="1530" y="850.2"/>
  <text x="1530" y="946.8" font-family="Tahoma" font-size="12" transform="rotate(90 1530,946.8)" text-rendering="optimizeSpeed" fill="#000000">msbuild (9159)</text>
  <rect fill="blue" height="92.9" stroke="black" width="12" x="1545" y="849.0"/>
  <text x="1545" y="946.8" font-family="Tahoma" font-size="12" transform="rotate(90 1545,946.8)" text-rendering="optimizeSpeed" fill="#000000">findbugs (9287)</text>
  <rect fill="blue" height="95.9" stroke="black" width="12" x="1560" y="845.9"/>
  <text x="1560" y="946.8" font-family="Tahoma" font-size="12" transform="rotate(90 1560,946.8)" text-rendering="optimizeSpeed" fill="#000000">ws-cleanup (9588)</text>
  <rect fill="blue" height="98.4" stroke="black" width="12" x="1575" y="843.4"/>
  <text x="1575" y="946.8" font-family="Tahoma" font-size="12" transform="rotate(90 1575,946.8)" text-rendering="optimizeSpeed" fill="#000000">build-timeout (9842)</text>
  <rect fill="blue" height="103.1" stroke="black" width="12" x="1590" y="838.8"/>
  <text x="1590" y="946.8" font-family="Tahoma" font-size="12" transform="rotate(90 1590,946.8)" text-rendering="optimizeSpeed" fill="#000000">violations (10306)</text>
  <rect fill="blue" height="103.2" stroke="black" width="12" x="1605" y="838.6"/>
  <text x="1605" y="946.8" font-family="Tahoma" font-size="12" transform="rotate(90 1605,946.8)" text-rendering="optimizeSpeed" fill="#000000">active-directory (10323)</text>
  <rect fill="blue" height="103.4" stroke="black" width="12" x="1620" y="838.4"/>
  <text x="1620" y="946.8" font-family="Tahoma" font-size="12" transform="rotate(90 1620,946.8)" text-rendering="optimizeSpeed" fill="#000000">disk-usage (10341)</text>
  <rect fill="blue" height="104.9" stroke="black" width="12" x="1635" y="836.9"/>
  <text x="1635" y="946.8" font-family="Tahoma" font-size="12" transform="rotate(90 1635,946.8)" text-rendering="optimizeSpeed" fill="#000000">pmd (10490)</text>
  <rect fill="blue" height="105.1" stroke="black" width="12" x="1650" y="836.7"/>
  <text x="1650" y="946.8" font-family="Tahoma" font-size="12" transform="rotate(90 1650,946.8)" text-rendering="optimizeSpeed" fill="#000000">publish-over-ssh (10513)</text>
  <rect fill="blue" height="105.6" stroke="black" width="12" x="1665" y="836.2"/>
  <text x="1665" y="946.8" font-family="Tahoma" font-size="12" transform="rotate(90 1665,946.8)" text-rendering="optimizeSpeed" fill="#000000">conditional-buildstep (10562)</text>
  <rect fill="blue" height="106.9" stroke="black" width="12" x="1680" y="834.9"/>
  <text x="1680" y="946.8" font-family="Tahoma" font-size="12" transform="rotate(90 1680,946.8)" text-rendering="optimizeSpeed" fill="#000000">build-pipeline-plugin (10689)</text>
  <rect fill="blue" height="108.4" stroke="black" width="12" x="1695" y="833.4"/>
  <text x="1695" y="946.8" font-family="Tahoma" font-size="12" transform="rotate(90 1695,946.8)" text-rendering="optimizeSpeed" fill="#000000">xunit (10840)</text>
  <rect fill="blue" height="118.2" stroke="black" width="12" x="1710" y="823.7"/>
  <text x="1710" y="946.8" font-family="Tahoma" font-size="12" transform="rotate(90 1710,946.8)" text-rendering="optimizeSpeed" fill="#000000">checkstyle (11816)</text>
  <rect fill="blue" height="118.3" stroke="black" width="12" x="1725" y="823.5"/>
  <text x="1725" y="946.8" font-family="Tahoma" font-size="12" transform="rotate(90 1725,946.8)" text-rendering="optimizeSpeed" fill="#000000">cobertura (11830)</text>
  <rect fill="blue" height="122.7" stroke="black" width="12" x="1740" y="819.2"/>
  <text x="1740" y="946.8" font-family="Tahoma" font-size="12" transform="rotate(90 1740,946.8)" text-rendering="optimizeSpeed" fill="#000000">run-condition (12265)</text>
  <rect fill="blue" height="123.8" stroke="black" width="12" x="1755" y="818.0"/>
  <text x="1755" y="946.8" font-family="Tahoma" font-size="12" transform="rotate(90 1755,946.8)" text-rendering="optimizeSpeed" fill="#000000">dashboard-view (12378)</text>
  <rect fill="blue" height="124.4" stroke="black" width="12" x="1770" y="817.5"/>
  <text x="1770" y="946.8" font-family="Tahoma" font-size="12" transform="rotate(90 1770,946.8)" text-rendering="optimizeSpeed" fill="#000000">sonar (12436)</text>
  <rect fill="blue" height="126.6" stroke="black" width="12" x="1785" y="815.2"/>
  <text x="1785" y="946.8" font-family="Tahoma" font-size="12" transform="rotate(90 1785,946.8)" text-rendering="optimizeSpeed" fill="#000000">github (12664)</text>
  <rect fill="blue" height="132.7" stroke="black" width="12" x="1800" y="809.2"/>
  <text x="1800" y="946.8" font-family="Tahoma" font-size="12" transform="rotate(90 1800,946.8)" text-rendering="optimizeSpeed" fill="#000000">ssh-agent (13267)</text>
  <rect fill="blue" height="134.2" stroke="black" width="12" x="1815" y="807.6"/>
  <text x="1815" y="946.8" font-family="Tahoma" font-size="12" transform="rotate(90 1815,946.8)" text-rendering="optimizeSpeed" fill="#000000">github-api (13420)</text>
  <rect fill="blue" height="137.8" stroke="black" width="12" x="1830" y="804.0"/>
  <text x="1830" y="946.8" font-family="Tahoma" font-size="12" transform="rotate(90 1830,946.8)" text-rendering="optimizeSpeed" fill="#000000">copyartifact (13784)</text>
  <rect fill="blue" height="140.2" stroke="black" width="12" x="1845" y="801.6"/>
  <text x="1845" y="946.8" font-family="Tahoma" font-size="12" transform="rotate(90 1845,946.8)" text-rendering="optimizeSpeed" fill="#000000">htmlpublisher (14022)</text>
  <rect fill="blue" height="164.6" stroke="black" width="12" x="1860" y="777.3"/>
  <text x="1860" y="946.8" font-family="Tahoma" font-size="12" transform="rotate(90 1860,946.8)" text-rendering="optimizeSpeed" fill="#000000">envinject (16455)</text>
  <rect fill="blue" height="169.7" stroke="black" width="12" x="1875" y="772.1"/>
  <text x="1875" y="946.8" font-family="Tahoma" font-size="12" transform="rotate(90 1875,946.8)" text-rendering="optimizeSpeed" fill="#000000">jquery (16971)</text>
  <rect fill="blue" height="189.6" stroke="black" width="12" x="1890" y="752.2"/>
  <text x="1890" y="946.8" font-family="Tahoma" font-size="12" transform="rotate(90 1890,946.8)" text-rendering="optimizeSpeed" fill="#000000">greenballs (18958)</text>
  <rect fill="blue" height="205.8" stroke="black" width="12" x="1905" y="736.0"/>
  <text x="1905" y="946.8" font-family="Tahoma" font-size="12" transform="rotate(90 1905,946.8)" text-rendering="optimizeSpeed" fill="#000000">mapdb-api (20579)</text>
  <rect fill="blue" height="248.7" stroke="black" width="12" x="1920" y="693.1"/>
  <text x="1920" y="946.8" font-family="Tahoma" font-size="12" transform="rotate(90 1920,946.8)" text-rendering="optimizeSpeed" fill="#000000">analysis-core (24873)</text>
  <rect fill="blue" height="249.7" stroke="black" width="12" x="1935" y="692.1"/>
  <text x="1935" y="946.8" font-family="Tahoma" font-size="12" transform="rotate(90 1935,946.8)" text-rendering="optimizeSpeed" fill="#000000">parameterized-trigger (24973)</text>
  <rect fill="blue" height="266.4" stroke="black" width="12" x="1950" y="675.4"/>
  <text x="1950" y="946.8" font-family="Tahoma" font-size="12" transform="rotate(90 1950,946.8)" text-rendering="optimizeSpeed" fill="#000000">email-ext (26643)</text>
  <rect fill="blue" height="386.5" stroke="black" width="12" x="1965" y="555.3"/>
  <text x="1965" y="946.8" font-family="Tahoma" font-size="12" transform="rotate(90 1965,946.8)" text-rendering="optimizeSpeed" fill="#000000">token-macro (38648)</text>
  <rect fill="blue" height="424.0" stroke="black" width="12" x="1980" y="517.8"/>
  <text x="1980" y="946.8" font-family="Tahoma" font-size="12" transform="rotate(90 1980,946.8)" text-rendering="optimizeSpeed" fill="#000000">git-client (42402)</text>
  <rect fill="blue" height="424.8" stroke="black" width="12" x="1995" y="517.0"/>
  <text x="1995" y="946.8" font-family="Tahoma" font-size="12" transform="rotate(90 1995,946.8)" text-rendering="optimizeSpeed" fill="#000000">matrix-project (42481)</text>
  <rect fill="blue" height="453.9" stroke="black" width="12" x="2010" y="487.9"/>
  <text x="2010" y="946.8" font-family="Tahoma" font-size="12" transform="rotate(90 2010,946.8)" text-rendering="optimizeSpeed" fill="#000000">git (45392)</text>
  <rect fill="blue" height="494.5" stroke="black" width="12" x="2025" y="447.4"/>
  <text x="2025" y="946.8" font-family="Tahoma" font-size="12" transform="rotate(90 2025,946.8)" text-rendering="optimizeSpeed" fill="#000000">scm-api (49446)</text>
  <rect fill="blue" height="550.4" stroke="black" width="12" x="2040" y="391.4"/>
  <text x="2040" y="946.8" font-family="Tahoma" font-size="12" transform="rotate(90 2040,946.8)" text-rendering="optimizeSpeed" fill="#000000">antisamy-markup-formatter (55038)</text>
  <rect fill="blue" height="600.3" stroke="black" width="12" x="2055" y="341.5"/>
  <text x="2055" y="946.8" font-family="Tahoma" font-size="12" transform="rotate(90 2055,946.8)" text-rendering="optimizeSpeed" fill="#000000">windows-slaves (60031)</text>
  <rect fill="blue" height="672.9" stroke="black" width="12" x="2070" y="269.0"/>
  <text x="2070" y="946.8" font-family="Tahoma" font-size="12" transform="rotate(90 2070,946.8)" text-rendering="optimizeSpeed" fill="#000000">matrix-auth (67285)</text>
  <rect fill="blue" height="817.4" stroke="black" width="12" x="2085" y="124.5"/>
  <text x="2085" y="946.8" font-family="Tahoma" font-size="12" transform="rotate(90 2085,946.8)" text-rendering="optimizeSpeed" fill="#000000">ssh-credentials (81735)</text>
  <rect fill="blue" height="820.6" stroke="black" width="12" x="2100" y="121.2"/>
  <text x="2100" y="946.8" font-family="Tahoma" font-size="12" transform="rotate(90 2100,946.8)" text-rendering="optimizeSpeed" fill="#000000">credentials (82065)</text>
  <rect fill="blue" height="839.8" stroke="black" width="12" x="2115" y="102.0"/>
  <text x="2115" y="946.8" font-family="Tahoma" font-size="12" transform="rotate(90 2115,946.8)" text-rendering="optimizeSpeed" fill="#000000">mailer (83978)</text>
  <rect fill="blue" height="845.3" stroke="black" width="12" x="2130" y="96.5"/>
  <text x="2130" y="946.8" font-family="Tahoma" font-size="12" transform="rotate(90 2130,946.8)" text-rendering="optimizeSpeed" fill="#000000">cvs (84533)</text>
  <rect fill="blue" height="846.5" stroke="black" width="12" x="2145" y="95.3"/>
  <text x="2145" y="946.8" font-family="Tahoma" font-size="12" transform="rotate(90 2145,946.8)" text-rendering="optimizeSpeed" fill="#000000">ldap (84651)</text>
  <rect fill="blue" height="852.7" stroke="black" width="12" x="2160" y="89.1"/>
  <text x="2160" y="946.8" font-family="Tahoma" font-size="12" transform="rotate(90 2160,946.8)" text-rendering="optimizeSpeed" fill="#000000">pam-auth (85270)</text>
  <rect fill="blue" height="859.6" stroke="black" width="12" x="2175" y="82.2"/>
  <text x="2175" y="946.8" font-family="Tahoma" font-size="12" transform="rotate(90 2175,946.8)" text-rendering="optimizeSpeed" fill="#000000">external-monitor-job (85959)</text>
  <rect fill="blue" height="869.2" stroke="black" width="12" x="2190" y="72.6"/>
  <text x="2190" y="946.8" font-family="Tahoma" font-size="12" transform="rotate(90 2190,946.8)" text-rendering="optimizeSpeed" fill="#000000">translation (86923)</text>
  <rect fill="blue" height="870.5" stroke="black" width="12" x="2205" y="71.3"/>
  <text x="2205" y="946.8" font-family="Tahoma" font-size="12" transform="rotate(90 2205,946.8)" text-rendering="optimizeSpeed" fill="#000000">subversion (87055)</text>
  <rect fill="blue" height="875.6" stroke="black" width="12" x="2220" y="66.2"/>
  <text x="2220" y="946.8" font-family="Tahoma" font-size="12" transform="rotate(90 2220,946.8)" text-rendering="optimizeSpeed" fill="#000000">ant (87563)</text>
  <rect fill="blue" height="882.4" stroke="black" width="12" x="2235" y="59.5"/>
  <text x="2235" y="946.8" font-family="Tahoma" font-size="12" transform="rotate(90 2235,946.8)" text-rendering="optimizeSpeed" fill="#000000">javadoc (88236)</text>
  <rect fill="blue" height="888.8" stroke="black" width="12" x="2250" y="53.0"/>
  <text x="2250" y="946.8" font-family="Tahoma" font-size="12" transform="rotate(90 2250,946.8)" text-rendering="optimizeSpeed" fill="#000000">maven-plugin (88883)</text>
  <rect fill="blue" height="891.8" stroke="black" width="12" x="2265" y="50.0"/>
  <text x="2265" y="946.8" font-family="Tahoma" font-size="12" transform="rotate(90 2265,946.8)" text-rendering="optimizeSpeed" fill="#000000">ssh-slaves (89182)</text>
  <text x="10" y="40" font-family="Tahoma" font-size="20" text-rendering="optimizeSpeed" fill="#000000">Plugin installations (installations &gt; 2500)</text>
</svg>
