<svg xmlns="http://www.w3.org/2000/svg" version="1.1" preserveAspectRatio="xMidYMid meet" viewBox="0 0 2195 1189.4">
  <rect fill="blue" height="25.0" stroke="black" width="12" x="15" y="864.4"/>
  <text x="15" y="894.5" font-family="Tahoma" font-size="12" transform="rotate(90 15,894.5)" text-rendering="optimizeSpeed" fill="#000000">postbuildscript (2504)</text>
  <rect fill="blue" height="25.5" stroke="black" width="12" x="30" y="863.9"/>
  <text x="30" y="894.5" font-family="Tahoma" font-size="12" transform="rotate(90 30,894.5)" text-rendering="optimizeSpeed" fill="#000000">flexible-publish (2552)</text>
  <rect fill="blue" height="26.4" stroke="black" width="12" x="45" y="863.0"/>
  <text x="45" y="894.5" font-family="Tahoma" font-size="12" transform="rotate(90 45,894.5)" text-rendering="optimizeSpeed" fill="#000000">cppcheck (2641)</text>
  <rect fill="blue" height="26.6" stroke="black" width="12" x="60" y="862.8"/>
  <text x="60" y="894.5" font-family="Tahoma" font-size="12" transform="rotate(90 60,894.5)" text-rendering="optimizeSpeed" fill="#000000">project-stats-plugin (2663)</text>
  <rect fill="blue" height="27.2" stroke="black" width="12" x="75" y="862.2"/>
  <text x="75" y="894.5" font-family="Tahoma" font-size="12" transform="rotate(90 75,894.5)" text-rendering="optimizeSpeed" fill="#000000">job-import-plugin (2724)</text>
  <rect fill="blue" height="27.2" stroke="black" width="12" x="90" y="862.2"/>
  <text x="90" y="894.5" font-family="Tahoma" font-size="12" transform="rotate(90 90,894.5)" text-rendering="optimizeSpeed" fill="#000000">radiatorviewplugin (2724)</text>
  <rect fill="blue" height="27.6" stroke="black" width="12" x="105" y="861.9"/>
  <text x="105" y="894.5" font-family="Tahoma" font-size="12" transform="rotate(90 105,894.5)" text-rendering="optimizeSpeed" fill="#000000">batch-task (2755)</text>
  <rect fill="blue" height="27.6" stroke="black" width="12" x="120" y="861.8"/>
  <text x="120" y="894.5" font-family="Tahoma" font-size="12" transform="rotate(90 120,894.5)" text-rendering="optimizeSpeed" fill="#000000">rake (2763)</text>
  <rect fill="blue" height="27.8" stroke="black" width="12" x="135" y="861.7"/>
  <text x="135" y="894.5" font-family="Tahoma" font-size="12" transform="rotate(90 135,894.5)" text-rendering="optimizeSpeed" fill="#000000">ghprb (2777)</text>
  <rect fill="blue" height="27.8" stroke="black" width="12" x="150" y="861.6"/>
  <text x="150" y="894.5" font-family="Tahoma" font-size="12" transform="rotate(90 150,894.5)" text-rendering="optimizeSpeed" fill="#000000">doxygen (2783)</text>
  <rect fill="blue" height="28.7" stroke="black" width="12" x="165" y="860.8"/>
  <text x="165" y="894.5" font-family="Tahoma" font-size="12" transform="rotate(90 165,894.5)" text-rendering="optimizeSpeed" fill="#000000">build-monitor-plugin (2869)</text>
  <rect fill="blue" height="29.3" stroke="black" width="12" x="180" y="860.1"/>
  <text x="180" y="894.5" font-family="Tahoma" font-size="12" transform="rotate(90 180,894.5)" text-rendering="optimizeSpeed" fill="#000000">testng-plugin (2934)</text>
  <rect fill="blue" height="29.4" stroke="black" width="12" x="195" y="860.1"/>
  <text x="195" y="894.5" font-family="Tahoma" font-size="12" transform="rotate(90 195,894.5)" text-rendering="optimizeSpeed" fill="#000000">powershell (2939)</text>
  <rect fill="blue" height="29.4" stroke="black" width="12" x="210" y="860.0"/>
  <text x="210" y="894.5" font-family="Tahoma" font-size="12" transform="rotate(90 210,894.5)" text-rendering="optimizeSpeed" fill="#000000">versionnumber (2945)</text>
  <rect fill="blue" height="29.8" stroke="black" width="12" x="225" y="859.7"/>
  <text x="225" y="894.5" font-family="Tahoma" font-size="12" transform="rotate(90 225,894.5)" text-rendering="optimizeSpeed" fill="#000000">claim (2980)</text>
  <rect fill="blue" height="29.9" stroke="black" width="12" x="240" y="859.5"/>
  <text x="240" y="894.5" font-family="Tahoma" font-size="12" transform="rotate(90 240,894.5)" text-rendering="optimizeSpeed" fill="#000000">publish-over-ftp (2990)</text>
  <rect fill="blue" height="30.0" stroke="black" width="12" x="255" y="859.5"/>
  <text x="255" y="894.5" font-family="Tahoma" font-size="12" transform="rotate(90 255,894.5)" text-rendering="optimizeSpeed" fill="#000000">all-changes (3000)</text>
  <rect fill="blue" height="30.2" stroke="black" width="12" x="270" y="859.3"/>
  <text x="270" y="894.5" font-family="Tahoma" font-size="12" transform="rotate(90 270,894.5)" text-rendering="optimizeSpeed" fill="#000000">github-oauth (3016)</text>
  <rect fill="blue" height="30.4" stroke="black" width="12" x="285" y="859.0"/>
  <text x="285" y="894.5" font-family="Tahoma" font-size="12" transform="rotate(90 285,894.5)" text-rendering="optimizeSpeed" fill="#000000">release (3040)</text>
  <rect fill="blue" height="30.6" stroke="black" width="12" x="300" y="858.8"/>
  <text x="300" y="894.5" font-family="Tahoma" font-size="12" transform="rotate(90 300,894.5)" text-rendering="optimizeSpeed" fill="#000000">scriptler (3061)</text>
  <rect fill="blue" height="30.9" stroke="black" width="12" x="315" y="858.6"/>
  <text x="315" y="894.5" font-family="Tahoma" font-size="12" transform="rotate(90 315,894.5)" text-rendering="optimizeSpeed" fill="#000000">global-build-stats (3089)</text>
  <rect fill="blue" height="31.3" stroke="black" width="12" x="330" y="858.1"/>
  <text x="330" y="894.5" font-family="Tahoma" font-size="12" transform="rotate(90 330,894.5)" text-rendering="optimizeSpeed" fill="#000000">android-emulator (3133)</text>
  <rect fill="blue" height="31.6" stroke="black" width="12" x="345" y="857.9"/>
  <text x="345" y="894.5" font-family="Tahoma" font-size="12" transform="rotate(90 345,894.5)" text-rendering="optimizeSpeed" fill="#000000">sidebar-link (3155)</text>
  <rect fill="blue" height="31.9" stroke="black" width="12" x="360" y="857.5"/>
  <text x="360" y="894.5" font-family="Tahoma" font-size="12" transform="rotate(90 360,894.5)" text-rendering="optimizeSpeed" fill="#000000">jacoco (3195)</text>
  <rect fill="blue" height="32.0" stroke="black" width="12" x="375" y="857.5"/>
  <text x="375" y="894.5" font-family="Tahoma" font-size="12" transform="rotate(90 375,894.5)" text-rendering="optimizeSpeed" fill="#000000">text-finder (3199)</text>
  <rect fill="blue" height="32.6" stroke="black" width="12" x="390" y="856.8"/>
  <text x="390" y="894.5" font-family="Tahoma" font-size="12" transform="rotate(90 390,894.5)" text-rendering="optimizeSpeed" fill="#000000">downstream-buildview (3265)</text>
  <rect fill="blue" height="32.7" stroke="black" width="12" x="405" y="856.8"/>
  <text x="405" y="894.5" font-family="Tahoma" font-size="12" transform="rotate(90 405,894.5)" text-rendering="optimizeSpeed" fill="#000000">console-column-plugin (3268)</text>
  <rect fill="blue" height="32.7" stroke="black" width="12" x="420" y="856.8"/>
  <text x="420" y="894.5" font-family="Tahoma" font-size="12" transform="rotate(90 420,894.5)" text-rendering="optimizeSpeed" fill="#000000">next-build-number (3268)</text>
  <rect fill="blue" height="33.0" stroke="black" width="12" x="435" y="856.4"/>
  <text x="435" y="894.5" font-family="Tahoma" font-size="12" transform="rotate(90 435,894.5)" text-rendering="optimizeSpeed" fill="#000000">mask-passwords (3303)</text>
  <rect fill="blue" height="33.1" stroke="black" width="12" x="450" y="856.3"/>
  <text x="450" y="894.5" font-family="Tahoma" font-size="12" transform="rotate(90 450,894.5)" text-rendering="optimizeSpeed" fill="#000000">locks-and-latches (3311)</text>
  <rect fill="blue" height="33.3" stroke="black" width="12" x="465" y="856.2"/>
  <text x="465" y="894.5" font-family="Tahoma" font-size="12" transform="rotate(90 465,894.5)" text-rendering="optimizeSpeed" fill="#000000">description-setter (3330)</text>
  <rect fill="blue" height="33.6" stroke="black" width="12" x="480" y="855.9"/>
  <text x="480" y="894.5" font-family="Tahoma" font-size="12" transform="rotate(90 480,894.5)" text-rendering="optimizeSpeed" fill="#000000">extra-columns (3358)</text>
  <rect fill="blue" height="33.7" stroke="black" width="12" x="495" y="855.7"/>
  <text x="495" y="894.4" font-family="Tahoma" font-size="12" transform="rotate(90 495,894.4)" text-rendering="optimizeSpeed" fill="#000000">groovy-postbuild (3372)</text>
  <rect fill="blue" height="34.0" stroke="black" width="12" x="510" y="855.5"/>
  <text x="510" y="894.5" font-family="Tahoma" font-size="12" transform="rotate(90 510,894.5)" text-rendering="optimizeSpeed" fill="#000000">audit-trail (3396)</text>
  <rect fill="blue" height="34.7" stroke="black" width="12" x="525" y="854.8"/>
  <text x="525" y="894.5" font-family="Tahoma" font-size="12" transform="rotate(90 525,894.5)" text-rendering="optimizeSpeed" fill="#000000">saferestart (3466)</text>
  <rect fill="blue" height="35.5" stroke="black" width="12" x="540" y="853.9"/>
  <text x="540" y="894.5" font-family="Tahoma" font-size="12" transform="rotate(90 540,894.5)" text-rendering="optimizeSpeed" fill="#000000">throttle-concurrents (3552)</text>
  <rect fill="blue" height="35.6" stroke="black" width="12" x="555" y="853.9"/>
  <text x="555" y="894.5" font-family="Tahoma" font-size="12" transform="rotate(90 555,894.5)" text-rendering="optimizeSpeed" fill="#000000">configurationslicing (3558)</text>
  <rect fill="blue" height="36.0" stroke="black" width="12" x="570" y="853.5"/>
  <text x="570" y="894.5" font-family="Tahoma" font-size="12" transform="rotate(90 570,894.5)" text-rendering="optimizeSpeed" fill="#000000">perforce (3599)</text>
  <rect fill="blue" height="36.2" stroke="black" width="12" x="585" y="853.3"/>
  <text x="585" y="894.5" font-family="Tahoma" font-size="12" transform="rotate(90 585,894.5)" text-rendering="optimizeSpeed" fill="#000000">buildgraph-view (3616)</text>
  <rect fill="blue" height="36.7" stroke="black" width="12" x="600" y="852.8"/>
  <text x="600" y="894.5" font-family="Tahoma" font-size="12" transform="rotate(90 600,894.5)" text-rendering="optimizeSpeed" fill="#000000">extended-choice-parameter (3670)</text>
  <rect fill="blue" height="36.8" stroke="black" width="12" x="615" y="852.6"/>
  <text x="615" y="894.5" font-family="Tahoma" font-size="12" transform="rotate(90 615,894.5)" text-rendering="optimizeSpeed" fill="#000000">svn-tag (3683)</text>
  <rect fill="blue" height="36.9" stroke="black" width="12" x="630" y="852.6"/>
  <text x="630" y="894.5" font-family="Tahoma" font-size="12" transform="rotate(90 630,894.5)" text-rendering="optimizeSpeed" fill="#000000">cloverphp (3688)</text>
  <rect fill="blue" height="37.1" stroke="black" width="12" x="645" y="852.3"/>
  <text x="645" y="894.5" font-family="Tahoma" font-size="12" transform="rotate(90 645,894.5)" text-rendering="optimizeSpeed" fill="#000000">emma (3713)</text>
  <rect fill="blue" height="37.2" stroke="black" width="12" x="660" y="852.2"/>
  <text x="660" y="894.5" font-family="Tahoma" font-size="12" transform="rotate(90 660,894.5)" text-rendering="optimizeSpeed" fill="#000000">build-flow-plugin (3721)</text>
  <rect fill="blue" height="37.3" stroke="black" width="12" x="675" y="852.2"/>
  <text x="675" y="894.5" font-family="Tahoma" font-size="12" transform="rotate(90 675,894.5)" text-rendering="optimizeSpeed" fill="#000000">config-file-provider (3726)</text>
  <rect fill="blue" height="37.4" stroke="black" width="12" x="690" y="852.0"/>
  <text x="690" y="894.5" font-family="Tahoma" font-size="12" transform="rotate(90 690,894.5)" text-rendering="optimizeSpeed" fill="#000000">nunit (3743)</text>
  <rect fill="blue" height="37.6" stroke="black" width="12" x="705" y="851.9"/>
  <text x="705" y="894.5" font-family="Tahoma" font-size="12" transform="rotate(90 705,894.5)" text-rendering="optimizeSpeed" fill="#000000">nodelabelparameter (3756)</text>
  <rect fill="blue" height="38.1" stroke="black" width="12" x="720" y="851.3"/>
  <text x="720" y="894.5" font-family="Tahoma" font-size="12" transform="rotate(90 720,894.5)" text-rendering="optimizeSpeed" fill="#000000">python (3811)</text>
  <rect fill="blue" height="38.2" stroke="black" width="12" x="735" y="851.3"/>
  <text x="735" y="894.5" font-family="Tahoma" font-size="12" transform="rotate(90 735,894.5)" text-rendering="optimizeSpeed" fill="#000000">depgraph-view (3818)</text>
  <rect fill="blue" height="38.9" stroke="black" width="12" x="750" y="850.6"/>
  <text x="750" y="894.5" font-family="Tahoma" font-size="12" transform="rotate(90 750,894.5)" text-rendering="optimizeSpeed" fill="#000000">port-allocator (3886)</text>
  <rect fill="blue" height="39.2" stroke="black" width="12" x="765" y="850.3"/>
  <text x="765" y="894.5" font-family="Tahoma" font-size="12" transform="rotate(90 765,894.5)" text-rendering="optimizeSpeed" fill="#000000">xcode-plugin (3916)</text>
  <rect fill="blue" height="39.9" stroke="black" width="12" x="780" y="849.6"/>
  <text x="780" y="894.5" font-family="Tahoma" font-size="12" transform="rotate(90 780,894.5)" text-rendering="optimizeSpeed" fill="#000000">jdepend (3988)</text>
  <rect fill="blue" height="40.8" stroke="black" width="12" x="795" y="848.7"/>
  <text x="795" y="894.5" font-family="Tahoma" font-size="12" transform="rotate(90 795,894.5)" text-rendering="optimizeSpeed" fill="#000000">join (4076)</text>
  <rect fill="blue" height="42.6" stroke="black" width="12" x="810" y="846.9"/>
  <text x="810" y="894.5" font-family="Tahoma" font-size="12" transform="rotate(90 810,894.5)" text-rendering="optimizeSpeed" fill="#000000">rebuild (4257)</text>
  <rect fill="blue" height="42.8" stroke="black" width="12" x="825" y="846.7"/>
  <text x="825" y="894.5" font-family="Tahoma" font-size="12" transform="rotate(90 825,894.5)" text-rendering="optimizeSpeed" fill="#000000">multiple-scms (4276)</text>
  <rect fill="blue" height="42.9" stroke="black" width="12" x="840" y="846.6"/>
  <text x="840" y="894.5" font-family="Tahoma" font-size="12" transform="rotate(90 840,894.5)" text-rendering="optimizeSpeed" fill="#000000">mercurial (4285)</text>
  <rect fill="blue" height="43.2" stroke="black" width="12" x="855" y="846.2"/>
  <text x="855" y="894.4" font-family="Tahoma" font-size="12" transform="rotate(90 855,894.4)" text-rendering="optimizeSpeed" fill="#000000">tasks (4322)</text>
  <rect fill="blue" height="43.4" stroke="black" width="12" x="870" y="846.0"/>
  <text x="870" y="894.5" font-family="Tahoma" font-size="12" transform="rotate(90 870,894.5)" text-rendering="optimizeSpeed" fill="#000000">jenkins-multijob-plugin (4341)</text>
  <rect fill="blue" height="43.5" stroke="black" width="12" x="885" y="846.0"/>
  <text x="885" y="894.5" font-family="Tahoma" font-size="12" transform="rotate(90 885,894.5)" text-rendering="optimizeSpeed" fill="#000000">git-parameter (4349)</text>
  <rect fill="blue" height="44.0" stroke="black" width="12" x="900" y="845.4"/>
  <text x="900" y="894.5" font-family="Tahoma" font-size="12" transform="rotate(90 900,894.5)" text-rendering="optimizeSpeed" fill="#000000">nested-view (4404)</text>
  <rect fill="blue" height="44.9" stroke="black" width="12" x="915" y="844.6"/>
  <text x="915" y="894.5" font-family="Tahoma" font-size="12" transform="rotate(90 915,894.5)" text-rendering="optimizeSpeed" fill="#000000">simple-theme-plugin (4485)</text>
  <rect fill="blue" height="46.3" stroke="black" width="12" x="930" y="843.2"/>
  <text x="930" y="894.5" font-family="Tahoma" font-size="12" transform="rotate(90 930,894.5)" text-rendering="optimizeSpeed" fill="#000000">artifactory (4627)</text>
  <rect fill="blue" height="47.3" stroke="black" width="12" x="945" y="842.2"/>
  <text x="945" y="894.5" font-family="Tahoma" font-size="12" transform="rotate(90 945,894.5)" text-rendering="optimizeSpeed" fill="#000000">scp (4727)</text>
  <rect fill="blue" height="47.4" stroke="black" width="12" x="960" y="842.0"/>
  <text x="960" y="894.5" font-family="Tahoma" font-size="12" transform="rotate(90 960,894.5)" text-rendering="optimizeSpeed" fill="#000000">copy-to-slave (4740)</text>
  <rect fill="blue" height="47.8" stroke="black" width="12" x="975" y="841.7"/>
  <text x="975" y="894.5" font-family="Tahoma" font-size="12" transform="rotate(90 975,894.5)" text-rendering="optimizeSpeed" fill="#000000">git-server (4778)</text>
  <rect fill="blue" height="49.1" stroke="black" width="12" x="990" y="840.3"/>
  <text x="990" y="894.5" font-family="Tahoma" font-size="12" transform="rotate(90 990,894.5)" text-rendering="optimizeSpeed" fill="#000000">view-job-filters (4912)</text>
  <rect fill="blue" height="49.2" stroke="black" width="12" x="1005" y="840.2"/>
  <text x="1005" y="894.5" font-family="Tahoma" font-size="12" transform="rotate(90 1005,894.5)" text-rendering="optimizeSpeed" fill="#000000">m2release (4924)</text>
  <rect fill="blue" height="50.0" stroke="black" width="12" x="1020" y="839.4"/>
  <text x="1020" y="894.5" font-family="Tahoma" font-size="12" transform="rotate(90 1020,894.5)" text-rendering="optimizeSpeed" fill="#000000">performance (5002)</text>
  <rect fill="blue" height="51.1" stroke="black" width="12" x="1035" y="838.3"/>
  <text x="1035" y="894.5" font-family="Tahoma" font-size="12" transform="rotate(90 1035,894.5)" text-rendering="optimizeSpeed" fill="#000000">build-name-setter (5114)</text>
  <rect fill="blue" height="51.3" stroke="black" width="12" x="1050" y="838.2"/>
  <text x="1050" y="894.5" font-family="Tahoma" font-size="12" transform="rotate(90 1050,894.5)" text-rendering="optimizeSpeed" fill="#000000">artifactdeployer (5130)</text>
  <rect fill="blue" height="51.7" stroke="black" width="12" x="1065" y="837.8"/>
  <text x="1065" y="894.5" font-family="Tahoma" font-size="12" transform="rotate(90 1065,894.5)" text-rendering="optimizeSpeed" fill="#000000">monitoring (5166)</text>
  <rect fill="blue" height="51.9" stroke="black" width="12" x="1080" y="837.5"/>
  <text x="1080" y="894.5" font-family="Tahoma" font-size="12" transform="rotate(90 1080,894.5)" text-rendering="optimizeSpeed" fill="#000000">backup (5194)</text>
  <rect fill="blue" height="52.7" stroke="black" width="12" x="1095" y="836.7"/>
  <text x="1095" y="894.5" font-family="Tahoma" font-size="12" transform="rotate(90 1095,894.5)" text-rendering="optimizeSpeed" fill="#000000">instant-messaging (5273)</text>
  <rect fill="blue" height="53.7" stroke="black" width="12" x="1110" y="835.8"/>
  <text x="1110" y="894.5" font-family="Tahoma" font-size="12" transform="rotate(90 1110,894.5)" text-rendering="optimizeSpeed" fill="#000000">jquery-ui (5368)</text>
  <rect fill="blue" height="54.0" stroke="black" width="12" x="1125" y="835.5"/>
  <text x="1125" y="894.5" font-family="Tahoma" font-size="12" transform="rotate(90 1125,894.5)" text-rendering="optimizeSpeed" fill="#000000">ansicolor (5398)</text>
  <rect fill="blue" height="55.9" stroke="black" width="12" x="1140" y="833.6"/>
  <text x="1140" y="894.5" font-family="Tahoma" font-size="12" transform="rotate(90 1140,894.5)" text-rendering="optimizeSpeed" fill="#000000">role-strategy (5589)</text>
  <rect fill="blue" height="56.1" stroke="black" width="12" x="1155" y="833.3"/>
  <text x="1155" y="894.5" font-family="Tahoma" font-size="12" transform="rotate(90 1155,894.5)" text-rendering="optimizeSpeed" fill="#000000">groovy (5615)</text>
  <rect fill="blue" height="58.0" stroke="black" width="12" x="1170" y="831.5"/>
  <text x="1170" y="894.5" font-family="Tahoma" font-size="12" transform="rotate(90 1170,894.5)" text-rendering="optimizeSpeed" fill="#000000">gradle (5800)</text>
  <rect fill="blue" height="58.5" stroke="black" width="12" x="1185" y="831.0"/>
  <text x="1185" y="894.5" font-family="Tahoma" font-size="12" transform="rotate(90 1185,894.5)" text-rendering="optimizeSpeed" fill="#000000">ruby-runtime (5850)</text>
  <rect fill="blue" height="59.0" stroke="black" width="12" x="1200" y="830.4"/>
  <text x="1200" y="894.5" font-family="Tahoma" font-size="12" transform="rotate(90 1200,894.5)" text-rendering="optimizeSpeed" fill="#000000">promoted-builds (5904)</text>
  <rect fill="blue" height="59.1" stroke="black" width="12" x="1215" y="830.4"/>
  <text x="1215" y="894.5" font-family="Tahoma" font-size="12" transform="rotate(90 1215,894.5)" text-rendering="optimizeSpeed" fill="#000000">chucknorris (5909)</text>
  <rect fill="blue" height="60.9" stroke="black" width="12" x="1230" y="828.5"/>
  <text x="1230" y="894.5" font-family="Tahoma" font-size="12" transform="rotate(90 1230,894.5)" text-rendering="optimizeSpeed" fill="#000000">plot (6092)</text>
  <rect fill="blue" height="62.0" stroke="black" width="12" x="1245" y="827.4"/>
  <text x="1245" y="894.5" font-family="Tahoma" font-size="12" transform="rotate(90 1245,894.5)" text-rendering="optimizeSpeed" fill="#000000">thinBackup (6201)</text>
  <rect fill="blue" height="66.4" stroke="black" width="12" x="1260" y="823.0"/>
  <text x="1260" y="894.5" font-family="Tahoma" font-size="12" transform="rotate(90 1260,894.5)" text-rendering="optimizeSpeed" fill="#000000">jira (6643)</text>
  <rect fill="blue" height="66.5" stroke="black" width="12" x="1275" y="822.9"/>
  <text x="1275" y="894.5" font-family="Tahoma" font-size="12" transform="rotate(90 1275,894.5)" text-rendering="optimizeSpeed" fill="#000000">log-parser (6654)</text>
  <rect fill="blue" height="67.5" stroke="black" width="12" x="1290" y="822.0"/>
  <text x="1290" y="894.5" font-family="Tahoma" font-size="12" transform="rotate(90 1290,894.5)" text-rendering="optimizeSpeed" fill="#000000">dry (6750)</text>
  <rect fill="blue" height="70.9" stroke="black" width="12" x="1305" y="818.5"/>
  <text x="1305" y="894.5" font-family="Tahoma" font-size="12" transform="rotate(90 1305,894.5)" text-rendering="optimizeSpeed" fill="#000000">deploy (7091)</text>
  <rect fill="blue" height="71.2" stroke="black" width="12" x="1320" y="818.3"/>
  <text x="1320" y="894.5" font-family="Tahoma" font-size="12" transform="rotate(90 1320,894.5)" text-rendering="optimizeSpeed" fill="#000000">timestamper (7119)</text>
  <rect fill="blue" height="71.5" stroke="black" width="12" x="1335" y="818.0"/>
  <text x="1335" y="894.5" font-family="Tahoma" font-size="12" transform="rotate(90 1335,894.5)" text-rendering="optimizeSpeed" fill="#000000">ssh (7148)</text>
  <rect fill="blue" height="75.0" stroke="black" width="12" x="1350" y="814.5"/>
  <text x="1350" y="894.5" font-family="Tahoma" font-size="12" transform="rotate(90 1350,894.5)" text-rendering="optimizeSpeed" fill="#000000">analysis-collector (7499)</text>
  <rect fill="blue" height="81.8" stroke="black" width="12" x="1365" y="807.6"/>
  <text x="1365" y="894.4" font-family="Tahoma" font-size="12" transform="rotate(90 1365,894.4)" text-rendering="optimizeSpeed" fill="#000000">postbuild-task (8184)</text>
  <rect fill="blue" height="84.4" stroke="black" width="12" x="1380" y="805.0"/>
  <text x="1380" y="894.5" font-family="Tahoma" font-size="12" transform="rotate(90 1380,894.5)" text-rendering="optimizeSpeed" fill="#000000">warnings (8441)</text>
  <rect fill="blue" height="86.1" stroke="black" width="12" x="1395" y="803.4"/>
  <text x="1395" y="894.5" font-family="Tahoma" font-size="12" transform="rotate(90 1395,894.5)" text-rendering="optimizeSpeed" fill="#000000">jobConfigHistory (8608)</text>
  <rect fill="blue" height="86.3" stroke="black" width="12" x="1410" y="803.2"/>
  <text x="1410" y="894.5" font-family="Tahoma" font-size="12" transform="rotate(90 1410,894.5)" text-rendering="optimizeSpeed" fill="#000000">msbuild (8630)</text>
  <rect fill="blue" height="89.7" stroke="black" width="12" x="1425" y="799.8"/>
  <text x="1425" y="894.5" font-family="Tahoma" font-size="12" transform="rotate(90 1425,894.5)" text-rendering="optimizeSpeed" fill="#000000">findbugs (8970)</text>
  <rect fill="blue" height="90.1" stroke="black" width="12" x="1440" y="799.4"/>
  <text x="1440" y="894.5" font-family="Tahoma" font-size="12" transform="rotate(90 1440,894.5)" text-rendering="optimizeSpeed" fill="#000000">ws-cleanup (9007)</text>
  <rect fill="blue" height="93.4" stroke="black" width="12" x="1455" y="796.0"/>
  <text x="1455" y="894.5" font-family="Tahoma" font-size="12" transform="rotate(90 1455,894.5)" text-rendering="optimizeSpeed" fill="#000000">build-timeout (9341)</text>
  <rect fill="blue" height="96.3" stroke="black" width="12" x="1470" y="793.1"/>
  <text x="1470" y="894.5" font-family="Tahoma" font-size="12" transform="rotate(90 1470,894.5)" text-rendering="optimizeSpeed" fill="#000000">conditional-buildstep (9632)</text>
  <rect fill="blue" height="98.1" stroke="black" width="12" x="1485" y="791.3"/>
  <text x="1485" y="894.5" font-family="Tahoma" font-size="12" transform="rotate(90 1485,894.5)" text-rendering="optimizeSpeed" fill="#000000">ssh-agent (9811)</text>
  <rect fill="blue" height="98.7" stroke="black" width="12" x="1500" y="790.7"/>
  <text x="1500" y="894.5" font-family="Tahoma" font-size="12" transform="rotate(90 1500,894.5)" text-rendering="optimizeSpeed" fill="#000000">active-directory (9871)</text>
  <rect fill="blue" height="98.8" stroke="black" width="12" x="1515" y="790.7"/>
  <text x="1515" y="894.5" font-family="Tahoma" font-size="12" transform="rotate(90 1515,894.5)" text-rendering="optimizeSpeed" fill="#000000">publish-over-ssh (9878)</text>
  <rect fill="blue" height="99.0" stroke="black" width="12" x="1530" y="790.4"/>
  <text x="1530" y="894.5" font-family="Tahoma" font-size="12" transform="rotate(90 1530,894.5)" text-rendering="optimizeSpeed" fill="#000000">violations (9903)</text>
  <rect fill="blue" height="100.6" stroke="black" width="12" x="1545" y="788.8"/>
  <text x="1545" y="894.5" font-family="Tahoma" font-size="12" transform="rotate(90 1545,894.5)" text-rendering="optimizeSpeed" fill="#000000">disk-usage (10062)</text>
  <rect fill="blue" height="100.9" stroke="black" width="12" x="1560" y="788.6"/>
  <text x="1560" y="894.5" font-family="Tahoma" font-size="12" transform="rotate(90 1560,894.5)" text-rendering="optimizeSpeed" fill="#000000">pmd (10087)</text>
  <rect fill="blue" height="101.5" stroke="black" width="12" x="1575" y="787.9"/>
  <text x="1575" y="894.5" font-family="Tahoma" font-size="12" transform="rotate(90 1575,894.5)" text-rendering="optimizeSpeed" fill="#000000">build-pipeline-plugin (10154)</text>
  <rect fill="blue" height="103.9" stroke="black" width="12" x="1590" y="785.5"/>
  <text x="1590" y="894.5" font-family="Tahoma" font-size="12" transform="rotate(90 1590,894.5)" text-rendering="optimizeSpeed" fill="#000000">xunit (10394)</text>
  <rect fill="blue" height="113.0" stroke="black" width="12" x="1605" y="776.5"/>
  <text x="1605" y="894.4" font-family="Tahoma" font-size="12" transform="rotate(90 1605,894.4)" text-rendering="optimizeSpeed" fill="#000000">run-condition (11297)</text>
  <rect fill="blue" height="114.1" stroke="black" width="12" x="1620" y="775.4"/>
  <text x="1620" y="894.5" font-family="Tahoma" font-size="12" transform="rotate(90 1620,894.5)" text-rendering="optimizeSpeed" fill="#000000">cobertura (11410)</text>
  <rect fill="blue" height="114.3" stroke="black" width="12" x="1635" y="775.1"/>
  <text x="1635" y="894.5" font-family="Tahoma" font-size="12" transform="rotate(90 1635,894.5)" text-rendering="optimizeSpeed" fill="#000000">checkstyle (11435)</text>
  <rect fill="blue" height="118.8" stroke="black" width="12" x="1650" y="770.7"/>
  <text x="1650" y="894.5" font-family="Tahoma" font-size="12" transform="rotate(90 1650,894.5)" text-rendering="optimizeSpeed" fill="#000000">sonar (11879)</text>
  <rect fill="blue" height="119.1" stroke="black" width="12" x="1665" y="770.4"/>
  <text x="1665" y="894.5" font-family="Tahoma" font-size="12" transform="rotate(90 1665,894.5)" text-rendering="optimizeSpeed" fill="#000000">dashboard-view (11910)</text>
  <rect fill="blue" height="120.2" stroke="black" width="12" x="1680" y="769.2"/>
  <text x="1680" y="894.5" font-family="Tahoma" font-size="12" transform="rotate(90 1680,894.5)" text-rendering="optimizeSpeed" fill="#000000">github (12025)</text>
  <rect fill="blue" height="126.6" stroke="black" width="12" x="1695" y="762.8"/>
  <text x="1695" y="894.5" font-family="Tahoma" font-size="12" transform="rotate(90 1695,894.5)" text-rendering="optimizeSpeed" fill="#000000">github-api (12664)</text>
  <rect fill="blue" height="128.0" stroke="black" width="12" x="1710" y="761.4"/>
  <text x="1710" y="894.5" font-family="Tahoma" font-size="12" transform="rotate(90 1710,894.5)" text-rendering="optimizeSpeed" fill="#000000">copyartifact (12803)</text>
  <rect fill="blue" height="134.0" stroke="black" width="12" x="1725" y="755.5"/>
  <text x="1725" y="894.5" font-family="Tahoma" font-size="12" transform="rotate(90 1725,894.5)" text-rendering="optimizeSpeed" fill="#000000">htmlpublisher (13399)</text>
  <rect fill="blue" height="146.5" stroke="black" width="12" x="1740" y="743.0"/>
  <text x="1740" y="894.5" font-family="Tahoma" font-size="12" transform="rotate(90 1740,894.5)" text-rendering="optimizeSpeed" fill="#000000">mapdb-api (14648)</text>
  <rect fill="blue" height="153.5" stroke="black" width="12" x="1755" y="735.9"/>
  <text x="1755" y="894.5" font-family="Tahoma" font-size="12" transform="rotate(90 1755,894.5)" text-rendering="optimizeSpeed" fill="#000000">envinject (15352)</text>
  <rect fill="blue" height="159.2" stroke="black" width="12" x="1770" y="730.3"/>
  <text x="1770" y="894.5" font-family="Tahoma" font-size="12" transform="rotate(90 1770,894.5)" text-rendering="optimizeSpeed" fill="#000000">jquery (15916)</text>
  <rect fill="blue" height="181.1" stroke="black" width="12" x="1785" y="708.3"/>
  <text x="1785" y="894.4" font-family="Tahoma" font-size="12" transform="rotate(90 1785,894.4)" text-rendering="optimizeSpeed" fill="#000000">greenballs (18110)</text>
  <rect fill="blue" height="235.2" stroke="black" width="12" x="1800" y="654.3"/>
  <text x="1800" y="894.5" font-family="Tahoma" font-size="12" transform="rotate(90 1800,894.5)" text-rendering="optimizeSpeed" fill="#000000">parameterized-trigger (23519)</text>
  <rect fill="blue" height="239.9" stroke="black" width="12" x="1815" y="649.5"/>
  <text x="1815" y="894.5" font-family="Tahoma" font-size="12" transform="rotate(90 1815,894.5)" text-rendering="optimizeSpeed" fill="#000000">analysis-core (23995)</text>
  <rect fill="blue" height="253.3" stroke="black" width="12" x="1830" y="636.2"/>
  <text x="1830" y="894.5" font-family="Tahoma" font-size="12" transform="rotate(90 1830,894.5)" text-rendering="optimizeSpeed" fill="#000000">email-ext (25330)</text>
  <rect fill="blue" height="332.6" stroke="black" width="12" x="1845" y="556.9"/>
  <text x="1845" y="894.4" font-family="Tahoma" font-size="12" transform="rotate(90 1845,894.4)" text-rendering="optimizeSpeed" fill="#000000">matrix-project (33258)</text>
  <rect fill="blue" height="359.4" stroke="black" width="12" x="1860" y="530.1"/>
  <text x="1860" y="894.4" font-family="Tahoma" font-size="12" transform="rotate(90 1860,894.4)" text-rendering="optimizeSpeed" fill="#000000">token-macro (35935)</text>
  <rect fill="blue" height="394.9" stroke="black" width="12" x="1875" y="494.6"/>
  <text x="1875" y="894.5" font-family="Tahoma" font-size="12" transform="rotate(90 1875,894.5)" text-rendering="optimizeSpeed" fill="#000000">git-client (39486)</text>
  <rect fill="blue" height="426.6" stroke="black" width="12" x="1890" y="462.8"/>
  <text x="1890" y="894.5" font-family="Tahoma" font-size="12" transform="rotate(90 1890,894.5)" text-rendering="optimizeSpeed" fill="#000000">git (42665)</text>
  <rect fill="blue" height="447.0" stroke="black" width="12" x="1905" y="442.5"/>
  <text x="1905" y="894.5" font-family="Tahoma" font-size="12" transform="rotate(90 1905,894.5)" text-rendering="optimizeSpeed" fill="#000000">scm-api (44699)</text>
  <rect fill="blue" height="469.5" stroke="black" width="12" x="1920" y="420.0"/>
  <text x="1920" y="894.5" font-family="Tahoma" font-size="12" transform="rotate(90 1920,894.5)" text-rendering="optimizeSpeed" fill="#000000">antisamy-markup-formatter (46946)</text>
  <rect fill="blue" height="528.1" stroke="black" width="12" x="1935" y="361.4"/>
  <text x="1935" y="894.5" font-family="Tahoma" font-size="12" transform="rotate(90 1935,894.5)" text-rendering="optimizeSpeed" fill="#000000">windows-slaves (52810)</text>
  <rect fill="blue" height="605.9" stroke="black" width="12" x="1950" y="283.5"/>
  <text x="1950" y="894.5" font-family="Tahoma" font-size="12" transform="rotate(90 1950,894.5)" text-rendering="optimizeSpeed" fill="#000000">matrix-auth (60591)</text>
  <rect fill="blue" height="761.3" stroke="black" width="12" x="1965" y="128.1"/>
  <text x="1965" y="894.5" font-family="Tahoma" font-size="12" transform="rotate(90 1965,894.5)" text-rendering="optimizeSpeed" fill="#000000">ssh-credentials (76134)</text>
  <rect fill="blue" height="764.6" stroke="black" width="12" x="1980" y="124.9"/>
  <text x="1980" y="894.5" font-family="Tahoma" font-size="12" transform="rotate(90 1980,894.5)" text-rendering="optimizeSpeed" fill="#000000">credentials (76460)</text>
  <rect fill="blue" height="784.9" stroke="black" width="12" x="1995" y="104.6"/>
  <text x="1995" y="894.5" font-family="Tahoma" font-size="12" transform="rotate(90 1995,894.5)" text-rendering="optimizeSpeed" fill="#000000">mailer (78488)</text>
  <rect fill="blue" height="794.7" stroke="black" width="12" x="2010" y="94.8"/>
  <text x="2010" y="894.5" font-family="Tahoma" font-size="12" transform="rotate(90 2010,894.5)" text-rendering="optimizeSpeed" fill="#000000">cvs (79467)</text>
  <rect fill="blue" height="794.7" stroke="black" width="12" x="2025" y="94.7"/>
  <text x="2025" y="894.5" font-family="Tahoma" font-size="12" transform="rotate(90 2025,894.5)" text-rendering="optimizeSpeed" fill="#000000">ldap (79473)</text>
  <rect fill="blue" height="800.4" stroke="black" width="12" x="2040" y="89.0"/>
  <text x="2040" y="894.5" font-family="Tahoma" font-size="12" transform="rotate(90 2040,894.5)" text-rendering="optimizeSpeed" fill="#000000">pam-auth (80041)</text>
  <rect fill="blue" height="807.0" stroke="black" width="12" x="2055" y="82.5"/>
  <text x="2055" y="894.5" font-family="Tahoma" font-size="12" transform="rotate(90 2055,894.5)" text-rendering="optimizeSpeed" fill="#000000">external-monitor-job (80697)</text>
  <rect fill="blue" height="817.8" stroke="black" width="12" x="2070" y="71.6"/>
  <text x="2070" y="894.5" font-family="Tahoma" font-size="12" transform="rotate(90 2070,894.5)" text-rendering="optimizeSpeed" fill="#000000">translation (81783)</text>
  <rect fill="blue" height="818.8" stroke="black" width="12" x="2085" y="70.6"/>
  <text x="2085" y="894.5" font-family="Tahoma" font-size="12" transform="rotate(90 2085,894.5)" text-rendering="optimizeSpeed" fill="#000000">subversion (81883)</text>
  <rect fill="blue" height="823.6" stroke="black" width="12" x="2100" y="65.8"/>
  <text x="2100" y="894.5" font-family="Tahoma" font-size="12" transform="rotate(90 2100,894.5)" text-rendering="optimizeSpeed" fill="#000000">ant (82361)</text>
  <rect fill="blue" height="830.2" stroke="black" width="12" x="2115" y="59.2"/>
  <text x="2115" y="894.5" font-family="Tahoma" font-size="12" transform="rotate(90 2115,894.5)" text-rendering="optimizeSpeed" fill="#000000">javadoc (83020)</text>
  <rect fill="blue" height="836.9" stroke="black" width="12" x="2130" y="52.6"/>
  <text x="2130" y="894.5" font-family="Tahoma" font-size="12" transform="rotate(90 2130,894.5)" text-rendering="optimizeSpeed" fill="#000000">maven-plugin (83688)</text>
  <rect fill="blue" height="839.5" stroke="black" width="12" x="2145" y="50.0"/>
  <text x="2145" y="894.5" font-family="Tahoma" font-size="12" transform="rotate(90 2145,894.5)" text-rendering="optimizeSpeed" fill="#000000">ssh-slaves (83945)</text>
  <text x="10" y="40" font-family="Tahoma" font-size="20" text-rendering="optimizeSpeed" fill="#000000">Plugin installations (installations &gt; 2500)</text>
</svg>
