<svg xmlns="http://www.w3.org/2000/svg" version="1.1" preserveAspectRatio="xMidYMid meet" viewBox="0 0 2465 1319.0">
  <rect fill="blue" height="25.1" stroke="black" width="12" x="15" y="993.9"/>
  <text x="15" y="1024.0" font-family="Tahoma" font-size="12" transform="rotate(90 15,1024.0)" text-rendering="optimizeSpeed" fill="#000000">show-build-parameters (2509)</text>
  <rect fill="blue" height="25.1" stroke="black" width="12" x="30" y="993.9"/>
  <text x="30" y="1024.0" font-family="Tahoma" font-size="12" transform="rotate(90 30,1024.0)" text-rendering="optimizeSpeed" fill="#000000">jenkinswalldisplay (2512)</text>
  <rect fill="blue" height="25.8" stroke="black" width="12" x="45" y="993.2"/>
  <text x="45" y="1024.0" font-family="Tahoma" font-size="12" transform="rotate(90 45,1024.0)" text-rendering="optimizeSpeed" fill="#000000">jabber (2581)</text>
  <rect fill="blue" height="26.1" stroke="black" width="12" x="60" y="993.0"/>
  <text x="60" y="1024.0" font-family="Tahoma" font-size="12" transform="rotate(90 60,1024.0)" text-rendering="optimizeSpeed" fill="#000000">ftppublisher (2606)</text>
  <rect fill="blue" height="26.2" stroke="black" width="12" x="75" y="992.8"/>
  <text x="75" y="1024.0" font-family="Tahoma" font-size="12" transform="rotate(90 75,1024.0)" text-rendering="optimizeSpeed" fill="#000000">sectioned-view (2622)</text>
  <rect fill="blue" height="26.5" stroke="black" width="12" x="90" y="992.5"/>
  <text x="90" y="1024.0" font-family="Tahoma" font-size="12" transform="rotate(90 90,1024.0)" text-rendering="optimizeSpeed" fill="#000000">scm-sync-configuration (2649)</text>
  <rect fill="blue" height="26.7" stroke="black" width="12" x="105" y="992.3"/>
  <text x="105" y="1024.0" font-family="Tahoma" font-size="12" transform="rotate(90 105,1024.0)" text-rendering="optimizeSpeed" fill="#000000">compact-columns (2674)</text>
  <rect fill="blue" height="27.2" stroke="black" width="12" x="120" y="991.8"/>
  <text x="120" y="1024.0" font-family="Tahoma" font-size="12" transform="rotate(90 120,1024.0)" text-rendering="optimizeSpeed" fill="#000000">gravatar (2724)</text>
  <rect fill="blue" height="27.5" stroke="black" width="12" x="135" y="991.5"/>
  <text x="135" y="1024.0" font-family="Tahoma" font-size="12" transform="rotate(90 135,1024.0)" text-rendering="optimizeSpeed" fill="#000000">project-stats-plugin (2752)</text>
  <rect fill="blue" height="27.7" stroke="black" width="12" x="150" y="991.3"/>
  <text x="150" y="1024.0" font-family="Tahoma" font-size="12" transform="rotate(90 150,1024.0)" text-rendering="optimizeSpeed" fill="#000000">radiatorviewplugin (2773)</text>
  <rect fill="blue" height="28.2" stroke="black" width="12" x="165" y="990.9"/>
  <text x="165" y="1024.0" font-family="Tahoma" font-size="12" transform="rotate(90 165,1024.0)" text-rendering="optimizeSpeed" fill="#000000">dynamicparameter (2816)</text>
  <rect fill="blue" height="28.3" stroke="black" width="12" x="180" y="990.8"/>
  <text x="180" y="1024.0" font-family="Tahoma" font-size="12" transform="rotate(90 180,1024.0)" text-rendering="optimizeSpeed" fill="#000000">nodejs (2828)</text>
  <rect fill="blue" height="28.4" stroke="black" width="12" x="195" y="990.7"/>
  <text x="195" y="1024.0" font-family="Tahoma" font-size="12" transform="rotate(90 195,1024.0)" text-rendering="optimizeSpeed" fill="#000000">xvfb (2835)</text>
  <rect fill="blue" height="28.5" stroke="black" width="12" x="210" y="990.5"/>
  <text x="210" y="1024.0" font-family="Tahoma" font-size="12" transform="rotate(90 210,1024.0)" text-rendering="optimizeSpeed" fill="#000000">mstest (2854)</text>
  <rect fill="blue" height="28.8" stroke="black" width="12" x="225" y="990.3"/>
  <text x="225" y="1024.0" font-family="Tahoma" font-size="12" transform="rotate(90 225,1024.0)" text-rendering="optimizeSpeed" fill="#000000">locale (2878)</text>
  <rect fill="blue" height="28.8" stroke="black" width="12" x="240" y="990.2"/>
  <text x="240" y="1024.0" font-family="Tahoma" font-size="12" transform="rotate(90 240,1024.0)" text-rendering="optimizeSpeed" fill="#000000">gerrit-trigger (2883)</text>
  <rect fill="blue" height="29.2" stroke="black" width="12" x="255" y="989.9"/>
  <text x="255" y="1024.0" font-family="Tahoma" font-size="12" transform="rotate(90 255,1024.0)" text-rendering="optimizeSpeed" fill="#000000">build-user-vars-plugin (2917)</text>
  <rect fill="blue" height="29.2" stroke="black" width="12" x="270" y="989.8"/>
  <text x="270" y="1024.0" font-family="Tahoma" font-size="12" transform="rotate(90 270,1024.0)" text-rendering="optimizeSpeed" fill="#000000">hipchat (2925)</text>
  <rect fill="blue" height="29.5" stroke="black" width="12" x="285" y="989.5"/>
  <text x="285" y="1024.0" font-family="Tahoma" font-size="12" transform="rotate(90 285,1024.0)" text-rendering="optimizeSpeed" fill="#000000">batch-task (2949)</text>
  <rect fill="blue" height="29.5" stroke="black" width="12" x="300" y="989.5"/>
  <text x="300" y="1024.0" font-family="Tahoma" font-size="12" transform="rotate(90 300,1024.0)" text-rendering="optimizeSpeed" fill="#000000">rake (2953)</text>
  <rect fill="blue" height="29.6" stroke="black" width="12" x="315" y="989.5"/>
  <text x="315" y="1024.0" font-family="Tahoma" font-size="12" transform="rotate(90 315,1024.0)" text-rendering="optimizeSpeed" fill="#000000">build-blocker-plugin (2956)</text>
  <rect fill="blue" height="30.0" stroke="black" width="12" x="330" y="989.1"/>
  <text x="330" y="1024.0" font-family="Tahoma" font-size="12" transform="rotate(90 330,1024.0)" text-rendering="optimizeSpeed" fill="#000000">cppcheck (2997)</text>
  <rect fill="blue" height="30.6" stroke="black" width="12" x="345" y="988.4"/>
  <text x="345" y="1024.0" font-family="Tahoma" font-size="12" transform="rotate(90 345,1024.0)" text-rendering="optimizeSpeed" fill="#000000">doxygen (3064)</text>
  <rect fill="blue" height="31.1" stroke="black" width="12" x="360" y="987.9"/>
  <text x="360" y="1024.0" font-family="Tahoma" font-size="12" transform="rotate(90 360,1024.0)" text-rendering="optimizeSpeed" fill="#000000">all-changes (3115)</text>
  <rect fill="blue" height="31.7" stroke="black" width="12" x="375" y="987.3"/>
  <text x="375" y="1024.0" font-family="Tahoma" font-size="12" transform="rotate(90 375,1024.0)" text-rendering="optimizeSpeed" fill="#000000">flexible-publish (3173)</text>
  <rect fill="blue" height="32.2" stroke="black" width="12" x="390" y="986.9"/>
  <text x="390" y="1024.0" font-family="Tahoma" font-size="12" transform="rotate(90 390,1024.0)" text-rendering="optimizeSpeed" fill="#000000">postbuildscript (3216)</text>
  <rect fill="blue" height="33.1" stroke="black" width="12" x="405" y="985.9"/>
  <text x="405" y="1024.0" font-family="Tahoma" font-size="12" transform="rotate(90 405,1024.0)" text-rendering="optimizeSpeed" fill="#000000">versionnumber (3312)</text>
  <rect fill="blue" height="33.6" stroke="black" width="12" x="420" y="985.5"/>
  <text x="420" y="1024.0" font-family="Tahoma" font-size="12" transform="rotate(90 420,1024.0)" text-rendering="optimizeSpeed" fill="#000000">testng-plugin (3358)</text>
  <rect fill="blue" height="33.7" stroke="black" width="12" x="435" y="985.3"/>
  <text x="435" y="1024.0" font-family="Tahoma" font-size="12" transform="rotate(90 435,1024.0)" text-rendering="optimizeSpeed" fill="#000000">claim (3369)</text>
  <rect fill="blue" height="34.0" stroke="black" width="12" x="450" y="985.1"/>
  <text x="450" y="1024.0" font-family="Tahoma" font-size="12" transform="rotate(90 450,1024.0)" text-rendering="optimizeSpeed" fill="#000000">release (3395)</text>
  <rect fill="blue" height="34.7" stroke="black" width="12" x="465" y="984.4"/>
  <text x="465" y="1024.0" font-family="Tahoma" font-size="12" transform="rotate(90 465,1024.0)" text-rendering="optimizeSpeed" fill="#000000">locks-and-latches (3467)</text>
  <rect fill="blue" height="34.9" stroke="black" width="12" x="480" y="984.1"/>
  <text x="480" y="1024.0" font-family="Tahoma" font-size="12" transform="rotate(90 480,1024.0)" text-rendering="optimizeSpeed" fill="#000000">job-import-plugin (3490)</text>
  <rect fill="blue" height="35.1" stroke="black" width="12" x="495" y="984.0"/>
  <text x="495" y="1024.0" font-family="Tahoma" font-size="12" transform="rotate(90 495,1024.0)" text-rendering="optimizeSpeed" fill="#000000">publish-over-ftp (3508)</text>
  <rect fill="blue" height="35.1" stroke="black" width="12" x="510" y="983.9"/>
  <text x="510" y="1024.0" font-family="Tahoma" font-size="12" transform="rotate(90 510,1024.0)" text-rendering="optimizeSpeed" fill="#000000">console-column-plugin (3511)</text>
  <rect fill="blue" height="35.2" stroke="black" width="12" x="525" y="983.9"/>
  <text x="525" y="1024.0" font-family="Tahoma" font-size="12" transform="rotate(90 525,1024.0)" text-rendering="optimizeSpeed" fill="#000000">sidebar-link (3517)</text>
  <rect fill="blue" height="35.2" stroke="black" width="12" x="540" y="983.9"/>
  <text x="540" y="1024.0" font-family="Tahoma" font-size="12" transform="rotate(90 540,1024.0)" text-rendering="optimizeSpeed" fill="#000000">android-emulator (3518)</text>
  <rect fill="blue" height="35.2" stroke="black" width="12" x="555" y="983.8"/>
  <text x="555" y="1024.0" font-family="Tahoma" font-size="12" transform="rotate(90 555,1024.0)" text-rendering="optimizeSpeed" fill="#000000">global-build-stats (3525)</text>
  <rect fill="blue" height="35.7" stroke="black" width="12" x="570" y="983.3"/>
  <text x="570" y="1024.0" font-family="Tahoma" font-size="12" transform="rotate(90 570,1024.0)" text-rendering="optimizeSpeed" fill="#000000">downstream-buildview (3570)</text>
  <rect fill="blue" height="35.8" stroke="black" width="12" x="585" y="983.2"/>
  <text x="585" y="1024.0" font-family="Tahoma" font-size="12" transform="rotate(90 585,1024.0)" text-rendering="optimizeSpeed" fill="#000000">powershell (3579)</text>
  <rect fill="blue" height="36.0" stroke="black" width="12" x="600" y="983.1"/>
  <text x="600" y="1024.0" font-family="Tahoma" font-size="12" transform="rotate(90 600,1024.0)" text-rendering="optimizeSpeed" fill="#000000">github-oauth (3596)</text>
  <rect fill="blue" height="36.3" stroke="black" width="12" x="615" y="982.8"/>
  <text x="615" y="1024.0" font-family="Tahoma" font-size="12" transform="rotate(90 615,1024.0)" text-rendering="optimizeSpeed" fill="#000000">ghprb (3627)</text>
  <rect fill="blue" height="36.6" stroke="black" width="12" x="630" y="982.4"/>
  <text x="630" y="1024.0" font-family="Tahoma" font-size="12" transform="rotate(90 630,1024.0)" text-rendering="optimizeSpeed" fill="#000000">audit-trail (3664)</text>
  <rect fill="blue" height="37.8" stroke="black" width="12" x="645" y="981.2"/>
  <text x="645" y="1024.0" font-family="Tahoma" font-size="12" transform="rotate(90 645,1024.0)" text-rendering="optimizeSpeed" fill="#000000">text-finder (3779)</text>
  <rect fill="blue" height="38.2" stroke="black" width="12" x="660" y="980.8"/>
  <text x="660" y="1024.0" font-family="Tahoma" font-size="12" transform="rotate(90 660,1024.0)" text-rendering="optimizeSpeed" fill="#000000">emma (3824)</text>
  <rect fill="blue" height="38.3" stroke="black" width="12" x="675" y="980.7"/>
  <text x="675" y="1024.0" font-family="Tahoma" font-size="12" transform="rotate(90 675,1024.0)" text-rendering="optimizeSpeed" fill="#000000">next-build-number (3834)</text>
  <rect fill="blue" height="38.4" stroke="black" width="12" x="690" y="980.7"/>
  <text x="690" y="1024.0" font-family="Tahoma" font-size="12" transform="rotate(90 690,1024.0)" text-rendering="optimizeSpeed" fill="#000000">saferestart (3835)</text>
  <rect fill="blue" height="38.9" stroke="black" width="12" x="705" y="980.1"/>
  <text x="705" y="1024.0" font-family="Tahoma" font-size="12" transform="rotate(90 705,1024.0)" text-rendering="optimizeSpeed" fill="#000000">perforce (3891)</text>
  <rect fill="blue" height="39.1" stroke="black" width="12" x="720" y="980.0"/>
  <text x="720" y="1024.0" font-family="Tahoma" font-size="12" transform="rotate(90 720,1024.0)" text-rendering="optimizeSpeed" fill="#000000">scriptler (3907)</text>
  <rect fill="blue" height="39.1" stroke="black" width="12" x="735" y="979.9"/>
  <text x="735" y="1024.0" font-family="Tahoma" font-size="12" transform="rotate(90 735,1024.0)" text-rendering="optimizeSpeed" fill="#000000">mask-passwords (3913)</text>
  <rect fill="blue" height="39.9" stroke="black" width="12" x="750" y="979.2"/>
  <text x="750" y="1024.0" font-family="Tahoma" font-size="12" transform="rotate(90 750,1024.0)" text-rendering="optimizeSpeed" fill="#000000">description-setter (3987)</text>
  <rect fill="blue" height="40.0" stroke="black" width="12" x="765" y="979.1"/>
  <text x="765" y="1024.0" font-family="Tahoma" font-size="12" transform="rotate(90 765,1024.0)" text-rendering="optimizeSpeed" fill="#000000">svn-tag (3998)</text>
  <rect fill="blue" height="40.1" stroke="black" width="12" x="780" y="978.9"/>
  <text x="780" y="1024.0" font-family="Tahoma" font-size="12" transform="rotate(90 780,1024.0)" text-rendering="optimizeSpeed" fill="#000000">extra-columns (4013)</text>
  <rect fill="blue" height="40.7" stroke="black" width="12" x="795" y="978.3"/>
  <text x="795" y="1024.0" font-family="Tahoma" font-size="12" transform="rotate(90 795,1024.0)" text-rendering="optimizeSpeed" fill="#000000">groovy-postbuild (4069)</text>
  <rect fill="blue" height="40.8" stroke="black" width="12" x="810" y="978.3"/>
  <text x="810" y="1024.0" font-family="Tahoma" font-size="12" transform="rotate(90 810,1024.0)" text-rendering="optimizeSpeed" fill="#000000">cloverphp (4077)</text>
  <rect fill="blue" height="41.0" stroke="black" width="12" x="825" y="978.1"/>
  <text x="825" y="1024.0" font-family="Tahoma" font-size="12" transform="rotate(90 825,1024.0)" text-rendering="optimizeSpeed" fill="#000000">configurationslicing (4095)</text>
  <rect fill="blue" height="41.9" stroke="black" width="12" x="840" y="977.1"/>
  <text x="840" y="1024.0" font-family="Tahoma" font-size="12" transform="rotate(90 840,1024.0)" text-rendering="optimizeSpeed" fill="#000000">build-monitor-plugin (4190)</text>
  <rect fill="blue" height="42.1" stroke="black" width="12" x="855" y="976.9"/>
  <text x="855" y="1024.0" font-family="Tahoma" font-size="12" transform="rotate(90 855,1024.0)" text-rendering="optimizeSpeed" fill="#000000">jacoco (4211)</text>
  <rect fill="blue" height="42.4" stroke="black" width="12" x="870" y="976.6"/>
  <text x="870" y="1024.0" font-family="Tahoma" font-size="12" transform="rotate(90 870,1024.0)" text-rendering="optimizeSpeed" fill="#000000">nunit (4241)</text>
  <rect fill="blue" height="42.5" stroke="black" width="12" x="885" y="976.5"/>
  <text x="885" y="1024.0" font-family="Tahoma" font-size="12" transform="rotate(90 885,1024.0)" text-rendering="optimizeSpeed" fill="#000000">jdepend (4250)</text>
  <rect fill="blue" height="42.7" stroke="black" width="12" x="900" y="976.3"/>
  <text x="900" y="1024.0" font-family="Tahoma" font-size="12" transform="rotate(90 900,1024.0)" text-rendering="optimizeSpeed" fill="#000000">depgraph-view (4273)</text>
  <rect fill="blue" height="43.6" stroke="black" width="12" x="915" y="975.4"/>
  <text x="915" y="1024.0" font-family="Tahoma" font-size="12" transform="rotate(90 915,1024.0)" text-rendering="optimizeSpeed" fill="#000000">port-allocator (4364)</text>
  <rect fill="blue" height="43.9" stroke="black" width="12" x="930" y="975.1"/>
  <text x="930" y="1024.0" font-family="Tahoma" font-size="12" transform="rotate(90 930,1024.0)" text-rendering="optimizeSpeed" fill="#000000">xcode-plugin (4394)</text>
  <rect fill="blue" height="44.0" stroke="black" width="12" x="945" y="975.0"/>
  <text x="945" y="1024.0" font-family="Tahoma" font-size="12" transform="rotate(90 945,1024.0)" text-rendering="optimizeSpeed" fill="#000000">python (4404)</text>
  <rect fill="blue" height="44.2" stroke="black" width="12" x="960" y="974.9"/>
  <text x="960" y="1024.0" font-family="Tahoma" font-size="12" transform="rotate(90 960,1024.0)" text-rendering="optimizeSpeed" fill="#000000">throttle-concurrents (4418)</text>
  <rect fill="blue" height="45.1" stroke="black" width="12" x="975" y="973.9"/>
  <text x="975" y="1024.0" font-family="Tahoma" font-size="12" transform="rotate(90 975,1024.0)" text-rendering="optimizeSpeed" fill="#000000">tasks (4512)</text>
  <rect fill="blue" height="45.5" stroke="black" width="12" x="990" y="973.6"/>
  <text x="990" y="1024.0" font-family="Tahoma" font-size="12" transform="rotate(90 990,1024.0)" text-rendering="optimizeSpeed" fill="#000000">join (4547)</text>
  <rect fill="blue" height="45.6" stroke="black" width="12" x="1005" y="973.4"/>
  <text x="1005" y="1024.0" font-family="Tahoma" font-size="12" transform="rotate(90 1005,1024.0)" text-rendering="optimizeSpeed" fill="#000000">extended-choice-parameter (4565)</text>
  <rect fill="blue" height="45.8" stroke="black" width="12" x="1020" y="973.3"/>
  <text x="1020" y="1024.0" font-family="Tahoma" font-size="12" transform="rotate(90 1020,1024.0)" text-rendering="optimizeSpeed" fill="#000000">build-flow-plugin (4576)</text>
  <rect fill="blue" height="46.6" stroke="black" width="12" x="1035" y="972.5"/>
  <text x="1035" y="1024.0" font-family="Tahoma" font-size="12" transform="rotate(90 1035,1024.0)" text-rendering="optimizeSpeed" fill="#000000">buildgraph-view (4658)</text>
  <rect fill="blue" height="46.8" stroke="black" width="12" x="1050" y="972.2"/>
  <text x="1050" y="1024.0" font-family="Tahoma" font-size="12" transform="rotate(90 1050,1024.0)" text-rendering="optimizeSpeed" fill="#000000">nodelabelparameter (4684)</text>
  <rect fill="blue" height="47.8" stroke="black" width="12" x="1065" y="971.3"/>
  <text x="1065" y="1024.0" font-family="Tahoma" font-size="12" transform="rotate(90 1065,1024.0)" text-rendering="optimizeSpeed" fill="#000000">config-file-provider (4778)</text>
  <rect fill="blue" height="48.4" stroke="black" width="12" x="1080" y="970.7"/>
  <text x="1080" y="1024.0" font-family="Tahoma" font-size="12" transform="rotate(90 1080,1024.0)" text-rendering="optimizeSpeed" fill="#000000">mercurial (4837)</text>
  <rect fill="blue" height="51.6" stroke="black" width="12" x="1095" y="967.5"/>
  <text x="1095" y="1024.0" font-family="Tahoma" font-size="12" transform="rotate(90 1095,1024.0)" text-rendering="optimizeSpeed" fill="#000000">nested-view (5156)</text>
  <rect fill="blue" height="52.1" stroke="black" width="12" x="1110" y="966.9"/>
  <text x="1110" y="1024.0" font-family="Tahoma" font-size="12" transform="rotate(90 1110,1024.0)" text-rendering="optimizeSpeed" fill="#000000">scp (5211)</text>
  <rect fill="blue" height="53.1" stroke="black" width="12" x="1125" y="965.9"/>
  <text x="1125" y="1024.0" font-family="Tahoma" font-size="12" transform="rotate(90 1125,1024.0)" text-rendering="optimizeSpeed" fill="#000000">simple-theme-plugin (5312)</text>
  <rect fill="blue" height="54.3" stroke="black" width="12" x="1140" y="964.7"/>
  <text x="1140" y="1024.0" font-family="Tahoma" font-size="12" transform="rotate(90 1140,1024.0)" text-rendering="optimizeSpeed" fill="#000000">m2release (5433)</text>
  <rect fill="blue" height="54.8" stroke="black" width="12" x="1155" y="964.2"/>
  <text x="1155" y="1024.0" font-family="Tahoma" font-size="12" transform="rotate(90 1155,1024.0)" text-rendering="optimizeSpeed" fill="#000000">rebuild (5481)</text>
  <rect fill="blue" height="54.8" stroke="black" width="12" x="1170" y="964.2"/>
  <text x="1170" y="1024.0" font-family="Tahoma" font-size="12" transform="rotate(90 1170,1024.0)" text-rendering="optimizeSpeed" fill="#000000">git-parameter (5484)</text>
  <rect fill="blue" height="54.8" stroke="black" width="12" x="1185" y="964.2"/>
  <text x="1185" y="1024.0" font-family="Tahoma" font-size="12" transform="rotate(90 1185,1024.0)" text-rendering="optimizeSpeed" fill="#000000">performance (5484)</text>
  <rect fill="blue" height="55.3" stroke="black" width="12" x="1200" y="963.8"/>
  <text x="1200" y="1024.0" font-family="Tahoma" font-size="12" transform="rotate(90 1200,1024.0)" text-rendering="optimizeSpeed" fill="#000000">multiple-scms (5529)</text>
  <rect fill="blue" height="55.6" stroke="black" width="12" x="1215" y="963.5"/>
  <text x="1215" y="1024.0" font-family="Tahoma" font-size="12" transform="rotate(90 1215,1024.0)" text-rendering="optimizeSpeed" fill="#000000">copy-to-slave (5556)</text>
  <rect fill="blue" height="55.6" stroke="black" width="12" x="1230" y="963.5"/>
  <text x="1230" y="1024.0" font-family="Tahoma" font-size="12" transform="rotate(90 1230,1024.0)" text-rendering="optimizeSpeed" fill="#000000">backup (5558)</text>
  <rect fill="blue" height="55.9" stroke="black" width="12" x="1245" y="963.2"/>
  <text x="1245" y="1024.0" font-family="Tahoma" font-size="12" transform="rotate(90 1245,1024.0)" text-rendering="optimizeSpeed" fill="#000000">artifactory (5587)</text>
  <rect fill="blue" height="56.1" stroke="black" width="12" x="1260" y="962.9"/>
  <text x="1260" y="1024.0" font-family="Tahoma" font-size="12" transform="rotate(90 1260,1024.0)" text-rendering="optimizeSpeed" fill="#000000">instant-messaging (5612)</text>
  <rect fill="blue" height="56.4" stroke="black" width="12" x="1275" y="962.6"/>
  <text x="1275" y="1024.0" font-family="Tahoma" font-size="12" transform="rotate(90 1275,1024.0)" text-rendering="optimizeSpeed" fill="#000000">view-job-filters (5640)</text>
  <rect fill="blue" height="56.8" stroke="black" width="12" x="1290" y="962.2"/>
  <text x="1290" y="1024.0" font-family="Tahoma" font-size="12" transform="rotate(90 1290,1024.0)" text-rendering="optimizeSpeed" fill="#000000">jenkins-multijob-plugin (5681)</text>
  <rect fill="blue" height="57.9" stroke="black" width="12" x="1305" y="961.1"/>
  <text x="1305" y="1024.0" font-family="Tahoma" font-size="12" transform="rotate(90 1305,1024.0)" text-rendering="optimizeSpeed" fill="#000000">monitoring (5792)</text>
  <rect fill="blue" height="60.3" stroke="black" width="12" x="1320" y="958.7"/>
  <text x="1320" y="1024.0" font-family="Tahoma" font-size="12" transform="rotate(90 1320,1024.0)" text-rendering="optimizeSpeed" fill="#000000">artifactdeployer (6034)</text>
  <rect fill="blue" height="61.7" stroke="black" width="12" x="1335" y="957.3"/>
  <text x="1335" y="1024.0" font-family="Tahoma" font-size="12" transform="rotate(90 1335,1024.0)" text-rendering="optimizeSpeed" fill="#000000">git-server (6171)</text>
  <rect fill="blue" height="63.0" stroke="black" width="12" x="1350" y="956.0"/>
  <text x="1350" y="1024.0" font-family="Tahoma" font-size="12" transform="rotate(90 1350,1024.0)" text-rendering="optimizeSpeed" fill="#000000">build-name-setter (6304)</text>
  <rect fill="blue" height="63.5" stroke="black" width="12" x="1365" y="955.5"/>
  <text x="1365" y="1024.0" font-family="Tahoma" font-size="12" transform="rotate(90 1365,1024.0)" text-rendering="optimizeSpeed" fill="#000000">chucknorris (6355)</text>
  <rect fill="blue" height="66.5" stroke="black" width="12" x="1380" y="952.5"/>
  <text x="1380" y="1024.0" font-family="Tahoma" font-size="12" transform="rotate(90 1380,1024.0)" text-rendering="optimizeSpeed" fill="#000000">groovy (6650)</text>
  <rect fill="blue" height="66.5" stroke="black" width="12" x="1395" y="952.5"/>
  <text x="1395" y="1024.0" font-family="Tahoma" font-size="12" transform="rotate(90 1395,1024.0)" text-rendering="optimizeSpeed" fill="#000000">plot (6651)</text>
  <rect fill="blue" height="67.4" stroke="black" width="12" x="1410" y="951.6"/>
  <text x="1410" y="1024.0" font-family="Tahoma" font-size="12" transform="rotate(90 1410,1024.0)" text-rendering="optimizeSpeed" fill="#000000">promoted-builds (6740)</text>
  <rect fill="blue" height="69.0" stroke="black" width="12" x="1425" y="950.0"/>
  <text x="1425" y="1024.0" font-family="Tahoma" font-size="12" transform="rotate(90 1425,1024.0)" text-rendering="optimizeSpeed" fill="#000000">ansicolor (6900)</text>
  <rect fill="blue" height="69.4" stroke="black" width="12" x="1440" y="949.7"/>
  <text x="1440" y="1024.0" font-family="Tahoma" font-size="12" transform="rotate(90 1440,1024.0)" text-rendering="optimizeSpeed" fill="#000000">jquery-ui (6938)</text>
  <rect fill="blue" height="71.3" stroke="black" width="12" x="1455" y="947.7"/>
  <text x="1455" y="1024.0" font-family="Tahoma" font-size="12" transform="rotate(90 1455,1024.0)" text-rendering="optimizeSpeed" fill="#000000">dry (7135)</text>
  <rect fill="blue" height="72.0" stroke="black" width="12" x="1470" y="947.0"/>
  <text x="1470" y="1024.0" font-family="Tahoma" font-size="12" transform="rotate(90 1470,1024.0)" text-rendering="optimizeSpeed" fill="#000000">role-strategy (7204)</text>
  <rect fill="blue" height="73.7" stroke="black" width="12" x="1485" y="945.3"/>
  <text x="1485" y="1024.0" font-family="Tahoma" font-size="12" transform="rotate(90 1485,1024.0)" text-rendering="optimizeSpeed" fill="#000000">thinBackup (7374)</text>
  <rect fill="blue" height="73.8" stroke="black" width="12" x="1500" y="945.2"/>
  <text x="1500" y="1024.0" font-family="Tahoma" font-size="12" transform="rotate(90 1500,1024.0)" text-rendering="optimizeSpeed" fill="#000000">jira (7381)</text>
  <rect fill="blue" height="74.5" stroke="black" width="12" x="1515" y="944.6"/>
  <text x="1515" y="1024.0" font-family="Tahoma" font-size="12" transform="rotate(90 1515,1024.0)" text-rendering="optimizeSpeed" fill="#000000">ruby-runtime (7447)</text>
  <rect fill="blue" height="75.7" stroke="black" width="12" x="1530" y="943.3"/>
  <text x="1530" y="1024.0" font-family="Tahoma" font-size="12" transform="rotate(90 1530,1024.0)" text-rendering="optimizeSpeed" fill="#000000">log-parser (7571)</text>
  <rect fill="blue" height="77.5" stroke="black" width="12" x="1545" y="941.6"/>
  <text x="1545" y="1024.0" font-family="Tahoma" font-size="12" transform="rotate(90 1545,1024.0)" text-rendering="optimizeSpeed" fill="#000000">gradle (7748)</text>
  <rect fill="blue" height="81.9" stroke="black" width="12" x="1560" y="937.1"/>
  <text x="1560" y="1024.0" font-family="Tahoma" font-size="12" transform="rotate(90 1560,1024.0)" text-rendering="optimizeSpeed" fill="#000000">deploy (8191)</text>
  <rect fill="blue" height="83.0" stroke="black" width="12" x="1575" y="936.0"/>
  <text x="1575" y="1024.0" font-family="Tahoma" font-size="12" transform="rotate(90 1575,1024.0)" text-rendering="optimizeSpeed" fill="#000000">analysis-collector (8304)</text>
  <rect fill="blue" height="83.3" stroke="black" width="12" x="1590" y="935.8"/>
  <text x="1590" y="1024.0" font-family="Tahoma" font-size="12" transform="rotate(90 1590,1024.0)" text-rendering="optimizeSpeed" fill="#000000">ssh (8329)</text>
  <rect fill="blue" height="84.7" stroke="black" width="12" x="1605" y="934.4"/>
  <text x="1605" y="1024.0" font-family="Tahoma" font-size="12" transform="rotate(90 1605,1024.0)" text-rendering="optimizeSpeed" fill="#000000">timestamper (8466)</text>
  <rect fill="blue" height="90.9" stroke="black" width="12" x="1620" y="928.2"/>
  <text x="1620" y="1024.0" font-family="Tahoma" font-size="12" transform="rotate(90 1620,1024.0)" text-rendering="optimizeSpeed" fill="#000000">warnings (9088)</text>
  <rect fill="blue" height="94.6" stroke="black" width="12" x="1635" y="924.4"/>
  <text x="1635" y="1024.0" font-family="Tahoma" font-size="12" transform="rotate(90 1635,1024.0)" text-rendering="optimizeSpeed" fill="#000000">postbuild-task (9459)</text>
  <rect fill="blue" height="96.6" stroke="black" width="12" x="1650" y="922.5"/>
  <text x="1650" y="1024.0" font-family="Tahoma" font-size="12" transform="rotate(90 1650,1024.0)" text-rendering="optimizeSpeed" fill="#000000">findbugs (9656)</text>
  <rect fill="blue" height="100.1" stroke="black" width="12" x="1665" y="919.0"/>
  <text x="1665" y="1024.0" font-family="Tahoma" font-size="12" transform="rotate(90 1665,1024.0)" text-rendering="optimizeSpeed" fill="#000000">msbuild (10007)</text>
  <rect fill="blue" height="103.1" stroke="black" width="12" x="1680" y="915.9"/>
  <text x="1680" y="1024.0" font-family="Tahoma" font-size="12" transform="rotate(90 1680,1024.0)" text-rendering="optimizeSpeed" fill="#000000">jobConfigHistory (10309)</text>
  <rect fill="blue" height="107.7" stroke="black" width="12" x="1695" y="911.4"/>
  <text x="1695" y="1024.0" font-family="Tahoma" font-size="12" transform="rotate(90 1695,1024.0)" text-rendering="optimizeSpeed" fill="#000000">violations (10767)</text>
  <rect fill="blue" height="108.0" stroke="black" width="12" x="1710" y="911.0"/>
  <text x="1710" y="1024.0" font-family="Tahoma" font-size="12" transform="rotate(90 1710,1024.0)" text-rendering="optimizeSpeed" fill="#000000">disk-usage (10804)</text>
  <rect fill="blue" height="109.3" stroke="black" width="12" x="1725" y="909.8"/>
  <text x="1725" y="1024.0" font-family="Tahoma" font-size="12" transform="rotate(90 1725,1024.0)" text-rendering="optimizeSpeed" fill="#000000">build-timeout (10929)</text>
  <rect fill="blue" height="109.8" stroke="black" width="12" x="1740" y="909.3"/>
  <text x="1740" y="1024.0" font-family="Tahoma" font-size="12" transform="rotate(90 1740,1024.0)" text-rendering="optimizeSpeed" fill="#000000">pmd (10977)</text>
  <rect fill="blue" height="112.3" stroke="black" width="12" x="1755" y="906.7"/>
  <text x="1755" y="1024.0" font-family="Tahoma" font-size="12" transform="rotate(90 1755,1024.0)" text-rendering="optimizeSpeed" fill="#000000">ws-cleanup (11233)</text>
  <rect fill="blue" height="113.4" stroke="black" width="12" x="1770" y="905.7"/>
  <text x="1770" y="1024.0" font-family="Tahoma" font-size="12" transform="rotate(90 1770,1024.0)" text-rendering="optimizeSpeed" fill="#000000">active-directory (11336)</text>
  <rect fill="blue" height="116.5" stroke="black" width="12" x="1785" y="902.5"/>
  <text x="1785" y="1024.0" font-family="Tahoma" font-size="12" transform="rotate(90 1785,1024.0)" text-rendering="optimizeSpeed" fill="#000000">publish-over-ssh (11650)</text>
  <rect fill="blue" height="116.6" stroke="black" width="12" x="1800" y="902.4"/>
  <text x="1800" y="1024.0" font-family="Tahoma" font-size="12" transform="rotate(90 1800,1024.0)" text-rendering="optimizeSpeed" fill="#000000">xunit (11660)</text>
  <rect fill="blue" height="122.0" stroke="black" width="12" x="1815" y="897.1"/>
  <text x="1815" y="1024.0" font-family="Tahoma" font-size="12" transform="rotate(90 1815,1024.0)" text-rendering="optimizeSpeed" fill="#000000">build-pipeline-plugin (12197)</text>
  <rect fill="blue" height="124.3" stroke="black" width="12" x="1830" y="894.7"/>
  <text x="1830" y="1024.0" font-family="Tahoma" font-size="12" transform="rotate(90 1830,1024.0)" text-rendering="optimizeSpeed" fill="#000000">checkstyle (12431)</text>
  <rect fill="blue" height="125.8" stroke="black" width="12" x="1845" y="893.3"/>
  <text x="1845" y="1024.0" font-family="Tahoma" font-size="12" transform="rotate(90 1845,1024.0)" text-rendering="optimizeSpeed" fill="#000000">conditional-buildstep (12576)</text>
  <rect fill="blue" height="126.1" stroke="black" width="12" x="1860" y="893.0"/>
  <text x="1860" y="1024.0" font-family="Tahoma" font-size="12" transform="rotate(90 1860,1024.0)" text-rendering="optimizeSpeed" fill="#000000">cobertura (12606)</text>
  <rect fill="blue" height="132.7" stroke="black" width="12" x="1875" y="886.3"/>
  <text x="1875" y="1024.0" font-family="Tahoma" font-size="12" transform="rotate(90 1875,1024.0)" text-rendering="optimizeSpeed" fill="#000000">sonar (13271)</text>
  <rect fill="blue" height="133.3" stroke="black" width="12" x="1890" y="885.7"/>
  <text x="1890" y="1024.0" font-family="Tahoma" font-size="12" transform="rotate(90 1890,1024.0)" text-rendering="optimizeSpeed" fill="#000000">dashboard-view (13335)</text>
  <rect fill="blue" height="141.1" stroke="black" width="12" x="1905" y="877.9"/>
  <text x="1905" y="1024.0" font-family="Tahoma" font-size="12" transform="rotate(90 1905,1024.0)" text-rendering="optimizeSpeed" fill="#000000">github (14113)</text>
  <rect fill="blue" height="145.3" stroke="black" width="12" x="1920" y="873.7"/>
  <text x="1920" y="1024.0" font-family="Tahoma" font-size="12" transform="rotate(90 1920,1024.0)" text-rendering="optimizeSpeed" fill="#000000">run-condition (14535)</text>
  <rect fill="blue" height="150.3" stroke="black" width="12" x="1935" y="868.8"/>
  <text x="1935" y="1024.0" font-family="Tahoma" font-size="12" transform="rotate(90 1935,1024.0)" text-rendering="optimizeSpeed" fill="#000000">github-api (15026)</text>
  <rect fill="blue" height="152.9" stroke="black" width="12" x="1950" y="866.1"/>
  <text x="1950" y="1024.0" font-family="Tahoma" font-size="12" transform="rotate(90 1950,1024.0)" text-rendering="optimizeSpeed" fill="#000000">htmlpublisher (15294)</text>
  <rect fill="blue" height="157.8" stroke="black" width="12" x="1965" y="861.2"/>
  <text x="1965" y="1024.0" font-family="Tahoma" font-size="12" transform="rotate(90 1965,1024.0)" text-rendering="optimizeSpeed" fill="#000000">copyartifact (15785)</text>
  <rect fill="blue" height="179.7" stroke="black" width="12" x="1980" y="839.3"/>
  <text x="1980" y="1024.0" font-family="Tahoma" font-size="12" transform="rotate(90 1980,1024.0)" text-rendering="optimizeSpeed" fill="#000000">ssh-agent (17972)</text>
  <rect fill="blue" height="191.8" stroke="black" width="12" x="1995" y="827.3"/>
  <text x="1995" y="1024.0" font-family="Tahoma" font-size="12" transform="rotate(90 1995,1024.0)" text-rendering="optimizeSpeed" fill="#000000">envinject (19175)</text>
  <rect fill="blue" height="198.4" stroke="black" width="12" x="2010" y="820.6"/>
  <text x="2010" y="1024.0" font-family="Tahoma" font-size="12" transform="rotate(90 2010,1024.0)" text-rendering="optimizeSpeed" fill="#000000">jquery (19843)</text>
  <rect fill="blue" height="205.9" stroke="black" width="12" x="2025" y="813.1"/>
  <text x="2025" y="1024.0" font-family="Tahoma" font-size="12" transform="rotate(90 2025,1024.0)" text-rendering="optimizeSpeed" fill="#000000">greenballs (20589)</text>
  <rect fill="blue" height="263.8" stroke="black" width="12" x="2040" y="755.3"/>
  <text x="2040" y="1024.0" font-family="Tahoma" font-size="12" transform="rotate(90 2040,1024.0)" text-rendering="optimizeSpeed" fill="#000000">analysis-core (26378)</text>
  <rect fill="blue" height="284.6" stroke="black" width="12" x="2055" y="734.4"/>
  <text x="2055" y="1024.0" font-family="Tahoma" font-size="12" transform="rotate(90 2055,1024.0)" text-rendering="optimizeSpeed" fill="#000000">parameterized-trigger (28465)</text>
  <rect fill="blue" height="292.4" stroke="black" width="12" x="2070" y="726.6"/>
  <text x="2070" y="1024.0" font-family="Tahoma" font-size="12" transform="rotate(90 2070,1024.0)" text-rendering="optimizeSpeed" fill="#000000">email-ext (29240)</text>
  <rect fill="blue" height="319.8" stroke="black" width="12" x="2085" y="699.2"/>
  <text x="2085" y="1024.0" font-family="Tahoma" font-size="12" transform="rotate(90 2085,1024.0)" text-rendering="optimizeSpeed" fill="#000000">mapdb-api (31979)</text>
  <rect fill="blue" height="396.3" stroke="black" width="12" x="2100" y="622.8"/>
  <text x="2100" y="1024.0" font-family="Tahoma" font-size="12" transform="rotate(90 2100,1024.0)" text-rendering="optimizeSpeed" fill="#000000">junit (39628)</text>
  <rect fill="blue" height="442.2" stroke="black" width="12" x="2115" y="576.8"/>
  <text x="2115" y="1024.0" font-family="Tahoma" font-size="12" transform="rotate(90 2115,1024.0)" text-rendering="optimizeSpeed" fill="#000000">token-macro (44220)</text>
  <rect fill="blue" height="488.5" stroke="black" width="12" x="2130" y="530.5"/>
  <text x="2130" y="1024.0" font-family="Tahoma" font-size="12" transform="rotate(90 2130,1024.0)" text-rendering="optimizeSpeed" fill="#000000">git-client (48853)</text>
  <rect fill="blue" height="513.6" stroke="black" width="12" x="2145" y="505.4"/>
  <text x="2145" y="1024.0" font-family="Tahoma" font-size="12" transform="rotate(90 2145,1024.0)" text-rendering="optimizeSpeed" fill="#000000">git (51365)</text>
  <rect fill="blue" height="598.2" stroke="black" width="12" x="2160" y="420.9"/>
  <text x="2160" y="1024.0" font-family="Tahoma" font-size="12" transform="rotate(90 2160,1024.0)" text-rendering="optimizeSpeed" fill="#000000">scm-api (59817)</text>
  <rect fill="blue" height="643.4" stroke="black" width="12" x="2175" y="375.6"/>
  <text x="2175" y="1024.0" font-family="Tahoma" font-size="12" transform="rotate(90 2175,1024.0)" text-rendering="optimizeSpeed" fill="#000000">matrix-project (64339)</text>
  <rect fill="blue" height="711.9" stroke="black" width="12" x="2190" y="307.1"/>
  <text x="2190" y="1024.0" font-family="Tahoma" font-size="12" transform="rotate(90 2190,1024.0)" text-rendering="optimizeSpeed" fill="#000000">antisamy-markup-formatter (71193)</text>
  <rect fill="blue" height="741.6" stroke="black" width="12" x="2205" y="277.5"/>
  <text x="2205" y="1024.0" font-family="Tahoma" font-size="12" transform="rotate(90 2205,1024.0)" text-rendering="optimizeSpeed" fill="#000000">windows-slaves (74158)</text>
  <rect fill="blue" height="800.4" stroke="black" width="12" x="2220" y="218.7"/>
  <text x="2220" y="1024.0" font-family="Tahoma" font-size="12" transform="rotate(90 2220,1024.0)" text-rendering="optimizeSpeed" fill="#000000">matrix-auth (80037)</text>
  <rect fill="blue" height="910.8" stroke="black" width="12" x="2235" y="108.2"/>
  <text x="2235" y="1024.0" font-family="Tahoma" font-size="12" transform="rotate(90 2235,1024.0)" text-rendering="optimizeSpeed" fill="#000000">ssh-credentials (91083)</text>
  <rect fill="blue" height="914.1" stroke="black" width="12" x="2250" y="104.9"/>
  <text x="2250" y="1024.0" font-family="Tahoma" font-size="12" transform="rotate(90 2250,1024.0)" text-rendering="optimizeSpeed" fill="#000000">credentials (91411)</text>
  <rect fill="blue" height="917.9" stroke="black" width="12" x="2265" y="101.1"/>
  <text x="2265" y="1024.0" font-family="Tahoma" font-size="12" transform="rotate(90 2265,1024.0)" text-rendering="optimizeSpeed" fill="#000000">cvs (91790)</text>
  <rect fill="blue" height="927.3" stroke="black" width="12" x="2280" y="91.7"/>
  <text x="2280" y="1024.0" font-family="Tahoma" font-size="12" transform="rotate(90 2280,1024.0)" text-rendering="optimizeSpeed" fill="#000000">ldap (92733)</text>
  <rect fill="blue" height="929.2" stroke="black" width="12" x="2295" y="89.8"/>
  <text x="2295" y="1024.0" font-family="Tahoma" font-size="12" transform="rotate(90 2295,1024.0)" text-rendering="optimizeSpeed" fill="#000000">mailer (92922)</text>
  <rect fill="blue" height="934.6" stroke="black" width="12" x="2310" y="84.4"/>
  <text x="2310" y="1024.0" font-family="Tahoma" font-size="12" transform="rotate(90 2310,1024.0)" text-rendering="optimizeSpeed" fill="#000000">pam-auth (93461)</text>
  <rect fill="blue" height="942.2" stroke="black" width="12" x="2325" y="76.9"/>
  <text x="2325" y="1024.0" font-family="Tahoma" font-size="12" transform="rotate(90 2325,1024.0)" text-rendering="optimizeSpeed" fill="#000000">external-monitor-job (94218)</text>
  <rect fill="blue" height="945.3" stroke="black" width="12" x="2340" y="73.8"/>
  <text x="2340" y="1024.0" font-family="Tahoma" font-size="12" transform="rotate(90 2340,1024.0)" text-rendering="optimizeSpeed" fill="#000000">subversion (94528)</text>
  <rect fill="blue" height="945.5" stroke="black" width="12" x="2355" y="73.5"/>
  <text x="2355" y="1024.0" font-family="Tahoma" font-size="12" transform="rotate(90 2355,1024.0)" text-rendering="optimizeSpeed" fill="#000000">translation (94551)</text>
  <rect fill="blue" height="952.5" stroke="black" width="12" x="2370" y="66.5"/>
  <text x="2370" y="1024.0" font-family="Tahoma" font-size="12" transform="rotate(90 2370,1024.0)" text-rendering="optimizeSpeed" fill="#000000">ant (95250)</text>
  <rect fill="blue" height="959.9" stroke="black" width="12" x="2385" y="59.1"/>
  <text x="2385" y="1024.0" font-family="Tahoma" font-size="12" transform="rotate(90 2385,1024.0)" text-rendering="optimizeSpeed" fill="#000000">javadoc (95991)</text>
  <rect fill="blue" height="965.6" stroke="black" width="12" x="2400" y="53.4"/>
  <text x="2400" y="1024.0" font-family="Tahoma" font-size="12" transform="rotate(90 2400,1024.0)" text-rendering="optimizeSpeed" fill="#000000">maven-plugin (96562)</text>
  <rect fill="blue" height="969.0" stroke="black" width="12" x="2415" y="50.0"/>
  <text x="2415" y="1024.0" font-family="Tahoma" font-size="12" transform="rotate(90 2415,1024.0)" text-rendering="optimizeSpeed" fill="#000000">ssh-slaves (96904)</text>
  <text x="10" y="40" font-family="Tahoma" font-size="20" text-rendering="optimizeSpeed" fill="#000000">Plugin installations (installations &gt; 2500)</text>
</svg>
