<svg xmlns="http://www.w3.org/2000/svg" version="1.1" preserveAspectRatio="xMidYMid meet" viewBox="0 0 200 3528.4">
  <rect fill="blue" height="0.0" stroke="black" width="12" x="15" y="3228.4"/>
  <text x="15" y="3233.4" font-family="Tahoma" font-size="12" transform="rotate(90 15,3233.4)" text-rendering="optimizeSpeed" fill="#000000">org-jvnet-hudson-main-build-ADEProject (2)</text>
  <rect fill="blue" height="0.0" stroke="black" width="12" x="30" y="3228.4"/>
  <text x="30" y="3233.4" font-family="Tahoma" font-size="12" transform="rotate(90 30,3233.4)" text-rendering="optimizeSpeed" fill="#000000">hudson-plugins-job_dependency-projects-MasterProject (6)</text>
  <rect fill="blue" height="0.0" stroke="black" width="12" x="45" y="3228.4"/>
  <text x="45" y="3233.4" font-family="Tahoma" font-size="12" transform="rotate(90 45,3233.4)" text-rendering="optimizeSpeed" fill="#000000">hudson-aarworkflow-AARWorkflowProject (38)</text>
  <rect fill="blue" height="0.1" stroke="black" width="12" x="60" y="3228.3"/>
  <text x="60" y="3233.4" font-family="Tahoma" font-size="12" transform="rotate(90 60,3233.4)" text-rendering="optimizeSpeed" fill="#000000">hudson-workflow-WorkflowProject (144)</text>
  <rect fill="blue" height="5.2" stroke="black" width="12" x="75" y="3223.2"/>
  <text x="75" y="3233.4" font-family="Tahoma" font-size="12" transform="rotate(90 75,3233.4)" text-rendering="optimizeSpeed" fill="#000000">hudson-ivy-IvyModuleSet (5236)</text>
  <rect fill="blue" height="5.3" stroke="black" width="12" x="90" y="3223.1"/>
  <text x="90" y="3233.4" font-family="Tahoma" font-size="12" transform="rotate(90 90,3233.4)" text-rendering="optimizeSpeed" fill="#000000">hudson-plugins-project_inheritance-projects-InheritanceProject (5318)</text>
  <rect fill="blue" height="7.6" stroke="black" width="12" x="105" y="3220.9"/>
  <text x="105" y="3233.4" font-family="Tahoma" font-size="12" transform="rotate(90 105,3233.4)" text-rendering="optimizeSpeed" fill="#000000">hudson-model-ExternalJob (7562)</text>
  <rect fill="blue" height="109.3" stroke="black" width="12" x="120" y="3119.1"/>
  <text x="120" y="3233.4" font-family="Tahoma" font-size="12" transform="rotate(90 120,3233.4)" text-rendering="optimizeSpeed" fill="#000000">hudson-matrix-MatrixProject (109309)</text>
  <rect fill="blue" height="611.5" stroke="black" width="12" x="135" y="2617.0"/>
  <text x="135" y="3233.4" font-family="Tahoma" font-size="12" transform="rotate(90 135,3233.4)" text-rendering="optimizeSpeed" fill="#000000">hudson-maven-MavenModuleSet (611458)</text>
  <rect fill="blue" height="3178.4" stroke="black" width="12" x="150" y="50.0"/>
  <text x="150" y="3233.4" font-family="Tahoma" font-size="12" transform="rotate(90 150,3233.4)" text-rendering="optimizeSpeed" fill="#000000">hudson-model-FreeStyleProject (3178432)</text>
  <text x="10" y="40" font-family="Tahoma" font-size="20" text-rendering="optimizeSpeed" fill="#000000">Jobs (total: 3917505)</text>
</svg>
