<svg xmlns="http://www.w3.org/2000/svg" version="1.1" preserveAspectRatio="xMidYMid meet" viewBox="0 0 1040 9599.7">
  <rect fill="blue" height="0.1" stroke="black" width="12" x="15" y="9299.6"/>
  <text x="15" y="9304.7" font-family="Tahoma" font-size="12" transform="rotate(90 15,9304.7)" text-rendering="optimizeSpeed" fill="#000000">Darwin (universal) (1)</text>
  <rect fill="blue" height="0.1" stroke="black" width="12" x="30" y="9299.6"/>
  <text x="30" y="9304.7" font-family="Tahoma" font-size="12" transform="rotate(90 30,9304.7)" text-rendering="optimizeSpeed" fill="#000000">HeLiOS (amd64) (1)</text>
  <rect fill="blue" height="0.1" stroke="black" width="12" x="45" y="9299.6"/>
  <text x="45" y="9304.7" font-family="Tahoma" font-size="12" transform="rotate(90 45,9304.7)" text-rendering="optimizeSpeed" fill="#000000">Linux (mips) (1)</text>
  <rect fill="blue" height="0.1" stroke="black" width="12" x="60" y="9299.6"/>
  <text x="60" y="9304.7" font-family="Tahoma" font-size="12" transform="rotate(90 60,9304.7)" text-rendering="optimizeSpeed" fill="#000000">OS/400 (PowerPC) (1)</text>
  <rect fill="blue" height="0.1" stroke="black" width="12" x="75" y="9299.6"/>
  <text x="75" y="9304.7" font-family="Tahoma" font-size="12" transform="rotate(90 75,9304.7)" text-rendering="optimizeSpeed" fill="#000000">Windows Server 2008 R2 (ia64) (1)</text>
  <rect fill="blue" height="0.2" stroke="black" width="12" x="90" y="9299.5"/>
  <text x="90" y="9304.7" font-family="Tahoma" font-size="12" transform="rotate(90 90,9304.7)" text-rendering="optimizeSpeed" fill="#000000">Linux (aarch64) (2)</text>
  <rect fill="blue" height="0.2" stroke="black" width="12" x="105" y="9299.5"/>
  <text x="105" y="9304.7" font-family="Tahoma" font-size="12" transform="rotate(90 105,9304.7)" text-rendering="optimizeSpeed" fill="#000000">NONSTOP_KERNEL (IA64N) (2)</text>
  <rect fill="blue" height="0.2" stroke="black" width="12" x="120" y="9299.5"/>
  <text x="120" y="9304.7" font-family="Tahoma" font-size="12" transform="rotate(90 120,9304.7)" text-rendering="optimizeSpeed" fill="#000000">z/OS (s390x) (2)</text>
  <rect fill="blue" height="0.3" stroke="black" width="12" x="135" y="9299.4"/>
  <text x="135" y="9304.7" font-family="Tahoma" font-size="12" transform="rotate(90 135,9304.7)" text-rendering="optimizeSpeed" fill="#000000">Darwin (i386) (3)</text>
  <rect fill="blue" height="0.3" stroke="black" width="12" x="150" y="9299.4"/>
  <text x="150" y="9304.7" font-family="Tahoma" font-size="12" transform="rotate(90 150,9304.7)" text-rendering="optimizeSpeed" fill="#000000">HP-UX (ia64) (3)</text>
  <rect fill="blue" height="0.4" stroke="black" width="12" x="165" y="9299.3"/>
  <text x="165" y="9304.7" font-family="Tahoma" font-size="12" transform="rotate(90 165,9304.7)" text-rendering="optimizeSpeed" fill="#000000">Mac OS X (ppc) (4)</text>
  <rect fill="blue" height="0.4" stroke="black" width="12" x="180" y="9299.3"/>
  <text x="180" y="9304.7" font-family="Tahoma" font-size="12" transform="rotate(90 180,9304.7)" text-rendering="optimizeSpeed" fill="#000000">z/OS (s390) (4)</text>
  <rect fill="blue" height="0.5" stroke="black" width="12" x="195" y="9299.2"/>
  <text x="195" y="9304.7" font-family="Tahoma" font-size="12" transform="rotate(90 195,9304.7)" text-rendering="optimizeSpeed" fill="#000000">NetBSD (amd64) (5)</text>
  <rect fill="blue" height="0.5" stroke="black" width="12" x="210" y="9299.2"/>
  <text x="210" y="9304.7" font-family="Tahoma" font-size="12" transform="rotate(90 210,9304.7)" text-rendering="optimizeSpeed" fill="#000000">NetBSD (i386) (5)</text>
  <rect fill="blue" height="0.5" stroke="black" width="12" x="225" y="9299.2"/>
  <text x="225" y="9304.7" font-family="Tahoma" font-size="12" transform="rotate(90 225,9304.7)" text-rendering="optimizeSpeed" fill="#000000">OpenBSD (i386) (5)</text>
  <rect fill="blue" height="0.6" stroke="black" width="12" x="240" y="9299.1"/>
  <text x="240" y="9304.7" font-family="Tahoma" font-size="12" transform="rotate(90 240,9304.7)" text-rendering="optimizeSpeed" fill="#000000">Linux (ppc64le) (6)</text>
  <rect fill="blue" height="0.6" stroke="black" width="12" x="255" y="9299.1"/>
  <text x="255" y="9304.7" font-family="Tahoma" font-size="12" transform="rotate(90 255,9304.7)" text-rendering="optimizeSpeed" fill="#000000">Mac OS X (amd64) (6)</text>
  <rect fill="blue" height="0.8" stroke="black" width="12" x="270" y="9298.9"/>
  <text x="270" y="9304.7" font-family="Tahoma" font-size="12" transform="rotate(90 270,9304.7)" text-rendering="optimizeSpeed" fill="#000000">Linux (s390) (8)</text>
  <rect fill="blue" height="0.9" stroke="black" width="12" x="285" y="9298.8"/>
  <text x="285" y="9304.7" font-family="Tahoma" font-size="12" transform="rotate(90 285,9304.7)" text-rendering="optimizeSpeed" fill="#000000">Windows Server 2003 (amd64) (9)</text>
  <rect fill="blue" height="1.2" stroke="black" width="12" x="300" y="9298.5"/>
  <text x="300" y="9304.7" font-family="Tahoma" font-size="12" transform="rotate(90 300,9304.7)" text-rendering="optimizeSpeed" fill="#000000">HP-UX (IA64W) (12)</text>
  <rect fill="blue" height="1.5" stroke="black" width="12" x="315" y="9298.2"/>
  <text x="315" y="9304.7" font-family="Tahoma" font-size="12" transform="rotate(90 315,9304.7)" text-rendering="optimizeSpeed" fill="#000000">OpenBSD (amd64) (15)</text>
  <rect fill="blue" height="2.3" stroke="black" width="12" x="330" y="9297.4"/>
  <text x="330" y="9304.7" font-family="Tahoma" font-size="12" transform="rotate(90 330,9304.7)" text-rendering="optimizeSpeed" fill="#000000">Linux (ia64) (23)</text>
  <rect fill="blue" height="2.7" stroke="black" width="12" x="345" y="9297.0"/>
  <text x="345" y="9304.7" font-family="Tahoma" font-size="12" transform="rotate(90 345,9304.7)" text-rendering="optimizeSpeed" fill="#000000">Windows 2000 (x86) (27)</text>
  <rect fill="blue" height="2.8" stroke="black" width="12" x="360" y="9296.9"/>
  <text x="360" y="9304.7" font-family="Tahoma" font-size="12" transform="rotate(90 360,9304.7)" text-rendering="optimizeSpeed" fill="#000000">Windows Server 2003 (x86) (28)</text>
  <rect fill="blue" height="3.2" stroke="black" width="12" x="375" y="9296.5"/>
  <text x="375" y="9304.7" font-family="Tahoma" font-size="12" transform="rotate(90 375,9304.7)" text-rendering="optimizeSpeed" fill="#000000">Linux (ppc) (32)</text>
  <rect fill="blue" height="3.8" stroke="black" width="12" x="390" y="9295.9"/>
  <text x="390" y="9304.7" font-family="Tahoma" font-size="12" transform="rotate(90 390,9304.7)" text-rendering="optimizeSpeed" fill="#000000">Mac OS X (i386) (38)</text>
  <rect fill="blue" height="6.7" stroke="black" width="12" x="405" y="9293.0"/>
  <text x="405" y="9304.7" font-family="Tahoma" font-size="12" transform="rotate(90 405,9304.7)" text-rendering="optimizeSpeed" fill="#000000">HP-UX (PA_RISC2.0) (67)</text>
  <rect fill="blue" height="7.3" stroke="black" width="12" x="420" y="9292.4"/>
  <text x="420" y="9304.7" font-family="Tahoma" font-size="12" transform="rotate(90 420,9304.7)" text-rendering="optimizeSpeed" fill="#000000">Windows Server 2012 R2 (x86) (73)</text>
  <rect fill="blue" height="8.2" stroke="black" width="12" x="435" y="9291.5"/>
  <text x="435" y="9304.7" font-family="Tahoma" font-size="12" transform="rotate(90 435,9304.7)" text-rendering="optimizeSpeed" fill="#000000">Linux (s390x) (82)</text>
  <rect fill="blue" height="8.3" stroke="black" width="12" x="450" y="9291.4"/>
  <text x="450" y="9304.7" font-family="Tahoma" font-size="12" transform="rotate(90 450,9304.7)" text-rendering="optimizeSpeed" fill="#000000">Linux (ppc64) (83)</text>
  <rect fill="blue" height="9.8" stroke="black" width="12" x="465" y="9289.9"/>
  <text x="465" y="9304.7" font-family="Tahoma" font-size="12" transform="rotate(90 465,9304.7)" text-rendering="optimizeSpeed" fill="#000000">SunOS (sparcv9) (98)</text>
  <rect fill="blue" height="10.1" stroke="black" width="12" x="480" y="9289.6"/>
  <text x="480" y="9304.7" font-family="Tahoma" font-size="12" transform="rotate(90 480,9304.7)" text-rendering="optimizeSpeed" fill="#000000">SunOS (amd64) (101)</text>
  <rect fill="blue" height="10.5" stroke="black" width="12" x="495" y="9289.2"/>
  <text x="495" y="9304.7" font-family="Tahoma" font-size="12" transform="rotate(90 495,9304.7)" text-rendering="optimizeSpeed" fill="#000000">Windows XP (amd64) (105)</text>
  <rect fill="blue" height="12.3" stroke="black" width="12" x="510" y="9287.4"/>
  <text x="510" y="9304.7" font-family="Tahoma" font-size="12" transform="rotate(90 510,9304.7)" text-rendering="optimizeSpeed" fill="#000000">Windows 8.1 (amd64) (123)</text>
  <rect fill="blue" height="12.6" stroke="black" width="12" x="525" y="9287.1"/>
  <text x="525" y="9304.7" font-family="Tahoma" font-size="12" transform="rotate(90 525,9304.7)" text-rendering="optimizeSpeed" fill="#000000">Windows Server 2012 R2 (amd64) (126)</text>
  <rect fill="blue" height="12.8" stroke="black" width="12" x="540" y="9286.9"/>
  <text x="540" y="9304.7" font-family="Tahoma" font-size="12" transform="rotate(90 540,9304.7)" text-rendering="optimizeSpeed" fill="#000000">Windows 8.1 (x86) (128)</text>
  <rect fill="blue" height="12.8" stroke="black" width="12" x="555" y="9286.9"/>
  <text x="555" y="9304.7" font-family="Tahoma" font-size="12" transform="rotate(90 555,9304.7)" text-rendering="optimizeSpeed" fill="#000000">Windows Vista (amd64) (128)</text>
  <rect fill="blue" height="16.4" stroke="black" width="12" x="570" y="9283.3"/>
  <text x="570" y="9304.7" font-family="Tahoma" font-size="12" transform="rotate(90 570,9304.7)" text-rendering="optimizeSpeed" fill="#000000">FreeBSD (i386) (164)</text>
  <rect fill="blue" height="17.0" stroke="black" width="12" x="585" y="9282.7"/>
  <text x="585" y="9304.7" font-family="Tahoma" font-size="12" transform="rotate(90 585,9304.7)" text-rendering="optimizeSpeed" fill="#000000">Linux (arm) (170)</text>
  <rect fill="blue" height="19.1" stroke="black" width="12" x="600" y="9280.6"/>
  <text x="600" y="9304.7" font-family="Tahoma" font-size="12" transform="rotate(90 600,9304.7)" text-rendering="optimizeSpeed" fill="#000000">Linux (x86) (191)</text>
  <rect fill="blue" height="21.6" stroke="black" width="12" x="615" y="9278.1"/>
  <text x="615" y="9304.7" font-family="Tahoma" font-size="12" transform="rotate(90 615,9304.7)" text-rendering="optimizeSpeed" fill="#000000">HP-UX (IA64N) (216)</text>
  <rect fill="blue" height="24.1" stroke="black" width="12" x="630" y="9275.6"/>
  <text x="630" y="9304.7" font-family="Tahoma" font-size="12" transform="rotate(90 630,9304.7)" text-rendering="optimizeSpeed" fill="#000000">Windows NT (unknown) (amd64) (241)</text>
  <rect fill="blue" height="31.6" stroke="black" width="12" x="645" y="9268.1"/>
  <text x="645" y="9304.7" font-family="Tahoma" font-size="12" transform="rotate(90 645,9304.7)" text-rendering="optimizeSpeed" fill="#000000">Windows NT (unknown) (x86) (316)</text>
  <rect fill="blue" height="34.0" stroke="black" width="12" x="660" y="9265.7"/>
  <text x="660" y="9304.7" font-family="Tahoma" font-size="12" transform="rotate(90 660,9304.7)" text-rendering="optimizeSpeed" fill="#000000">FreeBSD (amd64) (340)</text>
  <rect fill="blue" height="37.0" stroke="black" width="12" x="675" y="9262.7"/>
  <text x="675" y="9304.7" font-family="Tahoma" font-size="12" transform="rotate(90 675,9304.7)" text-rendering="optimizeSpeed" fill="#000000">AIX (ppc) (370)</text>
  <rect fill="blue" height="48.2" stroke="black" width="12" x="690" y="9251.5"/>
  <text x="690" y="9304.7" font-family="Tahoma" font-size="12" transform="rotate(90 690,9304.7)" text-rendering="optimizeSpeed" fill="#000000">AIX (ppc64) (482)</text>
  <rect fill="blue" height="62.3" stroke="black" width="12" x="705" y="9237.4"/>
  <text x="705" y="9304.7" font-family="Tahoma" font-size="12" transform="rotate(90 705,9304.7)" text-rendering="optimizeSpeed" fill="#000000">Windows Vista (x86) (623)</text>
  <rect fill="blue" height="63.1" stroke="black" width="12" x="720" y="9236.6"/>
  <text x="720" y="9304.7" font-family="Tahoma" font-size="12" transform="rotate(90 720,9304.7)" text-rendering="optimizeSpeed" fill="#000000">Windows 2003 (amd64) (631)</text>
  <rect fill="blue" height="66.7" stroke="black" width="12" x="735" y="9233.0"/>
  <text x="735" y="9304.7" font-family="Tahoma" font-size="12" transform="rotate(90 735,9304.7)" text-rendering="optimizeSpeed" fill="#000000">Windows Server 2008 (amd64) (667)</text>
  <rect fill="blue" height="77.1" stroke="black" width="12" x="750" y="9222.6"/>
  <text x="750" y="9304.7" font-family="Tahoma" font-size="12" transform="rotate(90 750,9304.7)" text-rendering="optimizeSpeed" fill="#000000">Windows 8 (amd64) (771)</text>
  <rect fill="blue" height="100.2" stroke="black" width="12" x="765" y="9199.5"/>
  <text x="765" y="9304.7" font-family="Tahoma" font-size="12" transform="rotate(90 765,9304.7)" text-rendering="optimizeSpeed" fill="#000000">SunOS (x86) (1002)</text>
  <rect fill="blue" height="109.2" stroke="black" width="12" x="780" y="9190.5"/>
  <text x="780" y="9304.7" font-family="Tahoma" font-size="12" transform="rotate(90 780,9304.7)" text-rendering="optimizeSpeed" fill="#000000">Windows Server 2012 (amd64) (1092)</text>
  <rect fill="blue" height="112.4" stroke="black" width="12" x="795" y="9187.3"/>
  <text x="795" y="9304.7" font-family="Tahoma" font-size="12" transform="rotate(90 795,9304.7)" text-rendering="optimizeSpeed" fill="#000000">Windows 8 (x86) (1124)</text>
  <rect fill="blue" height="151.4" stroke="black" width="12" x="810" y="9148.3"/>
  <text x="810" y="9304.7" font-family="Tahoma" font-size="12" transform="rotate(90 810,9304.7)" text-rendering="optimizeSpeed" fill="#000000">Windows Server 2012 (x86) (1514)</text>
  <rect fill="blue" height="153.4" stroke="black" width="12" x="825" y="9146.3"/>
  <text x="825" y="9304.7" font-family="Tahoma" font-size="12" transform="rotate(90 825,9304.7)" text-rendering="optimizeSpeed" fill="#000000">SunOS (sparc) (1534)</text>
  <rect fill="blue" height="172.0" stroke="black" width="12" x="840" y="9127.7"/>
  <text x="840" y="9304.7" font-family="Tahoma" font-size="12" transform="rotate(90 840,9304.7)" text-rendering="optimizeSpeed" fill="#000000">Windows Server 2008 (x86) (1720)</text>
  <rect fill="blue" height="420.9" stroke="black" width="12" x="855" y="8878.8"/>
  <text x="855" y="9304.7" font-family="Tahoma" font-size="12" transform="rotate(90 855,9304.7)" text-rendering="optimizeSpeed" fill="#000000">Windows XP (x86) (4209)</text>
  <rect fill="blue" height="432.6" stroke="black" width="12" x="870" y="8867.1"/>
  <text x="870" y="9304.7" font-family="Tahoma" font-size="12" transform="rotate(90 870,9304.7)" text-rendering="optimizeSpeed" fill="#000000">Windows 2003 (x86) (4326)</text>
  <rect fill="blue" height="843.8" stroke="black" width="12" x="885" y="8455.9"/>
  <text x="885" y="9304.7" font-family="Tahoma" font-size="12" transform="rotate(90 885,9304.7)" text-rendering="optimizeSpeed" fill="#000000">Windows Server 2008 R2 (x86) (8438)</text>
  <rect fill="blue" height="893.9" stroke="black" width="12" x="900" y="8405.8"/>
  <text x="900" y="9304.7" font-family="Tahoma" font-size="12" transform="rotate(90 900,9304.7)" text-rendering="optimizeSpeed" fill="#000000">Windows 7 (amd64) (8939)</text>
  <rect fill="blue" height="919.0" stroke="black" width="12" x="915" y="8380.7"/>
  <text x="915" y="9304.7" font-family="Tahoma" font-size="12" transform="rotate(90 915,9304.7)" text-rendering="optimizeSpeed" fill="#000000">Windows Server 2008 R2 (amd64) (9190)</text>
  <rect fill="blue" height="1004.8" stroke="black" width="12" x="930" y="8294.9"/>
  <text x="930" y="9304.7" font-family="Tahoma" font-size="12" transform="rotate(90 930,9304.7)" text-rendering="optimizeSpeed" fill="#000000">Mac OS X (x86_64) (10048)</text>
  <rect fill="blue" height="1541.1" stroke="black" width="12" x="945" y="7758.6"/>
  <text x="945" y="9304.7" font-family="Tahoma" font-size="12" transform="rotate(90 945,9304.7)" text-rendering="optimizeSpeed" fill="#000000">Windows 7 (x86) (15411)</text>
  <rect fill="blue" height="1606.3" stroke="black" width="12" x="960" y="7693.4"/>
  <text x="960" y="9304.7" font-family="Tahoma" font-size="12" transform="rotate(90 960,9304.7)" text-rendering="optimizeSpeed" fill="#000000">Linux (i386) (16063)</text>
  <rect fill="blue" height="5534.8" stroke="black" width="12" x="975" y="3764.9"/>
  <text x="975" y="9304.7" font-family="Tahoma" font-size="12" transform="rotate(90 975,9304.7)" text-rendering="optimizeSpeed" fill="#000000">N/A (55348)</text>
  <rect fill="blue" height="9249.7" stroke="black" width="12" x="990" y="50.0"/>
  <text x="990" y="9304.7" font-family="Tahoma" font-size="12" transform="rotate(90 990,9304.7)" text-rendering="optimizeSpeed" fill="#000000">Linux (amd64) (92497)</text>
  <text x="10" y="40" font-family="Tahoma" font-size="20" text-rendering="optimizeSpeed" fill="#000000">Nodes (total: 238995)</text>
</svg>
