<svg xmlns="http://www.w3.org/2000/svg" version="1.1" preserveAspectRatio="xMidYMid meet" viewBox="0 0 3005 1091.6">
  <rect fill="blue" height="0.9" stroke="black" width="12" x="15" y="790.7"/>
  <text x="15" y="796.6" font-family="Tahoma" font-size="12" transform="rotate(90 15,796.6)" text-rendering="optimizeSpeed" fill="#000000">1.396 (9)</text>
  <rect fill="blue" height="0.8" stroke="black" width="12" x="30" y="790.8"/>
  <text x="30" y="796.6" font-family="Tahoma" font-size="12" transform="rotate(90 30,796.6)" text-rendering="optimizeSpeed" fill="#000000">1.397 (8)</text>
  <rect fill="blue" height="0.7" stroke="black" width="12" x="45" y="790.9"/>
  <text x="45" y="796.6" font-family="Tahoma" font-size="12" transform="rotate(90 45,796.6)" text-rendering="optimizeSpeed" fill="#000000">1.398 (7)</text>
  <rect fill="blue" height="1.2" stroke="black" width="12" x="60" y="790.4"/>
  <text x="60" y="796.6" font-family="Tahoma" font-size="12" transform="rotate(90 60,796.6)" text-rendering="optimizeSpeed" fill="#000000">1.399 (12)</text>
  <rect fill="blue" height="1.0" stroke="black" width="12" x="75" y="790.6"/>
  <text x="75" y="796.6" font-family="Tahoma" font-size="12" transform="rotate(90 75,796.6)" text-rendering="optimizeSpeed" fill="#000000">1.400 (10)</text>
  <rect fill="blue" height="2.3" stroke="black" width="12" x="90" y="789.3"/>
  <text x="90" y="796.6" font-family="Tahoma" font-size="12" transform="rotate(90 90,796.6)" text-rendering="optimizeSpeed" fill="#000000">1.401 (23)</text>
  <rect fill="blue" height="1.3" stroke="black" width="12" x="105" y="790.3"/>
  <text x="105" y="796.6" font-family="Tahoma" font-size="12" transform="rotate(90 105,796.6)" text-rendering="optimizeSpeed" fill="#000000">1.403 (13)</text>
  <rect fill="blue" height="1.9" stroke="black" width="12" x="120" y="789.7"/>
  <text x="120" y="796.6" font-family="Tahoma" font-size="12" transform="rotate(90 120,796.6)" text-rendering="optimizeSpeed" fill="#000000">1.404 (19)</text>
  <rect fill="blue" height="1.9" stroke="black" width="12" x="135" y="789.7"/>
  <text x="135" y="796.6" font-family="Tahoma" font-size="12" transform="rotate(90 135,796.6)" text-rendering="optimizeSpeed" fill="#000000">1.405 (19)</text>
  <rect fill="blue" height="0.6" stroke="black" width="12" x="150" y="791.0"/>
  <text x="150" y="796.6" font-family="Tahoma" font-size="12" transform="rotate(90 150,796.6)" text-rendering="optimizeSpeed" fill="#000000">1.406 (6)</text>
  <rect fill="blue" height="0.2" stroke="black" width="12" x="165" y="791.4"/>
  <text x="165" y="796.6" font-family="Tahoma" font-size="12" transform="rotate(90 165,796.6)" text-rendering="optimizeSpeed" fill="#000000">1.407 (2)</text>
  <rect fill="blue" height="1.5" stroke="black" width="12" x="180" y="790.1"/>
  <text x="180" y="796.6" font-family="Tahoma" font-size="12" transform="rotate(90 180,796.6)" text-rendering="optimizeSpeed" fill="#000000">1.408 (15)</text>
  <rect fill="blue" height="1.6" stroke="black" width="12" x="195" y="790.0"/>
  <text x="195" y="796.6" font-family="Tahoma" font-size="12" transform="rotate(90 195,796.6)" text-rendering="optimizeSpeed" fill="#000000">1.409 (16)</text>
  <rect fill="blue" height="4.5" stroke="black" width="12" x="210" y="787.1"/>
  <text x="210" y="796.6" font-family="Tahoma" font-size="12" transform="rotate(90 210,796.6)" text-rendering="optimizeSpeed" fill="#000000">1.409.1 (45)</text>
  <rect fill="blue" height="2.6" stroke="black" width="12" x="225" y="789.0"/>
  <text x="225" y="796.6" font-family="Tahoma" font-size="12" transform="rotate(90 225,796.6)" text-rendering="optimizeSpeed" fill="#000000">1.409.2 (26)</text>
  <rect fill="blue" height="0.8" stroke="black" width="12" x="240" y="790.8"/>
  <text x="240" y="796.6" font-family="Tahoma" font-size="12" transform="rotate(90 240,796.6)" text-rendering="optimizeSpeed" fill="#000000">1.409.3 (8)</text>
  <rect fill="blue" height="5.1" stroke="black" width="12" x="255" y="786.5"/>
  <text x="255" y="796.6" font-family="Tahoma" font-size="12" transform="rotate(90 255,796.6)" text-rendering="optimizeSpeed" fill="#000000">1.410 (51)</text>
  <rect fill="blue" height="2.1" stroke="black" width="12" x="270" y="789.5"/>
  <text x="270" y="796.6" font-family="Tahoma" font-size="12" transform="rotate(90 270,796.6)" text-rendering="optimizeSpeed" fill="#000000">1.411 (21)</text>
  <rect fill="blue" height="1.5" stroke="black" width="12" x="285" y="790.1"/>
  <text x="285" y="796.6" font-family="Tahoma" font-size="12" transform="rotate(90 285,796.6)" text-rendering="optimizeSpeed" fill="#000000">1.412 (15)</text>
  <rect fill="blue" height="4.3" stroke="black" width="12" x="300" y="787.3"/>
  <text x="300" y="796.6" font-family="Tahoma" font-size="12" transform="rotate(90 300,796.6)" text-rendering="optimizeSpeed" fill="#000000">1.413 (43)</text>
  <rect fill="blue" height="2.4" stroke="black" width="12" x="315" y="789.2"/>
  <text x="315" y="796.6" font-family="Tahoma" font-size="12" transform="rotate(90 315,796.6)" text-rendering="optimizeSpeed" fill="#000000">1.414 (24)</text>
  <rect fill="blue" height="2.8" stroke="black" width="12" x="330" y="788.8"/>
  <text x="330" y="796.6" font-family="Tahoma" font-size="12" transform="rotate(90 330,796.6)" text-rendering="optimizeSpeed" fill="#000000">1.415 (28)</text>
  <rect fill="blue" height="0.6" stroke="black" width="12" x="345" y="791.0"/>
  <text x="345" y="796.6" font-family="Tahoma" font-size="12" transform="rotate(90 345,796.6)" text-rendering="optimizeSpeed" fill="#000000">1.416 (6)</text>
  <rect fill="blue" height="1.3" stroke="black" width="12" x="360" y="790.3"/>
  <text x="360" y="796.6" font-family="Tahoma" font-size="12" transform="rotate(90 360,796.6)" text-rendering="optimizeSpeed" fill="#000000">1.417 (13)</text>
  <rect fill="blue" height="2.3" stroke="black" width="12" x="375" y="789.3"/>
  <text x="375" y="796.6" font-family="Tahoma" font-size="12" transform="rotate(90 375,796.6)" text-rendering="optimizeSpeed" fill="#000000">1.418 (23)</text>
  <rect fill="blue" height="2.2" stroke="black" width="12" x="390" y="789.4"/>
  <text x="390" y="796.6" font-family="Tahoma" font-size="12" transform="rotate(90 390,796.6)" text-rendering="optimizeSpeed" fill="#000000">1.419 (22)</text>
  <rect fill="blue" height="2.8" stroke="black" width="12" x="405" y="788.8"/>
  <text x="405" y="796.6" font-family="Tahoma" font-size="12" transform="rotate(90 405,796.6)" text-rendering="optimizeSpeed" fill="#000000">1.420 (28)</text>
  <rect fill="blue" height="3.3" stroke="black" width="12" x="420" y="788.3"/>
  <text x="420" y="796.6" font-family="Tahoma" font-size="12" transform="rotate(90 420,796.6)" text-rendering="optimizeSpeed" fill="#000000">1.421 (33)</text>
  <rect fill="blue" height="3.1" stroke="black" width="12" x="435" y="788.5"/>
  <text x="435" y="796.6" font-family="Tahoma" font-size="12" transform="rotate(90 435,796.6)" text-rendering="optimizeSpeed" fill="#000000">1.423 (31)</text>
  <rect fill="blue" height="4.4" stroke="black" width="12" x="450" y="787.2"/>
  <text x="450" y="796.6" font-family="Tahoma" font-size="12" transform="rotate(90 450,796.6)" text-rendering="optimizeSpeed" fill="#000000">1.424 (44)</text>
  <rect fill="blue" height="3.5" stroke="black" width="12" x="465" y="788.1"/>
  <text x="465" y="796.6" font-family="Tahoma" font-size="12" transform="rotate(90 465,796.6)" text-rendering="optimizeSpeed" fill="#000000">1.424.1 (35)</text>
  <rect fill="blue" height="2.4" stroke="black" width="12" x="480" y="789.2"/>
  <text x="480" y="796.6" font-family="Tahoma" font-size="12" transform="rotate(90 480,796.6)" text-rendering="optimizeSpeed" fill="#000000">1.424.2 (24)</text>
  <rect fill="blue" height="0.3" stroke="black" width="12" x="495" y="791.3"/>
  <text x="495" y="796.6" font-family="Tahoma" font-size="12" transform="rotate(90 495,796.6)" text-rendering="optimizeSpeed" fill="#000000">1.424.3 (3)</text>
  <rect fill="blue" height="46.3" stroke="black" width="12" x="510" y="745.3"/>
  <text x="510" y="796.6" font-family="Tahoma" font-size="12" transform="rotate(90 510,796.6)" text-rendering="optimizeSpeed" fill="#000000">1.424.6 (463)</text>
  <rect fill="blue" height="0.1" stroke="black" width="12" x="525" y="791.5"/>
  <text x="525" y="796.6" font-family="Tahoma" font-size="12" transform="rotate(90 525,796.6)" text-rendering="optimizeSpeed" fill="#000000">1.424.6.10 (1)</text>
  <rect fill="blue" height="4.7" stroke="black" width="12" x="540" y="786.9"/>
  <text x="540" y="796.6" font-family="Tahoma" font-size="12" transform="rotate(90 540,796.6)" text-rendering="optimizeSpeed" fill="#000000">1.425 (47)</text>
  <rect fill="blue" height="1.9" stroke="black" width="12" x="555" y="789.7"/>
  <text x="555" y="796.6" font-family="Tahoma" font-size="12" transform="rotate(90 555,796.6)" text-rendering="optimizeSpeed" fill="#000000">1.426 (19)</text>
  <rect fill="blue" height="4.4" stroke="black" width="12" x="570" y="787.2"/>
  <text x="570" y="796.6" font-family="Tahoma" font-size="12" transform="rotate(90 570,796.6)" text-rendering="optimizeSpeed" fill="#000000">1.427 (44)</text>
  <rect fill="blue" height="3.5" stroke="black" width="12" x="585" y="788.1"/>
  <text x="585" y="796.6" font-family="Tahoma" font-size="12" transform="rotate(90 585,796.6)" text-rendering="optimizeSpeed" fill="#000000">1.428 (35)</text>
  <rect fill="blue" height="2.6" stroke="black" width="12" x="600" y="789.0"/>
  <text x="600" y="796.6" font-family="Tahoma" font-size="12" transform="rotate(90 600,796.6)" text-rendering="optimizeSpeed" fill="#000000">1.429 (26)</text>
  <rect fill="blue" height="6.4" stroke="black" width="12" x="615" y="785.2"/>
  <text x="615" y="796.6" font-family="Tahoma" font-size="12" transform="rotate(90 615,796.6)" text-rendering="optimizeSpeed" fill="#000000">1.430 (64)</text>
  <rect fill="blue" height="5.5" stroke="black" width="12" x="630" y="786.1"/>
  <text x="630" y="796.6" font-family="Tahoma" font-size="12" transform="rotate(90 630,796.6)" text-rendering="optimizeSpeed" fill="#000000">1.431 (55)</text>
  <rect fill="blue" height="6.4" stroke="black" width="12" x="645" y="785.2"/>
  <text x="645" y="796.6" font-family="Tahoma" font-size="12" transform="rotate(90 645,796.6)" text-rendering="optimizeSpeed" fill="#000000">1.432 (64)</text>
  <rect fill="blue" height="3.8" stroke="black" width="12" x="660" y="787.8"/>
  <text x="660" y="796.6" font-family="Tahoma" font-size="12" transform="rotate(90 660,796.6)" text-rendering="optimizeSpeed" fill="#000000">1.433 (38)</text>
  <rect fill="blue" height="5.2" stroke="black" width="12" x="675" y="786.4"/>
  <text x="675" y="796.6" font-family="Tahoma" font-size="12" transform="rotate(90 675,796.6)" text-rendering="optimizeSpeed" fill="#000000">1.434 (52)</text>
  <rect fill="blue" height="3.0" stroke="black" width="12" x="690" y="788.6"/>
  <text x="690" y="796.6" font-family="Tahoma" font-size="12" transform="rotate(90 690,796.6)" text-rendering="optimizeSpeed" fill="#000000">1.435 (30)</text>
  <rect fill="blue" height="6.7" stroke="black" width="12" x="705" y="784.9"/>
  <text x="705" y="796.6" font-family="Tahoma" font-size="12" transform="rotate(90 705,796.6)" text-rendering="optimizeSpeed" fill="#000000">1.436 (67)</text>
  <rect fill="blue" height="4.7" stroke="black" width="12" x="720" y="786.9"/>
  <text x="720" y="796.6" font-family="Tahoma" font-size="12" transform="rotate(90 720,796.6)" text-rendering="optimizeSpeed" fill="#000000">1.437 (47)</text>
  <rect fill="blue" height="5.6" stroke="black" width="12" x="735" y="786.0"/>
  <text x="735" y="796.6" font-family="Tahoma" font-size="12" transform="rotate(90 735,796.6)" text-rendering="optimizeSpeed" fill="#000000">1.438 (56)</text>
  <rect fill="blue" height="3.8" stroke="black" width="12" x="750" y="787.8"/>
  <text x="750" y="796.6" font-family="Tahoma" font-size="12" transform="rotate(90 750,796.6)" text-rendering="optimizeSpeed" fill="#000000">1.439 (38)</text>
  <rect fill="blue" height="6.0" stroke="black" width="12" x="765" y="785.6"/>
  <text x="765" y="796.6" font-family="Tahoma" font-size="12" transform="rotate(90 765,796.6)" text-rendering="optimizeSpeed" fill="#000000">1.440 (60)</text>
  <rect fill="blue" height="10.5" stroke="black" width="12" x="780" y="781.1"/>
  <text x="780" y="796.6" font-family="Tahoma" font-size="12" transform="rotate(90 780,796.6)" text-rendering="optimizeSpeed" fill="#000000">1.441 (105)</text>
  <rect fill="blue" height="5.9" stroke="black" width="12" x="795" y="785.7"/>
  <text x="795" y="796.6" font-family="Tahoma" font-size="12" transform="rotate(90 795,796.6)" text-rendering="optimizeSpeed" fill="#000000">1.442 (59)</text>
  <rect fill="blue" height="6.5" stroke="black" width="12" x="810" y="785.1"/>
  <text x="810" y="796.6" font-family="Tahoma" font-size="12" transform="rotate(90 810,796.6)" text-rendering="optimizeSpeed" fill="#000000">1.443 (65)</text>
  <rect fill="blue" height="5.4" stroke="black" width="12" x="825" y="786.2"/>
  <text x="825" y="796.6" font-family="Tahoma" font-size="12" transform="rotate(90 825,796.6)" text-rendering="optimizeSpeed" fill="#000000">1.444 (54)</text>
  <rect fill="blue" height="3.6" stroke="black" width="12" x="840" y="788.0"/>
  <text x="840" y="796.6" font-family="Tahoma" font-size="12" transform="rotate(90 840,796.6)" text-rendering="optimizeSpeed" fill="#000000">1.445 (36)</text>
  <rect fill="blue" height="5.1" stroke="black" width="12" x="855" y="786.5"/>
  <text x="855" y="796.6" font-family="Tahoma" font-size="12" transform="rotate(90 855,796.6)" text-rendering="optimizeSpeed" fill="#000000">1.446 (51)</text>
  <rect fill="blue" height="9.6" stroke="black" width="12" x="870" y="782.0"/>
  <text x="870" y="796.6" font-family="Tahoma" font-size="12" transform="rotate(90 870,796.6)" text-rendering="optimizeSpeed" fill="#000000">1.447 (96)</text>
  <rect fill="blue" height="6.7" stroke="black" width="12" x="885" y="784.9"/>
  <text x="885" y="796.6" font-family="Tahoma" font-size="12" transform="rotate(90 885,796.6)" text-rendering="optimizeSpeed" fill="#000000">1.447.1 (67)</text>
  <rect fill="blue" height="0.1" stroke="black" width="12" x="900" y="791.5"/>
  <text x="900" y="796.6" font-family="Tahoma" font-size="12" transform="rotate(90 900,796.6)" text-rendering="optimizeSpeed" fill="#000000">1.447.2-somc-1 (1)</text>
  <rect fill="blue" height="7.8" stroke="black" width="12" x="915" y="783.8"/>
  <text x="915" y="796.6" font-family="Tahoma" font-size="12" transform="rotate(90 915,796.6)" text-rendering="optimizeSpeed" fill="#000000">1.447.2 (78)</text>
  <rect fill="blue" height="4.2" stroke="black" width="12" x="930" y="787.4"/>
  <text x="930" y="796.6" font-family="Tahoma" font-size="12" transform="rotate(90 930,796.6)" text-rendering="optimizeSpeed" fill="#000000">1.448 (42)</text>
  <rect fill="blue" height="6.7" stroke="black" width="12" x="945" y="784.9"/>
  <text x="945" y="796.6" font-family="Tahoma" font-size="12" transform="rotate(90 945,796.6)" text-rendering="optimizeSpeed" fill="#000000">1.449 (67)</text>
  <rect fill="blue" height="16.5" stroke="black" width="12" x="960" y="775.1"/>
  <text x="960" y="796.6" font-family="Tahoma" font-size="12" transform="rotate(90 960,796.6)" text-rendering="optimizeSpeed" fill="#000000">1.450 (165)</text>
  <rect fill="blue" height="14.1" stroke="black" width="12" x="975" y="777.5"/>
  <text x="975" y="796.6" font-family="Tahoma" font-size="12" transform="rotate(90 975,796.6)" text-rendering="optimizeSpeed" fill="#000000">1.451 (141)</text>
  <rect fill="blue" height="7.8" stroke="black" width="12" x="990" y="783.8"/>
  <text x="990" y="796.6" font-family="Tahoma" font-size="12" transform="rotate(90 990,796.6)" text-rendering="optimizeSpeed" fill="#000000">1.452 (78)</text>
  <rect fill="blue" height="0.3" stroke="black" width="12" x="1005" y="791.3"/>
  <text x="1005" y="796.6" font-family="Tahoma" font-size="12" transform="rotate(90 1005,796.6)" text-rendering="optimizeSpeed" fill="#000000">1.453 (3)</text>
  <rect fill="blue" height="8.9" stroke="black" width="12" x="1020" y="782.7"/>
  <text x="1020" y="796.6" font-family="Tahoma" font-size="12" transform="rotate(90 1020,796.6)" text-rendering="optimizeSpeed" fill="#000000">1.454 (89)</text>
  <rect fill="blue" height="14.5" stroke="black" width="12" x="1035" y="777.1"/>
  <text x="1035" y="796.6" font-family="Tahoma" font-size="12" transform="rotate(90 1035,796.6)" text-rendering="optimizeSpeed" fill="#000000">1.455 (145)</text>
  <rect fill="blue" height="23.6" stroke="black" width="12" x="1050" y="768.0"/>
  <text x="1050" y="796.6" font-family="Tahoma" font-size="12" transform="rotate(90 1050,796.6)" text-rendering="optimizeSpeed" fill="#000000">1.456 (236)</text>
  <rect fill="blue" height="11.3" stroke="black" width="12" x="1065" y="780.3"/>
  <text x="1065" y="796.6" font-family="Tahoma" font-size="12" transform="rotate(90 1065,796.6)" text-rendering="optimizeSpeed" fill="#000000">1.457 (113)</text>
  <rect fill="blue" height="17.7" stroke="black" width="12" x="1080" y="773.9"/>
  <text x="1080" y="796.6" font-family="Tahoma" font-size="12" transform="rotate(90 1080,796.6)" text-rendering="optimizeSpeed" fill="#000000">1.458 (177)</text>
  <rect fill="blue" height="8.0" stroke="black" width="12" x="1095" y="783.6"/>
  <text x="1095" y="796.6" font-family="Tahoma" font-size="12" transform="rotate(90 1095,796.6)" text-rendering="optimizeSpeed" fill="#000000">1.459 (80)</text>
  <rect fill="blue" height="0.1" stroke="black" width="12" x="1110" y="791.5"/>
  <text x="1110" y="796.6" font-family="Tahoma" font-size="12" transform="rotate(90 1110,796.6)" text-rendering="optimizeSpeed" fill="#000000">1.460-fusion-01 (1)</text>
  <rect fill="blue" height="16.9" stroke="black" width="12" x="1125" y="774.7"/>
  <text x="1125" y="796.6" font-family="Tahoma" font-size="12" transform="rotate(90 1125,796.6)" text-rendering="optimizeSpeed" fill="#000000">1.460 (169)</text>
  <rect fill="blue" height="12.3" stroke="black" width="12" x="1140" y="779.3"/>
  <text x="1140" y="796.6" font-family="Tahoma" font-size="12" transform="rotate(90 1140,796.6)" text-rendering="optimizeSpeed" fill="#000000">1.461 (123)</text>
  <rect fill="blue" height="10.0" stroke="black" width="12" x="1155" y="781.6"/>
  <text x="1155" y="796.6" font-family="Tahoma" font-size="12" transform="rotate(90 1155,796.6)" text-rendering="optimizeSpeed" fill="#000000">1.462 (100)</text>
  <rect fill="blue" height="10.9" stroke="black" width="12" x="1170" y="780.7"/>
  <text x="1170" y="796.6" font-family="Tahoma" font-size="12" transform="rotate(90 1170,796.6)" text-rendering="optimizeSpeed" fill="#000000">1.463 (109)</text>
  <rect fill="blue" height="14.1" stroke="black" width="12" x="1185" y="777.5"/>
  <text x="1185" y="796.6" font-family="Tahoma" font-size="12" transform="rotate(90 1185,796.6)" text-rendering="optimizeSpeed" fill="#000000">1.464 (141)</text>
  <rect fill="blue" height="0.7" stroke="black" width="12" x="1200" y="790.9"/>
  <text x="1200" y="796.6" font-family="Tahoma" font-size="12" transform="rotate(90 1200,796.6)" text-rendering="optimizeSpeed" fill="#000000">1.464.2ms (7)</text>
  <rect fill="blue" height="12.1" stroke="black" width="12" x="1215" y="779.5"/>
  <text x="1215" y="796.6" font-family="Tahoma" font-size="12" transform="rotate(90 1215,796.6)" text-rendering="optimizeSpeed" fill="#000000">1.465 (121)</text>
  <rect fill="blue" height="15.7" stroke="black" width="12" x="1230" y="775.9"/>
  <text x="1230" y="796.6" font-family="Tahoma" font-size="12" transform="rotate(90 1230,796.6)" text-rendering="optimizeSpeed" fill="#000000">1.466 (157)</text>
  <rect fill="blue" height="10.2" stroke="black" width="12" x="1245" y="781.4"/>
  <text x="1245" y="796.6" font-family="Tahoma" font-size="12" transform="rotate(90 1245,796.6)" text-rendering="optimizeSpeed" fill="#000000">1.466.1 (102)</text>
  <rect fill="blue" height="35.1" stroke="black" width="12" x="1260" y="756.5"/>
  <text x="1260" y="796.6" font-family="Tahoma" font-size="12" transform="rotate(90 1260,796.6)" text-rendering="optimizeSpeed" fill="#000000">1.466.2 (351)</text>
  <rect fill="blue" height="12.6" stroke="black" width="12" x="1275" y="779.0"/>
  <text x="1275" y="796.6" font-family="Tahoma" font-size="12" transform="rotate(90 1275,796.6)" text-rendering="optimizeSpeed" fill="#000000">1.467 (126)</text>
  <rect fill="blue" height="0.8" stroke="black" width="12" x="1290" y="790.8"/>
  <text x="1290" y="796.6" font-family="Tahoma" font-size="12" transform="rotate(90 1290,796.6)" text-rendering="optimizeSpeed" fill="#000000">1.468 (8)</text>
  <rect fill="blue" height="3.4" stroke="black" width="12" x="1305" y="788.2"/>
  <text x="1305" y="796.6" font-family="Tahoma" font-size="12" transform="rotate(90 1305,796.6)" text-rendering="optimizeSpeed" fill="#000000">1.469 (34)</text>
  <rect fill="blue" height="9.4" stroke="black" width="12" x="1320" y="782.2"/>
  <text x="1320" y="796.6" font-family="Tahoma" font-size="12" transform="rotate(90 1320,796.6)" text-rendering="optimizeSpeed" fill="#000000">1.470 (94)</text>
  <rect fill="blue" height="12.3" stroke="black" width="12" x="1335" y="779.3"/>
  <text x="1335" y="796.6" font-family="Tahoma" font-size="12" transform="rotate(90 1335,796.6)" text-rendering="optimizeSpeed" fill="#000000">1.471 (123)</text>
  <rect fill="blue" height="18.1" stroke="black" width="12" x="1350" y="773.5"/>
  <text x="1350" y="796.6" font-family="Tahoma" font-size="12" transform="rotate(90 1350,796.6)" text-rendering="optimizeSpeed" fill="#000000">1.472 (181)</text>
  <rect fill="blue" height="16.9" stroke="black" width="12" x="1365" y="774.7"/>
  <text x="1365" y="796.6" font-family="Tahoma" font-size="12" transform="rotate(90 1365,796.6)" text-rendering="optimizeSpeed" fill="#000000">1.473 (169)</text>
  <rect fill="blue" height="22.7" stroke="black" width="12" x="1380" y="768.9"/>
  <text x="1380" y="796.6" font-family="Tahoma" font-size="12" transform="rotate(90 1380,796.6)" text-rendering="optimizeSpeed" fill="#000000">1.474 (227)</text>
  <rect fill="blue" height="26.0" stroke="black" width="12" x="1395" y="765.6"/>
  <text x="1395" y="796.6" font-family="Tahoma" font-size="12" transform="rotate(90 1395,796.6)" text-rendering="optimizeSpeed" fill="#000000">1.475 (260)</text>
  <rect fill="blue" height="11.0" stroke="black" width="12" x="1410" y="780.6"/>
  <text x="1410" y="796.6" font-family="Tahoma" font-size="12" transform="rotate(90 1410,796.6)" text-rendering="optimizeSpeed" fill="#000000">1.476 (110)</text>
  <rect fill="blue" height="21.2" stroke="black" width="12" x="1425" y="770.4"/>
  <text x="1425" y="796.6" font-family="Tahoma" font-size="12" transform="rotate(90 1425,796.6)" text-rendering="optimizeSpeed" fill="#000000">1.477 (212)</text>
  <rect fill="blue" height="21.4" stroke="black" width="12" x="1440" y="770.2"/>
  <text x="1440" y="796.6" font-family="Tahoma" font-size="12" transform="rotate(90 1440,796.6)" text-rendering="optimizeSpeed" fill="#000000">1.478 (214)</text>
  <rect fill="blue" height="6.2" stroke="black" width="12" x="1455" y="785.4"/>
  <text x="1455" y="796.6" font-family="Tahoma" font-size="12" transform="rotate(90 1455,796.6)" text-rendering="optimizeSpeed" fill="#000000">1.479 (62)</text>
  <rect fill="blue" height="22.5" stroke="black" width="12" x="1470" y="769.1"/>
  <text x="1470" y="796.6" font-family="Tahoma" font-size="12" transform="rotate(90 1470,796.6)" text-rendering="optimizeSpeed" fill="#000000">1.480 (225)</text>
  <rect fill="blue" height="15.6" stroke="black" width="12" x="1485" y="776.0"/>
  <text x="1485" y="796.6" font-family="Tahoma" font-size="12" transform="rotate(90 1485,796.6)" text-rendering="optimizeSpeed" fill="#000000">1.480.1 (156)</text>
  <rect fill="blue" height="12.1" stroke="black" width="12" x="1500" y="779.5"/>
  <text x="1500" y="796.6" font-family="Tahoma" font-size="12" transform="rotate(90 1500,796.6)" text-rendering="optimizeSpeed" fill="#000000">1.480.2 (121)</text>
  <rect fill="blue" height="0.3" stroke="black" width="12" x="1515" y="791.3"/>
  <text x="1515" y="796.6" font-family="Tahoma" font-size="12" transform="rotate(90 1515,796.6)" text-rendering="optimizeSpeed" fill="#000000">1.480.3-somc-1 (3)</text>
  <rect fill="blue" height="45.5" stroke="black" width="12" x="1530" y="746.1"/>
  <text x="1530" y="796.6" font-family="Tahoma" font-size="12" transform="rotate(90 1530,796.6)" text-rendering="optimizeSpeed" fill="#000000">1.480.3 (455)</text>
  <rect fill="blue" height="14.0" stroke="black" width="12" x="1545" y="777.6"/>
  <text x="1545" y="796.6" font-family="Tahoma" font-size="12" transform="rotate(90 1545,796.6)" text-rendering="optimizeSpeed" fill="#000000">1.481 (140)</text>
  <rect fill="blue" height="16.8" stroke="black" width="12" x="1560" y="774.8"/>
  <text x="1560" y="796.6" font-family="Tahoma" font-size="12" transform="rotate(90 1560,796.6)" text-rendering="optimizeSpeed" fill="#000000">1.482 (168)</text>
  <rect fill="blue" height="19.2" stroke="black" width="12" x="1575" y="772.4"/>
  <text x="1575" y="796.6" font-family="Tahoma" font-size="12" transform="rotate(90 1575,796.6)" text-rendering="optimizeSpeed" fill="#000000">1.483 (192)</text>
  <rect fill="blue" height="16.8" stroke="black" width="12" x="1590" y="774.8"/>
  <text x="1590" y="796.6" font-family="Tahoma" font-size="12" transform="rotate(90 1590,796.6)" text-rendering="optimizeSpeed" fill="#000000">1.484 (168)</text>
  <rect fill="blue" height="8.8" stroke="black" width="12" x="1605" y="782.8"/>
  <text x="1605" y="796.6" font-family="Tahoma" font-size="12" transform="rotate(90 1605,796.6)" text-rendering="optimizeSpeed" fill="#000000">1.485 (88)</text>
  <rect fill="blue" height="25.5" stroke="black" width="12" x="1620" y="766.1"/>
  <text x="1620" y="796.6" font-family="Tahoma" font-size="12" transform="rotate(90 1620,796.6)" text-rendering="optimizeSpeed" fill="#000000">1.486 (255)</text>
  <rect fill="blue" height="12.7" stroke="black" width="12" x="1635" y="778.9"/>
  <text x="1635" y="796.6" font-family="Tahoma" font-size="12" transform="rotate(90 1635,796.6)" text-rendering="optimizeSpeed" fill="#000000">1.487 (127)</text>
  <rect fill="blue" height="16.3" stroke="black" width="12" x="1650" y="775.3"/>
  <text x="1650" y="796.6" font-family="Tahoma" font-size="12" transform="rotate(90 1650,796.6)" text-rendering="optimizeSpeed" fill="#000000">1.488 (163)</text>
  <rect fill="blue" height="22.1" stroke="black" width="12" x="1665" y="769.5"/>
  <text x="1665" y="796.6" font-family="Tahoma" font-size="12" transform="rotate(90 1665,796.6)" text-rendering="optimizeSpeed" fill="#000000">1.489 (221)</text>
  <rect fill="blue" height="14.2" stroke="black" width="12" x="1680" y="777.4"/>
  <text x="1680" y="796.6" font-family="Tahoma" font-size="12" transform="rotate(90 1680,796.6)" text-rendering="optimizeSpeed" fill="#000000">1.490 (142)</text>
  <rect fill="blue" height="21.8" stroke="black" width="12" x="1695" y="769.8"/>
  <text x="1695" y="796.6" font-family="Tahoma" font-size="12" transform="rotate(90 1695,796.6)" text-rendering="optimizeSpeed" fill="#000000">1.491 (218)</text>
  <rect fill="blue" height="36.6" stroke="black" width="12" x="1710" y="755.0"/>
  <text x="1710" y="796.6" font-family="Tahoma" font-size="12" transform="rotate(90 1710,796.6)" text-rendering="optimizeSpeed" fill="#000000">1.492 (366)</text>
  <rect fill="blue" height="19.5" stroke="black" width="12" x="1725" y="772.1"/>
  <text x="1725" y="796.6" font-family="Tahoma" font-size="12" transform="rotate(90 1725,796.6)" text-rendering="optimizeSpeed" fill="#000000">1.493 (195)</text>
  <rect fill="blue" height="21.1" stroke="black" width="12" x="1740" y="770.5"/>
  <text x="1740" y="796.6" font-family="Tahoma" font-size="12" transform="rotate(90 1740,796.6)" text-rendering="optimizeSpeed" fill="#000000">1.494 (211)</text>
  <rect fill="blue" height="9.1" stroke="black" width="12" x="1755" y="782.5"/>
  <text x="1755" y="796.6" font-family="Tahoma" font-size="12" transform="rotate(90 1755,796.6)" text-rendering="optimizeSpeed" fill="#000000">1.495 (91)</text>
  <rect fill="blue" height="13.8" stroke="black" width="12" x="1770" y="777.8"/>
  <text x="1770" y="796.6" font-family="Tahoma" font-size="12" transform="rotate(90 1770,796.6)" text-rendering="optimizeSpeed" fill="#000000">1.496 (138)</text>
  <rect fill="blue" height="4.8" stroke="black" width="12" x="1785" y="786.8"/>
  <text x="1785" y="796.6" font-family="Tahoma" font-size="12" transform="rotate(90 1785,796.6)" text-rendering="optimizeSpeed" fill="#000000">1.497 (48)</text>
  <rect fill="blue" height="20.6" stroke="black" width="12" x="1800" y="771.0"/>
  <text x="1800" y="796.6" font-family="Tahoma" font-size="12" transform="rotate(90 1800,796.6)" text-rendering="optimizeSpeed" fill="#000000">1.498 (206)</text>
  <rect fill="blue" height="0.3" stroke="black" width="12" x="1815" y="791.3"/>
  <text x="1815" y="796.6" font-family="Tahoma" font-size="12" transform="rotate(90 1815,796.6)" text-rendering="optimizeSpeed" fill="#000000">1.498.8 (3)</text>
  <rect fill="blue" height="44.2" stroke="black" width="12" x="1830" y="747.4"/>
  <text x="1830" y="796.6" font-family="Tahoma" font-size="12" transform="rotate(90 1830,796.6)" text-rendering="optimizeSpeed" fill="#000000">1.499 (442)</text>
  <rect fill="blue" height="47.9" stroke="black" width="12" x="1845" y="743.7"/>
  <text x="1845" y="796.6" font-family="Tahoma" font-size="12" transform="rotate(90 1845,796.6)" text-rendering="optimizeSpeed" fill="#000000">1.500 (479)</text>
  <rect fill="blue" height="23.0" stroke="black" width="12" x="1860" y="768.6"/>
  <text x="1860" y="796.6" font-family="Tahoma" font-size="12" transform="rotate(90 1860,796.6)" text-rendering="optimizeSpeed" fill="#000000">1.501 (230)</text>
  <rect fill="blue" height="42.6" stroke="black" width="12" x="1875" y="749.0"/>
  <text x="1875" y="796.6" font-family="Tahoma" font-size="12" transform="rotate(90 1875,796.6)" text-rendering="optimizeSpeed" fill="#000000">1.502 (426)</text>
  <rect fill="blue" height="19.1" stroke="black" width="12" x="1890" y="772.5"/>
  <text x="1890" y="796.6" font-family="Tahoma" font-size="12" transform="rotate(90 1890,796.6)" text-rendering="optimizeSpeed" fill="#000000">1.503 (191)</text>
  <rect fill="blue" height="36.2" stroke="black" width="12" x="1905" y="755.4"/>
  <text x="1905" y="796.6" font-family="Tahoma" font-size="12" transform="rotate(90 1905,796.6)" text-rendering="optimizeSpeed" fill="#000000">1.504 (362)</text>
  <rect fill="blue" height="35.8" stroke="black" width="12" x="1920" y="755.8"/>
  <text x="1920" y="796.6" font-family="Tahoma" font-size="12" transform="rotate(90 1920,796.6)" text-rendering="optimizeSpeed" fill="#000000">1.505 (358)</text>
  <rect fill="blue" height="66.6" stroke="black" width="12" x="1935" y="725.0"/>
  <text x="1935" y="796.6" font-family="Tahoma" font-size="12" transform="rotate(90 1935,796.6)" text-rendering="optimizeSpeed" fill="#000000">1.506 (666)</text>
  <rect fill="blue" height="4.7" stroke="black" width="12" x="1950" y="786.9"/>
  <text x="1950" y="796.6" font-family="Tahoma" font-size="12" transform="rotate(90 1950,796.6)" text-rendering="optimizeSpeed" fill="#000000">1.507 (47)</text>
  <rect fill="blue" height="27.2" stroke="black" width="12" x="1965" y="764.4"/>
  <text x="1965" y="796.6" font-family="Tahoma" font-size="12" transform="rotate(90 1965,796.6)" text-rendering="optimizeSpeed" fill="#000000">1.508 (272)</text>
  <rect fill="blue" height="30.1" stroke="black" width="12" x="1980" y="761.5"/>
  <text x="1980" y="796.6" font-family="Tahoma" font-size="12" transform="rotate(90 1980,796.6)" text-rendering="optimizeSpeed" fill="#000000">1.509 (301)</text>
  <rect fill="blue" height="36.4" stroke="black" width="12" x="1995" y="755.2"/>
  <text x="1995" y="796.6" font-family="Tahoma" font-size="12" transform="rotate(90 1995,796.6)" text-rendering="optimizeSpeed" fill="#000000">1.509.1 (364)</text>
  <rect fill="blue" height="95.3" stroke="black" width="12" x="2010" y="696.3"/>
  <text x="2010" y="796.6" font-family="Tahoma" font-size="12" transform="rotate(90 2010,796.6)" text-rendering="optimizeSpeed" fill="#000000">1.509.2 (953)</text>
  <rect fill="blue" height="0.1" stroke="black" width="12" x="2025" y="791.5"/>
  <text x="2025" y="796.6" font-family="Tahoma" font-size="12" transform="rotate(90 2025,796.6)" text-rendering="optimizeSpeed" fill="#000000">1.509.2.11 (1)</text>
  <rect fill="blue" height="0.2" stroke="black" width="12" x="2040" y="791.4"/>
  <text x="2040" y="796.6" font-family="Tahoma" font-size="12" transform="rotate(90 2040,796.6)" text-rendering="optimizeSpeed" fill="#000000">1.509.2.JENKINS-14362-jzlib (2)</text>
  <rect fill="blue" height="38.1" stroke="black" width="12" x="2055" y="753.5"/>
  <text x="2055" y="796.6" font-family="Tahoma" font-size="12" transform="rotate(90 2055,796.6)" text-rendering="optimizeSpeed" fill="#000000">1.509.3 (381)</text>
  <rect fill="blue" height="0.1" stroke="black" width="12" x="2070" y="791.5"/>
  <text x="2070" y="796.6" font-family="Tahoma" font-size="12" transform="rotate(90 2070,796.6)" text-rendering="optimizeSpeed" fill="#000000">1.509.3.JENKINS-14362-jzlib (1)</text>
  <rect fill="blue" height="0.4" stroke="black" width="12" x="2085" y="791.2"/>
  <text x="2085" y="796.6" font-family="Tahoma" font-size="12" transform="rotate(90 2085,796.6)" text-rendering="optimizeSpeed" fill="#000000">1.509.4-fusion-01 (4)</text>
  <rect fill="blue" height="137.0" stroke="black" width="12" x="2100" y="654.6"/>
  <text x="2100" y="796.6" font-family="Tahoma" font-size="12" transform="rotate(90 2100,796.6)" text-rendering="optimizeSpeed" fill="#000000">1.509.4 (1370)</text>
  <rect fill="blue" height="0.3" stroke="black" width="12" x="2115" y="791.3"/>
  <text x="2115" y="796.6" font-family="Tahoma" font-size="12" transform="rotate(90 2115,796.6)" text-rendering="optimizeSpeed" fill="#000000">1.509.4.2ms (3)</text>
  <rect fill="blue" height="0.2" stroke="black" width="12" x="2130" y="791.4"/>
  <text x="2130" y="796.6" font-family="Tahoma" font-size="12" transform="rotate(90 2130,796.6)" text-rendering="optimizeSpeed" fill="#000000">1.509.4.4ms (2)</text>
  <rect fill="blue" height="52.2" stroke="black" width="12" x="2145" y="739.4"/>
  <text x="2145" y="796.6" font-family="Tahoma" font-size="12" transform="rotate(90 2145,796.6)" text-rendering="optimizeSpeed" fill="#000000">1.510 (522)</text>
  <rect fill="blue" height="50.2" stroke="black" width="12" x="2160" y="741.4"/>
  <text x="2160" y="796.6" font-family="Tahoma" font-size="12" transform="rotate(90 2160,796.6)" text-rendering="optimizeSpeed" fill="#000000">1.511 (502)</text>
  <rect fill="blue" height="54.7" stroke="black" width="12" x="2175" y="736.9"/>
  <text x="2175" y="796.6" font-family="Tahoma" font-size="12" transform="rotate(90 2175,796.6)" text-rendering="optimizeSpeed" fill="#000000">1.512 (547)</text>
  <rect fill="blue" height="19.1" stroke="black" width="12" x="2190" y="772.5"/>
  <text x="2190" y="796.6" font-family="Tahoma" font-size="12" transform="rotate(90 2190,796.6)" text-rendering="optimizeSpeed" fill="#000000">1.513 (191)</text>
  <rect fill="blue" height="96.2" stroke="black" width="12" x="2205" y="695.4"/>
  <text x="2205" y="796.6" font-family="Tahoma" font-size="12" transform="rotate(90 2205,796.6)" text-rendering="optimizeSpeed" fill="#000000">1.514 (962)</text>
  <rect fill="blue" height="55.2" stroke="black" width="12" x="2220" y="736.4"/>
  <text x="2220" y="796.6" font-family="Tahoma" font-size="12" transform="rotate(90 2220,796.6)" text-rendering="optimizeSpeed" fill="#000000">1.515 (552)</text>
  <rect fill="blue" height="33.1" stroke="black" width="12" x="2235" y="758.5"/>
  <text x="2235" y="796.6" font-family="Tahoma" font-size="12" transform="rotate(90 2235,796.6)" text-rendering="optimizeSpeed" fill="#000000">1.516 (331)</text>
  <rect fill="blue" height="0.1" stroke="black" width="12" x="2250" y="791.5"/>
  <text x="2250" y="796.6" font-family="Tahoma" font-size="12" transform="rotate(90 2250,796.6)" text-rendering="optimizeSpeed" fill="#000000">1.516.JENKINS-14362-jzlib (1)</text>
  <rect fill="blue" height="67.4" stroke="black" width="12" x="2265" y="724.2"/>
  <text x="2265" y="796.6" font-family="Tahoma" font-size="12" transform="rotate(90 2265,796.6)" text-rendering="optimizeSpeed" fill="#000000">1.517 (674)</text>
  <rect fill="blue" height="49.0" stroke="black" width="12" x="2280" y="742.6"/>
  <text x="2280" y="796.6" font-family="Tahoma" font-size="12" transform="rotate(90 2280,796.6)" text-rendering="optimizeSpeed" fill="#000000">1.518 (490)</text>
  <rect fill="blue" height="47.8" stroke="black" width="12" x="2295" y="743.8"/>
  <text x="2295" y="796.6" font-family="Tahoma" font-size="12" transform="rotate(90 2295,796.6)" text-rendering="optimizeSpeed" fill="#000000">1.519 (478)</text>
  <rect fill="blue" height="45.5" stroke="black" width="12" x="2310" y="746.1"/>
  <text x="2310" y="796.6" font-family="Tahoma" font-size="12" transform="rotate(90 2310,796.6)" text-rendering="optimizeSpeed" fill="#000000">1.520 (455)</text>
  <rect fill="blue" height="33.5" stroke="black" width="12" x="2325" y="758.1"/>
  <text x="2325" y="796.6" font-family="Tahoma" font-size="12" transform="rotate(90 2325,796.6)" text-rendering="optimizeSpeed" fill="#000000">1.521 (335)</text>
  <rect fill="blue" height="66.9" stroke="black" width="12" x="2340" y="724.7"/>
  <text x="2340" y="796.6" font-family="Tahoma" font-size="12" transform="rotate(90 2340,796.6)" text-rendering="optimizeSpeed" fill="#000000">1.522 (669)</text>
  <rect fill="blue" height="86.1" stroke="black" width="12" x="2355" y="705.5"/>
  <text x="2355" y="796.6" font-family="Tahoma" font-size="12" transform="rotate(90 2355,796.6)" text-rendering="optimizeSpeed" fill="#000000">1.523 (861)</text>
  <rect fill="blue" height="37.9" stroke="black" width="12" x="2370" y="753.7"/>
  <text x="2370" y="796.6" font-family="Tahoma" font-size="12" transform="rotate(90 2370,796.6)" text-rendering="optimizeSpeed" fill="#000000">1.524 (379)</text>
  <rect fill="blue" height="62.2" stroke="black" width="12" x="2385" y="729.4"/>
  <text x="2385" y="796.6" font-family="Tahoma" font-size="12" transform="rotate(90 2385,796.6)" text-rendering="optimizeSpeed" fill="#000000">1.525 (622)</text>
  <rect fill="blue" height="67.7" stroke="black" width="12" x="2400" y="723.9"/>
  <text x="2400" y="796.6" font-family="Tahoma" font-size="12" transform="rotate(90 2400,796.6)" text-rendering="optimizeSpeed" fill="#000000">1.526 (677)</text>
  <rect fill="blue" height="48.5" stroke="black" width="12" x="2415" y="743.1"/>
  <text x="2415" y="796.6" font-family="Tahoma" font-size="12" transform="rotate(90 2415,796.6)" text-rendering="optimizeSpeed" fill="#000000">1.527 (485)</text>
  <rect fill="blue" height="70.8" stroke="black" width="12" x="2430" y="720.8"/>
  <text x="2430" y="796.6" font-family="Tahoma" font-size="12" transform="rotate(90 2430,796.6)" text-rendering="optimizeSpeed" fill="#000000">1.528 (708)</text>
  <rect fill="blue" height="109.4" stroke="black" width="12" x="2445" y="682.2"/>
  <text x="2445" y="796.6" font-family="Tahoma" font-size="12" transform="rotate(90 2445,796.6)" text-rendering="optimizeSpeed" fill="#000000">1.529 (1094)</text>
  <rect fill="blue" height="67.5" stroke="black" width="12" x="2460" y="724.1"/>
  <text x="2460" y="796.6" font-family="Tahoma" font-size="12" transform="rotate(90 2460,796.6)" text-rendering="optimizeSpeed" fill="#000000">1.530 (675)</text>
  <rect fill="blue" height="83.8" stroke="black" width="12" x="2475" y="707.8"/>
  <text x="2475" y="796.6" font-family="Tahoma" font-size="12" transform="rotate(90 2475,796.6)" text-rendering="optimizeSpeed" fill="#000000">1.531 (838)</text>
  <rect fill="blue" height="0.1" stroke="black" width="12" x="2490" y="791.5"/>
  <text x="2490" y="796.6" font-family="Tahoma" font-size="12" transform="rotate(90 2490,796.6)" text-rendering="optimizeSpeed" fill="#000000">1.532-AMADEUS-1 (1)</text>
  <rect fill="blue" height="65.7" stroke="black" width="12" x="2505" y="725.9"/>
  <text x="2505" y="796.6" font-family="Tahoma" font-size="12" transform="rotate(90 2505,796.6)" text-rendering="optimizeSpeed" fill="#000000">1.532 (657)</text>
  <rect fill="blue" height="0.1" stroke="black" width="12" x="2520" y="791.5"/>
  <text x="2520" y="796.6" font-family="Tahoma" font-size="12" transform="rotate(90 2520,796.6)" text-rendering="optimizeSpeed" fill="#000000">1.532.1-datalex (1)</text>
  <rect fill="blue" height="221.6" stroke="black" width="12" x="2535" y="570.0"/>
  <text x="2535" y="796.6" font-family="Tahoma" font-size="12" transform="rotate(90 2535,796.6)" text-rendering="optimizeSpeed" fill="#000000">1.532.1 (2216)</text>
  <rect fill="blue" height="0.1" stroke="black" width="12" x="2550" y="791.5"/>
  <text x="2550" y="796.6" font-family="Tahoma" font-size="12" transform="rotate(90 2550,796.6)" text-rendering="optimizeSpeed" fill="#000000">1.532.1.3 (1)</text>
  <rect fill="blue" height="0.1" stroke="black" width="12" x="2565" y="791.5"/>
  <text x="2565" y="796.6" font-family="Tahoma" font-size="12" transform="rotate(90 2565,796.6)" text-rendering="optimizeSpeed" fill="#000000">1.532.1.JENKINS-19453 (1)</text>
  <rect fill="blue" height="0.2" stroke="black" width="12" x="2580" y="791.4"/>
  <text x="2580" y="796.6" font-family="Tahoma" font-size="12" transform="rotate(90 2580,796.6)" text-rendering="optimizeSpeed" fill="#000000">1.532.2-AMADEUS-1 (2)</text>
  <rect fill="blue" height="111.4" stroke="black" width="12" x="2595" y="680.2"/>
  <text x="2595" y="796.6" font-family="Tahoma" font-size="12" transform="rotate(90 2595,796.6)" text-rendering="optimizeSpeed" fill="#000000">1.532.2 (1114)</text>
  <rect fill="blue" height="0.1" stroke="black" width="12" x="2610" y="791.5"/>
  <text x="2610" y="796.6" font-family="Tahoma" font-size="12" transform="rotate(90 2610,796.6)" text-rendering="optimizeSpeed" fill="#000000">1.532.2_1 (1)</text>
  <rect fill="blue" height="0.4" stroke="black" width="12" x="2625" y="791.2"/>
  <text x="2625" y="796.6" font-family="Tahoma" font-size="12" transform="rotate(90 2625,796.6)" text-rendering="optimizeSpeed" fill="#000000">1.532.2_2 (4)</text>
  <rect fill="blue" height="97.5" stroke="black" width="12" x="2640" y="694.1"/>
  <text x="2640" y="796.6" font-family="Tahoma" font-size="12" transform="rotate(90 2640,796.6)" text-rendering="optimizeSpeed" fill="#000000">1.533 (975)</text>
  <rect fill="blue" height="105.8" stroke="black" width="12" x="2655" y="685.8"/>
  <text x="2655" y="796.6" font-family="Tahoma" font-size="12" transform="rotate(90 2655,796.6)" text-rendering="optimizeSpeed" fill="#000000">1.534 (1058)</text>
  <rect fill="blue" height="81.9" stroke="black" width="12" x="2670" y="709.7"/>
  <text x="2670" y="796.6" font-family="Tahoma" font-size="12" transform="rotate(90 2670,796.6)" text-rendering="optimizeSpeed" fill="#000000">1.535 (819)</text>
  <rect fill="blue" height="73.1" stroke="black" width="12" x="2685" y="718.5"/>
  <text x="2685" y="796.6" font-family="Tahoma" font-size="12" transform="rotate(90 2685,796.6)" text-rendering="optimizeSpeed" fill="#000000">1.536 (731)</text>
  <rect fill="blue" height="107.2" stroke="black" width="12" x="2700" y="684.4"/>
  <text x="2700" y="796.6" font-family="Tahoma" font-size="12" transform="rotate(90 2700,796.6)" text-rendering="optimizeSpeed" fill="#000000">1.537 (1072)</text>
  <rect fill="blue" height="138.3" stroke="black" width="12" x="2715" y="653.3"/>
  <text x="2715" y="796.6" font-family="Tahoma" font-size="12" transform="rotate(90 2715,796.6)" text-rendering="optimizeSpeed" fill="#000000">1.538 (1383)</text>
  <rect fill="blue" height="125.4" stroke="black" width="12" x="2730" y="666.2"/>
  <text x="2730" y="796.6" font-family="Tahoma" font-size="12" transform="rotate(90 2730,796.6)" text-rendering="optimizeSpeed" fill="#000000">1.539 (1254)</text>
  <rect fill="blue" height="75.1" stroke="black" width="12" x="2745" y="716.5"/>
  <text x="2745" y="796.6" font-family="Tahoma" font-size="12" transform="rotate(90 2745,796.6)" text-rendering="optimizeSpeed" fill="#000000">1.540 (751)</text>
  <rect fill="blue" height="81.9" stroke="black" width="12" x="2760" y="709.7"/>
  <text x="2760" y="796.6" font-family="Tahoma" font-size="12" transform="rotate(90 2760,796.6)" text-rendering="optimizeSpeed" fill="#000000">1.541 (819)</text>
  <rect fill="blue" height="160.2" stroke="black" width="12" x="2775" y="631.4"/>
  <text x="2775" y="796.6" font-family="Tahoma" font-size="12" transform="rotate(90 2775,796.6)" text-rendering="optimizeSpeed" fill="#000000">1.542 (1602)</text>
  <rect fill="blue" height="78.1" stroke="black" width="12" x="2790" y="713.5"/>
  <text x="2790" y="796.6" font-family="Tahoma" font-size="12" transform="rotate(90 2790,796.6)" text-rendering="optimizeSpeed" fill="#000000">1.543 (781)</text>
  <rect fill="blue" height="236.7" stroke="black" width="12" x="2805" y="554.9"/>
  <text x="2805" y="796.6" font-family="Tahoma" font-size="12" transform="rotate(90 2805,796.6)" text-rendering="optimizeSpeed" fill="#000000">1.544 (2367)</text>
  <rect fill="blue" height="91.3" stroke="black" width="12" x="2820" y="700.3"/>
  <text x="2820" y="796.6" font-family="Tahoma" font-size="12" transform="rotate(90 2820,796.6)" text-rendering="optimizeSpeed" fill="#000000">1.545 (913)</text>
  <rect fill="blue" height="159.4" stroke="black" width="12" x="2835" y="632.2"/>
  <text x="2835" y="796.6" font-family="Tahoma" font-size="12" transform="rotate(90 2835,796.6)" text-rendering="optimizeSpeed" fill="#000000">1.546 (1594)</text>
  <rect fill="blue" height="241.9" stroke="black" width="12" x="2850" y="549.7"/>
  <text x="2850" y="796.6" font-family="Tahoma" font-size="12" transform="rotate(90 2850,796.6)" text-rendering="optimizeSpeed" fill="#000000">1.547 (2419)</text>
  <rect fill="blue" height="190.8" stroke="black" width="12" x="2865" y="600.8"/>
  <text x="2865" y="796.6" font-family="Tahoma" font-size="12" transform="rotate(90 2865,796.6)" text-rendering="optimizeSpeed" fill="#000000">1.548 (1908)</text>
  <rect fill="blue" height="0.2" stroke="black" width="12" x="2880" y="791.4"/>
  <text x="2880" y="796.6" font-family="Tahoma" font-size="12" transform="rotate(90 2880,796.6)" text-rendering="optimizeSpeed" fill="#000000">1.549-LUDIA-1 (2)</text>
  <rect fill="blue" height="741.6" stroke="black" width="12" x="2895" y="50.0"/>
  <text x="2895" y="796.6" font-family="Tahoma" font-size="12" transform="rotate(90 2895,796.6)" text-rendering="optimizeSpeed" fill="#000000">1.549 (7416)</text>
  <rect fill="blue" height="436.0" stroke="black" width="12" x="2910" y="355.6"/>
  <text x="2910" y="796.6" font-family="Tahoma" font-size="12" transform="rotate(90 2910,796.6)" text-rendering="optimizeSpeed" fill="#000000">1.550 (4360)</text>
  <rect fill="blue" height="727.1" stroke="black" width="12" x="2925" y="64.5"/>
  <text x="2925" y="796.6" font-family="Tahoma" font-size="12" transform="rotate(90 2925,796.6)" text-rendering="optimizeSpeed" fill="#000000">1.551 (7271)</text>
  <rect fill="blue" height="0.1" stroke="black" width="12" x="2940" y="791.5"/>
  <text x="2940" y="796.6" font-family="Tahoma" font-size="12" transform="rotate(90 2940,796.6)" text-rendering="optimizeSpeed" fill="#000000">1.552-ialbors (1)</text>
  <rect fill="blue" height="386.5" stroke="black" width="12" x="2955" y="405.1"/>
  <text x="2955" y="796.6" font-family="Tahoma" font-size="12" transform="rotate(90 2955,796.6)" text-rendering="optimizeSpeed" fill="#000000">1.552 (3865)</text>
  <text x="10" y="40" font-family="Tahoma" font-size="20" text-rendering="optimizeSpeed" fill="#000000">Jenkins installations (total: 78399)</text>
</svg>
