<svg xmlns="http://www.w3.org/2000/svg" version="1.1" preserveAspectRatio="xMidYMid meet" viewBox="0 0 1985 1094.9">
  <rect fill="blue" height="25.1" stroke="black" width="12" x="15" y="769.8"/>
  <text x="15" y="800.0" font-family="Tahoma" font-size="12" transform="rotate(90 15,800.0)" text-rendering="optimizeSpeed" fill="#000000">publish-over-ftp (2511)</text>
  <rect fill="blue" height="25.3" stroke="black" width="12" x="30" y="769.7"/>
  <text x="30" y="800.0" font-family="Tahoma" font-size="12" transform="rotate(90 30,800.0)" text-rendering="optimizeSpeed" fill="#000000">github-oauth (2526)</text>
  <rect fill="blue" height="25.6" stroke="black" width="12" x="45" y="769.4"/>
  <text x="45" y="800.0" font-family="Tahoma" font-size="12" transform="rotate(90 45,800.0)" text-rendering="optimizeSpeed" fill="#000000">doxygen (2557)</text>
  <rect fill="blue" height="25.8" stroke="black" width="12" x="60" y="769.1"/>
  <text x="60" y="800.0" font-family="Tahoma" font-size="12" transform="rotate(90 60,800.0)" text-rendering="optimizeSpeed" fill="#000000">mask-passwords (2583)</text>
  <rect fill="blue" height="26.0" stroke="black" width="12" x="75" y="768.9"/>
  <text x="75" y="800.0" font-family="Tahoma" font-size="12" transform="rotate(90 75,800.0)" text-rendering="optimizeSpeed" fill="#000000">radiatorviewplugin (2602)</text>
  <rect fill="blue" height="26.1" stroke="black" width="12" x="90" y="768.8"/>
  <text x="90" y="800.0" font-family="Tahoma" font-size="12" transform="rotate(90 90,800.0)" text-rendering="optimizeSpeed" fill="#000000">versionnumber (2614)</text>
  <rect fill="blue" height="26.2" stroke="black" width="12" x="105" y="768.7"/>
  <text x="105" y="800.0" font-family="Tahoma" font-size="12" transform="rotate(90 105,800.0)" text-rendering="optimizeSpeed" fill="#000000">project-stats-plugin (2622)</text>
  <rect fill="blue" height="26.3" stroke="black" width="12" x="120" y="768.6"/>
  <text x="120" y="800.0" font-family="Tahoma" font-size="12" transform="rotate(90 120,800.0)" text-rendering="optimizeSpeed" fill="#000000">groovy-postbuild (2633)</text>
  <rect fill="blue" height="26.5" stroke="black" width="12" x="135" y="768.5"/>
  <text x="135" y="800.0" font-family="Tahoma" font-size="12" transform="rotate(90 135,800.0)" text-rendering="optimizeSpeed" fill="#000000">extra-columns (2648)</text>
  <rect fill="blue" height="26.6" stroke="black" width="12" x="150" y="768.4"/>
  <text x="150" y="800.0" font-family="Tahoma" font-size="12" transform="rotate(90 150,800.0)" text-rendering="optimizeSpeed" fill="#000000">claim (2660)</text>
  <rect fill="blue" height="26.7" stroke="black" width="12" x="165" y="768.3"/>
  <text x="165" y="800.0" font-family="Tahoma" font-size="12" transform="rotate(90 165,800.0)" text-rendering="optimizeSpeed" fill="#000000">rake (2666)</text>
  <rect fill="blue" height="26.8" stroke="black" width="12" x="180" y="768.2"/>
  <text x="180" y="800.0" font-family="Tahoma" font-size="12" transform="rotate(90 180,800.0)" text-rendering="optimizeSpeed" fill="#000000">batch-task (2676)</text>
  <rect fill="blue" height="27.1" stroke="black" width="12" x="195" y="767.8"/>
  <text x="195" y="800.0" font-family="Tahoma" font-size="12" transform="rotate(90 195,800.0)" text-rendering="optimizeSpeed" fill="#000000">extended-choice-parameter (2714)</text>
  <rect fill="blue" height="27.3" stroke="black" width="12" x="210" y="767.6"/>
  <text x="210" y="800.0" font-family="Tahoma" font-size="12" transform="rotate(90 210,800.0)" text-rendering="optimizeSpeed" fill="#000000">text-finder (2734)</text>
  <rect fill="blue" height="27.5" stroke="black" width="12" x="225" y="767.5"/>
  <text x="225" y="800.0" font-family="Tahoma" font-size="12" transform="rotate(90 225,800.0)" text-rendering="optimizeSpeed" fill="#000000">release (2750)</text>
  <rect fill="blue" height="27.6" stroke="black" width="12" x="240" y="767.4"/>
  <text x="240" y="800.0" font-family="Tahoma" font-size="12" transform="rotate(90 240,800.0)" text-rendering="optimizeSpeed" fill="#000000">android-emulator (2756)</text>
  <rect fill="blue" height="27.6" stroke="black" width="12" x="255" y="767.3"/>
  <text x="255" y="800.0" font-family="Tahoma" font-size="12" transform="rotate(90 255,800.0)" text-rendering="optimizeSpeed" fill="#000000">next-build-number (2765)</text>
  <rect fill="blue" height="27.9" stroke="black" width="12" x="270" y="767.1"/>
  <text x="270" y="800.0" font-family="Tahoma" font-size="12" transform="rotate(90 270,800.0)" text-rendering="optimizeSpeed" fill="#000000">throttle-concurrents (2788)</text>
  <rect fill="blue" height="28.0" stroke="black" width="12" x="285" y="767.0"/>
  <text x="285" y="800.0" font-family="Tahoma" font-size="12" transform="rotate(90 285,800.0)" text-rendering="optimizeSpeed" fill="#000000">global-build-stats (2800)</text>
  <rect fill="blue" height="28.1" stroke="black" width="12" x="300" y="766.9"/>
  <text x="300" y="800.0" font-family="Tahoma" font-size="12" transform="rotate(90 300,800.0)" text-rendering="optimizeSpeed" fill="#000000">all-changes (2808)</text>
  <rect fill="blue" height="28.1" stroke="black" width="12" x="315" y="766.9"/>
  <text x="315" y="800.0" font-family="Tahoma" font-size="12" transform="rotate(90 315,800.0)" text-rendering="optimizeSpeed" fill="#000000">config-file-provider (2808)</text>
  <rect fill="blue" height="28.5" stroke="black" width="12" x="330" y="766.5"/>
  <text x="330" y="800.0" font-family="Tahoma" font-size="12" transform="rotate(90 330,800.0)" text-rendering="optimizeSpeed" fill="#000000">description-setter (2847)</text>
  <rect fill="blue" height="28.7" stroke="black" width="12" x="345" y="766.2"/>
  <text x="345" y="800.0" font-family="Tahoma" font-size="12" transform="rotate(90 345,800.0)" text-rendering="optimizeSpeed" fill="#000000">nodelabelparameter (2872)</text>
  <rect fill="blue" height="28.9" stroke="black" width="12" x="360" y="766.0"/>
  <text x="360" y="800.0" font-family="Tahoma" font-size="12" transform="rotate(90 360,800.0)" text-rendering="optimizeSpeed" fill="#000000">build-flow-plugin (2890)</text>
  <rect fill="blue" height="29.2" stroke="black" width="12" x="375" y="765.8"/>
  <text x="375" y="800.0" font-family="Tahoma" font-size="12" transform="rotate(90 375,800.0)" text-rendering="optimizeSpeed" fill="#000000">sidebar-link (2916)</text>
  <rect fill="blue" height="30.1" stroke="black" width="12" x="390" y="764.9"/>
  <text x="390" y="800.0" font-family="Tahoma" font-size="12" transform="rotate(90 390,800.0)" text-rendering="optimizeSpeed" fill="#000000">console-column-plugin (3007)</text>
  <rect fill="blue" height="30.2" stroke="black" width="12" x="405" y="764.7"/>
  <text x="405" y="800.0" font-family="Tahoma" font-size="12" transform="rotate(90 405,800.0)" text-rendering="optimizeSpeed" fill="#000000">configurationslicing (3021)</text>
  <rect fill="blue" height="30.5" stroke="black" width="12" x="420" y="764.4"/>
  <text x="420" y="800.0" font-family="Tahoma" font-size="12" transform="rotate(90 420,800.0)" text-rendering="optimizeSpeed" fill="#000000">downstream-buildview (3051)</text>
  <rect fill="blue" height="30.5" stroke="black" width="12" x="435" y="764.4"/>
  <text x="435" y="800.0" font-family="Tahoma" font-size="12" transform="rotate(90 435,800.0)" text-rendering="optimizeSpeed" fill="#000000">multiple-scms (3053)</text>
  <rect fill="blue" height="30.8" stroke="black" width="12" x="450" y="764.2"/>
  <text x="450" y="800.0" font-family="Tahoma" font-size="12" transform="rotate(90 450,800.0)" text-rendering="optimizeSpeed" fill="#000000">jenkins-multijob-plugin (3075)</text>
  <rect fill="blue" height="30.8" stroke="black" width="12" x="465" y="764.2"/>
  <text x="465" y="800.0" font-family="Tahoma" font-size="12" transform="rotate(90 465,800.0)" text-rendering="optimizeSpeed" fill="#000000">rebuild (3078)</text>
  <rect fill="blue" height="31.2" stroke="black" width="12" x="480" y="763.8"/>
  <text x="480" y="800.0" font-family="Tahoma" font-size="12" transform="rotate(90 480,800.0)" text-rendering="optimizeSpeed" fill="#000000">saferestart (3118)</text>
  <rect fill="blue" height="31.9" stroke="black" width="12" x="495" y="763.1"/>
  <text x="495" y="800.0" font-family="Tahoma" font-size="12" transform="rotate(90 495,800.0)" text-rendering="optimizeSpeed" fill="#000000">audit-trail (3189)</text>
  <rect fill="blue" height="32.1" stroke="black" width="12" x="510" y="762.8"/>
  <text x="510" y="800.0" font-family="Tahoma" font-size="12" transform="rotate(90 510,800.0)" text-rendering="optimizeSpeed" fill="#000000">locks-and-latches (3213)</text>
  <rect fill="blue" height="33.3" stroke="black" width="12" x="525" y="761.7"/>
  <text x="525" y="800.0" font-family="Tahoma" font-size="12" transform="rotate(90 525,800.0)" text-rendering="optimizeSpeed" fill="#000000">perforce (3326)</text>
  <rect fill="blue" height="33.6" stroke="black" width="12" x="540" y="761.4"/>
  <text x="540" y="800.0" font-family="Tahoma" font-size="12" transform="rotate(90 540,800.0)" text-rendering="optimizeSpeed" fill="#000000">cloverphp (3358)</text>
  <rect fill="blue" height="33.9" stroke="black" width="12" x="555" y="761.0"/>
  <text x="555" y="800.0" font-family="Tahoma" font-size="12" transform="rotate(90 555,800.0)" text-rendering="optimizeSpeed" fill="#000000">simple-theme-plugin (3391)</text>
  <rect fill="blue" height="34.3" stroke="black" width="12" x="570" y="760.6"/>
  <text x="570" y="800.0" font-family="Tahoma" font-size="12" transform="rotate(90 570,800.0)" text-rendering="optimizeSpeed" fill="#000000">port-allocator (3434)</text>
  <rect fill="blue" height="34.5" stroke="black" width="12" x="585" y="760.5"/>
  <text x="585" y="800.0" font-family="Tahoma" font-size="12" transform="rotate(90 585,800.0)" text-rendering="optimizeSpeed" fill="#000000">depgraph-view (3446)</text>
  <rect fill="blue" height="34.5" stroke="black" width="12" x="600" y="760.4"/>
  <text x="600" y="800.0" font-family="Tahoma" font-size="12" transform="rotate(90 600,800.0)" text-rendering="optimizeSpeed" fill="#000000">python (3455)</text>
  <rect fill="blue" height="34.8" stroke="black" width="12" x="615" y="760.1"/>
  <text x="615" y="800.0" font-family="Tahoma" font-size="12" transform="rotate(90 615,800.0)" text-rendering="optimizeSpeed" fill="#000000">git-parameter (3483)</text>
  <rect fill="blue" height="35.1" stroke="black" width="12" x="630" y="759.9"/>
  <text x="630" y="800.0" font-family="Tahoma" font-size="12" transform="rotate(90 630,800.0)" text-rendering="optimizeSpeed" fill="#000000">xcode-plugin (3507)</text>
  <rect fill="blue" height="35.1" stroke="black" width="12" x="645" y="759.9"/>
  <text x="645" y="800.0" font-family="Tahoma" font-size="12" transform="rotate(90 645,800.0)" text-rendering="optimizeSpeed" fill="#000000">nunit (3510)</text>
  <rect fill="blue" height="36.0" stroke="black" width="12" x="660" y="759.0"/>
  <text x="660" y="800.0" font-family="Tahoma" font-size="12" transform="rotate(90 660,800.0)" text-rendering="optimizeSpeed" fill="#000000">nested-view (3600)</text>
  <rect fill="blue" height="36.1" stroke="black" width="12" x="675" y="758.9"/>
  <text x="675" y="800.0" font-family="Tahoma" font-size="12" transform="rotate(90 675,800.0)" text-rendering="optimizeSpeed" fill="#000000">join (3610)</text>
  <rect fill="blue" height="36.3" stroke="black" width="12" x="690" y="758.6"/>
  <text x="690" y="800.0" font-family="Tahoma" font-size="12" transform="rotate(90 690,800.0)" text-rendering="optimizeSpeed" fill="#000000">svn-tag (3633)</text>
  <rect fill="blue" height="36.4" stroke="black" width="12" x="705" y="758.6"/>
  <text x="705" y="800.0" font-family="Tahoma" font-size="12" transform="rotate(90 705,800.0)" text-rendering="optimizeSpeed" fill="#000000">emma (3639)</text>
  <rect fill="blue" height="37.3" stroke="black" width="12" x="720" y="757.7"/>
  <text x="720" y="800.0" font-family="Tahoma" font-size="12" transform="rotate(90 720,800.0)" text-rendering="optimizeSpeed" fill="#000000">jdepend (3730)</text>
  <rect fill="blue" height="37.9" stroke="black" width="12" x="735" y="757.0"/>
  <text x="735" y="800.0" font-family="Tahoma" font-size="12" transform="rotate(90 735,800.0)" text-rendering="optimizeSpeed" fill="#000000">git-server (3794)</text>
  <rect fill="blue" height="38.0" stroke="black" width="12" x="750" y="756.9"/>
  <text x="750" y="800.0" font-family="Tahoma" font-size="12" transform="rotate(90 750,800.0)" text-rendering="optimizeSpeed" fill="#000000">jquery-ui (3801)</text>
  <rect fill="blue" height="39.4" stroke="black" width="12" x="765" y="755.6"/>
  <text x="765" y="800.0" font-family="Tahoma" font-size="12" transform="rotate(90 765,800.0)" text-rendering="optimizeSpeed" fill="#000000">artifactory (3938)</text>
  <rect fill="blue" height="39.8" stroke="black" width="12" x="780" y="755.1"/>
  <text x="780" y="800.0" font-family="Tahoma" font-size="12" transform="rotate(90 780,800.0)" text-rendering="optimizeSpeed" fill="#000000">build-name-setter (3981)</text>
  <rect fill="blue" height="40.5" stroke="black" width="12" x="795" y="754.5"/>
  <text x="795" y="800.0" font-family="Tahoma" font-size="12" transform="rotate(90 795,800.0)" text-rendering="optimizeSpeed" fill="#000000">mercurial (4049)</text>
  <rect fill="blue" height="40.9" stroke="black" width="12" x="810" y="754.1"/>
  <text x="810" y="800.0" font-family="Tahoma" font-size="12" transform="rotate(90 810,800.0)" text-rendering="optimizeSpeed" fill="#000000">tasks (4088)</text>
  <rect fill="blue" height="40.9" stroke="black" width="12" x="825" y="754.0"/>
  <text x="825" y="800.0" font-family="Tahoma" font-size="12" transform="rotate(90 825,800.0)" text-rendering="optimizeSpeed" fill="#000000">gradle (4093)</text>
  <rect fill="blue" height="41.1" stroke="black" width="12" x="840" y="753.9"/>
  <text x="840" y="800.0" font-family="Tahoma" font-size="12" transform="rotate(90 840,800.0)" text-rendering="optimizeSpeed" fill="#000000">ansicolor (4106)</text>
  <rect fill="blue" height="41.3" stroke="black" width="12" x="855" y="753.6"/>
  <text x="855" y="800.0" font-family="Tahoma" font-size="12" transform="rotate(90 855,800.0)" text-rendering="optimizeSpeed" fill="#000000">copy-to-slave (4132)</text>
  <rect fill="blue" height="41.9" stroke="black" width="12" x="870" y="753.1"/>
  <text x="870" y="800.0" font-family="Tahoma" font-size="12" transform="rotate(90 870,800.0)" text-rendering="optimizeSpeed" fill="#000000">role-strategy (4188)</text>
  <rect fill="blue" height="43.3" stroke="black" width="12" x="885" y="751.7"/>
  <text x="885" y="800.0" font-family="Tahoma" font-size="12" transform="rotate(90 885,800.0)" text-rendering="optimizeSpeed" fill="#000000">scp (4327)</text>
  <rect fill="blue" height="43.6" stroke="black" width="12" x="900" y="751.4"/>
  <text x="900" y="800.0" font-family="Tahoma" font-size="12" transform="rotate(90 900,800.0)" text-rendering="optimizeSpeed" fill="#000000">view-job-filters (4358)</text>
  <rect fill="blue" height="43.7" stroke="black" width="12" x="915" y="751.3"/>
  <text x="915" y="800.0" font-family="Tahoma" font-size="12" transform="rotate(90 915,800.0)" text-rendering="optimizeSpeed" fill="#000000">artifactdeployer (4367)</text>
  <rect fill="blue" height="44.0" stroke="black" width="12" x="930" y="751.0"/>
  <text x="930" y="800.0" font-family="Tahoma" font-size="12" transform="rotate(90 930,800.0)" text-rendering="optimizeSpeed" fill="#000000">ruby-runtime (4400)</text>
  <rect fill="blue" height="44.1" stroke="black" width="12" x="945" y="750.9"/>
  <text x="945" y="800.0" font-family="Tahoma" font-size="12" transform="rotate(90 945,800.0)" text-rendering="optimizeSpeed" fill="#000000">monitoring (4407)</text>
  <rect fill="blue" height="44.1" stroke="black" width="12" x="960" y="750.8"/>
  <text x="960" y="800.0" font-family="Tahoma" font-size="12" transform="rotate(90 960,800.0)" text-rendering="optimizeSpeed" fill="#000000">performance (4412)</text>
  <rect fill="blue" height="44.5" stroke="black" width="12" x="975" y="750.5"/>
  <text x="975" y="800.0" font-family="Tahoma" font-size="12" transform="rotate(90 975,800.0)" text-rendering="optimizeSpeed" fill="#000000">m2release (4445)</text>
  <rect fill="blue" height="46.0" stroke="black" width="12" x="990" y="749.0"/>
  <text x="990" y="800.0" font-family="Tahoma" font-size="12" transform="rotate(90 990,800.0)" text-rendering="optimizeSpeed" fill="#000000">groovy (4599)</text>
  <rect fill="blue" height="50.5" stroke="black" width="12" x="1005" y="744.4"/>
  <text x="1005" y="800.0" font-family="Tahoma" font-size="12" transform="rotate(90 1005,800.0)" text-rendering="optimizeSpeed" fill="#000000">backup (5055)</text>
  <rect fill="blue" height="50.7" stroke="black" width="12" x="1020" y="744.2"/>
  <text x="1020" y="800.0" font-family="Tahoma" font-size="12" transform="rotate(90 1020,800.0)" text-rendering="optimizeSpeed" fill="#000000">promoted-builds (5071)</text>
  <rect fill="blue" height="51.0" stroke="black" width="12" x="1035" y="743.9"/>
  <text x="1035" y="800.0" font-family="Tahoma" font-size="12" transform="rotate(90 1035,800.0)" text-rendering="optimizeSpeed" fill="#000000">instant-messaging (5102)</text>
  <rect fill="blue" height="52.2" stroke="black" width="12" x="1050" y="742.7"/>
  <text x="1050" y="799.9" font-family="Tahoma" font-size="12" transform="rotate(90 1050,799.9)" text-rendering="optimizeSpeed" fill="#000000">thinBackup (5222)</text>
  <rect fill="blue" height="55.8" stroke="black" width="12" x="1065" y="739.2"/>
  <text x="1065" y="800.0" font-family="Tahoma" font-size="12" transform="rotate(90 1065,800.0)" text-rendering="optimizeSpeed" fill="#000000">plot (5579)</text>
  <rect fill="blue" height="56.9" stroke="black" width="12" x="1080" y="738.1"/>
  <text x="1080" y="800.0" font-family="Tahoma" font-size="12" transform="rotate(90 1080,800.0)" text-rendering="optimizeSpeed" fill="#000000">chucknorris (5685)</text>
  <rect fill="blue" height="58.2" stroke="black" width="12" x="1095" y="736.7"/>
  <text x="1095" y="799.9" font-family="Tahoma" font-size="12" transform="rotate(90 1095,799.9)" text-rendering="optimizeSpeed" fill="#000000">timestamper (5822)</text>
  <rect fill="blue" height="58.7" stroke="black" width="12" x="1110" y="736.3"/>
  <text x="1110" y="800.0" font-family="Tahoma" font-size="12" transform="rotate(90 1110,800.0)" text-rendering="optimizeSpeed" fill="#000000">log-parser (5867)</text>
  <rect fill="blue" height="61.2" stroke="black" width="12" x="1125" y="733.8"/>
  <text x="1125" y="800.0" font-family="Tahoma" font-size="12" transform="rotate(90 1125,800.0)" text-rendering="optimizeSpeed" fill="#000000">jira (6117)</text>
  <rect fill="blue" height="62.1" stroke="black" width="12" x="1140" y="732.8"/>
  <text x="1140" y="800.0" font-family="Tahoma" font-size="12" transform="rotate(90 1140,800.0)" text-rendering="optimizeSpeed" fill="#000000">ssh (6211)</text>
  <rect fill="blue" height="62.2" stroke="black" width="12" x="1155" y="732.7"/>
  <text x="1155" y="800.0" font-family="Tahoma" font-size="12" transform="rotate(90 1155,800.0)" text-rendering="optimizeSpeed" fill="#000000">dry (6223)</text>
  <rect fill="blue" height="64.5" stroke="black" width="12" x="1170" y="730.4"/>
  <text x="1170" y="800.0" font-family="Tahoma" font-size="12" transform="rotate(90 1170,800.0)" text-rendering="optimizeSpeed" fill="#000000">deploy (6451)</text>
  <rect fill="blue" height="67.7" stroke="black" width="12" x="1185" y="727.2"/>
  <text x="1185" y="800.0" font-family="Tahoma" font-size="12" transform="rotate(90 1185,800.0)" text-rendering="optimizeSpeed" fill="#000000">conditional-buildstep (6770)</text>
  <rect fill="blue" height="69.3" stroke="black" width="12" x="1200" y="725.7"/>
  <text x="1200" y="800.0" font-family="Tahoma" font-size="12" transform="rotate(90 1200,800.0)" text-rendering="optimizeSpeed" fill="#000000">jobConfigHistory (6929)</text>
  <rect fill="blue" height="70.4" stroke="black" width="12" x="1215" y="724.5"/>
  <text x="1215" y="800.0" font-family="Tahoma" font-size="12" transform="rotate(90 1215,800.0)" text-rendering="optimizeSpeed" fill="#000000">ws-cleanup (7044)</text>
  <rect fill="blue" height="70.6" stroke="black" width="12" x="1230" y="724.3"/>
  <text x="1230" y="800.0" font-family="Tahoma" font-size="12" transform="rotate(90 1230,800.0)" text-rendering="optimizeSpeed" fill="#000000">postbuild-task (7063)</text>
  <rect fill="blue" height="71.5" stroke="black" width="12" x="1245" y="723.5"/>
  <text x="1245" y="800.0" font-family="Tahoma" font-size="12" transform="rotate(90 1245,800.0)" text-rendering="optimizeSpeed" fill="#000000">analysis-collector (7150)</text>
  <rect fill="blue" height="77.1" stroke="black" width="12" x="1260" y="717.8"/>
  <text x="1260" y="800.0" font-family="Tahoma" font-size="12" transform="rotate(90 1260,800.0)" text-rendering="optimizeSpeed" fill="#000000">msbuild (7712)</text>
  <rect fill="blue" height="77.5" stroke="black" width="12" x="1275" y="717.4"/>
  <text x="1275" y="800.0" font-family="Tahoma" font-size="12" transform="rotate(90 1275,800.0)" text-rendering="optimizeSpeed" fill="#000000">warnings (7754)</text>
  <rect fill="blue" height="79.9" stroke="black" width="12" x="1290" y="715.0"/>
  <text x="1290" y="800.0" font-family="Tahoma" font-size="12" transform="rotate(90 1290,800.0)" text-rendering="optimizeSpeed" fill="#000000">build-timeout (7992)</text>
  <rect fill="blue" height="80.8" stroke="black" width="12" x="1305" y="714.2"/>
  <text x="1305" y="800.0" font-family="Tahoma" font-size="12" transform="rotate(90 1305,800.0)" text-rendering="optimizeSpeed" fill="#000000">build-pipeline-plugin (8076)</text>
  <rect fill="blue" height="82.0" stroke="black" width="12" x="1320" y="712.9"/>
  <text x="1320" y="800.0" font-family="Tahoma" font-size="12" transform="rotate(90 1320,800.0)" text-rendering="optimizeSpeed" fill="#000000">publish-over-ssh (8202)</text>
  <rect fill="blue" height="82.4" stroke="black" width="12" x="1335" y="712.5"/>
  <text x="1335" y="800.0" font-family="Tahoma" font-size="12" transform="rotate(90 1335,800.0)" text-rendering="optimizeSpeed" fill="#000000">run-condition (8242)</text>
  <rect fill="blue" height="85.4" stroke="black" width="12" x="1350" y="709.6"/>
  <text x="1350" y="800.0" font-family="Tahoma" font-size="12" transform="rotate(90 1350,800.0)" text-rendering="optimizeSpeed" fill="#000000">findbugs (8536)</text>
  <rect fill="blue" height="86.2" stroke="black" width="12" x="1365" y="708.8"/>
  <text x="1365" y="800.0" font-family="Tahoma" font-size="12" transform="rotate(90 1365,800.0)" text-rendering="optimizeSpeed" fill="#000000">active-directory (8616)</text>
  <rect fill="blue" height="90.8" stroke="black" width="12" x="1380" y="704.2"/>
  <text x="1380" y="800.0" font-family="Tahoma" font-size="12" transform="rotate(90 1380,800.0)" text-rendering="optimizeSpeed" fill="#000000">violations (9080)</text>
  <rect fill="blue" height="91.8" stroke="black" width="12" x="1395" y="703.1"/>
  <text x="1395" y="800.0" font-family="Tahoma" font-size="12" transform="rotate(90 1395,800.0)" text-rendering="optimizeSpeed" fill="#000000">xunit (9183)</text>
  <rect fill="blue" height="93.9" stroke="black" width="12" x="1410" y="701.1"/>
  <text x="1410" y="800.0" font-family="Tahoma" font-size="12" transform="rotate(90 1410,800.0)" text-rendering="optimizeSpeed" fill="#000000">disk-usage (9387)</text>
  <rect fill="blue" height="95.0" stroke="black" width="12" x="1425" y="699.9"/>
  <text x="1425" y="800.0" font-family="Tahoma" font-size="12" transform="rotate(90 1425,800.0)" text-rendering="optimizeSpeed" fill="#000000">pmd (9504)</text>
  <rect fill="blue" height="95.8" stroke="black" width="12" x="1440" y="699.2"/>
  <text x="1440" y="800.0" font-family="Tahoma" font-size="12" transform="rotate(90 1440,800.0)" text-rendering="optimizeSpeed" fill="#000000">ssh-agent (9576)</text>
  <rect fill="blue" height="100.6" stroke="black" width="12" x="1455" y="694.4"/>
  <text x="1455" y="800.0" font-family="Tahoma" font-size="12" transform="rotate(90 1455,800.0)" text-rendering="optimizeSpeed" fill="#000000">github (10060)</text>
  <rect fill="blue" height="103.0" stroke="black" width="12" x="1470" y="691.9"/>
  <text x="1470" y="800.0" font-family="Tahoma" font-size="12" transform="rotate(90 1470,800.0)" text-rendering="optimizeSpeed" fill="#000000">copyartifact (10305)</text>
  <rect fill="blue" height="104.1" stroke="black" width="12" x="1485" y="690.8"/>
  <text x="1485" y="800.0" font-family="Tahoma" font-size="12" transform="rotate(90 1485,800.0)" text-rendering="optimizeSpeed" fill="#000000">dashboard-view (10412)</text>
  <rect fill="blue" height="105.1" stroke="black" width="12" x="1500" y="689.9"/>
  <text x="1500" y="800.0" font-family="Tahoma" font-size="12" transform="rotate(90 1500,800.0)" text-rendering="optimizeSpeed" fill="#000000">github-api (10506)</text>
  <rect fill="blue" height="106.2" stroke="black" width="12" x="1515" y="688.7"/>
  <text x="1515" y="800.0" font-family="Tahoma" font-size="12" transform="rotate(90 1515,800.0)" text-rendering="optimizeSpeed" fill="#000000">checkstyle (10625)</text>
  <rect fill="blue" height="106.9" stroke="black" width="12" x="1530" y="688.0"/>
  <text x="1530" y="800.0" font-family="Tahoma" font-size="12" transform="rotate(90 1530,800.0)" text-rendering="optimizeSpeed" fill="#000000">cobertura (10692)</text>
  <rect fill="blue" height="109.9" stroke="black" width="12" x="1545" y="685.1"/>
  <text x="1545" y="800.0" font-family="Tahoma" font-size="12" transform="rotate(90 1545,800.0)" text-rendering="optimizeSpeed" fill="#000000">sonar (10988)</text>
  <rect fill="blue" height="118.7" stroke="black" width="12" x="1560" y="676.2"/>
  <text x="1560" y="800.0" font-family="Tahoma" font-size="12" transform="rotate(90 1560,800.0)" text-rendering="optimizeSpeed" fill="#000000">htmlpublisher (11874)</text>
  <rect fill="blue" height="119.4" stroke="black" width="12" x="1575" y="675.6"/>
  <text x="1575" y="800.0" font-family="Tahoma" font-size="12" transform="rotate(90 1575,800.0)" text-rendering="optimizeSpeed" fill="#000000">jquery (11936)</text>
  <rect fill="blue" height="120.0" stroke="black" width="12" x="1590" y="674.9"/>
  <text x="1590" y="800.0" font-family="Tahoma" font-size="12" transform="rotate(90 1590,800.0)" text-rendering="optimizeSpeed" fill="#000000">envinject (12005)</text>
  <rect fill="blue" height="144.0" stroke="black" width="12" x="1605" y="651.0"/>
  <text x="1605" y="800.0" font-family="Tahoma" font-size="12" transform="rotate(90 1605,800.0)" text-rendering="optimizeSpeed" fill="#000000">windows-slaves (14400)</text>
  <rect fill="blue" height="160.7" stroke="black" width="12" x="1620" y="634.3"/>
  <text x="1620" y="800.0" font-family="Tahoma" font-size="12" transform="rotate(90 1620,800.0)" text-rendering="optimizeSpeed" fill="#000000">greenballs (16065)</text>
  <rect fill="blue" height="185.7" stroke="black" width="12" x="1635" y="609.2"/>
  <text x="1635" y="800.0" font-family="Tahoma" font-size="12" transform="rotate(90 1635,800.0)" text-rendering="optimizeSpeed" fill="#000000">parameterized-trigger (18573)</text>
  <rect fill="blue" height="212.7" stroke="black" width="12" x="1650" y="582.3"/>
  <text x="1650" y="800.0" font-family="Tahoma" font-size="12" transform="rotate(90 1650,800.0)" text-rendering="optimizeSpeed" fill="#000000">scm-api (21265)</text>
  <rect fill="blue" height="218.0" stroke="black" width="12" x="1665" y="577.0"/>
  <text x="1665" y="799.9" font-family="Tahoma" font-size="12" transform="rotate(90 1665,799.9)" text-rendering="optimizeSpeed" fill="#000000">email-ext (21797)</text>
  <rect fill="blue" height="220.8" stroke="black" width="12" x="1680" y="574.2"/>
  <text x="1680" y="800.0" font-family="Tahoma" font-size="12" transform="rotate(90 1680,800.0)" text-rendering="optimizeSpeed" fill="#000000">analysis-core (22079)</text>
  <rect fill="blue" height="280.8" stroke="black" width="12" x="1695" y="514.2"/>
  <text x="1695" y="800.0" font-family="Tahoma" font-size="12" transform="rotate(90 1695,800.0)" text-rendering="optimizeSpeed" fill="#000000">token-macro (28079)</text>
  <rect fill="blue" height="313.2" stroke="black" width="12" x="1710" y="481.8"/>
  <text x="1710" y="800.0" font-family="Tahoma" font-size="12" transform="rotate(90 1710,800.0)" text-rendering="optimizeSpeed" fill="#000000">git-client (31318)</text>
  <rect fill="blue" height="360.8" stroke="black" width="12" x="1725" y="434.1"/>
  <text x="1725" y="800.0" font-family="Tahoma" font-size="12" transform="rotate(90 1725,800.0)" text-rendering="optimizeSpeed" fill="#000000">git (36081)</text>
  <rect fill="blue" height="375.0" stroke="black" width="12" x="1740" y="420.0"/>
  <text x="1740" y="800.0" font-family="Tahoma" font-size="12" transform="rotate(90 1740,800.0)" text-rendering="optimizeSpeed" fill="#000000">matrix-auth (37498)</text>
  <rect fill="blue" height="624.1" stroke="black" width="12" x="1755" y="170.8"/>
  <text x="1755" y="800.0" font-family="Tahoma" font-size="12" transform="rotate(90 1755,800.0)" text-rendering="optimizeSpeed" fill="#000000">ssh-credentials (62415)</text>
  <rect fill="blue" height="628.5" stroke="black" width="12" x="1770" y="166.5"/>
  <text x="1770" y="800.0" font-family="Tahoma" font-size="12" transform="rotate(90 1770,800.0)" text-rendering="optimizeSpeed" fill="#000000">credentials (62848)</text>
  <rect fill="blue" height="660.9" stroke="black" width="12" x="1785" y="134.1"/>
  <text x="1785" y="800.0" font-family="Tahoma" font-size="12" transform="rotate(90 1785,800.0)" text-rendering="optimizeSpeed" fill="#000000">mailer (66089)</text>
  <rect fill="blue" height="690.2" stroke="black" width="12" x="1800" y="104.8"/>
  <text x="1800" y="800.0" font-family="Tahoma" font-size="12" transform="rotate(90 1800,800.0)" text-rendering="optimizeSpeed" fill="#000000">ldap (69017)</text>
  <rect fill="blue" height="694.3" stroke="black" width="12" x="1815" y="100.6"/>
  <text x="1815" y="800.0" font-family="Tahoma" font-size="12" transform="rotate(90 1815,800.0)" text-rendering="optimizeSpeed" fill="#000000">pam-auth (69434)</text>
  <rect fill="blue" height="700.8" stroke="black" width="12" x="1830" y="94.2"/>
  <text x="1830" y="800.0" font-family="Tahoma" font-size="12" transform="rotate(90 1830,800.0)" text-rendering="optimizeSpeed" fill="#000000">external-monitor-job (70080)</text>
  <rect fill="blue" height="703.1" stroke="black" width="12" x="1845" y="91.9"/>
  <text x="1845" y="800.0" font-family="Tahoma" font-size="12" transform="rotate(90 1845,800.0)" text-rendering="optimizeSpeed" fill="#000000">cvs (70307)</text>
  <rect fill="blue" height="723.6" stroke="black" width="12" x="1860" y="71.3"/>
  <text x="1860" y="800.0" font-family="Tahoma" font-size="12" transform="rotate(90 1860,800.0)" text-rendering="optimizeSpeed" fill="#000000">translation (72363)</text>
  <rect fill="blue" height="729.7" stroke="black" width="12" x="1875" y="65.3"/>
  <text x="1875" y="800.0" font-family="Tahoma" font-size="12" transform="rotate(90 1875,800.0)" text-rendering="optimizeSpeed" fill="#000000">ant (72969)</text>
  <rect fill="blue" height="732.2" stroke="black" width="12" x="1890" y="62.8"/>
  <text x="1890" y="800.0" font-family="Tahoma" font-size="12" transform="rotate(90 1890,800.0)" text-rendering="optimizeSpeed" fill="#000000">subversion (73219)</text>
  <rect fill="blue" height="735.0" stroke="black" width="12" x="1905" y="60.0"/>
  <text x="1905" y="800.0" font-family="Tahoma" font-size="12" transform="rotate(90 1905,800.0)" text-rendering="optimizeSpeed" fill="#000000">javadoc (73498)</text>
  <rect fill="blue" height="741.5" stroke="black" width="12" x="1920" y="53.4"/>
  <text x="1920" y="800.0" font-family="Tahoma" font-size="12" transform="rotate(90 1920,800.0)" text-rendering="optimizeSpeed" fill="#000000">maven-plugin (74155)</text>
  <rect fill="blue" height="745.0" stroke="black" width="12" x="1935" y="50.0"/>
  <text x="1935" y="800.0" font-family="Tahoma" font-size="12" transform="rotate(90 1935,800.0)" text-rendering="optimizeSpeed" fill="#000000">ssh-slaves (74495)</text>
  <text x="10" y="40" font-family="Tahoma" font-size="20" text-rendering="optimizeSpeed" fill="#000000">Plugin installations (installations &gt; 2500)</text>
</svg>
