<svg xmlns="http://www.w3.org/2000/svg" version="1.1" preserveAspectRatio="xMidYMid meet" viewBox="0 0 425 6681.0">
  <rect fill="blue" height="0.0" stroke="black" width="12" x="15" y="6381.0"/>
  <text x="15" y="6386.0" font-family="Tahoma" font-size="12" transform="rotate(90 15,6386.0)" text-rendering="optimizeSpeed" fill="#000000">hudson-drools-DroolsProject (1)</text>
  <rect fill="blue" height="0.0" stroke="black" width="12" x="30" y="6381.0"/>
  <text x="30" y="6386.0" font-family="Tahoma" font-size="12" transform="rotate(90 30,6386.0)" text-rendering="optimizeSpeed" fill="#000000">org-jenkinsci-plugins-performance_receiver-PerformanceProject (1)</text>
  <rect fill="blue" height="0.0" stroke="black" width="12" x="45" y="6381.0"/>
  <text x="45" y="6386.0" font-family="Tahoma" font-size="12" transform="rotate(90 45,6386.0)" text-rendering="optimizeSpeed" fill="#000000">org-jenkinsci-plugins-SyncSources-MonitoringJobsProject (2)</text>
  <rect fill="blue" height="0.0" stroke="black" width="12" x="60" y="6381.0"/>
  <text x="60" y="6386.0" font-family="Tahoma" font-size="12" transform="rotate(90 60,6386.0)" text-rendering="optimizeSpeed" fill="#000000">org-jenkinsci-plugins-SyncSources-PreparationDailyProject (2)</text>
  <rect fill="blue" height="0.0" stroke="black" width="12" x="75" y="6381.0"/>
  <text x="75" y="6386.0" font-family="Tahoma" font-size="12" transform="rotate(90 75,6386.0)" text-rendering="optimizeSpeed" fill="#000000">org-jvnet-hudson-test-MockFolder (5)</text>
  <rect fill="blue" height="0.0" stroke="black" width="12" x="90" y="6381.0"/>
  <text x="90" y="6386.0" font-family="Tahoma" font-size="12" transform="rotate(90 90,6386.0)" text-rendering="optimizeSpeed" fill="#000000">org-jenkinsci-plugins-buildr-BuildrProject (7)</text>
  <rect fill="blue" height="0.0" stroke="black" width="12" x="105" y="6381.0"/>
  <text x="105" y="6386.0" font-family="Tahoma" font-size="12" transform="rotate(90 105,6386.0)" text-rendering="optimizeSpeed" fill="#000000">org-jenkinsci-plugins-utsnode-UTSNode (8)</text>
  <rect fill="blue" height="0.0" stroke="black" width="12" x="120" y="6381.0"/>
  <text x="120" y="6386.0" font-family="Tahoma" font-size="12" transform="rotate(90 120,6386.0)" text-rendering="optimizeSpeed" fill="#000000">hudson-model-RunOnceProject (9)</text>
  <rect fill="blue" height="0.0" stroke="black" width="12" x="135" y="6381.0"/>
  <text x="135" y="6386.0" font-family="Tahoma" font-size="12" transform="rotate(90 135,6386.0)" text-rendering="optimizeSpeed" fill="#000000">org-jenkinsci-plugins-drupal-projects-DrupalProject (11)</text>
  <rect fill="blue" height="0.0" stroke="black" width="12" x="150" y="6381.0"/>
  <text x="150" y="6386.0" font-family="Tahoma" font-size="12" transform="rotate(90 150,6386.0)" text-rendering="optimizeSpeed" fill="#000000">org-jenkinsci-plugins-SyncSources-MakeFirProject (30)</text>
  <rect fill="blue" height="0.0" stroke="black" width="12" x="165" y="6381.0"/>
  <text x="165" y="6386.0" font-family="Tahoma" font-size="12" transform="rotate(90 165,6386.0)" text-rendering="optimizeSpeed" fill="#000000">org-jenkinsci-plugins-SyncSources-MakeProject (30)</text>
  <rect fill="blue" height="0.0" stroke="black" width="12" x="180" y="6381.0"/>
  <text x="180" y="6386.0" font-family="Tahoma" font-size="12" transform="rotate(90 180,6386.0)" text-rendering="optimizeSpeed" fill="#000000">org-jenkinsci-plugins-SyncSources-PreShelveProject (30)</text>
  <rect fill="blue" height="0.1" stroke="black" width="12" x="195" y="6381.0"/>
  <text x="195" y="6386.0" font-family="Tahoma" font-size="12" transform="rotate(90 195,6386.0)" text-rendering="optimizeSpeed" fill="#000000">org-jenkinsci-plugins-coordinator-model-CoordinatorProject (65)</text>
  <rect fill="blue" height="0.1" stroke="black" width="12" x="210" y="6381.0"/>
  <text x="210" y="6386.0" font-family="Tahoma" font-size="12" transform="rotate(90 210,6386.0)" text-rendering="optimizeSpeed" fill="#000000">org-jenkinsci-plugins-greenproject-GreenProject (78)</text>
  <rect fill="blue" height="0.1" stroke="black" width="12" x="225" y="6380.9"/>
  <text x="225" y="6386.0" font-family="Tahoma" font-size="12" transform="rotate(90 225,6386.0)" text-rendering="optimizeSpeed" fill="#000000">org-jenkinsci-plugins-spoontrigger-SpoonProject (97)</text>
  <rect fill="blue" height="0.2" stroke="black" width="12" x="240" y="6380.9"/>
  <text x="240" y="6386.0" font-family="Tahoma" font-size="12" transform="rotate(90 240,6386.0)" text-rendering="optimizeSpeed" fill="#000000">hudson-plugins-job_dependency-projects-MasterProject (168)</text>
  <rect fill="blue" height="0.3" stroke="black" width="12" x="255" y="6380.7"/>
  <text x="255" y="6386.0" font-family="Tahoma" font-size="12" transform="rotate(90 255,6386.0)" text-rendering="optimizeSpeed" fill="#000000">org-jenkinsci-plugins-workflow-multibranch-WorkflowMultiBranchProject (328)</text>
  <rect fill="blue" height="2.1" stroke="black" width="12" x="270" y="6379.0"/>
  <text x="270" y="6386.0" font-family="Tahoma" font-size="12" transform="rotate(90 270,6386.0)" text-rendering="optimizeSpeed" fill="#000000">org-jenkinsci-plugins-jobgenerator-JobGenerator (2073)</text>
  <rect fill="blue" height="3.4" stroke="black" width="12" x="285" y="6377.7"/>
  <text x="285" y="6386.0" font-family="Tahoma" font-size="12" transform="rotate(90 285,6386.0)" text-rendering="optimizeSpeed" fill="#000000">hudson-model-ExternalJob (3372)</text>
  <rect fill="blue" height="6.5" stroke="black" width="12" x="300" y="6374.5"/>
  <text x="300" y="6386.0" font-family="Tahoma" font-size="12" transform="rotate(90 300,6386.0)" text-rendering="optimizeSpeed" fill="#000000">hudson-ivy-IvyModuleSet (6540)</text>
  <rect fill="blue" height="8.9" stroke="black" width="12" x="315" y="6372.1"/>
  <text x="315" y="6386.0" font-family="Tahoma" font-size="12" transform="rotate(90 315,6386.0)" text-rendering="optimizeSpeed" fill="#000000">org-jenkinsci-plugins-workflow-job-WorkflowJob (8932)</text>
  <rect fill="blue" height="20.3" stroke="black" width="12" x="330" y="6360.7"/>
  <text x="330" y="6386.0" font-family="Tahoma" font-size="12" transform="rotate(90 330,6386.0)" text-rendering="optimizeSpeed" fill="#000000">hudson-plugins-project_inheritance-projects-InheritanceProject (20302)</text>
  <rect fill="blue" height="322.7" stroke="black" width="12" x="345" y="6058.4"/>
  <text x="345" y="6386.0" font-family="Tahoma" font-size="12" transform="rotate(90 345,6386.0)" text-rendering="optimizeSpeed" fill="#000000">hudson-matrix-MatrixProject (322685)</text>
  <rect fill="blue" height="1036.9" stroke="black" width="12" x="360" y="5344.1"/>
  <text x="360" y="6386.0" font-family="Tahoma" font-size="12" transform="rotate(90 360,6386.0)" text-rendering="optimizeSpeed" fill="#000000">hudson-maven-MavenModuleSet (1036893)</text>
  <rect fill="blue" height="6331.0" stroke="black" width="12" x="375" y="50.0"/>
  <text x="375" y="6386.0" font-family="Tahoma" font-size="12" transform="rotate(90 375,6386.0)" text-rendering="optimizeSpeed" fill="#000000">hudson-model-FreeStyleProject (6331038)</text>
  <text x="10" y="40" font-family="Tahoma" font-size="20" text-rendering="optimizeSpeed" fill="#000000">Jobs (total: 7732707)</text>
</svg>
