<svg xmlns="http://www.w3.org/2000/svg" version="1.1" preserveAspectRatio="xMidYMid meet" viewBox="0 0 2930 1507.3">
  <rect fill="blue" height="25.1" stroke="black" width="12" x="15" y="1182.2"/>
  <text x="15" y="1212.3" font-family="Tahoma" font-size="12" transform="rotate(90 15,1212.3)" text-rendering="optimizeSpeed" fill="#000000">ruby (2507)</text>
  <rect fill="blue" height="25.2" stroke="black" width="12" x="30" y="1182.1"/>
  <text x="30" y="1212.3" font-family="Tahoma" font-size="12" transform="rotate(90 30,1212.3)" text-rendering="optimizeSpeed" fill="#000000">mstestrunner (2520)</text>
  <rect fill="blue" height="25.3" stroke="black" width="12" x="45" y="1182.1"/>
  <text x="45" y="1212.3" font-family="Tahoma" font-size="12" transform="rotate(90 45,1212.3)" text-rendering="optimizeSpeed" fill="#000000">publish-over-cifs (2526)</text>
  <rect fill="blue" height="25.3" stroke="black" width="12" x="60" y="1182.0"/>
  <text x="60" y="1212.3" font-family="Tahoma" font-size="12" transform="rotate(90 60,1212.3)" text-rendering="optimizeSpeed" fill="#000000">clover (2531)</text>
  <rect fill="blue" height="25.4" stroke="black" width="12" x="75" y="1181.9"/>
  <text x="75" y="1212.3" font-family="Tahoma" font-size="12" transform="rotate(90 75,1212.3)" text-rendering="optimizeSpeed" fill="#000000">cron_column (2538)</text>
  <rect fill="blue" height="25.7" stroke="black" width="12" x="90" y="1181.6"/>
  <text x="90" y="1212.3" font-family="Tahoma" font-size="12" transform="rotate(90 90,1212.3)" text-rendering="optimizeSpeed" fill="#000000">emotional-jenkins-plugin (2570)</text>
  <rect fill="blue" height="25.8" stroke="black" width="12" x="105" y="1181.5"/>
  <text x="105" y="1212.3" font-family="Tahoma" font-size="12" transform="rotate(90 105,1212.3)" text-rendering="optimizeSpeed" fill="#000000">tfs (2583)</text>
  <rect fill="blue" height="25.9" stroke="black" width="12" x="120" y="1181.5"/>
  <text x="120" y="1212.3" font-family="Tahoma" font-size="12" transform="rotate(90 120,1212.3)" text-rendering="optimizeSpeed" fill="#000000">build-with-parameters (2586)</text>
  <rect fill="blue" height="25.9" stroke="black" width="12" x="135" y="1181.4"/>
  <text x="135" y="1212.3" font-family="Tahoma" font-size="12" transform="rotate(90 135,1212.3)" text-rendering="optimizeSpeed" fill="#000000">build-failure-analyzer (2591)</text>
  <rect fill="blue" height="26.1" stroke="black" width="12" x="150" y="1181.3"/>
  <text x="150" y="1212.3" font-family="Tahoma" font-size="12" transform="rotate(90 150,1212.3)" text-rendering="optimizeSpeed" fill="#000000">cucumber-reports (2605)</text>
  <rect fill="blue" height="26.1" stroke="black" width="12" x="165" y="1181.2"/>
  <text x="165" y="1212.3" font-family="Tahoma" font-size="12" transform="rotate(90 165,1212.3)" text-rendering="optimizeSpeed" fill="#000000">xvnc (2606)</text>
  <rect fill="blue" height="26.4" stroke="black" width="12" x="180" y="1180.9"/>
  <text x="180" y="1212.3" font-family="Tahoma" font-size="12" transform="rotate(90 180,1212.3)" text-rendering="optimizeSpeed" fill="#000000">preSCMbuildstep (2643)</text>
  <rect fill="blue" height="26.7" stroke="black" width="12" x="195" y="1180.6"/>
  <text x="195" y="1212.3" font-family="Tahoma" font-size="12" transform="rotate(90 195,1212.3)" text-rendering="optimizeSpeed" fill="#000000">job-dsl (2667)</text>
  <rect fill="blue" height="27.4" stroke="black" width="12" x="210" y="1180.0"/>
  <text x="210" y="1212.3" font-family="Tahoma" font-size="12" transform="rotate(90 210,1212.3)" text-rendering="optimizeSpeed" fill="#000000">project-stats-plugin (2736)</text>
  <rect fill="blue" height="27.5" stroke="black" width="12" x="225" y="1179.8"/>
  <text x="225" y="1212.3" font-family="Tahoma" font-size="12" transform="rotate(90 225,1212.3)" text-rendering="optimizeSpeed" fill="#000000">jenkinswalldisplay (2748)</text>
  <rect fill="blue" height="27.6" stroke="black" width="12" x="240" y="1179.7"/>
  <text x="240" y="1212.3" font-family="Tahoma" font-size="12" transform="rotate(90 240,1212.3)" text-rendering="optimizeSpeed" fill="#000000">next-executions (2759)</text>
  <rect fill="blue" height="27.6" stroke="black" width="12" x="255" y="1179.7"/>
  <text x="255" y="1212.3" font-family="Tahoma" font-size="12" transform="rotate(90 255,1212.3)" text-rendering="optimizeSpeed" fill="#000000">jenkins-jira-issue-updater (2762)</text>
  <rect fill="blue" height="27.9" stroke="black" width="12" x="270" y="1179.4"/>
  <text x="270" y="1212.3" font-family="Tahoma" font-size="12" transform="rotate(90 270,1212.3)" text-rendering="optimizeSpeed" fill="#000000">plain-credentials (2789)</text>
  <rect fill="blue" height="28.2" stroke="black" width="12" x="285" y="1179.1"/>
  <text x="285" y="1212.3" font-family="Tahoma" font-size="12" transform="rotate(90 285,1212.3)" text-rendering="optimizeSpeed" fill="#000000">ftppublisher (2818)</text>
  <rect fill="blue" height="28.2" stroke="black" width="12" x="300" y="1179.1"/>
  <text x="300" y="1212.3" font-family="Tahoma" font-size="12" transform="rotate(90 300,1212.3)" text-rendering="optimizeSpeed" fill="#000000">s3 (2819)</text>
  <rect fill="blue" height="28.3" stroke="black" width="12" x="315" y="1179.1"/>
  <text x="315" y="1212.3" font-family="Tahoma" font-size="12" transform="rotate(90 315,1212.3)" text-rendering="optimizeSpeed" fill="#000000">workflow-step-api (2826)</text>
  <rect fill="blue" height="28.6" stroke="black" width="12" x="330" y="1178.7"/>
  <text x="330" y="1212.3" font-family="Tahoma" font-size="12" transform="rotate(90 330,1212.3)" text-rendering="optimizeSpeed" fill="#000000">PrioritySorter (2863)</text>
  <rect fill="blue" height="28.8" stroke="black" width="12" x="345" y="1178.5"/>
  <text x="345" y="1212.3" font-family="Tahoma" font-size="12" transform="rotate(90 345,1212.3)" text-rendering="optimizeSpeed" fill="#000000">radiatorviewplugin (2879)</text>
  <rect fill="blue" height="29.0" stroke="black" width="12" x="360" y="1178.3"/>
  <text x="360" y="1212.3" font-family="Tahoma" font-size="12" transform="rotate(90 360,1212.3)" text-rendering="optimizeSpeed" fill="#000000">compact-columns (2903)</text>
  <rect fill="blue" height="29.1" stroke="black" width="12" x="375" y="1178.2"/>
  <text x="375" y="1212.3" font-family="Tahoma" font-size="12" transform="rotate(90 375,1212.3)" text-rendering="optimizeSpeed" fill="#000000">cloudbees-folder (2909)</text>
  <rect fill="blue" height="29.1" stroke="black" width="12" x="390" y="1178.2"/>
  <text x="390" y="1212.3" font-family="Tahoma" font-size="12" transform="rotate(90 390,1212.3)" text-rendering="optimizeSpeed" fill="#000000">gravatar (2912)</text>
  <rect fill="blue" height="29.4" stroke="black" width="12" x="405" y="1177.9"/>
  <text x="405" y="1212.3" font-family="Tahoma" font-size="12" transform="rotate(90 405,1212.3)" text-rendering="optimizeSpeed" fill="#000000">sectioned-view (2941)</text>
  <rect fill="blue" height="29.7" stroke="black" width="12" x="420" y="1177.6"/>
  <text x="420" y="1212.3" font-family="Tahoma" font-size="12" transform="rotate(90 420,1212.3)" text-rendering="optimizeSpeed" fill="#000000">clone-workspace-scm (2971)</text>
  <rect fill="blue" height="29.8" stroke="black" width="12" x="435" y="1177.5"/>
  <text x="435" y="1212.3" font-family="Tahoma" font-size="12" transform="rotate(90 435,1212.3)" text-rendering="optimizeSpeed" fill="#000000">bitbucket (2979)</text>
  <rect fill="blue" height="30.0" stroke="black" width="12" x="450" y="1177.3"/>
  <text x="450" y="1212.3" font-family="Tahoma" font-size="12" transform="rotate(90 450,1212.3)" text-rendering="optimizeSpeed" fill="#000000">batch-task (2997)</text>
  <rect fill="blue" height="30.3" stroke="black" width="12" x="465" y="1177.0"/>
  <text x="465" y="1212.3" font-family="Tahoma" font-size="12" transform="rotate(90 465,1212.3)" text-rendering="optimizeSpeed" fill="#000000">Parameterized-Remote-Trigger (3027)</text>
  <rect fill="blue" height="30.4" stroke="black" width="12" x="480" y="1177.0"/>
  <text x="480" y="1212.3" font-family="Tahoma" font-size="12" transform="rotate(90 480,1212.3)" text-rendering="optimizeSpeed" fill="#000000">rake (3035)</text>
  <rect fill="blue" height="30.7" stroke="black" width="12" x="495" y="1176.6"/>
  <text x="495" y="1212.3" font-family="Tahoma" font-size="12" transform="rotate(90 495,1212.3)" text-rendering="optimizeSpeed" fill="#000000">show-build-parameters (3071)</text>
  <rect fill="blue" height="31.4" stroke="black" width="12" x="510" y="1175.9"/>
  <text x="510" y="1212.3" font-family="Tahoma" font-size="12" transform="rotate(90 510,1212.3)" text-rendering="optimizeSpeed" fill="#000000">naginator (3140)</text>
  <rect fill="blue" height="31.5" stroke="black" width="12" x="525" y="1175.8"/>
  <text x="525" y="1212.3" font-family="Tahoma" font-size="12" transform="rotate(90 525,1212.3)" text-rendering="optimizeSpeed" fill="#000000">extensible-choice-parameter (3151)</text>
  <rect fill="blue" height="31.6" stroke="black" width="12" x="540" y="1175.7"/>
  <text x="540" y="1212.3" font-family="Tahoma" font-size="12" transform="rotate(90 540,1212.3)" text-rendering="optimizeSpeed" fill="#000000">gitlab-plugin (3157)</text>
  <rect fill="blue" height="32.4" stroke="black" width="12" x="555" y="1175.0"/>
  <text x="555" y="1212.3" font-family="Tahoma" font-size="12" transform="rotate(90 555,1212.3)" text-rendering="optimizeSpeed" fill="#000000">all-changes (3236)</text>
  <rect fill="blue" height="33.0" stroke="black" width="12" x="570" y="1174.3"/>
  <text x="570" y="1212.3" font-family="Tahoma" font-size="12" transform="rotate(90 570,1212.3)" text-rendering="optimizeSpeed" fill="#000000">doxygen (3303)</text>
  <rect fill="blue" height="33.2" stroke="black" width="12" x="585" y="1174.1"/>
  <text x="585" y="1212.3" font-family="Tahoma" font-size="12" transform="rotate(90 585,1212.3)" text-rendering="optimizeSpeed" fill="#000000">scm-sync-configuration (3317)</text>
  <rect fill="blue" height="33.7" stroke="black" width="12" x="600" y="1173.6"/>
  <text x="600" y="1212.3" font-family="Tahoma" font-size="12" transform="rotate(90 600,1212.3)" text-rendering="optimizeSpeed" fill="#000000">mstest (3374)</text>
  <rect fill="blue" height="34.5" stroke="black" width="12" x="615" y="1172.8"/>
  <text x="615" y="1212.3" font-family="Tahoma" font-size="12" transform="rotate(90 615,1212.3)" text-rendering="optimizeSpeed" fill="#000000">cppcheck (3452)</text>
  <rect fill="blue" height="34.7" stroke="black" width="12" x="630" y="1172.6"/>
  <text x="630" y="1212.3" font-family="Tahoma" font-size="12" transform="rotate(90 630,1212.3)" text-rendering="optimizeSpeed" fill="#000000">locale (3473)</text>
  <rect fill="blue" height="34.8" stroke="black" width="12" x="645" y="1172.5"/>
  <text x="645" y="1212.3" font-family="Tahoma" font-size="12" transform="rotate(90 645,1212.3)" text-rendering="optimizeSpeed" fill="#000000">durable-task (3483)</text>
  <rect fill="blue" height="35.3" stroke="black" width="12" x="660" y="1172.0"/>
  <text x="660" y="1212.3" font-family="Tahoma" font-size="12" transform="rotate(90 660,1212.3)" text-rendering="optimizeSpeed" fill="#000000">embeddable-build-status (3527)</text>
  <rect fill="blue" height="35.5" stroke="black" width="12" x="675" y="1171.8"/>
  <text x="675" y="1212.3" font-family="Tahoma" font-size="12" transform="rotate(90 675,1212.3)" text-rendering="optimizeSpeed" fill="#000000">gerrit-trigger (3550)</text>
  <rect fill="blue" height="36.1" stroke="black" width="12" x="690" y="1171.2"/>
  <text x="690" y="1212.3" font-family="Tahoma" font-size="12" transform="rotate(90 690,1212.3)" text-rendering="optimizeSpeed" fill="#000000">locks-and-latches (3613)</text>
  <rect fill="blue" height="36.2" stroke="black" width="12" x="705" y="1171.1"/>
  <text x="705" y="1212.3" font-family="Tahoma" font-size="12" transform="rotate(90 705,1212.3)" text-rendering="optimizeSpeed" fill="#000000">gitlab-hook (3618)</text>
  <rect fill="blue" height="36.7" stroke="black" width="12" x="720" y="1170.6"/>
  <text x="720" y="1212.3" font-family="Tahoma" font-size="12" transform="rotate(90 720,1212.3)" text-rendering="optimizeSpeed" fill="#000000">xvfb (3667)</text>
  <rect fill="blue" height="36.7" stroke="black" width="12" x="735" y="1170.6"/>
  <text x="735" y="1212.3" font-family="Tahoma" font-size="12" transform="rotate(90 735,1212.3)" text-rendering="optimizeSpeed" fill="#000000">dynamicparameter (3671)</text>
  <rect fill="blue" height="37.3" stroke="black" width="12" x="750" y="1170.0"/>
  <text x="750" y="1212.3" font-family="Tahoma" font-size="12" transform="rotate(90 750,1212.3)" text-rendering="optimizeSpeed" fill="#000000">console-column-plugin (3731)</text>
  <rect fill="blue" height="37.3" stroke="black" width="12" x="765" y="1170.0"/>
  <text x="765" y="1212.3" font-family="Tahoma" font-size="12" transform="rotate(90 765,1212.3)" text-rendering="optimizeSpeed" fill="#000000">release (3732)</text>
  <rect fill="blue" height="38.0" stroke="black" width="12" x="780" y="1169.3"/>
  <text x="780" y="1212.3" font-family="Tahoma" font-size="12" transform="rotate(90 780,1212.3)" text-rendering="optimizeSpeed" fill="#000000">versionnumber (3800)</text>
  <rect fill="blue" height="38.4" stroke="black" width="12" x="795" y="1169.0"/>
  <text x="795" y="1212.3" font-family="Tahoma" font-size="12" transform="rotate(90 795,1212.3)" text-rendering="optimizeSpeed" fill="#000000">android-emulator (3835)</text>
  <rect fill="blue" height="39.0" stroke="black" width="12" x="810" y="1168.3"/>
  <text x="810" y="1212.3" font-family="Tahoma" font-size="12" transform="rotate(90 810,1212.3)" text-rendering="optimizeSpeed" fill="#000000">delivery-pipeline-plugin (3900)</text>
  <rect fill="blue" height="39.2" stroke="black" width="12" x="825" y="1168.1"/>
  <text x="825" y="1212.3" font-family="Tahoma" font-size="12" transform="rotate(90 825,1212.3)" text-rendering="optimizeSpeed" fill="#000000">claim (3922)</text>
  <rect fill="blue" height="40.0" stroke="black" width="12" x="840" y="1167.3"/>
  <text x="840" y="1212.3" font-family="Tahoma" font-size="12" transform="rotate(90 840,1212.3)" text-rendering="optimizeSpeed" fill="#000000">sidebar-link (4000)</text>
  <rect fill="blue" height="40.0" stroke="black" width="12" x="855" y="1167.3"/>
  <text x="855" y="1212.3" font-family="Tahoma" font-size="12" transform="rotate(90 855,1212.3)" text-rendering="optimizeSpeed" fill="#000000">audit-trail (4001)</text>
  <rect fill="blue" height="40.6" stroke="black" width="12" x="870" y="1166.7"/>
  <text x="870" y="1212.3" font-family="Tahoma" font-size="12" transform="rotate(90 870,1212.3)" text-rendering="optimizeSpeed" fill="#000000">downstream-buildview (4065)</text>
  <rect fill="blue" height="41.5" stroke="black" width="12" x="885" y="1165.8"/>
  <text x="885" y="1212.3" font-family="Tahoma" font-size="12" transform="rotate(90 885,1212.3)" text-rendering="optimizeSpeed" fill="#000000">testng-plugin (4154)</text>
  <rect fill="blue" height="41.6" stroke="black" width="12" x="900" y="1165.7"/>
  <text x="900" y="1212.3" font-family="Tahoma" font-size="12" transform="rotate(90 900,1212.3)" text-rendering="optimizeSpeed" fill="#000000">svn-tag (4158)</text>
  <rect fill="blue" height="41.7" stroke="black" width="12" x="915" y="1165.6"/>
  <text x="915" y="1212.3" font-family="Tahoma" font-size="12" transform="rotate(90 915,1212.3)" text-rendering="optimizeSpeed" fill="#000000">perforce (4170)</text>
  <rect fill="blue" height="41.8" stroke="black" width="12" x="930" y="1165.5"/>
  <text x="930" y="1212.3" font-family="Tahoma" font-size="12" transform="rotate(90 930,1212.3)" text-rendering="optimizeSpeed" fill="#000000">saferestart (4178)</text>
  <rect fill="blue" height="41.9" stroke="black" width="12" x="945" y="1165.4"/>
  <text x="945" y="1212.3" font-family="Tahoma" font-size="12" transform="rotate(90 945,1212.3)" text-rendering="optimizeSpeed" fill="#000000">hipchat (4194)</text>
  <rect fill="blue" height="42.3" stroke="black" width="12" x="960" y="1165.0"/>
  <text x="960" y="1212.3" font-family="Tahoma" font-size="12" transform="rotate(90 960,1212.3)" text-rendering="optimizeSpeed" fill="#000000">build-blocker-plugin (4227)</text>
  <rect fill="blue" height="43.0" stroke="black" width="12" x="975" y="1164.3"/>
  <text x="975" y="1212.3" font-family="Tahoma" font-size="12" transform="rotate(90 975,1212.3)" text-rendering="optimizeSpeed" fill="#000000">build-user-vars-plugin (4305)</text>
  <rect fill="blue" height="43.4" stroke="black" width="12" x="990" y="1163.9"/>
  <text x="990" y="1212.3" font-family="Tahoma" font-size="12" transform="rotate(90 990,1212.3)" text-rendering="optimizeSpeed" fill="#000000">publish-over-ftp (4340)</text>
  <rect fill="blue" height="44.3" stroke="black" width="12" x="1005" y="1163.0"/>
  <text x="1005" y="1212.3" font-family="Tahoma" font-size="12" transform="rotate(90 1005,1212.3)" text-rendering="optimizeSpeed" fill="#000000">cloverphp (4427)</text>
  <rect fill="blue" height="44.6" stroke="black" width="12" x="1020" y="1162.7"/>
  <text x="1020" y="1212.3" font-family="Tahoma" font-size="12" transform="rotate(90 1020,1212.3)" text-rendering="optimizeSpeed" fill="#000000">flexible-publish (4463)</text>
  <rect fill="blue" height="44.8" stroke="black" width="12" x="1035" y="1162.5"/>
  <text x="1035" y="1212.3" font-family="Tahoma" font-size="12" transform="rotate(90 1035,1212.3)" text-rendering="optimizeSpeed" fill="#000000">jdepend (4484)</text>
  <rect fill="blue" height="44.9" stroke="black" width="12" x="1050" y="1162.4"/>
  <text x="1050" y="1212.3" font-family="Tahoma" font-size="12" transform="rotate(90 1050,1212.3)" text-rendering="optimizeSpeed" fill="#000000">github-oauth (4489)</text>
  <rect fill="blue" height="44.9" stroke="black" width="12" x="1065" y="1162.4"/>
  <text x="1065" y="1212.3" font-family="Tahoma" font-size="12" transform="rotate(90 1065,1212.3)" text-rendering="optimizeSpeed" fill="#000000">global-build-stats (4491)</text>
  <rect fill="blue" height="46.2" stroke="black" width="12" x="1080" y="1161.1"/>
  <text x="1080" y="1212.3" font-family="Tahoma" font-size="12" transform="rotate(90 1080,1212.3)" text-rendering="optimizeSpeed" fill="#000000">next-build-number (4619)</text>
  <rect fill="blue" height="46.3" stroke="black" width="12" x="1095" y="1161.0"/>
  <text x="1095" y="1212.3" font-family="Tahoma" font-size="12" transform="rotate(90 1095,1212.3)" text-rendering="optimizeSpeed" fill="#000000">powershell (4632)</text>
  <rect fill="blue" height="46.5" stroke="black" width="12" x="1110" y="1160.8"/>
  <text x="1110" y="1212.3" font-family="Tahoma" font-size="12" transform="rotate(90 1110,1212.3)" text-rendering="optimizeSpeed" fill="#000000">depgraph-view (4652)</text>
  <rect fill="blue" height="46.6" stroke="black" width="12" x="1125" y="1160.8"/>
  <text x="1125" y="1212.3" font-family="Tahoma" font-size="12" transform="rotate(90 1125,1212.3)" text-rendering="optimizeSpeed" fill="#000000">job-import-plugin (4656)</text>
  <rect fill="blue" height="47.4" stroke="black" width="12" x="1140" y="1159.9"/>
  <text x="1140" y="1212.3" font-family="Tahoma" font-size="12" transform="rotate(90 1140,1212.3)" text-rendering="optimizeSpeed" fill="#000000">tasks (4743)</text>
  <rect fill="blue" height="47.6" stroke="black" width="12" x="1155" y="1159.7"/>
  <text x="1155" y="1212.3" font-family="Tahoma" font-size="12" transform="rotate(90 1155,1212.3)" text-rendering="optimizeSpeed" fill="#000000">text-finder (4758)</text>
  <rect fill="blue" height="47.7" stroke="black" width="12" x="1170" y="1159.6"/>
  <text x="1170" y="1212.3" font-family="Tahoma" font-size="12" transform="rotate(90 1170,1212.3)" text-rendering="optimizeSpeed" fill="#000000">nodejs (4774)</text>
  <rect fill="blue" height="47.8" stroke="black" width="12" x="1185" y="1159.5"/>
  <text x="1185" y="1212.3" font-family="Tahoma" font-size="12" transform="rotate(90 1185,1212.3)" text-rendering="optimizeSpeed" fill="#000000">nunit (4781)</text>
  <rect fill="blue" height="48.7" stroke="black" width="12" x="1200" y="1158.6"/>
  <text x="1200" y="1212.3" font-family="Tahoma" font-size="12" transform="rotate(90 1200,1212.3)" text-rendering="optimizeSpeed" fill="#000000">port-allocator (4872)</text>
  <rect fill="blue" height="48.8" stroke="black" width="12" x="1215" y="1158.5"/>
  <text x="1215" y="1212.3" font-family="Tahoma" font-size="12" transform="rotate(90 1215,1212.3)" text-rendering="optimizeSpeed" fill="#000000">postbuildscript (4878)</text>
  <rect fill="blue" height="50.0" stroke="black" width="12" x="1230" y="1157.3"/>
  <text x="1230" y="1212.3" font-family="Tahoma" font-size="12" transform="rotate(90 1230,1212.3)" text-rendering="optimizeSpeed" fill="#000000">ghprb (5003)</text>
  <rect fill="blue" height="50.1" stroke="black" width="12" x="1245" y="1157.2"/>
  <text x="1245" y="1212.3" font-family="Tahoma" font-size="12" transform="rotate(90 1245,1212.3)" text-rendering="optimizeSpeed" fill="#000000">description-setter (5010)</text>
  <rect fill="blue" height="50.2" stroke="black" width="12" x="1260" y="1157.1"/>
  <text x="1260" y="1212.3" font-family="Tahoma" font-size="12" transform="rotate(90 1260,1212.3)" text-rendering="optimizeSpeed" fill="#000000">mercurial (5020)</text>
  <rect fill="blue" height="50.5" stroke="black" width="12" x="1275" y="1156.8"/>
  <text x="1275" y="1212.3" font-family="Tahoma" font-size="12" transform="rotate(90 1275,1212.3)" text-rendering="optimizeSpeed" fill="#000000">emma (5055)</text>
  <rect fill="blue" height="50.7" stroke="black" width="12" x="1290" y="1156.6"/>
  <text x="1290" y="1212.3" font-family="Tahoma" font-size="12" transform="rotate(90 1290,1212.3)" text-rendering="optimizeSpeed" fill="#000000">configurationslicing (5070)</text>
  <rect fill="blue" height="51.0" stroke="black" width="12" x="1305" y="1156.3"/>
  <text x="1305" y="1212.3" font-family="Tahoma" font-size="12" transform="rotate(90 1305,1212.3)" text-rendering="optimizeSpeed" fill="#000000">extra-columns (5103)</text>
  <rect fill="blue" height="52.0" stroke="black" width="12" x="1320" y="1155.4"/>
  <text x="1320" y="1212.3" font-family="Tahoma" font-size="12" transform="rotate(90 1320,1212.3)" text-rendering="optimizeSpeed" fill="#000000">scriptler (5196)</text>
  <rect fill="blue" height="52.3" stroke="black" width="12" x="1335" y="1155.0"/>
  <text x="1335" y="1212.3" font-family="Tahoma" font-size="12" transform="rotate(90 1335,1212.3)" text-rendering="optimizeSpeed" fill="#000000">python (5229)</text>
  <rect fill="blue" height="52.6" stroke="black" width="12" x="1350" y="1154.7"/>
  <text x="1350" y="1212.3" font-family="Tahoma" font-size="12" transform="rotate(90 1350,1212.3)" text-rendering="optimizeSpeed" fill="#000000">mask-passwords (5257)</text>
  <rect fill="blue" height="53.6" stroke="black" width="12" x="1365" y="1153.7"/>
  <text x="1365" y="1212.3" font-family="Tahoma" font-size="12" transform="rotate(90 1365,1212.3)" text-rendering="optimizeSpeed" fill="#000000">buildgraph-view (5365)</text>
  <rect fill="blue" height="53.7" stroke="black" width="12" x="1380" y="1153.6"/>
  <text x="1380" y="1212.3" font-family="Tahoma" font-size="12" transform="rotate(90 1380,1212.3)" text-rendering="optimizeSpeed" fill="#000000">groovy-postbuild (5374)</text>
  <rect fill="blue" height="53.9" stroke="black" width="12" x="1395" y="1153.5"/>
  <text x="1395" y="1212.3" font-family="Tahoma" font-size="12" transform="rotate(90 1395,1212.3)" text-rendering="optimizeSpeed" fill="#000000">xcode-plugin (5385)</text>
  <rect fill="blue" height="54.7" stroke="black" width="12" x="1410" y="1152.6"/>
  <text x="1410" y="1212.3" font-family="Tahoma" font-size="12" transform="rotate(90 1410,1212.3)" text-rendering="optimizeSpeed" fill="#000000">join (5472)</text>
  <rect fill="blue" height="55.6" stroke="black" width="12" x="1425" y="1151.7"/>
  <text x="1425" y="1212.3" font-family="Tahoma" font-size="12" transform="rotate(90 1425,1212.3)" text-rendering="optimizeSpeed" fill="#000000">instant-messaging (5565)</text>
  <rect fill="blue" height="58.1" stroke="black" width="12" x="1440" y="1149.2"/>
  <text x="1440" y="1212.3" font-family="Tahoma" font-size="12" transform="rotate(90 1440,1212.3)" text-rendering="optimizeSpeed" fill="#000000">throttle-concurrents (5812)</text>
  <rect fill="blue" height="59.4" stroke="black" width="12" x="1455" y="1147.9"/>
  <text x="1455" y="1212.3" font-family="Tahoma" font-size="12" transform="rotate(90 1455,1212.3)" text-rendering="optimizeSpeed" fill="#000000">backup (5938)</text>
  <rect fill="blue" height="59.8" stroke="black" width="12" x="1470" y="1147.6"/>
  <text x="1470" y="1212.3" font-family="Tahoma" font-size="12" transform="rotate(90 1470,1212.3)" text-rendering="optimizeSpeed" fill="#000000">jacoco (5975)</text>
  <rect fill="blue" height="60.8" stroke="black" width="12" x="1485" y="1146.5"/>
  <text x="1485" y="1212.3" font-family="Tahoma" font-size="12" transform="rotate(90 1485,1212.3)" text-rendering="optimizeSpeed" fill="#000000">m2release (6082)</text>
  <rect fill="blue" height="61.0" stroke="black" width="12" x="1500" y="1146.3"/>
  <text x="1500" y="1212.3" font-family="Tahoma" font-size="12" transform="rotate(90 1500,1212.3)" text-rendering="optimizeSpeed" fill="#000000">scp (6097)</text>
  <rect fill="blue" height="61.4" stroke="black" width="12" x="1515" y="1145.9"/>
  <text x="1515" y="1212.3" font-family="Tahoma" font-size="12" transform="rotate(90 1515,1212.3)" text-rendering="optimizeSpeed" fill="#000000">nested-view (6140)</text>
  <rect fill="blue" height="62.6" stroke="black" width="12" x="1530" y="1144.7"/>
  <text x="1530" y="1212.3" font-family="Tahoma" font-size="12" transform="rotate(90 1530,1212.3)" text-rendering="optimizeSpeed" fill="#000000">simple-theme-plugin (6262)</text>
  <rect fill="blue" height="62.8" stroke="black" width="12" x="1545" y="1144.5"/>
  <text x="1545" y="1212.3" font-family="Tahoma" font-size="12" transform="rotate(90 1545,1212.3)" text-rendering="optimizeSpeed" fill="#000000">build-flow-plugin (6278)</text>
  <rect fill="blue" height="63.9" stroke="black" width="12" x="1560" y="1143.4"/>
  <text x="1560" y="1212.3" font-family="Tahoma" font-size="12" transform="rotate(90 1560,1212.3)" text-rendering="optimizeSpeed" fill="#000000">nodelabelparameter (6390)</text>
  <rect fill="blue" height="64.2" stroke="black" width="12" x="1575" y="1143.1"/>
  <text x="1575" y="1212.3" font-family="Tahoma" font-size="12" transform="rotate(90 1575,1212.3)" text-rendering="optimizeSpeed" fill="#000000">build-monitor-plugin (6423)</text>
  <rect fill="blue" height="64.7" stroke="black" width="12" x="1590" y="1142.7"/>
  <text x="1590" y="1212.3" font-family="Tahoma" font-size="12" transform="rotate(90 1590,1212.3)" text-rendering="optimizeSpeed" fill="#000000">extended-choice-parameter (6466)</text>
  <rect fill="blue" height="64.9" stroke="black" width="12" x="1605" y="1142.4"/>
  <text x="1605" y="1212.3" font-family="Tahoma" font-size="12" transform="rotate(90 1605,1212.3)" text-rendering="optimizeSpeed" fill="#000000">performance (6492)</text>
  <rect fill="blue" height="65.5" stroke="black" width="12" x="1620" y="1141.8"/>
  <text x="1620" y="1212.3" font-family="Tahoma" font-size="12" transform="rotate(90 1620,1212.3)" text-rendering="optimizeSpeed" fill="#000000">config-file-provider (6549)</text>
  <rect fill="blue" height="66.7" stroke="black" width="12" x="1635" y="1140.7"/>
  <text x="1635" y="1212.3" font-family="Tahoma" font-size="12" transform="rotate(90 1635,1212.3)" text-rendering="optimizeSpeed" fill="#000000">artifactory (6666)</text>
  <rect fill="blue" height="66.7" stroke="black" width="12" x="1650" y="1140.6"/>
  <text x="1650" y="1212.3" font-family="Tahoma" font-size="12" transform="rotate(90 1650,1212.3)" text-rendering="optimizeSpeed" fill="#000000">view-job-filters (6671)</text>
  <rect fill="blue" height="66.9" stroke="black" width="12" x="1665" y="1140.5"/>
  <text x="1665" y="1212.3" font-family="Tahoma" font-size="12" transform="rotate(90 1665,1212.3)" text-rendering="optimizeSpeed" fill="#000000">chucknorris (6686)</text>
  <rect fill="blue" height="67.1" stroke="black" width="12" x="1680" y="1140.2"/>
  <text x="1680" y="1212.3" font-family="Tahoma" font-size="12" transform="rotate(90 1680,1212.3)" text-rendering="optimizeSpeed" fill="#000000">copy-to-slave (6713)</text>
  <rect fill="blue" height="68.3" stroke="black" width="12" x="1695" y="1139.0"/>
  <text x="1695" y="1212.3" font-family="Tahoma" font-size="12" transform="rotate(90 1695,1212.3)" text-rendering="optimizeSpeed" fill="#000000">monitoring (6829)</text>
  <rect fill="blue" height="69.3" stroke="black" width="12" x="1710" y="1138.0"/>
  <text x="1710" y="1212.3" font-family="Tahoma" font-size="12" transform="rotate(90 1710,1212.3)" text-rendering="optimizeSpeed" fill="#000000">slack (6928)</text>
  <rect fill="blue" height="71.0" stroke="black" width="12" x="1725" y="1136.4"/>
  <text x="1725" y="1212.3" font-family="Tahoma" font-size="12" transform="rotate(90 1725,1212.3)" text-rendering="optimizeSpeed" fill="#000000">artifactdeployer (7096)</text>
  <rect fill="blue" height="71.7" stroke="black" width="12" x="1740" y="1135.7"/>
  <text x="1740" y="1212.3" font-family="Tahoma" font-size="12" transform="rotate(90 1740,1212.3)" text-rendering="optimizeSpeed" fill="#000000">git-parameter (7165)</text>
  <rect fill="blue" height="73.2" stroke="black" width="12" x="1755" y="1134.1"/>
  <text x="1755" y="1212.3" font-family="Tahoma" font-size="12" transform="rotate(90 1755,1212.3)" text-rendering="optimizeSpeed" fill="#000000">jquery-ui (7322)</text>
  <rect fill="blue" height="73.6" stroke="black" width="12" x="1770" y="1133.8"/>
  <text x="1770" y="1212.3" font-family="Tahoma" font-size="12" transform="rotate(90 1770,1212.3)" text-rendering="optimizeSpeed" fill="#000000">plot (7356)</text>
  <rect fill="blue" height="76.0" stroke="black" width="12" x="1785" y="1131.4"/>
  <text x="1785" y="1212.3" font-family="Tahoma" font-size="12" transform="rotate(90 1785,1212.3)" text-rendering="optimizeSpeed" fill="#000000">dry (7596)</text>
  <rect fill="blue" height="79.1" stroke="black" width="12" x="1800" y="1128.2"/>
  <text x="1800" y="1212.3" font-family="Tahoma" font-size="12" transform="rotate(90 1800,1212.3)" text-rendering="optimizeSpeed" fill="#000000">multiple-scms (7912)</text>
  <rect fill="blue" height="79.6" stroke="black" width="12" x="1815" y="1127.7"/>
  <text x="1815" y="1212.3" font-family="Tahoma" font-size="12" transform="rotate(90 1815,1212.3)" text-rendering="optimizeSpeed" fill="#000000">jenkins-multijob-plugin (7959)</text>
  <rect fill="blue" height="82.1" stroke="black" width="12" x="1830" y="1125.2"/>
  <text x="1830" y="1212.3" font-family="Tahoma" font-size="12" transform="rotate(90 1830,1212.3)" text-rendering="optimizeSpeed" fill="#000000">rebuild (8210)</text>
  <rect fill="blue" height="82.5" stroke="black" width="12" x="1845" y="1124.8"/>
  <text x="1845" y="1212.3" font-family="Tahoma" font-size="12" transform="rotate(90 1845,1212.3)" text-rendering="optimizeSpeed" fill="#000000">jira (8254)</text>
  <rect fill="blue" height="82.6" stroke="black" width="12" x="1860" y="1124.8"/>
  <text x="1860" y="1212.3" font-family="Tahoma" font-size="12" transform="rotate(90 1860,1212.3)" text-rendering="optimizeSpeed" fill="#000000">promoted-builds (8256)</text>
  <rect fill="blue" height="83.1" stroke="black" width="12" x="1875" y="1124.2"/>
  <text x="1875" y="1212.3" font-family="Tahoma" font-size="12" transform="rotate(90 1875,1212.3)" text-rendering="optimizeSpeed" fill="#000000">groovy (8307)</text>
  <rect fill="blue" height="83.9" stroke="black" width="12" x="1890" y="1123.5"/>
  <text x="1890" y="1212.3" font-family="Tahoma" font-size="12" transform="rotate(90 1890,1212.3)" text-rendering="optimizeSpeed" fill="#000000">build-name-setter (8386)</text>
  <rect fill="blue" height="87.0" stroke="black" width="12" x="1905" y="1120.3"/>
  <text x="1905" y="1212.3" font-family="Tahoma" font-size="12" transform="rotate(90 1905,1212.3)" text-rendering="optimizeSpeed" fill="#000000">log-parser (8702)</text>
  <rect fill="blue" height="88.4" stroke="black" width="12" x="1920" y="1118.9"/>
  <text x="1920" y="1212.3" font-family="Tahoma" font-size="12" transform="rotate(90 1920,1212.3)" text-rendering="optimizeSpeed" fill="#000000">analysis-collector (8844)</text>
  <rect fill="blue" height="90.2" stroke="black" width="12" x="1935" y="1117.1"/>
  <text x="1935" y="1212.3" font-family="Tahoma" font-size="12" transform="rotate(90 1935,1212.3)" text-rendering="optimizeSpeed" fill="#000000">git-server (9017)</text>
  <rect fill="blue" height="94.5" stroke="black" width="12" x="1950" y="1112.8"/>
  <text x="1950" y="1212.3" font-family="Tahoma" font-size="12" transform="rotate(90 1950,1212.3)" text-rendering="optimizeSpeed" fill="#000000">thinBackup (9450)</text>
  <rect fill="blue" height="95.7" stroke="black" width="12" x="1965" y="1111.6"/>
  <text x="1965" y="1212.3" font-family="Tahoma" font-size="12" transform="rotate(90 1965,1212.3)" text-rendering="optimizeSpeed" fill="#000000">ansicolor (9573)</text>
  <rect fill="blue" height="98.2" stroke="black" width="12" x="1980" y="1109.1"/>
  <text x="1980" y="1212.3" font-family="Tahoma" font-size="12" transform="rotate(90 1980,1212.3)" text-rendering="optimizeSpeed" fill="#000000">deploy (9821)</text>
  <rect fill="blue" height="100.7" stroke="black" width="12" x="1995" y="1106.7"/>
  <text x="1995" y="1212.3" font-family="Tahoma" font-size="12" transform="rotate(90 1995,1212.3)" text-rendering="optimizeSpeed" fill="#000000">warnings (10065)</text>
  <rect fill="blue" height="101.4" stroke="black" width="12" x="2010" y="1105.9"/>
  <text x="2010" y="1212.3" font-family="Tahoma" font-size="12" transform="rotate(90 2010,1212.3)" text-rendering="optimizeSpeed" fill="#000000">ruby-runtime (10137)</text>
  <rect fill="blue" height="102.5" stroke="black" width="12" x="2025" y="1104.9"/>
  <text x="2025" y="1212.3" font-family="Tahoma" font-size="12" transform="rotate(90 2025,1212.3)" text-rendering="optimizeSpeed" fill="#000000">findbugs (10246)</text>
  <rect fill="blue" height="104.8" stroke="black" width="12" x="2040" y="1102.6"/>
  <text x="2040" y="1212.3" font-family="Tahoma" font-size="12" transform="rotate(90 2040,1212.3)" text-rendering="optimizeSpeed" fill="#000000">role-strategy (10476)</text>
  <rect fill="blue" height="105.8" stroke="black" width="12" x="2055" y="1101.5"/>
  <text x="2055" y="1212.3" font-family="Tahoma" font-size="12" transform="rotate(90 2055,1212.3)" text-rendering="optimizeSpeed" fill="#000000">timestamper (10583)</text>
  <rect fill="blue" height="108.5" stroke="black" width="12" x="2070" y="1098.8"/>
  <text x="2070" y="1212.3" font-family="Tahoma" font-size="12" transform="rotate(90 2070,1212.3)" text-rendering="optimizeSpeed" fill="#000000">ssh (10851)</text>
  <rect fill="blue" height="109.5" stroke="black" width="12" x="2085" y="1097.9"/>
  <text x="2085" y="1212.3" font-family="Tahoma" font-size="12" transform="rotate(90 2085,1212.3)" text-rendering="optimizeSpeed" fill="#000000">disk-usage (10946)</text>
  <rect fill="blue" height="112.3" stroke="black" width="12" x="2100" y="1095.0"/>
  <text x="2100" y="1212.3" font-family="Tahoma" font-size="12" transform="rotate(90 2100,1212.3)" text-rendering="optimizeSpeed" fill="#000000">postbuild-task (11230)</text>
  <rect fill="blue" height="114.9" stroke="black" width="12" x="2115" y="1092.4"/>
  <text x="2115" y="1212.3" font-family="Tahoma" font-size="12" transform="rotate(90 2115,1212.3)" text-rendering="optimizeSpeed" fill="#000000">gradle (11490)</text>
  <rect fill="blue" height="115.8" stroke="black" width="12" x="2130" y="1091.5"/>
  <text x="2130" y="1212.3" font-family="Tahoma" font-size="12" transform="rotate(90 2130,1212.3)" text-rendering="optimizeSpeed" fill="#000000">pmd (11579)</text>
  <rect fill="blue" height="116.1" stroke="black" width="12" x="2145" y="1091.2"/>
  <text x="2145" y="1212.3" font-family="Tahoma" font-size="12" transform="rotate(90 2145,1212.3)" text-rendering="optimizeSpeed" fill="#000000">violations (11606)</text>
  <rect fill="blue" height="117.3" stroke="black" width="12" x="2160" y="1090.0"/>
  <text x="2160" y="1212.3" font-family="Tahoma" font-size="12" transform="rotate(90 2160,1212.3)" text-rendering="optimizeSpeed" fill="#000000">msbuild (11727)</text>
  <rect fill="blue" height="130.9" stroke="black" width="12" x="2175" y="1076.5"/>
  <text x="2175" y="1212.3" font-family="Tahoma" font-size="12" transform="rotate(90 2175,1212.3)" text-rendering="optimizeSpeed" fill="#000000">build-timeout (13086)</text>
  <rect fill="blue" height="131.3" stroke="black" width="12" x="2190" y="1076.1"/>
  <text x="2190" y="1212.3" font-family="Tahoma" font-size="12" transform="rotate(90 2190,1212.3)" text-rendering="optimizeSpeed" fill="#000000">xunit (13126)</text>
  <rect fill="blue" height="134.1" stroke="black" width="12" x="2205" y="1073.2"/>
  <text x="2205" y="1212.3" font-family="Tahoma" font-size="12" transform="rotate(90 2205,1212.3)" text-rendering="optimizeSpeed" fill="#000000">jobConfigHistory (13410)</text>
  <rect fill="blue" height="134.3" stroke="black" width="12" x="2220" y="1073.0"/>
  <text x="2220" y="1212.3" font-family="Tahoma" font-size="12" transform="rotate(90 2220,1212.3)" text-rendering="optimizeSpeed" fill="#000000">active-directory (13434)</text>
  <rect fill="blue" height="135.4" stroke="black" width="12" x="2235" y="1071.9"/>
  <text x="2235" y="1212.3" font-family="Tahoma" font-size="12" transform="rotate(90 2235,1212.3)" text-rendering="optimizeSpeed" fill="#000000">checkstyle (13541)</text>
  <rect fill="blue" height="139.8" stroke="black" width="12" x="2250" y="1067.6"/>
  <text x="2250" y="1212.3" font-family="Tahoma" font-size="12" transform="rotate(90 2250,1212.3)" text-rendering="optimizeSpeed" fill="#000000">cobertura (13975)</text>
  <rect fill="blue" height="147.5" stroke="black" width="12" x="2265" y="1059.8"/>
  <text x="2265" y="1212.3" font-family="Tahoma" font-size="12" transform="rotate(90 2265,1212.3)" text-rendering="optimizeSpeed" fill="#000000">publish-over-ssh (14750)</text>
  <rect fill="blue" height="152.3" stroke="black" width="12" x="2280" y="1055.0"/>
  <text x="2280" y="1212.3" font-family="Tahoma" font-size="12" transform="rotate(90 2280,1212.3)" text-rendering="optimizeSpeed" fill="#000000">dashboard-view (15227)</text>
  <rect fill="blue" height="153.7" stroke="black" width="12" x="2295" y="1053.6"/>
  <text x="2295" y="1212.3" font-family="Tahoma" font-size="12" transform="rotate(90 2295,1212.3)" text-rendering="optimizeSpeed" fill="#000000">sonar (15370)</text>
  <rect fill="blue" height="155.4" stroke="black" width="12" x="2310" y="1051.9"/>
  <text x="2310" y="1212.3" font-family="Tahoma" font-size="12" transform="rotate(90 2310,1212.3)" text-rendering="optimizeSpeed" fill="#000000">ws-cleanup (15538)</text>
  <rect fill="blue" height="157.6" stroke="black" width="12" x="2325" y="1049.8"/>
  <text x="2325" y="1212.3" font-family="Tahoma" font-size="12" transform="rotate(90 2325,1212.3)" text-rendering="optimizeSpeed" fill="#000000">build-pipeline-plugin (15755)</text>
  <rect fill="blue" height="176.7" stroke="black" width="12" x="2340" y="1030.6"/>
  <text x="2340" y="1212.3" font-family="Tahoma" font-size="12" transform="rotate(90 2340,1212.3)" text-rendering="optimizeSpeed" fill="#000000">github (17670)</text>
  <rect fill="blue" height="179.8" stroke="black" width="12" x="2355" y="1027.5"/>
  <text x="2355" y="1212.3" font-family="Tahoma" font-size="12" transform="rotate(90 2355,1212.3)" text-rendering="optimizeSpeed" fill="#000000">conditional-buildstep (17977)</text>
  <rect fill="blue" height="181.1" stroke="black" width="12" x="2370" y="1026.2"/>
  <text x="2370" y="1212.3" font-family="Tahoma" font-size="12" transform="rotate(90 2370,1212.3)" text-rendering="optimizeSpeed" fill="#000000">htmlpublisher (18107)</text>
  <rect fill="blue" height="182.3" stroke="black" width="12" x="2385" y="1025.0"/>
  <text x="2385" y="1212.3" font-family="Tahoma" font-size="12" transform="rotate(90 2385,1212.3)" text-rendering="optimizeSpeed" fill="#000000">ssh-agent (18227)</text>
  <rect fill="blue" height="187.8" stroke="black" width="12" x="2400" y="1019.6"/>
  <text x="2400" y="1212.3" font-family="Tahoma" font-size="12" transform="rotate(90 2400,1212.3)" text-rendering="optimizeSpeed" fill="#000000">github-api (18776)</text>
  <rect fill="blue" height="200.8" stroke="black" width="12" x="2415" y="1006.5"/>
  <text x="2415" y="1212.3" font-family="Tahoma" font-size="12" transform="rotate(90 2415,1212.3)" text-rendering="optimizeSpeed" fill="#000000">copyartifact (20080)</text>
  <rect fill="blue" height="202.6" stroke="black" width="12" x="2430" y="1004.7"/>
  <text x="2430" y="1212.3" font-family="Tahoma" font-size="12" transform="rotate(90 2430,1212.3)" text-rendering="optimizeSpeed" fill="#000000">run-condition (20264)</text>
  <rect fill="blue" height="234.0" stroke="black" width="12" x="2445" y="973.3"/>
  <text x="2445" y="1212.3" font-family="Tahoma" font-size="12" transform="rotate(90 2445,1212.3)" text-rendering="optimizeSpeed" fill="#000000">greenballs (23403)</text>
  <rect fill="blue" height="255.7" stroke="black" width="12" x="2460" y="951.7"/>
  <text x="2460" y="1212.3" font-family="Tahoma" font-size="12" transform="rotate(90 2460,1212.3)" text-rendering="optimizeSpeed" fill="#000000">envinject (25565)</text>
  <rect fill="blue" height="257.7" stroke="black" width="12" x="2475" y="949.6"/>
  <text x="2475" y="1212.3" font-family="Tahoma" font-size="12" transform="rotate(90 2475,1212.3)" text-rendering="optimizeSpeed" fill="#000000">jquery (25769)</text>
  <rect fill="blue" height="288.8" stroke="black" width="12" x="2490" y="918.5"/>
  <text x="2490" y="1212.3" font-family="Tahoma" font-size="12" transform="rotate(90 2490,1212.3)" text-rendering="optimizeSpeed" fill="#000000">analysis-core (28882)</text>
  <rect fill="blue" height="346.1" stroke="black" width="12" x="2505" y="861.2"/>
  <text x="2505" y="1212.3" font-family="Tahoma" font-size="12" transform="rotate(90 2505,1212.3)" text-rendering="optimizeSpeed" fill="#000000">email-ext (34608)</text>
  <rect fill="blue" height="369.1" stroke="black" width="12" x="2520" y="838.2"/>
  <text x="2520" y="1212.3" font-family="Tahoma" font-size="12" transform="rotate(90 2520,1212.3)" text-rendering="optimizeSpeed" fill="#000000">parameterized-trigger (36907)</text>
  <rect fill="blue" height="504.6" stroke="black" width="12" x="2535" y="702.7"/>
  <text x="2535" y="1212.3" font-family="Tahoma" font-size="12" transform="rotate(90 2535,1212.3)" text-rendering="optimizeSpeed" fill="#000000">mapdb-api (50464)</text>
  <rect fill="blue" height="565.6" stroke="black" width="12" x="2550" y="641.7"/>
  <text x="2550" y="1212.3" font-family="Tahoma" font-size="12" transform="rotate(90 2550,1212.3)" text-rendering="optimizeSpeed" fill="#000000">token-macro (56562)</text>
  <rect fill="blue" height="640.4" stroke="black" width="12" x="2565" y="566.9"/>
  <text x="2565" y="1212.3" font-family="Tahoma" font-size="12" transform="rotate(90 2565,1212.3)" text-rendering="optimizeSpeed" fill="#000000">git-client (64043)</text>
  <rect fill="blue" height="650.9" stroke="black" width="12" x="2580" y="556.4"/>
  <text x="2580" y="1212.3" font-family="Tahoma" font-size="12" transform="rotate(90 2580,1212.3)" text-rendering="optimizeSpeed" fill="#000000">git (65091)</text>
  <rect fill="blue" height="694.8" stroke="black" width="12" x="2595" y="512.6"/>
  <text x="2595" y="1212.3" font-family="Tahoma" font-size="12" transform="rotate(90 2595,1212.3)" text-rendering="optimizeSpeed" fill="#000000">script-security (69476)</text>
  <rect fill="blue" height="807.3" stroke="black" width="12" x="2610" y="400.0"/>
  <text x="2610" y="1212.3" font-family="Tahoma" font-size="12" transform="rotate(90 2610,1212.3)" text-rendering="optimizeSpeed" fill="#000000">scm-api (80731)</text>
  <rect fill="blue" height="886.5" stroke="black" width="12" x="2625" y="320.8"/>
  <text x="2625" y="1212.3" font-family="Tahoma" font-size="12" transform="rotate(90 2625,1212.3)" text-rendering="optimizeSpeed" fill="#000000">junit (88649)</text>
  <rect fill="blue" height="983.3" stroke="black" width="12" x="2640" y="224.0"/>
  <text x="2640" y="1212.3" font-family="Tahoma" font-size="12" transform="rotate(90 2640,1212.3)" text-rendering="optimizeSpeed" fill="#000000">matrix-project (98327)</text>
  <rect fill="blue" height="1011.8" stroke="black" width="12" x="2655" y="195.6"/>
  <text x="2655" y="1212.3" font-family="Tahoma" font-size="12" transform="rotate(90 2655,1212.3)" text-rendering="optimizeSpeed" fill="#000000">antisamy-markup-formatter (101175)</text>
  <rect fill="blue" height="1015.9" stroke="black" width="12" x="2670" y="191.4"/>
  <text x="2670" y="1212.3" font-family="Tahoma" font-size="12" transform="rotate(90 2670,1212.3)" text-rendering="optimizeSpeed" fill="#000000">windows-slaves (101587)</text>
  <rect fill="blue" height="1060.0" stroke="black" width="12" x="2685" y="147.3"/>
  <text x="2685" y="1212.3" font-family="Tahoma" font-size="12" transform="rotate(90 2685,1212.3)" text-rendering="optimizeSpeed" fill="#000000">matrix-auth (106003)</text>
  <rect fill="blue" height="1099.9" stroke="black" width="12" x="2700" y="107.4"/>
  <text x="2700" y="1212.3" font-family="Tahoma" font-size="12" transform="rotate(90 2700,1212.3)" text-rendering="optimizeSpeed" fill="#000000">cvs (109987)</text>
  <rect fill="blue" height="1121.6" stroke="black" width="12" x="2715" y="85.7"/>
  <text x="2715" y="1212.3" font-family="Tahoma" font-size="12" transform="rotate(90 2715,1212.3)" text-rendering="optimizeSpeed" fill="#000000">ldap (112157)</text>
  <rect fill="blue" height="1123.5" stroke="black" width="12" x="2730" y="83.8"/>
  <text x="2730" y="1212.3" font-family="Tahoma" font-size="12" transform="rotate(90 2730,1212.3)" text-rendering="optimizeSpeed" fill="#000000">ssh-credentials (112351)</text>
  <rect fill="blue" height="1125.8" stroke="black" width="12" x="2745" y="81.5"/>
  <text x="2745" y="1212.3" font-family="Tahoma" font-size="12" transform="rotate(90 2745,1212.3)" text-rendering="optimizeSpeed" fill="#000000">subversion (112581)</text>
  <rect fill="blue" height="1126.8" stroke="black" width="12" x="2760" y="80.5"/>
  <text x="2760" y="1212.3" font-family="Tahoma" font-size="12" transform="rotate(90 2760,1212.3)" text-rendering="optimizeSpeed" fill="#000000">credentials (112677)</text>
  <rect fill="blue" height="1130.8" stroke="black" width="12" x="2775" y="76.5"/>
  <text x="2775" y="1212.3" font-family="Tahoma" font-size="12" transform="rotate(90 2775,1212.3)" text-rendering="optimizeSpeed" fill="#000000">translation (113084)</text>
  <rect fill="blue" height="1130.9" stroke="black" width="12" x="2790" y="76.4"/>
  <text x="2790" y="1212.3" font-family="Tahoma" font-size="12" transform="rotate(90 2790,1212.3)" text-rendering="optimizeSpeed" fill="#000000">pam-auth (113087)</text>
  <rect fill="blue" height="1136.0" stroke="black" width="12" x="2805" y="71.3"/>
  <text x="2805" y="1212.3" font-family="Tahoma" font-size="12" transform="rotate(90 2805,1212.3)" text-rendering="optimizeSpeed" fill="#000000">mailer (113598)</text>
  <rect fill="blue" height="1138.6" stroke="black" width="12" x="2820" y="68.8"/>
  <text x="2820" y="1212.3" font-family="Tahoma" font-size="12" transform="rotate(90 2820,1212.3)" text-rendering="optimizeSpeed" fill="#000000">ant (113856)</text>
  <rect fill="blue" height="1138.6" stroke="black" width="12" x="2835" y="68.7"/>
  <text x="2835" y="1212.3" font-family="Tahoma" font-size="12" transform="rotate(90 2835,1212.3)" text-rendering="optimizeSpeed" fill="#000000">external-monitor-job (113864)</text>
  <rect fill="blue" height="1147.8" stroke="black" width="12" x="2850" y="59.5"/>
  <text x="2850" y="1212.3" font-family="Tahoma" font-size="12" transform="rotate(90 2850,1212.3)" text-rendering="optimizeSpeed" fill="#000000">javadoc (114781)</text>
  <rect fill="blue" height="1151.9" stroke="black" width="12" x="2865" y="55.4"/>
  <text x="2865" y="1212.3" font-family="Tahoma" font-size="12" transform="rotate(90 2865,1212.3)" text-rendering="optimizeSpeed" fill="#000000">maven-plugin (115189)</text>
  <rect fill="blue" height="1157.3" stroke="black" width="12" x="2880" y="50.0"/>
  <text x="2880" y="1212.3" font-family="Tahoma" font-size="12" transform="rotate(90 2880,1212.3)" text-rendering="optimizeSpeed" fill="#000000">ssh-slaves (115731)</text>
  <text x="10" y="40" font-family="Tahoma" font-size="20" text-rendering="optimizeSpeed" fill="#000000">Plugin installations (installations &gt; 2500)</text>
</svg>
