<svg xmlns="http://www.w3.org/2000/svg" version="1.1" preserveAspectRatio="xMidYMid meet" viewBox="0 0 1160 17554.2">
  <rect fill="blue" height="0.1" stroke="black" width="12" x="15" y="17254.1"/>
  <text x="15" y="17259.2" font-family="Tahoma" font-size="12" transform="rotate(90 15,17259.2)" text-rendering="optimizeSpeed" fill="#000000">DragonFlyBSD (amd64) (1)</text>
  <rect fill="blue" height="0.1" stroke="black" width="12" x="30" y="17254.1"/>
  <text x="30" y="17259.2" font-family="Tahoma" font-size="12" transform="rotate(90 30,17259.2)" text-rendering="optimizeSpeed" fill="#000000">HP-UX (PA_RISC2.0W) (1)</text>
  <rect fill="blue" height="0.1" stroke="black" width="12" x="45" y="17254.1"/>
  <text x="45" y="17259.2" font-family="Tahoma" font-size="12" transform="rotate(90 45,17259.2)" text-rendering="optimizeSpeed" fill="#000000">Haiku (i386) (1)</text>
  <rect fill="blue" height="0.1" stroke="black" width="12" x="60" y="17254.1"/>
  <text x="60" y="17259.2" font-family="Tahoma" font-size="12" transform="rotate(90 60,17259.2)" text-rendering="optimizeSpeed" fill="#000000">Linux (mips) (1)</text>
  <rect fill="blue" height="0.1" stroke="black" width="12" x="75" y="17254.1"/>
  <text x="75" y="17259.2" font-family="Tahoma" font-size="12" transform="rotate(90 75,17259.2)" text-rendering="optimizeSpeed" fill="#000000">Linux (sparc) (1)</text>
  <rect fill="blue" height="0.1" stroke="black" width="12" x="90" y="17254.1"/>
  <text x="90" y="17259.2" font-family="Tahoma" font-size="12" transform="rotate(90 90,17259.2)" text-rendering="optimizeSpeed" fill="#000000">Mac OS X (EMAG 1.2) (x86_64) (1)</text>
  <rect fill="blue" height="0.1" stroke="black" width="12" x="105" y="17254.1"/>
  <text x="105" y="17259.2" font-family="Tahoma" font-size="12" transform="rotate(90 105,17259.2)" text-rendering="optimizeSpeed" fill="#000000">Mac OS X (amd64) (1)</text>
  <rect fill="blue" height="0.1" stroke="black" width="12" x="120" y="17254.1"/>
  <text x="120" y="17259.2" font-family="Tahoma" font-size="12" transform="rotate(90 120,17259.2)" text-rendering="optimizeSpeed" fill="#000000">Mac OS X (ppc) (1)</text>
  <rect fill="blue" height="0.1" stroke="black" width="12" x="135" y="17254.1"/>
  <text x="135" y="17259.2" font-family="Tahoma" font-size="12" transform="rotate(90 135,17259.2)" text-rendering="optimizeSpeed" fill="#000000">OS/400 (ppc) (1)</text>
  <rect fill="blue" height="0.1" stroke="black" width="12" x="150" y="17254.1"/>
  <text x="150" y="17259.2" font-family="Tahoma" font-size="12" transform="rotate(90 150,17259.2)" text-rendering="optimizeSpeed" fill="#000000">OS/400 (ppc64) (1)</text>
  <rect fill="blue" height="0.1" stroke="black" width="12" x="165" y="17254.1"/>
  <text x="165" y="17259.2" font-family="Tahoma" font-size="12" transform="rotate(90 165,17259.2)" text-rendering="optimizeSpeed" fill="#000000">Windows (x86) (1)</text>
  <rect fill="blue" height="0.1" stroke="black" width="12" x="180" y="17254.1"/>
  <text x="180" y="17259.2" font-family="Tahoma" font-size="12" transform="rotate(90 180,17259.2)" text-rendering="optimizeSpeed" fill="#000000">Windows Server 2008 R2 (ia64) (1)</text>
  <rect fill="blue" height="0.2" stroke="black" width="12" x="195" y="17254.0"/>
  <text x="195" y="17259.2" font-family="Tahoma" font-size="12" transform="rotate(90 195,17259.2)" text-rendering="optimizeSpeed" fill="#000000">Linux (sparcv9) (2)</text>
  <rect fill="blue" height="0.3" stroke="black" width="12" x="210" y="17253.9"/>
  <text x="210" y="17259.2" font-family="Tahoma" font-size="12" transform="rotate(90 210,17259.2)" text-rendering="optimizeSpeed" fill="#000000">OpenBSD (i386) (3)</text>
  <rect fill="blue" height="0.5" stroke="black" width="12" x="225" y="17253.7"/>
  <text x="225" y="17259.2" font-family="Tahoma" font-size="12" transform="rotate(90 225,17259.2)" text-rendering="optimizeSpeed" fill="#000000">OS/400 (PowerPC) (5)</text>
  <rect fill="blue" height="0.5" stroke="black" width="12" x="240" y="17253.7"/>
  <text x="240" y="17259.2" font-family="Tahoma" font-size="12" transform="rotate(90 240,17259.2)" text-rendering="optimizeSpeed" fill="#000000">z/OS (s390x) (5)</text>
  <rect fill="blue" height="0.6" stroke="black" width="12" x="255" y="17253.6"/>
  <text x="255" y="17259.2" font-family="Tahoma" font-size="12" transform="rotate(90 255,17259.2)" text-rendering="optimizeSpeed" fill="#000000">z/OS (s390) (6)</text>
  <rect fill="blue" height="0.7" stroke="black" width="12" x="270" y="17253.5"/>
  <text x="270" y="17259.2" font-family="Tahoma" font-size="12" transform="rotate(90 270,17259.2)" text-rendering="optimizeSpeed" fill="#000000">NetBSD (amd64) (7)</text>
  <rect fill="blue" height="0.7" stroke="black" width="12" x="285" y="17253.5"/>
  <text x="285" y="17259.2" font-family="Tahoma" font-size="12" transform="rotate(90 285,17259.2)" text-rendering="optimizeSpeed" fill="#000000">Windows Server 2003 (amd64) (7)</text>
  <rect fill="blue" height="1.0" stroke="black" width="12" x="300" y="17253.2"/>
  <text x="300" y="17259.2" font-family="Tahoma" font-size="12" transform="rotate(90 300,17259.2)" text-rendering="optimizeSpeed" fill="#000000">HP-UX (ia64) (10)</text>
  <rect fill="blue" height="1.3" stroke="black" width="12" x="315" y="17252.9"/>
  <text x="315" y="17259.2" font-family="Tahoma" font-size="12" transform="rotate(90 315,17259.2)" text-rendering="optimizeSpeed" fill="#000000">OpenBSD (amd64) (13)</text>
  <rect fill="blue" height="1.4" stroke="black" width="12" x="330" y="17252.8"/>
  <text x="330" y="17259.2" font-family="Tahoma" font-size="12" transform="rotate(90 330,17259.2)" text-rendering="optimizeSpeed" fill="#000000">Mac OS X (i386) (14)</text>
  <rect fill="blue" height="1.5" stroke="black" width="12" x="345" y="17252.7"/>
  <text x="345" y="17259.2" font-family="Tahoma" font-size="12" transform="rotate(90 345,17259.2)" text-rendering="optimizeSpeed" fill="#000000">Linux (s390) (15)</text>
  <rect fill="blue" height="1.5" stroke="black" width="12" x="360" y="17252.7"/>
  <text x="360" y="17259.2" font-family="Tahoma" font-size="12" transform="rotate(90 360,17259.2)" text-rendering="optimizeSpeed" fill="#000000">NetBSD (i386) (15)</text>
  <rect fill="blue" height="1.5" stroke="black" width="12" x="375" y="17252.7"/>
  <text x="375" y="17259.2" font-family="Tahoma" font-size="12" transform="rotate(90 375,17259.2)" text-rendering="optimizeSpeed" fill="#000000">Windows 2000 (x86) (15)</text>
  <rect fill="blue" height="1.9" stroke="black" width="12" x="390" y="17252.3"/>
  <text x="390" y="17259.2" font-family="Tahoma" font-size="12" transform="rotate(90 390,17259.2)" text-rendering="optimizeSpeed" fill="#000000">Linux (ia64) (19)</text>
  <rect fill="blue" height="2.1" stroke="black" width="12" x="405" y="17252.1"/>
  <text x="405" y="17259.2" font-family="Tahoma" font-size="12" transform="rotate(90 405,17259.2)" text-rendering="optimizeSpeed" fill="#000000">Windows Server 2003 (x86) (21)</text>
  <rect fill="blue" height="2.5" stroke="black" width="12" x="420" y="17251.7"/>
  <text x="420" y="17259.2" font-family="Tahoma" font-size="12" transform="rotate(90 420,17259.2)" text-rendering="optimizeSpeed" fill="#000000">Windows (amd64) (25)</text>
  <rect fill="blue" height="3.6" stroke="black" width="12" x="435" y="17250.6"/>
  <text x="435" y="17259.2" font-family="Tahoma" font-size="12" transform="rotate(90 435,17259.2)" text-rendering="optimizeSpeed" fill="#000000">Linux (ppc) (36)</text>
  <rect fill="blue" height="3.9" stroke="black" width="12" x="450" y="17250.3"/>
  <text x="450" y="17259.2" font-family="Tahoma" font-size="12" transform="rotate(90 450,17259.2)" text-rendering="optimizeSpeed" fill="#000000">Linux (aarch64) (39)</text>
  <rect fill="blue" height="4.5" stroke="black" width="12" x="465" y="17249.7"/>
  <text x="465" y="17259.2" font-family="Tahoma" font-size="12" transform="rotate(90 465,17259.2)" text-rendering="optimizeSpeed" fill="#000000">Windows Vista (amd64) (45)</text>
  <rect fill="blue" height="5.6" stroke="black" width="12" x="480" y="17248.6"/>
  <text x="480" y="17259.2" font-family="Tahoma" font-size="12" transform="rotate(90 480,17259.2)" text-rendering="optimizeSpeed" fill="#000000">HP-UX (IA64W) (56)</text>
  <rect fill="blue" height="5.7" stroke="black" width="12" x="495" y="17248.5"/>
  <text x="495" y="17259.2" font-family="Tahoma" font-size="12" transform="rotate(90 495,17259.2)" text-rendering="optimizeSpeed" fill="#000000">Windows XP (amd64) (57)</text>
  <rect fill="blue" height="6.3" stroke="black" width="12" x="510" y="17247.9"/>
  <text x="510" y="17259.2" font-family="Tahoma" font-size="12" transform="rotate(90 510,17259.2)" text-rendering="optimizeSpeed" fill="#000000">Linux (ppc64le) (63)</text>
  <rect fill="blue" height="6.8" stroke="black" width="12" x="525" y="17247.4"/>
  <text x="525" y="17259.2" font-family="Tahoma" font-size="12" transform="rotate(90 525,17259.2)" text-rendering="optimizeSpeed" fill="#000000">HP-UX (PA_RISC2.0) (68)</text>
  <rect fill="blue" height="13.5" stroke="black" width="12" x="540" y="17240.7"/>
  <text x="540" y="17259.2" font-family="Tahoma" font-size="12" transform="rotate(90 540,17259.2)" text-rendering="optimizeSpeed" fill="#000000">Windows 10 (amd64) (135)</text>
  <rect fill="blue" height="15.4" stroke="black" width="12" x="555" y="17238.8"/>
  <text x="555" y="17259.2" font-family="Tahoma" font-size="12" transform="rotate(90 555,17259.2)" text-rendering="optimizeSpeed" fill="#000000">Linux (s390x) (154)</text>
  <rect fill="blue" height="17.7" stroke="black" width="12" x="570" y="17236.5"/>
  <text x="570" y="17259.2" font-family="Tahoma" font-size="12" transform="rotate(90 570,17259.2)" text-rendering="optimizeSpeed" fill="#000000">Windows 10 (x86) (177)</text>
  <rect fill="blue" height="18.4" stroke="black" width="12" x="585" y="17235.8"/>
  <text x="585" y="17259.2" font-family="Tahoma" font-size="12" transform="rotate(90 585,17259.2)" text-rendering="optimizeSpeed" fill="#000000">Linux (ppc64) (184)</text>
  <rect fill="blue" height="21.6" stroke="black" width="12" x="600" y="17232.6"/>
  <text x="600" y="17259.2" font-family="Tahoma" font-size="12" transform="rotate(90 600,17259.2)" text-rendering="optimizeSpeed" fill="#000000">Linux (x86) (216)</text>
  <rect fill="blue" height="22.8" stroke="black" width="12" x="615" y="17231.4"/>
  <text x="615" y="17259.2" font-family="Tahoma" font-size="12" transform="rotate(90 615,17259.2)" text-rendering="optimizeSpeed" fill="#000000">FreeBSD (i386) (228)</text>
  <rect fill="blue" height="24.4" stroke="black" width="12" x="630" y="17229.8"/>
  <text x="630" y="17259.2" font-family="Tahoma" font-size="12" transform="rotate(90 630,17259.2)" text-rendering="optimizeSpeed" fill="#000000">Windows NT (unknown) (amd64) (244)</text>
  <rect fill="blue" height="24.8" stroke="black" width="12" x="645" y="17229.4"/>
  <text x="645" y="17259.2" font-family="Tahoma" font-size="12" transform="rotate(90 645,17259.2)" text-rendering="optimizeSpeed" fill="#000000">SunOS (sparcv9) (248)</text>
  <rect fill="blue" height="25.0" stroke="black" width="12" x="660" y="17229.2"/>
  <text x="660" y="17259.2" font-family="Tahoma" font-size="12" transform="rotate(90 660,17259.2)" text-rendering="optimizeSpeed" fill="#000000">HP-UX (IA64N) (250)</text>
  <rect fill="blue" height="27.4" stroke="black" width="12" x="675" y="17226.8"/>
  <text x="675" y="17259.2" font-family="Tahoma" font-size="12" transform="rotate(90 675,17259.2)" text-rendering="optimizeSpeed" fill="#000000">Windows NT (unknown) (x86) (274)</text>
  <rect fill="blue" height="28.5" stroke="black" width="12" x="690" y="17225.7"/>
  <text x="690" y="17259.2" font-family="Tahoma" font-size="12" transform="rotate(90 690,17259.2)" text-rendering="optimizeSpeed" fill="#000000">SunOS (amd64) (285)</text>
  <rect fill="blue" height="41.5" stroke="black" width="12" x="705" y="17212.7"/>
  <text x="705" y="17259.2" font-family="Tahoma" font-size="12" transform="rotate(90 705,17259.2)" text-rendering="optimizeSpeed" fill="#000000">Linux (arm) (415)</text>
  <rect fill="blue" height="45.3" stroke="black" width="12" x="720" y="17208.9"/>
  <text x="720" y="17259.2" font-family="Tahoma" font-size="12" transform="rotate(90 720,17259.2)" text-rendering="optimizeSpeed" fill="#000000">Windows Vista (x86) (453)</text>
  <rect fill="blue" height="51.2" stroke="black" width="12" x="735" y="17203.0"/>
  <text x="735" y="17259.2" font-family="Tahoma" font-size="12" transform="rotate(90 735,17259.2)" text-rendering="optimizeSpeed" fill="#000000">Windows 2003 (amd64) (512)</text>
  <rect fill="blue" height="53.2" stroke="black" width="12" x="750" y="17201.0"/>
  <text x="750" y="17259.2" font-family="Tahoma" font-size="12" transform="rotate(90 750,17259.2)" text-rendering="optimizeSpeed" fill="#000000">FreeBSD (amd64) (532)</text>
  <rect fill="blue" height="70.9" stroke="black" width="12" x="765" y="17183.3"/>
  <text x="765" y="17259.2" font-family="Tahoma" font-size="12" transform="rotate(90 765,17259.2)" text-rendering="optimizeSpeed" fill="#000000">AIX (ppc) (709)</text>
  <rect fill="blue" height="78.3" stroke="black" width="12" x="780" y="17175.9"/>
  <text x="780" y="17259.2" font-family="Tahoma" font-size="12" transform="rotate(90 780,17259.2)" text-rendering="optimizeSpeed" fill="#000000">Windows Server 2008 (amd64) (783)</text>
  <rect fill="blue" height="80.0" stroke="black" width="12" x="795" y="17174.2"/>
  <text x="795" y="17259.2" font-family="Tahoma" font-size="12" transform="rotate(90 795,17259.2)" text-rendering="optimizeSpeed" fill="#000000">Windows 8 (amd64) (800)</text>
  <rect fill="blue" height="92.5" stroke="black" width="12" x="810" y="17161.7"/>
  <text x="810" y="17259.2" font-family="Tahoma" font-size="12" transform="rotate(90 810,17259.2)" text-rendering="optimizeSpeed" fill="#000000">AIX (ppc64) (925)</text>
  <rect fill="blue" height="117.8" stroke="black" width="12" x="825" y="17136.4"/>
  <text x="825" y="17259.2" font-family="Tahoma" font-size="12" transform="rotate(90 825,17259.2)" text-rendering="optimizeSpeed" fill="#000000">Windows 8 (x86) (1178)</text>
  <rect fill="blue" height="123.4" stroke="black" width="12" x="840" y="17130.8"/>
  <text x="840" y="17259.2" font-family="Tahoma" font-size="12" transform="rotate(90 840,17259.2)" text-rendering="optimizeSpeed" fill="#000000">SunOS (x86) (1234)</text>
  <rect fill="blue" height="140.8" stroke="black" width="12" x="855" y="17113.4"/>
  <text x="855" y="17259.2" font-family="Tahoma" font-size="12" transform="rotate(90 855,17259.2)" text-rendering="optimizeSpeed" fill="#000000">Windows Server 2008 (x86) (1408)</text>
  <rect fill="blue" height="160.6" stroke="black" width="12" x="870" y="17093.6"/>
  <text x="870" y="17259.2" font-family="Tahoma" font-size="12" transform="rotate(90 870,17259.2)" text-rendering="optimizeSpeed" fill="#000000">Windows 8.1 (amd64) (1606)</text>
  <rect fill="blue" height="163.6" stroke="black" width="12" x="885" y="17090.6"/>
  <text x="885" y="17259.2" font-family="Tahoma" font-size="12" transform="rotate(90 885,17259.2)" text-rendering="optimizeSpeed" fill="#000000">SunOS (sparc) (1636)</text>
  <rect fill="blue" height="244.6" stroke="black" width="12" x="900" y="17009.6"/>
  <text x="900" y="17259.2" font-family="Tahoma" font-size="12" transform="rotate(90 900,17259.2)" text-rendering="optimizeSpeed" fill="#000000">Windows 8.1 (x86) (2446)</text>
  <rect fill="blue" height="265.0" stroke="black" width="12" x="915" y="16989.2"/>
  <text x="915" y="17259.2" font-family="Tahoma" font-size="12" transform="rotate(90 915,17259.2)" text-rendering="optimizeSpeed" fill="#000000">Windows XP (x86) (2650)</text>
  <rect fill="blue" height="296.7" stroke="black" width="12" x="930" y="16957.5"/>
  <text x="930" y="17259.2" font-family="Tahoma" font-size="12" transform="rotate(90 930,17259.2)" text-rendering="optimizeSpeed" fill="#000000">Windows Server 2012 R2 (x86) (2967)</text>
  <rect fill="blue" height="314.3" stroke="black" width="12" x="945" y="16939.9"/>
  <text x="945" y="17259.2" font-family="Tahoma" font-size="12" transform="rotate(90 945,17259.2)" text-rendering="optimizeSpeed" fill="#000000">Windows Server 2012 (x86) (3143)</text>
  <rect fill="blue" height="351.4" stroke="black" width="12" x="960" y="16902.8"/>
  <text x="960" y="17259.2" font-family="Tahoma" font-size="12" transform="rotate(90 960,17259.2)" text-rendering="optimizeSpeed" fill="#000000">Windows 2003 (x86) (3514)</text>
  <rect fill="blue" height="372.7" stroke="black" width="12" x="975" y="16881.5"/>
  <text x="975" y="17259.2" font-family="Tahoma" font-size="12" transform="rotate(90 975,17259.2)" text-rendering="optimizeSpeed" fill="#000000">Windows Server 2012 (amd64) (3727)</text>
  <rect fill="blue" height="421.3" stroke="black" width="12" x="990" y="16832.9"/>
  <text x="990" y="17259.2" font-family="Tahoma" font-size="12" transform="rotate(90 990,17259.2)" text-rendering="optimizeSpeed" fill="#000000">Windows Server 2012 R2 (amd64) (4213)</text>
  <rect fill="blue" height="1095.3" stroke="black" width="12" x="1005" y="16158.9"/>
  <text x="1005" y="17259.2" font-family="Tahoma" font-size="12" transform="rotate(90 1005,17259.2)" text-rendering="optimizeSpeed" fill="#000000">Windows Server 2008 R2 (x86) (10953)</text>
  <rect fill="blue" height="1366.0" stroke="black" width="12" x="1020" y="15888.2"/>
  <text x="1020" y="17259.2" font-family="Tahoma" font-size="12" transform="rotate(90 1020,17259.2)" text-rendering="optimizeSpeed" fill="#000000">Windows Server 2008 R2 (amd64) (13660)</text>
  <rect fill="blue" height="1556.2" stroke="black" width="12" x="1035" y="15698.0"/>
  <text x="1035" y="17259.2" font-family="Tahoma" font-size="12" transform="rotate(90 1035,17259.2)" text-rendering="optimizeSpeed" fill="#000000">Linux (i386) (15562)</text>
  <rect fill="blue" height="1604.3" stroke="black" width="12" x="1050" y="15649.9"/>
  <text x="1050" y="17259.2" font-family="Tahoma" font-size="12" transform="rotate(90 1050,17259.2)" text-rendering="optimizeSpeed" fill="#000000">Mac OS X (x86_64) (16043)</text>
  <rect fill="blue" height="1689.9" stroke="black" width="12" x="1065" y="15564.3"/>
  <text x="1065" y="17259.2" font-family="Tahoma" font-size="12" transform="rotate(90 1065,17259.2)" text-rendering="optimizeSpeed" fill="#000000">Windows 7 (amd64) (16899)</text>
  <rect fill="blue" height="2252.2" stroke="black" width="12" x="1080" y="15002.0"/>
  <text x="1080" y="17259.2" font-family="Tahoma" font-size="12" transform="rotate(90 1080,17259.2)" text-rendering="optimizeSpeed" fill="#000000">Windows 7 (x86) (22522)</text>
  <rect fill="blue" height="8664.9" stroke="black" width="12" x="1095" y="8589.3"/>
  <text x="1095" y="17259.2" font-family="Tahoma" font-size="12" transform="rotate(90 1095,17259.2)" text-rendering="optimizeSpeed" fill="#000000">N/A (86649)</text>
  <rect fill="blue" height="17204.2" stroke="black" width="12" x="1110" y="50.0"/>
  <text x="1110" y="17259.2" font-family="Tahoma" font-size="12" transform="rotate(90 1110,17259.2)" text-rendering="optimizeSpeed" fill="#000000">Linux (amd64) (172042)</text>
  <text x="10" y="40" font-family="Tahoma" font-size="20" text-rendering="optimizeSpeed" fill="#000000">Nodes (total: 392134)</text>
</svg>
