<svg xmlns="http://www.w3.org/2000/svg" version="1.1" preserveAspectRatio="xMidYMid meet" viewBox="0 0 720 2330">
  <text x="30" y="40" font-family="sans-serif" font-size="16">Nodes, total: 416512</text>
  <path d="M 200,300 L 0.0,150.0 A 150,150 0 0 1 2.9,150.0 Z" fill="BurlyWood" stroke="black" stroke-width="1"/>
  <rect x="370" y="50" width="20" height="30" fill="BurlyWood" stroke="black" stroke-width="1"/>
  <text x="400" y="38" font-family="sans-serif" font-size="16">AIX (ppc) (556)</text>
  <path d="M 200,300 L 2.9,150.0 A 150,150 0 0 1 8.1,150.0 Z" fill="CadetBlue" stroke="black" stroke-width="1"/>
  <rect x="370" y="51" width="20" height="30" fill="CadetBlue" stroke="black" stroke-width="1"/>
  <text x="400" y="68" font-family="sans-serif" font-size="16">AIX (ppc64) (978)</text>
  <path d="M 200,300 L 8.1,150.0 A 150,150 0 0 1 8.1,150.0 Z" fill="red" stroke="black" stroke-width="1"/>
  <rect x="370" y="52" width="20" height="30" fill="red" stroke="black" stroke-width="1"/>
  <text x="400" y="98" font-family="sans-serif" font-size="16">Darwin (ppc) (1)</text>
  <path d="M 200,300 L 8.1,150.0 A 150,150 0 0 1 8.1,150.0 Z" fill="blue" stroke="black" stroke-width="1"/>
  <rect x="370" y="53" width="20" height="30" fill="blue" stroke="black" stroke-width="1"/>
  <text x="400" y="128" font-family="sans-serif" font-size="16">DragonFlyBSD (amd64) (1)</text>
  <path d="M 200,300 L 8.1,150.0 A 150,150 0 0 1 10.9,149.9 Z" fill="yellow" stroke="black" stroke-width="1"/>
  <rect x="370" y="54" width="20" height="30" fill="yellow" stroke="black" stroke-width="1"/>
  <text x="400" y="158" font-family="sans-serif" font-size="16">FreeBSD (amd64) (526)</text>
  <path d="M 200,300 L 10.9,149.9 A 150,150 0 0 1 12.0,149.9 Z" fill="green" stroke="black" stroke-width="1"/>
  <rect x="370" y="55" width="20" height="30" fill="green" stroke="black" stroke-width="1"/>
  <text x="400" y="188" font-family="sans-serif" font-size="16">FreeBSD (i386) (204)</text>
  <path d="M 200,300 L 12.0,149.9 A 150,150 0 0 1 13.4,149.9 Z" fill="gold" stroke="black" stroke-width="1"/>
  <rect x="370" y="56" width="20" height="30" fill="gold" stroke="black" stroke-width="1"/>
  <text x="400" y="218" font-family="sans-serif" font-size="16">HP-UX (IA64N) (275)</text>
  <path d="M 200,300 L 13.4,149.9 A 150,150 0 0 1 13.6,149.9 Z" fill="brown" stroke="black" stroke-width="1"/>
  <rect x="370" y="57" width="20" height="30" fill="brown" stroke="black" stroke-width="1"/>
  <text x="400" y="248" font-family="sans-serif" font-size="16">HP-UX (IA64W) (37)</text>
  <path d="M 200,300 L 13.6,149.9 A 150,150 0 0 1 14.0,149.9 Z" fill="Azure" stroke="black" stroke-width="1"/>
  <rect x="370" y="58" width="20" height="30" fill="Azure" stroke="black" stroke-width="1"/>
  <text x="400" y="278" font-family="sans-serif" font-size="16">HP-UX (PA_RISC2.0) (81)</text>
  <path d="M 200,300 L 14.0,149.9 A 150,150 0 0 1 14.0,149.9 Z" fill="pink" stroke="black" stroke-width="1"/>
  <rect x="370" y="59" width="20" height="30" fill="pink" stroke="black" stroke-width="1"/>
  <text x="400" y="308" font-family="sans-serif" font-size="16">HP-UX (PA_RISC2.0W) (1)</text>
  <path d="M 200,300 L 14.0,149.9 A 150,150 0 0 1 14.1,149.9 Z" fill="khaki" stroke="black" stroke-width="1"/>
  <rect x="370" y="60" width="20" height="30" fill="khaki" stroke="black" stroke-width="1"/>
  <text x="400" y="338" font-family="sans-serif" font-size="16">HP-UX (ia64) (10)</text>
  <path d="M 200,300 L 14.1,149.9 A 150,150 0 0 1 14.3,149.9 Z" fill="gray" stroke="black" stroke-width="1"/>
  <rect x="370" y="61" width="20" height="30" fill="gray" stroke="black" stroke-width="1"/>
  <text x="400" y="368" font-family="sans-serif" font-size="16">Linux (aarch64) (45)</text>
  <path d="M 200,300 L 14.3,149.9 A 150,150 0 0 1 122.1,-140.6 Z" fill="Aqua" stroke="black" stroke-width="1"/>
  <rect x="370" y="62" width="20" height="30" fill="Aqua" stroke="black" stroke-width="1"/>
  <text x="400" y="398" font-family="sans-serif" font-size="16">Linux (amd64) (181926)</text>
  <path d="M 200,300 L 122.1,-140.6 A 150,150 0 0 1 119.5,-141.0 Z" fill="Aquamarine" stroke="black" stroke-width="1"/>
  <rect x="370" y="63" width="20" height="30" fill="Aquamarine" stroke="black" stroke-width="1"/>
  <text x="400" y="428" font-family="sans-serif" font-size="16">Linux (arm) (515)</text>
  <path d="M 200,300 L 119.5,-141.0 A 150,150 0 0 1 40.8,-149.0 Z" fill="beige" stroke="black" stroke-width="1"/>
  <rect x="370" y="64" width="20" height="30" fill="beige" stroke="black" stroke-width="1"/>
  <text x="400" y="458" font-family="sans-serif" font-size="16">Linux (i386) (15355)</text>
  <path d="M 200,300 L 40.8,-149.0 A 150,150 0 0 1 40.7,-149.0 Z" fill="blueviolet" stroke="black" stroke-width="1"/>
  <rect x="370" y="65" width="20" height="30" fill="blueviolet" stroke="black" stroke-width="1"/>
  <text x="400" y="488" font-family="sans-serif" font-size="16">Linux (ia64) (19)</text>
  <path d="M 200,300 L 40.7,-149.0 A 150,150 0 0 1 40.7,-149.0 Z" fill="Bisque" stroke="black" stroke-width="1"/>
  <rect x="370" y="66" width="20" height="30" fill="Bisque" stroke="black" stroke-width="1"/>
  <text x="400" y="518" font-family="sans-serif" font-size="16">Linux (mips) (2)</text>
  <path d="M 200,300 L 40.7,-149.0 A 150,150 0 0 1 40.7,-149.0 Z" fill="coral" stroke="black" stroke-width="1"/>
  <rect x="370" y="67" width="20" height="30" fill="coral" stroke="black" stroke-width="1"/>
  <text x="400" y="548" font-family="sans-serif" font-size="16">Linux (mips64) (1)</text>
  <path d="M 200,300 L 40.7,-149.0 A 150,150 0 0 1 40.7,-149.0 Z" fill="darkblue" stroke="black" stroke-width="1"/>
  <rect x="370" y="68" width="20" height="30" fill="darkblue" stroke="black" stroke-width="1"/>
  <text x="400" y="578" font-family="sans-serif" font-size="16">Linux (mips64el) (1)</text>
  <path d="M 200,300 L 40.7,-149.0 A 150,150 0 0 1 40.7,-149.0 Z" fill="crimson" stroke="black" stroke-width="1"/>
  <rect x="370" y="69" width="20" height="30" fill="crimson" stroke="black" stroke-width="1"/>
  <text x="400" y="608" font-family="sans-serif" font-size="16">Linux (mipsel) (1)</text>
  <path d="M 200,300 L 40.7,-149.0 A 150,150 0 0 1 40.5,-149.0 Z" fill="cyan" stroke="black" stroke-width="1"/>
  <rect x="370" y="70" width="20" height="30" fill="cyan" stroke="black" stroke-width="1"/>
  <text x="400" y="638" font-family="sans-serif" font-size="16">Linux (ppc) (37)</text>
  <path d="M 200,300 L 40.5,-149.0 A 150,150 0 0 1 39.4,-149.0 Z" fill="darkred" stroke="black" stroke-width="1"/>
  <rect x="370" y="71" width="20" height="30" fill="darkred" stroke="black" stroke-width="1"/>
  <text x="400" y="668" font-family="sans-serif" font-size="16">Linux (ppc64) (200)</text>
  <path d="M 200,300 L 39.4,-149.0 A 150,150 0 0 1 38.9,-149.1 Z" fill="ivory" stroke="black" stroke-width="1"/>
  <rect x="370" y="72" width="20" height="30" fill="ivory" stroke="black" stroke-width="1"/>
  <text x="400" y="698" font-family="sans-serif" font-size="16">Linux (ppc64le) (96)</text>
  <path d="M 200,300 L 38.9,-149.1 A 150,150 0 0 1 38.8,-149.1 Z" fill="lime" stroke="black" stroke-width="1"/>
  <rect x="370" y="73" width="20" height="30" fill="lime" stroke="black" stroke-width="1"/>
  <text x="400" y="728" font-family="sans-serif" font-size="16">Linux (s390) (17)</text>
  <path d="M 200,300 L 38.8,-149.1 A 150,150 0 0 1 37.9,-149.1 Z" fill="maroon" stroke="black" stroke-width="1"/>
  <rect x="370" y="74" width="20" height="30" fill="maroon" stroke="black" stroke-width="1"/>
  <text x="400" y="758" font-family="sans-serif" font-size="16">Linux (s390x) (176)</text>
  <path d="M 200,300 L 37.9,-149.1 A 150,150 0 0 1 37.9,-149.1 Z" fill="navy" stroke="black" stroke-width="1"/>
  <rect x="370" y="75" width="20" height="30" fill="navy" stroke="black" stroke-width="1"/>
  <text x="400" y="788" font-family="sans-serif" font-size="16">Linux (sparcv9) (2)</text>
  <path d="M 200,300 L 37.9,-149.1 A 150,150 0 0 1 36.9,-149.2 Z" fill="olive" stroke="black" stroke-width="1"/>
  <rect x="370" y="76" width="20" height="30" fill="olive" stroke="black" stroke-width="1"/>
  <text x="400" y="818" font-family="sans-serif" font-size="16">Linux (x86) (185)</text>
  <path d="M 200,300 L 36.9,-149.2 A 150,150 0 0 1 36.9,-149.2 Z" fill="plum" stroke="black" stroke-width="1"/>
  <rect x="370" y="77" width="20" height="30" fill="plum" stroke="black" stroke-width="1"/>
  <text x="400" y="848" font-family="sans-serif" font-size="16">Mac OS X (amd64) (1)</text>
  <path d="M 200,300 L 36.9,-149.2 A 150,150 0 0 1 36.9,-149.2 Z" fill="peru" stroke="black" stroke-width="1"/>
  <rect x="370" y="78" width="20" height="30" fill="peru" stroke="black" stroke-width="1"/>
  <text x="400" y="878" font-family="sans-serif" font-size="16">Mac OS X (i386) (5)</text>
  <path d="M 200,300 L 36.9,-149.2 A 150,150 0 0 1 36.9,-149.2 Z" fill="silver" stroke="black" stroke-width="1"/>
  <rect x="370" y="79" width="20" height="30" fill="silver" stroke="black" stroke-width="1"/>
  <text x="400" y="908" font-family="sans-serif" font-size="16">Mac OS X (ppc) (1)</text>
  <path d="M 200,300 L 36.9,-149.2 A 150,150 0 0 1 -51.5,-148.4 Z" fill="tan" stroke="black" stroke-width="1"/>
  <rect x="370" y="80" width="20" height="30" fill="tan" stroke="black" stroke-width="1"/>
  <text x="400" y="938" font-family="sans-serif" font-size="16">Mac OS X (x86_64) (16797)</text>
  <path d="M 200,300 L -51.5,-148.4 A 150,150 0 0 1 -349.8,5.5 Z" fill="teal" stroke="black" stroke-width="1"/>
  <rect x="370" y="81" width="20" height="30" fill="teal" stroke="black" stroke-width="1"/>
  <text x="400" y="968" font-family="sans-serif" font-size="16">N/A (96778)</text>
  <path d="M 200,300 L -349.8,5.5 A 150,150 0 0 1 -349.8,5.5 Z" fill="violet" stroke="black" stroke-width="1"/>
  <rect x="370" y="82" width="20" height="30" fill="violet" stroke="black" stroke-width="1"/>
  <text x="400" y="998" font-family="sans-serif" font-size="16">NONSTOP_KERNEL (IA64N) (2)</text>
  <path d="M 200,300 L -349.8,5.5 A 150,150 0 0 1 -349.8,5.5 Z" fill="AliceBlue" stroke="black" stroke-width="1"/>
  <rect x="370" y="83" width="20" height="30" fill="AliceBlue" stroke="black" stroke-width="1"/>
  <text x="400" y="1028" font-family="sans-serif" font-size="16">NetBSD (amd64) (4)</text>
  <path d="M 200,300 L -349.8,5.5 A 150,150 0 0 1 -349.8,5.6 Z" fill="DarkOliveGreen" stroke="black" stroke-width="1"/>
  <rect x="370" y="84" width="20" height="30" fill="DarkOliveGreen" stroke="black" stroke-width="1"/>
  <text x="400" y="1058" font-family="sans-serif" font-size="16">NetBSD (i386) (3)</text>
  <path d="M 200,300 L -349.8,5.6 A 150,150 0 0 1 -349.8,5.6 Z" fill="Indigo" stroke="black" stroke-width="1"/>
  <rect x="370" y="85" width="20" height="30" fill="Indigo" stroke="black" stroke-width="1"/>
  <text x="400" y="1088" font-family="sans-serif" font-size="16">OS X (x86_64) (4)</text>
  <path d="M 200,300 L -349.8,5.6 A 150,150 0 0 1 -349.8,5.6 Z" fill="MediumPurple" stroke="black" stroke-width="1"/>
  <rect x="370" y="86" width="20" height="30" fill="MediumPurple" stroke="black" stroke-width="1"/>
  <text x="400" y="1118" font-family="sans-serif" font-size="16">OS/400 (PowerPC) (2)</text>
  <path d="M 200,300 L -349.8,5.6 A 150,150 0 0 1 -349.8,5.6 Z" fill="Purple" stroke="black" stroke-width="1"/>
  <rect x="370" y="87" width="20" height="30" fill="Purple" stroke="black" stroke-width="1"/>
  <text x="400" y="1148" font-family="sans-serif" font-size="16">OS/400 (ppc) (1)</text>
  <path d="M 200,300 L -349.8,5.6 A 150,150 0 0 1 -349.8,5.6 Z" fill="AntiqueWhite" stroke="black" stroke-width="1"/>
  <rect x="370" y="88" width="20" height="30" fill="AntiqueWhite" stroke="black" stroke-width="1"/>
  <text x="400" y="1178" font-family="sans-serif" font-size="16">OS/400 (ppc64) (1)</text>
  <path d="M 200,300 L -349.8,5.6 A 150,150 0 0 1 -349.8,5.6 Z" fill="DarkOrange" stroke="black" stroke-width="1"/>
  <rect x="370" y="89" width="20" height="30" fill="DarkOrange" stroke="black" stroke-width="1"/>
  <text x="400" y="1208" font-family="sans-serif" font-size="16">OpenBSD (amd64) (14)</text>
  <path d="M 200,300 L -349.8,5.6 A 150,150 0 0 1 -349.8,5.6 Z" fill="Ivory" stroke="black" stroke-width="1"/>
  <rect x="370" y="90" width="20" height="30" fill="Ivory" stroke="black" stroke-width="1"/>
  <text x="400" y="1238" font-family="sans-serif" font-size="16">OpenBSD (i386) (3)</text>
  <path d="M 200,300 L -349.8,5.6 A 150,150 0 0 1 -349.7,6.3 Z" fill="MediumSeaGreen" stroke="black" stroke-width="1"/>
  <rect x="370" y="91" width="20" height="30" fill="MediumSeaGreen" stroke="black" stroke-width="1"/>
  <text x="400" y="1268" font-family="sans-serif" font-size="16">SunOS (amd64) (316)</text>
  <path d="M 200,300 L -349.7,6.3 A 150,150 0 0 1 -349.2,9.8 Z" fill="Red" stroke="black" stroke-width="1"/>
  <rect x="370" y="92" width="20" height="30" fill="Red" stroke="black" stroke-width="1"/>
  <text x="400" y="1298" font-family="sans-serif" font-size="16">SunOS (sparc) (1560)</text>
  <path d="M 200,300 L -349.2,9.8 A 150,150 0 0 1 -349.1,10.6 Z" fill="Aqua" stroke="black" stroke-width="1"/>
  <rect x="370" y="93" width="20" height="30" fill="Aqua" stroke="black" stroke-width="1"/>
  <text x="400" y="1328" font-family="sans-serif" font-size="16">SunOS (sparcv9) (315)</text>
  <path d="M 200,300 L -349.1,10.6 A 150,150 0 0 1 -348.6,13.5 Z" fill="DarkOrchid" stroke="black" stroke-width="1"/>
  <rect x="370" y="94" width="20" height="30" fill="DarkOrchid" stroke="black" stroke-width="1"/>
  <text x="400" y="1358" font-family="sans-serif" font-size="16">SunOS (x86) (1299)</text>
  <path d="M 200,300 L -348.6,13.5 A 150,150 0 0 1 -348.6,13.5 Z" fill="Khaki" stroke="black" stroke-width="1"/>
  <rect x="370" y="95" width="20" height="30" fill="Khaki" stroke="black" stroke-width="1"/>
  <text x="400" y="1388" font-family="sans-serif" font-size="16">Windows (amd64) (25)</text>
  <path d="M 200,300 L -348.6,13.5 A 150,150 0 0 1 -348.4,14.4 Z" fill="MediumSlateBlue" stroke="black" stroke-width="1"/>
  <rect x="370" y="96" width="20" height="30" fill="MediumSlateBlue" stroke="black" stroke-width="1"/>
  <text x="400" y="1418" font-family="sans-serif" font-size="16">Windows 10 (amd64) (360)</text>
  <path d="M 200,300 L -348.4,14.4 A 150,150 0 0 1 -348.2,15.2 Z" fill="RosyBrown" stroke="black" stroke-width="1"/>
  <rect x="370" y="97" width="20" height="30" fill="RosyBrown" stroke="black" stroke-width="1"/>
  <text x="400" y="1448" font-family="sans-serif" font-size="16">Windows 10 (x86) (362)</text>
  <path d="M 200,300 L -348.2,15.2 A 150,150 0 0 1 -348.2,15.2 Z" fill="AquaMarine" stroke="black" stroke-width="1"/>
  <rect x="370" y="98" width="20" height="30" fill="AquaMarine" stroke="black" stroke-width="1"/>
  <text x="400" y="1478" font-family="sans-serif" font-size="16">Windows 2000 (x86) (10)</text>
  <path d="M 200,300 L -348.2,15.2 A 150,150 0 0 1 -348.0,16.2 Z" fill="DarkRed" stroke="black" stroke-width="1"/>
  <rect x="370" y="99" width="20" height="30" fill="DarkRed" stroke="black" stroke-width="1"/>
  <text x="400" y="1508" font-family="sans-serif" font-size="16">Windows 2003 (amd64) (437)</text>
  <path d="M 200,300 L -348.0,16.2 A 150,150 0 0 1 -345.7,23.4 Z" fill="Lavender" stroke="black" stroke-width="1"/>
  <rect x="370" y="100" width="20" height="30" fill="Lavender" stroke="black" stroke-width="1"/>
  <text x="400" y="1538" font-family="sans-serif" font-size="16">Windows 2003 (x86) (3203)</text>
  <path d="M 200,300 L -345.7,23.4 A 150,150 0 0 1 -320.4,60.3 Z" fill="MediumSpringGreen" stroke="black" stroke-width="1"/>
  <rect x="370" y="101" width="20" height="30" fill="MediumSpringGreen" stroke="black" stroke-width="1"/>
  <text x="400" y="1568" font-family="sans-serif" font-size="16">Windows 7 (amd64) (17079)</text>
  <path d="M 200,300 L -320.4,60.3 A 150,150 0 0 1 -253.6,103.4 Z" fill="RoyalBlue" stroke="black" stroke-width="1"/>
  <rect x="370" y="102" width="20" height="30" fill="RoyalBlue" stroke="black" stroke-width="1"/>
  <text x="400" y="1598" font-family="sans-serif" font-size="16">Windows 7 (x86) (22966)</text>
  <path d="M 200,300 L -253.6,103.4 A 150,150 0 0 1 -250.5,104.8 Z" fill="Azure" stroke="black" stroke-width="1"/>
  <rect x="370" y="103" width="20" height="30" fill="Azure" stroke="black" stroke-width="1"/>
  <text x="400" y="1628" font-family="sans-serif" font-size="16">Windows 8 (amd64) (838)</text>
  <path d="M 200,300 L -250.5,104.8 A 150,150 0 0 1 -246.9,106.3 Z" fill="DarkSalmon" stroke="black" stroke-width="1"/>
  <rect x="370" y="104" width="20" height="30" fill="DarkSalmon" stroke="black" stroke-width="1"/>
  <text x="400" y="1658" font-family="sans-serif" font-size="16">Windows 8 (x86) (977)</text>
  <path d="M 200,300 L -246.9,106.3 A 150,150 0 0 1 -240.3,109.0 Z" fill="LavenderBlush" stroke="black" stroke-width="1"/>
  <rect x="370" y="105" width="20" height="30" fill="LavenderBlush" stroke="black" stroke-width="1"/>
  <text x="400" y="1688" font-family="sans-serif" font-size="16">Windows 8.1 (amd64) (1727)</text>
  <path d="M 200,300 L -240.3,109.0 A 150,150 0 0 1 -228.7,113.5 Z" fill="MediumTurquoise" stroke="black" stroke-width="1"/>
  <rect x="370" y="106" width="20" height="30" fill="MediumTurquoise" stroke="black" stroke-width="1"/>
  <text x="400" y="1718" font-family="sans-serif" font-size="16">Windows 8.1 (x86) (2960)</text>
  <path d="M 200,300 L -228.7,113.5 A 150,150 0 0 1 -227.7,113.9 Z" fill="SaddleBrown" stroke="black" stroke-width="1"/>
  <rect x="370" y="107" width="20" height="30" fill="SaddleBrown" stroke="black" stroke-width="1"/>
  <text x="400" y="1748" font-family="sans-serif" font-size="16">Windows NT (unknown) (amd64) (256)</text>
  <path d="M 200,300 L -227.7,113.9 A 150,150 0 0 1 -226.7,114.3 Z" fill="Beige" stroke="black" stroke-width="1"/>
  <rect x="370" y="108" width="20" height="30" fill="Beige" stroke="black" stroke-width="1"/>
  <text x="400" y="1778" font-family="sans-serif" font-size="16">Windows NT (unknown) (x86) (245)</text>
  <path d="M 200,300 L -226.7,114.3 A 150,150 0 0 1 -226.7,114.3 Z" fill="DarkSeaGreen" stroke="black" stroke-width="1"/>
  <rect x="370" y="109" width="20" height="30" fill="DarkSeaGreen" stroke="black" stroke-width="1"/>
  <text x="400" y="1808" font-family="sans-serif" font-size="16">Windows Server 2003 (amd64) (7)</text>
  <path d="M 200,300 L -226.7,114.3 A 150,150 0 0 1 -226.6,114.3 Z" fill="LawnGreen" stroke="black" stroke-width="1"/>
  <rect x="370" y="110" width="20" height="30" fill="LawnGreen" stroke="black" stroke-width="1"/>
  <text x="400" y="1838" font-family="sans-serif" font-size="16">Windows Server 2003 (x86) (14)</text>
  <path d="M 200,300 L -226.6,114.3 A 150,150 0 0 1 -223.8,115.3 Z" fill="MediumVioletRed" stroke="black" stroke-width="1"/>
  <rect x="370" y="111" width="20" height="30" fill="MediumVioletRed" stroke="black" stroke-width="1"/>
  <text x="400" y="1868" font-family="sans-serif" font-size="16">Windows Server 2008 (amd64) (702)</text>
  <path d="M 200,300 L -223.8,115.3 A 150,150 0 0 1 -217.9,117.4 Z" fill="Salmon" stroke="black" stroke-width="1"/>
  <rect x="370" y="112" width="20" height="30" fill="Salmon" stroke="black" stroke-width="1"/>
  <text x="400" y="1898" font-family="sans-serif" font-size="16">Windows Server 2008 (x86) (1432)</text>
  <path d="M 200,300 L -217.9,117.4 A 150,150 0 0 1 -153.5,134.8 Z" fill="Bisque" stroke="black" stroke-width="1"/>
  <rect x="370" y="113" width="20" height="30" fill="Bisque" stroke="black" stroke-width="1"/>
  <text x="400" y="1928" font-family="sans-serif" font-size="16">Windows Server 2008 R2 (amd64) (14462)</text>
  <path d="M 200,300 L -153.5,134.8 A 150,150 0 0 1 -153.5,134.8 Z" fill="DarkSlateBlue" stroke="black" stroke-width="1"/>
  <rect x="370" y="114" width="20" height="30" fill="DarkSlateBlue" stroke="black" stroke-width="1"/>
  <text x="400" y="1958" font-family="sans-serif" font-size="16">Windows Server 2008 R2 (ia64) (1)</text>
  <path d="M 200,300 L -153.5,134.8 A 150,150 0 0 1 -99.9,143.8 Z" fill="LemonChiffon" stroke="black" stroke-width="1"/>
  <rect x="370" y="115" width="20" height="30" fill="LemonChiffon" stroke="black" stroke-width="1"/>
  <text x="400" y="1988" font-family="sans-serif" font-size="16">Windows Server 2008 R2 (x86) (10904)</text>
  <path d="M 200,300 L -99.9,143.8 A 150,150 0 0 1 -81.2,145.9 Z" fill="MidnightBlue" stroke="black" stroke-width="1"/>
  <rect x="370" y="116" width="20" height="30" fill="MidnightBlue" stroke="black" stroke-width="1"/>
  <text x="400" y="2018" font-family="sans-serif" font-size="16">Windows Server 2012 (amd64) (3664)</text>
  <path d="M 200,300 L -81.2,145.9 A 150,150 0 0 1 -65.5,147.4 Z" fill="SandyBrown" stroke="black" stroke-width="1"/>
  <rect x="370" y="117" width="20" height="30" fill="SandyBrown" stroke="black" stroke-width="1"/>
  <text x="400" y="2048" font-family="sans-serif" font-size="16">Windows Server 2012 (x86) (3050)</text>
  <path d="M 200,300 L -65.5,147.4 A 150,150 0 0 1 -36.6,149.2 Z" fill="Black" stroke="black" stroke-width="1"/>
  <rect x="370" y="118" width="20" height="30" fill="Black" stroke="black" stroke-width="1"/>
  <text x="400" y="2078" font-family="sans-serif" font-size="16">Windows Server 2012 R2 (amd64) (5533)</text>
  <path d="M 200,300 L -36.6,149.2 A 150,150 0 0 1 -16.3,149.8 Z" fill="DarkSlateGray" stroke="black" stroke-width="1"/>
  <rect x="370" y="119" width="20" height="30" fill="DarkSlateGray" stroke="black" stroke-width="1"/>
  <text x="400" y="2108" font-family="sans-serif" font-size="16">Windows Server 2012 R2 (x86) (3859)</text>
  <path d="M 200,300 L -16.3,149.8 A 150,150 0 0 1 -16.0,149.8 Z" fill="LightBlue" stroke="black" stroke-width="1"/>
  <rect x="370" y="120" width="20" height="30" fill="LightBlue" stroke="black" stroke-width="1"/>
  <text x="400" y="2138" font-family="sans-serif" font-size="16">Windows Vista (amd64) (48)</text>
  <path d="M 200,300 L -16.0,149.8 A 150,150 0 0 1 -13.8,149.9 Z" fill="MintCream" stroke="black" stroke-width="1"/>
  <rect x="370" y="121" width="20" height="30" fill="MintCream" stroke="black" stroke-width="1"/>
  <text x="400" y="2168" font-family="sans-serif" font-size="16">Windows Vista (x86) (421)</text>
  <path d="M 200,300 L -13.8,149.9 A 150,150 0 0 1 -13.5,149.9 Z" fill="SeaGreen" stroke="black" stroke-width="1"/>
  <rect x="370" y="122" width="20" height="30" fill="SeaGreen" stroke="black" stroke-width="1"/>
  <text x="400" y="2198" font-family="sans-serif" font-size="16">Windows XP (amd64) (53)</text>
  <path d="M 200,300 L -13.5,149.9 A 150,150 0 0 1 -0.1,150.0 Z" fill="BlanchedAlmond" stroke="black" stroke-width="1"/>
  <rect x="370" y="123" width="20" height="30" fill="BlanchedAlmond" stroke="black" stroke-width="1"/>
  <text x="400" y="2228" font-family="sans-serif" font-size="16">Windows XP (x86) (2544)</text>
  <path d="M 200,300 L -0.1,150.0 A 150,150 0 0 1 -0.1,150.0 Z" fill="DarkTurquoise" stroke="black" stroke-width="1"/>
  <rect x="370" y="124" width="20" height="30" fill="DarkTurquoise" stroke="black" stroke-width="1"/>
  <text x="400" y="2258" font-family="sans-serif" font-size="16">z/OS (s390) (8)</text>
  <path d="M 200,300 L -0.1,150.0 A 150,150 0 0 1 -0.0,150.0 Z" fill="LightCoral" stroke="black" stroke-width="1"/>
  <rect x="370" y="125" width="20" height="30" fill="LightCoral" stroke="black" stroke-width="1"/>
  <text x="400" y="2288" font-family="sans-serif" font-size="16">z/OS (s390x) (11)</text>
</svg>
