<svg xmlns="http://www.w3.org/2000/svg" version="1.1" preserveAspectRatio="xMidYMid meet" viewBox="0 0 1100 16718.1">
  <rect fill="blue" height="0.1" stroke="black" width="12" x="15" y="16418.0"/>
  <text x="15" y="16423.1" font-family="Tahoma" font-size="12" transform="rotate(90 15,16423.1)" text-rendering="optimizeSpeed" fill="#000000">DragonFly (i386) (1)</text>
  <rect fill="blue" height="0.1" stroke="black" width="12" x="30" y="16418.0"/>
  <text x="30" y="16423.1" font-family="Tahoma" font-size="12" transform="rotate(90 30,16423.1)" text-rendering="optimizeSpeed" fill="#000000">DragonFlyBSD (amd64) (1)</text>
  <rect fill="blue" height="0.1" stroke="black" width="12" x="45" y="16418.0"/>
  <text x="45" y="16423.1" font-family="Tahoma" font-size="12" transform="rotate(90 45,16423.1)" text-rendering="optimizeSpeed" fill="#000000">HP-UX (PA_RISC2.0W) (1)</text>
  <rect fill="blue" height="0.1" stroke="black" width="12" x="60" y="16418.0"/>
  <text x="60" y="16423.1" font-family="Tahoma" font-size="12" transform="rotate(90 60,16423.1)" text-rendering="optimizeSpeed" fill="#000000">Haiku (i386) (1)</text>
  <rect fill="blue" height="0.1" stroke="black" width="12" x="75" y="16418.0"/>
  <text x="75" y="16423.1" font-family="Tahoma" font-size="12" transform="rotate(90 75,16423.1)" text-rendering="optimizeSpeed" fill="#000000">Linux (mips) (1)</text>
  <rect fill="blue" height="0.1" stroke="black" width="12" x="90" y="16418.0"/>
  <text x="90" y="16423.1" font-family="Tahoma" font-size="12" transform="rotate(90 90,16423.1)" text-rendering="optimizeSpeed" fill="#000000">Linux (mips64el) (1)</text>
  <rect fill="blue" height="0.1" stroke="black" width="12" x="105" y="16418.0"/>
  <text x="105" y="16423.1" font-family="Tahoma" font-size="12" transform="rotate(90 105,16423.1)" text-rendering="optimizeSpeed" fill="#000000">Linux (mipsel) (1)</text>
  <rect fill="blue" height="0.1" stroke="black" width="12" x="120" y="16418.0"/>
  <text x="120" y="16423.1" font-family="Tahoma" font-size="12" transform="rotate(90 120,16423.1)" text-rendering="optimizeSpeed" fill="#000000">Mac OS X (EMAG 1.2) (x86_64) (1)</text>
  <rect fill="blue" height="0.1" stroke="black" width="12" x="135" y="16418.0"/>
  <text x="135" y="16423.1" font-family="Tahoma" font-size="12" transform="rotate(90 135,16423.1)" text-rendering="optimizeSpeed" fill="#000000">Mac OS X (ppc) (1)</text>
  <rect fill="blue" height="0.1" stroke="black" width="12" x="150" y="16418.0"/>
  <text x="150" y="16423.1" font-family="Tahoma" font-size="12" transform="rotate(90 150,16423.1)" text-rendering="optimizeSpeed" fill="#000000">Windows Server 2008 R2 (ia64) (1)</text>
  <rect fill="blue" height="0.2" stroke="black" width="12" x="165" y="16417.9"/>
  <text x="165" y="16423.1" font-family="Tahoma" font-size="12" transform="rotate(90 165,16423.1)" text-rendering="optimizeSpeed" fill="#000000">Mac OS X (amd64) (2)</text>
  <rect fill="blue" height="0.4" stroke="black" width="12" x="180" y="16417.7"/>
  <text x="180" y="16423.1" font-family="Tahoma" font-size="12" transform="rotate(90 180,16423.1)" text-rendering="optimizeSpeed" fill="#000000">OS/400 (PowerPC) (4)</text>
  <rect fill="blue" height="0.4" stroke="black" width="12" x="195" y="16417.7"/>
  <text x="195" y="16423.1" font-family="Tahoma" font-size="12" transform="rotate(90 195,16423.1)" text-rendering="optimizeSpeed" fill="#000000">OpenBSD (i386) (4)</text>
  <rect fill="blue" height="0.6" stroke="black" width="12" x="210" y="16417.5"/>
  <text x="210" y="16423.1" font-family="Tahoma" font-size="12" transform="rotate(90 210,16423.1)" text-rendering="optimizeSpeed" fill="#000000">z/OS (s390) (6)</text>
  <rect fill="blue" height="0.7" stroke="black" width="12" x="225" y="16417.4"/>
  <text x="225" y="16423.1" font-family="Tahoma" font-size="12" transform="rotate(90 225,16423.1)" text-rendering="optimizeSpeed" fill="#000000">Linux (s390) (7)</text>
  <rect fill="blue" height="0.7" stroke="black" width="12" x="240" y="16417.4"/>
  <text x="240" y="16423.1" font-family="Tahoma" font-size="12" transform="rotate(90 240,16423.1)" text-rendering="optimizeSpeed" fill="#000000">NetBSD (amd64) (7)</text>
  <rect fill="blue" height="0.8" stroke="black" width="12" x="255" y="16417.3"/>
  <text x="255" y="16423.1" font-family="Tahoma" font-size="12" transform="rotate(90 255,16423.1)" text-rendering="optimizeSpeed" fill="#000000">HP-UX (ia64) (8)</text>
  <rect fill="blue" height="0.9" stroke="black" width="12" x="270" y="16417.2"/>
  <text x="270" y="16423.1" font-family="Tahoma" font-size="12" transform="rotate(90 270,16423.1)" text-rendering="optimizeSpeed" fill="#000000">Windows Server 2003 (amd64) (9)</text>
  <rect fill="blue" height="0.9" stroke="black" width="12" x="285" y="16417.2"/>
  <text x="285" y="16423.1" font-family="Tahoma" font-size="12" transform="rotate(90 285,16423.1)" text-rendering="optimizeSpeed" fill="#000000">z/OS (s390x) (9)</text>
  <rect fill="blue" height="1.1" stroke="black" width="12" x="300" y="16417.0"/>
  <text x="300" y="16423.1" font-family="Tahoma" font-size="12" transform="rotate(90 300,16423.1)" text-rendering="optimizeSpeed" fill="#000000">Windows 2000 (x86) (11)</text>
  <rect fill="blue" height="1.5" stroke="black" width="12" x="315" y="16416.6"/>
  <text x="315" y="16423.1" font-family="Tahoma" font-size="12" transform="rotate(90 315,16423.1)" text-rendering="optimizeSpeed" fill="#000000">NetBSD (i386) (15)</text>
  <rect fill="blue" height="1.7" stroke="black" width="12" x="330" y="16416.4"/>
  <text x="330" y="16423.1" font-family="Tahoma" font-size="12" transform="rotate(90 330,16423.1)" text-rendering="optimizeSpeed" fill="#000000">OpenBSD (amd64) (17)</text>
  <rect fill="blue" height="1.9" stroke="black" width="12" x="345" y="16416.2"/>
  <text x="345" y="16423.1" font-family="Tahoma" font-size="12" transform="rotate(90 345,16423.1)" text-rendering="optimizeSpeed" fill="#000000">HP-UX (IA64W) (19)</text>
  <rect fill="blue" height="1.9" stroke="black" width="12" x="360" y="16416.2"/>
  <text x="360" y="16423.1" font-family="Tahoma" font-size="12" transform="rotate(90 360,16423.1)" text-rendering="optimizeSpeed" fill="#000000">Linux (ia64) (19)</text>
  <rect fill="blue" height="1.9" stroke="black" width="12" x="375" y="16416.2"/>
  <text x="375" y="16423.1" font-family="Tahoma" font-size="12" transform="rotate(90 375,16423.1)" text-rendering="optimizeSpeed" fill="#000000">Mac OS X (i386) (19)</text>
  <rect fill="blue" height="2.3" stroke="black" width="12" x="390" y="16415.8"/>
  <text x="390" y="16423.1" font-family="Tahoma" font-size="12" transform="rotate(90 390,16423.1)" text-rendering="optimizeSpeed" fill="#000000">Windows Server 2003 (x86) (23)</text>
  <rect fill="blue" height="2.4" stroke="black" width="12" x="405" y="16415.7"/>
  <text x="405" y="16423.1" font-family="Tahoma" font-size="12" transform="rotate(90 405,16423.1)" text-rendering="optimizeSpeed" fill="#000000">Windows (amd64) (24)</text>
  <rect fill="blue" height="2.6" stroke="black" width="12" x="420" y="16415.5"/>
  <text x="420" y="16423.1" font-family="Tahoma" font-size="12" transform="rotate(90 420,16423.1)" text-rendering="optimizeSpeed" fill="#000000">Linux (aarch64) (26)</text>
  <rect fill="blue" height="3.8" stroke="black" width="12" x="435" y="16414.3"/>
  <text x="435" y="16423.1" font-family="Tahoma" font-size="12" transform="rotate(90 435,16423.1)" text-rendering="optimizeSpeed" fill="#000000">Linux (ppc) (38)</text>
  <rect fill="blue" height="4.5" stroke="black" width="12" x="450" y="16413.6"/>
  <text x="450" y="16423.1" font-family="Tahoma" font-size="12" transform="rotate(90 450,16423.1)" text-rendering="optimizeSpeed" fill="#000000">Linux (ppc64le) (45)</text>
  <rect fill="blue" height="4.6" stroke="black" width="12" x="465" y="16413.5"/>
  <text x="465" y="16423.1" font-family="Tahoma" font-size="12" transform="rotate(90 465,16423.1)" text-rendering="optimizeSpeed" fill="#000000">Windows Vista (amd64) (46)</text>
  <rect fill="blue" height="6.3" stroke="black" width="12" x="480" y="16411.8"/>
  <text x="480" y="16423.1" font-family="Tahoma" font-size="12" transform="rotate(90 480,16423.1)" text-rendering="optimizeSpeed" fill="#000000">Windows XP (amd64) (63)</text>
  <rect fill="blue" height="7.0" stroke="black" width="12" x="495" y="16411.1"/>
  <text x="495" y="16423.1" font-family="Tahoma" font-size="12" transform="rotate(90 495,16423.1)" text-rendering="optimizeSpeed" fill="#000000">HP-UX (PA_RISC2.0) (70)</text>
  <rect fill="blue" height="11.7" stroke="black" width="12" x="510" y="16406.4"/>
  <text x="510" y="16423.1" font-family="Tahoma" font-size="12" transform="rotate(90 510,16423.1)" text-rendering="optimizeSpeed" fill="#000000">Linux (s390x) (117)</text>
  <rect fill="blue" height="18.7" stroke="black" width="12" x="525" y="16399.4"/>
  <text x="525" y="16423.1" font-family="Tahoma" font-size="12" transform="rotate(90 525,16423.1)" text-rendering="optimizeSpeed" fill="#000000">FreeBSD (i386) (187)</text>
  <rect fill="blue" height="18.9" stroke="black" width="12" x="540" y="16399.2"/>
  <text x="540" y="16423.1" font-family="Tahoma" font-size="12" transform="rotate(90 540,16423.1)" text-rendering="optimizeSpeed" fill="#000000">Linux (ppc64) (189)</text>
  <rect fill="blue" height="21.2" stroke="black" width="12" x="555" y="16396.9"/>
  <text x="555" y="16423.1" font-family="Tahoma" font-size="12" transform="rotate(90 555,16423.1)" text-rendering="optimizeSpeed" fill="#000000">SunOS (sparcv9) (212)</text>
  <rect fill="blue" height="22.6" stroke="black" width="12" x="570" y="16395.5"/>
  <text x="570" y="16423.1" font-family="Tahoma" font-size="12" transform="rotate(90 570,16423.1)" text-rendering="optimizeSpeed" fill="#000000">Linux (x86) (226)</text>
  <rect fill="blue" height="23.6" stroke="black" width="12" x="585" y="16394.5"/>
  <text x="585" y="16423.1" font-family="Tahoma" font-size="12" transform="rotate(90 585,16423.1)" text-rendering="optimizeSpeed" fill="#000000">SunOS (amd64) (236)</text>
  <rect fill="blue" height="25.7" stroke="black" width="12" x="600" y="16392.4"/>
  <text x="600" y="16423.1" font-family="Tahoma" font-size="12" transform="rotate(90 600,16423.1)" text-rendering="optimizeSpeed" fill="#000000">HP-UX (IA64N) (257)</text>
  <rect fill="blue" height="26.8" stroke="black" width="12" x="615" y="16391.3"/>
  <text x="615" y="16423.1" font-family="Tahoma" font-size="12" transform="rotate(90 615,16423.1)" text-rendering="optimizeSpeed" fill="#000000">Windows NT (unknown) (x86) (268)</text>
  <rect fill="blue" height="29.7" stroke="black" width="12" x="630" y="16388.4"/>
  <text x="630" y="16423.1" font-family="Tahoma" font-size="12" transform="rotate(90 630,16423.1)" text-rendering="optimizeSpeed" fill="#000000">Windows NT (unknown) (amd64) (297)</text>
  <rect fill="blue" height="39.5" stroke="black" width="12" x="645" y="16378.6"/>
  <text x="645" y="16423.1" font-family="Tahoma" font-size="12" transform="rotate(90 645,16423.1)" text-rendering="optimizeSpeed" fill="#000000">Linux (arm) (395)</text>
  <rect fill="blue" height="48.1" stroke="black" width="12" x="660" y="16370.0"/>
  <text x="660" y="16423.1" font-family="Tahoma" font-size="12" transform="rotate(90 660,16423.1)" text-rendering="optimizeSpeed" fill="#000000">Windows 2003 (amd64) (481)</text>
  <rect fill="blue" height="49.7" stroke="black" width="12" x="675" y="16368.4"/>
  <text x="675" y="16423.1" font-family="Tahoma" font-size="12" transform="rotate(90 675,16423.1)" text-rendering="optimizeSpeed" fill="#000000">Windows Vista (x86) (497)</text>
  <rect fill="blue" height="52.2" stroke="black" width="12" x="690" y="16365.9"/>
  <text x="690" y="16423.1" font-family="Tahoma" font-size="12" transform="rotate(90 690,16423.1)" text-rendering="optimizeSpeed" fill="#000000">FreeBSD (amd64) (522)</text>
  <rect fill="blue" height="73.6" stroke="black" width="12" x="705" y="16344.5"/>
  <text x="705" y="16423.1" font-family="Tahoma" font-size="12" transform="rotate(90 705,16423.1)" text-rendering="optimizeSpeed" fill="#000000">AIX (ppc) (736)</text>
  <rect fill="blue" height="75.3" stroke="black" width="12" x="720" y="16342.8"/>
  <text x="720" y="16423.1" font-family="Tahoma" font-size="12" transform="rotate(90 720,16423.1)" text-rendering="optimizeSpeed" fill="#000000">Windows Server 2008 (amd64) (753)</text>
  <rect fill="blue" height="84.2" stroke="black" width="12" x="735" y="16333.9"/>
  <text x="735" y="16423.1" font-family="Tahoma" font-size="12" transform="rotate(90 735,16423.1)" text-rendering="optimizeSpeed" fill="#000000">Windows 8 (amd64) (842)</text>
  <rect fill="blue" height="90.7" stroke="black" width="12" x="750" y="16327.4"/>
  <text x="750" y="16423.1" font-family="Tahoma" font-size="12" transform="rotate(90 750,16423.1)" text-rendering="optimizeSpeed" fill="#000000">AIX (ppc64) (907)</text>
  <rect fill="blue" height="129.6" stroke="black" width="12" x="765" y="16288.5"/>
  <text x="765" y="16423.1" font-family="Tahoma" font-size="12" transform="rotate(90 765,16423.1)" text-rendering="optimizeSpeed" fill="#000000">Windows 8.1 (amd64) (1296)</text>
  <rect fill="blue" height="131.1" stroke="black" width="12" x="780" y="16287.0"/>
  <text x="780" y="16423.1" font-family="Tahoma" font-size="12" transform="rotate(90 780,16423.1)" text-rendering="optimizeSpeed" fill="#000000">SunOS (x86) (1311)</text>
  <rect fill="blue" height="147.6" stroke="black" width="12" x="795" y="16270.5"/>
  <text x="795" y="16423.1" font-family="Tahoma" font-size="12" transform="rotate(90 795,16423.1)" text-rendering="optimizeSpeed" fill="#000000">Windows Server 2008 (x86) (1476)</text>
  <rect fill="blue" height="152.7" stroke="black" width="12" x="810" y="16265.4"/>
  <text x="810" y="16423.1" font-family="Tahoma" font-size="12" transform="rotate(90 810,16423.1)" text-rendering="optimizeSpeed" fill="#000000">Windows 8 (x86) (1527)</text>
  <rect fill="blue" height="154.2" stroke="black" width="12" x="825" y="16263.9"/>
  <text x="825" y="16423.1" font-family="Tahoma" font-size="12" transform="rotate(90 825,16423.1)" text-rendering="optimizeSpeed" fill="#000000">SunOS (sparc) (1542)</text>
  <rect fill="blue" height="186.7" stroke="black" width="12" x="840" y="16231.4"/>
  <text x="840" y="16423.1" font-family="Tahoma" font-size="12" transform="rotate(90 840,16423.1)" text-rendering="optimizeSpeed" fill="#000000">Windows 8.1 (x86) (1867)</text>
  <rect fill="blue" height="244.3" stroke="black" width="12" x="855" y="16173.8"/>
  <text x="855" y="16423.1" font-family="Tahoma" font-size="12" transform="rotate(90 855,16423.1)" text-rendering="optimizeSpeed" fill="#000000">Windows Server 2012 R2 (x86) (2443)</text>
  <rect fill="blue" height="278.8" stroke="black" width="12" x="870" y="16139.3"/>
  <text x="870" y="16423.1" font-family="Tahoma" font-size="12" transform="rotate(90 870,16423.1)" text-rendering="optimizeSpeed" fill="#000000">Windows XP (x86) (2788)</text>
  <rect fill="blue" height="313.7" stroke="black" width="12" x="885" y="16104.4"/>
  <text x="885" y="16423.1" font-family="Tahoma" font-size="12" transform="rotate(90 885,16423.1)" text-rendering="optimizeSpeed" fill="#000000">Windows Server 2012 (x86) (3137)</text>
  <rect fill="blue" height="335.1" stroke="black" width="12" x="900" y="16083.0"/>
  <text x="900" y="16423.1" font-family="Tahoma" font-size="12" transform="rotate(90 900,16423.1)" text-rendering="optimizeSpeed" fill="#000000">Windows Server 2012 (amd64) (3351)</text>
  <rect fill="blue" height="367.3" stroke="black" width="12" x="915" y="16050.8"/>
  <text x="915" y="16423.1" font-family="Tahoma" font-size="12" transform="rotate(90 915,16423.1)" text-rendering="optimizeSpeed" fill="#000000">Windows 2003 (x86) (3673)</text>
  <rect fill="blue" height="379.2" stroke="black" width="12" x="930" y="16038.9"/>
  <text x="930" y="16423.1" font-family="Tahoma" font-size="12" transform="rotate(90 930,16423.1)" text-rendering="optimizeSpeed" fill="#000000">Windows Server 2012 R2 (amd64) (3792)</text>
  <rect fill="blue" height="1083.3" stroke="black" width="12" x="945" y="15334.8"/>
  <text x="945" y="16423.1" font-family="Tahoma" font-size="12" transform="rotate(90 945,16423.1)" text-rendering="optimizeSpeed" fill="#000000">Windows Server 2008 R2 (x86) (10833)</text>
  <rect fill="blue" height="1370.2" stroke="black" width="12" x="960" y="15047.9"/>
  <text x="960" y="16423.1" font-family="Tahoma" font-size="12" transform="rotate(90 960,16423.1)" text-rendering="optimizeSpeed" fill="#000000">Windows Server 2008 R2 (amd64) (13702)</text>
  <rect fill="blue" height="1547.0" stroke="black" width="12" x="975" y="14871.1"/>
  <text x="975" y="16423.1" font-family="Tahoma" font-size="12" transform="rotate(90 975,16423.1)" text-rendering="optimizeSpeed" fill="#000000">Mac OS X (x86_64) (15470)</text>
  <rect fill="blue" height="1585.5" stroke="black" width="12" x="990" y="14832.6"/>
  <text x="990" y="16423.1" font-family="Tahoma" font-size="12" transform="rotate(90 990,16423.1)" text-rendering="optimizeSpeed" fill="#000000">Linux (i386) (15855)</text>
  <rect fill="blue" height="1643.0" stroke="black" width="12" x="1005" y="14775.1"/>
  <text x="1005" y="16423.1" font-family="Tahoma" font-size="12" transform="rotate(90 1005,16423.1)" text-rendering="optimizeSpeed" fill="#000000">Windows 7 (amd64) (16430)</text>
  <rect fill="blue" height="2284.3" stroke="black" width="12" x="1020" y="14133.8"/>
  <text x="1020" y="16423.1" font-family="Tahoma" font-size="12" transform="rotate(90 1020,16423.1)" text-rendering="optimizeSpeed" fill="#000000">Windows 7 (x86) (22843)</text>
  <rect fill="blue" height="8502.5" stroke="black" width="12" x="1035" y="7915.6"/>
  <text x="1035" y="16423.1" font-family="Tahoma" font-size="12" transform="rotate(90 1035,16423.1)" text-rendering="optimizeSpeed" fill="#000000">N/A (85025)</text>
  <rect fill="blue" height="16368.1" stroke="black" width="12" x="1050" y="50.0"/>
  <text x="1050" y="16423.1" font-family="Tahoma" font-size="12" transform="rotate(90 1050,16423.1)" text-rendering="optimizeSpeed" fill="#000000">Linux (amd64) (163681)</text>
  <text x="10" y="40" font-family="Tahoma" font-size="20" text-rendering="optimizeSpeed" fill="#000000">Nodes (total: 379665)</text>
</svg>
