<svg xmlns="http://www.w3.org/2000/svg" version="1.1" preserveAspectRatio="xMidYMid meet" viewBox="0 0 720 2300">
  <text x="30" y="40" font-family="sans-serif" font-size="16">Nodes, total: 317556</text>
  <path d="M 200,300 L 0.0,150.0 A 150,150 0 0 1 3.2,150.0 Z" fill="BurlyWood" stroke="black" stroke-width="1"/>
  <rect x="370" y="50" width="20" height="30" fill="BurlyWood" stroke="black" stroke-width="1"/>
  <text x="400" y="38" font-family="sans-serif" font-size="16">AIX (ppc) (458)</text>
  <path d="M 200,300 L 3.2,150.0 A 150,150 0 0 1 8.4,150.0 Z" fill="CadetBlue" stroke="black" stroke-width="1"/>
  <rect x="370" y="51" width="20" height="30" fill="CadetBlue" stroke="black" stroke-width="1"/>
  <text x="400" y="68" font-family="sans-serif" font-size="16">AIX (ppc64) (760)</text>
  <path d="M 200,300 L 8.4,150.0 A 150,150 0 0 1 8.4,150.0 Z" fill="red" stroke="black" stroke-width="1"/>
  <rect x="370" y="52" width="20" height="30" fill="red" stroke="black" stroke-width="1"/>
  <text x="400" y="98" font-family="sans-serif" font-size="16">Darwin (i386) (2)</text>
  <path d="M 200,300 L 8.4,150.0 A 150,150 0 0 1 8.5,150.0 Z" fill="blue" stroke="black" stroke-width="1"/>
  <rect x="370" y="53" width="20" height="30" fill="blue" stroke="black" stroke-width="1"/>
  <text x="400" y="128" font-family="sans-serif" font-size="16">Darwin (ppc) (1)</text>
  <path d="M 200,300 L 8.5,150.0 A 150,150 0 0 1 8.5,150.0 Z" fill="yellow" stroke="black" stroke-width="1"/>
  <rect x="370" y="54" width="20" height="30" fill="yellow" stroke="black" stroke-width="1"/>
  <text x="400" y="158" font-family="sans-serif" font-size="16">DragonFlyBSD (amd64) (1)</text>
  <path d="M 200,300 L 8.5,150.0 A 150,150 0 0 1 11.4,149.9 Z" fill="green" stroke="black" stroke-width="1"/>
  <rect x="370" y="55" width="20" height="30" fill="green" stroke="black" stroke-width="1"/>
  <text x="400" y="188" font-family="sans-serif" font-size="16">FreeBSD (amd64) (425)</text>
  <path d="M 200,300 L 11.4,149.9 A 150,150 0 0 1 13.0,149.9 Z" fill="gold" stroke="black" stroke-width="1"/>
  <rect x="370" y="56" width="20" height="30" fill="gold" stroke="black" stroke-width="1"/>
  <text x="400" y="218" font-family="sans-serif" font-size="16">FreeBSD (i386) (236)</text>
  <path d="M 200,300 L 13.0,149.9 A 150,150 0 0 1 14.8,149.9 Z" fill="brown" stroke="black" stroke-width="1"/>
  <rect x="370" y="57" width="20" height="30" fill="brown" stroke="black" stroke-width="1"/>
  <text x="400" y="248" font-family="sans-serif" font-size="16">HP-UX (IA64N) (253)</text>
  <path d="M 200,300 L 14.8,149.9 A 150,150 0 0 1 15.1,149.9 Z" fill="Azure" stroke="black" stroke-width="1"/>
  <rect x="370" y="58" width="20" height="30" fill="Azure" stroke="black" stroke-width="1"/>
  <text x="400" y="278" font-family="sans-serif" font-size="16">HP-UX (IA64W) (46)</text>
  <path d="M 200,300 L 15.1,149.9 A 150,150 0 0 1 15.7,149.8 Z" fill="pink" stroke="black" stroke-width="1"/>
  <rect x="370" y="59" width="20" height="30" fill="pink" stroke="black" stroke-width="1"/>
  <text x="400" y="308" font-family="sans-serif" font-size="16">HP-UX (PA_RISC2.0) (80)</text>
  <path d="M 200,300 L 15.7,149.8 A 150,150 0 0 1 15.7,149.8 Z" fill="khaki" stroke="black" stroke-width="1"/>
  <rect x="370" y="60" width="20" height="30" fill="khaki" stroke="black" stroke-width="1"/>
  <text x="400" y="338" font-family="sans-serif" font-size="16">HP-UX (PA_RISC2.0W) (1)</text>
  <path d="M 200,300 L 15.7,149.8 A 150,150 0 0 1 15.7,149.8 Z" fill="gray" stroke="black" stroke-width="1"/>
  <rect x="370" y="61" width="20" height="30" fill="gray" stroke="black" stroke-width="1"/>
  <text x="400" y="368" font-family="sans-serif" font-size="16">HP-UX (ia64) (4)</text>
  <path d="M 200,300 L 15.7,149.8 A 150,150 0 0 1 15.7,149.8 Z" fill="Aqua" stroke="black" stroke-width="1"/>
  <rect x="370" y="62" width="20" height="30" fill="Aqua" stroke="black" stroke-width="1"/>
  <text x="400" y="398" font-family="sans-serif" font-size="16">Haiku (i386) (1)</text>
  <path d="M 200,300 L 15.7,149.8 A 150,150 0 0 1 15.7,149.8 Z" fill="Aquamarine" stroke="black" stroke-width="1"/>
  <rect x="370" y="63" width="20" height="30" fill="Aquamarine" stroke="black" stroke-width="1"/>
  <text x="400" y="428" font-family="sans-serif" font-size="16">Linux (aarch64) (7)</text>
  <path d="M 200,300 L 15.7,149.8 A 150,150 0 0 1 176.7,-129.5 Z" fill="beige" stroke="black" stroke-width="1"/>
  <rect x="370" y="64" width="20" height="30" fill="beige" stroke="black" stroke-width="1"/>
  <text x="400" y="458" font-family="sans-serif" font-size="16">Linux (amd64) (129764)</text>
  <path d="M 200,300 L 176.7,-129.5 A 150,150 0 0 1 175.3,-129.8 Z" fill="blueviolet" stroke="black" stroke-width="1"/>
  <rect x="370" y="65" width="20" height="30" fill="blueviolet" stroke="black" stroke-width="1"/>
  <text x="400" y="488" font-family="sans-serif" font-size="16">Linux (arm) (230)</text>
  <path d="M 200,300 L 175.3,-129.8 A 150,150 0 0 1 67.4,-147.2 Z" fill="Bisque" stroke="black" stroke-width="1"/>
  <rect x="370" y="66" width="20" height="30" fill="Bisque" stroke="black" stroke-width="1"/>
  <text x="400" y="518" font-family="sans-serif" font-size="16">Linux (i386) (16717)</text>
  <path d="M 200,300 L 67.4,-147.2 A 150,150 0 0 1 67.3,-147.2 Z" fill="coral" stroke="black" stroke-width="1"/>
  <rect x="370" y="67" width="20" height="30" fill="coral" stroke="black" stroke-width="1"/>
  <text x="400" y="548" font-family="sans-serif" font-size="16">Linux (ia64) (18)</text>
  <path d="M 200,300 L 67.3,-147.2 A 150,150 0 0 1 67.3,-147.2 Z" fill="darkblue" stroke="black" stroke-width="1"/>
  <rect x="370" y="68" width="20" height="30" fill="darkblue" stroke="black" stroke-width="1"/>
  <text x="400" y="578" font-family="sans-serif" font-size="16">Linux (mips64el) (1)</text>
  <path d="M 200,300 L 67.3,-147.2 A 150,150 0 0 1 67.2,-147.2 Z" fill="crimson" stroke="black" stroke-width="1"/>
  <rect x="370" y="69" width="20" height="30" fill="crimson" stroke="black" stroke-width="1"/>
  <text x="400" y="608" font-family="sans-serif" font-size="16">Linux (mipsel) (3)</text>
  <path d="M 200,300 L 67.2,-147.2 A 150,150 0 0 1 67.0,-147.2 Z" fill="cyan" stroke="black" stroke-width="1"/>
  <rect x="370" y="70" width="20" height="30" fill="cyan" stroke="black" stroke-width="1"/>
  <text x="400" y="638" font-family="sans-serif" font-size="16">Linux (ppc) (42)</text>
  <path d="M 200,300 L 67.0,-147.2 A 150,150 0 0 1 65.9,-147.3 Z" fill="darkred" stroke="black" stroke-width="1"/>
  <rect x="370" y="71" width="20" height="30" fill="darkred" stroke="black" stroke-width="1"/>
  <text x="400" y="668" font-family="sans-serif" font-size="16">Linux (ppc64) (161)</text>
  <path d="M 200,300 L 65.9,-147.3 A 150,150 0 0 1 65.8,-147.3 Z" fill="ivory" stroke="black" stroke-width="1"/>
  <rect x="370" y="72" width="20" height="30" fill="ivory" stroke="black" stroke-width="1"/>
  <text x="400" y="698" font-family="sans-serif" font-size="16">Linux (ppc64le) (13)</text>
  <path d="M 200,300 L 65.8,-147.3 A 150,150 0 0 1 65.7,-147.3 Z" fill="lime" stroke="black" stroke-width="1"/>
  <rect x="370" y="73" width="20" height="30" fill="lime" stroke="black" stroke-width="1"/>
  <text x="400" y="728" font-family="sans-serif" font-size="16">Linux (s390) (9)</text>
  <path d="M 200,300 L 65.7,-147.3 A 150,150 0 0 1 65.1,-147.4 Z" fill="maroon" stroke="black" stroke-width="1"/>
  <rect x="370" y="74" width="20" height="30" fill="maroon" stroke="black" stroke-width="1"/>
  <text x="400" y="758" font-family="sans-serif" font-size="16">Linux (s390x) (86)</text>
  <path d="M 200,300 L 65.1,-147.4 A 150,150 0 0 1 65.1,-147.4 Z" fill="navy" stroke="black" stroke-width="1"/>
  <rect x="370" y="75" width="20" height="30" fill="navy" stroke="black" stroke-width="1"/>
  <text x="400" y="788" font-family="sans-serif" font-size="16">Linux (sparc) (1)</text>
  <path d="M 200,300 L 65.1,-147.4 A 150,150 0 0 1 63.7,-147.5 Z" fill="olive" stroke="black" stroke-width="1"/>
  <rect x="370" y="76" width="20" height="30" fill="olive" stroke="black" stroke-width="1"/>
  <text x="400" y="818" font-family="sans-serif" font-size="16">Linux (x86) (207)</text>
  <path d="M 200,300 L 63.7,-147.5 A 150,150 0 0 1 63.7,-147.5 Z" fill="plum" stroke="black" stroke-width="1"/>
  <rect x="370" y="77" width="20" height="30" fill="plum" stroke="black" stroke-width="1"/>
  <text x="400" y="848" font-family="sans-serif" font-size="16">Linux (x86_64) (1)</text>
  <path d="M 200,300 L 63.7,-147.5 A 150,150 0 0 1 63.7,-147.5 Z" fill="peru" stroke="black" stroke-width="1"/>
  <rect x="370" y="78" width="20" height="30" fill="peru" stroke="black" stroke-width="1"/>
  <text x="400" y="878" font-family="sans-serif" font-size="16">Mac OS X (amd64) (2)</text>
  <path d="M 200,300 L 63.7,-147.5 A 150,150 0 0 1 63.5,-147.5 Z" fill="silver" stroke="black" stroke-width="1"/>
  <rect x="370" y="79" width="20" height="30" fill="silver" stroke="black" stroke-width="1"/>
  <text x="400" y="908" font-family="sans-serif" font-size="16">Mac OS X (i386) (24)</text>
  <path d="M 200,300 L 63.5,-147.5 A 150,150 0 0 1 63.5,-147.5 Z" fill="tan" stroke="black" stroke-width="1"/>
  <rect x="370" y="80" width="20" height="30" fill="tan" stroke="black" stroke-width="1"/>
  <text x="400" y="938" font-family="sans-serif" font-size="16">Mac OS X (ppc) (2)</text>
  <path d="M 200,300 L 63.5,-147.5 A 150,150 0 0 1 -22.8,-149.7 Z" fill="teal" stroke="black" stroke-width="1"/>
  <rect x="370" y="81" width="20" height="30" fill="teal" stroke="black" stroke-width="1"/>
  <text x="400" y="968" font-family="sans-serif" font-size="16">Mac OS X (x86_64) (12512)</text>
  <path d="M 200,300 L -22.8,-149.7 A 150,150 0 0 1 -349.7,-5.9 Z" fill="violet" stroke="black" stroke-width="1"/>
  <rect x="370" y="82" width="20" height="30" fill="violet" stroke="black" stroke-width="1"/>
  <text x="400" y="998" font-family="sans-serif" font-size="16">N/A (74109)</text>
  <path d="M 200,300 L -349.7,-5.9 A 150,150 0 0 1 -349.7,-5.9 Z" fill="AliceBlue" stroke="black" stroke-width="1"/>
  <rect x="370" y="83" width="20" height="30" fill="AliceBlue" stroke="black" stroke-width="1"/>
  <text x="400" y="1028" font-family="sans-serif" font-size="16">NetBSD (amd64) (3)</text>
  <path d="M 200,300 L -349.7,-5.9 A 150,150 0 0 1 -349.7,-5.9 Z" fill="DarkOliveGreen" stroke="black" stroke-width="1"/>
  <rect x="370" y="84" width="20" height="30" fill="DarkOliveGreen" stroke="black" stroke-width="1"/>
  <text x="400" y="1058" font-family="sans-serif" font-size="16">NetBSD (i386) (9)</text>
  <path d="M 200,300 L -349.7,-5.9 A 150,150 0 0 1 -349.7,-5.9 Z" fill="Indigo" stroke="black" stroke-width="1"/>
  <rect x="370" y="85" width="20" height="30" fill="Indigo" stroke="black" stroke-width="1"/>
  <text x="400" y="1088" font-family="sans-serif" font-size="16">OS/400 (PowerPC) (4)</text>
  <path d="M 200,300 L -349.7,-5.9 A 150,150 0 0 1 -349.7,-5.8 Z" fill="MediumPurple" stroke="black" stroke-width="1"/>
  <rect x="370" y="86" width="20" height="30" fill="MediumPurple" stroke="black" stroke-width="1"/>
  <text x="400" y="1118" font-family="sans-serif" font-size="16">OpenBSD (amd64) (16)</text>
  <path d="M 200,300 L -349.7,-5.8 A 150,150 0 0 1 -349.7,-5.8 Z" fill="Purple" stroke="black" stroke-width="1"/>
  <rect x="370" y="87" width="20" height="30" fill="Purple" stroke="black" stroke-width="1"/>
  <text x="400" y="1148" font-family="sans-serif" font-size="16">OpenBSD (i386) (4)</text>
  <path d="M 200,300 L -349.7,-5.8 A 150,150 0 0 1 -349.8,-5.4 Z" fill="AntiqueWhite" stroke="black" stroke-width="1"/>
  <rect x="370" y="88" width="20" height="30" fill="AntiqueWhite" stroke="black" stroke-width="1"/>
  <text x="400" y="1178" font-family="sans-serif" font-size="16">SunOS (amd64) (147)</text>
  <path d="M 200,300 L -349.8,-5.4 A 150,150 0 0 1 -350.0,-0.4 Z" fill="DarkOrange" stroke="black" stroke-width="1"/>
  <rect x="370" y="89" width="20" height="30" fill="DarkOrange" stroke="black" stroke-width="1"/>
  <text x="400" y="1208" font-family="sans-serif" font-size="16">SunOS (sparc) (1689)</text>
  <path d="M 200,300 L -350.0,-0.4 A 150,150 0 0 1 -350.0,0.1 Z" fill="Ivory" stroke="black" stroke-width="1"/>
  <rect x="370" y="90" width="20" height="30" fill="Ivory" stroke="black" stroke-width="1"/>
  <text x="400" y="1238" font-family="sans-serif" font-size="16">SunOS (sparcv9) (150)</text>
  <path d="M 200,300 L -350.0,0.1 A 150,150 0 0 1 -349.9,4.2 Z" fill="MediumSeaGreen" stroke="black" stroke-width="1"/>
  <rect x="370" y="91" width="20" height="30" fill="MediumSeaGreen" stroke="black" stroke-width="1"/>
  <text x="400" y="1268" font-family="sans-serif" font-size="16">SunOS (x86) (1374)</text>
  <path d="M 200,300 L -349.9,4.2 A 150,150 0 0 1 -349.9,4.2 Z" fill="Red" stroke="black" stroke-width="1"/>
  <rect x="370" y="92" width="20" height="30" fill="Red" stroke="black" stroke-width="1"/>
  <text x="400" y="1298" font-family="sans-serif" font-size="16">Unknown (x86_64) (1)</text>
  <path d="M 200,300 L -349.9,4.2 A 150,150 0 0 1 -349.9,4.2 Z" fill="Aqua" stroke="black" stroke-width="1"/>
  <rect x="370" y="93" width="20" height="30" fill="Aqua" stroke="black" stroke-width="1"/>
  <text x="400" y="1328" font-family="sans-serif" font-size="16">Windows (amd64) (10)</text>
  <path d="M 200,300 L -349.9,4.2 A 150,150 0 0 1 -349.9,4.2 Z" fill="DarkOrchid" stroke="black" stroke-width="1"/>
  <rect x="370" y="94" width="20" height="30" fill="DarkOrchid" stroke="black" stroke-width="1"/>
  <text x="400" y="1358" font-family="sans-serif" font-size="16">Windows (x86) (1)</text>
  <path d="M 200,300 L -349.9,4.2 A 150,150 0 0 1 -349.9,4.3 Z" fill="Khaki" stroke="black" stroke-width="1"/>
  <rect x="370" y="95" width="20" height="30" fill="Khaki" stroke="black" stroke-width="1"/>
  <text x="400" y="1388" font-family="sans-serif" font-size="16">Windows 2000 (x86) (17)</text>
  <path d="M 200,300 L -349.9,4.3 A 150,150 0 0 1 -349.7,6.0 Z" fill="MediumSlateBlue" stroke="black" stroke-width="1"/>
  <rect x="370" y="96" width="20" height="30" fill="MediumSlateBlue" stroke="black" stroke-width="1"/>
  <text x="400" y="1418" font-family="sans-serif" font-size="16">Windows 2003 (amd64) (601)</text>
  <path d="M 200,300 L -349.7,6.0 A 150,150 0 0 1 -347.4,18.3 Z" fill="RosyBrown" stroke="black" stroke-width="1"/>
  <rect x="370" y="97" width="20" height="30" fill="RosyBrown" stroke="black" stroke-width="1"/>
  <text x="400" y="1448" font-family="sans-serif" font-size="16">Windows 2003 (x86) (4144)</text>
  <path d="M 200,300 L -347.4,18.3 A 150,150 0 0 1 -325.3,55.4 Z" fill="AquaMarine" stroke="black" stroke-width="1"/>
  <rect x="370" y="98" width="20" height="30" fill="AquaMarine" stroke="black" stroke-width="1"/>
  <text x="400" y="1478" font-family="sans-serif" font-size="16">Windows 7 (amd64) (12930)</text>
  <path d="M 200,300 L -325.3,55.4 A 150,150 0 0 1 -252.4,103.9 Z" fill="DarkRed" stroke="black" stroke-width="1"/>
  <rect x="370" y="99" width="20" height="30" fill="DarkRed" stroke="black" stroke-width="1"/>
  <text x="400" y="1508" font-family="sans-serif" font-size="16">Windows 7 (x86) (19575)</text>
  <path d="M 200,300 L -252.4,103.9 A 150,150 0 0 1 -248.6,105.6 Z" fill="Lavender" stroke="black" stroke-width="1"/>
  <rect x="370" y="100" width="20" height="30" fill="Lavender" stroke="black" stroke-width="1"/>
  <text x="400" y="1538" font-family="sans-serif" font-size="16">Windows 8 (amd64) (788)</text>
  <path d="M 200,300 L -248.6,105.6 A 150,150 0 0 1 -239.1,109.6 Z" fill="MediumSpringGreen" stroke="black" stroke-width="1"/>
  <rect x="370" y="101" width="20" height="30" fill="MediumSpringGreen" stroke="black" stroke-width="1"/>
  <text x="400" y="1568" font-family="sans-serif" font-size="16">Windows 8 (x86) (1912)</text>
  <path d="M 200,300 L -239.1,109.6 A 150,150 0 0 1 -235.5,111.0 Z" fill="RoyalBlue" stroke="black" stroke-width="1"/>
  <rect x="370" y="102" width="20" height="30" fill="RoyalBlue" stroke="black" stroke-width="1"/>
  <text x="400" y="1598" font-family="sans-serif" font-size="16">Windows 8.1 (amd64) (706)</text>
  <path d="M 200,300 L -235.5,111.0 A 150,150 0 0 1 -232.8,112.0 Z" fill="Azure" stroke="black" stroke-width="1"/>
  <rect x="370" y="103" width="20" height="30" fill="Azure" stroke="black" stroke-width="1"/>
  <text x="400" y="1628" font-family="sans-serif" font-size="16">Windows 8.1 (x86) (523)</text>
  <path d="M 200,300 L -232.8,112.0 A 150,150 0 0 1 -231.2,112.6 Z" fill="DarkSalmon" stroke="black" stroke-width="1"/>
  <rect x="370" y="104" width="20" height="30" fill="DarkSalmon" stroke="black" stroke-width="1"/>
  <text x="400" y="1658" font-family="sans-serif" font-size="16">Windows NT (unknown) (amd64) (305)</text>
  <path d="M 200,300 L -231.2,112.6 A 150,150 0 0 1 -229.3,113.3 Z" fill="LavenderBlush" stroke="black" stroke-width="1"/>
  <rect x="370" y="105" width="20" height="30" fill="LavenderBlush" stroke="black" stroke-width="1"/>
  <text x="400" y="1688" font-family="sans-serif" font-size="16">Windows NT (unknown) (x86) (361)</text>
  <path d="M 200,300 L -229.3,113.3 A 150,150 0 0 1 -229.3,113.3 Z" fill="MediumTurquoise" stroke="black" stroke-width="1"/>
  <rect x="370" y="106" width="20" height="30" fill="MediumTurquoise" stroke="black" stroke-width="1"/>
  <text x="400" y="1718" font-family="sans-serif" font-size="16">Windows Server 2003 (amd64) (12)</text>
  <path d="M 200,300 L -229.3,113.3 A 150,150 0 0 1 -229.0,113.4 Z" fill="SaddleBrown" stroke="black" stroke-width="1"/>
  <rect x="370" y="107" width="20" height="30" fill="SaddleBrown" stroke="black" stroke-width="1"/>
  <text x="400" y="1748" font-family="sans-serif" font-size="16">Windows Server 2003 (x86) (45)</text>
  <path d="M 200,300 L -229.0,113.4 A 150,150 0 0 1 -224.8,115.0 Z" fill="Beige" stroke="black" stroke-width="1"/>
  <rect x="370" y="108" width="20" height="30" fill="Beige" stroke="black" stroke-width="1"/>
  <text x="400" y="1778" font-family="sans-serif" font-size="16">Windows Server 2008 (amd64) (795)</text>
  <path d="M 200,300 L -224.8,115.0 A 150,150 0 0 1 -224.8,115.0 Z" fill="DarkSeaGreen" stroke="black" stroke-width="1"/>
  <rect x="370" y="109" width="20" height="30" fill="DarkSeaGreen" stroke="black" stroke-width="1"/>
  <text x="400" y="1808" font-family="sans-serif" font-size="16">Windows Server 2008 (ia64) (1)</text>
  <path d="M 200,300 L -224.8,115.0 A 150,150 0 0 1 -216.1,118.0 Z" fill="LawnGreen" stroke="black" stroke-width="1"/>
  <rect x="370" y="110" width="20" height="30" fill="LawnGreen" stroke="black" stroke-width="1"/>
  <text x="400" y="1838" font-family="sans-serif" font-size="16">Windows Server 2008 (x86) (1628)</text>
  <path d="M 200,300 L -216.1,118.0 A 150,150 0 0 1 -141.7,137.2 Z" fill="MediumVioletRed" stroke="black" stroke-width="1"/>
  <rect x="370" y="111" width="20" height="30" fill="MediumVioletRed" stroke="black" stroke-width="1"/>
  <text x="400" y="1868" font-family="sans-serif" font-size="16">Windows Server 2008 R2 (amd64) (12557)</text>
  <path d="M 200,300 L -141.7,137.2 A 150,150 0 0 1 -141.7,137.2 Z" fill="Salmon" stroke="black" stroke-width="1"/>
  <rect x="370" y="112" width="20" height="30" fill="Salmon" stroke="black" stroke-width="1"/>
  <text x="400" y="1898" font-family="sans-serif" font-size="16">Windows Server 2008 R2 (ia64) (1)</text>
  <path d="M 200,300 L -141.7,137.2 A 150,150 0 0 1 -76.5,146.4 Z" fill="Bisque" stroke="black" stroke-width="1"/>
  <rect x="370" y="113" width="20" height="30" fill="Bisque" stroke="black" stroke-width="1"/>
  <text x="400" y="1928" font-family="sans-serif" font-size="16">Windows Server 2008 R2 (x86) (9935)</text>
  <path d="M 200,300 L -76.5,146.4 A 150,150 0 0 1 -63.0,147.5 Z" fill="DarkSlateBlue" stroke="black" stroke-width="1"/>
  <rect x="370" y="114" width="20" height="30" fill="DarkSlateBlue" stroke="black" stroke-width="1"/>
  <text x="400" y="1958" font-family="sans-serif" font-size="16">Windows Server 2012 (amd64) (1985)</text>
  <path d="M 200,300 L -63.0,147.5 A 150,150 0 0 1 -43.0,148.9 Z" fill="LemonChiffon" stroke="black" stroke-width="1"/>
  <rect x="370" y="115" width="20" height="30" fill="LemonChiffon" stroke="black" stroke-width="1"/>
  <text x="400" y="1988" font-family="sans-serif" font-size="16">Windows Server 2012 (x86) (2922)</text>
  <path d="M 200,300 L -43.0,148.9 A 150,150 0 0 1 -31.9,149.4 Z" fill="MidnightBlue" stroke="black" stroke-width="1"/>
  <rect x="370" y="116" width="20" height="30" fill="MidnightBlue" stroke="black" stroke-width="1"/>
  <text x="400" y="2018" font-family="sans-serif" font-size="16">Windows Server 2012 R2 (amd64) (1614)</text>
  <path d="M 200,300 L -31.9,149.4 A 150,150 0 0 1 -28.6,149.5 Z" fill="SandyBrown" stroke="black" stroke-width="1"/>
  <rect x="370" y="117" width="20" height="30" fill="SandyBrown" stroke="black" stroke-width="1"/>
  <text x="400" y="2048" font-family="sans-serif" font-size="16">Windows Server 2012 R2 (x86) (481)</text>
  <path d="M 200,300 L -28.6,149.5 A 150,150 0 0 1 -28.6,149.5 Z" fill="Black" stroke="black" stroke-width="1"/>
  <rect x="370" y="118" width="20" height="30" fill="Black" stroke="black" stroke-width="1"/>
  <text x="400" y="2078" font-family="sans-serif" font-size="16">Windows Server 8 (amd64) (1)</text>
  <path d="M 200,300 L -28.6,149.5 A 150,150 0 0 1 -27.8,149.5 Z" fill="DarkSlateGray" stroke="black" stroke-width="1"/>
  <rect x="370" y="119" width="20" height="30" fill="DarkSlateGray" stroke="black" stroke-width="1"/>
  <text x="400" y="2108" font-family="sans-serif" font-size="16">Windows Vista (amd64) (108)</text>
  <path d="M 200,300 L -27.8,149.5 A 150,150 0 0 1 -23.8,149.7 Z" fill="LightBlue" stroke="black" stroke-width="1"/>
  <rect x="370" y="120" width="20" height="30" fill="LightBlue" stroke="black" stroke-width="1"/>
  <text x="400" y="2138" font-family="sans-serif" font-size="16">Windows Vista (x86) (581)</text>
  <path d="M 200,300 L -23.8,149.7 A 150,150 0 0 1 -23.3,149.7 Z" fill="MintCream" stroke="black" stroke-width="1"/>
  <rect x="370" y="121" width="20" height="30" fill="MintCream" stroke="black" stroke-width="1"/>
  <text x="400" y="2168" font-family="sans-serif" font-size="16">Windows XP (amd64) (76)</text>
  <path d="M 200,300 L -23.3,149.7 A 150,150 0 0 1 -0.0,150.0 Z" fill="SeaGreen" stroke="black" stroke-width="1"/>
  <rect x="370" y="122" width="20" height="30" fill="SeaGreen" stroke="black" stroke-width="1"/>
  <text x="400" y="2198" font-family="sans-serif" font-size="16">Windows XP (x86) (3361)</text>
  <path d="M 200,300 L -0.0,150.0 A 150,150 0 0 1 -0.0,150.0 Z" fill="BlanchedAlmond" stroke="black" stroke-width="1"/>
  <rect x="370" y="123" width="20" height="30" fill="BlanchedAlmond" stroke="black" stroke-width="1"/>
  <text x="400" y="2228" font-family="sans-serif" font-size="16">z/OS (s390) (3)</text>
  <path d="M 200,300 L -0.0,150.0 A 150,150 0 0 1 0.0,150.0 Z" fill="DarkTurquoise" stroke="black" stroke-width="1"/>
  <rect x="370" y="124" width="20" height="30" fill="DarkTurquoise" stroke="black" stroke-width="1"/>
  <text x="400" y="2258" font-family="sans-serif" font-size="16">z/OS (s390x) (3)</text>
</svg>
