<svg xmlns="http://www.w3.org/2000/svg" version="1.1" preserveAspectRatio="xMidYMid meet" viewBox="0 0 425 5929.6">
  <rect fill="blue" height="0.0" stroke="black" width="12" x="15" y="5629.6"/>
  <text x="15" y="5634.6" font-family="Tahoma" font-size="12" transform="rotate(90 15,5634.6)" text-rendering="optimizeSpeed" fill="#000000">org-jenkinsci-plugins-performance_receiver-PerformanceProject (1)</text>
  <rect fill="blue" height="0.0" stroke="black" width="12" x="30" y="5629.6"/>
  <text x="30" y="5634.6" font-family="Tahoma" font-size="12" transform="rotate(90 30,5634.6)" text-rendering="optimizeSpeed" fill="#000000">org-jenkinsci-plugins-AutomationTesting-AutomationTestingProject (2)</text>
  <rect fill="blue" height="0.0" stroke="black" width="12" x="45" y="5629.6"/>
  <text x="45" y="5634.6" font-family="Tahoma" font-size="12" transform="rotate(90 45,5634.6)" text-rendering="optimizeSpeed" fill="#000000">org-jenkinsci-plugins-SyncSources-MonitoringJobsProject (2)</text>
  <rect fill="blue" height="0.0" stroke="black" width="12" x="60" y="5629.6"/>
  <text x="60" y="5634.6" font-family="Tahoma" font-size="12" transform="rotate(90 60,5634.6)" text-rendering="optimizeSpeed" fill="#000000">org-jenkinsci-plugins-SyncSources-PreparationDailyProject (2)</text>
  <rect fill="blue" height="0.0" stroke="black" width="12" x="75" y="5629.6"/>
  <text x="75" y="5634.6" font-family="Tahoma" font-size="12" transform="rotate(90 75,5634.6)" text-rendering="optimizeSpeed" fill="#000000">org-jvnet-hudson-test-MockFolder (4)</text>
  <rect fill="blue" height="0.0" stroke="black" width="12" x="90" y="5629.6"/>
  <text x="90" y="5634.6" font-family="Tahoma" font-size="12" transform="rotate(90 90,5634.6)" text-rendering="optimizeSpeed" fill="#000000">org-jenkinsci-plugins-flyweightproject-FlyweightProject (13)</text>
  <rect fill="blue" height="0.0" stroke="black" width="12" x="105" y="5629.6"/>
  <text x="105" y="5634.6" font-family="Tahoma" font-size="12" transform="rotate(90 105,5634.6)" text-rendering="optimizeSpeed" fill="#000000">org-jenkinsci-plugins-utsnode-UTSNode (15)</text>
  <rect fill="blue" height="0.0" stroke="black" width="12" x="120" y="5629.6"/>
  <text x="120" y="5634.6" font-family="Tahoma" font-size="12" transform="rotate(90 120,5634.6)" text-rendering="optimizeSpeed" fill="#000000">org-jenkinsci-plugins-multirepo-api-MultiRepoProject (23)</text>
  <rect fill="blue" height="0.0" stroke="black" width="12" x="135" y="5629.6"/>
  <text x="135" y="5634.6" font-family="Tahoma" font-size="12" transform="rotate(90 135,5634.6)" text-rendering="optimizeSpeed" fill="#000000">org-jenkinsci-plugins-greenproject-GreenProject (38)</text>
  <rect fill="blue" height="0.0" stroke="black" width="12" x="150" y="5629.6"/>
  <text x="150" y="5634.6" font-family="Tahoma" font-size="12" transform="rotate(90 150,5634.6)" text-rendering="optimizeSpeed" fill="#000000">org-jenkinsci-plugins-coordinator-model-CoordinatorProject (46)</text>
  <rect fill="blue" height="0.0" stroke="black" width="12" x="165" y="5629.6"/>
  <text x="165" y="5634.6" font-family="Tahoma" font-size="12" transform="rotate(90 165,5634.6)" text-rendering="optimizeSpeed" fill="#000000">org-jenkinsci-plugins-SyncSources-PreShelveProject (47)</text>
  <rect fill="blue" height="0.0" stroke="black" width="12" x="180" y="5629.6"/>
  <text x="180" y="5634.6" font-family="Tahoma" font-size="12" transform="rotate(90 180,5634.6)" text-rendering="optimizeSpeed" fill="#000000">org-jenkinsci-plugins-SyncSources-MakeFirProject (48)</text>
  <rect fill="blue" height="0.0" stroke="black" width="12" x="195" y="5629.6"/>
  <text x="195" y="5634.6" font-family="Tahoma" font-size="12" transform="rotate(90 195,5634.6)" text-rendering="optimizeSpeed" fill="#000000">org-jenkinsci-plugins-SyncSources-MakeProject (48)</text>
  <rect fill="blue" height="0.1" stroke="black" width="12" x="210" y="5629.5"/>
  <text x="210" y="5634.6" font-family="Tahoma" font-size="12" transform="rotate(90 210,5634.6)" text-rendering="optimizeSpeed" fill="#000000">org-jenkinsci-plugins-spoontrigger-SpoonProject (71)</text>
  <rect fill="blue" height="0.1" stroke="black" width="12" x="225" y="5629.5"/>
  <text x="225" y="5634.6" font-family="Tahoma" font-size="12" transform="rotate(90 225,5634.6)" text-rendering="optimizeSpeed" fill="#000000">org-jenkinsci-plugins-workflow-multibranch-WorkflowMultiBranchProject (121)</text>
  <rect fill="blue" height="0.1" stroke="black" width="12" x="240" y="5629.5"/>
  <text x="240" y="5634.6" font-family="Tahoma" font-size="12" transform="rotate(90 240,5634.6)" text-rendering="optimizeSpeed" fill="#000000">hudson-plugins-job_dependency-projects-MasterProject (127)</text>
  <rect fill="blue" height="0.2" stroke="black" width="12" x="255" y="5629.4"/>
  <text x="255" y="5634.6" font-family="Tahoma" font-size="12" transform="rotate(90 255,5634.6)" text-rendering="optimizeSpeed" fill="#000000">hudson-model-RunOnceProject (231)</text>
  <rect fill="blue" height="1.9" stroke="black" width="12" x="270" y="5627.7"/>
  <text x="270" y="5634.6" font-family="Tahoma" font-size="12" transform="rotate(90 270,5634.6)" text-rendering="optimizeSpeed" fill="#000000">org-jenkinsci-plugins-jobgenerator-JobGenerator (1896)</text>
  <rect fill="blue" height="3.0" stroke="black" width="12" x="285" y="5626.6"/>
  <text x="285" y="5634.6" font-family="Tahoma" font-size="12" transform="rotate(90 285,5634.6)" text-rendering="optimizeSpeed" fill="#000000">hudson-model-ExternalJob (2970)</text>
  <rect fill="blue" height="4.7" stroke="black" width="12" x="300" y="5624.9"/>
  <text x="300" y="5634.6" font-family="Tahoma" font-size="12" transform="rotate(90 300,5634.6)" text-rendering="optimizeSpeed" fill="#000000">org-jenkinsci-plugins-workflow-job-WorkflowJob (4715)</text>
  <rect fill="blue" height="8.1" stroke="black" width="12" x="315" y="5621.5"/>
  <text x="315" y="5634.6" font-family="Tahoma" font-size="12" transform="rotate(90 315,5634.6)" text-rendering="optimizeSpeed" fill="#000000">hudson-ivy-IvyModuleSet (8057)</text>
  <rect fill="blue" height="17.6" stroke="black" width="12" x="330" y="5612.0"/>
  <text x="330" y="5634.6" font-family="Tahoma" font-size="12" transform="rotate(90 330,5634.6)" text-rendering="optimizeSpeed" fill="#000000">hudson-plugins-project_inheritance-projects-InheritanceProject (17639)</text>
  <rect fill="blue" height="241.1" stroke="black" width="12" x="345" y="5388.5"/>
  <text x="345" y="5634.6" font-family="Tahoma" font-size="12" transform="rotate(90 345,5634.6)" text-rendering="optimizeSpeed" fill="#000000">hudson-matrix-MatrixProject (241145)</text>
  <rect fill="blue" height="956.3" stroke="black" width="12" x="360" y="4673.3"/>
  <text x="360" y="5634.6" font-family="Tahoma" font-size="12" transform="rotate(90 360,5634.6)" text-rendering="optimizeSpeed" fill="#000000">hudson-maven-MavenModuleSet (956284)</text>
  <rect fill="blue" height="5579.6" stroke="black" width="12" x="375" y="50.0"/>
  <text x="375" y="5634.6" font-family="Tahoma" font-size="12" transform="rotate(90 375,5634.6)" text-rendering="optimizeSpeed" fill="#000000">hudson-model-FreeStyleProject (5579599)</text>
  <text x="10" y="40" font-family="Tahoma" font-size="20" text-rendering="optimizeSpeed" fill="#000000">Jobs (total: 6813144)</text>
</svg>
