<svg xmlns="http://www.w3.org/2000/svg" version="1.1" preserveAspectRatio="xMidYMid meet" viewBox="0 0 720 2150">
  <text x="30" y="40" font-family="sans-serif" font-size="16">Nodes, total: 379665</text>
  <path d="M 200,300 L 0.0,150.0 A 150,150 0 0 1 4.3,150.0 Z" fill="BurlyWood" stroke="black" stroke-width="1"/>
  <rect x="370" y="50" width="20" height="30" fill="BurlyWood" stroke="black" stroke-width="1"/>
  <text x="400" y="38" font-family="sans-serif" font-size="16">AIX (ppc) (736)</text>
  <path d="M 200,300 L 4.3,150.0 A 150,150 0 0 1 9.5,149.9 Z" fill="CadetBlue" stroke="black" stroke-width="1"/>
  <rect x="370" y="51" width="20" height="30" fill="CadetBlue" stroke="black" stroke-width="1"/>
  <text x="400" y="68" font-family="sans-serif" font-size="16">AIX (ppc64) (907)</text>
  <path d="M 200,300 L 9.5,149.9 A 150,150 0 0 1 9.5,149.9 Z" fill="red" stroke="black" stroke-width="1"/>
  <rect x="370" y="52" width="20" height="30" fill="red" stroke="black" stroke-width="1"/>
  <text x="400" y="98" font-family="sans-serif" font-size="16">DragonFly (i386) (1)</text>
  <path d="M 200,300 L 9.5,149.9 A 150,150 0 0 1 9.5,149.9 Z" fill="blue" stroke="black" stroke-width="1"/>
  <rect x="370" y="53" width="20" height="30" fill="blue" stroke="black" stroke-width="1"/>
  <text x="400" y="128" font-family="sans-serif" font-size="16">DragonFlyBSD (amd64) (1)</text>
  <path d="M 200,300 L 9.5,149.9 A 150,150 0 0 1 12.5,149.9 Z" fill="yellow" stroke="black" stroke-width="1"/>
  <rect x="370" y="54" width="20" height="30" fill="yellow" stroke="black" stroke-width="1"/>
  <text x="400" y="158" font-family="sans-serif" font-size="16">FreeBSD (amd64) (522)</text>
  <path d="M 200,300 L 12.5,149.9 A 150,150 0 0 1 13.6,149.9 Z" fill="green" stroke="black" stroke-width="1"/>
  <rect x="370" y="55" width="20" height="30" fill="green" stroke="black" stroke-width="1"/>
  <text x="400" y="188" font-family="sans-serif" font-size="16">FreeBSD (i386) (187)</text>
  <path d="M 200,300 L 13.6,149.9 A 150,150 0 0 1 15.1,149.9 Z" fill="gold" stroke="black" stroke-width="1"/>
  <rect x="370" y="56" width="20" height="30" fill="gold" stroke="black" stroke-width="1"/>
  <text x="400" y="218" font-family="sans-serif" font-size="16">HP-UX (IA64N) (257)</text>
  <path d="M 200,300 L 15.1,149.9 A 150,150 0 0 1 15.2,149.9 Z" fill="brown" stroke="black" stroke-width="1"/>
  <rect x="370" y="57" width="20" height="30" fill="brown" stroke="black" stroke-width="1"/>
  <text x="400" y="248" font-family="sans-serif" font-size="16">HP-UX (IA64W) (19)</text>
  <path d="M 200,300 L 15.2,149.9 A 150,150 0 0 1 15.6,149.9 Z" fill="Azure" stroke="black" stroke-width="1"/>
  <rect x="370" y="58" width="20" height="30" fill="Azure" stroke="black" stroke-width="1"/>
  <text x="400" y="278" font-family="sans-serif" font-size="16">HP-UX (PA_RISC2.0) (70)</text>
  <path d="M 200,300 L 15.6,149.9 A 150,150 0 0 1 15.6,149.9 Z" fill="pink" stroke="black" stroke-width="1"/>
  <rect x="370" y="59" width="20" height="30" fill="pink" stroke="black" stroke-width="1"/>
  <text x="400" y="308" font-family="sans-serif" font-size="16">HP-UX (PA_RISC2.0W) (1)</text>
  <path d="M 200,300 L 15.6,149.9 A 150,150 0 0 1 15.7,149.8 Z" fill="khaki" stroke="black" stroke-width="1"/>
  <rect x="370" y="60" width="20" height="30" fill="khaki" stroke="black" stroke-width="1"/>
  <text x="400" y="338" font-family="sans-serif" font-size="16">HP-UX (ia64) (8)</text>
  <path d="M 200,300 L 15.7,149.8 A 150,150 0 0 1 15.7,149.8 Z" fill="gray" stroke="black" stroke-width="1"/>
  <rect x="370" y="61" width="20" height="30" fill="gray" stroke="black" stroke-width="1"/>
  <text x="400" y="368" font-family="sans-serif" font-size="16">Haiku (i386) (1)</text>
  <path d="M 200,300 L 15.7,149.8 A 150,150 0 0 1 15.8,149.8 Z" fill="Aqua" stroke="black" stroke-width="1"/>
  <rect x="370" y="62" width="20" height="30" fill="Aqua" stroke="black" stroke-width="1"/>
  <text x="400" y="398" font-family="sans-serif" font-size="16">Linux (aarch64) (26)</text>
  <path d="M 200,300 L 15.8,149.8 A 150,150 0 0 1 132.3,-138.9 Z" fill="Aquamarine" stroke="black" stroke-width="1"/>
  <rect x="370" y="63" width="20" height="30" fill="Aquamarine" stroke="black" stroke-width="1"/>
  <text x="400" y="428" font-family="sans-serif" font-size="16">Linux (amd64) (163681)</text>
  <path d="M 200,300 L 132.3,-138.9 A 150,150 0 0 1 130.1,-139.2 Z" fill="beige" stroke="black" stroke-width="1"/>
  <rect x="370" y="64" width="20" height="30" fill="beige" stroke="black" stroke-width="1"/>
  <text x="400" y="458" font-family="sans-serif" font-size="16">Linux (arm) (395)</text>
  <path d="M 200,300 L 130.1,-139.2 A 150,150 0 0 1 41.4,-148.9 Z" fill="blueviolet" stroke="black" stroke-width="1"/>
  <rect x="370" y="65" width="20" height="30" fill="blueviolet" stroke="black" stroke-width="1"/>
  <text x="400" y="488" font-family="sans-serif" font-size="16">Linux (i386) (15855)</text>
  <path d="M 200,300 L 41.4,-148.9 A 150,150 0 0 1 41.3,-149.0 Z" fill="Bisque" stroke="black" stroke-width="1"/>
  <rect x="370" y="66" width="20" height="30" fill="Bisque" stroke="black" stroke-width="1"/>
  <text x="400" y="518" font-family="sans-serif" font-size="16">Linux (ia64) (19)</text>
  <path d="M 200,300 L 41.3,-149.0 A 150,150 0 0 1 41.3,-149.0 Z" fill="coral" stroke="black" stroke-width="1"/>
  <rect x="370" y="67" width="20" height="30" fill="coral" stroke="black" stroke-width="1"/>
  <text x="400" y="548" font-family="sans-serif" font-size="16">Linux (mips) (1)</text>
  <path d="M 200,300 L 41.3,-149.0 A 150,150 0 0 1 41.3,-149.0 Z" fill="darkblue" stroke="black" stroke-width="1"/>
  <rect x="370" y="68" width="20" height="30" fill="darkblue" stroke="black" stroke-width="1"/>
  <text x="400" y="578" font-family="sans-serif" font-size="16">Linux (mips64el) (1)</text>
  <path d="M 200,300 L 41.3,-149.0 A 150,150 0 0 1 41.3,-149.0 Z" fill="crimson" stroke="black" stroke-width="1"/>
  <rect x="370" y="69" width="20" height="30" fill="crimson" stroke="black" stroke-width="1"/>
  <text x="400" y="608" font-family="sans-serif" font-size="16">Linux (mipsel) (1)</text>
  <path d="M 200,300 L 41.3,-149.0 A 150,150 0 0 1 41.1,-149.0 Z" fill="cyan" stroke="black" stroke-width="1"/>
  <rect x="370" y="70" width="20" height="30" fill="cyan" stroke="black" stroke-width="1"/>
  <text x="400" y="638" font-family="sans-serif" font-size="16">Linux (ppc) (38)</text>
  <path d="M 200,300 L 41.1,-149.0 A 150,150 0 0 1 40.0,-149.0 Z" fill="darkred" stroke="black" stroke-width="1"/>
  <rect x="370" y="71" width="20" height="30" fill="darkred" stroke="black" stroke-width="1"/>
  <text x="400" y="668" font-family="sans-serif" font-size="16">Linux (ppc64) (189)</text>
  <path d="M 200,300 L 40.0,-149.0 A 150,150 0 0 1 39.7,-149.0 Z" fill="ivory" stroke="black" stroke-width="1"/>
  <rect x="370" y="72" width="20" height="30" fill="ivory" stroke="black" stroke-width="1"/>
  <text x="400" y="698" font-family="sans-serif" font-size="16">Linux (ppc64le) (45)</text>
  <path d="M 200,300 L 39.7,-149.0 A 150,150 0 0 1 39.7,-149.0 Z" fill="lime" stroke="black" stroke-width="1"/>
  <rect x="370" y="73" width="20" height="30" fill="lime" stroke="black" stroke-width="1"/>
  <text x="400" y="728" font-family="sans-serif" font-size="16">Linux (s390) (7)</text>
  <path d="M 200,300 L 39.7,-149.0 A 150,150 0 0 1 39.0,-149.1 Z" fill="maroon" stroke="black" stroke-width="1"/>
  <rect x="370" y="74" width="20" height="30" fill="maroon" stroke="black" stroke-width="1"/>
  <text x="400" y="758" font-family="sans-serif" font-size="16">Linux (s390x) (117)</text>
  <path d="M 200,300 L 39.0,-149.1 A 150,150 0 0 1 37.7,-149.1 Z" fill="navy" stroke="black" stroke-width="1"/>
  <rect x="370" y="75" width="20" height="30" fill="navy" stroke="black" stroke-width="1"/>
  <text x="400" y="788" font-family="sans-serif" font-size="16">Linux (x86) (226)</text>
  <path d="M 200,300 L 37.7,-149.1 A 150,150 0 0 1 37.7,-149.1 Z" fill="olive" stroke="black" stroke-width="1"/>
  <rect x="370" y="76" width="20" height="30" fill="olive" stroke="black" stroke-width="1"/>
  <text x="400" y="818" font-family="sans-serif" font-size="16">Mac OS X (EMAG 1.2) (x86_64) (1)</text>
  <path d="M 200,300 L 37.7,-149.1 A 150,150 0 0 1 37.7,-149.1 Z" fill="plum" stroke="black" stroke-width="1"/>
  <rect x="370" y="77" width="20" height="30" fill="plum" stroke="black" stroke-width="1"/>
  <text x="400" y="848" font-family="sans-serif" font-size="16">Mac OS X (amd64) (2)</text>
  <path d="M 200,300 L 37.7,-149.1 A 150,150 0 0 1 37.6,-149.1 Z" fill="peru" stroke="black" stroke-width="1"/>
  <rect x="370" y="78" width="20" height="30" fill="peru" stroke="black" stroke-width="1"/>
  <text x="400" y="878" font-family="sans-serif" font-size="16">Mac OS X (i386) (19)</text>
  <path d="M 200,300 L 37.6,-149.1 A 150,150 0 0 1 37.6,-149.1 Z" fill="silver" stroke="black" stroke-width="1"/>
  <rect x="370" y="79" width="20" height="30" fill="silver" stroke="black" stroke-width="1"/>
  <text x="400" y="908" font-family="sans-serif" font-size="16">Mac OS X (ppc) (1)</text>
  <path d="M 200,300 L 37.6,-149.1 A 150,150 0 0 1 -51.8,-148.3 Z" fill="tan" stroke="black" stroke-width="1"/>
  <rect x="370" y="80" width="20" height="30" fill="tan" stroke="black" stroke-width="1"/>
  <text x="400" y="938" font-family="sans-serif" font-size="16">Mac OS X (x86_64) (15470)</text>
  <path d="M 200,300 L -51.8,-148.3 A 150,150 0 0 1 -350.0,-2.3 Z" fill="teal" stroke="black" stroke-width="1"/>
  <rect x="370" y="81" width="20" height="30" fill="teal" stroke="black" stroke-width="1"/>
  <text x="400" y="968" font-family="sans-serif" font-size="16">N/A (85025)</text>
  <path d="M 200,300 L -350.0,-2.3 A 150,150 0 0 1 -350.0,-2.3 Z" fill="violet" stroke="black" stroke-width="1"/>
  <rect x="370" y="82" width="20" height="30" fill="violet" stroke="black" stroke-width="1"/>
  <text x="400" y="998" font-family="sans-serif" font-size="16">NetBSD (amd64) (7)</text>
  <path d="M 200,300 L -350.0,-2.3 A 150,150 0 0 1 -350.0,-2.2 Z" fill="AliceBlue" stroke="black" stroke-width="1"/>
  <rect x="370" y="83" width="20" height="30" fill="AliceBlue" stroke="black" stroke-width="1"/>
  <text x="400" y="1028" font-family="sans-serif" font-size="16">NetBSD (i386) (15)</text>
  <path d="M 200,300 L -350.0,-2.2 A 150,150 0 0 1 -350.0,-2.2 Z" fill="DarkOliveGreen" stroke="black" stroke-width="1"/>
  <rect x="370" y="84" width="20" height="30" fill="DarkOliveGreen" stroke="black" stroke-width="1"/>
  <text x="400" y="1058" font-family="sans-serif" font-size="16">OS/400 (PowerPC) (4)</text>
  <path d="M 200,300 L -350.0,-2.2 A 150,150 0 0 1 -350.0,-2.2 Z" fill="Indigo" stroke="black" stroke-width="1"/>
  <rect x="370" y="85" width="20" height="30" fill="Indigo" stroke="black" stroke-width="1"/>
  <text x="400" y="1088" font-family="sans-serif" font-size="16">OpenBSD (amd64) (17)</text>
  <path d="M 200,300 L -350.0,-2.2 A 150,150 0 0 1 -350.0,-2.2 Z" fill="MediumPurple" stroke="black" stroke-width="1"/>
  <rect x="370" y="86" width="20" height="30" fill="MediumPurple" stroke="black" stroke-width="1"/>
  <text x="400" y="1118" font-family="sans-serif" font-size="16">OpenBSD (i386) (4)</text>
  <path d="M 200,300 L -350.0,-2.2 A 150,150 0 0 1 -350.0,-1.6 Z" fill="Purple" stroke="black" stroke-width="1"/>
  <rect x="370" y="87" width="20" height="30" fill="Purple" stroke="black" stroke-width="1"/>
  <text x="400" y="1148" font-family="sans-serif" font-size="16">SunOS (amd64) (236)</text>
  <path d="M 200,300 L -350.0,-1.6 A 150,150 0 0 1 -350.0,2.2 Z" fill="AntiqueWhite" stroke="black" stroke-width="1"/>
  <rect x="370" y="88" width="20" height="30" fill="AntiqueWhite" stroke="black" stroke-width="1"/>
  <text x="400" y="1178" font-family="sans-serif" font-size="16">SunOS (sparc) (1542)</text>
  <path d="M 200,300 L -350.0,2.2 A 150,150 0 0 1 -349.9,2.8 Z" fill="DarkOrange" stroke="black" stroke-width="1"/>
  <rect x="370" y="89" width="20" height="30" fill="DarkOrange" stroke="black" stroke-width="1"/>
  <text x="400" y="1208" font-family="sans-serif" font-size="16">SunOS (sparcv9) (212)</text>
  <path d="M 200,300 L -349.9,2.8 A 150,150 0 0 1 -349.7,6.0 Z" fill="Ivory" stroke="black" stroke-width="1"/>
  <rect x="370" y="90" width="20" height="30" fill="Ivory" stroke="black" stroke-width="1"/>
  <text x="400" y="1238" font-family="sans-serif" font-size="16">SunOS (x86) (1311)</text>
  <path d="M 200,300 L -349.7,6.0 A 150,150 0 0 1 -349.7,6.1 Z" fill="MediumSeaGreen" stroke="black" stroke-width="1"/>
  <rect x="370" y="91" width="20" height="30" fill="MediumSeaGreen" stroke="black" stroke-width="1"/>
  <text x="400" y="1268" font-family="sans-serif" font-size="16">Windows (amd64) (24)</text>
  <path d="M 200,300 L -349.7,6.1 A 150,150 0 0 1 -349.7,6.1 Z" fill="Red" stroke="black" stroke-width="1"/>
  <rect x="370" y="92" width="20" height="30" fill="Red" stroke="black" stroke-width="1"/>
  <text x="400" y="1298" font-family="sans-serif" font-size="16">Windows 2000 (x86) (11)</text>
  <path d="M 200,300 L -349.7,6.1 A 150,150 0 0 1 -349.6,7.3 Z" fill="Aqua" stroke="black" stroke-width="1"/>
  <rect x="370" y="93" width="20" height="30" fill="Aqua" stroke="black" stroke-width="1"/>
  <text x="400" y="1328" font-family="sans-serif" font-size="16">Windows 2003 (amd64) (481)</text>
  <path d="M 200,300 L -349.6,7.3 A 150,150 0 0 1 -347.9,16.4 Z" fill="DarkOrchid" stroke="black" stroke-width="1"/>
  <rect x="370" y="94" width="20" height="30" fill="DarkOrchid" stroke="black" stroke-width="1"/>
  <text x="400" y="1358" font-family="sans-serif" font-size="16">Windows 2003 (x86) (3673)</text>
  <path d="M 200,300 L -347.9,16.4 A 150,150 0 0 1 -324.8,55.8 Z" fill="Khaki" stroke="black" stroke-width="1"/>
  <rect x="370" y="95" width="20" height="30" fill="Khaki" stroke="black" stroke-width="1"/>
  <text x="400" y="1388" font-family="sans-serif" font-size="16">Windows 7 (amd64) (16430)</text>
  <path d="M 200,300 L -324.8,55.8 A 150,150 0 0 1 -253.8,103.3 Z" fill="MediumSlateBlue" stroke="black" stroke-width="1"/>
  <rect x="370" y="96" width="20" height="30" fill="MediumSlateBlue" stroke="black" stroke-width="1"/>
  <text x="400" y="1418" font-family="sans-serif" font-size="16">Windows 7 (x86) (22843)</text>
  <path d="M 200,300 L -253.8,103.3 A 150,150 0 0 1 -250.4,104.8 Z" fill="RosyBrown" stroke="black" stroke-width="1"/>
  <rect x="370" y="97" width="20" height="30" fill="RosyBrown" stroke="black" stroke-width="1"/>
  <text x="400" y="1448" font-family="sans-serif" font-size="16">Windows 8 (amd64) (842)</text>
  <path d="M 200,300 L -250.4,104.8 A 150,150 0 0 1 -244.2,107.5 Z" fill="AquaMarine" stroke="black" stroke-width="1"/>
  <rect x="370" y="98" width="20" height="30" fill="AquaMarine" stroke="black" stroke-width="1"/>
  <text x="400" y="1478" font-family="sans-serif" font-size="16">Windows 8 (x86) (1527)</text>
  <path d="M 200,300 L -244.2,107.5 A 150,150 0 0 1 -238.8,109.7 Z" fill="DarkRed" stroke="black" stroke-width="1"/>
  <rect x="370" y="99" width="20" height="30" fill="DarkRed" stroke="black" stroke-width="1"/>
  <text x="400" y="1508" font-family="sans-serif" font-size="16">Windows 8.1 (amd64) (1296)</text>
  <path d="M 200,300 L -238.8,109.7 A 150,150 0 0 1 -230.7,112.8 Z" fill="Lavender" stroke="black" stroke-width="1"/>
  <rect x="370" y="100" width="20" height="30" fill="Lavender" stroke="black" stroke-width="1"/>
  <text x="400" y="1538" font-family="sans-serif" font-size="16">Windows 8.1 (x86) (1867)</text>
  <path d="M 200,300 L -230.7,112.8 A 150,150 0 0 1 -229.4,113.3 Z" fill="MediumSpringGreen" stroke="black" stroke-width="1"/>
  <rect x="370" y="101" width="20" height="30" fill="MediumSpringGreen" stroke="black" stroke-width="1"/>
  <text x="400" y="1568" font-family="sans-serif" font-size="16">Windows NT (unknown) (amd64) (297)</text>
  <path d="M 200,300 L -229.4,113.3 A 150,150 0 0 1 -228.3,113.7 Z" fill="RoyalBlue" stroke="black" stroke-width="1"/>
  <rect x="370" y="102" width="20" height="30" fill="RoyalBlue" stroke="black" stroke-width="1"/>
  <text x="400" y="1598" font-family="sans-serif" font-size="16">Windows NT (unknown) (x86) (268)</text>
  <path d="M 200,300 L -228.3,113.7 A 150,150 0 0 1 -228.2,113.7 Z" fill="Azure" stroke="black" stroke-width="1"/>
  <rect x="370" y="103" width="20" height="30" fill="Azure" stroke="black" stroke-width="1"/>
  <text x="400" y="1628" font-family="sans-serif" font-size="16">Windows Server 2003 (amd64) (9)</text>
  <path d="M 200,300 L -228.2,113.7 A 150,150 0 0 1 -228.1,113.8 Z" fill="DarkSalmon" stroke="black" stroke-width="1"/>
  <rect x="370" y="104" width="20" height="30" fill="DarkSalmon" stroke="black" stroke-width="1"/>
  <text x="400" y="1658" font-family="sans-serif" font-size="16">Windows Server 2003 (x86) (23)</text>
  <path d="M 200,300 L -228.1,113.8 A 150,150 0 0 1 -224.8,115.0 Z" fill="LavenderBlush" stroke="black" stroke-width="1"/>
  <rect x="370" y="105" width="20" height="30" fill="LavenderBlush" stroke="black" stroke-width="1"/>
  <text x="400" y="1688" font-family="sans-serif" font-size="16">Windows Server 2008 (amd64) (753)</text>
  <path d="M 200,300 L -224.8,115.0 A 150,150 0 0 1 -218.2,117.3 Z" fill="MediumTurquoise" stroke="black" stroke-width="1"/>
  <rect x="370" y="106" width="20" height="30" fill="MediumTurquoise" stroke="black" stroke-width="1"/>
  <text x="400" y="1718" font-family="sans-serif" font-size="16">Windows Server 2008 (x86) (1476)</text>
  <path d="M 200,300 L -218.2,117.3 A 150,150 0 0 1 -151.1,135.3 Z" fill="SaddleBrown" stroke="black" stroke-width="1"/>
  <rect x="370" y="107" width="20" height="30" fill="SaddleBrown" stroke="black" stroke-width="1"/>
  <text x="400" y="1748" font-family="sans-serif" font-size="16">Windows Server 2008 R2 (amd64) (13702)</text>
  <path d="M 200,300 L -151.1,135.3 A 150,150 0 0 1 -151.1,135.3 Z" fill="Beige" stroke="black" stroke-width="1"/>
  <rect x="370" y="108" width="20" height="30" fill="Beige" stroke="black" stroke-width="1"/>
  <text x="400" y="1778" font-family="sans-serif" font-size="16">Windows Server 2008 R2 (ia64) (1)</text>
  <path d="M 200,300 L -151.1,135.3 A 150,150 0 0 1 -92.3,144.7 Z" fill="DarkSeaGreen" stroke="black" stroke-width="1"/>
  <rect x="370" y="109" width="20" height="30" fill="DarkSeaGreen" stroke="black" stroke-width="1"/>
  <text x="400" y="1808" font-family="sans-serif" font-size="16">Windows Server 2008 R2 (x86) (10833)</text>
  <path d="M 200,300 L -92.3,144.7 A 150,150 0 0 1 -73.5,146.7 Z" fill="LawnGreen" stroke="black" stroke-width="1"/>
  <rect x="370" y="110" width="20" height="30" fill="LawnGreen" stroke="black" stroke-width="1"/>
  <text x="400" y="1838" font-family="sans-serif" font-size="16">Windows Server 2012 (amd64) (3351)</text>
  <path d="M 200,300 L -73.5,146.7 A 150,150 0 0 1 -55.6,148.1 Z" fill="MediumVioletRed" stroke="black" stroke-width="1"/>
  <rect x="370" y="111" width="20" height="30" fill="MediumVioletRed" stroke="black" stroke-width="1"/>
  <text x="400" y="1868" font-family="sans-serif" font-size="16">Windows Server 2012 (x86) (3137)</text>
  <path d="M 200,300 L -55.6,148.1 A 150,150 0 0 1 -33.8,149.3 Z" fill="Salmon" stroke="black" stroke-width="1"/>
  <rect x="370" y="112" width="20" height="30" fill="Salmon" stroke="black" stroke-width="1"/>
  <text x="400" y="1898" font-family="sans-serif" font-size="16">Windows Server 2012 R2 (amd64) (3792)</text>
  <path d="M 200,300 L -33.8,149.3 A 150,150 0 0 1 -19.7,149.8 Z" fill="Bisque" stroke="black" stroke-width="1"/>
  <rect x="370" y="113" width="20" height="30" fill="Bisque" stroke="black" stroke-width="1"/>
  <text x="400" y="1928" font-family="sans-serif" font-size="16">Windows Server 2012 R2 (x86) (2443)</text>
  <path d="M 200,300 L -19.7,149.8 A 150,150 0 0 1 -19.5,149.8 Z" fill="DarkSlateBlue" stroke="black" stroke-width="1"/>
  <rect x="370" y="114" width="20" height="30" fill="DarkSlateBlue" stroke="black" stroke-width="1"/>
  <text x="400" y="1958" font-family="sans-serif" font-size="16">Windows Vista (amd64) (46)</text>
  <path d="M 200,300 L -19.5,149.8 A 150,150 0 0 1 -16.6,149.8 Z" fill="LemonChiffon" stroke="black" stroke-width="1"/>
  <rect x="370" y="115" width="20" height="30" fill="LemonChiffon" stroke="black" stroke-width="1"/>
  <text x="400" y="1988" font-family="sans-serif" font-size="16">Windows Vista (x86) (497)</text>
  <path d="M 200,300 L -16.6,149.8 A 150,150 0 0 1 -16.2,149.8 Z" fill="MidnightBlue" stroke="black" stroke-width="1"/>
  <rect x="370" y="116" width="20" height="30" fill="MidnightBlue" stroke="black" stroke-width="1"/>
  <text x="400" y="2018" font-family="sans-serif" font-size="16">Windows XP (amd64) (63)</text>
  <path d="M 200,300 L -16.2,149.8 A 150,150 0 0 1 -0.1,150.0 Z" fill="SandyBrown" stroke="black" stroke-width="1"/>
  <rect x="370" y="117" width="20" height="30" fill="SandyBrown" stroke="black" stroke-width="1"/>
  <text x="400" y="2048" font-family="sans-serif" font-size="16">Windows XP (x86) (2788)</text>
  <path d="M 200,300 L -0.1,150.0 A 150,150 0 0 1 -0.1,150.0 Z" fill="Black" stroke="black" stroke-width="1"/>
  <rect x="370" y="118" width="20" height="30" fill="Black" stroke="black" stroke-width="1"/>
  <text x="400" y="2078" font-family="sans-serif" font-size="16">z/OS (s390) (6)</text>
  <path d="M 200,300 L -0.1,150.0 A 150,150 0 0 1 0.0,150.0 Z" fill="DarkSlateGray" stroke="black" stroke-width="1"/>
  <rect x="370" y="119" width="20" height="30" fill="DarkSlateGray" stroke="black" stroke-width="1"/>
  <text x="400" y="2108" font-family="sans-serif" font-size="16">z/OS (s390x) (9)</text>
</svg>
