<svg xmlns="http://www.w3.org/2000/svg" version="1.1" preserveAspectRatio="xMidYMid meet" viewBox="0 0 2975 1541.4">
  <rect fill="blue" height="25.2" stroke="black" width="12" x="15" y="1216.2"/>
  <text x="15" y="1246.4" font-family="Tahoma" font-size="12" transform="rotate(90 15,1246.4)" text-rendering="optimizeSpeed" fill="#000000">robot (2518)</text>
  <rect fill="blue" height="25.2" stroke="black" width="12" x="30" y="1216.2"/>
  <text x="30" y="1246.4" font-family="Tahoma" font-size="12" transform="rotate(90 30,1246.4)" text-rendering="optimizeSpeed" fill="#000000">envfile (2522)</text>
  <rect fill="blue" height="25.4" stroke="black" width="12" x="45" y="1216.0"/>
  <text x="45" y="1246.4" font-family="Tahoma" font-size="12" transform="rotate(90 45,1246.4)" text-rendering="optimizeSpeed" fill="#000000">template-project (2537)</text>
  <rect fill="blue" height="25.6" stroke="black" width="12" x="60" y="1215.8"/>
  <text x="60" y="1246.4" font-family="Tahoma" font-size="12" transform="rotate(90 60,1246.4)" text-rendering="optimizeSpeed" fill="#000000">any-buildstep (2563)</text>
  <rect fill="blue" height="26.0" stroke="black" width="12" x="75" y="1215.4"/>
  <text x="75" y="1246.4" font-family="Tahoma" font-size="12" transform="rotate(90 75,1246.4)" text-rendering="optimizeSpeed" fill="#000000">clover (2596)</text>
  <rect fill="blue" height="26.0" stroke="black" width="12" x="90" y="1215.4"/>
  <text x="90" y="1246.4" font-family="Tahoma" font-size="12" transform="rotate(90 90,1246.4)" text-rendering="optimizeSpeed" fill="#000000">cron_column (2599)</text>
  <rect fill="blue" height="26.1" stroke="black" width="12" x="105" y="1215.3"/>
  <text x="105" y="1246.4" font-family="Tahoma" font-size="12" transform="rotate(90 105,1246.4)" text-rendering="optimizeSpeed" fill="#000000">emotional-jenkins-plugin (2614)</text>
  <rect fill="blue" height="26.2" stroke="black" width="12" x="120" y="1215.2"/>
  <text x="120" y="1246.4" font-family="Tahoma" font-size="12" transform="rotate(90 120,1246.4)" text-rendering="optimizeSpeed" fill="#000000">tfs (2621)</text>
  <rect fill="blue" height="26.5" stroke="black" width="12" x="135" y="1214.9"/>
  <text x="135" y="1246.4" font-family="Tahoma" font-size="12" transform="rotate(90 135,1246.4)" text-rendering="optimizeSpeed" fill="#000000">publish-over-cifs (2647)</text>
  <rect fill="blue" height="26.6" stroke="black" width="12" x="150" y="1214.8"/>
  <text x="150" y="1246.4" font-family="Tahoma" font-size="12" transform="rotate(90 150,1246.4)" text-rendering="optimizeSpeed" fill="#000000">mstestrunner (2655)</text>
  <rect fill="blue" height="26.6" stroke="black" width="12" x="165" y="1214.8"/>
  <text x="165" y="1246.4" font-family="Tahoma" font-size="12" transform="rotate(90 165,1246.4)" text-rendering="optimizeSpeed" fill="#000000">xvnc (2659)</text>
  <rect fill="blue" height="26.7" stroke="black" width="12" x="180" y="1214.7"/>
  <text x="180" y="1246.4" font-family="Tahoma" font-size="12" transform="rotate(90 180,1246.4)" text-rendering="optimizeSpeed" fill="#000000">build-failure-analyzer (2671)</text>
  <rect fill="blue" height="26.8" stroke="black" width="12" x="195" y="1214.6"/>
  <text x="195" y="1246.4" font-family="Tahoma" font-size="12" transform="rotate(90 195,1246.4)" text-rendering="optimizeSpeed" fill="#000000">cucumber-reports (2680)</text>
  <rect fill="blue" height="27.4" stroke="black" width="12" x="210" y="1214.0"/>
  <text x="210" y="1246.4" font-family="Tahoma" font-size="12" transform="rotate(90 210,1246.4)" text-rendering="optimizeSpeed" fill="#000000">preSCMbuildstep (2742)</text>
  <rect fill="blue" height="27.5" stroke="black" width="12" x="225" y="1213.9"/>
  <text x="225" y="1246.4" font-family="Tahoma" font-size="12" transform="rotate(90 225,1246.4)" text-rendering="optimizeSpeed" fill="#000000">jenkinswalldisplay (2749)</text>
  <rect fill="blue" height="27.5" stroke="black" width="12" x="240" y="1213.9"/>
  <text x="240" y="1246.4" font-family="Tahoma" font-size="12" transform="rotate(90 240,1246.4)" text-rendering="optimizeSpeed" fill="#000000">build-with-parameters (2754)</text>
  <rect fill="blue" height="28.0" stroke="black" width="12" x="255" y="1213.4"/>
  <text x="255" y="1246.4" font-family="Tahoma" font-size="12" transform="rotate(90 255,1246.4)" text-rendering="optimizeSpeed" fill="#000000">project-stats-plugin (2798)</text>
  <rect fill="blue" height="28.2" stroke="black" width="12" x="270" y="1213.2"/>
  <text x="270" y="1246.4" font-family="Tahoma" font-size="12" transform="rotate(90 270,1246.4)" text-rendering="optimizeSpeed" fill="#000000">jenkins-jira-issue-updater (2816)</text>
  <rect fill="blue" height="28.7" stroke="black" width="12" x="285" y="1212.7"/>
  <text x="285" y="1246.4" font-family="Tahoma" font-size="12" transform="rotate(90 285,1246.4)" text-rendering="optimizeSpeed" fill="#000000">next-executions (2873)</text>
  <rect fill="blue" height="28.9" stroke="black" width="12" x="300" y="1212.5"/>
  <text x="300" y="1246.4" font-family="Tahoma" font-size="12" transform="rotate(90 300,1246.4)" text-rendering="optimizeSpeed" fill="#000000">radiatorviewplugin (2888)</text>
  <rect fill="blue" height="29.0" stroke="black" width="12" x="315" y="1212.4"/>
  <text x="315" y="1246.4" font-family="Tahoma" font-size="12" transform="rotate(90 315,1246.4)" text-rendering="optimizeSpeed" fill="#000000">PrioritySorter (2900)</text>
  <rect fill="blue" height="29.1" stroke="black" width="12" x="330" y="1212.3"/>
  <text x="330" y="1246.4" font-family="Tahoma" font-size="12" transform="rotate(90 330,1246.4)" text-rendering="optimizeSpeed" fill="#000000">job-dsl (2905)</text>
  <rect fill="blue" height="29.4" stroke="black" width="12" x="345" y="1212.0"/>
  <text x="345" y="1246.4" font-family="Tahoma" font-size="12" transform="rotate(90 345,1246.4)" text-rendering="optimizeSpeed" fill="#000000">ftppublisher (2938)</text>
  <rect fill="blue" height="29.7" stroke="black" width="12" x="360" y="1211.7"/>
  <text x="360" y="1246.4" font-family="Tahoma" font-size="12" transform="rotate(90 360,1246.4)" text-rendering="optimizeSpeed" fill="#000000">sectioned-view (2968)</text>
  <rect fill="blue" height="29.8" stroke="black" width="12" x="375" y="1211.6"/>
  <text x="375" y="1246.4" font-family="Tahoma" font-size="12" transform="rotate(90 375,1246.4)" text-rendering="optimizeSpeed" fill="#000000">gravatar (2977)</text>
  <rect fill="blue" height="29.9" stroke="black" width="12" x="390" y="1211.5"/>
  <text x="390" y="1246.4" font-family="Tahoma" font-size="12" transform="rotate(90 390,1246.4)" text-rendering="optimizeSpeed" fill="#000000">compact-columns (2992)</text>
  <rect fill="blue" height="30.1" stroke="black" width="12" x="405" y="1211.3"/>
  <text x="405" y="1246.4" font-family="Tahoma" font-size="12" transform="rotate(90 405,1246.4)" text-rendering="optimizeSpeed" fill="#000000">batch-task (3007)</text>
  <rect fill="blue" height="30.2" stroke="black" width="12" x="420" y="1211.2"/>
  <text x="420" y="1246.4" font-family="Tahoma" font-size="12" transform="rotate(90 420,1246.4)" text-rendering="optimizeSpeed" fill="#000000">clone-workspace-scm (3023)</text>
  <rect fill="blue" height="30.6" stroke="black" width="12" x="435" y="1210.8"/>
  <text x="435" y="1246.4" font-family="Tahoma" font-size="12" transform="rotate(90 435,1246.4)" text-rendering="optimizeSpeed" fill="#000000">rake (3058)</text>
  <rect fill="blue" height="30.6" stroke="black" width="12" x="450" y="1210.8"/>
  <text x="450" y="1246.4" font-family="Tahoma" font-size="12" transform="rotate(90 450,1246.4)" text-rendering="optimizeSpeed" fill="#000000">s3 (3058)</text>
  <rect fill="blue" height="31.7" stroke="black" width="12" x="465" y="1209.7"/>
  <text x="465" y="1246.4" font-family="Tahoma" font-size="12" transform="rotate(90 465,1246.4)" text-rendering="optimizeSpeed" fill="#000000">cloudbees-folder (3174)</text>
  <rect fill="blue" height="31.8" stroke="black" width="12" x="480" y="1209.6"/>
  <text x="480" y="1246.4" font-family="Tahoma" font-size="12" transform="rotate(90 480,1246.4)" text-rendering="optimizeSpeed" fill="#000000">show-build-parameters (3181)</text>
  <rect fill="blue" height="32.5" stroke="black" width="12" x="495" y="1208.9"/>
  <text x="495" y="1246.4" font-family="Tahoma" font-size="12" transform="rotate(90 495,1246.4)" text-rendering="optimizeSpeed" fill="#000000">Parameterized-Remote-Trigger (3247)</text>
  <rect fill="blue" height="32.6" stroke="black" width="12" x="510" y="1208.8"/>
  <text x="510" y="1246.4" font-family="Tahoma" font-size="12" transform="rotate(90 510,1246.4)" text-rendering="optimizeSpeed" fill="#000000">bitbucket (3256)</text>
  <rect fill="blue" height="32.6" stroke="black" width="12" x="525" y="1208.8"/>
  <text x="525" y="1246.4" font-family="Tahoma" font-size="12" transform="rotate(90 525,1246.4)" text-rendering="optimizeSpeed" fill="#000000">all-changes (3259)</text>
  <rect fill="blue" height="32.6" stroke="black" width="12" x="540" y="1208.8"/>
  <text x="540" y="1246.4" font-family="Tahoma" font-size="12" transform="rotate(90 540,1246.4)" text-rendering="optimizeSpeed" fill="#000000">doxygen (3265)</text>
  <rect fill="blue" height="33.0" stroke="black" width="12" x="555" y="1208.4"/>
  <text x="555" y="1246.4" font-family="Tahoma" font-size="12" transform="rotate(90 555,1246.4)" text-rendering="optimizeSpeed" fill="#000000">workflow-step-api (3296)</text>
  <rect fill="blue" height="33.2" stroke="black" width="12" x="570" y="1208.2"/>
  <text x="570" y="1246.4" font-family="Tahoma" font-size="12" transform="rotate(90 570,1246.4)" text-rendering="optimizeSpeed" fill="#000000">extensible-choice-parameter (3317)</text>
  <rect fill="blue" height="33.2" stroke="black" width="12" x="585" y="1208.2"/>
  <text x="585" y="1246.4" font-family="Tahoma" font-size="12" transform="rotate(90 585,1246.4)" text-rendering="optimizeSpeed" fill="#000000">naginator (3317)</text>
  <rect fill="blue" height="34.0" stroke="black" width="12" x="600" y="1207.4"/>
  <text x="600" y="1246.4" font-family="Tahoma" font-size="12" transform="rotate(90 600,1246.4)" text-rendering="optimizeSpeed" fill="#000000">scm-sync-configuration (3403)</text>
  <rect fill="blue" height="34.7" stroke="black" width="12" x="615" y="1206.7"/>
  <text x="615" y="1246.4" font-family="Tahoma" font-size="12" transform="rotate(90 615,1246.4)" text-rendering="optimizeSpeed" fill="#000000">cppcheck (3469)</text>
  <rect fill="blue" height="34.9" stroke="black" width="12" x="630" y="1206.6"/>
  <text x="630" y="1246.4" font-family="Tahoma" font-size="12" transform="rotate(90 630,1246.4)" text-rendering="optimizeSpeed" fill="#000000">mstest (3485)</text>
  <rect fill="blue" height="35.4" stroke="black" width="12" x="645" y="1206.1"/>
  <text x="645" y="1246.4" font-family="Tahoma" font-size="12" transform="rotate(90 645,1246.4)" text-rendering="optimizeSpeed" fill="#000000">locale (3535)</text>
  <rect fill="blue" height="35.4" stroke="black" width="12" x="660" y="1206.0"/>
  <text x="660" y="1246.4" font-family="Tahoma" font-size="12" transform="rotate(90 660,1246.4)" text-rendering="optimizeSpeed" fill="#000000">gitlab-plugin (3537)</text>
  <rect fill="blue" height="36.3" stroke="black" width="12" x="675" y="1205.1"/>
  <text x="675" y="1246.4" font-family="Tahoma" font-size="12" transform="rotate(90 675,1246.4)" text-rendering="optimizeSpeed" fill="#000000">locks-and-latches (3634)</text>
  <rect fill="blue" height="37.0" stroke="black" width="12" x="690" y="1204.4"/>
  <text x="690" y="1246.4" font-family="Tahoma" font-size="12" transform="rotate(90 690,1246.4)" text-rendering="optimizeSpeed" fill="#000000">embeddable-build-status (3703)</text>
  <rect fill="blue" height="37.1" stroke="black" width="12" x="705" y="1204.3"/>
  <text x="705" y="1246.4" font-family="Tahoma" font-size="12" transform="rotate(90 705,1246.4)" text-rendering="optimizeSpeed" fill="#000000">gerrit-trigger (3708)</text>
  <rect fill="blue" height="37.3" stroke="black" width="12" x="720" y="1204.1"/>
  <text x="720" y="1246.4" font-family="Tahoma" font-size="12" transform="rotate(90 720,1246.4)" text-rendering="optimizeSpeed" fill="#000000">release (3730)</text>
  <rect fill="blue" height="37.4" stroke="black" width="12" x="735" y="1204.0"/>
  <text x="735" y="1246.4" font-family="Tahoma" font-size="12" transform="rotate(90 735,1246.4)" text-rendering="optimizeSpeed" fill="#000000">console-column-plugin (3744)</text>
  <rect fill="blue" height="37.7" stroke="black" width="12" x="750" y="1203.7"/>
  <text x="750" y="1246.4" font-family="Tahoma" font-size="12" transform="rotate(90 750,1246.4)" text-rendering="optimizeSpeed" fill="#000000">gitlab-hook (3768)</text>
  <rect fill="blue" height="37.7" stroke="black" width="12" x="765" y="1203.7"/>
  <text x="765" y="1246.4" font-family="Tahoma" font-size="12" transform="rotate(90 765,1246.4)" text-rendering="optimizeSpeed" fill="#000000">xvfb (3770)</text>
  <rect fill="blue" height="38.7" stroke="black" width="12" x="780" y="1202.7"/>
  <text x="780" y="1246.4" font-family="Tahoma" font-size="12" transform="rotate(90 780,1246.4)" text-rendering="optimizeSpeed" fill="#000000">versionnumber (3873)</text>
  <rect fill="blue" height="39.0" stroke="black" width="12" x="795" y="1202.4"/>
  <text x="795" y="1246.4" font-family="Tahoma" font-size="12" transform="rotate(90 795,1246.4)" text-rendering="optimizeSpeed" fill="#000000">dynamicparameter (3898)</text>
  <rect fill="blue" height="40.0" stroke="black" width="12" x="810" y="1201.4"/>
  <text x="810" y="1246.4" font-family="Tahoma" font-size="12" transform="rotate(90 810,1246.4)" text-rendering="optimizeSpeed" fill="#000000">claim (4001)</text>
  <rect fill="blue" height="40.0" stroke="black" width="12" x="825" y="1201.4"/>
  <text x="825" y="1246.4" font-family="Tahoma" font-size="12" transform="rotate(90 825,1246.4)" text-rendering="optimizeSpeed" fill="#000000">android-emulator (4002)</text>
  <rect fill="blue" height="40.3" stroke="black" width="12" x="840" y="1201.1"/>
  <text x="840" y="1246.4" font-family="Tahoma" font-size="12" transform="rotate(90 840,1246.4)" text-rendering="optimizeSpeed" fill="#000000">durable-task (4026)</text>
  <rect fill="blue" height="40.5" stroke="black" width="12" x="855" y="1200.9"/>
  <text x="855" y="1246.4" font-family="Tahoma" font-size="12" transform="rotate(90 855,1246.4)" text-rendering="optimizeSpeed" fill="#000000">audit-trail (4049)</text>
  <rect fill="blue" height="41.6" stroke="black" width="12" x="870" y="1199.8"/>
  <text x="870" y="1246.4" font-family="Tahoma" font-size="12" transform="rotate(90 870,1246.4)" text-rendering="optimizeSpeed" fill="#000000">perforce (4156)</text>
  <rect fill="blue" height="41.7" stroke="black" width="12" x="885" y="1199.7"/>
  <text x="885" y="1246.4" font-family="Tahoma" font-size="12" transform="rotate(90 885,1246.4)" text-rendering="optimizeSpeed" fill="#000000">sidebar-link (4169)</text>
  <rect fill="blue" height="41.8" stroke="black" width="12" x="900" y="1199.6"/>
  <text x="900" y="1246.4" font-family="Tahoma" font-size="12" transform="rotate(90 900,1246.4)" text-rendering="optimizeSpeed" fill="#000000">downstream-buildview (4183)</text>
  <rect fill="blue" height="42.0" stroke="black" width="12" x="915" y="1199.4"/>
  <text x="915" y="1246.4" font-family="Tahoma" font-size="12" transform="rotate(90 915,1246.4)" text-rendering="optimizeSpeed" fill="#000000">svn-tag (4200)</text>
  <rect fill="blue" height="42.3" stroke="black" width="12" x="930" y="1199.1"/>
  <text x="930" y="1246.4" font-family="Tahoma" font-size="12" transform="rotate(90 930,1246.4)" text-rendering="optimizeSpeed" fill="#000000">delivery-pipeline-plugin (4226)</text>
  <rect fill="blue" height="42.7" stroke="black" width="12" x="945" y="1198.7"/>
  <text x="945" y="1246.4" font-family="Tahoma" font-size="12" transform="rotate(90 945,1246.4)" text-rendering="optimizeSpeed" fill="#000000">plain-credentials (4274)</text>
  <rect fill="blue" height="42.8" stroke="black" width="12" x="960" y="1198.6"/>
  <text x="960" y="1246.4" font-family="Tahoma" font-size="12" transform="rotate(90 960,1246.4)" text-rendering="optimizeSpeed" fill="#000000">saferestart (4277)</text>
  <rect fill="blue" height="43.3" stroke="black" width="12" x="975" y="1198.1"/>
  <text x="975" y="1246.4" font-family="Tahoma" font-size="12" transform="rotate(90 975,1246.4)" text-rendering="optimizeSpeed" fill="#000000">testng-plugin (4329)</text>
  <rect fill="blue" height="43.6" stroke="black" width="12" x="990" y="1197.8"/>
  <text x="990" y="1246.4" font-family="Tahoma" font-size="12" transform="rotate(90 990,1246.4)" text-rendering="optimizeSpeed" fill="#000000">hipchat (4365)</text>
  <rect fill="blue" height="44.6" stroke="black" width="12" x="1005" y="1196.8"/>
  <text x="1005" y="1246.4" font-family="Tahoma" font-size="12" transform="rotate(90 1005,1246.4)" text-rendering="optimizeSpeed" fill="#000000">build-blocker-plugin (4462)</text>
  <rect fill="blue" height="45.0" stroke="black" width="12" x="1020" y="1196.4"/>
  <text x="1020" y="1246.4" font-family="Tahoma" font-size="12" transform="rotate(90 1020,1246.4)" text-rendering="optimizeSpeed" fill="#000000">build-user-vars-plugin (4496)</text>
  <rect fill="blue" height="45.1" stroke="black" width="12" x="1035" y="1196.3"/>
  <text x="1035" y="1246.4" font-family="Tahoma" font-size="12" transform="rotate(90 1035,1246.4)" text-rendering="optimizeSpeed" fill="#000000">publish-over-ftp (4512)</text>
  <rect fill="blue" height="45.7" stroke="black" width="12" x="1050" y="1195.7"/>
  <text x="1050" y="1246.4" font-family="Tahoma" font-size="12" transform="rotate(90 1050,1246.4)" text-rendering="optimizeSpeed" fill="#000000">cloverphp (4570)</text>
  <rect fill="blue" height="46.0" stroke="black" width="12" x="1065" y="1195.4"/>
  <text x="1065" y="1246.4" font-family="Tahoma" font-size="12" transform="rotate(90 1065,1246.4)" text-rendering="optimizeSpeed" fill="#000000">jdepend (4603)</text>
  <rect fill="blue" height="46.7" stroke="black" width="12" x="1080" y="1194.7"/>
  <text x="1080" y="1246.4" font-family="Tahoma" font-size="12" transform="rotate(90 1080,1246.4)" text-rendering="optimizeSpeed" fill="#000000">global-build-stats (4666)</text>
  <rect fill="blue" height="47.1" stroke="black" width="12" x="1095" y="1194.3"/>
  <text x="1095" y="1246.4" font-family="Tahoma" font-size="12" transform="rotate(90 1095,1246.4)" text-rendering="optimizeSpeed" fill="#000000">tasks (4713)</text>
  <rect fill="blue" height="47.5" stroke="black" width="12" x="1110" y="1193.8"/>
  <text x="1110" y="1246.4" font-family="Tahoma" font-size="12" transform="rotate(90 1110,1246.4)" text-rendering="optimizeSpeed" fill="#000000">powershell (4755)</text>
  <rect fill="blue" height="47.6" stroke="black" width="12" x="1125" y="1193.8"/>
  <text x="1125" y="1246.4" font-family="Tahoma" font-size="12" transform="rotate(90 1125,1246.4)" text-rendering="optimizeSpeed" fill="#000000">flexible-publish (4762)</text>
  <rect fill="blue" height="47.7" stroke="black" width="12" x="1140" y="1193.7"/>
  <text x="1140" y="1246.4" font-family="Tahoma" font-size="12" transform="rotate(90 1140,1246.4)" text-rendering="optimizeSpeed" fill="#000000">depgraph-view (4772)</text>
  <rect fill="blue" height="47.9" stroke="black" width="12" x="1155" y="1193.5"/>
  <text x="1155" y="1246.4" font-family="Tahoma" font-size="12" transform="rotate(90 1155,1246.4)" text-rendering="optimizeSpeed" fill="#000000">job-import-plugin (4790)</text>
  <rect fill="blue" height="48.4" stroke="black" width="12" x="1170" y="1193.0"/>
  <text x="1170" y="1246.4" font-family="Tahoma" font-size="12" transform="rotate(90 1170,1246.4)" text-rendering="optimizeSpeed" fill="#000000">next-build-number (4844)</text>
  <rect fill="blue" height="48.7" stroke="black" width="12" x="1185" y="1192.7"/>
  <text x="1185" y="1246.4" font-family="Tahoma" font-size="12" transform="rotate(90 1185,1246.4)" text-rendering="optimizeSpeed" fill="#000000">nunit (4873)</text>
  <rect fill="blue" height="49.1" stroke="black" width="12" x="1200" y="1192.3"/>
  <text x="1200" y="1246.4" font-family="Tahoma" font-size="12" transform="rotate(90 1200,1246.4)" text-rendering="optimizeSpeed" fill="#000000">text-finder (4913)</text>
  <rect fill="blue" height="50.0" stroke="black" width="12" x="1215" y="1191.5"/>
  <text x="1215" y="1246.4" font-family="Tahoma" font-size="12" transform="rotate(90 1215,1246.4)" text-rendering="optimizeSpeed" fill="#000000">mercurial (4995)</text>
  <rect fill="blue" height="50.6" stroke="black" width="12" x="1230" y="1190.8"/>
  <text x="1230" y="1246.4" font-family="Tahoma" font-size="12" transform="rotate(90 1230,1246.4)" text-rendering="optimizeSpeed" fill="#000000">github-oauth (5059)</text>
  <rect fill="blue" height="50.6" stroke="black" width="12" x="1245" y="1190.8"/>
  <text x="1245" y="1246.4" font-family="Tahoma" font-size="12" transform="rotate(90 1245,1246.4)" text-rendering="optimizeSpeed" fill="#000000">port-allocator (5063)</text>
  <rect fill="blue" height="50.9" stroke="black" width="12" x="1260" y="1190.5"/>
  <text x="1260" y="1246.4" font-family="Tahoma" font-size="12" transform="rotate(90 1260,1246.4)" text-rendering="optimizeSpeed" fill="#000000">description-setter (5091)</text>
  <rect fill="blue" height="51.9" stroke="black" width="12" x="1275" y="1189.5"/>
  <text x="1275" y="1246.4" font-family="Tahoma" font-size="12" transform="rotate(90 1275,1246.4)" text-rendering="optimizeSpeed" fill="#000000">nodejs (5191)</text>
  <rect fill="blue" height="52.0" stroke="black" width="12" x="1290" y="1189.4"/>
  <text x="1290" y="1246.4" font-family="Tahoma" font-size="12" transform="rotate(90 1290,1246.4)" text-rendering="optimizeSpeed" fill="#000000">configurationslicing (5200)</text>
  <rect fill="blue" height="52.2" stroke="black" width="12" x="1305" y="1189.2"/>
  <text x="1305" y="1246.4" font-family="Tahoma" font-size="12" transform="rotate(90 1305,1246.4)" text-rendering="optimizeSpeed" fill="#000000">extra-columns (5220)</text>
  <rect fill="blue" height="52.3" stroke="black" width="12" x="1320" y="1189.1"/>
  <text x="1320" y="1246.4" font-family="Tahoma" font-size="12" transform="rotate(90 1320,1246.4)" text-rendering="optimizeSpeed" fill="#000000">postbuildscript (5227)</text>
  <rect fill="blue" height="52.8" stroke="black" width="12" x="1335" y="1188.6"/>
  <text x="1335" y="1246.4" font-family="Tahoma" font-size="12" transform="rotate(90 1335,1246.4)" text-rendering="optimizeSpeed" fill="#000000">emma (5277)</text>
  <rect fill="blue" height="53.4" stroke="black" width="12" x="1350" y="1188.0"/>
  <text x="1350" y="1246.4" font-family="Tahoma" font-size="12" transform="rotate(90 1350,1246.4)" text-rendering="optimizeSpeed" fill="#000000">ghprb (5343)</text>
  <rect fill="blue" height="54.1" stroke="black" width="12" x="1365" y="1187.3"/>
  <text x="1365" y="1246.4" font-family="Tahoma" font-size="12" transform="rotate(90 1365,1246.4)" text-rendering="optimizeSpeed" fill="#000000">python (5408)</text>
  <rect fill="blue" height="54.3" stroke="black" width="12" x="1380" y="1187.1"/>
  <text x="1380" y="1246.4" font-family="Tahoma" font-size="12" transform="rotate(90 1380,1246.4)" text-rendering="optimizeSpeed" fill="#000000">mask-passwords (5431)</text>
  <rect fill="blue" height="55.5" stroke="black" width="12" x="1395" y="1185.9"/>
  <text x="1395" y="1246.4" font-family="Tahoma" font-size="12" transform="rotate(90 1395,1246.4)" text-rendering="optimizeSpeed" fill="#000000">instant-messaging (5546)</text>
  <rect fill="blue" height="55.6" stroke="black" width="12" x="1410" y="1185.8"/>
  <text x="1410" y="1246.4" font-family="Tahoma" font-size="12" transform="rotate(90 1410,1246.4)" text-rendering="optimizeSpeed" fill="#000000">scriptler (5556)</text>
  <rect fill="blue" height="55.7" stroke="black" width="12" x="1425" y="1185.7"/>
  <text x="1425" y="1246.4" font-family="Tahoma" font-size="12" transform="rotate(90 1425,1246.4)" text-rendering="optimizeSpeed" fill="#000000">xcode-plugin (5567)</text>
  <rect fill="blue" height="56.2" stroke="black" width="12" x="1440" y="1185.2"/>
  <text x="1440" y="1246.4" font-family="Tahoma" font-size="12" transform="rotate(90 1440,1246.4)" text-rendering="optimizeSpeed" fill="#000000">groovy-postbuild (5618)</text>
  <rect fill="blue" height="56.2" stroke="black" width="12" x="1455" y="1185.2"/>
  <text x="1455" y="1246.4" font-family="Tahoma" font-size="12" transform="rotate(90 1455,1246.4)" text-rendering="optimizeSpeed" fill="#000000">join (5622)</text>
  <rect fill="blue" height="56.3" stroke="black" width="12" x="1470" y="1185.1"/>
  <text x="1470" y="1246.4" font-family="Tahoma" font-size="12" transform="rotate(90 1470,1246.4)" text-rendering="optimizeSpeed" fill="#000000">buildgraph-view (5633)</text>
  <rect fill="blue" height="60.1" stroke="black" width="12" x="1485" y="1181.3"/>
  <text x="1485" y="1246.4" font-family="Tahoma" font-size="12" transform="rotate(90 1485,1246.4)" text-rendering="optimizeSpeed" fill="#000000">backup (6009)</text>
  <rect fill="blue" height="61.0" stroke="black" width="12" x="1500" y="1180.4"/>
  <text x="1500" y="1246.4" font-family="Tahoma" font-size="12" transform="rotate(90 1500,1246.4)" text-rendering="optimizeSpeed" fill="#000000">throttle-concurrents (6101)</text>
  <rect fill="blue" height="61.7" stroke="black" width="12" x="1515" y="1179.7"/>
  <text x="1515" y="1246.4" font-family="Tahoma" font-size="12" transform="rotate(90 1515,1246.4)" text-rendering="optimizeSpeed" fill="#000000">scp (6169)</text>
  <rect fill="blue" height="62.4" stroke="black" width="12" x="1530" y="1179.0"/>
  <text x="1530" y="1246.4" font-family="Tahoma" font-size="12" transform="rotate(90 1530,1246.4)" text-rendering="optimizeSpeed" fill="#000000">jacoco (6238)</text>
  <rect fill="blue" height="62.5" stroke="black" width="12" x="1545" y="1178.9"/>
  <text x="1545" y="1246.4" font-family="Tahoma" font-size="12" transform="rotate(90 1545,1246.4)" text-rendering="optimizeSpeed" fill="#000000">m2release (6249)</text>
  <rect fill="blue" height="62.9" stroke="black" width="12" x="1560" y="1178.5"/>
  <text x="1560" y="1246.4" font-family="Tahoma" font-size="12" transform="rotate(90 1560,1246.4)" text-rendering="optimizeSpeed" fill="#000000">nested-view (6292)</text>
  <rect fill="blue" height="64.7" stroke="black" width="12" x="1575" y="1176.7"/>
  <text x="1575" y="1246.4" font-family="Tahoma" font-size="12" transform="rotate(90 1575,1246.4)" text-rendering="optimizeSpeed" fill="#000000">simple-theme-plugin (6466)</text>
  <rect fill="blue" height="65.7" stroke="black" width="12" x="1590" y="1175.7"/>
  <text x="1590" y="1246.4" font-family="Tahoma" font-size="12" transform="rotate(90 1590,1246.4)" text-rendering="optimizeSpeed" fill="#000000">chucknorris (6568)</text>
  <rect fill="blue" height="66.1" stroke="black" width="12" x="1605" y="1175.3"/>
  <text x="1605" y="1246.4" font-family="Tahoma" font-size="12" transform="rotate(90 1605,1246.4)" text-rendering="optimizeSpeed" fill="#000000">build-flow-plugin (6612)</text>
  <rect fill="blue" height="66.6" stroke="black" width="12" x="1620" y="1174.8"/>
  <text x="1620" y="1246.4" font-family="Tahoma" font-size="12" transform="rotate(90 1620,1246.4)" text-rendering="optimizeSpeed" fill="#000000">nodelabelparameter (6663)</text>
  <rect fill="blue" height="66.7" stroke="black" width="12" x="1635" y="1174.7"/>
  <text x="1635" y="1246.4" font-family="Tahoma" font-size="12" transform="rotate(90 1635,1246.4)" text-rendering="optimizeSpeed" fill="#000000">performance (6670)</text>
  <rect fill="blue" height="67.9" stroke="black" width="12" x="1650" y="1173.5"/>
  <text x="1650" y="1246.4" font-family="Tahoma" font-size="12" transform="rotate(90 1650,1246.4)" text-rendering="optimizeSpeed" fill="#000000">build-monitor-plugin (6786)</text>
  <rect fill="blue" height="67.9" stroke="black" width="12" x="1665" y="1173.5"/>
  <text x="1665" y="1246.4" font-family="Tahoma" font-size="12" transform="rotate(90 1665,1246.4)" text-rendering="optimizeSpeed" fill="#000000">view-job-filters (6786)</text>
  <rect fill="blue" height="68.0" stroke="black" width="12" x="1680" y="1173.5"/>
  <text x="1680" y="1246.4" font-family="Tahoma" font-size="12" transform="rotate(90 1680,1246.4)" text-rendering="optimizeSpeed" fill="#000000">artifactory (6795)</text>
  <rect fill="blue" height="68.1" stroke="black" width="12" x="1695" y="1173.3"/>
  <text x="1695" y="1246.4" font-family="Tahoma" font-size="12" transform="rotate(90 1695,1246.4)" text-rendering="optimizeSpeed" fill="#000000">extended-choice-parameter (6808)</text>
  <rect fill="blue" height="68.7" stroke="black" width="12" x="1710" y="1172.7"/>
  <text x="1710" y="1246.4" font-family="Tahoma" font-size="12" transform="rotate(90 1710,1246.4)" text-rendering="optimizeSpeed" fill="#000000">config-file-provider (6870)</text>
  <rect fill="blue" height="69.6" stroke="black" width="12" x="1725" y="1171.8"/>
  <text x="1725" y="1246.4" font-family="Tahoma" font-size="12" transform="rotate(90 1725,1246.4)" text-rendering="optimizeSpeed" fill="#000000">copy-to-slave (6957)</text>
  <rect fill="blue" height="69.6" stroke="black" width="12" x="1740" y="1171.8"/>
  <text x="1740" y="1246.4" font-family="Tahoma" font-size="12" transform="rotate(90 1740,1246.4)" text-rendering="optimizeSpeed" fill="#000000">monitoring (6957)</text>
  <rect fill="blue" height="72.7" stroke="black" width="12" x="1755" y="1168.7"/>
  <text x="1755" y="1246.4" font-family="Tahoma" font-size="12" transform="rotate(90 1755,1246.4)" text-rendering="optimizeSpeed" fill="#000000">artifactdeployer (7271)</text>
  <rect fill="blue" height="74.0" stroke="black" width="12" x="1770" y="1167.4"/>
  <text x="1770" y="1246.4" font-family="Tahoma" font-size="12" transform="rotate(90 1770,1246.4)" text-rendering="optimizeSpeed" fill="#000000">jquery-ui (7396)</text>
  <rect fill="blue" height="75.4" stroke="black" width="12" x="1785" y="1166.0"/>
  <text x="1785" y="1246.4" font-family="Tahoma" font-size="12" transform="rotate(90 1785,1246.4)" text-rendering="optimizeSpeed" fill="#000000">plot (7542)</text>
  <rect fill="blue" height="75.8" stroke="black" width="12" x="1800" y="1165.6"/>
  <text x="1800" y="1246.4" font-family="Tahoma" font-size="12" transform="rotate(90 1800,1246.4)" text-rendering="optimizeSpeed" fill="#000000">git-parameter (7584)</text>
  <rect fill="blue" height="76.4" stroke="black" width="12" x="1815" y="1165.0"/>
  <text x="1815" y="1246.4" font-family="Tahoma" font-size="12" transform="rotate(90 1815,1246.4)" text-rendering="optimizeSpeed" fill="#000000">slack (7636)</text>
  <rect fill="blue" height="76.6" stroke="black" width="12" x="1830" y="1164.8"/>
  <text x="1830" y="1246.4" font-family="Tahoma" font-size="12" transform="rotate(90 1830,1246.4)" text-rendering="optimizeSpeed" fill="#000000">dry (7660)</text>
  <rect fill="blue" height="82.4" stroke="black" width="12" x="1845" y="1159.0"/>
  <text x="1845" y="1246.4" font-family="Tahoma" font-size="12" transform="rotate(90 1845,1246.4)" text-rendering="optimizeSpeed" fill="#000000">multiple-scms (8242)</text>
  <rect fill="blue" height="83.9" stroke="black" width="12" x="1860" y="1157.5"/>
  <text x="1860" y="1246.4" font-family="Tahoma" font-size="12" transform="rotate(90 1860,1246.4)" text-rendering="optimizeSpeed" fill="#000000">promoted-builds (8394)</text>
  <rect fill="blue" height="84.0" stroke="black" width="12" x="1875" y="1157.4"/>
  <text x="1875" y="1246.4" font-family="Tahoma" font-size="12" transform="rotate(90 1875,1246.4)" text-rendering="optimizeSpeed" fill="#000000">jira (8404)</text>
  <rect fill="blue" height="84.4" stroke="black" width="12" x="1890" y="1157.0"/>
  <text x="1890" y="1246.4" font-family="Tahoma" font-size="12" transform="rotate(90 1890,1246.4)" text-rendering="optimizeSpeed" fill="#000000">jenkins-multijob-plugin (8440)</text>
  <rect fill="blue" height="85.8" stroke="black" width="12" x="1905" y="1155.6"/>
  <text x="1905" y="1246.4" font-family="Tahoma" font-size="12" transform="rotate(90 1905,1246.4)" text-rendering="optimizeSpeed" fill="#000000">groovy (8584)</text>
  <rect fill="blue" height="87.5" stroke="black" width="12" x="1920" y="1153.9"/>
  <text x="1920" y="1246.4" font-family="Tahoma" font-size="12" transform="rotate(90 1920,1246.4)" text-rendering="optimizeSpeed" fill="#000000">rebuild (8746)</text>
  <rect fill="blue" height="88.0" stroke="black" width="12" x="1935" y="1153.4"/>
  <text x="1935" y="1246.4" font-family="Tahoma" font-size="12" transform="rotate(90 1935,1246.4)" text-rendering="optimizeSpeed" fill="#000000">build-name-setter (8801)</text>
  <rect fill="blue" height="89.3" stroke="black" width="12" x="1950" y="1152.1"/>
  <text x="1950" y="1246.4" font-family="Tahoma" font-size="12" transform="rotate(90 1950,1246.4)" text-rendering="optimizeSpeed" fill="#000000">log-parser (8930)</text>
  <rect fill="blue" height="91.1" stroke="black" width="12" x="1965" y="1150.3"/>
  <text x="1965" y="1246.4" font-family="Tahoma" font-size="12" transform="rotate(90 1965,1246.4)" text-rendering="optimizeSpeed" fill="#000000">analysis-collector (9112)</text>
  <rect fill="blue" height="97.9" stroke="black" width="12" x="1980" y="1143.5"/>
  <text x="1980" y="1246.4" font-family="Tahoma" font-size="12" transform="rotate(90 1980,1246.4)" text-rendering="optimizeSpeed" fill="#000000">git-server (9794)</text>
  <rect fill="blue" height="98.3" stroke="black" width="12" x="1995" y="1143.1"/>
  <text x="1995" y="1246.4" font-family="Tahoma" font-size="12" transform="rotate(90 1995,1246.4)" text-rendering="optimizeSpeed" fill="#000000">thinBackup (9832)</text>
  <rect fill="blue" height="100.4" stroke="black" width="12" x="2010" y="1141.0"/>
  <text x="2010" y="1246.4" font-family="Tahoma" font-size="12" transform="rotate(90 2010,1246.4)" text-rendering="optimizeSpeed" fill="#000000">deploy (10037)</text>
  <rect fill="blue" height="101.0" stroke="black" width="12" x="2025" y="1140.4"/>
  <text x="2025" y="1246.4" font-family="Tahoma" font-size="12" transform="rotate(90 2025,1246.4)" text-rendering="optimizeSpeed" fill="#000000">ansicolor (10096)</text>
  <rect fill="blue" height="102.8" stroke="black" width="12" x="2040" y="1138.6"/>
  <text x="2040" y="1246.4" font-family="Tahoma" font-size="12" transform="rotate(90 2040,1246.4)" text-rendering="optimizeSpeed" fill="#000000">warnings (10279)</text>
  <rect fill="blue" height="103.2" stroke="black" width="12" x="2055" y="1138.2"/>
  <text x="2055" y="1246.4" font-family="Tahoma" font-size="12" transform="rotate(90 2055,1246.4)" text-rendering="optimizeSpeed" fill="#000000">findbugs (10322)</text>
  <rect fill="blue" height="105.4" stroke="black" width="12" x="2070" y="1136.0"/>
  <text x="2070" y="1246.4" font-family="Tahoma" font-size="12" transform="rotate(90 2070,1246.4)" text-rendering="optimizeSpeed" fill="#000000">ruby-runtime (10544)</text>
  <rect fill="blue" height="108.3" stroke="black" width="12" x="2085" y="1133.1"/>
  <text x="2085" y="1246.4" font-family="Tahoma" font-size="12" transform="rotate(90 2085,1246.4)" text-rendering="optimizeSpeed" fill="#000000">timestamper (10834)</text>
  <rect fill="blue" height="110.0" stroke="black" width="12" x="2100" y="1131.5"/>
  <text x="2100" y="1246.4" font-family="Tahoma" font-size="12" transform="rotate(90 2100,1246.4)" text-rendering="optimizeSpeed" fill="#000000">disk-usage (10995)</text>
  <rect fill="blue" height="110.6" stroke="black" width="12" x="2115" y="1130.8"/>
  <text x="2115" y="1246.4" font-family="Tahoma" font-size="12" transform="rotate(90 2115,1246.4)" text-rendering="optimizeSpeed" fill="#000000">role-strategy (11056)</text>
  <rect fill="blue" height="114.3" stroke="black" width="12" x="2130" y="1127.1"/>
  <text x="2130" y="1246.4" font-family="Tahoma" font-size="12" transform="rotate(90 2130,1246.4)" text-rendering="optimizeSpeed" fill="#000000">ssh (11435)</text>
  <rect fill="blue" height="114.7" stroke="black" width="12" x="2145" y="1126.7"/>
  <text x="2145" y="1246.4" font-family="Tahoma" font-size="12" transform="rotate(90 2145,1246.4)" text-rendering="optimizeSpeed" fill="#000000">postbuild-task (11467)</text>
  <rect fill="blue" height="117.4" stroke="black" width="12" x="2160" y="1124.0"/>
  <text x="2160" y="1246.4" font-family="Tahoma" font-size="12" transform="rotate(90 2160,1246.4)" text-rendering="optimizeSpeed" fill="#000000">pmd (11742)</text>
  <rect fill="blue" height="118.3" stroke="black" width="12" x="2175" y="1123.1"/>
  <text x="2175" y="1246.4" font-family="Tahoma" font-size="12" transform="rotate(90 2175,1246.4)" text-rendering="optimizeSpeed" fill="#000000">violations (11834)</text>
  <rect fill="blue" height="120.2" stroke="black" width="12" x="2190" y="1121.2"/>
  <text x="2190" y="1246.4" font-family="Tahoma" font-size="12" transform="rotate(90 2190,1246.4)" text-rendering="optimizeSpeed" fill="#000000">msbuild (12024)</text>
  <rect fill="blue" height="123.6" stroke="black" width="12" x="2205" y="1117.8"/>
  <text x="2205" y="1246.4" font-family="Tahoma" font-size="12" transform="rotate(90 2205,1246.4)" text-rendering="optimizeSpeed" fill="#000000">gradle (12362)</text>
  <rect fill="blue" height="134.4" stroke="black" width="12" x="2220" y="1107.0"/>
  <text x="2220" y="1246.4" font-family="Tahoma" font-size="12" transform="rotate(90 2220,1246.4)" text-rendering="optimizeSpeed" fill="#000000">xunit (13443)</text>
  <rect fill="blue" height="135.8" stroke="black" width="12" x="2235" y="1105.7"/>
  <text x="2235" y="1246.4" font-family="Tahoma" font-size="12" transform="rotate(90 2235,1246.4)" text-rendering="optimizeSpeed" fill="#000000">build-timeout (13575)</text>
  <rect fill="blue" height="137.1" stroke="black" width="12" x="2250" y="1104.3"/>
  <text x="2250" y="1246.4" font-family="Tahoma" font-size="12" transform="rotate(90 2250,1246.4)" text-rendering="optimizeSpeed" fill="#000000">active-directory (13708)</text>
  <rect fill="blue" height="137.2" stroke="black" width="12" x="2265" y="1104.2"/>
  <text x="2265" y="1246.4" font-family="Tahoma" font-size="12" transform="rotate(90 2265,1246.4)" text-rendering="optimizeSpeed" fill="#000000">jobConfigHistory (13724)</text>
  <rect fill="blue" height="138.7" stroke="black" width="12" x="2280" y="1102.7"/>
  <text x="2280" y="1246.4" font-family="Tahoma" font-size="12" transform="rotate(90 2280,1246.4)" text-rendering="optimizeSpeed" fill="#000000">checkstyle (13871)</text>
  <rect fill="blue" height="141.9" stroke="black" width="12" x="2295" y="1099.5"/>
  <text x="2295" y="1246.4" font-family="Tahoma" font-size="12" transform="rotate(90 2295,1246.4)" text-rendering="optimizeSpeed" fill="#000000">cobertura (14187)</text>
  <rect fill="blue" height="155.6" stroke="black" width="12" x="2310" y="1085.8"/>
  <text x="2310" y="1246.4" font-family="Tahoma" font-size="12" transform="rotate(90 2310,1246.4)" text-rendering="optimizeSpeed" fill="#000000">dashboard-view (15561)</text>
  <rect fill="blue" height="155.8" stroke="black" width="12" x="2325" y="1085.6"/>
  <text x="2325" y="1246.4" font-family="Tahoma" font-size="12" transform="rotate(90 2325,1246.4)" text-rendering="optimizeSpeed" fill="#000000">publish-over-ssh (15581)</text>
  <rect fill="blue" height="157.5" stroke="black" width="12" x="2340" y="1083.9"/>
  <text x="2340" y="1246.4" font-family="Tahoma" font-size="12" transform="rotate(90 2340,1246.4)" text-rendering="optimizeSpeed" fill="#000000">sonar (15754)</text>
  <rect fill="blue" height="161.1" stroke="black" width="12" x="2355" y="1080.3"/>
  <text x="2355" y="1246.4" font-family="Tahoma" font-size="12" transform="rotate(90 2355,1246.4)" text-rendering="optimizeSpeed" fill="#000000">ws-cleanup (16109)</text>
  <rect fill="blue" height="163.2" stroke="black" width="12" x="2370" y="1078.2"/>
  <text x="2370" y="1246.4" font-family="Tahoma" font-size="12" transform="rotate(90 2370,1246.4)" text-rendering="optimizeSpeed" fill="#000000">build-pipeline-plugin (16322)</text>
  <rect fill="blue" height="186.3" stroke="black" width="12" x="2385" y="1055.1"/>
  <text x="2385" y="1246.4" font-family="Tahoma" font-size="12" transform="rotate(90 2385,1246.4)" text-rendering="optimizeSpeed" fill="#000000">github (18626)</text>
  <rect fill="blue" height="187.1" stroke="black" width="12" x="2400" y="1054.3"/>
  <text x="2400" y="1246.4" font-family="Tahoma" font-size="12" transform="rotate(90 2400,1246.4)" text-rendering="optimizeSpeed" fill="#000000">htmlpublisher (18707)</text>
  <rect fill="blue" height="188.4" stroke="black" width="12" x="2415" y="1053.0"/>
  <text x="2415" y="1246.4" font-family="Tahoma" font-size="12" transform="rotate(90 2415,1246.4)" text-rendering="optimizeSpeed" fill="#000000">conditional-buildstep (18837)</text>
  <rect fill="blue" height="188.5" stroke="black" width="12" x="2430" y="1052.9"/>
  <text x="2430" y="1246.4" font-family="Tahoma" font-size="12" transform="rotate(90 2430,1246.4)" text-rendering="optimizeSpeed" fill="#000000">ssh-agent (18852)</text>
  <rect fill="blue" height="199.5" stroke="black" width="12" x="2445" y="1041.9"/>
  <text x="2445" y="1246.4" font-family="Tahoma" font-size="12" transform="rotate(90 2445,1246.4)" text-rendering="optimizeSpeed" fill="#000000">github-api (19950)</text>
  <rect fill="blue" height="207.7" stroke="black" width="12" x="2460" y="1033.7"/>
  <text x="2460" y="1246.4" font-family="Tahoma" font-size="12" transform="rotate(90 2460,1246.4)" text-rendering="optimizeSpeed" fill="#000000">copyartifact (20774)</text>
  <rect fill="blue" height="212.7" stroke="black" width="12" x="2475" y="1028.7"/>
  <text x="2475" y="1246.4" font-family="Tahoma" font-size="12" transform="rotate(90 2475,1246.4)" text-rendering="optimizeSpeed" fill="#000000">run-condition (21268)</text>
  <rect fill="blue" height="239.3" stroke="black" width="12" x="2490" y="1002.1"/>
  <text x="2490" y="1246.4" font-family="Tahoma" font-size="12" transform="rotate(90 2490,1246.4)" text-rendering="optimizeSpeed" fill="#000000">greenballs (23930)</text>
  <rect fill="blue" height="266.2" stroke="black" width="12" x="2505" y="975.2"/>
  <text x="2505" y="1246.4" font-family="Tahoma" font-size="12" transform="rotate(90 2505,1246.4)" text-rendering="optimizeSpeed" fill="#000000">jquery (26625)</text>
  <rect fill="blue" height="267.0" stroke="black" width="12" x="2520" y="974.4"/>
  <text x="2520" y="1246.4" font-family="Tahoma" font-size="12" transform="rotate(90 2520,1246.4)" text-rendering="optimizeSpeed" fill="#000000">envinject (26702)</text>
  <rect fill="blue" height="294.8" stroke="black" width="12" x="2535" y="946.6"/>
  <text x="2535" y="1246.4" font-family="Tahoma" font-size="12" transform="rotate(90 2535,1246.4)" text-rendering="optimizeSpeed" fill="#000000">analysis-core (29478)</text>
  <rect fill="blue" height="356.5" stroke="black" width="12" x="2550" y="884.9"/>
  <text x="2550" y="1246.4" font-family="Tahoma" font-size="12" transform="rotate(90 2550,1246.4)" text-rendering="optimizeSpeed" fill="#000000">email-ext (35654)</text>
  <rect fill="blue" height="380.7" stroke="black" width="12" x="2565" y="860.7"/>
  <text x="2565" y="1246.4" font-family="Tahoma" font-size="12" transform="rotate(90 2565,1246.4)" text-rendering="optimizeSpeed" fill="#000000">parameterized-trigger (38074)</text>
  <rect fill="blue" height="523.2" stroke="black" width="12" x="2580" y="718.2"/>
  <text x="2580" y="1246.4" font-family="Tahoma" font-size="12" transform="rotate(90 2580,1246.4)" text-rendering="optimizeSpeed" fill="#000000">mapdb-api (52322)</text>
  <rect fill="blue" height="586.9" stroke="black" width="12" x="2595" y="654.5"/>
  <text x="2595" y="1246.4" font-family="Tahoma" font-size="12" transform="rotate(90 2595,1246.4)" text-rendering="optimizeSpeed" fill="#000000">token-macro (58694)</text>
  <rect fill="blue" height="666.5" stroke="black" width="12" x="2610" y="575.0"/>
  <text x="2610" y="1246.4" font-family="Tahoma" font-size="12" transform="rotate(90 2610,1246.4)" text-rendering="optimizeSpeed" fill="#000000">git-client (66645)</text>
  <rect fill="blue" height="674.9" stroke="black" width="12" x="2625" y="566.5"/>
  <text x="2625" y="1246.4" font-family="Tahoma" font-size="12" transform="rotate(90 2625,1246.4)" text-rendering="optimizeSpeed" fill="#000000">git (67494)</text>
  <rect fill="blue" height="769.8" stroke="black" width="12" x="2640" y="471.6"/>
  <text x="2640" y="1246.4" font-family="Tahoma" font-size="12" transform="rotate(90 2640,1246.4)" text-rendering="optimizeSpeed" fill="#000000">script-security (76978)</text>
  <rect fill="blue" height="836.4" stroke="black" width="12" x="2655" y="405.0"/>
  <text x="2655" y="1246.4" font-family="Tahoma" font-size="12" transform="rotate(90 2655,1246.4)" text-rendering="optimizeSpeed" fill="#000000">scm-api (83636)</text>
  <rect fill="blue" height="939.2" stroke="black" width="12" x="2670" y="302.2"/>
  <text x="2670" y="1246.4" font-family="Tahoma" font-size="12" transform="rotate(90 2670,1246.4)" text-rendering="optimizeSpeed" fill="#000000">junit (93916)</text>
  <rect fill="blue" height="1027.8" stroke="black" width="12" x="2685" y="213.6"/>
  <text x="2685" y="1246.4" font-family="Tahoma" font-size="12" transform="rotate(90 2685,1246.4)" text-rendering="optimizeSpeed" fill="#000000">matrix-project (102784)</text>
  <rect fill="blue" height="1053.9" stroke="black" width="12" x="2700" y="187.5"/>
  <text x="2700" y="1246.4" font-family="Tahoma" font-size="12" transform="rotate(90 2700,1246.4)" text-rendering="optimizeSpeed" fill="#000000">antisamy-markup-formatter (105388)</text>
  <rect fill="blue" height="1055.0" stroke="black" width="12" x="2715" y="186.3"/>
  <text x="2715" y="1246.4" font-family="Tahoma" font-size="12" transform="rotate(90 2715,1246.4)" text-rendering="optimizeSpeed" fill="#000000">windows-slaves (105505)</text>
  <rect fill="blue" height="1099.2" stroke="black" width="12" x="2730" y="142.2"/>
  <text x="2730" y="1246.4" font-family="Tahoma" font-size="12" transform="rotate(90 2730,1246.4)" text-rendering="optimizeSpeed" fill="#000000">matrix-auth (109921)</text>
  <rect fill="blue" height="1132.5" stroke="black" width="12" x="2745" y="108.9"/>
  <text x="2745" y="1246.4" font-family="Tahoma" font-size="12" transform="rotate(90 2745,1246.4)" text-rendering="optimizeSpeed" fill="#000000">cvs (113246)</text>
  <rect fill="blue" height="1155.8" stroke="black" width="12" x="2760" y="85.6"/>
  <text x="2760" y="1246.4" font-family="Tahoma" font-size="12" transform="rotate(90 2760,1246.4)" text-rendering="optimizeSpeed" fill="#000000">ldap (115585)</text>
  <rect fill="blue" height="1158.3" stroke="black" width="12" x="2775" y="83.1"/>
  <text x="2775" y="1246.4" font-family="Tahoma" font-size="12" transform="rotate(90 2775,1246.4)" text-rendering="optimizeSpeed" fill="#000000">subversion (115834)</text>
  <rect fill="blue" height="1159.4" stroke="black" width="12" x="2790" y="82.0"/>
  <text x="2790" y="1246.4" font-family="Tahoma" font-size="12" transform="rotate(90 2790,1246.4)" text-rendering="optimizeSpeed" fill="#000000">ssh-credentials (115944)</text>
  <rect fill="blue" height="1162.8" stroke="black" width="12" x="2805" y="78.6"/>
  <text x="2805" y="1246.4" font-family="Tahoma" font-size="12" transform="rotate(90 2805,1246.4)" text-rendering="optimizeSpeed" fill="#000000">credentials (116277)</text>
  <rect fill="blue" height="1164.0" stroke="black" width="12" x="2820" y="77.4"/>
  <text x="2820" y="1246.4" font-family="Tahoma" font-size="12" transform="rotate(90 2820,1246.4)" text-rendering="optimizeSpeed" fill="#000000">translation (116402)</text>
  <rect fill="blue" height="1165.3" stroke="black" width="12" x="2835" y="76.1"/>
  <text x="2835" y="1246.4" font-family="Tahoma" font-size="12" transform="rotate(90 2835,1246.4)" text-rendering="optimizeSpeed" fill="#000000">pam-auth (116532)</text>
  <rect fill="blue" height="1171.1" stroke="black" width="12" x="2850" y="70.3"/>
  <text x="2850" y="1246.4" font-family="Tahoma" font-size="12" transform="rotate(90 2850,1246.4)" text-rendering="optimizeSpeed" fill="#000000">mailer (117108)</text>
  <rect fill="blue" height="1172.2" stroke="black" width="12" x="2865" y="69.2"/>
  <text x="2865" y="1246.4" font-family="Tahoma" font-size="12" transform="rotate(90 2865,1246.4)" text-rendering="optimizeSpeed" fill="#000000">ant (117219)</text>
  <rect fill="blue" height="1173.0" stroke="black" width="12" x="2880" y="68.4"/>
  <text x="2880" y="1246.4" font-family="Tahoma" font-size="12" transform="rotate(90 2880,1246.4)" text-rendering="optimizeSpeed" fill="#000000">external-monitor-job (117302)</text>
  <rect fill="blue" height="1181.7" stroke="black" width="12" x="2895" y="59.7"/>
  <text x="2895" y="1246.4" font-family="Tahoma" font-size="12" transform="rotate(90 2895,1246.4)" text-rendering="optimizeSpeed" fill="#000000">javadoc (118173)</text>
  <rect fill="blue" height="1185.7" stroke="black" width="12" x="2910" y="55.7"/>
  <text x="2910" y="1246.4" font-family="Tahoma" font-size="12" transform="rotate(90 2910,1246.4)" text-rendering="optimizeSpeed" fill="#000000">maven-plugin (118572)</text>
  <rect fill="blue" height="1191.4" stroke="black" width="12" x="2925" y="50.0"/>
  <text x="2925" y="1246.4" font-family="Tahoma" font-size="12" transform="rotate(90 2925,1246.4)" text-rendering="optimizeSpeed" fill="#000000">ssh-slaves (119140)</text>
  <text x="10" y="40" font-family="Tahoma" font-size="20" text-rendering="optimizeSpeed" fill="#000000">Plugin installations (installations &gt; 2500)</text>
</svg>
