<svg xmlns="http://www.w3.org/2000/svg" version="1.1" preserveAspectRatio="xMidYMid meet" viewBox="0 0 1160 13791.9">
  <rect fill="blue" height="0.1" stroke="black" width="12" x="15" y="13491.8"/>
  <text x="15" y="13496.9" font-family="Tahoma" font-size="12" transform="rotate(90 15,13496.9)" text-rendering="optimizeSpeed" fill="#000000">DragonFly (i386) (1)</text>
  <rect fill="blue" height="0.1" stroke="black" width="12" x="30" y="13491.8"/>
  <text x="30" y="13496.9" font-family="Tahoma" font-size="12" transform="rotate(90 30,13496.9)" text-rendering="optimizeSpeed" fill="#000000">DragonFlyBSD (amd64) (1)</text>
  <rect fill="blue" height="0.1" stroke="black" width="12" x="45" y="13491.8"/>
  <text x="45" y="13496.9" font-family="Tahoma" font-size="12" transform="rotate(90 45,13496.9)" text-rendering="optimizeSpeed" fill="#000000">HP-UX (PA_RISC2.0W) (1)</text>
  <rect fill="blue" height="0.1" stroke="black" width="12" x="60" y="13491.8"/>
  <text x="60" y="13496.9" font-family="Tahoma" font-size="12" transform="rotate(90 60,13496.9)" text-rendering="optimizeSpeed" fill="#000000">Haiku (i386) (1)</text>
  <rect fill="blue" height="0.1" stroke="black" width="12" x="75" y="13491.8"/>
  <text x="75" y="13496.9" font-family="Tahoma" font-size="12" transform="rotate(90 75,13496.9)" text-rendering="optimizeSpeed" fill="#000000">Linux (mipsel) (1)</text>
  <rect fill="blue" height="0.1" stroke="black" width="12" x="90" y="13491.8"/>
  <text x="90" y="13496.9" font-family="Tahoma" font-size="12" transform="rotate(90 90,13496.9)" text-rendering="optimizeSpeed" fill="#000000">Mac OS X (ppc) (1)</text>
  <rect fill="blue" height="0.1" stroke="black" width="12" x="105" y="13491.8"/>
  <text x="105" y="13496.9" font-family="Tahoma" font-size="12" transform="rotate(90 105,13496.9)" text-rendering="optimizeSpeed" fill="#000000">OS/400 (ppc) (1)</text>
  <rect fill="blue" height="0.1" stroke="black" width="12" x="120" y="13491.8"/>
  <text x="120" y="13496.9" font-family="Tahoma" font-size="12" transform="rotate(90 120,13496.9)" text-rendering="optimizeSpeed" fill="#000000">Unknown (x86_64) (1)</text>
  <rect fill="blue" height="0.1" stroke="black" width="12" x="135" y="13491.8"/>
  <text x="135" y="13496.9" font-family="Tahoma" font-size="12" transform="rotate(90 135,13496.9)" text-rendering="optimizeSpeed" fill="#000000">Windows (x86) (1)</text>
  <rect fill="blue" height="0.1" stroke="black" width="12" x="150" y="13491.8"/>
  <text x="150" y="13496.9" font-family="Tahoma" font-size="12" transform="rotate(90 150,13496.9)" text-rendering="optimizeSpeed" fill="#000000">Windows Server 2008 (ia64) (1)</text>
  <rect fill="blue" height="0.1" stroke="black" width="12" x="165" y="13491.8"/>
  <text x="165" y="13496.9" font-family="Tahoma" font-size="12" transform="rotate(90 165,13496.9)" text-rendering="optimizeSpeed" fill="#000000">Windows Server 2008 R2 (ia64) (1)</text>
  <rect fill="blue" height="0.1" stroke="black" width="12" x="180" y="13491.8"/>
  <text x="180" y="13496.9" font-family="Tahoma" font-size="12" transform="rotate(90 180,13496.9)" text-rendering="optimizeSpeed" fill="#000000">Windows Server 8 (amd64) (1)</text>
  <rect fill="blue" height="0.1" stroke="black" width="12" x="195" y="13491.8"/>
  <text x="195" y="13496.9" font-family="Tahoma" font-size="12" transform="rotate(90 195,13496.9)" text-rendering="optimizeSpeed" fill="#000000">z/OS (s390x) (1)</text>
  <rect fill="blue" height="0.2" stroke="black" width="12" x="210" y="13491.7"/>
  <text x="210" y="13496.9" font-family="Tahoma" font-size="12" transform="rotate(90 210,13496.9)" text-rendering="optimizeSpeed" fill="#000000">Darwin (i386) (2)</text>
  <rect fill="blue" height="0.2" stroke="black" width="12" x="225" y="13491.7"/>
  <text x="225" y="13496.9" font-family="Tahoma" font-size="12" transform="rotate(90 225,13496.9)" text-rendering="optimizeSpeed" fill="#000000">Linux (x86_64) (2)</text>
  <rect fill="blue" height="0.3" stroke="black" width="12" x="240" y="13491.6"/>
  <text x="240" y="13496.9" font-family="Tahoma" font-size="12" transform="rotate(90 240,13496.9)" text-rendering="optimizeSpeed" fill="#000000">NetBSD (amd64) (3)</text>
  <rect fill="blue" height="0.3" stroke="black" width="12" x="255" y="13491.6"/>
  <text x="255" y="13496.9" font-family="Tahoma" font-size="12" transform="rotate(90 255,13496.9)" text-rendering="optimizeSpeed" fill="#000000">z/OS (s390) (3)</text>
  <rect fill="blue" height="0.4" stroke="black" width="12" x="270" y="13491.5"/>
  <text x="270" y="13496.9" font-family="Tahoma" font-size="12" transform="rotate(90 270,13496.9)" text-rendering="optimizeSpeed" fill="#000000">HP-UX (ia64) (4)</text>
  <rect fill="blue" height="0.4" stroke="black" width="12" x="285" y="13491.5"/>
  <text x="285" y="13496.9" font-family="Tahoma" font-size="12" transform="rotate(90 285,13496.9)" text-rendering="optimizeSpeed" fill="#000000">Mac OS X (amd64) (4)</text>
  <rect fill="blue" height="0.4" stroke="black" width="12" x="300" y="13491.5"/>
  <text x="300" y="13496.9" font-family="Tahoma" font-size="12" transform="rotate(90 300,13496.9)" text-rendering="optimizeSpeed" fill="#000000">OpenBSD (i386) (4)</text>
  <rect fill="blue" height="0.5" stroke="black" width="12" x="315" y="13491.4"/>
  <text x="315" y="13496.9" font-family="Tahoma" font-size="12" transform="rotate(90 315,13496.9)" text-rendering="optimizeSpeed" fill="#000000">OS/400 (PowerPC) (5)</text>
  <rect fill="blue" height="0.6" stroke="black" width="12" x="330" y="13491.3"/>
  <text x="330" y="13496.9" font-family="Tahoma" font-size="12" transform="rotate(90 330,13496.9)" text-rendering="optimizeSpeed" fill="#000000">NetBSD (i386) (6)</text>
  <rect fill="blue" height="0.7" stroke="black" width="12" x="345" y="13491.2"/>
  <text x="345" y="13496.9" font-family="Tahoma" font-size="12" transform="rotate(90 345,13496.9)" text-rendering="optimizeSpeed" fill="#000000">Linux (aarch64) (7)</text>
  <rect fill="blue" height="0.7" stroke="black" width="12" x="360" y="13491.2"/>
  <text x="360" y="13496.9" font-family="Tahoma" font-size="12" transform="rotate(90 360,13496.9)" text-rendering="optimizeSpeed" fill="#000000">Windows (amd64) (7)</text>
  <rect fill="blue" height="0.8" stroke="black" width="12" x="375" y="13491.1"/>
  <text x="375" y="13496.9" font-family="Tahoma" font-size="12" transform="rotate(90 375,13496.9)" text-rendering="optimizeSpeed" fill="#000000">Linux (s390) (8)</text>
  <rect fill="blue" height="1.0" stroke="black" width="12" x="390" y="13490.9"/>
  <text x="390" y="13496.9" font-family="Tahoma" font-size="12" transform="rotate(90 390,13496.9)" text-rendering="optimizeSpeed" fill="#000000">Linux (ppc64le) (10)</text>
  <rect fill="blue" height="1.3" stroke="black" width="12" x="405" y="13490.6"/>
  <text x="405" y="13496.9" font-family="Tahoma" font-size="12" transform="rotate(90 405,13496.9)" text-rendering="optimizeSpeed" fill="#000000">Windows Server 2003 (amd64) (13)</text>
  <rect fill="blue" height="1.4" stroke="black" width="12" x="420" y="13490.5"/>
  <text x="420" y="13496.9" font-family="Tahoma" font-size="12" transform="rotate(90 420,13496.9)" text-rendering="optimizeSpeed" fill="#000000">Windows 2000 (x86) (14)</text>
  <rect fill="blue" height="1.5" stroke="black" width="12" x="435" y="13490.4"/>
  <text x="435" y="13496.9" font-family="Tahoma" font-size="12" transform="rotate(90 435,13496.9)" text-rendering="optimizeSpeed" fill="#000000">OpenBSD (amd64) (15)</text>
  <rect fill="blue" height="2.2" stroke="black" width="12" x="450" y="13489.7"/>
  <text x="450" y="13496.9" font-family="Tahoma" font-size="12" transform="rotate(90 450,13496.9)" text-rendering="optimizeSpeed" fill="#000000">Linux (ia64) (22)</text>
  <rect fill="blue" height="2.3" stroke="black" width="12" x="465" y="13489.6"/>
  <text x="465" y="13496.9" font-family="Tahoma" font-size="12" transform="rotate(90 465,13496.9)" text-rendering="optimizeSpeed" fill="#000000">Mac OS X (i386) (23)</text>
  <rect fill="blue" height="4.2" stroke="black" width="12" x="480" y="13487.7"/>
  <text x="480" y="13496.9" font-family="Tahoma" font-size="12" transform="rotate(90 480,13496.9)" text-rendering="optimizeSpeed" fill="#000000">HP-UX (IA64W) (42)</text>
  <rect fill="blue" height="4.2" stroke="black" width="12" x="495" y="13487.7"/>
  <text x="495" y="13496.9" font-family="Tahoma" font-size="12" transform="rotate(90 495,13496.9)" text-rendering="optimizeSpeed" fill="#000000">Linux (ppc) (42)</text>
  <rect fill="blue" height="4.8" stroke="black" width="12" x="510" y="13487.1"/>
  <text x="510" y="13496.9" font-family="Tahoma" font-size="12" transform="rotate(90 510,13496.9)" text-rendering="optimizeSpeed" fill="#000000">Windows Server 2003 (x86) (48)</text>
  <rect fill="blue" height="7.5" stroke="black" width="12" x="525" y="13484.4"/>
  <text x="525" y="13496.9" font-family="Tahoma" font-size="12" transform="rotate(90 525,13496.9)" text-rendering="optimizeSpeed" fill="#000000">HP-UX (PA_RISC2.0) (75)</text>
  <rect fill="blue" height="7.8" stroke="black" width="12" x="540" y="13484.1"/>
  <text x="540" y="13496.9" font-family="Tahoma" font-size="12" transform="rotate(90 540,13496.9)" text-rendering="optimizeSpeed" fill="#000000">Windows XP (amd64) (78)</text>
  <rect fill="blue" height="10.1" stroke="black" width="12" x="555" y="13481.8"/>
  <text x="555" y="13496.9" font-family="Tahoma" font-size="12" transform="rotate(90 555,13496.9)" text-rendering="optimizeSpeed" fill="#000000">Linux (s390x) (101)</text>
  <rect fill="blue" height="10.1" stroke="black" width="12" x="570" y="13481.8"/>
  <text x="570" y="13496.9" font-family="Tahoma" font-size="12" transform="rotate(90 570,13496.9)" text-rendering="optimizeSpeed" fill="#000000">Windows Vista (amd64) (101)</text>
  <rect fill="blue" height="14.0" stroke="black" width="12" x="585" y="13477.9"/>
  <text x="585" y="13496.9" font-family="Tahoma" font-size="12" transform="rotate(90 585,13496.9)" text-rendering="optimizeSpeed" fill="#000000">SunOS (amd64) (140)</text>
  <rect fill="blue" height="14.5" stroke="black" width="12" x="600" y="13477.4"/>
  <text x="600" y="13496.9" font-family="Tahoma" font-size="12" transform="rotate(90 600,13496.9)" text-rendering="optimizeSpeed" fill="#000000">Linux (ppc64) (145)</text>
  <rect fill="blue" height="15.7" stroke="black" width="12" x="615" y="13476.2"/>
  <text x="615" y="13496.9" font-family="Tahoma" font-size="12" transform="rotate(90 615,13496.9)" text-rendering="optimizeSpeed" fill="#000000">SunOS (sparcv9) (157)</text>
  <rect fill="blue" height="21.3" stroke="black" width="12" x="630" y="13470.6"/>
  <text x="630" y="13496.9" font-family="Tahoma" font-size="12" transform="rotate(90 630,13496.9)" text-rendering="optimizeSpeed" fill="#000000">Linux (x86) (213)</text>
  <rect fill="blue" height="23.1" stroke="black" width="12" x="645" y="13468.8"/>
  <text x="645" y="13496.9" font-family="Tahoma" font-size="12" transform="rotate(90 645,13496.9)" text-rendering="optimizeSpeed" fill="#000000">FreeBSD (i386) (231)</text>
  <rect fill="blue" height="26.3" stroke="black" width="12" x="660" y="13465.6"/>
  <text x="660" y="13496.9" font-family="Tahoma" font-size="12" transform="rotate(90 660,13496.9)" text-rendering="optimizeSpeed" fill="#000000">HP-UX (IA64N) (263)</text>
  <rect fill="blue" height="26.4" stroke="black" width="12" x="675" y="13465.5"/>
  <text x="675" y="13496.9" font-family="Tahoma" font-size="12" transform="rotate(90 675,13496.9)" text-rendering="optimizeSpeed" fill="#000000">Linux (arm) (264)</text>
  <rect fill="blue" height="32.6" stroke="black" width="12" x="690" y="13459.3"/>
  <text x="690" y="13496.9" font-family="Tahoma" font-size="12" transform="rotate(90 690,13496.9)" text-rendering="optimizeSpeed" fill="#000000">Windows NT (unknown) (x86) (326)</text>
  <rect fill="blue" height="35.4" stroke="black" width="12" x="705" y="13456.5"/>
  <text x="705" y="13496.9" font-family="Tahoma" font-size="12" transform="rotate(90 705,13496.9)" text-rendering="optimizeSpeed" fill="#000000">Windows NT (unknown) (amd64) (354)</text>
  <rect fill="blue" height="42.4" stroke="black" width="12" x="720" y="13449.5"/>
  <text x="720" y="13496.9" font-family="Tahoma" font-size="12" transform="rotate(90 720,13496.9)" text-rendering="optimizeSpeed" fill="#000000">FreeBSD (amd64) (424)</text>
  <rect fill="blue" height="46.4" stroke="black" width="12" x="735" y="13445.5"/>
  <text x="735" y="13496.9" font-family="Tahoma" font-size="12" transform="rotate(90 735,13496.9)" text-rendering="optimizeSpeed" fill="#000000">AIX (ppc) (464)</text>
  <rect fill="blue" height="55.7" stroke="black" width="12" x="750" y="13436.2"/>
  <text x="750" y="13496.9" font-family="Tahoma" font-size="12" transform="rotate(90 750,13496.9)" text-rendering="optimizeSpeed" fill="#000000">Windows 8.1 (x86) (557)</text>
  <rect fill="blue" height="55.8" stroke="black" width="12" x="765" y="13436.1"/>
  <text x="765" y="13496.9" font-family="Tahoma" font-size="12" transform="rotate(90 765,13496.9)" text-rendering="optimizeSpeed" fill="#000000">Windows Server 2012 R2 (x86) (558)</text>
  <rect fill="blue" height="58.3" stroke="black" width="12" x="780" y="13433.6"/>
  <text x="780" y="13496.9" font-family="Tahoma" font-size="12" transform="rotate(90 780,13496.9)" text-rendering="optimizeSpeed" fill="#000000">Windows Vista (x86) (583)</text>
  <rect fill="blue" height="58.5" stroke="black" width="12" x="795" y="13433.4"/>
  <text x="795" y="13496.9" font-family="Tahoma" font-size="12" transform="rotate(90 795,13496.9)" text-rendering="optimizeSpeed" fill="#000000">Windows 2003 (amd64) (585)</text>
  <rect fill="blue" height="76.5" stroke="black" width="12" x="810" y="13415.4"/>
  <text x="810" y="13496.9" font-family="Tahoma" font-size="12" transform="rotate(90 810,13496.9)" text-rendering="optimizeSpeed" fill="#000000">AIX (ppc64) (765)</text>
  <rect fill="blue" height="80.0" stroke="black" width="12" x="825" y="13411.9"/>
  <text x="825" y="13496.9" font-family="Tahoma" font-size="12" transform="rotate(90 825,13496.9)" text-rendering="optimizeSpeed" fill="#000000">Windows Server 2008 (amd64) (800)</text>
  <rect fill="blue" height="82.9" stroke="black" width="12" x="840" y="13409.0"/>
  <text x="840" y="13496.9" font-family="Tahoma" font-size="12" transform="rotate(90 840,13496.9)" text-rendering="optimizeSpeed" fill="#000000">Windows 8.1 (amd64) (829)</text>
  <rect fill="blue" height="84.1" stroke="black" width="12" x="855" y="13407.8"/>
  <text x="855" y="13496.9" font-family="Tahoma" font-size="12" transform="rotate(90 855,13496.9)" text-rendering="optimizeSpeed" fill="#000000">Windows 8 (amd64) (841)</text>
  <rect fill="blue" height="141.1" stroke="black" width="12" x="870" y="13350.8"/>
  <text x="870" y="13496.9" font-family="Tahoma" font-size="12" transform="rotate(90 870,13496.9)" text-rendering="optimizeSpeed" fill="#000000">SunOS (x86) (1411)</text>
  <rect fill="blue" height="160.1" stroke="black" width="12" x="885" y="13331.8"/>
  <text x="885" y="13496.9" font-family="Tahoma" font-size="12" transform="rotate(90 885,13496.9)" text-rendering="optimizeSpeed" fill="#000000">Windows Server 2008 (x86) (1601)</text>
  <rect fill="blue" height="167.2" stroke="black" width="12" x="900" y="13324.7"/>
  <text x="900" y="13496.9" font-family="Tahoma" font-size="12" transform="rotate(90 900,13496.9)" text-rendering="optimizeSpeed" fill="#000000">SunOS (sparc) (1672)</text>
  <rect fill="blue" height="191.5" stroke="black" width="12" x="915" y="13300.4"/>
  <text x="915" y="13496.9" font-family="Tahoma" font-size="12" transform="rotate(90 915,13496.9)" text-rendering="optimizeSpeed" fill="#000000">Windows Server 2012 R2 (amd64) (1915)</text>
  <rect fill="blue" height="200.5" stroke="black" width="12" x="930" y="13291.4"/>
  <text x="930" y="13496.9" font-family="Tahoma" font-size="12" transform="rotate(90 930,13496.9)" text-rendering="optimizeSpeed" fill="#000000">Windows 8 (x86) (2005)</text>
  <rect fill="blue" height="211.9" stroke="black" width="12" x="945" y="13280.0"/>
  <text x="945" y="13496.9" font-family="Tahoma" font-size="12" transform="rotate(90 945,13496.9)" text-rendering="optimizeSpeed" fill="#000000">Windows Server 2012 (amd64) (2119)</text>
  <rect fill="blue" height="314.0" stroke="black" width="12" x="960" y="13177.9"/>
  <text x="960" y="13496.9" font-family="Tahoma" font-size="12" transform="rotate(90 960,13496.9)" text-rendering="optimizeSpeed" fill="#000000">Windows XP (x86) (3140)</text>
  <rect fill="blue" height="318.0" stroke="black" width="12" x="975" y="13173.9"/>
  <text x="975" y="13496.9" font-family="Tahoma" font-size="12" transform="rotate(90 975,13496.9)" text-rendering="optimizeSpeed" fill="#000000">Windows Server 2012 (x86) (3180)</text>
  <rect fill="blue" height="404.9" stroke="black" width="12" x="990" y="13087.0"/>
  <text x="990" y="13496.9" font-family="Tahoma" font-size="12" transform="rotate(90 990,13496.9)" text-rendering="optimizeSpeed" fill="#000000">Windows 2003 (x86) (4049)</text>
  <rect fill="blue" height="1008.4" stroke="black" width="12" x="1005" y="12483.5"/>
  <text x="1005" y="13496.9" font-family="Tahoma" font-size="12" transform="rotate(90 1005,13496.9)" text-rendering="optimizeSpeed" fill="#000000">Windows Server 2008 R2 (x86) (10084)</text>
  <rect fill="blue" height="1274.3" stroke="black" width="12" x="1020" y="12217.6"/>
  <text x="1020" y="13496.9" font-family="Tahoma" font-size="12" transform="rotate(90 1020,13496.9)" text-rendering="optimizeSpeed" fill="#000000">Mac OS X (x86_64) (12743)</text>
  <rect fill="blue" height="1280.3" stroke="black" width="12" x="1035" y="12211.6"/>
  <text x="1035" y="13496.9" font-family="Tahoma" font-size="12" transform="rotate(90 1035,13496.9)" text-rendering="optimizeSpeed" fill="#000000">Windows Server 2008 R2 (amd64) (12803)</text>
  <rect fill="blue" height="1316.6" stroke="black" width="12" x="1050" y="12175.3"/>
  <text x="1050" y="13496.9" font-family="Tahoma" font-size="12" transform="rotate(90 1050,13496.9)" text-rendering="optimizeSpeed" fill="#000000">Windows 7 (amd64) (13166)</text>
  <rect fill="blue" height="1612.9" stroke="black" width="12" x="1065" y="11879.0"/>
  <text x="1065" y="13496.9" font-family="Tahoma" font-size="12" transform="rotate(90 1065,13496.9)" text-rendering="optimizeSpeed" fill="#000000">Linux (i386) (16129)</text>
  <rect fill="blue" height="2000.2" stroke="black" width="12" x="1080" y="11491.7"/>
  <text x="1080" y="13496.9" font-family="Tahoma" font-size="12" transform="rotate(90 1080,13496.9)" text-rendering="optimizeSpeed" fill="#000000">Windows 7 (x86) (20002)</text>
  <rect fill="blue" height="7441.4" stroke="black" width="12" x="1095" y="6050.5"/>
  <text x="1095" y="13496.9" font-family="Tahoma" font-size="12" transform="rotate(90 1095,13496.9)" text-rendering="optimizeSpeed" fill="#000000">N/A (74414)</text>
  <rect fill="blue" height="13441.9" stroke="black" width="12" x="1110" y="50.0"/>
  <text x="1110" y="13496.9" font-family="Tahoma" font-size="12" transform="rotate(90 1110,13496.9)" text-rendering="optimizeSpeed" fill="#000000">Linux (amd64) (134419)</text>
  <text x="10" y="40" font-family="Tahoma" font-size="20" text-rendering="optimizeSpeed" fill="#000000">Nodes (total: 324003)</text>
</svg>
