<svg xmlns="http://www.w3.org/2000/svg" version="1.1" preserveAspectRatio="xMidYMid meet" viewBox="0 0 440 5714.0">
  <rect fill="blue" height="0.0" stroke="black" width="12" x="15" y="5414.0"/>
  <text x="15" y="5419.0" font-family="Tahoma" font-size="12" transform="rotate(90 15,5419.0)" text-rendering="optimizeSpeed" fill="#000000">hudson-model-CastProject (1)</text>
  <rect fill="blue" height="0.0" stroke="black" width="12" x="30" y="5414.0"/>
  <text x="30" y="5419.0" font-family="Tahoma" font-size="12" transform="rotate(90 30,5419.0)" text-rendering="optimizeSpeed" fill="#000000">org-jenkinsci-plugins-AutomationTesting-AutomationTestingProject (1)</text>
  <rect fill="blue" height="0.0" stroke="black" width="12" x="45" y="5414.0"/>
  <text x="45" y="5419.0" font-family="Tahoma" font-size="12" transform="rotate(90 45,5419.0)" text-rendering="optimizeSpeed" fill="#000000">org-jenkinsci-plugins-SyncSources-MonitoringJobsProject (1)</text>
  <rect fill="blue" height="0.0" stroke="black" width="12" x="60" y="5414.0"/>
  <text x="60" y="5419.0" font-family="Tahoma" font-size="12" transform="rotate(90 60,5419.0)" text-rendering="optimizeSpeed" fill="#000000">org-jenkinsci-plugins-SyncSources-PreparationDailyProject (1)</text>
  <rect fill="blue" height="0.0" stroke="black" width="12" x="75" y="5414.0"/>
  <text x="75" y="5419.0" font-family="Tahoma" font-size="12" transform="rotate(90 75,5419.0)" text-rendering="optimizeSpeed" fill="#000000">org-jenkinsci-plugins-drupal-projects-DrupalProject (1)</text>
  <rect fill="blue" height="0.0" stroke="black" width="12" x="90" y="5414.0"/>
  <text x="90" y="5419.0" font-family="Tahoma" font-size="12" transform="rotate(90 90,5419.0)" text-rendering="optimizeSpeed" fill="#000000">org-jenkinsci-plugins-performance_receiver-PerformanceProject (1)</text>
  <rect fill="blue" height="0.0" stroke="black" width="12" x="105" y="5414.0"/>
  <text x="105" y="5419.0" font-family="Tahoma" font-size="12" transform="rotate(90 105,5419.0)" text-rendering="optimizeSpeed" fill="#000000">org-jvnet-hudson-maven3-Maven3Project (1)</text>
  <rect fill="blue" height="0.0" stroke="black" width="12" x="120" y="5414.0"/>
  <text x="120" y="5419.0" font-family="Tahoma" font-size="12" transform="rotate(90 120,5419.0)" text-rendering="optimizeSpeed" fill="#000000">org-jenkinsci-plugins-workflow-multibranch-WorkflowMultiBranchProject (9)</text>
  <rect fill="blue" height="0.0" stroke="black" width="12" x="135" y="5414.0"/>
  <text x="135" y="5419.0" font-family="Tahoma" font-size="12" transform="rotate(90 135,5419.0)" text-rendering="optimizeSpeed" fill="#000000">hudson-model-RunOnceProject (10)</text>
  <rect fill="blue" height="0.0" stroke="black" width="12" x="150" y="5414.0"/>
  <text x="150" y="5419.0" font-family="Tahoma" font-size="12" transform="rotate(90 150,5419.0)" text-rendering="optimizeSpeed" fill="#000000">org-jenkinsci-plugins-flyweightproject-FlyweightProject (12)</text>
  <rect fill="blue" height="0.0" stroke="black" width="12" x="165" y="5414.0"/>
  <text x="165" y="5419.0" font-family="Tahoma" font-size="12" transform="rotate(90 165,5419.0)" text-rendering="optimizeSpeed" fill="#000000">org-jenkinsci-plugins-SyncSources-MakeFirProject (23)</text>
  <rect fill="blue" height="0.0" stroke="black" width="12" x="180" y="5414.0"/>
  <text x="180" y="5419.0" font-family="Tahoma" font-size="12" transform="rotate(90 180,5419.0)" text-rendering="optimizeSpeed" fill="#000000">org-jenkinsci-plugins-SyncSources-MakeProject (23)</text>
  <rect fill="blue" height="0.0" stroke="black" width="12" x="195" y="5414.0"/>
  <text x="195" y="5419.0" font-family="Tahoma" font-size="12" transform="rotate(90 195,5419.0)" text-rendering="optimizeSpeed" fill="#000000">org-jenkinsci-plugins-SyncSources-PreShelveProject (23)</text>
  <rect fill="blue" height="0.0" stroke="black" width="12" x="210" y="5414.0"/>
  <text x="210" y="5419.0" font-family="Tahoma" font-size="12" transform="rotate(90 210,5419.0)" text-rendering="optimizeSpeed" fill="#000000">org-jenkinsci-plugins-coordinator-model-CoordinatorProject (24)</text>
  <rect fill="blue" height="0.0" stroke="black" width="12" x="225" y="5414.0"/>
  <text x="225" y="5419.0" font-family="Tahoma" font-size="12" transform="rotate(90 225,5419.0)" text-rendering="optimizeSpeed" fill="#000000">org-jenkinsci-plugins-greenproject-GreenProject (25)</text>
  <rect fill="blue" height="0.0" stroke="black" width="12" x="240" y="5414.0"/>
  <text x="240" y="5419.0" font-family="Tahoma" font-size="12" transform="rotate(90 240,5419.0)" text-rendering="optimizeSpeed" fill="#000000">org-jenkinsci-plugins-utsnode-UTSNode (26)</text>
  <rect fill="blue" height="0.1" stroke="black" width="12" x="255" y="5414.0"/>
  <text x="255" y="5419.0" font-family="Tahoma" font-size="12" transform="rotate(90 255,5419.0)" text-rendering="optimizeSpeed" fill="#000000">org-jenkinsci-plugins-spoontrigger-SpoonProject (68)</text>
  <rect fill="blue" height="0.1" stroke="black" width="12" x="270" y="5413.9"/>
  <text x="270" y="5419.0" font-family="Tahoma" font-size="12" transform="rotate(90 270,5419.0)" text-rendering="optimizeSpeed" fill="#000000">hudson-plugins-job_dependency-projects-MasterProject (112)</text>
  <rect fill="blue" height="1.7" stroke="black" width="12" x="285" y="5412.3"/>
  <text x="285" y="5419.0" font-family="Tahoma" font-size="12" transform="rotate(90 285,5419.0)" text-rendering="optimizeSpeed" fill="#000000">org-jenkinsci-plugins-jobgenerator-JobGenerator (1708)</text>
  <rect fill="blue" height="2.6" stroke="black" width="12" x="300" y="5411.4"/>
  <text x="300" y="5419.0" font-family="Tahoma" font-size="12" transform="rotate(90 300,5419.0)" text-rendering="optimizeSpeed" fill="#000000">org-jenkinsci-plugins-workflow-job-WorkflowJob (2628)</text>
  <rect fill="blue" height="4.7" stroke="black" width="12" x="315" y="5409.3"/>
  <text x="315" y="5419.0" font-family="Tahoma" font-size="12" transform="rotate(90 315,5419.0)" text-rendering="optimizeSpeed" fill="#000000">hudson-model-ExternalJob (4710)</text>
  <rect fill="blue" height="6.6" stroke="black" width="12" x="330" y="5407.4"/>
  <text x="330" y="5419.0" font-family="Tahoma" font-size="12" transform="rotate(90 330,5419.0)" text-rendering="optimizeSpeed" fill="#000000">hudson-ivy-IvyModuleSet (6649)</text>
  <rect fill="blue" height="16.3" stroke="black" width="12" x="345" y="5397.7"/>
  <text x="345" y="5419.0" font-family="Tahoma" font-size="12" transform="rotate(90 345,5419.0)" text-rendering="optimizeSpeed" fill="#000000">hudson-plugins-project_inheritance-projects-InheritanceProject (16303)</text>
  <rect fill="blue" height="212.1" stroke="black" width="12" x="360" y="5201.9"/>
  <text x="360" y="5419.0" font-family="Tahoma" font-size="12" transform="rotate(90 360,5419.0)" text-rendering="optimizeSpeed" fill="#000000">hudson-matrix-MatrixProject (212110)</text>
  <rect fill="blue" height="923.3" stroke="black" width="12" x="375" y="4490.7"/>
  <text x="375" y="5419.0" font-family="Tahoma" font-size="12" transform="rotate(90 375,5419.0)" text-rendering="optimizeSpeed" fill="#000000">hudson-maven-MavenModuleSet (923335)</text>
  <rect fill="blue" height="5364.0" stroke="black" width="12" x="390" y="50.0"/>
  <text x="390" y="5419.0" font-family="Tahoma" font-size="12" transform="rotate(90 390,5419.0)" text-rendering="optimizeSpeed" fill="#000000">hudson-model-FreeStyleProject (5364046)</text>
  <text x="10" y="40" font-family="Tahoma" font-size="20" text-rendering="optimizeSpeed" fill="#000000">Jobs (total: 6531851)</text>
</svg>
