<svg xmlns="http://www.w3.org/2000/svg" version="1.1" preserveAspectRatio="xMidYMid meet" viewBox="0 0 720 2270">
  <text x="30" y="40" font-family="sans-serif" font-size="16">Nodes, total: 511136</text>
  <path d="M 200,300 L 0.0,150.0 A 150,150 0 0 1 2.6,150.0 Z" fill="BurlyWood" stroke="black" stroke-width="1"/>
  <rect x="370" y="50" width="20" height="30" fill="BurlyWood" stroke="black" stroke-width="1"/>
  <text x="400" y="38" font-family="sans-serif" font-size="16">AIX (ppc) (602)</text>
  <path d="M 200,300 L 2.6,150.0 A 150,150 0 0 1 16.2,149.8 Z" fill="CadetBlue" stroke="black" stroke-width="1"/>
  <rect x="370" y="51" width="20" height="30" fill="CadetBlue" stroke="black" stroke-width="1"/>
  <text x="400" y="68" font-family="sans-serif" font-size="16">AIX (ppc64) (3167)</text>
  <path d="M 200,300 L 16.2,149.8 A 150,150 0 0 1 16.2,149.8 Z" fill="red" stroke="black" stroke-width="1"/>
  <rect x="370" y="52" width="20" height="30" fill="red" stroke="black" stroke-width="1"/>
  <text x="400" y="98" font-family="sans-serif" font-size="16">CloudByte (amd64) (1)</text>
  <path d="M 200,300 L 16.2,149.8 A 150,150 0 0 1 18.7,149.8 Z" fill="blue" stroke="black" stroke-width="1"/>
  <rect x="370" y="53" width="20" height="30" fill="blue" stroke="black" stroke-width="1"/>
  <text x="400" y="128" font-family="sans-serif" font-size="16">FreeBSD (amd64) (573)</text>
  <path d="M 200,300 L 18.7,149.8 A 150,150 0 0 1 19.3,149.8 Z" fill="yellow" stroke="black" stroke-width="1"/>
  <rect x="370" y="54" width="20" height="30" fill="yellow" stroke="black" stroke-width="1"/>
  <text x="400" y="158" font-family="sans-serif" font-size="16">FreeBSD (i386) (150)</text>
  <path d="M 200,300 L 19.3,149.8 A 150,150 0 0 1 20.7,149.7 Z" fill="green" stroke="black" stroke-width="1"/>
  <rect x="370" y="55" width="20" height="30" fill="green" stroke="black" stroke-width="1"/>
  <text x="400" y="188" font-family="sans-serif" font-size="16">HP-UX (IA64N) (324)</text>
  <path d="M 200,300 L 20.7,149.7 A 150,150 0 0 1 21.1,149.7 Z" fill="gold" stroke="black" stroke-width="1"/>
  <rect x="370" y="56" width="20" height="30" fill="gold" stroke="black" stroke-width="1"/>
  <text x="400" y="218" font-family="sans-serif" font-size="16">HP-UX (IA64W) (98)</text>
  <path d="M 200,300 L 21.1,149.7 A 150,150 0 0 1 21.6,149.7 Z" fill="brown" stroke="black" stroke-width="1"/>
  <rect x="370" y="57" width="20" height="30" fill="brown" stroke="black" stroke-width="1"/>
  <text x="400" y="248" font-family="sans-serif" font-size="16">HP-UX (PA_RISC2.0) (99)</text>
  <path d="M 200,300 L 21.6,149.7 A 150,150 0 0 1 21.6,149.7 Z" fill="Azure" stroke="black" stroke-width="1"/>
  <rect x="370" y="58" width="20" height="30" fill="Azure" stroke="black" stroke-width="1"/>
  <text x="400" y="278" font-family="sans-serif" font-size="16">HP-UX (PA_RISC2.0W) (2)</text>
  <path d="M 200,300 L 21.6,149.7 A 150,150 0 0 1 21.6,149.7 Z" fill="pink" stroke="black" stroke-width="1"/>
  <rect x="370" y="59" width="20" height="30" fill="pink" stroke="black" stroke-width="1"/>
  <text x="400" y="308" font-family="sans-serif" font-size="16">HP-UX (ia64) (9)</text>
  <path d="M 200,300 L 21.6,149.7 A 150,150 0 0 1 22.0,149.7 Z" fill="khaki" stroke="black" stroke-width="1"/>
  <rect x="370" y="60" width="20" height="30" fill="khaki" stroke="black" stroke-width="1"/>
  <text x="400" y="338" font-family="sans-serif" font-size="16">Linux (aarch64) (99)</text>
  <path d="M 200,300 L 22.0,149.7 A 150,150 0 0 1 91.6,-144.8 Z" fill="gray" stroke="black" stroke-width="1"/>
  <rect x="370" y="61" width="20" height="30" fill="gray" stroke="black" stroke-width="1"/>
  <text x="400" y="368" font-family="sans-serif" font-size="16">Linux (amd64) (228904)</text>
  <path d="M 200,300 L 91.6,-144.8 A 150,150 0 0 1 88.8,-145.1 Z" fill="Aqua" stroke="black" stroke-width="1"/>
  <rect x="370" y="62" width="20" height="30" fill="Aqua" stroke="black" stroke-width="1"/>
  <text x="400" y="398" font-family="sans-serif" font-size="16">Linux (arm) (676)</text>
  <path d="M 200,300 L 88.8,-145.1 A 150,150 0 0 1 38.6,-149.1 Z" fill="Aquamarine" stroke="black" stroke-width="1"/>
  <rect x="370" y="63" width="20" height="30" fill="Aquamarine" stroke="black" stroke-width="1"/>
  <text x="400" y="428" font-family="sans-serif" font-size="16">Linux (i386) (11884)</text>
  <path d="M 200,300 L 38.6,-149.1 A 150,150 0 0 1 38.5,-149.1 Z" fill="beige" stroke="black" stroke-width="1"/>
  <rect x="370" y="64" width="20" height="30" fill="beige" stroke="black" stroke-width="1"/>
  <text x="400" y="458" font-family="sans-serif" font-size="16">Linux (ia64) (14)</text>
  <path d="M 200,300 L 38.5,-149.1 A 150,150 0 0 1 38.5,-149.1 Z" fill="blueviolet" stroke="black" stroke-width="1"/>
  <rect x="370" y="65" width="20" height="30" fill="blueviolet" stroke="black" stroke-width="1"/>
  <text x="400" y="488" font-family="sans-serif" font-size="16">Linux (mips) (1)</text>
  <path d="M 200,300 L 38.5,-149.1 A 150,150 0 0 1 38.5,-149.1 Z" fill="Bisque" stroke="black" stroke-width="1"/>
  <rect x="370" y="66" width="20" height="30" fill="Bisque" stroke="black" stroke-width="1"/>
  <text x="400" y="518" font-family="sans-serif" font-size="16">Linux (mips64) (1)</text>
  <path d="M 200,300 L 38.5,-149.1 A 150,150 0 0 1 38.5,-149.1 Z" fill="coral" stroke="black" stroke-width="1"/>
  <rect x="370" y="67" width="20" height="30" fill="coral" stroke="black" stroke-width="1"/>
  <text x="400" y="548" font-family="sans-serif" font-size="16">Linux (mips64el) (1)</text>
  <path d="M 200,300 L 38.5,-149.1 A 150,150 0 0 1 38.3,-149.1 Z" fill="darkblue" stroke="black" stroke-width="1"/>
  <rect x="370" y="68" width="20" height="30" fill="darkblue" stroke="black" stroke-width="1"/>
  <text x="400" y="578" font-family="sans-serif" font-size="16">Linux (ppc) (35)</text>
  <path d="M 200,300 L 38.3,-149.1 A 150,150 0 0 1 37.5,-149.1 Z" fill="crimson" stroke="black" stroke-width="1"/>
  <rect x="370" y="69" width="20" height="30" fill="crimson" stroke="black" stroke-width="1"/>
  <text x="400" y="608" font-family="sans-serif" font-size="16">Linux (ppc64) (196)</text>
  <path d="M 200,300 L 37.5,-149.1 A 150,150 0 0 1 36.5,-149.2 Z" fill="cyan" stroke="black" stroke-width="1"/>
  <rect x="370" y="70" width="20" height="30" fill="cyan" stroke="black" stroke-width="1"/>
  <text x="400" y="638" font-family="sans-serif" font-size="16">Linux (ppc64le) (241)</text>
  <path d="M 200,300 L 36.5,-149.2 A 150,150 0 0 1 36.4,-149.2 Z" fill="darkred" stroke="black" stroke-width="1"/>
  <rect x="370" y="71" width="20" height="30" fill="darkred" stroke="black" stroke-width="1"/>
  <text x="400" y="668" font-family="sans-serif" font-size="16">Linux (s390) (8)</text>
  <path d="M 200,300 L 36.4,-149.2 A 150,150 0 0 1 35.6,-149.2 Z" fill="ivory" stroke="black" stroke-width="1"/>
  <rect x="370" y="72" width="20" height="30" fill="ivory" stroke="black" stroke-width="1"/>
  <text x="400" y="698" font-family="sans-serif" font-size="16">Linux (s390x) (205)</text>
  <path d="M 200,300 L 35.6,-149.2 A 150,150 0 0 1 35.5,-149.2 Z" fill="lime" stroke="black" stroke-width="1"/>
  <rect x="370" y="73" width="20" height="30" fill="lime" stroke="black" stroke-width="1"/>
  <text x="400" y="728" font-family="sans-serif" font-size="16">Linux (sparcv9) (4)</text>
  <path d="M 200,300 L 35.5,-149.2 A 150,150 0 0 1 35.5,-149.2 Z" fill="maroon" stroke="black" stroke-width="1"/>
  <rect x="370" y="74" width="20" height="30" fill="maroon" stroke="black" stroke-width="1"/>
  <text x="400" y="758" font-family="sans-serif" font-size="16">Linux (sw) (2)</text>
  <path d="M 200,300 L 35.5,-149.2 A 150,150 0 0 1 34.9,-149.3 Z" fill="navy" stroke="black" stroke-width="1"/>
  <rect x="370" y="75" width="20" height="30" fill="navy" stroke="black" stroke-width="1"/>
  <text x="400" y="788" font-family="sans-serif" font-size="16">Linux (x86) (137)</text>
  <path d="M 200,300 L 34.9,-149.3 A 150,150 0 0 1 34.9,-149.3 Z" fill="olive" stroke="black" stroke-width="1"/>
  <rect x="370" y="76" width="20" height="30" fill="olive" stroke="black" stroke-width="1"/>
  <text x="400" y="818" font-family="sans-serif" font-size="16">Linux (zArch_64) (2)</text>
  <path d="M 200,300 L 34.9,-149.3 A 150,150 0 0 1 34.9,-149.3 Z" fill="plum" stroke="black" stroke-width="1"/>
  <rect x="370" y="77" width="20" height="30" fill="plum" stroke="black" stroke-width="1"/>
  <text x="400" y="848" font-family="sans-serif" font-size="16">Mac OS X (i386) (6)</text>
  <path d="M 200,300 L 34.9,-149.3 A 150,150 0 0 1 -43.6,-148.8 Z" fill="peru" stroke="black" stroke-width="1"/>
  <rect x="370" y="78" width="20" height="30" fill="peru" stroke="black" stroke-width="1"/>
  <text x="400" y="878" font-family="sans-serif" font-size="16">Mac OS X (x86_64) (18277)</text>
  <path d="M 200,300 L -43.6,-148.8 A 150,150 0 0 1 -347.4,18.2 Z" fill="silver" stroke="black" stroke-width="1"/>
  <rect x="370" y="79" width="20" height="30" fill="silver" stroke="black" stroke-width="1"/>
  <text x="400" y="908" font-family="sans-serif" font-size="16">N/A (127547)</text>
  <path d="M 200,300 L -347.4,18.2 A 150,150 0 0 1 -347.4,18.2 Z" fill="tan" stroke="black" stroke-width="1"/>
  <rect x="370" y="80" width="20" height="30" fill="tan" stroke="black" stroke-width="1"/>
  <text x="400" y="938" font-family="sans-serif" font-size="16">NetBSD (i386) (1)</text>
  <path d="M 200,300 L -347.4,18.2 A 150,150 0 0 1 -347.4,18.2 Z" fill="teal" stroke="black" stroke-width="1"/>
  <rect x="370" y="81" width="20" height="30" fill="teal" stroke="black" stroke-width="1"/>
  <text x="400" y="968" font-family="sans-serif" font-size="16">OS/400 (PowerPC) (2)</text>
  <path d="M 200,300 L -347.4,18.2 A 150,150 0 0 1 -347.4,18.2 Z" fill="violet" stroke="black" stroke-width="1"/>
  <rect x="370" y="82" width="20" height="30" fill="violet" stroke="black" stroke-width="1"/>
  <text x="400" y="998" font-family="sans-serif" font-size="16">OS/400 (ppc) (3)</text>
  <path d="M 200,300 L -347.4,18.2 A 150,150 0 0 1 -347.4,18.2 Z" fill="AliceBlue" stroke="black" stroke-width="1"/>
  <rect x="370" y="83" width="20" height="30" fill="AliceBlue" stroke="black" stroke-width="1"/>
  <text x="400" y="1028" font-family="sans-serif" font-size="16">OS/400 (ppc64) (2)</text>
  <path d="M 200,300 L -347.4,18.2 A 150,150 0 0 1 -347.4,18.3 Z" fill="DarkOliveGreen" stroke="black" stroke-width="1"/>
  <rect x="370" y="84" width="20" height="30" fill="DarkOliveGreen" stroke="black" stroke-width="1"/>
  <text x="400" y="1058" font-family="sans-serif" font-size="16">OpenBSD (amd64) (18)</text>
  <path d="M 200,300 L -347.4,18.3 A 150,150 0 0 1 -347.4,18.3 Z" fill="Indigo" stroke="black" stroke-width="1"/>
  <rect x="370" y="85" width="20" height="30" fill="Indigo" stroke="black" stroke-width="1"/>
  <text x="400" y="1088" font-family="sans-serif" font-size="16">OpenBSD (i386) (1)</text>
  <path d="M 200,300 L -347.4,18.3 A 150,150 0 0 1 -347.1,19.2 Z" fill="MediumPurple" stroke="black" stroke-width="1"/>
  <rect x="370" y="86" width="20" height="30" fill="MediumPurple" stroke="black" stroke-width="1"/>
  <text x="400" y="1118" font-family="sans-serif" font-size="16">SunOS (amd64) (507)</text>
  <path d="M 200,300 L -347.1,19.2 A 150,150 0 0 1 -346.4,21.6 Z" fill="Purple" stroke="black" stroke-width="1"/>
  <rect x="370" y="87" width="20" height="30" fill="Purple" stroke="black" stroke-width="1"/>
  <text x="400" y="1148" font-family="sans-serif" font-size="16">SunOS (sparc) (1287)</text>
  <path d="M 200,300 L -346.4,21.6 A 150,150 0 0 1 -346.0,22.6 Z" fill="AntiqueWhite" stroke="black" stroke-width="1"/>
  <rect x="370" y="88" width="20" height="30" fill="AntiqueWhite" stroke="black" stroke-width="1"/>
  <text x="400" y="1178" font-family="sans-serif" font-size="16">SunOS (sparcv9) (553)</text>
  <path d="M 200,300 L -346.0,22.6 A 150,150 0 0 1 -345.2,24.6 Z" fill="DarkOrange" stroke="black" stroke-width="1"/>
  <rect x="370" y="89" width="20" height="30" fill="DarkOrange" stroke="black" stroke-width="1"/>
  <text x="400" y="1208" font-family="sans-serif" font-size="16">SunOS (x86) (1139)</text>
  <path d="M 200,300 L -345.2,24.6 A 150,150 0 0 1 -345.2,24.7 Z" fill="Ivory" stroke="black" stroke-width="1"/>
  <rect x="370" y="90" width="20" height="30" fill="Ivory" stroke="black" stroke-width="1"/>
  <text x="400" y="1238" font-family="sans-serif" font-size="16">Windows (amd64) (10)</text>
  <path d="M 200,300 L -345.2,24.7 A 150,150 0 0 1 -345.2,24.7 Z" fill="MediumSeaGreen" stroke="black" stroke-width="1"/>
  <rect x="370" y="91" width="20" height="30" fill="MediumSeaGreen" stroke="black" stroke-width="1"/>
  <text x="400" y="1268" font-family="sans-serif" font-size="16">Windows (x86) (2)</text>
  <path d="M 200,300 L -345.2,24.7 A 150,150 0 0 1 -342.7,30.4 Z" fill="Red" stroke="black" stroke-width="1"/>
  <rect x="370" y="92" width="20" height="30" fill="Red" stroke="black" stroke-width="1"/>
  <text x="400" y="1298" font-family="sans-serif" font-size="16">Windows 10 (amd64) (3178)</text>
  <path d="M 200,300 L -342.7,30.4 A 150,150 0 0 1 -339.6,36.3 Z" fill="Aqua" stroke="black" stroke-width="1"/>
  <rect x="370" y="93" width="20" height="30" fill="Aqua" stroke="black" stroke-width="1"/>
  <text x="400" y="1328" font-family="sans-serif" font-size="16">Windows 10 (x86) (3263)</text>
  <path d="M 200,300 L -339.6,36.3 A 150,150 0 0 1 -339.6,36.3 Z" fill="DarkOrchid" stroke="black" stroke-width="1"/>
  <rect x="370" y="94" width="20" height="30" fill="DarkOrchid" stroke="black" stroke-width="1"/>
  <text x="400" y="1358" font-family="sans-serif" font-size="16">Windows 2000 (x86) (5)</text>
  <path d="M 200,300 L -339.6,36.3 A 150,150 0 0 1 -339.2,36.9 Z" fill="Khaki" stroke="black" stroke-width="1"/>
  <rect x="370" y="95" width="20" height="30" fill="Khaki" stroke="black" stroke-width="1"/>
  <text x="400" y="1388" font-family="sans-serif" font-size="16">Windows 2003 (amd64) (351)</text>
  <path d="M 200,300 L -339.2,36.9 A 150,150 0 0 1 -337.0,40.5 Z" fill="MediumSlateBlue" stroke="black" stroke-width="1"/>
  <rect x="370" y="96" width="20" height="30" fill="MediumSlateBlue" stroke="black" stroke-width="1"/>
  <text x="400" y="1418" font-family="sans-serif" font-size="16">Windows 2003 (x86) (1993)</text>
  <path d="M 200,300 L -337.0,40.5 A 150,150 0 0 1 -302.9,75.1 Z" fill="RosyBrown" stroke="black" stroke-width="1"/>
  <rect x="370" y="97" width="20" height="30" fill="RosyBrown" stroke="black" stroke-width="1"/>
  <text x="400" y="1448" font-family="sans-serif" font-size="16">Windows 7 (amd64) (20452)</text>
  <path d="M 200,300 L -302.9,75.1 A 150,150 0 0 1 -239.1,109.5 Z" fill="AquaMarine" stroke="black" stroke-width="1"/>
  <rect x="370" y="98" width="20" height="30" fill="AquaMarine" stroke="black" stroke-width="1"/>
  <text x="400" y="1478" font-family="sans-serif" font-size="16">Windows 7 (x86) (23917)</text>
  <path d="M 200,300 L -239.1,109.5 A 150,150 0 0 1 -236.3,110.6 Z" fill="DarkRed" stroke="black" stroke-width="1"/>
  <rect x="370" y="99" width="20" height="30" fill="DarkRed" stroke="black" stroke-width="1"/>
  <text x="400" y="1508" font-family="sans-serif" font-size="16">Windows 8 (amd64) (888)</text>
  <path d="M 200,300 L -236.3,110.6 A 150,150 0 0 1 -234.2,111.5 Z" fill="Lavender" stroke="black" stroke-width="1"/>
  <rect x="370" y="100" width="20" height="30" fill="Lavender" stroke="black" stroke-width="1"/>
  <text x="400" y="1538" font-family="sans-serif" font-size="16">Windows 8 (x86) (670)</text>
  <path d="M 200,300 L -234.2,111.5 A 150,150 0 0 1 -226.8,114.3 Z" fill="MediumSpringGreen" stroke="black" stroke-width="1"/>
  <rect x="370" y="101" width="20" height="30" fill="MediumSpringGreen" stroke="black" stroke-width="1"/>
  <text x="400" y="1568" font-family="sans-serif" font-size="16">Windows 8.1 (amd64) (2286)</text>
  <path d="M 200,300 L -226.8,114.3 A 150,150 0 0 1 -219.7,116.8 Z" fill="RoyalBlue" stroke="black" stroke-width="1"/>
  <rect x="370" y="102" width="20" height="30" fill="RoyalBlue" stroke="black" stroke-width="1"/>
  <text x="400" y="1598" font-family="sans-serif" font-size="16">Windows 8.1 (x86) (2149)</text>
  <path d="M 200,300 L -219.7,116.8 A 150,150 0 0 1 -217.7,117.4 Z" fill="Azure" stroke="black" stroke-width="1"/>
  <rect x="370" y="103" width="20" height="30" fill="Azure" stroke="black" stroke-width="1"/>
  <text x="400" y="1628" font-family="sans-serif" font-size="16">Windows NT (unknown) (amd64) (570)</text>
  <path d="M 200,300 L -217.7,117.4 A 150,150 0 0 1 -216.6,117.8 Z" fill="DarkSalmon" stroke="black" stroke-width="1"/>
  <rect x="370" y="104" width="20" height="30" fill="DarkSalmon" stroke="black" stroke-width="1"/>
  <text x="400" y="1658" font-family="sans-serif" font-size="16">Windows NT (unknown) (x86) (353)</text>
  <path d="M 200,300 L -216.6,117.8 A 150,150 0 0 1 -216.5,117.8 Z" fill="LavenderBlush" stroke="black" stroke-width="1"/>
  <rect x="370" y="105" width="20" height="30" fill="LavenderBlush" stroke="black" stroke-width="1"/>
  <text x="400" y="1688" font-family="sans-serif" font-size="16">Windows Server 2003 (amd64) (7)</text>
  <path d="M 200,300 L -216.5,117.8 A 150,150 0 0 1 -216.5,117.9 Z" fill="MediumTurquoise" stroke="black" stroke-width="1"/>
  <rect x="370" y="106" width="20" height="30" fill="MediumTurquoise" stroke="black" stroke-width="1"/>
  <text x="400" y="1718" font-family="sans-serif" font-size="16">Windows Server 2003 (x86) (13)</text>
  <path d="M 200,300 L -216.5,117.9 A 150,150 0 0 1 -214.4,118.6 Z" fill="SaddleBrown" stroke="black" stroke-width="1"/>
  <rect x="370" y="107" width="20" height="30" fill="SaddleBrown" stroke="black" stroke-width="1"/>
  <text x="400" y="1748" font-family="sans-serif" font-size="16">Windows Server 2008 (amd64) (606)</text>
  <path d="M 200,300 L -214.4,118.6 A 150,150 0 0 1 -210.4,119.9 Z" fill="Beige" stroke="black" stroke-width="1"/>
  <rect x="370" y="108" width="20" height="30" fill="Beige" stroke="black" stroke-width="1"/>
  <text x="400" y="1778" font-family="sans-serif" font-size="16">Windows Server 2008 (x86) (1171)</text>
  <path d="M 200,300 L -210.4,119.9 A 150,150 0 0 1 -153.7,134.8 Z" fill="DarkSeaGreen" stroke="black" stroke-width="1"/>
  <rect x="370" y="109" width="20" height="30" fill="DarkSeaGreen" stroke="black" stroke-width="1"/>
  <text x="400" y="1808" font-family="sans-serif" font-size="16">Windows Server 2008 R2 (amd64) (15501)</text>
  <path d="M 200,300 L -153.7,134.8 A 150,150 0 0 1 -114.0,141.8 Z" fill="LawnGreen" stroke="black" stroke-width="1"/>
  <rect x="370" y="110" width="20" height="30" fill="LawnGreen" stroke="black" stroke-width="1"/>
  <text x="400" y="1838" font-family="sans-serif" font-size="16">Windows Server 2008 R2 (x86) (9991)</text>
  <path d="M 200,300 L -114.0,141.8 A 150,150 0 0 1 -96.5,144.2 Z" fill="MediumVioletRed" stroke="black" stroke-width="1"/>
  <rect x="370" y="111" width="20" height="30" fill="MediumVioletRed" stroke="black" stroke-width="1"/>
  <text x="400" y="1868" font-family="sans-serif" font-size="16">Windows Server 2012 (amd64) (4261)</text>
  <path d="M 200,300 L -96.5,144.2 A 150,150 0 0 1 -85.7,145.4 Z" fill="Salmon" stroke="black" stroke-width="1"/>
  <rect x="370" y="112" width="20" height="30" fill="Salmon" stroke="black" stroke-width="1"/>
  <text x="400" y="1898" font-family="sans-serif" font-size="16">Windows Server 2012 (x86) (2588)</text>
  <path d="M 200,300 L -85.7,145.4 A 150,150 0 0 1 -41.0,149.0 Z" fill="Bisque" stroke="black" stroke-width="1"/>
  <rect x="370" y="113" width="20" height="30" fill="Bisque" stroke="black" stroke-width="1"/>
  <text x="400" y="1928" font-family="sans-serif" font-size="16">Windows Server 2012 R2 (amd64) (10577)</text>
  <path d="M 200,300 L -41.0,149.0 A 150,150 0 0 1 -8.2,150.0 Z" fill="DarkSlateBlue" stroke="black" stroke-width="1"/>
  <rect x="370" y="114" width="20" height="30" fill="DarkSlateBlue" stroke="black" stroke-width="1"/>
  <text x="400" y="1958" font-family="sans-serif" font-size="16">Windows Server 2012 R2 (x86) (7645)</text>
  <path d="M 200,300 L -8.2,150.0 A 150,150 0 0 1 -8.2,150.0 Z" fill="LemonChiffon" stroke="black" stroke-width="1"/>
  <rect x="370" y="115" width="20" height="30" fill="LemonChiffon" stroke="black" stroke-width="1"/>
  <text x="400" y="1988" font-family="sans-serif" font-size="16">Windows Server 2016 (amd64) (1)</text>
  <path d="M 200,300 L -8.2,150.0 A 150,150 0 0 1 -8.2,150.0 Z" fill="MidnightBlue" stroke="black" stroke-width="1"/>
  <rect x="370" y="116" width="20" height="30" fill="MidnightBlue" stroke="black" stroke-width="1"/>
  <text x="400" y="2018" font-family="sans-serif" font-size="16">Windows Server 2016 Standard (amd64) (1)</text>
  <path d="M 200,300 L -8.2,150.0 A 150,150 0 0 1 -8.2,150.0 Z" fill="SandyBrown" stroke="black" stroke-width="1"/>
  <rect x="370" y="117" width="20" height="30" fill="SandyBrown" stroke="black" stroke-width="1"/>
  <text x="400" y="2048" font-family="sans-serif" font-size="16">Windows Server 2016 Standard Technical Preview 5 (amd64) (1)</text>
  <path d="M 200,300 L -8.2,150.0 A 150,150 0 0 1 -8.1,150.0 Z" fill="Black" stroke="black" stroke-width="1"/>
  <rect x="370" y="118" width="20" height="30" fill="Black" stroke="black" stroke-width="1"/>
  <text x="400" y="2078" font-family="sans-serif" font-size="16">Windows Vista (amd64) (24)</text>
  <path d="M 200,300 L -8.1,150.0 A 150,150 0 0 1 -7.0,150.0 Z" fill="DarkSlateGray" stroke="black" stroke-width="1"/>
  <rect x="370" y="119" width="20" height="30" fill="DarkSlateGray" stroke="black" stroke-width="1"/>
  <text x="400" y="2108" font-family="sans-serif" font-size="16">Windows Vista (x86) (268)</text>
  <path d="M 200,300 L -7.0,150.0 A 150,150 0 0 1 -6.8,150.0 Z" fill="LightBlue" stroke="black" stroke-width="1"/>
  <rect x="370" y="120" width="20" height="30" fill="LightBlue" stroke="black" stroke-width="1"/>
  <text x="400" y="2138" font-family="sans-serif" font-size="16">Windows XP (amd64) (30)</text>
  <path d="M 200,300 L -6.8,150.0 A 150,150 0 0 1 -0.1,150.0 Z" fill="MintCream" stroke="black" stroke-width="1"/>
  <rect x="370" y="121" width="20" height="30" fill="MintCream" stroke="black" stroke-width="1"/>
  <text x="400" y="2168" font-family="sans-serif" font-size="16">Windows XP (x86) (1555)</text>
  <path d="M 200,300 L -0.1,150.0 A 150,150 0 0 1 -0.1,150.0 Z" fill="SeaGreen" stroke="black" stroke-width="1"/>
  <rect x="370" y="122" width="20" height="30" fill="SeaGreen" stroke="black" stroke-width="1"/>
  <text x="400" y="2198" font-family="sans-serif" font-size="16">z/OS (s390) (5)</text>
  <path d="M 200,300 L -0.1,150.0 A 150,150 0 0 1 0.0,150.0 Z" fill="BlanchedAlmond" stroke="black" stroke-width="1"/>
  <rect x="370" y="123" width="20" height="30" fill="BlanchedAlmond" stroke="black" stroke-width="1"/>
  <text x="400" y="2228" font-family="sans-serif" font-size="16">z/OS (s390x) (26)</text>
</svg>
