<svg xmlns="http://www.w3.org/2000/svg" version="1.1" preserveAspectRatio="xMidYMid meet" viewBox="0 0 1235 21749.3">
  <rect fill="blue" height="0.1" stroke="black" width="12" x="15" y="21449.2"/>
  <text x="15" y="21454.3" font-family="Tahoma" font-size="12" transform="rotate(90 15,21454.3)" text-rendering="optimizeSpeed" fill="#000000">CloudByte (amd64) (1)</text>
  <rect fill="blue" height="0.1" stroke="black" width="12" x="30" y="21449.2"/>
  <text x="30" y="21454.3" font-family="Tahoma" font-size="12" transform="rotate(90 30,21454.3)" text-rendering="optimizeSpeed" fill="#000000">DragonFlyBSD (amd64) (1)</text>
  <rect fill="blue" height="0.1" stroke="black" width="12" x="45" y="21449.2"/>
  <text x="45" y="21454.3" font-family="Tahoma" font-size="12" transform="rotate(90 45,21454.3)" text-rendering="optimizeSpeed" fill="#000000">GNU/kFreeBSD (amd64) (1)</text>
  <rect fill="blue" height="0.1" stroke="black" width="12" x="60" y="21449.2"/>
  <text x="60" y="21454.3" font-family="Tahoma" font-size="12" transform="rotate(90 60,21454.3)" text-rendering="optimizeSpeed" fill="#000000">Haiku (i386) (1)</text>
  <rect fill="blue" height="0.1" stroke="black" width="12" x="75" y="21449.2"/>
  <text x="75" y="21454.3" font-family="Tahoma" font-size="12" transform="rotate(90 75,21454.3)" text-rendering="optimizeSpeed" fill="#000000">Linux (mips) (1)</text>
  <rect fill="blue" height="0.1" stroke="black" width="12" x="90" y="21449.2"/>
  <text x="90" y="21454.3" font-family="Tahoma" font-size="12" transform="rotate(90 90,21454.3)" text-rendering="optimizeSpeed" fill="#000000">Linux (mips64) (1)</text>
  <rect fill="blue" height="0.1" stroke="black" width="12" x="105" y="21449.2"/>
  <text x="105" y="21454.3" font-family="Tahoma" font-size="12" transform="rotate(90 105,21454.3)" text-rendering="optimizeSpeed" fill="#000000">Linux (mips64el) (1)</text>
  <rect fill="blue" height="0.1" stroke="black" width="12" x="120" y="21449.2"/>
  <text x="120" y="21454.3" font-family="Tahoma" font-size="12" transform="rotate(90 120,21454.3)" text-rendering="optimizeSpeed" fill="#000000">Linux (zArch_64) (1)</text>
  <rect fill="blue" height="0.1" stroke="black" width="12" x="135" y="21449.2"/>
  <text x="135" y="21454.3" font-family="Tahoma" font-size="12" transform="rotate(90 135,21454.3)" text-rendering="optimizeSpeed" fill="#000000">Mac OS X (amd64) (1)</text>
  <rect fill="blue" height="0.1" stroke="black" width="12" x="150" y="21449.2"/>
  <text x="150" y="21454.3" font-family="Tahoma" font-size="12" transform="rotate(90 150,21454.3)" text-rendering="optimizeSpeed" fill="#000000">Mac OS X (ppc) (1)</text>
  <rect fill="blue" height="0.1" stroke="black" width="12" x="165" y="21449.2"/>
  <text x="165" y="21454.3" font-family="Tahoma" font-size="12" transform="rotate(90 165,21454.3)" text-rendering="optimizeSpeed" fill="#000000">NONSTOP_KERNEL (IA64N) (1)</text>
  <rect fill="blue" height="0.1" stroke="black" width="12" x="180" y="21449.2"/>
  <text x="180" y="21454.3" font-family="Tahoma" font-size="12" transform="rotate(90 180,21454.3)" text-rendering="optimizeSpeed" fill="#000000">NetBSD (i386) (1)</text>
  <rect fill="blue" height="0.1" stroke="black" width="12" x="195" y="21449.2"/>
  <text x="195" y="21454.3" font-family="Tahoma" font-size="12" transform="rotate(90 195,21454.3)" text-rendering="optimizeSpeed" fill="#000000">NetBSD (sparcv9) (1)</text>
  <rect fill="blue" height="0.1" stroke="black" width="12" x="210" y="21449.2"/>
  <text x="210" y="21454.3" font-family="Tahoma" font-size="12" transform="rotate(90 210,21454.3)" text-rendering="optimizeSpeed" fill="#000000">Windows NT (x86) (1)</text>
  <rect fill="blue" height="0.1" stroke="black" width="12" x="225" y="21449.2"/>
  <text x="225" y="21454.3" font-family="Tahoma" font-size="12" transform="rotate(90 225,21454.3)" text-rendering="optimizeSpeed" fill="#000000">Windows Server 2016 Standard Technical Preview 5 (amd64) (1)</text>
  <rect fill="blue" height="0.2" stroke="black" width="12" x="240" y="21449.1"/>
  <text x="240" y="21454.3" font-family="Tahoma" font-size="12" transform="rotate(90 240,21454.3)" text-rendering="optimizeSpeed" fill="#000000">HP-UX (PA_RISC2.0W) (2)</text>
  <rect fill="blue" height="0.2" stroke="black" width="12" x="255" y="21449.1"/>
  <text x="255" y="21454.3" font-family="Tahoma" font-size="12" transform="rotate(90 255,21454.3)" text-rendering="optimizeSpeed" fill="#000000">OS/400 (PowerPC) (2)</text>
  <rect fill="blue" height="0.2" stroke="black" width="12" x="270" y="21449.1"/>
  <text x="270" y="21454.3" font-family="Tahoma" font-size="12" transform="rotate(90 270,21454.3)" text-rendering="optimizeSpeed" fill="#000000">Windows (x86) (2)</text>
  <rect fill="blue" height="0.3" stroke="black" width="12" x="285" y="21449.0"/>
  <text x="285" y="21454.3" font-family="Tahoma" font-size="12" transform="rotate(90 285,21454.3)" text-rendering="optimizeSpeed" fill="#000000">OS/400 (ppc) (3)</text>
  <rect fill="blue" height="0.4" stroke="black" width="12" x="300" y="21448.9"/>
  <text x="300" y="21454.3" font-family="Tahoma" font-size="12" transform="rotate(90 300,21454.3)" text-rendering="optimizeSpeed" fill="#000000">Linux (sparcv9) (4)</text>
  <rect fill="blue" height="0.4" stroke="black" width="12" x="315" y="21448.9"/>
  <text x="315" y="21454.3" font-family="Tahoma" font-size="12" transform="rotate(90 315,21454.3)" text-rendering="optimizeSpeed" fill="#000000">Mac OS X (i386) (4)</text>
  <rect fill="blue" height="0.4" stroke="black" width="12" x="330" y="21448.9"/>
  <text x="330" y="21454.3" font-family="Tahoma" font-size="12" transform="rotate(90 330,21454.3)" text-rendering="optimizeSpeed" fill="#000000">NetBSD (amd64) (4)</text>
  <rect fill="blue" height="0.4" stroke="black" width="12" x="345" y="21448.9"/>
  <text x="345" y="21454.3" font-family="Tahoma" font-size="12" transform="rotate(90 345,21454.3)" text-rendering="optimizeSpeed" fill="#000000">OpenBSD (i386) (4)</text>
  <rect fill="blue" height="0.5" stroke="black" width="12" x="360" y="21448.8"/>
  <text x="360" y="21454.3" font-family="Tahoma" font-size="12" transform="rotate(90 360,21454.3)" text-rendering="optimizeSpeed" fill="#000000">z/OS (s390) (5)</text>
  <rect fill="blue" height="0.8" stroke="black" width="12" x="375" y="21448.5"/>
  <text x="375" y="21454.3" font-family="Tahoma" font-size="12" transform="rotate(90 375,21454.3)" text-rendering="optimizeSpeed" fill="#000000">HP-UX (ia64) (8)</text>
  <rect fill="blue" height="0.8" stroke="black" width="12" x="390" y="21448.5"/>
  <text x="390" y="21454.3" font-family="Tahoma" font-size="12" transform="rotate(90 390,21454.3)" text-rendering="optimizeSpeed" fill="#000000">Windows 2000 (x86) (8)</text>
  <rect fill="blue" height="0.9" stroke="black" width="12" x="405" y="21448.4"/>
  <text x="405" y="21454.3" font-family="Tahoma" font-size="12" transform="rotate(90 405,21454.3)" text-rendering="optimizeSpeed" fill="#000000">z/OS (s390x) (9)</text>
  <rect fill="blue" height="1.0" stroke="black" width="12" x="420" y="21448.3"/>
  <text x="420" y="21454.3" font-family="Tahoma" font-size="12" transform="rotate(90 420,21454.3)" text-rendering="optimizeSpeed" fill="#000000">Windows Server 2003 (amd64) (10)</text>
  <rect fill="blue" height="1.1" stroke="black" width="12" x="435" y="21448.2"/>
  <text x="435" y="21454.3" font-family="Tahoma" font-size="12" transform="rotate(90 435,21454.3)" text-rendering="optimizeSpeed" fill="#000000">Windows Server 2003 (x86) (11)</text>
  <rect fill="blue" height="1.2" stroke="black" width="12" x="450" y="21448.1"/>
  <text x="450" y="21454.3" font-family="Tahoma" font-size="12" transform="rotate(90 450,21454.3)" text-rendering="optimizeSpeed" fill="#000000">Linux (s390) (12)</text>
  <rect fill="blue" height="1.3" stroke="black" width="12" x="465" y="21448.0"/>
  <text x="465" y="21454.3" font-family="Tahoma" font-size="12" transform="rotate(90 465,21454.3)" text-rendering="optimizeSpeed" fill="#000000">Linux (ia64) (13)</text>
  <rect fill="blue" height="1.3" stroke="black" width="12" x="480" y="21448.0"/>
  <text x="480" y="21454.3" font-family="Tahoma" font-size="12" transform="rotate(90 480,21454.3)" text-rendering="optimizeSpeed" fill="#000000">Windows (amd64) (13)</text>
  <rect fill="blue" height="1.8" stroke="black" width="12" x="495" y="21447.5"/>
  <text x="495" y="21454.3" font-family="Tahoma" font-size="12" transform="rotate(90 495,21454.3)" text-rendering="optimizeSpeed" fill="#000000">OpenBSD (amd64) (18)</text>
  <rect fill="blue" height="3.0" stroke="black" width="12" x="510" y="21446.3"/>
  <text x="510" y="21454.3" font-family="Tahoma" font-size="12" transform="rotate(90 510,21454.3)" text-rendering="optimizeSpeed" fill="#000000">Linux (ppc) (30)</text>
  <rect fill="blue" height="3.1" stroke="black" width="12" x="525" y="21446.2"/>
  <text x="525" y="21454.3" font-family="Tahoma" font-size="12" transform="rotate(90 525,21454.3)" text-rendering="optimizeSpeed" fill="#000000">Windows XP (amd64) (31)</text>
  <rect fill="blue" height="3.5" stroke="black" width="12" x="540" y="21445.8"/>
  <text x="540" y="21454.3" font-family="Tahoma" font-size="12" transform="rotate(90 540,21454.3)" text-rendering="optimizeSpeed" fill="#000000">Windows Vista (amd64) (35)</text>
  <rect fill="blue" height="6.4" stroke="black" width="12" x="555" y="21442.9"/>
  <text x="555" y="21454.3" font-family="Tahoma" font-size="12" transform="rotate(90 555,21454.3)" text-rendering="optimizeSpeed" fill="#000000">Linux (aarch64) (64)</text>
  <rect fill="blue" height="9.4" stroke="black" width="12" x="570" y="21439.9"/>
  <text x="570" y="21454.3" font-family="Tahoma" font-size="12" transform="rotate(90 570,21454.3)" text-rendering="optimizeSpeed" fill="#000000">HP-UX (PA_RISC2.0) (94)</text>
  <rect fill="blue" height="10.1" stroke="black" width="12" x="585" y="21439.2"/>
  <text x="585" y="21454.3" font-family="Tahoma" font-size="12" transform="rotate(90 585,21454.3)" text-rendering="optimizeSpeed" fill="#000000">HP-UX (IA64W) (101)</text>
  <rect fill="blue" height="15.9" stroke="black" width="12" x="600" y="21433.4"/>
  <text x="600" y="21454.3" font-family="Tahoma" font-size="12" transform="rotate(90 600,21454.3)" text-rendering="optimizeSpeed" fill="#000000">Linux (x86) (159)</text>
  <rect fill="blue" height="17.4" stroke="black" width="12" x="615" y="21431.9"/>
  <text x="615" y="21454.3" font-family="Tahoma" font-size="12" transform="rotate(90 615,21454.3)" text-rendering="optimizeSpeed" fill="#000000">Linux (ppc64le) (174)</text>
  <rect fill="blue" height="17.7" stroke="black" width="12" x="630" y="21431.6"/>
  <text x="630" y="21454.3" font-family="Tahoma" font-size="12" transform="rotate(90 630,21454.3)" text-rendering="optimizeSpeed" fill="#000000">Linux (s390x) (177)</text>
  <rect fill="blue" height="22.3" stroke="black" width="12" x="645" y="21427.0"/>
  <text x="645" y="21454.3" font-family="Tahoma" font-size="12" transform="rotate(90 645,21454.3)" text-rendering="optimizeSpeed" fill="#000000">Linux (ppc64) (223)</text>
  <rect fill="blue" height="23.4" stroke="black" width="12" x="660" y="21425.9"/>
  <text x="660" y="21454.3" font-family="Tahoma" font-size="12" transform="rotate(90 660,21454.3)" text-rendering="optimizeSpeed" fill="#000000">FreeBSD (i386) (234)</text>
  <rect fill="blue" height="23.4" stroke="black" width="12" x="675" y="21425.9"/>
  <text x="675" y="21454.3" font-family="Tahoma" font-size="12" transform="rotate(90 675,21454.3)" text-rendering="optimizeSpeed" fill="#000000">Windows NT (unknown) (x86) (234)</text>
  <rect fill="blue" height="29.7" stroke="black" width="12" x="690" y="21419.6"/>
  <text x="690" y="21454.3" font-family="Tahoma" font-size="12" transform="rotate(90 690,21454.3)" text-rendering="optimizeSpeed" fill="#000000">Windows NT (unknown) (amd64) (297)</text>
  <rect fill="blue" height="31.1" stroke="black" width="12" x="705" y="21418.2"/>
  <text x="705" y="21454.3" font-family="Tahoma" font-size="12" transform="rotate(90 705,21454.3)" text-rendering="optimizeSpeed" fill="#000000">HP-UX (IA64N) (311)</text>
  <rect fill="blue" height="33.4" stroke="black" width="12" x="720" y="21415.9"/>
  <text x="720" y="21454.3" font-family="Tahoma" font-size="12" transform="rotate(90 720,21454.3)" text-rendering="optimizeSpeed" fill="#000000">Windows Vista (x86) (334)</text>
  <rect fill="blue" height="36.6" stroke="black" width="12" x="735" y="21412.7"/>
  <text x="735" y="21454.3" font-family="Tahoma" font-size="12" transform="rotate(90 735,21454.3)" text-rendering="optimizeSpeed" fill="#000000">Windows 2003 (amd64) (366)</text>
  <rect fill="blue" height="45.0" stroke="black" width="12" x="750" y="21404.3"/>
  <text x="750" y="21454.3" font-family="Tahoma" font-size="12" transform="rotate(90 750,21454.3)" text-rendering="optimizeSpeed" fill="#000000">SunOS (sparcv9) (450)</text>
  <rect fill="blue" height="51.9" stroke="black" width="12" x="765" y="21397.4"/>
  <text x="765" y="21454.3" font-family="Tahoma" font-size="12" transform="rotate(90 765,21454.3)" text-rendering="optimizeSpeed" fill="#000000">SunOS (amd64) (519)</text>
  <rect fill="blue" height="53.5" stroke="black" width="12" x="780" y="21395.8"/>
  <text x="780" y="21454.3" font-family="Tahoma" font-size="12" transform="rotate(90 780,21454.3)" text-rendering="optimizeSpeed" fill="#000000">FreeBSD (amd64) (535)</text>
  <rect fill="blue" height="55.7" stroke="black" width="12" x="795" y="21393.6"/>
  <text x="795" y="21454.3" font-family="Tahoma" font-size="12" transform="rotate(90 795,21454.3)" text-rendering="optimizeSpeed" fill="#000000">Linux (arm) (557)</text>
  <rect fill="blue" height="60.5" stroke="black" width="12" x="810" y="21388.8"/>
  <text x="810" y="21454.3" font-family="Tahoma" font-size="12" transform="rotate(90 810,21454.3)" text-rendering="optimizeSpeed" fill="#000000">AIX (ppc) (605)</text>
  <rect fill="blue" height="60.6" stroke="black" width="12" x="825" y="21388.7"/>
  <text x="825" y="21454.3" font-family="Tahoma" font-size="12" transform="rotate(90 825,21454.3)" text-rendering="optimizeSpeed" fill="#000000">Windows Server 2008 (amd64) (606)</text>
  <rect fill="blue" height="71.2" stroke="black" width="12" x="840" y="21378.1"/>
  <text x="840" y="21454.3" font-family="Tahoma" font-size="12" transform="rotate(90 840,21454.3)" text-rendering="optimizeSpeed" fill="#000000">Windows 8 (x86) (712)</text>
  <rect fill="blue" height="74.7" stroke="black" width="12" x="855" y="21374.6"/>
  <text x="855" y="21454.3" font-family="Tahoma" font-size="12" transform="rotate(90 855,21454.3)" text-rendering="optimizeSpeed" fill="#000000">Windows 8 (amd64) (747)</text>
  <rect fill="blue" height="117.6" stroke="black" width="12" x="870" y="21331.7"/>
  <text x="870" y="21454.3" font-family="Tahoma" font-size="12" transform="rotate(90 870,21454.3)" text-rendering="optimizeSpeed" fill="#000000">Windows Server 2008 (x86) (1176)</text>
  <rect fill="blue" height="118.5" stroke="black" width="12" x="885" y="21330.8"/>
  <text x="885" y="21454.3" font-family="Tahoma" font-size="12" transform="rotate(90 885,21454.3)" text-rendering="optimizeSpeed" fill="#000000">SunOS (x86) (1185)</text>
  <rect fill="blue" height="135.7" stroke="black" width="12" x="900" y="21313.6"/>
  <text x="900" y="21454.3" font-family="Tahoma" font-size="12" transform="rotate(90 900,21454.3)" text-rendering="optimizeSpeed" fill="#000000">SunOS (sparc) (1357)</text>
  <rect fill="blue" height="145.6" stroke="black" width="12" x="915" y="21303.7"/>
  <text x="915" y="21454.3" font-family="Tahoma" font-size="12" transform="rotate(90 915,21454.3)" text-rendering="optimizeSpeed" fill="#000000">AIX (ppc64) (1456)</text>
  <rect fill="blue" height="178.3" stroke="black" width="12" x="930" y="21271.0"/>
  <text x="930" y="21454.3" font-family="Tahoma" font-size="12" transform="rotate(90 930,21454.3)" text-rendering="optimizeSpeed" fill="#000000">Windows XP (x86) (1783)</text>
  <rect fill="blue" height="208.8" stroke="black" width="12" x="945" y="21240.5"/>
  <text x="945" y="21454.3" font-family="Tahoma" font-size="12" transform="rotate(90 945,21454.3)" text-rendering="optimizeSpeed" fill="#000000">Windows 8.1 (amd64) (2088)</text>
  <rect fill="blue" height="213.7" stroke="black" width="12" x="960" y="21235.6"/>
  <text x="960" y="21454.3" font-family="Tahoma" font-size="12" transform="rotate(90 960,21454.3)" text-rendering="optimizeSpeed" fill="#000000">Windows 10 (amd64) (2137)</text>
  <rect fill="blue" height="226.0" stroke="black" width="12" x="975" y="21223.3"/>
  <text x="975" y="21454.3" font-family="Tahoma" font-size="12" transform="rotate(90 975,21454.3)" text-rendering="optimizeSpeed" fill="#000000">Windows 8.1 (x86) (2260)</text>
  <rect fill="blue" height="227.3" stroke="black" width="12" x="990" y="21222.0"/>
  <text x="990" y="21454.3" font-family="Tahoma" font-size="12" transform="rotate(90 990,21454.3)" text-rendering="optimizeSpeed" fill="#000000">Windows 2003 (x86) (2273)</text>
  <rect fill="blue" height="261.7" stroke="black" width="12" x="1005" y="21187.6"/>
  <text x="1005" y="21454.3" font-family="Tahoma" font-size="12" transform="rotate(90 1005,21454.3)" text-rendering="optimizeSpeed" fill="#000000">Windows Server 2012 (x86) (2617)</text>
  <rect fill="blue" height="275.9" stroke="black" width="12" x="1020" y="21173.4"/>
  <text x="1020" y="21454.3" font-family="Tahoma" font-size="12" transform="rotate(90 1020,21454.3)" text-rendering="optimizeSpeed" fill="#000000">Windows 10 (x86) (2759)</text>
  <rect fill="blue" height="437.0" stroke="black" width="12" x="1035" y="21012.3"/>
  <text x="1035" y="21454.3" font-family="Tahoma" font-size="12" transform="rotate(90 1035,21454.3)" text-rendering="optimizeSpeed" fill="#000000">Windows Server 2012 (amd64) (4370)</text>
  <rect fill="blue" height="687.1" stroke="black" width="12" x="1050" y="20762.2"/>
  <text x="1050" y="21454.3" font-family="Tahoma" font-size="12" transform="rotate(90 1050,21454.3)" text-rendering="optimizeSpeed" fill="#000000">Windows Server 2012 R2 (x86) (6871)</text>
  <rect fill="blue" height="880.4" stroke="black" width="12" x="1065" y="20568.9"/>
  <text x="1065" y="21454.3" font-family="Tahoma" font-size="12" transform="rotate(90 1065,21454.3)" text-rendering="optimizeSpeed" fill="#000000">Windows Server 2012 R2 (amd64) (8804)</text>
  <rect fill="blue" height="1055.3" stroke="black" width="12" x="1080" y="20394.0"/>
  <text x="1080" y="21454.3" font-family="Tahoma" font-size="12" transform="rotate(90 1080,21454.3)" text-rendering="optimizeSpeed" fill="#000000">Windows Server 2008 R2 (x86) (10553)</text>
  <rect fill="blue" height="1267.0" stroke="black" width="12" x="1095" y="20182.3"/>
  <text x="1095" y="21454.3" font-family="Tahoma" font-size="12" transform="rotate(90 1095,21454.3)" text-rendering="optimizeSpeed" fill="#000000">Linux (i386) (12670)</text>
  <rect fill="blue" height="1508.4" stroke="black" width="12" x="1110" y="19940.9"/>
  <text x="1110" y="21454.3" font-family="Tahoma" font-size="12" transform="rotate(90 1110,21454.3)" text-rendering="optimizeSpeed" fill="#000000">Windows Server 2008 R2 (amd64) (15084)</text>
  <rect fill="blue" height="1758.6" stroke="black" width="12" x="1125" y="19690.7"/>
  <text x="1125" y="21454.3" font-family="Tahoma" font-size="12" transform="rotate(90 1125,21454.3)" text-rendering="optimizeSpeed" fill="#000000">Mac OS X (x86_64) (17586)</text>
  <rect fill="blue" height="2004.7" stroke="black" width="12" x="1140" y="19444.6"/>
  <text x="1140" y="21454.3" font-family="Tahoma" font-size="12" transform="rotate(90 1140,21454.3)" text-rendering="optimizeSpeed" fill="#000000">Windows 7 (amd64) (20047)</text>
  <rect fill="blue" height="2445.4" stroke="black" width="12" x="1155" y="19003.9"/>
  <text x="1155" y="21454.3" font-family="Tahoma" font-size="12" transform="rotate(90 1155,21454.3)" text-rendering="optimizeSpeed" fill="#000000">Windows 7 (x86) (24454)</text>
  <rect fill="blue" height="12718.5" stroke="black" width="12" x="1170" y="8730.8"/>
  <text x="1170" y="21454.3" font-family="Tahoma" font-size="12" transform="rotate(90 1170,21454.3)" text-rendering="optimizeSpeed" fill="#000000">N/A (127185)</text>
  <rect fill="blue" height="21399.3" stroke="black" width="12" x="1185" y="50.0"/>
  <text x="1185" y="21454.3" font-family="Tahoma" font-size="12" transform="rotate(90 1185,21454.3)" text-rendering="optimizeSpeed" fill="#000000">Linux (amd64) (213993)</text>
  <text x="10" y="40" font-family="Tahoma" font-size="20" text-rendering="optimizeSpeed" fill="#000000">Nodes (total: 490450)</text>
</svg>
