<svg xmlns="http://www.w3.org/2000/svg" version="1.1" preserveAspectRatio="xMidYMid meet" viewBox="0 0 1115 22112.5">
  <rect fill="blue" height="0.1" stroke="black" width="12" x="15" y="21812.4"/>
  <text x="15" y="21817.5" font-family="Tahoma" font-size="12" transform="rotate(90 15,21817.5)" text-rendering="optimizeSpeed" fill="#000000">CloudByte (amd64) (1)</text>
  <rect fill="blue" height="0.1" stroke="black" width="12" x="30" y="21812.4"/>
  <text x="30" y="21817.5" font-family="Tahoma" font-size="12" transform="rotate(90 30,21817.5)" text-rendering="optimizeSpeed" fill="#000000">HP-UX (PA_RISC2.0W) (1)</text>
  <rect fill="blue" height="0.1" stroke="black" width="12" x="45" y="21812.4"/>
  <text x="45" y="21817.5" font-family="Tahoma" font-size="12" transform="rotate(90 45,21817.5)" text-rendering="optimizeSpeed" fill="#000000">Haiku (i386) (1)</text>
  <rect fill="blue" height="0.1" stroke="black" width="12" x="60" y="21812.4"/>
  <text x="60" y="21817.5" font-family="Tahoma" font-size="12" transform="rotate(90 60,21817.5)" text-rendering="optimizeSpeed" fill="#000000">Linux (mips64) (1)</text>
  <rect fill="blue" height="0.1" stroke="black" width="12" x="75" y="21812.4"/>
  <text x="75" y="21817.5" font-family="Tahoma" font-size="12" transform="rotate(90 75,21817.5)" text-rendering="optimizeSpeed" fill="#000000">Linux (zArch_64) (1)</text>
  <rect fill="blue" height="0.1" stroke="black" width="12" x="90" y="21812.4"/>
  <text x="90" y="21817.5" font-family="Tahoma" font-size="12" transform="rotate(90 90,21817.5)" text-rendering="optimizeSpeed" fill="#000000">Windows (x86) (1)</text>
  <rect fill="blue" height="0.2" stroke="black" width="12" x="105" y="21812.3"/>
  <text x="105" y="21817.5" font-family="Tahoma" font-size="12" transform="rotate(90 105,21817.5)" text-rendering="optimizeSpeed" fill="#000000">Linux (sparcv9) (2)</text>
  <rect fill="blue" height="0.2" stroke="black" width="12" x="120" y="21812.3"/>
  <text x="120" y="21817.5" font-family="Tahoma" font-size="12" transform="rotate(90 120,21817.5)" text-rendering="optimizeSpeed" fill="#000000">NetBSD (i386) (2)</text>
  <rect fill="blue" height="0.2" stroke="black" width="12" x="135" y="21812.3"/>
  <text x="135" y="21817.5" font-family="Tahoma" font-size="12" transform="rotate(90 135,21817.5)" text-rendering="optimizeSpeed" fill="#000000">OS/400 (PowerPC) (2)</text>
  <rect fill="blue" height="0.2" stroke="black" width="12" x="150" y="21812.3"/>
  <text x="150" y="21817.5" font-family="Tahoma" font-size="12" transform="rotate(90 150,21817.5)" text-rendering="optimizeSpeed" fill="#000000">OS/400 (ppc) (2)</text>
  <rect fill="blue" height="0.2" stroke="black" width="12" x="165" y="21812.3"/>
  <text x="165" y="21817.5" font-family="Tahoma" font-size="12" transform="rotate(90 165,21817.5)" text-rendering="optimizeSpeed" fill="#000000">OS/400 (ppc64) (2)</text>
  <rect fill="blue" height="0.2" stroke="black" width="12" x="180" y="21812.3"/>
  <text x="180" y="21817.5" font-family="Tahoma" font-size="12" transform="rotate(90 180,21817.5)" text-rendering="optimizeSpeed" fill="#000000">OpenBSD (i386) (2)</text>
  <rect fill="blue" height="0.2" stroke="black" width="12" x="195" y="21812.3"/>
  <text x="195" y="21817.5" font-family="Tahoma" font-size="12" transform="rotate(90 195,21817.5)" text-rendering="optimizeSpeed" fill="#000000">Windows Server 2016 Standard Technical Preview 5 (amd64) (2)</text>
  <rect fill="blue" height="0.3" stroke="black" width="12" x="210" y="21812.2"/>
  <text x="210" y="21817.5" font-family="Tahoma" font-size="12" transform="rotate(90 210,21817.5)" text-rendering="optimizeSpeed" fill="#000000">Mac OS X (i386) (3)</text>
  <rect fill="blue" height="0.3" stroke="black" width="12" x="225" y="21812.2"/>
  <text x="225" y="21817.5" font-family="Tahoma" font-size="12" transform="rotate(90 225,21817.5)" text-rendering="optimizeSpeed" fill="#000000">NONSTOP_KERNEL (IA64N) (3)</text>
  <rect fill="blue" height="0.6" stroke="black" width="12" x="240" y="21811.9"/>
  <text x="240" y="21817.5" font-family="Tahoma" font-size="12" transform="rotate(90 240,21817.5)" text-rendering="optimizeSpeed" fill="#000000">Windows 2000 (x86) (6)</text>
  <rect fill="blue" height="0.7" stroke="black" width="12" x="255" y="21811.8"/>
  <text x="255" y="21817.5" font-family="Tahoma" font-size="12" transform="rotate(90 255,21817.5)" text-rendering="optimizeSpeed" fill="#000000">z/OS (s390) (7)</text>
  <rect fill="blue" height="0.9" stroke="black" width="12" x="270" y="21811.6"/>
  <text x="270" y="21817.5" font-family="Tahoma" font-size="12" transform="rotate(90 270,21817.5)" text-rendering="optimizeSpeed" fill="#000000">HP-UX (ia64) (9)</text>
  <rect fill="blue" height="0.9" stroke="black" width="12" x="285" y="21811.6"/>
  <text x="285" y="21817.5" font-family="Tahoma" font-size="12" transform="rotate(90 285,21817.5)" text-rendering="optimizeSpeed" fill="#000000">Windows (amd64) (9)</text>
  <rect fill="blue" height="0.9" stroke="black" width="12" x="300" y="21811.6"/>
  <text x="300" y="21817.5" font-family="Tahoma" font-size="12" transform="rotate(90 300,21817.5)" text-rendering="optimizeSpeed" fill="#000000">Windows Server 2003 (x86) (9)</text>
  <rect fill="blue" height="1.0" stroke="black" width="12" x="315" y="21811.5"/>
  <text x="315" y="21817.5" font-family="Tahoma" font-size="12" transform="rotate(90 315,21817.5)" text-rendering="optimizeSpeed" fill="#000000">Linux (s390) (10)</text>
  <rect fill="blue" height="1.0" stroke="black" width="12" x="330" y="21811.5"/>
  <text x="330" y="21817.5" font-family="Tahoma" font-size="12" transform="rotate(90 330,21817.5)" text-rendering="optimizeSpeed" fill="#000000">Windows Server 2003 (amd64) (10)</text>
  <rect fill="blue" height="1.4" stroke="black" width="12" x="345" y="21811.1"/>
  <text x="345" y="21817.5" font-family="Tahoma" font-size="12" transform="rotate(90 345,21817.5)" text-rendering="optimizeSpeed" fill="#000000">Linux (ia64) (14)</text>
  <rect fill="blue" height="1.8" stroke="black" width="12" x="360" y="21810.7"/>
  <text x="360" y="21817.5" font-family="Tahoma" font-size="12" transform="rotate(90 360,21817.5)" text-rendering="optimizeSpeed" fill="#000000">OpenBSD (amd64) (18)</text>
  <rect fill="blue" height="3.1" stroke="black" width="12" x="375" y="21809.4"/>
  <text x="375" y="21817.5" font-family="Tahoma" font-size="12" transform="rotate(90 375,21817.5)" text-rendering="optimizeSpeed" fill="#000000">Windows XP (amd64) (31)</text>
  <rect fill="blue" height="4.0" stroke="black" width="12" x="390" y="21808.5"/>
  <text x="390" y="21817.5" font-family="Tahoma" font-size="12" transform="rotate(90 390,21817.5)" text-rendering="optimizeSpeed" fill="#000000">Windows Vista (amd64) (40)</text>
  <rect fill="blue" height="4.2" stroke="black" width="12" x="405" y="21808.3"/>
  <text x="405" y="21817.5" font-family="Tahoma" font-size="12" transform="rotate(90 405,21817.5)" text-rendering="optimizeSpeed" fill="#000000">Linux (ppc) (42)</text>
  <rect fill="blue" height="4.4" stroke="black" width="12" x="420" y="21808.1"/>
  <text x="420" y="21817.5" font-family="Tahoma" font-size="12" transform="rotate(90 420,21817.5)" text-rendering="optimizeSpeed" fill="#000000">z/OS (s390x) (44)</text>
  <rect fill="blue" height="7.0" stroke="black" width="12" x="435" y="21805.5"/>
  <text x="435" y="21817.5" font-family="Tahoma" font-size="12" transform="rotate(90 435,21817.5)" text-rendering="optimizeSpeed" fill="#000000">Linux (aarch64) (70)</text>
  <rect fill="blue" height="9.6" stroke="black" width="12" x="450" y="21802.9"/>
  <text x="450" y="21817.5" font-family="Tahoma" font-size="12" transform="rotate(90 450,21817.5)" text-rendering="optimizeSpeed" fill="#000000">HP-UX (IA64W) (96)</text>
  <rect fill="blue" height="10.2" stroke="black" width="12" x="465" y="21802.3"/>
  <text x="465" y="21817.5" font-family="Tahoma" font-size="12" transform="rotate(90 465,21817.5)" text-rendering="optimizeSpeed" fill="#000000">HP-UX (PA_RISC2.0) (102)</text>
  <rect fill="blue" height="15.3" stroke="black" width="12" x="480" y="21797.2"/>
  <text x="480" y="21817.5" font-family="Tahoma" font-size="12" transform="rotate(90 480,21817.5)" text-rendering="optimizeSpeed" fill="#000000">Linux (ppc64le) (153)</text>
  <rect fill="blue" height="15.9" stroke="black" width="12" x="495" y="21796.6"/>
  <text x="495" y="21817.5" font-family="Tahoma" font-size="12" transform="rotate(90 495,21817.5)" text-rendering="optimizeSpeed" fill="#000000">Linux (x86) (159)</text>
  <rect fill="blue" height="19.0" stroke="black" width="12" x="510" y="21793.5"/>
  <text x="510" y="21817.5" font-family="Tahoma" font-size="12" transform="rotate(90 510,21817.5)" text-rendering="optimizeSpeed" fill="#000000">FreeBSD (i386) (190)</text>
  <rect fill="blue" height="20.1" stroke="black" width="12" x="525" y="21792.4"/>
  <text x="525" y="21817.5" font-family="Tahoma" font-size="12" transform="rotate(90 525,21817.5)" text-rendering="optimizeSpeed" fill="#000000">Linux (s390x) (201)</text>
  <rect fill="blue" height="22.5" stroke="black" width="12" x="540" y="21790.0"/>
  <text x="540" y="21817.5" font-family="Tahoma" font-size="12" transform="rotate(90 540,21817.5)" text-rendering="optimizeSpeed" fill="#000000">Linux (ppc64) (225)</text>
  <rect fill="blue" height="24.4" stroke="black" width="12" x="555" y="21788.1"/>
  <text x="555" y="21817.5" font-family="Tahoma" font-size="12" transform="rotate(90 555,21817.5)" text-rendering="optimizeSpeed" fill="#000000">Windows NT (unknown) (x86) (244)</text>
  <rect fill="blue" height="27.1" stroke="black" width="12" x="570" y="21785.4"/>
  <text x="570" y="21817.5" font-family="Tahoma" font-size="12" transform="rotate(90 570,21817.5)" text-rendering="optimizeSpeed" fill="#000000">Windows NT (unknown) (amd64) (271)</text>
  <rect fill="blue" height="30.5" stroke="black" width="12" x="585" y="21782.0"/>
  <text x="585" y="21817.5" font-family="Tahoma" font-size="12" transform="rotate(90 585,21817.5)" text-rendering="optimizeSpeed" fill="#000000">HP-UX (IA64N) (305)</text>
  <rect fill="blue" height="31.1" stroke="black" width="12" x="600" y="21781.4"/>
  <text x="600" y="21817.5" font-family="Tahoma" font-size="12" transform="rotate(90 600,21817.5)" text-rendering="optimizeSpeed" fill="#000000">Windows Vista (x86) (311)</text>
  <rect fill="blue" height="36.8" stroke="black" width="12" x="615" y="21775.7"/>
  <text x="615" y="21817.5" font-family="Tahoma" font-size="12" transform="rotate(90 615,21817.5)" text-rendering="optimizeSpeed" fill="#000000">Windows 2003 (amd64) (368)</text>
  <rect fill="blue" height="49.6" stroke="black" width="12" x="630" y="21762.9"/>
  <text x="630" y="21817.5" font-family="Tahoma" font-size="12" transform="rotate(90 630,21817.5)" text-rendering="optimizeSpeed" fill="#000000">SunOS (amd64) (496)</text>
  <rect fill="blue" height="50.8" stroke="black" width="12" x="645" y="21761.7"/>
  <text x="645" y="21817.5" font-family="Tahoma" font-size="12" transform="rotate(90 645,21817.5)" text-rendering="optimizeSpeed" fill="#000000">SunOS (sparcv9) (508)</text>
  <rect fill="blue" height="55.5" stroke="black" width="12" x="660" y="21757.0"/>
  <text x="660" y="21817.5" font-family="Tahoma" font-size="12" transform="rotate(90 660,21817.5)" text-rendering="optimizeSpeed" fill="#000000">FreeBSD (amd64) (555)</text>
  <rect fill="blue" height="59.3" stroke="black" width="12" x="675" y="21753.2"/>
  <text x="675" y="21817.5" font-family="Tahoma" font-size="12" transform="rotate(90 675,21817.5)" text-rendering="optimizeSpeed" fill="#000000">Windows Server 2008 (amd64) (593)</text>
  <rect fill="blue" height="60.1" stroke="black" width="12" x="690" y="21752.4"/>
  <text x="690" y="21817.5" font-family="Tahoma" font-size="12" transform="rotate(90 690,21817.5)" text-rendering="optimizeSpeed" fill="#000000">AIX (ppc) (601)</text>
  <rect fill="blue" height="61.2" stroke="black" width="12" x="705" y="21751.3"/>
  <text x="705" y="21817.5" font-family="Tahoma" font-size="12" transform="rotate(90 705,21817.5)" text-rendering="optimizeSpeed" fill="#000000">Linux (arm) (612)</text>
  <rect fill="blue" height="71.8" stroke="black" width="12" x="720" y="21740.7"/>
  <text x="720" y="21817.5" font-family="Tahoma" font-size="12" transform="rotate(90 720,21817.5)" text-rendering="optimizeSpeed" fill="#000000">Windows 8 (x86) (718)</text>
  <rect fill="blue" height="90.6" stroke="black" width="12" x="735" y="21721.9"/>
  <text x="735" y="21817.5" font-family="Tahoma" font-size="12" transform="rotate(90 735,21817.5)" text-rendering="optimizeSpeed" fill="#000000">Windows 8 (amd64) (906)</text>
  <rect fill="blue" height="114.1" stroke="black" width="12" x="750" y="21698.4"/>
  <text x="750" y="21817.5" font-family="Tahoma" font-size="12" transform="rotate(90 750,21817.5)" text-rendering="optimizeSpeed" fill="#000000">SunOS (x86) (1141)</text>
  <rect fill="blue" height="120.9" stroke="black" width="12" x="765" y="21691.6"/>
  <text x="765" y="21817.5" font-family="Tahoma" font-size="12" transform="rotate(90 765,21817.5)" text-rendering="optimizeSpeed" fill="#000000">Windows Server 2008 (x86) (1209)</text>
  <rect fill="blue" height="129.1" stroke="black" width="12" x="780" y="21683.4"/>
  <text x="780" y="21817.5" font-family="Tahoma" font-size="12" transform="rotate(90 780,21817.5)" text-rendering="optimizeSpeed" fill="#000000">SunOS (sparc) (1291)</text>
  <rect fill="blue" height="162.3" stroke="black" width="12" x="795" y="21650.2"/>
  <text x="795" y="21817.5" font-family="Tahoma" font-size="12" transform="rotate(90 795,21817.5)" text-rendering="optimizeSpeed" fill="#000000">AIX (ppc64) (1623)</text>
  <rect fill="blue" height="163.6" stroke="black" width="12" x="810" y="21648.9"/>
  <text x="810" y="21817.5" font-family="Tahoma" font-size="12" transform="rotate(90 810,21817.5)" text-rendering="optimizeSpeed" fill="#000000">Windows XP (x86) (1636)</text>
  <rect fill="blue" height="212.3" stroke="black" width="12" x="825" y="21600.2"/>
  <text x="825" y="21817.5" font-family="Tahoma" font-size="12" transform="rotate(90 825,21817.5)" text-rendering="optimizeSpeed" fill="#000000">Windows 8.1 (x86) (2123)</text>
  <rect fill="blue" height="216.6" stroke="black" width="12" x="840" y="21595.9"/>
  <text x="840" y="21817.5" font-family="Tahoma" font-size="12" transform="rotate(90 840,21817.5)" text-rendering="optimizeSpeed" fill="#000000">Windows 8.1 (amd64) (2166)</text>
  <rect fill="blue" height="222.6" stroke="black" width="12" x="855" y="21589.9"/>
  <text x="855" y="21817.5" font-family="Tahoma" font-size="12" transform="rotate(90 855,21817.5)" text-rendering="optimizeSpeed" fill="#000000">Windows 2003 (x86) (2226)</text>
  <rect fill="blue" height="239.6" stroke="black" width="12" x="870" y="21572.9"/>
  <text x="870" y="21817.5" font-family="Tahoma" font-size="12" transform="rotate(90 870,21817.5)" text-rendering="optimizeSpeed" fill="#000000">Windows 10 (amd64) (2396)</text>
  <rect fill="blue" height="259.7" stroke="black" width="12" x="885" y="21552.8"/>
  <text x="885" y="21817.5" font-family="Tahoma" font-size="12" transform="rotate(90 885,21817.5)" text-rendering="optimizeSpeed" fill="#000000">Windows Server 2012 (x86) (2597)</text>
  <rect fill="blue" height="296.9" stroke="black" width="12" x="900" y="21515.6"/>
  <text x="900" y="21817.5" font-family="Tahoma" font-size="12" transform="rotate(90 900,21817.5)" text-rendering="optimizeSpeed" fill="#000000">Windows 10 (x86) (2969)</text>
  <rect fill="blue" height="438.7" stroke="black" width="12" x="915" y="21373.8"/>
  <text x="915" y="21817.5" font-family="Tahoma" font-size="12" transform="rotate(90 915,21817.5)" text-rendering="optimizeSpeed" fill="#000000">Windows Server 2012 (amd64) (4387)</text>
  <rect fill="blue" height="697.6" stroke="black" width="12" x="930" y="21114.9"/>
  <text x="930" y="21817.5" font-family="Tahoma" font-size="12" transform="rotate(90 930,21817.5)" text-rendering="optimizeSpeed" fill="#000000">Windows Server 2012 R2 (x86) (6976)</text>
  <rect fill="blue" height="954.7" stroke="black" width="12" x="945" y="20857.8"/>
  <text x="945" y="21817.5" font-family="Tahoma" font-size="12" transform="rotate(90 945,21817.5)" text-rendering="optimizeSpeed" fill="#000000">Windows Server 2012 R2 (amd64) (9547)</text>
  <rect fill="blue" height="1029.4" stroke="black" width="12" x="960" y="20783.1"/>
  <text x="960" y="21817.5" font-family="Tahoma" font-size="12" transform="rotate(90 960,21817.5)" text-rendering="optimizeSpeed" fill="#000000">Windows Server 2008 R2 (x86) (10294)</text>
  <rect fill="blue" height="1231.7" stroke="black" width="12" x="975" y="20580.8"/>
  <text x="975" y="21817.5" font-family="Tahoma" font-size="12" transform="rotate(90 975,21817.5)" text-rendering="optimizeSpeed" fill="#000000">Linux (i386) (12317)</text>
  <rect fill="blue" height="1445.1" stroke="black" width="12" x="990" y="20367.4"/>
  <text x="990" y="21817.5" font-family="Tahoma" font-size="12" transform="rotate(90 990,21817.5)" text-rendering="optimizeSpeed" fill="#000000">Windows Server 2008 R2 (amd64) (14451)</text>
  <rect fill="blue" height="1804.5" stroke="black" width="12" x="1005" y="20008.0"/>
  <text x="1005" y="21817.5" font-family="Tahoma" font-size="12" transform="rotate(90 1005,21817.5)" text-rendering="optimizeSpeed" fill="#000000">Mac OS X (x86_64) (18045)</text>
  <rect fill="blue" height="1954.9" stroke="black" width="12" x="1020" y="19857.6"/>
  <text x="1020" y="21817.5" font-family="Tahoma" font-size="12" transform="rotate(90 1020,21817.5)" text-rendering="optimizeSpeed" fill="#000000">Windows 7 (amd64) (19549)</text>
  <rect fill="blue" height="2407.6" stroke="black" width="12" x="1035" y="19404.9"/>
  <text x="1035" y="21817.5" font-family="Tahoma" font-size="12" transform="rotate(90 1035,21817.5)" text-rendering="optimizeSpeed" fill="#000000">Windows 7 (x86) (24076)</text>
  <rect fill="blue" height="12039.3" stroke="black" width="12" x="1050" y="9773.2"/>
  <text x="1050" y="21817.5" font-family="Tahoma" font-size="12" transform="rotate(90 1050,21817.5)" text-rendering="optimizeSpeed" fill="#000000">N/A (120393)</text>
  <rect fill="blue" height="21762.5" stroke="black" width="12" x="1065" y="50.0"/>
  <text x="1065" y="21817.5" font-family="Tahoma" font-size="12" transform="rotate(90 1065,21817.5)" text-rendering="optimizeSpeed" fill="#000000">Linux (amd64) (217625)</text>
  <text x="10" y="40" font-family="Tahoma" font-size="20" text-rendering="optimizeSpeed" fill="#000000">Nodes (total: 486996)</text>
</svg>
