<svg xmlns="http://www.w3.org/2000/svg" version="1.1" preserveAspectRatio="xMidYMid meet" viewBox="0 0 455 8080.1">
  <rect fill="blue" height="0.0" stroke="black" width="12" x="15" y="7780.1"/>
  <text x="15" y="7785.1" font-family="Tahoma" font-size="12" transform="rotate(90 15,7785.1)" text-rendering="optimizeSpeed" fill="#000000">org-jenkinsci-plugins-SyncSources-MonitoringJobsProject (1)</text>
  <rect fill="blue" height="0.0" stroke="black" width="12" x="30" y="7780.1"/>
  <text x="30" y="7785.1" font-family="Tahoma" font-size="12" transform="rotate(90 30,7785.1)" text-rendering="optimizeSpeed" fill="#000000">org-jenkinsci-plugins-SyncSources-PreparationDailyProject (1)</text>
  <rect fill="blue" height="0.0" stroke="black" width="12" x="45" y="7780.1"/>
  <text x="45" y="7785.1" font-family="Tahoma" font-size="12" transform="rotate(90 45,7785.1)" text-rendering="optimizeSpeed" fill="#000000">org-jenkinsci-plugins-performance_receiver-PerformanceProject (1)</text>
  <rect fill="blue" height="0.0" stroke="black" width="12" x="60" y="7780.1"/>
  <text x="60" y="7785.1" font-family="Tahoma" font-size="12" transform="rotate(90 60,7785.1)" text-rendering="optimizeSpeed" fill="#000000">org-jenkinsci-plugins-AutomationTesting-AutomationTestingProject (2)</text>
  <rect fill="blue" height="0.0" stroke="black" width="12" x="75" y="7780.1"/>
  <text x="75" y="7785.1" font-family="Tahoma" font-size="12" transform="rotate(90 75,7785.1)" text-rendering="optimizeSpeed" fill="#000000">org-jenkinsci-plugins-utsnode-UTSNode (2)</text>
  <rect fill="blue" height="0.0" stroke="black" width="12" x="90" y="7780.1"/>
  <text x="90" y="7785.1" font-family="Tahoma" font-size="12" transform="rotate(90 90,7785.1)" text-rendering="optimizeSpeed" fill="#000000">hudson-model-CppProject (6)</text>
  <rect fill="blue" height="0.0" stroke="black" width="12" x="105" y="7780.1"/>
  <text x="105" y="7785.1" font-family="Tahoma" font-size="12" transform="rotate(90 105,7785.1)" text-rendering="optimizeSpeed" fill="#000000">hudson-model-RunOnceProject (7)</text>
  <rect fill="blue" height="0.0" stroke="black" width="12" x="120" y="7780.0"/>
  <text x="120" y="7785.1" font-family="Tahoma" font-size="12" transform="rotate(90 120,7785.1)" text-rendering="optimizeSpeed" fill="#000000">hudson-model-GolangProject (9)</text>
  <rect fill="blue" height="0.0" stroke="black" width="12" x="135" y="7780.0"/>
  <text x="135" y="7785.1" font-family="Tahoma" font-size="12" transform="rotate(90 135,7785.1)" text-rendering="optimizeSpeed" fill="#000000">hudson-plugin-smartjob-SmartJob (10)</text>
  <rect fill="blue" height="0.0" stroke="black" width="12" x="150" y="7780.0"/>
  <text x="150" y="7785.1" font-family="Tahoma" font-size="12" transform="rotate(90 150,7785.1)" text-rendering="optimizeSpeed" fill="#000000">org-jvnet-hudson-test-MockFolder (12)</text>
  <rect fill="blue" height="0.0" stroke="black" width="12" x="165" y="7780.0"/>
  <text x="165" y="7785.1" font-family="Tahoma" font-size="12" transform="rotate(90 165,7785.1)" text-rendering="optimizeSpeed" fill="#000000">org-jenkinsci-plugins-SyncSources-MakeProject (17)</text>
  <rect fill="blue" height="0.0" stroke="black" width="12" x="180" y="7780.0"/>
  <text x="180" y="7785.1" font-family="Tahoma" font-size="12" transform="rotate(90 180,7785.1)" text-rendering="optimizeSpeed" fill="#000000">hudson-model-PhpProject (18)</text>
  <rect fill="blue" height="0.0" stroke="black" width="12" x="195" y="7780.0"/>
  <text x="195" y="7785.1" font-family="Tahoma" font-size="12" transform="rotate(90 195,7785.1)" text-rendering="optimizeSpeed" fill="#000000">org-jenkinsci-plugins-SyncSources-MakeFirProject (18)</text>
  <rect fill="blue" height="0.0" stroke="black" width="12" x="210" y="7780.0"/>
  <text x="210" y="7785.1" font-family="Tahoma" font-size="12" transform="rotate(90 210,7785.1)" text-rendering="optimizeSpeed" fill="#000000">org-jenkinsci-plugins-SyncSources-PreShelveProject (18)</text>
  <rect fill="blue" height="0.0" stroke="black" width="12" x="225" y="7780.0"/>
  <text x="225" y="7785.1" font-family="Tahoma" font-size="12" transform="rotate(90 225,7785.1)" text-rendering="optimizeSpeed" fill="#000000">org-jenkinsci-plugins-drupal-projects-DrupalProject (39)</text>
  <rect fill="blue" height="0.1" stroke="black" width="12" x="240" y="7779.9"/>
  <text x="240" y="7785.1" font-family="Tahoma" font-size="12" transform="rotate(90 240,7785.1)" text-rendering="optimizeSpeed" fill="#000000">hudson-plugins-job_dependency-projects-MasterProject (125)</text>
  <rect fill="blue" height="0.2" stroke="black" width="12" x="255" y="7779.9"/>
  <text x="255" y="7785.1" font-family="Tahoma" font-size="12" transform="rotate(90 255,7785.1)" text-rendering="optimizeSpeed" fill="#000000">org-jenkinsci-plugins-coordinator-model-CoordinatorProject (151)</text>
  <rect fill="blue" height="0.2" stroke="black" width="12" x="270" y="7779.9"/>
  <text x="270" y="7785.1" font-family="Tahoma" font-size="12" transform="rotate(90 270,7785.1)" text-rendering="optimizeSpeed" fill="#000000">org-jenkinsci-plugins-spoontrigger-SpoonProject (156)</text>
  <rect fill="blue" height="2.5" stroke="black" width="12" x="285" y="7777.6"/>
  <text x="285" y="7785.1" font-family="Tahoma" font-size="12" transform="rotate(90 285,7785.1)" text-rendering="optimizeSpeed" fill="#000000">org-jenkinsci-plugins-jobgenerator-JobGenerator (2493)</text>
  <rect fill="blue" height="4.7" stroke="black" width="12" x="300" y="7775.4"/>
  <text x="300" y="7785.1" font-family="Tahoma" font-size="12" transform="rotate(90 300,7785.1)" text-rendering="optimizeSpeed" fill="#000000">hudson-model-ExternalJob (4692)</text>
  <rect fill="blue" height="6.3" stroke="black" width="12" x="315" y="7773.7"/>
  <text x="315" y="7785.1" font-family="Tahoma" font-size="12" transform="rotate(90 315,7785.1)" text-rendering="optimizeSpeed" fill="#000000">hudson-ivy-IvyModuleSet (6311)</text>
  <rect fill="blue" height="17.2" stroke="black" width="12" x="330" y="7762.9"/>
  <text x="330" y="7785.1" font-family="Tahoma" font-size="12" transform="rotate(90 330,7785.1)" text-rendering="optimizeSpeed" fill="#000000">org-jenkinsci-plugins-workflow-multibranch-WorkflowMultiBranchProject (17159)</text>
  <rect fill="blue" height="20.4" stroke="black" width="12" x="345" y="7759.6"/>
  <text x="345" y="7785.1" font-family="Tahoma" font-size="12" transform="rotate(90 345,7785.1)" text-rendering="optimizeSpeed" fill="#000000">hudson-plugins-project_inheritance-projects-InheritanceProject (20407)</text>
  <rect fill="blue" height="139.9" stroke="black" width="12" x="360" y="7640.1"/>
  <text x="360" y="7785.1" font-family="Tahoma" font-size="12" transform="rotate(90 360,7785.1)" text-rendering="optimizeSpeed" fill="#000000">org-jenkinsci-plugins-workflow-job-WorkflowJob (139920)</text>
  <rect fill="blue" height="306.3" stroke="black" width="12" x="375" y="7473.8"/>
  <text x="375" y="7785.1" font-family="Tahoma" font-size="12" transform="rotate(90 375,7785.1)" text-rendering="optimizeSpeed" fill="#000000">hudson-matrix-MatrixProject (306277)</text>
  <rect fill="blue" height="1236.2" stroke="black" width="12" x="390" y="6543.8"/>
  <text x="390" y="7785.1" font-family="Tahoma" font-size="12" transform="rotate(90 390,7785.1)" text-rendering="optimizeSpeed" fill="#000000">hudson-maven-MavenModuleSet (1236226)</text>
  <rect fill="blue" height="7730.1" stroke="black" width="12" x="405" y="50.0"/>
  <text x="405" y="7785.1" font-family="Tahoma" font-size="12" transform="rotate(90 405,7785.1)" text-rendering="optimizeSpeed" fill="#000000">hudson-model-FreeStyleProject (7730057)</text>
  <text x="10" y="40" font-family="Tahoma" font-size="20" text-rendering="optimizeSpeed" fill="#000000">Jobs (total: 9464135)</text>
</svg>
