<svg xmlns="http://www.w3.org/2000/svg" version="1.1" preserveAspectRatio="xMidYMid meet" viewBox="0 0 1190 30859.3">
  <rect fill="blue" height="0.1" stroke="black" width="12" x="15" y="30559.2"/>
  <text x="15" y="30564.3" font-family="Tahoma" font-size="12" transform="rotate(90 15,30564.3)" text-rendering="optimizeSpeed" fill="#000000">CloudByte (amd64) (1)</text>
  <rect fill="blue" height="0.1" stroke="black" width="12" x="30" y="30559.2"/>
  <text x="30" y="30564.3" font-family="Tahoma" font-size="12" transform="rotate(90 30,30564.3)" text-rendering="optimizeSpeed" fill="#000000">Linux (e2k) (1)</text>
  <rect fill="blue" height="0.1" stroke="black" width="12" x="45" y="30559.2"/>
  <text x="45" y="30564.3" font-family="Tahoma" font-size="12" transform="rotate(90 45,30564.3)" text-rendering="optimizeSpeed" fill="#000000">Linux (mips64) (1)</text>
  <rect fill="blue" height="0.1" stroke="black" width="12" x="60" y="30559.2"/>
  <text x="60" y="30564.3" font-family="Tahoma" font-size="12" transform="rotate(90 60,30564.3)" text-rendering="optimizeSpeed" fill="#000000">Linux (zArch_64) (1)</text>
  <rect fill="blue" height="0.1" stroke="black" width="12" x="75" y="30559.2"/>
  <text x="75" y="30564.3" font-family="Tahoma" font-size="12" transform="rotate(90 75,30564.3)" text-rendering="optimizeSpeed" fill="#000000">Windows (x86) (1)</text>
  <rect fill="blue" height="0.2" stroke="black" width="12" x="90" y="30559.1"/>
  <text x="90" y="30564.3" font-family="Tahoma" font-size="12" transform="rotate(90 90,30564.3)" text-rendering="optimizeSpeed" fill="#000000">FreeBSD (aarch64) (2)</text>
  <rect fill="blue" height="0.2" stroke="black" width="12" x="105" y="30559.1"/>
  <text x="105" y="30564.3" font-family="Tahoma" font-size="12" transform="rotate(90 105,30564.3)" text-rendering="optimizeSpeed" fill="#000000">HP-UX (PA_RISC2.0W) (2)</text>
  <rect fill="blue" height="0.2" stroke="black" width="12" x="120" y="30559.1"/>
  <text x="120" y="30564.3" font-family="Tahoma" font-size="12" transform="rotate(90 120,30564.3)" text-rendering="optimizeSpeed" fill="#000000">Linux (mipsel) (2)</text>
  <rect fill="blue" height="0.2" stroke="black" width="12" x="135" y="30559.1"/>
  <text x="135" y="30564.3" font-family="Tahoma" font-size="12" transform="rotate(90 135,30564.3)" text-rendering="optimizeSpeed" fill="#000000">OS/400 (PowerPC) (2)</text>
  <rect fill="blue" height="0.2" stroke="black" width="12" x="150" y="30559.1"/>
  <text x="150" y="30564.3" font-family="Tahoma" font-size="12" transform="rotate(90 150,30564.3)" text-rendering="optimizeSpeed" fill="#000000">Windows Server 2016 Standard (amd64) (2)</text>
  <rect fill="blue" height="0.3" stroke="black" width="12" x="165" y="30559.0"/>
  <text x="165" y="30564.3" font-family="Tahoma" font-size="12" transform="rotate(90 165,30564.3)" text-rendering="optimizeSpeed" fill="#000000">Linux (sparcv9) (3)</text>
  <rect fill="blue" height="0.3" stroke="black" width="12" x="180" y="30559.0"/>
  <text x="180" y="30564.3" font-family="Tahoma" font-size="12" transform="rotate(90 180,30564.3)" text-rendering="optimizeSpeed" fill="#000000">Mac OS X (i386) (3)</text>
  <rect fill="blue" height="0.3" stroke="black" width="12" x="195" y="30559.0"/>
  <text x="195" y="30564.3" font-family="Tahoma" font-size="12" transform="rotate(90 195,30564.3)" text-rendering="optimizeSpeed" fill="#000000">OpenBSD (i386) (3)</text>
  <rect fill="blue" height="0.5" stroke="black" width="12" x="210" y="30558.8"/>
  <text x="210" y="30564.3" font-family="Tahoma" font-size="12" transform="rotate(90 210,30564.3)" text-rendering="optimizeSpeed" fill="#000000">Windows 2000 (x86) (5)</text>
  <rect fill="blue" height="0.5" stroke="black" width="12" x="225" y="30558.8"/>
  <text x="225" y="30564.3" font-family="Tahoma" font-size="12" transform="rotate(90 225,30564.3)" text-rendering="optimizeSpeed" fill="#000000">Windows Server 2003 (amd64) (5)</text>
  <rect fill="blue" height="0.6" stroke="black" width="12" x="240" y="30558.7"/>
  <text x="240" y="30564.3" font-family="Tahoma" font-size="12" transform="rotate(90 240,30564.3)" text-rendering="optimizeSpeed" fill="#000000">OS/400 (ppc64) (6)</text>
  <rect fill="blue" height="0.8" stroke="black" width="12" x="255" y="30558.5"/>
  <text x="255" y="30564.3" font-family="Tahoma" font-size="12" transform="rotate(90 255,30564.3)" text-rendering="optimizeSpeed" fill="#000000">NONSTOP_KERNEL (x86_64N) (8)</text>
  <rect fill="blue" height="0.8" stroke="black" width="12" x="270" y="30558.5"/>
  <text x="270" y="30564.3" font-family="Tahoma" font-size="12" transform="rotate(90 270,30564.3)" text-rendering="optimizeSpeed" fill="#000000">Windows Server 2003 (x86) (8)</text>
  <rect fill="blue" height="0.9" stroke="black" width="12" x="285" y="30558.4"/>
  <text x="285" y="30564.3" font-family="Tahoma" font-size="12" transform="rotate(90 285,30564.3)" text-rendering="optimizeSpeed" fill="#000000">Linux (ia64) (9)</text>
  <rect fill="blue" height="0.9" stroke="black" width="12" x="300" y="30558.4"/>
  <text x="300" y="30564.3" font-family="Tahoma" font-size="12" transform="rotate(90 300,30564.3)" text-rendering="optimizeSpeed" fill="#000000">Linux (s390) (9)</text>
  <rect fill="blue" height="1.0" stroke="black" width="12" x="315" y="30558.3"/>
  <text x="315" y="30564.3" font-family="Tahoma" font-size="12" transform="rotate(90 315,30564.3)" text-rendering="optimizeSpeed" fill="#000000">HP-UX (ia64) (10)</text>
  <rect fill="blue" height="1.1" stroke="black" width="12" x="330" y="30558.2"/>
  <text x="330" y="30564.3" font-family="Tahoma" font-size="12" transform="rotate(90 330,30564.3)" text-rendering="optimizeSpeed" fill="#000000">Windows XP (amd64) (11)</text>
  <rect fill="blue" height="1.1" stroke="black" width="12" x="345" y="30558.2"/>
  <text x="345" y="30564.3" font-family="Tahoma" font-size="12" transform="rotate(90 345,30564.3)" text-rendering="optimizeSpeed" fill="#000000">z/OS (s390) (11)</text>
  <rect fill="blue" height="1.4" stroke="black" width="12" x="360" y="30557.9"/>
  <text x="360" y="30564.3" font-family="Tahoma" font-size="12" transform="rotate(90 360,30564.3)" text-rendering="optimizeSpeed" fill="#000000">Windows (amd64) (14)</text>
  <rect fill="blue" height="1.5" stroke="black" width="12" x="375" y="30557.8"/>
  <text x="375" y="30564.3" font-family="Tahoma" font-size="12" transform="rotate(90 375,30564.3)" text-rendering="optimizeSpeed" fill="#000000">Windows Vista (amd64) (15)</text>
  <rect fill="blue" height="1.6" stroke="black" width="12" x="390" y="30557.7"/>
  <text x="390" y="30564.3" font-family="Tahoma" font-size="12" transform="rotate(90 390,30564.3)" text-rendering="optimizeSpeed" fill="#000000">OS/400 (ppc) (16)</text>
  <rect fill="blue" height="1.9" stroke="black" width="12" x="405" y="30557.4"/>
  <text x="405" y="30564.3" font-family="Tahoma" font-size="12" transform="rotate(90 405,30564.3)" text-rendering="optimizeSpeed" fill="#000000">OpenBSD (amd64) (19)</text>
  <rect fill="blue" height="2.6" stroke="black" width="12" x="420" y="30556.7"/>
  <text x="420" y="30564.3" font-family="Tahoma" font-size="12" transform="rotate(90 420,30564.3)" text-rendering="optimizeSpeed" fill="#000000">Linux (mips64el) (26)</text>
  <rect fill="blue" height="2.7" stroke="black" width="12" x="435" y="30556.6"/>
  <text x="435" y="30564.3" font-family="Tahoma" font-size="12" transform="rotate(90 435,30564.3)" text-rendering="optimizeSpeed" fill="#000000">Linux (ppc) (27)</text>
  <rect fill="blue" height="2.7" stroke="black" width="12" x="450" y="30556.6"/>
  <text x="450" y="30564.3" font-family="Tahoma" font-size="12" transform="rotate(90 450,30564.3)" text-rendering="optimizeSpeed" fill="#000000">NONSTOP_KERNEL (IA64N) (27)</text>
  <rect fill="blue" height="3.3" stroke="black" width="12" x="465" y="30556.0"/>
  <text x="465" y="30564.3" font-family="Tahoma" font-size="12" transform="rotate(90 465,30564.3)" text-rendering="optimizeSpeed" fill="#000000">HP-UX (IA64W) (33)</text>
  <rect fill="blue" height="5.4" stroke="black" width="12" x="480" y="30553.9"/>
  <text x="480" y="30564.3" font-family="Tahoma" font-size="12" transform="rotate(90 480,30564.3)" text-rendering="optimizeSpeed" fill="#000000">z/OS (s390x) (54)</text>
  <rect fill="blue" height="5.7" stroke="black" width="12" x="495" y="30553.6"/>
  <text x="495" y="30564.3" font-family="Tahoma" font-size="12" transform="rotate(90 495,30564.3)" text-rendering="optimizeSpeed" fill="#000000">HP-UX (PA_RISC2.0) (57)</text>
  <rect fill="blue" height="7.9" stroke="black" width="12" x="510" y="30551.4"/>
  <text x="510" y="30564.3" font-family="Tahoma" font-size="12" transform="rotate(90 510,30564.3)" text-rendering="optimizeSpeed" fill="#000000">Linux (x86) (79)</text>
  <rect fill="blue" height="13.9" stroke="black" width="12" x="525" y="30545.4"/>
  <text x="525" y="30564.3" font-family="Tahoma" font-size="12" transform="rotate(90 525,30564.3)" text-rendering="optimizeSpeed" fill="#000000">Windows Vista (x86) (139)</text>
  <rect fill="blue" height="18.8" stroke="black" width="12" x="540" y="30540.5"/>
  <text x="540" y="30564.3" font-family="Tahoma" font-size="12" transform="rotate(90 540,30564.3)" text-rendering="optimizeSpeed" fill="#000000">Linux (ppc64) (188)</text>
  <rect fill="blue" height="22.6" stroke="black" width="12" x="555" y="30536.7"/>
  <text x="555" y="30564.3" font-family="Tahoma" font-size="12" transform="rotate(90 555,30564.3)" text-rendering="optimizeSpeed" fill="#000000">Linux (s390x) (226)</text>
  <rect fill="blue" height="26.8" stroke="black" width="12" x="570" y="30532.5"/>
  <text x="570" y="30564.3" font-family="Tahoma" font-size="12" transform="rotate(90 570,30564.3)" text-rendering="optimizeSpeed" fill="#000000">Windows 2003 (amd64) (268)</text>
  <rect fill="blue" height="34.0" stroke="black" width="12" x="585" y="30525.3"/>
  <text x="585" y="30564.3" font-family="Tahoma" font-size="12" transform="rotate(90 585,30564.3)" text-rendering="optimizeSpeed" fill="#000000">FreeBSD (i386) (340)</text>
  <rect fill="blue" height="34.8" stroke="black" width="12" x="600" y="30524.5"/>
  <text x="600" y="30564.3" font-family="Tahoma" font-size="12" transform="rotate(90 600,30564.3)" text-rendering="optimizeSpeed" fill="#000000">HP-UX (IA64N) (348)</text>
  <rect fill="blue" height="36.8" stroke="black" width="12" x="615" y="30522.5"/>
  <text x="615" y="30564.3" font-family="Tahoma" font-size="12" transform="rotate(90 615,30564.3)" text-rendering="optimizeSpeed" fill="#000000">AIX (ppc) (368)</text>
  <rect fill="blue" height="40.0" stroke="black" width="12" x="630" y="30519.3"/>
  <text x="630" y="30564.3" font-family="Tahoma" font-size="12" transform="rotate(90 630,30564.3)" text-rendering="optimizeSpeed" fill="#000000">Linux (ppc64le) (400)</text>
  <rect fill="blue" height="40.3" stroke="black" width="12" x="645" y="30519.0"/>
  <text x="645" y="30564.3" font-family="Tahoma" font-size="12" transform="rotate(90 645,30564.3)" text-rendering="optimizeSpeed" fill="#000000">Windows 8 (x86) (403)</text>
  <rect fill="blue" height="47.4" stroke="black" width="12" x="660" y="30511.9"/>
  <text x="660" y="30564.3" font-family="Tahoma" font-size="12" transform="rotate(90 660,30564.3)" text-rendering="optimizeSpeed" fill="#000000">Linux (aarch64) (474)</text>
  <rect fill="blue" height="49.5" stroke="black" width="12" x="675" y="30509.8"/>
  <text x="675" y="30564.3" font-family="Tahoma" font-size="12" transform="rotate(90 675,30564.3)" text-rendering="optimizeSpeed" fill="#000000">Windows Server 2008 (amd64) (495)</text>
  <rect fill="blue" height="64.3" stroke="black" width="12" x="690" y="30495.0"/>
  <text x="690" y="30564.3" font-family="Tahoma" font-size="12" transform="rotate(90 690,30564.3)" text-rendering="optimizeSpeed" fill="#000000">FreeBSD (amd64) (643)</text>
  <rect fill="blue" height="75.9" stroke="black" width="12" x="705" y="30483.4"/>
  <text x="705" y="30564.3" font-family="Tahoma" font-size="12" transform="rotate(90 705,30564.3)" text-rendering="optimizeSpeed" fill="#000000">SunOS (amd64) (759)</text>
  <rect fill="blue" height="82.4" stroke="black" width="12" x="720" y="30476.9"/>
  <text x="720" y="30564.3" font-family="Tahoma" font-size="12" transform="rotate(90 720,30564.3)" text-rendering="optimizeSpeed" fill="#000000">Linux (arm) (824)</text>
  <rect fill="blue" height="83.1" stroke="black" width="12" x="735" y="30476.2"/>
  <text x="735" y="30564.3" font-family="Tahoma" font-size="12" transform="rotate(90 735,30564.3)" text-rendering="optimizeSpeed" fill="#000000">SunOS (x86) (831)</text>
  <rect fill="blue" height="85.3" stroke="black" width="12" x="750" y="30474.0"/>
  <text x="750" y="30564.3" font-family="Tahoma" font-size="12" transform="rotate(90 750,30564.3)" text-rendering="optimizeSpeed" fill="#000000">Windows Server 2008 (x86) (853)</text>
  <rect fill="blue" height="95.4" stroke="black" width="12" x="765" y="30463.9"/>
  <text x="765" y="30564.3" font-family="Tahoma" font-size="12" transform="rotate(90 765,30564.3)" text-rendering="optimizeSpeed" fill="#000000">SunOS (sparc) (954)</text>
  <rect fill="blue" height="96.9" stroke="black" width="12" x="780" y="30462.4"/>
  <text x="780" y="30564.3" font-family="Tahoma" font-size="12" transform="rotate(90 780,30564.3)" text-rendering="optimizeSpeed" fill="#000000">Windows XP (x86) (969)</text>
  <rect fill="blue" height="100.2" stroke="black" width="12" x="795" y="30459.1"/>
  <text x="795" y="30564.3" font-family="Tahoma" font-size="12" transform="rotate(90 795,30564.3)" text-rendering="optimizeSpeed" fill="#000000">SunOS (sparcv9) (1002)</text>
  <rect fill="blue" height="103.9" stroke="black" width="12" x="810" y="30455.4"/>
  <text x="810" y="30564.3" font-family="Tahoma" font-size="12" transform="rotate(90 810,30564.3)" text-rendering="optimizeSpeed" fill="#000000">Windows 8 (amd64) (1039)</text>
  <rect fill="blue" height="104.2" stroke="black" width="12" x="825" y="30455.1"/>
  <text x="825" y="30564.3" font-family="Tahoma" font-size="12" transform="rotate(90 825,30564.3)" text-rendering="optimizeSpeed" fill="#000000">Windows NT (unknown) (amd64) (1042)</text>
  <rect fill="blue" height="110.2" stroke="black" width="12" x="840" y="30449.1"/>
  <text x="840" y="30564.3" font-family="Tahoma" font-size="12" transform="rotate(90 840,30564.3)" text-rendering="optimizeSpeed" fill="#000000">Windows Server 2016 (x86) (1102)</text>
  <rect fill="blue" height="122.5" stroke="black" width="12" x="855" y="30436.8"/>
  <text x="855" y="30564.3" font-family="Tahoma" font-size="12" transform="rotate(90 855,30564.3)" text-rendering="optimizeSpeed" fill="#000000">Windows 2003 (x86) (1225)</text>
  <rect fill="blue" height="124.7" stroke="black" width="12" x="870" y="30434.6"/>
  <text x="870" y="30564.3" font-family="Tahoma" font-size="12" transform="rotate(90 870,30564.3)" text-rendering="optimizeSpeed" fill="#000000">Windows NT (unknown) (x86) (1247)</text>
  <rect fill="blue" height="143.0" stroke="black" width="12" x="885" y="30416.3"/>
  <text x="885" y="30564.3" font-family="Tahoma" font-size="12" transform="rotate(90 885,30564.3)" text-rendering="optimizeSpeed" fill="#000000">AIX (ppc64) (1430)</text>
  <rect fill="blue" height="169.9" stroke="black" width="12" x="900" y="30389.4"/>
  <text x="900" y="30564.3" font-family="Tahoma" font-size="12" transform="rotate(90 900,30564.3)" text-rendering="optimizeSpeed" fill="#000000">Windows Server 2016 (amd64) (1699)</text>
  <rect fill="blue" height="184.4" stroke="black" width="12" x="915" y="30374.9"/>
  <text x="915" y="30564.3" font-family="Tahoma" font-size="12" transform="rotate(90 915,30564.3)" text-rendering="optimizeSpeed" fill="#000000">Windows Server 2012 (x86) (1844)</text>
  <rect fill="blue" height="196.3" stroke="black" width="12" x="930" y="30363.0"/>
  <text x="930" y="30564.3" font-family="Tahoma" font-size="12" transform="rotate(90 930,30564.3)" text-rendering="optimizeSpeed" fill="#000000">Windows 8.1 (x86) (1963)</text>
  <rect fill="blue" height="235.0" stroke="black" width="12" x="945" y="30324.3"/>
  <text x="945" y="30564.3" font-family="Tahoma" font-size="12" transform="rotate(90 945,30564.3)" text-rendering="optimizeSpeed" fill="#000000">Windows 8.1 (amd64) (2350)</text>
  <rect fill="blue" height="382.2" stroke="black" width="12" x="960" y="30177.1"/>
  <text x="960" y="30564.3" font-family="Tahoma" font-size="12" transform="rotate(90 960,30564.3)" text-rendering="optimizeSpeed" fill="#000000">Windows Server 2012 (amd64) (3822)</text>
  <rect fill="blue" height="818.2" stroke="black" width="12" x="975" y="29741.1"/>
  <text x="975" y="30564.3" font-family="Tahoma" font-size="12" transform="rotate(90 975,30564.3)" text-rendering="optimizeSpeed" fill="#000000">Windows 10 (x86) (8182)</text>
  <rect fill="blue" height="866.8" stroke="black" width="12" x="990" y="29692.5"/>
  <text x="990" y="30564.3" font-family="Tahoma" font-size="12" transform="rotate(90 990,30564.3)" text-rendering="optimizeSpeed" fill="#000000">Windows 10 (amd64) (8668)</text>
  <rect fill="blue" height="929.5" stroke="black" width="12" x="1005" y="29629.8"/>
  <text x="1005" y="30564.3" font-family="Tahoma" font-size="12" transform="rotate(90 1005,30564.3)" text-rendering="optimizeSpeed" fill="#000000">Windows Server 2008 R2 (x86) (9295)</text>
  <rect fill="blue" height="968.7" stroke="black" width="12" x="1020" y="29590.6"/>
  <text x="1020" y="30564.3" font-family="Tahoma" font-size="12" transform="rotate(90 1020,30564.3)" text-rendering="optimizeSpeed" fill="#000000">Linux (i386) (9687)</text>
  <rect fill="blue" height="1047.0" stroke="black" width="12" x="1035" y="29512.3"/>
  <text x="1035" y="30564.3" font-family="Tahoma" font-size="12" transform="rotate(90 1035,30564.3)" text-rendering="optimizeSpeed" fill="#000000">Windows Server 2012 R2 (x86) (10470)</text>
  <rect fill="blue" height="1736.3" stroke="black" width="12" x="1050" y="28823.0"/>
  <text x="1050" y="30564.3" font-family="Tahoma" font-size="12" transform="rotate(90 1050,30564.3)" text-rendering="optimizeSpeed" fill="#000000">Windows Server 2008 R2 (amd64) (17363)</text>
  <rect fill="blue" height="1861.2" stroke="black" width="12" x="1065" y="28698.1"/>
  <text x="1065" y="30564.3" font-family="Tahoma" font-size="12" transform="rotate(90 1065,30564.3)" text-rendering="optimizeSpeed" fill="#000000">Windows Server 2012 R2 (amd64) (18612)</text>
  <rect fill="blue" height="2144.9" stroke="black" width="12" x="1080" y="28414.4"/>
  <text x="1080" y="30564.3" font-family="Tahoma" font-size="12" transform="rotate(90 1080,30564.3)" text-rendering="optimizeSpeed" fill="#000000">Mac OS X (x86_64) (21449)</text>
  <rect fill="blue" height="2247.7" stroke="black" width="12" x="1095" y="28311.6"/>
  <text x="1095" y="30564.3" font-family="Tahoma" font-size="12" transform="rotate(90 1095,30564.3)" text-rendering="optimizeSpeed" fill="#000000">Windows 7 (amd64) (22477)</text>
  <rect fill="blue" height="2500.6" stroke="black" width="12" x="1110" y="28058.7"/>
  <text x="1110" y="30564.3" font-family="Tahoma" font-size="12" transform="rotate(90 1110,30564.3)" text-rendering="optimizeSpeed" fill="#000000">Windows 7 (x86) (25006)</text>
  <rect fill="blue" height="16777.9" stroke="black" width="12" x="1125" y="13781.4"/>
  <text x="1125" y="30564.3" font-family="Tahoma" font-size="12" transform="rotate(90 1125,30564.3)" text-rendering="optimizeSpeed" fill="#000000">N/A (167779)</text>
  <rect fill="blue" height="30509.3" stroke="black" width="12" x="1140" y="50.0"/>
  <text x="1140" y="30564.3" font-family="Tahoma" font-size="12" transform="rotate(90 1140,30564.3)" text-rendering="optimizeSpeed" fill="#000000">Linux (amd64) (305093)</text>
  <text x="10" y="40" font-family="Tahoma" font-size="20" text-rendering="optimizeSpeed" fill="#000000">Nodes (total: 653801)</text>
</svg>
