<svg xmlns="http://www.w3.org/2000/svg" version="1.1" preserveAspectRatio="xMidYMid meet" viewBox="0 0 1250 30019.1">
  <rect fill="blue" height="0.1" stroke="black" width="12" x="15" y="29719.0"/>
  <text x="15" y="29724.1" font-family="Tahoma" font-size="12" transform="rotate(90 15,29724.1)" text-rendering="optimizeSpeed" fill="#000000">CloudByte (amd64) (1)</text>
  <rect fill="blue" height="0.1" stroke="black" width="12" x="30" y="29719.0"/>
  <text x="30" y="29724.1" font-family="Tahoma" font-size="12" transform="rotate(90 30,29724.1)" text-rendering="optimizeSpeed" fill="#000000">FreeBSD (aarch64) (1)</text>
  <rect fill="blue" height="0.1" stroke="black" width="12" x="45" y="29719.0"/>
  <text x="45" y="29724.1" font-family="Tahoma" font-size="12" transform="rotate(90 45,29724.1)" text-rendering="optimizeSpeed" fill="#000000">HP-UX (PA_RISC2.0W) (1)</text>
  <rect fill="blue" height="0.1" stroke="black" width="12" x="60" y="29719.0"/>
  <text x="60" y="29724.1" font-family="Tahoma" font-size="12" transform="rotate(90 60,29724.1)" text-rendering="optimizeSpeed" fill="#000000">Linux (e2k) (1)</text>
  <rect fill="blue" height="0.1" stroke="black" width="12" x="75" y="29719.0"/>
  <text x="75" y="29724.1" font-family="Tahoma" font-size="12" transform="rotate(90 75,29724.1)" text-rendering="optimizeSpeed" fill="#000000">Linux (mipsel) (1)</text>
  <rect fill="blue" height="0.1" stroke="black" width="12" x="90" y="29719.0"/>
  <text x="90" y="29724.1" font-family="Tahoma" font-size="12" transform="rotate(90 90,29724.1)" text-rendering="optimizeSpeed" fill="#000000">NONSTOP_KERNEL (x86_64N) (1)</text>
  <rect fill="blue" height="0.1" stroke="black" width="12" x="105" y="29719.0"/>
  <text x="105" y="29724.1" font-family="Tahoma" font-size="12" transform="rotate(90 105,29724.1)" text-rendering="optimizeSpeed" fill="#000000">NetBSD (amd64) (1)</text>
  <rect fill="blue" height="0.1" stroke="black" width="12" x="120" y="29719.0"/>
  <text x="120" y="29724.1" font-family="Tahoma" font-size="12" transform="rotate(90 120,29724.1)" text-rendering="optimizeSpeed" fill="#000000">Windows (x86) (1)</text>
  <rect fill="blue" height="0.1" stroke="black" width="12" x="135" y="29719.0"/>
  <text x="135" y="29724.1" font-family="Tahoma" font-size="12" transform="rotate(90 135,29724.1)" text-rendering="optimizeSpeed" fill="#000000">Windows Server 2016 Standard (amd64) (1)</text>
  <rect fill="blue" height="0.1" stroke="black" width="12" x="150" y="29719.0"/>
  <text x="150" y="29724.1" font-family="Tahoma" font-size="12" transform="rotate(90 150,29724.1)" text-rendering="optimizeSpeed" fill="#000000">Windows Server 8 (amd64) (1)</text>
  <rect fill="blue" height="0.2" stroke="black" width="12" x="165" y="29718.9"/>
  <text x="165" y="29724.1" font-family="Tahoma" font-size="12" transform="rotate(90 165,29724.1)" text-rendering="optimizeSpeed" fill="#000000">Linux (mips64) (2)</text>
  <rect fill="blue" height="0.2" stroke="black" width="12" x="180" y="29718.9"/>
  <text x="180" y="29724.1" font-family="Tahoma" font-size="12" transform="rotate(90 180,29724.1)" text-rendering="optimizeSpeed" fill="#000000">Mac OS X (i386) (2)</text>
  <rect fill="blue" height="0.2" stroke="black" width="12" x="195" y="29718.9"/>
  <text x="195" y="29724.1" font-family="Tahoma" font-size="12" transform="rotate(90 195,29724.1)" text-rendering="optimizeSpeed" fill="#000000">Mac OS X (ppc) (2)</text>
  <rect fill="blue" height="0.2" stroke="black" width="12" x="210" y="29718.9"/>
  <text x="210" y="29724.1" font-family="Tahoma" font-size="12" transform="rotate(90 210,29724.1)" text-rendering="optimizeSpeed" fill="#000000">OS/400 (PowerPC) (2)</text>
  <rect fill="blue" height="0.3" stroke="black" width="12" x="225" y="29718.8"/>
  <text x="225" y="29724.1" font-family="Tahoma" font-size="12" transform="rotate(90 225,29724.1)" text-rendering="optimizeSpeed" fill="#000000">Linux (sparcv9) (3)</text>
  <rect fill="blue" height="0.3" stroke="black" width="12" x="240" y="29718.8"/>
  <text x="240" y="29724.1" font-family="Tahoma" font-size="12" transform="rotate(90 240,29724.1)" text-rendering="optimizeSpeed" fill="#000000">Linux (zArch_64) (3)</text>
  <rect fill="blue" height="0.3" stroke="black" width="12" x="255" y="29718.8"/>
  <text x="255" y="29724.1" font-family="Tahoma" font-size="12" transform="rotate(90 255,29724.1)" text-rendering="optimizeSpeed" fill="#000000">OpenBSD (i386) (3)</text>
  <rect fill="blue" height="0.6" stroke="black" width="12" x="270" y="29718.5"/>
  <text x="270" y="29724.1" font-family="Tahoma" font-size="12" transform="rotate(90 270,29724.1)" text-rendering="optimizeSpeed" fill="#000000">Linux (ia64) (6)</text>
  <rect fill="blue" height="0.6" stroke="black" width="12" x="285" y="29718.5"/>
  <text x="285" y="29724.1" font-family="Tahoma" font-size="12" transform="rotate(90 285,29724.1)" text-rendering="optimizeSpeed" fill="#000000">OS/400 (ppc64) (6)</text>
  <rect fill="blue" height="0.6" stroke="black" width="12" x="300" y="29718.5"/>
  <text x="300" y="29724.1" font-family="Tahoma" font-size="12" transform="rotate(90 300,29724.1)" text-rendering="optimizeSpeed" fill="#000000">Windows 2000 (x86) (6)</text>
  <rect fill="blue" height="0.6" stroke="black" width="12" x="315" y="29718.5"/>
  <text x="315" y="29724.1" font-family="Tahoma" font-size="12" transform="rotate(90 315,29724.1)" text-rendering="optimizeSpeed" fill="#000000">Windows Server 2003 (amd64) (6)</text>
  <rect fill="blue" height="0.7" stroke="black" width="12" x="330" y="29718.4"/>
  <text x="330" y="29724.1" font-family="Tahoma" font-size="12" transform="rotate(90 330,29724.1)" text-rendering="optimizeSpeed" fill="#000000">Linux (s390) (7)</text>
  <rect fill="blue" height="0.9" stroke="black" width="12" x="345" y="29718.2"/>
  <text x="345" y="29724.1" font-family="Tahoma" font-size="12" transform="rotate(90 345,29724.1)" text-rendering="optimizeSpeed" fill="#000000">Windows Server 2003 (x86) (9)</text>
  <rect fill="blue" height="1.0" stroke="black" width="12" x="360" y="29718.1"/>
  <text x="360" y="29724.1" font-family="Tahoma" font-size="12" transform="rotate(90 360,29724.1)" text-rendering="optimizeSpeed" fill="#000000">HP-UX (ia64) (10)</text>
  <rect fill="blue" height="1.0" stroke="black" width="12" x="375" y="29718.1"/>
  <text x="375" y="29724.1" font-family="Tahoma" font-size="12" transform="rotate(90 375,29724.1)" text-rendering="optimizeSpeed" fill="#000000">z/OS (s390) (10)</text>
  <rect fill="blue" height="1.1" stroke="black" width="12" x="390" y="29718.0"/>
  <text x="390" y="29724.1" font-family="Tahoma" font-size="12" transform="rotate(90 390,29724.1)" text-rendering="optimizeSpeed" fill="#000000">HP-UX (IA64W) (11)</text>
  <rect fill="blue" height="1.1" stroke="black" width="12" x="405" y="29718.0"/>
  <text x="405" y="29724.1" font-family="Tahoma" font-size="12" transform="rotate(90 405,29724.1)" text-rendering="optimizeSpeed" fill="#000000">NetBSD (i386) (11)</text>
  <rect fill="blue" height="1.5" stroke="black" width="12" x="420" y="29717.6"/>
  <text x="420" y="29724.1" font-family="Tahoma" font-size="12" transform="rotate(90 420,29724.1)" text-rendering="optimizeSpeed" fill="#000000">Windows Vista (amd64) (15)</text>
  <rect fill="blue" height="1.5" stroke="black" width="12" x="435" y="29717.6"/>
  <text x="435" y="29724.1" font-family="Tahoma" font-size="12" transform="rotate(90 435,29724.1)" text-rendering="optimizeSpeed" fill="#000000">Windows XP (amd64) (15)</text>
  <rect fill="blue" height="1.6" stroke="black" width="12" x="450" y="29717.5"/>
  <text x="450" y="29724.1" font-family="Tahoma" font-size="12" transform="rotate(90 450,29724.1)" text-rendering="optimizeSpeed" fill="#000000">OS/400 (ppc) (16)</text>
  <rect fill="blue" height="2.0" stroke="black" width="12" x="465" y="29717.1"/>
  <text x="465" y="29724.1" font-family="Tahoma" font-size="12" transform="rotate(90 465,29724.1)" text-rendering="optimizeSpeed" fill="#000000">Windows (amd64) (20)</text>
  <rect fill="blue" height="2.4" stroke="black" width="12" x="480" y="29716.7"/>
  <text x="480" y="29724.1" font-family="Tahoma" font-size="12" transform="rotate(90 480,29724.1)" text-rendering="optimizeSpeed" fill="#000000">Linux (ppc) (24)</text>
  <rect fill="blue" height="2.4" stroke="black" width="12" x="495" y="29716.7"/>
  <text x="495" y="29724.1" font-family="Tahoma" font-size="12" transform="rotate(90 495,29724.1)" text-rendering="optimizeSpeed" fill="#000000">NONSTOP_KERNEL (IA64N) (24)</text>
  <rect fill="blue" height="2.4" stroke="black" width="12" x="510" y="29716.7"/>
  <text x="510" y="29724.1" font-family="Tahoma" font-size="12" transform="rotate(90 510,29724.1)" text-rendering="optimizeSpeed" fill="#000000">OpenBSD (amd64) (24)</text>
  <rect fill="blue" height="3.3" stroke="black" width="12" x="525" y="29715.8"/>
  <text x="525" y="29724.1" font-family="Tahoma" font-size="12" transform="rotate(90 525,29724.1)" text-rendering="optimizeSpeed" fill="#000000">Linux (mips64el) (33)</text>
  <rect fill="blue" height="4.8" stroke="black" width="12" x="540" y="29714.3"/>
  <text x="540" y="29724.1" font-family="Tahoma" font-size="12" transform="rotate(90 540,29724.1)" text-rendering="optimizeSpeed" fill="#000000">z/OS (s390x) (48)</text>
  <rect fill="blue" height="7.3" stroke="black" width="12" x="555" y="29711.8"/>
  <text x="555" y="29724.1" font-family="Tahoma" font-size="12" transform="rotate(90 555,29724.1)" text-rendering="optimizeSpeed" fill="#000000">HP-UX (PA_RISC2.0) (73)</text>
  <rect fill="blue" height="10.7" stroke="black" width="12" x="570" y="29708.4"/>
  <text x="570" y="29724.1" font-family="Tahoma" font-size="12" transform="rotate(90 570,29724.1)" text-rendering="optimizeSpeed" fill="#000000">Linux (x86) (107)</text>
  <rect fill="blue" height="14.7" stroke="black" width="12" x="585" y="29704.4"/>
  <text x="585" y="29724.1" font-family="Tahoma" font-size="12" transform="rotate(90 585,29724.1)" text-rendering="optimizeSpeed" fill="#000000">Windows Vista (x86) (147)</text>
  <rect fill="blue" height="20.5" stroke="black" width="12" x="600" y="29698.6"/>
  <text x="600" y="29724.1" font-family="Tahoma" font-size="12" transform="rotate(90 600,29724.1)" text-rendering="optimizeSpeed" fill="#000000">Linux (ppc64) (205)</text>
  <rect fill="blue" height="24.7" stroke="black" width="12" x="615" y="29694.4"/>
  <text x="615" y="29724.1" font-family="Tahoma" font-size="12" transform="rotate(90 615,29724.1)" text-rendering="optimizeSpeed" fill="#000000">Windows 2003 (amd64) (247)</text>
  <rect fill="blue" height="25.5" stroke="black" width="12" x="630" y="29693.6"/>
  <text x="630" y="29724.1" font-family="Tahoma" font-size="12" transform="rotate(90 630,29724.1)" text-rendering="optimizeSpeed" fill="#000000">Linux (s390x) (255)</text>
  <rect fill="blue" height="32.7" stroke="black" width="12" x="645" y="29686.4"/>
  <text x="645" y="29724.1" font-family="Tahoma" font-size="12" transform="rotate(90 645,29724.1)" text-rendering="optimizeSpeed" fill="#000000">FreeBSD (i386) (327)</text>
  <rect fill="blue" height="37.7" stroke="black" width="12" x="660" y="29681.4"/>
  <text x="660" y="29724.1" font-family="Tahoma" font-size="12" transform="rotate(90 660,29724.1)" text-rendering="optimizeSpeed" fill="#000000">HP-UX (IA64N) (377)</text>
  <rect fill="blue" height="38.1" stroke="black" width="12" x="675" y="29681.0"/>
  <text x="675" y="29724.1" font-family="Tahoma" font-size="12" transform="rotate(90 675,29724.1)" text-rendering="optimizeSpeed" fill="#000000">Linux (ppc64le) (381)</text>
  <rect fill="blue" height="39.6" stroke="black" width="12" x="690" y="29679.5"/>
  <text x="690" y="29724.1" font-family="Tahoma" font-size="12" transform="rotate(90 690,29724.1)" text-rendering="optimizeSpeed" fill="#000000">Linux (aarch64) (396)</text>
  <rect fill="blue" height="41.5" stroke="black" width="12" x="705" y="29677.6"/>
  <text x="705" y="29724.1" font-family="Tahoma" font-size="12" transform="rotate(90 705,29724.1)" text-rendering="optimizeSpeed" fill="#000000">AIX (ppc) (415)</text>
  <rect fill="blue" height="42.5" stroke="black" width="12" x="720" y="29676.6"/>
  <text x="720" y="29724.1" font-family="Tahoma" font-size="12" transform="rotate(90 720,29724.1)" text-rendering="optimizeSpeed" fill="#000000">Windows 8 (x86) (425)</text>
  <rect fill="blue" height="44.7" stroke="black" width="12" x="735" y="29674.4"/>
  <text x="735" y="29724.1" font-family="Tahoma" font-size="12" transform="rotate(90 735,29724.1)" text-rendering="optimizeSpeed" fill="#000000">Windows Server 2008 (amd64) (447)</text>
  <rect fill="blue" height="66.2" stroke="black" width="12" x="750" y="29652.9"/>
  <text x="750" y="29724.1" font-family="Tahoma" font-size="12" transform="rotate(90 750,29724.1)" text-rendering="optimizeSpeed" fill="#000000">FreeBSD (amd64) (662)</text>
  <rect fill="blue" height="66.5" stroke="black" width="12" x="765" y="29652.6"/>
  <text x="765" y="29724.1" font-family="Tahoma" font-size="12" transform="rotate(90 765,29724.1)" text-rendering="optimizeSpeed" fill="#000000">SunOS (amd64) (665)</text>
  <rect fill="blue" height="75.2" stroke="black" width="12" x="780" y="29643.9"/>
  <text x="780" y="29724.1" font-family="Tahoma" font-size="12" transform="rotate(90 780,29724.1)" text-rendering="optimizeSpeed" fill="#000000">Windows Server 2016 (x86) (752)</text>
  <rect fill="blue" height="82.3" stroke="black" width="12" x="795" y="29636.8"/>
  <text x="795" y="29724.1" font-family="Tahoma" font-size="12" transform="rotate(90 795,29724.1)" text-rendering="optimizeSpeed" fill="#000000">Linux (arm) (823)</text>
  <rect fill="blue" height="90.2" stroke="black" width="12" x="810" y="29628.9"/>
  <text x="810" y="29724.1" font-family="Tahoma" font-size="12" transform="rotate(90 810,29724.1)" text-rendering="optimizeSpeed" fill="#000000">Windows Server 2008 (x86) (902)</text>
  <rect fill="blue" height="94.1" stroke="black" width="12" x="825" y="29625.0"/>
  <text x="825" y="29724.1" font-family="Tahoma" font-size="12" transform="rotate(90 825,29724.1)" text-rendering="optimizeSpeed" fill="#000000">SunOS (sparcv9) (941)</text>
  <rect fill="blue" height="95.2" stroke="black" width="12" x="840" y="29623.9"/>
  <text x="840" y="29724.1" font-family="Tahoma" font-size="12" transform="rotate(90 840,29724.1)" text-rendering="optimizeSpeed" fill="#000000">SunOS (x86) (952)</text>
  <rect fill="blue" height="96.2" stroke="black" width="12" x="855" y="29622.9"/>
  <text x="855" y="29724.1" font-family="Tahoma" font-size="12" transform="rotate(90 855,29724.1)" text-rendering="optimizeSpeed" fill="#000000">Windows NT (unknown) (amd64) (962)</text>
  <rect fill="blue" height="98.4" stroke="black" width="12" x="870" y="29620.7"/>
  <text x="870" y="29724.1" font-family="Tahoma" font-size="12" transform="rotate(90 870,29724.1)" text-rendering="optimizeSpeed" fill="#000000">SunOS (sparc) (984)</text>
  <rect fill="blue" height="99.3" stroke="black" width="12" x="885" y="29619.8"/>
  <text x="885" y="29724.1" font-family="Tahoma" font-size="12" transform="rotate(90 885,29724.1)" text-rendering="optimizeSpeed" fill="#000000">Windows XP (x86) (993)</text>
  <rect fill="blue" height="99.7" stroke="black" width="12" x="900" y="29619.4"/>
  <text x="900" y="29724.1" font-family="Tahoma" font-size="12" transform="rotate(90 900,29724.1)" text-rendering="optimizeSpeed" fill="#000000">Windows 8 (amd64) (997)</text>
  <rect fill="blue" height="121.1" stroke="black" width="12" x="915" y="29598.0"/>
  <text x="915" y="29724.1" font-family="Tahoma" font-size="12" transform="rotate(90 915,29724.1)" text-rendering="optimizeSpeed" fill="#000000">Windows 2003 (x86) (1211)</text>
  <rect fill="blue" height="135.4" stroke="black" width="12" x="930" y="29583.7"/>
  <text x="930" y="29724.1" font-family="Tahoma" font-size="12" transform="rotate(90 930,29724.1)" text-rendering="optimizeSpeed" fill="#000000">Windows NT (unknown) (x86) (1354)</text>
  <rect fill="blue" height="140.2" stroke="black" width="12" x="945" y="29578.9"/>
  <text x="945" y="29724.1" font-family="Tahoma" font-size="12" transform="rotate(90 945,29724.1)" text-rendering="optimizeSpeed" fill="#000000">AIX (ppc64) (1402)</text>
  <rect fill="blue" height="145.8" stroke="black" width="12" x="960" y="29573.3"/>
  <text x="960" y="29724.1" font-family="Tahoma" font-size="12" transform="rotate(90 960,29724.1)" text-rendering="optimizeSpeed" fill="#000000">Windows Server 2016 (amd64) (1458)</text>
  <rect fill="blue" height="192.0" stroke="black" width="12" x="975" y="29527.1"/>
  <text x="975" y="29724.1" font-family="Tahoma" font-size="12" transform="rotate(90 975,29724.1)" text-rendering="optimizeSpeed" fill="#000000">Windows Server 2012 (x86) (1920)</text>
  <rect fill="blue" height="202.1" stroke="black" width="12" x="990" y="29517.0"/>
  <text x="990" y="29724.1" font-family="Tahoma" font-size="12" transform="rotate(90 990,29724.1)" text-rendering="optimizeSpeed" fill="#000000">Windows 8.1 (x86) (2021)</text>
  <rect fill="blue" height="232.8" stroke="black" width="12" x="1005" y="29486.3"/>
  <text x="1005" y="29724.1" font-family="Tahoma" font-size="12" transform="rotate(90 1005,29724.1)" text-rendering="optimizeSpeed" fill="#000000">Windows 8.1 (amd64) (2328)</text>
  <rect fill="blue" height="385.8" stroke="black" width="12" x="1020" y="29333.3"/>
  <text x="1020" y="29724.1" font-family="Tahoma" font-size="12" transform="rotate(90 1020,29724.1)" text-rendering="optimizeSpeed" fill="#000000">Windows Server 2012 (amd64) (3858)</text>
  <rect fill="blue" height="726.0" stroke="black" width="12" x="1035" y="28993.1"/>
  <text x="1035" y="29724.1" font-family="Tahoma" font-size="12" transform="rotate(90 1035,29724.1)" text-rendering="optimizeSpeed" fill="#000000">Windows 10 (x86) (7260)</text>
  <rect fill="blue" height="769.4" stroke="black" width="12" x="1050" y="28949.7"/>
  <text x="1050" y="29724.1" font-family="Tahoma" font-size="12" transform="rotate(90 1050,29724.1)" text-rendering="optimizeSpeed" fill="#000000">Windows 10 (amd64) (7694)</text>
  <rect fill="blue" height="922.9" stroke="black" width="12" x="1065" y="28796.2"/>
  <text x="1065" y="29724.1" font-family="Tahoma" font-size="12" transform="rotate(90 1065,29724.1)" text-rendering="optimizeSpeed" fill="#000000">Windows Server 2008 R2 (x86) (9229)</text>
  <rect fill="blue" height="991.8" stroke="black" width="12" x="1080" y="28727.3"/>
  <text x="1080" y="29724.1" font-family="Tahoma" font-size="12" transform="rotate(90 1080,29724.1)" text-rendering="optimizeSpeed" fill="#000000">Linux (i386) (9918)</text>
  <rect fill="blue" height="1026.4" stroke="black" width="12" x="1095" y="28692.7"/>
  <text x="1095" y="29724.1" font-family="Tahoma" font-size="12" transform="rotate(90 1095,29724.1)" text-rendering="optimizeSpeed" fill="#000000">Windows Server 2012 R2 (x86) (10264)</text>
  <rect fill="blue" height="1731.8" stroke="black" width="12" x="1110" y="27987.3"/>
  <text x="1110" y="29724.1" font-family="Tahoma" font-size="12" transform="rotate(90 1110,29724.1)" text-rendering="optimizeSpeed" fill="#000000">Windows Server 2008 R2 (amd64) (17318)</text>
  <rect fill="blue" height="1853.9" stroke="black" width="12" x="1125" y="27865.2"/>
  <text x="1125" y="29724.1" font-family="Tahoma" font-size="12" transform="rotate(90 1125,29724.1)" text-rendering="optimizeSpeed" fill="#000000">Windows Server 2012 R2 (amd64) (18539)</text>
  <rect fill="blue" height="2103.1" stroke="black" width="12" x="1140" y="27616.0"/>
  <text x="1140" y="29724.1" font-family="Tahoma" font-size="12" transform="rotate(90 1140,29724.1)" text-rendering="optimizeSpeed" fill="#000000">Mac OS X (x86_64) (21031)</text>
  <rect fill="blue" height="2252.0" stroke="black" width="12" x="1155" y="27467.1"/>
  <text x="1155" y="29724.1" font-family="Tahoma" font-size="12" transform="rotate(90 1155,29724.1)" text-rendering="optimizeSpeed" fill="#000000">Windows 7 (amd64) (22520)</text>
  <rect fill="blue" height="2446.1" stroke="black" width="12" x="1170" y="27273.0"/>
  <text x="1170" y="29724.1" font-family="Tahoma" font-size="12" transform="rotate(90 1170,29724.1)" text-rendering="optimizeSpeed" fill="#000000">Windows 7 (x86) (24461)</text>
  <rect fill="blue" height="16250.6" stroke="black" width="12" x="1185" y="13468.5"/>
  <text x="1185" y="29724.1" font-family="Tahoma" font-size="12" transform="rotate(90 1185,29724.1)" text-rendering="optimizeSpeed" fill="#000000">N/A (162506)</text>
  <rect fill="blue" height="29669.1" stroke="black" width="12" x="1200" y="50.0"/>
  <text x="1200" y="29724.1" font-family="Tahoma" font-size="12" transform="rotate(90 1200,29724.1)" text-rendering="optimizeSpeed" fill="#000000">Linux (amd64) (296691)</text>
  <text x="10" y="40" font-family="Tahoma" font-size="20" text-rendering="optimizeSpeed" fill="#000000">Nodes (total: 636746)</text>
</svg>
