<svg xmlns="http://www.w3.org/2000/svg" version="1.1" preserveAspectRatio="xMidYMid meet" viewBox="0 0 1220 26356.9">
  <rect fill="blue" height="0.1" stroke="black" width="12" x="15" y="26056.8"/>
  <text x="15" y="26061.9" font-family="Tahoma" font-size="12" transform="rotate(90 15,26061.9)" text-rendering="optimizeSpeed" fill="#000000">CloudByte (amd64) (1)</text>
  <rect fill="blue" height="0.1" stroke="black" width="12" x="30" y="26056.8"/>
  <text x="30" y="26061.9" font-family="Tahoma" font-size="12" transform="rotate(90 30,26061.9)" text-rendering="optimizeSpeed" fill="#000000">FreeBSD (aarch64) (1)</text>
  <rect fill="blue" height="0.1" stroke="black" width="12" x="45" y="26056.8"/>
  <text x="45" y="26061.9" font-family="Tahoma" font-size="12" transform="rotate(90 45,26061.9)" text-rendering="optimizeSpeed" fill="#000000">Linux (mips64) (1)</text>
  <rect fill="blue" height="0.1" stroke="black" width="12" x="60" y="26056.8"/>
  <text x="60" y="26061.9" font-family="Tahoma" font-size="12" transform="rotate(90 60,26061.9)" text-rendering="optimizeSpeed" fill="#000000">Linux (mips64el) (1)</text>
  <rect fill="blue" height="0.1" stroke="black" width="12" x="75" y="26056.8"/>
  <text x="75" y="26061.9" font-family="Tahoma" font-size="12" transform="rotate(90 75,26061.9)" text-rendering="optimizeSpeed" fill="#000000">Linux (mipsel) (1)</text>
  <rect fill="blue" height="0.1" stroke="black" width="12" x="90" y="26056.8"/>
  <text x="90" y="26061.9" font-family="Tahoma" font-size="12" transform="rotate(90 90,26061.9)" text-rendering="optimizeSpeed" fill="#000000">Linux (zArch_64) (1)</text>
  <rect fill="blue" height="0.1" stroke="black" width="12" x="105" y="26056.8"/>
  <text x="105" y="26061.9" font-family="Tahoma" font-size="12" transform="rotate(90 105,26061.9)" text-rendering="optimizeSpeed" fill="#000000">NetBSD (i386) (1)</text>
  <rect fill="blue" height="0.1" stroke="black" width="12" x="120" y="26056.8"/>
  <text x="120" y="26061.9" font-family="Tahoma" font-size="12" transform="rotate(90 120,26061.9)" text-rendering="optimizeSpeed" fill="#000000">Windows NT (x86) (1)</text>
  <rect fill="blue" height="0.1" stroke="black" width="12" x="135" y="26056.8"/>
  <text x="135" y="26061.9" font-family="Tahoma" font-size="12" transform="rotate(90 135,26061.9)" text-rendering="optimizeSpeed" fill="#000000">Windows Server 2016 Standard (amd64) (1)</text>
  <rect fill="blue" height="0.2" stroke="black" width="12" x="150" y="26056.7"/>
  <text x="150" y="26061.9" font-family="Tahoma" font-size="12" transform="rotate(90 150,26061.9)" text-rendering="optimizeSpeed" fill="#000000">HP-UX (PA_RISC2.0W) (2)</text>
  <rect fill="blue" height="0.2" stroke="black" width="12" x="165" y="26056.7"/>
  <text x="165" y="26061.9" font-family="Tahoma" font-size="12" transform="rotate(90 165,26061.9)" text-rendering="optimizeSpeed" fill="#000000">Linux (mips) (2)</text>
  <rect fill="blue" height="0.2" stroke="black" width="12" x="180" y="26056.7"/>
  <text x="180" y="26061.9" font-family="Tahoma" font-size="12" transform="rotate(90 180,26061.9)" text-rendering="optimizeSpeed" fill="#000000">NetBSD (amd64) (2)</text>
  <rect fill="blue" height="0.2" stroke="black" width="12" x="195" y="26056.7"/>
  <text x="195" y="26061.9" font-family="Tahoma" font-size="12" transform="rotate(90 195,26061.9)" text-rendering="optimizeSpeed" fill="#000000">OS/400 (PowerPC) (2)</text>
  <rect fill="blue" height="0.2" stroke="black" width="12" x="210" y="26056.7"/>
  <text x="210" y="26061.9" font-family="Tahoma" font-size="12" transform="rotate(90 210,26061.9)" text-rendering="optimizeSpeed" fill="#000000">OpenBSD (i386) (2)</text>
  <rect fill="blue" height="0.2" stroke="black" width="12" x="225" y="26056.7"/>
  <text x="225" y="26061.9" font-family="Tahoma" font-size="12" transform="rotate(90 225,26061.9)" text-rendering="optimizeSpeed" fill="#000000">Windows Server 8 (amd64) (2)</text>
  <rect fill="blue" height="0.3" stroke="black" width="12" x="240" y="26056.6"/>
  <text x="240" y="26061.9" font-family="Tahoma" font-size="12" transform="rotate(90 240,26061.9)" text-rendering="optimizeSpeed" fill="#000000">Linux (e2k) (3)</text>
  <rect fill="blue" height="0.3" stroke="black" width="12" x="255" y="26056.6"/>
  <text x="255" y="26061.9" font-family="Tahoma" font-size="12" transform="rotate(90 255,26061.9)" text-rendering="optimizeSpeed" fill="#000000">Mac OS X (i386) (3)</text>
  <rect fill="blue" height="0.3" stroke="black" width="12" x="270" y="26056.6"/>
  <text x="270" y="26061.9" font-family="Tahoma" font-size="12" transform="rotate(90 270,26061.9)" text-rendering="optimizeSpeed" fill="#000000">NONSTOP_KERNEL (IA64N) (3)</text>
  <rect fill="blue" height="0.3" stroke="black" width="12" x="285" y="26056.6"/>
  <text x="285" y="26061.9" font-family="Tahoma" font-size="12" transform="rotate(90 285,26061.9)" text-rendering="optimizeSpeed" fill="#000000">OS/400 (ppc64) (3)</text>
  <rect fill="blue" height="0.3" stroke="black" width="12" x="300" y="26056.6"/>
  <text x="300" y="26061.9" font-family="Tahoma" font-size="12" transform="rotate(90 300,26061.9)" text-rendering="optimizeSpeed" fill="#000000">Windows Server 2016 (amd64) (3)</text>
  <rect fill="blue" height="0.3" stroke="black" width="12" x="315" y="26056.6"/>
  <text x="315" y="26061.9" font-family="Tahoma" font-size="12" transform="rotate(90 315,26061.9)" text-rendering="optimizeSpeed" fill="#000000">z/OS (s390) (3)</text>
  <rect fill="blue" height="0.5" stroke="black" width="12" x="330" y="26056.4"/>
  <text x="330" y="26061.9" font-family="Tahoma" font-size="12" transform="rotate(90 330,26061.9)" text-rendering="optimizeSpeed" fill="#000000">Linux (sparcv9) (5)</text>
  <rect fill="blue" height="0.5" stroke="black" width="12" x="345" y="26056.4"/>
  <text x="345" y="26061.9" font-family="Tahoma" font-size="12" transform="rotate(90 345,26061.9)" text-rendering="optimizeSpeed" fill="#000000">Windows Server 2003 (amd64) (5)</text>
  <rect fill="blue" height="0.7" stroke="black" width="12" x="360" y="26056.2"/>
  <text x="360" y="26061.9" font-family="Tahoma" font-size="12" transform="rotate(90 360,26061.9)" text-rendering="optimizeSpeed" fill="#000000">Windows (amd64) (7)</text>
  <rect fill="blue" height="0.8" stroke="black" width="12" x="375" y="26056.1"/>
  <text x="375" y="26061.9" font-family="Tahoma" font-size="12" transform="rotate(90 375,26061.9)" text-rendering="optimizeSpeed" fill="#000000">HP-UX (ia64) (8)</text>
  <rect fill="blue" height="0.9" stroke="black" width="12" x="390" y="26056.0"/>
  <text x="390" y="26061.9" font-family="Tahoma" font-size="12" transform="rotate(90 390,26061.9)" text-rendering="optimizeSpeed" fill="#000000">Windows 2000 (x86) (9)</text>
  <rect fill="blue" height="0.9" stroke="black" width="12" x="405" y="26056.0"/>
  <text x="405" y="26061.9" font-family="Tahoma" font-size="12" transform="rotate(90 405,26061.9)" text-rendering="optimizeSpeed" fill="#000000">Windows Server 2003 (x86) (9)</text>
  <rect fill="blue" height="1.0" stroke="black" width="12" x="420" y="26055.9"/>
  <text x="420" y="26061.9" font-family="Tahoma" font-size="12" transform="rotate(90 420,26061.9)" text-rendering="optimizeSpeed" fill="#000000">Linux (ia64) (10)</text>
  <rect fill="blue" height="1.2" stroke="black" width="12" x="435" y="26055.7"/>
  <text x="435" y="26061.9" font-family="Tahoma" font-size="12" transform="rotate(90 435,26061.9)" text-rendering="optimizeSpeed" fill="#000000">Linux (s390) (12)</text>
  <rect fill="blue" height="1.5" stroke="black" width="12" x="450" y="26055.4"/>
  <text x="450" y="26061.9" font-family="Tahoma" font-size="12" transform="rotate(90 450,26061.9)" text-rendering="optimizeSpeed" fill="#000000">OS/400 (ppc) (15)</text>
  <rect fill="blue" height="1.7" stroke="black" width="12" x="465" y="26055.2"/>
  <text x="465" y="26061.9" font-family="Tahoma" font-size="12" transform="rotate(90 465,26061.9)" text-rendering="optimizeSpeed" fill="#000000">OpenBSD (amd64) (17)</text>
  <rect fill="blue" height="2.4" stroke="black" width="12" x="480" y="26054.5"/>
  <text x="480" y="26061.9" font-family="Tahoma" font-size="12" transform="rotate(90 480,26061.9)" text-rendering="optimizeSpeed" fill="#000000">Windows XP (amd64) (24)</text>
  <rect fill="blue" height="2.5" stroke="black" width="12" x="495" y="26054.4"/>
  <text x="495" y="26061.9" font-family="Tahoma" font-size="12" transform="rotate(90 495,26061.9)" text-rendering="optimizeSpeed" fill="#000000">Linux (ppc) (25)</text>
  <rect fill="blue" height="2.5" stroke="black" width="12" x="510" y="26054.4"/>
  <text x="510" y="26061.9" font-family="Tahoma" font-size="12" transform="rotate(90 510,26061.9)" text-rendering="optimizeSpeed" fill="#000000">Windows Vista (amd64) (25)</text>
  <rect fill="blue" height="4.0" stroke="black" width="12" x="525" y="26052.9"/>
  <text x="525" y="26061.9" font-family="Tahoma" font-size="12" transform="rotate(90 525,26061.9)" text-rendering="optimizeSpeed" fill="#000000">z/OS (s390x) (40)</text>
  <rect fill="blue" height="9.6" stroke="black" width="12" x="540" y="26047.3"/>
  <text x="540" y="26061.9" font-family="Tahoma" font-size="12" transform="rotate(90 540,26061.9)" text-rendering="optimizeSpeed" fill="#000000">HP-UX (IA64W) (96)</text>
  <rect fill="blue" height="9.6" stroke="black" width="12" x="555" y="26047.3"/>
  <text x="555" y="26061.9" font-family="Tahoma" font-size="12" transform="rotate(90 555,26061.9)" text-rendering="optimizeSpeed" fill="#000000">HP-UX (PA_RISC2.0) (96)</text>
  <rect fill="blue" height="12.8" stroke="black" width="12" x="570" y="26044.1"/>
  <text x="570" y="26061.9" font-family="Tahoma" font-size="12" transform="rotate(90 570,26061.9)" text-rendering="optimizeSpeed" fill="#000000">Linux (aarch64) (128)</text>
  <rect fill="blue" height="13.6" stroke="black" width="12" x="585" y="26043.3"/>
  <text x="585" y="26061.9" font-family="Tahoma" font-size="12" transform="rotate(90 585,26061.9)" text-rendering="optimizeSpeed" fill="#000000">Linux (x86) (136)</text>
  <rect fill="blue" height="19.1" stroke="black" width="12" x="600" y="26037.8"/>
  <text x="600" y="26061.9" font-family="Tahoma" font-size="12" transform="rotate(90 600,26061.9)" text-rendering="optimizeSpeed" fill="#000000">Linux (ppc64) (191)</text>
  <rect fill="blue" height="23.1" stroke="black" width="12" x="615" y="26033.8"/>
  <text x="615" y="26061.9" font-family="Tahoma" font-size="12" transform="rotate(90 615,26061.9)" text-rendering="optimizeSpeed" fill="#000000">Linux (s390x) (231)</text>
  <rect fill="blue" height="23.5" stroke="black" width="12" x="630" y="26033.4"/>
  <text x="630" y="26061.9" font-family="Tahoma" font-size="12" transform="rotate(90 630,26061.9)" text-rendering="optimizeSpeed" fill="#000000">FreeBSD (i386) (235)</text>
  <rect fill="blue" height="26.7" stroke="black" width="12" x="645" y="26030.2"/>
  <text x="645" y="26061.9" font-family="Tahoma" font-size="12" transform="rotate(90 645,26061.9)" text-rendering="optimizeSpeed" fill="#000000">Windows Vista (x86) (267)</text>
  <rect fill="blue" height="30.3" stroke="black" width="12" x="660" y="26026.6"/>
  <text x="660" y="26061.9" font-family="Tahoma" font-size="12" transform="rotate(90 660,26061.9)" text-rendering="optimizeSpeed" fill="#000000">Windows 2003 (amd64) (303)</text>
  <rect fill="blue" height="30.6" stroke="black" width="12" x="675" y="26026.3"/>
  <text x="675" y="26061.9" font-family="Tahoma" font-size="12" transform="rotate(90 675,26061.9)" text-rendering="optimizeSpeed" fill="#000000">Linux (ppc64le) (306)</text>
  <rect fill="blue" height="35.0" stroke="black" width="12" x="690" y="26021.9"/>
  <text x="690" y="26061.9" font-family="Tahoma" font-size="12" transform="rotate(90 690,26061.9)" text-rendering="optimizeSpeed" fill="#000000">HP-UX (IA64N) (350)</text>
  <rect fill="blue" height="40.4" stroke="black" width="12" x="705" y="26016.5"/>
  <text x="705" y="26061.9" font-family="Tahoma" font-size="12" transform="rotate(90 705,26061.9)" text-rendering="optimizeSpeed" fill="#000000">AIX (ppc) (404)</text>
  <rect fill="blue" height="52.3" stroke="black" width="12" x="720" y="26004.6"/>
  <text x="720" y="26061.9" font-family="Tahoma" font-size="12" transform="rotate(90 720,26061.9)" text-rendering="optimizeSpeed" fill="#000000">SunOS (amd64) (523)</text>
  <rect fill="blue" height="56.6" stroke="black" width="12" x="735" y="26000.3"/>
  <text x="735" y="26061.9" font-family="Tahoma" font-size="12" transform="rotate(90 735,26061.9)" text-rendering="optimizeSpeed" fill="#000000">Windows Server 2008 (amd64) (566)</text>
  <rect fill="blue" height="63.7" stroke="black" width="12" x="750" y="25993.2"/>
  <text x="750" y="26061.9" font-family="Tahoma" font-size="12" transform="rotate(90 750,26061.9)" text-rendering="optimizeSpeed" fill="#000000">FreeBSD (amd64) (637)</text>
  <rect fill="blue" height="65.9" stroke="black" width="12" x="765" y="25991.0"/>
  <text x="765" y="26061.9" font-family="Tahoma" font-size="12" transform="rotate(90 765,26061.9)" text-rendering="optimizeSpeed" fill="#000000">Windows 8 (x86) (659)</text>
  <rect fill="blue" height="70.8" stroke="black" width="12" x="780" y="25986.1"/>
  <text x="780" y="26061.9" font-family="Tahoma" font-size="12" transform="rotate(90 780,26061.9)" text-rendering="optimizeSpeed" fill="#000000">SunOS (sparcv9) (708)</text>
  <rect fill="blue" height="77.4" stroke="black" width="12" x="795" y="25979.5"/>
  <text x="795" y="26061.9" font-family="Tahoma" font-size="12" transform="rotate(90 795,26061.9)" text-rendering="optimizeSpeed" fill="#000000">Linux (arm) (774)</text>
  <rect fill="blue" height="90.6" stroke="black" width="12" x="810" y="25966.3"/>
  <text x="810" y="26061.9" font-family="Tahoma" font-size="12" transform="rotate(90 810,26061.9)" text-rendering="optimizeSpeed" fill="#000000">Windows 8 (amd64) (906)</text>
  <rect fill="blue" height="91.2" stroke="black" width="12" x="825" y="25965.7"/>
  <text x="825" y="26061.9" font-family="Tahoma" font-size="12" transform="rotate(90 825,26061.9)" text-rendering="optimizeSpeed" fill="#000000">Windows NT (unknown) (amd64) (912)</text>
  <rect fill="blue" height="94.4" stroke="black" width="12" x="840" y="25962.5"/>
  <text x="840" y="26061.9" font-family="Tahoma" font-size="12" transform="rotate(90 840,26061.9)" text-rendering="optimizeSpeed" fill="#000000">Windows NT (unknown) (x86) (944)</text>
  <rect fill="blue" height="116.0" stroke="black" width="12" x="855" y="25940.9"/>
  <text x="855" y="26061.9" font-family="Tahoma" font-size="12" transform="rotate(90 855,26061.9)" text-rendering="optimizeSpeed" fill="#000000">Windows Server 2008 (x86) (1160)</text>
  <rect fill="blue" height="117.9" stroke="black" width="12" x="870" y="25939.0"/>
  <text x="870" y="26061.9" font-family="Tahoma" font-size="12" transform="rotate(90 870,26061.9)" text-rendering="optimizeSpeed" fill="#000000">SunOS (x86) (1179)</text>
  <rect fill="blue" height="128.6" stroke="black" width="12" x="885" y="25928.3"/>
  <text x="885" y="26061.9" font-family="Tahoma" font-size="12" transform="rotate(90 885,26061.9)" text-rendering="optimizeSpeed" fill="#000000">SunOS (sparc) (1286)</text>
  <rect fill="blue" height="141.7" stroke="black" width="12" x="900" y="25915.2"/>
  <text x="900" y="26061.9" font-family="Tahoma" font-size="12" transform="rotate(90 900,26061.9)" text-rendering="optimizeSpeed" fill="#000000">Windows XP (x86) (1417)</text>
  <rect fill="blue" height="164.4" stroke="black" width="12" x="915" y="25892.5"/>
  <text x="915" y="26061.9" font-family="Tahoma" font-size="12" transform="rotate(90 915,26061.9)" text-rendering="optimizeSpeed" fill="#000000">AIX (ppc64) (1644)</text>
  <rect fill="blue" height="178.3" stroke="black" width="12" x="930" y="25878.6"/>
  <text x="930" y="26061.9" font-family="Tahoma" font-size="12" transform="rotate(90 930,26061.9)" text-rendering="optimizeSpeed" fill="#000000">Windows 2003 (x86) (1783)</text>
  <rect fill="blue" height="210.5" stroke="black" width="12" x="945" y="25846.4"/>
  <text x="945" y="26061.9" font-family="Tahoma" font-size="12" transform="rotate(90 945,26061.9)" text-rendering="optimizeSpeed" fill="#000000">Windows 8.1 (x86) (2105)</text>
  <rect fill="blue" height="246.0" stroke="black" width="12" x="960" y="25810.9"/>
  <text x="960" y="26061.9" font-family="Tahoma" font-size="12" transform="rotate(90 960,26061.9)" text-rendering="optimizeSpeed" fill="#000000">Windows Server 2012 (x86) (2460)</text>
  <rect fill="blue" height="264.7" stroke="black" width="12" x="975" y="25792.2"/>
  <text x="975" y="26061.9" font-family="Tahoma" font-size="12" transform="rotate(90 975,26061.9)" text-rendering="optimizeSpeed" fill="#000000">Windows 8.1 (amd64) (2647)</text>
  <rect fill="blue" height="429.3" stroke="black" width="12" x="990" y="25627.6"/>
  <text x="990" y="26061.9" font-family="Tahoma" font-size="12" transform="rotate(90 990,26061.9)" text-rendering="optimizeSpeed" fill="#000000">Windows 10 (amd64) (4293)</text>
  <rect fill="blue" height="432.3" stroke="black" width="12" x="1005" y="25624.6"/>
  <text x="1005" y="26061.9" font-family="Tahoma" font-size="12" transform="rotate(90 1005,26061.9)" text-rendering="optimizeSpeed" fill="#000000">Windows Server 2012 (amd64) (4323)</text>
  <rect fill="blue" height="456.3" stroke="black" width="12" x="1020" y="25600.6"/>
  <text x="1020" y="26061.9" font-family="Tahoma" font-size="12" transform="rotate(90 1020,26061.9)" text-rendering="optimizeSpeed" fill="#000000">Windows 10 (x86) (4563)</text>
  <rect fill="blue" height="928.8" stroke="black" width="12" x="1035" y="25128.1"/>
  <text x="1035" y="26061.9" font-family="Tahoma" font-size="12" transform="rotate(90 1035,26061.9)" text-rendering="optimizeSpeed" fill="#000000">Windows Server 2012 R2 (x86) (9288)</text>
  <rect fill="blue" height="1021.2" stroke="black" width="12" x="1050" y="25035.7"/>
  <text x="1050" y="26061.9" font-family="Tahoma" font-size="12" transform="rotate(90 1050,26061.9)" text-rendering="optimizeSpeed" fill="#000000">Windows Server 2008 R2 (x86) (10212)</text>
  <rect fill="blue" height="1123.3" stroke="black" width="12" x="1065" y="24933.6"/>
  <text x="1065" y="26061.9" font-family="Tahoma" font-size="12" transform="rotate(90 1065,26061.9)" text-rendering="optimizeSpeed" fill="#000000">Linux (i386) (11233)</text>
  <rect fill="blue" height="1357.8" stroke="black" width="12" x="1080" y="24699.1"/>
  <text x="1080" y="26061.9" font-family="Tahoma" font-size="12" transform="rotate(90 1080,26061.9)" text-rendering="optimizeSpeed" fill="#000000">Windows Server 2012 R2 (amd64) (13578)</text>
  <rect fill="blue" height="1546.5" stroke="black" width="12" x="1095" y="24510.4"/>
  <text x="1095" y="26061.9" font-family="Tahoma" font-size="12" transform="rotate(90 1095,26061.9)" text-rendering="optimizeSpeed" fill="#000000">Windows Server 2008 R2 (amd64) (15465)</text>
  <rect fill="blue" height="2013.5" stroke="black" width="12" x="1110" y="24043.4"/>
  <text x="1110" y="26061.9" font-family="Tahoma" font-size="12" transform="rotate(90 1110,26061.9)" text-rendering="optimizeSpeed" fill="#000000">Mac OS X (x86_64) (20135)</text>
  <rect fill="blue" height="2142.6" stroke="black" width="12" x="1125" y="23914.3"/>
  <text x="1125" y="26061.9" font-family="Tahoma" font-size="12" transform="rotate(90 1125,26061.9)" text-rendering="optimizeSpeed" fill="#000000">Windows 7 (amd64) (21426)</text>
  <rect fill="blue" height="2473.1" stroke="black" width="12" x="1140" y="23583.8"/>
  <text x="1140" y="26061.9" font-family="Tahoma" font-size="12" transform="rotate(90 1140,26061.9)" text-rendering="optimizeSpeed" fill="#000000">Windows 7 (x86) (24731)</text>
  <rect fill="blue" height="14170.4" stroke="black" width="12" x="1155" y="11886.5"/>
  <text x="1155" y="26061.9" font-family="Tahoma" font-size="12" transform="rotate(90 1155,26061.9)" text-rendering="optimizeSpeed" fill="#000000">N/A (141704)</text>
  <rect fill="blue" height="26006.9" stroke="black" width="12" x="1170" y="50.0"/>
  <text x="1170" y="26061.9" font-family="Tahoma" font-size="12" transform="rotate(90 1170,26061.9)" text-rendering="optimizeSpeed" fill="#000000">Linux (amd64) (260069)</text>
  <text x="10" y="40" font-family="Tahoma" font-size="20" text-rendering="optimizeSpeed" fill="#000000">Nodes (total: 566323)</text>
</svg>
