<svg xmlns="http://www.w3.org/2000/svg" version="1.1" preserveAspectRatio="xMidYMid meet" viewBox="0 0 695 10858.1">
  <rect fill="blue" height="0.0" stroke="black" width="12" x="15" y="10558.1"/>
  <text x="15" y="10563.1" font-family="Tahoma" font-size="12" transform="rotate(90 15,10563.1)" text-rendering="optimizeSpeed" fill="#000000">org-jenkinsci-plugins-SyncSources-MonitoringJobsProject (1)</text>
  <rect fill="blue" height="0.0" stroke="black" width="12" x="30" y="10558.1"/>
  <text x="30" y="10563.1" font-family="Tahoma" font-size="12" transform="rotate(90 30,10563.1)" text-rendering="optimizeSpeed" fill="#000000">org-jenkinsci-plugins-SyncSources-PreparationDailyProject (1)</text>
  <rect fill="blue" height="0.0" stroke="black" width="12" x="45" y="10558.1"/>
  <text x="45" y="10563.1" font-family="Tahoma" font-size="12" transform="rotate(90 45,10563.1)" text-rendering="optimizeSpeed" fill="#000000">org-jenkinsci-plugins-jobexecutors-toplevelitems-StoreVersion (1)</text>
  <rect fill="blue" height="0.0" stroke="black" width="12" x="60" y="10558.1"/>
  <text x="60" y="10563.1" font-family="Tahoma" font-size="12" transform="rotate(90 60,10563.1)" text-rendering="optimizeSpeed" fill="#000000">org-jenkinsci-plugins-pipeline-multibranch-external-PipelineMultiBranchExternalProject (1)</text>
  <rect fill="blue" height="0.0" stroke="black" width="12" x="75" y="10558.1"/>
  <text x="75" y="10563.1" font-family="Tahoma" font-size="12" transform="rotate(90 75,10563.1)" text-rendering="optimizeSpeed" fill="#000000">org-jenkinsci-plugins-jobexecutors-toplevelitems-PortalNotifier (3)</text>
  <rect fill="blue" height="0.0" stroke="black" width="12" x="90" y="10558.1"/>
  <text x="90" y="10563.1" font-family="Tahoma" font-size="12" transform="rotate(90 90,10563.1)" text-rendering="optimizeSpeed" fill="#000000">org-jenkinsci-plugins-workflow-multibranch-PropertyDrivenWorkflowMultiBranchProject (3)</text>
  <rect fill="blue" height="0.0" stroke="black" width="12" x="105" y="10558.1"/>
  <text x="105" y="10563.1" font-family="Tahoma" font-size="12" transform="rotate(90 105,10563.1)" text-rendering="optimizeSpeed" fill="#000000">hudson-model-CppProject (7)</text>
  <rect fill="blue" height="0.0" stroke="black" width="12" x="120" y="10558.1"/>
  <text x="120" y="10563.1" font-family="Tahoma" font-size="12" transform="rotate(90 120,10563.1)" text-rendering="optimizeSpeed" fill="#000000">hudson-model-HtmlProject (8)</text>
  <rect fill="blue" height="0.0" stroke="black" width="12" x="135" y="10558.1"/>
  <text x="135" y="10563.1" font-family="Tahoma" font-size="12" transform="rotate(90 135,10563.1)" text-rendering="optimizeSpeed" fill="#000000">org-jenkinsci-plugins-coordinator-dummy-model-CoordinatorProject (9)</text>
  <rect fill="blue" height="0.0" stroke="black" width="12" x="150" y="10558.1"/>
  <text x="150" y="10563.1" font-family="Tahoma" font-size="12" transform="rotate(90 150,10563.1)" text-rendering="optimizeSpeed" fill="#000000">hudson-drools-DroolsProject (16)</text>
  <rect fill="blue" height="0.0" stroke="black" width="12" x="165" y="10558.1"/>
  <text x="165" y="10563.1" font-family="Tahoma" font-size="12" transform="rotate(90 165,10563.1)" text-rendering="optimizeSpeed" fill="#000000">com-barchart-jenkins-cascade-CascadeProject (17)</text>
  <rect fill="blue" height="0.0" stroke="black" width="12" x="180" y="10558.1"/>
  <text x="180" y="10563.1" font-family="Tahoma" font-size="12" transform="rotate(90 180,10563.1)" text-rendering="optimizeSpeed" fill="#000000">org-jenkinsci-plugins-pluginintegrationnew-LcaToolProject (17)</text>
  <rect fill="blue" height="0.0" stroke="black" width="12" x="195" y="10558.1"/>
  <text x="195" y="10563.1" font-family="Tahoma" font-size="12" transform="rotate(90 195,10563.1)" text-rendering="optimizeSpeed" fill="#000000">org-jenkinsci-plugins-SyncSources-MakeProject (18)</text>
  <rect fill="blue" height="0.0" stroke="black" width="12" x="210" y="10558.1"/>
  <text x="210" y="10563.1" font-family="Tahoma" font-size="12" transform="rotate(90 210,10563.1)" text-rendering="optimizeSpeed" fill="#000000">hudson-plugin-smartjob-SmartJob (19)</text>
  <rect fill="blue" height="0.0" stroke="black" width="12" x="225" y="10558.1"/>
  <text x="225" y="10563.1" font-family="Tahoma" font-size="12" transform="rotate(90 225,10563.1)" text-rendering="optimizeSpeed" fill="#000000">org-jenkinsci-plugins-SyncSources-MakeFirProject (19)</text>
  <rect fill="blue" height="0.0" stroke="black" width="12" x="240" y="10558.1"/>
  <text x="240" y="10563.1" font-family="Tahoma" font-size="12" transform="rotate(90 240,10563.1)" text-rendering="optimizeSpeed" fill="#000000">org-jenkinsci-plugins-SyncSources-PreShelveProject (19)</text>
  <rect fill="blue" height="0.0" stroke="black" width="12" x="255" y="10558.1"/>
  <text x="255" y="10563.1" font-family="Tahoma" font-size="12" transform="rotate(90 255,10563.1)" text-rendering="optimizeSpeed" fill="#000000">org-jenkinsci-plugins-drupal-projects-DrupalProject (19)</text>
  <rect fill="blue" height="0.0" stroke="black" width="12" x="270" y="10558.1"/>
  <text x="270" y="10563.1" font-family="Tahoma" font-size="12" transform="rotate(90 270,10563.1)" text-rendering="optimizeSpeed" fill="#000000">org-jvnet-hudson-test-MockFolder (22)</text>
  <rect fill="blue" height="0.0" stroke="black" width="12" x="285" y="10558.1"/>
  <text x="285" y="10563.1" font-family="Tahoma" font-size="12" transform="rotate(90 285,10563.1)" text-rendering="optimizeSpeed" fill="#000000">captmorgan-ExternalProject (32)</text>
  <rect fill="blue" height="0.0" stroke="black" width="12" x="300" y="10558.1"/>
  <text x="300" y="10563.1" font-family="Tahoma" font-size="12" transform="rotate(90 300,10563.1)" text-rendering="optimizeSpeed" fill="#000000">hudson-model-GolangProject (32)</text>
  <rect fill="blue" height="0.1" stroke="black" width="12" x="315" y="10558.0"/>
  <text x="315" y="10563.1" font-family="Tahoma" font-size="12" transform="rotate(90 315,10563.1)" text-rendering="optimizeSpeed" fill="#000000">com-github-mjdetullio-jenkins-plugins-multibranch-MatrixMultiBranchProject (66)</text>
  <rect fill="blue" height="0.2" stroke="black" width="12" x="330" y="10557.9"/>
  <text x="330" y="10563.1" font-family="Tahoma" font-size="12" transform="rotate(90 330,10563.1)" text-rendering="optimizeSpeed" fill="#000000">org-jenkinsci-plugins-spoontrigger-SpoonProject (158)</text>
  <rect fill="blue" height="0.2" stroke="black" width="12" x="345" y="10557.9"/>
  <text x="345" y="10563.1" font-family="Tahoma" font-size="12" transform="rotate(90 345,10563.1)" text-rendering="optimizeSpeed" fill="#000000">hudson-plugins-job_dependency-projects-MasterProject (191)</text>
  <rect fill="blue" height="0.4" stroke="black" width="12" x="360" y="10557.7"/>
  <text x="360" y="10563.1" font-family="Tahoma" font-size="12" transform="rotate(90 360,10563.1)" text-rendering="optimizeSpeed" fill="#000000">hudson-model-RunOnceProject (372)</text>
  <rect fill="blue" height="0.4" stroke="black" width="12" x="375" y="10557.7"/>
  <text x="375" y="10563.1" font-family="Tahoma" font-size="12" transform="rotate(90 375,10563.1)" text-rendering="optimizeSpeed" fill="#000000">org-jenkinsci-plugins-coordinator-model-CoordinatorProject (422)</text>
  <rect fill="blue" height="0.7" stroke="black" width="12" x="390" y="10557.4"/>
  <text x="390" y="10563.1" font-family="Tahoma" font-size="12" transform="rotate(90 390,10563.1)" text-rendering="optimizeSpeed" fill="#000000">com-groupon-jenkins-dynamic-organizationcontainer-OrganizationContainer (694)</text>
  <rect fill="blue" height="0.8" stroke="black" width="12" x="405" y="10557.3"/>
  <text x="405" y="10563.1" font-family="Tahoma" font-size="12" transform="rotate(90 405,10563.1)" text-rendering="optimizeSpeed" fill="#000000">org-jenkinsci-plugins-pipeline-multibranch-defaults-PipelineMultiBranchDefaultsProject (804)</text>
  <rect fill="blue" height="1.2" stroke="black" width="12" x="420" y="10556.9"/>
  <text x="420" y="10563.1" font-family="Tahoma" font-size="12" transform="rotate(90 420,10563.1)" text-rendering="optimizeSpeed" fill="#000000">com-github-mjdetullio-jenkins-plugins-multibranch-MavenMultiBranchProject (1169)</text>
  <rect fill="blue" height="2.8" stroke="black" width="12" x="435" y="10555.3"/>
  <text x="435" y="10563.1" font-family="Tahoma" font-size="12" transform="rotate(90 435,10563.1)" text-rendering="optimizeSpeed" fill="#000000">com-github-mjdetullio-jenkins-plugins-multibranch-FreeStyleMultiBranchProject (2790)</text>
  <rect fill="blue" height="3.0" stroke="black" width="12" x="450" y="10555.1"/>
  <text x="450" y="10563.1" font-family="Tahoma" font-size="12" transform="rotate(90 450,10563.1)" text-rendering="optimizeSpeed" fill="#000000">org-jenkinsci-plugins-jobgenerator-JobGenerator (2989)</text>
  <rect fill="blue" height="3.7" stroke="black" width="12" x="465" y="10554.3"/>
  <text x="465" y="10563.1" font-family="Tahoma" font-size="12" transform="rotate(90 465,10563.1)" text-rendering="optimizeSpeed" fill="#000000">com-groupon-jenkins-dynamic-build-DynamicProject (3745)</text>
  <rect fill="blue" height="5.1" stroke="black" width="12" x="480" y="10553.0"/>
  <text x="480" y="10563.1" font-family="Tahoma" font-size="12" transform="rotate(90 480,10563.1)" text-rendering="optimizeSpeed" fill="#000000">hudson-model-ExternalJob (5057)</text>
  <rect fill="blue" height="5.9" stroke="black" width="12" x="495" y="10552.2"/>
  <text x="495" y="10563.1" font-family="Tahoma" font-size="12" transform="rotate(90 495,10563.1)" text-rendering="optimizeSpeed" fill="#000000">jenkins-branch-OrganizationFolder (5912)</text>
  <rect fill="blue" height="7.4" stroke="black" width="12" x="510" y="10550.7"/>
  <text x="510" y="10563.1" font-family="Tahoma" font-size="12" transform="rotate(90 510,10563.1)" text-rendering="optimizeSpeed" fill="#000000">hudson-ivy-IvyModuleSet (7403)</text>
  <rect fill="blue" height="23.0" stroke="black" width="12" x="525" y="10535.1"/>
  <text x="525" y="10563.1" font-family="Tahoma" font-size="12" transform="rotate(90 525,10563.1)" text-rendering="optimizeSpeed" fill="#000000">hudson-plugins-project_inheritance-projects-InheritanceProject (22953)</text>
  <rect fill="blue" height="112.2" stroke="black" width="12" x="540" y="10445.9"/>
  <text x="540" y="10563.1" font-family="Tahoma" font-size="12" transform="rotate(90 540,10563.1)" text-rendering="optimizeSpeed" fill="#000000">com-cloudbees-plugins-flow-BuildFlow (112224)</text>
  <rect fill="blue" height="136.8" stroke="black" width="12" x="555" y="10421.3"/>
  <text x="555" y="10563.1" font-family="Tahoma" font-size="12" transform="rotate(90 555,10563.1)" text-rendering="optimizeSpeed" fill="#000000">org-jenkinsci-plugins-workflow-multibranch-WorkflowMultiBranchProject (136762)</text>
  <rect fill="blue" height="185.9" stroke="black" width="12" x="570" y="10372.2"/>
  <text x="570" y="10563.1" font-family="Tahoma" font-size="12" transform="rotate(90 570,10563.1)" text-rendering="optimizeSpeed" fill="#000000">com-tikal-jenkins-plugins-multijob-MultiJobProject (185884)</text>
  <rect fill="blue" height="367.2" stroke="black" width="12" x="585" y="10190.9"/>
  <text x="585" y="10563.1" font-family="Tahoma" font-size="12" transform="rotate(90 585,10563.1)" text-rendering="optimizeSpeed" fill="#000000">com-cloudbees-hudson-plugins-folder-Folder (367198)</text>
  <rect fill="blue" height="378.0" stroke="black" width="12" x="600" y="10180.1"/>
  <text x="600" y="10563.1" font-family="Tahoma" font-size="12" transform="rotate(90 600,10563.1)" text-rendering="optimizeSpeed" fill="#000000">hudson-matrix-MatrixProject (377985)</text>
  <rect fill="blue" height="1396.3" stroke="black" width="12" x="615" y="9161.8"/>
  <text x="615" y="10563.1" font-family="Tahoma" font-size="12" transform="rotate(90 615,10563.1)" text-rendering="optimizeSpeed" fill="#000000">org-jenkinsci-plugins-workflow-job-WorkflowJob (1396277)</text>
  <rect fill="blue" height="1555.4" stroke="black" width="12" x="630" y="9002.7"/>
  <text x="630" y="10563.1" font-family="Tahoma" font-size="12" transform="rotate(90 630,10563.1)" text-rendering="optimizeSpeed" fill="#000000">hudson-maven-MavenModuleSet (1555385)</text>
  <rect fill="blue" height="10508.1" stroke="black" width="12" x="645" y="50.0"/>
  <text x="645" y="10563.1" font-family="Tahoma" font-size="12" transform="rotate(90 645,10563.1)" text-rendering="optimizeSpeed" fill="#000000">hudson-model-FreeStyleProject (10508085)</text>
  <text x="10" y="40" font-family="Tahoma" font-size="20" text-rendering="optimizeSpeed" fill="#000000">Jobs (total: 14694789)</text>
</svg>
