<svg xmlns="http://www.w3.org/2000/svg" version="1.1" preserveAspectRatio="xMidYMid meet" viewBox="0 0 1295 27108.0">
  <rect fill="blue" height="0.1" stroke="black" width="12" x="15" y="26807.9"/>
  <text x="15" y="26813.0" font-family="Tahoma" font-size="12" transform="rotate(90 15,26813.0)" text-rendering="optimizeSpeed" fill="#000000">CloudByte (amd64) (1)</text>
  <rect fill="blue" height="0.1" stroke="black" width="12" x="30" y="26807.9"/>
  <text x="30" y="26813.0" font-family="Tahoma" font-size="12" transform="rotate(90 30,26813.0)" text-rendering="optimizeSpeed" fill="#000000">DragonFlyBSD (amd64) (1)</text>
  <rect fill="blue" height="0.1" stroke="black" width="12" x="45" y="26807.9"/>
  <text x="45" y="26813.0" font-family="Tahoma" font-size="12" transform="rotate(90 45,26813.0)" text-rendering="optimizeSpeed" fill="#000000">HP-UX (PA_RISC2.0W) (1)</text>
  <rect fill="blue" height="0.1" stroke="black" width="12" x="60" y="26807.9"/>
  <text x="60" y="26813.0" font-family="Tahoma" font-size="12" transform="rotate(90 60,26813.0)" text-rendering="optimizeSpeed" fill="#000000">Linux (mipsel) (1)</text>
  <rect fill="blue" height="0.1" stroke="black" width="12" x="75" y="26807.9"/>
  <text x="75" y="26813.0" font-family="Tahoma" font-size="12" transform="rotate(90 75,26813.0)" text-rendering="optimizeSpeed" fill="#000000">Linux (zArch_64) (1)</text>
  <rect fill="blue" height="0.1" stroke="black" width="12" x="90" y="26807.9"/>
  <text x="90" y="26813.0" font-family="Tahoma" font-size="12" transform="rotate(90 90,26813.0)" text-rendering="optimizeSpeed" fill="#000000">Mac OS X (ppc) (1)</text>
  <rect fill="blue" height="0.1" stroke="black" width="12" x="105" y="26807.9"/>
  <text x="105" y="26813.0" font-family="Tahoma" font-size="12" transform="rotate(90 105,26813.0)" text-rendering="optimizeSpeed" fill="#000000">NONSTOP_KERNEL (x86_64N) (1)</text>
  <rect fill="blue" height="0.1" stroke="black" width="12" x="120" y="26807.9"/>
  <text x="120" y="26813.0" font-family="Tahoma" font-size="12" transform="rotate(90 120,26813.0)" text-rendering="optimizeSpeed" fill="#000000">NetBSD (amd64) (1)</text>
  <rect fill="blue" height="0.1" stroke="black" width="12" x="135" y="26807.9"/>
  <text x="135" y="26813.0" font-family="Tahoma" font-size="12" transform="rotate(90 135,26813.0)" text-rendering="optimizeSpeed" fill="#000000">Windows 10 Pro (amd64) (1)</text>
  <rect fill="blue" height="0.1" stroke="black" width="12" x="150" y="26807.9"/>
  <text x="150" y="26813.0" font-family="Tahoma" font-size="12" transform="rotate(90 150,26813.0)" text-rendering="optimizeSpeed" fill="#000000">Windows NT (x86) (1)</text>
  <rect fill="blue" height="0.1" stroke="black" width="12" x="165" y="26807.9"/>
  <text x="165" y="26813.0" font-family="Tahoma" font-size="12" transform="rotate(90 165,26813.0)" text-rendering="optimizeSpeed" fill="#000000">Windows Server 2016 Standard (amd64) (1)</text>
  <rect fill="blue" height="0.2" stroke="black" width="12" x="180" y="26807.8"/>
  <text x="180" y="26813.0" font-family="Tahoma" font-size="12" transform="rotate(90 180,26813.0)" text-rendering="optimizeSpeed" fill="#000000">FreeBSD (aarch64) (2)</text>
  <rect fill="blue" height="0.2" stroke="black" width="12" x="195" y="26807.8"/>
  <text x="195" y="26813.0" font-family="Tahoma" font-size="12" transform="rotate(90 195,26813.0)" text-rendering="optimizeSpeed" fill="#000000">Linux (mips64) (2)</text>
  <rect fill="blue" height="0.2" stroke="black" width="12" x="210" y="26807.8"/>
  <text x="210" y="26813.0" font-family="Tahoma" font-size="12" transform="rotate(90 210,26813.0)" text-rendering="optimizeSpeed" fill="#000000">OS/400 (PowerPC) (2)</text>
  <rect fill="blue" height="0.2" stroke="black" width="12" x="225" y="26807.8"/>
  <text x="225" y="26813.0" font-family="Tahoma" font-size="12" transform="rotate(90 225,26813.0)" text-rendering="optimizeSpeed" fill="#000000">Windows (x86) (2)</text>
  <rect fill="blue" height="0.3" stroke="black" width="12" x="240" y="26807.7"/>
  <text x="240" y="26813.0" font-family="Tahoma" font-size="12" transform="rotate(90 240,26813.0)" text-rendering="optimizeSpeed" fill="#000000">Mac OS X (i386) (3)</text>
  <rect fill="blue" height="0.3" stroke="black" width="12" x="255" y="26807.7"/>
  <text x="255" y="26813.0" font-family="Tahoma" font-size="12" transform="rotate(90 255,26813.0)" text-rendering="optimizeSpeed" fill="#000000">Windows 2000 (x86) (3)</text>
  <rect fill="blue" height="0.3" stroke="black" width="12" x="270" y="26807.7"/>
  <text x="270" y="26813.0" font-family="Tahoma" font-size="12" transform="rotate(90 270,26813.0)" text-rendering="optimizeSpeed" fill="#000000">Windows Server 8 (amd64) (3)</text>
  <rect fill="blue" height="0.4" stroke="black" width="12" x="285" y="26807.6"/>
  <text x="285" y="26813.0" font-family="Tahoma" font-size="12" transform="rotate(90 285,26813.0)" text-rendering="optimizeSpeed" fill="#000000">Linux (e2k) (4)</text>
  <rect fill="blue" height="0.4" stroke="black" width="12" x="300" y="26807.6"/>
  <text x="300" y="26813.0" font-family="Tahoma" font-size="12" transform="rotate(90 300,26813.0)" text-rendering="optimizeSpeed" fill="#000000">NONSTOP_KERNEL (IA64N) (4)</text>
  <rect fill="blue" height="0.4" stroke="black" width="12" x="315" y="26807.6"/>
  <text x="315" y="26813.0" font-family="Tahoma" font-size="12" transform="rotate(90 315,26813.0)" text-rendering="optimizeSpeed" fill="#000000">OS/400 (ppc64) (4)</text>
  <rect fill="blue" height="0.4" stroke="black" width="12" x="330" y="26807.6"/>
  <text x="330" y="26813.0" font-family="Tahoma" font-size="12" transform="rotate(90 330,26813.0)" text-rendering="optimizeSpeed" fill="#000000">OpenBSD (i386) (4)</text>
  <rect fill="blue" height="0.6" stroke="black" width="12" x="345" y="26807.4"/>
  <text x="345" y="26813.0" font-family="Tahoma" font-size="12" transform="rotate(90 345,26813.0)" text-rendering="optimizeSpeed" fill="#000000">z/OS (s390) (6)</text>
  <rect fill="blue" height="0.7" stroke="black" width="12" x="360" y="26807.3"/>
  <text x="360" y="26813.0" font-family="Tahoma" font-size="12" transform="rotate(90 360,26813.0)" text-rendering="optimizeSpeed" fill="#000000">HP-UX (ia64) (7)</text>
  <rect fill="blue" height="0.7" stroke="black" width="12" x="375" y="26807.3"/>
  <text x="375" y="26813.0" font-family="Tahoma" font-size="12" transform="rotate(90 375,26813.0)" text-rendering="optimizeSpeed" fill="#000000">Linux (sparcv9) (7)</text>
  <rect fill="blue" height="0.7" stroke="black" width="12" x="390" y="26807.3"/>
  <text x="390" y="26813.0" font-family="Tahoma" font-size="12" transform="rotate(90 390,26813.0)" text-rendering="optimizeSpeed" fill="#000000">Windows Server 2003 (amd64) (7)</text>
  <rect fill="blue" height="0.9" stroke="black" width="12" x="405" y="26807.1"/>
  <text x="405" y="26813.0" font-family="Tahoma" font-size="12" transform="rotate(90 405,26813.0)" text-rendering="optimizeSpeed" fill="#000000">Linux (ia64) (9)</text>
  <rect fill="blue" height="0.9" stroke="black" width="12" x="420" y="26807.1"/>
  <text x="420" y="26813.0" font-family="Tahoma" font-size="12" transform="rotate(90 420,26813.0)" text-rendering="optimizeSpeed" fill="#000000">Windows Server 2003 (x86) (9)</text>
  <rect fill="blue" height="1.2" stroke="black" width="12" x="435" y="26806.8"/>
  <text x="435" y="26813.0" font-family="Tahoma" font-size="12" transform="rotate(90 435,26813.0)" text-rendering="optimizeSpeed" fill="#000000">Linux (s390) (12)</text>
  <rect fill="blue" height="1.3" stroke="black" width="12" x="450" y="26806.7"/>
  <text x="450" y="26813.0" font-family="Tahoma" font-size="12" transform="rotate(90 450,26813.0)" text-rendering="optimizeSpeed" fill="#000000">Windows (amd64) (13)</text>
  <rect fill="blue" height="1.4" stroke="black" width="12" x="465" y="26806.6"/>
  <text x="465" y="26813.0" font-family="Tahoma" font-size="12" transform="rotate(90 465,26813.0)" text-rendering="optimizeSpeed" fill="#000000">NetBSD (i386) (14)</text>
  <rect fill="blue" height="1.6" stroke="black" width="12" x="480" y="26806.4"/>
  <text x="480" y="26813.0" font-family="Tahoma" font-size="12" transform="rotate(90 480,26813.0)" text-rendering="optimizeSpeed" fill="#000000">Linux (mips64el) (16)</text>
  <rect fill="blue" height="1.6" stroke="black" width="12" x="495" y="26806.4"/>
  <text x="495" y="26813.0" font-family="Tahoma" font-size="12" transform="rotate(90 495,26813.0)" text-rendering="optimizeSpeed" fill="#000000">OS/400 (ppc) (16)</text>
  <rect fill="blue" height="1.8" stroke="black" width="12" x="510" y="26806.2"/>
  <text x="510" y="26813.0" font-family="Tahoma" font-size="12" transform="rotate(90 510,26813.0)" text-rendering="optimizeSpeed" fill="#000000">OpenBSD (amd64) (18)</text>
  <rect fill="blue" height="1.9" stroke="black" width="12" x="525" y="26806.1"/>
  <text x="525" y="26813.0" font-family="Tahoma" font-size="12" transform="rotate(90 525,26813.0)" text-rendering="optimizeSpeed" fill="#000000">Windows XP (amd64) (19)</text>
  <rect fill="blue" height="2.1" stroke="black" width="12" x="540" y="26805.9"/>
  <text x="540" y="26813.0" font-family="Tahoma" font-size="12" transform="rotate(90 540,26813.0)" text-rendering="optimizeSpeed" fill="#000000">Windows Vista (amd64) (21)</text>
  <rect fill="blue" height="2.6" stroke="black" width="12" x="555" y="26805.4"/>
  <text x="555" y="26813.0" font-family="Tahoma" font-size="12" transform="rotate(90 555,26813.0)" text-rendering="optimizeSpeed" fill="#000000">Linux (ppc) (26)</text>
  <rect fill="blue" height="4.7" stroke="black" width="12" x="570" y="26803.3"/>
  <text x="570" y="26813.0" font-family="Tahoma" font-size="12" transform="rotate(90 570,26813.0)" text-rendering="optimizeSpeed" fill="#000000">z/OS (s390x) (47)</text>
  <rect fill="blue" height="7.2" stroke="black" width="12" x="585" y="26800.8"/>
  <text x="585" y="26813.0" font-family="Tahoma" font-size="12" transform="rotate(90 585,26813.0)" text-rendering="optimizeSpeed" fill="#000000">HP-UX (PA_RISC2.0) (72)</text>
  <rect fill="blue" height="8.7" stroke="black" width="12" x="600" y="26799.3"/>
  <text x="600" y="26813.0" font-family="Tahoma" font-size="12" transform="rotate(90 600,26813.0)" text-rendering="optimizeSpeed" fill="#000000">HP-UX (IA64W) (87)</text>
  <rect fill="blue" height="11.8" stroke="black" width="12" x="615" y="26796.2"/>
  <text x="615" y="26813.0" font-family="Tahoma" font-size="12" transform="rotate(90 615,26813.0)" text-rendering="optimizeSpeed" fill="#000000">Linux (x86) (118)</text>
  <rect fill="blue" height="12.4" stroke="black" width="12" x="630" y="26795.6"/>
  <text x="630" y="26813.0" font-family="Tahoma" font-size="12" transform="rotate(90 630,26813.0)" text-rendering="optimizeSpeed" fill="#000000">Windows Server 2016 (x86) (124)</text>
  <rect fill="blue" height="18.9" stroke="black" width="12" x="645" y="26789.1"/>
  <text x="645" y="26813.0" font-family="Tahoma" font-size="12" transform="rotate(90 645,26813.0)" text-rendering="optimizeSpeed" fill="#000000">Windows Vista (x86) (189)</text>
  <rect fill="blue" height="19.7" stroke="black" width="12" x="660" y="26788.3"/>
  <text x="660" y="26813.0" font-family="Tahoma" font-size="12" transform="rotate(90 660,26813.0)" text-rendering="optimizeSpeed" fill="#000000">Linux (ppc64) (197)</text>
  <rect fill="blue" height="19.8" stroke="black" width="12" x="675" y="26788.2"/>
  <text x="675" y="26813.0" font-family="Tahoma" font-size="12" transform="rotate(90 675,26813.0)" text-rendering="optimizeSpeed" fill="#000000">Linux (aarch64) (198)</text>
  <rect fill="blue" height="24.8" stroke="black" width="12" x="690" y="26783.2"/>
  <text x="690" y="26813.0" font-family="Tahoma" font-size="12" transform="rotate(90 690,26813.0)" text-rendering="optimizeSpeed" fill="#000000">FreeBSD (i386) (248)</text>
  <rect fill="blue" height="27.0" stroke="black" width="12" x="705" y="26781.0"/>
  <text x="705" y="26813.0" font-family="Tahoma" font-size="12" transform="rotate(90 705,26813.0)" text-rendering="optimizeSpeed" fill="#000000">Linux (s390x) (270)</text>
  <rect fill="blue" height="30.1" stroke="black" width="12" x="720" y="26777.9"/>
  <text x="720" y="26813.0" font-family="Tahoma" font-size="12" transform="rotate(90 720,26813.0)" text-rendering="optimizeSpeed" fill="#000000">Windows 2003 (amd64) (301)</text>
  <rect fill="blue" height="30.8" stroke="black" width="12" x="735" y="26777.2"/>
  <text x="735" y="26813.0" font-family="Tahoma" font-size="12" transform="rotate(90 735,26813.0)" text-rendering="optimizeSpeed" fill="#000000">Windows Server 2016 (amd64) (308)</text>
  <rect fill="blue" height="34.4" stroke="black" width="12" x="750" y="26773.6"/>
  <text x="750" y="26813.0" font-family="Tahoma" font-size="12" transform="rotate(90 750,26813.0)" text-rendering="optimizeSpeed" fill="#000000">Linux (ppc64le) (344)</text>
  <rect fill="blue" height="36.6" stroke="black" width="12" x="765" y="26771.4"/>
  <text x="765" y="26813.0" font-family="Tahoma" font-size="12" transform="rotate(90 765,26813.0)" text-rendering="optimizeSpeed" fill="#000000">HP-UX (IA64N) (366)</text>
  <rect fill="blue" height="41.7" stroke="black" width="12" x="780" y="26766.3"/>
  <text x="780" y="26813.0" font-family="Tahoma" font-size="12" transform="rotate(90 780,26813.0)" text-rendering="optimizeSpeed" fill="#000000">AIX (ppc) (417)</text>
  <rect fill="blue" height="56.1" stroke="black" width="12" x="795" y="26751.9"/>
  <text x="795" y="26813.0" font-family="Tahoma" font-size="12" transform="rotate(90 795,26813.0)" text-rendering="optimizeSpeed" fill="#000000">Windows Server 2008 (amd64) (561)</text>
  <rect fill="blue" height="59.6" stroke="black" width="12" x="810" y="26748.4"/>
  <text x="810" y="26813.0" font-family="Tahoma" font-size="12" transform="rotate(90 810,26813.0)" text-rendering="optimizeSpeed" fill="#000000">Windows 8 (x86) (596)</text>
  <rect fill="blue" height="60.0" stroke="black" width="12" x="825" y="26748.0"/>
  <text x="825" y="26813.0" font-family="Tahoma" font-size="12" transform="rotate(90 825,26813.0)" text-rendering="optimizeSpeed" fill="#000000">SunOS (amd64) (600)</text>
  <rect fill="blue" height="64.7" stroke="black" width="12" x="840" y="26743.3"/>
  <text x="840" y="26813.0" font-family="Tahoma" font-size="12" transform="rotate(90 840,26813.0)" text-rendering="optimizeSpeed" fill="#000000">FreeBSD (amd64) (647)</text>
  <rect fill="blue" height="74.7" stroke="black" width="12" x="855" y="26733.3"/>
  <text x="855" y="26813.0" font-family="Tahoma" font-size="12" transform="rotate(90 855,26813.0)" text-rendering="optimizeSpeed" fill="#000000">SunOS (sparcv9) (747)</text>
  <rect fill="blue" height="79.5" stroke="black" width="12" x="870" y="26728.5"/>
  <text x="870" y="26813.0" font-family="Tahoma" font-size="12" transform="rotate(90 870,26813.0)" text-rendering="optimizeSpeed" fill="#000000">Linux (arm) (795)</text>
  <rect fill="blue" height="94.6" stroke="black" width="12" x="885" y="26713.4"/>
  <text x="885" y="26813.0" font-family="Tahoma" font-size="12" transform="rotate(90 885,26813.0)" text-rendering="optimizeSpeed" fill="#000000">Windows NT (unknown) (x86) (946)</text>
  <rect fill="blue" height="98.2" stroke="black" width="12" x="900" y="26709.8"/>
  <text x="900" y="26813.0" font-family="Tahoma" font-size="12" transform="rotate(90 900,26813.0)" text-rendering="optimizeSpeed" fill="#000000">Windows NT (unknown) (amd64) (982)</text>
  <rect fill="blue" height="98.7" stroke="black" width="12" x="915" y="26709.3"/>
  <text x="915" y="26813.0" font-family="Tahoma" font-size="12" transform="rotate(90 915,26813.0)" text-rendering="optimizeSpeed" fill="#000000">Windows 8 (amd64) (987)</text>
  <rect fill="blue" height="102.8" stroke="black" width="12" x="930" y="26705.2"/>
  <text x="930" y="26813.0" font-family="Tahoma" font-size="12" transform="rotate(90 930,26813.0)" text-rendering="optimizeSpeed" fill="#000000">SunOS (x86) (1028)</text>
  <rect fill="blue" height="109.5" stroke="black" width="12" x="945" y="26698.5"/>
  <text x="945" y="26813.0" font-family="Tahoma" font-size="12" transform="rotate(90 945,26813.0)" text-rendering="optimizeSpeed" fill="#000000">Windows Server 2008 (x86) (1095)</text>
  <rect fill="blue" height="115.7" stroke="black" width="12" x="960" y="26692.3"/>
  <text x="960" y="26813.0" font-family="Tahoma" font-size="12" transform="rotate(90 960,26813.0)" text-rendering="optimizeSpeed" fill="#000000">SunOS (sparc) (1157)</text>
  <rect fill="blue" height="121.3" stroke="black" width="12" x="975" y="26686.7"/>
  <text x="975" y="26813.0" font-family="Tahoma" font-size="12" transform="rotate(90 975,26813.0)" text-rendering="optimizeSpeed" fill="#000000">Windows XP (x86) (1213)</text>
  <rect fill="blue" height="137.6" stroke="black" width="12" x="990" y="26670.4"/>
  <text x="990" y="26813.0" font-family="Tahoma" font-size="12" transform="rotate(90 990,26813.0)" text-rendering="optimizeSpeed" fill="#000000">AIX (ppc64) (1376)</text>
  <rect fill="blue" height="144.5" stroke="black" width="12" x="1005" y="26663.5"/>
  <text x="1005" y="26813.0" font-family="Tahoma" font-size="12" transform="rotate(90 1005,26813.0)" text-rendering="optimizeSpeed" fill="#000000">Windows 2003 (x86) (1445)</text>
  <rect fill="blue" height="206.1" stroke="black" width="12" x="1020" y="26601.9"/>
  <text x="1020" y="26813.0" font-family="Tahoma" font-size="12" transform="rotate(90 1020,26813.0)" text-rendering="optimizeSpeed" fill="#000000">Windows 8.1 (x86) (2061)</text>
  <rect fill="blue" height="226.4" stroke="black" width="12" x="1035" y="26581.6"/>
  <text x="1035" y="26813.0" font-family="Tahoma" font-size="12" transform="rotate(90 1035,26813.0)" text-rendering="optimizeSpeed" fill="#000000">Windows Server 2012 (x86) (2264)</text>
  <rect fill="blue" height="233.1" stroke="black" width="12" x="1050" y="26574.9"/>
  <text x="1050" y="26813.0" font-family="Tahoma" font-size="12" transform="rotate(90 1050,26813.0)" text-rendering="optimizeSpeed" fill="#000000">Windows 8.1 (amd64) (2331)</text>
  <rect fill="blue" height="416.3" stroke="black" width="12" x="1065" y="26391.7"/>
  <text x="1065" y="26813.0" font-family="Tahoma" font-size="12" transform="rotate(90 1065,26813.0)" text-rendering="optimizeSpeed" fill="#000000">Windows Server 2012 (amd64) (4163)</text>
  <rect fill="blue" height="490.4" stroke="black" width="12" x="1080" y="26317.6"/>
  <text x="1080" y="26813.0" font-family="Tahoma" font-size="12" transform="rotate(90 1080,26813.0)" text-rendering="optimizeSpeed" fill="#000000">Windows 10 (amd64) (4904)</text>
  <rect fill="blue" height="532.1" stroke="black" width="12" x="1095" y="26275.9"/>
  <text x="1095" y="26813.0" font-family="Tahoma" font-size="12" transform="rotate(90 1095,26813.0)" text-rendering="optimizeSpeed" fill="#000000">Windows 10 (x86) (5321)</text>
  <rect fill="blue" height="947.4" stroke="black" width="12" x="1110" y="25860.6"/>
  <text x="1110" y="26813.0" font-family="Tahoma" font-size="12" transform="rotate(90 1110,26813.0)" text-rendering="optimizeSpeed" fill="#000000">Windows Server 2012 R2 (x86) (9474)</text>
  <rect fill="blue" height="957.5" stroke="black" width="12" x="1125" y="25850.5"/>
  <text x="1125" y="26813.0" font-family="Tahoma" font-size="12" transform="rotate(90 1125,26813.0)" text-rendering="optimizeSpeed" fill="#000000">Windows Server 2008 R2 (x86) (9575)</text>
  <rect fill="blue" height="1066.7" stroke="black" width="12" x="1140" y="25741.3"/>
  <text x="1140" y="26813.0" font-family="Tahoma" font-size="12" transform="rotate(90 1140,26813.0)" text-rendering="optimizeSpeed" fill="#000000">Linux (i386) (10667)</text>
  <rect fill="blue" height="1508.6" stroke="black" width="12" x="1155" y="25299.4"/>
  <text x="1155" y="26813.0" font-family="Tahoma" font-size="12" transform="rotate(90 1155,26813.0)" text-rendering="optimizeSpeed" fill="#000000">Windows Server 2012 R2 (amd64) (15086)</text>
  <rect fill="blue" height="1743.4" stroke="black" width="12" x="1170" y="25064.6"/>
  <text x="1170" y="26813.0" font-family="Tahoma" font-size="12" transform="rotate(90 1170,26813.0)" text-rendering="optimizeSpeed" fill="#000000">Windows Server 2008 R2 (amd64) (17434)</text>
  <rect fill="blue" height="2040.9" stroke="black" width="12" x="1185" y="24767.1"/>
  <text x="1185" y="26813.0" font-family="Tahoma" font-size="12" transform="rotate(90 1185,26813.0)" text-rendering="optimizeSpeed" fill="#000000">Mac OS X (x86_64) (20409)</text>
  <rect fill="blue" height="2195.6" stroke="black" width="12" x="1200" y="24612.4"/>
  <text x="1200" y="26813.0" font-family="Tahoma" font-size="12" transform="rotate(90 1200,26813.0)" text-rendering="optimizeSpeed" fill="#000000">Windows 7 (amd64) (21956)</text>
  <rect fill="blue" height="2438.7" stroke="black" width="12" x="1215" y="24369.3"/>
  <text x="1215" y="26813.0" font-family="Tahoma" font-size="12" transform="rotate(90 1215,26813.0)" text-rendering="optimizeSpeed" fill="#000000">Windows 7 (x86) (24387)</text>
  <rect fill="blue" height="14875.1" stroke="black" width="12" x="1230" y="11932.9"/>
  <text x="1230" y="26813.0" font-family="Tahoma" font-size="12" transform="rotate(90 1230,26813.0)" text-rendering="optimizeSpeed" fill="#000000">N/A (148751)</text>
  <rect fill="blue" height="26758.0" stroke="black" width="12" x="1245" y="50.0"/>
  <text x="1245" y="26813.0" font-family="Tahoma" font-size="12" transform="rotate(90 1245,26813.0)" text-rendering="optimizeSpeed" fill="#000000">Linux (amd64) (267580)</text>
  <text x="10" y="40" font-family="Tahoma" font-size="20" text-rendering="optimizeSpeed" fill="#000000">Nodes (total: 584068)</text>
</svg>
