<svg xmlns="http://www.w3.org/2000/svg" version="1.1" preserveAspectRatio="xMidYMid meet" viewBox="0 0 1265 27890.8">
  <rect fill="blue" height="0.1" stroke="black" width="12" x="15" y="27590.7"/>
  <text x="15" y="27595.8" font-family="Tahoma" font-size="12" transform="rotate(90 15,27595.8)" text-rendering="optimizeSpeed" fill="#000000">BSDSUniX (amd64) (1)</text>
  <rect fill="blue" height="0.1" stroke="black" width="12" x="30" y="27590.7"/>
  <text x="30" y="27595.8" font-family="Tahoma" font-size="12" transform="rotate(90 30,27595.8)" text-rendering="optimizeSpeed" fill="#000000">CloudByte (amd64) (1)</text>
  <rect fill="blue" height="0.1" stroke="black" width="12" x="45" y="27590.7"/>
  <text x="45" y="27595.8" font-family="Tahoma" font-size="12" transform="rotate(90 45,27595.8)" text-rendering="optimizeSpeed" fill="#000000">Darwin (ppc) (1)</text>
  <rect fill="blue" height="0.1" stroke="black" width="12" x="60" y="27590.7"/>
  <text x="60" y="27595.8" font-family="Tahoma" font-size="12" transform="rotate(90 60,27595.8)" text-rendering="optimizeSpeed" fill="#000000">HP-UX (PA_RISC2.0W) (1)</text>
  <rect fill="blue" height="0.1" stroke="black" width="12" x="75" y="27590.7"/>
  <text x="75" y="27595.8" font-family="Tahoma" font-size="12" transform="rotate(90 75,27595.8)" text-rendering="optimizeSpeed" fill="#000000">Linux (e2k) (1)</text>
  <rect fill="blue" height="0.1" stroke="black" width="12" x="90" y="27590.7"/>
  <text x="90" y="27595.8" font-family="Tahoma" font-size="12" transform="rotate(90 90,27595.8)" text-rendering="optimizeSpeed" fill="#000000">Linux (mipsel) (1)</text>
  <rect fill="blue" height="0.1" stroke="black" width="12" x="105" y="27590.7"/>
  <text x="105" y="27595.8" font-family="Tahoma" font-size="12" transform="rotate(90 105,27595.8)" text-rendering="optimizeSpeed" fill="#000000">Linux (zArch_64) (1)</text>
  <rect fill="blue" height="0.1" stroke="black" width="12" x="120" y="27590.7"/>
  <text x="120" y="27595.8" font-family="Tahoma" font-size="12" transform="rotate(90 120,27595.8)" text-rendering="optimizeSpeed" fill="#000000">Mac OS X (ppc) (1)</text>
  <rect fill="blue" height="0.1" stroke="black" width="12" x="135" y="27590.7"/>
  <text x="135" y="27595.8" font-family="Tahoma" font-size="12" transform="rotate(90 135,27595.8)" text-rendering="optimizeSpeed" fill="#000000">NONSTOP_KERNEL (x86_64N) (1)</text>
  <rect fill="blue" height="0.1" stroke="black" width="12" x="150" y="27590.7"/>
  <text x="150" y="27595.8" font-family="Tahoma" font-size="12" transform="rotate(90 150,27595.8)" text-rendering="optimizeSpeed" fill="#000000">Windows Server 2016 Standard (amd64) (1)</text>
  <rect fill="blue" height="0.2" stroke="black" width="12" x="165" y="27590.6"/>
  <text x="165" y="27595.8" font-family="Tahoma" font-size="12" transform="rotate(90 165,27595.8)" text-rendering="optimizeSpeed" fill="#000000">FreeBSD (aarch64) (2)</text>
  <rect fill="blue" height="0.2" stroke="black" width="12" x="180" y="27590.6"/>
  <text x="180" y="27595.8" font-family="Tahoma" font-size="12" transform="rotate(90 180,27595.8)" text-rendering="optimizeSpeed" fill="#000000">Linux (mips64) (2)</text>
  <rect fill="blue" height="0.2" stroke="black" width="12" x="195" y="27590.6"/>
  <text x="195" y="27595.8" font-family="Tahoma" font-size="12" transform="rotate(90 195,27595.8)" text-rendering="optimizeSpeed" fill="#000000">OS/400 (PowerPC) (2)</text>
  <rect fill="blue" height="0.2" stroke="black" width="12" x="210" y="27590.6"/>
  <text x="210" y="27595.8" font-family="Tahoma" font-size="12" transform="rotate(90 210,27595.8)" text-rendering="optimizeSpeed" fill="#000000">Windows (x86) (2)</text>
  <rect fill="blue" height="0.2" stroke="black" width="12" x="225" y="27590.6"/>
  <text x="225" y="27595.8" font-family="Tahoma" font-size="12" transform="rotate(90 225,27595.8)" text-rendering="optimizeSpeed" fill="#000000">Windows Server 8 (amd64) (2)</text>
  <rect fill="blue" height="0.3" stroke="black" width="12" x="240" y="27590.5"/>
  <text x="240" y="27595.8" font-family="Tahoma" font-size="12" transform="rotate(90 240,27595.8)" text-rendering="optimizeSpeed" fill="#000000">Mac OS X (i386) (3)</text>
  <rect fill="blue" height="0.3" stroke="black" width="12" x="255" y="27590.5"/>
  <text x="255" y="27595.8" font-family="Tahoma" font-size="12" transform="rotate(90 255,27595.8)" text-rendering="optimizeSpeed" fill="#000000">Windows 2000 (x86) (3)</text>
  <rect fill="blue" height="0.3" stroke="black" width="12" x="270" y="27590.5"/>
  <text x="270" y="27595.8" font-family="Tahoma" font-size="12" transform="rotate(90 270,27595.8)" text-rendering="optimizeSpeed" fill="#000000">z/OS (s390) (3)</text>
  <rect fill="blue" height="0.4" stroke="black" width="12" x="285" y="27590.4"/>
  <text x="285" y="27595.8" font-family="Tahoma" font-size="12" transform="rotate(90 285,27595.8)" text-rendering="optimizeSpeed" fill="#000000">OS/400 (ppc64) (4)</text>
  <rect fill="blue" height="0.5" stroke="black" width="12" x="300" y="27590.3"/>
  <text x="300" y="27595.8" font-family="Tahoma" font-size="12" transform="rotate(90 300,27595.8)" text-rendering="optimizeSpeed" fill="#000000">Linux (ia64) (5)</text>
  <rect fill="blue" height="0.5" stroke="black" width="12" x="315" y="27590.3"/>
  <text x="315" y="27595.8" font-family="Tahoma" font-size="12" transform="rotate(90 315,27595.8)" text-rendering="optimizeSpeed" fill="#000000">OpenBSD (i386) (5)</text>
  <rect fill="blue" height="0.6" stroke="black" width="12" x="330" y="27590.2"/>
  <text x="330" y="27595.8" font-family="Tahoma" font-size="12" transform="rotate(90 330,27595.8)" text-rendering="optimizeSpeed" fill="#000000">HP-UX (ia64) (6)</text>
  <rect fill="blue" height="0.8" stroke="black" width="12" x="345" y="27590.0"/>
  <text x="345" y="27595.8" font-family="Tahoma" font-size="12" transform="rotate(90 345,27595.8)" text-rendering="optimizeSpeed" fill="#000000">Windows Server 2003 (amd64) (8)</text>
  <rect fill="blue" height="0.8" stroke="black" width="12" x="360" y="27590.0"/>
  <text x="360" y="27595.8" font-family="Tahoma" font-size="12" transform="rotate(90 360,27595.8)" text-rendering="optimizeSpeed" fill="#000000">Windows Server 2003 (x86) (8)</text>
  <rect fill="blue" height="1.0" stroke="black" width="12" x="375" y="27589.8"/>
  <text x="375" y="27595.8" font-family="Tahoma" font-size="12" transform="rotate(90 375,27595.8)" text-rendering="optimizeSpeed" fill="#000000">Linux (s390) (10)</text>
  <rect fill="blue" height="1.0" stroke="black" width="12" x="390" y="27589.8"/>
  <text x="390" y="27595.8" font-family="Tahoma" font-size="12" transform="rotate(90 390,27595.8)" text-rendering="optimizeSpeed" fill="#000000">Linux (sparcv9) (10)</text>
  <rect fill="blue" height="1.3" stroke="black" width="12" x="405" y="27589.5"/>
  <text x="405" y="27595.8" font-family="Tahoma" font-size="12" transform="rotate(90 405,27595.8)" text-rendering="optimizeSpeed" fill="#000000">NetBSD (i386) (13)</text>
  <rect fill="blue" height="1.3" stroke="black" width="12" x="420" y="27589.5"/>
  <text x="420" y="27595.8" font-family="Tahoma" font-size="12" transform="rotate(90 420,27595.8)" text-rendering="optimizeSpeed" fill="#000000">Windows (amd64) (13)</text>
  <rect fill="blue" height="1.4" stroke="black" width="12" x="435" y="27589.4"/>
  <text x="435" y="27595.8" font-family="Tahoma" font-size="12" transform="rotate(90 435,27595.8)" text-rendering="optimizeSpeed" fill="#000000">OS/400 (ppc) (14)</text>
  <rect fill="blue" height="1.6" stroke="black" width="12" x="450" y="27589.2"/>
  <text x="450" y="27595.8" font-family="Tahoma" font-size="12" transform="rotate(90 450,27595.8)" text-rendering="optimizeSpeed" fill="#000000">Windows Vista (amd64) (16)</text>
  <rect fill="blue" height="1.9" stroke="black" width="12" x="465" y="27588.9"/>
  <text x="465" y="27595.8" font-family="Tahoma" font-size="12" transform="rotate(90 465,27595.8)" text-rendering="optimizeSpeed" fill="#000000">Windows XP (amd64) (19)</text>
  <rect fill="blue" height="2.0" stroke="black" width="12" x="480" y="27588.8"/>
  <text x="480" y="27595.8" font-family="Tahoma" font-size="12" transform="rotate(90 480,27595.8)" text-rendering="optimizeSpeed" fill="#000000">Linux (mips64el) (20)</text>
  <rect fill="blue" height="2.0" stroke="black" width="12" x="495" y="27588.8"/>
  <text x="495" y="27595.8" font-family="Tahoma" font-size="12" transform="rotate(90 495,27595.8)" text-rendering="optimizeSpeed" fill="#000000">Linux (ppc) (20)</text>
  <rect fill="blue" height="2.1" stroke="black" width="12" x="510" y="27588.7"/>
  <text x="510" y="27595.8" font-family="Tahoma" font-size="12" transform="rotate(90 510,27595.8)" text-rendering="optimizeSpeed" fill="#000000">NONSTOP_KERNEL (IA64N) (21)</text>
  <rect fill="blue" height="2.2" stroke="black" width="12" x="525" y="27588.6"/>
  <text x="525" y="27595.8" font-family="Tahoma" font-size="12" transform="rotate(90 525,27595.8)" text-rendering="optimizeSpeed" fill="#000000">OpenBSD (amd64) (22)</text>
  <rect fill="blue" height="4.2" stroke="black" width="12" x="540" y="27586.6"/>
  <text x="540" y="27595.8" font-family="Tahoma" font-size="12" transform="rotate(90 540,27595.8)" text-rendering="optimizeSpeed" fill="#000000">z/OS (s390x) (42)</text>
  <rect fill="blue" height="7.2" stroke="black" width="12" x="555" y="27583.6"/>
  <text x="555" y="27595.8" font-family="Tahoma" font-size="12" transform="rotate(90 555,27595.8)" text-rendering="optimizeSpeed" fill="#000000">HP-UX (PA_RISC2.0) (72)</text>
  <rect fill="blue" height="9.0" stroke="black" width="12" x="570" y="27581.8"/>
  <text x="570" y="27595.8" font-family="Tahoma" font-size="12" transform="rotate(90 570,27595.8)" text-rendering="optimizeSpeed" fill="#000000">HP-UX (IA64W) (90)</text>
  <rect fill="blue" height="13.5" stroke="black" width="12" x="585" y="27577.3"/>
  <text x="585" y="27595.8" font-family="Tahoma" font-size="12" transform="rotate(90 585,27595.8)" text-rendering="optimizeSpeed" fill="#000000">Linux (x86) (135)</text>
  <rect fill="blue" height="19.2" stroke="black" width="12" x="600" y="27571.6"/>
  <text x="600" y="27595.8" font-family="Tahoma" font-size="12" transform="rotate(90 600,27595.8)" text-rendering="optimizeSpeed" fill="#000000">Windows Server 2016 (x86) (192)</text>
  <rect fill="blue" height="20.4" stroke="black" width="12" x="615" y="27570.4"/>
  <text x="615" y="27595.8" font-family="Tahoma" font-size="12" transform="rotate(90 615,27595.8)" text-rendering="optimizeSpeed" fill="#000000">Windows Vista (x86) (204)</text>
  <rect fill="blue" height="20.6" stroke="black" width="12" x="630" y="27570.2"/>
  <text x="630" y="27595.8" font-family="Tahoma" font-size="12" transform="rotate(90 630,27595.8)" text-rendering="optimizeSpeed" fill="#000000">Linux (ppc64) (206)</text>
  <rect fill="blue" height="22.5" stroke="black" width="12" x="645" y="27568.3"/>
  <text x="645" y="27595.8" font-family="Tahoma" font-size="12" transform="rotate(90 645,27595.8)" text-rendering="optimizeSpeed" fill="#000000">Linux (aarch64) (225)</text>
  <rect fill="blue" height="25.3" stroke="black" width="12" x="660" y="27565.5"/>
  <text x="660" y="27595.8" font-family="Tahoma" font-size="12" transform="rotate(90 660,27595.8)" text-rendering="optimizeSpeed" fill="#000000">Linux (s390x) (253)</text>
  <rect fill="blue" height="31.1" stroke="black" width="12" x="675" y="27559.7"/>
  <text x="675" y="27595.8" font-family="Tahoma" font-size="12" transform="rotate(90 675,27595.8)" text-rendering="optimizeSpeed" fill="#000000">Windows 2003 (amd64) (311)</text>
  <rect fill="blue" height="35.4" stroke="black" width="12" x="690" y="27555.4"/>
  <text x="690" y="27595.8" font-family="Tahoma" font-size="12" transform="rotate(90 690,27595.8)" text-rendering="optimizeSpeed" fill="#000000">FreeBSD (i386) (354)</text>
  <rect fill="blue" height="36.6" stroke="black" width="12" x="705" y="27554.2"/>
  <text x="705" y="27595.8" font-family="Tahoma" font-size="12" transform="rotate(90 705,27595.8)" text-rendering="optimizeSpeed" fill="#000000">HP-UX (IA64N) (366)</text>
  <rect fill="blue" height="40.0" stroke="black" width="12" x="720" y="27550.8"/>
  <text x="720" y="27595.8" font-family="Tahoma" font-size="12" transform="rotate(90 720,27595.8)" text-rendering="optimizeSpeed" fill="#000000">Linux (ppc64le) (400)</text>
  <rect fill="blue" height="43.7" stroke="black" width="12" x="735" y="27547.1"/>
  <text x="735" y="27595.8" font-family="Tahoma" font-size="12" transform="rotate(90 735,27595.8)" text-rendering="optimizeSpeed" fill="#000000">AIX (ppc) (437)</text>
  <rect fill="blue" height="46.4" stroke="black" width="12" x="750" y="27544.4"/>
  <text x="750" y="27595.8" font-family="Tahoma" font-size="12" transform="rotate(90 750,27595.8)" text-rendering="optimizeSpeed" fill="#000000">Windows Server 2016 (amd64) (464)</text>
  <rect fill="blue" height="52.7" stroke="black" width="12" x="765" y="27538.1"/>
  <text x="765" y="27595.8" font-family="Tahoma" font-size="12" transform="rotate(90 765,27595.8)" text-rendering="optimizeSpeed" fill="#000000">Windows Server 2008 (amd64) (527)</text>
  <rect fill="blue" height="58.6" stroke="black" width="12" x="780" y="27532.2"/>
  <text x="780" y="27595.8" font-family="Tahoma" font-size="12" transform="rotate(90 780,27595.8)" text-rendering="optimizeSpeed" fill="#000000">Windows 8 (x86) (586)</text>
  <rect fill="blue" height="62.8" stroke="black" width="12" x="795" y="27528.0"/>
  <text x="795" y="27595.8" font-family="Tahoma" font-size="12" transform="rotate(90 795,27595.8)" text-rendering="optimizeSpeed" fill="#000000">FreeBSD (amd64) (628)</text>
  <rect fill="blue" height="69.9" stroke="black" width="12" x="810" y="27520.9"/>
  <text x="810" y="27595.8" font-family="Tahoma" font-size="12" transform="rotate(90 810,27595.8)" text-rendering="optimizeSpeed" fill="#000000">SunOS (amd64) (699)</text>
  <rect fill="blue" height="84.5" stroke="black" width="12" x="825" y="27506.3"/>
  <text x="825" y="27595.8" font-family="Tahoma" font-size="12" transform="rotate(90 825,27595.8)" text-rendering="optimizeSpeed" fill="#000000">Windows NT (unknown) (amd64) (845)</text>
  <rect fill="blue" height="85.7" stroke="black" width="12" x="840" y="27505.1"/>
  <text x="840" y="27595.8" font-family="Tahoma" font-size="12" transform="rotate(90 840,27595.8)" text-rendering="optimizeSpeed" fill="#000000">SunOS (sparcv9) (857)</text>
  <rect fill="blue" height="86.7" stroke="black" width="12" x="855" y="27504.1"/>
  <text x="855" y="27595.8" font-family="Tahoma" font-size="12" transform="rotate(90 855,27595.8)" text-rendering="optimizeSpeed" fill="#000000">Linux (arm) (867)</text>
  <rect fill="blue" height="98.5" stroke="black" width="12" x="870" y="27492.3"/>
  <text x="870" y="27595.8" font-family="Tahoma" font-size="12" transform="rotate(90 870,27595.8)" text-rendering="optimizeSpeed" fill="#000000">Windows Server 2008 (x86) (985)</text>
  <rect fill="blue" height="105.4" stroke="black" width="12" x="885" y="27485.4"/>
  <text x="885" y="27595.8" font-family="Tahoma" font-size="12" transform="rotate(90 885,27595.8)" text-rendering="optimizeSpeed" fill="#000000">Windows 8 (amd64) (1054)</text>
  <rect fill="blue" height="107.6" stroke="black" width="12" x="900" y="27483.2"/>
  <text x="900" y="27595.8" font-family="Tahoma" font-size="12" transform="rotate(90 900,27595.8)" text-rendering="optimizeSpeed" fill="#000000">SunOS (x86) (1076)</text>
  <rect fill="blue" height="108.9" stroke="black" width="12" x="915" y="27481.9"/>
  <text x="915" y="27595.8" font-family="Tahoma" font-size="12" transform="rotate(90 915,27595.8)" text-rendering="optimizeSpeed" fill="#000000">SunOS (sparc) (1089)</text>
  <rect fill="blue" height="114.0" stroke="black" width="12" x="930" y="27476.8"/>
  <text x="930" y="27595.8" font-family="Tahoma" font-size="12" transform="rotate(90 930,27595.8)" text-rendering="optimizeSpeed" fill="#000000">Windows NT (unknown) (x86) (1140)</text>
  <rect fill="blue" height="115.5" stroke="black" width="12" x="945" y="27475.3"/>
  <text x="945" y="27595.8" font-family="Tahoma" font-size="12" transform="rotate(90 945,27595.8)" text-rendering="optimizeSpeed" fill="#000000">Windows XP (x86) (1155)</text>
  <rect fill="blue" height="140.7" stroke="black" width="12" x="960" y="27450.1"/>
  <text x="960" y="27595.8" font-family="Tahoma" font-size="12" transform="rotate(90 960,27595.8)" text-rendering="optimizeSpeed" fill="#000000">AIX (ppc64) (1407)</text>
  <rect fill="blue" height="142.8" stroke="black" width="12" x="975" y="27448.0"/>
  <text x="975" y="27595.8" font-family="Tahoma" font-size="12" transform="rotate(90 975,27595.8)" text-rendering="optimizeSpeed" fill="#000000">Windows 2003 (x86) (1428)</text>
  <rect fill="blue" height="207.2" stroke="black" width="12" x="990" y="27383.6"/>
  <text x="990" y="27595.8" font-family="Tahoma" font-size="12" transform="rotate(90 990,27595.8)" text-rendering="optimizeSpeed" fill="#000000">Windows 8.1 (x86) (2072)</text>
  <rect fill="blue" height="217.4" stroke="black" width="12" x="1005" y="27373.4"/>
  <text x="1005" y="27595.8" font-family="Tahoma" font-size="12" transform="rotate(90 1005,27595.8)" text-rendering="optimizeSpeed" fill="#000000">Windows Server 2012 (x86) (2174)</text>
  <rect fill="blue" height="235.6" stroke="black" width="12" x="1020" y="27355.2"/>
  <text x="1020" y="27595.8" font-family="Tahoma" font-size="12" transform="rotate(90 1020,27595.8)" text-rendering="optimizeSpeed" fill="#000000">Windows 8.1 (amd64) (2356)</text>
  <rect fill="blue" height="428.2" stroke="black" width="12" x="1035" y="27162.6"/>
  <text x="1035" y="27595.8" font-family="Tahoma" font-size="12" transform="rotate(90 1035,27595.8)" text-rendering="optimizeSpeed" fill="#000000">Windows Server 2012 (amd64) (4282)</text>
  <rect fill="blue" height="559.0" stroke="black" width="12" x="1050" y="27031.8"/>
  <text x="1050" y="27595.8" font-family="Tahoma" font-size="12" transform="rotate(90 1050,27595.8)" text-rendering="optimizeSpeed" fill="#000000">Windows 10 (x86) (5590)</text>
  <rect fill="blue" height="562.1" stroke="black" width="12" x="1065" y="27028.7"/>
  <text x="1065" y="27595.8" font-family="Tahoma" font-size="12" transform="rotate(90 1065,27595.8)" text-rendering="optimizeSpeed" fill="#000000">Windows 10 (amd64) (5621)</text>
  <rect fill="blue" height="952.6" stroke="black" width="12" x="1080" y="26638.2"/>
  <text x="1080" y="27595.8" font-family="Tahoma" font-size="12" transform="rotate(90 1080,27595.8)" text-rendering="optimizeSpeed" fill="#000000">Windows Server 2008 R2 (x86) (9526)</text>
  <rect fill="blue" height="974.1" stroke="black" width="12" x="1095" y="26616.7"/>
  <text x="1095" y="27595.8" font-family="Tahoma" font-size="12" transform="rotate(90 1095,27595.8)" text-rendering="optimizeSpeed" fill="#000000">Windows Server 2012 R2 (x86) (9741)</text>
  <rect fill="blue" height="1083.3" stroke="black" width="12" x="1110" y="26507.5"/>
  <text x="1110" y="27595.8" font-family="Tahoma" font-size="12" transform="rotate(90 1110,27595.8)" text-rendering="optimizeSpeed" fill="#000000">Linux (i386) (10833)</text>
  <rect fill="blue" height="1530.6" stroke="black" width="12" x="1125" y="26060.2"/>
  <text x="1125" y="27595.8" font-family="Tahoma" font-size="12" transform="rotate(90 1125,27595.8)" text-rendering="optimizeSpeed" fill="#000000">Windows Server 2012 R2 (amd64) (15306)</text>
  <rect fill="blue" height="1768.7" stroke="black" width="12" x="1140" y="25822.1"/>
  <text x="1140" y="27595.8" font-family="Tahoma" font-size="12" transform="rotate(90 1140,27595.8)" text-rendering="optimizeSpeed" fill="#000000">Windows Server 2008 R2 (amd64) (17687)</text>
  <rect fill="blue" height="2045.6" stroke="black" width="12" x="1155" y="25545.2"/>
  <text x="1155" y="27595.8" font-family="Tahoma" font-size="12" transform="rotate(90 1155,27595.8)" text-rendering="optimizeSpeed" fill="#000000">Mac OS X (x86_64) (20456)</text>
  <rect fill="blue" height="2182.1" stroke="black" width="12" x="1170" y="25408.7"/>
  <text x="1170" y="27595.8" font-family="Tahoma" font-size="12" transform="rotate(90 1170,27595.8)" text-rendering="optimizeSpeed" fill="#000000">Windows 7 (amd64) (21821)</text>
  <rect fill="blue" height="2510.0" stroke="black" width="12" x="1185" y="25080.8"/>
  <text x="1185" y="27595.8" font-family="Tahoma" font-size="12" transform="rotate(90 1185,27595.8)" text-rendering="optimizeSpeed" fill="#000000">Windows 7 (x86) (25100)</text>
  <rect fill="blue" height="15384.2" stroke="black" width="12" x="1200" y="12206.6"/>
  <text x="1200" y="27595.8" font-family="Tahoma" font-size="12" transform="rotate(90 1200,27595.8)" text-rendering="optimizeSpeed" fill="#000000">N/A (153842)</text>
  <rect fill="blue" height="27540.8" stroke="black" width="12" x="1215" y="50.0"/>
  <text x="1215" y="27595.8" font-family="Tahoma" font-size="12" transform="rotate(90 1215,27595.8)" text-rendering="optimizeSpeed" fill="#000000">Linux (amd64) (275408)</text>
  <text x="10" y="40" font-family="Tahoma" font-size="20" text-rendering="optimizeSpeed" fill="#000000">Nodes (total: 600152)</text>
</svg>
