<svg xmlns="http://www.w3.org/2000/svg" version="1.1" preserveAspectRatio="xMidYMid meet" viewBox="0 0 1310 26035.0">
  <rect fill="blue" height="0.1" stroke="black" width="12" x="15" y="25734.9"/>
  <text x="15" y="25740.0" font-family="Tahoma" font-size="12" transform="rotate(90 15,25740.0)" text-rendering="optimizeSpeed" fill="#000000">CloudByte (amd64) (1)</text>
  <rect fill="blue" height="0.1" stroke="black" width="12" x="30" y="25734.9"/>
  <text x="30" y="25740.0" font-family="Tahoma" font-size="12" transform="rotate(90 30,25740.0)" text-rendering="optimizeSpeed" fill="#000000">Darwin (ppc) (1)</text>
  <rect fill="blue" height="0.1" stroke="black" width="12" x="45" y="25734.9"/>
  <text x="45" y="25740.0" font-family="Tahoma" font-size="12" transform="rotate(90 45,25740.0)" text-rendering="optimizeSpeed" fill="#000000">FreeBSD (aarch64) (1)</text>
  <rect fill="blue" height="0.1" stroke="black" width="12" x="60" y="25734.9"/>
  <text x="60" y="25740.0" font-family="Tahoma" font-size="12" transform="rotate(90 60,25740.0)" text-rendering="optimizeSpeed" fill="#000000">Linux (mips64) (1)</text>
  <rect fill="blue" height="0.1" stroke="black" width="12" x="75" y="25734.9"/>
  <text x="75" y="25740.0" font-family="Tahoma" font-size="12" transform="rotate(90 75,25740.0)" text-rendering="optimizeSpeed" fill="#000000">Linux (sw) (1)</text>
  <rect fill="blue" height="0.1" stroke="black" width="12" x="90" y="25734.9"/>
  <text x="90" y="25740.0" font-family="Tahoma" font-size="12" transform="rotate(90 90,25740.0)" text-rendering="optimizeSpeed" fill="#000000">Mac OS X (ppc) (1)</text>
  <rect fill="blue" height="0.1" stroke="black" width="12" x="105" y="25734.9"/>
  <text x="105" y="25740.0" font-family="Tahoma" font-size="12" transform="rotate(90 105,25740.0)" text-rendering="optimizeSpeed" fill="#000000">Windows (x86) (1)</text>
  <rect fill="blue" height="0.1" stroke="black" width="12" x="120" y="25734.9"/>
  <text x="120" y="25740.0" font-family="Tahoma" font-size="12" transform="rotate(90 120,25740.0)" text-rendering="optimizeSpeed" fill="#000000">Windows 10 Pro (amd64) (1)</text>
  <rect fill="blue" height="0.1" stroke="black" width="12" x="135" y="25734.9"/>
  <text x="135" y="25740.0" font-family="Tahoma" font-size="12" transform="rotate(90 135,25740.0)" text-rendering="optimizeSpeed" fill="#000000">Windows NT (x86) (1)</text>
  <rect fill="blue" height="0.1" stroke="black" width="12" x="150" y="25734.9"/>
  <text x="150" y="25740.0" font-family="Tahoma" font-size="12" transform="rotate(90 150,25740.0)" text-rendering="optimizeSpeed" fill="#000000">Windows Server 2016 Standard (amd64) (1)</text>
  <rect fill="blue" height="0.2" stroke="black" width="12" x="165" y="25734.8"/>
  <text x="165" y="25740.0" font-family="Tahoma" font-size="12" transform="rotate(90 165,25740.0)" text-rendering="optimizeSpeed" fill="#000000">HP-UX (PA_RISC2.0W) (2)</text>
  <rect fill="blue" height="0.2" stroke="black" width="12" x="180" y="25734.8"/>
  <text x="180" y="25740.0" font-family="Tahoma" font-size="12" transform="rotate(90 180,25740.0)" text-rendering="optimizeSpeed" fill="#000000">Linux (mips) (2)</text>
  <rect fill="blue" height="0.2" stroke="black" width="12" x="195" y="25734.8"/>
  <text x="195" y="25740.0" font-family="Tahoma" font-size="12" transform="rotate(90 195,25740.0)" text-rendering="optimizeSpeed" fill="#000000">Linux (mipsel) (2)</text>
  <rect fill="blue" height="0.2" stroke="black" width="12" x="210" y="25734.8"/>
  <text x="210" y="25740.0" font-family="Tahoma" font-size="12" transform="rotate(90 210,25740.0)" text-rendering="optimizeSpeed" fill="#000000">Linux (zArch_64) (2)</text>
  <rect fill="blue" height="0.2" stroke="black" width="12" x="225" y="25734.8"/>
  <text x="225" y="25740.0" font-family="Tahoma" font-size="12" transform="rotate(90 225,25740.0)" text-rendering="optimizeSpeed" fill="#000000">Mac OS X (i386) (2)</text>
  <rect fill="blue" height="0.2" stroke="black" width="12" x="240" y="25734.8"/>
  <text x="240" y="25740.0" font-family="Tahoma" font-size="12" transform="rotate(90 240,25740.0)" text-rendering="optimizeSpeed" fill="#000000">OS/400 (PowerPC) (2)</text>
  <rect fill="blue" height="0.2" stroke="black" width="12" x="255" y="25734.8"/>
  <text x="255" y="25740.0" font-family="Tahoma" font-size="12" transform="rotate(90 255,25740.0)" text-rendering="optimizeSpeed" fill="#000000">Windows Server 8 (amd64) (2)</text>
  <rect fill="blue" height="0.3" stroke="black" width="12" x="270" y="25734.7"/>
  <text x="270" y="25740.0" font-family="Tahoma" font-size="12" transform="rotate(90 270,25740.0)" text-rendering="optimizeSpeed" fill="#000000">NetBSD (amd64) (3)</text>
  <rect fill="blue" height="0.3" stroke="black" width="12" x="285" y="25734.7"/>
  <text x="285" y="25740.0" font-family="Tahoma" font-size="12" transform="rotate(90 285,25740.0)" text-rendering="optimizeSpeed" fill="#000000">NetBSD (i386) (3)</text>
  <rect fill="blue" height="0.4" stroke="black" width="12" x="300" y="25734.6"/>
  <text x="300" y="25740.0" font-family="Tahoma" font-size="12" transform="rotate(90 300,25740.0)" text-rendering="optimizeSpeed" fill="#000000">OS/400 (ppc64) (4)</text>
  <rect fill="blue" height="0.4" stroke="black" width="12" x="315" y="25734.6"/>
  <text x="315" y="25740.0" font-family="Tahoma" font-size="12" transform="rotate(90 315,25740.0)" text-rendering="optimizeSpeed" fill="#000000">OpenBSD (i386) (4)</text>
  <rect fill="blue" height="0.5" stroke="black" width="12" x="330" y="25734.5"/>
  <text x="330" y="25740.0" font-family="Tahoma" font-size="12" transform="rotate(90 330,25740.0)" text-rendering="optimizeSpeed" fill="#000000">NONSTOP_KERNEL (IA64N) (5)</text>
  <rect fill="blue" height="0.5" stroke="black" width="12" x="345" y="25734.5"/>
  <text x="345" y="25740.0" font-family="Tahoma" font-size="12" transform="rotate(90 345,25740.0)" text-rendering="optimizeSpeed" fill="#000000">z/OS (s390) (5)</text>
  <rect fill="blue" height="0.7" stroke="black" width="12" x="360" y="25734.3"/>
  <text x="360" y="25740.0" font-family="Tahoma" font-size="12" transform="rotate(90 360,25740.0)" text-rendering="optimizeSpeed" fill="#000000">Linux (sparcv9) (7)</text>
  <rect fill="blue" height="0.7" stroke="black" width="12" x="375" y="25734.3"/>
  <text x="375" y="25740.0" font-family="Tahoma" font-size="12" transform="rotate(90 375,25740.0)" text-rendering="optimizeSpeed" fill="#000000">NONSTOP_KERNEL (x86_64N) (7)</text>
  <rect fill="blue" height="0.8" stroke="black" width="12" x="390" y="25734.2"/>
  <text x="390" y="25740.0" font-family="Tahoma" font-size="12" transform="rotate(90 390,25740.0)" text-rendering="optimizeSpeed" fill="#000000">Linux (mips64el) (8)</text>
  <rect fill="blue" height="0.8" stroke="black" width="12" x="405" y="25734.2"/>
  <text x="405" y="25740.0" font-family="Tahoma" font-size="12" transform="rotate(90 405,25740.0)" text-rendering="optimizeSpeed" fill="#000000">Windows 2000 (x86) (8)</text>
  <rect fill="blue" height="0.8" stroke="black" width="12" x="420" y="25734.2"/>
  <text x="420" y="25740.0" font-family="Tahoma" font-size="12" transform="rotate(90 420,25740.0)" text-rendering="optimizeSpeed" fill="#000000">Windows Server 2003 (amd64) (8)</text>
  <rect fill="blue" height="0.9" stroke="black" width="12" x="435" y="25734.1"/>
  <text x="435" y="25740.0" font-family="Tahoma" font-size="12" transform="rotate(90 435,25740.0)" text-rendering="optimizeSpeed" fill="#000000">HP-UX (ia64) (9)</text>
  <rect fill="blue" height="0.9" stroke="black" width="12" x="450" y="25734.1"/>
  <text x="450" y="25740.0" font-family="Tahoma" font-size="12" transform="rotate(90 450,25740.0)" text-rendering="optimizeSpeed" fill="#000000">Linux (s390) (9)</text>
  <rect fill="blue" height="1.0" stroke="black" width="12" x="465" y="25734.0"/>
  <text x="465" y="25740.0" font-family="Tahoma" font-size="12" transform="rotate(90 465,25740.0)" text-rendering="optimizeSpeed" fill="#000000">Windows Server 2003 (x86) (10)</text>
  <rect fill="blue" height="1.3" stroke="black" width="12" x="480" y="25733.7"/>
  <text x="480" y="25740.0" font-family="Tahoma" font-size="12" transform="rotate(90 480,25740.0)" text-rendering="optimizeSpeed" fill="#000000">Linux (ia64) (13)</text>
  <rect fill="blue" height="1.5" stroke="black" width="12" x="495" y="25733.5"/>
  <text x="495" y="25740.0" font-family="Tahoma" font-size="12" transform="rotate(90 495,25740.0)" text-rendering="optimizeSpeed" fill="#000000">OS/400 (ppc) (15)</text>
  <rect fill="blue" height="1.5" stroke="black" width="12" x="510" y="25733.5"/>
  <text x="510" y="25740.0" font-family="Tahoma" font-size="12" transform="rotate(90 510,25740.0)" text-rendering="optimizeSpeed" fill="#000000">Windows Vista (amd64) (15)</text>
  <rect fill="blue" height="1.6" stroke="black" width="12" x="525" y="25733.4"/>
  <text x="525" y="25740.0" font-family="Tahoma" font-size="12" transform="rotate(90 525,25740.0)" text-rendering="optimizeSpeed" fill="#000000">Windows (amd64) (16)</text>
  <rect fill="blue" height="1.7" stroke="black" width="12" x="540" y="25733.3"/>
  <text x="540" y="25740.0" font-family="Tahoma" font-size="12" transform="rotate(90 540,25740.0)" text-rendering="optimizeSpeed" fill="#000000">OpenBSD (amd64) (17)</text>
  <rect fill="blue" height="1.9" stroke="black" width="12" x="555" y="25733.1"/>
  <text x="555" y="25740.0" font-family="Tahoma" font-size="12" transform="rotate(90 555,25740.0)" text-rendering="optimizeSpeed" fill="#000000">Windows XP (amd64) (19)</text>
  <rect fill="blue" height="2.3" stroke="black" width="12" x="570" y="25732.7"/>
  <text x="570" y="25740.0" font-family="Tahoma" font-size="12" transform="rotate(90 570,25740.0)" text-rendering="optimizeSpeed" fill="#000000">Linux (ppc) (23)</text>
  <rect fill="blue" height="3.9" stroke="black" width="12" x="585" y="25731.1"/>
  <text x="585" y="25740.0" font-family="Tahoma" font-size="12" transform="rotate(90 585,25740.0)" text-rendering="optimizeSpeed" fill="#000000">HP-UX (IA64W) (39)</text>
  <rect fill="blue" height="4.0" stroke="black" width="12" x="600" y="25731.0"/>
  <text x="600" y="25740.0" font-family="Tahoma" font-size="12" transform="rotate(90 600,25740.0)" text-rendering="optimizeSpeed" fill="#000000">Windows Server 2016 (x86) (40)</text>
  <rect fill="blue" height="4.2" stroke="black" width="12" x="615" y="25730.8"/>
  <text x="615" y="25740.0" font-family="Tahoma" font-size="12" transform="rotate(90 615,25740.0)" text-rendering="optimizeSpeed" fill="#000000">z/OS (s390x) (42)</text>
  <rect fill="blue" height="8.4" stroke="black" width="12" x="630" y="25726.6"/>
  <text x="630" y="25740.0" font-family="Tahoma" font-size="12" transform="rotate(90 630,25740.0)" text-rendering="optimizeSpeed" fill="#000000">HP-UX (PA_RISC2.0) (84)</text>
  <rect fill="blue" height="9.4" stroke="black" width="12" x="645" y="25725.6"/>
  <text x="645" y="25740.0" font-family="Tahoma" font-size="12" transform="rotate(90 645,25740.0)" text-rendering="optimizeSpeed" fill="#000000">Windows Server 2016 (amd64) (94)</text>
  <rect fill="blue" height="13.0" stroke="black" width="12" x="660" y="25722.0"/>
  <text x="660" y="25740.0" font-family="Tahoma" font-size="12" transform="rotate(90 660,25740.0)" text-rendering="optimizeSpeed" fill="#000000">Linux (x86) (130)</text>
  <rect fill="blue" height="15.2" stroke="black" width="12" x="675" y="25719.8"/>
  <text x="675" y="25740.0" font-family="Tahoma" font-size="12" transform="rotate(90 675,25740.0)" text-rendering="optimizeSpeed" fill="#000000">Linux (aarch64) (152)</text>
  <rect fill="blue" height="20.7" stroke="black" width="12" x="690" y="25714.3"/>
  <text x="690" y="25740.0" font-family="Tahoma" font-size="12" transform="rotate(90 690,25740.0)" text-rendering="optimizeSpeed" fill="#000000">Linux (ppc64) (207)</text>
  <rect fill="blue" height="21.7" stroke="black" width="12" x="705" y="25713.3"/>
  <text x="705" y="25740.0" font-family="Tahoma" font-size="12" transform="rotate(90 705,25740.0)" text-rendering="optimizeSpeed" fill="#000000">Windows Vista (x86) (217)</text>
  <rect fill="blue" height="25.3" stroke="black" width="12" x="720" y="25709.7"/>
  <text x="720" y="25740.0" font-family="Tahoma" font-size="12" transform="rotate(90 720,25740.0)" text-rendering="optimizeSpeed" fill="#000000">Linux (s390x) (253)</text>
  <rect fill="blue" height="26.8" stroke="black" width="12" x="735" y="25708.2"/>
  <text x="735" y="25740.0" font-family="Tahoma" font-size="12" transform="rotate(90 735,25740.0)" text-rendering="optimizeSpeed" fill="#000000">FreeBSD (i386) (268)</text>
  <rect fill="blue" height="30.4" stroke="black" width="12" x="750" y="25704.6"/>
  <text x="750" y="25740.0" font-family="Tahoma" font-size="12" transform="rotate(90 750,25740.0)" text-rendering="optimizeSpeed" fill="#000000">Windows 2003 (amd64) (304)</text>
  <rect fill="blue" height="33.6" stroke="black" width="12" x="765" y="25701.4"/>
  <text x="765" y="25740.0" font-family="Tahoma" font-size="12" transform="rotate(90 765,25740.0)" text-rendering="optimizeSpeed" fill="#000000">Linux (ppc64le) (336)</text>
  <rect fill="blue" height="34.8" stroke="black" width="12" x="780" y="25700.2"/>
  <text x="780" y="25740.0" font-family="Tahoma" font-size="12" transform="rotate(90 780,25740.0)" text-rendering="optimizeSpeed" fill="#000000">HP-UX (IA64N) (348)</text>
  <rect fill="blue" height="40.2" stroke="black" width="12" x="795" y="25694.8"/>
  <text x="795" y="25740.0" font-family="Tahoma" font-size="12" transform="rotate(90 795,25740.0)" text-rendering="optimizeSpeed" fill="#000000">AIX (ppc) (402)</text>
  <rect fill="blue" height="57.1" stroke="black" width="12" x="810" y="25677.9"/>
  <text x="810" y="25740.0" font-family="Tahoma" font-size="12" transform="rotate(90 810,25740.0)" text-rendering="optimizeSpeed" fill="#000000">Windows Server 2008 (amd64) (571)</text>
  <rect fill="blue" height="58.7" stroke="black" width="12" x="825" y="25676.3"/>
  <text x="825" y="25740.0" font-family="Tahoma" font-size="12" transform="rotate(90 825,25740.0)" text-rendering="optimizeSpeed" fill="#000000">SunOS (amd64) (587)</text>
  <rect fill="blue" height="61.6" stroke="black" width="12" x="840" y="25673.4"/>
  <text x="840" y="25740.0" font-family="Tahoma" font-size="12" transform="rotate(90 840,25740.0)" text-rendering="optimizeSpeed" fill="#000000">Windows 8 (x86) (616)</text>
  <rect fill="blue" height="61.7" stroke="black" width="12" x="855" y="25673.3"/>
  <text x="855" y="25740.0" font-family="Tahoma" font-size="12" transform="rotate(90 855,25740.0)" text-rendering="optimizeSpeed" fill="#000000">FreeBSD (amd64) (617)</text>
  <rect fill="blue" height="74.9" stroke="black" width="12" x="870" y="25660.1"/>
  <text x="870" y="25740.0" font-family="Tahoma" font-size="12" transform="rotate(90 870,25740.0)" text-rendering="optimizeSpeed" fill="#000000">Linux (arm) (749)</text>
  <rect fill="blue" height="77.3" stroke="black" width="12" x="885" y="25657.7"/>
  <text x="885" y="25740.0" font-family="Tahoma" font-size="12" transform="rotate(90 885,25740.0)" text-rendering="optimizeSpeed" fill="#000000">SunOS (sparcv9) (773)</text>
  <rect fill="blue" height="80.6" stroke="black" width="12" x="900" y="25654.4"/>
  <text x="900" y="25740.0" font-family="Tahoma" font-size="12" transform="rotate(90 900,25740.0)" text-rendering="optimizeSpeed" fill="#000000">Windows NT (unknown) (x86) (806)</text>
  <rect fill="blue" height="90.1" stroke="black" width="12" x="915" y="25644.9"/>
  <text x="915" y="25740.0" font-family="Tahoma" font-size="12" transform="rotate(90 915,25740.0)" text-rendering="optimizeSpeed" fill="#000000">Windows 8 (amd64) (901)</text>
  <rect fill="blue" height="91.9" stroke="black" width="12" x="930" y="25643.1"/>
  <text x="930" y="25740.0" font-family="Tahoma" font-size="12" transform="rotate(90 930,25740.0)" text-rendering="optimizeSpeed" fill="#000000">Windows NT (unknown) (amd64) (919)</text>
  <rect fill="blue" height="109.2" stroke="black" width="12" x="945" y="25625.8"/>
  <text x="945" y="25740.0" font-family="Tahoma" font-size="12" transform="rotate(90 945,25740.0)" text-rendering="optimizeSpeed" fill="#000000">SunOS (x86) (1092)</text>
  <rect fill="blue" height="114.6" stroke="black" width="12" x="960" y="25620.4"/>
  <text x="960" y="25740.0" font-family="Tahoma" font-size="12" transform="rotate(90 960,25740.0)" text-rendering="optimizeSpeed" fill="#000000">SunOS (sparc) (1146)</text>
  <rect fill="blue" height="115.3" stroke="black" width="12" x="975" y="25619.7"/>
  <text x="975" y="25740.0" font-family="Tahoma" font-size="12" transform="rotate(90 975,25740.0)" text-rendering="optimizeSpeed" fill="#000000">Windows Server 2008 (x86) (1153)</text>
  <rect fill="blue" height="132.4" stroke="black" width="12" x="990" y="25602.6"/>
  <text x="990" y="25740.0" font-family="Tahoma" font-size="12" transform="rotate(90 990,25740.0)" text-rendering="optimizeSpeed" fill="#000000">Windows XP (x86) (1324)</text>
  <rect fill="blue" height="158.2" stroke="black" width="12" x="1005" y="25576.8"/>
  <text x="1005" y="25740.0" font-family="Tahoma" font-size="12" transform="rotate(90 1005,25740.0)" text-rendering="optimizeSpeed" fill="#000000">AIX (ppc64) (1582)</text>
  <rect fill="blue" height="167.3" stroke="black" width="12" x="1020" y="25567.7"/>
  <text x="1020" y="25740.0" font-family="Tahoma" font-size="12" transform="rotate(90 1020,25740.0)" text-rendering="optimizeSpeed" fill="#000000">Windows 2003 (x86) (1673)</text>
  <rect fill="blue" height="205.9" stroke="black" width="12" x="1035" y="25529.1"/>
  <text x="1035" y="25740.0" font-family="Tahoma" font-size="12" transform="rotate(90 1035,25740.0)" text-rendering="optimizeSpeed" fill="#000000">Windows 8.1 (x86) (2059)</text>
  <rect fill="blue" height="229.2" stroke="black" width="12" x="1050" y="25505.8"/>
  <text x="1050" y="25740.0" font-family="Tahoma" font-size="12" transform="rotate(90 1050,25740.0)" text-rendering="optimizeSpeed" fill="#000000">Windows Server 2012 (x86) (2292)</text>
  <rect fill="blue" height="244.5" stroke="black" width="12" x="1065" y="25490.5"/>
  <text x="1065" y="25740.0" font-family="Tahoma" font-size="12" transform="rotate(90 1065,25740.0)" text-rendering="optimizeSpeed" fill="#000000">Windows 8.1 (amd64) (2445)</text>
  <rect fill="blue" height="420.8" stroke="black" width="12" x="1080" y="25314.2"/>
  <text x="1080" y="25740.0" font-family="Tahoma" font-size="12" transform="rotate(90 1080,25740.0)" text-rendering="optimizeSpeed" fill="#000000">Windows Server 2012 (amd64) (4208)</text>
  <rect fill="blue" height="447.5" stroke="black" width="12" x="1095" y="25287.5"/>
  <text x="1095" y="25740.0" font-family="Tahoma" font-size="12" transform="rotate(90 1095,25740.0)" text-rendering="optimizeSpeed" fill="#000000">Windows 10 (amd64) (4475)</text>
  <rect fill="blue" height="474.0" stroke="black" width="12" x="1110" y="25261.0"/>
  <text x="1110" y="25740.0" font-family="Tahoma" font-size="12" transform="rotate(90 1110,25740.0)" text-rendering="optimizeSpeed" fill="#000000">Windows 10 (x86) (4740)</text>
  <rect fill="blue" height="892.4" stroke="black" width="12" x="1125" y="24842.6"/>
  <text x="1125" y="25740.0" font-family="Tahoma" font-size="12" transform="rotate(90 1125,25740.0)" text-rendering="optimizeSpeed" fill="#000000">Windows Server 2012 R2 (x86) (8924)</text>
  <rect fill="blue" height="974.0" stroke="black" width="12" x="1140" y="24761.0"/>
  <text x="1140" y="25740.0" font-family="Tahoma" font-size="12" transform="rotate(90 1140,25740.0)" text-rendering="optimizeSpeed" fill="#000000">Windows Server 2008 R2 (x86) (9740)</text>
  <rect fill="blue" height="1073.7" stroke="black" width="12" x="1155" y="24661.3"/>
  <text x="1155" y="25740.0" font-family="Tahoma" font-size="12" transform="rotate(90 1155,25740.0)" text-rendering="optimizeSpeed" fill="#000000">Linux (i386) (10737)</text>
  <rect fill="blue" height="1374.7" stroke="black" width="12" x="1170" y="24360.3"/>
  <text x="1170" y="25740.0" font-family="Tahoma" font-size="12" transform="rotate(90 1170,25740.0)" text-rendering="optimizeSpeed" fill="#000000">Windows Server 2012 R2 (amd64) (13747)</text>
  <rect fill="blue" height="1599.1" stroke="black" width="12" x="1185" y="24135.9"/>
  <text x="1185" y="25740.0" font-family="Tahoma" font-size="12" transform="rotate(90 1185,25740.0)" text-rendering="optimizeSpeed" fill="#000000">Windows Server 2008 R2 (amd64) (15991)</text>
  <rect fill="blue" height="1999.2" stroke="black" width="12" x="1200" y="23735.8"/>
  <text x="1200" y="25740.0" font-family="Tahoma" font-size="12" transform="rotate(90 1200,25740.0)" text-rendering="optimizeSpeed" fill="#000000">Mac OS X (x86_64) (19992)</text>
  <rect fill="blue" height="2101.5" stroke="black" width="12" x="1215" y="23633.5"/>
  <text x="1215" y="25740.0" font-family="Tahoma" font-size="12" transform="rotate(90 1215,25740.0)" text-rendering="optimizeSpeed" fill="#000000">Windows 7 (amd64) (21015)</text>
  <rect fill="blue" height="2390.0" stroke="black" width="12" x="1230" y="23345.0"/>
  <text x="1230" y="25740.0" font-family="Tahoma" font-size="12" transform="rotate(90 1230,25740.0)" text-rendering="optimizeSpeed" fill="#000000">Windows 7 (x86) (23900)</text>
  <rect fill="blue" height="14921.2" stroke="black" width="12" x="1245" y="10813.8"/>
  <text x="1245" y="25740.0" font-family="Tahoma" font-size="12" transform="rotate(90 1245,25740.0)" text-rendering="optimizeSpeed" fill="#000000">N/A (149212)</text>
  <rect fill="blue" height="25685.0" stroke="black" width="12" x="1260" y="50.0"/>
  <text x="1260" y="25740.0" font-family="Tahoma" font-size="12" transform="rotate(90 1260,25740.0)" text-rendering="optimizeSpeed" fill="#000000">Linux (amd64) (256850)</text>
  <text x="10" y="40" font-family="Tahoma" font-size="20" text-rendering="optimizeSpeed" fill="#000000">Nodes (total: 567984)</text>
</svg>
