<svg xmlns="http://www.w3.org/2000/svg" version="1.1" preserveAspectRatio="xMidYMid meet" viewBox="0 0 710 11341.9">
  <rect fill="blue" height="0.0" stroke="black" width="12" x="15" y="11041.9"/>
  <text x="15" y="11046.9" font-family="Tahoma" font-size="12" transform="rotate(90 15,11046.9)" text-rendering="optimizeSpeed" fill="#000000">hudson-model-PhpProject (1)</text>
  <rect fill="blue" height="0.0" stroke="black" width="12" x="30" y="11041.9"/>
  <text x="30" y="11046.9" font-family="Tahoma" font-size="12" transform="rotate(90 30,11046.9)" text-rendering="optimizeSpeed" fill="#000000">org-jenkinsci-plugins-gopaddle-Gopaddleproject (1)</text>
  <rect fill="blue" height="0.0" stroke="black" width="12" x="45" y="11041.9"/>
  <text x="45" y="11046.9" font-family="Tahoma" font-size="12" transform="rotate(90 45,11046.9)" text-rendering="optimizeSpeed" fill="#000000">org-jenkinsci-plugins-pluginintegrationnew-LcaToolProject (1)</text>
  <rect fill="blue" height="0.0" stroke="black" width="12" x="60" y="11041.9"/>
  <text x="60" y="11046.9" font-family="Tahoma" font-size="12" transform="rotate(90 60,11046.9)" text-rendering="optimizeSpeed" fill="#000000">org-jenkinsci-plugins-SyncSources-MonitoringJobsProject (2)</text>
  <rect fill="blue" height="0.0" stroke="black" width="12" x="75" y="11041.9"/>
  <text x="75" y="11046.9" font-family="Tahoma" font-size="12" transform="rotate(90 75,11046.9)" text-rendering="optimizeSpeed" fill="#000000">org-jenkinsci-plugins-SyncSources-PreparationDailyProject (2)</text>
  <rect fill="blue" height="0.0" stroke="black" width="12" x="90" y="11041.9"/>
  <text x="90" y="11046.9" font-family="Tahoma" font-size="12" transform="rotate(90 90,11046.9)" text-rendering="optimizeSpeed" fill="#000000">org-jenkinsci-plugins-jobexecutors-toplevelitems-StoreVersion (2)</text>
  <rect fill="blue" height="0.0" stroke="black" width="12" x="105" y="11041.9"/>
  <text x="105" y="11046.9" font-family="Tahoma" font-size="12" transform="rotate(90 105,11046.9)" text-rendering="optimizeSpeed" fill="#000000">org-cloudbees-literate-jenkins-LiterateMultibranchProject (3)</text>
  <rect fill="blue" height="0.0" stroke="black" width="12" x="120" y="11041.9"/>
  <text x="120" y="11046.9" font-family="Tahoma" font-size="12" transform="rotate(90 120,11046.9)" text-rendering="optimizeSpeed" fill="#000000">org-jenkinsci-plugins-jobexecutors-toplevelitems-PortalNotifier (4)</text>
  <rect fill="blue" height="0.0" stroke="black" width="12" x="135" y="11041.9"/>
  <text x="135" y="11046.9" font-family="Tahoma" font-size="12" transform="rotate(90 135,11046.9)" text-rendering="optimizeSpeed" fill="#000000">com-github-mjdetullio-jenkins-plugins-multibranch-IvyMultiBranchProject (6)</text>
  <rect fill="blue" height="0.0" stroke="black" width="12" x="150" y="11041.9"/>
  <text x="150" y="11046.9" font-family="Tahoma" font-size="12" transform="rotate(90 150,11046.9)" text-rendering="optimizeSpeed" fill="#000000">hudson-model-CppProject (7)</text>
  <rect fill="blue" height="0.0" stroke="black" width="12" x="165" y="11041.9"/>
  <text x="165" y="11046.9" font-family="Tahoma" font-size="12" transform="rotate(90 165,11046.9)" text-rendering="optimizeSpeed" fill="#000000">org-jenkinsci-plugins-coordinator-dummy-model-CoordinatorProject (10)</text>
  <rect fill="blue" height="0.0" stroke="black" width="12" x="180" y="11041.9"/>
  <text x="180" y="11046.9" font-family="Tahoma" font-size="12" transform="rotate(90 180,11046.9)" text-rendering="optimizeSpeed" fill="#000000">hudson-model-HtmlProject (12)</text>
  <rect fill="blue" height="0.0" stroke="black" width="12" x="195" y="11041.9"/>
  <text x="195" y="11046.9" font-family="Tahoma" font-size="12" transform="rotate(90 195,11046.9)" text-rendering="optimizeSpeed" fill="#000000">org-jvnet-hudson-test-MockFolder (17)</text>
  <rect fill="blue" height="0.0" stroke="black" width="12" x="210" y="11041.9"/>
  <text x="210" y="11046.9" font-family="Tahoma" font-size="12" transform="rotate(90 210,11046.9)" text-rendering="optimizeSpeed" fill="#000000">org-jenkinsci-plugins-drupal-projects-DrupalProject (18)</text>
  <rect fill="blue" height="0.0" stroke="black" width="12" x="225" y="11041.9"/>
  <text x="225" y="11046.9" font-family="Tahoma" font-size="12" transform="rotate(90 225,11046.9)" text-rendering="optimizeSpeed" fill="#000000">hudson-drools-DroolsProject (20)</text>
  <rect fill="blue" height="0.0" stroke="black" width="12" x="240" y="11041.9"/>
  <text x="240" y="11046.9" font-family="Tahoma" font-size="12" transform="rotate(90 240,11046.9)" text-rendering="optimizeSpeed" fill="#000000">hudson-plugin-smartjob-SmartJob (21)</text>
  <rect fill="blue" height="0.0" stroke="black" width="12" x="255" y="11041.8"/>
  <text x="255" y="11046.9" font-family="Tahoma" font-size="12" transform="rotate(90 255,11046.9)" text-rendering="optimizeSpeed" fill="#000000">com-barchart-jenkins-cascade-CascadeProject (24)</text>
  <rect fill="blue" height="0.0" stroke="black" width="12" x="270" y="11041.8"/>
  <text x="270" y="11046.9" font-family="Tahoma" font-size="12" transform="rotate(90 270,11046.9)" text-rendering="optimizeSpeed" fill="#000000">org-jenkinsci-plugins-SyncSources-MakeProject (28)</text>
  <rect fill="blue" height="0.0" stroke="black" width="12" x="285" y="11041.8"/>
  <text x="285" y="11046.9" font-family="Tahoma" font-size="12" transform="rotate(90 285,11046.9)" text-rendering="optimizeSpeed" fill="#000000">org-jenkinsci-plugins-SyncSources-MakeFirProject (29)</text>
  <rect fill="blue" height="0.0" stroke="black" width="12" x="300" y="11041.8"/>
  <text x="300" y="11046.9" font-family="Tahoma" font-size="12" transform="rotate(90 300,11046.9)" text-rendering="optimizeSpeed" fill="#000000">org-jenkinsci-plugins-SyncSources-PreShelveProject (29)</text>
  <rect fill="blue" height="0.0" stroke="black" width="12" x="315" y="11041.8"/>
  <text x="315" y="11046.9" font-family="Tahoma" font-size="12" transform="rotate(90 315,11046.9)" text-rendering="optimizeSpeed" fill="#000000">hudson-model-GolangProject (34)</text>
  <rect fill="blue" height="0.1" stroke="black" width="12" x="330" y="11041.8"/>
  <text x="330" y="11046.9" font-family="Tahoma" font-size="12" transform="rotate(90 330,11046.9)" text-rendering="optimizeSpeed" fill="#000000">captmorgan-ExternalProject (112)</text>
  <rect fill="blue" height="0.1" stroke="black" width="12" x="345" y="11041.8"/>
  <text x="345" y="11046.9" font-family="Tahoma" font-size="12" transform="rotate(90 345,11046.9)" text-rendering="optimizeSpeed" fill="#000000">com-github-mjdetullio-jenkins-plugins-multibranch-MatrixMultiBranchProject (121)</text>
  <rect fill="blue" height="0.2" stroke="black" width="12" x="360" y="11041.7"/>
  <text x="360" y="11046.9" font-family="Tahoma" font-size="12" transform="rotate(90 360,11046.9)" text-rendering="optimizeSpeed" fill="#000000">org-jenkinsci-plugins-spoontrigger-SpoonProject (154)</text>
  <rect fill="blue" height="0.2" stroke="black" width="12" x="375" y="11041.7"/>
  <text x="375" y="11046.9" font-family="Tahoma" font-size="12" transform="rotate(90 375,11046.9)" text-rendering="optimizeSpeed" fill="#000000">hudson-plugins-job_dependency-projects-MasterProject (188)</text>
  <rect fill="blue" height="0.4" stroke="black" width="12" x="390" y="11041.4"/>
  <text x="390" y="11046.9" font-family="Tahoma" font-size="12" transform="rotate(90 390,11046.9)" text-rendering="optimizeSpeed" fill="#000000">org-jenkinsci-plugins-coordinator-model-CoordinatorProject (439)</text>
  <rect fill="blue" height="0.7" stroke="black" width="12" x="405" y="11041.2"/>
  <text x="405" y="11046.9" font-family="Tahoma" font-size="12" transform="rotate(90 405,11046.9)" text-rendering="optimizeSpeed" fill="#000000">com-groupon-jenkins-dynamic-organizationcontainer-OrganizationContainer (709)</text>
  <rect fill="blue" height="1.1" stroke="black" width="12" x="420" y="11040.8"/>
  <text x="420" y="11046.9" font-family="Tahoma" font-size="12" transform="rotate(90 420,11046.9)" text-rendering="optimizeSpeed" fill="#000000">com-github-mjdetullio-jenkins-plugins-multibranch-MavenMultiBranchProject (1097)</text>
  <rect fill="blue" height="1.4" stroke="black" width="12" x="435" y="11040.4"/>
  <text x="435" y="11046.9" font-family="Tahoma" font-size="12" transform="rotate(90 435,11046.9)" text-rendering="optimizeSpeed" fill="#000000">org-jenkinsci-plugins-pipeline-multibranch-defaults-PipelineMultiBranchDefaultsProject (1434)</text>
  <rect fill="blue" height="3.2" stroke="black" width="12" x="450" y="11038.7"/>
  <text x="450" y="11046.9" font-family="Tahoma" font-size="12" transform="rotate(90 450,11046.9)" text-rendering="optimizeSpeed" fill="#000000">org-jenkinsci-plugins-jobgenerator-JobGenerator (3217)</text>
  <rect fill="blue" height="3.8" stroke="black" width="12" x="465" y="11038.0"/>
  <text x="465" y="11046.9" font-family="Tahoma" font-size="12" transform="rotate(90 465,11046.9)" text-rendering="optimizeSpeed" fill="#000000">com-groupon-jenkins-dynamic-build-DynamicProject (3829)</text>
  <rect fill="blue" height="3.9" stroke="black" width="12" x="480" y="11038.0"/>
  <text x="480" y="11046.9" font-family="Tahoma" font-size="12" transform="rotate(90 480,11046.9)" text-rendering="optimizeSpeed" fill="#000000">com-github-mjdetullio-jenkins-plugins-multibranch-FreeStyleMultiBranchProject (3876)</text>
  <rect fill="blue" height="5.5" stroke="black" width="12" x="495" y="11036.3"/>
  <text x="495" y="11046.9" font-family="Tahoma" font-size="12" transform="rotate(90 495,11046.9)" text-rendering="optimizeSpeed" fill="#000000">hudson-model-ExternalJob (5546)</text>
  <rect fill="blue" height="6.4" stroke="black" width="12" x="510" y="11035.4"/>
  <text x="510" y="11046.9" font-family="Tahoma" font-size="12" transform="rotate(90 510,11046.9)" text-rendering="optimizeSpeed" fill="#000000">hudson-ivy-IvyModuleSet (6441)</text>
  <rect fill="blue" height="9.5" stroke="black" width="12" x="525" y="11032.4"/>
  <text x="525" y="11046.9" font-family="Tahoma" font-size="12" transform="rotate(90 525,11046.9)" text-rendering="optimizeSpeed" fill="#000000">jenkins-branch-OrganizationFolder (9493)</text>
  <rect fill="blue" height="23.6" stroke="black" width="12" x="540" y="11018.3"/>
  <text x="540" y="11046.9" font-family="Tahoma" font-size="12" transform="rotate(90 540,11046.9)" text-rendering="optimizeSpeed" fill="#000000">hudson-plugins-project_inheritance-projects-InheritanceProject (23604)</text>
  <rect fill="blue" height="163.8" stroke="black" width="12" x="555" y="10878.1"/>
  <text x="555" y="11046.9" font-family="Tahoma" font-size="12" transform="rotate(90 555,11046.9)" text-rendering="optimizeSpeed" fill="#000000">com-cloudbees-plugins-flow-BuildFlow (163791)</text>
  <rect fill="blue" height="183.8" stroke="black" width="12" x="570" y="10858.1"/>
  <text x="570" y="11046.9" font-family="Tahoma" font-size="12" transform="rotate(90 570,11046.9)" text-rendering="optimizeSpeed" fill="#000000">org-jenkinsci-plugins-workflow-multibranch-WorkflowMultiBranchProject (183793)</text>
  <rect fill="blue" height="228.9" stroke="black" width="12" x="585" y="10813.0"/>
  <text x="585" y="11046.9" font-family="Tahoma" font-size="12" transform="rotate(90 585,11046.9)" text-rendering="optimizeSpeed" fill="#000000">com-tikal-jenkins-plugins-multijob-MultiJobProject (228905)</text>
  <rect fill="blue" height="243.9" stroke="black" width="12" x="600" y="10797.9"/>
  <text x="600" y="11046.9" font-family="Tahoma" font-size="12" transform="rotate(90 600,11046.9)" text-rendering="optimizeSpeed" fill="#000000">hudson-matrix-MatrixProject (243934)</text>
  <rect fill="blue" height="693.1" stroke="black" width="12" x="615" y="10348.7"/>
  <text x="615" y="11046.9" font-family="Tahoma" font-size="12" transform="rotate(90 615,11046.9)" text-rendering="optimizeSpeed" fill="#000000">com-cloudbees-hudson-plugins-folder-Folder (693139)</text>
  <rect fill="blue" height="1619.9" stroke="black" width="12" x="630" y="9422.0"/>
  <text x="630" y="11046.9" font-family="Tahoma" font-size="12" transform="rotate(90 630,11046.9)" text-rendering="optimizeSpeed" fill="#000000">hudson-maven-MavenModuleSet (1619895)</text>
  <rect fill="blue" height="2028.2" stroke="black" width="12" x="645" y="9013.7"/>
  <text x="645" y="11046.9" font-family="Tahoma" font-size="12" transform="rotate(90 645,11046.9)" text-rendering="optimizeSpeed" fill="#000000">org-jenkinsci-plugins-workflow-job-WorkflowJob (2028165)</text>
  <rect fill="blue" height="10991.9" stroke="black" width="12" x="660" y="50.0"/>
  <text x="660" y="11046.9" font-family="Tahoma" font-size="12" transform="rotate(90 660,11046.9)" text-rendering="optimizeSpeed" fill="#000000">hudson-model-FreeStyleProject (10991872)</text>
  <text x="10" y="40" font-family="Tahoma" font-size="20" text-rendering="optimizeSpeed" fill="#000000">Jobs (total: 16214025)</text>
</svg>
