<svg xmlns="http://www.w3.org/2000/svg" version="1.1" preserveAspectRatio="xMidYMid meet" viewBox="0 0 720 2360">
  <text x="30" y="40" font-family="sans-serif" font-size="16">Nodes, total: 522081</text>
  <path d="M 200,300 L 0.0,150.0 A 150,150 0 0 1 2.5,150.0 Z" fill="BurlyWood" stroke="black" stroke-width="1"/>
  <rect x="370" y="50" width="20" height="30" fill="BurlyWood" stroke="black" stroke-width="1"/>
  <text x="400" y="38" font-family="sans-serif" font-size="16">AIX (ppc) (602)</text>
  <path d="M 200,300 L 2.5,150.0 A 150,150 0 0 1 16.2,149.8 Z" fill="CadetBlue" stroke="black" stroke-width="1"/>
  <rect x="370" y="51" width="20" height="30" fill="CadetBlue" stroke="black" stroke-width="1"/>
  <text x="400" y="68" font-family="sans-serif" font-size="16">AIX (ppc64) (3240)</text>
  <path d="M 200,300 L 16.2,149.8 A 150,150 0 0 1 16.2,149.8 Z" fill="red" stroke="black" stroke-width="1"/>
  <rect x="370" y="52" width="20" height="30" fill="red" stroke="black" stroke-width="1"/>
  <text x="400" y="98" font-family="sans-serif" font-size="16">CloudByte (amd64) (1)</text>
  <path d="M 200,300 L 16.2,149.8 A 150,150 0 0 1 18.6,149.8 Z" fill="blue" stroke="black" stroke-width="1"/>
  <rect x="370" y="53" width="20" height="30" fill="blue" stroke="black" stroke-width="1"/>
  <text x="400" y="128" font-family="sans-serif" font-size="16">FreeBSD (amd64) (580)</text>
  <path d="M 200,300 L 18.6,149.8 A 150,150 0 0 1 19.6,149.8 Z" fill="yellow" stroke="black" stroke-width="1"/>
  <rect x="370" y="54" width="20" height="30" fill="yellow" stroke="black" stroke-width="1"/>
  <text x="400" y="158" font-family="sans-serif" font-size="16">FreeBSD (i386) (231)</text>
  <path d="M 200,300 L 19.6,149.8 A 150,150 0 0 1 21.0,149.7 Z" fill="green" stroke="black" stroke-width="1"/>
  <rect x="370" y="55" width="20" height="30" fill="green" stroke="black" stroke-width="1"/>
  <text x="400" y="188" font-family="sans-serif" font-size="16">HP-UX (IA64N) (336)</text>
  <path d="M 200,300 L 21.0,149.7 A 150,150 0 0 1 21.4,149.7 Z" fill="gold" stroke="black" stroke-width="1"/>
  <rect x="370" y="56" width="20" height="30" fill="gold" stroke="black" stroke-width="1"/>
  <text x="400" y="218" font-family="sans-serif" font-size="16">HP-UX (IA64W) (97)</text>
  <path d="M 200,300 L 21.4,149.7 A 150,150 0 0 1 21.8,149.7 Z" fill="brown" stroke="black" stroke-width="1"/>
  <rect x="370" y="57" width="20" height="30" fill="brown" stroke="black" stroke-width="1"/>
  <text x="400" y="248" font-family="sans-serif" font-size="16">HP-UX (PA_RISC2.0) (92)</text>
  <path d="M 200,300 L 21.8,149.7 A 150,150 0 0 1 21.8,149.7 Z" fill="Azure" stroke="black" stroke-width="1"/>
  <rect x="370" y="58" width="20" height="30" fill="Azure" stroke="black" stroke-width="1"/>
  <text x="400" y="278" font-family="sans-serif" font-size="16">HP-UX (PA_RISC2.0W) (1)</text>
  <path d="M 200,300 L 21.8,149.7 A 150,150 0 0 1 21.8,149.7 Z" fill="pink" stroke="black" stroke-width="1"/>
  <rect x="370" y="59" width="20" height="30" fill="pink" stroke="black" stroke-width="1"/>
  <text x="400" y="308" font-family="sans-serif" font-size="16">HP-UX (ia64) (7)</text>
  <path d="M 200,300 L 21.8,149.7 A 150,150 0 0 1 22.3,149.7 Z" fill="khaki" stroke="black" stroke-width="1"/>
  <rect x="370" y="60" width="20" height="30" fill="khaki" stroke="black" stroke-width="1"/>
  <text x="400" y="338" font-family="sans-serif" font-size="16">Linux (aarch64) (110)</text>
  <path d="M 200,300 L 22.3,149.7 A 150,150 0 0 1 70.1,-147.0 Z" fill="gray" stroke="black" stroke-width="1"/>
  <rect x="370" y="61" width="20" height="30" fill="gray" stroke="black" stroke-width="1"/>
  <text x="400" y="368" font-family="sans-serif" font-size="16">Linux (amd64) (238977)</text>
  <path d="M 200,300 L 70.1,-147.0 A 150,150 0 0 1 67.1,-147.2 Z" fill="Aqua" stroke="black" stroke-width="1"/>
  <rect x="370" y="62" width="20" height="30" fill="Aqua" stroke="black" stroke-width="1"/>
  <text x="400" y="398" font-family="sans-serif" font-size="16">Linux (arm) (745)</text>
  <path d="M 200,300 L 67.1,-147.2 A 150,150 0 0 1 67.1,-147.2 Z" fill="Aquamarine" stroke="black" stroke-width="1"/>
  <rect x="370" y="63" width="20" height="30" fill="Aquamarine" stroke="black" stroke-width="1"/>
  <text x="400" y="428" font-family="sans-serif" font-size="16">Linux (e2k) (2)</text>
  <path d="M 200,300 L 67.1,-147.2 A 150,150 0 0 1 18.6,-149.8 Z" fill="beige" stroke="black" stroke-width="1"/>
  <rect x="370" y="64" width="20" height="30" fill="beige" stroke="black" stroke-width="1"/>
  <text x="400" y="458" font-family="sans-serif" font-size="16">Linux (i386) (11596)</text>
  <path d="M 200,300 L 18.6,-149.8 A 150,150 0 0 1 18.6,-149.8 Z" fill="blueviolet" stroke="black" stroke-width="1"/>
  <rect x="370" y="65" width="20" height="30" fill="blueviolet" stroke="black" stroke-width="1"/>
  <text x="400" y="488" font-family="sans-serif" font-size="16">Linux (ia64) (13)</text>
  <path d="M 200,300 L 18.6,-149.8 A 150,150 0 0 1 18.6,-149.8 Z" fill="Bisque" stroke="black" stroke-width="1"/>
  <rect x="370" y="66" width="20" height="30" fill="Bisque" stroke="black" stroke-width="1"/>
  <text x="400" y="518" font-family="sans-serif" font-size="16">Linux (mips) (2)</text>
  <path d="M 200,300 L 18.6,-149.8 A 150,150 0 0 1 18.6,-149.8 Z" fill="coral" stroke="black" stroke-width="1"/>
  <rect x="370" y="67" width="20" height="30" fill="coral" stroke="black" stroke-width="1"/>
  <text x="400" y="548" font-family="sans-serif" font-size="16">Linux (mips64) (1)</text>
  <path d="M 200,300 L 18.6,-149.8 A 150,150 0 0 1 18.6,-149.8 Z" fill="darkblue" stroke="black" stroke-width="1"/>
  <rect x="370" y="68" width="20" height="30" fill="darkblue" stroke="black" stroke-width="1"/>
  <text x="400" y="578" font-family="sans-serif" font-size="16">Linux (mipsel) (1)</text>
  <path d="M 200,300 L 18.6,-149.8 A 150,150 0 0 1 18.4,-149.8 Z" fill="crimson" stroke="black" stroke-width="1"/>
  <rect x="370" y="69" width="20" height="30" fill="crimson" stroke="black" stroke-width="1"/>
  <text x="400" y="608" font-family="sans-serif" font-size="16">Linux (ppc) (26)</text>
  <path d="M 200,300 L 18.4,-149.8 A 150,150 0 0 1 17.6,-149.8 Z" fill="cyan" stroke="black" stroke-width="1"/>
  <rect x="370" y="70" width="20" height="30" fill="cyan" stroke="black" stroke-width="1"/>
  <text x="400" y="638" font-family="sans-serif" font-size="16">Linux (ppc64) (207)</text>
  <path d="M 200,300 L 17.6,-149.8 A 150,150 0 0 1 16.5,-149.8 Z" fill="darkred" stroke="black" stroke-width="1"/>
  <rect x="370" y="71" width="20" height="30" fill="darkred" stroke="black" stroke-width="1"/>
  <text x="400" y="668" font-family="sans-serif" font-size="16">Linux (ppc64le) (245)</text>
  <path d="M 200,300 L 16.5,-149.8 A 150,150 0 0 1 16.5,-149.8 Z" fill="ivory" stroke="black" stroke-width="1"/>
  <rect x="370" y="72" width="20" height="30" fill="ivory" stroke="black" stroke-width="1"/>
  <text x="400" y="698" font-family="sans-serif" font-size="16">Linux (s390) (10)</text>
  <path d="M 200,300 L 16.5,-149.8 A 150,150 0 0 1 15.5,-149.9 Z" fill="lime" stroke="black" stroke-width="1"/>
  <rect x="370" y="73" width="20" height="30" fill="lime" stroke="black" stroke-width="1"/>
  <text x="400" y="728" font-family="sans-serif" font-size="16">Linux (s390x) (229)</text>
  <path d="M 200,300 L 15.5,-149.9 A 150,150 0 0 1 15.5,-149.9 Z" fill="maroon" stroke="black" stroke-width="1"/>
  <rect x="370" y="74" width="20" height="30" fill="maroon" stroke="black" stroke-width="1"/>
  <text x="400" y="758" font-family="sans-serif" font-size="16">Linux (sparcv9) (2)</text>
  <path d="M 200,300 L 15.5,-149.9 A 150,150 0 0 1 15.0,-149.9 Z" fill="navy" stroke="black" stroke-width="1"/>
  <rect x="370" y="75" width="20" height="30" fill="navy" stroke="black" stroke-width="1"/>
  <text x="400" y="788" font-family="sans-serif" font-size="16">Linux (x86) (125)</text>
  <path d="M 200,300 L 15.0,-149.9 A 150,150 0 0 1 15.0,-149.9 Z" fill="olive" stroke="black" stroke-width="1"/>
  <rect x="370" y="76" width="20" height="30" fill="olive" stroke="black" stroke-width="1"/>
  <text x="400" y="818" font-family="sans-serif" font-size="16">Linux (zArch_64) (1)</text>
  <path d="M 200,300 L 15.0,-149.9 A 150,150 0 0 1 15.0,-149.9 Z" fill="plum" stroke="black" stroke-width="1"/>
  <rect x="370" y="77" width="20" height="30" fill="plum" stroke="black" stroke-width="1"/>
  <text x="400" y="848" font-family="sans-serif" font-size="16">Mac OS X (i386) (2)</text>
  <path d="M 200,300 L 15.0,-149.9 A 150,150 0 0 1 -62.9,-147.6 Z" fill="peru" stroke="black" stroke-width="1"/>
  <rect x="370" y="78" width="20" height="30" fill="peru" stroke="black" stroke-width="1"/>
  <text x="400" y="878" font-family="sans-serif" font-size="16">Mac OS X (x86_64) (18581)</text>
  <path d="M 200,300 L -62.9,-147.6 A 150,150 0 0 1 -346.5,21.1 Z" fill="silver" stroke="black" stroke-width="1"/>
  <rect x="370" y="79" width="20" height="30" fill="silver" stroke="black" stroke-width="1"/>
  <text x="400" y="908" font-family="sans-serif" font-size="16">N/A (127247)</text>
  <path d="M 200,300 L -346.5,21.1 A 150,150 0 0 1 -346.5,21.1 Z" fill="tan" stroke="black" stroke-width="1"/>
  <rect x="370" y="80" width="20" height="30" fill="tan" stroke="black" stroke-width="1"/>
  <text x="400" y="938" font-family="sans-serif" font-size="16">NONSTOP_KERNEL (IA64N) (1)</text>
  <path d="M 200,300 L -346.5,21.1 A 150,150 0 0 1 -346.5,21.1 Z" fill="teal" stroke="black" stroke-width="1"/>
  <rect x="370" y="81" width="20" height="30" fill="teal" stroke="black" stroke-width="1"/>
  <text x="400" y="968" font-family="sans-serif" font-size="16">NetBSD (amd64) (2)</text>
  <path d="M 200,300 L -346.5,21.1 A 150,150 0 0 1 -346.5,21.1 Z" fill="violet" stroke="black" stroke-width="1"/>
  <rect x="370" y="82" width="20" height="30" fill="violet" stroke="black" stroke-width="1"/>
  <text x="400" y="998" font-family="sans-serif" font-size="16">NetBSD (i386) (2)</text>
  <path d="M 200,300 L -346.5,21.1 A 150,150 0 0 1 -346.5,21.2 Z" fill="AliceBlue" stroke="black" stroke-width="1"/>
  <rect x="370" y="83" width="20" height="30" fill="AliceBlue" stroke="black" stroke-width="1"/>
  <text x="400" y="1028" font-family="sans-serif" font-size="16">OS/400 (PowerPC) (2)</text>
  <path d="M 200,300 L -346.5,21.2 A 150,150 0 0 1 -346.5,21.2 Z" fill="DarkOliveGreen" stroke="black" stroke-width="1"/>
  <rect x="370" y="84" width="20" height="30" fill="DarkOliveGreen" stroke="black" stroke-width="1"/>
  <text x="400" y="1058" font-family="sans-serif" font-size="16">OS/400 (ppc) (13)</text>
  <path d="M 200,300 L -346.5,21.2 A 150,150 0 0 1 -346.5,21.2 Z" fill="Indigo" stroke="black" stroke-width="1"/>
  <rect x="370" y="85" width="20" height="30" fill="Indigo" stroke="black" stroke-width="1"/>
  <text x="400" y="1088" font-family="sans-serif" font-size="16">OS/400 (ppc64) (4)</text>
  <path d="M 200,300 L -346.5,21.2 A 150,150 0 0 1 -346.5,21.2 Z" fill="MediumPurple" stroke="black" stroke-width="1"/>
  <rect x="370" y="86" width="20" height="30" fill="MediumPurple" stroke="black" stroke-width="1"/>
  <text x="400" y="1118" font-family="sans-serif" font-size="16">OpenBSD (amd64) (14)</text>
  <path d="M 200,300 L -346.5,21.2 A 150,150 0 0 1 -346.5,21.2 Z" fill="Purple" stroke="black" stroke-width="1"/>
  <rect x="370" y="87" width="20" height="30" fill="Purple" stroke="black" stroke-width="1"/>
  <text x="400" y="1148" font-family="sans-serif" font-size="16">OpenBSD (i386) (2)</text>
  <path d="M 200,300 L -346.5,21.2 A 150,150 0 0 1 -346.2,22.1 Z" fill="AntiqueWhite" stroke="black" stroke-width="1"/>
  <rect x="370" y="88" width="20" height="30" fill="AntiqueWhite" stroke="black" stroke-width="1"/>
  <text x="400" y="1178" font-family="sans-serif" font-size="16">SunOS (amd64) (501)</text>
  <path d="M 200,300 L -346.2,22.1 A 150,150 0 0 1 -345.4,24.3 Z" fill="DarkOrange" stroke="black" stroke-width="1"/>
  <rect x="370" y="89" width="20" height="30" fill="DarkOrange" stroke="black" stroke-width="1"/>
  <text x="400" y="1208" font-family="sans-serif" font-size="16">SunOS (sparc) (1257)</text>
  <path d="M 200,300 L -345.4,24.3 A 150,150 0 0 1 -344.9,25.4 Z" fill="Ivory" stroke="black" stroke-width="1"/>
  <rect x="370" y="90" width="20" height="30" fill="Ivory" stroke="black" stroke-width="1"/>
  <text x="400" y="1238" font-family="sans-serif" font-size="16">SunOS (sparcv9) (606)</text>
  <path d="M 200,300 L -344.9,25.4 A 150,150 0 0 1 -344.1,27.5 Z" fill="MediumSeaGreen" stroke="black" stroke-width="1"/>
  <rect x="370" y="91" width="20" height="30" fill="MediumSeaGreen" stroke="black" stroke-width="1"/>
  <text x="400" y="1268" font-family="sans-serif" font-size="16">SunOS (x86) (1145)</text>
  <path d="M 200,300 L -344.1,27.5 A 150,150 0 0 1 -344.1,27.5 Z" fill="Red" stroke="black" stroke-width="1"/>
  <rect x="370" y="92" width="20" height="30" fill="Red" stroke="black" stroke-width="1"/>
  <text x="400" y="1298" font-family="sans-serif" font-size="16">Windows (amd64) (8)</text>
  <path d="M 200,300 L -344.1,27.5 A 150,150 0 0 1 -344.1,27.5 Z" fill="Aqua" stroke="black" stroke-width="1"/>
  <rect x="370" y="93" width="20" height="30" fill="Aqua" stroke="black" stroke-width="1"/>
  <text x="400" y="1328" font-family="sans-serif" font-size="16">Windows (x86) (2)</text>
  <path d="M 200,300 L -344.1,27.5 A 150,150 0 0 1 -341.1,33.6 Z" fill="DarkOrchid" stroke="black" stroke-width="1"/>
  <rect x="370" y="94" width="20" height="30" fill="DarkOrchid" stroke="black" stroke-width="1"/>
  <text x="400" y="1358" font-family="sans-serif" font-size="16">Windows 10 (amd64) (3454)</text>
  <path d="M 200,300 L -341.1,33.6 A 150,150 0 0 1 -336.7,40.9 Z" fill="Khaki" stroke="black" stroke-width="1"/>
  <rect x="370" y="95" width="20" height="30" fill="Khaki" stroke="black" stroke-width="1"/>
  <text x="400" y="1388" font-family="sans-serif" font-size="16">Windows 10 (x86) (4188)</text>
  <path d="M 200,300 L -336.7,40.9 A 150,150 0 0 1 -336.7,40.9 Z" fill="MediumSlateBlue" stroke="black" stroke-width="1"/>
  <rect x="370" y="96" width="20" height="30" fill="MediumSlateBlue" stroke="black" stroke-width="1"/>
  <text x="400" y="1418" font-family="sans-serif" font-size="16">Windows 2000 (x86) (6)</text>
  <path d="M 200,300 L -336.7,40.9 A 150,150 0 0 1 -336.4,41.4 Z" fill="RosyBrown" stroke="black" stroke-width="1"/>
  <rect x="370" y="97" width="20" height="30" fill="RosyBrown" stroke="black" stroke-width="1"/>
  <text x="400" y="1448" font-family="sans-serif" font-size="16">Windows 2003 (amd64) (307)</text>
  <path d="M 200,300 L -336.4,41.4 A 150,150 0 0 1 -334.2,44.6 Z" fill="AquaMarine" stroke="black" stroke-width="1"/>
  <rect x="370" y="98" width="20" height="30" fill="AquaMarine" stroke="black" stroke-width="1"/>
  <text x="400" y="1478" font-family="sans-serif" font-size="16">Windows 2003 (x86) (1826)</text>
  <path d="M 200,300 L -334.2,44.6 A 150,150 0 0 1 -300.0,77.2 Z" fill="DarkRed" stroke="black" stroke-width="1"/>
  <rect x="370" y="99" width="20" height="30" fill="DarkRed" stroke="black" stroke-width="1"/>
  <text x="400" y="1508" font-family="sans-serif" font-size="16">Windows 7 (amd64) (19863)</text>
  <path d="M 200,300 L -300.0,77.2 A 150,150 0 0 1 -238.2,109.9 Z" fill="Lavender" stroke="black" stroke-width="1"/>
  <rect x="370" y="100" width="20" height="30" fill="Lavender" stroke="black" stroke-width="1"/>
  <text x="400" y="1538" font-family="sans-serif" font-size="16">Windows 7 (x86) (23363)</text>
  <path d="M 200,300 L -238.2,109.9 A 150,150 0 0 1 -235.4,111.0 Z" fill="MediumSpringGreen" stroke="black" stroke-width="1"/>
  <rect x="370" y="101" width="20" height="30" fill="MediumSpringGreen" stroke="black" stroke-width="1"/>
  <text x="400" y="1568" font-family="sans-serif" font-size="16">Windows 8 (amd64) (917)</text>
  <path d="M 200,300 L -235.4,111.0 A 150,150 0 0 1 -233.3,111.8 Z" fill="RoyalBlue" stroke="black" stroke-width="1"/>
  <rect x="370" y="102" width="20" height="30" fill="RoyalBlue" stroke="black" stroke-width="1"/>
  <text x="400" y="1598" font-family="sans-serif" font-size="16">Windows 8 (x86) (677)</text>
  <path d="M 200,300 L -233.3,111.8 A 150,150 0 0 1 -226.0,114.5 Z" fill="Azure" stroke="black" stroke-width="1"/>
  <rect x="370" y="103" width="20" height="30" fill="Azure" stroke="black" stroke-width="1"/>
  <text x="400" y="1628" font-family="sans-serif" font-size="16">Windows 8.1 (amd64) (2275)</text>
  <path d="M 200,300 L -226.0,114.5 A 150,150 0 0 1 -219.0,117.0 Z" fill="DarkSalmon" stroke="black" stroke-width="1"/>
  <rect x="370" y="104" width="20" height="30" fill="DarkSalmon" stroke="black" stroke-width="1"/>
  <text x="400" y="1658" font-family="sans-serif" font-size="16">Windows 8.1 (x86) (2178)</text>
  <path d="M 200,300 L -219.0,117.0 A 150,150 0 0 1 -216.7,117.8 Z" fill="LavenderBlush" stroke="black" stroke-width="1"/>
  <rect x="370" y="105" width="20" height="30" fill="LavenderBlush" stroke="black" stroke-width="1"/>
  <text x="400" y="1688" font-family="sans-serif" font-size="16">Windows NT (unknown) (amd64) (682)</text>
  <path d="M 200,300 L -216.7,117.8 A 150,150 0 0 1 -215.0,118.4 Z" fill="MediumTurquoise" stroke="black" stroke-width="1"/>
  <rect x="370" y="106" width="20" height="30" fill="MediumTurquoise" stroke="black" stroke-width="1"/>
  <text x="400" y="1718" font-family="sans-serif" font-size="16">Windows NT (unknown) (x86) (519)</text>
  <path d="M 200,300 L -215.0,118.4 A 150,150 0 0 1 -215.0,118.4 Z" fill="SaddleBrown" stroke="black" stroke-width="1"/>
  <rect x="370" y="107" width="20" height="30" fill="SaddleBrown" stroke="black" stroke-width="1"/>
  <text x="400" y="1748" font-family="sans-serif" font-size="16">Windows NT (x86) (1)</text>
  <path d="M 200,300 L -215.0,118.4 A 150,150 0 0 1 -215.0,118.4 Z" fill="Beige" stroke="black" stroke-width="1"/>
  <rect x="370" y="108" width="20" height="30" fill="Beige" stroke="black" stroke-width="1"/>
  <text x="400" y="1778" font-family="sans-serif" font-size="16">Windows Server 2003 (amd64) (7)</text>
  <path d="M 200,300 L -215.0,118.4 A 150,150 0 0 1 -214.9,118.4 Z" fill="DarkSeaGreen" stroke="black" stroke-width="1"/>
  <rect x="370" y="109" width="20" height="30" fill="DarkSeaGreen" stroke="black" stroke-width="1"/>
  <text x="400" y="1808" font-family="sans-serif" font-size="16">Windows Server 2003 (x86) (8)</text>
  <path d="M 200,300 L -214.9,118.4 A 150,150 0 0 1 -213.1,119.0 Z" fill="LawnGreen" stroke="black" stroke-width="1"/>
  <rect x="370" y="110" width="20" height="30" fill="LawnGreen" stroke="black" stroke-width="1"/>
  <text x="400" y="1838" font-family="sans-serif" font-size="16">Windows Server 2008 (amd64) (555)</text>
  <path d="M 200,300 L -213.1,119.0 A 150,150 0 0 1 -209.3,120.2 Z" fill="MediumVioletRed" stroke="black" stroke-width="1"/>
  <rect x="370" y="111" width="20" height="30" fill="MediumVioletRed" stroke="black" stroke-width="1"/>
  <text x="400" y="1868" font-family="sans-serif" font-size="16">Windows Server 2008 (x86) (1134)</text>
  <path d="M 200,300 L -209.3,120.2 A 150,150 0 0 1 -155.8,134.3 Z" fill="Salmon" stroke="black" stroke-width="1"/>
  <rect x="370" y="112" width="20" height="30" fill="Salmon" stroke="black" stroke-width="1"/>
  <text x="400" y="1898" font-family="sans-serif" font-size="16">Windows Server 2008 R2 (amd64) (14911)</text>
  <path d="M 200,300 L -155.8,134.3 A 150,150 0 0 1 -117.3,141.3 Z" fill="Bisque" stroke="black" stroke-width="1"/>
  <rect x="370" y="113" width="20" height="30" fill="Bisque" stroke="black" stroke-width="1"/>
  <text x="400" y="1928" font-family="sans-serif" font-size="16">Windows Server 2008 R2 (x86) (9933)</text>
  <path d="M 200,300 L -117.3,141.3 A 150,150 0 0 1 -100.8,143.6 Z" fill="DarkSlateBlue" stroke="black" stroke-width="1"/>
  <rect x="370" y="114" width="20" height="30" fill="DarkSlateBlue" stroke="black" stroke-width="1"/>
  <text x="400" y="1958" font-family="sans-serif" font-size="16">Windows Server 2012 (amd64) (4140)</text>
  <path d="M 200,300 L -100.8,143.6 A 150,150 0 0 1 -90.7,144.9 Z" fill="LemonChiffon" stroke="black" stroke-width="1"/>
  <rect x="370" y="115" width="20" height="30" fill="LemonChiffon" stroke="black" stroke-width="1"/>
  <text x="400" y="1988" font-family="sans-serif" font-size="16">Windows Server 2012 (x86) (2483)</text>
  <path d="M 200,300 L -90.7,144.9 A 150,150 0 0 1 -42.0,148.9 Z" fill="MidnightBlue" stroke="black" stroke-width="1"/>
  <rect x="370" y="116" width="20" height="30" fill="MidnightBlue" stroke="black" stroke-width="1"/>
  <text x="400" y="2018" font-family="sans-serif" font-size="16">Windows Server 2012 R2 (amd64) (11800)</text>
  <path d="M 200,300 L -42.0,148.9 A 150,150 0 0 1 -7.4,150.0 Z" fill="SandyBrown" stroke="black" stroke-width="1"/>
  <rect x="370" y="117" width="20" height="30" fill="SandyBrown" stroke="black" stroke-width="1"/>
  <text x="400" y="2048" font-family="sans-serif" font-size="16">Windows Server 2012 R2 (x86) (8238)</text>
  <path d="M 200,300 L -7.4,150.0 A 150,150 0 0 1 -7.4,150.0 Z" fill="Black" stroke="black" stroke-width="1"/>
  <rect x="370" y="118" width="20" height="30" fill="Black" stroke="black" stroke-width="1"/>
  <text x="400" y="2078" font-family="sans-serif" font-size="16">Windows Server 2016 (amd64) (2)</text>
  <path d="M 200,300 L -7.4,150.0 A 150,150 0 0 1 -7.3,150.0 Z" fill="DarkSlateGray" stroke="black" stroke-width="1"/>
  <rect x="370" y="119" width="20" height="30" fill="DarkSlateGray" stroke="black" stroke-width="1"/>
  <text x="400" y="2108" font-family="sans-serif" font-size="16">Windows Server 2016 Standard (amd64) (1)</text>
  <path d="M 200,300 L -7.3,150.0 A 150,150 0 0 1 -7.3,150.0 Z" fill="LightBlue" stroke="black" stroke-width="1"/>
  <rect x="370" y="120" width="20" height="30" fill="LightBlue" stroke="black" stroke-width="1"/>
  <text x="400" y="2138" font-family="sans-serif" font-size="16">Windows Server 8 (amd64) (1)</text>
  <path d="M 200,300 L -7.3,150.0 A 150,150 0 0 1 -7.2,150.0 Z" fill="MintCream" stroke="black" stroke-width="1"/>
  <rect x="370" y="121" width="20" height="30" fill="MintCream" stroke="black" stroke-width="1"/>
  <text x="400" y="2168" font-family="sans-serif" font-size="16">Windows Vista (amd64) (34)</text>
  <path d="M 200,300 L -7.2,150.0 A 150,150 0 0 1 -6.1,150.0 Z" fill="SeaGreen" stroke="black" stroke-width="1"/>
  <rect x="370" y="122" width="20" height="30" fill="SeaGreen" stroke="black" stroke-width="1"/>
  <text x="400" y="2198" font-family="sans-serif" font-size="16">Windows Vista (x86) (267)</text>
  <path d="M 200,300 L -6.1,150.0 A 150,150 0 0 1 -6.0,150.0 Z" fill="BlanchedAlmond" stroke="black" stroke-width="1"/>
  <rect x="370" y="123" width="20" height="30" fill="BlanchedAlmond" stroke="black" stroke-width="1"/>
  <text x="400" y="2228" font-family="sans-serif" font-size="16">Windows XP (amd64) (29)</text>
  <path d="M 200,300 L -6.0,150.0 A 150,150 0 0 1 -0.2,150.0 Z" fill="DarkTurquoise" stroke="black" stroke-width="1"/>
  <rect x="370" y="124" width="20" height="30" fill="DarkTurquoise" stroke="black" stroke-width="1"/>
  <text x="400" y="2258" font-family="sans-serif" font-size="16">Windows XP (x86) (1371)</text>
  <path d="M 200,300 L -0.2,150.0 A 150,150 0 0 1 -0.2,150.0 Z" fill="LightCoral" stroke="black" stroke-width="1"/>
  <rect x="370" y="125" width="20" height="30" fill="LightCoral" stroke="black" stroke-width="1"/>
  <text x="400" y="2288" font-family="sans-serif" font-size="16">z/OS (s390) (5)</text>
  <path d="M 200,300 L -0.2,150.0 A 150,150 0 0 1 -0.0,150.0 Z" fill="MistyRose" stroke="black" stroke-width="1"/>
  <rect x="370" y="126" width="20" height="30" fill="MistyRose" stroke="black" stroke-width="1"/>
  <text x="400" y="2318" font-family="sans-serif" font-size="16">z/OS (s390x) (38)</text>
</svg>
