<svg xmlns="http://www.w3.org/2000/svg" version="1.1" preserveAspectRatio="xMidYMid meet" viewBox="0 0 455 9190.8">
  <rect fill="blue" height="0.0" stroke="black" width="12" x="15" y="8890.8"/>
  <text x="15" y="8895.8" font-family="Tahoma" font-size="12" transform="rotate(90 15,8895.8)" text-rendering="optimizeSpeed" fill="#000000">org-jenkinsci-plugins-SyncSources-MonitoringJobsProject (2)</text>
  <rect fill="blue" height="0.0" stroke="black" width="12" x="30" y="8890.8"/>
  <text x="30" y="8895.8" font-family="Tahoma" font-size="12" transform="rotate(90 30,8895.8)" text-rendering="optimizeSpeed" fill="#000000">org-jenkinsci-plugins-SyncSources-PreparationDailyProject (2)</text>
  <rect fill="blue" height="0.0" stroke="black" width="12" x="45" y="8890.8"/>
  <text x="45" y="8895.8" font-family="Tahoma" font-size="12" transform="rotate(90 45,8895.8)" text-rendering="optimizeSpeed" fill="#000000">org-jenkinsci-plugins-performance_receiver-PerformanceProject (3)</text>
  <rect fill="blue" height="0.0" stroke="black" width="12" x="60" y="8890.8"/>
  <text x="60" y="8895.8" font-family="Tahoma" font-size="12" transform="rotate(90 60,8895.8)" text-rendering="optimizeSpeed" fill="#000000">hudson-model-HtmlProject (4)</text>
  <rect fill="blue" height="0.0" stroke="black" width="12" x="75" y="8890.8"/>
  <text x="75" y="8895.8" font-family="Tahoma" font-size="12" transform="rotate(90 75,8895.8)" text-rendering="optimizeSpeed" fill="#000000">hudson-model-CppProject (5)</text>
  <rect fill="blue" height="0.0" stroke="black" width="12" x="90" y="8890.8"/>
  <text x="90" y="8895.8" font-family="Tahoma" font-size="12" transform="rotate(90 90,8895.8)" text-rendering="optimizeSpeed" fill="#000000">hudson-drools-DroolsProject (12)</text>
  <rect fill="blue" height="0.0" stroke="black" width="12" x="105" y="8890.8"/>
  <text x="105" y="8895.8" font-family="Tahoma" font-size="12" transform="rotate(90 105,8895.8)" text-rendering="optimizeSpeed" fill="#000000">hudson-model-GolangProject (17)</text>
  <rect fill="blue" height="0.0" stroke="black" width="12" x="120" y="8890.8"/>
  <text x="120" y="8895.8" font-family="Tahoma" font-size="12" transform="rotate(90 120,8895.8)" text-rendering="optimizeSpeed" fill="#000000">org-jvnet-hudson-test-MockFolder (17)</text>
  <rect fill="blue" height="0.0" stroke="black" width="12" x="135" y="8890.8"/>
  <text x="135" y="8895.8" font-family="Tahoma" font-size="12" transform="rotate(90 135,8895.8)" text-rendering="optimizeSpeed" fill="#000000">hudson-plugin-smartjob-SmartJob (20)</text>
  <rect fill="blue" height="0.0" stroke="black" width="12" x="150" y="8890.8"/>
  <text x="150" y="8895.8" font-family="Tahoma" font-size="12" transform="rotate(90 150,8895.8)" text-rendering="optimizeSpeed" fill="#000000">org-jenkinsci-plugins-drupal-projects-DrupalProject (28)</text>
  <rect fill="blue" height="0.0" stroke="black" width="12" x="165" y="8890.8"/>
  <text x="165" y="8895.8" font-family="Tahoma" font-size="12" transform="rotate(90 165,8895.8)" text-rendering="optimizeSpeed" fill="#000000">org-jenkinsci-plugins-SyncSources-MakeProject (38)</text>
  <rect fill="blue" height="0.0" stroke="black" width="12" x="180" y="8890.8"/>
  <text x="180" y="8895.8" font-family="Tahoma" font-size="12" transform="rotate(90 180,8895.8)" text-rendering="optimizeSpeed" fill="#000000">org-jenkinsci-plugins-SyncSources-MakeFirProject (39)</text>
  <rect fill="blue" height="0.0" stroke="black" width="12" x="195" y="8890.8"/>
  <text x="195" y="8895.8" font-family="Tahoma" font-size="12" transform="rotate(90 195,8895.8)" text-rendering="optimizeSpeed" fill="#000000">org-jenkinsci-plugins-SyncSources-PreShelveProject (39)</text>
  <rect fill="blue" height="0.1" stroke="black" width="12" x="210" y="8890.7"/>
  <text x="210" y="8895.8" font-family="Tahoma" font-size="12" transform="rotate(90 210,8895.8)" text-rendering="optimizeSpeed" fill="#000000">org-jenkinsci-plugins-spoontrigger-SpoonProject (144)</text>
  <rect fill="blue" height="0.2" stroke="black" width="12" x="225" y="8890.7"/>
  <text x="225" y="8895.8" font-family="Tahoma" font-size="12" transform="rotate(90 225,8895.8)" text-rendering="optimizeSpeed" fill="#000000">org-jenkinsci-plugins-pipeline-multibranch-defaults-PipelineMultiBranchDefaultsProject (181)</text>
  <rect fill="blue" height="0.2" stroke="black" width="12" x="240" y="8890.6"/>
  <text x="240" y="8895.8" font-family="Tahoma" font-size="12" transform="rotate(90 240,8895.8)" text-rendering="optimizeSpeed" fill="#000000">hudson-plugins-job_dependency-projects-MasterProject (206)</text>
  <rect fill="blue" height="0.2" stroke="black" width="12" x="255" y="8890.6"/>
  <text x="255" y="8895.8" font-family="Tahoma" font-size="12" transform="rotate(90 255,8895.8)" text-rendering="optimizeSpeed" fill="#000000">org-jenkinsci-plugins-coordinator-model-CoordinatorProject (239)</text>
  <rect fill="blue" height="0.3" stroke="black" width="12" x="270" y="8890.5"/>
  <text x="270" y="8895.8" font-family="Tahoma" font-size="12" transform="rotate(90 270,8895.8)" text-rendering="optimizeSpeed" fill="#000000">hudson-model-RunOnceProject (348)</text>
  <rect fill="blue" height="2.8" stroke="black" width="12" x="285" y="8888.0"/>
  <text x="285" y="8895.8" font-family="Tahoma" font-size="12" transform="rotate(90 285,8895.8)" text-rendering="optimizeSpeed" fill="#000000">org-jenkinsci-plugins-jobgenerator-JobGenerator (2843)</text>
  <rect fill="blue" height="4.5" stroke="black" width="12" x="300" y="8886.3"/>
  <text x="300" y="8895.8" font-family="Tahoma" font-size="12" transform="rotate(90 300,8895.8)" text-rendering="optimizeSpeed" fill="#000000">hudson-model-ExternalJob (4543)</text>
  <rect fill="blue" height="6.3" stroke="black" width="12" x="315" y="8884.5"/>
  <text x="315" y="8895.8" font-family="Tahoma" font-size="12" transform="rotate(90 315,8895.8)" text-rendering="optimizeSpeed" fill="#000000">hudson-ivy-IvyModuleSet (6309)</text>
  <rect fill="blue" height="22.0" stroke="black" width="12" x="330" y="8868.8"/>
  <text x="330" y="8895.8" font-family="Tahoma" font-size="12" transform="rotate(90 330,8895.8)" text-rendering="optimizeSpeed" fill="#000000">hudson-plugins-project_inheritance-projects-InheritanceProject (22026)</text>
  <rect fill="blue" height="48.8" stroke="black" width="12" x="345" y="8842.0"/>
  <text x="345" y="8895.8" font-family="Tahoma" font-size="12" transform="rotate(90 345,8895.8)" text-rendering="optimizeSpeed" fill="#000000">org-jenkinsci-plugins-workflow-multibranch-WorkflowMultiBranchProject (48801)</text>
  <rect fill="blue" height="283.4" stroke="black" width="12" x="360" y="8607.4"/>
  <text x="360" y="8895.8" font-family="Tahoma" font-size="12" transform="rotate(90 360,8895.8)" text-rendering="optimizeSpeed" fill="#000000">hudson-matrix-MatrixProject (283404)</text>
  <rect fill="blue" height="412.3" stroke="black" width="12" x="375" y="8478.6"/>
  <text x="375" y="8895.8" font-family="Tahoma" font-size="12" transform="rotate(90 375,8895.8)" text-rendering="optimizeSpeed" fill="#000000">org-jenkinsci-plugins-workflow-job-WorkflowJob (412272)</text>
  <rect fill="blue" height="1419.2" stroke="black" width="12" x="390" y="7471.6"/>
  <text x="390" y="8895.8" font-family="Tahoma" font-size="12" transform="rotate(90 390,8895.8)" text-rendering="optimizeSpeed" fill="#000000">hudson-maven-MavenModuleSet (1419210)</text>
  <rect fill="blue" height="8840.8" stroke="black" width="12" x="405" y="50.0"/>
  <text x="405" y="8895.8" font-family="Tahoma" font-size="12" transform="rotate(90 405,8895.8)" text-rendering="optimizeSpeed" fill="#000000">hudson-model-FreeStyleProject (8840848)</text>
  <text x="10" y="40" font-family="Tahoma" font-size="20" text-rendering="optimizeSpeed" fill="#000000">Jobs (total: 11041600)</text>
</svg>
