<svg xmlns="http://www.w3.org/2000/svg" version="1.1" preserveAspectRatio="xMidYMid meet" viewBox="0 0 455 8718.7">
  <rect fill="blue" height="0.0" stroke="black" width="12" x="15" y="8418.7"/>
  <text x="15" y="8423.7" font-family="Tahoma" font-size="12" transform="rotate(90 15,8423.7)" text-rendering="optimizeSpeed" fill="#000000">org-jenkinsci-plugins-mavenjobgenerator-MavenJobGenerator (1)</text>
  <rect fill="blue" height="0.0" stroke="black" width="12" x="30" y="8418.7"/>
  <text x="30" y="8423.7" font-family="Tahoma" font-size="12" transform="rotate(90 30,8423.7)" text-rendering="optimizeSpeed" fill="#000000">org-jenkinsci-plugins-SyncSources-MonitoringJobsProject (2)</text>
  <rect fill="blue" height="0.0" stroke="black" width="12" x="45" y="8418.7"/>
  <text x="45" y="8423.7" font-family="Tahoma" font-size="12" transform="rotate(90 45,8423.7)" text-rendering="optimizeSpeed" fill="#000000">org-jenkinsci-plugins-SyncSources-PreparationDailyProject (2)</text>
  <rect fill="blue" height="0.0" stroke="black" width="12" x="60" y="8418.7"/>
  <text x="60" y="8423.7" font-family="Tahoma" font-size="12" transform="rotate(90 60,8423.7)" text-rendering="optimizeSpeed" fill="#000000">org-jenkinsci-plugins-performance_receiver-PerformanceProject (2)</text>
  <rect fill="blue" height="0.0" stroke="black" width="12" x="75" y="8418.7"/>
  <text x="75" y="8423.7" font-family="Tahoma" font-size="12" transform="rotate(90 75,8423.7)" text-rendering="optimizeSpeed" fill="#000000">hudson-model-HtmlProject (3)</text>
  <rect fill="blue" height="0.0" stroke="black" width="12" x="90" y="8418.7"/>
  <text x="90" y="8423.7" font-family="Tahoma" font-size="12" transform="rotate(90 90,8423.7)" text-rendering="optimizeSpeed" fill="#000000">hudson-model-CppProject (5)</text>
  <rect fill="blue" height="0.0" stroke="black" width="12" x="105" y="8418.7"/>
  <text x="105" y="8423.7" font-family="Tahoma" font-size="12" transform="rotate(90 105,8423.7)" text-rendering="optimizeSpeed" fill="#000000">hudson-plugin-smartjob-SmartJob (9)</text>
  <rect fill="blue" height="0.0" stroke="black" width="12" x="120" y="8418.7"/>
  <text x="120" y="8423.7" font-family="Tahoma" font-size="12" transform="rotate(90 120,8423.7)" text-rendering="optimizeSpeed" fill="#000000">hudson-drools-DroolsProject (12)</text>
  <rect fill="blue" height="0.0" stroke="black" width="12" x="135" y="8418.7"/>
  <text x="135" y="8423.7" font-family="Tahoma" font-size="12" transform="rotate(90 135,8423.7)" text-rendering="optimizeSpeed" fill="#000000">hudson-model-GolangProject (16)</text>
  <rect fill="blue" height="0.0" stroke="black" width="12" x="150" y="8418.7"/>
  <text x="150" y="8423.7" font-family="Tahoma" font-size="12" transform="rotate(90 150,8423.7)" text-rendering="optimizeSpeed" fill="#000000">org-jvnet-hudson-test-MockFolder (16)</text>
  <rect fill="blue" height="0.0" stroke="black" width="12" x="165" y="8418.7"/>
  <text x="165" y="8423.7" font-family="Tahoma" font-size="12" transform="rotate(90 165,8423.7)" text-rendering="optimizeSpeed" fill="#000000">org-jenkinsci-plugins-drupal-projects-DrupalProject (29)</text>
  <rect fill="blue" height="0.0" stroke="black" width="12" x="180" y="8418.7"/>
  <text x="180" y="8423.7" font-family="Tahoma" font-size="12" transform="rotate(90 180,8423.7)" text-rendering="optimizeSpeed" fill="#000000">hudson-plugins-job_dependency-projects-MasterProject (30)</text>
  <rect fill="blue" height="0.0" stroke="black" width="12" x="195" y="8418.7"/>
  <text x="195" y="8423.7" font-family="Tahoma" font-size="12" transform="rotate(90 195,8423.7)" text-rendering="optimizeSpeed" fill="#000000">org-jenkinsci-plugins-SyncSources-MakeProject (45)</text>
  <rect fill="blue" height="0.0" stroke="black" width="12" x="210" y="8418.7"/>
  <text x="210" y="8423.7" font-family="Tahoma" font-size="12" transform="rotate(90 210,8423.7)" text-rendering="optimizeSpeed" fill="#000000">org-jenkinsci-plugins-SyncSources-MakeFirProject (46)</text>
  <rect fill="blue" height="0.0" stroke="black" width="12" x="225" y="8418.7"/>
  <text x="225" y="8423.7" font-family="Tahoma" font-size="12" transform="rotate(90 225,8423.7)" text-rendering="optimizeSpeed" fill="#000000">org-jenkinsci-plugins-SyncSources-PreShelveProject (46)</text>
  <rect fill="blue" height="0.1" stroke="black" width="12" x="240" y="8418.6"/>
  <text x="240" y="8423.7" font-family="Tahoma" font-size="12" transform="rotate(90 240,8423.7)" text-rendering="optimizeSpeed" fill="#000000">org-jenkinsci-plugins-pipeline-multibranch-defaults-PipelineMultiBranchDefaultsProject (73)</text>
  <rect fill="blue" height="0.2" stroke="black" width="12" x="255" y="8418.6"/>
  <text x="255" y="8423.7" font-family="Tahoma" font-size="12" transform="rotate(90 255,8423.7)" text-rendering="optimizeSpeed" fill="#000000">org-jenkinsci-plugins-spoontrigger-SpoonProject (152)</text>
  <rect fill="blue" height="0.2" stroke="black" width="12" x="270" y="8418.5"/>
  <text x="270" y="8423.7" font-family="Tahoma" font-size="12" transform="rotate(90 270,8423.7)" text-rendering="optimizeSpeed" fill="#000000">org-jenkinsci-plugins-coordinator-model-CoordinatorProject (190)</text>
  <rect fill="blue" height="2.7" stroke="black" width="12" x="285" y="8416.0"/>
  <text x="285" y="8423.7" font-family="Tahoma" font-size="12" transform="rotate(90 285,8423.7)" text-rendering="optimizeSpeed" fill="#000000">org-jenkinsci-plugins-jobgenerator-JobGenerator (2749)</text>
  <rect fill="blue" height="4.6" stroke="black" width="12" x="300" y="8414.1"/>
  <text x="300" y="8423.7" font-family="Tahoma" font-size="12" transform="rotate(90 300,8423.7)" text-rendering="optimizeSpeed" fill="#000000">hudson-model-ExternalJob (4584)</text>
  <rect fill="blue" height="6.5" stroke="black" width="12" x="315" y="8412.3"/>
  <text x="315" y="8423.7" font-family="Tahoma" font-size="12" transform="rotate(90 315,8423.7)" text-rendering="optimizeSpeed" fill="#000000">hudson-ivy-IvyModuleSet (6451)</text>
  <rect fill="blue" height="19.2" stroke="black" width="12" x="330" y="8399.5"/>
  <text x="330" y="8423.7" font-family="Tahoma" font-size="12" transform="rotate(90 330,8423.7)" text-rendering="optimizeSpeed" fill="#000000">hudson-plugins-project_inheritance-projects-InheritanceProject (19191)</text>
  <rect fill="blue" height="40.5" stroke="black" width="12" x="345" y="8378.2"/>
  <text x="345" y="8423.7" font-family="Tahoma" font-size="12" transform="rotate(90 345,8423.7)" text-rendering="optimizeSpeed" fill="#000000">org-jenkinsci-plugins-workflow-multibranch-WorkflowMultiBranchProject (40494)</text>
  <rect fill="blue" height="314.0" stroke="black" width="12" x="360" y="8104.7"/>
  <text x="360" y="8423.7" font-family="Tahoma" font-size="12" transform="rotate(90 360,8423.7)" text-rendering="optimizeSpeed" fill="#000000">hudson-matrix-MatrixProject (314009)</text>
  <rect fill="blue" height="330.2" stroke="black" width="12" x="375" y="8088.5"/>
  <text x="375" y="8423.7" font-family="Tahoma" font-size="12" transform="rotate(90 375,8423.7)" text-rendering="optimizeSpeed" fill="#000000">org-jenkinsci-plugins-workflow-job-WorkflowJob (330190)</text>
  <rect fill="blue" height="1357.4" stroke="black" width="12" x="390" y="7061.3"/>
  <text x="390" y="8423.7" font-family="Tahoma" font-size="12" transform="rotate(90 390,8423.7)" text-rendering="optimizeSpeed" fill="#000000">hudson-maven-MavenModuleSet (1357400)</text>
  <rect fill="blue" height="8368.7" stroke="black" width="12" x="405" y="50.0"/>
  <text x="405" y="8423.7" font-family="Tahoma" font-size="12" transform="rotate(90 405,8423.7)" text-rendering="optimizeSpeed" fill="#000000">hudson-model-FreeStyleProject (8368703)</text>
  <text x="10" y="40" font-family="Tahoma" font-size="20" text-rendering="optimizeSpeed" fill="#000000">Jobs (total: 10444450)</text>
</svg>
