<svg xmlns="http://www.w3.org/2000/svg" version="1.1" preserveAspectRatio="xMidYMid meet" viewBox="0 0 1190 39143.7">
  <rect fill="blue" height="0.1" stroke="black" width="12" x="15" y="38843.6"/>
  <text x="15" y="38848.7" font-family="Tahoma" font-size="12" transform="rotate(90 15,38848.7)" text-rendering="optimizeSpeed" fill="#000000">HP-UX (PA_RISC2.0W) (1)</text>
  <rect fill="blue" height="0.1" stroke="black" width="12" x="30" y="38843.6"/>
  <text x="30" y="38848.7" font-family="Tahoma" font-size="12" transform="rotate(90 30,38848.7)" text-rendering="optimizeSpeed" fill="#000000">Linux (e2k) (1)</text>
  <rect fill="blue" height="0.1" stroke="black" width="12" x="45" y="38843.6"/>
  <text x="45" y="38848.7" font-family="Tahoma" font-size="12" transform="rotate(90 45,38848.7)" text-rendering="optimizeSpeed" fill="#000000">Linux (mips64) (1)</text>
  <rect fill="blue" height="0.1" stroke="black" width="12" x="60" y="38843.6"/>
  <text x="60" y="38848.7" font-family="Tahoma" font-size="12" transform="rotate(90 60,38848.7)" text-rendering="optimizeSpeed" fill="#000000">Linux (mipsel) (1)</text>
  <rect fill="blue" height="0.1" stroke="black" width="12" x="75" y="38843.6"/>
  <text x="75" y="38848.7" font-family="Tahoma" font-size="12" transform="rotate(90 75,38848.7)" text-rendering="optimizeSpeed" fill="#000000">Linux (riscv64) (1)</text>
  <rect fill="blue" height="0.1" stroke="black" width="12" x="90" y="38843.6"/>
  <text x="90" y="38848.7" font-family="Tahoma" font-size="12" transform="rotate(90 90,38848.7)" text-rendering="optimizeSpeed" fill="#000000">NetBSD (i386) (1)</text>
  <rect fill="blue" height="0.1" stroke="black" width="12" x="105" y="38843.6"/>
  <text x="105" y="38848.7" font-family="Tahoma" font-size="12" transform="rotate(90 105,38848.7)" text-rendering="optimizeSpeed" fill="#000000">Windows (amd64) (1)</text>
  <rect fill="blue" height="0.2" stroke="black" width="12" x="120" y="38843.5"/>
  <text x="120" y="38848.7" font-family="Tahoma" font-size="12" transform="rotate(90 120,38848.7)" text-rendering="optimizeSpeed" fill="#000000">DragonFlyBSD (amd64) (2)</text>
  <rect fill="blue" height="0.2" stroke="black" width="12" x="135" y="38843.5"/>
  <text x="135" y="38848.7" font-family="Tahoma" font-size="12" transform="rotate(90 135,38848.7)" text-rendering="optimizeSpeed" fill="#000000">Mac OS X (i386) (2)</text>
  <rect fill="blue" height="0.2" stroke="black" width="12" x="150" y="38843.5"/>
  <text x="150" y="38848.7" font-family="Tahoma" font-size="12" transform="rotate(90 150,38848.7)" text-rendering="optimizeSpeed" fill="#000000">NetBSD (amd64) (2)</text>
  <rect fill="blue" height="0.2" stroke="black" width="12" x="165" y="38843.5"/>
  <text x="165" y="38848.7" font-family="Tahoma" font-size="12" transform="rotate(90 165,38848.7)" text-rendering="optimizeSpeed" fill="#000000">OS/400 (PowerPC) (2)</text>
  <rect fill="blue" height="0.2" stroke="black" width="12" x="180" y="38843.5"/>
  <text x="180" y="38848.7" font-family="Tahoma" font-size="12" transform="rotate(90 180,38848.7)" text-rendering="optimizeSpeed" fill="#000000">Windows Server 2016 Standard (amd64) (2)</text>
  <rect fill="blue" height="0.4" stroke="black" width="12" x="195" y="38843.3"/>
  <text x="195" y="38848.7" font-family="Tahoma" font-size="12" transform="rotate(90 195,38848.7)" text-rendering="optimizeSpeed" fill="#000000">Linux (ia64) (4)</text>
  <rect fill="blue" height="0.4" stroke="black" width="12" x="210" y="38843.3"/>
  <text x="210" y="38848.7" font-family="Tahoma" font-size="12" transform="rotate(90 210,38848.7)" text-rendering="optimizeSpeed" fill="#000000">OpenBSD (i386) (4)</text>
  <rect fill="blue" height="0.4" stroke="black" width="12" x="225" y="38843.3"/>
  <text x="225" y="38848.7" font-family="Tahoma" font-size="12" transform="rotate(90 225,38848.7)" text-rendering="optimizeSpeed" fill="#000000">Windows Server 2003 (x86) (4)</text>
  <rect fill="blue" height="0.5" stroke="black" width="12" x="240" y="38843.2"/>
  <text x="240" y="38848.7" font-family="Tahoma" font-size="12" transform="rotate(90 240,38848.7)" text-rendering="optimizeSpeed" fill="#000000">Linux (zArch_64) (5)</text>
  <rect fill="blue" height="0.6" stroke="black" width="12" x="255" y="38843.1"/>
  <text x="255" y="38848.7" font-family="Tahoma" font-size="12" transform="rotate(90 255,38848.7)" text-rendering="optimizeSpeed" fill="#000000">Linux (s390) (6)</text>
  <rect fill="blue" height="0.6" stroke="black" width="12" x="270" y="38843.1"/>
  <text x="270" y="38848.7" font-family="Tahoma" font-size="12" transform="rotate(90 270,38848.7)" text-rendering="optimizeSpeed" fill="#000000">Linux (sparcv9) (6)</text>
  <rect fill="blue" height="0.8" stroke="black" width="12" x="285" y="38842.9"/>
  <text x="285" y="38848.7" font-family="Tahoma" font-size="12" transform="rotate(90 285,38848.7)" text-rendering="optimizeSpeed" fill="#000000">NONSTOP_KERNEL (x86_64N) (8)</text>
  <rect fill="blue" height="0.8" stroke="black" width="12" x="300" y="38842.9"/>
  <text x="300" y="38848.7" font-family="Tahoma" font-size="12" transform="rotate(90 300,38848.7)" text-rendering="optimizeSpeed" fill="#000000">OS/400 (ppc) (8)</text>
  <rect fill="blue" height="0.8" stroke="black" width="12" x="315" y="38842.9"/>
  <text x="315" y="38848.7" font-family="Tahoma" font-size="12" transform="rotate(90 315,38848.7)" text-rendering="optimizeSpeed" fill="#000000">z/OS (s390) (8)</text>
  <rect fill="blue" height="0.9" stroke="black" width="12" x="330" y="38842.8"/>
  <text x="330" y="38848.7" font-family="Tahoma" font-size="12" transform="rotate(90 330,38848.7)" text-rendering="optimizeSpeed" fill="#000000">OS/400 (ppc64) (9)</text>
  <rect fill="blue" height="0.9" stroke="black" width="12" x="345" y="38842.8"/>
  <text x="345" y="38848.7" font-family="Tahoma" font-size="12" transform="rotate(90 345,38848.7)" text-rendering="optimizeSpeed" fill="#000000">Windows Server 2003 (amd64) (9)</text>
  <rect fill="blue" height="1.0" stroke="black" width="12" x="360" y="38842.7"/>
  <text x="360" y="38848.7" font-family="Tahoma" font-size="12" transform="rotate(90 360,38848.7)" text-rendering="optimizeSpeed" fill="#000000">HP-UX (IA64W) (10)</text>
  <rect fill="blue" height="1.0" stroke="black" width="12" x="375" y="38842.7"/>
  <text x="375" y="38848.7" font-family="Tahoma" font-size="12" transform="rotate(90 375,38848.7)" text-rendering="optimizeSpeed" fill="#000000">Windows Vista (amd64) (10)</text>
  <rect fill="blue" height="1.1" stroke="black" width="12" x="390" y="38842.6"/>
  <text x="390" y="38848.7" font-family="Tahoma" font-size="12" transform="rotate(90 390,38848.7)" text-rendering="optimizeSpeed" fill="#000000">HP-UX (ia64) (11)</text>
  <rect fill="blue" height="1.1" stroke="black" width="12" x="405" y="38842.6"/>
  <text x="405" y="38848.7" font-family="Tahoma" font-size="12" transform="rotate(90 405,38848.7)" text-rendering="optimizeSpeed" fill="#000000">Windows XP (amd64) (11)</text>
  <rect fill="blue" height="2.0" stroke="black" width="12" x="420" y="38841.7"/>
  <text x="420" y="38848.7" font-family="Tahoma" font-size="12" transform="rotate(90 420,38848.7)" text-rendering="optimizeSpeed" fill="#000000">Linux (ppc) (20)</text>
  <rect fill="blue" height="2.0" stroke="black" width="12" x="435" y="38841.7"/>
  <text x="435" y="38848.7" font-family="Tahoma" font-size="12" transform="rotate(90 435,38848.7)" text-rendering="optimizeSpeed" fill="#000000">OpenBSD (amd64) (20)</text>
  <rect fill="blue" height="2.6" stroke="black" width="12" x="450" y="38841.1"/>
  <text x="450" y="38848.7" font-family="Tahoma" font-size="12" transform="rotate(90 450,38848.7)" text-rendering="optimizeSpeed" fill="#000000">NONSTOP_KERNEL (IA64N) (26)</text>
  <rect fill="blue" height="4.6" stroke="black" width="12" x="465" y="38839.1"/>
  <text x="465" y="38848.7" font-family="Tahoma" font-size="12" transform="rotate(90 465,38848.7)" text-rendering="optimizeSpeed" fill="#000000">Linux (mips64el) (46)</text>
  <rect fill="blue" height="6.0" stroke="black" width="12" x="480" y="38837.7"/>
  <text x="480" y="38848.7" font-family="Tahoma" font-size="12" transform="rotate(90 480,38848.7)" text-rendering="optimizeSpeed" fill="#000000">HP-UX (PA_RISC2.0) (60)</text>
  <rect fill="blue" height="8.1" stroke="black" width="12" x="495" y="38835.6"/>
  <text x="495" y="38848.7" font-family="Tahoma" font-size="12" transform="rotate(90 495,38848.7)" text-rendering="optimizeSpeed" fill="#000000">Linux (x86) (81)</text>
  <rect fill="blue" height="9.0" stroke="black" width="12" x="510" y="38834.7"/>
  <text x="510" y="38848.7" font-family="Tahoma" font-size="12" transform="rotate(90 510,38848.7)" text-rendering="optimizeSpeed" fill="#000000">z/OS (s390x) (90)</text>
  <rect fill="blue" height="9.1" stroke="black" width="12" x="525" y="38834.6"/>
  <text x="525" y="38848.7" font-family="Tahoma" font-size="12" transform="rotate(90 525,38848.7)" text-rendering="optimizeSpeed" fill="#000000">Windows Vista (x86) (91)</text>
  <rect fill="blue" height="17.2" stroke="black" width="12" x="540" y="38826.5"/>
  <text x="540" y="38848.7" font-family="Tahoma" font-size="12" transform="rotate(90 540,38848.7)" text-rendering="optimizeSpeed" fill="#000000">Linux (ppc64) (172)</text>
  <rect fill="blue" height="17.8" stroke="black" width="12" x="555" y="38825.9"/>
  <text x="555" y="38848.7" font-family="Tahoma" font-size="12" transform="rotate(90 555,38848.7)" text-rendering="optimizeSpeed" fill="#000000">Windows 2003 (amd64) (178)</text>
  <rect fill="blue" height="22.7" stroke="black" width="12" x="570" y="38821.0"/>
  <text x="570" y="38848.7" font-family="Tahoma" font-size="12" transform="rotate(90 570,38848.7)" text-rendering="optimizeSpeed" fill="#000000">FreeBSD (i386) (227)</text>
  <rect fill="blue" height="24.5" stroke="black" width="12" x="585" y="38819.2"/>
  <text x="585" y="38848.7" font-family="Tahoma" font-size="12" transform="rotate(90 585,38848.7)" text-rendering="optimizeSpeed" fill="#000000">Linux (s390x) (245)</text>
  <rect fill="blue" height="28.5" stroke="black" width="12" x="600" y="38815.2"/>
  <text x="600" y="38848.7" font-family="Tahoma" font-size="12" transform="rotate(90 600,38848.7)" text-rendering="optimizeSpeed" fill="#000000">Windows 8 (amd64) (285)</text>
  <rect fill="blue" height="30.9" stroke="black" width="12" x="615" y="38812.8"/>
  <text x="615" y="38848.7" font-family="Tahoma" font-size="12" transform="rotate(90 615,38848.7)" text-rendering="optimizeSpeed" fill="#000000">Windows 8 (x86) (309)</text>
  <rect fill="blue" height="34.3" stroke="black" width="12" x="630" y="38809.4"/>
  <text x="630" y="38848.7" font-family="Tahoma" font-size="12" transform="rotate(90 630,38848.7)" text-rendering="optimizeSpeed" fill="#000000">AIX (ppc) (343)</text>
  <rect fill="blue" height="34.5" stroke="black" width="12" x="645" y="38809.2"/>
  <text x="645" y="38848.7" font-family="Tahoma" font-size="12" transform="rotate(90 645,38848.7)" text-rendering="optimizeSpeed" fill="#000000">HP-UX (IA64N) (345)</text>
  <rect fill="blue" height="37.4" stroke="black" width="12" x="660" y="38806.3"/>
  <text x="660" y="38848.7" font-family="Tahoma" font-size="12" transform="rotate(90 660,38848.7)" text-rendering="optimizeSpeed" fill="#000000">Windows Server 2008 (amd64) (374)</text>
  <rect fill="blue" height="46.4" stroke="black" width="12" x="675" y="38797.3"/>
  <text x="675" y="38848.7" font-family="Tahoma" font-size="12" transform="rotate(90 675,38848.7)" text-rendering="optimizeSpeed" fill="#000000">Linux (ppc64le) (464)</text>
  <rect fill="blue" height="46.9" stroke="black" width="12" x="690" y="38796.8"/>
  <text x="690" y="38848.7" font-family="Tahoma" font-size="12" transform="rotate(90 690,38848.7)" text-rendering="optimizeSpeed" fill="#000000">Linux (aarch64) (469)</text>
  <rect fill="blue" height="52.6" stroke="black" width="12" x="705" y="38791.1"/>
  <text x="705" y="38848.7" font-family="Tahoma" font-size="12" transform="rotate(90 705,38848.7)" text-rendering="optimizeSpeed" fill="#000000">SunOS (sparc) (526)</text>
  <rect fill="blue" height="62.2" stroke="black" width="12" x="720" y="38781.5"/>
  <text x="720" y="38848.7" font-family="Tahoma" font-size="12" transform="rotate(90 720,38848.7)" text-rendering="optimizeSpeed" fill="#000000">SunOS (x86) (622)</text>
  <rect fill="blue" height="62.5" stroke="black" width="12" x="735" y="38781.2"/>
  <text x="735" y="38848.7" font-family="Tahoma" font-size="12" transform="rotate(90 735,38848.7)" text-rendering="optimizeSpeed" fill="#000000">FreeBSD (amd64) (625)</text>
  <rect fill="blue" height="70.1" stroke="black" width="12" x="750" y="38773.6"/>
  <text x="750" y="38848.7" font-family="Tahoma" font-size="12" transform="rotate(90 750,38848.7)" text-rendering="optimizeSpeed" fill="#000000">Windows XP (x86) (701)</text>
  <rect fill="blue" height="71.6" stroke="black" width="12" x="765" y="38772.1"/>
  <text x="765" y="38848.7" font-family="Tahoma" font-size="12" transform="rotate(90 765,38848.7)" text-rendering="optimizeSpeed" fill="#000000">Windows Server 2008 (x86) (716)</text>
  <rect fill="blue" height="79.9" stroke="black" width="12" x="780" y="38763.8"/>
  <text x="780" y="38848.7" font-family="Tahoma" font-size="12" transform="rotate(90 780,38848.7)" text-rendering="optimizeSpeed" fill="#000000">SunOS (amd64) (799)</text>
  <rect fill="blue" height="102.4" stroke="black" width="12" x="795" y="38741.3"/>
  <text x="795" y="38848.7" font-family="Tahoma" font-size="12" transform="rotate(90 795,38848.7)" text-rendering="optimizeSpeed" fill="#000000">Windows NT (unknown) (x86) (1024)</text>
  <rect fill="blue" height="103.8" stroke="black" width="12" x="810" y="38739.9"/>
  <text x="810" y="38848.7" font-family="Tahoma" font-size="12" transform="rotate(90 810,38848.7)" text-rendering="optimizeSpeed" fill="#000000">Windows NT (unknown) (amd64) (1038)</text>
  <rect fill="blue" height="127.6" stroke="black" width="12" x="825" y="38716.1"/>
  <text x="825" y="38848.7" font-family="Tahoma" font-size="12" transform="rotate(90 825,38848.7)" text-rendering="optimizeSpeed" fill="#000000">Windows 2003 (x86) (1276)</text>
  <rect fill="blue" height="133.1" stroke="black" width="12" x="840" y="38710.6"/>
  <text x="840" y="38848.7" font-family="Tahoma" font-size="12" transform="rotate(90 840,38848.7)" text-rendering="optimizeSpeed" fill="#000000">SunOS (sparcv9) (1331)</text>
  <rect fill="blue" height="153.8" stroke="black" width="12" x="855" y="38689.9"/>
  <text x="855" y="38848.7" font-family="Tahoma" font-size="12" transform="rotate(90 855,38848.7)" text-rendering="optimizeSpeed" fill="#000000">Windows Server 2012 (x86) (1538)</text>
  <rect fill="blue" height="171.7" stroke="black" width="12" x="870" y="38672.0"/>
  <text x="870" y="38848.7" font-family="Tahoma" font-size="12" transform="rotate(90 870,38848.7)" text-rendering="optimizeSpeed" fill="#000000">Linux (arm) (1717)</text>
  <rect fill="blue" height="186.5" stroke="black" width="12" x="885" y="38657.2"/>
  <text x="885" y="38848.7" font-family="Tahoma" font-size="12" transform="rotate(90 885,38848.7)" text-rendering="optimizeSpeed" fill="#000000">AIX (ppc64) (1865)</text>
  <rect fill="blue" height="194.5" stroke="black" width="12" x="900" y="38649.2"/>
  <text x="900" y="38848.7" font-family="Tahoma" font-size="12" transform="rotate(90 900,38848.7)" text-rendering="optimizeSpeed" fill="#000000">Windows 8.1 (x86) (1945)</text>
  <rect fill="blue" height="214.5" stroke="black" width="12" x="915" y="38629.2"/>
  <text x="915" y="38848.7" font-family="Tahoma" font-size="12" transform="rotate(90 915,38848.7)" text-rendering="optimizeSpeed" fill="#000000">Windows 8.1 (amd64) (2145)</text>
  <rect fill="blue" height="220.5" stroke="black" width="12" x="930" y="38623.2"/>
  <text x="930" y="38848.7" font-family="Tahoma" font-size="12" transform="rotate(90 930,38848.7)" text-rendering="optimizeSpeed" fill="#000000">Windows Server 2012 (amd64) (2205)</text>
  <rect fill="blue" height="517.4" stroke="black" width="12" x="945" y="38326.3"/>
  <text x="945" y="38848.7" font-family="Tahoma" font-size="12" transform="rotate(90 945,38848.7)" text-rendering="optimizeSpeed" fill="#000000">Windows Server 2016 (x86) (5174)</text>
  <rect fill="blue" height="784.8" stroke="black" width="12" x="960" y="38058.9"/>
  <text x="960" y="38848.7" font-family="Tahoma" font-size="12" transform="rotate(90 960,38848.7)" text-rendering="optimizeSpeed" fill="#000000">Windows Server 2016 (amd64) (7848)</text>
  <rect fill="blue" height="836.1" stroke="black" width="12" x="975" y="38007.6"/>
  <text x="975" y="38848.7" font-family="Tahoma" font-size="12" transform="rotate(90 975,38848.7)" text-rendering="optimizeSpeed" fill="#000000">Windows Server 2008 R2 (x86) (8361)</text>
  <rect fill="blue" height="855.5" stroke="black" width="12" x="990" y="37988.2"/>
  <text x="990" y="38848.7" font-family="Tahoma" font-size="12" transform="rotate(90 990,38848.7)" text-rendering="optimizeSpeed" fill="#000000">Linux (i386) (8555)</text>
  <rect fill="blue" height="1200.5" stroke="black" width="12" x="1005" y="37643.2"/>
  <text x="1005" y="38848.7" font-family="Tahoma" font-size="12" transform="rotate(90 1005,38848.7)" text-rendering="optimizeSpeed" fill="#000000">Windows Server 2012 R2 (x86) (12005)</text>
  <rect fill="blue" height="1481.0" stroke="black" width="12" x="1020" y="37362.7"/>
  <text x="1020" y="38848.7" font-family="Tahoma" font-size="12" transform="rotate(90 1020,38848.7)" text-rendering="optimizeSpeed" fill="#000000">Windows Server 2008 R2 (amd64) (14810)</text>
  <rect fill="blue" height="1779.3" stroke="black" width="12" x="1035" y="37064.4"/>
  <text x="1035" y="38848.7" font-family="Tahoma" font-size="12" transform="rotate(90 1035,38848.7)" text-rendering="optimizeSpeed" fill="#000000">Windows 10 (x86) (17793)</text>
  <rect fill="blue" height="2013.4" stroke="black" width="12" x="1050" y="36830.3"/>
  <text x="1050" y="38848.7" font-family="Tahoma" font-size="12" transform="rotate(90 1050,38848.7)" text-rendering="optimizeSpeed" fill="#000000">Windows 10 (amd64) (20134)</text>
  <rect fill="blue" height="2116.3" stroke="black" width="12" x="1065" y="36727.4"/>
  <text x="1065" y="38848.7" font-family="Tahoma" font-size="12" transform="rotate(90 1065,38848.7)" text-rendering="optimizeSpeed" fill="#000000">Windows Server 2012 R2 (amd64) (21163)</text>
  <rect fill="blue" height="2234.3" stroke="black" width="12" x="1080" y="36609.4"/>
  <text x="1080" y="38848.7" font-family="Tahoma" font-size="12" transform="rotate(90 1080,38848.7)" text-rendering="optimizeSpeed" fill="#000000">Windows 7 (amd64) (22343)</text>
  <rect fill="blue" height="2362.0" stroke="black" width="12" x="1095" y="36481.7"/>
  <text x="1095" y="38848.7" font-family="Tahoma" font-size="12" transform="rotate(90 1095,38848.7)" text-rendering="optimizeSpeed" fill="#000000">Windows 7 (x86) (23620)</text>
  <rect fill="blue" height="2701.3" stroke="black" width="12" x="1110" y="36142.4"/>
  <text x="1110" y="38848.7" font-family="Tahoma" font-size="12" transform="rotate(90 1110,38848.7)" text-rendering="optimizeSpeed" fill="#000000">Mac OS X (x86_64) (27013)</text>
  <rect fill="blue" height="20967.3" stroke="black" width="12" x="1125" y="17876.4"/>
  <text x="1125" y="38848.7" font-family="Tahoma" font-size="12" transform="rotate(90 1125,38848.7)" text-rendering="optimizeSpeed" fill="#000000">N/A (209673)</text>
  <rect fill="blue" height="38793.7" stroke="black" width="12" x="1140" y="50.0"/>
  <text x="1140" y="38848.7" font-family="Tahoma" font-size="12" transform="rotate(90 1140,38848.7)" text-rendering="optimizeSpeed" fill="#000000">Linux (amd64) (387937)</text>
  <text x="10" y="40" font-family="Tahoma" font-size="20" text-rendering="optimizeSpeed" fill="#000000">Nodes (total: 810477)</text>
</svg>
