<svg xmlns="http://www.w3.org/2000/svg" version="1.1" preserveAspectRatio="xMidYMid meet" viewBox="0 0 710 12851.7">
  <rect fill="blue" height="0.0" stroke="black" width="12" x="15" y="12551.7"/>
  <text x="15" y="12556.7" font-family="Tahoma" font-size="12" transform="rotate(90 15,12556.7)" text-rendering="optimizeSpeed" fill="#000000">hudson-model-PhpProject (1)</text>
  <rect fill="blue" height="0.0" stroke="black" width="12" x="30" y="12551.7"/>
  <text x="30" y="12556.7" font-family="Tahoma" font-size="12" transform="rotate(90 30,12556.7)" text-rendering="optimizeSpeed" fill="#000000">org-cloudbees-literate-jenkins-LiterateMultibranchProject (1)</text>
  <rect fill="blue" height="0.0" stroke="black" width="12" x="45" y="12551.7"/>
  <text x="45" y="12556.7" font-family="Tahoma" font-size="12" transform="rotate(90 45,12556.7)" text-rendering="optimizeSpeed" fill="#000000">org-jenkinsci-plugins-SyncSources-MonitoringJobsProject (1)</text>
  <rect fill="blue" height="0.0" stroke="black" width="12" x="60" y="12551.7"/>
  <text x="60" y="12556.7" font-family="Tahoma" font-size="12" transform="rotate(90 60,12556.7)" text-rendering="optimizeSpeed" fill="#000000">org-jenkinsci-plugins-SyncSources-PreparationDailyProject (1)</text>
  <rect fill="blue" height="0.0" stroke="black" width="12" x="75" y="12551.7"/>
  <text x="75" y="12556.7" font-family="Tahoma" font-size="12" transform="rotate(90 75,12556.7)" text-rendering="optimizeSpeed" fill="#000000">org-jenkinsci-plugins-jobexecutors-toplevelitems-StoreVersion (1)</text>
  <rect fill="blue" height="0.0" stroke="black" width="12" x="90" y="12551.7"/>
  <text x="90" y="12556.7" font-family="Tahoma" font-size="12" transform="rotate(90 90,12556.7)" text-rendering="optimizeSpeed" fill="#000000">hudson-plugins-job_dependency-projects-MasterProject (2)</text>
  <rect fill="blue" height="0.0" stroke="black" width="12" x="105" y="12551.7"/>
  <text x="105" y="12556.7" font-family="Tahoma" font-size="12" transform="rotate(90 105,12556.7)" text-rendering="optimizeSpeed" fill="#000000">hudson-plugins-wormpex-data-template-DataWarehouseStyleProject (2)</text>
  <rect fill="blue" height="0.0" stroke="black" width="12" x="120" y="12551.7"/>
  <text x="120" y="12556.7" font-family="Tahoma" font-size="12" transform="rotate(90 120,12556.7)" text-rendering="optimizeSpeed" fill="#000000">org-jenkinsci-plugins-jobexecutors-toplevelitems-PortalNotifier (2)</text>
  <rect fill="blue" height="0.0" stroke="black" width="12" x="135" y="12551.7"/>
  <text x="135" y="12556.7" font-family="Tahoma" font-size="12" transform="rotate(90 135,12556.7)" text-rendering="optimizeSpeed" fill="#000000">com-github-mjdetullio-jenkins-plugins-multibranch-IvyMultiBranchProject (6)</text>
  <rect fill="blue" height="0.0" stroke="black" width="12" x="150" y="12551.7"/>
  <text x="150" y="12556.7" font-family="Tahoma" font-size="12" transform="rotate(90 150,12556.7)" text-rendering="optimizeSpeed" fill="#000000">org-jvnet-hudson-test-MockFolder (6)</text>
  <rect fill="blue" height="0.0" stroke="black" width="12" x="165" y="12551.7"/>
  <text x="165" y="12556.7" font-family="Tahoma" font-size="12" transform="rotate(90 165,12556.7)" text-rendering="optimizeSpeed" fill="#000000">hudson-model-CppProject (7)</text>
  <rect fill="blue" height="0.0" stroke="black" width="12" x="180" y="12551.7"/>
  <text x="180" y="12556.7" font-family="Tahoma" font-size="12" transform="rotate(90 180,12556.7)" text-rendering="optimizeSpeed" fill="#000000">org-jenkinsci-plugins-coordinator-dummy-model-CoordinatorProject (7)</text>
  <rect fill="blue" height="0.0" stroke="black" width="12" x="195" y="12551.7"/>
  <text x="195" y="12556.7" font-family="Tahoma" font-size="12" transform="rotate(90 195,12556.7)" text-rendering="optimizeSpeed" fill="#000000">org-jenkinsci-plugins-SyncSources-MakeFirProject (10)</text>
  <rect fill="blue" height="0.0" stroke="black" width="12" x="210" y="12551.7"/>
  <text x="210" y="12556.7" font-family="Tahoma" font-size="12" transform="rotate(90 210,12556.7)" text-rendering="optimizeSpeed" fill="#000000">org-jenkinsci-plugins-SyncSources-MakeProject (10)</text>
  <rect fill="blue" height="0.0" stroke="black" width="12" x="225" y="12551.7"/>
  <text x="225" y="12556.7" font-family="Tahoma" font-size="12" transform="rotate(90 225,12556.7)" text-rendering="optimizeSpeed" fill="#000000">org-jenkinsci-plugins-SyncSources-PreShelveProject (10)</text>
  <rect fill="blue" height="0.0" stroke="black" width="12" x="240" y="12551.7"/>
  <text x="240" y="12556.7" font-family="Tahoma" font-size="12" transform="rotate(90 240,12556.7)" text-rendering="optimizeSpeed" fill="#000000">org-jenkinsci-plugins-vSphereCloudStyleProject (13)</text>
  <rect fill="blue" height="0.0" stroke="black" width="12" x="255" y="12551.7"/>
  <text x="255" y="12556.7" font-family="Tahoma" font-size="12" transform="rotate(90 255,12556.7)" text-rendering="optimizeSpeed" fill="#000000">hudson-model-HtmlProject (15)</text>
  <rect fill="blue" height="0.0" stroke="black" width="12" x="270" y="12551.7"/>
  <text x="270" y="12556.7" font-family="Tahoma" font-size="12" transform="rotate(90 270,12556.7)" text-rendering="optimizeSpeed" fill="#000000">org-jenkinsci-plugins-drupal-projects-DrupalProject (18)</text>
  <rect fill="blue" height="0.0" stroke="black" width="12" x="285" y="12551.7"/>
  <text x="285" y="12556.7" font-family="Tahoma" font-size="12" transform="rotate(90 285,12556.7)" text-rendering="optimizeSpeed" fill="#000000">com-barchart-jenkins-cascade-CascadeProject (21)</text>
  <rect fill="blue" height="0.0" stroke="black" width="12" x="300" y="12551.7"/>
  <text x="300" y="12556.7" font-family="Tahoma" font-size="12" transform="rotate(90 300,12556.7)" text-rendering="optimizeSpeed" fill="#000000">hudson-model-GolangProject (39)</text>
  <rect fill="blue" height="0.1" stroke="black" width="12" x="315" y="12551.7"/>
  <text x="315" y="12556.7" font-family="Tahoma" font-size="12" transform="rotate(90 315,12556.7)" text-rendering="optimizeSpeed" fill="#000000">hudson-model-RunOnceProject (50)</text>
  <rect fill="blue" height="0.1" stroke="black" width="12" x="330" y="12551.7"/>
  <text x="330" y="12556.7" font-family="Tahoma" font-size="12" transform="rotate(90 330,12556.7)" text-rendering="optimizeSpeed" fill="#000000">hudson-plugin-smartjob-SmartJob (52)</text>
  <rect fill="blue" height="0.1" stroke="black" width="12" x="345" y="12551.7"/>
  <text x="345" y="12556.7" font-family="Tahoma" font-size="12" transform="rotate(90 345,12556.7)" text-rendering="optimizeSpeed" fill="#000000">com-github-mjdetullio-jenkins-plugins-multibranch-MatrixMultiBranchProject (65)</text>
  <rect fill="blue" height="0.1" stroke="black" width="12" x="360" y="12551.7"/>
  <text x="360" y="12556.7" font-family="Tahoma" font-size="12" transform="rotate(90 360,12556.7)" text-rendering="optimizeSpeed" fill="#000000">hudson-drools-DroolsProject (68)</text>
  <rect fill="blue" height="0.1" stroke="black" width="12" x="375" y="12551.6"/>
  <text x="375" y="12556.7" font-family="Tahoma" font-size="12" transform="rotate(90 375,12556.7)" text-rendering="optimizeSpeed" fill="#000000">com-groupon-jenkins-dynamic-build-DynamicProject (90)</text>
  <rect fill="blue" height="0.2" stroke="black" width="12" x="390" y="12551.5"/>
  <text x="390" y="12556.7" font-family="Tahoma" font-size="12" transform="rotate(90 390,12556.7)" text-rendering="optimizeSpeed" fill="#000000">captmorgan-ExternalProject (202)</text>
  <rect fill="blue" height="0.6" stroke="black" width="12" x="405" y="12551.1"/>
  <text x="405" y="12556.7" font-family="Tahoma" font-size="12" transform="rotate(90 405,12556.7)" text-rendering="optimizeSpeed" fill="#000000">org-jenkinsci-plugins-coordinator-model-CoordinatorProject (610)</text>
  <rect fill="blue" height="0.7" stroke="black" width="12" x="420" y="12551.1"/>
  <text x="420" y="12556.7" font-family="Tahoma" font-size="12" transform="rotate(90 420,12556.7)" text-rendering="optimizeSpeed" fill="#000000">com-groupon-jenkins-dynamic-organizationcontainer-OrganizationContainer (661)</text>
  <rect fill="blue" height="0.8" stroke="black" width="12" x="435" y="12550.9"/>
  <text x="435" y="12556.7" font-family="Tahoma" font-size="12" transform="rotate(90 435,12556.7)" text-rendering="optimizeSpeed" fill="#000000">com-github-mjdetullio-jenkins-plugins-multibranch-MavenMultiBranchProject (848)</text>
  <rect fill="blue" height="2.7" stroke="black" width="12" x="450" y="12549.0"/>
  <text x="450" y="12556.7" font-family="Tahoma" font-size="12" transform="rotate(90 450,12556.7)" text-rendering="optimizeSpeed" fill="#000000">org-jenkinsci-plugins-pipeline-multibranch-defaults-PipelineMultiBranchDefaultsProject (2715)</text>
  <rect fill="blue" height="3.2" stroke="black" width="12" x="465" y="12548.5"/>
  <text x="465" y="12556.7" font-family="Tahoma" font-size="12" transform="rotate(90 465,12556.7)" text-rendering="optimizeSpeed" fill="#000000">org-jenkinsci-plugins-jobgenerator-JobGenerator (3233)</text>
  <rect fill="blue" height="3.6" stroke="black" width="12" x="480" y="12548.2"/>
  <text x="480" y="12556.7" font-family="Tahoma" font-size="12" transform="rotate(90 480,12556.7)" text-rendering="optimizeSpeed" fill="#000000">com-github-mjdetullio-jenkins-plugins-multibranch-FreeStyleMultiBranchProject (3561)</text>
  <rect fill="blue" height="4.2" stroke="black" width="12" x="495" y="12547.6"/>
  <text x="495" y="12556.7" font-family="Tahoma" font-size="12" transform="rotate(90 495,12556.7)" text-rendering="optimizeSpeed" fill="#000000">hudson-ivy-IvyModuleSet (4180)</text>
  <rect fill="blue" height="5.5" stroke="black" width="12" x="510" y="12546.2"/>
  <text x="510" y="12556.7" font-family="Tahoma" font-size="12" transform="rotate(90 510,12556.7)" text-rendering="optimizeSpeed" fill="#000000">hudson-model-ExternalJob (5532)</text>
  <rect fill="blue" height="12.3" stroke="black" width="12" x="525" y="12539.5"/>
  <text x="525" y="12556.7" font-family="Tahoma" font-size="12" transform="rotate(90 525,12556.7)" text-rendering="optimizeSpeed" fill="#000000">jenkins-branch-OrganizationFolder (12253)</text>
  <rect fill="blue" height="26.4" stroke="black" width="12" x="540" y="12525.3"/>
  <text x="540" y="12556.7" font-family="Tahoma" font-size="12" transform="rotate(90 540,12556.7)" text-rendering="optimizeSpeed" fill="#000000">hudson-plugins-project_inheritance-projects-InheritanceProject (26392)</text>
  <rect fill="blue" height="250.3" stroke="black" width="12" x="555" y="12301.4"/>
  <text x="555" y="12556.7" font-family="Tahoma" font-size="12" transform="rotate(90 555,12556.7)" text-rendering="optimizeSpeed" fill="#000000">com-tikal-jenkins-plugins-multijob-MultiJobProject (250296)</text>
  <rect fill="blue" height="263.8" stroke="black" width="12" x="570" y="12287.9"/>
  <text x="570" y="12556.7" font-family="Tahoma" font-size="12" transform="rotate(90 570,12556.7)" text-rendering="optimizeSpeed" fill="#000000">com-cloudbees-plugins-flow-BuildFlow (263803)</text>
  <rect fill="blue" height="282.4" stroke="black" width="12" x="585" y="12269.4"/>
  <text x="585" y="12556.7" font-family="Tahoma" font-size="12" transform="rotate(90 585,12556.7)" text-rendering="optimizeSpeed" fill="#000000">hudson-matrix-MatrixProject (282358)</text>
  <rect fill="blue" height="310.7" stroke="black" width="12" x="600" y="12241.1"/>
  <text x="600" y="12556.7" font-family="Tahoma" font-size="12" transform="rotate(90 600,12556.7)" text-rendering="optimizeSpeed" fill="#000000">org-jenkinsci-plugins-workflow-multibranch-WorkflowMultiBranchProject (310677)</text>
  <rect fill="blue" height="793.9" stroke="black" width="12" x="615" y="11757.8"/>
  <text x="615" y="12556.7" font-family="Tahoma" font-size="12" transform="rotate(90 615,12556.7)" text-rendering="optimizeSpeed" fill="#000000">com-cloudbees-hudson-plugins-folder-Folder (793904)</text>
  <rect fill="blue" height="1766.6" stroke="black" width="12" x="630" y="10785.2"/>
  <text x="630" y="12556.7" font-family="Tahoma" font-size="12" transform="rotate(90 630,12556.7)" text-rendering="optimizeSpeed" fill="#000000">hudson-maven-MavenModuleSet (1766584)</text>
  <rect fill="blue" height="3716.1" stroke="black" width="12" x="645" y="8835.6"/>
  <text x="645" y="12556.7" font-family="Tahoma" font-size="12" transform="rotate(90 645,12556.7)" text-rendering="optimizeSpeed" fill="#000000">org-jenkinsci-plugins-workflow-job-WorkflowJob (3716136)</text>
  <rect fill="blue" height="12501.7" stroke="black" width="12" x="660" y="50.0"/>
  <text x="660" y="12556.7" font-family="Tahoma" font-size="12" transform="rotate(90 660,12556.7)" text-rendering="optimizeSpeed" fill="#000000">hudson-model-FreeStyleProject (12501734)</text>
  <text x="10" y="40" font-family="Tahoma" font-size="20" text-rendering="optimizeSpeed" fill="#000000">Jobs (total: 19946177)</text>
</svg>
