<svg xmlns="http://www.w3.org/2000/svg" version="1.1" preserveAspectRatio="xMidYMid meet" viewBox="0 0 755 11593.4">
  <rect fill="blue" height="0.0" stroke="black" width="12" x="15" y="11293.4"/>
  <text x="15" y="11298.4" font-family="Tahoma" font-size="12" transform="rotate(90 15,11298.4)" text-rendering="optimizeSpeed" fill="#000000">hudson-model-PhpProject (1)</text>
  <rect fill="blue" height="0.0" stroke="black" width="12" x="30" y="11293.4"/>
  <text x="30" y="11298.4" font-family="Tahoma" font-size="12" transform="rotate(90 30,11298.4)" text-rendering="optimizeSpeed" fill="#000000">org-jenkinsci-plugins-Blueproject (1)</text>
  <rect fill="blue" height="0.0" stroke="black" width="12" x="45" y="11293.4"/>
  <text x="45" y="11298.4" font-family="Tahoma" font-size="12" transform="rotate(90 45,11298.4)" text-rendering="optimizeSpeed" fill="#000000">org-jenkinsci-plugins-jobexecutors-toplevelitems-StoreVersion (1)</text>
  <rect fill="blue" height="0.0" stroke="black" width="12" x="60" y="11293.4"/>
  <text x="60" y="11298.4" font-family="Tahoma" font-size="12" transform="rotate(90 60,11298.4)" text-rendering="optimizeSpeed" fill="#000000">org-jenkinsci-plugins-pluginintegrationnew-LcaToolProject (1)</text>
  <rect fill="blue" height="0.0" stroke="black" width="12" x="75" y="11293.4"/>
  <text x="75" y="11298.4" font-family="Tahoma" font-size="12" transform="rotate(90 75,11298.4)" text-rendering="optimizeSpeed" fill="#000000">org-jenkinsci-plugins-Gopaddleproject (2)</text>
  <rect fill="blue" height="0.0" stroke="black" width="12" x="90" y="11293.4"/>
  <text x="90" y="11298.4" font-family="Tahoma" font-size="12" transform="rotate(90 90,11298.4)" text-rendering="optimizeSpeed" fill="#000000">org-jenkinsci-plugins-SyncSources-MonitoringJobsProject (2)</text>
  <rect fill="blue" height="0.0" stroke="black" width="12" x="105" y="11293.4"/>
  <text x="105" y="11298.4" font-family="Tahoma" font-size="12" transform="rotate(90 105,11298.4)" text-rendering="optimizeSpeed" fill="#000000">org-jenkinsci-plugins-SyncSources-PreparationDailyProject (2)</text>
  <rect fill="blue" height="0.0" stroke="black" width="12" x="120" y="11293.4"/>
  <text x="120" y="11298.4" font-family="Tahoma" font-size="12" transform="rotate(90 120,11298.4)" text-rendering="optimizeSpeed" fill="#000000">org-jenkinsci-plugins-jobexecutors-toplevelitems-PortalNotifier (2)</text>
  <rect fill="blue" height="0.0" stroke="black" width="12" x="135" y="11293.4"/>
  <text x="135" y="11298.4" font-family="Tahoma" font-size="12" transform="rotate(90 135,11298.4)" text-rendering="optimizeSpeed" fill="#000000">com-google-jenkins-plugins-dsl-YamlProject (3)</text>
  <rect fill="blue" height="0.0" stroke="black" width="12" x="150" y="11293.4"/>
  <text x="150" y="11298.4" font-family="Tahoma" font-size="12" transform="rotate(90 150,11298.4)" text-rendering="optimizeSpeed" fill="#000000">org-cloudbees-literate-jenkins-LiterateMultibranchProject (4)</text>
  <rect fill="blue" height="0.0" stroke="black" width="12" x="165" y="11293.4"/>
  <text x="165" y="11298.4" font-family="Tahoma" font-size="12" transform="rotate(90 165,11298.4)" text-rendering="optimizeSpeed" fill="#000000">org-jenkinsci-plugins-gopaddleset (6)</text>
  <rect fill="blue" height="0.0" stroke="black" width="12" x="180" y="11293.4"/>
  <text x="180" y="11298.4" font-family="Tahoma" font-size="12" transform="rotate(90 180,11298.4)" text-rendering="optimizeSpeed" fill="#000000">com-github-mjdetullio-jenkins-plugins-multibranch-IvyMultiBranchProject (7)</text>
  <rect fill="blue" height="0.0" stroke="black" width="12" x="195" y="11293.4"/>
  <text x="195" y="11298.4" font-family="Tahoma" font-size="12" transform="rotate(90 195,11298.4)" text-rendering="optimizeSpeed" fill="#000000">hudson-model-CppProject (7)</text>
  <rect fill="blue" height="0.0" stroke="black" width="12" x="210" y="11293.4"/>
  <text x="210" y="11298.4" font-family="Tahoma" font-size="12" transform="rotate(90 210,11298.4)" text-rendering="optimizeSpeed" fill="#000000">org-jenkinsci-plugins-coordinator-dummy-model-CoordinatorProject (7)</text>
  <rect fill="blue" height="0.0" stroke="black" width="12" x="225" y="11293.4"/>
  <text x="225" y="11298.4" font-family="Tahoma" font-size="12" transform="rotate(90 225,11298.4)" text-rendering="optimizeSpeed" fill="#000000">hudson-model-HtmlProject (13)</text>
  <rect fill="blue" height="0.0" stroke="black" width="12" x="240" y="11293.4"/>
  <text x="240" y="11298.4" font-family="Tahoma" font-size="12" transform="rotate(90 240,11298.4)" text-rendering="optimizeSpeed" fill="#000000">org-jvnet-hudson-test-MockFolder (18)</text>
  <rect fill="blue" height="0.0" stroke="black" width="12" x="255" y="11293.4"/>
  <text x="255" y="11298.4" font-family="Tahoma" font-size="12" transform="rotate(90 255,11298.4)" text-rendering="optimizeSpeed" fill="#000000">org-jenkinsci-plugins-drupal-projects-DrupalProject (24)</text>
  <rect fill="blue" height="0.0" stroke="black" width="12" x="270" y="11293.4"/>
  <text x="270" y="11298.4" font-family="Tahoma" font-size="12" transform="rotate(90 270,11298.4)" text-rendering="optimizeSpeed" fill="#000000">com-barchart-jenkins-cascade-CascadeProject (25)</text>
  <rect fill="blue" height="0.0" stroke="black" width="12" x="285" y="11293.4"/>
  <text x="285" y="11298.4" font-family="Tahoma" font-size="12" transform="rotate(90 285,11298.4)" text-rendering="optimizeSpeed" fill="#000000">hudson-plugin-smartjob-SmartJob (25)</text>
  <rect fill="blue" height="0.0" stroke="black" width="12" x="300" y="11293.4"/>
  <text x="300" y="11298.4" font-family="Tahoma" font-size="12" transform="rotate(90 300,11298.4)" text-rendering="optimizeSpeed" fill="#000000">org-jenkinsci-plugins-SyncSources-MakeProject (28)</text>
  <rect fill="blue" height="0.0" stroke="black" width="12" x="315" y="11293.4"/>
  <text x="315" y="11298.4" font-family="Tahoma" font-size="12" transform="rotate(90 315,11298.4)" text-rendering="optimizeSpeed" fill="#000000">org-jenkinsci-plugins-SyncSources-MakeFirProject (29)</text>
  <rect fill="blue" height="0.0" stroke="black" width="12" x="330" y="11293.4"/>
  <text x="330" y="11298.4" font-family="Tahoma" font-size="12" transform="rotate(90 330,11298.4)" text-rendering="optimizeSpeed" fill="#000000">org-jenkinsci-plugins-SyncSources-PreShelveProject (29)</text>
  <rect fill="blue" height="0.0" stroke="black" width="12" x="345" y="11293.4"/>
  <text x="345" y="11298.4" font-family="Tahoma" font-size="12" transform="rotate(90 345,11298.4)" text-rendering="optimizeSpeed" fill="#000000">hudson-drools-DroolsProject (35)</text>
  <rect fill="blue" height="0.0" stroke="black" width="12" x="360" y="11293.4"/>
  <text x="360" y="11298.4" font-family="Tahoma" font-size="12" transform="rotate(90 360,11298.4)" text-rendering="optimizeSpeed" fill="#000000">hudson-model-GolangProject (37)</text>
  <rect fill="blue" height="0.1" stroke="black" width="12" x="375" y="11293.3"/>
  <text x="375" y="11298.4" font-family="Tahoma" font-size="12" transform="rotate(90 375,11298.4)" text-rendering="optimizeSpeed" fill="#000000">com-github-mjdetullio-jenkins-plugins-multibranch-MatrixMultiBranchProject (99)</text>
  <rect fill="blue" height="0.1" stroke="black" width="12" x="390" y="11293.3"/>
  <text x="390" y="11298.4" font-family="Tahoma" font-size="12" transform="rotate(90 390,11298.4)" text-rendering="optimizeSpeed" fill="#000000">captmorgan-ExternalProject (126)</text>
  <rect fill="blue" height="0.2" stroke="black" width="12" x="405" y="11293.3"/>
  <text x="405" y="11298.4" font-family="Tahoma" font-size="12" transform="rotate(90 405,11298.4)" text-rendering="optimizeSpeed" fill="#000000">org-jenkinsci-plugins-spoontrigger-SpoonProject (155)</text>
  <rect fill="blue" height="0.3" stroke="black" width="12" x="420" y="11293.1"/>
  <text x="420" y="11298.4" font-family="Tahoma" font-size="12" transform="rotate(90 420,11298.4)" text-rendering="optimizeSpeed" fill="#000000">hudson-plugins-job_dependency-projects-MasterProject (317)</text>
  <rect fill="blue" height="0.5" stroke="black" width="12" x="435" y="11292.9"/>
  <text x="435" y="11298.4" font-family="Tahoma" font-size="12" transform="rotate(90 435,11298.4)" text-rendering="optimizeSpeed" fill="#000000">org-jenkinsci-plugins-coordinator-model-CoordinatorProject (501)</text>
  <rect fill="blue" height="0.7" stroke="black" width="12" x="450" y="11292.7"/>
  <text x="450" y="11298.4" font-family="Tahoma" font-size="12" transform="rotate(90 450,11298.4)" text-rendering="optimizeSpeed" fill="#000000">com-groupon-jenkins-dynamic-organizationcontainer-OrganizationContainer (742)</text>
  <rect fill="blue" height="1.4" stroke="black" width="12" x="465" y="11292.0"/>
  <text x="465" y="11298.4" font-family="Tahoma" font-size="12" transform="rotate(90 465,11298.4)" text-rendering="optimizeSpeed" fill="#000000">org-jenkinsci-plugins-pipeline-multibranch-defaults-PipelineMultiBranchDefaultsProject (1398)</text>
  <rect fill="blue" height="1.7" stroke="black" width="12" x="480" y="11291.8"/>
  <text x="480" y="11298.4" font-family="Tahoma" font-size="12" transform="rotate(90 480,11298.4)" text-rendering="optimizeSpeed" fill="#000000">com-github-mjdetullio-jenkins-plugins-multibranch-MavenMultiBranchProject (1656)</text>
  <rect fill="blue" height="3.2" stroke="black" width="12" x="495" y="11290.2"/>
  <text x="495" y="11298.4" font-family="Tahoma" font-size="12" transform="rotate(90 495,11298.4)" text-rendering="optimizeSpeed" fill="#000000">org-jenkinsci-plugins-jobgenerator-JobGenerator (3205)</text>
  <rect fill="blue" height="3.8" stroke="black" width="12" x="510" y="11289.6"/>
  <text x="510" y="11298.4" font-family="Tahoma" font-size="12" transform="rotate(90 510,11298.4)" text-rendering="optimizeSpeed" fill="#000000">com-github-mjdetullio-jenkins-plugins-multibranch-FreeStyleMultiBranchProject (3844)</text>
  <rect fill="blue" height="4.0" stroke="black" width="12" x="525" y="11289.4"/>
  <text x="525" y="11298.4" font-family="Tahoma" font-size="12" transform="rotate(90 525,11298.4)" text-rendering="optimizeSpeed" fill="#000000">com-groupon-jenkins-dynamic-build-DynamicProject (4005)</text>
  <rect fill="blue" height="4.1" stroke="black" width="12" x="540" y="11289.4"/>
  <text x="540" y="11298.4" font-family="Tahoma" font-size="12" transform="rotate(90 540,11298.4)" text-rendering="optimizeSpeed" fill="#000000">hudson-model-ExternalJob (4056)</text>
  <rect fill="blue" height="4.6" stroke="black" width="12" x="555" y="11288.9"/>
  <text x="555" y="11298.4" font-family="Tahoma" font-size="12" transform="rotate(90 555,11298.4)" text-rendering="optimizeSpeed" fill="#000000">hudson-ivy-IvyModuleSet (4595)</text>
  <rect fill="blue" height="10.8" stroke="black" width="12" x="570" y="11282.6"/>
  <text x="570" y="11298.4" font-family="Tahoma" font-size="12" transform="rotate(90 570,11298.4)" text-rendering="optimizeSpeed" fill="#000000">jenkins-branch-OrganizationFolder (10819)</text>
  <rect fill="blue" height="24.3" stroke="black" width="12" x="585" y="11269.2"/>
  <text x="585" y="11298.4" font-family="Tahoma" font-size="12" transform="rotate(90 585,11298.4)" text-rendering="optimizeSpeed" fill="#000000">hudson-plugins-project_inheritance-projects-InheritanceProject (24288)</text>
  <rect fill="blue" height="198.8" stroke="black" width="12" x="600" y="11094.6"/>
  <text x="600" y="11298.4" font-family="Tahoma" font-size="12" transform="rotate(90 600,11298.4)" text-rendering="optimizeSpeed" fill="#000000">com-cloudbees-plugins-flow-BuildFlow (198846)</text>
  <rect fill="blue" height="221.9" stroke="black" width="12" x="615" y="11071.6"/>
  <text x="615" y="11298.4" font-family="Tahoma" font-size="12" transform="rotate(90 615,11298.4)" text-rendering="optimizeSpeed" fill="#000000">org-jenkinsci-plugins-workflow-multibranch-WorkflowMultiBranchProject (221879)</text>
  <rect fill="blue" height="242.2" stroke="black" width="12" x="630" y="11051.2"/>
  <text x="630" y="11298.4" font-family="Tahoma" font-size="12" transform="rotate(90 630,11298.4)" text-rendering="optimizeSpeed" fill="#000000">com-tikal-jenkins-plugins-multijob-MultiJobProject (242241)</text>
  <rect fill="blue" height="263.6" stroke="black" width="12" x="645" y="11029.9"/>
  <text x="645" y="11298.4" font-family="Tahoma" font-size="12" transform="rotate(90 645,11298.4)" text-rendering="optimizeSpeed" fill="#000000">hudson-matrix-MatrixProject (263591)</text>
  <rect fill="blue" height="757.9" stroke="black" width="12" x="660" y="10535.6"/>
  <text x="660" y="11298.4" font-family="Tahoma" font-size="12" transform="rotate(90 660,11298.4)" text-rendering="optimizeSpeed" fill="#000000">com-cloudbees-hudson-plugins-folder-Folder (757881)</text>
  <rect fill="blue" height="1613.1" stroke="black" width="12" x="675" y="9680.4"/>
  <text x="675" y="11298.4" font-family="Tahoma" font-size="12" transform="rotate(90 675,11298.4)" text-rendering="optimizeSpeed" fill="#000000">hudson-maven-MavenModuleSet (1613087)</text>
  <rect fill="blue" height="2688.0" stroke="black" width="12" x="690" y="8605.5"/>
  <text x="690" y="11298.4" font-family="Tahoma" font-size="12" transform="rotate(90 690,11298.4)" text-rendering="optimizeSpeed" fill="#000000">org-jenkinsci-plugins-workflow-job-WorkflowJob (2687967)</text>
  <rect fill="blue" height="11243.4" stroke="black" width="12" x="705" y="50.0"/>
  <text x="705" y="11298.4" font-family="Tahoma" font-size="12" transform="rotate(90 705,11298.4)" text-rendering="optimizeSpeed" fill="#000000">hudson-model-FreeStyleProject (11243446)</text>
  <text x="10" y="40" font-family="Tahoma" font-size="20" text-rendering="optimizeSpeed" fill="#000000">Jobs (total: 17289053)</text>
</svg>
