<svg xmlns="http://www.w3.org/2000/svg" version="1.1" preserveAspectRatio="xMidYMid meet" viewBox="0 0 620 13249.4">
  <rect fill="blue" height="0.0" stroke="black" width="12" x="15" y="12949.4"/>
  <text x="15" y="12954.4" font-family="Tahoma" font-size="12" transform="rotate(90 15,12954.4)" text-rendering="optimizeSpeed" fill="#000000">hudson-plugins-job_dependency-projects-MasterProject (1)</text>
  <rect fill="blue" height="0.0" stroke="black" width="12" x="30" y="12949.4"/>
  <text x="30" y="12954.4" font-family="Tahoma" font-size="12" transform="rotate(90 30,12954.4)" text-rendering="optimizeSpeed" fill="#000000">hudson-plugins-wormpex-data-template-DependencyStyleProject (1)</text>
  <rect fill="blue" height="0.0" stroke="black" width="12" x="45" y="12949.4"/>
  <text x="45" y="12954.4" font-family="Tahoma" font-size="12" transform="rotate(90 45,12954.4)" text-rendering="optimizeSpeed" fill="#000000">org-cloudbees-literate-jenkins-LiterateMultibranchProject (1)</text>
  <rect fill="blue" height="0.0" stroke="black" width="12" x="60" y="12949.4"/>
  <text x="60" y="12954.4" font-family="Tahoma" font-size="12" transform="rotate(90 60,12954.4)" text-rendering="optimizeSpeed" fill="#000000">org-jenkinsci-plugins-workflow-multibranch-markerfile-WorkflowMultiBranchMarkerfileProject (1)</text>
  <rect fill="blue" height="0.0" stroke="black" width="12" x="75" y="12949.4"/>
  <text x="75" y="12954.4" font-family="Tahoma" font-size="12" transform="rotate(90 75,12954.4)" text-rendering="optimizeSpeed" fill="#000000">org-jenkinsci-plugins-jobexecutors-toplevelitems-StoreVersion (2)</text>
  <rect fill="blue" height="0.0" stroke="black" width="12" x="90" y="12949.4"/>
  <text x="90" y="12954.4" font-family="Tahoma" font-size="12" transform="rotate(90 90,12954.4)" text-rendering="optimizeSpeed" fill="#000000">hudson-model-GolangProject (4)</text>
  <rect fill="blue" height="0.0" stroke="black" width="12" x="105" y="12949.4"/>
  <text x="105" y="12954.4" font-family="Tahoma" font-size="12" transform="rotate(90 105,12954.4)" text-rendering="optimizeSpeed" fill="#000000">org-jenkinsci-plugins-jobexecutors-toplevelitems-PortalNotifier (4)</text>
  <rect fill="blue" height="0.0" stroke="black" width="12" x="120" y="12949.4"/>
  <text x="120" y="12954.4" font-family="Tahoma" font-size="12" transform="rotate(90 120,12954.4)" text-rendering="optimizeSpeed" fill="#000000">hudson-model-CppProject (5)</text>
  <rect fill="blue" height="0.0" stroke="black" width="12" x="135" y="12949.4"/>
  <text x="135" y="12954.4" font-family="Tahoma" font-size="12" transform="rotate(90 135,12954.4)" text-rendering="optimizeSpeed" fill="#000000">com-github-mjdetullio-jenkins-plugins-multibranch-IvyMultiBranchProject (6)</text>
  <rect fill="blue" height="0.0" stroke="black" width="12" x="150" y="12949.4"/>
  <text x="150" y="12954.4" font-family="Tahoma" font-size="12" transform="rotate(90 150,12954.4)" text-rendering="optimizeSpeed" fill="#000000">org-jvnet-hudson-test-MockFolder (6)</text>
  <rect fill="blue" height="0.0" stroke="black" width="12" x="165" y="12949.4"/>
  <text x="165" y="12954.4" font-family="Tahoma" font-size="12" transform="rotate(90 165,12954.4)" text-rendering="optimizeSpeed" fill="#000000">org-jenkinsci-plugins-coordinator-dummy-model-CoordinatorProject (7)</text>
  <rect fill="blue" height="0.0" stroke="black" width="12" x="180" y="12949.4"/>
  <text x="180" y="12954.4" font-family="Tahoma" font-size="12" transform="rotate(90 180,12954.4)" text-rendering="optimizeSpeed" fill="#000000">hudson-plugins-wormpex-data-template-DataWarehouseStyleProject (9)</text>
  <rect fill="blue" height="0.0" stroke="black" width="12" x="195" y="12949.4"/>
  <text x="195" y="12954.4" font-family="Tahoma" font-size="12" transform="rotate(90 195,12954.4)" text-rendering="optimizeSpeed" fill="#000000">com-barchart-jenkins-cascade-CascadeProject (21)</text>
  <rect fill="blue" height="0.0" stroke="black" width="12" x="210" y="12949.4"/>
  <text x="210" y="12954.4" font-family="Tahoma" font-size="12" transform="rotate(90 210,12954.4)" text-rendering="optimizeSpeed" fill="#000000">org-jenkinsci-plugins-drupal-projects-DrupalProject (37)</text>
  <rect fill="blue" height="0.1" stroke="black" width="12" x="225" y="12949.4"/>
  <text x="225" y="12954.4" font-family="Tahoma" font-size="12" transform="rotate(90 225,12954.4)" text-rendering="optimizeSpeed" fill="#000000">hudson-plugin-smartjob-SmartJob (56)</text>
  <rect fill="blue" height="0.1" stroke="black" width="12" x="240" y="12949.4"/>
  <text x="240" y="12954.4" font-family="Tahoma" font-size="12" transform="rotate(90 240,12954.4)" text-rendering="optimizeSpeed" fill="#000000">com-github-mjdetullio-jenkins-plugins-multibranch-MatrixMultiBranchProject (76)</text>
  <rect fill="blue" height="0.1" stroke="black" width="12" x="255" y="12949.4"/>
  <text x="255" y="12954.4" font-family="Tahoma" font-size="12" transform="rotate(90 255,12954.4)" text-rendering="optimizeSpeed" fill="#000000">hudson-model-RunOnceProject (79)</text>
  <rect fill="blue" height="0.1" stroke="black" width="12" x="270" y="12949.3"/>
  <text x="270" y="12954.4" font-family="Tahoma" font-size="12" transform="rotate(90 270,12954.4)" text-rendering="optimizeSpeed" fill="#000000">hudson-drools-DroolsProject (112)</text>
  <rect fill="blue" height="0.2" stroke="black" width="12" x="285" y="12949.3"/>
  <text x="285" y="12954.4" font-family="Tahoma" font-size="12" transform="rotate(90 285,12954.4)" text-rendering="optimizeSpeed" fill="#000000">com-groupon-jenkins-dynamic-build-DynamicProject (174)</text>
  <rect fill="blue" height="0.3" stroke="black" width="12" x="300" y="12949.2"/>
  <text x="300" y="12954.4" font-family="Tahoma" font-size="12" transform="rotate(90 300,12954.4)" text-rendering="optimizeSpeed" fill="#000000">captmorgan-ExternalProject (287)</text>
  <rect fill="blue" height="0.6" stroke="black" width="12" x="315" y="12948.8"/>
  <text x="315" y="12954.4" font-family="Tahoma" font-size="12" transform="rotate(90 315,12954.4)" text-rendering="optimizeSpeed" fill="#000000">org-jenkinsci-plugins-coordinator-model-CoordinatorProject (648)</text>
  <rect fill="blue" height="0.7" stroke="black" width="12" x="330" y="12948.8"/>
  <text x="330" y="12954.4" font-family="Tahoma" font-size="12" transform="rotate(90 330,12954.4)" text-rendering="optimizeSpeed" fill="#000000">com-groupon-jenkins-dynamic-organizationcontainer-OrganizationContainer (679)</text>
  <rect fill="blue" height="0.9" stroke="black" width="12" x="345" y="12948.5"/>
  <text x="345" y="12954.4" font-family="Tahoma" font-size="12" transform="rotate(90 345,12954.4)" text-rendering="optimizeSpeed" fill="#000000">com-github-mjdetullio-jenkins-plugins-multibranch-MavenMultiBranchProject (898)</text>
  <rect fill="blue" height="2.8" stroke="black" width="12" x="360" y="12946.6"/>
  <text x="360" y="12954.4" font-family="Tahoma" font-size="12" transform="rotate(90 360,12954.4)" text-rendering="optimizeSpeed" fill="#000000">org-jenkinsci-plugins-pipeline-multibranch-defaults-PipelineMultiBranchDefaultsProject (2812)</text>
  <rect fill="blue" height="3.0" stroke="black" width="12" x="375" y="12946.4"/>
  <text x="375" y="12954.4" font-family="Tahoma" font-size="12" transform="rotate(90 375,12954.4)" text-rendering="optimizeSpeed" fill="#000000">org-jenkinsci-plugins-jobgenerator-JobGenerator (3038)</text>
  <rect fill="blue" height="3.5" stroke="black" width="12" x="390" y="12945.9"/>
  <text x="390" y="12954.4" font-family="Tahoma" font-size="12" transform="rotate(90 390,12954.4)" text-rendering="optimizeSpeed" fill="#000000">com-github-mjdetullio-jenkins-plugins-multibranch-FreeStyleMultiBranchProject (3547)</text>
  <rect fill="blue" height="4.9" stroke="black" width="12" x="405" y="12944.6"/>
  <text x="405" y="12954.4" font-family="Tahoma" font-size="12" transform="rotate(90 405,12954.4)" text-rendering="optimizeSpeed" fill="#000000">hudson-ivy-IvyModuleSet (4891)</text>
  <rect fill="blue" height="14.7" stroke="black" width="12" x="420" y="12934.7"/>
  <text x="420" y="12954.4" font-family="Tahoma" font-size="12" transform="rotate(90 420,12954.4)" text-rendering="optimizeSpeed" fill="#000000">jenkins-branch-OrganizationFolder (14740)</text>
  <rect fill="blue" height="18.1" stroke="black" width="12" x="435" y="12931.3"/>
  <text x="435" y="12954.4" font-family="Tahoma" font-size="12" transform="rotate(90 435,12954.4)" text-rendering="optimizeSpeed" fill="#000000">hudson-model-ExternalJob (18148)</text>
  <rect fill="blue" height="27.4" stroke="black" width="12" x="450" y="12922.0"/>
  <text x="450" y="12954.4" font-family="Tahoma" font-size="12" transform="rotate(90 450,12954.4)" text-rendering="optimizeSpeed" fill="#000000">hudson-plugins-project_inheritance-projects-InheritanceProject (27431)</text>
  <rect fill="blue" height="227.8" stroke="black" width="12" x="465" y="12721.6"/>
  <text x="465" y="12954.4" font-family="Tahoma" font-size="12" transform="rotate(90 465,12954.4)" text-rendering="optimizeSpeed" fill="#000000">com-cloudbees-plugins-flow-BuildFlow (227850)</text>
  <rect fill="blue" height="250.6" stroke="black" width="12" x="480" y="12698.9"/>
  <text x="480" y="12954.4" font-family="Tahoma" font-size="12" transform="rotate(90 480,12954.4)" text-rendering="optimizeSpeed" fill="#000000">com-tikal-jenkins-plugins-multijob-MultiJobProject (250558)</text>
  <rect fill="blue" height="298.7" stroke="black" width="12" x="495" y="12650.8"/>
  <text x="495" y="12954.4" font-family="Tahoma" font-size="12" transform="rotate(90 495,12954.4)" text-rendering="optimizeSpeed" fill="#000000">hudson-matrix-MatrixProject (298667)</text>
  <rect fill="blue" height="377.0" stroke="black" width="12" x="510" y="12572.5"/>
  <text x="510" y="12954.4" font-family="Tahoma" font-size="12" transform="rotate(90 510,12954.4)" text-rendering="optimizeSpeed" fill="#000000">org-jenkinsci-plugins-workflow-multibranch-WorkflowMultiBranchProject (376979)</text>
  <rect fill="blue" height="880.7" stroke="black" width="12" x="525" y="12068.8"/>
  <text x="525" y="12954.4" font-family="Tahoma" font-size="12" transform="rotate(90 525,12954.4)" text-rendering="optimizeSpeed" fill="#000000">com-cloudbees-hudson-plugins-folder-Folder (880688)</text>
  <rect fill="blue" height="1848.4" stroke="black" width="12" x="540" y="11101.1"/>
  <text x="540" y="12954.4" font-family="Tahoma" font-size="12" transform="rotate(90 540,12954.4)" text-rendering="optimizeSpeed" fill="#000000">hudson-maven-MavenModuleSet (1848368)</text>
  <rect fill="blue" height="4646.0" stroke="black" width="12" x="555" y="8303.5"/>
  <text x="555" y="12954.4" font-family="Tahoma" font-size="12" transform="rotate(90 555,12954.4)" text-rendering="optimizeSpeed" fill="#000000">org-jenkinsci-plugins-workflow-job-WorkflowJob (4645982)</text>
  <rect fill="blue" height="12899.4" stroke="black" width="12" x="570" y="50.0"/>
  <text x="570" y="12954.4" font-family="Tahoma" font-size="12" transform="rotate(90 570,12954.4)" text-rendering="optimizeSpeed" fill="#000000">hudson-model-FreeStyleProject (12899445)</text>
  <text x="10" y="40" font-family="Tahoma" font-size="20" text-rendering="optimizeSpeed" fill="#000000">Jobs (total: 21506258)</text>
</svg>
