<svg xmlns="http://www.w3.org/2000/svg" version="1.1" preserveAspectRatio="xMidYMid meet" viewBox="0 0 635 13023.4">
  <rect fill="blue" height="0.0" stroke="black" width="12" x="15" y="12723.3"/>
  <text x="15" y="12728.4" font-family="Tahoma" font-size="12" transform="rotate(90 15,12728.4)" text-rendering="optimizeSpeed" fill="#000000">hudson-model-PhpProject (1)</text>
  <rect fill="blue" height="0.0" stroke="black" width="12" x="30" y="12723.3"/>
  <text x="30" y="12728.4" font-family="Tahoma" font-size="12" transform="rotate(90 30,12728.4)" text-rendering="optimizeSpeed" fill="#000000">hudson-plugins-job_dependency-projects-MasterProject (1)</text>
  <rect fill="blue" height="0.0" stroke="black" width="12" x="45" y="12723.3"/>
  <text x="45" y="12728.4" font-family="Tahoma" font-size="12" transform="rotate(90 45,12728.4)" text-rendering="optimizeSpeed" fill="#000000">hudson-plugins-wormpex-data-template-DependencyStyleProject (1)</text>
  <rect fill="blue" height="0.0" stroke="black" width="12" x="60" y="12723.3"/>
  <text x="60" y="12728.4" font-family="Tahoma" font-size="12" transform="rotate(90 60,12728.4)" text-rendering="optimizeSpeed" fill="#000000">org-jenkinsci-plugins-jobexecutors-toplevelitems-StoreVersion (1)</text>
  <rect fill="blue" height="0.0" stroke="black" width="12" x="75" y="12723.3"/>
  <text x="75" y="12728.4" font-family="Tahoma" font-size="12" transform="rotate(90 75,12728.4)" text-rendering="optimizeSpeed" fill="#000000">org-jenkinsci-plugins-jobexecutors-toplevelitems-PortalNotifier (2)</text>
  <rect fill="blue" height="0.0" stroke="black" width="12" x="90" y="12723.3"/>
  <text x="90" y="12728.4" font-family="Tahoma" font-size="12" transform="rotate(90 90,12728.4)" text-rendering="optimizeSpeed" fill="#000000">org-jvnet-hudson-test-MockFolder (5)</text>
  <rect fill="blue" height="0.0" stroke="black" width="12" x="105" y="12723.3"/>
  <text x="105" y="12728.4" font-family="Tahoma" font-size="12" transform="rotate(90 105,12728.4)" text-rendering="optimizeSpeed" fill="#000000">com-github-mjdetullio-jenkins-plugins-multibranch-IvyMultiBranchProject (6)</text>
  <rect fill="blue" height="0.0" stroke="black" width="12" x="120" y="12723.3"/>
  <text x="120" y="12728.4" font-family="Tahoma" font-size="12" transform="rotate(90 120,12728.4)" text-rendering="optimizeSpeed" fill="#000000">hudson-model-CppProject (7)</text>
  <rect fill="blue" height="0.0" stroke="black" width="12" x="135" y="12723.3"/>
  <text x="135" y="12728.4" font-family="Tahoma" font-size="12" transform="rotate(90 135,12728.4)" text-rendering="optimizeSpeed" fill="#000000">hudson-plugins-wormpex-data-template-DataWarehouseStyleProject (7)</text>
  <rect fill="blue" height="0.0" stroke="black" width="12" x="150" y="12723.3"/>
  <text x="150" y="12728.4" font-family="Tahoma" font-size="12" transform="rotate(90 150,12728.4)" text-rendering="optimizeSpeed" fill="#000000">org-jenkinsci-plugins-vSphereCloudStyleProject (12)</text>
  <rect fill="blue" height="0.0" stroke="black" width="12" x="165" y="12723.3"/>
  <text x="165" y="12728.4" font-family="Tahoma" font-size="12" transform="rotate(90 165,12728.4)" text-rendering="optimizeSpeed" fill="#000000">org-jenkinsci-plugins-coordinator-dummy-model-CoordinatorProject (14)</text>
  <rect fill="blue" height="0.0" stroke="black" width="12" x="180" y="12723.3"/>
  <text x="180" y="12728.4" font-family="Tahoma" font-size="12" transform="rotate(90 180,12728.4)" text-rendering="optimizeSpeed" fill="#000000">org-jenkinsci-plugins-drupal-projects-DrupalProject (16)</text>
  <rect fill="blue" height="0.0" stroke="black" width="12" x="195" y="12723.3"/>
  <text x="195" y="12728.4" font-family="Tahoma" font-size="12" transform="rotate(90 195,12728.4)" text-rendering="optimizeSpeed" fill="#000000">hudson-model-HtmlProject (17)</text>
  <rect fill="blue" height="0.0" stroke="black" width="12" x="210" y="12723.3"/>
  <text x="210" y="12728.4" font-family="Tahoma" font-size="12" transform="rotate(90 210,12728.4)" text-rendering="optimizeSpeed" fill="#000000">com-barchart-jenkins-cascade-CascadeProject (21)</text>
  <rect fill="blue" height="0.0" stroke="black" width="12" x="225" y="12723.3"/>
  <text x="225" y="12728.4" font-family="Tahoma" font-size="12" transform="rotate(90 225,12728.4)" text-rendering="optimizeSpeed" fill="#000000">org-cloudbees-literate-jenkins-LiterateMultibranchProject (22)</text>
  <rect fill="blue" height="0.0" stroke="black" width="12" x="240" y="12723.3"/>
  <text x="240" y="12728.4" font-family="Tahoma" font-size="12" transform="rotate(90 240,12728.4)" text-rendering="optimizeSpeed" fill="#000000">hudson-model-GolangProject (40)</text>
  <rect fill="blue" height="0.1" stroke="black" width="12" x="255" y="12723.3"/>
  <text x="255" y="12728.4" font-family="Tahoma" font-size="12" transform="rotate(90 255,12728.4)" text-rendering="optimizeSpeed" fill="#000000">hudson-plugin-smartjob-SmartJob (51)</text>
  <rect fill="blue" height="0.1" stroke="black" width="12" x="270" y="12723.3"/>
  <text x="270" y="12728.4" font-family="Tahoma" font-size="12" transform="rotate(90 270,12728.4)" text-rendering="optimizeSpeed" fill="#000000">hudson-model-RunOnceProject (78)</text>
  <rect fill="blue" height="0.1" stroke="black" width="12" x="285" y="12723.3"/>
  <text x="285" y="12728.4" font-family="Tahoma" font-size="12" transform="rotate(90 285,12728.4)" text-rendering="optimizeSpeed" fill="#000000">com-github-mjdetullio-jenkins-plugins-multibranch-MatrixMultiBranchProject (89)</text>
  <rect fill="blue" height="0.2" stroke="black" width="12" x="300" y="12723.1"/>
  <text x="300" y="12728.4" font-family="Tahoma" font-size="12" transform="rotate(90 300,12728.4)" text-rendering="optimizeSpeed" fill="#000000">captmorgan-ExternalProject (205)</text>
  <rect fill="blue" height="0.7" stroke="black" width="12" x="315" y="12722.7"/>
  <text x="315" y="12728.4" font-family="Tahoma" font-size="12" transform="rotate(90 315,12728.4)" text-rendering="optimizeSpeed" fill="#000000">org-jenkinsci-plugins-coordinator-model-CoordinatorProject (652)</text>
  <rect fill="blue" height="0.8" stroke="black" width="12" x="330" y="12722.6"/>
  <text x="330" y="12728.4" font-family="Tahoma" font-size="12" transform="rotate(90 330,12728.4)" text-rendering="optimizeSpeed" fill="#000000">com-groupon-jenkins-dynamic-organizationcontainer-OrganizationContainer (791)</text>
  <rect fill="blue" height="1.1" stroke="black" width="12" x="345" y="12722.3"/>
  <text x="345" y="12728.4" font-family="Tahoma" font-size="12" transform="rotate(90 345,12728.4)" text-rendering="optimizeSpeed" fill="#000000">com-github-mjdetullio-jenkins-plugins-multibranch-MavenMultiBranchProject (1087)</text>
  <rect fill="blue" height="3.0" stroke="black" width="12" x="360" y="12720.4"/>
  <text x="360" y="12728.4" font-family="Tahoma" font-size="12" transform="rotate(90 360,12728.4)" text-rendering="optimizeSpeed" fill="#000000">org-jenkinsci-plugins-pipeline-multibranch-defaults-PipelineMultiBranchDefaultsProject (2970)</text>
  <rect fill="blue" height="3.1" stroke="black" width="12" x="375" y="12720.2"/>
  <text x="375" y="12728.4" font-family="Tahoma" font-size="12" transform="rotate(90 375,12728.4)" text-rendering="optimizeSpeed" fill="#000000">org-jenkinsci-plugins-jobgenerator-JobGenerator (3122)</text>
  <rect fill="blue" height="3.6" stroke="black" width="12" x="390" y="12719.7"/>
  <text x="390" y="12728.4" font-family="Tahoma" font-size="12" transform="rotate(90 390,12728.4)" text-rendering="optimizeSpeed" fill="#000000">com-github-mjdetullio-jenkins-plugins-multibranch-FreeStyleMultiBranchProject (3646)</text>
  <rect fill="blue" height="4.2" stroke="black" width="12" x="405" y="12719.2"/>
  <text x="405" y="12728.4" font-family="Tahoma" font-size="12" transform="rotate(90 405,12728.4)" text-rendering="optimizeSpeed" fill="#000000">com-groupon-jenkins-dynamic-build-DynamicProject (4180)</text>
  <rect fill="blue" height="4.7" stroke="black" width="12" x="420" y="12718.7"/>
  <text x="420" y="12728.4" font-family="Tahoma" font-size="12" transform="rotate(90 420,12728.4)" text-rendering="optimizeSpeed" fill="#000000">hudson-ivy-IvyModuleSet (4688)</text>
  <rect fill="blue" height="14.2" stroke="black" width="12" x="435" y="12709.2"/>
  <text x="435" y="12728.4" font-family="Tahoma" font-size="12" transform="rotate(90 435,12728.4)" text-rendering="optimizeSpeed" fill="#000000">jenkins-branch-OrganizationFolder (14185)</text>
  <rect fill="blue" height="17.9" stroke="black" width="12" x="450" y="12705.4"/>
  <text x="450" y="12728.4" font-family="Tahoma" font-size="12" transform="rotate(90 450,12728.4)" text-rendering="optimizeSpeed" fill="#000000">hudson-model-ExternalJob (17943)</text>
  <rect fill="blue" height="24.1" stroke="black" width="12" x="465" y="12699.3"/>
  <text x="465" y="12728.4" font-family="Tahoma" font-size="12" transform="rotate(90 465,12728.4)" text-rendering="optimizeSpeed" fill="#000000">hudson-plugins-project_inheritance-projects-InheritanceProject (24080)</text>
  <rect fill="blue" height="158.2" stroke="black" width="12" x="480" y="12565.1"/>
  <text x="480" y="12728.4" font-family="Tahoma" font-size="12" transform="rotate(90 480,12728.4)" text-rendering="optimizeSpeed" fill="#000000">com-cloudbees-plugins-flow-BuildFlow (158244)</text>
  <rect fill="blue" height="243.2" stroke="black" width="12" x="495" y="12480.1"/>
  <text x="495" y="12728.4" font-family="Tahoma" font-size="12" transform="rotate(90 495,12728.4)" text-rendering="optimizeSpeed" fill="#000000">hudson-matrix-MatrixProject (243222)</text>
  <rect fill="blue" height="253.3" stroke="black" width="12" x="510" y="12470.0"/>
  <text x="510" y="12728.4" font-family="Tahoma" font-size="12" transform="rotate(90 510,12728.4)" text-rendering="optimizeSpeed" fill="#000000">com-tikal-jenkins-plugins-multijob-MultiJobProject (253320)</text>
  <rect fill="blue" height="340.3" stroke="black" width="12" x="525" y="12383.1"/>
  <text x="525" y="12728.4" font-family="Tahoma" font-size="12" transform="rotate(90 525,12728.4)" text-rendering="optimizeSpeed" fill="#000000">org-jenkinsci-plugins-workflow-multibranch-WorkflowMultiBranchProject (340285)</text>
  <rect fill="blue" height="800.7" stroke="black" width="12" x="540" y="11922.6"/>
  <text x="540" y="12728.4" font-family="Tahoma" font-size="12" transform="rotate(90 540,12728.4)" text-rendering="optimizeSpeed" fill="#000000">com-cloudbees-hudson-plugins-folder-Folder (800740)</text>
  <rect fill="blue" height="1791.1" stroke="black" width="12" x="555" y="10932.3"/>
  <text x="555" y="12728.4" font-family="Tahoma" font-size="12" transform="rotate(90 555,12728.4)" text-rendering="optimizeSpeed" fill="#000000">hudson-maven-MavenModuleSet (1791066)</text>
  <rect fill="blue" height="4326.0" stroke="black" width="12" x="570" y="8397.3"/>
  <text x="570" y="12728.4" font-family="Tahoma" font-size="12" transform="rotate(90 570,12728.4)" text-rendering="optimizeSpeed" fill="#000000">org-jenkinsci-plugins-workflow-job-WorkflowJob (4326023)</text>
  <rect fill="blue" height="12673.4" stroke="black" width="12" x="585" y="50.0"/>
  <text x="585" y="12728.4" font-family="Tahoma" font-size="12" transform="rotate(90 585,12728.4)" text-rendering="optimizeSpeed" fill="#000000">hudson-model-FreeStyleProject (12673351)</text>
  <text x="10" y="40" font-family="Tahoma" font-size="20" text-rendering="optimizeSpeed" fill="#000000">Jobs (total: 20664191)</text>
</svg>
