<svg xmlns="http://www.w3.org/2000/svg" version="1.1" preserveAspectRatio="xMidYMid meet" viewBox="0 0 680 12214.0">
  <rect fill="blue" height="0.0" stroke="black" width="12" x="15" y="11914.0"/>
  <text x="15" y="11919.0" font-family="Tahoma" font-size="12" transform="rotate(90 15,11919.0)" text-rendering="optimizeSpeed" fill="#000000">hudson-model-PhpProject (1)</text>
  <rect fill="blue" height="0.0" stroke="black" width="12" x="30" y="11914.0"/>
  <text x="30" y="11919.0" font-family="Tahoma" font-size="12" transform="rotate(90 30,11919.0)" text-rendering="optimizeSpeed" fill="#000000">org-jenkinsci-plugins-mavenjobgenerator-MavenJobGenerator (1)</text>
  <rect fill="blue" height="0.0" stroke="black" width="12" x="45" y="11914.0"/>
  <text x="45" y="11919.0" font-family="Tahoma" font-size="12" transform="rotate(90 45,11919.0)" text-rendering="optimizeSpeed" fill="#000000">org-jenkinsci-plugins-pipeline-multibranch-script-PipelineMultiBranchScriptProject (1)</text>
  <rect fill="blue" height="0.0" stroke="black" width="12" x="60" y="11914.0"/>
  <text x="60" y="11919.0" font-family="Tahoma" font-size="12" transform="rotate(90 60,11919.0)" text-rendering="optimizeSpeed" fill="#000000">org-jenkinsci-plugins-verifieddeploymentplugin-VerifiedDeploymentProject (1)</text>
  <rect fill="blue" height="0.0" stroke="black" width="12" x="75" y="11914.0"/>
  <text x="75" y="11919.0" font-family="Tahoma" font-size="12" transform="rotate(90 75,11919.0)" text-rendering="optimizeSpeed" fill="#000000">hudson-plugins-wormpex-data-template-DependencyStyleProject (2)</text>
  <rect fill="blue" height="0.0" stroke="black" width="12" x="90" y="11914.0"/>
  <text x="90" y="11919.0" font-family="Tahoma" font-size="12" transform="rotate(90 90,11919.0)" text-rendering="optimizeSpeed" fill="#000000">org-jenkinsci-plugins-jobexecutors-toplevelitems-StoreVersion (2)</text>
  <rect fill="blue" height="0.0" stroke="black" width="12" x="105" y="11914.0"/>
  <text x="105" y="11919.0" font-family="Tahoma" font-size="12" transform="rotate(90 105,11919.0)" text-rendering="optimizeSpeed" fill="#000000">org-jenkinsci-plugins-jobexecutors-toplevelitems-PortalNotifier (4)</text>
  <rect fill="blue" height="0.0" stroke="black" width="12" x="120" y="11914.0"/>
  <text x="120" y="11919.0" font-family="Tahoma" font-size="12" transform="rotate(90 120,11919.0)" text-rendering="optimizeSpeed" fill="#000000">com-github-mjdetullio-jenkins-plugins-multibranch-IvyMultiBranchProject (6)</text>
  <rect fill="blue" height="0.0" stroke="black" width="12" x="135" y="11914.0"/>
  <text x="135" y="11919.0" font-family="Tahoma" font-size="12" transform="rotate(90 135,11919.0)" text-rendering="optimizeSpeed" fill="#000000">hudson-model-CppProject (7)</text>
  <rect fill="blue" height="0.0" stroke="black" width="12" x="150" y="11914.0"/>
  <text x="150" y="11919.0" font-family="Tahoma" font-size="12" transform="rotate(90 150,11919.0)" text-rendering="optimizeSpeed" fill="#000000">hudson-plugins-wormpex-data-template-DataWarehouseStyleProject (7)</text>
  <rect fill="blue" height="0.0" stroke="black" width="12" x="165" y="11914.0"/>
  <text x="165" y="11919.0" font-family="Tahoma" font-size="12" transform="rotate(90 165,11919.0)" text-rendering="optimizeSpeed" fill="#000000">org-jenkinsci-plugins-coordinator-dummy-model-CoordinatorProject (11)</text>
  <rect fill="blue" height="0.0" stroke="black" width="12" x="180" y="11914.0"/>
  <text x="180" y="11919.0" font-family="Tahoma" font-size="12" transform="rotate(90 180,11919.0)" text-rendering="optimizeSpeed" fill="#000000">hudson-model-HtmlProject (14)</text>
  <rect fill="blue" height="0.0" stroke="black" width="12" x="195" y="11914.0"/>
  <text x="195" y="11919.0" font-family="Tahoma" font-size="12" transform="rotate(90 195,11919.0)" text-rendering="optimizeSpeed" fill="#000000">org-jvnet-hudson-test-MockFolder (18)</text>
  <rect fill="blue" height="0.0" stroke="black" width="12" x="210" y="11914.0"/>
  <text x="210" y="11919.0" font-family="Tahoma" font-size="12" transform="rotate(90 210,11919.0)" text-rendering="optimizeSpeed" fill="#000000">org-jenkinsci-plugins-drupal-projects-DrupalProject (20)</text>
  <rect fill="blue" height="0.0" stroke="black" width="12" x="225" y="11914.0"/>
  <text x="225" y="11919.0" font-family="Tahoma" font-size="12" transform="rotate(90 225,11919.0)" text-rendering="optimizeSpeed" fill="#000000">com-barchart-jenkins-cascade-CascadeProject (22)</text>
  <rect fill="blue" height="0.0" stroke="black" width="12" x="240" y="11914.0"/>
  <text x="240" y="11919.0" font-family="Tahoma" font-size="12" transform="rotate(90 240,11919.0)" text-rendering="optimizeSpeed" fill="#000000">hudson-model-GolangProject (37)</text>
  <rect fill="blue" height="0.1" stroke="black" width="12" x="255" y="11914.0"/>
  <text x="255" y="11919.0" font-family="Tahoma" font-size="12" transform="rotate(90 255,11919.0)" text-rendering="optimizeSpeed" fill="#000000">hudson-plugin-smartjob-SmartJob (52)</text>
  <rect fill="blue" height="0.1" stroke="black" width="12" x="270" y="11914.0"/>
  <text x="270" y="11919.0" font-family="Tahoma" font-size="12" transform="rotate(90 270,11919.0)" text-rendering="optimizeSpeed" fill="#000000">hudson-drools-DroolsProject (56)</text>
  <rect fill="blue" height="0.1" stroke="black" width="12" x="285" y="11913.9"/>
  <text x="285" y="11919.0" font-family="Tahoma" font-size="12" transform="rotate(90 285,11919.0)" text-rendering="optimizeSpeed" fill="#000000">hudson-model-RunOnceProject (79)</text>
  <rect fill="blue" height="0.1" stroke="black" width="12" x="300" y="11913.9"/>
  <text x="300" y="11919.0" font-family="Tahoma" font-size="12" transform="rotate(90 300,11919.0)" text-rendering="optimizeSpeed" fill="#000000">com-github-mjdetullio-jenkins-plugins-multibranch-MatrixMultiBranchProject (114)</text>
  <rect fill="blue" height="0.1" stroke="black" width="12" x="315" y="11913.9"/>
  <text x="315" y="11919.0" font-family="Tahoma" font-size="12" transform="rotate(90 315,11919.0)" text-rendering="optimizeSpeed" fill="#000000">captmorgan-ExternalProject (121)</text>
  <rect fill="blue" height="0.1" stroke="black" width="12" x="330" y="11913.9"/>
  <text x="330" y="11919.0" font-family="Tahoma" font-size="12" transform="rotate(90 330,11919.0)" text-rendering="optimizeSpeed" fill="#000000">com-groupon-jenkins-dynamic-build-DynamicProject (130)</text>
  <rect fill="blue" height="0.2" stroke="black" width="12" x="345" y="11913.9"/>
  <text x="345" y="11919.0" font-family="Tahoma" font-size="12" transform="rotate(90 345,11919.0)" text-rendering="optimizeSpeed" fill="#000000">org-jenkinsci-plugins-spoontrigger-SpoonProject (158)</text>
  <rect fill="blue" height="0.4" stroke="black" width="12" x="360" y="11913.6"/>
  <text x="360" y="11919.0" font-family="Tahoma" font-size="12" transform="rotate(90 360,11919.0)" text-rendering="optimizeSpeed" fill="#000000">hudson-plugins-job_dependency-projects-MasterProject (420)</text>
  <rect fill="blue" height="0.5" stroke="black" width="12" x="375" y="11913.5"/>
  <text x="375" y="11919.0" font-family="Tahoma" font-size="12" transform="rotate(90 375,11919.0)" text-rendering="optimizeSpeed" fill="#000000">org-jenkinsci-plugins-coordinator-model-CoordinatorProject (482)</text>
  <rect fill="blue" height="0.6" stroke="black" width="12" x="390" y="11913.4"/>
  <text x="390" y="11919.0" font-family="Tahoma" font-size="12" transform="rotate(90 390,11919.0)" text-rendering="optimizeSpeed" fill="#000000">com-groupon-jenkins-dynamic-organizationcontainer-OrganizationContainer (608)</text>
  <rect fill="blue" height="1.1" stroke="black" width="12" x="405" y="11912.9"/>
  <text x="405" y="11919.0" font-family="Tahoma" font-size="12" transform="rotate(90 405,11919.0)" text-rendering="optimizeSpeed" fill="#000000">com-github-mjdetullio-jenkins-plugins-multibranch-MavenMultiBranchProject (1143)</text>
  <rect fill="blue" height="2.1" stroke="black" width="12" x="420" y="11911.9"/>
  <text x="420" y="11919.0" font-family="Tahoma" font-size="12" transform="rotate(90 420,11919.0)" text-rendering="optimizeSpeed" fill="#000000">org-jenkinsci-plugins-pipeline-multibranch-defaults-PipelineMultiBranchDefaultsProject (2101)</text>
  <rect fill="blue" height="3.4" stroke="black" width="12" x="435" y="11910.6"/>
  <text x="435" y="11919.0" font-family="Tahoma" font-size="12" transform="rotate(90 435,11919.0)" text-rendering="optimizeSpeed" fill="#000000">org-jenkinsci-plugins-jobgenerator-JobGenerator (3426)</text>
  <rect fill="blue" height="3.9" stroke="black" width="12" x="450" y="11910.1"/>
  <text x="450" y="11919.0" font-family="Tahoma" font-size="12" transform="rotate(90 450,11919.0)" text-rendering="optimizeSpeed" fill="#000000">com-github-mjdetullio-jenkins-plugins-multibranch-FreeStyleMultiBranchProject (3874)</text>
  <rect fill="blue" height="4.5" stroke="black" width="12" x="465" y="11909.6"/>
  <text x="465" y="11919.0" font-family="Tahoma" font-size="12" transform="rotate(90 465,11919.0)" text-rendering="optimizeSpeed" fill="#000000">hudson-model-ExternalJob (4459)</text>
  <rect fill="blue" height="5.2" stroke="black" width="12" x="480" y="11908.9"/>
  <text x="480" y="11919.0" font-family="Tahoma" font-size="12" transform="rotate(90 480,11919.0)" text-rendering="optimizeSpeed" fill="#000000">hudson-ivy-IvyModuleSet (5159)</text>
  <rect fill="blue" height="12.9" stroke="black" width="12" x="495" y="11901.1"/>
  <text x="495" y="11919.0" font-family="Tahoma" font-size="12" transform="rotate(90 495,11919.0)" text-rendering="optimizeSpeed" fill="#000000">jenkins-branch-OrganizationFolder (12916)</text>
  <rect fill="blue" height="24.8" stroke="black" width="12" x="510" y="11889.2"/>
  <text x="510" y="11919.0" font-family="Tahoma" font-size="12" transform="rotate(90 510,11919.0)" text-rendering="optimizeSpeed" fill="#000000">hudson-plugins-project_inheritance-projects-InheritanceProject (24795)</text>
  <rect fill="blue" height="248.5" stroke="black" width="12" x="525" y="11665.5"/>
  <text x="525" y="11919.0" font-family="Tahoma" font-size="12" transform="rotate(90 525,11919.0)" text-rendering="optimizeSpeed" fill="#000000">com-cloudbees-plugins-flow-BuildFlow (248493)</text>
  <rect fill="blue" height="250.6" stroke="black" width="12" x="540" y="11663.4"/>
  <text x="540" y="11919.0" font-family="Tahoma" font-size="12" transform="rotate(90 540,11919.0)" text-rendering="optimizeSpeed" fill="#000000">com-tikal-jenkins-plugins-multijob-MultiJobProject (250563)</text>
  <rect fill="blue" height="282.2" stroke="black" width="12" x="555" y="11631.8"/>
  <text x="555" y="11919.0" font-family="Tahoma" font-size="12" transform="rotate(90 555,11919.0)" text-rendering="optimizeSpeed" fill="#000000">org-jenkinsci-plugins-workflow-multibranch-WorkflowMultiBranchProject (282179)</text>
  <rect fill="blue" height="286.2" stroke="black" width="12" x="570" y="11627.8"/>
  <text x="570" y="11919.0" font-family="Tahoma" font-size="12" transform="rotate(90 570,11919.0)" text-rendering="optimizeSpeed" fill="#000000">hudson-matrix-MatrixProject (286203)</text>
  <rect fill="blue" height="797.7" stroke="black" width="12" x="585" y="11116.3"/>
  <text x="585" y="11919.0" font-family="Tahoma" font-size="12" transform="rotate(90 585,11919.0)" text-rendering="optimizeSpeed" fill="#000000">com-cloudbees-hudson-plugins-folder-Folder (797690)</text>
  <rect fill="blue" height="1775.9" stroke="black" width="12" x="600" y="10138.2"/>
  <text x="600" y="11919.0" font-family="Tahoma" font-size="12" transform="rotate(90 600,11919.0)" text-rendering="optimizeSpeed" fill="#000000">hudson-maven-MavenModuleSet (1775857)</text>
  <rect fill="blue" height="3227.4" stroke="black" width="12" x="615" y="8686.6"/>
  <text x="615" y="11919.0" font-family="Tahoma" font-size="12" transform="rotate(90 615,11919.0)" text-rendering="optimizeSpeed" fill="#000000">org-jenkinsci-plugins-workflow-job-WorkflowJob (3227384)</text>
  <rect fill="blue" height="11864.0" stroke="black" width="12" x="630" y="50.0"/>
  <text x="630" y="11919.0" font-family="Tahoma" font-size="12" transform="rotate(90 630,11919.0)" text-rendering="optimizeSpeed" fill="#000000">hudson-model-FreeStyleProject (11864011)</text>
  <text x="10" y="40" font-family="Tahoma" font-size="20" text-rendering="optimizeSpeed" fill="#000000">Jobs (total: 18792627)</text>
</svg>
