<svg xmlns="http://www.w3.org/2000/svg" version="1.1" preserveAspectRatio="xMidYMid meet" viewBox="0 0 1235 31150.3">
  <rect fill="blue" height="0.1" stroke="black" width="12" x="15" y="30850.2"/>
  <text x="15" y="30855.3" font-family="Tahoma" font-size="12" transform="rotate(90 15,30855.3)" text-rendering="optimizeSpeed" fill="#000000">CloudByte (amd64) (1)</text>
  <rect fill="blue" height="0.1" stroke="black" width="12" x="30" y="30850.2"/>
  <text x="30" y="30855.3" font-family="Tahoma" font-size="12" transform="rotate(90 30,30855.3)" text-rendering="optimizeSpeed" fill="#000000">DragonFlyBSD (amd64) (1)</text>
  <rect fill="blue" height="0.1" stroke="black" width="12" x="45" y="30850.2"/>
  <text x="45" y="30855.3" font-family="Tahoma" font-size="12" transform="rotate(90 45,30855.3)" text-rendering="optimizeSpeed" fill="#000000">HP-UX (PA_RISC2.0W) (1)</text>
  <rect fill="blue" height="0.1" stroke="black" width="12" x="60" y="30850.2"/>
  <text x="60" y="30855.3" font-family="Tahoma" font-size="12" transform="rotate(90 60,30855.3)" text-rendering="optimizeSpeed" fill="#000000">Linux (mips64) (1)</text>
  <rect fill="blue" height="0.1" stroke="black" width="12" x="75" y="30850.2"/>
  <text x="75" y="30855.3" font-family="Tahoma" font-size="12" transform="rotate(90 75,30855.3)" text-rendering="optimizeSpeed" fill="#000000">Linux (sw_64) (1)</text>
  <rect fill="blue" height="0.1" stroke="black" width="12" x="90" y="30850.2"/>
  <text x="90" y="30855.3" font-family="Tahoma" font-size="12" transform="rotate(90 90,30855.3)" text-rendering="optimizeSpeed" fill="#000000">Linux (zArch_64) (1)</text>
  <rect fill="blue" height="0.1" stroke="black" width="12" x="105" y="30850.2"/>
  <text x="105" y="30855.3" font-family="Tahoma" font-size="12" transform="rotate(90 105,30855.3)" text-rendering="optimizeSpeed" fill="#000000">Mac OS X (ppc) (1)</text>
  <rect fill="blue" height="0.1" stroke="black" width="12" x="120" y="30850.2"/>
  <text x="120" y="30855.3" font-family="Tahoma" font-size="12" transform="rotate(90 120,30855.3)" text-rendering="optimizeSpeed" fill="#000000">NetBSD (amd64) (1)</text>
  <rect fill="blue" height="0.1" stroke="black" width="12" x="135" y="30850.2"/>
  <text x="135" y="30855.3" font-family="Tahoma" font-size="12" transform="rotate(90 135,30855.3)" text-rendering="optimizeSpeed" fill="#000000">Windows (x86) (1)</text>
  <rect fill="blue" height="0.1" stroke="black" width="12" x="150" y="30850.2"/>
  <text x="150" y="30855.3" font-family="Tahoma" font-size="12" transform="rotate(90 150,30855.3)" text-rendering="optimizeSpeed" fill="#000000">Windows Server 2016 Standard (amd64) (1)</text>
  <rect fill="blue" height="0.1" stroke="black" width="12" x="165" y="30850.2"/>
  <text x="165" y="30855.3" font-family="Tahoma" font-size="12" transform="rotate(90 165,30855.3)" text-rendering="optimizeSpeed" fill="#000000">Windows Server 8 (amd64) (1)</text>
  <rect fill="blue" height="0.2" stroke="black" width="12" x="180" y="30850.1"/>
  <text x="180" y="30855.3" font-family="Tahoma" font-size="12" transform="rotate(90 180,30855.3)" text-rendering="optimizeSpeed" fill="#000000">Mac OS X (i386) (2)</text>
  <rect fill="blue" height="0.2" stroke="black" width="12" x="195" y="30850.1"/>
  <text x="195" y="30855.3" font-family="Tahoma" font-size="12" transform="rotate(90 195,30855.3)" text-rendering="optimizeSpeed" fill="#000000">NetBSD (i386) (2)</text>
  <rect fill="blue" height="0.2" stroke="black" width="12" x="210" y="30850.1"/>
  <text x="210" y="30855.3" font-family="Tahoma" font-size="12" transform="rotate(90 210,30855.3)" text-rendering="optimizeSpeed" fill="#000000">Windows 2000 (x86) (2)</text>
  <rect fill="blue" height="0.3" stroke="black" width="12" x="225" y="30850.0"/>
  <text x="225" y="30855.3" font-family="Tahoma" font-size="12" transform="rotate(90 225,30855.3)" text-rendering="optimizeSpeed" fill="#000000">Linux (sparcv9) (3)</text>
  <rect fill="blue" height="0.3" stroke="black" width="12" x="240" y="30850.0"/>
  <text x="240" y="30855.3" font-family="Tahoma" font-size="12" transform="rotate(90 240,30855.3)" text-rendering="optimizeSpeed" fill="#000000">OS/400 (PowerPC) (3)</text>
  <rect fill="blue" height="0.5" stroke="black" width="12" x="255" y="30849.8"/>
  <text x="255" y="30855.3" font-family="Tahoma" font-size="12" transform="rotate(90 255,30855.3)" text-rendering="optimizeSpeed" fill="#000000">NONSTOP_KERNEL (x86_64N) (5)</text>
  <rect fill="blue" height="0.6" stroke="black" width="12" x="270" y="30849.7"/>
  <text x="270" y="30855.3" font-family="Tahoma" font-size="12" transform="rotate(90 270,30855.3)" text-rendering="optimizeSpeed" fill="#000000">Linux (ia64) (6)</text>
  <rect fill="blue" height="0.6" stroke="black" width="12" x="285" y="30849.7"/>
  <text x="285" y="30855.3" font-family="Tahoma" font-size="12" transform="rotate(90 285,30855.3)" text-rendering="optimizeSpeed" fill="#000000">OS/400 (ppc64) (6)</text>
  <rect fill="blue" height="0.6" stroke="black" width="12" x="300" y="30849.7"/>
  <text x="300" y="30855.3" font-family="Tahoma" font-size="12" transform="rotate(90 300,30855.3)" text-rendering="optimizeSpeed" fill="#000000">OpenBSD (i386) (6)</text>
  <rect fill="blue" height="0.6" stroke="black" width="12" x="315" y="30849.7"/>
  <text x="315" y="30855.3" font-family="Tahoma" font-size="12" transform="rotate(90 315,30855.3)" text-rendering="optimizeSpeed" fill="#000000">Windows Server 2003 (amd64) (6)</text>
  <rect fill="blue" height="0.6" stroke="black" width="12" x="330" y="30849.7"/>
  <text x="330" y="30855.3" font-family="Tahoma" font-size="12" transform="rotate(90 330,30855.3)" text-rendering="optimizeSpeed" fill="#000000">Windows Server 2003 (x86) (6)</text>
  <rect fill="blue" height="0.8" stroke="black" width="12" x="345" y="30849.5"/>
  <text x="345" y="30855.3" font-family="Tahoma" font-size="12" transform="rotate(90 345,30855.3)" text-rendering="optimizeSpeed" fill="#000000">HP-UX (ia64) (8)</text>
  <rect fill="blue" height="0.9" stroke="black" width="12" x="360" y="30849.4"/>
  <text x="360" y="30855.3" font-family="Tahoma" font-size="12" transform="rotate(90 360,30855.3)" text-rendering="optimizeSpeed" fill="#000000">OS/400 (ppc) (9)</text>
  <rect fill="blue" height="1.0" stroke="black" width="12" x="375" y="30849.3"/>
  <text x="375" y="30855.3" font-family="Tahoma" font-size="12" transform="rotate(90 375,30855.3)" text-rendering="optimizeSpeed" fill="#000000">z/OS (s390) (10)</text>
  <rect fill="blue" height="1.1" stroke="black" width="12" x="390" y="30849.2"/>
  <text x="390" y="30855.3" font-family="Tahoma" font-size="12" transform="rotate(90 390,30855.3)" text-rendering="optimizeSpeed" fill="#000000">Linux (s390) (11)</text>
  <rect fill="blue" height="1.3" stroke="black" width="12" x="405" y="30849.0"/>
  <text x="405" y="30855.3" font-family="Tahoma" font-size="12" transform="rotate(90 405,30855.3)" text-rendering="optimizeSpeed" fill="#000000">Windows (amd64) (13)</text>
  <rect fill="blue" height="1.3" stroke="black" width="12" x="420" y="30849.0"/>
  <text x="420" y="30855.3" font-family="Tahoma" font-size="12" transform="rotate(90 420,30855.3)" text-rendering="optimizeSpeed" fill="#000000">Windows XP (amd64) (13)</text>
  <rect fill="blue" height="1.5" stroke="black" width="12" x="435" y="30848.8"/>
  <text x="435" y="30855.3" font-family="Tahoma" font-size="12" transform="rotate(90 435,30855.3)" text-rendering="optimizeSpeed" fill="#000000">Windows Vista (amd64) (15)</text>
  <rect fill="blue" height="2.3" stroke="black" width="12" x="450" y="30848.0"/>
  <text x="450" y="30855.3" font-family="Tahoma" font-size="12" transform="rotate(90 450,30855.3)" text-rendering="optimizeSpeed" fill="#000000">OpenBSD (amd64) (23)</text>
  <rect fill="blue" height="2.4" stroke="black" width="12" x="465" y="30847.9"/>
  <text x="465" y="30855.3" font-family="Tahoma" font-size="12" transform="rotate(90 465,30855.3)" text-rendering="optimizeSpeed" fill="#000000">NONSTOP_KERNEL (IA64N) (24)</text>
  <rect fill="blue" height="2.5" stroke="black" width="12" x="480" y="30847.8"/>
  <text x="480" y="30855.3" font-family="Tahoma" font-size="12" transform="rotate(90 480,30855.3)" text-rendering="optimizeSpeed" fill="#000000">Linux (ppc) (25)</text>
  <rect fill="blue" height="3.2" stroke="black" width="12" x="495" y="30847.1"/>
  <text x="495" y="30855.3" font-family="Tahoma" font-size="12" transform="rotate(90 495,30855.3)" text-rendering="optimizeSpeed" fill="#000000">HP-UX (IA64W) (32)</text>
  <rect fill="blue" height="3.5" stroke="black" width="12" x="510" y="30846.8"/>
  <text x="510" y="30855.3" font-family="Tahoma" font-size="12" transform="rotate(90 510,30855.3)" text-rendering="optimizeSpeed" fill="#000000">Linux (mips64el) (35)</text>
  <rect fill="blue" height="3.7" stroke="black" width="12" x="525" y="30846.6"/>
  <text x="525" y="30855.3" font-family="Tahoma" font-size="12" transform="rotate(90 525,30855.3)" text-rendering="optimizeSpeed" fill="#000000">z/OS (s390x) (37)</text>
  <rect fill="blue" height="5.1" stroke="black" width="12" x="540" y="30845.2"/>
  <text x="540" y="30855.3" font-family="Tahoma" font-size="12" transform="rotate(90 540,30855.3)" text-rendering="optimizeSpeed" fill="#000000">HP-UX (PA_RISC2.0) (51)</text>
  <rect fill="blue" height="10.2" stroke="black" width="12" x="555" y="30840.1"/>
  <text x="555" y="30855.3" font-family="Tahoma" font-size="12" transform="rotate(90 555,30855.3)" text-rendering="optimizeSpeed" fill="#000000">Linux (x86) (102)</text>
  <rect fill="blue" height="12.1" stroke="black" width="12" x="570" y="30838.2"/>
  <text x="570" y="30855.3" font-family="Tahoma" font-size="12" transform="rotate(90 570,30855.3)" text-rendering="optimizeSpeed" fill="#000000">Windows Vista (x86) (121)</text>
  <rect fill="blue" height="17.1" stroke="black" width="12" x="585" y="30833.2"/>
  <text x="585" y="30855.3" font-family="Tahoma" font-size="12" transform="rotate(90 585,30855.3)" text-rendering="optimizeSpeed" fill="#000000">Linux (ppc64) (171)</text>
  <rect fill="blue" height="20.0" stroke="black" width="12" x="600" y="30830.3"/>
  <text x="600" y="30855.3" font-family="Tahoma" font-size="12" transform="rotate(90 600,30855.3)" text-rendering="optimizeSpeed" fill="#000000">Windows 2003 (amd64) (200)</text>
  <rect fill="blue" height="22.7" stroke="black" width="12" x="615" y="30827.6"/>
  <text x="615" y="30855.3" font-family="Tahoma" font-size="12" transform="rotate(90 615,30855.3)" text-rendering="optimizeSpeed" fill="#000000">Linux (s390x) (227)</text>
  <rect fill="blue" height="30.7" stroke="black" width="12" x="630" y="30819.6"/>
  <text x="630" y="30855.3" font-family="Tahoma" font-size="12" transform="rotate(90 630,30855.3)" text-rendering="optimizeSpeed" fill="#000000">FreeBSD (i386) (307)</text>
  <rect fill="blue" height="33.9" stroke="black" width="12" x="645" y="30816.4"/>
  <text x="645" y="30855.3" font-family="Tahoma" font-size="12" transform="rotate(90 645,30855.3)" text-rendering="optimizeSpeed" fill="#000000">HP-UX (IA64N) (339)</text>
  <rect fill="blue" height="36.2" stroke="black" width="12" x="660" y="30814.1"/>
  <text x="660" y="30855.3" font-family="Tahoma" font-size="12" transform="rotate(90 660,30855.3)" text-rendering="optimizeSpeed" fill="#000000">AIX (ppc) (362)</text>
  <rect fill="blue" height="36.9" stroke="black" width="12" x="675" y="30813.4"/>
  <text x="675" y="30855.3" font-family="Tahoma" font-size="12" transform="rotate(90 675,30855.3)" text-rendering="optimizeSpeed" fill="#000000">Linux (ppc64le) (369)</text>
  <rect fill="blue" height="37.6" stroke="black" width="12" x="690" y="30812.7"/>
  <text x="690" y="30855.3" font-family="Tahoma" font-size="12" transform="rotate(90 690,30855.3)" text-rendering="optimizeSpeed" fill="#000000">Windows 8 (x86) (376)</text>
  <rect fill="blue" height="45.3" stroke="black" width="12" x="705" y="30805.0"/>
  <text x="705" y="30855.3" font-family="Tahoma" font-size="12" transform="rotate(90 705,30855.3)" text-rendering="optimizeSpeed" fill="#000000">Windows Server 2008 (amd64) (453)</text>
  <rect fill="blue" height="51.3" stroke="black" width="12" x="720" y="30799.0"/>
  <text x="720" y="30855.3" font-family="Tahoma" font-size="12" transform="rotate(90 720,30855.3)" text-rendering="optimizeSpeed" fill="#000000">Linux (aarch64) (513)</text>
  <rect fill="blue" height="56.1" stroke="black" width="12" x="735" y="30794.2"/>
  <text x="735" y="30855.3" font-family="Tahoma" font-size="12" transform="rotate(90 735,30855.3)" text-rendering="optimizeSpeed" fill="#000000">Windows 8 (amd64) (561)</text>
  <rect fill="blue" height="60.0" stroke="black" width="12" x="750" y="30790.3"/>
  <text x="750" y="30855.3" font-family="Tahoma" font-size="12" transform="rotate(90 750,30855.3)" text-rendering="optimizeSpeed" fill="#000000">FreeBSD (amd64) (600)</text>
  <rect fill="blue" height="66.7" stroke="black" width="12" x="765" y="30783.6"/>
  <text x="765" y="30855.3" font-family="Tahoma" font-size="12" transform="rotate(90 765,30855.3)" text-rendering="optimizeSpeed" fill="#000000">SunOS (amd64) (667)</text>
  <rect fill="blue" height="71.7" stroke="black" width="12" x="780" y="30778.6"/>
  <text x="780" y="30855.3" font-family="Tahoma" font-size="12" transform="rotate(90 780,30855.3)" text-rendering="optimizeSpeed" fill="#000000">SunOS (x86) (717)</text>
  <rect fill="blue" height="74.3" stroke="black" width="12" x="795" y="30776.0"/>
  <text x="795" y="30855.3" font-family="Tahoma" font-size="12" transform="rotate(90 795,30855.3)" text-rendering="optimizeSpeed" fill="#000000">Windows Server 2008 (x86) (743)</text>
  <rect fill="blue" height="78.0" stroke="black" width="12" x="810" y="30772.3"/>
  <text x="810" y="30855.3" font-family="Tahoma" font-size="12" transform="rotate(90 810,30855.3)" text-rendering="optimizeSpeed" fill="#000000">Windows XP (x86) (780)</text>
  <rect fill="blue" height="80.4" stroke="black" width="12" x="825" y="30769.9"/>
  <text x="825" y="30855.3" font-family="Tahoma" font-size="12" transform="rotate(90 825,30855.3)" text-rendering="optimizeSpeed" fill="#000000">SunOS (sparc) (804)</text>
  <rect fill="blue" height="100.9" stroke="black" width="12" x="840" y="30749.4"/>
  <text x="840" y="30855.3" font-family="Tahoma" font-size="12" transform="rotate(90 840,30855.3)" text-rendering="optimizeSpeed" fill="#000000">SunOS (sparcv9) (1009)</text>
  <rect fill="blue" height="101.6" stroke="black" width="12" x="855" y="30748.7"/>
  <text x="855" y="30855.3" font-family="Tahoma" font-size="12" transform="rotate(90 855,30855.3)" text-rendering="optimizeSpeed" fill="#000000">Windows NT (unknown) (amd64) (1016)</text>
  <rect fill="blue" height="104.7" stroke="black" width="12" x="870" y="30745.6"/>
  <text x="870" y="30855.3" font-family="Tahoma" font-size="12" transform="rotate(90 870,30855.3)" text-rendering="optimizeSpeed" fill="#000000">Linux (arm) (1047)</text>
  <rect fill="blue" height="106.3" stroke="black" width="12" x="885" y="30744.0"/>
  <text x="885" y="30855.3" font-family="Tahoma" font-size="12" transform="rotate(90 885,30855.3)" text-rendering="optimizeSpeed" fill="#000000">Windows NT (unknown) (x86) (1063)</text>
  <rect fill="blue" height="119.8" stroke="black" width="12" x="900" y="30730.5"/>
  <text x="900" y="30855.3" font-family="Tahoma" font-size="12" transform="rotate(90 900,30855.3)" text-rendering="optimizeSpeed" fill="#000000">Windows 2003 (x86) (1198)</text>
  <rect fill="blue" height="140.5" stroke="black" width="12" x="915" y="30709.8"/>
  <text x="915" y="30855.3" font-family="Tahoma" font-size="12" transform="rotate(90 915,30855.3)" text-rendering="optimizeSpeed" fill="#000000">AIX (ppc64) (1405)</text>
  <rect fill="blue" height="162.8" stroke="black" width="12" x="930" y="30687.5"/>
  <text x="930" y="30855.3" font-family="Tahoma" font-size="12" transform="rotate(90 930,30855.3)" text-rendering="optimizeSpeed" fill="#000000">Windows Server 2012 (x86) (1628)</text>
  <rect fill="blue" height="176.3" stroke="black" width="12" x="945" y="30674.0"/>
  <text x="945" y="30855.3" font-family="Tahoma" font-size="12" transform="rotate(90 945,30855.3)" text-rendering="optimizeSpeed" fill="#000000">Windows 8.1 (x86) (1763)</text>
  <rect fill="blue" height="189.3" stroke="black" width="12" x="960" y="30661.0"/>
  <text x="960" y="30855.3" font-family="Tahoma" font-size="12" transform="rotate(90 960,30855.3)" text-rendering="optimizeSpeed" fill="#000000">Windows Server 2016 (x86) (1893)</text>
  <rect fill="blue" height="226.1" stroke="black" width="12" x="975" y="30624.2"/>
  <text x="975" y="30855.3" font-family="Tahoma" font-size="12" transform="rotate(90 975,30855.3)" text-rendering="optimizeSpeed" fill="#000000">Windows 8.1 (amd64) (2261)</text>
  <rect fill="blue" height="276.7" stroke="black" width="12" x="990" y="30573.6"/>
  <text x="990" y="30855.3" font-family="Tahoma" font-size="12" transform="rotate(90 990,30855.3)" text-rendering="optimizeSpeed" fill="#000000">Windows Server 2016 (amd64) (2767)</text>
  <rect fill="blue" height="376.2" stroke="black" width="12" x="1005" y="30474.1"/>
  <text x="1005" y="30855.3" font-family="Tahoma" font-size="12" transform="rotate(90 1005,30855.3)" text-rendering="optimizeSpeed" fill="#000000">Windows Server 2012 (amd64) (3762)</text>
  <rect fill="blue" height="842.9" stroke="black" width="12" x="1020" y="30007.4"/>
  <text x="1020" y="30855.3" font-family="Tahoma" font-size="12" transform="rotate(90 1020,30855.3)" text-rendering="optimizeSpeed" fill="#000000">Windows Server 2008 R2 (x86) (8429)</text>
  <rect fill="blue" height="893.8" stroke="black" width="12" x="1035" y="29956.5"/>
  <text x="1035" y="30855.3" font-family="Tahoma" font-size="12" transform="rotate(90 1035,30855.3)" text-rendering="optimizeSpeed" fill="#000000">Windows 10 (x86) (8938)</text>
  <rect fill="blue" height="901.6" stroke="black" width="12" x="1050" y="29948.7"/>
  <text x="1050" y="30855.3" font-family="Tahoma" font-size="12" transform="rotate(90 1050,30855.3)" text-rendering="optimizeSpeed" fill="#000000">Linux (i386) (9016)</text>
  <rect fill="blue" height="1019.7" stroke="black" width="12" x="1065" y="29830.6"/>
  <text x="1065" y="30855.3" font-family="Tahoma" font-size="12" transform="rotate(90 1065,30855.3)" text-rendering="optimizeSpeed" fill="#000000">Windows 10 (amd64) (10197)</text>
  <rect fill="blue" height="1052.5" stroke="black" width="12" x="1080" y="29797.8"/>
  <text x="1080" y="30855.3" font-family="Tahoma" font-size="12" transform="rotate(90 1080,30855.3)" text-rendering="optimizeSpeed" fill="#000000">Windows Server 2012 R2 (x86) (10525)</text>
  <rect fill="blue" height="1643.6" stroke="black" width="12" x="1095" y="29206.7"/>
  <text x="1095" y="30855.3" font-family="Tahoma" font-size="12" transform="rotate(90 1095,30855.3)" text-rendering="optimizeSpeed" fill="#000000">Windows Server 2008 R2 (amd64) (16436)</text>
  <rect fill="blue" height="1941.7" stroke="black" width="12" x="1110" y="28908.6"/>
  <text x="1110" y="30855.3" font-family="Tahoma" font-size="12" transform="rotate(90 1110,30855.3)" text-rendering="optimizeSpeed" fill="#000000">Windows Server 2012 R2 (amd64) (19417)</text>
  <rect fill="blue" height="2160.7" stroke="black" width="12" x="1125" y="28689.6"/>
  <text x="1125" y="30855.3" font-family="Tahoma" font-size="12" transform="rotate(90 1125,30855.3)" text-rendering="optimizeSpeed" fill="#000000">Mac OS X (x86_64) (21607)</text>
  <rect fill="blue" height="2178.4" stroke="black" width="12" x="1140" y="28671.9"/>
  <text x="1140" y="30855.3" font-family="Tahoma" font-size="12" transform="rotate(90 1140,30855.3)" text-rendering="optimizeSpeed" fill="#000000">Windows 7 (amd64) (21784)</text>
  <rect fill="blue" height="2273.3" stroke="black" width="12" x="1155" y="28577.0"/>
  <text x="1155" y="30855.3" font-family="Tahoma" font-size="12" transform="rotate(90 1155,30855.3)" text-rendering="optimizeSpeed" fill="#000000">Windows 7 (x86) (22733)</text>
  <rect fill="blue" height="17924.6" stroke="black" width="12" x="1170" y="12925.7"/>
  <text x="1170" y="30855.3" font-family="Tahoma" font-size="12" transform="rotate(90 1170,30855.3)" text-rendering="optimizeSpeed" fill="#000000">N/A (179246)</text>
  <rect fill="blue" height="30800.3" stroke="black" width="12" x="1185" y="50.0"/>
  <text x="1185" y="30855.3" font-family="Tahoma" font-size="12" transform="rotate(90 1185,30855.3)" text-rendering="optimizeSpeed" fill="#000000">Linux (amd64) (308003)</text>
  <text x="10" y="40" font-family="Tahoma" font-size="20" text-rendering="optimizeSpeed" fill="#000000">Nodes (total: 665919)</text>
</svg>
