<svg xmlns="http://www.w3.org/2000/svg" version="1.1" preserveAspectRatio="xMidYMid meet" viewBox="0 0 575 15198.6">
  <rect fill="blue" height="0.0" stroke="black" width="12" x="15" y="14898.6"/>
  <text x="15" y="14903.6" font-family="Tahoma" font-size="12" transform="rotate(90 15,14903.6)" text-rendering="optimizeSpeed" fill="#000000">hudson-model-PhpProject (1)</text>
  <rect fill="blue" height="0.0" stroke="black" width="12" x="30" y="14898.6"/>
  <text x="30" y="14903.6" font-family="Tahoma" font-size="12" transform="rotate(90 30,14903.6)" text-rendering="optimizeSpeed" fill="#000000">hudson-plugins-wormpex-data-template-DataWarehouseStyleProject (1)</text>
  <rect fill="blue" height="0.0" stroke="black" width="12" x="45" y="14898.6"/>
  <text x="45" y="14903.6" font-family="Tahoma" font-size="12" transform="rotate(90 45,14903.6)" text-rendering="optimizeSpeed" fill="#000000">org-jenkinsci-plugins-jobexecutors-toplevelitems-StoreVersion (1)</text>
  <rect fill="blue" height="0.0" stroke="black" width="12" x="60" y="14898.6"/>
  <text x="60" y="14903.6" font-family="Tahoma" font-size="12" transform="rotate(90 60,14903.6)" text-rendering="optimizeSpeed" fill="#000000">org-jenkinsci-plugins-spoontrigger-SpoonProject (1)</text>
  <rect fill="blue" height="0.0" stroke="black" width="12" x="75" y="14898.6"/>
  <text x="75" y="14903.6" font-family="Tahoma" font-size="12" transform="rotate(90 75,14903.6)" text-rendering="optimizeSpeed" fill="#000000">org-jenkinsci-plugins-jobexecutors-toplevelitems-PortalNotifier (2)</text>
  <rect fill="blue" height="0.0" stroke="black" width="12" x="90" y="14898.6"/>
  <text x="90" y="14903.6" font-family="Tahoma" font-size="12" transform="rotate(90 90,14903.6)" text-rendering="optimizeSpeed" fill="#000000">org-cloudbees-literate-jenkins-LiterateMultibranchProject (3)</text>
  <rect fill="blue" height="0.0" stroke="black" width="12" x="105" y="14898.6"/>
  <text x="105" y="14903.6" font-family="Tahoma" font-size="12" transform="rotate(90 105,14903.6)" text-rendering="optimizeSpeed" fill="#000000">com-github-mjdetullio-jenkins-plugins-multibranch-IvyMultiBranchProject (5)</text>
  <rect fill="blue" height="0.0" stroke="black" width="12" x="120" y="14898.6"/>
  <text x="120" y="14903.6" font-family="Tahoma" font-size="12" transform="rotate(90 120,14903.6)" text-rendering="optimizeSpeed" fill="#000000">org-jvnet-hudson-test-MockFolder (6)</text>
  <rect fill="blue" height="0.0" stroke="black" width="12" x="135" y="14898.6"/>
  <text x="135" y="14903.6" font-family="Tahoma" font-size="12" transform="rotate(90 135,14903.6)" text-rendering="optimizeSpeed" fill="#000000">hudson-model-GolangProject (7)</text>
  <rect fill="blue" height="0.0" stroke="black" width="12" x="150" y="14898.6"/>
  <text x="150" y="14903.6" font-family="Tahoma" font-size="12" transform="rotate(90 150,14903.6)" text-rendering="optimizeSpeed" fill="#000000">hudson-plugins-job_dependency-projects-MasterProject (10)</text>
  <rect fill="blue" height="0.0" stroke="black" width="12" x="165" y="14898.5"/>
  <text x="165" y="14903.6" font-family="Tahoma" font-size="12" transform="rotate(90 165,14903.6)" text-rendering="optimizeSpeed" fill="#000000">org-jenkinsci-plugins-coordinator-dummy-model-CoordinatorProject (12)</text>
  <rect fill="blue" height="0.0" stroke="black" width="12" x="180" y="14898.5"/>
  <text x="180" y="14903.6" font-family="Tahoma" font-size="12" transform="rotate(90 180,14903.6)" text-rendering="optimizeSpeed" fill="#000000">com-barchart-jenkins-cascade-CascadeProject (24)</text>
  <rect fill="blue" height="0.0" stroke="black" width="12" x="195" y="14898.5"/>
  <text x="195" y="14903.6" font-family="Tahoma" font-size="12" transform="rotate(90 195,14903.6)" text-rendering="optimizeSpeed" fill="#000000">org-jenkinsci-plugins-drupal-projects-DrupalProject (27)</text>
  <rect fill="blue" height="0.0" stroke="black" width="12" x="210" y="14898.5"/>
  <text x="210" y="14903.6" font-family="Tahoma" font-size="12" transform="rotate(90 210,14903.6)" text-rendering="optimizeSpeed" fill="#000000">hudson-plugin-smartjob-SmartJob (41)</text>
  <rect fill="blue" height="0.1" stroke="black" width="12" x="225" y="14898.5"/>
  <text x="225" y="14903.6" font-family="Tahoma" font-size="12" transform="rotate(90 225,14903.6)" text-rendering="optimizeSpeed" fill="#000000">com-github-mjdetullio-jenkins-plugins-multibranch-MatrixMultiBranchProject (71)</text>
  <rect fill="blue" height="0.1" stroke="black" width="12" x="240" y="14898.4"/>
  <text x="240" y="14903.6" font-family="Tahoma" font-size="12" transform="rotate(90 240,14903.6)" text-rendering="optimizeSpeed" fill="#000000">captmorgan-ExternalProject (146)</text>
  <rect fill="blue" height="0.7" stroke="black" width="12" x="255" y="14897.8"/>
  <text x="255" y="14903.6" font-family="Tahoma" font-size="12" transform="rotate(90 255,14903.6)" text-rendering="optimizeSpeed" fill="#000000">org-jenkinsci-plugins-coordinator-model-CoordinatorProject (747)</text>
  <rect fill="blue" height="0.8" stroke="black" width="12" x="270" y="14897.7"/>
  <text x="270" y="14903.6" font-family="Tahoma" font-size="12" transform="rotate(90 270,14903.6)" text-rendering="optimizeSpeed" fill="#000000">com-groupon-jenkins-dynamic-organizationcontainer-OrganizationContainer (830)</text>
  <rect fill="blue" height="1.3" stroke="black" width="12" x="285" y="14897.3"/>
  <text x="285" y="14903.6" font-family="Tahoma" font-size="12" transform="rotate(90 285,14903.6)" text-rendering="optimizeSpeed" fill="#000000">com-github-mjdetullio-jenkins-plugins-multibranch-MavenMultiBranchProject (1261)</text>
  <rect fill="blue" height="3.1" stroke="black" width="12" x="300" y="14895.4"/>
  <text x="300" y="14903.6" font-family="Tahoma" font-size="12" transform="rotate(90 300,14903.6)" text-rendering="optimizeSpeed" fill="#000000">com-github-mjdetullio-jenkins-plugins-multibranch-FreeStyleMultiBranchProject (3116)</text>
  <rect fill="blue" height="3.2" stroke="black" width="12" x="315" y="14895.4"/>
  <text x="315" y="14903.6" font-family="Tahoma" font-size="12" transform="rotate(90 315,14903.6)" text-rendering="optimizeSpeed" fill="#000000">org-jenkinsci-plugins-jobgenerator-JobGenerator (3177)</text>
  <rect fill="blue" height="4.4" stroke="black" width="12" x="330" y="14894.2"/>
  <text x="330" y="14903.6" font-family="Tahoma" font-size="12" transform="rotate(90 330,14903.6)" text-rendering="optimizeSpeed" fill="#000000">com-groupon-jenkins-dynamic-build-DynamicProject (4382)</text>
  <rect fill="blue" height="4.4" stroke="black" width="12" x="345" y="14894.1"/>
  <text x="345" y="14903.6" font-family="Tahoma" font-size="12" transform="rotate(90 345,14903.6)" text-rendering="optimizeSpeed" fill="#000000">org-jenkinsci-plugins-pipeline-multibranch-defaults-PipelineMultiBranchDefaultsProject (4422)</text>
  <rect fill="blue" height="4.9" stroke="black" width="12" x="360" y="14893.7"/>
  <text x="360" y="14903.6" font-family="Tahoma" font-size="12" transform="rotate(90 360,14903.6)" text-rendering="optimizeSpeed" fill="#000000">hudson-ivy-IvyModuleSet (4893)</text>
  <rect fill="blue" height="6.8" stroke="black" width="12" x="375" y="14891.7"/>
  <text x="375" y="14903.6" font-family="Tahoma" font-size="12" transform="rotate(90 375,14903.6)" text-rendering="optimizeSpeed" fill="#000000">hudson-model-ExternalJob (6839)</text>
  <rect fill="blue" height="20.0" stroke="black" width="12" x="390" y="14878.5"/>
  <text x="390" y="14903.6" font-family="Tahoma" font-size="12" transform="rotate(90 390,14903.6)" text-rendering="optimizeSpeed" fill="#000000">jenkins-branch-OrganizationFolder (20036)</text>
  <rect fill="blue" height="23.8" stroke="black" width="12" x="405" y="14874.7"/>
  <text x="405" y="14903.6" font-family="Tahoma" font-size="12" transform="rotate(90 405,14903.6)" text-rendering="optimizeSpeed" fill="#000000">hudson-plugins-project_inheritance-projects-InheritanceProject (23833)</text>
  <rect fill="blue" height="194.7" stroke="black" width="12" x="420" y="14703.9"/>
  <text x="420" y="14903.6" font-family="Tahoma" font-size="12" transform="rotate(90 420,14903.6)" text-rendering="optimizeSpeed" fill="#000000">com-cloudbees-plugins-flow-BuildFlow (194668)</text>
  <rect fill="blue" height="305.4" stroke="black" width="12" x="435" y="14593.1"/>
  <text x="435" y="14903.6" font-family="Tahoma" font-size="12" transform="rotate(90 435,14903.6)" text-rendering="optimizeSpeed" fill="#000000">hudson-matrix-MatrixProject (305448)</text>
  <rect fill="blue" height="326.9" stroke="black" width="12" x="450" y="14571.7"/>
  <text x="450" y="14903.6" font-family="Tahoma" font-size="12" transform="rotate(90 450,14903.6)" text-rendering="optimizeSpeed" fill="#000000">com-tikal-jenkins-plugins-multijob-MultiJobProject (326882)</text>
  <rect fill="blue" height="550.4" stroke="black" width="12" x="465" y="14348.1"/>
  <text x="465" y="14903.6" font-family="Tahoma" font-size="12" transform="rotate(90 465,14903.6)" text-rendering="optimizeSpeed" fill="#000000">org-jenkinsci-plugins-workflow-multibranch-WorkflowMultiBranchProject (550412)</text>
  <rect fill="blue" height="947.3" stroke="black" width="12" x="480" y="13951.3"/>
  <text x="480" y="14903.6" font-family="Tahoma" font-size="12" transform="rotate(90 480,14903.6)" text-rendering="optimizeSpeed" fill="#000000">com-cloudbees-hudson-plugins-folder-Folder (947300)</text>
  <rect fill="blue" height="1996.1" stroke="black" width="12" x="495" y="12902.5"/>
  <text x="495" y="14903.6" font-family="Tahoma" font-size="12" transform="rotate(90 495,14903.6)" text-rendering="optimizeSpeed" fill="#000000">hudson-maven-MavenModuleSet (1996095)</text>
  <rect fill="blue" height="7218.5" stroke="black" width="12" x="510" y="7680.1"/>
  <text x="510" y="14903.6" font-family="Tahoma" font-size="12" transform="rotate(90 510,14903.6)" text-rendering="optimizeSpeed" fill="#000000">org-jenkinsci-plugins-workflow-job-WorkflowJob (7218494)</text>
  <rect fill="blue" height="14848.6" stroke="black" width="12" x="525" y="50.0"/>
  <text x="525" y="14903.6" font-family="Tahoma" font-size="12" transform="rotate(90 525,14903.6)" text-rendering="optimizeSpeed" fill="#000000">hudson-model-FreeStyleProject (14848562)</text>
  <text x="10" y="40" font-family="Tahoma" font-size="20" text-rendering="optimizeSpeed" fill="#000000">Jobs (total: 26461755)</text>
</svg>
