<svg xmlns="http://www.w3.org/2000/svg" version="1.1" preserveAspectRatio="xMidYMid meet" viewBox="0 0 500 16168.7">
  <rect fill="blue" height="0.0" stroke="black" width="12" x="15" y="15868.7"/>
  <text x="15" y="15873.7" font-family="Tahoma" font-size="12" transform="rotate(90 15,15873.7)" text-rendering="optimizeSpeed" fill="#000000">com-google-jenkins-plugins-dsl-YamlProject (1)</text>
  <rect fill="blue" height="0.0" stroke="black" width="12" x="30" y="15868.7"/>
  <text x="30" y="15873.7" font-family="Tahoma" font-size="12" transform="rotate(90 30,15873.7)" text-rendering="optimizeSpeed" fill="#000000">hudson-drools-DroolsProject (1)</text>
  <rect fill="blue" height="0.0" stroke="black" width="12" x="45" y="15868.7"/>
  <text x="45" y="15873.7" font-family="Tahoma" font-size="12" transform="rotate(90 45,15873.7)" text-rendering="optimizeSpeed" fill="#000000">org-cloudbees-literate-jenkins-LiterateMultibranchProject (1)</text>
  <rect fill="blue" height="0.0" stroke="black" width="12" x="60" y="15868.7"/>
  <text x="60" y="15873.7" font-family="Tahoma" font-size="12" transform="rotate(90 60,15873.7)" text-rendering="optimizeSpeed" fill="#000000">org-jvnet-hudson-test-MockFolder (1)</text>
  <rect fill="blue" height="0.0" stroke="black" width="12" x="75" y="15868.7"/>
  <text x="75" y="15873.7" font-family="Tahoma" font-size="12" transform="rotate(90 75,15873.7)" text-rendering="optimizeSpeed" fill="#000000">com-github-mjdetullio-jenkins-plugins-multibranch-IvyMultiBranchProject (5)</text>
  <rect fill="blue" height="0.0" stroke="black" width="12" x="90" y="15868.7"/>
  <text x="90" y="15873.7" font-family="Tahoma" font-size="12" transform="rotate(90 90,15873.7)" text-rendering="optimizeSpeed" fill="#000000">org-jenkinsci-plugins-drupal-projects-DrupalProject (13)</text>
  <rect fill="blue" height="0.0" stroke="black" width="12" x="105" y="15868.7"/>
  <text x="105" y="15873.7" font-family="Tahoma" font-size="12" transform="rotate(90 105,15873.7)" text-rendering="optimizeSpeed" fill="#000000">com-barchart-jenkins-cascade-CascadeProject (24)</text>
  <rect fill="blue" height="0.0" stroke="black" width="12" x="120" y="15868.7"/>
  <text x="120" y="15873.7" font-family="Tahoma" font-size="12" transform="rotate(90 120,15873.7)" text-rendering="optimizeSpeed" fill="#000000">org-jenkinsci-plugins-coordinator-dummy-model-CoordinatorProject (41)</text>
  <rect fill="blue" height="0.0" stroke="black" width="12" x="135" y="15868.7"/>
  <text x="135" y="15873.7" font-family="Tahoma" font-size="12" transform="rotate(90 135,15873.7)" text-rendering="optimizeSpeed" fill="#000000">com-github-mjdetullio-jenkins-plugins-multibranch-MatrixMultiBranchProject (43)</text>
  <rect fill="blue" height="0.1" stroke="black" width="12" x="150" y="15868.6"/>
  <text x="150" y="15873.7" font-family="Tahoma" font-size="12" transform="rotate(90 150,15873.7)" text-rendering="optimizeSpeed" fill="#000000">hudson-plugin-smartjob-SmartJob (81)</text>
  <rect fill="blue" height="0.2" stroke="black" width="12" x="165" y="15868.6"/>
  <text x="165" y="15873.7" font-family="Tahoma" font-size="12" transform="rotate(90 165,15873.7)" text-rendering="optimizeSpeed" fill="#000000">captmorgan-ExternalProject (162)</text>
  <rect fill="blue" height="0.2" stroke="black" width="12" x="180" y="15868.5"/>
  <text x="180" y="15873.7" font-family="Tahoma" font-size="12" transform="rotate(90 180,15873.7)" text-rendering="optimizeSpeed" fill="#000000">com-groupon-jenkins-dynamic-build-DynamicProject (208)</text>
  <rect fill="blue" height="0.7" stroke="black" width="12" x="195" y="15868.0"/>
  <text x="195" y="15873.7" font-family="Tahoma" font-size="12" transform="rotate(90 195,15873.7)" text-rendering="optimizeSpeed" fill="#000000">com-groupon-jenkins-dynamic-organizationcontainer-OrganizationContainer (689)</text>
  <rect fill="blue" height="0.8" stroke="black" width="12" x="210" y="15867.9"/>
  <text x="210" y="15873.7" font-family="Tahoma" font-size="12" transform="rotate(90 210,15873.7)" text-rendering="optimizeSpeed" fill="#000000">org-jenkinsci-plugins-coordinator-model-CoordinatorProject (815)</text>
  <rect fill="blue" height="2.3" stroke="black" width="12" x="225" y="15866.4"/>
  <text x="225" y="15873.7" font-family="Tahoma" font-size="12" transform="rotate(90 225,15873.7)" text-rendering="optimizeSpeed" fill="#000000">com-github-mjdetullio-jenkins-plugins-multibranch-MavenMultiBranchProject (2331)</text>
  <rect fill="blue" height="3.1" stroke="black" width="12" x="240" y="15865.6"/>
  <text x="240" y="15873.7" font-family="Tahoma" font-size="12" transform="rotate(90 240,15873.7)" text-rendering="optimizeSpeed" fill="#000000">org-jenkinsci-plugins-jobgenerator-JobGenerator (3088)</text>
  <rect fill="blue" height="3.2" stroke="black" width="12" x="255" y="15865.5"/>
  <text x="255" y="15873.7" font-family="Tahoma" font-size="12" transform="rotate(90 255,15873.7)" text-rendering="optimizeSpeed" fill="#000000">com-github-mjdetullio-jenkins-plugins-multibranch-FreeStyleMultiBranchProject (3212)</text>
  <rect fill="blue" height="5.1" stroke="black" width="12" x="270" y="15863.6"/>
  <text x="270" y="15873.7" font-family="Tahoma" font-size="12" transform="rotate(90 270,15873.7)" text-rendering="optimizeSpeed" fill="#000000">org-jenkinsci-plugins-pipeline-multibranch-defaults-PipelineMultiBranchDefaultsProject (5136)</text>
  <rect fill="blue" height="5.3" stroke="black" width="12" x="285" y="15863.4"/>
  <text x="285" y="15873.7" font-family="Tahoma" font-size="12" transform="rotate(90 285,15873.7)" text-rendering="optimizeSpeed" fill="#000000">hudson-ivy-IvyModuleSet (5273)</text>
  <rect fill="blue" height="6.5" stroke="black" width="12" x="300" y="15862.2"/>
  <text x="300" y="15873.7" font-family="Tahoma" font-size="12" transform="rotate(90 300,15873.7)" text-rendering="optimizeSpeed" fill="#000000">hudson-model-ExternalJob (6544)</text>
  <rect fill="blue" height="23.5" stroke="black" width="12" x="315" y="15845.3"/>
  <text x="315" y="15873.7" font-family="Tahoma" font-size="12" transform="rotate(90 315,15873.7)" text-rendering="optimizeSpeed" fill="#000000">jenkins-branch-OrganizationFolder (23459)</text>
  <rect fill="blue" height="28.4" stroke="black" width="12" x="330" y="15840.3"/>
  <text x="330" y="15873.7" font-family="Tahoma" font-size="12" transform="rotate(90 330,15873.7)" text-rendering="optimizeSpeed" fill="#000000">hudson-plugins-project_inheritance-projects-InheritanceProject (28375)</text>
  <rect fill="blue" height="319.8" stroke="black" width="12" x="345" y="15548.9"/>
  <text x="345" y="15873.7" font-family="Tahoma" font-size="12" transform="rotate(90 345,15873.7)" text-rendering="optimizeSpeed" fill="#000000">hudson-matrix-MatrixProject (319842)</text>
  <rect fill="blue" height="332.2" stroke="black" width="12" x="360" y="15536.5"/>
  <text x="360" y="15873.7" font-family="Tahoma" font-size="12" transform="rotate(90 360,15873.7)" text-rendering="optimizeSpeed" fill="#000000">com-cloudbees-plugins-flow-BuildFlow (332236)</text>
  <rect fill="blue" height="367.0" stroke="black" width="12" x="375" y="15501.7"/>
  <text x="375" y="15873.7" font-family="Tahoma" font-size="12" transform="rotate(90 375,15873.7)" text-rendering="optimizeSpeed" fill="#000000">com-tikal-jenkins-plugins-multijob-MultiJobProject (367012)</text>
  <rect fill="blue" height="716.9" stroke="black" width="12" x="390" y="15151.8"/>
  <text x="390" y="15873.7" font-family="Tahoma" font-size="12" transform="rotate(90 390,15873.7)" text-rendering="optimizeSpeed" fill="#000000">org-jenkinsci-plugins-workflow-multibranch-WorkflowMultiBranchProject (716912)</text>
  <rect fill="blue" height="1161.7" stroke="black" width="12" x="405" y="14707.0"/>
  <text x="405" y="15873.7" font-family="Tahoma" font-size="12" transform="rotate(90 405,15873.7)" text-rendering="optimizeSpeed" fill="#000000">com-cloudbees-hudson-plugins-folder-Folder (1161748)</text>
  <rect fill="blue" height="2020.6" stroke="black" width="12" x="420" y="13848.1"/>
  <text x="420" y="15873.7" font-family="Tahoma" font-size="12" transform="rotate(90 420,15873.7)" text-rendering="optimizeSpeed" fill="#000000">hudson-maven-MavenModuleSet (2020608)</text>
  <rect fill="blue" height="10393.1" stroke="black" width="12" x="435" y="5475.6"/>
  <text x="435" y="15873.7" font-family="Tahoma" font-size="12" transform="rotate(90 435,15873.7)" text-rendering="optimizeSpeed" fill="#000000">org-jenkinsci-plugins-workflow-job-WorkflowJob (10393100)</text>
  <rect fill="blue" height="15818.7" stroke="black" width="12" x="450" y="50.0"/>
  <text x="450" y="15873.7" font-family="Tahoma" font-size="12" transform="rotate(90 450,15873.7)" text-rendering="optimizeSpeed" fill="#000000">hudson-model-FreeStyleProject (15818714)</text>
  <text x="10" y="40" font-family="Tahoma" font-size="20" text-rendering="optimizeSpeed" fill="#000000">Jobs (total: 31209675)</text>
</svg>
