<svg xmlns="http://www.w3.org/2000/svg" version="1.1" preserveAspectRatio="xMidYMid meet" viewBox="0 0 530 13924.3">
  <rect fill="blue" height="0.0" stroke="black" width="12" x="15" y="13624.3"/>
  <text x="15" y="13629.3" font-family="Tahoma" font-size="12" transform="rotate(90 15,13629.3)" text-rendering="optimizeSpeed" fill="#000000">hudson-model-PhpProject (1)</text>
  <rect fill="blue" height="0.0" stroke="black" width="12" x="30" y="13624.3"/>
  <text x="30" y="13629.3" font-family="Tahoma" font-size="12" transform="rotate(90 30,13629.3)" text-rendering="optimizeSpeed" fill="#000000">hudson-plugins-job_dependency-projects-MasterProject (3)</text>
  <rect fill="blue" height="0.0" stroke="black" width="12" x="45" y="13624.3"/>
  <text x="45" y="13629.3" font-family="Tahoma" font-size="12" transform="rotate(90 45,13629.3)" text-rendering="optimizeSpeed" fill="#000000">org-cloudbees-literate-jenkins-LiterateMultibranchProject (3)</text>
  <rect fill="blue" height="0.0" stroke="black" width="12" x="60" y="13624.3"/>
  <text x="60" y="13629.3" font-family="Tahoma" font-size="12" transform="rotate(90 60,13629.3)" text-rendering="optimizeSpeed" fill="#000000">com-github-mjdetullio-jenkins-plugins-multibranch-IvyMultiBranchProject (5)</text>
  <rect fill="blue" height="0.0" stroke="black" width="12" x="75" y="13624.3"/>
  <text x="75" y="13629.3" font-family="Tahoma" font-size="12" transform="rotate(90 75,13629.3)" text-rendering="optimizeSpeed" fill="#000000">hudson-model-CppProject (5)</text>
  <rect fill="blue" height="0.0" stroke="black" width="12" x="90" y="13624.3"/>
  <text x="90" y="13629.3" font-family="Tahoma" font-size="12" transform="rotate(90 90,13629.3)" text-rendering="optimizeSpeed" fill="#000000">org-jvnet-hudson-test-MockFolder (6)</text>
  <rect fill="blue" height="0.0" stroke="black" width="12" x="105" y="13624.3"/>
  <text x="105" y="13629.3" font-family="Tahoma" font-size="12" transform="rotate(90 105,13629.3)" text-rendering="optimizeSpeed" fill="#000000">hudson-model-GolangProject (8)</text>
  <rect fill="blue" height="0.0" stroke="black" width="12" x="120" y="13624.3"/>
  <text x="120" y="13629.3" font-family="Tahoma" font-size="12" transform="rotate(90 120,13629.3)" text-rendering="optimizeSpeed" fill="#000000">com-barchart-jenkins-cascade-CascadeProject (22)</text>
  <rect fill="blue" height="0.0" stroke="black" width="12" x="135" y="13624.3"/>
  <text x="135" y="13629.3" font-family="Tahoma" font-size="12" transform="rotate(90 135,13629.3)" text-rendering="optimizeSpeed" fill="#000000">org-jenkinsci-plugins-coordinator-dummy-model-CoordinatorProject (30)</text>
  <rect fill="blue" height="0.1" stroke="black" width="12" x="150" y="13624.3"/>
  <text x="150" y="13629.3" font-family="Tahoma" font-size="12" transform="rotate(90 150,13629.3)" text-rendering="optimizeSpeed" fill="#000000">hudson-plugin-smartjob-SmartJob (50)</text>
  <rect fill="blue" height="0.1" stroke="black" width="12" x="165" y="13624.2"/>
  <text x="165" y="13629.3" font-family="Tahoma" font-size="12" transform="rotate(90 165,13629.3)" text-rendering="optimizeSpeed" fill="#000000">com-groupon-jenkins-dynamic-build-DynamicProject (58)</text>
  <rect fill="blue" height="0.1" stroke="black" width="12" x="180" y="13624.2"/>
  <text x="180" y="13629.3" font-family="Tahoma" font-size="12" transform="rotate(90 180,13629.3)" text-rendering="optimizeSpeed" fill="#000000">com-github-mjdetullio-jenkins-plugins-multibranch-MatrixMultiBranchProject (85)</text>
  <rect fill="blue" height="0.1" stroke="black" width="12" x="195" y="13624.2"/>
  <text x="195" y="13629.3" font-family="Tahoma" font-size="12" transform="rotate(90 195,13629.3)" text-rendering="optimizeSpeed" fill="#000000">org-jenkinsci-plugins-drupal-projects-DrupalProject (102)</text>
  <rect fill="blue" height="0.2" stroke="black" width="12" x="210" y="13624.1"/>
  <text x="210" y="13629.3" font-family="Tahoma" font-size="12" transform="rotate(90 210,13629.3)" text-rendering="optimizeSpeed" fill="#000000">captmorgan-ExternalProject (235)</text>
  <rect fill="blue" height="0.6" stroke="black" width="12" x="225" y="13623.7"/>
  <text x="225" y="13629.3" font-family="Tahoma" font-size="12" transform="rotate(90 225,13629.3)" text-rendering="optimizeSpeed" fill="#000000">com-groupon-jenkins-dynamic-organizationcontainer-OrganizationContainer (592)</text>
  <rect fill="blue" height="0.7" stroke="black" width="12" x="240" y="13623.6"/>
  <text x="240" y="13629.3" font-family="Tahoma" font-size="12" transform="rotate(90 240,13629.3)" text-rendering="optimizeSpeed" fill="#000000">org-jenkinsci-plugins-coordinator-model-CoordinatorProject (655)</text>
  <rect fill="blue" height="1.6" stroke="black" width="12" x="255" y="13622.7"/>
  <text x="255" y="13629.3" font-family="Tahoma" font-size="12" transform="rotate(90 255,13629.3)" text-rendering="optimizeSpeed" fill="#000000">com-github-mjdetullio-jenkins-plugins-multibranch-MavenMultiBranchProject (1639)</text>
  <rect fill="blue" height="2.9" stroke="black" width="12" x="270" y="13621.4"/>
  <text x="270" y="13629.3" font-family="Tahoma" font-size="12" transform="rotate(90 270,13629.3)" text-rendering="optimizeSpeed" fill="#000000">org-jenkinsci-plugins-jobgenerator-JobGenerator (2945)</text>
  <rect fill="blue" height="3.5" stroke="black" width="12" x="285" y="13620.8"/>
  <text x="285" y="13629.3" font-family="Tahoma" font-size="12" transform="rotate(90 285,13629.3)" text-rendering="optimizeSpeed" fill="#000000">com-github-mjdetullio-jenkins-plugins-multibranch-FreeStyleMultiBranchProject (3547)</text>
  <rect fill="blue" height="3.9" stroke="black" width="12" x="300" y="13620.4"/>
  <text x="300" y="13629.3" font-family="Tahoma" font-size="12" transform="rotate(90 300,13629.3)" text-rendering="optimizeSpeed" fill="#000000">org-jenkinsci-plugins-pipeline-multibranch-defaults-PipelineMultiBranchDefaultsProject (3911)</text>
  <rect fill="blue" height="5.0" stroke="black" width="12" x="315" y="13619.3"/>
  <text x="315" y="13629.3" font-family="Tahoma" font-size="12" transform="rotate(90 315,13629.3)" text-rendering="optimizeSpeed" fill="#000000">hudson-ivy-IvyModuleSet (4967)</text>
  <rect fill="blue" height="5.0" stroke="black" width="12" x="330" y="13619.3"/>
  <text x="330" y="13629.3" font-family="Tahoma" font-size="12" transform="rotate(90 330,13629.3)" text-rendering="optimizeSpeed" fill="#000000">hudson-model-ExternalJob (5019)</text>
  <rect fill="blue" height="18.1" stroke="black" width="12" x="345" y="13606.2"/>
  <text x="345" y="13629.3" font-family="Tahoma" font-size="12" transform="rotate(90 345,13629.3)" text-rendering="optimizeSpeed" fill="#000000">jenkins-branch-OrganizationFolder (18101)</text>
  <rect fill="blue" height="24.7" stroke="black" width="12" x="360" y="13599.6"/>
  <text x="360" y="13629.3" font-family="Tahoma" font-size="12" transform="rotate(90 360,13629.3)" text-rendering="optimizeSpeed" fill="#000000">hudson-plugins-project_inheritance-projects-InheritanceProject (24718)</text>
  <rect fill="blue" height="247.2" stroke="black" width="12" x="375" y="13377.1"/>
  <text x="375" y="13629.3" font-family="Tahoma" font-size="12" transform="rotate(90 375,13629.3)" text-rendering="optimizeSpeed" fill="#000000">hudson-matrix-MatrixProject (247157)</text>
  <rect fill="blue" height="276.2" stroke="black" width="12" x="390" y="13348.1"/>
  <text x="390" y="13629.3" font-family="Tahoma" font-size="12" transform="rotate(90 390,13629.3)" text-rendering="optimizeSpeed" fill="#000000">com-cloudbees-plugins-flow-BuildFlow (276215)</text>
  <rect fill="blue" height="292.7" stroke="black" width="12" x="405" y="13331.6"/>
  <text x="405" y="13629.3" font-family="Tahoma" font-size="12" transform="rotate(90 405,13629.3)" text-rendering="optimizeSpeed" fill="#000000">com-tikal-jenkins-plugins-multijob-MultiJobProject (292749)</text>
  <rect fill="blue" height="485.5" stroke="black" width="12" x="420" y="13138.8"/>
  <text x="420" y="13629.3" font-family="Tahoma" font-size="12" transform="rotate(90 420,13629.3)" text-rendering="optimizeSpeed" fill="#000000">org-jenkinsci-plugins-workflow-multibranch-WorkflowMultiBranchProject (485537)</text>
  <rect fill="blue" height="957.3" stroke="black" width="12" x="435" y="12667.0"/>
  <text x="435" y="13629.3" font-family="Tahoma" font-size="12" transform="rotate(90 435,13629.3)" text-rendering="optimizeSpeed" fill="#000000">com-cloudbees-hudson-plugins-folder-Folder (957267)</text>
  <rect fill="blue" height="1847.0" stroke="black" width="12" x="450" y="11777.3"/>
  <text x="450" y="13629.3" font-family="Tahoma" font-size="12" transform="rotate(90 450,13629.3)" text-rendering="optimizeSpeed" fill="#000000">hudson-maven-MavenModuleSet (1847002)</text>
  <rect fill="blue" height="6124.6" stroke="black" width="12" x="465" y="7499.7"/>
  <text x="465" y="13629.3" font-family="Tahoma" font-size="12" transform="rotate(90 465,13629.3)" text-rendering="optimizeSpeed" fill="#000000">org-jenkinsci-plugins-workflow-job-WorkflowJob (6124601)</text>
  <rect fill="blue" height="13574.3" stroke="black" width="12" x="480" y="50.0"/>
  <text x="480" y="13629.3" font-family="Tahoma" font-size="12" transform="rotate(90 480,13629.3)" text-rendering="optimizeSpeed" fill="#000000">hudson-model-FreeStyleProject (13574302)</text>
  <text x="10" y="40" font-family="Tahoma" font-size="20" text-rendering="optimizeSpeed" fill="#000000">Jobs (total: 23871537)</text>
</svg>
