<svg xmlns="http://www.w3.org/2000/svg" version="1.1" preserveAspectRatio="xMidYMid meet" viewBox="0 0 560 14227.3">
  <rect fill="blue" height="0.0" stroke="black" width="12" x="15" y="13927.3"/>
  <text x="15" y="13932.3" font-family="Tahoma" font-size="12" transform="rotate(90 15,13932.3)" text-rendering="optimizeSpeed" fill="#000000">hudson-model-PhpProject (1)</text>
  <rect fill="blue" height="0.0" stroke="black" width="12" x="30" y="13927.3"/>
  <text x="30" y="13932.3" font-family="Tahoma" font-size="12" transform="rotate(90 30,13932.3)" text-rendering="optimizeSpeed" fill="#000000">org-cloudbees-literate-jenkins-LiterateMultibranchProject (1)</text>
  <rect fill="blue" height="0.0" stroke="black" width="12" x="45" y="13927.3"/>
  <text x="45" y="13932.3" font-family="Tahoma" font-size="12" transform="rotate(90 45,13932.3)" text-rendering="optimizeSpeed" fill="#000000">hudson-plugins-job_dependency-projects-MasterProject (2)</text>
  <rect fill="blue" height="0.0" stroke="black" width="12" x="60" y="13927.3"/>
  <text x="60" y="13932.3" font-family="Tahoma" font-size="12" transform="rotate(90 60,13932.3)" text-rendering="optimizeSpeed" fill="#000000">org-jenkinsci-plugins-jobexecutors-toplevelitems-StoreVersion (2)</text>
  <rect fill="blue" height="0.0" stroke="black" width="12" x="75" y="13927.3"/>
  <text x="75" y="13932.3" font-family="Tahoma" font-size="12" transform="rotate(90 75,13932.3)" text-rendering="optimizeSpeed" fill="#000000">org-jenkinsci-plugins-jobexecutors-toplevelitems-PortalNotifier (4)</text>
  <rect fill="blue" height="0.0" stroke="black" width="12" x="90" y="13927.3"/>
  <text x="90" y="13932.3" font-family="Tahoma" font-size="12" transform="rotate(90 90,13932.3)" text-rendering="optimizeSpeed" fill="#000000">com-github-mjdetullio-jenkins-plugins-multibranch-IvyMultiBranchProject (5)</text>
  <rect fill="blue" height="0.0" stroke="black" width="12" x="105" y="13927.3"/>
  <text x="105" y="13932.3" font-family="Tahoma" font-size="12" transform="rotate(90 105,13932.3)" text-rendering="optimizeSpeed" fill="#000000">hudson-model-CppProject (5)</text>
  <rect fill="blue" height="0.0" stroke="black" width="12" x="120" y="13927.3"/>
  <text x="120" y="13932.3" font-family="Tahoma" font-size="12" transform="rotate(90 120,13932.3)" text-rendering="optimizeSpeed" fill="#000000">hudson-model-GolangProject (6)</text>
  <rect fill="blue" height="0.0" stroke="black" width="12" x="135" y="13927.3"/>
  <text x="135" y="13932.3" font-family="Tahoma" font-size="12" transform="rotate(90 135,13932.3)" text-rendering="optimizeSpeed" fill="#000000">org-jvnet-hudson-test-MockFolder (7)</text>
  <rect fill="blue" height="0.0" stroke="black" width="12" x="150" y="13927.3"/>
  <text x="150" y="13932.3" font-family="Tahoma" font-size="12" transform="rotate(90 150,13932.3)" text-rendering="optimizeSpeed" fill="#000000">org-jenkinsci-plugins-coordinator-dummy-model-CoordinatorProject (9)</text>
  <rect fill="blue" height="0.0" stroke="black" width="12" x="165" y="13927.3"/>
  <text x="165" y="13932.3" font-family="Tahoma" font-size="12" transform="rotate(90 165,13932.3)" text-rendering="optimizeSpeed" fill="#000000">com-barchart-jenkins-cascade-CascadeProject (21)</text>
  <rect fill="blue" height="0.0" stroke="black" width="12" x="180" y="13927.2"/>
  <text x="180" y="13932.3" font-family="Tahoma" font-size="12" transform="rotate(90 180,13932.3)" text-rendering="optimizeSpeed" fill="#000000">hudson-plugin-smartjob-SmartJob (41)</text>
  <rect fill="blue" height="0.1" stroke="black" width="12" x="195" y="13927.2"/>
  <text x="195" y="13932.3" font-family="Tahoma" font-size="12" transform="rotate(90 195,13932.3)" text-rendering="optimizeSpeed" fill="#000000">com-github-mjdetullio-jenkins-plugins-multibranch-MatrixMultiBranchProject (73)</text>
  <rect fill="blue" height="0.1" stroke="black" width="12" x="210" y="13927.2"/>
  <text x="210" y="13932.3" font-family="Tahoma" font-size="12" transform="rotate(90 210,13932.3)" text-rendering="optimizeSpeed" fill="#000000">org-jenkinsci-plugins-drupal-projects-DrupalProject (97)</text>
  <rect fill="blue" height="0.2" stroke="black" width="12" x="225" y="13927.1"/>
  <text x="225" y="13932.3" font-family="Tahoma" font-size="12" transform="rotate(90 225,13932.3)" text-rendering="optimizeSpeed" fill="#000000">com-groupon-jenkins-dynamic-build-DynamicProject (186)</text>
  <rect fill="blue" height="0.3" stroke="black" width="12" x="240" y="13927.0"/>
  <text x="240" y="13932.3" font-family="Tahoma" font-size="12" transform="rotate(90 240,13932.3)" text-rendering="optimizeSpeed" fill="#000000">captmorgan-ExternalProject (290)</text>
  <rect fill="blue" height="0.6" stroke="black" width="12" x="255" y="13926.7"/>
  <text x="255" y="13932.3" font-family="Tahoma" font-size="12" transform="rotate(90 255,13932.3)" text-rendering="optimizeSpeed" fill="#000000">org-jenkinsci-plugins-coordinator-model-CoordinatorProject (630)</text>
  <rect fill="blue" height="0.7" stroke="black" width="12" x="270" y="13926.6"/>
  <text x="270" y="13932.3" font-family="Tahoma" font-size="12" transform="rotate(90 270,13932.3)" text-rendering="optimizeSpeed" fill="#000000">com-groupon-jenkins-dynamic-organizationcontainer-OrganizationContainer (680)</text>
  <rect fill="blue" height="1.1" stroke="black" width="12" x="285" y="13926.1"/>
  <text x="285" y="13932.3" font-family="Tahoma" font-size="12" transform="rotate(90 285,13932.3)" text-rendering="optimizeSpeed" fill="#000000">com-github-mjdetullio-jenkins-plugins-multibranch-MavenMultiBranchProject (1140)</text>
  <rect fill="blue" height="3.0" stroke="black" width="12" x="300" y="13924.3"/>
  <text x="300" y="13932.3" font-family="Tahoma" font-size="12" transform="rotate(90 300,13932.3)" text-rendering="optimizeSpeed" fill="#000000">org-jenkinsci-plugins-jobgenerator-JobGenerator (2952)</text>
  <rect fill="blue" height="3.5" stroke="black" width="12" x="315" y="13923.7"/>
  <text x="315" y="13932.3" font-family="Tahoma" font-size="12" transform="rotate(90 315,13932.3)" text-rendering="optimizeSpeed" fill="#000000">org-jenkinsci-plugins-pipeline-multibranch-defaults-PipelineMultiBranchDefaultsProject (3541)</text>
  <rect fill="blue" height="3.7" stroke="black" width="12" x="330" y="13923.6"/>
  <text x="330" y="13932.3" font-family="Tahoma" font-size="12" transform="rotate(90 330,13932.3)" text-rendering="optimizeSpeed" fill="#000000">com-github-mjdetullio-jenkins-plugins-multibranch-FreeStyleMultiBranchProject (3686)</text>
  <rect fill="blue" height="4.7" stroke="black" width="12" x="345" y="13922.6"/>
  <text x="345" y="13932.3" font-family="Tahoma" font-size="12" transform="rotate(90 345,13932.3)" text-rendering="optimizeSpeed" fill="#000000">hudson-ivy-IvyModuleSet (4663)</text>
  <rect fill="blue" height="5.5" stroke="black" width="12" x="360" y="13921.8"/>
  <text x="360" y="13932.3" font-family="Tahoma" font-size="12" transform="rotate(90 360,13932.3)" text-rendering="optimizeSpeed" fill="#000000">hudson-model-ExternalJob (5517)</text>
  <rect fill="blue" height="17.7" stroke="black" width="12" x="375" y="13909.6"/>
  <text x="375" y="13932.3" font-family="Tahoma" font-size="12" transform="rotate(90 375,13932.3)" text-rendering="optimizeSpeed" fill="#000000">jenkins-branch-OrganizationFolder (17699)</text>
  <rect fill="blue" height="25.1" stroke="black" width="12" x="390" y="13902.2"/>
  <text x="390" y="13932.3" font-family="Tahoma" font-size="12" transform="rotate(90 390,13932.3)" text-rendering="optimizeSpeed" fill="#000000">hudson-plugins-project_inheritance-projects-InheritanceProject (25073)</text>
  <rect fill="blue" height="289.0" stroke="black" width="12" x="405" y="13638.3"/>
  <text x="405" y="13932.3" font-family="Tahoma" font-size="12" transform="rotate(90 405,13932.3)" text-rendering="optimizeSpeed" fill="#000000">com-cloudbees-plugins-flow-BuildFlow (289031)</text>
  <rect fill="blue" height="294.7" stroke="black" width="12" x="420" y="13632.6"/>
  <text x="420" y="13932.3" font-family="Tahoma" font-size="12" transform="rotate(90 420,13932.3)" text-rendering="optimizeSpeed" fill="#000000">hudson-matrix-MatrixProject (294682)</text>
  <rect fill="blue" height="300.0" stroke="black" width="12" x="435" y="13627.3"/>
  <text x="435" y="13932.3" font-family="Tahoma" font-size="12" transform="rotate(90 435,13932.3)" text-rendering="optimizeSpeed" fill="#000000">com-tikal-jenkins-plugins-multijob-MultiJobProject (300030)</text>
  <rect fill="blue" height="455.3" stroke="black" width="12" x="450" y="13471.9"/>
  <text x="450" y="13932.3" font-family="Tahoma" font-size="12" transform="rotate(90 450,13932.3)" text-rendering="optimizeSpeed" fill="#000000">org-jenkinsci-plugins-workflow-multibranch-WorkflowMultiBranchProject (455343)</text>
  <rect fill="blue" height="943.7" stroke="black" width="12" x="465" y="12983.6"/>
  <text x="465" y="13932.3" font-family="Tahoma" font-size="12" transform="rotate(90 465,13932.3)" text-rendering="optimizeSpeed" fill="#000000">com-cloudbees-hudson-plugins-folder-Folder (943694)</text>
  <rect fill="blue" height="1919.2" stroke="black" width="12" x="480" y="12008.1"/>
  <text x="480" y="13932.3" font-family="Tahoma" font-size="12" transform="rotate(90 480,13932.3)" text-rendering="optimizeSpeed" fill="#000000">hudson-maven-MavenModuleSet (1919189)</text>
  <rect fill="blue" height="5620.9" stroke="black" width="12" x="495" y="8306.4"/>
  <text x="495" y="13932.3" font-family="Tahoma" font-size="12" transform="rotate(90 495,13932.3)" text-rendering="optimizeSpeed" fill="#000000">org-jenkinsci-plugins-workflow-job-WorkflowJob (5620883)</text>
  <rect fill="blue" height="13877.3" stroke="black" width="12" x="510" y="50.0"/>
  <text x="510" y="13932.3" font-family="Tahoma" font-size="12" transform="rotate(90 510,13932.3)" text-rendering="optimizeSpeed" fill="#000000">hudson-model-FreeStyleProject (13877285)</text>
  <text x="10" y="40" font-family="Tahoma" font-size="20" text-rendering="optimizeSpeed" fill="#000000">Jobs (total: 23766468)</text>
</svg>
