<svg xmlns="http://www.w3.org/2000/svg" version="1.1" preserveAspectRatio="xMidYMid meet" viewBox="0 0 1235 47694.9">
  <rect fill="blue" height="0.1" stroke="black" width="12" x="15" y="47394.8"/>
  <text x="15" y="47399.9" font-family="Tahoma" font-size="12" transform="rotate(90 15,47399.9)" text-rendering="optimizeSpeed" fill="#000000">Linux (mips) (1)</text>
  <rect fill="blue" height="0.1" stroke="black" width="12" x="30" y="47394.8"/>
  <text x="30" y="47399.9" font-family="Tahoma" font-size="12" transform="rotate(90 30,47399.9)" text-rendering="optimizeSpeed" fill="#000000">Linux (mips64) (1)</text>
  <rect fill="blue" height="0.1" stroke="black" width="12" x="45" y="47394.8"/>
  <text x="45" y="47399.9" font-family="Tahoma" font-size="12" transform="rotate(90 45,47399.9)" text-rendering="optimizeSpeed" fill="#000000">Linux (mipsel) (1)</text>
  <rect fill="blue" height="0.1" stroke="black" width="12" x="60" y="47394.8"/>
  <text x="60" y="47399.9" font-family="Tahoma" font-size="12" transform="rotate(90 60,47399.9)" text-rendering="optimizeSpeed" fill="#000000">Linux (riscv64) (1)</text>
  <rect fill="blue" height="0.1" stroke="black" width="12" x="75" y="47394.8"/>
  <text x="75" y="47399.9" font-family="Tahoma" font-size="12" transform="rotate(90 75,47399.9)" text-rendering="optimizeSpeed" fill="#000000">Linux (zArch_64) (1)</text>
  <rect fill="blue" height="0.1" stroke="black" width="12" x="90" y="47394.8"/>
  <text x="90" y="47399.9" font-family="Tahoma" font-size="12" transform="rotate(90 90,47399.9)" text-rendering="optimizeSpeed" fill="#000000">Mac OS X (i386) (1)</text>
  <rect fill="blue" height="0.1" stroke="black" width="12" x="105" y="47394.8"/>
  <text x="105" y="47399.9" font-family="Tahoma" font-size="12" transform="rotate(90 105,47399.9)" text-rendering="optimizeSpeed" fill="#000000">Windows (amd64) (1)</text>
  <rect fill="blue" height="0.1" stroke="black" width="12" x="120" y="47394.8"/>
  <text x="120" y="47399.9" font-family="Tahoma" font-size="12" transform="rotate(90 120,47399.9)" text-rendering="optimizeSpeed" fill="#000000">Windows 2000 (x86) (1)</text>
  <rect fill="blue" height="0.2" stroke="black" width="12" x="135" y="47394.7"/>
  <text x="135" y="47399.9" font-family="Tahoma" font-size="12" transform="rotate(90 135,47399.9)" text-rendering="optimizeSpeed" fill="#000000">DragonFlyBSD (amd64) (2)</text>
  <rect fill="blue" height="0.2" stroke="black" width="12" x="150" y="47394.7"/>
  <text x="150" y="47399.9" font-family="Tahoma" font-size="12" transform="rotate(90 150,47399.9)" text-rendering="optimizeSpeed" fill="#000000">HP-UX (PA_RISC2.0W) (2)</text>
  <rect fill="blue" height="0.2" stroke="black" width="12" x="165" y="47394.7"/>
  <text x="165" y="47399.9" font-family="Tahoma" font-size="12" transform="rotate(90 165,47399.9)" text-rendering="optimizeSpeed" fill="#000000">Linux (ia64) (2)</text>
  <rect fill="blue" height="0.2" stroke="black" width="12" x="180" y="47394.7"/>
  <text x="180" y="47399.9" font-family="Tahoma" font-size="12" transform="rotate(90 180,47399.9)" text-rendering="optimizeSpeed" fill="#000000">Mac OS X (amd64) (2)</text>
  <rect fill="blue" height="0.2" stroke="black" width="12" x="195" y="47394.7"/>
  <text x="195" y="47399.9" font-family="Tahoma" font-size="12" transform="rotate(90 195,47399.9)" text-rendering="optimizeSpeed" fill="#000000">NetBSD (i386) (2)</text>
  <rect fill="blue" height="0.2" stroke="black" width="12" x="210" y="47394.7"/>
  <text x="210" y="47399.9" font-family="Tahoma" font-size="12" transform="rotate(90 210,47399.9)" text-rendering="optimizeSpeed" fill="#000000">Windows Server 2003 (x86) (2)</text>
  <rect fill="blue" height="0.3" stroke="black" width="12" x="225" y="47394.6"/>
  <text x="225" y="47399.9" font-family="Tahoma" font-size="12" transform="rotate(90 225,47399.9)" text-rendering="optimizeSpeed" fill="#000000">NetBSD (amd64) (3)</text>
  <rect fill="blue" height="0.4" stroke="black" width="12" x="240" y="47394.5"/>
  <text x="240" y="47399.9" font-family="Tahoma" font-size="12" transform="rotate(90 240,47399.9)" text-rendering="optimizeSpeed" fill="#000000">Linux (s390) (4)</text>
  <rect fill="blue" height="0.4" stroke="black" width="12" x="255" y="47394.5"/>
  <text x="255" y="47399.9" font-family="Tahoma" font-size="12" transform="rotate(90 255,47399.9)" text-rendering="optimizeSpeed" fill="#000000">Linux (sparcv9) (4)</text>
  <rect fill="blue" height="0.4" stroke="black" width="12" x="270" y="47394.5"/>
  <text x="270" y="47399.9" font-family="Tahoma" font-size="12" transform="rotate(90 270,47399.9)" text-rendering="optimizeSpeed" fill="#000000">Linux (sw64) (4)</text>
  <rect fill="blue" height="0.4" stroke="black" width="12" x="285" y="47394.5"/>
  <text x="285" y="47399.9" font-family="Tahoma" font-size="12" transform="rotate(90 285,47399.9)" text-rendering="optimizeSpeed" fill="#000000">OpenBSD (i386) (4)</text>
  <rect fill="blue" height="0.4" stroke="black" width="12" x="300" y="47394.5"/>
  <text x="300" y="47399.9" font-family="Tahoma" font-size="12" transform="rotate(90 300,47399.9)" text-rendering="optimizeSpeed" fill="#000000">Windows Vista (amd64) (4)</text>
  <rect fill="blue" height="0.5" stroke="black" width="12" x="315" y="47394.4"/>
  <text x="315" y="47399.9" font-family="Tahoma" font-size="12" transform="rotate(90 315,47399.9)" text-rendering="optimizeSpeed" fill="#000000">Windows Server 2003 (amd64) (5)</text>
  <rect fill="blue" height="0.6" stroke="black" width="12" x="330" y="47394.3"/>
  <text x="330" y="47399.9" font-family="Tahoma" font-size="12" transform="rotate(90 330,47399.9)" text-rendering="optimizeSpeed" fill="#000000">NONSTOP_KERNEL (IA64N) (6)</text>
  <rect fill="blue" height="0.7" stroke="black" width="12" x="345" y="47394.2"/>
  <text x="345" y="47399.9" font-family="Tahoma" font-size="12" transform="rotate(90 345,47399.9)" text-rendering="optimizeSpeed" fill="#000000">z/OS (s390) (7)</text>
  <rect fill="blue" height="0.9" stroke="black" width="12" x="360" y="47394.0"/>
  <text x="360" y="47399.9" font-family="Tahoma" font-size="12" transform="rotate(90 360,47399.9)" text-rendering="optimizeSpeed" fill="#000000">HP-UX (ia64) (9)</text>
  <rect fill="blue" height="0.9" stroke="black" width="12" x="375" y="47394.0"/>
  <text x="375" y="47399.9" font-family="Tahoma" font-size="12" transform="rotate(90 375,47399.9)" text-rendering="optimizeSpeed" fill="#000000">OS/400 (ppc) (9)</text>
  <rect fill="blue" height="1.2" stroke="black" width="12" x="390" y="47393.7"/>
  <text x="390" y="47399.9" font-family="Tahoma" font-size="12" transform="rotate(90 390,47399.9)" text-rendering="optimizeSpeed" fill="#000000">Windows XP (amd64) (12)</text>
  <rect fill="blue" height="2.0" stroke="black" width="12" x="405" y="47392.9"/>
  <text x="405" y="47399.9" font-family="Tahoma" font-size="12" transform="rotate(90 405,47399.9)" text-rendering="optimizeSpeed" fill="#000000">OpenBSD (amd64) (20)</text>
  <rect fill="blue" height="2.3" stroke="black" width="12" x="420" y="47392.6"/>
  <text x="420" y="47399.9" font-family="Tahoma" font-size="12" transform="rotate(90 420,47399.9)" text-rendering="optimizeSpeed" fill="#000000">Linux (ppc) (23)</text>
  <rect fill="blue" height="2.3" stroke="black" width="12" x="435" y="47392.6"/>
  <text x="435" y="47399.9" font-family="Tahoma" font-size="12" transform="rotate(90 435,47399.9)" text-rendering="optimizeSpeed" fill="#000000">OS/400 (ppc64) (23)</text>
  <rect fill="blue" height="2.4" stroke="black" width="12" x="450" y="47392.5"/>
  <text x="450" y="47399.9" font-family="Tahoma" font-size="12" transform="rotate(90 450,47399.9)" text-rendering="optimizeSpeed" fill="#000000">NONSTOP_KERNEL (x86_64N) (24)</text>
  <rect fill="blue" height="3.0" stroke="black" width="12" x="465" y="47391.9"/>
  <text x="465" y="47399.9" font-family="Tahoma" font-size="12" transform="rotate(90 465,47399.9)" text-rendering="optimizeSpeed" fill="#000000">HP-UX (IA64W) (30)</text>
  <rect fill="blue" height="5.0" stroke="black" width="12" x="480" y="47389.9"/>
  <text x="480" y="47399.9" font-family="Tahoma" font-size="12" transform="rotate(90 480,47399.9)" text-rendering="optimizeSpeed" fill="#000000">Linux (mips64el) (50)</text>
  <rect fill="blue" height="5.1" stroke="black" width="12" x="495" y="47389.8"/>
  <text x="495" y="47399.9" font-family="Tahoma" font-size="12" transform="rotate(90 495,47399.9)" text-rendering="optimizeSpeed" fill="#000000">Linux (x86) (51)</text>
  <rect fill="blue" height="5.2" stroke="black" width="12" x="510" y="47389.7"/>
  <text x="510" y="47399.9" font-family="Tahoma" font-size="12" transform="rotate(90 510,47399.9)" text-rendering="optimizeSpeed" fill="#000000">HP-UX (PA_RISC2.0) (52)</text>
  <rect fill="blue" height="8.4" stroke="black" width="12" x="525" y="47386.5"/>
  <text x="525" y="47399.9" font-family="Tahoma" font-size="12" transform="rotate(90 525,47399.9)" text-rendering="optimizeSpeed" fill="#000000">Windows Vista (x86) (84)</text>
  <rect fill="blue" height="9.9" stroke="black" width="12" x="540" y="47385.0"/>
  <text x="540" y="47399.9" font-family="Tahoma" font-size="12" transform="rotate(90 540,47399.9)" text-rendering="optimizeSpeed" fill="#000000">Windows 2003 (amd64) (99)</text>
  <rect fill="blue" height="12.0" stroke="black" width="12" x="555" y="47382.9"/>
  <text x="555" y="47399.9" font-family="Tahoma" font-size="12" transform="rotate(90 555,47399.9)" text-rendering="optimizeSpeed" fill="#000000">FreeBSD (i386) (120)</text>
  <rect fill="blue" height="12.4" stroke="black" width="12" x="570" y="47382.5"/>
  <text x="570" y="47399.9" font-family="Tahoma" font-size="12" transform="rotate(90 570,47399.9)" text-rendering="optimizeSpeed" fill="#000000">z/OS (s390x) (124)</text>
  <rect fill="blue" height="14.5" stroke="black" width="12" x="585" y="47380.4"/>
  <text x="585" y="47399.9" font-family="Tahoma" font-size="12" transform="rotate(90 585,47399.9)" text-rendering="optimizeSpeed" fill="#000000">Linux (ppc64) (145)</text>
  <rect fill="blue" height="16.0" stroke="black" width="12" x="600" y="47378.9"/>
  <text x="600" y="47399.9" font-family="Tahoma" font-size="12" transform="rotate(90 600,47399.9)" text-rendering="optimizeSpeed" fill="#000000">Windows Server 2019 (x86) (160)</text>
  <rect fill="blue" height="21.0" stroke="black" width="12" x="615" y="47373.9"/>
  <text x="615" y="47399.9" font-family="Tahoma" font-size="12" transform="rotate(90 615,47399.9)" text-rendering="optimizeSpeed" fill="#000000">Windows 8 (x86) (210)</text>
  <rect fill="blue" height="28.2" stroke="black" width="12" x="630" y="47366.7"/>
  <text x="630" y="47399.9" font-family="Tahoma" font-size="12" transform="rotate(90 630,47399.9)" text-rendering="optimizeSpeed" fill="#000000">Windows Server 2008 (amd64) (282)</text>
  <rect fill="blue" height="28.9" stroke="black" width="12" x="645" y="47366.0"/>
  <text x="645" y="47399.9" font-family="Tahoma" font-size="12" transform="rotate(90 645,47399.9)" text-rendering="optimizeSpeed" fill="#000000">Windows 8 (amd64) (289)</text>
  <rect fill="blue" height="30.1" stroke="black" width="12" x="660" y="47364.8"/>
  <text x="660" y="47399.9" font-family="Tahoma" font-size="12" transform="rotate(90 660,47399.9)" text-rendering="optimizeSpeed" fill="#000000">AIX (ppc) (301)</text>
  <rect fill="blue" height="32.9" stroke="black" width="12" x="675" y="47362.0"/>
  <text x="675" y="47399.9" font-family="Tahoma" font-size="12" transform="rotate(90 675,47399.9)" text-rendering="optimizeSpeed" fill="#000000">Linux (s390x) (329)</text>
  <rect fill="blue" height="34.0" stroke="black" width="12" x="690" y="47360.9"/>
  <text x="690" y="47399.9" font-family="Tahoma" font-size="12" transform="rotate(90 690,47399.9)" text-rendering="optimizeSpeed" fill="#000000">SunOS (x86) (340)</text>
  <rect fill="blue" height="39.1" stroke="black" width="12" x="705" y="47355.8"/>
  <text x="705" y="47399.9" font-family="Tahoma" font-size="12" transform="rotate(90 705,47399.9)" text-rendering="optimizeSpeed" fill="#000000">SunOS (sparc) (391)</text>
  <rect fill="blue" height="41.2" stroke="black" width="12" x="720" y="47353.7"/>
  <text x="720" y="47399.9" font-family="Tahoma" font-size="12" transform="rotate(90 720,47399.9)" text-rendering="optimizeSpeed" fill="#000000">HP-UX (IA64N) (412)</text>
  <rect fill="blue" height="41.7" stroke="black" width="12" x="735" y="47353.2"/>
  <text x="735" y="47399.9" font-family="Tahoma" font-size="12" transform="rotate(90 735,47399.9)" text-rendering="optimizeSpeed" fill="#000000">Windows XP (x86) (417)</text>
  <rect fill="blue" height="47.6" stroke="black" width="12" x="750" y="47347.3"/>
  <text x="750" y="47399.9" font-family="Tahoma" font-size="12" transform="rotate(90 750,47399.9)" text-rendering="optimizeSpeed" fill="#000000">Windows Server 2019 (amd64) (476)</text>
  <rect fill="blue" height="58.7" stroke="black" width="12" x="765" y="47336.2"/>
  <text x="765" y="47399.9" font-family="Tahoma" font-size="12" transform="rotate(90 765,47399.9)" text-rendering="optimizeSpeed" fill="#000000">Windows Server 2008 (x86) (587)</text>
  <rect fill="blue" height="63.2" stroke="black" width="12" x="780" y="47331.7"/>
  <text x="780" y="47399.9" font-family="Tahoma" font-size="12" transform="rotate(90 780,47399.9)" text-rendering="optimizeSpeed" fill="#000000">Windows 2003 (x86) (632)</text>
  <rect fill="blue" height="63.9" stroke="black" width="12" x="795" y="47331.0"/>
  <text x="795" y="47399.9" font-family="Tahoma" font-size="12" transform="rotate(90 795,47399.9)" text-rendering="optimizeSpeed" fill="#000000">Linux (ppc64le) (639)</text>
  <rect fill="blue" height="72.9" stroke="black" width="12" x="810" y="47322.0"/>
  <text x="810" y="47399.9" font-family="Tahoma" font-size="12" transform="rotate(90 810,47399.9)" text-rendering="optimizeSpeed" fill="#000000">FreeBSD (amd64) (729)</text>
  <rect fill="blue" height="94.1" stroke="black" width="12" x="825" y="47300.8"/>
  <text x="825" y="47399.9" font-family="Tahoma" font-size="12" transform="rotate(90 825,47399.9)" text-rendering="optimizeSpeed" fill="#000000">Windows NT (unknown) (x86) (941)</text>
  <rect fill="blue" height="108.5" stroke="black" width="12" x="840" y="47286.4"/>
  <text x="840" y="47399.9" font-family="Tahoma" font-size="12" transform="rotate(90 840,47399.9)" text-rendering="optimizeSpeed" fill="#000000">SunOS (amd64) (1085)</text>
  <rect fill="blue" height="117.9" stroke="black" width="12" x="855" y="47277.0"/>
  <text x="855" y="47399.9" font-family="Tahoma" font-size="12" transform="rotate(90 855,47399.9)" text-rendering="optimizeSpeed" fill="#000000">Linux (aarch64) (1179)</text>
  <rect fill="blue" height="125.9" stroke="black" width="12" x="870" y="47269.0"/>
  <text x="870" y="47399.9" font-family="Tahoma" font-size="12" transform="rotate(90 870,47399.9)" text-rendering="optimizeSpeed" fill="#000000">Windows Server 2012 (x86) (1259)</text>
  <rect fill="blue" height="144.7" stroke="black" width="12" x="885" y="47250.2"/>
  <text x="885" y="47399.9" font-family="Tahoma" font-size="12" transform="rotate(90 885,47399.9)" text-rendering="optimizeSpeed" fill="#000000">SunOS (sparcv9) (1447)</text>
  <rect fill="blue" height="148.4" stroke="black" width="12" x="900" y="47246.5"/>
  <text x="900" y="47399.9" font-family="Tahoma" font-size="12" transform="rotate(90 900,47399.9)" text-rendering="optimizeSpeed" fill="#000000">Windows 8.1 (x86) (1484)</text>
  <rect fill="blue" height="152.6" stroke="black" width="12" x="915" y="47242.3"/>
  <text x="915" y="47399.9" font-family="Tahoma" font-size="12" transform="rotate(90 915,47399.9)" text-rendering="optimizeSpeed" fill="#000000">Windows NT (unknown) (amd64) (1526)</text>
  <rect fill="blue" height="191.4" stroke="black" width="12" x="930" y="47203.5"/>
  <text x="930" y="47399.9" font-family="Tahoma" font-size="12" transform="rotate(90 930,47399.9)" text-rendering="optimizeSpeed" fill="#000000">Windows 8.1 (amd64) (1914)</text>
  <rect fill="blue" height="220.0" stroke="black" width="12" x="945" y="47174.9"/>
  <text x="945" y="47399.9" font-family="Tahoma" font-size="12" transform="rotate(90 945,47399.9)" text-rendering="optimizeSpeed" fill="#000000">AIX (ppc64) (2200)</text>
  <rect fill="blue" height="222.9" stroke="black" width="12" x="960" y="47172.0"/>
  <text x="960" y="47399.9" font-family="Tahoma" font-size="12" transform="rotate(90 960,47399.9)" text-rendering="optimizeSpeed" fill="#000000">Windows Server 2012 (amd64) (2229)</text>
  <rect fill="blue" height="254.9" stroke="black" width="12" x="975" y="47140.0"/>
  <text x="975" y="47399.9" font-family="Tahoma" font-size="12" transform="rotate(90 975,47399.9)" text-rendering="optimizeSpeed" fill="#000000">Linux (arm) (2549)</text>
  <rect fill="blue" height="688.8" stroke="black" width="12" x="990" y="46706.1"/>
  <text x="990" y="47399.9" font-family="Tahoma" font-size="12" transform="rotate(90 990,47399.9)" text-rendering="optimizeSpeed" fill="#000000">Windows Server 2008 R2 (x86) (6888)</text>
  <rect fill="blue" height="754.5" stroke="black" width="12" x="1005" y="46640.4"/>
  <text x="1005" y="47399.9" font-family="Tahoma" font-size="12" transform="rotate(90 1005,47399.9)" text-rendering="optimizeSpeed" fill="#000000">Linux (i386) (7545)</text>
  <rect fill="blue" height="1010.9" stroke="black" width="12" x="1020" y="46384.0"/>
  <text x="1020" y="47399.9" font-family="Tahoma" font-size="12" transform="rotate(90 1020,47399.9)" text-rendering="optimizeSpeed" fill="#000000">Windows Server 2016 (x86) (10109)</text>
  <rect fill="blue" height="1248.2" stroke="black" width="12" x="1035" y="46146.7"/>
  <text x="1035" y="47399.9" font-family="Tahoma" font-size="12" transform="rotate(90 1035,47399.9)" text-rendering="optimizeSpeed" fill="#000000">Windows Server 2008 R2 (amd64) (12482)</text>
  <rect fill="blue" height="1253.9" stroke="black" width="12" x="1050" y="46141.0"/>
  <text x="1050" y="47399.9" font-family="Tahoma" font-size="12" transform="rotate(90 1050,47399.9)" text-rendering="optimizeSpeed" fill="#000000">Windows Server 2012 R2 (x86) (12539)</text>
  <rect fill="blue" height="1606.0" stroke="black" width="12" x="1065" y="45788.9"/>
  <text x="1065" y="47399.9" font-family="Tahoma" font-size="12" transform="rotate(90 1065,47399.9)" text-rendering="optimizeSpeed" fill="#000000">Windows Server 2016 (amd64) (16060)</text>
  <rect fill="blue" height="1833.0" stroke="black" width="12" x="1080" y="45561.9"/>
  <text x="1080" y="47399.9" font-family="Tahoma" font-size="12" transform="rotate(90 1080,47399.9)" text-rendering="optimizeSpeed" fill="#000000">Windows 7 (x86) (18330)</text>
  <rect fill="blue" height="1890.0" stroke="black" width="12" x="1095" y="45504.9"/>
  <text x="1095" y="47399.9" font-family="Tahoma" font-size="12" transform="rotate(90 1095,47399.9)" text-rendering="optimizeSpeed" fill="#000000">Windows 7 (amd64) (18900)</text>
  <rect fill="blue" height="2404.9" stroke="black" width="12" x="1110" y="44990.0"/>
  <text x="1110" y="47399.9" font-family="Tahoma" font-size="12" transform="rotate(90 1110,47399.9)" text-rendering="optimizeSpeed" fill="#000000">Windows Server 2012 R2 (amd64) (24049)</text>
  <rect fill="blue" height="2558.9" stroke="black" width="12" x="1125" y="44836.0"/>
  <text x="1125" y="47399.9" font-family="Tahoma" font-size="12" transform="rotate(90 1125,47399.9)" text-rendering="optimizeSpeed" fill="#000000">Windows 10 (x86) (25589)</text>
  <rect fill="blue" height="3051.3" stroke="black" width="12" x="1140" y="44343.6"/>
  <text x="1140" y="47399.9" font-family="Tahoma" font-size="12" transform="rotate(90 1140,47399.9)" text-rendering="optimizeSpeed" fill="#000000">Mac OS X (x86_64) (30513)</text>
  <rect fill="blue" height="3105.6" stroke="black" width="12" x="1155" y="44289.3"/>
  <text x="1155" y="47399.9" font-family="Tahoma" font-size="12" transform="rotate(90 1155,47399.9)" text-rendering="optimizeSpeed" fill="#000000">Windows 10 (amd64) (31056)</text>
  <rect fill="blue" height="24983.3" stroke="black" width="12" x="1170" y="22411.6"/>
  <text x="1170" y="47399.9" font-family="Tahoma" font-size="12" transform="rotate(90 1170,47399.9)" text-rendering="optimizeSpeed" fill="#000000">N/A (249833)</text>
  <rect fill="blue" height="47344.9" stroke="black" width="12" x="1185" y="50.0"/>
  <text x="1185" y="47399.9" font-family="Tahoma" font-size="12" transform="rotate(90 1185,47399.9)" text-rendering="optimizeSpeed" fill="#000000">Linux (amd64) (473449)</text>
  <text x="10" y="40" font-family="Tahoma" font-size="20" text-rendering="optimizeSpeed" fill="#000000">Nodes (total: 962285)</text>
</svg>
