<svg xmlns="http://www.w3.org/2000/svg" version="1.1" preserveAspectRatio="xMidYMid meet" viewBox="0 0 545 16310.9">
  <rect fill="blue" height="0.0" stroke="black" width="12" x="15" y="16010.9"/>
  <text x="15" y="16015.9" font-family="Tahoma" font-size="12" transform="rotate(90 15,16015.9)" text-rendering="optimizeSpeed" fill="#000000">hudson-model-PhpProject (1)</text>
  <rect fill="blue" height="0.0" stroke="black" width="12" x="30" y="16010.9"/>
  <text x="30" y="16015.9" font-family="Tahoma" font-size="12" transform="rotate(90 30,16015.9)" text-rendering="optimizeSpeed" fill="#000000">org-cloudbees-literate-jenkins-LiterateMultibranchProject (1)</text>
  <rect fill="blue" height="0.0" stroke="black" width="12" x="45" y="16010.9"/>
  <text x="45" y="16015.9" font-family="Tahoma" font-size="12" transform="rotate(90 45,16015.9)" text-rendering="optimizeSpeed" fill="#000000">org-jvnet-hudson-test-MockFolder (4)</text>
  <rect fill="blue" height="0.0" stroke="black" width="12" x="60" y="16010.9"/>
  <text x="60" y="16015.9" font-family="Tahoma" font-size="12" transform="rotate(90 60,16015.9)" text-rendering="optimizeSpeed" fill="#000000">com-github-mjdetullio-jenkins-plugins-multibranch-IvyMultiBranchProject (6)</text>
  <rect fill="blue" height="0.0" stroke="black" width="12" x="75" y="16010.9"/>
  <text x="75" y="16015.9" font-family="Tahoma" font-size="12" transform="rotate(90 75,16015.9)" text-rendering="optimizeSpeed" fill="#000000">hudson-model-CppProject (8)</text>
  <rect fill="blue" height="0.0" stroke="black" width="12" x="90" y="16010.9"/>
  <text x="90" y="16015.9" font-family="Tahoma" font-size="12" transform="rotate(90 90,16015.9)" text-rendering="optimizeSpeed" fill="#000000">hudson-model-HtmlProject (13)</text>
  <rect fill="blue" height="0.0" stroke="black" width="12" x="105" y="16010.9"/>
  <text x="105" y="16015.9" font-family="Tahoma" font-size="12" transform="rotate(90 105,16015.9)" text-rendering="optimizeSpeed" fill="#000000">hudson-plugins-job_dependency-projects-MasterProject (13)</text>
  <rect fill="blue" height="0.0" stroke="black" width="12" x="120" y="16010.9"/>
  <text x="120" y="16015.9" font-family="Tahoma" font-size="12" transform="rotate(90 120,16015.9)" text-rendering="optimizeSpeed" fill="#000000">org-jenkinsci-plugins-coordinator-dummy-model-CoordinatorProject (17)</text>
  <rect fill="blue" height="0.0" stroke="black" width="12" x="135" y="16010.9"/>
  <text x="135" y="16015.9" font-family="Tahoma" font-size="12" transform="rotate(90 135,16015.9)" text-rendering="optimizeSpeed" fill="#000000">org-jenkinsci-plugins-drupal-projects-DrupalProject (17)</text>
  <rect fill="blue" height="0.0" stroke="black" width="12" x="150" y="16010.8"/>
  <text x="150" y="16015.9" font-family="Tahoma" font-size="12" transform="rotate(90 150,16015.9)" text-rendering="optimizeSpeed" fill="#000000">com-barchart-jenkins-cascade-CascadeProject (23)</text>
  <rect fill="blue" height="0.0" stroke="black" width="12" x="165" y="16010.8"/>
  <text x="165" y="16015.9" font-family="Tahoma" font-size="12" transform="rotate(90 165,16015.9)" text-rendering="optimizeSpeed" fill="#000000">hudson-model-GolangProject (46)</text>
  <rect fill="blue" height="0.1" stroke="black" width="12" x="180" y="16010.8"/>
  <text x="180" y="16015.9" font-family="Tahoma" font-size="12" transform="rotate(90 180,16015.9)" text-rendering="optimizeSpeed" fill="#000000">com-github-mjdetullio-jenkins-plugins-multibranch-MatrixMultiBranchProject (58)</text>
  <rect fill="blue" height="0.1" stroke="black" width="12" x="195" y="16010.8"/>
  <text x="195" y="16015.9" font-family="Tahoma" font-size="12" transform="rotate(90 195,16015.9)" text-rendering="optimizeSpeed" fill="#000000">hudson-plugin-smartjob-SmartJob (92)</text>
  <rect fill="blue" height="0.2" stroke="black" width="12" x="210" y="16010.7"/>
  <text x="210" y="16015.9" font-family="Tahoma" font-size="12" transform="rotate(90 210,16015.9)" text-rendering="optimizeSpeed" fill="#000000">com-groupon-jenkins-dynamic-build-DynamicProject (207)</text>
  <rect fill="blue" height="0.2" stroke="black" width="12" x="225" y="16010.6"/>
  <text x="225" y="16015.9" font-family="Tahoma" font-size="12" transform="rotate(90 225,16015.9)" text-rendering="optimizeSpeed" fill="#000000">captmorgan-ExternalProject (238)</text>
  <rect fill="blue" height="0.7" stroke="black" width="12" x="240" y="16010.2"/>
  <text x="240" y="16015.9" font-family="Tahoma" font-size="12" transform="rotate(90 240,16015.9)" text-rendering="optimizeSpeed" fill="#000000">com-groupon-jenkins-dynamic-organizationcontainer-OrganizationContainer (687)</text>
  <rect fill="blue" height="0.8" stroke="black" width="12" x="255" y="16010.1"/>
  <text x="255" y="16015.9" font-family="Tahoma" font-size="12" transform="rotate(90 255,16015.9)" text-rendering="optimizeSpeed" fill="#000000">org-jenkinsci-plugins-coordinator-model-CoordinatorProject (751)</text>
  <rect fill="blue" height="1.7" stroke="black" width="12" x="270" y="16009.2"/>
  <text x="270" y="16015.9" font-family="Tahoma" font-size="12" transform="rotate(90 270,16015.9)" text-rendering="optimizeSpeed" fill="#000000">com-github-mjdetullio-jenkins-plugins-multibranch-MavenMultiBranchProject (1651)</text>
  <rect fill="blue" height="3.1" stroke="black" width="12" x="285" y="16007.8"/>
  <text x="285" y="16015.9" font-family="Tahoma" font-size="12" transform="rotate(90 285,16015.9)" text-rendering="optimizeSpeed" fill="#000000">com-github-mjdetullio-jenkins-plugins-multibranch-FreeStyleMultiBranchProject (3054)</text>
  <rect fill="blue" height="3.1" stroke="black" width="12" x="300" y="16007.7"/>
  <text x="300" y="16015.9" font-family="Tahoma" font-size="12" transform="rotate(90 300,16015.9)" text-rendering="optimizeSpeed" fill="#000000">org-jenkinsci-plugins-jobgenerator-JobGenerator (3134)</text>
  <rect fill="blue" height="5.0" stroke="black" width="12" x="315" y="16005.8"/>
  <text x="315" y="16015.9" font-family="Tahoma" font-size="12" transform="rotate(90 315,16015.9)" text-rendering="optimizeSpeed" fill="#000000">org-jenkinsci-plugins-pipeline-multibranch-defaults-PipelineMultiBranchDefaultsProject (5045)</text>
  <rect fill="blue" height="5.1" stroke="black" width="12" x="330" y="16005.8"/>
  <text x="330" y="16015.9" font-family="Tahoma" font-size="12" transform="rotate(90 330,16015.9)" text-rendering="optimizeSpeed" fill="#000000">hudson-ivy-IvyModuleSet (5081)</text>
  <rect fill="blue" height="6.5" stroke="black" width="12" x="345" y="16004.4"/>
  <text x="345" y="16015.9" font-family="Tahoma" font-size="12" transform="rotate(90 345,16015.9)" text-rendering="optimizeSpeed" fill="#000000">hudson-model-ExternalJob (6509)</text>
  <rect fill="blue" height="22.3" stroke="black" width="12" x="360" y="15988.5"/>
  <text x="360" y="16015.9" font-family="Tahoma" font-size="12" transform="rotate(90 360,16015.9)" text-rendering="optimizeSpeed" fill="#000000">jenkins-branch-OrganizationFolder (22349)</text>
  <rect fill="blue" height="25.1" stroke="black" width="12" x="375" y="15985.7"/>
  <text x="375" y="16015.9" font-family="Tahoma" font-size="12" transform="rotate(90 375,16015.9)" text-rendering="optimizeSpeed" fill="#000000">hudson-plugins-project_inheritance-projects-InheritanceProject (25124)</text>
  <rect fill="blue" height="255.8" stroke="black" width="12" x="390" y="15755.0"/>
  <text x="390" y="16015.9" font-family="Tahoma" font-size="12" transform="rotate(90 390,16015.9)" text-rendering="optimizeSpeed" fill="#000000">hudson-matrix-MatrixProject (255828)</text>
  <rect fill="blue" height="281.6" stroke="black" width="12" x="405" y="15729.3"/>
  <text x="405" y="16015.9" font-family="Tahoma" font-size="12" transform="rotate(90 405,16015.9)" text-rendering="optimizeSpeed" fill="#000000">com-cloudbees-plugins-flow-BuildFlow (281577)</text>
  <rect fill="blue" height="353.3" stroke="black" width="12" x="420" y="15657.6"/>
  <text x="420" y="16015.9" font-family="Tahoma" font-size="12" transform="rotate(90 420,16015.9)" text-rendering="optimizeSpeed" fill="#000000">com-tikal-jenkins-plugins-multijob-MultiJobProject (353266)</text>
  <rect fill="blue" height="659.0" stroke="black" width="12" x="435" y="15351.9"/>
  <text x="435" y="16015.9" font-family="Tahoma" font-size="12" transform="rotate(90 435,16015.9)" text-rendering="optimizeSpeed" fill="#000000">org-jenkinsci-plugins-workflow-multibranch-WorkflowMultiBranchProject (658989)</text>
  <rect fill="blue" height="1206.5" stroke="black" width="12" x="450" y="14804.3"/>
  <text x="450" y="16015.9" font-family="Tahoma" font-size="12" transform="rotate(90 450,16015.9)" text-rendering="optimizeSpeed" fill="#000000">com-cloudbees-hudson-plugins-folder-Folder (1206531)</text>
  <rect fill="blue" height="2047.3" stroke="black" width="12" x="465" y="13963.5"/>
  <text x="465" y="16015.9" font-family="Tahoma" font-size="12" transform="rotate(90 465,16015.9)" text-rendering="optimizeSpeed" fill="#000000">hudson-maven-MavenModuleSet (2047341)</text>
  <rect fill="blue" height="9443.6" stroke="black" width="12" x="480" y="6567.2"/>
  <text x="480" y="16015.9" font-family="Tahoma" font-size="12" transform="rotate(90 480,16015.9)" text-rendering="optimizeSpeed" fill="#000000">org-jenkinsci-plugins-workflow-job-WorkflowJob (9443648)</text>
  <rect fill="blue" height="15960.9" stroke="black" width="12" x="495" y="50.0"/>
  <text x="495" y="16015.9" font-family="Tahoma" font-size="12" transform="rotate(90 495,16015.9)" text-rendering="optimizeSpeed" fill="#000000">hudson-model-FreeStyleProject (15960872)</text>
  <text x="10" y="40" font-family="Tahoma" font-size="20" text-rendering="optimizeSpeed" fill="#000000">Jobs (total: 30282181)</text>
</svg>
