<svg xmlns="http://www.w3.org/2000/svg" version="1.1" preserveAspectRatio="xMidYMid meet" viewBox="0 0 1235 52006.5">
  <rect fill="blue" height="0.1" stroke="black" width="12" x="15" y="51706.4"/>
  <text x="15" y="51711.5" font-family="Tahoma" font-size="12" transform="rotate(90 15,51711.5)" text-rendering="optimizeSpeed" fill="#000000">DragonFlyBSD (amd64) (1)</text>
  <rect fill="blue" height="0.1" stroke="black" width="12" x="30" y="51706.4"/>
  <text x="30" y="51711.5" font-family="Tahoma" font-size="12" transform="rotate(90 30,51711.5)" text-rendering="optimizeSpeed" fill="#000000">FreeBSD (aarch64) (1)</text>
  <rect fill="blue" height="0.1" stroke="black" width="12" x="45" y="51706.4"/>
  <text x="45" y="51711.5" font-family="Tahoma" font-size="12" transform="rotate(90 45,51711.5)" text-rendering="optimizeSpeed" fill="#000000">Linux (e2k) (1)</text>
  <rect fill="blue" height="0.1" stroke="black" width="12" x="60" y="51706.4"/>
  <text x="60" y="51711.5" font-family="Tahoma" font-size="12" transform="rotate(90 60,51711.5)" text-rendering="optimizeSpeed" fill="#000000">Linux (ia64) (1)</text>
  <rect fill="blue" height="0.1" stroke="black" width="12" x="75" y="51706.4"/>
  <text x="75" y="51711.5" font-family="Tahoma" font-size="12" transform="rotate(90 75,51711.5)" text-rendering="optimizeSpeed" fill="#000000">Linux (mips) (1)</text>
  <rect fill="blue" height="0.1" stroke="black" width="12" x="90" y="51706.4"/>
  <text x="90" y="51711.5" font-family="Tahoma" font-size="12" transform="rotate(90 90,51711.5)" text-rendering="optimizeSpeed" fill="#000000">Linux (mipsel) (1)</text>
  <rect fill="blue" height="0.1" stroke="black" width="12" x="105" y="51706.4"/>
  <text x="105" y="51711.5" font-family="Tahoma" font-size="12" transform="rotate(90 105,51711.5)" text-rendering="optimizeSpeed" fill="#000000">Mac OS X (amd64) (1)</text>
  <rect fill="blue" height="0.1" stroke="black" width="12" x="120" y="51706.4"/>
  <text x="120" y="51711.5" font-family="Tahoma" font-size="12" transform="rotate(90 120,51711.5)" text-rendering="optimizeSpeed" fill="#000000">NetBSD (i386) (1)</text>
  <rect fill="blue" height="0.1" stroke="black" width="12" x="135" y="51706.4"/>
  <text x="135" y="51711.5" font-family="Tahoma" font-size="12" transform="rotate(90 135,51711.5)" text-rendering="optimizeSpeed" fill="#000000">OpenBSD (i386) (1)</text>
  <rect fill="blue" height="0.1" stroke="black" width="12" x="150" y="51706.4"/>
  <text x="150" y="51711.5" font-family="Tahoma" font-size="12" transform="rotate(90 150,51711.5)" text-rendering="optimizeSpeed" fill="#000000">Windows Server 2016 Standard (amd64) (1)</text>
  <rect fill="blue" height="0.1" stroke="black" width="12" x="165" y="51706.4"/>
  <text x="165" y="51711.5" font-family="Tahoma" font-size="12" transform="rotate(90 165,51711.5)" text-rendering="optimizeSpeed" fill="#000000">Windows Server 2019 Standard (amd64) (1)</text>
  <rect fill="blue" height="0.2" stroke="black" width="12" x="180" y="51706.3"/>
  <text x="180" y="51711.5" font-family="Tahoma" font-size="12" transform="rotate(90 180,51711.5)" text-rendering="optimizeSpeed" fill="#000000">NetBSD (amd64) (2)</text>
  <rect fill="blue" height="0.2" stroke="black" width="12" x="195" y="51706.3"/>
  <text x="195" y="51711.5" font-family="Tahoma" font-size="12" transform="rotate(90 195,51711.5)" text-rendering="optimizeSpeed" fill="#000000">Windows Server 2003 (amd64) (2)</text>
  <rect fill="blue" height="0.3" stroke="black" width="12" x="210" y="51706.2"/>
  <text x="210" y="51711.5" font-family="Tahoma" font-size="12" transform="rotate(90 210,51711.5)" text-rendering="optimizeSpeed" fill="#000000">Linux (sparcv9) (3)</text>
  <rect fill="blue" height="0.3" stroke="black" width="12" x="225" y="51706.2"/>
  <text x="225" y="51711.5" font-family="Tahoma" font-size="12" transform="rotate(90 225,51711.5)" text-rendering="optimizeSpeed" fill="#000000">NONSTOP_KERNEL (IA64N) (3)</text>
  <rect fill="blue" height="0.3" stroke="black" width="12" x="240" y="51706.2"/>
  <text x="240" y="51711.5" font-family="Tahoma" font-size="12" transform="rotate(90 240,51711.5)" text-rendering="optimizeSpeed" fill="#000000">Windows Server 2003 (x86) (3)</text>
  <rect fill="blue" height="0.3" stroke="black" width="12" x="255" y="51706.2"/>
  <text x="255" y="51711.5" font-family="Tahoma" font-size="12" transform="rotate(90 255,51711.5)" text-rendering="optimizeSpeed" fill="#000000">Windows Server version 1909 (amd64) (3)</text>
  <rect fill="blue" height="0.4" stroke="black" width="12" x="270" y="51706.1"/>
  <text x="270" y="51711.5" font-family="Tahoma" font-size="12" transform="rotate(90 270,51711.5)" text-rendering="optimizeSpeed" fill="#000000">Linux (s390) (4)</text>
  <rect fill="blue" height="0.4" stroke="black" width="12" x="285" y="51706.1"/>
  <text x="285" y="51711.5" font-family="Tahoma" font-size="12" transform="rotate(90 285,51711.5)" text-rendering="optimizeSpeed" fill="#000000">Linux (sw64) (4)</text>
  <rect fill="blue" height="0.5" stroke="black" width="12" x="300" y="51706.0"/>
  <text x="300" y="51711.5" font-family="Tahoma" font-size="12" transform="rotate(90 300,51711.5)" text-rendering="optimizeSpeed" fill="#000000">Linux (zArch_64) (5)</text>
  <rect fill="blue" height="0.5" stroke="black" width="12" x="315" y="51706.0"/>
  <text x="315" y="51711.5" font-family="Tahoma" font-size="12" transform="rotate(90 315,51711.5)" text-rendering="optimizeSpeed" fill="#000000">OS400 (ppc64) (5)</text>
  <rect fill="blue" height="0.5" stroke="black" width="12" x="330" y="51706.0"/>
  <text x="330" y="51711.5" font-family="Tahoma" font-size="12" transform="rotate(90 330,51711.5)" text-rendering="optimizeSpeed" fill="#000000">Windows Vista (amd64) (5)</text>
  <rect fill="blue" height="0.6" stroke="black" width="12" x="345" y="51705.9"/>
  <text x="345" y="51711.5" font-family="Tahoma" font-size="12" transform="rotate(90 345,51711.5)" text-rendering="optimizeSpeed" fill="#000000">OS/400 (ppc) (6)</text>
  <rect fill="blue" height="0.7" stroke="black" width="12" x="360" y="51705.8"/>
  <text x="360" y="51711.5" font-family="Tahoma" font-size="12" transform="rotate(90 360,51711.5)" text-rendering="optimizeSpeed" fill="#000000">z/OS (s390) (7)</text>
  <rect fill="blue" height="0.9" stroke="black" width="12" x="375" y="51705.6"/>
  <text x="375" y="51711.5" font-family="Tahoma" font-size="12" transform="rotate(90 375,51711.5)" text-rendering="optimizeSpeed" fill="#000000">Windows XP (amd64) (9)</text>
  <rect fill="blue" height="1.4" stroke="black" width="12" x="390" y="51705.1"/>
  <text x="390" y="51711.5" font-family="Tahoma" font-size="12" transform="rotate(90 390,51711.5)" text-rendering="optimizeSpeed" fill="#000000">HP-UX (ia64) (14)</text>
  <rect fill="blue" height="1.9" stroke="black" width="12" x="405" y="51704.6"/>
  <text x="405" y="51711.5" font-family="Tahoma" font-size="12" transform="rotate(90 405,51711.5)" text-rendering="optimizeSpeed" fill="#000000">Linux (ppc) (19)</text>
  <rect fill="blue" height="2.1" stroke="black" width="12" x="420" y="51704.4"/>
  <text x="420" y="51711.5" font-family="Tahoma" font-size="12" transform="rotate(90 420,51711.5)" text-rendering="optimizeSpeed" fill="#000000">OpenBSD (amd64) (21)</text>
  <rect fill="blue" height="2.5" stroke="black" width="12" x="435" y="51704.0"/>
  <text x="435" y="51711.5" font-family="Tahoma" font-size="12" transform="rotate(90 435,51711.5)" text-rendering="optimizeSpeed" fill="#000000">HP-UX (IA64W) (25)</text>
  <rect fill="blue" height="2.6" stroke="black" width="12" x="450" y="51703.9"/>
  <text x="450" y="51711.5" font-family="Tahoma" font-size="12" transform="rotate(90 450,51711.5)" text-rendering="optimizeSpeed" fill="#000000">NONSTOP_KERNEL (x86_64N) (26)</text>
  <rect fill="blue" height="3.8" stroke="black" width="12" x="465" y="51702.7"/>
  <text x="465" y="51711.5" font-family="Tahoma" font-size="12" transform="rotate(90 465,51711.5)" text-rendering="optimizeSpeed" fill="#000000">OS/400 (ppc64) (38)</text>
  <rect fill="blue" height="4.1" stroke="black" width="12" x="480" y="51702.4"/>
  <text x="480" y="51711.5" font-family="Tahoma" font-size="12" transform="rotate(90 480,51711.5)" text-rendering="optimizeSpeed" fill="#000000">HP-UX (PA_RISC2.0) (41)</text>
  <rect fill="blue" height="4.1" stroke="black" width="12" x="495" y="51702.4"/>
  <text x="495" y="51711.5" font-family="Tahoma" font-size="12" transform="rotate(90 495,51711.5)" text-rendering="optimizeSpeed" fill="#000000">Linux (x86) (41)</text>
  <rect fill="blue" height="4.5" stroke="black" width="12" x="510" y="51702.0"/>
  <text x="510" y="51711.5" font-family="Tahoma" font-size="12" transform="rotate(90 510,51711.5)" text-rendering="optimizeSpeed" fill="#000000">Windows Vista (x86) (45)</text>
  <rect fill="blue" height="8.1" stroke="black" width="12" x="525" y="51698.4"/>
  <text x="525" y="51711.5" font-family="Tahoma" font-size="12" transform="rotate(90 525,51711.5)" text-rendering="optimizeSpeed" fill="#000000">Windows 2003 (amd64) (81)</text>
  <rect fill="blue" height="10.5" stroke="black" width="12" x="540" y="51696.0"/>
  <text x="540" y="51711.5" font-family="Tahoma" font-size="12" transform="rotate(90 540,51711.5)" text-rendering="optimizeSpeed" fill="#000000">SunOS (x86) (105)</text>
  <rect fill="blue" height="10.9" stroke="black" width="12" x="555" y="51695.6"/>
  <text x="555" y="51711.5" font-family="Tahoma" font-size="12" transform="rotate(90 555,51711.5)" text-rendering="optimizeSpeed" fill="#000000">Linux (ppc64) (109)</text>
  <rect fill="blue" height="13.8" stroke="black" width="12" x="570" y="51692.7"/>
  <text x="570" y="51711.5" font-family="Tahoma" font-size="12" transform="rotate(90 570,51711.5)" text-rendering="optimizeSpeed" fill="#000000">AIX (ppc) (138)</text>
  <rect fill="blue" height="14.2" stroke="black" width="12" x="585" y="51692.3"/>
  <text x="585" y="51711.5" font-family="Tahoma" font-size="12" transform="rotate(90 585,51711.5)" text-rendering="optimizeSpeed" fill="#000000">z/OS (s390x) (142)</text>
  <rect fill="blue" height="15.0" stroke="black" width="12" x="600" y="51691.5"/>
  <text x="600" y="51711.5" font-family="Tahoma" font-size="12" transform="rotate(90 600,51711.5)" text-rendering="optimizeSpeed" fill="#000000">FreeBSD (i386) (150)</text>
  <rect fill="blue" height="19.8" stroke="black" width="12" x="615" y="51686.7"/>
  <text x="615" y="51711.5" font-family="Tahoma" font-size="12" transform="rotate(90 615,51711.5)" text-rendering="optimizeSpeed" fill="#000000">Windows 8 (x86) (198)</text>
  <rect fill="blue" height="20.2" stroke="black" width="12" x="630" y="51686.3"/>
  <text x="630" y="51711.5" font-family="Tahoma" font-size="12" transform="rotate(90 630,51711.5)" text-rendering="optimizeSpeed" fill="#000000">Linux (mips64el) (202)</text>
  <rect fill="blue" height="22.4" stroke="black" width="12" x="645" y="51684.1"/>
  <text x="645" y="51711.5" font-family="Tahoma" font-size="12" transform="rotate(90 645,51711.5)" text-rendering="optimizeSpeed" fill="#000000">Windows 8 (amd64) (224)</text>
  <rect fill="blue" height="24.6" stroke="black" width="12" x="660" y="51681.9"/>
  <text x="660" y="51711.5" font-family="Tahoma" font-size="12" transform="rotate(90 660,51711.5)" text-rendering="optimizeSpeed" fill="#000000">SunOS (sparc) (246)</text>
  <rect fill="blue" height="25.9" stroke="black" width="12" x="675" y="51680.6"/>
  <text x="675" y="51711.5" font-family="Tahoma" font-size="12" transform="rotate(90 675,51711.5)" text-rendering="optimizeSpeed" fill="#000000">Windows Server 2008 (amd64) (259)</text>
  <rect fill="blue" height="31.3" stroke="black" width="12" x="690" y="51675.2"/>
  <text x="690" y="51711.5" font-family="Tahoma" font-size="12" transform="rotate(90 690,51711.5)" text-rendering="optimizeSpeed" fill="#000000">Linux (s390x) (313)</text>
  <rect fill="blue" height="36.8" stroke="black" width="12" x="705" y="51669.7"/>
  <text x="705" y="51711.5" font-family="Tahoma" font-size="12" transform="rotate(90 705,51711.5)" text-rendering="optimizeSpeed" fill="#000000">HP-UX (IA64N) (368)</text>
  <rect fill="blue" height="40.1" stroke="black" width="12" x="720" y="51666.4"/>
  <text x="720" y="51711.5" font-family="Tahoma" font-size="12" transform="rotate(90 720,51711.5)" text-rendering="optimizeSpeed" fill="#000000">Windows XP (x86) (401)</text>
  <rect fill="blue" height="43.2" stroke="black" width="12" x="735" y="51663.3"/>
  <text x="735" y="51711.5" font-family="Tahoma" font-size="12" transform="rotate(90 735,51711.5)" text-rendering="optimizeSpeed" fill="#000000">Windows Server 2008 (x86) (432)</text>
  <rect fill="blue" height="58.5" stroke="black" width="12" x="750" y="51648.0"/>
  <text x="750" y="51711.5" font-family="Tahoma" font-size="12" transform="rotate(90 750,51711.5)" text-rendering="optimizeSpeed" fill="#000000">Linux (ppc64le) (585)</text>
  <rect fill="blue" height="68.4" stroke="black" width="12" x="765" y="51638.1"/>
  <text x="765" y="51711.5" font-family="Tahoma" font-size="12" transform="rotate(90 765,51711.5)" text-rendering="optimizeSpeed" fill="#000000">Windows 2003 (x86) (684)</text>
  <rect fill="blue" height="72.8" stroke="black" width="12" x="780" y="51633.7"/>
  <text x="780" y="51711.5" font-family="Tahoma" font-size="12" transform="rotate(90 780,51711.5)" text-rendering="optimizeSpeed" fill="#000000">Windows Server 2019 (x86) (728)</text>
  <rect fill="blue" height="74.5" stroke="black" width="12" x="795" y="51632.0"/>
  <text x="795" y="51711.5" font-family="Tahoma" font-size="12" transform="rotate(90 795,51711.5)" text-rendering="optimizeSpeed" fill="#000000">FreeBSD (amd64) (745)</text>
  <rect fill="blue" height="94.6" stroke="black" width="12" x="810" y="51611.9"/>
  <text x="810" y="51711.5" font-family="Tahoma" font-size="12" transform="rotate(90 810,51711.5)" text-rendering="optimizeSpeed" fill="#000000">Windows NT (unknown) (x86) (946)</text>
  <rect fill="blue" height="102.3" stroke="black" width="12" x="825" y="51604.2"/>
  <text x="825" y="51711.5" font-family="Tahoma" font-size="12" transform="rotate(90 825,51711.5)" text-rendering="optimizeSpeed" fill="#000000">Windows Server 2012 (x86) (1023)</text>
  <rect fill="blue" height="110.9" stroke="black" width="12" x="840" y="51595.6"/>
  <text x="840" y="51711.5" font-family="Tahoma" font-size="12" transform="rotate(90 840,51711.5)" text-rendering="optimizeSpeed" fill="#000000">SunOS (amd64) (1109)</text>
  <rect fill="blue" height="142.4" stroke="black" width="12" x="855" y="51564.1"/>
  <text x="855" y="51711.5" font-family="Tahoma" font-size="12" transform="rotate(90 855,51711.5)" text-rendering="optimizeSpeed" fill="#000000">Windows 8.1 (x86) (1424)</text>
  <rect fill="blue" height="143.3" stroke="black" width="12" x="870" y="51563.2"/>
  <text x="870" y="51711.5" font-family="Tahoma" font-size="12" transform="rotate(90 870,51711.5)" text-rendering="optimizeSpeed" fill="#000000">SunOS (sparcv9) (1433)</text>
  <rect fill="blue" height="176.2" stroke="black" width="12" x="885" y="51530.3"/>
  <text x="885" y="51711.5" font-family="Tahoma" font-size="12" transform="rotate(90 885,51711.5)" text-rendering="optimizeSpeed" fill="#000000">Windows Server 2012 (amd64) (1762)</text>
  <rect fill="blue" height="186.0" stroke="black" width="12" x="900" y="51520.5"/>
  <text x="900" y="51711.5" font-family="Tahoma" font-size="12" transform="rotate(90 900,51711.5)" text-rendering="optimizeSpeed" fill="#000000">Windows NT (unknown) (amd64) (1860)</text>
  <rect fill="blue" height="211.4" stroke="black" width="12" x="915" y="51495.1"/>
  <text x="915" y="51711.5" font-family="Tahoma" font-size="12" transform="rotate(90 915,51711.5)" text-rendering="optimizeSpeed" fill="#000000">Windows 8.1 (amd64) (2114)</text>
  <rect fill="blue" height="225.0" stroke="black" width="12" x="930" y="51481.5"/>
  <text x="930" y="51711.5" font-family="Tahoma" font-size="12" transform="rotate(90 930,51711.5)" text-rendering="optimizeSpeed" fill="#000000">AIX (ppc64) (2250)</text>
  <rect fill="blue" height="258.2" stroke="black" width="12" x="945" y="51448.3"/>
  <text x="945" y="51711.5" font-family="Tahoma" font-size="12" transform="rotate(90 945,51711.5)" text-rendering="optimizeSpeed" fill="#000000">Linux (aarch64) (2582)</text>
  <rect fill="blue" height="265.8" stroke="black" width="12" x="960" y="51440.7"/>
  <text x="960" y="51711.5" font-family="Tahoma" font-size="12" transform="rotate(90 960,51711.5)" text-rendering="optimizeSpeed" fill="#000000">Windows Server 2019 (amd64) (2658)</text>
  <rect fill="blue" height="328.1" stroke="black" width="12" x="975" y="51378.4"/>
  <text x="975" y="51711.5" font-family="Tahoma" font-size="12" transform="rotate(90 975,51711.5)" text-rendering="optimizeSpeed" fill="#000000">Linux (arm) (3281)</text>
  <rect fill="blue" height="431.2" stroke="black" width="12" x="990" y="51275.3"/>
  <text x="990" y="51711.5" font-family="Tahoma" font-size="12" transform="rotate(90 990,51711.5)" text-rendering="optimizeSpeed" fill="#000000">Windows Server 2008 R2 (x86) (4312)</text>
  <rect fill="blue" height="640.0" stroke="black" width="12" x="1005" y="51066.5"/>
  <text x="1005" y="51711.5" font-family="Tahoma" font-size="12" transform="rotate(90 1005,51711.5)" text-rendering="optimizeSpeed" fill="#000000">Linux (i386) (6400)</text>
  <rect fill="blue" height="815.9" stroke="black" width="12" x="1020" y="50890.6"/>
  <text x="1020" y="51711.5" font-family="Tahoma" font-size="12" transform="rotate(90 1020,51711.5)" text-rendering="optimizeSpeed" fill="#000000">Windows Server 2008 R2 (amd64) (8159)</text>
  <rect fill="blue" height="1124.4" stroke="black" width="12" x="1035" y="50582.1"/>
  <text x="1035" y="51711.5" font-family="Tahoma" font-size="12" transform="rotate(90 1035,51711.5)" text-rendering="optimizeSpeed" fill="#000000">Windows 7 (amd64) (11244)</text>
  <rect fill="blue" height="1129.4" stroke="black" width="12" x="1050" y="50577.1"/>
  <text x="1050" y="51711.5" font-family="Tahoma" font-size="12" transform="rotate(90 1050,51711.5)" text-rendering="optimizeSpeed" fill="#000000">Windows 7 (x86) (11294)</text>
  <rect fill="blue" height="1195.4" stroke="black" width="12" x="1065" y="50511.1"/>
  <text x="1065" y="51711.5" font-family="Tahoma" font-size="12" transform="rotate(90 1065,51711.5)" text-rendering="optimizeSpeed" fill="#000000">Windows Server 2012 R2 (x86) (11954)</text>
  <rect fill="blue" height="1328.0" stroke="black" width="12" x="1080" y="50378.5"/>
  <text x="1080" y="51711.5" font-family="Tahoma" font-size="12" transform="rotate(90 1080,51711.5)" text-rendering="optimizeSpeed" fill="#000000">Windows Server 2016 (x86) (13280)</text>
  <rect fill="blue" height="2079.7" stroke="black" width="12" x="1095" y="49626.8"/>
  <text x="1095" y="51711.5" font-family="Tahoma" font-size="12" transform="rotate(90 1095,51711.5)" text-rendering="optimizeSpeed" fill="#000000">Windows Server 2016 (amd64) (20797)</text>
  <rect fill="blue" height="2315.4" stroke="black" width="12" x="1110" y="49391.1"/>
  <text x="1110" y="51711.5" font-family="Tahoma" font-size="12" transform="rotate(90 1110,51711.5)" text-rendering="optimizeSpeed" fill="#000000">Windows Server 2012 R2 (amd64) (23154)</text>
  <rect fill="blue" height="2990.4" stroke="black" width="12" x="1125" y="48716.1"/>
  <text x="1125" y="51711.5" font-family="Tahoma" font-size="12" transform="rotate(90 1125,51711.5)" text-rendering="optimizeSpeed" fill="#000000">Mac OS X (x86_64) (29904)</text>
  <rect fill="blue" height="3184.5" stroke="black" width="12" x="1140" y="48522.0"/>
  <text x="1140" y="51711.5" font-family="Tahoma" font-size="12" transform="rotate(90 1140,51711.5)" text-rendering="optimizeSpeed" fill="#000000">Windows 10 (x86) (31845)</text>
  <rect fill="blue" height="4071.9" stroke="black" width="12" x="1155" y="47634.6"/>
  <text x="1155" y="51711.5" font-family="Tahoma" font-size="12" transform="rotate(90 1155,51711.5)" text-rendering="optimizeSpeed" fill="#000000">Windows 10 (amd64) (40719)</text>
  <rect fill="blue" height="26765.0" stroke="black" width="12" x="1170" y="24941.5"/>
  <text x="1170" y="51711.5" font-family="Tahoma" font-size="12" transform="rotate(90 1170,51711.5)" text-rendering="optimizeSpeed" fill="#000000">N/A (267650)</text>
  <rect fill="blue" height="51656.5" stroke="black" width="12" x="1185" y="50.0"/>
  <text x="1185" y="51711.5" font-family="Tahoma" font-size="12" transform="rotate(90 1185,51711.5)" text-rendering="optimizeSpeed" fill="#000000">Linux (amd64) (516565)</text>
  <text x="10" y="40" font-family="Tahoma" font-size="20" text-rendering="optimizeSpeed" fill="#000000">Nodes (total: 1026171)</text>
</svg>
