<svg xmlns="http://www.w3.org/2000/svg" version="1.1" preserveAspectRatio="xMidYMid meet" viewBox="0 0 1235 53661.8">
  <rect fill="blue" height="0.1" stroke="black" width="12" x="15" y="53361.7"/>
  <text x="15" y="53366.8" font-family="Tahoma" font-size="12" transform="rotate(90 15,53366.8)" text-rendering="optimizeSpeed" fill="#000000">BSDSUniX (amd64) (1)</text>
  <rect fill="blue" height="0.1" stroke="black" width="12" x="30" y="53361.7"/>
  <text x="30" y="53366.8" font-family="Tahoma" font-size="12" transform="rotate(90 30,53366.8)" text-rendering="optimizeSpeed" fill="#000000">DragonFlyBSD (amd64) (1)</text>
  <rect fill="blue" height="0.1" stroke="black" width="12" x="45" y="53361.7"/>
  <text x="45" y="53366.8" font-family="Tahoma" font-size="12" transform="rotate(90 45,53366.8)" text-rendering="optimizeSpeed" fill="#000000">FreeBSD (aarch64) (1)</text>
  <rect fill="blue" height="0.1" stroke="black" width="12" x="60" y="53361.7"/>
  <text x="60" y="53366.8" font-family="Tahoma" font-size="12" transform="rotate(90 60,53366.8)" text-rendering="optimizeSpeed" fill="#000000">FreeBSD (arm) (1)</text>
  <rect fill="blue" height="0.1" stroke="black" width="12" x="75" y="53361.7"/>
  <text x="75" y="53366.8" font-family="Tahoma" font-size="12" transform="rotate(90 75,53366.8)" text-rendering="optimizeSpeed" fill="#000000">HP-UX (PA_RISC2.0W) (1)</text>
  <rect fill="blue" height="0.1" stroke="black" width="12" x="90" y="53361.7"/>
  <text x="90" y="53366.8" font-family="Tahoma" font-size="12" transform="rotate(90 90,53366.8)" text-rendering="optimizeSpeed" fill="#000000">Linux (sparcv9) (1)</text>
  <rect fill="blue" height="0.1" stroke="black" width="12" x="105" y="53361.7"/>
  <text x="105" y="53366.8" font-family="Tahoma" font-size="12" transform="rotate(90 105,53366.8)" text-rendering="optimizeSpeed" fill="#000000">Linux (x86_64) (1)</text>
  <rect fill="blue" height="0.1" stroke="black" width="12" x="120" y="53361.7"/>
  <text x="120" y="53366.8" font-family="Tahoma" font-size="12" transform="rotate(90 120,53366.8)" text-rendering="optimizeSpeed" fill="#000000">OpenBSD (i386) (1)</text>
  <rect fill="blue" height="0.1" stroke="black" width="12" x="135" y="53361.7"/>
  <text x="135" y="53366.8" font-family="Tahoma" font-size="12" transform="rotate(90 135,53366.8)" text-rendering="optimizeSpeed" fill="#000000">Windows Server 2016 Standard (amd64) (1)</text>
  <rect fill="blue" height="0.2" stroke="black" width="12" x="150" y="53361.6"/>
  <text x="150" y="53366.8" font-family="Tahoma" font-size="12" transform="rotate(90 150,53366.8)" text-rendering="optimizeSpeed" fill="#000000">Linux (ia64) (2)</text>
  <rect fill="blue" height="0.2" stroke="black" width="12" x="165" y="53361.6"/>
  <text x="165" y="53366.8" font-family="Tahoma" font-size="12" transform="rotate(90 165,53366.8)" text-rendering="optimizeSpeed" fill="#000000">Linux (s390) (2)</text>
  <rect fill="blue" height="0.2" stroke="black" width="12" x="180" y="53361.6"/>
  <text x="180" y="53366.8" font-family="Tahoma" font-size="12" transform="rotate(90 180,53366.8)" text-rendering="optimizeSpeed" fill="#000000">Mac OS X (amd64) (2)</text>
  <rect fill="blue" height="0.2" stroke="black" width="12" x="195" y="53361.6"/>
  <text x="195" y="53366.8" font-family="Tahoma" font-size="12" transform="rotate(90 195,53366.8)" text-rendering="optimizeSpeed" fill="#000000">NetBSD (amd64) (2)</text>
  <rect fill="blue" height="0.2" stroke="black" width="12" x="210" y="53361.6"/>
  <text x="210" y="53366.8" font-family="Tahoma" font-size="12" transform="rotate(90 210,53366.8)" text-rendering="optimizeSpeed" fill="#000000">Windows Server 2003 (amd64) (2)</text>
  <rect fill="blue" height="0.2" stroke="black" width="12" x="225" y="53361.6"/>
  <text x="225" y="53366.8" font-family="Tahoma" font-size="12" transform="rotate(90 225,53366.8)" text-rendering="optimizeSpeed" fill="#000000">Windows Server 2003 (x86) (2)</text>
  <rect fill="blue" height="0.3" stroke="black" width="12" x="240" y="53361.5"/>
  <text x="240" y="53366.8" font-family="Tahoma" font-size="12" transform="rotate(90 240,53366.8)" text-rendering="optimizeSpeed" fill="#000000">Linux (riscv) (3)</text>
  <rect fill="blue" height="0.3" stroke="black" width="12" x="255" y="53361.5"/>
  <text x="255" y="53366.8" font-family="Tahoma" font-size="12" transform="rotate(90 255,53366.8)" text-rendering="optimizeSpeed" fill="#000000">OS400 (ppc64) (3)</text>
  <rect fill="blue" height="0.3" stroke="black" width="12" x="270" y="53361.5"/>
  <text x="270" y="53366.8" font-family="Tahoma" font-size="12" transform="rotate(90 270,53366.8)" text-rendering="optimizeSpeed" fill="#000000">Windows Server version 1909 (amd64) (3)</text>
  <rect fill="blue" height="0.4" stroke="black" width="12" x="285" y="53361.4"/>
  <text x="285" y="53366.8" font-family="Tahoma" font-size="12" transform="rotate(90 285,53366.8)" text-rendering="optimizeSpeed" fill="#000000">Linux (zArch_64) (4)</text>
  <rect fill="blue" height="0.5" stroke="black" width="12" x="300" y="53361.3"/>
  <text x="300" y="53366.8" font-family="Tahoma" font-size="12" transform="rotate(90 300,53366.8)" text-rendering="optimizeSpeed" fill="#000000">NONSTOP_KERNEL (IA64N) (5)</text>
  <rect fill="blue" height="0.6" stroke="black" width="12" x="315" y="53361.2"/>
  <text x="315" y="53366.8" font-family="Tahoma" font-size="12" transform="rotate(90 315,53366.8)" text-rendering="optimizeSpeed" fill="#000000">HP-UX (ia64) (6)</text>
  <rect fill="blue" height="0.6" stroke="black" width="12" x="330" y="53361.2"/>
  <text x="330" y="53366.8" font-family="Tahoma" font-size="12" transform="rotate(90 330,53366.8)" text-rendering="optimizeSpeed" fill="#000000">Linux (sw64) (6)</text>
  <rect fill="blue" height="0.6" stroke="black" width="12" x="345" y="53361.2"/>
  <text x="345" y="53366.8" font-family="Tahoma" font-size="12" transform="rotate(90 345,53366.8)" text-rendering="optimizeSpeed" fill="#000000">Windows Vista (amd64) (6)</text>
  <rect fill="blue" height="0.8" stroke="black" width="12" x="360" y="53361.0"/>
  <text x="360" y="53366.8" font-family="Tahoma" font-size="12" transform="rotate(90 360,53366.8)" text-rendering="optimizeSpeed" fill="#000000">Windows XP (amd64) (8)</text>
  <rect fill="blue" height="0.9" stroke="black" width="12" x="375" y="53360.9"/>
  <text x="375" y="53366.8" font-family="Tahoma" font-size="12" transform="rotate(90 375,53366.8)" text-rendering="optimizeSpeed" fill="#000000">z/OS (s390) (9)</text>
  <rect fill="blue" height="1.0" stroke="black" width="12" x="390" y="53360.8"/>
  <text x="390" y="53366.8" font-family="Tahoma" font-size="12" transform="rotate(90 390,53366.8)" text-rendering="optimizeSpeed" fill="#000000">OS/400 (ppc) (10)</text>
  <rect fill="blue" height="2.0" stroke="black" width="12" x="405" y="53359.8"/>
  <text x="405" y="53366.8" font-family="Tahoma" font-size="12" transform="rotate(90 405,53366.8)" text-rendering="optimizeSpeed" fill="#000000">Linux (ppc) (20)</text>
  <rect fill="blue" height="2.1" stroke="black" width="12" x="420" y="53359.7"/>
  <text x="420" y="53366.8" font-family="Tahoma" font-size="12" transform="rotate(90 420,53366.8)" text-rendering="optimizeSpeed" fill="#000000">OpenBSD (amd64) (21)</text>
  <rect fill="blue" height="2.5" stroke="black" width="12" x="435" y="53359.3"/>
  <text x="435" y="53366.8" font-family="Tahoma" font-size="12" transform="rotate(90 435,53366.8)" text-rendering="optimizeSpeed" fill="#000000">NONSTOP_KERNEL (x86_64N) (25)</text>
  <rect fill="blue" height="3.1" stroke="black" width="12" x="450" y="53358.7"/>
  <text x="450" y="53366.8" font-family="Tahoma" font-size="12" transform="rotate(90 450,53366.8)" text-rendering="optimizeSpeed" fill="#000000">HP-UX (IA64W) (31)</text>
  <rect fill="blue" height="3.6" stroke="black" width="12" x="465" y="53358.2"/>
  <text x="465" y="53366.8" font-family="Tahoma" font-size="12" transform="rotate(90 465,53366.8)" text-rendering="optimizeSpeed" fill="#000000">HP-UX (PA_RISC2.0) (36)</text>
  <rect fill="blue" height="4.2" stroke="black" width="12" x="480" y="53357.6"/>
  <text x="480" y="53366.8" font-family="Tahoma" font-size="12" transform="rotate(90 480,53366.8)" text-rendering="optimizeSpeed" fill="#000000">Windows Vista (x86) (42)</text>
  <rect fill="blue" height="4.4" stroke="black" width="12" x="495" y="53357.4"/>
  <text x="495" y="53366.8" font-family="Tahoma" font-size="12" transform="rotate(90 495,53366.8)" text-rendering="optimizeSpeed" fill="#000000">Linux (x86) (44)</text>
  <rect fill="blue" height="4.4" stroke="black" width="12" x="510" y="53357.4"/>
  <text x="510" y="53366.8" font-family="Tahoma" font-size="12" transform="rotate(90 510,53366.8)" text-rendering="optimizeSpeed" fill="#000000">OS/400 (ppc64) (44)</text>
  <rect fill="blue" height="7.1" stroke="black" width="12" x="525" y="53354.7"/>
  <text x="525" y="53366.8" font-family="Tahoma" font-size="12" transform="rotate(90 525,53366.8)" text-rendering="optimizeSpeed" fill="#000000">Windows 2003 (amd64) (71)</text>
  <rect fill="blue" height="9.8" stroke="black" width="12" x="540" y="53352.0"/>
  <text x="540" y="53366.8" font-family="Tahoma" font-size="12" transform="rotate(90 540,53366.8)" text-rendering="optimizeSpeed" fill="#000000">Linux (ppc64) (98)</text>
  <rect fill="blue" height="10.3" stroke="black" width="12" x="555" y="53351.5"/>
  <text x="555" y="53366.8" font-family="Tahoma" font-size="12" transform="rotate(90 555,53366.8)" text-rendering="optimizeSpeed" fill="#000000">FreeBSD (i386) (103)</text>
  <rect fill="blue" height="14.1" stroke="black" width="12" x="570" y="53347.7"/>
  <text x="570" y="53366.8" font-family="Tahoma" font-size="12" transform="rotate(90 570,53366.8)" text-rendering="optimizeSpeed" fill="#000000">Linux (mips64el) (141)</text>
  <rect fill="blue" height="14.7" stroke="black" width="12" x="585" y="53347.1"/>
  <text x="585" y="53366.8" font-family="Tahoma" font-size="12" transform="rotate(90 585,53366.8)" text-rendering="optimizeSpeed" fill="#000000">z/OS (s390x) (147)</text>
  <rect fill="blue" height="15.3" stroke="black" width="12" x="600" y="53346.5"/>
  <text x="600" y="53366.8" font-family="Tahoma" font-size="12" transform="rotate(90 600,53366.8)" text-rendering="optimizeSpeed" fill="#000000">AIX (ppc) (153)</text>
  <rect fill="blue" height="15.8" stroke="black" width="12" x="615" y="53346.0"/>
  <text x="615" y="53366.8" font-family="Tahoma" font-size="12" transform="rotate(90 615,53366.8)" text-rendering="optimizeSpeed" fill="#000000">SunOS (x86) (158)</text>
  <rect fill="blue" height="19.2" stroke="black" width="12" x="630" y="53342.6"/>
  <text x="630" y="53366.8" font-family="Tahoma" font-size="12" transform="rotate(90 630,53366.8)" text-rendering="optimizeSpeed" fill="#000000">Windows 8 (x86) (192)</text>
  <rect fill="blue" height="22.6" stroke="black" width="12" x="645" y="53339.2"/>
  <text x="645" y="53366.8" font-family="Tahoma" font-size="12" transform="rotate(90 645,53366.8)" text-rendering="optimizeSpeed" fill="#000000">Windows Server 2008 (amd64) (226)</text>
  <rect fill="blue" height="23.7" stroke="black" width="12" x="660" y="53338.1"/>
  <text x="660" y="53366.8" font-family="Tahoma" font-size="12" transform="rotate(90 660,53366.8)" text-rendering="optimizeSpeed" fill="#000000">Windows 8 (amd64) (237)</text>
  <rect fill="blue" height="25.3" stroke="black" width="12" x="675" y="53336.5"/>
  <text x="675" y="53366.8" font-family="Tahoma" font-size="12" transform="rotate(90 675,53366.8)" text-rendering="optimizeSpeed" fill="#000000">SunOS (sparc) (253)</text>
  <rect fill="blue" height="29.9" stroke="black" width="12" x="690" y="53331.9"/>
  <text x="690" y="53366.8" font-family="Tahoma" font-size="12" transform="rotate(90 690,53366.8)" text-rendering="optimizeSpeed" fill="#000000">Linux (s390x) (299)</text>
  <rect fill="blue" height="37.5" stroke="black" width="12" x="705" y="53324.3"/>
  <text x="705" y="53366.8" font-family="Tahoma" font-size="12" transform="rotate(90 705,53366.8)" text-rendering="optimizeSpeed" fill="#000000">HP-UX (IA64N) (375)</text>
  <rect fill="blue" height="39.6" stroke="black" width="12" x="720" y="53322.2"/>
  <text x="720" y="53366.8" font-family="Tahoma" font-size="12" transform="rotate(90 720,53366.8)" text-rendering="optimizeSpeed" fill="#000000">Windows XP (x86) (396)</text>
  <rect fill="blue" height="59.0" stroke="black" width="12" x="735" y="53302.8"/>
  <text x="735" y="53366.8" font-family="Tahoma" font-size="12" transform="rotate(90 735,53366.8)" text-rendering="optimizeSpeed" fill="#000000">Windows Server 2008 (x86) (590)</text>
  <rect fill="blue" height="66.2" stroke="black" width="12" x="750" y="53295.6"/>
  <text x="750" y="53366.8" font-family="Tahoma" font-size="12" transform="rotate(90 750,53366.8)" text-rendering="optimizeSpeed" fill="#000000">Linux (ppc64le) (662)</text>
  <rect fill="blue" height="69.5" stroke="black" width="12" x="765" y="53292.3"/>
  <text x="765" y="53366.8" font-family="Tahoma" font-size="12" transform="rotate(90 765,53366.8)" text-rendering="optimizeSpeed" fill="#000000">FreeBSD (amd64) (695)</text>
  <rect fill="blue" height="72.3" stroke="black" width="12" x="780" y="53289.5"/>
  <text x="780" y="53366.8" font-family="Tahoma" font-size="12" transform="rotate(90 780,53366.8)" text-rendering="optimizeSpeed" fill="#000000">Windows 2003 (x86) (723)</text>
  <rect fill="blue" height="98.6" stroke="black" width="12" x="795" y="53263.2"/>
  <text x="795" y="53366.8" font-family="Tahoma" font-size="12" transform="rotate(90 795,53366.8)" text-rendering="optimizeSpeed" fill="#000000">Windows NT (unknown) (x86) (986)</text>
  <rect fill="blue" height="104.4" stroke="black" width="12" x="810" y="53257.4"/>
  <text x="810" y="53366.8" font-family="Tahoma" font-size="12" transform="rotate(90 810,53366.8)" text-rendering="optimizeSpeed" fill="#000000">Windows Server 2019 (x86) (1044)</text>
  <rect fill="blue" height="108.4" stroke="black" width="12" x="825" y="53253.4"/>
  <text x="825" y="53366.8" font-family="Tahoma" font-size="12" transform="rotate(90 825,53366.8)" text-rendering="optimizeSpeed" fill="#000000">SunOS (amd64) (1084)</text>
  <rect fill="blue" height="135.9" stroke="black" width="12" x="840" y="53225.9"/>
  <text x="840" y="53366.8" font-family="Tahoma" font-size="12" transform="rotate(90 840,53366.8)" text-rendering="optimizeSpeed" fill="#000000">Windows 8.1 (x86) (1359)</text>
  <rect fill="blue" height="139.6" stroke="black" width="12" x="855" y="53222.2"/>
  <text x="855" y="53366.8" font-family="Tahoma" font-size="12" transform="rotate(90 855,53366.8)" text-rendering="optimizeSpeed" fill="#000000">Windows Server 2012 (x86) (1396)</text>
  <rect fill="blue" height="143.5" stroke="black" width="12" x="870" y="53218.3"/>
  <text x="870" y="53366.8" font-family="Tahoma" font-size="12" transform="rotate(90 870,53366.8)" text-rendering="optimizeSpeed" fill="#000000">SunOS (sparcv9) (1435)</text>
  <rect fill="blue" height="181.9" stroke="black" width="12" x="885" y="53179.9"/>
  <text x="885" y="53366.8" font-family="Tahoma" font-size="12" transform="rotate(90 885,53366.8)" text-rendering="optimizeSpeed" fill="#000000">Windows Server 2012 (amd64) (1819)</text>
  <rect fill="blue" height="191.9" stroke="black" width="12" x="900" y="53169.9"/>
  <text x="900" y="53366.8" font-family="Tahoma" font-size="12" transform="rotate(90 900,53366.8)" text-rendering="optimizeSpeed" fill="#000000">Windows 8.1 (amd64) (1919)</text>
  <rect fill="blue" height="212.9" stroke="black" width="12" x="915" y="53148.9"/>
  <text x="915" y="53366.8" font-family="Tahoma" font-size="12" transform="rotate(90 915,53366.8)" text-rendering="optimizeSpeed" fill="#000000">Windows NT (unknown) (amd64) (2129)</text>
  <rect fill="blue" height="222.8" stroke="black" width="12" x="930" y="53139.0"/>
  <text x="930" y="53366.8" font-family="Tahoma" font-size="12" transform="rotate(90 930,53366.8)" text-rendering="optimizeSpeed" fill="#000000">AIX (ppc64) (2228)</text>
  <rect fill="blue" height="323.8" stroke="black" width="12" x="945" y="53038.0"/>
  <text x="945" y="53366.8" font-family="Tahoma" font-size="12" transform="rotate(90 945,53366.8)" text-rendering="optimizeSpeed" fill="#000000">Linux (aarch64) (3238)</text>
  <rect fill="blue" height="353.4" stroke="black" width="12" x="960" y="53008.4"/>
  <text x="960" y="53366.8" font-family="Tahoma" font-size="12" transform="rotate(90 960,53366.8)" text-rendering="optimizeSpeed" fill="#000000">Linux (arm) (3534)</text>
  <rect fill="blue" height="376.8" stroke="black" width="12" x="975" y="52985.0"/>
  <text x="975" y="53366.8" font-family="Tahoma" font-size="12" transform="rotate(90 975,53366.8)" text-rendering="optimizeSpeed" fill="#000000">Windows Server 2019 (amd64) (3768)</text>
  <rect fill="blue" height="396.2" stroke="black" width="12" x="990" y="52965.6"/>
  <text x="990" y="53366.8" font-family="Tahoma" font-size="12" transform="rotate(90 990,53366.8)" text-rendering="optimizeSpeed" fill="#000000">Windows Server 2008 R2 (x86) (3962)</text>
  <rect fill="blue" height="623.9" stroke="black" width="12" x="1005" y="52737.9"/>
  <text x="1005" y="53366.8" font-family="Tahoma" font-size="12" transform="rotate(90 1005,53366.8)" text-rendering="optimizeSpeed" fill="#000000">Linux (i386) (6239)</text>
  <rect fill="blue" height="727.2" stroke="black" width="12" x="1020" y="52634.6"/>
  <text x="1020" y="53366.8" font-family="Tahoma" font-size="12" transform="rotate(90 1020,53366.8)" text-rendering="optimizeSpeed" fill="#000000">Windows Server 2008 R2 (amd64) (7272)</text>
  <rect fill="blue" height="1016.4" stroke="black" width="12" x="1035" y="52345.4"/>
  <text x="1035" y="53366.8" font-family="Tahoma" font-size="12" transform="rotate(90 1035,53366.8)" text-rendering="optimizeSpeed" fill="#000000">Windows 7 (x86) (10164)</text>
  <rect fill="blue" height="1061.7" stroke="black" width="12" x="1050" y="52300.1"/>
  <text x="1050" y="53366.8" font-family="Tahoma" font-size="12" transform="rotate(90 1050,53366.8)" text-rendering="optimizeSpeed" fill="#000000">Windows 7 (amd64) (10617)</text>
  <rect fill="blue" height="1165.2" stroke="black" width="12" x="1065" y="52196.6"/>
  <text x="1065" y="53366.8" font-family="Tahoma" font-size="12" transform="rotate(90 1065,53366.8)" text-rendering="optimizeSpeed" fill="#000000">Windows Server 2012 R2 (x86) (11652)</text>
  <rect fill="blue" height="1446.7" stroke="black" width="12" x="1080" y="51915.1"/>
  <text x="1080" y="53366.8" font-family="Tahoma" font-size="12" transform="rotate(90 1080,53366.8)" text-rendering="optimizeSpeed" fill="#000000">Windows Server 2016 (x86) (14467)</text>
  <rect fill="blue" height="2333.9" stroke="black" width="12" x="1095" y="51027.9"/>
  <text x="1095" y="53366.8" font-family="Tahoma" font-size="12" transform="rotate(90 1095,53366.8)" text-rendering="optimizeSpeed" fill="#000000">Windows Server 2016 (amd64) (23339)</text>
  <rect fill="blue" height="2375.1" stroke="black" width="12" x="1110" y="50986.7"/>
  <text x="1110" y="53366.8" font-family="Tahoma" font-size="12" transform="rotate(90 1110,53366.8)" text-rendering="optimizeSpeed" fill="#000000">Windows Server 2012 R2 (amd64) (23751)</text>
  <rect fill="blue" height="3039.1" stroke="black" width="12" x="1125" y="50322.7"/>
  <text x="1125" y="53366.8" font-family="Tahoma" font-size="12" transform="rotate(90 1125,53366.8)" text-rendering="optimizeSpeed" fill="#000000">Mac OS X (x86_64) (30391)</text>
  <rect fill="blue" height="3244.7" stroke="black" width="12" x="1140" y="50117.1"/>
  <text x="1140" y="53366.8" font-family="Tahoma" font-size="12" transform="rotate(90 1140,53366.8)" text-rendering="optimizeSpeed" fill="#000000">Windows 10 (x86) (32447)</text>
  <rect fill="blue" height="4676.9" stroke="black" width="12" x="1155" y="48684.9"/>
  <text x="1155" y="53366.8" font-family="Tahoma" font-size="12" transform="rotate(90 1155,53366.8)" text-rendering="optimizeSpeed" fill="#000000">Windows 10 (amd64) (46769)</text>
  <rect fill="blue" height="26416.5" stroke="black" width="12" x="1170" y="26945.3"/>
  <text x="1170" y="53366.8" font-family="Tahoma" font-size="12" transform="rotate(90 1170,53366.8)" text-rendering="optimizeSpeed" fill="#000000">N/A (264165)</text>
  <rect fill="blue" height="53311.8" stroke="black" width="12" x="1185" y="50.0"/>
  <text x="1185" y="53366.8" font-family="Tahoma" font-size="12" transform="rotate(90 1185,53366.8)" text-rendering="optimizeSpeed" fill="#000000">Linux (amd64) (533118)</text>
  <text x="10" y="40" font-family="Tahoma" font-size="20" text-rendering="optimizeSpeed" fill="#000000">Nodes (total: 1050158)</text>
</svg>
