<svg xmlns="http://www.w3.org/2000/svg" version="1.1" preserveAspectRatio="xMidYMid meet" viewBox="0 0 500 20531.3">
  <rect fill="blue" height="0.0" stroke="black" width="12" x="15" y="20231.3"/>
  <text x="15" y="20236.3" font-family="Tahoma" font-size="12" transform="rotate(90 15,20236.3)" text-rendering="optimizeSpeed" fill="#000000">com-google-jenkins-plugins-dsl-YamlProject (1)</text>
  <rect fill="blue" height="0.0" stroke="black" width="12" x="30" y="20231.3"/>
  <text x="30" y="20236.3" font-family="Tahoma" font-size="12" transform="rotate(90 30,20236.3)" text-rendering="optimizeSpeed" fill="#000000">hudson-plugins-wormpex-data-template-DataWarehouseStyleProject (2)</text>
  <rect fill="blue" height="0.0" stroke="black" width="12" x="45" y="20231.3"/>
  <text x="45" y="20236.3" font-family="Tahoma" font-size="12" transform="rotate(90 45,20236.3)" text-rendering="optimizeSpeed" fill="#000000">org-jenkinsci-plugins-pipeline-multibranch-defaults-git-PipelineMultiBranchDefaultsGitProject (4)</text>
  <rect fill="blue" height="0.0" stroke="black" width="12" x="60" y="20231.3"/>
  <text x="60" y="20236.3" font-family="Tahoma" font-size="12" transform="rotate(90 60,20236.3)" text-rendering="optimizeSpeed" fill="#000000">org-jvnet-hudson-test-MockFolder (6)</text>
  <rect fill="blue" height="0.0" stroke="black" width="12" x="75" y="20231.3"/>
  <text x="75" y="20236.3" font-family="Tahoma" font-size="12" transform="rotate(90 75,20236.3)" text-rendering="optimizeSpeed" fill="#000000">com-github-mjdetullio-jenkins-plugins-multibranch-IvyMultiBranchProject (7)</text>
  <rect fill="blue" height="0.0" stroke="black" width="12" x="90" y="20231.3"/>
  <text x="90" y="20236.3" font-family="Tahoma" font-size="12" transform="rotate(90 90,20236.3)" text-rendering="optimizeSpeed" fill="#000000">org-jenkinsci-plugins-drupal-projects-DrupalProject (7)</text>
  <rect fill="blue" height="0.0" stroke="black" width="12" x="105" y="20231.3"/>
  <text x="105" y="20236.3" font-family="Tahoma" font-size="12" transform="rotate(90 105,20236.3)" text-rendering="optimizeSpeed" fill="#000000">com-barchart-jenkins-cascade-CascadeProject (21)</text>
  <rect fill="blue" height="0.0" stroke="black" width="12" x="120" y="20231.3"/>
  <text x="120" y="20236.3" font-family="Tahoma" font-size="12" transform="rotate(90 120,20236.3)" text-rendering="optimizeSpeed" fill="#000000">com-groupon-jenkins-dynamic-build-DynamicProject (34)</text>
  <rect fill="blue" height="0.0" stroke="black" width="12" x="135" y="20231.3"/>
  <text x="135" y="20236.3" font-family="Tahoma" font-size="12" transform="rotate(90 135,20236.3)" text-rendering="optimizeSpeed" fill="#000000">com-github-mjdetullio-jenkins-plugins-multibranch-MatrixMultiBranchProject (40)</text>
  <rect fill="blue" height="0.1" stroke="black" width="12" x="150" y="20231.3"/>
  <text x="150" y="20236.3" font-family="Tahoma" font-size="12" transform="rotate(90 150,20236.3)" text-rendering="optimizeSpeed" fill="#000000">org-jenkinsci-plugins-coordinator-dummy-model-CoordinatorProject (55)</text>
  <rect fill="blue" height="0.1" stroke="black" width="12" x="165" y="20231.3"/>
  <text x="165" y="20236.3" font-family="Tahoma" font-size="12" transform="rotate(90 165,20236.3)" text-rendering="optimizeSpeed" fill="#000000">hudson-plugin-smartjob-SmartJob (56)</text>
  <rect fill="blue" height="0.3" stroke="black" width="12" x="180" y="20231.1"/>
  <text x="180" y="20236.3" font-family="Tahoma" font-size="12" transform="rotate(90 180,20236.3)" text-rendering="optimizeSpeed" fill="#000000">captmorgan-ExternalProject (253)</text>
  <rect fill="blue" height="0.4" stroke="black" width="12" x="195" y="20230.9"/>
  <text x="195" y="20236.3" font-family="Tahoma" font-size="12" transform="rotate(90 195,20236.3)" text-rendering="optimizeSpeed" fill="#000000">org-jenkinsci-plugins-coordinator-model-CoordinatorProject (381)</text>
  <rect fill="blue" height="0.7" stroke="black" width="12" x="210" y="20230.6"/>
  <text x="210" y="20236.3" font-family="Tahoma" font-size="12" transform="rotate(90 210,20236.3)" text-rendering="optimizeSpeed" fill="#000000">com-groupon-jenkins-dynamic-organizationcontainer-OrganizationContainer (678)</text>
  <rect fill="blue" height="2.3" stroke="black" width="12" x="225" y="20229.0"/>
  <text x="225" y="20236.3" font-family="Tahoma" font-size="12" transform="rotate(90 225,20236.3)" text-rendering="optimizeSpeed" fill="#000000">com-github-mjdetullio-jenkins-plugins-multibranch-FreeStyleMultiBranchProject (2269)</text>
  <rect fill="blue" height="2.4" stroke="black" width="12" x="240" y="20228.9"/>
  <text x="240" y="20236.3" font-family="Tahoma" font-size="12" transform="rotate(90 240,20236.3)" text-rendering="optimizeSpeed" fill="#000000">org-jenkinsci-plugins-jobgenerator-JobGenerator (2414)</text>
  <rect fill="blue" height="2.6" stroke="black" width="12" x="255" y="20228.8"/>
  <text x="255" y="20236.3" font-family="Tahoma" font-size="12" transform="rotate(90 255,20236.3)" text-rendering="optimizeSpeed" fill="#000000">com-github-mjdetullio-jenkins-plugins-multibranch-MavenMultiBranchProject (2557)</text>
  <rect fill="blue" height="4.3" stroke="black" width="12" x="270" y="20227.0"/>
  <text x="270" y="20236.3" font-family="Tahoma" font-size="12" transform="rotate(90 270,20236.3)" text-rendering="optimizeSpeed" fill="#000000">hudson-ivy-IvyModuleSet (4312)</text>
  <rect fill="blue" height="6.9" stroke="black" width="12" x="285" y="20224.4"/>
  <text x="285" y="20236.3" font-family="Tahoma" font-size="12" transform="rotate(90 285,20236.3)" text-rendering="optimizeSpeed" fill="#000000">org-jenkinsci-plugins-pipeline-multibranch-defaults-PipelineMultiBranchDefaultsProject (6869)</text>
  <rect fill="blue" height="11.3" stroke="black" width="12" x="300" y="20220.1"/>
  <text x="300" y="20236.3" font-family="Tahoma" font-size="12" transform="rotate(90 300,20236.3)" text-rendering="optimizeSpeed" fill="#000000">hudson-model-ExternalJob (11255)</text>
  <rect fill="blue" height="15.7" stroke="black" width="12" x="315" y="20215.6"/>
  <text x="315" y="20236.3" font-family="Tahoma" font-size="12" transform="rotate(90 315,20236.3)" text-rendering="optimizeSpeed" fill="#000000">hudson-plugins-project_inheritance-projects-InheritanceProject (15699)</text>
  <rect fill="blue" height="34.0" stroke="black" width="12" x="330" y="20197.3"/>
  <text x="330" y="20236.3" font-family="Tahoma" font-size="12" transform="rotate(90 330,20236.3)" text-rendering="optimizeSpeed" fill="#000000">jenkins-branch-OrganizationFolder (34027)</text>
  <rect fill="blue" height="46.0" stroke="black" width="12" x="345" y="20185.3"/>
  <text x="345" y="20236.3" font-family="Tahoma" font-size="12" transform="rotate(90 345,20236.3)" text-rendering="optimizeSpeed" fill="#000000">com-cloudbees-plugins-flow-BuildFlow (45978)</text>
  <rect fill="blue" height="352.2" stroke="black" width="12" x="360" y="19879.1"/>
  <text x="360" y="20236.3" font-family="Tahoma" font-size="12" transform="rotate(90 360,20236.3)" text-rendering="optimizeSpeed" fill="#000000">hudson-matrix-MatrixProject (352176)</text>
  <rect fill="blue" height="416.6" stroke="black" width="12" x="375" y="19814.7"/>
  <text x="375" y="20236.3" font-family="Tahoma" font-size="12" transform="rotate(90 375,20236.3)" text-rendering="optimizeSpeed" fill="#000000">com-tikal-jenkins-plugins-multijob-MultiJobProject (416571)</text>
  <rect fill="blue" height="1102.2" stroke="black" width="12" x="390" y="19129.1"/>
  <text x="390" y="20236.3" font-family="Tahoma" font-size="12" transform="rotate(90 390,20236.3)" text-rendering="optimizeSpeed" fill="#000000">org-jenkinsci-plugins-workflow-multibranch-WorkflowMultiBranchProject (1102208)</text>
  <rect fill="blue" height="1744.4" stroke="black" width="12" x="405" y="18486.9"/>
  <text x="405" y="20236.3" font-family="Tahoma" font-size="12" transform="rotate(90 405,20236.3)" text-rendering="optimizeSpeed" fill="#000000">com-cloudbees-hudson-plugins-folder-Folder (1744416)</text>
  <rect fill="blue" height="2131.2" stroke="black" width="12" x="420" y="18100.1"/>
  <text x="420" y="20236.3" font-family="Tahoma" font-size="12" transform="rotate(90 420,20236.3)" text-rendering="optimizeSpeed" fill="#000000">hudson-maven-MavenModuleSet (2131191)</text>
  <rect fill="blue" height="17921.4" stroke="black" width="12" x="435" y="2309.9"/>
  <text x="435" y="20236.3" font-family="Tahoma" font-size="12" transform="rotate(90 435,20236.3)" text-rendering="optimizeSpeed" fill="#000000">hudson-model-FreeStyleProject (17921366)</text>
  <rect fill="blue" height="20181.3" stroke="black" width="12" x="450" y="50.0"/>
  <text x="450" y="20236.3" font-family="Tahoma" font-size="12" transform="rotate(90 450,20236.3)" text-rendering="optimizeSpeed" fill="#000000">org-jenkinsci-plugins-workflow-job-WorkflowJob (20181314)</text>
  <text x="10" y="40" font-family="Tahoma" font-size="20" text-rendering="optimizeSpeed" fill="#000000">Jobs (total: 43976167)</text>
</svg>
