<svg xmlns="http://www.w3.org/2000/svg" version="1.1" preserveAspectRatio="xMidYMid meet" viewBox="0 0 515 16459.8">
  <rect fill="blue" height="0.0" stroke="black" width="12" x="15" y="16159.8"/>
  <text x="15" y="16164.8" font-family="Tahoma" font-size="12" transform="rotate(90 15,16164.8)" text-rendering="optimizeSpeed" fill="#000000">com-google-jenkins-plugins-dsl-YamlProject (1)</text>
  <rect fill="blue" height="0.0" stroke="black" width="12" x="30" y="16159.8"/>
  <text x="30" y="16164.8" font-family="Tahoma" font-size="12" transform="rotate(90 30,16164.8)" text-rendering="optimizeSpeed" fill="#000000">org-jenkinsci-plugins-updatebot-ImportGithubRepoProject (1)</text>
  <rect fill="blue" height="0.0" stroke="black" width="12" x="45" y="16159.8"/>
  <text x="45" y="16164.8" font-family="Tahoma" font-size="12" transform="rotate(90 45,16164.8)" text-rendering="optimizeSpeed" fill="#000000">hudson-model-GolangProject (2)</text>
  <rect fill="blue" height="0.0" stroke="black" width="12" x="60" y="16159.8"/>
  <text x="60" y="16164.8" font-family="Tahoma" font-size="12" transform="rotate(90 60,16164.8)" text-rendering="optimizeSpeed" fill="#000000">org-jenkinsci-plugins-pipeline-multibranch-defaults-git-PipelineMultiBranchDefaultsGitProject (4)</text>
  <rect fill="blue" height="0.0" stroke="black" width="12" x="75" y="16159.8"/>
  <text x="75" y="16164.8" font-family="Tahoma" font-size="12" transform="rotate(90 75,16164.8)" text-rendering="optimizeSpeed" fill="#000000">com-github-mjdetullio-jenkins-plugins-multibranch-IvyMultiBranchProject (5)</text>
  <rect fill="blue" height="0.0" stroke="black" width="12" x="90" y="16159.8"/>
  <text x="90" y="16164.8" font-family="Tahoma" font-size="12" transform="rotate(90 90,16164.8)" text-rendering="optimizeSpeed" fill="#000000">org-jvnet-hudson-test-MockFolder (9)</text>
  <rect fill="blue" height="0.0" stroke="black" width="12" x="105" y="16159.8"/>
  <text x="105" y="16164.8" font-family="Tahoma" font-size="12" transform="rotate(90 105,16164.8)" text-rendering="optimizeSpeed" fill="#000000">org-jenkinsci-plugins-drupal-projects-DrupalProject (11)</text>
  <rect fill="blue" height="0.0" stroke="black" width="12" x="120" y="16159.8"/>
  <text x="120" y="16164.8" font-family="Tahoma" font-size="12" transform="rotate(90 120,16164.8)" text-rendering="optimizeSpeed" fill="#000000">com-barchart-jenkins-cascade-CascadeProject (24)</text>
  <rect fill="blue" height="0.1" stroke="black" width="12" x="135" y="16159.7"/>
  <text x="135" y="16164.8" font-family="Tahoma" font-size="12" transform="rotate(90 135,16164.8)" text-rendering="optimizeSpeed" fill="#000000">org-jenkinsci-plugins-coordinator-dummy-model-CoordinatorProject (57)</text>
  <rect fill="blue" height="0.1" stroke="black" width="12" x="150" y="16159.7"/>
  <text x="150" y="16164.8" font-family="Tahoma" font-size="12" transform="rotate(90 150,16164.8)" text-rendering="optimizeSpeed" fill="#000000">hudson-plugin-smartjob-SmartJob (81)</text>
  <rect fill="blue" height="0.1" stroke="black" width="12" x="165" y="16159.7"/>
  <text x="165" y="16164.8" font-family="Tahoma" font-size="12" transform="rotate(90 165,16164.8)" text-rendering="optimizeSpeed" fill="#000000">com-github-mjdetullio-jenkins-plugins-multibranch-MatrixMultiBranchProject (93)</text>
  <rect fill="blue" height="0.1" stroke="black" width="12" x="180" y="16159.7"/>
  <text x="180" y="16164.8" font-family="Tahoma" font-size="12" transform="rotate(90 180,16164.8)" text-rendering="optimizeSpeed" fill="#000000">com-groupon-jenkins-dynamic-build-DynamicProject (135)</text>
  <rect fill="blue" height="0.3" stroke="black" width="12" x="195" y="16159.5"/>
  <text x="195" y="16164.8" font-family="Tahoma" font-size="12" transform="rotate(90 195,16164.8)" text-rendering="optimizeSpeed" fill="#000000">captmorgan-ExternalProject (256)</text>
  <rect fill="blue" height="0.7" stroke="black" width="12" x="210" y="16159.1"/>
  <text x="210" y="16164.8" font-family="Tahoma" font-size="12" transform="rotate(90 210,16164.8)" text-rendering="optimizeSpeed" fill="#000000">com-groupon-jenkins-dynamic-organizationcontainer-OrganizationContainer (674)</text>
  <rect fill="blue" height="0.7" stroke="black" width="12" x="225" y="16159.1"/>
  <text x="225" y="16164.8" font-family="Tahoma" font-size="12" transform="rotate(90 225,16164.8)" text-rendering="optimizeSpeed" fill="#000000">org-jenkinsci-plugins-coordinator-model-CoordinatorProject (730)</text>
  <rect fill="blue" height="2.4" stroke="black" width="12" x="240" y="16157.4"/>
  <text x="240" y="16164.8" font-family="Tahoma" font-size="12" transform="rotate(90 240,16164.8)" text-rendering="optimizeSpeed" fill="#000000">com-github-mjdetullio-jenkins-plugins-multibranch-FreeStyleMultiBranchProject (2371)</text>
  <rect fill="blue" height="3.0" stroke="black" width="12" x="255" y="16156.8"/>
  <text x="255" y="16164.8" font-family="Tahoma" font-size="12" transform="rotate(90 255,16164.8)" text-rendering="optimizeSpeed" fill="#000000">org-jenkinsci-plugins-jobgenerator-JobGenerator (2976)</text>
  <rect fill="blue" height="3.5" stroke="black" width="12" x="270" y="16156.3"/>
  <text x="270" y="16164.8" font-family="Tahoma" font-size="12" transform="rotate(90 270,16164.8)" text-rendering="optimizeSpeed" fill="#000000">com-github-mjdetullio-jenkins-plugins-multibranch-MavenMultiBranchProject (3529)</text>
  <rect fill="blue" height="4.8" stroke="black" width="12" x="285" y="16155.0"/>
  <text x="285" y="16164.8" font-family="Tahoma" font-size="12" transform="rotate(90 285,16164.8)" text-rendering="optimizeSpeed" fill="#000000">hudson-ivy-IvyModuleSet (4789)</text>
  <rect fill="blue" height="5.8" stroke="black" width="12" x="300" y="16154.0"/>
  <text x="300" y="16164.8" font-family="Tahoma" font-size="12" transform="rotate(90 300,16164.8)" text-rendering="optimizeSpeed" fill="#000000">hudson-model-ExternalJob (5840)</text>
  <rect fill="blue" height="6.1" stroke="black" width="12" x="315" y="16153.7"/>
  <text x="315" y="16164.8" font-family="Tahoma" font-size="12" transform="rotate(90 315,16164.8)" text-rendering="optimizeSpeed" fill="#000000">org-jenkinsci-plugins-pipeline-multibranch-defaults-PipelineMultiBranchDefaultsProject (6068)</text>
  <rect fill="blue" height="24.4" stroke="black" width="12" x="330" y="16135.4"/>
  <text x="330" y="16164.8" font-family="Tahoma" font-size="12" transform="rotate(90 330,16164.8)" text-rendering="optimizeSpeed" fill="#000000">hudson-plugins-project_inheritance-projects-InheritanceProject (24385)</text>
  <rect fill="blue" height="27.6" stroke="black" width="12" x="345" y="16132.2"/>
  <text x="345" y="16164.8" font-family="Tahoma" font-size="12" transform="rotate(90 345,16164.8)" text-rendering="optimizeSpeed" fill="#000000">jenkins-branch-OrganizationFolder (27642)</text>
  <rect fill="blue" height="248.7" stroke="black" width="12" x="360" y="15911.1"/>
  <text x="360" y="16164.8" font-family="Tahoma" font-size="12" transform="rotate(90 360,16164.8)" text-rendering="optimizeSpeed" fill="#000000">hudson-matrix-MatrixProject (248738)</text>
  <rect fill="blue" height="249.8" stroke="black" width="12" x="375" y="15910.0"/>
  <text x="375" y="16164.8" font-family="Tahoma" font-size="12" transform="rotate(90 375,16164.8)" text-rendering="optimizeSpeed" fill="#000000">com-cloudbees-plugins-flow-BuildFlow (249767)</text>
  <rect fill="blue" height="377.0" stroke="black" width="12" x="390" y="15782.8"/>
  <text x="390" y="16164.8" font-family="Tahoma" font-size="12" transform="rotate(90 390,16164.8)" text-rendering="optimizeSpeed" fill="#000000">com-tikal-jenkins-plugins-multijob-MultiJobProject (376993)</text>
  <rect fill="blue" height="847.3" stroke="black" width="12" x="405" y="15312.5"/>
  <text x="405" y="16164.8" font-family="Tahoma" font-size="12" transform="rotate(90 405,16164.8)" text-rendering="optimizeSpeed" fill="#000000">org-jenkinsci-plugins-workflow-multibranch-WorkflowMultiBranchProject (847302)</text>
  <rect fill="blue" height="1309.3" stroke="black" width="12" x="420" y="14850.5"/>
  <text x="420" y="16164.8" font-family="Tahoma" font-size="12" transform="rotate(90 420,16164.8)" text-rendering="optimizeSpeed" fill="#000000">com-cloudbees-hudson-plugins-folder-Folder (1309262)</text>
  <rect fill="blue" height="2057.7" stroke="black" width="12" x="435" y="14102.1"/>
  <text x="435" y="16164.8" font-family="Tahoma" font-size="12" transform="rotate(90 435,16164.8)" text-rendering="optimizeSpeed" fill="#000000">hudson-maven-MavenModuleSet (2057710)</text>
  <rect fill="blue" height="12919.4" stroke="black" width="12" x="450" y="3240.4"/>
  <text x="450" y="16164.8" font-family="Tahoma" font-size="12" transform="rotate(90 450,16164.8)" text-rendering="optimizeSpeed" fill="#000000">org-jenkinsci-plugins-workflow-job-WorkflowJob (12919366)</text>
  <rect fill="blue" height="16109.8" stroke="black" width="12" x="465" y="50.0"/>
  <text x="465" y="16164.8" font-family="Tahoma" font-size="12" transform="rotate(90 465,16164.8)" text-rendering="optimizeSpeed" fill="#000000">hudson-model-FreeStyleProject (16109794)</text>
  <text x="10" y="40" font-family="Tahoma" font-size="20" text-rendering="optimizeSpeed" fill="#000000">Jobs (total: 34198615)</text>
</svg>
