<svg xmlns="http://www.w3.org/2000/svg" version="1.1" preserveAspectRatio="xMidYMid meet" viewBox="0 0 720 2420">
  <text x="30" y="40" font-family="sans-serif" font-size="16">Nodes, total: 1029705</text>
  <path d="M 200,300 L 0.0,150.0 A 150,150 0 0 1 0.3,150.0 Z" fill="BurlyWood" stroke="black" stroke-width="1"/>
  <rect x="370" y="50" width="20" height="30" fill="BurlyWood" stroke="black" stroke-width="1"/>
  <text x="400" y="38" font-family="sans-serif" font-size="16">AIX (ppc) (160)</text>
  <path d="M 200,300 L 0.3,150.0 A 150,150 0 0 1 5.0,150.0 Z" fill="CadetBlue" stroke="black" stroke-width="1"/>
  <rect x="370" y="51" width="20" height="30" fill="CadetBlue" stroke="black" stroke-width="1"/>
  <text x="400" y="68" font-family="sans-serif" font-size="16">AIX (ppc64) (2201)</text>
  <path d="M 200,300 L 5.0,150.0 A 150,150 0 0 1 5.0,150.0 Z" fill="red" stroke="black" stroke-width="1"/>
  <rect x="370" y="52" width="20" height="30" fill="red" stroke="black" stroke-width="1"/>
  <text x="400" y="98" font-family="sans-serif" font-size="16">DragonFlyBSD (amd64) (1)</text>
  <path d="M 200,300 L 5.0,150.0 A 150,150 0 0 1 5.0,150.0 Z" fill="blue" stroke="black" stroke-width="1"/>
  <rect x="370" y="53" width="20" height="30" fill="blue" stroke="black" stroke-width="1"/>
  <text x="400" y="128" font-family="sans-serif" font-size="16">FreeBSD (aarch64) (1)</text>
  <path d="M 200,300 L 5.0,150.0 A 150,150 0 0 1 6.5,150.0 Z" fill="yellow" stroke="black" stroke-width="1"/>
  <rect x="370" y="54" width="20" height="30" fill="yellow" stroke="black" stroke-width="1"/>
  <text x="400" y="158" font-family="sans-serif" font-size="16">FreeBSD (amd64) (681)</text>
  <path d="M 200,300 L 6.5,150.0 A 150,150 0 0 1 6.7,150.0 Z" fill="green" stroke="black" stroke-width="1"/>
  <rect x="370" y="55" width="20" height="30" fill="green" stroke="black" stroke-width="1"/>
  <text x="400" y="188" font-family="sans-serif" font-size="16">FreeBSD (i386) (100)</text>
  <path d="M 200,300 L 6.7,150.0 A 150,150 0 0 1 7.5,150.0 Z" fill="gold" stroke="black" stroke-width="1"/>
  <rect x="370" y="56" width="20" height="30" fill="gold" stroke="black" stroke-width="1"/>
  <text x="400" y="218" font-family="sans-serif" font-size="16">HP-UX (IA64N) (348)</text>
  <path d="M 200,300 L 7.5,150.0 A 150,150 0 0 1 7.5,150.0 Z" fill="brown" stroke="black" stroke-width="1"/>
  <rect x="370" y="57" width="20" height="30" fill="brown" stroke="black" stroke-width="1"/>
  <text x="400" y="248" font-family="sans-serif" font-size="16">HP-UX (IA64W) (6)</text>
  <path d="M 200,300 L 7.5,150.0 A 150,150 0 0 1 7.5,150.0 Z" fill="Azure" stroke="black" stroke-width="1"/>
  <rect x="370" y="58" width="20" height="30" fill="Azure" stroke="black" stroke-width="1"/>
  <text x="400" y="278" font-family="sans-serif" font-size="16">HP-UX (PA_RISC2.0) (30)</text>
  <path d="M 200,300 L 7.5,150.0 A 150,150 0 0 1 7.6,150.0 Z" fill="pink" stroke="black" stroke-width="1"/>
  <rect x="370" y="59" width="20" height="30" fill="pink" stroke="black" stroke-width="1"/>
  <text x="400" y="308" font-family="sans-serif" font-size="16">HP-UX (ia64) (9)</text>
  <path d="M 200,300 L 7.6,150.0 A 150,150 0 0 1 12.4,149.9 Z" fill="khaki" stroke="black" stroke-width="1"/>
  <rect x="370" y="60" width="20" height="30" fill="khaki" stroke="black" stroke-width="1"/>
  <text x="400" y="338" font-family="sans-serif" font-size="16">Linux (aarch64) (2261)</text>
  <path d="M 200,300 L 12.4,149.9 A 150,150 0 1 1 -12.6,-149.9 Z" fill="gray" stroke="black" stroke-width="1"/>
  <rect x="370" y="61" width="20" height="30" fill="gray" stroke="black" stroke-width="1"/>
  <text x="400" y="368" font-family="sans-serif" font-size="16">Linux (amd64) (514961)</text>
  <path d="M 200,300 L -12.6,-149.9 A 150,150 0 0 1 -19.8,-149.8 Z" fill="Aqua" stroke="black" stroke-width="1"/>
  <rect x="370" y="62" width="20" height="30" fill="Aqua" stroke="black" stroke-width="1"/>
  <text x="400" y="398" font-family="sans-serif" font-size="16">Linux (arm) (3362)</text>
  <path d="M 200,300 L -19.8,-149.8 A 150,150 0 0 1 -34.5,-149.3 Z" fill="Aquamarine" stroke="black" stroke-width="1"/>
  <rect x="370" y="63" width="20" height="30" fill="Aquamarine" stroke="black" stroke-width="1"/>
  <text x="400" y="428" font-family="sans-serif" font-size="16">Linux (i386) (6930)</text>
  <path d="M 200,300 L -34.5,-149.3 A 150,150 0 0 1 -34.5,-149.3 Z" fill="beige" stroke="black" stroke-width="1"/>
  <rect x="370" y="64" width="20" height="30" fill="beige" stroke="black" stroke-width="1"/>
  <text x="400" y="458" font-family="sans-serif" font-size="16">Linux (ia64) (3)</text>
  <path d="M 200,300 L -34.5,-149.3 A 150,150 0 0 1 -34.5,-149.3 Z" fill="blueviolet" stroke="black" stroke-width="1"/>
  <rect x="370" y="65" width="20" height="30" fill="blueviolet" stroke="black" stroke-width="1"/>
  <text x="400" y="488" font-family="sans-serif" font-size="16">Linux (mips) (1)</text>
  <path d="M 200,300 L -34.5,-149.3 A 150,150 0 0 1 -34.8,-149.3 Z" fill="Bisque" stroke="black" stroke-width="1"/>
  <rect x="370" y="66" width="20" height="30" fill="Bisque" stroke="black" stroke-width="1"/>
  <text x="400" y="518" font-family="sans-serif" font-size="16">Linux (mips64el) (130)</text>
  <path d="M 200,300 L -34.8,-149.3 A 150,150 0 0 1 -34.8,-149.3 Z" fill="coral" stroke="black" stroke-width="1"/>
  <rect x="370" y="67" width="20" height="30" fill="coral" stroke="black" stroke-width="1"/>
  <text x="400" y="548" font-family="sans-serif" font-size="16">Linux (mipsel) (1)</text>
  <path d="M 200,300 L -34.8,-149.3 A 150,150 0 0 1 -34.9,-149.3 Z" fill="darkblue" stroke="black" stroke-width="1"/>
  <rect x="370" y="68" width="20" height="30" fill="darkblue" stroke="black" stroke-width="1"/>
  <text x="400" y="578" font-family="sans-serif" font-size="16">Linux (ppc) (17)</text>
  <path d="M 200,300 L -34.9,-149.3 A 150,150 0 0 1 -35.1,-149.2 Z" fill="crimson" stroke="black" stroke-width="1"/>
  <rect x="370" y="69" width="20" height="30" fill="crimson" stroke="black" stroke-width="1"/>
  <text x="400" y="608" font-family="sans-serif" font-size="16">Linux (ppc64) (104)</text>
  <path d="M 200,300 L -35.1,-149.2 A 150,150 0 0 1 -36.4,-149.2 Z" fill="cyan" stroke="black" stroke-width="1"/>
  <rect x="370" y="70" width="20" height="30" fill="cyan" stroke="black" stroke-width="1"/>
  <text x="400" y="638" font-family="sans-serif" font-size="16">Linux (ppc64le) (608)</text>
  <path d="M 200,300 L -36.4,-149.2 A 150,150 0 0 1 -36.4,-149.2 Z" fill="darkred" stroke="black" stroke-width="1"/>
  <rect x="370" y="71" width="20" height="30" fill="darkred" stroke="black" stroke-width="1"/>
  <text x="400" y="668" font-family="sans-serif" font-size="16">Linux (riscv64) (1)</text>
  <path d="M 200,300 L -36.4,-149.2 A 150,150 0 0 1 -36.4,-149.2 Z" fill="ivory" stroke="black" stroke-width="1"/>
  <rect x="370" y="72" width="20" height="30" fill="ivory" stroke="black" stroke-width="1"/>
  <text x="400" y="698" font-family="sans-serif" font-size="16">Linux (s390) (4)</text>
  <path d="M 200,300 L -36.4,-149.2 A 150,150 0 0 1 -37.0,-149.2 Z" fill="lime" stroke="black" stroke-width="1"/>
  <rect x="370" y="73" width="20" height="30" fill="lime" stroke="black" stroke-width="1"/>
  <text x="400" y="728" font-family="sans-serif" font-size="16">Linux (s390x) (288)</text>
  <path d="M 200,300 L -37.0,-149.2 A 150,150 0 0 1 -37.0,-149.2 Z" fill="maroon" stroke="black" stroke-width="1"/>
  <rect x="370" y="74" width="20" height="30" fill="maroon" stroke="black" stroke-width="1"/>
  <text x="400" y="758" font-family="sans-serif" font-size="16">Linux (sparcv9) (4)</text>
  <path d="M 200,300 L -37.0,-149.2 A 150,150 0 0 1 -37.0,-149.2 Z" fill="navy" stroke="black" stroke-width="1"/>
  <rect x="370" y="75" width="20" height="30" fill="navy" stroke="black" stroke-width="1"/>
  <text x="400" y="788" font-family="sans-serif" font-size="16">Linux (sw64) (2)</text>
  <path d="M 200,300 L -37.0,-149.2 A 150,150 0 0 1 -37.1,-149.2 Z" fill="olive" stroke="black" stroke-width="1"/>
  <rect x="370" y="76" width="20" height="30" fill="olive" stroke="black" stroke-width="1"/>
  <text x="400" y="818" font-family="sans-serif" font-size="16">Linux (x86) (39)</text>
  <path d="M 200,300 L -37.1,-149.2 A 150,150 0 0 1 -37.1,-149.2 Z" fill="plum" stroke="black" stroke-width="1"/>
  <rect x="370" y="77" width="20" height="30" fill="plum" stroke="black" stroke-width="1"/>
  <text x="400" y="848" font-family="sans-serif" font-size="16">Linux (zArch_64) (3)</text>
  <path d="M 200,300 L -37.1,-149.2 A 150,150 0 0 1 -37.1,-149.2 Z" fill="peru" stroke="black" stroke-width="1"/>
  <rect x="370" y="78" width="20" height="30" fill="peru" stroke="black" stroke-width="1"/>
  <text x="400" y="878" font-family="sans-serif" font-size="16">Mac OS X (amd64) (3)</text>
  <path d="M 200,300 L -37.1,-149.2 A 150,150 0 0 1 -37.1,-149.2 Z" fill="silver" stroke="black" stroke-width="1"/>
  <rect x="370" y="79" width="20" height="30" fill="silver" stroke="black" stroke-width="1"/>
  <text x="400" y="908" font-family="sans-serif" font-size="16">Mac OS X (i386) (1)</text>
  <path d="M 200,300 L -37.1,-149.2 A 150,150 0 0 1 -101.8,-143.5 Z" fill="tan" stroke="black" stroke-width="1"/>
  <rect x="370" y="80" width="20" height="30" fill="tan" stroke="black" stroke-width="1"/>
  <text x="400" y="938" font-family="sans-serif" font-size="16">Mac OS X (x86_64) (30958)</text>
  <path d="M 200,300 L -101.8,-143.5 A 150,150 0 0 1 -325.0,55.7 Z" fill="teal" stroke="black" stroke-width="1"/>
  <rect x="370" y="81" width="20" height="30" fill="teal" stroke="black" stroke-width="1"/>
  <text x="400" y="968" font-family="sans-serif" font-size="16">N/A (271376)</text>
  <path d="M 200,300 L -325.0,55.7 A 150,150 0 0 1 -325.0,55.7 Z" fill="violet" stroke="black" stroke-width="1"/>
  <rect x="370" y="82" width="20" height="30" fill="violet" stroke="black" stroke-width="1"/>
  <text x="400" y="998" font-family="sans-serif" font-size="16">NONSTOP_KERNEL (IA64N) (3)</text>
  <path d="M 200,300 L -325.0,55.7 A 150,150 0 0 1 -325.0,55.7 Z" fill="AliceBlue" stroke="black" stroke-width="1"/>
  <rect x="370" y="83" width="20" height="30" fill="AliceBlue" stroke="black" stroke-width="1"/>
  <text x="400" y="1028" font-family="sans-serif" font-size="16">NONSTOP_KERNEL (x86_64N) (24)</text>
  <path d="M 200,300 L -325.0,55.7 A 150,150 0 0 1 -325.0,55.7 Z" fill="DarkOliveGreen" stroke="black" stroke-width="1"/>
  <rect x="370" y="84" width="20" height="30" fill="DarkOliveGreen" stroke="black" stroke-width="1"/>
  <text x="400" y="1058" font-family="sans-serif" font-size="16">NetBSD (amd64) (6)</text>
  <path d="M 200,300 L -325.0,55.7 A 150,150 0 0 1 -325.0,55.7 Z" fill="Indigo" stroke="black" stroke-width="1"/>
  <rect x="370" y="85" width="20" height="30" fill="Indigo" stroke="black" stroke-width="1"/>
  <text x="400" y="1088" font-family="sans-serif" font-size="16">NetBSD (i386) (2)</text>
  <path d="M 200,300 L -325.0,55.7 A 150,150 0 0 1 -325.0,55.7 Z" fill="MediumPurple" stroke="black" stroke-width="1"/>
  <rect x="370" y="86" width="20" height="30" fill="MediumPurple" stroke="black" stroke-width="1"/>
  <text x="400" y="1118" font-family="sans-serif" font-size="16">OS/400 (ppc) (9)</text>
  <path d="M 200,300 L -325.0,55.7 A 150,150 0 0 1 -324.9,55.7 Z" fill="Purple" stroke="black" stroke-width="1"/>
  <rect x="370" y="87" width="20" height="30" fill="Purple" stroke="black" stroke-width="1"/>
  <text x="400" y="1148" font-family="sans-serif" font-size="16">OS/400 (ppc64) (43)</text>
  <path d="M 200,300 L -324.9,55.7 A 150,150 0 0 1 -324.9,55.8 Z" fill="AntiqueWhite" stroke="black" stroke-width="1"/>
  <rect x="370" y="88" width="20" height="30" fill="AntiqueWhite" stroke="black" stroke-width="1"/>
  <text x="400" y="1178" font-family="sans-serif" font-size="16">OpenBSD (amd64) (28)</text>
  <path d="M 200,300 L -324.9,55.8 A 150,150 0 0 1 -324.9,55.8 Z" fill="DarkOrange" stroke="black" stroke-width="1"/>
  <rect x="370" y="89" width="20" height="30" fill="DarkOrange" stroke="black" stroke-width="1"/>
  <text x="400" y="1208" font-family="sans-serif" font-size="16">OpenBSD (i386) (1)</text>
  <path d="M 200,300 L -324.9,55.8 A 150,150 0 0 1 -324.1,56.7 Z" fill="Ivory" stroke="black" stroke-width="1"/>
  <rect x="370" y="90" width="20" height="30" fill="Ivory" stroke="black" stroke-width="1"/>
  <text x="400" y="1238" font-family="sans-serif" font-size="16">SunOS (amd64) (1042)</text>
  <path d="M 200,300 L -324.1,56.7 A 150,150 0 0 1 -323.9,56.9 Z" fill="MediumSeaGreen" stroke="black" stroke-width="1"/>
  <rect x="370" y="91" width="20" height="30" fill="MediumSeaGreen" stroke="black" stroke-width="1"/>
  <text x="400" y="1268" font-family="sans-serif" font-size="16">SunOS (sparc) (233)</text>
  <path d="M 200,300 L -323.9,56.9 A 150,150 0 0 1 -322.8,58.0 Z" fill="Red" stroke="black" stroke-width="1"/>
  <rect x="370" y="92" width="20" height="30" fill="Red" stroke="black" stroke-width="1"/>
  <text x="400" y="1298" font-family="sans-serif" font-size="16">SunOS (sparcv9) (1320)</text>
  <path d="M 200,300 L -322.8,58.0 A 150,150 0 0 1 -322.7,58.1 Z" fill="Aqua" stroke="black" stroke-width="1"/>
  <rect x="370" y="93" width="20" height="30" fill="Aqua" stroke="black" stroke-width="1"/>
  <text x="400" y="1328" font-family="sans-serif" font-size="16">SunOS (x86) (159)</text>
  <path d="M 200,300 L -322.7,58.1 A 150,150 0 0 1 -279.8,90.1 Z" fill="DarkOrchid" stroke="black" stroke-width="1"/>
  <rect x="370" y="94" width="20" height="30" fill="DarkOrchid" stroke="black" stroke-width="1"/>
  <text x="400" y="1358" font-family="sans-serif" font-size="16">Windows 10 (amd64) (40394)</text>
  <path d="M 200,300 L -279.8,90.1 A 150,150 0 0 1 -232.7,112.0 Z" fill="Khaki" stroke="black" stroke-width="1"/>
  <rect x="370" y="95" width="20" height="30" fill="Khaki" stroke="black" stroke-width="1"/>
  <text x="400" y="1388" font-family="sans-serif" font-size="16">Windows 10 (x86) (32647)</text>
  <path d="M 200,300 L -232.7,112.0 A 150,150 0 0 1 -232.7,112.0 Z" fill="MediumSlateBlue" stroke="black" stroke-width="1"/>
  <rect x="370" y="96" width="20" height="30" fill="MediumSlateBlue" stroke="black" stroke-width="1"/>
  <text x="400" y="1418" font-family="sans-serif" font-size="16">Windows 10 Enterprise (amd64) (1)</text>
  <path d="M 200,300 L -232.7,112.0 A 150,150 0 0 1 -232.7,112.0 Z" fill="RosyBrown" stroke="black" stroke-width="1"/>
  <rect x="370" y="97" width="20" height="30" fill="RosyBrown" stroke="black" stroke-width="1"/>
  <text x="400" y="1448" font-family="sans-serif" font-size="16">Windows 2000 (x86) (1)</text>
  <path d="M 200,300 L -232.7,112.0 A 150,150 0 0 1 -232.6,112.1 Z" fill="AquaMarine" stroke="black" stroke-width="1"/>
  <rect x="370" y="98" width="20" height="30" fill="AquaMarine" stroke="black" stroke-width="1"/>
  <text x="400" y="1478" font-family="sans-serif" font-size="16">Windows 2003 (amd64) (90)</text>
  <path d="M 200,300 L -232.6,112.1 A 150,150 0 0 1 -231.2,112.6 Z" fill="DarkRed" stroke="black" stroke-width="1"/>
  <rect x="370" y="99" width="20" height="30" fill="DarkRed" stroke="black" stroke-width="1"/>
  <text x="400" y="1508" font-family="sans-serif" font-size="16">Windows 2003 (x86) (841)</text>
  <path d="M 200,300 L -231.2,112.6 A 150,150 0 0 1 -211.2,119.6 Z" fill="Lavender" stroke="black" stroke-width="1"/>
  <rect x="370" y="100" width="20" height="30" fill="Lavender" stroke="black" stroke-width="1"/>
  <text x="400" y="1538" font-family="sans-serif" font-size="16">Windows 7 (amd64) (12110)</text>
  <path d="M 200,300 L -211.2,119.6 A 150,150 0 0 1 -192.3,125.3 Z" fill="MediumSpringGreen" stroke="black" stroke-width="1"/>
  <rect x="370" y="101" width="20" height="30" fill="MediumSpringGreen" stroke="black" stroke-width="1"/>
  <text x="400" y="1568" font-family="sans-serif" font-size="16">Windows 7 (x86) (10849)</text>
  <path d="M 200,300 L -192.3,125.3 A 150,150 0 0 1 -191.9,125.5 Z" fill="RoyalBlue" stroke="black" stroke-width="1"/>
  <rect x="370" y="102" width="20" height="30" fill="RoyalBlue" stroke="black" stroke-width="1"/>
  <text x="400" y="1598" font-family="sans-serif" font-size="16">Windows 8 (amd64) (220)</text>
  <path d="M 200,300 L -191.9,125.5 A 150,150 0 0 1 -191.5,125.6 Z" fill="Azure" stroke="black" stroke-width="1"/>
  <rect x="370" y="103" width="20" height="30" fill="Azure" stroke="black" stroke-width="1"/>
  <text x="400" y="1628" font-family="sans-serif" font-size="16">Windows 8 (x86) (222)</text>
  <path d="M 200,300 L -191.5,125.6 A 150,150 0 0 1 -188.3,126.5 Z" fill="DarkSalmon" stroke="black" stroke-width="1"/>
  <rect x="370" y="104" width="20" height="30" fill="DarkSalmon" stroke="black" stroke-width="1"/>
  <text x="400" y="1658" font-family="sans-serif" font-size="16">Windows 8.1 (amd64) (1788)</text>
  <path d="M 200,300 L -188.3,126.5 A 150,150 0 0 1 -185.8,127.1 Z" fill="LavenderBlush" stroke="black" stroke-width="1"/>
  <rect x="370" y="105" width="20" height="30" fill="LavenderBlush" stroke="black" stroke-width="1"/>
  <text x="400" y="1688" font-family="sans-serif" font-size="16">Windows 8.1 (x86) (1383)</text>
  <path d="M 200,300 L -185.8,127.1 A 150,150 0 0 1 -182.6,128.0 Z" fill="MediumTurquoise" stroke="black" stroke-width="1"/>
  <rect x="370" y="106" width="20" height="30" fill="MediumTurquoise" stroke="black" stroke-width="1"/>
  <text x="400" y="1718" font-family="sans-serif" font-size="16">Windows NT (unknown) (amd64) (1740)</text>
  <path d="M 200,300 L -182.6,128.0 A 150,150 0 0 1 -180.8,128.4 Z" fill="SaddleBrown" stroke="black" stroke-width="1"/>
  <rect x="370" y="107" width="20" height="30" fill="SaddleBrown" stroke="black" stroke-width="1"/>
  <text x="400" y="1748" font-family="sans-serif" font-size="16">Windows NT (unknown) (x86) (979)</text>
  <path d="M 200,300 L -180.8,128.4 A 150,150 0 0 1 -180.8,128.4 Z" fill="Beige" stroke="black" stroke-width="1"/>
  <rect x="370" y="108" width="20" height="30" fill="Beige" stroke="black" stroke-width="1"/>
  <text x="400" y="1778" font-family="sans-serif" font-size="16">Windows Server 2003 (amd64) (2)</text>
  <path d="M 200,300 L -180.8,128.4 A 150,150 0 0 1 -180.8,128.4 Z" fill="DarkSeaGreen" stroke="black" stroke-width="1"/>
  <rect x="370" y="109" width="20" height="30" fill="DarkSeaGreen" stroke="black" stroke-width="1"/>
  <text x="400" y="1808" font-family="sans-serif" font-size="16">Windows Server 2003 (x86) (3)</text>
  <path d="M 200,300 L -180.8,128.4 A 150,150 0 0 1 -180.4,128.6 Z" fill="LawnGreen" stroke="black" stroke-width="1"/>
  <rect x="370" y="110" width="20" height="30" fill="LawnGreen" stroke="black" stroke-width="1"/>
  <text x="400" y="1838" font-family="sans-serif" font-size="16">Windows Server 2008 (amd64) (251)</text>
  <path d="M 200,300 L -180.4,128.6 A 150,150 0 0 1 -179.5,128.8 Z" fill="MediumVioletRed" stroke="black" stroke-width="1"/>
  <rect x="370" y="111" width="20" height="30" fill="MediumVioletRed" stroke="black" stroke-width="1"/>
  <text x="400" y="1868" font-family="sans-serif" font-size="16">Windows Server 2008 (x86) (460)</text>
  <path d="M 200,300 L -179.5,128.8 A 150,150 0 0 1 -163.1,132.7 Z" fill="Salmon" stroke="black" stroke-width="1"/>
  <rect x="370" y="112" width="20" height="30" fill="Salmon" stroke="black" stroke-width="1"/>
  <text x="400" y="1898" font-family="sans-serif" font-size="16">Windows Server 2008 R2 (amd64) (8793)</text>
  <path d="M 200,300 L -163.1,132.7 A 150,150 0 0 1 -154.5,134.6 Z" fill="Bisque" stroke="black" stroke-width="1"/>
  <rect x="370" y="113" width="20" height="30" fill="Bisque" stroke="black" stroke-width="1"/>
  <text x="400" y="1928" font-family="sans-serif" font-size="16">Windows Server 2008 R2 (x86) (4544)</text>
  <path d="M 200,300 L -154.5,134.6 A 150,150 0 0 1 -150.6,135.4 Z" fill="DarkSlateBlue" stroke="black" stroke-width="1"/>
  <rect x="370" y="114" width="20" height="30" fill="DarkSlateBlue" stroke="black" stroke-width="1"/>
  <text x="400" y="1958" font-family="sans-serif" font-size="16">Windows Server 2012 (amd64) (2051)</text>
  <path d="M 200,300 L -150.6,135.4 A 150,150 0 0 1 -148.5,135.8 Z" fill="LemonChiffon" stroke="black" stroke-width="1"/>
  <rect x="370" y="115" width="20" height="30" fill="LemonChiffon" stroke="black" stroke-width="1"/>
  <text x="400" y="1988" font-family="sans-serif" font-size="16">Windows Server 2012 (x86) (1038)</text>
  <path d="M 200,300 L -148.5,135.8 A 150,150 0 0 1 -102.5,143.4 Z" fill="MidnightBlue" stroke="black" stroke-width="1"/>
  <rect x="370" y="116" width="20" height="30" fill="MidnightBlue" stroke="black" stroke-width="1"/>
  <text x="400" y="2018" font-family="sans-serif" font-size="16">Windows Server 2012 R2 (amd64) (23142)</text>
  <path d="M 200,300 L -102.5,143.4 A 150,150 0 0 1 -77.0,146.3 Z" fill="SandyBrown" stroke="black" stroke-width="1"/>
  <rect x="370" y="117" width="20" height="30" fill="SandyBrown" stroke="black" stroke-width="1"/>
  <text x="400" y="2048" font-family="sans-serif" font-size="16">Windows Server 2012 R2 (x86) (12348)</text>
  <path d="M 200,300 L -77.0,146.3 A 150,150 0 0 1 -34.7,149.3 Z" fill="Black" stroke="black" stroke-width="1"/>
  <rect x="370" y="118" width="20" height="30" fill="Black" stroke="black" stroke-width="1"/>
  <text x="400" y="2078" font-family="sans-serif" font-size="16">Windows Server 2016 (amd64) (20050)</text>
  <path d="M 200,300 L -34.7,149.3 A 150,150 0 0 1 -8.0,150.0 Z" fill="DarkSlateGray" stroke="black" stroke-width="1"/>
  <rect x="370" y="119" width="20" height="30" fill="DarkSlateGray" stroke="black" stroke-width="1"/>
  <text x="400" y="2108" font-family="sans-serif" font-size="16">Windows Server 2016 (x86) (12542)</text>
  <path d="M 200,300 L -8.0,150.0 A 150,150 0 0 1 -2.7,150.0 Z" fill="LightBlue" stroke="black" stroke-width="1"/>
  <rect x="370" y="120" width="20" height="30" fill="LightBlue" stroke="black" stroke-width="1"/>
  <text x="400" y="2138" font-family="sans-serif" font-size="16">Windows Server 2019 (amd64) (2495)</text>
  <path d="M 200,300 L -2.7,150.0 A 150,150 0 0 1 -1.3,150.0 Z" fill="MintCream" stroke="black" stroke-width="1"/>
  <rect x="370" y="121" width="20" height="30" fill="MintCream" stroke="black" stroke-width="1"/>
  <text x="400" y="2168" font-family="sans-serif" font-size="16">Windows Server 2019 (x86) (644)</text>
  <path d="M 200,300 L -1.3,150.0 A 150,150 0 0 1 -1.3,150.0 Z" fill="SeaGreen" stroke="black" stroke-width="1"/>
  <rect x="370" y="122" width="20" height="30" fill="SeaGreen" stroke="black" stroke-width="1"/>
  <text x="400" y="2198" font-family="sans-serif" font-size="16">Windows Server version 1909 (amd64) (3)</text>
  <path d="M 200,300 L -1.3,150.0 A 150,150 0 0 1 -1.3,150.0 Z" fill="BlanchedAlmond" stroke="black" stroke-width="1"/>
  <rect x="370" y="123" width="20" height="30" fill="BlanchedAlmond" stroke="black" stroke-width="1"/>
  <text x="400" y="2228" font-family="sans-serif" font-size="16">Windows Vista (amd64) (5)</text>
  <path d="M 200,300 L -1.3,150.0 A 150,150 0 0 1 -1.2,150.0 Z" fill="DarkTurquoise" stroke="black" stroke-width="1"/>
  <rect x="370" y="124" width="20" height="30" fill="DarkTurquoise" stroke="black" stroke-width="1"/>
  <text x="400" y="2258" font-family="sans-serif" font-size="16">Windows Vista (x86) (45)</text>
  <path d="M 200,300 L -1.2,150.0 A 150,150 0 0 1 -1.2,150.0 Z" fill="LightCoral" stroke="black" stroke-width="1"/>
  <rect x="370" y="125" width="20" height="30" fill="LightCoral" stroke="black" stroke-width="1"/>
  <text x="400" y="2288" font-family="sans-serif" font-size="16">Windows XP (amd64) (8)</text>
  <path d="M 200,300 L -1.2,150.0 A 150,150 0 0 1 -0.3,150.0 Z" fill="MistyRose" stroke="black" stroke-width="1"/>
  <rect x="370" y="126" width="20" height="30" fill="MistyRose" stroke="black" stroke-width="1"/>
  <text x="400" y="2318" font-family="sans-serif" font-size="16">Windows XP (x86) (404)</text>
  <path d="M 200,300 L -0.3,150.0 A 150,150 0 0 1 -0.3,150.0 Z" fill="SeaShell" stroke="black" stroke-width="1"/>
  <rect x="370" y="127" width="20" height="30" fill="SeaShell" stroke="black" stroke-width="1"/>
  <text x="400" y="2348" font-family="sans-serif" font-size="16">z/OS (s390) (5)</text>
  <path d="M 200,300 L -0.3,150.0 A 150,150 0 0 1 -0.0,150.0 Z" fill="Blue" stroke="black" stroke-width="1"/>
  <rect x="370" y="128" width="20" height="30" fill="Blue" stroke="black" stroke-width="1"/>
  <text x="400" y="2378" font-family="sans-serif" font-size="16">z/OS (s390x) (143)</text>
</svg>
