<svg xmlns="http://www.w3.org/2000/svg" version="1.1" preserveAspectRatio="xMidYMid meet" viewBox="0 0 1325 59663.5">
  <rect fill="blue" height="0.1" stroke="black" width="12" x="15" y="59363.4"/>
  <text x="15" y="59368.5" font-family="Tahoma" font-size="12" transform="rotate(90 15,59368.5)" text-rendering="optimizeSpeed" fill="#000000">Linux (e2k) (1)</text>
  <rect fill="blue" height="0.1" stroke="black" width="12" x="30" y="59363.4"/>
  <text x="30" y="59368.5" font-family="Tahoma" font-size="12" transform="rotate(90 30,59368.5)" text-rendering="optimizeSpeed" fill="#000000">Linux (riscv) (1)</text>
  <rect fill="blue" height="0.1" stroke="black" width="12" x="45" y="59363.4"/>
  <text x="45" y="59368.5" font-family="Tahoma" font-size="12" transform="rotate(90 45,59368.5)" text-rendering="optimizeSpeed" fill="#000000">Linux (sparcv9) (1)</text>
  <rect fill="blue" height="0.1" stroke="black" width="12" x="60" y="59363.4"/>
  <text x="60" y="59368.5" font-family="Tahoma" font-size="12" transform="rotate(90 60,59368.5)" text-rendering="optimizeSpeed" fill="#000000">Linux (x86_64) (1)</text>
  <rect fill="blue" height="0.1" stroke="black" width="12" x="75" y="59363.4"/>
  <text x="75" y="59368.5" font-family="Tahoma" font-size="12" transform="rotate(90 75,59368.5)" text-rendering="optimizeSpeed" fill="#000000">MidnightBSD (amd64) (1)</text>
  <rect fill="blue" height="0.1" stroke="black" width="12" x="90" y="59363.4"/>
  <text x="90" y="59368.5" font-family="Tahoma" font-size="12" transform="rotate(90 90,59368.5)" text-rendering="optimizeSpeed" fill="#000000">MidnightBSD (i386) (1)</text>
  <rect fill="blue" height="0.1" stroke="black" width="12" x="105" y="59363.4"/>
  <text x="105" y="59368.5" font-family="Tahoma" font-size="12" transform="rotate(90 105,59368.5)" text-rendering="optimizeSpeed" fill="#000000">NetBSD (i386) (1)</text>
  <rect fill="blue" height="0.1" stroke="black" width="12" x="120" y="59363.4"/>
  <text x="120" y="59368.5" font-family="Tahoma" font-size="12" transform="rotate(90 120,59368.5)" text-rendering="optimizeSpeed" fill="#000000">OpenBSD (i386) (1)</text>
  <rect fill="blue" height="0.1" stroke="black" width="12" x="135" y="59363.4"/>
  <text x="135" y="59368.5" font-family="Tahoma" font-size="12" transform="rotate(90 135,59368.5)" text-rendering="optimizeSpeed" fill="#000000">Windows 10 (aarch64) (1)</text>
  <rect fill="blue" height="0.1" stroke="black" width="12" x="150" y="59363.4"/>
  <text x="150" y="59368.5" font-family="Tahoma" font-size="12" transform="rotate(90 150,59368.5)" text-rendering="optimizeSpeed" fill="#000000">Windows 2000 (x86) (1)</text>
  <rect fill="blue" height="0.1" stroke="black" width="12" x="165" y="59363.4"/>
  <text x="165" y="59368.5" font-family="Tahoma" font-size="12" transform="rotate(90 165,59368.5)" text-rendering="optimizeSpeed" fill="#000000">Windows Server 2016 Datacenter (amd64) (1)</text>
  <rect fill="blue" height="0.1" stroke="black" width="12" x="180" y="59363.4"/>
  <text x="180" y="59368.5" font-family="Tahoma" font-size="12" transform="rotate(90 180,59368.5)" text-rendering="optimizeSpeed" fill="#000000">Windows Server version 2009 (amd64) (1)</text>
  <rect fill="blue" height="0.2" stroke="black" width="12" x="195" y="59363.3"/>
  <text x="195" y="59368.5" font-family="Tahoma" font-size="12" transform="rotate(90 195,59368.5)" text-rendering="optimizeSpeed" fill="#000000">DragonFlyBSD (amd64) (2)</text>
  <rect fill="blue" height="0.2" stroke="black" width="12" x="210" y="59363.3"/>
  <text x="210" y="59368.5" font-family="Tahoma" font-size="12" transform="rotate(90 210,59368.5)" text-rendering="optimizeSpeed" fill="#000000">FreeBSD (aarch64) (2)</text>
  <rect fill="blue" height="0.2" stroke="black" width="12" x="225" y="59363.3"/>
  <text x="225" y="59368.5" font-family="Tahoma" font-size="12" transform="rotate(90 225,59368.5)" text-rendering="optimizeSpeed" fill="#000000">Linux (ia64) (2)</text>
  <rect fill="blue" height="0.2" stroke="black" width="12" x="240" y="59363.3"/>
  <text x="240" y="59368.5" font-family="Tahoma" font-size="12" transform="rotate(90 240,59368.5)" text-rendering="optimizeSpeed" fill="#000000">Linux (zArch_64) (2)</text>
  <rect fill="blue" height="0.2" stroke="black" width="12" x="255" y="59363.3"/>
  <text x="255" y="59368.5" font-family="Tahoma" font-size="12" transform="rotate(90 255,59368.5)" text-rendering="optimizeSpeed" fill="#000000">Windows Server version 2004 (amd64) (2)</text>
  <rect fill="blue" height="0.2" stroke="black" width="12" x="270" y="59363.3"/>
  <text x="270" y="59368.5" font-family="Tahoma" font-size="12" transform="rotate(90 270,59368.5)" text-rendering="optimizeSpeed" fill="#000000">Windows XP (amd64) (2)</text>
  <rect fill="blue" height="0.3" stroke="black" width="12" x="285" y="59363.2"/>
  <text x="285" y="59368.5" font-family="Tahoma" font-size="12" transform="rotate(90 285,59368.5)" text-rendering="optimizeSpeed" fill="#000000">Linux (s390) (3)</text>
  <rect fill="blue" height="0.3" stroke="black" width="12" x="300" y="59363.2"/>
  <text x="300" y="59368.5" font-family="Tahoma" font-size="12" transform="rotate(90 300,59368.5)" text-rendering="optimizeSpeed" fill="#000000">NONSTOP_KERNEL (IA64N) (3)</text>
  <rect fill="blue" height="0.4" stroke="black" width="12" x="315" y="59363.1"/>
  <text x="315" y="59368.5" font-family="Tahoma" font-size="12" transform="rotate(90 315,59368.5)" text-rendering="optimizeSpeed" fill="#000000">HP-UX (ia64) (4)</text>
  <rect fill="blue" height="0.4" stroke="black" width="12" x="330" y="59363.1"/>
  <text x="330" y="59368.5" font-family="Tahoma" font-size="12" transform="rotate(90 330,59368.5)" text-rendering="optimizeSpeed" fill="#000000">Windows Server version 1909 (amd64) (4)</text>
  <rect fill="blue" height="0.5" stroke="black" width="12" x="345" y="59363.0"/>
  <text x="345" y="59368.5" font-family="Tahoma" font-size="12" transform="rotate(90 345,59368.5)" text-rendering="optimizeSpeed" fill="#000000">NetBSD (amd64) (5)</text>
  <rect fill="blue" height="0.5" stroke="black" width="12" x="360" y="59363.0"/>
  <text x="360" y="59368.5" font-family="Tahoma" font-size="12" transform="rotate(90 360,59368.5)" text-rendering="optimizeSpeed" fill="#000000">Windows Server 2016 Standard (amd64) (5)</text>
  <rect fill="blue" height="0.6" stroke="black" width="12" x="375" y="59362.9"/>
  <text x="375" y="59368.5" font-family="Tahoma" font-size="12" transform="rotate(90 375,59368.5)" text-rendering="optimizeSpeed" fill="#000000">Linux (sw64) (6)</text>
  <rect fill="blue" height="0.6" stroke="black" width="12" x="390" y="59362.9"/>
  <text x="390" y="59368.5" font-family="Tahoma" font-size="12" transform="rotate(90 390,59368.5)" text-rendering="optimizeSpeed" fill="#000000">OS/400 (ppc) (6)</text>
  <rect fill="blue" height="0.6" stroke="black" width="12" x="405" y="59362.9"/>
  <text x="405" y="59368.5" font-family="Tahoma" font-size="12" transform="rotate(90 405,59368.5)" text-rendering="optimizeSpeed" fill="#000000">Windows Vista (amd64) (6)</text>
  <rect fill="blue" height="0.6" stroke="black" width="12" x="420" y="59362.9"/>
  <text x="420" y="59368.5" font-family="Tahoma" font-size="12" transform="rotate(90 420,59368.5)" text-rendering="optimizeSpeed" fill="#000000">z/OS (s390) (6)</text>
  <rect fill="blue" height="0.7" stroke="black" width="12" x="435" y="59362.8"/>
  <text x="435" y="59368.5" font-family="Tahoma" font-size="12" transform="rotate(90 435,59368.5)" text-rendering="optimizeSpeed" fill="#000000">Linux (riscv64) (7)</text>
  <rect fill="blue" height="1.0" stroke="black" width="12" x="450" y="59362.5"/>
  <text x="450" y="59368.5" font-family="Tahoma" font-size="12" transform="rotate(90 450,59368.5)" text-rendering="optimizeSpeed" fill="#000000">OS400 (ppc64) (10)</text>
  <rect fill="blue" height="1.1" stroke="black" width="12" x="465" y="59362.4"/>
  <text x="465" y="59368.5" font-family="Tahoma" font-size="12" transform="rotate(90 465,59368.5)" text-rendering="optimizeSpeed" fill="#000000">NONSTOP_KERNEL (x86_64N) (11)</text>
  <rect fill="blue" height="1.6" stroke="black" width="12" x="480" y="59361.9"/>
  <text x="480" y="59368.5" font-family="Tahoma" font-size="12" transform="rotate(90 480,59368.5)" text-rendering="optimizeSpeed" fill="#000000">HP-UX (PA_RISC2.0) (16)</text>
  <rect fill="blue" height="2.2" stroke="black" width="12" x="495" y="59361.3"/>
  <text x="495" y="59368.5" font-family="Tahoma" font-size="12" transform="rotate(90 495,59368.5)" text-rendering="optimizeSpeed" fill="#000000">Linux (ppc) (22)</text>
  <rect fill="blue" height="2.5" stroke="black" width="12" x="510" y="59361.0"/>
  <text x="510" y="59368.5" font-family="Tahoma" font-size="12" transform="rotate(90 510,59368.5)" text-rendering="optimizeSpeed" fill="#000000">Linux (x86) (25)</text>
  <rect fill="blue" height="2.5" stroke="black" width="12" x="525" y="59361.0"/>
  <text x="525" y="59368.5" font-family="Tahoma" font-size="12" transform="rotate(90 525,59368.5)" text-rendering="optimizeSpeed" fill="#000000">OpenBSD (amd64) (25)</text>
  <rect fill="blue" height="3.1" stroke="black" width="12" x="540" y="59360.4"/>
  <text x="540" y="59368.5" font-family="Tahoma" font-size="12" transform="rotate(90 540,59368.5)" text-rendering="optimizeSpeed" fill="#000000">Windows Vista (x86) (31)</text>
  <rect fill="blue" height="3.5" stroke="black" width="12" x="555" y="59360.0"/>
  <text x="555" y="59368.5" font-family="Tahoma" font-size="12" transform="rotate(90 555,59368.5)" text-rendering="optimizeSpeed" fill="#000000">Linux (loongarch64) (35)</text>
  <rect fill="blue" height="4.1" stroke="black" width="12" x="570" y="59359.4"/>
  <text x="570" y="59368.5" font-family="Tahoma" font-size="12" transform="rotate(90 570,59368.5)" text-rendering="optimizeSpeed" fill="#000000">HP-UX (IA64W) (41)</text>
  <rect fill="blue" height="4.5" stroke="black" width="12" x="585" y="59359.0"/>
  <text x="585" y="59368.5" font-family="Tahoma" font-size="12" transform="rotate(90 585,59368.5)" text-rendering="optimizeSpeed" fill="#000000">Windows 2003 (amd64) (45)</text>
  <rect fill="blue" height="5.0" stroke="black" width="12" x="600" y="59358.5"/>
  <text x="600" y="59368.5" font-family="Tahoma" font-size="12" transform="rotate(90 600,59368.5)" text-rendering="optimizeSpeed" fill="#000000">FreeBSD (i386) (50)</text>
  <rect fill="blue" height="5.1" stroke="black" width="12" x="615" y="59358.4"/>
  <text x="615" y="59368.5" font-family="Tahoma" font-size="12" transform="rotate(90 615,59368.5)" text-rendering="optimizeSpeed" fill="#000000">OS/400 (ppc64) (51)</text>
  <rect fill="blue" height="7.0" stroke="black" width="12" x="630" y="59356.5"/>
  <text x="630" y="59368.5" font-family="Tahoma" font-size="12" transform="rotate(90 630,59368.5)" text-rendering="optimizeSpeed" fill="#000000">Linux (mips64el) (70)</text>
  <rect fill="blue" height="8.0" stroke="black" width="12" x="645" y="59355.5"/>
  <text x="645" y="59368.5" font-family="Tahoma" font-size="12" transform="rotate(90 645,59368.5)" text-rendering="optimizeSpeed" fill="#000000">Linux (ppc64) (80)</text>
  <rect fill="blue" height="10.2" stroke="black" width="12" x="660" y="59353.3"/>
  <text x="660" y="59368.5" font-family="Tahoma" font-size="12" transform="rotate(90 660,59368.5)" text-rendering="optimizeSpeed" fill="#000000">SunOS (x86) (102)</text>
  <rect fill="blue" height="11.6" stroke="black" width="12" x="675" y="59351.9"/>
  <text x="675" y="59368.5" font-family="Tahoma" font-size="12" transform="rotate(90 675,59368.5)" text-rendering="optimizeSpeed" fill="#000000">Windows 8 (x86) (116)</text>
  <rect fill="blue" height="12.0" stroke="black" width="12" x="690" y="59351.5"/>
  <text x="690" y="59368.5" font-family="Tahoma" font-size="12" transform="rotate(90 690,59368.5)" text-rendering="optimizeSpeed" fill="#000000">AIX (ppc) (120)</text>
  <rect fill="blue" height="13.0" stroke="black" width="12" x="705" y="59350.5"/>
  <text x="705" y="59368.5" font-family="Tahoma" font-size="12" transform="rotate(90 705,59368.5)" text-rendering="optimizeSpeed" fill="#000000">Windows Server 2008 (amd64) (130)</text>
  <rect fill="blue" height="13.6" stroke="black" width="12" x="720" y="59349.9"/>
  <text x="720" y="59368.5" font-family="Tahoma" font-size="12" transform="rotate(90 720,59368.5)" text-rendering="optimizeSpeed" fill="#000000">SunOS (sparc) (136)</text>
  <rect fill="blue" height="17.8" stroke="black" width="12" x="735" y="59345.7"/>
  <text x="735" y="59368.5" font-family="Tahoma" font-size="12" transform="rotate(90 735,59368.5)" text-rendering="optimizeSpeed" fill="#000000">Windows 8 (amd64) (178)</text>
  <rect fill="blue" height="18.2" stroke="black" width="12" x="750" y="59345.3"/>
  <text x="750" y="59368.5" font-family="Tahoma" font-size="12" transform="rotate(90 750,59368.5)" text-rendering="optimizeSpeed" fill="#000000">z/OS (s390x) (182)</text>
  <rect fill="blue" height="19.5" stroke="black" width="12" x="765" y="59344.0"/>
  <text x="765" y="59368.5" font-family="Tahoma" font-size="12" transform="rotate(90 765,59368.5)" text-rendering="optimizeSpeed" fill="#000000">Windows Server 2008 (x86) (195)</text>
  <rect fill="blue" height="27.7" stroke="black" width="12" x="780" y="59335.8"/>
  <text x="780" y="59368.5" font-family="Tahoma" font-size="12" transform="rotate(90 780,59368.5)" text-rendering="optimizeSpeed" fill="#000000">HP-UX (IA64N) (277)</text>
  <rect fill="blue" height="34.1" stroke="black" width="12" x="795" y="59329.4"/>
  <text x="795" y="59368.5" font-family="Tahoma" font-size="12" transform="rotate(90 795,59368.5)" text-rendering="optimizeSpeed" fill="#000000">Windows XP (x86) (341)</text>
  <rect fill="blue" height="40.7" stroke="black" width="12" x="810" y="59322.8"/>
  <text x="810" y="59368.5" font-family="Tahoma" font-size="12" transform="rotate(90 810,59368.5)" text-rendering="optimizeSpeed" fill="#000000">Linux (s390x) (407)</text>
  <rect fill="blue" height="60.7" stroke="black" width="12" x="825" y="59302.8"/>
  <text x="825" y="59368.5" font-family="Tahoma" font-size="12" transform="rotate(90 825,59368.5)" text-rendering="optimizeSpeed" fill="#000000">SunOS (amd64) (607)</text>
  <rect fill="blue" height="63.1" stroke="black" width="12" x="840" y="59300.4"/>
  <text x="840" y="59368.5" font-family="Tahoma" font-size="12" transform="rotate(90 840,59368.5)" text-rendering="optimizeSpeed" fill="#000000">Windows Server 2012 (x86) (631)</text>
  <rect fill="blue" height="66.1" stroke="black" width="12" x="855" y="59297.4"/>
  <text x="855" y="59368.5" font-family="Tahoma" font-size="12" transform="rotate(90 855,59368.5)" text-rendering="optimizeSpeed" fill="#000000">Windows NT (unknown) (x86) (661)</text>
  <rect fill="blue" height="70.5" stroke="black" width="12" x="870" y="59293.0"/>
  <text x="870" y="59368.5" font-family="Tahoma" font-size="12" transform="rotate(90 870,59368.5)" text-rendering="optimizeSpeed" fill="#000000">Linux (ppc64le) (705)</text>
  <rect fill="blue" height="71.2" stroke="black" width="12" x="885" y="59292.3"/>
  <text x="885" y="59368.5" font-family="Tahoma" font-size="12" transform="rotate(90 885,59368.5)" text-rendering="optimizeSpeed" fill="#000000">FreeBSD (amd64) (712)</text>
  <rect fill="blue" height="75.4" stroke="black" width="12" x="900" y="59288.1"/>
  <text x="900" y="59368.5" font-family="Tahoma" font-size="12" transform="rotate(90 900,59368.5)" text-rendering="optimizeSpeed" fill="#000000">Windows 8.1 (x86) (754)</text>
  <rect fill="blue" height="111.4" stroke="black" width="12" x="915" y="59252.1"/>
  <text x="915" y="59368.5" font-family="Tahoma" font-size="12" transform="rotate(90 915,59368.5)" text-rendering="optimizeSpeed" fill="#000000">Mac OS X (aarch64) (1114)</text>
  <rect fill="blue" height="114.0" stroke="black" width="12" x="930" y="59249.5"/>
  <text x="930" y="59368.5" font-family="Tahoma" font-size="12" transform="rotate(90 930,59368.5)" text-rendering="optimizeSpeed" fill="#000000">SunOS (sparcv9) (1140)</text>
  <rect fill="blue" height="138.5" stroke="black" width="12" x="945" y="59225.0"/>
  <text x="945" y="59368.5" font-family="Tahoma" font-size="12" transform="rotate(90 945,59368.5)" text-rendering="optimizeSpeed" fill="#000000">Windows Server 2012 (amd64) (1385)</text>
  <rect fill="blue" height="146.7" stroke="black" width="12" x="960" y="59216.8"/>
  <text x="960" y="59368.5" font-family="Tahoma" font-size="12" transform="rotate(90 960,59368.5)" text-rendering="optimizeSpeed" fill="#000000">Windows 2003 (x86) (1467)</text>
  <rect fill="blue" height="178.3" stroke="black" width="12" x="975" y="59185.2"/>
  <text x="975" y="59368.5" font-family="Tahoma" font-size="12" transform="rotate(90 975,59368.5)" text-rendering="optimizeSpeed" fill="#000000">Windows 8.1 (amd64) (1783)</text>
  <rect fill="blue" height="198.2" stroke="black" width="12" x="990" y="59165.3"/>
  <text x="990" y="59368.5" font-family="Tahoma" font-size="12" transform="rotate(90 990,59368.5)" text-rendering="optimizeSpeed" fill="#000000">Windows Server 2019 (x86) (1982)</text>
  <rect fill="blue" height="198.9" stroke="black" width="12" x="1005" y="59164.6"/>
  <text x="1005" y="59368.5" font-family="Tahoma" font-size="12" transform="rotate(90 1005,59368.5)" text-rendering="optimizeSpeed" fill="#000000">AIX (ppc64) (1989)</text>
  <rect fill="blue" height="213.2" stroke="black" width="12" x="1020" y="59150.3"/>
  <text x="1020" y="59368.5" font-family="Tahoma" font-size="12" transform="rotate(90 1020,59368.5)" text-rendering="optimizeSpeed" fill="#000000">Windows Server 2008 R2 (x86) (2132)</text>
  <rect fill="blue" height="246.1" stroke="black" width="12" x="1035" y="59117.4"/>
  <text x="1035" y="59368.5" font-family="Tahoma" font-size="12" transform="rotate(90 1035,59368.5)" text-rendering="optimizeSpeed" fill="#000000">Windows NT (unknown) (amd64) (2461)</text>
  <rect fill="blue" height="341.8" stroke="black" width="12" x="1050" y="59021.7"/>
  <text x="1050" y="59368.5" font-family="Tahoma" font-size="12" transform="rotate(90 1050,59368.5)" text-rendering="optimizeSpeed" fill="#000000">Linux (arm) (3418)</text>
  <rect fill="blue" height="465.3" stroke="black" width="12" x="1065" y="58898.2"/>
  <text x="1065" y="59368.5" font-family="Tahoma" font-size="12" transform="rotate(90 1065,59368.5)" text-rendering="optimizeSpeed" fill="#000000">Linux (i386) (4653)</text>
  <rect fill="blue" height="515.6" stroke="black" width="12" x="1080" y="58847.9"/>
  <text x="1080" y="59368.5" font-family="Tahoma" font-size="12" transform="rotate(90 1080,59368.5)" text-rendering="optimizeSpeed" fill="#000000">Windows 7 (x86) (5156)</text>
  <rect fill="blue" height="536.2" stroke="black" width="12" x="1095" y="58827.3"/>
  <text x="1095" y="59368.5" font-family="Tahoma" font-size="12" transform="rotate(90 1095,59368.5)" text-rendering="optimizeSpeed" fill="#000000">Windows Server 2008 R2 (amd64) (5362)</text>
  <rect fill="blue" height="600.2" stroke="black" width="12" x="1110" y="58763.3"/>
  <text x="1110" y="59368.5" font-family="Tahoma" font-size="12" transform="rotate(90 1110,59368.5)" text-rendering="optimizeSpeed" fill="#000000">Linux (aarch64) (6002)</text>
  <rect fill="blue" height="659.5" stroke="black" width="12" x="1125" y="58704.0"/>
  <text x="1125" y="59368.5" font-family="Tahoma" font-size="12" transform="rotate(90 1125,59368.5)" text-rendering="optimizeSpeed" fill="#000000">Windows 7 (amd64) (6595)</text>
  <rect fill="blue" height="790.7" stroke="black" width="12" x="1140" y="58572.8"/>
  <text x="1140" y="59368.5" font-family="Tahoma" font-size="12" transform="rotate(90 1140,59368.5)" text-rendering="optimizeSpeed" fill="#000000">Windows Server 2012 R2 (x86) (7907)</text>
  <rect fill="blue" height="1144.9" stroke="black" width="12" x="1155" y="58218.6"/>
  <text x="1155" y="59368.5" font-family="Tahoma" font-size="12" transform="rotate(90 1155,59368.5)" text-rendering="optimizeSpeed" fill="#000000">Windows Server 2016 (x86) (11449)</text>
  <rect fill="blue" height="1433.9" stroke="black" width="12" x="1170" y="57929.6"/>
  <text x="1170" y="59368.5" font-family="Tahoma" font-size="12" transform="rotate(90 1170,59368.5)" text-rendering="optimizeSpeed" fill="#000000">Windows Server 2019 (amd64) (14339)</text>
  <rect fill="blue" height="2094.6" stroke="black" width="12" x="1185" y="57268.9"/>
  <text x="1185" y="59368.5" font-family="Tahoma" font-size="12" transform="rotate(90 1185,59368.5)" text-rendering="optimizeSpeed" fill="#000000">Windows 10 (x86) (20946)</text>
  <rect fill="blue" height="2294.3" stroke="black" width="12" x="1200" y="57069.2"/>
  <text x="1200" y="59368.5" font-family="Tahoma" font-size="12" transform="rotate(90 1200,59368.5)" text-rendering="optimizeSpeed" fill="#000000">Windows Server 2012 R2 (amd64) (22943)</text>
  <rect fill="blue" height="2976.0" stroke="black" width="12" x="1215" y="56387.5"/>
  <text x="1215" y="59368.5" font-family="Tahoma" font-size="12" transform="rotate(90 1215,59368.5)" text-rendering="optimizeSpeed" fill="#000000">Mac OS X (x86_64) (29760)</text>
  <rect fill="blue" height="3062.7" stroke="black" width="12" x="1230" y="56300.8"/>
  <text x="1230" y="59368.5" font-family="Tahoma" font-size="12" transform="rotate(90 1230,59368.5)" text-rendering="optimizeSpeed" fill="#000000">Windows Server 2016 (amd64) (30627)</text>
  <rect fill="blue" height="6943.9" stroke="black" width="12" x="1245" y="52419.6"/>
  <text x="1245" y="59368.5" font-family="Tahoma" font-size="12" transform="rotate(90 1245,59368.5)" text-rendering="optimizeSpeed" fill="#000000">Windows 10 (amd64) (69439)</text>
  <rect fill="blue" height="30368.6" stroke="black" width="12" x="1260" y="28994.9"/>
  <text x="1260" y="59368.5" font-family="Tahoma" font-size="12" transform="rotate(90 1260,59368.5)" text-rendering="optimizeSpeed" fill="#000000">N/A (303686)</text>
  <rect fill="blue" height="59313.5" stroke="black" width="12" x="1275" y="50.0"/>
  <text x="1275" y="59368.5" font-family="Tahoma" font-size="12" transform="rotate(90 1275,59368.5)" text-rendering="optimizeSpeed" fill="#000000">Linux (amd64) (593135)</text>
  <text x="10" y="40" font-family="Tahoma" font-size="20" text-rendering="optimizeSpeed" fill="#000000">Nodes (total: 1157715)</text>
</svg>
