<svg xmlns="http://www.w3.org/2000/svg" version="1.1" preserveAspectRatio="xMidYMid meet" viewBox="0 0 485 28411.8">
  <rect fill="blue" height="0.0" stroke="black" width="12" x="15" y="28111.8"/>
  <text x="15" y="28116.8" font-family="Tahoma" font-size="12" transform="rotate(90 15,28116.8)" text-rendering="optimizeSpeed" fill="#000000">com-google-jenkins-plugins-dsl-YamlProject (1)</text>
  <rect fill="blue" height="0.0" stroke="black" width="12" x="30" y="28111.8"/>
  <text x="30" y="28116.8" font-family="Tahoma" font-size="12" transform="rotate(90 30,28116.8)" text-rendering="optimizeSpeed" fill="#000000">hudson-plugins-wormpex-data-template-DataWarehouseStyleProject (1)</text>
  <rect fill="blue" height="0.0" stroke="black" width="12" x="45" y="28111.8"/>
  <text x="45" y="28116.8" font-family="Tahoma" font-size="12" transform="rotate(90 45,28116.8)" text-rendering="optimizeSpeed" fill="#000000">hudson-plugins-customer-data-template-DependencyStyleProject (2)</text>
  <rect fill="blue" height="0.0" stroke="black" width="12" x="60" y="28111.8"/>
  <text x="60" y="28116.8" font-family="Tahoma" font-size="12" transform="rotate(90 60,28116.8)" text-rendering="optimizeSpeed" fill="#000000">com-github-mjdetullio-jenkins-plugins-multibranch-IvyMultiBranchProject (3)</text>
  <rect fill="blue" height="0.0" stroke="black" width="12" x="75" y="28111.8"/>
  <text x="75" y="28116.8" font-family="Tahoma" font-size="12" transform="rotate(90 75,28116.8)" text-rendering="optimizeSpeed" fill="#000000">org-jvnet-hudson-test-MockFolder (3)</text>
  <rect fill="blue" height="0.0" stroke="black" width="12" x="90" y="28111.8"/>
  <text x="90" y="28116.8" font-family="Tahoma" font-size="12" transform="rotate(90 90,28116.8)" text-rendering="optimizeSpeed" fill="#000000">org-jenkinsci-plugins-drupal-projects-DrupalProject (4)</text>
  <rect fill="blue" height="0.0" stroke="black" width="12" x="105" y="28111.8"/>
  <text x="105" y="28116.8" font-family="Tahoma" font-size="12" transform="rotate(90 105,28116.8)" text-rendering="optimizeSpeed" fill="#000000">org-jenkinsci-plugins-pipeline-multibranch-defaults-git-PipelineMultiBranchDefaultsGitProject (4)</text>
  <rect fill="blue" height="0.0" stroke="black" width="12" x="120" y="28111.8"/>
  <text x="120" y="28116.8" font-family="Tahoma" font-size="12" transform="rotate(90 120,28116.8)" text-rendering="optimizeSpeed" fill="#000000">org-jenkinsci-plugins-coordinator-dummy-model-CoordinatorProject (10)</text>
  <rect fill="blue" height="0.0" stroke="black" width="12" x="135" y="28111.8"/>
  <text x="135" y="28116.8" font-family="Tahoma" font-size="12" transform="rotate(90 135,28116.8)" text-rendering="optimizeSpeed" fill="#000000">com-barchart-jenkins-cascade-CascadeProject (19)</text>
  <rect fill="blue" height="0.1" stroke="black" width="12" x="150" y="28111.7"/>
  <text x="150" y="28116.8" font-family="Tahoma" font-size="12" transform="rotate(90 150,28116.8)" text-rendering="optimizeSpeed" fill="#000000">hudson-plugin-smartjob-SmartJob (74)</text>
  <rect fill="blue" height="0.2" stroke="black" width="12" x="165" y="28111.6"/>
  <text x="165" y="28116.8" font-family="Tahoma" font-size="12" transform="rotate(90 165,28116.8)" text-rendering="optimizeSpeed" fill="#000000">com-github-mjdetullio-jenkins-plugins-multibranch-MatrixMultiBranchProject (222)</text>
  <rect fill="blue" height="0.3" stroke="black" width="12" x="180" y="28111.5"/>
  <text x="180" y="28116.8" font-family="Tahoma" font-size="12" transform="rotate(90 180,28116.8)" text-rendering="optimizeSpeed" fill="#000000">captmorgan-ExternalProject (315)</text>
  <rect fill="blue" height="0.5" stroke="black" width="12" x="195" y="28111.3"/>
  <text x="195" y="28116.8" font-family="Tahoma" font-size="12" transform="rotate(90 195,28116.8)" text-rendering="optimizeSpeed" fill="#000000">org-jenkinsci-plugins-coordinator-model-CoordinatorProject (466)</text>
  <rect fill="blue" height="1.5" stroke="black" width="12" x="210" y="28110.3"/>
  <text x="210" y="28116.8" font-family="Tahoma" font-size="12" transform="rotate(90 210,28116.8)" text-rendering="optimizeSpeed" fill="#000000">com-github-mjdetullio-jenkins-plugins-multibranch-FreeStyleMultiBranchProject (1507)</text>
  <rect fill="blue" height="1.8" stroke="black" width="12" x="225" y="28110.0"/>
  <text x="225" y="28116.8" font-family="Tahoma" font-size="12" transform="rotate(90 225,28116.8)" text-rendering="optimizeSpeed" fill="#000000">org-jenkinsci-plugins-jobgenerator-JobGenerator (1838)</text>
  <rect fill="blue" height="3.2" stroke="black" width="12" x="240" y="28108.6"/>
  <text x="240" y="28116.8" font-family="Tahoma" font-size="12" transform="rotate(90 240,28116.8)" text-rendering="optimizeSpeed" fill="#000000">com-github-mjdetullio-jenkins-plugins-multibranch-MavenMultiBranchProject (3212)</text>
  <rect fill="blue" height="3.7" stroke="black" width="12" x="255" y="28108.1"/>
  <text x="255" y="28116.8" font-family="Tahoma" font-size="12" transform="rotate(90 255,28116.8)" text-rendering="optimizeSpeed" fill="#000000">hudson-ivy-IvyModuleSet (3704)</text>
  <rect fill="blue" height="5.8" stroke="black" width="12" x="270" y="28106.0"/>
  <text x="270" y="28116.8" font-family="Tahoma" font-size="12" transform="rotate(90 270,28116.8)" text-rendering="optimizeSpeed" fill="#000000">hudson-model-ExternalJob (5768)</text>
  <rect fill="blue" height="8.4" stroke="black" width="12" x="285" y="28103.4"/>
  <text x="285" y="28116.8" font-family="Tahoma" font-size="12" transform="rotate(90 285,28116.8)" text-rendering="optimizeSpeed" fill="#000000">org-jenkinsci-plugins-pipeline-multibranch-defaults-PipelineMultiBranchDefaultsProject (8447)</text>
  <rect fill="blue" height="15.5" stroke="black" width="12" x="300" y="28096.3"/>
  <text x="300" y="28116.8" font-family="Tahoma" font-size="12" transform="rotate(90 300,28116.8)" text-rendering="optimizeSpeed" fill="#000000">hudson-plugins-project_inheritance-projects-InheritanceProject (15472)</text>
  <rect fill="blue" height="27.2" stroke="black" width="12" x="315" y="28084.6"/>
  <text x="315" y="28116.8" font-family="Tahoma" font-size="12" transform="rotate(90 315,28116.8)" text-rendering="optimizeSpeed" fill="#000000">com-cloudbees-plugins-flow-BuildFlow (27170)</text>
  <rect fill="blue" height="44.0" stroke="black" width="12" x="330" y="28067.8"/>
  <text x="330" y="28116.8" font-family="Tahoma" font-size="12" transform="rotate(90 330,28116.8)" text-rendering="optimizeSpeed" fill="#000000">jenkins-branch-OrganizationFolder (44046)</text>
  <rect fill="blue" height="405.8" stroke="black" width="12" x="345" y="27706.0"/>
  <text x="345" y="28116.8" font-family="Tahoma" font-size="12" transform="rotate(90 345,28116.8)" text-rendering="optimizeSpeed" fill="#000000">hudson-matrix-MatrixProject (405783)</text>
  <rect fill="blue" height="735.8" stroke="black" width="12" x="360" y="27376.0"/>
  <text x="360" y="28116.8" font-family="Tahoma" font-size="12" transform="rotate(90 360,28116.8)" text-rendering="optimizeSpeed" fill="#000000">com-tikal-jenkins-plugins-multijob-MultiJobProject (735796)</text>
  <rect fill="blue" height="1402.5" stroke="black" width="12" x="375" y="26709.3"/>
  <text x="375" y="28116.8" font-family="Tahoma" font-size="12" transform="rotate(90 375,28116.8)" text-rendering="optimizeSpeed" fill="#000000">org-jenkinsci-plugins-workflow-multibranch-WorkflowMultiBranchProject (1402509)</text>
  <rect fill="blue" height="2219.0" stroke="black" width="12" x="390" y="25892.9"/>
  <text x="390" y="28116.8" font-family="Tahoma" font-size="12" transform="rotate(90 390,28116.8)" text-rendering="optimizeSpeed" fill="#000000">com-cloudbees-hudson-plugins-folder-Folder (2218954)</text>
  <rect fill="blue" height="2236.0" stroke="black" width="12" x="405" y="25875.8"/>
  <text x="405" y="28116.8" font-family="Tahoma" font-size="12" transform="rotate(90 405,28116.8)" text-rendering="optimizeSpeed" fill="#000000">hudson-maven-MavenModuleSet (2236039)</text>
  <rect fill="blue" height="19942.0" stroke="black" width="12" x="420" y="8169.8"/>
  <text x="420" y="28116.8" font-family="Tahoma" font-size="12" transform="rotate(90 420,28116.8)" text-rendering="optimizeSpeed" fill="#000000">hudson-model-FreeStyleProject (19941964)</text>
  <rect fill="blue" height="28061.8" stroke="black" width="12" x="435" y="50.0"/>
  <text x="435" y="28116.8" font-family="Tahoma" font-size="12" transform="rotate(90 435,28116.8)" text-rendering="optimizeSpeed" fill="#000000">org-jenkinsci-plugins-workflow-job-WorkflowJob (28061814)</text>
  <text x="10" y="40" font-family="Tahoma" font-size="20" text-rendering="optimizeSpeed" fill="#000000">Jobs (total: 55115147)</text>
</svg>
