<svg xmlns="http://www.w3.org/2000/svg" version="1.1" preserveAspectRatio="xMidYMid meet" viewBox="0 0 720 2600">
  <text x="30" y="40" font-family="sans-serif" font-size="16">Nodes, total: 1157715</text>
  <path d="M 200,300 L 0.0,150.0 A 150,150 0 0 1 0.2,150.0 Z" fill="BurlyWood" stroke="black" stroke-width="1"/>
  <rect x="370" y="50" width="20" height="30" fill="BurlyWood" stroke="black" stroke-width="1"/>
  <text x="400" y="38" font-family="sans-serif" font-size="16">AIX (ppc) (120)</text>
  <path d="M 200,300 L 0.2,150.0 A 150,150 0 0 1 4.0,150.0 Z" fill="CadetBlue" stroke="black" stroke-width="1"/>
  <rect x="370" y="51" width="20" height="30" fill="CadetBlue" stroke="black" stroke-width="1"/>
  <text x="400" y="68" font-family="sans-serif" font-size="16">AIX (ppc64) (1989)</text>
  <path d="M 200,300 L 4.0,150.0 A 150,150 0 0 1 4.0,150.0 Z" fill="red" stroke="black" stroke-width="1"/>
  <rect x="370" y="52" width="20" height="30" fill="red" stroke="black" stroke-width="1"/>
  <text x="400" y="98" font-family="sans-serif" font-size="16">DragonFlyBSD (amd64) (2)</text>
  <path d="M 200,300 L 4.0,150.0 A 150,150 0 0 1 4.0,150.0 Z" fill="blue" stroke="black" stroke-width="1"/>
  <rect x="370" y="53" width="20" height="30" fill="blue" stroke="black" stroke-width="1"/>
  <text x="400" y="128" font-family="sans-serif" font-size="16">FreeBSD (aarch64) (2)</text>
  <path d="M 200,300 L 4.0,150.0 A 150,150 0 0 1 5.4,150.0 Z" fill="yellow" stroke="black" stroke-width="1"/>
  <rect x="370" y="54" width="20" height="30" fill="yellow" stroke="black" stroke-width="1"/>
  <text x="400" y="158" font-family="sans-serif" font-size="16">FreeBSD (amd64) (712)</text>
  <path d="M 200,300 L 5.4,150.0 A 150,150 0 0 1 5.5,150.0 Z" fill="green" stroke="black" stroke-width="1"/>
  <rect x="370" y="55" width="20" height="30" fill="green" stroke="black" stroke-width="1"/>
  <text x="400" y="188" font-family="sans-serif" font-size="16">FreeBSD (i386) (50)</text>
  <path d="M 200,300 L 5.5,150.0 A 150,150 0 0 1 6.0,150.0 Z" fill="gold" stroke="black" stroke-width="1"/>
  <rect x="370" y="56" width="20" height="30" fill="gold" stroke="black" stroke-width="1"/>
  <text x="400" y="218" font-family="sans-serif" font-size="16">HP-UX (IA64N) (277)</text>
  <path d="M 200,300 L 6.0,150.0 A 150,150 0 0 1 6.1,150.0 Z" fill="brown" stroke="black" stroke-width="1"/>
  <rect x="370" y="57" width="20" height="30" fill="brown" stroke="black" stroke-width="1"/>
  <text x="400" y="248" font-family="sans-serif" font-size="16">HP-UX (IA64W) (41)</text>
  <path d="M 200,300 L 6.1,150.0 A 150,150 0 0 1 6.1,150.0 Z" fill="Azure" stroke="black" stroke-width="1"/>
  <rect x="370" y="58" width="20" height="30" fill="Azure" stroke="black" stroke-width="1"/>
  <text x="400" y="278" font-family="sans-serif" font-size="16">HP-UX (PA_RISC2.0) (16)</text>
  <path d="M 200,300 L 6.1,150.0 A 150,150 0 0 1 6.1,150.0 Z" fill="pink" stroke="black" stroke-width="1"/>
  <rect x="370" y="59" width="20" height="30" fill="pink" stroke="black" stroke-width="1"/>
  <text x="400" y="308" font-family="sans-serif" font-size="16">HP-UX (ia64) (4)</text>
  <path d="M 200,300 L 6.1,150.0 A 150,150 0 0 1 17.5,149.8 Z" fill="khaki" stroke="black" stroke-width="1"/>
  <rect x="370" y="60" width="20" height="30" fill="khaki" stroke="black" stroke-width="1"/>
  <text x="400" y="338" font-family="sans-serif" font-size="16">Linux (aarch64) (6002)</text>
  <path d="M 200,300 L 17.5,149.8 A 150,150 0 1 1 -44.5,-148.8 Z" fill="gray" stroke="black" stroke-width="1"/>
  <rect x="370" y="61" width="20" height="30" fill="gray" stroke="black" stroke-width="1"/>
  <text x="400" y="368" font-family="sans-serif" font-size="16">Linux (amd64) (593135)</text>
  <path d="M 200,300 L -44.5,-148.8 A 150,150 0 0 1 -50.9,-148.4 Z" fill="Aqua" stroke="black" stroke-width="1"/>
  <rect x="370" y="62" width="20" height="30" fill="Aqua" stroke="black" stroke-width="1"/>
  <text x="400" y="398" font-family="sans-serif" font-size="16">Linux (arm) (3418)</text>
  <path d="M 200,300 L -50.9,-148.4 A 150,150 0 0 1 -50.9,-148.4 Z" fill="Aquamarine" stroke="black" stroke-width="1"/>
  <rect x="370" y="63" width="20" height="30" fill="Aquamarine" stroke="black" stroke-width="1"/>
  <text x="400" y="428" font-family="sans-serif" font-size="16">Linux (e2k) (1)</text>
  <path d="M 200,300 L -50.9,-148.4 A 150,150 0 0 1 -59.7,-147.8 Z" fill="beige" stroke="black" stroke-width="1"/>
  <rect x="370" y="64" width="20" height="30" fill="beige" stroke="black" stroke-width="1"/>
  <text x="400" y="458" font-family="sans-serif" font-size="16">Linux (i386) (4653)</text>
  <path d="M 200,300 L -59.7,-147.8 A 150,150 0 0 1 -59.7,-147.8 Z" fill="blueviolet" stroke="black" stroke-width="1"/>
  <rect x="370" y="65" width="20" height="30" fill="blueviolet" stroke="black" stroke-width="1"/>
  <text x="400" y="488" font-family="sans-serif" font-size="16">Linux (ia64) (2)</text>
  <path d="M 200,300 L -59.7,-147.8 A 150,150 0 0 1 -59.7,-147.8 Z" fill="Bisque" stroke="black" stroke-width="1"/>
  <rect x="370" y="66" width="20" height="30" fill="Bisque" stroke="black" stroke-width="1"/>
  <text x="400" y="518" font-family="sans-serif" font-size="16">Linux (loongarch64) (35)</text>
  <path d="M 200,300 L -59.7,-147.8 A 150,150 0 0 1 -59.9,-147.8 Z" fill="coral" stroke="black" stroke-width="1"/>
  <rect x="370" y="67" width="20" height="30" fill="coral" stroke="black" stroke-width="1"/>
  <text x="400" y="548" font-family="sans-serif" font-size="16">Linux (mips64el) (70)</text>
  <path d="M 200,300 L -59.9,-147.8 A 150,150 0 0 1 -59.9,-147.8 Z" fill="darkblue" stroke="black" stroke-width="1"/>
  <rect x="370" y="68" width="20" height="30" fill="darkblue" stroke="black" stroke-width="1"/>
  <text x="400" y="578" font-family="sans-serif" font-size="16">Linux (ppc) (22)</text>
  <path d="M 200,300 L -59.9,-147.8 A 150,150 0 0 1 -60.1,-147.8 Z" fill="crimson" stroke="black" stroke-width="1"/>
  <rect x="370" y="69" width="20" height="30" fill="crimson" stroke="black" stroke-width="1"/>
  <text x="400" y="608" font-family="sans-serif" font-size="16">Linux (ppc64) (80)</text>
  <path d="M 200,300 L -60.1,-147.8 A 150,150 0 0 1 -61.4,-147.7 Z" fill="cyan" stroke="black" stroke-width="1"/>
  <rect x="370" y="70" width="20" height="30" fill="cyan" stroke="black" stroke-width="1"/>
  <text x="400" y="638" font-family="sans-serif" font-size="16">Linux (ppc64le) (705)</text>
  <path d="M 200,300 L -61.4,-147.7 A 150,150 0 0 1 -61.4,-147.7 Z" fill="darkred" stroke="black" stroke-width="1"/>
  <rect x="370" y="71" width="20" height="30" fill="darkred" stroke="black" stroke-width="1"/>
  <text x="400" y="668" font-family="sans-serif" font-size="16">Linux (riscv) (1)</text>
  <path d="M 200,300 L -61.4,-147.7 A 150,150 0 0 1 -61.4,-147.7 Z" fill="ivory" stroke="black" stroke-width="1"/>
  <rect x="370" y="72" width="20" height="30" fill="ivory" stroke="black" stroke-width="1"/>
  <text x="400" y="698" font-family="sans-serif" font-size="16">Linux (riscv64) (7)</text>
  <path d="M 200,300 L -61.4,-147.7 A 150,150 0 0 1 -61.4,-147.7 Z" fill="lime" stroke="black" stroke-width="1"/>
  <rect x="370" y="73" width="20" height="30" fill="lime" stroke="black" stroke-width="1"/>
  <text x="400" y="728" font-family="sans-serif" font-size="16">Linux (s390) (3)</text>
  <path d="M 200,300 L -61.4,-147.7 A 150,150 0 0 1 -62.2,-147.6 Z" fill="maroon" stroke="black" stroke-width="1"/>
  <rect x="370" y="74" width="20" height="30" fill="maroon" stroke="black" stroke-width="1"/>
  <text x="400" y="758" font-family="sans-serif" font-size="16">Linux (s390x) (407)</text>
  <path d="M 200,300 L -62.2,-147.6 A 150,150 0 0 1 -62.2,-147.6 Z" fill="navy" stroke="black" stroke-width="1"/>
  <rect x="370" y="75" width="20" height="30" fill="navy" stroke="black" stroke-width="1"/>
  <text x="400" y="788" font-family="sans-serif" font-size="16">Linux (sparcv9) (1)</text>
  <path d="M 200,300 L -62.2,-147.6 A 150,150 0 0 1 -62.2,-147.6 Z" fill="olive" stroke="black" stroke-width="1"/>
  <rect x="370" y="76" width="20" height="30" fill="olive" stroke="black" stroke-width="1"/>
  <text x="400" y="818" font-family="sans-serif" font-size="16">Linux (sw64) (6)</text>
  <path d="M 200,300 L -62.2,-147.6 A 150,150 0 0 1 -62.2,-147.6 Z" fill="plum" stroke="black" stroke-width="1"/>
  <rect x="370" y="77" width="20" height="30" fill="plum" stroke="black" stroke-width="1"/>
  <text x="400" y="848" font-family="sans-serif" font-size="16">Linux (x86) (25)</text>
  <path d="M 200,300 L -62.2,-147.6 A 150,150 0 0 1 -62.2,-147.6 Z" fill="peru" stroke="black" stroke-width="1"/>
  <rect x="370" y="78" width="20" height="30" fill="peru" stroke="black" stroke-width="1"/>
  <text x="400" y="878" font-family="sans-serif" font-size="16">Linux (x86_64) (1)</text>
  <path d="M 200,300 L -62.2,-147.6 A 150,150 0 0 1 -62.2,-147.6 Z" fill="silver" stroke="black" stroke-width="1"/>
  <rect x="370" y="79" width="20" height="30" fill="silver" stroke="black" stroke-width="1"/>
  <text x="400" y="908" font-family="sans-serif" font-size="16">Linux (zArch_64) (2)</text>
  <path d="M 200,300 L -62.2,-147.6 A 150,150 0 0 1 -64.3,-147.4 Z" fill="tan" stroke="black" stroke-width="1"/>
  <rect x="370" y="80" width="20" height="30" fill="tan" stroke="black" stroke-width="1"/>
  <text x="400" y="938" font-family="sans-serif" font-size="16">Mac OS X (aarch64) (1114)</text>
  <path d="M 200,300 L -64.3,-147.4 A 150,150 0 0 1 -118.8,-141.1 Z" fill="teal" stroke="black" stroke-width="1"/>
  <rect x="370" y="81" width="20" height="30" fill="teal" stroke="black" stroke-width="1"/>
  <text x="400" y="968" font-family="sans-serif" font-size="16">Mac OS X (x86_64) (29760)</text>
  <path d="M 200,300 L -118.8,-141.1 A 150,150 0 0 1 -118.8,-141.1 Z" fill="violet" stroke="black" stroke-width="1"/>
  <rect x="370" y="82" width="20" height="30" fill="violet" stroke="black" stroke-width="1"/>
  <text x="400" y="998" font-family="sans-serif" font-size="16">MidnightBSD (amd64) (1)</text>
  <path d="M 200,300 L -118.8,-141.1 A 150,150 0 0 1 -118.8,-141.1 Z" fill="AliceBlue" stroke="black" stroke-width="1"/>
  <rect x="370" y="83" width="20" height="30" fill="AliceBlue" stroke="black" stroke-width="1"/>
  <text x="400" y="1028" font-family="sans-serif" font-size="16">MidnightBSD (i386) (1)</text>
  <path d="M 200,300 L -118.8,-141.1 A 150,150 0 0 1 -319.1,61.7 Z" fill="DarkOliveGreen" stroke="black" stroke-width="1"/>
  <rect x="370" y="84" width="20" height="30" fill="DarkOliveGreen" stroke="black" stroke-width="1"/>
  <text x="400" y="1058" font-family="sans-serif" font-size="16">N/A (303686)</text>
  <path d="M 200,300 L -319.1,61.7 A 150,150 0 0 1 -319.1,61.7 Z" fill="Indigo" stroke="black" stroke-width="1"/>
  <rect x="370" y="85" width="20" height="30" fill="Indigo" stroke="black" stroke-width="1"/>
  <text x="400" y="1088" font-family="sans-serif" font-size="16">NONSTOP_KERNEL (IA64N) (3)</text>
  <path d="M 200,300 L -319.1,61.7 A 150,150 0 0 1 -319.0,61.7 Z" fill="MediumPurple" stroke="black" stroke-width="1"/>
  <rect x="370" y="86" width="20" height="30" fill="MediumPurple" stroke="black" stroke-width="1"/>
  <text x="400" y="1118" font-family="sans-serif" font-size="16">NONSTOP_KERNEL (x86_64N) (11)</text>
  <path d="M 200,300 L -319.0,61.7 A 150,150 0 0 1 -319.0,61.7 Z" fill="Purple" stroke="black" stroke-width="1"/>
  <rect x="370" y="87" width="20" height="30" fill="Purple" stroke="black" stroke-width="1"/>
  <text x="400" y="1148" font-family="sans-serif" font-size="16">NetBSD (amd64) (5)</text>
  <path d="M 200,300 L -319.0,61.7 A 150,150 0 0 1 -319.0,61.7 Z" fill="AntiqueWhite" stroke="black" stroke-width="1"/>
  <rect x="370" y="88" width="20" height="30" fill="AntiqueWhite" stroke="black" stroke-width="1"/>
  <text x="400" y="1178" font-family="sans-serif" font-size="16">NetBSD (i386) (1)</text>
  <path d="M 200,300 L -319.0,61.7 A 150,150 0 0 1 -319.0,61.7 Z" fill="DarkOrange" stroke="black" stroke-width="1"/>
  <rect x="370" y="89" width="20" height="30" fill="DarkOrange" stroke="black" stroke-width="1"/>
  <text x="400" y="1208" font-family="sans-serif" font-size="16">OS/400 (ppc) (6)</text>
  <path d="M 200,300 L -319.0,61.7 A 150,150 0 0 1 -319.0,61.7 Z" fill="Ivory" stroke="black" stroke-width="1"/>
  <rect x="370" y="90" width="20" height="30" fill="Ivory" stroke="black" stroke-width="1"/>
  <text x="400" y="1238" font-family="sans-serif" font-size="16">OS/400 (ppc64) (51)</text>
  <path d="M 200,300 L -319.0,61.7 A 150,150 0 0 1 -319.0,61.7 Z" fill="MediumSeaGreen" stroke="black" stroke-width="1"/>
  <rect x="370" y="91" width="20" height="30" fill="MediumSeaGreen" stroke="black" stroke-width="1"/>
  <text x="400" y="1268" font-family="sans-serif" font-size="16">OS400 (ppc64) (10)</text>
  <path d="M 200,300 L -319.0,61.7 A 150,150 0 0 1 -319.0,61.8 Z" fill="Red" stroke="black" stroke-width="1"/>
  <rect x="370" y="92" width="20" height="30" fill="Red" stroke="black" stroke-width="1"/>
  <text x="400" y="1298" font-family="sans-serif" font-size="16">OpenBSD (amd64) (25)</text>
  <path d="M 200,300 L -319.0,61.8 A 150,150 0 0 1 -319.0,61.8 Z" fill="Aqua" stroke="black" stroke-width="1"/>
  <rect x="370" y="93" width="20" height="30" fill="Aqua" stroke="black" stroke-width="1"/>
  <text x="400" y="1328" font-family="sans-serif" font-size="16">OpenBSD (i386) (1)</text>
  <path d="M 200,300 L -319.0,61.8 A 150,150 0 0 1 -318.5,62.2 Z" fill="DarkOrchid" stroke="black" stroke-width="1"/>
  <rect x="370" y="94" width="20" height="30" fill="DarkOrchid" stroke="black" stroke-width="1"/>
  <text x="400" y="1358" font-family="sans-serif" font-size="16">SunOS (amd64) (607)</text>
  <path d="M 200,300 L -318.5,62.2 A 150,150 0 0 1 -318.4,62.3 Z" fill="Khaki" stroke="black" stroke-width="1"/>
  <rect x="370" y="95" width="20" height="30" fill="Khaki" stroke="black" stroke-width="1"/>
  <text x="400" y="1388" font-family="sans-serif" font-size="16">SunOS (sparc) (136)</text>
  <path d="M 200,300 L -318.4,62.3 A 150,150 0 0 1 -317.5,63.1 Z" fill="MediumSlateBlue" stroke="black" stroke-width="1"/>
  <rect x="370" y="96" width="20" height="30" fill="MediumSlateBlue" stroke="black" stroke-width="1"/>
  <text x="400" y="1418" font-family="sans-serif" font-size="16">SunOS (sparcv9) (1140)</text>
  <path d="M 200,300 L -317.5,63.1 A 150,150 0 0 1 -317.4,63.2 Z" fill="RosyBrown" stroke="black" stroke-width="1"/>
  <rect x="370" y="97" width="20" height="30" fill="RosyBrown" stroke="black" stroke-width="1"/>
  <text x="400" y="1448" font-family="sans-serif" font-size="16">SunOS (x86) (102)</text>
  <path d="M 200,300 L -317.4,63.2 A 150,150 0 0 1 -317.4,63.2 Z" fill="AquaMarine" stroke="black" stroke-width="1"/>
  <rect x="370" y="98" width="20" height="30" fill="AquaMarine" stroke="black" stroke-width="1"/>
  <text x="400" y="1478" font-family="sans-serif" font-size="16">Windows 10 (aarch64) (1)</text>
  <path d="M 200,300 L -317.4,63.2 A 150,150 0 0 1 -240.8,108.8 Z" fill="DarkRed" stroke="black" stroke-width="1"/>
  <rect x="370" y="99" width="20" height="30" fill="DarkRed" stroke="black" stroke-width="1"/>
  <text x="400" y="1508" font-family="sans-serif" font-size="16">Windows 10 (amd64) (69439)</text>
  <path d="M 200,300 L -240.8,108.8 A 150,150 0 0 1 -210.5,119.8 Z" fill="Lavender" stroke="black" stroke-width="1"/>
  <rect x="370" y="100" width="20" height="30" fill="Lavender" stroke="black" stroke-width="1"/>
  <text x="400" y="1538" font-family="sans-serif" font-size="16">Windows 10 (x86) (20946)</text>
  <path d="M 200,300 L -210.5,119.8 A 150,150 0 0 1 -210.5,119.8 Z" fill="MediumSpringGreen" stroke="black" stroke-width="1"/>
  <rect x="370" y="101" width="20" height="30" fill="MediumSpringGreen" stroke="black" stroke-width="1"/>
  <text x="400" y="1568" font-family="sans-serif" font-size="16">Windows 2000 (x86) (1)</text>
  <path d="M 200,300 L -210.5,119.8 A 150,150 0 0 1 -210.4,119.9 Z" fill="RoyalBlue" stroke="black" stroke-width="1"/>
  <rect x="370" y="102" width="20" height="30" fill="RoyalBlue" stroke="black" stroke-width="1"/>
  <text x="400" y="1598" font-family="sans-serif" font-size="16">Windows 2003 (amd64) (45)</text>
  <path d="M 200,300 L -210.4,119.9 A 150,150 0 0 1 -208.2,120.6 Z" fill="Azure" stroke="black" stroke-width="1"/>
  <rect x="370" y="103" width="20" height="30" fill="Azure" stroke="black" stroke-width="1"/>
  <text x="400" y="1628" font-family="sans-serif" font-size="16">Windows 2003 (x86) (1467)</text>
  <path d="M 200,300 L -208.2,120.6 A 150,150 0 0 1 -198.0,123.7 Z" fill="DarkSalmon" stroke="black" stroke-width="1"/>
  <rect x="370" y="104" width="20" height="30" fill="DarkSalmon" stroke="black" stroke-width="1"/>
  <text x="400" y="1658" font-family="sans-serif" font-size="16">Windows 7 (amd64) (6595)</text>
  <path d="M 200,300 L -198.0,123.7 A 150,150 0 0 1 -189.8,126.0 Z" fill="LavenderBlush" stroke="black" stroke-width="1"/>
  <rect x="370" y="105" width="20" height="30" fill="LavenderBlush" stroke="black" stroke-width="1"/>
  <text x="400" y="1688" font-family="sans-serif" font-size="16">Windows 7 (x86) (5156)</text>
  <path d="M 200,300 L -189.8,126.0 A 150,150 0 0 1 -189.5,126.1 Z" fill="MediumTurquoise" stroke="black" stroke-width="1"/>
  <rect x="370" y="106" width="20" height="30" fill="MediumTurquoise" stroke="black" stroke-width="1"/>
  <text x="400" y="1718" font-family="sans-serif" font-size="16">Windows 8 (amd64) (178)</text>
  <path d="M 200,300 L -189.5,126.1 A 150,150 0 0 1 -189.3,126.2 Z" fill="SaddleBrown" stroke="black" stroke-width="1"/>
  <rect x="370" y="107" width="20" height="30" fill="SaddleBrown" stroke="black" stroke-width="1"/>
  <text x="400" y="1748" font-family="sans-serif" font-size="16">Windows 8 (x86) (116)</text>
  <path d="M 200,300 L -189.3,126.2 A 150,150 0 0 1 -186.5,126.9 Z" fill="Beige" stroke="black" stroke-width="1"/>
  <rect x="370" y="108" width="20" height="30" fill="Beige" stroke="black" stroke-width="1"/>
  <text x="400" y="1778" font-family="sans-serif" font-size="16">Windows 8.1 (amd64) (1783)</text>
  <path d="M 200,300 L -186.5,126.9 A 150,150 0 0 1 -185.3,127.3 Z" fill="DarkSeaGreen" stroke="black" stroke-width="1"/>
  <rect x="370" y="109" width="20" height="30" fill="DarkSeaGreen" stroke="black" stroke-width="1"/>
  <text x="400" y="1808" font-family="sans-serif" font-size="16">Windows 8.1 (x86) (754)</text>
  <path d="M 200,300 L -185.3,127.3 A 150,150 0 0 1 -181.3,128.3 Z" fill="LawnGreen" stroke="black" stroke-width="1"/>
  <rect x="370" y="110" width="20" height="30" fill="LawnGreen" stroke="black" stroke-width="1"/>
  <text x="400" y="1838" font-family="sans-serif" font-size="16">Windows NT (unknown) (amd64) (2461)</text>
  <path d="M 200,300 L -181.3,128.3 A 150,150 0 0 1 -180.2,128.6 Z" fill="MediumVioletRed" stroke="black" stroke-width="1"/>
  <rect x="370" y="111" width="20" height="30" fill="MediumVioletRed" stroke="black" stroke-width="1"/>
  <text x="400" y="1868" font-family="sans-serif" font-size="16">Windows NT (unknown) (x86) (661)</text>
  <path d="M 200,300 L -180.2,128.6 A 150,150 0 0 1 -180.0,128.6 Z" fill="Salmon" stroke="black" stroke-width="1"/>
  <rect x="370" y="112" width="20" height="30" fill="Salmon" stroke="black" stroke-width="1"/>
  <text x="400" y="1898" font-family="sans-serif" font-size="16">Windows Server 2008 (amd64) (130)</text>
  <path d="M 200,300 L -180.0,128.6 A 150,150 0 0 1 -179.7,128.7 Z" fill="Bisque" stroke="black" stroke-width="1"/>
  <rect x="370" y="113" width="20" height="30" fill="Bisque" stroke="black" stroke-width="1"/>
  <text x="400" y="1928" font-family="sans-serif" font-size="16">Windows Server 2008 (x86) (195)</text>
  <path d="M 200,300 L -179.7,128.7 A 150,150 0 0 1 -170.9,130.9 Z" fill="DarkSlateBlue" stroke="black" stroke-width="1"/>
  <rect x="370" y="114" width="20" height="30" fill="DarkSlateBlue" stroke="black" stroke-width="1"/>
  <text x="400" y="1958" font-family="sans-serif" font-size="16">Windows Server 2008 R2 (amd64) (5362)</text>
  <path d="M 200,300 L -170.9,130.9 A 150,150 0 0 1 -167.3,131.7 Z" fill="LemonChiffon" stroke="black" stroke-width="1"/>
  <rect x="370" y="115" width="20" height="30" fill="LemonChiffon" stroke="black" stroke-width="1"/>
  <text x="400" y="1988" font-family="sans-serif" font-size="16">Windows Server 2008 R2 (x86) (2132)</text>
  <path d="M 200,300 L -167.3,131.7 A 150,150 0 0 1 -165.0,132.3 Z" fill="MidnightBlue" stroke="black" stroke-width="1"/>
  <rect x="370" y="116" width="20" height="30" fill="MidnightBlue" stroke="black" stroke-width="1"/>
  <text x="400" y="2018" font-family="sans-serif" font-size="16">Windows Server 2012 (amd64) (1385)</text>
  <path d="M 200,300 L -165.0,132.3 A 150,150 0 0 1 -164.0,132.5 Z" fill="SandyBrown" stroke="black" stroke-width="1"/>
  <rect x="370" y="117" width="20" height="30" fill="SandyBrown" stroke="black" stroke-width="1"/>
  <text x="400" y="2048" font-family="sans-serif" font-size="16">Windows Server 2012 (x86) (631)</text>
  <path d="M 200,300 L -164.0,132.5 A 150,150 0 0 1 -124.3,140.2 Z" fill="Black" stroke="black" stroke-width="1"/>
  <rect x="370" y="118" width="20" height="30" fill="Black" stroke="black" stroke-width="1"/>
  <text x="400" y="2078" font-family="sans-serif" font-size="16">Windows Server 2012 R2 (amd64) (22943)</text>
  <path d="M 200,300 L -124.3,140.2 A 150,150 0 0 1 -110.1,142.4 Z" fill="DarkSlateGray" stroke="black" stroke-width="1"/>
  <rect x="370" y="119" width="20" height="30" fill="DarkSlateGray" stroke="black" stroke-width="1"/>
  <text x="400" y="2108" font-family="sans-serif" font-size="16">Windows Server 2012 R2 (x86) (7907)</text>
  <path d="M 200,300 L -110.1,142.4 A 150,150 0 0 1 -53.6,148.2 Z" fill="LightBlue" stroke="black" stroke-width="1"/>
  <rect x="370" y="120" width="20" height="30" fill="LightBlue" stroke="black" stroke-width="1"/>
  <text x="400" y="2138" font-family="sans-serif" font-size="16">Windows Server 2016 (amd64) (30627)</text>
  <path d="M 200,300 L -53.6,148.2 A 150,150 0 0 1 -32.1,149.4 Z" fill="MintCream" stroke="black" stroke-width="1"/>
  <rect x="370" y="121" width="20" height="30" fill="MintCream" stroke="black" stroke-width="1"/>
  <text x="400" y="2168" font-family="sans-serif" font-size="16">Windows Server 2016 (x86) (11449)</text>
  <path d="M 200,300 L -32.1,149.4 A 150,150 0 0 1 -32.1,149.4 Z" fill="SeaGreen" stroke="black" stroke-width="1"/>
  <rect x="370" y="122" width="20" height="30" fill="SeaGreen" stroke="black" stroke-width="1"/>
  <text x="400" y="2198" font-family="sans-serif" font-size="16">Windows Server 2016 Datacenter (amd64) (1)</text>
  <path d="M 200,300 L -32.1,149.4 A 150,150 0 0 1 -32.0,149.4 Z" fill="BlanchedAlmond" stroke="black" stroke-width="1"/>
  <rect x="370" y="123" width="20" height="30" fill="BlanchedAlmond" stroke="black" stroke-width="1"/>
  <text x="400" y="2228" font-family="sans-serif" font-size="16">Windows Server 2016 Standard (amd64) (5)</text>
  <path d="M 200,300 L -32.0,149.4 A 150,150 0 0 1 -4.9,150.0 Z" fill="DarkTurquoise" stroke="black" stroke-width="1"/>
  <rect x="370" y="124" width="20" height="30" fill="DarkTurquoise" stroke="black" stroke-width="1"/>
  <text x="400" y="2258" font-family="sans-serif" font-size="16">Windows Server 2019 (amd64) (14339)</text>
  <path d="M 200,300 L -4.9,150.0 A 150,150 0 0 1 -1.1,150.0 Z" fill="LightCoral" stroke="black" stroke-width="1"/>
  <rect x="370" y="125" width="20" height="30" fill="LightCoral" stroke="black" stroke-width="1"/>
  <text x="400" y="2288" font-family="sans-serif" font-size="16">Windows Server 2019 (x86) (1982)</text>
  <path d="M 200,300 L -1.1,150.0 A 150,150 0 0 1 -1.1,150.0 Z" fill="MistyRose" stroke="black" stroke-width="1"/>
  <rect x="370" y="126" width="20" height="30" fill="MistyRose" stroke="black" stroke-width="1"/>
  <text x="400" y="2318" font-family="sans-serif" font-size="16">Windows Server version 1909 (amd64) (4)</text>
  <path d="M 200,300 L -1.1,150.0 A 150,150 0 0 1 -1.1,150.0 Z" fill="SeaShell" stroke="black" stroke-width="1"/>
  <rect x="370" y="127" width="20" height="30" fill="SeaShell" stroke="black" stroke-width="1"/>
  <text x="400" y="2348" font-family="sans-serif" font-size="16">Windows Server version 2004 (amd64) (2)</text>
  <path d="M 200,300 L -1.1,150.0 A 150,150 0 0 1 -1.1,150.0 Z" fill="Blue" stroke="black" stroke-width="1"/>
  <rect x="370" y="128" width="20" height="30" fill="Blue" stroke="black" stroke-width="1"/>
  <text x="400" y="2378" font-family="sans-serif" font-size="16">Windows Server version 2009 (amd64) (1)</text>
  <path d="M 200,300 L -1.1,150.0 A 150,150 0 0 1 -1.1,150.0 Z" fill="DarkViolet" stroke="black" stroke-width="1"/>
  <rect x="370" y="129" width="20" height="30" fill="DarkViolet" stroke="black" stroke-width="1"/>
  <text x="400" y="2408" font-family="sans-serif" font-size="16">Windows Vista (amd64) (6)</text>
  <path d="M 200,300 L -1.1,150.0 A 150,150 0 0 1 -1.0,150.0 Z" fill="LightCyan" stroke="black" stroke-width="1"/>
  <rect x="370" y="130" width="20" height="30" fill="LightCyan" stroke="black" stroke-width="1"/>
  <text x="400" y="2438" font-family="sans-serif" font-size="16">Windows Vista (x86) (31)</text>
  <path d="M 200,300 L -1.0,150.0 A 150,150 0 0 1 -1.0,150.0 Z" fill="Moccasin" stroke="black" stroke-width="1"/>
  <rect x="370" y="131" width="20" height="30" fill="Moccasin" stroke="black" stroke-width="1"/>
  <text x="400" y="2468" font-family="sans-serif" font-size="16">Windows XP (amd64) (2)</text>
  <path d="M 200,300 L -1.0,150.0 A 150,150 0 0 1 -0.4,150.0 Z" fill="Sienna" stroke="black" stroke-width="1"/>
  <rect x="370" y="132" width="20" height="30" fill="Sienna" stroke="black" stroke-width="1"/>
  <text x="400" y="2498" font-family="sans-serif" font-size="16">Windows XP (x86) (341)</text>
  <path d="M 200,300 L -0.4,150.0 A 150,150 0 0 1 -0.3,150.0 Z" fill="BlueViolet" stroke="black" stroke-width="1"/>
  <rect x="370" y="133" width="20" height="30" fill="BlueViolet" stroke="black" stroke-width="1"/>
  <text x="400" y="2528" font-family="sans-serif" font-size="16">z/OS (s390) (6)</text>
  <path d="M 200,300 L -0.3,150.0 A 150,150 0 0 1 0.0,150.0 Z" fill="DeepPink" stroke="black" stroke-width="1"/>
  <rect x="370" y="134" width="20" height="30" fill="DeepPink" stroke="black" stroke-width="1"/>
  <text x="400" y="2558" font-family="sans-serif" font-size="16">z/OS (s390x) (182)</text>
</svg>
