<svg xmlns="http://www.w3.org/2000/svg" version="1.1" preserveAspectRatio="xMidYMid meet" viewBox="0 0 1235 57603.7">
  <rect fill="blue" height="0.1" stroke="black" width="12" x="15" y="57303.6"/>
  <text x="15" y="57308.7" font-family="Tahoma" font-size="12" transform="rotate(90 15,57308.7)" text-rendering="optimizeSpeed" fill="#000000">Linux (sparcv9) (1)</text>
  <rect fill="blue" height="0.1" stroke="black" width="12" x="30" y="57303.6"/>
  <text x="30" y="57308.7" font-family="Tahoma" font-size="12" transform="rotate(90 30,57308.7)" text-rendering="optimizeSpeed" fill="#000000">Linux (x86_64) (1)</text>
  <rect fill="blue" height="0.1" stroke="black" width="12" x="45" y="57303.6"/>
  <text x="45" y="57308.7" font-family="Tahoma" font-size="12" transform="rotate(90 45,57308.7)" text-rendering="optimizeSpeed" fill="#000000">MidnightBSD (amd64) (1)</text>
  <rect fill="blue" height="0.1" stroke="black" width="12" x="60" y="57303.6"/>
  <text x="60" y="57308.7" font-family="Tahoma" font-size="12" transform="rotate(90 60,57308.7)" text-rendering="optimizeSpeed" fill="#000000">MidnightBSD (i386) (1)</text>
  <rect fill="blue" height="0.1" stroke="black" width="12" x="75" y="57303.6"/>
  <text x="75" y="57308.7" font-family="Tahoma" font-size="12" transform="rotate(90 75,57308.7)" text-rendering="optimizeSpeed" fill="#000000">Windows 2000 (x86) (1)</text>
  <rect fill="blue" height="0.1" stroke="black" width="12" x="90" y="57303.6"/>
  <text x="90" y="57308.7" font-family="Tahoma" font-size="12" transform="rotate(90 90,57308.7)" text-rendering="optimizeSpeed" fill="#000000">Windows Server 2016 Datacenter (amd64) (1)</text>
  <rect fill="blue" height="0.2" stroke="black" width="12" x="105" y="57303.5"/>
  <text x="105" y="57308.7" font-family="Tahoma" font-size="12" transform="rotate(90 105,57308.7)" text-rendering="optimizeSpeed" fill="#000000">DragonFlyBSD (amd64) (2)</text>
  <rect fill="blue" height="0.2" stroke="black" width="12" x="120" y="57303.5"/>
  <text x="120" y="57308.7" font-family="Tahoma" font-size="12" transform="rotate(90 120,57308.7)" text-rendering="optimizeSpeed" fill="#000000">Linux (ia64) (2)</text>
  <rect fill="blue" height="0.2" stroke="black" width="12" x="135" y="57303.5"/>
  <text x="135" y="57308.7" font-family="Tahoma" font-size="12" transform="rotate(90 135,57308.7)" text-rendering="optimizeSpeed" fill="#000000">Linux (riscv64) (2)</text>
  <rect fill="blue" height="0.2" stroke="black" width="12" x="150" y="57303.5"/>
  <text x="150" y="57308.7" font-family="Tahoma" font-size="12" transform="rotate(90 150,57308.7)" text-rendering="optimizeSpeed" fill="#000000">Linux (s390) (2)</text>
  <rect fill="blue" height="0.2" stroke="black" width="12" x="165" y="57303.5"/>
  <text x="165" y="57308.7" font-family="Tahoma" font-size="12" transform="rotate(90 165,57308.7)" text-rendering="optimizeSpeed" fill="#000000">OS/400 (ppc) (2)</text>
  <rect fill="blue" height="0.3" stroke="black" width="12" x="180" y="57303.4"/>
  <text x="180" y="57308.7" font-family="Tahoma" font-size="12" transform="rotate(90 180,57308.7)" text-rendering="optimizeSpeed" fill="#000000">Mac OS X (amd64) (3)</text>
  <rect fill="blue" height="0.3" stroke="black" width="12" x="195" y="57303.4"/>
  <text x="195" y="57308.7" font-family="Tahoma" font-size="12" transform="rotate(90 195,57308.7)" text-rendering="optimizeSpeed" fill="#000000">Windows Vista (amd64) (3)</text>
  <rect fill="blue" height="0.3" stroke="black" width="12" x="210" y="57303.4"/>
  <text x="210" y="57308.7" font-family="Tahoma" font-size="12" transform="rotate(90 210,57308.7)" text-rendering="optimizeSpeed" fill="#000000">Windows XP (amd64) (3)</text>
  <rect fill="blue" height="0.4" stroke="black" width="12" x="225" y="57303.3"/>
  <text x="225" y="57308.7" font-family="Tahoma" font-size="12" transform="rotate(90 225,57308.7)" text-rendering="optimizeSpeed" fill="#000000">FreeBSD (aarch64) (4)</text>
  <rect fill="blue" height="0.4" stroke="black" width="12" x="240" y="57303.3"/>
  <text x="240" y="57308.7" font-family="Tahoma" font-size="12" transform="rotate(90 240,57308.7)" text-rendering="optimizeSpeed" fill="#000000">Linux (zArch_64) (4)</text>
  <rect fill="blue" height="0.4" stroke="black" width="12" x="255" y="57303.3"/>
  <text x="255" y="57308.7" font-family="Tahoma" font-size="12" transform="rotate(90 255,57308.7)" text-rendering="optimizeSpeed" fill="#000000">NONSTOP_KERNEL (IA64N) (4)</text>
  <rect fill="blue" height="0.4" stroke="black" width="12" x="270" y="57303.3"/>
  <text x="270" y="57308.7" font-family="Tahoma" font-size="12" transform="rotate(90 270,57308.7)" text-rendering="optimizeSpeed" fill="#000000">Windows Server version 1909 (amd64) (4)</text>
  <rect fill="blue" height="0.6" stroke="black" width="12" x="285" y="57303.1"/>
  <text x="285" y="57308.7" font-family="Tahoma" font-size="12" transform="rotate(90 285,57308.7)" text-rendering="optimizeSpeed" fill="#000000">Windows Server 2016 Standard (amd64) (6)</text>
  <rect fill="blue" height="0.6" stroke="black" width="12" x="300" y="57303.1"/>
  <text x="300" y="57308.7" font-family="Tahoma" font-size="12" transform="rotate(90 300,57308.7)" text-rendering="optimizeSpeed" fill="#000000">z/OS (s390) (6)</text>
  <rect fill="blue" height="0.7" stroke="black" width="12" x="315" y="57303.0"/>
  <text x="315" y="57308.7" font-family="Tahoma" font-size="12" transform="rotate(90 315,57308.7)" text-rendering="optimizeSpeed" fill="#000000">NONSTOP_KERNEL (x86_64N) (7)</text>
  <rect fill="blue" height="0.8" stroke="black" width="12" x="330" y="57302.9"/>
  <text x="330" y="57308.7" font-family="Tahoma" font-size="12" transform="rotate(90 330,57308.7)" text-rendering="optimizeSpeed" fill="#000000">NetBSD (amd64) (8)</text>
  <rect fill="blue" height="1.0" stroke="black" width="12" x="345" y="57302.7"/>
  <text x="345" y="57308.7" font-family="Tahoma" font-size="12" transform="rotate(90 345,57308.7)" text-rendering="optimizeSpeed" fill="#000000">HP-UX (ia64) (10)</text>
  <rect fill="blue" height="1.0" stroke="black" width="12" x="360" y="57302.7"/>
  <text x="360" y="57308.7" font-family="Tahoma" font-size="12" transform="rotate(90 360,57308.7)" text-rendering="optimizeSpeed" fill="#000000">Linux (sw64) (10)</text>
  <rect fill="blue" height="1.1" stroke="black" width="12" x="375" y="57302.6"/>
  <text x="375" y="57308.7" font-family="Tahoma" font-size="12" transform="rotate(90 375,57308.7)" text-rendering="optimizeSpeed" fill="#000000">OS400 (ppc64) (11)</text>
  <rect fill="blue" height="1.6" stroke="black" width="12" x="390" y="57302.1"/>
  <text x="390" y="57308.7" font-family="Tahoma" font-size="12" transform="rotate(90 390,57308.7)" text-rendering="optimizeSpeed" fill="#000000">HP-UX (PA_RISC2.0) (16)</text>
  <rect fill="blue" height="2.1" stroke="black" width="12" x="405" y="57301.6"/>
  <text x="405" y="57308.7" font-family="Tahoma" font-size="12" transform="rotate(90 405,57308.7)" text-rendering="optimizeSpeed" fill="#000000">Linux (ppc) (21)</text>
  <rect fill="blue" height="2.3" stroke="black" width="12" x="420" y="57301.4"/>
  <text x="420" y="57308.7" font-family="Tahoma" font-size="12" transform="rotate(90 420,57308.7)" text-rendering="optimizeSpeed" fill="#000000">HP-UX (IA64W) (23)</text>
  <rect fill="blue" height="2.3" stroke="black" width="12" x="435" y="57301.4"/>
  <text x="435" y="57308.7" font-family="Tahoma" font-size="12" transform="rotate(90 435,57308.7)" text-rendering="optimizeSpeed" fill="#000000">Linux (x86) (23)</text>
  <rect fill="blue" height="2.5" stroke="black" width="12" x="450" y="57301.2"/>
  <text x="450" y="57308.7" font-family="Tahoma" font-size="12" transform="rotate(90 450,57308.7)" text-rendering="optimizeSpeed" fill="#000000">OpenBSD (amd64) (25)</text>
  <rect fill="blue" height="2.6" stroke="black" width="12" x="465" y="57301.1"/>
  <text x="465" y="57308.7" font-family="Tahoma" font-size="12" transform="rotate(90 465,57308.7)" text-rendering="optimizeSpeed" fill="#000000">Windows Vista (x86) (26)</text>
  <rect fill="blue" height="3.6" stroke="black" width="12" x="480" y="57300.1"/>
  <text x="480" y="57308.7" font-family="Tahoma" font-size="12" transform="rotate(90 480,57308.7)" text-rendering="optimizeSpeed" fill="#000000">Linux (loongarch64) (36)</text>
  <rect fill="blue" height="4.4" stroke="black" width="12" x="495" y="57299.3"/>
  <text x="495" y="57308.7" font-family="Tahoma" font-size="12" transform="rotate(90 495,57308.7)" text-rendering="optimizeSpeed" fill="#000000">OS/400 (ppc64) (44)</text>
  <rect fill="blue" height="5.3" stroke="black" width="12" x="510" y="57298.4"/>
  <text x="510" y="57308.7" font-family="Tahoma" font-size="12" transform="rotate(90 510,57308.7)" text-rendering="optimizeSpeed" fill="#000000">Windows 2003 (amd64) (53)</text>
  <rect fill="blue" height="7.1" stroke="black" width="12" x="525" y="57296.6"/>
  <text x="525" y="57308.7" font-family="Tahoma" font-size="12" transform="rotate(90 525,57308.7)" text-rendering="optimizeSpeed" fill="#000000">FreeBSD (i386) (71)</text>
  <rect fill="blue" height="8.2" stroke="black" width="12" x="540" y="57295.5"/>
  <text x="540" y="57308.7" font-family="Tahoma" font-size="12" transform="rotate(90 540,57308.7)" text-rendering="optimizeSpeed" fill="#000000">Linux (ppc64) (82)</text>
  <rect fill="blue" height="10.2" stroke="black" width="12" x="555" y="57293.5"/>
  <text x="555" y="57308.7" font-family="Tahoma" font-size="12" transform="rotate(90 555,57308.7)" text-rendering="optimizeSpeed" fill="#000000">SunOS (x86) (102)</text>
  <rect fill="blue" height="13.0" stroke="black" width="12" x="570" y="57290.7"/>
  <text x="570" y="57308.7" font-family="Tahoma" font-size="12" transform="rotate(90 570,57308.7)" text-rendering="optimizeSpeed" fill="#000000">AIX (ppc) (130)</text>
  <rect fill="blue" height="14.6" stroke="black" width="12" x="585" y="57289.1"/>
  <text x="585" y="57308.7" font-family="Tahoma" font-size="12" transform="rotate(90 585,57308.7)" text-rendering="optimizeSpeed" fill="#000000">Windows Server 2008 (amd64) (146)</text>
  <rect fill="blue" height="14.7" stroke="black" width="12" x="600" y="57289.0"/>
  <text x="600" y="57308.7" font-family="Tahoma" font-size="12" transform="rotate(90 600,57308.7)" text-rendering="optimizeSpeed" fill="#000000">Windows 8 (x86) (147)</text>
  <rect fill="blue" height="15.6" stroke="black" width="12" x="615" y="57288.1"/>
  <text x="615" y="57308.7" font-family="Tahoma" font-size="12" transform="rotate(90 615,57308.7)" text-rendering="optimizeSpeed" fill="#000000">Windows 8 (amd64) (156)</text>
  <rect fill="blue" height="15.8" stroke="black" width="12" x="630" y="57287.9"/>
  <text x="630" y="57308.7" font-family="Tahoma" font-size="12" transform="rotate(90 630,57308.7)" text-rendering="optimizeSpeed" fill="#000000">SunOS (sparc) (158)</text>
  <rect fill="blue" height="16.3" stroke="black" width="12" x="645" y="57287.4"/>
  <text x="645" y="57308.7" font-family="Tahoma" font-size="12" transform="rotate(90 645,57308.7)" text-rendering="optimizeSpeed" fill="#000000">Linux (mips64el) (163)</text>
  <rect fill="blue" height="19.6" stroke="black" width="12" x="660" y="57284.1"/>
  <text x="660" y="57308.7" font-family="Tahoma" font-size="12" transform="rotate(90 660,57308.7)" text-rendering="optimizeSpeed" fill="#000000">z/OS (s390x) (196)</text>
  <rect fill="blue" height="20.7" stroke="black" width="12" x="675" y="57283.0"/>
  <text x="675" y="57308.7" font-family="Tahoma" font-size="12" transform="rotate(90 675,57308.7)" text-rendering="optimizeSpeed" fill="#000000">Windows Server 2008 (x86) (207)</text>
  <rect fill="blue" height="28.4" stroke="black" width="12" x="690" y="57275.3"/>
  <text x="690" y="57308.7" font-family="Tahoma" font-size="12" transform="rotate(90 690,57308.7)" text-rendering="optimizeSpeed" fill="#000000">HP-UX (IA64N) (284)</text>
  <rect fill="blue" height="29.2" stroke="black" width="12" x="705" y="57274.5"/>
  <text x="705" y="57308.7" font-family="Tahoma" font-size="12" transform="rotate(90 705,57308.7)" text-rendering="optimizeSpeed" fill="#000000">Linux (s390x) (292)</text>
  <rect fill="blue" height="38.8" stroke="black" width="12" x="720" y="57264.9"/>
  <text x="720" y="57308.7" font-family="Tahoma" font-size="12" transform="rotate(90 720,57308.7)" text-rendering="optimizeSpeed" fill="#000000">Windows XP (x86) (388)</text>
  <rect fill="blue" height="64.5" stroke="black" width="12" x="735" y="57239.2"/>
  <text x="735" y="57308.7" font-family="Tahoma" font-size="12" transform="rotate(90 735,57308.7)" text-rendering="optimizeSpeed" fill="#000000">Windows Server 2012 (x86) (645)</text>
  <rect fill="blue" height="68.9" stroke="black" width="12" x="750" y="57234.8"/>
  <text x="750" y="57308.7" font-family="Tahoma" font-size="12" transform="rotate(90 750,57308.7)" text-rendering="optimizeSpeed" fill="#000000">SunOS (amd64) (689)</text>
  <rect fill="blue" height="69.8" stroke="black" width="12" x="765" y="57233.9"/>
  <text x="765" y="57308.7" font-family="Tahoma" font-size="12" transform="rotate(90 765,57308.7)" text-rendering="optimizeSpeed" fill="#000000">Linux (ppc64le) (698)</text>
  <rect fill="blue" height="73.8" stroke="black" width="12" x="780" y="57229.9"/>
  <text x="780" y="57308.7" font-family="Tahoma" font-size="12" transform="rotate(90 780,57308.7)" text-rendering="optimizeSpeed" fill="#000000">Windows NT (unknown) (x86) (738)</text>
  <rect fill="blue" height="76.4" stroke="black" width="12" x="795" y="57227.3"/>
  <text x="795" y="57308.7" font-family="Tahoma" font-size="12" transform="rotate(90 795,57308.7)" text-rendering="optimizeSpeed" fill="#000000">FreeBSD (amd64) (764)</text>
  <rect fill="blue" height="80.3" stroke="black" width="12" x="810" y="57223.4"/>
  <text x="810" y="57308.7" font-family="Tahoma" font-size="12" transform="rotate(90 810,57308.7)" text-rendering="optimizeSpeed" fill="#000000">Mac OS X (aarch64) (803)</text>
  <rect fill="blue" height="83.5" stroke="black" width="12" x="825" y="57220.2"/>
  <text x="825" y="57308.7" font-family="Tahoma" font-size="12" transform="rotate(90 825,57308.7)" text-rendering="optimizeSpeed" fill="#000000">Windows 8.1 (x86) (835)</text>
  <rect fill="blue" height="114.9" stroke="black" width="12" x="840" y="57188.8"/>
  <text x="840" y="57308.7" font-family="Tahoma" font-size="12" transform="rotate(90 840,57308.7)" text-rendering="optimizeSpeed" fill="#000000">Windows 2003 (x86) (1149)</text>
  <rect fill="blue" height="120.4" stroke="black" width="12" x="855" y="57183.3"/>
  <text x="855" y="57308.7" font-family="Tahoma" font-size="12" transform="rotate(90 855,57308.7)" text-rendering="optimizeSpeed" fill="#000000">SunOS (sparcv9) (1204)</text>
  <rect fill="blue" height="177.8" stroke="black" width="12" x="870" y="57125.9"/>
  <text x="870" y="57308.7" font-family="Tahoma" font-size="12" transform="rotate(90 870,57308.7)" text-rendering="optimizeSpeed" fill="#000000">Windows Server 2019 (x86) (1778)</text>
  <rect fill="blue" height="177.9" stroke="black" width="12" x="885" y="57125.8"/>
  <text x="885" y="57308.7" font-family="Tahoma" font-size="12" transform="rotate(90 885,57308.7)" text-rendering="optimizeSpeed" fill="#000000">Windows 8.1 (amd64) (1779)</text>
  <rect fill="blue" height="183.2" stroke="black" width="12" x="900" y="57120.5"/>
  <text x="900" y="57308.7" font-family="Tahoma" font-size="12" transform="rotate(90 900,57308.7)" text-rendering="optimizeSpeed" fill="#000000">Windows Server 2012 (amd64) (1832)</text>
  <rect fill="blue" height="196.3" stroke="black" width="12" x="915" y="57107.4"/>
  <text x="915" y="57308.7" font-family="Tahoma" font-size="12" transform="rotate(90 915,57308.7)" text-rendering="optimizeSpeed" fill="#000000">AIX (ppc64) (1963)</text>
  <rect fill="blue" height="233.1" stroke="black" width="12" x="930" y="57070.6"/>
  <text x="930" y="57308.7" font-family="Tahoma" font-size="12" transform="rotate(90 930,57308.7)" text-rendering="optimizeSpeed" fill="#000000">Windows Server 2008 R2 (x86) (2331)</text>
  <rect fill="blue" height="245.6" stroke="black" width="12" x="945" y="57058.1"/>
  <text x="945" y="57308.7" font-family="Tahoma" font-size="12" transform="rotate(90 945,57308.7)" text-rendering="optimizeSpeed" fill="#000000">Windows NT (unknown) (amd64) (2456)</text>
  <rect fill="blue" height="286.8" stroke="black" width="12" x="960" y="57016.9"/>
  <text x="960" y="57308.7" font-family="Tahoma" font-size="12" transform="rotate(90 960,57308.7)" text-rendering="optimizeSpeed" fill="#000000">Linux (arm) (2868)</text>
  <rect fill="blue" height="500.0" stroke="black" width="12" x="975" y="56803.7"/>
  <text x="975" y="57308.7" font-family="Tahoma" font-size="12" transform="rotate(90 975,57308.7)" text-rendering="optimizeSpeed" fill="#000000">Linux (i386) (5000)</text>
  <rect fill="blue" height="539.0" stroke="black" width="12" x="990" y="56764.7"/>
  <text x="990" y="57308.7" font-family="Tahoma" font-size="12" transform="rotate(90 990,57308.7)" text-rendering="optimizeSpeed" fill="#000000">Linux (aarch64) (5390)</text>
  <rect fill="blue" height="578.8" stroke="black" width="12" x="1005" y="56724.9"/>
  <text x="1005" y="57308.7" font-family="Tahoma" font-size="12" transform="rotate(90 1005,57308.7)" text-rendering="optimizeSpeed" fill="#000000">Windows Server 2008 R2 (amd64) (5788)</text>
  <rect fill="blue" height="586.1" stroke="black" width="12" x="1020" y="56717.6"/>
  <text x="1020" y="57308.7" font-family="Tahoma" font-size="12" transform="rotate(90 1020,57308.7)" text-rendering="optimizeSpeed" fill="#000000">Windows 7 (x86) (5861)</text>
  <rect fill="blue" height="698.7" stroke="black" width="12" x="1035" y="56605.0"/>
  <text x="1035" y="57308.7" font-family="Tahoma" font-size="12" transform="rotate(90 1035,57308.7)" text-rendering="optimizeSpeed" fill="#000000">Windows 7 (amd64) (6987)</text>
  <rect fill="blue" height="837.2" stroke="black" width="12" x="1050" y="56466.5"/>
  <text x="1050" y="57308.7" font-family="Tahoma" font-size="12" transform="rotate(90 1050,57308.7)" text-rendering="optimizeSpeed" fill="#000000">Windows Server 2012 R2 (x86) (8372)</text>
  <rect fill="blue" height="1177.7" stroke="black" width="12" x="1065" y="56126.0"/>
  <text x="1065" y="57308.7" font-family="Tahoma" font-size="12" transform="rotate(90 1065,57308.7)" text-rendering="optimizeSpeed" fill="#000000">Windows Server 2016 (x86) (11777)</text>
  <rect fill="blue" height="1245.6" stroke="black" width="12" x="1080" y="56058.1"/>
  <text x="1080" y="57308.7" font-family="Tahoma" font-size="12" transform="rotate(90 1080,57308.7)" text-rendering="optimizeSpeed" fill="#000000">Windows Server 2019 (amd64) (12456)</text>
  <rect fill="blue" height="2077.4" stroke="black" width="12" x="1095" y="55226.3"/>
  <text x="1095" y="57308.7" font-family="Tahoma" font-size="12" transform="rotate(90 1095,57308.7)" text-rendering="optimizeSpeed" fill="#000000">Windows 10 (x86) (20774)</text>
  <rect fill="blue" height="2408.5" stroke="black" width="12" x="1110" y="54895.2"/>
  <text x="1110" y="57308.7" font-family="Tahoma" font-size="12" transform="rotate(90 1110,57308.7)" text-rendering="optimizeSpeed" fill="#000000">Windows Server 2012 R2 (amd64) (24085)</text>
  <rect fill="blue" height="3052.2" stroke="black" width="12" x="1125" y="54251.5"/>
  <text x="1125" y="57308.7" font-family="Tahoma" font-size="12" transform="rotate(90 1125,57308.7)" text-rendering="optimizeSpeed" fill="#000000">Windows Server 2016 (amd64) (30522)</text>
  <rect fill="blue" height="3084.8" stroke="black" width="12" x="1140" y="54218.9"/>
  <text x="1140" y="57308.7" font-family="Tahoma" font-size="12" transform="rotate(90 1140,57308.7)" text-rendering="optimizeSpeed" fill="#000000">Mac OS X (x86_64) (30848)</text>
  <rect fill="blue" height="6596.0" stroke="black" width="12" x="1155" y="50707.7"/>
  <text x="1155" y="57308.7" font-family="Tahoma" font-size="12" transform="rotate(90 1155,57308.7)" text-rendering="optimizeSpeed" fill="#000000">Windows 10 (amd64) (65960)</text>
  <rect fill="blue" height="30133.0" stroke="black" width="12" x="1170" y="27170.7"/>
  <text x="1170" y="57308.7" font-family="Tahoma" font-size="12" transform="rotate(90 1170,57308.7)" text-rendering="optimizeSpeed" fill="#000000">N/A (301330)</text>
  <rect fill="blue" height="57253.7" stroke="black" width="12" x="1185" y="50.0"/>
  <text x="1185" y="57308.7" font-family="Tahoma" font-size="12" transform="rotate(90 1185,57308.7)" text-rendering="optimizeSpeed" fill="#000000">Linux (amd64) (572537)</text>
  <text x="10" y="40" font-family="Tahoma" font-size="20" text-rendering="optimizeSpeed" fill="#000000">Nodes (total: 1133107)</text>
</svg>
