<svg xmlns="http://www.w3.org/2000/svg" version="1.1" preserveAspectRatio="xMidYMid meet" viewBox="0 0 1325 54750.0">
  <rect fill="blue" height="0.1" stroke="black" width="12" x="15" y="54449.9"/>
  <text x="15" y="54455.0" font-family="Tahoma" font-size="12" transform="rotate(90 15,54455.0)" text-rendering="optimizeSpeed" fill="#000000">BSDSUniX (i386) (1)</text>
  <rect fill="blue" height="0.1" stroke="black" width="12" x="30" y="54449.9"/>
  <text x="30" y="54455.0" font-family="Tahoma" font-size="12" transform="rotate(90 30,54455.0)" text-rendering="optimizeSpeed" fill="#000000">DragonFlyBSD (amd64) (1)</text>
  <rect fill="blue" height="0.1" stroke="black" width="12" x="45" y="54449.9"/>
  <text x="45" y="54455.0" font-family="Tahoma" font-size="12" transform="rotate(90 45,54455.0)" text-rendering="optimizeSpeed" fill="#000000">FreeBSD (arm) (1)</text>
  <rect fill="blue" height="0.1" stroke="black" width="12" x="60" y="54449.9"/>
  <text x="60" y="54455.0" font-family="Tahoma" font-size="12" transform="rotate(90 60,54455.0)" text-rendering="optimizeSpeed" fill="#000000">HP-UX (PA_RISC2.0W) (1)</text>
  <rect fill="blue" height="0.1" stroke="black" width="12" x="75" y="54449.9"/>
  <text x="75" y="54455.0" font-family="Tahoma" font-size="12" transform="rotate(90 75,54455.0)" text-rendering="optimizeSpeed" fill="#000000">Linux (e2k) (1)</text>
  <rect fill="blue" height="0.1" stroke="black" width="12" x="90" y="54449.9"/>
  <text x="90" y="54455.0" font-family="Tahoma" font-size="12" transform="rotate(90 90,54455.0)" text-rendering="optimizeSpeed" fill="#000000">Linux (sparcv9) (1)</text>
  <rect fill="blue" height="0.1" stroke="black" width="12" x="105" y="54449.9"/>
  <text x="105" y="54455.0" font-family="Tahoma" font-size="12" transform="rotate(90 105,54455.0)" text-rendering="optimizeSpeed" fill="#000000">Linux (x86_64) (1)</text>
  <rect fill="blue" height="0.1" stroke="black" width="12" x="120" y="54449.9"/>
  <text x="120" y="54455.0" font-family="Tahoma" font-size="12" transform="rotate(90 120,54455.0)" text-rendering="optimizeSpeed" fill="#000000">Mac OS X (amd64) (1)</text>
  <rect fill="blue" height="0.1" stroke="black" width="12" x="135" y="54449.9"/>
  <text x="135" y="54455.0" font-family="Tahoma" font-size="12" transform="rotate(90 135,54455.0)" text-rendering="optimizeSpeed" fill="#000000">MidnightBSD (amd64) (1)</text>
  <rect fill="blue" height="0.1" stroke="black" width="12" x="150" y="54449.9"/>
  <text x="150" y="54455.0" font-family="Tahoma" font-size="12" transform="rotate(90 150,54455.0)" text-rendering="optimizeSpeed" fill="#000000">MidnightBSD (i386) (1)</text>
  <rect fill="blue" height="0.1" stroke="black" width="12" x="165" y="54449.9"/>
  <text x="165" y="54455.0" font-family="Tahoma" font-size="12" transform="rotate(90 165,54455.0)" text-rendering="optimizeSpeed" fill="#000000">NetBSD (i386) (1)</text>
  <rect fill="blue" height="0.1" stroke="black" width="12" x="180" y="54449.9"/>
  <text x="180" y="54455.0" font-family="Tahoma" font-size="12" transform="rotate(90 180,54455.0)" text-rendering="optimizeSpeed" fill="#000000">OpenBSD (i386) (1)</text>
  <rect fill="blue" height="0.1" stroke="black" width="12" x="195" y="54449.9"/>
  <text x="195" y="54455.0" font-family="Tahoma" font-size="12" transform="rotate(90 195,54455.0)" text-rendering="optimizeSpeed" fill="#000000">Windows 2000 (x86) (1)</text>
  <rect fill="blue" height="0.2" stroke="black" width="12" x="210" y="54449.8"/>
  <text x="210" y="54455.0" font-family="Tahoma" font-size="12" transform="rotate(90 210,54455.0)" text-rendering="optimizeSpeed" fill="#000000">Linux (ia64) (2)</text>
  <rect fill="blue" height="0.2" stroke="black" width="12" x="225" y="54449.8"/>
  <text x="225" y="54455.0" font-family="Tahoma" font-size="12" transform="rotate(90 225,54455.0)" text-rendering="optimizeSpeed" fill="#000000">Linux (riscv) (2)</text>
  <rect fill="blue" height="0.2" stroke="black" width="12" x="240" y="54449.8"/>
  <text x="240" y="54455.0" font-family="Tahoma" font-size="12" transform="rotate(90 240,54455.0)" text-rendering="optimizeSpeed" fill="#000000">Linux (s390) (2)</text>
  <rect fill="blue" height="0.2" stroke="black" width="12" x="255" y="54449.8"/>
  <text x="255" y="54455.0" font-family="Tahoma" font-size="12" transform="rotate(90 255,54455.0)" text-rendering="optimizeSpeed" fill="#000000">Windows Server 2019 Standard (amd64) (2)</text>
  <rect fill="blue" height="0.3" stroke="black" width="12" x="270" y="54449.7"/>
  <text x="270" y="54455.0" font-family="Tahoma" font-size="12" transform="rotate(90 270,54455.0)" text-rendering="optimizeSpeed" fill="#000000">NONSTOP_KERNEL (IA64N) (3)</text>
  <rect fill="blue" height="0.3" stroke="black" width="12" x="285" y="54449.7"/>
  <text x="285" y="54455.0" font-family="Tahoma" font-size="12" transform="rotate(90 285,54455.0)" text-rendering="optimizeSpeed" fill="#000000">Windows Server 2016 Standard (amd64) (3)</text>
  <rect fill="blue" height="0.4" stroke="black" width="12" x="300" y="54449.6"/>
  <text x="300" y="54455.0" font-family="Tahoma" font-size="12" transform="rotate(90 300,54455.0)" text-rendering="optimizeSpeed" fill="#000000">FreeBSD (aarch64) (4)</text>
  <rect fill="blue" height="0.4" stroke="black" width="12" x="315" y="54449.6"/>
  <text x="315" y="54455.0" font-family="Tahoma" font-size="12" transform="rotate(90 315,54455.0)" text-rendering="optimizeSpeed" fill="#000000">Linux (sw64) (4)</text>
  <rect fill="blue" height="0.4" stroke="black" width="12" x="330" y="54449.6"/>
  <text x="330" y="54455.0" font-family="Tahoma" font-size="12" transform="rotate(90 330,54455.0)" text-rendering="optimizeSpeed" fill="#000000">Linux (zArch_64) (4)</text>
  <rect fill="blue" height="0.4" stroke="black" width="12" x="345" y="54449.6"/>
  <text x="345" y="54455.0" font-family="Tahoma" font-size="12" transform="rotate(90 345,54455.0)" text-rendering="optimizeSpeed" fill="#000000">OS/400 (ppc) (4)</text>
  <rect fill="blue" height="0.4" stroke="black" width="12" x="360" y="54449.6"/>
  <text x="360" y="54455.0" font-family="Tahoma" font-size="12" transform="rotate(90 360,54455.0)" text-rendering="optimizeSpeed" fill="#000000">Windows Server version 1909 (amd64) (4)</text>
  <rect fill="blue" height="0.4" stroke="black" width="12" x="375" y="54449.6"/>
  <text x="375" y="54455.0" font-family="Tahoma" font-size="12" transform="rotate(90 375,54455.0)" text-rendering="optimizeSpeed" fill="#000000">Windows Vista (amd64) (4)</text>
  <rect fill="blue" height="0.4" stroke="black" width="12" x="390" y="54449.6"/>
  <text x="390" y="54455.0" font-family="Tahoma" font-size="12" transform="rotate(90 390,54455.0)" text-rendering="optimizeSpeed" fill="#000000">Windows XP (amd64) (4)</text>
  <rect fill="blue" height="0.6" stroke="black" width="12" x="405" y="54449.4"/>
  <text x="405" y="54455.0" font-family="Tahoma" font-size="12" transform="rotate(90 405,54455.0)" text-rendering="optimizeSpeed" fill="#000000">NetBSD (amd64) (6)</text>
  <rect fill="blue" height="0.7" stroke="black" width="12" x="420" y="54449.3"/>
  <text x="420" y="54455.0" font-family="Tahoma" font-size="12" transform="rotate(90 420,54455.0)" text-rendering="optimizeSpeed" fill="#000000">HP-UX (ia64) (7)</text>
  <rect fill="blue" height="0.8" stroke="black" width="12" x="435" y="54449.2"/>
  <text x="435" y="54455.0" font-family="Tahoma" font-size="12" transform="rotate(90 435,54455.0)" text-rendering="optimizeSpeed" fill="#000000">z/OS (s390) (8)</text>
  <rect fill="blue" height="0.9" stroke="black" width="12" x="450" y="54449.1"/>
  <text x="450" y="54455.0" font-family="Tahoma" font-size="12" transform="rotate(90 450,54455.0)" text-rendering="optimizeSpeed" fill="#000000">OS400 (ppc64) (9)</text>
  <rect fill="blue" height="1.2" stroke="black" width="12" x="465" y="54448.8"/>
  <text x="465" y="54455.0" font-family="Tahoma" font-size="12" transform="rotate(90 465,54455.0)" text-rendering="optimizeSpeed" fill="#000000">HP-UX (IA64W) (12)</text>
  <rect fill="blue" height="1.4" stroke="black" width="12" x="480" y="54448.6"/>
  <text x="480" y="54455.0" font-family="Tahoma" font-size="12" transform="rotate(90 480,54455.0)" text-rendering="optimizeSpeed" fill="#000000">NONSTOP_KERNEL (x86_64N) (14)</text>
  <rect fill="blue" height="1.7" stroke="black" width="12" x="495" y="54448.3"/>
  <text x="495" y="54455.0" font-family="Tahoma" font-size="12" transform="rotate(90 495,54455.0)" text-rendering="optimizeSpeed" fill="#000000">HP-UX (PA_RISC2.0) (17)</text>
  <rect fill="blue" height="2.1" stroke="black" width="12" x="510" y="54447.9"/>
  <text x="510" y="54455.0" font-family="Tahoma" font-size="12" transform="rotate(90 510,54455.0)" text-rendering="optimizeSpeed" fill="#000000">Linux (ppc) (21)</text>
  <rect fill="blue" height="2.3" stroke="black" width="12" x="525" y="54447.7"/>
  <text x="525" y="54455.0" font-family="Tahoma" font-size="12" transform="rotate(90 525,54455.0)" text-rendering="optimizeSpeed" fill="#000000">Linux (loongarch64) (23)</text>
  <rect fill="blue" height="2.7" stroke="black" width="12" x="540" y="54447.3"/>
  <text x="540" y="54455.0" font-family="Tahoma" font-size="12" transform="rotate(90 540,54455.0)" text-rendering="optimizeSpeed" fill="#000000">OpenBSD (amd64) (27)</text>
  <rect fill="blue" height="2.8" stroke="black" width="12" x="555" y="54447.2"/>
  <text x="555" y="54455.0" font-family="Tahoma" font-size="12" transform="rotate(90 555,54455.0)" text-rendering="optimizeSpeed" fill="#000000">Windows Vista (x86) (28)</text>
  <rect fill="blue" height="2.9" stroke="black" width="12" x="570" y="54447.1"/>
  <text x="570" y="54455.0" font-family="Tahoma" font-size="12" transform="rotate(90 570,54455.0)" text-rendering="optimizeSpeed" fill="#000000">Linux (x86) (29)</text>
  <rect fill="blue" height="3.6" stroke="black" width="12" x="585" y="54446.4"/>
  <text x="585" y="54455.0" font-family="Tahoma" font-size="12" transform="rotate(90 585,54455.0)" text-rendering="optimizeSpeed" fill="#000000">OS/400 (ppc64) (36)</text>
  <rect fill="blue" height="5.4" stroke="black" width="12" x="600" y="54444.6"/>
  <text x="600" y="54455.0" font-family="Tahoma" font-size="12" transform="rotate(90 600,54455.0)" text-rendering="optimizeSpeed" fill="#000000">Windows 2003 (amd64) (54)</text>
  <rect fill="blue" height="7.9" stroke="black" width="12" x="615" y="54442.1"/>
  <text x="615" y="54455.0" font-family="Tahoma" font-size="12" transform="rotate(90 615,54455.0)" text-rendering="optimizeSpeed" fill="#000000">FreeBSD (i386) (79)</text>
  <rect fill="blue" height="8.1" stroke="black" width="12" x="630" y="54441.9"/>
  <text x="630" y="54455.0" font-family="Tahoma" font-size="12" transform="rotate(90 630,54455.0)" text-rendering="optimizeSpeed" fill="#000000">Linux (ppc64) (81)</text>
  <rect fill="blue" height="12.4" stroke="black" width="12" x="645" y="54437.6"/>
  <text x="645" y="54455.0" font-family="Tahoma" font-size="12" transform="rotate(90 645,54455.0)" text-rendering="optimizeSpeed" fill="#000000">SunOS (x86) (124)</text>
  <rect fill="blue" height="12.8" stroke="black" width="12" x="660" y="54437.2"/>
  <text x="660" y="54455.0" font-family="Tahoma" font-size="12" transform="rotate(90 660,54455.0)" text-rendering="optimizeSpeed" fill="#000000">Windows 8 (x86) (128)</text>
  <rect fill="blue" height="14.4" stroke="black" width="12" x="675" y="54435.6"/>
  <text x="675" y="54455.0" font-family="Tahoma" font-size="12" transform="rotate(90 675,54455.0)" text-rendering="optimizeSpeed" fill="#000000">AIX (ppc) (144)</text>
  <rect fill="blue" height="15.7" stroke="black" width="12" x="690" y="54434.3"/>
  <text x="690" y="54455.0" font-family="Tahoma" font-size="12" transform="rotate(90 690,54455.0)" text-rendering="optimizeSpeed" fill="#000000">Windows Server 2008 (amd64) (157)</text>
  <rect fill="blue" height="18.2" stroke="black" width="12" x="705" y="54431.8"/>
  <text x="705" y="54455.0" font-family="Tahoma" font-size="12" transform="rotate(90 705,54455.0)" text-rendering="optimizeSpeed" fill="#000000">Mac OS X (aarch64) (182)</text>
  <rect fill="blue" height="18.9" stroke="black" width="12" x="720" y="54431.1"/>
  <text x="720" y="54455.0" font-family="Tahoma" font-size="12" transform="rotate(90 720,54455.0)" text-rendering="optimizeSpeed" fill="#000000">Linux (mips64el) (189)</text>
  <rect fill="blue" height="19.2" stroke="black" width="12" x="735" y="54430.8"/>
  <text x="735" y="54455.0" font-family="Tahoma" font-size="12" transform="rotate(90 735,54455.0)" text-rendering="optimizeSpeed" fill="#000000">SunOS (sparc) (192)</text>
  <rect fill="blue" height="20.2" stroke="black" width="12" x="750" y="54429.8"/>
  <text x="750" y="54455.0" font-family="Tahoma" font-size="12" transform="rotate(90 750,54455.0)" text-rendering="optimizeSpeed" fill="#000000">Windows 8 (amd64) (202)</text>
  <rect fill="blue" height="21.0" stroke="black" width="12" x="765" y="54429.0"/>
  <text x="765" y="54455.0" font-family="Tahoma" font-size="12" transform="rotate(90 765,54455.0)" text-rendering="optimizeSpeed" fill="#000000">z/OS (s390x) (210)</text>
  <rect fill="blue" height="26.3" stroke="black" width="12" x="780" y="54423.7"/>
  <text x="780" y="54455.0" font-family="Tahoma" font-size="12" transform="rotate(90 780,54455.0)" text-rendering="optimizeSpeed" fill="#000000">Windows Server 2008 (x86) (263)</text>
  <rect fill="blue" height="31.6" stroke="black" width="12" x="795" y="54418.4"/>
  <text x="795" y="54455.0" font-family="Tahoma" font-size="12" transform="rotate(90 795,54455.0)" text-rendering="optimizeSpeed" fill="#000000">HP-UX (IA64N) (316)</text>
  <rect fill="blue" height="35.3" stroke="black" width="12" x="810" y="54414.7"/>
  <text x="810" y="54455.0" font-family="Tahoma" font-size="12" transform="rotate(90 810,54455.0)" text-rendering="optimizeSpeed" fill="#000000">Linux (s390x) (353)</text>
  <rect fill="blue" height="37.4" stroke="black" width="12" x="825" y="54412.6"/>
  <text x="825" y="54455.0" font-family="Tahoma" font-size="12" transform="rotate(90 825,54455.0)" text-rendering="optimizeSpeed" fill="#000000">Windows 2003 (x86) (374)</text>
  <rect fill="blue" height="39.3" stroke="black" width="12" x="840" y="54410.7"/>
  <text x="840" y="54455.0" font-family="Tahoma" font-size="12" transform="rotate(90 840,54455.0)" text-rendering="optimizeSpeed" fill="#000000">Windows XP (x86) (393)</text>
  <rect fill="blue" height="65.8" stroke="black" width="12" x="855" y="54384.2"/>
  <text x="855" y="54455.0" font-family="Tahoma" font-size="12" transform="rotate(90 855,54455.0)" text-rendering="optimizeSpeed" fill="#000000">Linux (ppc64le) (658)</text>
  <rect fill="blue" height="71.1" stroke="black" width="12" x="870" y="54378.9"/>
  <text x="870" y="54455.0" font-family="Tahoma" font-size="12" transform="rotate(90 870,54455.0)" text-rendering="optimizeSpeed" fill="#000000">FreeBSD (amd64) (711)</text>
  <rect fill="blue" height="72.3" stroke="black" width="12" x="885" y="54377.7"/>
  <text x="885" y="54455.0" font-family="Tahoma" font-size="12" transform="rotate(90 885,54455.0)" text-rendering="optimizeSpeed" fill="#000000">Windows Server 2012 (x86) (723)</text>
  <rect fill="blue" height="83.3" stroke="black" width="12" x="900" y="54366.7"/>
  <text x="900" y="54455.0" font-family="Tahoma" font-size="12" transform="rotate(90 900,54455.0)" text-rendering="optimizeSpeed" fill="#000000">Windows NT (unknown) (x86) (833)</text>
  <rect fill="blue" height="84.4" stroke="black" width="12" x="915" y="54365.6"/>
  <text x="915" y="54455.0" font-family="Tahoma" font-size="12" transform="rotate(90 915,54455.0)" text-rendering="optimizeSpeed" fill="#000000">Windows 8.1 (x86) (844)</text>
  <rect fill="blue" height="89.5" stroke="black" width="12" x="930" y="54360.5"/>
  <text x="930" y="54455.0" font-family="Tahoma" font-size="12" transform="rotate(90 930,54455.0)" text-rendering="optimizeSpeed" fill="#000000">SunOS (amd64) (895)</text>
  <rect fill="blue" height="129.6" stroke="black" width="12" x="945" y="54320.4"/>
  <text x="945" y="54455.0" font-family="Tahoma" font-size="12" transform="rotate(90 945,54455.0)" text-rendering="optimizeSpeed" fill="#000000">SunOS (sparcv9) (1296)</text>
  <rect fill="blue" height="145.6" stroke="black" width="12" x="960" y="54304.4"/>
  <text x="960" y="54455.0" font-family="Tahoma" font-size="12" transform="rotate(90 960,54455.0)" text-rendering="optimizeSpeed" fill="#000000">Windows Server 2019 (x86) (1456)</text>
  <rect fill="blue" height="195.9" stroke="black" width="12" x="975" y="54254.1"/>
  <text x="975" y="54455.0" font-family="Tahoma" font-size="12" transform="rotate(90 975,54455.0)" text-rendering="optimizeSpeed" fill="#000000">Windows 8.1 (amd64) (1959)</text>
  <rect fill="blue" height="199.8" stroke="black" width="12" x="990" y="54250.2"/>
  <text x="990" y="54455.0" font-family="Tahoma" font-size="12" transform="rotate(90 990,54455.0)" text-rendering="optimizeSpeed" fill="#000000">Windows Server 2012 (amd64) (1998)</text>
  <rect fill="blue" height="206.4" stroke="black" width="12" x="1005" y="54243.6"/>
  <text x="1005" y="54455.0" font-family="Tahoma" font-size="12" transform="rotate(90 1005,54455.0)" text-rendering="optimizeSpeed" fill="#000000">AIX (ppc64) (2064)</text>
  <rect fill="blue" height="239.9" stroke="black" width="12" x="1020" y="54210.1"/>
  <text x="1020" y="54455.0" font-family="Tahoma" font-size="12" transform="rotate(90 1020,54455.0)" text-rendering="optimizeSpeed" fill="#000000">Windows NT (unknown) (amd64) (2399)</text>
  <rect fill="blue" height="277.8" stroke="black" width="12" x="1035" y="54172.2"/>
  <text x="1035" y="54455.0" font-family="Tahoma" font-size="12" transform="rotate(90 1035,54455.0)" text-rendering="optimizeSpeed" fill="#000000">Windows Server 2008 R2 (x86) (2778)</text>
  <rect fill="blue" height="368.7" stroke="black" width="12" x="1050" y="54081.3"/>
  <text x="1050" y="54455.0" font-family="Tahoma" font-size="12" transform="rotate(90 1050,54455.0)" text-rendering="optimizeSpeed" fill="#000000">Linux (arm) (3687)</text>
  <rect fill="blue" height="461.1" stroke="black" width="12" x="1065" y="53988.9"/>
  <text x="1065" y="54455.0" font-family="Tahoma" font-size="12" transform="rotate(90 1065,54455.0)" text-rendering="optimizeSpeed" fill="#000000">Linux (aarch64) (4611)</text>
  <rect fill="blue" height="519.1" stroke="black" width="12" x="1080" y="53930.9"/>
  <text x="1080" y="54455.0" font-family="Tahoma" font-size="12" transform="rotate(90 1080,54455.0)" text-rendering="optimizeSpeed" fill="#000000">Linux (i386) (5191)</text>
  <rect fill="blue" height="621.6" stroke="black" width="12" x="1095" y="53828.4"/>
  <text x="1095" y="54455.0" font-family="Tahoma" font-size="12" transform="rotate(90 1095,54455.0)" text-rendering="optimizeSpeed" fill="#000000">Windows Server 2008 R2 (amd64) (6216)</text>
  <rect fill="blue" height="637.1" stroke="black" width="12" x="1110" y="53812.9"/>
  <text x="1110" y="54455.0" font-family="Tahoma" font-size="12" transform="rotate(90 1110,54455.0)" text-rendering="optimizeSpeed" fill="#000000">Windows 7 (x86) (6371)</text>
  <rect fill="blue" height="845.6" stroke="black" width="12" x="1125" y="53604.4"/>
  <text x="1125" y="54455.0" font-family="Tahoma" font-size="12" transform="rotate(90 1125,54455.0)" text-rendering="optimizeSpeed" fill="#000000">Windows 7 (amd64) (8456)</text>
  <rect fill="blue" height="859.3" stroke="black" width="12" x="1140" y="53590.7"/>
  <text x="1140" y="54455.0" font-family="Tahoma" font-size="12" transform="rotate(90 1140,54455.0)" text-rendering="optimizeSpeed" fill="#000000">Windows Server 2019 (amd64) (8593)</text>
  <rect fill="blue" height="930.0" stroke="black" width="12" x="1155" y="53520.0"/>
  <text x="1155" y="54455.0" font-family="Tahoma" font-size="12" transform="rotate(90 1155,54455.0)" text-rendering="optimizeSpeed" fill="#000000">Windows Server 2012 R2 (x86) (9300)</text>
  <rect fill="blue" height="1143.5" stroke="black" width="12" x="1170" y="53306.5"/>
  <text x="1170" y="54455.0" font-family="Tahoma" font-size="12" transform="rotate(90 1170,54455.0)" text-rendering="optimizeSpeed" fill="#000000">Windows Server 2016 (x86) (11435)</text>
  <rect fill="blue" height="2202.5" stroke="black" width="12" x="1185" y="52247.5"/>
  <text x="1185" y="54455.0" font-family="Tahoma" font-size="12" transform="rotate(90 1185,54455.0)" text-rendering="optimizeSpeed" fill="#000000">Windows 10 (x86) (22025)</text>
  <rect fill="blue" height="2325.9" stroke="black" width="12" x="1200" y="52124.1"/>
  <text x="1200" y="54455.0" font-family="Tahoma" font-size="12" transform="rotate(90 1200,54455.0)" text-rendering="optimizeSpeed" fill="#000000">Windows Server 2012 R2 (amd64) (23259)</text>
  <rect fill="blue" height="2838.6" stroke="black" width="12" x="1215" y="51611.4"/>
  <text x="1215" y="54455.0" font-family="Tahoma" font-size="12" transform="rotate(90 1215,54455.0)" text-rendering="optimizeSpeed" fill="#000000">Windows Server 2016 (amd64) (28386)</text>
  <rect fill="blue" height="2953.7" stroke="black" width="12" x="1230" y="51496.3"/>
  <text x="1230" y="54455.0" font-family="Tahoma" font-size="12" transform="rotate(90 1230,54455.0)" text-rendering="optimizeSpeed" fill="#000000">Mac OS X (x86_64) (29537)</text>
  <rect fill="blue" height="5948.3" stroke="black" width="12" x="1245" y="48501.7"/>
  <text x="1245" y="54455.0" font-family="Tahoma" font-size="12" transform="rotate(90 1245,54455.0)" text-rendering="optimizeSpeed" fill="#000000">Windows 10 (amd64) (59483)</text>
  <rect fill="blue" height="28050.0" stroke="black" width="12" x="1260" y="26400.0"/>
  <text x="1260" y="54455.0" font-family="Tahoma" font-size="12" transform="rotate(90 1260,54455.0)" text-rendering="optimizeSpeed" fill="#000000">N/A (280500)</text>
  <rect fill="blue" height="54400.0" stroke="black" width="12" x="1275" y="50.0"/>
  <text x="1275" y="54455.0" font-family="Tahoma" font-size="12" transform="rotate(90 1275,54455.0)" text-rendering="optimizeSpeed" fill="#000000">Linux (amd64) (544000)</text>
  <text x="10" y="40" font-family="Tahoma" font-size="20" text-rendering="optimizeSpeed" fill="#000000">Nodes (total: 1073397)</text>
</svg>
