<svg xmlns="http://www.w3.org/2000/svg" version="1.1" preserveAspectRatio="xMidYMid meet" viewBox="0 0 500 38819.0">
  <rect fill="blue" height="0.0" stroke="black" width="12" x="15" y="38519.0"/>
  <text x="15" y="38524.0" font-family="Tahoma" font-size="12" transform="rotate(90 15,38524.0)" text-rendering="optimizeSpeed" fill="#000000">com-google-jenkins-plugins-dsl-YamlProject (1)</text>
  <rect fill="blue" height="0.0" stroke="black" width="12" x="30" y="38519.0"/>
  <text x="30" y="38524.0" font-family="Tahoma" font-size="12" transform="rotate(90 30,38524.0)" text-rendering="optimizeSpeed" fill="#000000">hudson-plugins-wormpex-data-template-DataWarehouseStyleProject (1)</text>
  <rect fill="blue" height="0.0" stroke="black" width="12" x="45" y="38519.0"/>
  <text x="45" y="38524.0" font-family="Tahoma" font-size="12" transform="rotate(90 45,38524.0)" text-rendering="optimizeSpeed" fill="#000000">org-jenkinsci-plugins-updatebot-ImportGithubRepoProject (1)</text>
  <rect fill="blue" height="0.0" stroke="black" width="12" x="60" y="38519.0"/>
  <text x="60" y="38524.0" font-family="Tahoma" font-size="12" transform="rotate(90 60,38524.0)" text-rendering="optimizeSpeed" fill="#000000">hudson-plugins-customer-data-template-DependencyStyleProject (2)</text>
  <rect fill="blue" height="0.0" stroke="black" width="12" x="75" y="38519.0"/>
  <text x="75" y="38524.0" font-family="Tahoma" font-size="12" transform="rotate(90 75,38524.0)" text-rendering="optimizeSpeed" fill="#000000">com-github-mjdetullio-jenkins-plugins-multibranch-IvyMultiBranchProject (3)</text>
  <rect fill="blue" height="0.0" stroke="black" width="12" x="90" y="38519.0"/>
  <text x="90" y="38524.0" font-family="Tahoma" font-size="12" transform="rotate(90 90,38524.0)" text-rendering="optimizeSpeed" fill="#000000">org-jvnet-hudson-test-MockFolder (3)</text>
  <rect fill="blue" height="0.0" stroke="black" width="12" x="105" y="38519.0"/>
  <text x="105" y="38524.0" font-family="Tahoma" font-size="12" transform="rotate(90 105,38524.0)" text-rendering="optimizeSpeed" fill="#000000">hudson-plugins-customer-data-template-DataWarehouseStyleProject (4)</text>
  <rect fill="blue" height="0.0" stroke="black" width="12" x="120" y="38519.0"/>
  <text x="120" y="38524.0" font-family="Tahoma" font-size="12" transform="rotate(90 120,38524.0)" text-rendering="optimizeSpeed" fill="#000000">org-jenkinsci-plugins-drupal-projects-DrupalProject (4)</text>
  <rect fill="blue" height="0.0" stroke="black" width="12" x="135" y="38519.0"/>
  <text x="135" y="38524.0" font-family="Tahoma" font-size="12" transform="rotate(90 135,38524.0)" text-rendering="optimizeSpeed" fill="#000000">org-jenkinsci-plugins-pipeline-multibranch-defaults-git-PipelineMultiBranchDefaultsGitProject (5)</text>
  <rect fill="blue" height="0.0" stroke="black" width="12" x="150" y="38519.0"/>
  <text x="150" y="38524.0" font-family="Tahoma" font-size="12" transform="rotate(90 150,38524.0)" text-rendering="optimizeSpeed" fill="#000000">com-barchart-jenkins-cascade-CascadeProject (19)</text>
  <rect fill="blue" height="0.1" stroke="black" width="12" x="165" y="38518.9"/>
  <text x="165" y="38524.0" font-family="Tahoma" font-size="12" transform="rotate(90 165,38524.0)" text-rendering="optimizeSpeed" fill="#000000">com-github-mjdetullio-jenkins-plugins-multibranch-MatrixMultiBranchProject (50)</text>
  <rect fill="blue" height="0.1" stroke="black" width="12" x="180" y="38518.9"/>
  <text x="180" y="38524.0" font-family="Tahoma" font-size="12" transform="rotate(90 180,38524.0)" text-rendering="optimizeSpeed" fill="#000000">hudson-plugin-smartjob-SmartJob (78)</text>
  <rect fill="blue" height="0.2" stroke="black" width="12" x="195" y="38518.7"/>
  <text x="195" y="38524.0" font-family="Tahoma" font-size="12" transform="rotate(90 195,38524.0)" text-rendering="optimizeSpeed" fill="#000000">captmorgan-ExternalProject (242)</text>
  <rect fill="blue" height="0.4" stroke="black" width="12" x="210" y="38518.5"/>
  <text x="210" y="38524.0" font-family="Tahoma" font-size="12" transform="rotate(90 210,38524.0)" text-rendering="optimizeSpeed" fill="#000000">org-jenkinsci-plugins-coordinator-model-CoordinatorProject (444)</text>
  <rect fill="blue" height="1.2" stroke="black" width="12" x="225" y="38517.7"/>
  <text x="225" y="38524.0" font-family="Tahoma" font-size="12" transform="rotate(90 225,38524.0)" text-rendering="optimizeSpeed" fill="#000000">com-github-mjdetullio-jenkins-plugins-multibranch-FreeStyleMultiBranchProject (1234)</text>
  <rect fill="blue" height="1.4" stroke="black" width="12" x="240" y="38517.5"/>
  <text x="240" y="38524.0" font-family="Tahoma" font-size="12" transform="rotate(90 240,38524.0)" text-rendering="optimizeSpeed" fill="#000000">org-jenkinsci-plugins-jobgenerator-JobGenerator (1440)</text>
  <rect fill="blue" height="3.2" stroke="black" width="12" x="255" y="38515.8"/>
  <text x="255" y="38524.0" font-family="Tahoma" font-size="12" transform="rotate(90 255,38524.0)" text-rendering="optimizeSpeed" fill="#000000">hudson-ivy-IvyModuleSet (3159)</text>
  <rect fill="blue" height="5.3" stroke="black" width="12" x="270" y="38513.7"/>
  <text x="270" y="38524.0" font-family="Tahoma" font-size="12" transform="rotate(90 270,38524.0)" text-rendering="optimizeSpeed" fill="#000000">com-github-mjdetullio-jenkins-plugins-multibranch-MavenMultiBranchProject (5293)</text>
  <rect fill="blue" height="6.0" stroke="black" width="12" x="285" y="38513.0"/>
  <text x="285" y="38524.0" font-family="Tahoma" font-size="12" transform="rotate(90 285,38524.0)" text-rendering="optimizeSpeed" fill="#000000">hudson-model-ExternalJob (5958)</text>
  <rect fill="blue" height="12.3" stroke="black" width="12" x="300" y="38506.6"/>
  <text x="300" y="38524.0" font-family="Tahoma" font-size="12" transform="rotate(90 300,38524.0)" text-rendering="optimizeSpeed" fill="#000000">hudson-plugins-project_inheritance-projects-InheritanceProject (12336)</text>
  <rect fill="blue" height="14.3" stroke="black" width="12" x="315" y="38504.7"/>
  <text x="315" y="38524.0" font-family="Tahoma" font-size="12" transform="rotate(90 315,38524.0)" text-rendering="optimizeSpeed" fill="#000000">org-jenkinsci-plugins-pipeline-multibranch-defaults-PipelineMultiBranchDefaultsProject (14252)</text>
  <rect fill="blue" height="26.3" stroke="black" width="12" x="330" y="38492.6"/>
  <text x="330" y="38524.0" font-family="Tahoma" font-size="12" transform="rotate(90 330,38524.0)" text-rendering="optimizeSpeed" fill="#000000">com-cloudbees-plugins-flow-BuildFlow (26349)</text>
  <rect fill="blue" height="52.2" stroke="black" width="12" x="345" y="38466.8"/>
  <text x="345" y="38524.0" font-family="Tahoma" font-size="12" transform="rotate(90 345,38524.0)" text-rendering="optimizeSpeed" fill="#000000">jenkins-branch-OrganizationFolder (52154)</text>
  <rect fill="blue" height="257.8" stroke="black" width="12" x="360" y="38261.2"/>
  <text x="360" y="38524.0" font-family="Tahoma" font-size="12" transform="rotate(90 360,38524.0)" text-rendering="optimizeSpeed" fill="#000000">hudson-matrix-MatrixProject (257782)</text>
  <rect fill="blue" height="823.7" stroke="black" width="12" x="375" y="37695.3"/>
  <text x="375" y="38524.0" font-family="Tahoma" font-size="12" transform="rotate(90 375,38524.0)" text-rendering="optimizeSpeed" fill="#000000">com-tikal-jenkins-plugins-multijob-MultiJobProject (823716)</text>
  <rect fill="blue" height="1693.8" stroke="black" width="12" x="390" y="36825.2"/>
  <text x="390" y="38524.0" font-family="Tahoma" font-size="12" transform="rotate(90 390,38524.0)" text-rendering="optimizeSpeed" fill="#000000">org-jenkinsci-plugins-workflow-multibranch-WorkflowMultiBranchProject (1693824)</text>
  <rect fill="blue" height="2195.1" stroke="black" width="12" x="405" y="36323.8"/>
  <text x="405" y="38524.0" font-family="Tahoma" font-size="12" transform="rotate(90 405,38524.0)" text-rendering="optimizeSpeed" fill="#000000">hudson-maven-MavenModuleSet (2195138)</text>
  <rect fill="blue" height="2626.6" stroke="black" width="12" x="420" y="35892.4"/>
  <text x="420" y="38524.0" font-family="Tahoma" font-size="12" transform="rotate(90 420,38524.0)" text-rendering="optimizeSpeed" fill="#000000">com-cloudbees-hudson-plugins-folder-Folder (2626599)</text>
  <rect fill="blue" height="20691.9" stroke="black" width="12" x="435" y="17827.0"/>
  <text x="435" y="38524.0" font-family="Tahoma" font-size="12" transform="rotate(90 435,38524.0)" text-rendering="optimizeSpeed" fill="#000000">hudson-model-FreeStyleProject (20691949)</text>
  <rect fill="blue" height="38469.0" stroke="black" width="12" x="450" y="50.0"/>
  <text x="450" y="38524.0" font-family="Tahoma" font-size="12" transform="rotate(90 450,38524.0)" text-rendering="optimizeSpeed" fill="#000000">org-jenkinsci-plugins-workflow-job-WorkflowJob (38468976)</text>
  <text x="10" y="40" font-family="Tahoma" font-size="20" text-rendering="optimizeSpeed" fill="#000000">Jobs (total: 66881016)</text>
</svg>
