<svg xmlns="http://www.w3.org/2000/svg" version="1.1" preserveAspectRatio="xMidYMid meet" viewBox="0 0 485 34293.6">
  <rect fill="blue" height="0.0" stroke="black" width="12" x="15" y="33993.6"/>
  <text x="15" y="33998.6" font-family="Tahoma" font-size="12" transform="rotate(90 15,33998.6)" text-rendering="optimizeSpeed" fill="#000000">com-google-jenkins-plugins-dsl-YamlProject (1)</text>
  <rect fill="blue" height="0.0" stroke="black" width="12" x="30" y="33993.6"/>
  <text x="30" y="33998.6" font-family="Tahoma" font-size="12" transform="rotate(90 30,33998.6)" text-rendering="optimizeSpeed" fill="#000000">hudson-plugins-customer-data-template-DependencyStyleProject (2)</text>
  <rect fill="blue" height="0.0" stroke="black" width="12" x="45" y="33993.6"/>
  <text x="45" y="33998.6" font-family="Tahoma" font-size="12" transform="rotate(90 45,33998.6)" text-rendering="optimizeSpeed" fill="#000000">hudson-plugins-customer-data-template-DataWarehouseStyleProject (3)</text>
  <rect fill="blue" height="0.0" stroke="black" width="12" x="60" y="33993.6"/>
  <text x="60" y="33998.6" font-family="Tahoma" font-size="12" transform="rotate(90 60,33998.6)" text-rendering="optimizeSpeed" fill="#000000">org-jvnet-hudson-test-MockFolder (3)</text>
  <rect fill="blue" height="0.0" stroke="black" width="12" x="75" y="33993.6"/>
  <text x="75" y="33998.6" font-family="Tahoma" font-size="12" transform="rotate(90 75,33998.6)" text-rendering="optimizeSpeed" fill="#000000">com-github-mjdetullio-jenkins-plugins-multibranch-IvyMultiBranchProject (5)</text>
  <rect fill="blue" height="0.0" stroke="black" width="12" x="90" y="33993.6"/>
  <text x="90" y="33998.6" font-family="Tahoma" font-size="12" transform="rotate(90 90,33998.6)" text-rendering="optimizeSpeed" fill="#000000">org-jenkinsci-plugins-coordinator-dummy-model-CoordinatorProject (5)</text>
  <rect fill="blue" height="0.0" stroke="black" width="12" x="105" y="33993.6"/>
  <text x="105" y="33998.6" font-family="Tahoma" font-size="12" transform="rotate(90 105,33998.6)" text-rendering="optimizeSpeed" fill="#000000">org-jenkinsci-plugins-pipeline-multibranch-defaults-git-PipelineMultiBranchDefaultsGitProject (5)</text>
  <rect fill="blue" height="0.0" stroke="black" width="12" x="120" y="33993.5"/>
  <text x="120" y="33998.6" font-family="Tahoma" font-size="12" transform="rotate(90 120,33998.6)" text-rendering="optimizeSpeed" fill="#000000">org-jenkinsci-plugins-drupal-projects-DrupalProject (6)</text>
  <rect fill="blue" height="0.0" stroke="black" width="12" x="135" y="33993.5"/>
  <text x="135" y="33998.6" font-family="Tahoma" font-size="12" transform="rotate(90 135,33998.6)" text-rendering="optimizeSpeed" fill="#000000">com-barchart-jenkins-cascade-CascadeProject (20)</text>
  <rect fill="blue" height="0.0" stroke="black" width="12" x="150" y="33993.5"/>
  <text x="150" y="33998.6" font-family="Tahoma" font-size="12" transform="rotate(90 150,33998.6)" text-rendering="optimizeSpeed" fill="#000000">com-github-mjdetullio-jenkins-plugins-multibranch-MatrixMultiBranchProject (43)</text>
  <rect fill="blue" height="0.1" stroke="black" width="12" x="165" y="33993.5"/>
  <text x="165" y="33998.6" font-family="Tahoma" font-size="12" transform="rotate(90 165,33998.6)" text-rendering="optimizeSpeed" fill="#000000">hudson-plugin-smartjob-SmartJob (84)</text>
  <rect fill="blue" height="0.2" stroke="black" width="12" x="180" y="33993.3"/>
  <text x="180" y="33998.6" font-family="Tahoma" font-size="12" transform="rotate(90 180,33998.6)" text-rendering="optimizeSpeed" fill="#000000">captmorgan-ExternalProject (226)</text>
  <rect fill="blue" height="0.4" stroke="black" width="12" x="195" y="33993.2"/>
  <text x="195" y="33998.6" font-family="Tahoma" font-size="12" transform="rotate(90 195,33998.6)" text-rendering="optimizeSpeed" fill="#000000">org-jenkinsci-plugins-coordinator-model-CoordinatorProject (357)</text>
  <rect fill="blue" height="1.2" stroke="black" width="12" x="210" y="33992.3"/>
  <text x="210" y="33998.6" font-family="Tahoma" font-size="12" transform="rotate(90 210,33998.6)" text-rendering="optimizeSpeed" fill="#000000">com-github-mjdetullio-jenkins-plugins-multibranch-FreeStyleMultiBranchProject (1248)</text>
  <rect fill="blue" height="1.9" stroke="black" width="12" x="225" y="33991.6"/>
  <text x="225" y="33998.6" font-family="Tahoma" font-size="12" transform="rotate(90 225,33998.6)" text-rendering="optimizeSpeed" fill="#000000">org-jenkinsci-plugins-jobgenerator-JobGenerator (1923)</text>
  <rect fill="blue" height="3.6" stroke="black" width="12" x="240" y="33990.0"/>
  <text x="240" y="33998.6" font-family="Tahoma" font-size="12" transform="rotate(90 240,33998.6)" text-rendering="optimizeSpeed" fill="#000000">hudson-ivy-IvyModuleSet (3591)</text>
  <rect fill="blue" height="4.3" stroke="black" width="12" x="255" y="33989.2"/>
  <text x="255" y="33998.6" font-family="Tahoma" font-size="12" transform="rotate(90 255,33998.6)" text-rendering="optimizeSpeed" fill="#000000">com-github-mjdetullio-jenkins-plugins-multibranch-MavenMultiBranchProject (4350)</text>
  <rect fill="blue" height="6.0" stroke="black" width="12" x="270" y="33987.5"/>
  <text x="270" y="33998.6" font-family="Tahoma" font-size="12" transform="rotate(90 270,33998.6)" text-rendering="optimizeSpeed" fill="#000000">hudson-model-ExternalJob (6028)</text>
  <rect fill="blue" height="10.4" stroke="black" width="12" x="285" y="33983.1"/>
  <text x="285" y="33998.6" font-family="Tahoma" font-size="12" transform="rotate(90 285,33998.6)" text-rendering="optimizeSpeed" fill="#000000">org-jenkinsci-plugins-pipeline-multibranch-defaults-PipelineMultiBranchDefaultsProject (10417)</text>
  <rect fill="blue" height="13.5" stroke="black" width="12" x="300" y="33980.0"/>
  <text x="300" y="33998.6" font-family="Tahoma" font-size="12" transform="rotate(90 300,33998.6)" text-rendering="optimizeSpeed" fill="#000000">hudson-plugins-project_inheritance-projects-InheritanceProject (13539)</text>
  <rect fill="blue" height="28.6" stroke="black" width="12" x="315" y="33965.0"/>
  <text x="315" y="33998.6" font-family="Tahoma" font-size="12" transform="rotate(90 315,33998.6)" text-rendering="optimizeSpeed" fill="#000000">com-cloudbees-plugins-flow-BuildFlow (28557)</text>
  <rect fill="blue" height="49.7" stroke="black" width="12" x="330" y="33943.8"/>
  <text x="330" y="33998.6" font-family="Tahoma" font-size="12" transform="rotate(90 330,33998.6)" text-rendering="optimizeSpeed" fill="#000000">jenkins-branch-OrganizationFolder (49724)</text>
  <rect fill="blue" height="280.8" stroke="black" width="12" x="345" y="33712.8"/>
  <text x="345" y="33998.6" font-family="Tahoma" font-size="12" transform="rotate(90 345,33998.6)" text-rendering="optimizeSpeed" fill="#000000">hudson-matrix-MatrixProject (280761)</text>
  <rect fill="blue" height="740.5" stroke="black" width="12" x="360" y="33253.1"/>
  <text x="360" y="33998.6" font-family="Tahoma" font-size="12" transform="rotate(90 360,33998.6)" text-rendering="optimizeSpeed" fill="#000000">com-tikal-jenkins-plugins-multijob-MultiJobProject (740460)</text>
  <rect fill="blue" height="1582.8" stroke="black" width="12" x="375" y="32410.7"/>
  <text x="375" y="33998.6" font-family="Tahoma" font-size="12" transform="rotate(90 375,33998.6)" text-rendering="optimizeSpeed" fill="#000000">org-jenkinsci-plugins-workflow-multibranch-WorkflowMultiBranchProject (1582828)</text>
  <rect fill="blue" height="2279.8" stroke="black" width="12" x="390" y="31713.8"/>
  <text x="390" y="33998.6" font-family="Tahoma" font-size="12" transform="rotate(90 390,33998.6)" text-rendering="optimizeSpeed" fill="#000000">hudson-maven-MavenModuleSet (2279776)</text>
  <rect fill="blue" height="2393.7" stroke="black" width="12" x="405" y="31599.8"/>
  <text x="405" y="33998.6" font-family="Tahoma" font-size="12" transform="rotate(90 405,33998.6)" text-rendering="optimizeSpeed" fill="#000000">com-cloudbees-hudson-plugins-folder-Folder (2393746)</text>
  <rect fill="blue" height="20485.3" stroke="black" width="12" x="420" y="13508.3"/>
  <text x="420" y="33998.6" font-family="Tahoma" font-size="12" transform="rotate(90 420,33998.6)" text-rendering="optimizeSpeed" fill="#000000">hudson-model-FreeStyleProject (20485288)</text>
  <rect fill="blue" height="33943.6" stroke="black" width="12" x="435" y="50.0"/>
  <text x="435" y="33998.6" font-family="Tahoma" font-size="12" transform="rotate(90 435,33998.6)" text-rendering="optimizeSpeed" fill="#000000">org-jenkinsci-plugins-workflow-job-WorkflowJob (33943557)</text>
  <text x="10" y="40" font-family="Tahoma" font-size="20" text-rendering="optimizeSpeed" fill="#000000">Jobs (total: 61826553)</text>
</svg>
