<svg xmlns="http://www.w3.org/2000/svg" version="1.1" preserveAspectRatio="xMidYMid meet" viewBox="0 0 1325 62682.8">
  <rect fill="blue" height="0.1" stroke="black" width="12" x="15" y="62382.7"/>
  <text x="15" y="62387.8" font-family="Tahoma" font-size="12" transform="rotate(90 15,62387.8)" text-rendering="optimizeSpeed" fill="#000000">DragonFlyBSD (amd64) (1)</text>
  <rect fill="blue" height="0.1" stroke="black" width="12" x="30" y="62382.7"/>
  <text x="30" y="62387.8" font-family="Tahoma" font-size="12" transform="rotate(90 30,62387.8)" text-rendering="optimizeSpeed" fill="#000000">HP-UX (PA_RISC2.0W) (1)</text>
  <rect fill="blue" height="0.1" stroke="black" width="12" x="45" y="62382.7"/>
  <text x="45" y="62387.8" font-family="Tahoma" font-size="12" transform="rotate(90 45,62387.8)" text-rendering="optimizeSpeed" fill="#000000">Linux (sparcv9) (1)</text>
  <rect fill="blue" height="0.1" stroke="black" width="12" x="60" y="62382.7"/>
  <text x="60" y="62387.8" font-family="Tahoma" font-size="12" transform="rotate(90 60,62387.8)" text-rendering="optimizeSpeed" fill="#000000">Linux (x86_64) (1)</text>
  <rect fill="blue" height="0.1" stroke="black" width="12" x="75" y="62382.7"/>
  <text x="75" y="62387.8" font-family="Tahoma" font-size="12" transform="rotate(90 75,62387.8)" text-rendering="optimizeSpeed" fill="#000000">Linux (zArch_64) (1)</text>
  <rect fill="blue" height="0.1" stroke="black" width="12" x="90" y="62382.7"/>
  <text x="90" y="62387.8" font-family="Tahoma" font-size="12" transform="rotate(90 90,62387.8)" text-rendering="optimizeSpeed" fill="#000000">MidnightBSD (amd64) (1)</text>
  <rect fill="blue" height="0.1" stroke="black" width="12" x="105" y="62382.7"/>
  <text x="105" y="62387.8" font-family="Tahoma" font-size="12" transform="rotate(90 105,62387.8)" text-rendering="optimizeSpeed" fill="#000000">NetBSD (i386) (1)</text>
  <rect fill="blue" height="0.1" stroke="black" width="12" x="120" y="62382.7"/>
  <text x="120" y="62387.8" font-family="Tahoma" font-size="12" transform="rotate(90 120,62387.8)" text-rendering="optimizeSpeed" fill="#000000">OS/2 (x86) (1)</text>
  <rect fill="blue" height="0.1" stroke="black" width="12" x="135" y="62382.7"/>
  <text x="135" y="62387.8" font-family="Tahoma" font-size="12" transform="rotate(90 135,62387.8)" text-rendering="optimizeSpeed" fill="#000000">OpenBSD (aarch64) (1)</text>
  <rect fill="blue" height="0.1" stroke="black" width="12" x="150" y="62382.7"/>
  <text x="150" y="62387.8" font-family="Tahoma" font-size="12" transform="rotate(90 150,62387.8)" text-rendering="optimizeSpeed" fill="#000000">Windows 2000 (x86) (1)</text>
  <rect fill="blue" height="0.1" stroke="black" width="12" x="165" y="62382.7"/>
  <text x="165" y="62387.8" font-family="Tahoma" font-size="12" transform="rotate(90 165,62387.8)" text-rendering="optimizeSpeed" fill="#000000">Windows Server 2016 Datacenter (amd64) (1)</text>
  <rect fill="blue" height="0.1" stroke="black" width="12" x="180" y="62382.7"/>
  <text x="180" y="62387.8" font-family="Tahoma" font-size="12" transform="rotate(90 180,62387.8)" text-rendering="optimizeSpeed" fill="#000000">Windows Vista (amd64) (1)</text>
  <rect fill="blue" height="0.1" stroke="black" width="12" x="195" y="62382.7"/>
  <text x="195" y="62387.8" font-family="Tahoma" font-size="12" transform="rotate(90 195,62387.8)" text-rendering="optimizeSpeed" fill="#000000">Windows XP (amd64) (1)</text>
  <rect fill="blue" height="0.1" stroke="black" width="12" x="210" y="62382.7"/>
  <text x="210" y="62387.8" font-family="Tahoma" font-size="12" transform="rotate(90 210,62387.8)" text-rendering="optimizeSpeed" fill="#000000">z/OS (s390) (1)</text>
  <rect fill="blue" height="0.2" stroke="black" width="12" x="225" y="62382.6"/>
  <text x="225" y="62387.8" font-family="Tahoma" font-size="12" transform="rotate(90 225,62387.8)" text-rendering="optimizeSpeed" fill="#000000">OS/400 (ppc) (2)</text>
  <rect fill="blue" height="0.3" stroke="black" width="12" x="240" y="62382.5"/>
  <text x="240" y="62387.8" font-family="Tahoma" font-size="12" transform="rotate(90 240,62387.8)" text-rendering="optimizeSpeed" fill="#000000">HP-UX (ia64) (3)</text>
  <rect fill="blue" height="0.3" stroke="black" width="12" x="255" y="62382.5"/>
  <text x="255" y="62387.8" font-family="Tahoma" font-size="12" transform="rotate(90 255,62387.8)" text-rendering="optimizeSpeed" fill="#000000">Linux (e2k) (3)</text>
  <rect fill="blue" height="0.4" stroke="black" width="12" x="270" y="62382.4"/>
  <text x="270" y="62387.8" font-family="Tahoma" font-size="12" transform="rotate(90 270,62387.8)" text-rendering="optimizeSpeed" fill="#000000">NetBSD (amd64) (4)</text>
  <rect fill="blue" height="0.4" stroke="black" width="12" x="285" y="62382.4"/>
  <text x="285" y="62387.8" font-family="Tahoma" font-size="12" transform="rotate(90 285,62387.8)" text-rendering="optimizeSpeed" fill="#000000">Windows Server 2016 Standard (amd64) (4)</text>
  <rect fill="blue" height="0.5" stroke="black" width="12" x="300" y="62382.3"/>
  <text x="300" y="62387.8" font-family="Tahoma" font-size="12" transform="rotate(90 300,62387.8)" text-rendering="optimizeSpeed" fill="#000000">NONSTOP_KERNEL (IA64N) (5)</text>
  <rect fill="blue" height="0.5" stroke="black" width="12" x="315" y="62382.3"/>
  <text x="315" y="62387.8" font-family="Tahoma" font-size="12" transform="rotate(90 315,62387.8)" text-rendering="optimizeSpeed" fill="#000000">NONSTOP_KERNEL (x86_64N) (5)</text>
  <rect fill="blue" height="0.5" stroke="black" width="12" x="330" y="62382.3"/>
  <text x="330" y="62387.8" font-family="Tahoma" font-size="12" transform="rotate(90 330,62387.8)" text-rendering="optimizeSpeed" fill="#000000">Windows Server version 1909 (amd64) (5)</text>
  <rect fill="blue" height="0.6" stroke="black" width="12" x="345" y="62382.2"/>
  <text x="345" y="62387.8" font-family="Tahoma" font-size="12" transform="rotate(90 345,62387.8)" text-rendering="optimizeSpeed" fill="#000000">Linux (sw64) (6)</text>
  <rect fill="blue" height="0.7" stroke="black" width="12" x="360" y="62382.1"/>
  <text x="360" y="62387.8" font-family="Tahoma" font-size="12" transform="rotate(90 360,62387.8)" text-rendering="optimizeSpeed" fill="#000000">FreeBSD (aarch64) (7)</text>
  <rect fill="blue" height="0.8" stroke="black" width="12" x="375" y="62382.0"/>
  <text x="375" y="62387.8" font-family="Tahoma" font-size="12" transform="rotate(90 375,62387.8)" text-rendering="optimizeSpeed" fill="#000000">Linux (riscv64) (8)</text>
  <rect fill="blue" height="0.9" stroke="black" width="12" x="390" y="62381.9"/>
  <text x="390" y="62387.8" font-family="Tahoma" font-size="12" transform="rotate(90 390,62387.8)" text-rendering="optimizeSpeed" fill="#000000">OS400 (ppc64) (9)</text>
  <rect fill="blue" height="1.0" stroke="black" width="12" x="405" y="62381.8"/>
  <text x="405" y="62387.8" font-family="Tahoma" font-size="12" transform="rotate(90 405,62387.8)" text-rendering="optimizeSpeed" fill="#000000">Windows Server version 2009 (amd64) (10)</text>
  <rect fill="blue" height="1.3" stroke="black" width="12" x="420" y="62381.5"/>
  <text x="420" y="62387.8" font-family="Tahoma" font-size="12" transform="rotate(90 420,62387.8)" text-rendering="optimizeSpeed" fill="#000000">HP-UX (PA_RISC2.0) (13)</text>
  <rect fill="blue" height="1.9" stroke="black" width="12" x="435" y="62380.9"/>
  <text x="435" y="62387.8" font-family="Tahoma" font-size="12" transform="rotate(90 435,62387.8)" text-rendering="optimizeSpeed" fill="#000000">OpenBSD (amd64) (19)</text>
  <rect fill="blue" height="2.0" stroke="black" width="12" x="450" y="62380.8"/>
  <text x="450" y="62387.8" font-family="Tahoma" font-size="12" transform="rotate(90 450,62387.8)" text-rendering="optimizeSpeed" fill="#000000">Linux (ppc) (20)</text>
  <rect fill="blue" height="2.8" stroke="black" width="12" x="465" y="62380.0"/>
  <text x="465" y="62387.8" font-family="Tahoma" font-size="12" transform="rotate(90 465,62387.8)" text-rendering="optimizeSpeed" fill="#000000">Linux (x86) (28)</text>
  <rect fill="blue" height="2.9" stroke="black" width="12" x="480" y="62379.9"/>
  <text x="480" y="62387.8" font-family="Tahoma" font-size="12" transform="rotate(90 480,62387.8)" text-rendering="optimizeSpeed" fill="#000000">Windows 2003 (amd64) (29)</text>
  <rect fill="blue" height="3.6" stroke="black" width="12" x="495" y="62379.2"/>
  <text x="495" y="62387.8" font-family="Tahoma" font-size="12" transform="rotate(90 495,62387.8)" text-rendering="optimizeSpeed" fill="#000000">Windows Vista (x86) (36)</text>
  <rect fill="blue" height="4.3" stroke="black" width="12" x="510" y="62378.5"/>
  <text x="510" y="62387.8" font-family="Tahoma" font-size="12" transform="rotate(90 510,62387.8)" text-rendering="optimizeSpeed" fill="#000000">HP-UX (IA64W) (43)</text>
  <rect fill="blue" height="4.7" stroke="black" width="12" x="525" y="62378.1"/>
  <text x="525" y="62387.8" font-family="Tahoma" font-size="12" transform="rotate(90 525,62387.8)" text-rendering="optimizeSpeed" fill="#000000">FreeBSD (i386) (47)</text>
  <rect fill="blue" height="5.2" stroke="black" width="12" x="540" y="62377.6"/>
  <text x="540" y="62387.8" font-family="Tahoma" font-size="12" transform="rotate(90 540,62387.8)" text-rendering="optimizeSpeed" fill="#000000">OS/400 (ppc64) (52)</text>
  <rect fill="blue" height="5.8" stroke="black" width="12" x="555" y="62377.0"/>
  <text x="555" y="62387.8" font-family="Tahoma" font-size="12" transform="rotate(90 555,62387.8)" text-rendering="optimizeSpeed" fill="#000000">Linux (ppc64) (58)</text>
  <rect fill="blue" height="7.4" stroke="black" width="12" x="570" y="62375.4"/>
  <text x="570" y="62387.8" font-family="Tahoma" font-size="12" transform="rotate(90 570,62387.8)" text-rendering="optimizeSpeed" fill="#000000">Linux (mips64el) (74)</text>
  <rect fill="blue" height="7.9" stroke="black" width="12" x="585" y="62374.9"/>
  <text x="585" y="62387.8" font-family="Tahoma" font-size="12" transform="rotate(90 585,62387.8)" text-rendering="optimizeSpeed" fill="#000000">Windows 8 (x86) (79)</text>
  <rect fill="blue" height="9.2" stroke="black" width="12" x="600" y="62373.6"/>
  <text x="600" y="62387.8" font-family="Tahoma" font-size="12" transform="rotate(90 600,62387.8)" text-rendering="optimizeSpeed" fill="#000000">SunOS (x86) (92)</text>
  <rect fill="blue" height="9.8" stroke="black" width="12" x="615" y="62373.0"/>
  <text x="615" y="62387.8" font-family="Tahoma" font-size="12" transform="rotate(90 615,62387.8)" text-rendering="optimizeSpeed" fill="#000000">AIX (ppc) (98)</text>
  <rect fill="blue" height="9.8" stroke="black" width="12" x="630" y="62373.0"/>
  <text x="630" y="62387.8" font-family="Tahoma" font-size="12" transform="rotate(90 630,62387.8)" text-rendering="optimizeSpeed" fill="#000000">Windows Server 2022 (x86) (98)</text>
  <rect fill="blue" height="9.9" stroke="black" width="12" x="645" y="62372.9"/>
  <text x="645" y="62387.8" font-family="Tahoma" font-size="12" transform="rotate(90 645,62387.8)" text-rendering="optimizeSpeed" fill="#000000">Windows Server 2008 (amd64) (99)</text>
  <rect fill="blue" height="10.4" stroke="black" width="12" x="660" y="62372.4"/>
  <text x="660" y="62387.8" font-family="Tahoma" font-size="12" transform="rotate(90 660,62387.8)" text-rendering="optimizeSpeed" fill="#000000">Windows 8 (amd64) (104)</text>
  <rect fill="blue" height="11.1" stroke="black" width="12" x="675" y="62371.7"/>
  <text x="675" y="62387.8" font-family="Tahoma" font-size="12" transform="rotate(90 675,62387.8)" text-rendering="optimizeSpeed" fill="#000000">SunOS (sparc) (111)</text>
  <rect fill="blue" height="12.1" stroke="black" width="12" x="690" y="62370.7"/>
  <text x="690" y="62387.8" font-family="Tahoma" font-size="12" transform="rotate(90 690,62387.8)" text-rendering="optimizeSpeed" fill="#000000">Linux (loongarch64) (121)</text>
  <rect fill="blue" height="13.3" stroke="black" width="12" x="705" y="62369.5"/>
  <text x="705" y="62387.8" font-family="Tahoma" font-size="12" transform="rotate(90 705,62387.8)" text-rendering="optimizeSpeed" fill="#000000">Windows Server 2008 (x86) (133)</text>
  <rect fill="blue" height="14.6" stroke="black" width="12" x="720" y="62368.2"/>
  <text x="720" y="62387.8" font-family="Tahoma" font-size="12" transform="rotate(90 720,62387.8)" text-rendering="optimizeSpeed" fill="#000000">Windows 11 (x86) (146)</text>
  <rect fill="blue" height="15.2" stroke="black" width="12" x="735" y="62367.6"/>
  <text x="735" y="62387.8" font-family="Tahoma" font-size="12" transform="rotate(90 735,62387.8)" text-rendering="optimizeSpeed" fill="#000000">Windows XP (x86) (152)</text>
  <rect fill="blue" height="19.6" stroke="black" width="12" x="750" y="62363.2"/>
  <text x="750" y="62387.8" font-family="Tahoma" font-size="12" transform="rotate(90 750,62387.8)" text-rendering="optimizeSpeed" fill="#000000">Windows 2003 (x86) (196)</text>
  <rect fill="blue" height="22.7" stroke="black" width="12" x="765" y="62360.1"/>
  <text x="765" y="62387.8" font-family="Tahoma" font-size="12" transform="rotate(90 765,62387.8)" text-rendering="optimizeSpeed" fill="#000000">z/OS (s390x) (227)</text>
  <rect fill="blue" height="24.2" stroke="black" width="12" x="780" y="62358.6"/>
  <text x="780" y="62387.8" font-family="Tahoma" font-size="12" transform="rotate(90 780,62387.8)" text-rendering="optimizeSpeed" fill="#000000">HP-UX (IA64N) (242)</text>
  <rect fill="blue" height="27.3" stroke="black" width="12" x="795" y="62355.5"/>
  <text x="795" y="62387.8" font-family="Tahoma" font-size="12" transform="rotate(90 795,62387.8)" text-rendering="optimizeSpeed" fill="#000000">Linux (s390x) (273)</text>
  <rect fill="blue" height="43.4" stroke="black" width="12" x="810" y="62339.4"/>
  <text x="810" y="62387.8" font-family="Tahoma" font-size="12" transform="rotate(90 810,62387.8)" text-rendering="optimizeSpeed" fill="#000000">Windows Server 2012 (x86) (434)</text>
  <rect fill="blue" height="56.8" stroke="black" width="12" x="825" y="62326.0"/>
  <text x="825" y="62387.8" font-family="Tahoma" font-size="12" transform="rotate(90 825,62387.8)" text-rendering="optimizeSpeed" fill="#000000">Windows 8.1 (x86) (568)</text>
  <rect fill="blue" height="57.4" stroke="black" width="12" x="840" y="62325.4"/>
  <text x="840" y="62387.8" font-family="Tahoma" font-size="12" transform="rotate(90 840,62387.8)" text-rendering="optimizeSpeed" fill="#000000">SunOS (amd64) (574)</text>
  <rect fill="blue" height="58.9" stroke="black" width="12" x="855" y="62323.9"/>
  <text x="855" y="62387.8" font-family="Tahoma" font-size="12" transform="rotate(90 855,62387.8)" text-rendering="optimizeSpeed" fill="#000000">Windows NT (unknown) (x86) (589)</text>
  <rect fill="blue" height="69.1" stroke="black" width="12" x="870" y="62313.7"/>
  <text x="870" y="62387.8" font-family="Tahoma" font-size="12" transform="rotate(90 870,62387.8)" text-rendering="optimizeSpeed" fill="#000000">Linux (ppc64le) (691)</text>
  <rect fill="blue" height="74.2" stroke="black" width="12" x="885" y="62308.6"/>
  <text x="885" y="62387.8" font-family="Tahoma" font-size="12" transform="rotate(90 885,62387.8)" text-rendering="optimizeSpeed" fill="#000000">FreeBSD (amd64) (742)</text>
  <rect fill="blue" height="105.9" stroke="black" width="12" x="900" y="62276.9"/>
  <text x="900" y="62387.8" font-family="Tahoma" font-size="12" transform="rotate(90 900,62387.8)" text-rendering="optimizeSpeed" fill="#000000">Windows Server 2022 (amd64) (1059)</text>
  <rect fill="blue" height="114.7" stroke="black" width="12" x="915" y="62268.1"/>
  <text x="915" y="62387.8" font-family="Tahoma" font-size="12" transform="rotate(90 915,62387.8)" text-rendering="optimizeSpeed" fill="#000000">Windows 8.1 (amd64) (1147)</text>
  <rect fill="blue" height="121.4" stroke="black" width="12" x="930" y="62261.4"/>
  <text x="930" y="62387.8" font-family="Tahoma" font-size="12" transform="rotate(90 930,62387.8)" text-rendering="optimizeSpeed" fill="#000000">Windows Server 2012 (amd64) (1214)</text>
  <rect fill="blue" height="124.5" stroke="black" width="12" x="945" y="62258.3"/>
  <text x="945" y="62387.8" font-family="Tahoma" font-size="12" transform="rotate(90 945,62387.8)" text-rendering="optimizeSpeed" fill="#000000">SunOS (sparcv9) (1245)</text>
  <rect fill="blue" height="137.3" stroke="black" width="12" x="960" y="62245.5"/>
  <text x="960" y="62387.8" font-family="Tahoma" font-size="12" transform="rotate(90 960,62387.8)" text-rendering="optimizeSpeed" fill="#000000">Windows Server 2008 R2 (x86) (1373)</text>
  <rect fill="blue" height="205.1" stroke="black" width="12" x="975" y="62177.7"/>
  <text x="975" y="62387.8" font-family="Tahoma" font-size="12" transform="rotate(90 975,62387.8)" text-rendering="optimizeSpeed" fill="#000000">AIX (ppc64) (2051)</text>
  <rect fill="blue" height="225.0" stroke="black" width="12" x="990" y="62157.8"/>
  <text x="990" y="62387.8" font-family="Tahoma" font-size="12" transform="rotate(90 990,62387.8)" text-rendering="optimizeSpeed" fill="#000000">Windows Server 2019 (x86) (2250)</text>
  <rect fill="blue" height="260.2" stroke="black" width="12" x="1005" y="62122.6"/>
  <text x="1005" y="62387.8" font-family="Tahoma" font-size="12" transform="rotate(90 1005,62387.8)" text-rendering="optimizeSpeed" fill="#000000">Windows NT (unknown) (amd64) (2602)</text>
  <rect fill="blue" height="268.5" stroke="black" width="12" x="1020" y="62114.3"/>
  <text x="1020" y="62387.8" font-family="Tahoma" font-size="12" transform="rotate(90 1020,62387.8)" text-rendering="optimizeSpeed" fill="#000000">Windows 11 (amd64) (2685)</text>
  <rect fill="blue" height="287.5" stroke="black" width="12" x="1035" y="62095.3"/>
  <text x="1035" y="62387.8" font-family="Tahoma" font-size="12" transform="rotate(90 1035,62387.8)" text-rendering="optimizeSpeed" fill="#000000">Windows 7 (x86) (2875)</text>
  <rect fill="blue" height="323.9" stroke="black" width="12" x="1050" y="62058.9"/>
  <text x="1050" y="62387.8" font-family="Tahoma" font-size="12" transform="rotate(90 1050,62387.8)" text-rendering="optimizeSpeed" fill="#000000">Linux (arm) (3239)</text>
  <rect fill="blue" height="391.3" stroke="black" width="12" x="1065" y="61991.5"/>
  <text x="1065" y="62387.8" font-family="Tahoma" font-size="12" transform="rotate(90 1065,62387.8)" text-rendering="optimizeSpeed" fill="#000000">Mac OS X (aarch64) (3913)</text>
  <rect fill="blue" height="424.5" stroke="black" width="12" x="1080" y="61958.3"/>
  <text x="1080" y="62387.8" font-family="Tahoma" font-size="12" transform="rotate(90 1080,62387.8)" text-rendering="optimizeSpeed" fill="#000000">Linux (i386) (4245)</text>
  <rect fill="blue" height="428.9" stroke="black" width="12" x="1095" y="61953.9"/>
  <text x="1095" y="62387.8" font-family="Tahoma" font-size="12" transform="rotate(90 1095,62387.8)" text-rendering="optimizeSpeed" fill="#000000">Windows Server 2008 R2 (amd64) (4289)</text>
  <rect fill="blue" height="452.1" stroke="black" width="12" x="1110" y="61930.7"/>
  <text x="1110" y="62387.8" font-family="Tahoma" font-size="12" transform="rotate(90 1110,62387.8)" text-rendering="optimizeSpeed" fill="#000000">Windows 7 (amd64) (4521)</text>
  <rect fill="blue" height="558.7" stroke="black" width="12" x="1125" y="61824.1"/>
  <text x="1125" y="62387.8" font-family="Tahoma" font-size="12" transform="rotate(90 1125,62387.8)" text-rendering="optimizeSpeed" fill="#000000">Windows Server 2012 R2 (x86) (5587)</text>
  <rect fill="blue" height="808.5" stroke="black" width="12" x="1140" y="61574.3"/>
  <text x="1140" y="62387.8" font-family="Tahoma" font-size="12" transform="rotate(90 1140,62387.8)" text-rendering="optimizeSpeed" fill="#000000">Linux (aarch64) (8085)</text>
  <rect fill="blue" height="929.1" stroke="black" width="12" x="1155" y="61453.7"/>
  <text x="1155" y="62387.8" font-family="Tahoma" font-size="12" transform="rotate(90 1155,62387.8)" text-rendering="optimizeSpeed" fill="#000000">Windows Server 2016 (x86) (9291)</text>
  <rect fill="blue" height="1655.4" stroke="black" width="12" x="1170" y="60727.4"/>
  <text x="1170" y="62387.8" font-family="Tahoma" font-size="12" transform="rotate(90 1170,62387.8)" text-rendering="optimizeSpeed" fill="#000000">Windows 10 (x86) (16554)</text>
  <rect fill="blue" height="1918.1" stroke="black" width="12" x="1185" y="60464.7"/>
  <text x="1185" y="62387.8" font-family="Tahoma" font-size="12" transform="rotate(90 1185,62387.8)" text-rendering="optimizeSpeed" fill="#000000">Windows Server 2012 R2 (amd64) (19181)</text>
  <rect fill="blue" height="2297.8" stroke="black" width="12" x="1200" y="60085.0"/>
  <text x="1200" y="62387.8" font-family="Tahoma" font-size="12" transform="rotate(90 1200,62387.8)" text-rendering="optimizeSpeed" fill="#000000">Windows Server 2019 (amd64) (22978)</text>
  <rect fill="blue" height="2789.5" stroke="black" width="12" x="1215" y="59593.3"/>
  <text x="1215" y="62387.8" font-family="Tahoma" font-size="12" transform="rotate(90 1215,62387.8)" text-rendering="optimizeSpeed" fill="#000000">Mac OS X (x86_64) (27895)</text>
  <rect fill="blue" height="3745.0" stroke="black" width="12" x="1230" y="58637.8"/>
  <text x="1230" y="62387.8" font-family="Tahoma" font-size="12" transform="rotate(90 1230,62387.8)" text-rendering="optimizeSpeed" fill="#000000">Windows Server 2016 (amd64) (37450)</text>
  <rect fill="blue" height="7440.6" stroke="black" width="12" x="1245" y="54942.2"/>
  <text x="1245" y="62387.8" font-family="Tahoma" font-size="12" transform="rotate(90 1245,62387.8)" text-rendering="optimizeSpeed" fill="#000000">Windows 10 (amd64) (74406)</text>
  <rect fill="blue" height="38243.3" stroke="black" width="12" x="1260" y="24139.5"/>
  <text x="1260" y="62387.8" font-family="Tahoma" font-size="12" transform="rotate(90 1260,62387.8)" text-rendering="optimizeSpeed" fill="#000000">N/A (382433)</text>
  <rect fill="blue" height="62332.8" stroke="black" width="12" x="1275" y="50.0"/>
  <text x="1275" y="62387.8" font-family="Tahoma" font-size="12" transform="rotate(90 1275,62387.8)" text-rendering="optimizeSpeed" fill="#000000">Linux (amd64) (623328)</text>
  <text x="10" y="40" font-family="Tahoma" font-size="20" text-rendering="optimizeSpeed" fill="#000000">Nodes (total: 1272169)</text>
</svg>
