<svg xmlns="http://www.w3.org/2000/svg" version="1.1" preserveAspectRatio="xMidYMid meet" viewBox="0 0 500 39099.7">
  <rect fill="blue" height="0.0" stroke="black" width="12" x="15" y="38799.7"/>
  <text x="15" y="38804.7" font-family="Tahoma" font-size="12" transform="rotate(90 15,38804.7)" text-rendering="optimizeSpeed" fill="#000000">com-google-jenkins-plugins-dsl-YamlProject (1)</text>
  <rect fill="blue" height="0.0" stroke="black" width="12" x="30" y="38799.7"/>
  <text x="30" y="38804.7" font-family="Tahoma" font-size="12" transform="rotate(90 30,38804.7)" text-rendering="optimizeSpeed" fill="#000000">org-jenkinsci-plugins-updatebot-ImportGithubRepoProject (1)</text>
  <rect fill="blue" height="0.0" stroke="black" width="12" x="45" y="38799.7"/>
  <text x="45" y="38804.7" font-family="Tahoma" font-size="12" transform="rotate(90 45,38804.7)" text-rendering="optimizeSpeed" fill="#000000">com-github-mjdetullio-jenkins-plugins-multibranch-IvyMultiBranchProject (2)</text>
  <rect fill="blue" height="0.0" stroke="black" width="12" x="60" y="38799.7"/>
  <text x="60" y="38804.7" font-family="Tahoma" font-size="12" transform="rotate(90 60,38804.7)" text-rendering="optimizeSpeed" fill="#000000">hudson-plugins-customer-data-template-DependencyStyleProject (2)</text>
  <rect fill="blue" height="0.0" stroke="black" width="12" x="75" y="38799.7"/>
  <text x="75" y="38804.7" font-family="Tahoma" font-size="12" transform="rotate(90 75,38804.7)" text-rendering="optimizeSpeed" fill="#000000">org-jvnet-hudson-test-MockFolder (3)</text>
  <rect fill="blue" height="0.0" stroke="black" width="12" x="90" y="38799.7"/>
  <text x="90" y="38804.7" font-family="Tahoma" font-size="12" transform="rotate(90 90,38804.7)" text-rendering="optimizeSpeed" fill="#000000">hudson-plugins-customer-data-template-DataWarehouseStyleProject (4)</text>
  <rect fill="blue" height="0.0" stroke="black" width="12" x="105" y="38799.7"/>
  <text x="105" y="38804.7" font-family="Tahoma" font-size="12" transform="rotate(90 105,38804.7)" text-rendering="optimizeSpeed" fill="#000000">org-jenkinsci-plugins-drupal-projects-DrupalProject (4)</text>
  <rect fill="blue" height="0.0" stroke="black" width="12" x="120" y="38799.7"/>
  <text x="120" y="38804.7" font-family="Tahoma" font-size="12" transform="rotate(90 120,38804.7)" text-rendering="optimizeSpeed" fill="#000000">org-jenkinsci-plugins-coordinator-dummy-model-CoordinatorProject (5)</text>
  <rect fill="blue" height="0.0" stroke="black" width="12" x="135" y="38799.7"/>
  <text x="135" y="38804.7" font-family="Tahoma" font-size="12" transform="rotate(90 135,38804.7)" text-rendering="optimizeSpeed" fill="#000000">org-jenkinsci-plugins-pipeline-multibranch-defaults-git-PipelineMultiBranchDefaultsGitProject (5)</text>
  <rect fill="blue" height="0.0" stroke="black" width="12" x="150" y="38799.7"/>
  <text x="150" y="38804.7" font-family="Tahoma" font-size="12" transform="rotate(90 150,38804.7)" text-rendering="optimizeSpeed" fill="#000000">com-barchart-jenkins-cascade-CascadeProject (19)</text>
  <rect fill="blue" height="0.1" stroke="black" width="12" x="165" y="38799.7"/>
  <text x="165" y="38804.7" font-family="Tahoma" font-size="12" transform="rotate(90 165,38804.7)" text-rendering="optimizeSpeed" fill="#000000">com-github-mjdetullio-jenkins-plugins-multibranch-MatrixMultiBranchProject (64)</text>
  <rect fill="blue" height="0.1" stroke="black" width="12" x="180" y="38799.7"/>
  <text x="180" y="38804.7" font-family="Tahoma" font-size="12" transform="rotate(90 180,38804.7)" text-rendering="optimizeSpeed" fill="#000000">hudson-plugin-smartjob-SmartJob (74)</text>
  <rect fill="blue" height="0.2" stroke="black" width="12" x="195" y="38799.6"/>
  <text x="195" y="38804.7" font-family="Tahoma" font-size="12" transform="rotate(90 195,38804.7)" text-rendering="optimizeSpeed" fill="#000000">captmorgan-ExternalProject (168)</text>
  <rect fill="blue" height="0.5" stroke="black" width="12" x="210" y="38799.2"/>
  <text x="210" y="38804.7" font-family="Tahoma" font-size="12" transform="rotate(90 210,38804.7)" text-rendering="optimizeSpeed" fill="#000000">org-jenkinsci-plugins-coordinator-model-CoordinatorProject (519)</text>
  <rect fill="blue" height="1.0" stroke="black" width="12" x="225" y="38798.7"/>
  <text x="225" y="38804.7" font-family="Tahoma" font-size="12" transform="rotate(90 225,38804.7)" text-rendering="optimizeSpeed" fill="#000000">com-github-mjdetullio-jenkins-plugins-multibranch-FreeStyleMultiBranchProject (1042)</text>
  <rect fill="blue" height="1.4" stroke="black" width="12" x="240" y="38798.3"/>
  <text x="240" y="38804.7" font-family="Tahoma" font-size="12" transform="rotate(90 240,38804.7)" text-rendering="optimizeSpeed" fill="#000000">org-jenkinsci-plugins-jobgenerator-JobGenerator (1385)</text>
  <rect fill="blue" height="3.3" stroke="black" width="12" x="255" y="38796.5"/>
  <text x="255" y="38804.7" font-family="Tahoma" font-size="12" transform="rotate(90 255,38804.7)" text-rendering="optimizeSpeed" fill="#000000">hudson-ivy-IvyModuleSet (3278)</text>
  <rect fill="blue" height="5.5" stroke="black" width="12" x="270" y="38794.2"/>
  <text x="270" y="38804.7" font-family="Tahoma" font-size="12" transform="rotate(90 270,38804.7)" text-rendering="optimizeSpeed" fill="#000000">com-github-mjdetullio-jenkins-plugins-multibranch-MavenMultiBranchProject (5516)</text>
  <rect fill="blue" height="5.8" stroke="black" width="12" x="285" y="38793.9"/>
  <text x="285" y="38804.7" font-family="Tahoma" font-size="12" transform="rotate(90 285,38804.7)" text-rendering="optimizeSpeed" fill="#000000">hudson-model-ExternalJob (5849)</text>
  <rect fill="blue" height="12.2" stroke="black" width="12" x="300" y="38787.6"/>
  <text x="300" y="38804.7" font-family="Tahoma" font-size="12" transform="rotate(90 300,38804.7)" text-rendering="optimizeSpeed" fill="#000000">hudson-plugins-project_inheritance-projects-InheritanceProject (12154)</text>
  <rect fill="blue" height="19.5" stroke="black" width="12" x="315" y="38780.2"/>
  <text x="315" y="38804.7" font-family="Tahoma" font-size="12" transform="rotate(90 315,38804.7)" text-rendering="optimizeSpeed" fill="#000000">org-jenkinsci-plugins-pipeline-multibranch-defaults-PipelineMultiBranchDefaultsProject (19532)</text>
  <rect fill="blue" height="22.8" stroke="black" width="12" x="330" y="38777.0"/>
  <text x="330" y="38804.7" font-family="Tahoma" font-size="12" transform="rotate(90 330,38804.7)" text-rendering="optimizeSpeed" fill="#000000">com-cloudbees-plugins-flow-BuildFlow (22761)</text>
  <rect fill="blue" height="52.0" stroke="black" width="12" x="345" y="38747.7"/>
  <text x="345" y="38804.7" font-family="Tahoma" font-size="12" transform="rotate(90 345,38804.7)" text-rendering="optimizeSpeed" fill="#000000">jenkins-branch-OrganizationFolder (52042)</text>
  <rect fill="blue" height="253.1" stroke="black" width="12" x="360" y="38546.7"/>
  <text x="360" y="38804.7" font-family="Tahoma" font-size="12" transform="rotate(90 360,38804.7)" text-rendering="optimizeSpeed" fill="#000000">hudson-matrix-MatrixProject (253060)</text>
  <rect fill="blue" height="1023.8" stroke="black" width="12" x="375" y="37776.0"/>
  <text x="375" y="38804.7" font-family="Tahoma" font-size="12" transform="rotate(90 375,38804.7)" text-rendering="optimizeSpeed" fill="#000000">com-tikal-jenkins-plugins-multijob-MultiJobProject (1023783)</text>
  <rect fill="blue" height="1718.9" stroke="black" width="12" x="390" y="37080.8"/>
  <text x="390" y="38804.7" font-family="Tahoma" font-size="12" transform="rotate(90 390,38804.7)" text-rendering="optimizeSpeed" fill="#000000">org-jenkinsci-plugins-workflow-multibranch-WorkflowMultiBranchProject (1718912)</text>
  <rect fill="blue" height="2282.8" stroke="black" width="12" x="405" y="36516.9"/>
  <text x="405" y="38804.7" font-family="Tahoma" font-size="12" transform="rotate(90 405,38804.7)" text-rendering="optimizeSpeed" fill="#000000">hudson-maven-MavenModuleSet (2282832)</text>
  <rect fill="blue" height="2564.3" stroke="black" width="12" x="420" y="36235.4"/>
  <text x="420" y="38804.7" font-family="Tahoma" font-size="12" transform="rotate(90 420,38804.7)" text-rendering="optimizeSpeed" fill="#000000">com-cloudbees-hudson-plugins-folder-Folder (2564298)</text>
  <rect fill="blue" height="20534.0" stroke="black" width="12" x="435" y="18265.7"/>
  <text x="435" y="38804.7" font-family="Tahoma" font-size="12" transform="rotate(90 435,38804.7)" text-rendering="optimizeSpeed" fill="#000000">hudson-model-FreeStyleProject (20534003)</text>
  <rect fill="blue" height="38749.7" stroke="black" width="12" x="450" y="50.0"/>
  <text x="450" y="38804.7" font-family="Tahoma" font-size="12" transform="rotate(90 450,38804.7)" text-rendering="optimizeSpeed" fill="#000000">org-jenkinsci-plugins-workflow-job-WorkflowJob (38749734)</text>
  <text x="10" y="40" font-family="Tahoma" font-size="20" text-rendering="optimizeSpeed" fill="#000000">Jobs (total: 67251052)</text>
</svg>
