<svg xmlns="http://www.w3.org/2000/svg" version="1.1" preserveAspectRatio="xMidYMid meet" viewBox="0 0 515 39665.0">
  <rect fill="blue" height="0.0" stroke="black" width="12" x="15" y="39365.0"/>
  <text x="15" y="39370.0" font-family="Tahoma" font-size="12" transform="rotate(90 15,39370.0)" text-rendering="optimizeSpeed" fill="#000000">com-google-jenkins-plugins-dsl-YamlProject (1)</text>
  <rect fill="blue" height="0.0" stroke="black" width="12" x="30" y="39365.0"/>
  <text x="30" y="39370.0" font-family="Tahoma" font-size="12" transform="rotate(90 30,39370.0)" text-rendering="optimizeSpeed" fill="#000000">hudson-plugins-wormpex-data-template-DataWarehouseStyleProject (1)</text>
  <rect fill="blue" height="0.0" stroke="black" width="12" x="45" y="39365.0"/>
  <text x="45" y="39370.0" font-family="Tahoma" font-size="12" transform="rotate(90 45,39370.0)" text-rendering="optimizeSpeed" fill="#000000">org-jenkinsci-plugins-updatebot-ImportGithubRepoProject (1)</text>
  <rect fill="blue" height="0.0" stroke="black" width="12" x="60" y="39365.0"/>
  <text x="60" y="39370.0" font-family="Tahoma" font-size="12" transform="rotate(90 60,39370.0)" text-rendering="optimizeSpeed" fill="#000000">hudson-plugins-customer-data-template-DependencyStyleProject (2)</text>
  <rect fill="blue" height="0.0" stroke="black" width="12" x="75" y="39365.0"/>
  <text x="75" y="39370.0" font-family="Tahoma" font-size="12" transform="rotate(90 75,39370.0)" text-rendering="optimizeSpeed" fill="#000000">com-github-mjdetullio-jenkins-plugins-multibranch-IvyMultiBranchProject (3)</text>
  <rect fill="blue" height="0.0" stroke="black" width="12" x="90" y="39365.0"/>
  <text x="90" y="39370.0" font-family="Tahoma" font-size="12" transform="rotate(90 90,39370.0)" text-rendering="optimizeSpeed" fill="#000000">org-jvnet-hudson-test-MockFolder (3)</text>
  <rect fill="blue" height="0.0" stroke="black" width="12" x="105" y="39365.0"/>
  <text x="105" y="39370.0" font-family="Tahoma" font-size="12" transform="rotate(90 105,39370.0)" text-rendering="optimizeSpeed" fill="#000000">hudson-plugins-customer-data-template-DataWarehouseStyleProject (4)</text>
  <rect fill="blue" height="0.0" stroke="black" width="12" x="120" y="39365.0"/>
  <text x="120" y="39370.0" font-family="Tahoma" font-size="12" transform="rotate(90 120,39370.0)" text-rendering="optimizeSpeed" fill="#000000">org-jenkinsci-plugins-pipeline-multibranch-defaults-git-PipelineMultiBranchDefaultsGitProject (4)</text>
  <rect fill="blue" height="0.0" stroke="black" width="12" x="135" y="39365.0"/>
  <text x="135" y="39370.0" font-family="Tahoma" font-size="12" transform="rotate(90 135,39370.0)" text-rendering="optimizeSpeed" fill="#000000">org-jenkinsci-plugins-coordinator-dummy-model-CoordinatorProject (10)</text>
  <rect fill="blue" height="0.0" stroke="black" width="12" x="150" y="39365.0"/>
  <text x="150" y="39370.0" font-family="Tahoma" font-size="12" transform="rotate(90 150,39370.0)" text-rendering="optimizeSpeed" fill="#000000">org-jenkinsci-plugins-drupal-projects-DrupalProject (10)</text>
  <rect fill="blue" height="0.0" stroke="black" width="12" x="165" y="39365.0"/>
  <text x="165" y="39370.0" font-family="Tahoma" font-size="12" transform="rotate(90 165,39370.0)" text-rendering="optimizeSpeed" fill="#000000">com-barchart-jenkins-cascade-CascadeProject (19)</text>
  <rect fill="blue" height="0.1" stroke="black" width="12" x="180" y="39364.9"/>
  <text x="180" y="39370.0" font-family="Tahoma" font-size="12" transform="rotate(90 180,39370.0)" text-rendering="optimizeSpeed" fill="#000000">hudson-plugin-smartjob-SmartJob (64)</text>
  <rect fill="blue" height="0.1" stroke="black" width="12" x="195" y="39364.9"/>
  <text x="195" y="39370.0" font-family="Tahoma" font-size="12" transform="rotate(90 195,39370.0)" text-rendering="optimizeSpeed" fill="#000000">com-github-mjdetullio-jenkins-plugins-multibranch-MatrixMultiBranchProject (70)</text>
  <rect fill="blue" height="0.2" stroke="black" width="12" x="210" y="39364.8"/>
  <text x="210" y="39370.0" font-family="Tahoma" font-size="12" transform="rotate(90 210,39370.0)" text-rendering="optimizeSpeed" fill="#000000">captmorgan-ExternalProject (215)</text>
  <rect fill="blue" height="0.5" stroke="black" width="12" x="225" y="39364.5"/>
  <text x="225" y="39370.0" font-family="Tahoma" font-size="12" transform="rotate(90 225,39370.0)" text-rendering="optimizeSpeed" fill="#000000">org-jenkinsci-plugins-coordinator-model-CoordinatorProject (514)</text>
  <rect fill="blue" height="1.0" stroke="black" width="12" x="240" y="39364.0"/>
  <text x="240" y="39370.0" font-family="Tahoma" font-size="12" transform="rotate(90 240,39370.0)" text-rendering="optimizeSpeed" fill="#000000">com-github-mjdetullio-jenkins-plugins-multibranch-FreeStyleMultiBranchProject (970)</text>
  <rect fill="blue" height="1.4" stroke="black" width="12" x="255" y="39363.6"/>
  <text x="255" y="39370.0" font-family="Tahoma" font-size="12" transform="rotate(90 255,39370.0)" text-rendering="optimizeSpeed" fill="#000000">org-jenkinsci-plugins-jobgenerator-JobGenerator (1362)</text>
  <rect fill="blue" height="3.1" stroke="black" width="12" x="270" y="39361.8"/>
  <text x="270" y="39370.0" font-family="Tahoma" font-size="12" transform="rotate(90 270,39370.0)" text-rendering="optimizeSpeed" fill="#000000">hudson-ivy-IvyModuleSet (3143)</text>
  <rect fill="blue" height="4.6" stroke="black" width="12" x="285" y="39360.4"/>
  <text x="285" y="39370.0" font-family="Tahoma" font-size="12" transform="rotate(90 285,39370.0)" text-rendering="optimizeSpeed" fill="#000000">com-github-mjdetullio-jenkins-plugins-multibranch-MavenMultiBranchProject (4573)</text>
  <rect fill="blue" height="5.0" stroke="black" width="12" x="300" y="39359.9"/>
  <text x="300" y="39370.0" font-family="Tahoma" font-size="12" transform="rotate(90 300,39370.0)" text-rendering="optimizeSpeed" fill="#000000">hudson-model-ExternalJob (5044)</text>
  <rect fill="blue" height="10.0" stroke="black" width="12" x="315" y="39355.0"/>
  <text x="315" y="39370.0" font-family="Tahoma" font-size="12" transform="rotate(90 315,39370.0)" text-rendering="optimizeSpeed" fill="#000000">hudson-plugins-project_inheritance-projects-InheritanceProject (9965)</text>
  <rect fill="blue" height="18.5" stroke="black" width="12" x="330" y="39346.5"/>
  <text x="330" y="39370.0" font-family="Tahoma" font-size="12" transform="rotate(90 330,39370.0)" text-rendering="optimizeSpeed" fill="#000000">org-jenkinsci-plugins-pipeline-multibranch-defaults-PipelineMultiBranchDefaultsProject (18525)</text>
  <rect fill="blue" height="22.7" stroke="black" width="12" x="345" y="39342.3"/>
  <text x="345" y="39370.0" font-family="Tahoma" font-size="12" transform="rotate(90 345,39370.0)" text-rendering="optimizeSpeed" fill="#000000">com-cloudbees-plugins-flow-BuildFlow (22682)</text>
  <rect fill="blue" height="54.2" stroke="black" width="12" x="360" y="39310.8"/>
  <text x="360" y="39370.0" font-family="Tahoma" font-size="12" transform="rotate(90 360,39370.0)" text-rendering="optimizeSpeed" fill="#000000">jenkins-branch-OrganizationFolder (54231)</text>
  <rect fill="blue" height="265.0" stroke="black" width="12" x="375" y="39100.0"/>
  <text x="375" y="39370.0" font-family="Tahoma" font-size="12" transform="rotate(90 375,39370.0)" text-rendering="optimizeSpeed" fill="#000000">hudson-matrix-MatrixProject (265026)</text>
  <rect fill="blue" height="809.4" stroke="black" width="12" x="390" y="38555.6"/>
  <text x="390" y="39370.0" font-family="Tahoma" font-size="12" transform="rotate(90 390,39370.0)" text-rendering="optimizeSpeed" fill="#000000">com-tikal-jenkins-plugins-multijob-MultiJobProject (809368)</text>
  <rect fill="blue" height="1747.9" stroke="black" width="12" x="405" y="37617.0"/>
  <text x="405" y="39370.0" font-family="Tahoma" font-size="12" transform="rotate(90 405,39370.0)" text-rendering="optimizeSpeed" fill="#000000">org-jenkinsci-plugins-workflow-multibranch-WorkflowMultiBranchProject (1747949)</text>
  <rect fill="blue" height="2311.5" stroke="black" width="12" x="420" y="37053.5"/>
  <text x="420" y="39370.0" font-family="Tahoma" font-size="12" transform="rotate(90 420,39370.0)" text-rendering="optimizeSpeed" fill="#000000">hudson-maven-MavenModuleSet (2311486)</text>
  <rect fill="blue" height="2651.3" stroke="black" width="12" x="435" y="36713.7"/>
  <text x="435" y="39370.0" font-family="Tahoma" font-size="12" transform="rotate(90 435,39370.0)" text-rendering="optimizeSpeed" fill="#000000">com-cloudbees-hudson-plugins-folder-Folder (2651338)</text>
  <rect fill="blue" height="20835.7" stroke="black" width="12" x="450" y="18529.3"/>
  <text x="450" y="39370.0" font-family="Tahoma" font-size="12" transform="rotate(90 450,39370.0)" text-rendering="optimizeSpeed" fill="#000000">hudson-model-FreeStyleProject (20835717)</text>
  <rect fill="blue" height="39315.0" stroke="black" width="12" x="465" y="50.0"/>
  <text x="465" y="39370.0" font-family="Tahoma" font-size="12" transform="rotate(90 465,39370.0)" text-rendering="optimizeSpeed" fill="#000000">org-jenkinsci-plugins-workflow-job-WorkflowJob (39314990)</text>
  <text x="10" y="40" font-family="Tahoma" font-size="20" text-rendering="optimizeSpeed" fill="#000000">Jobs (total: 68057290)</text>
</svg>
