<svg xmlns="http://www.w3.org/2000/svg" version="1.1" preserveAspectRatio="xMidYMid meet" viewBox="0 0 440 31374.0">
  <rect fill="blue" height="0.0" stroke="black" width="12" x="15" y="31074.0"/>
  <text x="15" y="31079.0" font-family="Tahoma" font-size="12" transform="rotate(90 15,31079.0)" text-rendering="optimizeSpeed" fill="#000000">com-google-jenkins-plugins-dsl-YamlProject (1)</text>
  <rect fill="blue" height="0.0" stroke="black" width="12" x="30" y="31074.0"/>
  <text x="30" y="31079.0" font-family="Tahoma" font-size="12" transform="rotate(90 30,31079.0)" text-rendering="optimizeSpeed" fill="#000000">hudson-plugins-customer-data-template-DataWarehouseStyleProject (4)</text>
  <rect fill="blue" height="0.0" stroke="black" width="12" x="45" y="31074.0"/>
  <text x="45" y="31079.0" font-family="Tahoma" font-size="12" transform="rotate(90 45,31079.0)" text-rendering="optimizeSpeed" fill="#000000">org-jenkinsci-plugins-drupal-projects-DrupalProject (4)</text>
  <rect fill="blue" height="0.0" stroke="black" width="12" x="60" y="31074.0"/>
  <text x="60" y="31079.0" font-family="Tahoma" font-size="12" transform="rotate(90 60,31079.0)" text-rendering="optimizeSpeed" fill="#000000">org-jenkinsci-plugins-pipeline-multibranch-defaults-git-PipelineMultiBranchDefaultsGitProject (4)</text>
  <rect fill="blue" height="0.0" stroke="black" width="12" x="75" y="31074.0"/>
  <text x="75" y="31079.0" font-family="Tahoma" font-size="12" transform="rotate(90 75,31079.0)" text-rendering="optimizeSpeed" fill="#000000">com-github-mjdetullio-jenkins-plugins-multibranch-IvyMultiBranchProject (7)</text>
  <rect fill="blue" height="0.0" stroke="black" width="12" x="90" y="31074.0"/>
  <text x="90" y="31079.0" font-family="Tahoma" font-size="12" transform="rotate(90 90,31079.0)" text-rendering="optimizeSpeed" fill="#000000">com-barchart-jenkins-cascade-CascadeProject (20)</text>
  <rect fill="blue" height="0.1" stroke="black" width="12" x="105" y="31073.9"/>
  <text x="105" y="31079.0" font-family="Tahoma" font-size="12" transform="rotate(90 105,31079.0)" text-rendering="optimizeSpeed" fill="#000000">com-github-mjdetullio-jenkins-plugins-multibranch-MatrixMultiBranchProject (71)</text>
  <rect fill="blue" height="0.1" stroke="black" width="12" x="120" y="31073.9"/>
  <text x="120" y="31079.0" font-family="Tahoma" font-size="12" transform="rotate(90 120,31079.0)" text-rendering="optimizeSpeed" fill="#000000">hudson-plugin-smartjob-SmartJob (95)</text>
  <rect fill="blue" height="0.3" stroke="black" width="12" x="135" y="31073.7"/>
  <text x="135" y="31079.0" font-family="Tahoma" font-size="12" transform="rotate(90 135,31079.0)" text-rendering="optimizeSpeed" fill="#000000">captmorgan-ExternalProject (287)</text>
  <rect fill="blue" height="0.6" stroke="black" width="12" x="150" y="31073.3"/>
  <text x="150" y="31079.0" font-family="Tahoma" font-size="12" transform="rotate(90 150,31079.0)" text-rendering="optimizeSpeed" fill="#000000">org-jenkinsci-plugins-coordinator-model-CoordinatorProject (629)</text>
  <rect fill="blue" height="1.3" stroke="black" width="12" x="165" y="31072.7"/>
  <text x="165" y="31079.0" font-family="Tahoma" font-size="12" transform="rotate(90 165,31079.0)" text-rendering="optimizeSpeed" fill="#000000">com-github-mjdetullio-jenkins-plugins-multibranch-FreeStyleMultiBranchProject (1275)</text>
  <rect fill="blue" height="1.9" stroke="black" width="12" x="180" y="31072.0"/>
  <text x="180" y="31079.0" font-family="Tahoma" font-size="12" transform="rotate(90 180,31079.0)" text-rendering="optimizeSpeed" fill="#000000">org-jenkinsci-plugins-jobgenerator-JobGenerator (1935)</text>
  <rect fill="blue" height="3.0" stroke="black" width="12" x="195" y="31071.0"/>
  <text x="195" y="31079.0" font-family="Tahoma" font-size="12" transform="rotate(90 195,31079.0)" text-rendering="optimizeSpeed" fill="#000000">com-github-mjdetullio-jenkins-plugins-multibranch-MavenMultiBranchProject (3003)</text>
  <rect fill="blue" height="3.4" stroke="black" width="12" x="210" y="31070.5"/>
  <text x="210" y="31079.0" font-family="Tahoma" font-size="12" transform="rotate(90 210,31079.0)" text-rendering="optimizeSpeed" fill="#000000">hudson-ivy-IvyModuleSet (3439)</text>
  <rect fill="blue" height="6.0" stroke="black" width="12" x="225" y="31068.0"/>
  <text x="225" y="31079.0" font-family="Tahoma" font-size="12" transform="rotate(90 225,31079.0)" text-rendering="optimizeSpeed" fill="#000000">hudson-model-ExternalJob (5985)</text>
  <rect fill="blue" height="9.5" stroke="black" width="12" x="240" y="31064.5"/>
  <text x="240" y="31079.0" font-family="Tahoma" font-size="12" transform="rotate(90 240,31079.0)" text-rendering="optimizeSpeed" fill="#000000">org-jenkinsci-plugins-pipeline-multibranch-defaults-PipelineMultiBranchDefaultsProject (9508)</text>
  <rect fill="blue" height="14.5" stroke="black" width="12" x="255" y="31059.5"/>
  <text x="255" y="31079.0" font-family="Tahoma" font-size="12" transform="rotate(90 255,31079.0)" text-rendering="optimizeSpeed" fill="#000000">hudson-plugins-project_inheritance-projects-InheritanceProject (14516)</text>
  <rect fill="blue" height="31.1" stroke="black" width="12" x="270" y="31042.9"/>
  <text x="270" y="31079.0" font-family="Tahoma" font-size="12" transform="rotate(90 270,31079.0)" text-rendering="optimizeSpeed" fill="#000000">com-cloudbees-plugins-flow-BuildFlow (31086)</text>
  <rect fill="blue" height="48.1" stroke="black" width="12" x="285" y="31025.8"/>
  <text x="285" y="31079.0" font-family="Tahoma" font-size="12" transform="rotate(90 285,31079.0)" text-rendering="optimizeSpeed" fill="#000000">jenkins-branch-OrganizationFolder (48133)</text>
  <rect fill="blue" height="432.7" stroke="black" width="12" x="300" y="30641.3"/>
  <text x="300" y="31079.0" font-family="Tahoma" font-size="12" transform="rotate(90 300,31079.0)" text-rendering="optimizeSpeed" fill="#000000">hudson-matrix-MatrixProject (432678)</text>
  <rect fill="blue" height="813.0" stroke="black" width="12" x="315" y="30260.9"/>
  <text x="315" y="31079.0" font-family="Tahoma" font-size="12" transform="rotate(90 315,31079.0)" text-rendering="optimizeSpeed" fill="#000000">com-tikal-jenkins-plugins-multijob-MultiJobProject (813038)</text>
  <rect fill="blue" height="1515.9" stroke="black" width="12" x="330" y="29558.1"/>
  <text x="330" y="31079.0" font-family="Tahoma" font-size="12" transform="rotate(90 330,31079.0)" text-rendering="optimizeSpeed" fill="#000000">org-jenkinsci-plugins-workflow-multibranch-WorkflowMultiBranchProject (1515881)</text>
  <rect fill="blue" height="2248.2" stroke="black" width="12" x="345" y="28825.7"/>
  <text x="345" y="31079.0" font-family="Tahoma" font-size="12" transform="rotate(90 345,31079.0)" text-rendering="optimizeSpeed" fill="#000000">hudson-maven-MavenModuleSet (2248232)</text>
  <rect fill="blue" height="2326.5" stroke="black" width="12" x="360" y="28747.4"/>
  <text x="360" y="31079.0" font-family="Tahoma" font-size="12" transform="rotate(90 360,31079.0)" text-rendering="optimizeSpeed" fill="#000000">com-cloudbees-hudson-plugins-folder-Folder (2326534)</text>
  <rect fill="blue" height="20054.3" stroke="black" width="12" x="375" y="11019.7"/>
  <text x="375" y="31079.0" font-family="Tahoma" font-size="12" transform="rotate(90 375,31079.0)" text-rendering="optimizeSpeed" fill="#000000">hudson-model-FreeStyleProject (20054264)</text>
  <rect fill="blue" height="31024.0" stroke="black" width="12" x="390" y="50.0"/>
  <text x="390" y="31079.0" font-family="Tahoma" font-size="12" transform="rotate(90 390,31079.0)" text-rendering="optimizeSpeed" fill="#000000">org-jenkinsci-plugins-workflow-job-WorkflowJob (31023973)</text>
  <text x="10" y="40" font-family="Tahoma" font-size="20" text-rendering="optimizeSpeed" fill="#000000">Jobs (total: 58534602)</text>
</svg>
