<svg xmlns="http://www.w3.org/2000/svg" version="1.1" preserveAspectRatio="xMidYMid meet" viewBox="0 0 545 37273.6">
  <rect fill="blue" height="0.0" stroke="black" width="12" x="15" y="36973.6"/>
  <text x="15" y="36978.6" font-family="Tahoma" font-size="12" transform="rotate(90 15,36978.6)" text-rendering="optimizeSpeed" fill="#000000">com-google-jenkins-plugins-dsl-YamlProject (1)</text>
  <rect fill="blue" height="0.0" stroke="black" width="12" x="30" y="36973.6"/>
  <text x="30" y="36978.6" font-family="Tahoma" font-size="12" transform="rotate(90 30,36978.6)" text-rendering="optimizeSpeed" fill="#000000">com-groupon-jenkins-dynamic-organizationcontainer-OrganizationContainer (1)</text>
  <rect fill="blue" height="0.0" stroke="black" width="12" x="45" y="36973.6"/>
  <text x="45" y="36978.6" font-family="Tahoma" font-size="12" transform="rotate(90 45,36978.6)" text-rendering="optimizeSpeed" fill="#000000">hudson-plugins-wormpex-data-template-DataWarehouseStyleProject (1)</text>
  <rect fill="blue" height="0.0" stroke="black" width="12" x="60" y="36973.6"/>
  <text x="60" y="36978.6" font-family="Tahoma" font-size="12" transform="rotate(90 60,36978.6)" text-rendering="optimizeSpeed" fill="#000000">org-jenkinsci-plugins-updatebot-ImportGithubRepoProject (1)</text>
  <rect fill="blue" height="0.0" stroke="black" width="12" x="75" y="36973.6"/>
  <text x="75" y="36978.6" font-family="Tahoma" font-size="12" transform="rotate(90 75,36978.6)" text-rendering="optimizeSpeed" fill="#000000">com-groupon-jenkins-dynamic-build-DynamicProject (2)</text>
  <rect fill="blue" height="0.0" stroke="black" width="12" x="90" y="36973.6"/>
  <text x="90" y="36978.6" font-family="Tahoma" font-size="12" transform="rotate(90 90,36978.6)" text-rendering="optimizeSpeed" fill="#000000">hudson-plugins-customer-data-template-DependencyStyleProject (2)</text>
  <rect fill="blue" height="0.0" stroke="black" width="12" x="105" y="36973.6"/>
  <text x="105" y="36978.6" font-family="Tahoma" font-size="12" transform="rotate(90 105,36978.6)" text-rendering="optimizeSpeed" fill="#000000">com-github-mjdetullio-jenkins-plugins-multibranch-IvyMultiBranchProject (3)</text>
  <rect fill="blue" height="0.0" stroke="black" width="12" x="120" y="36973.6"/>
  <text x="120" y="36978.6" font-family="Tahoma" font-size="12" transform="rotate(90 120,36978.6)" text-rendering="optimizeSpeed" fill="#000000">org-jvnet-hudson-test-MockFolder (3)</text>
  <rect fill="blue" height="0.0" stroke="black" width="12" x="135" y="36973.6"/>
  <text x="135" y="36978.6" font-family="Tahoma" font-size="12" transform="rotate(90 135,36978.6)" text-rendering="optimizeSpeed" fill="#000000">hudson-plugins-customer-data-template-DataWarehouseStyleProject (4)</text>
  <rect fill="blue" height="0.0" stroke="black" width="12" x="150" y="36973.6"/>
  <text x="150" y="36978.6" font-family="Tahoma" font-size="12" transform="rotate(90 150,36978.6)" text-rendering="optimizeSpeed" fill="#000000">org-jenkinsci-plugins-drupal-projects-DrupalProject (4)</text>
  <rect fill="blue" height="0.0" stroke="black" width="12" x="165" y="36973.6"/>
  <text x="165" y="36978.6" font-family="Tahoma" font-size="12" transform="rotate(90 165,36978.6)" text-rendering="optimizeSpeed" fill="#000000">org-jenkinsci-plugins-pipeline-multibranch-defaults-git-PipelineMultiBranchDefaultsGitProject (5)</text>
  <rect fill="blue" height="0.0" stroke="black" width="12" x="180" y="36973.6"/>
  <text x="180" y="36978.6" font-family="Tahoma" font-size="12" transform="rotate(90 180,36978.6)" text-rendering="optimizeSpeed" fill="#000000">org-jenkinsci-plugins-coordinator-dummy-model-CoordinatorProject (16)</text>
  <rect fill="blue" height="0.0" stroke="black" width="12" x="195" y="36973.6"/>
  <text x="195" y="36978.6" font-family="Tahoma" font-size="12" transform="rotate(90 195,36978.6)" text-rendering="optimizeSpeed" fill="#000000">com-barchart-jenkins-cascade-CascadeProject (17)</text>
  <rect fill="blue" height="0.1" stroke="black" width="12" x="210" y="36973.5"/>
  <text x="210" y="36978.6" font-family="Tahoma" font-size="12" transform="rotate(90 210,36978.6)" text-rendering="optimizeSpeed" fill="#000000">com-github-mjdetullio-jenkins-plugins-multibranch-MatrixMultiBranchProject (60)</text>
  <rect fill="blue" height="0.1" stroke="black" width="12" x="225" y="36973.5"/>
  <text x="225" y="36978.6" font-family="Tahoma" font-size="12" transform="rotate(90 225,36978.6)" text-rendering="optimizeSpeed" fill="#000000">hudson-plugin-smartjob-SmartJob (70)</text>
  <rect fill="blue" height="0.2" stroke="black" width="12" x="240" y="36973.4"/>
  <text x="240" y="36978.6" font-family="Tahoma" font-size="12" transform="rotate(90 240,36978.6)" text-rendering="optimizeSpeed" fill="#000000">captmorgan-ExternalProject (210)</text>
  <rect fill="blue" height="0.5" stroke="black" width="12" x="255" y="36973.1"/>
  <text x="255" y="36978.6" font-family="Tahoma" font-size="12" transform="rotate(90 255,36978.6)" text-rendering="optimizeSpeed" fill="#000000">org-jenkinsci-plugins-coordinator-model-CoordinatorProject (466)</text>
  <rect fill="blue" height="1.2" stroke="black" width="12" x="270" y="36972.4"/>
  <text x="270" y="36978.6" font-family="Tahoma" font-size="12" transform="rotate(90 270,36978.6)" text-rendering="optimizeSpeed" fill="#000000">com-github-mjdetullio-jenkins-plugins-multibranch-FreeStyleMultiBranchProject (1189)</text>
  <rect fill="blue" height="1.3" stroke="black" width="12" x="285" y="36972.3"/>
  <text x="285" y="36978.6" font-family="Tahoma" font-size="12" transform="rotate(90 285,36978.6)" text-rendering="optimizeSpeed" fill="#000000">org-jenkinsci-plugins-jobgenerator-JobGenerator (1301)</text>
  <rect fill="blue" height="3.1" stroke="black" width="12" x="300" y="36970.5"/>
  <text x="300" y="36978.6" font-family="Tahoma" font-size="12" transform="rotate(90 300,36978.6)" text-rendering="optimizeSpeed" fill="#000000">hudson-ivy-IvyModuleSet (3098)</text>
  <rect fill="blue" height="5.1" stroke="black" width="12" x="315" y="36968.5"/>
  <text x="315" y="36978.6" font-family="Tahoma" font-size="12" transform="rotate(90 315,36978.6)" text-rendering="optimizeSpeed" fill="#000000">com-github-mjdetullio-jenkins-plugins-multibranch-MavenMultiBranchProject (5058)</text>
  <rect fill="blue" height="5.4" stroke="black" width="12" x="330" y="36968.2"/>
  <text x="330" y="36978.6" font-family="Tahoma" font-size="12" transform="rotate(90 330,36978.6)" text-rendering="optimizeSpeed" fill="#000000">hudson-model-ExternalJob (5388)</text>
  <rect fill="blue" height="9.6" stroke="black" width="12" x="345" y="36964.0"/>
  <text x="345" y="36978.6" font-family="Tahoma" font-size="12" transform="rotate(90 345,36978.6)" text-rendering="optimizeSpeed" fill="#000000">hudson-plugins-project_inheritance-projects-InheritanceProject (9625)</text>
  <rect fill="blue" height="16.1" stroke="black" width="12" x="360" y="36957.4"/>
  <text x="360" y="36978.6" font-family="Tahoma" font-size="12" transform="rotate(90 360,36978.6)" text-rendering="optimizeSpeed" fill="#000000">org-jenkinsci-plugins-pipeline-multibranch-defaults-PipelineMultiBranchDefaultsProject (16141)</text>
  <rect fill="blue" height="24.7" stroke="black" width="12" x="375" y="36948.9"/>
  <text x="375" y="36978.6" font-family="Tahoma" font-size="12" transform="rotate(90 375,36978.6)" text-rendering="optimizeSpeed" fill="#000000">com-cloudbees-plugins-flow-BuildFlow (24721)</text>
  <rect fill="blue" height="52.2" stroke="black" width="12" x="390" y="36921.4"/>
  <text x="390" y="36978.6" font-family="Tahoma" font-size="12" transform="rotate(90 390,36978.6)" text-rendering="optimizeSpeed" fill="#000000">jenkins-branch-OrganizationFolder (52169)</text>
  <rect fill="blue" height="257.7" stroke="black" width="12" x="405" y="36715.9"/>
  <text x="405" y="36978.6" font-family="Tahoma" font-size="12" transform="rotate(90 405,36978.6)" text-rendering="optimizeSpeed" fill="#000000">hudson-matrix-MatrixProject (257655)</text>
  <rect fill="blue" height="821.4" stroke="black" width="12" x="420" y="36152.2"/>
  <text x="420" y="36978.6" font-family="Tahoma" font-size="12" transform="rotate(90 420,36978.6)" text-rendering="optimizeSpeed" fill="#000000">com-tikal-jenkins-plugins-multijob-MultiJobProject (821401)</text>
  <rect fill="blue" height="1708.4" stroke="black" width="12" x="435" y="35265.1"/>
  <text x="435" y="36978.6" font-family="Tahoma" font-size="12" transform="rotate(90 435,36978.6)" text-rendering="optimizeSpeed" fill="#000000">org-jenkinsci-plugins-workflow-multibranch-WorkflowMultiBranchProject (1708437)</text>
  <rect fill="blue" height="2335.7" stroke="black" width="12" x="450" y="34637.9"/>
  <text x="450" y="36978.6" font-family="Tahoma" font-size="12" transform="rotate(90 450,36978.6)" text-rendering="optimizeSpeed" fill="#000000">hudson-maven-MavenModuleSet (2335677)</text>
  <rect fill="blue" height="2631.9" stroke="black" width="12" x="465" y="34341.7"/>
  <text x="465" y="36978.6" font-family="Tahoma" font-size="12" transform="rotate(90 465,36978.6)" text-rendering="optimizeSpeed" fill="#000000">com-cloudbees-hudson-plugins-folder-Folder (2631925)</text>
  <rect fill="blue" height="20845.8" stroke="black" width="12" x="480" y="16127.8"/>
  <text x="480" y="36978.6" font-family="Tahoma" font-size="12" transform="rotate(90 480,36978.6)" text-rendering="optimizeSpeed" fill="#000000">hudson-model-FreeStyleProject (20845802)</text>
  <rect fill="blue" height="36923.6" stroke="black" width="12" x="495" y="50.0"/>
  <text x="495" y="36978.6" font-family="Tahoma" font-size="12" transform="rotate(90 495,36978.6)" text-rendering="optimizeSpeed" fill="#000000">org-jenkinsci-plugins-workflow-job-WorkflowJob (36923586)</text>
  <text x="10" y="40" font-family="Tahoma" font-size="20" text-rendering="optimizeSpeed" fill="#000000">Jobs (total: 65644039)</text>
</svg>
