<svg xmlns="http://www.w3.org/2000/svg" version="1.1" preserveAspectRatio="xMidYMid meet" viewBox="0 0 1415 59374.0">
  <rect fill="blue" height="0.1" stroke="black" width="12" x="15" y="59073.9"/>
  <text x="15" y="59079.0" font-family="Tahoma" font-size="12" transform="rotate(90 15,59079.0)" text-rendering="optimizeSpeed" fill="#000000">HP-UX (PA_RISC2.0W) (1)</text>
  <rect fill="blue" height="0.1" stroke="black" width="12" x="30" y="59073.9"/>
  <text x="30" y="59079.0" font-family="Tahoma" font-size="12" transform="rotate(90 30,59079.0)" text-rendering="optimizeSpeed" fill="#000000">Linux (e2k) (1)</text>
  <rect fill="blue" height="0.1" stroke="black" width="12" x="45" y="59073.9"/>
  <text x="45" y="59079.0" font-family="Tahoma" font-size="12" transform="rotate(90 45,59079.0)" text-rendering="optimizeSpeed" fill="#000000">Linux (ia64) (1)</text>
  <rect fill="blue" height="0.1" stroke="black" width="12" x="60" y="59073.9"/>
  <text x="60" y="59079.0" font-family="Tahoma" font-size="12" transform="rotate(90 60,59079.0)" text-rendering="optimizeSpeed" fill="#000000">Linux (sparcv9) (1)</text>
  <rect fill="blue" height="0.1" stroke="black" width="12" x="75" y="59073.9"/>
  <text x="75" y="59079.0" font-family="Tahoma" font-size="12" transform="rotate(90 75,59079.0)" text-rendering="optimizeSpeed" fill="#000000">Linux (x86_64) (1)</text>
  <rect fill="blue" height="0.1" stroke="black" width="12" x="90" y="59073.9"/>
  <text x="90" y="59079.0" font-family="Tahoma" font-size="12" transform="rotate(90 90,59079.0)" text-rendering="optimizeSpeed" fill="#000000">Linux (zArch_64) (1)</text>
  <rect fill="blue" height="0.1" stroke="black" width="12" x="105" y="59073.9"/>
  <text x="105" y="59079.0" font-family="Tahoma" font-size="12" transform="rotate(90 105,59079.0)" text-rendering="optimizeSpeed" fill="#000000">MidnightBSD (amd64) (1)</text>
  <rect fill="blue" height="0.1" stroke="black" width="12" x="120" y="59073.9"/>
  <text x="120" y="59079.0" font-family="Tahoma" font-size="12" transform="rotate(90 120,59079.0)" text-rendering="optimizeSpeed" fill="#000000">MidnightBSD (i386) (1)</text>
  <rect fill="blue" height="0.1" stroke="black" width="12" x="135" y="59073.9"/>
  <text x="135" y="59079.0" font-family="Tahoma" font-size="12" transform="rotate(90 135,59079.0)" text-rendering="optimizeSpeed" fill="#000000">NetBSD (i386) (1)</text>
  <rect fill="blue" height="0.1" stroke="black" width="12" x="150" y="59073.9"/>
  <text x="150" y="59079.0" font-family="Tahoma" font-size="12" transform="rotate(90 150,59079.0)" text-rendering="optimizeSpeed" fill="#000000">Windows 10 (aarch64) (1)</text>
  <rect fill="blue" height="0.1" stroke="black" width="12" x="165" y="59073.9"/>
  <text x="165" y="59079.0" font-family="Tahoma" font-size="12" transform="rotate(90 165,59079.0)" text-rendering="optimizeSpeed" fill="#000000">Windows 11 (aarch64) (1)</text>
  <rect fill="blue" height="0.1" stroke="black" width="12" x="180" y="59073.9"/>
  <text x="180" y="59079.0" font-family="Tahoma" font-size="12" transform="rotate(90 180,59079.0)" text-rendering="optimizeSpeed" fill="#000000">Windows 2000 (x86) (1)</text>
  <rect fill="blue" height="0.1" stroke="black" width="12" x="195" y="59073.9"/>
  <text x="195" y="59079.0" font-family="Tahoma" font-size="12" transform="rotate(90 195,59079.0)" text-rendering="optimizeSpeed" fill="#000000">Windows Server 2016 Datacenter (amd64) (1)</text>
  <rect fill="blue" height="0.1" stroke="black" width="12" x="210" y="59073.9"/>
  <text x="210" y="59079.0" font-family="Tahoma" font-size="12" transform="rotate(90 210,59079.0)" text-rendering="optimizeSpeed" fill="#000000">Windows Server 2019 Standard (amd64) (1)</text>
  <rect fill="blue" height="0.2" stroke="black" width="12" x="225" y="59073.8"/>
  <text x="225" y="59079.0" font-family="Tahoma" font-size="12" transform="rotate(90 225,59079.0)" text-rendering="optimizeSpeed" fill="#000000">FreeBSD (aarch64) (2)</text>
  <rect fill="blue" height="0.2" stroke="black" width="12" x="240" y="59073.8"/>
  <text x="240" y="59079.0" font-family="Tahoma" font-size="12" transform="rotate(90 240,59079.0)" text-rendering="optimizeSpeed" fill="#000000">Mac OS X (amd64) (2)</text>
  <rect fill="blue" height="0.2" stroke="black" width="12" x="255" y="59073.8"/>
  <text x="255" y="59079.0" font-family="Tahoma" font-size="12" transform="rotate(90 255,59079.0)" text-rendering="optimizeSpeed" fill="#000000">Windows XP (amd64) (2)</text>
  <rect fill="blue" height="0.3" stroke="black" width="12" x="270" y="59073.7"/>
  <text x="270" y="59079.0" font-family="Tahoma" font-size="12" transform="rotate(90 270,59079.0)" text-rendering="optimizeSpeed" fill="#000000">DragonFlyBSD (amd64) (3)</text>
  <rect fill="blue" height="0.3" stroke="black" width="12" x="285" y="59073.7"/>
  <text x="285" y="59079.0" font-family="Tahoma" font-size="12" transform="rotate(90 285,59079.0)" text-rendering="optimizeSpeed" fill="#000000">Linux (riscv) (3)</text>
  <rect fill="blue" height="0.3" stroke="black" width="12" x="300" y="59073.7"/>
  <text x="300" y="59079.0" font-family="Tahoma" font-size="12" transform="rotate(90 300,59079.0)" text-rendering="optimizeSpeed" fill="#000000">Linux (s390) (3)</text>
  <rect fill="blue" height="0.3" stroke="black" width="12" x="315" y="59073.7"/>
  <text x="315" y="59079.0" font-family="Tahoma" font-size="12" transform="rotate(90 315,59079.0)" text-rendering="optimizeSpeed" fill="#000000">OS/400 (ppc) (3)</text>
  <rect fill="blue" height="0.3" stroke="black" width="12" x="330" y="59073.7"/>
  <text x="330" y="59079.0" font-family="Tahoma" font-size="12" transform="rotate(90 330,59079.0)" text-rendering="optimizeSpeed" fill="#000000">Windows Server version 2009 (amd64) (3)</text>
  <rect fill="blue" height="0.3" stroke="black" width="12" x="345" y="59073.7"/>
  <text x="345" y="59079.0" font-family="Tahoma" font-size="12" transform="rotate(90 345,59079.0)" text-rendering="optimizeSpeed" fill="#000000">Windows Vista (amd64) (3)</text>
  <rect fill="blue" height="0.3" stroke="black" width="12" x="360" y="59073.7"/>
  <text x="360" y="59079.0" font-family="Tahoma" font-size="12" transform="rotate(90 360,59079.0)" text-rendering="optimizeSpeed" fill="#000000">z/OS (s390) (3)</text>
  <rect fill="blue" height="0.4" stroke="black" width="12" x="375" y="59073.6"/>
  <text x="375" y="59079.0" font-family="Tahoma" font-size="12" transform="rotate(90 375,59079.0)" text-rendering="optimizeSpeed" fill="#000000">Linux (riscv64) (4)</text>
  <rect fill="blue" height="0.4" stroke="black" width="12" x="390" y="59073.6"/>
  <text x="390" y="59079.0" font-family="Tahoma" font-size="12" transform="rotate(90 390,59079.0)" text-rendering="optimizeSpeed" fill="#000000">Windows Server 2016 Standard (amd64) (4)</text>
  <rect fill="blue" height="0.5" stroke="black" width="12" x="405" y="59073.5"/>
  <text x="405" y="59079.0" font-family="Tahoma" font-size="12" transform="rotate(90 405,59079.0)" text-rendering="optimizeSpeed" fill="#000000">NONSTOP_KERNEL (IA64N) (5)</text>
  <rect fill="blue" height="0.5" stroke="black" width="12" x="420" y="59073.5"/>
  <text x="420" y="59079.0" font-family="Tahoma" font-size="12" transform="rotate(90 420,59079.0)" text-rendering="optimizeSpeed" fill="#000000">Windows Server 2022 (x86) (5)</text>
  <rect fill="blue" height="0.5" stroke="black" width="12" x="435" y="59073.5"/>
  <text x="435" y="59079.0" font-family="Tahoma" font-size="12" transform="rotate(90 435,59079.0)" text-rendering="optimizeSpeed" fill="#000000">Windows Server version 1909 (amd64) (5)</text>
  <rect fill="blue" height="0.6" stroke="black" width="12" x="450" y="59073.4"/>
  <text x="450" y="59079.0" font-family="Tahoma" font-size="12" transform="rotate(90 450,59079.0)" text-rendering="optimizeSpeed" fill="#000000">HP-UX (ia64) (6)</text>
  <rect fill="blue" height="0.6" stroke="black" width="12" x="465" y="59073.4"/>
  <text x="465" y="59079.0" font-family="Tahoma" font-size="12" transform="rotate(90 465,59079.0)" text-rendering="optimizeSpeed" fill="#000000">Linux (sw64) (6)</text>
  <rect fill="blue" height="0.7" stroke="black" width="12" x="480" y="59073.3"/>
  <text x="480" y="59079.0" font-family="Tahoma" font-size="12" transform="rotate(90 480,59079.0)" text-rendering="optimizeSpeed" fill="#000000">NetBSD (amd64) (7)</text>
  <rect fill="blue" height="0.9" stroke="black" width="12" x="495" y="59073.1"/>
  <text x="495" y="59079.0" font-family="Tahoma" font-size="12" transform="rotate(90 495,59079.0)" text-rendering="optimizeSpeed" fill="#000000">NONSTOP_KERNEL (x86_64N) (9)</text>
  <rect fill="blue" height="0.9" stroke="black" width="12" x="510" y="59073.1"/>
  <text x="510" y="59079.0" font-family="Tahoma" font-size="12" transform="rotate(90 510,59079.0)" text-rendering="optimizeSpeed" fill="#000000">OS400 (ppc64) (9)</text>
  <rect fill="blue" height="1.2" stroke="black" width="12" x="525" y="59072.8"/>
  <text x="525" y="59079.0" font-family="Tahoma" font-size="12" transform="rotate(90 525,59079.0)" text-rendering="optimizeSpeed" fill="#000000">HP-UX (PA_RISC2.0) (12)</text>
  <rect fill="blue" height="1.7" stroke="black" width="12" x="540" y="59072.3"/>
  <text x="540" y="59079.0" font-family="Tahoma" font-size="12" transform="rotate(90 540,59079.0)" text-rendering="optimizeSpeed" fill="#000000">Windows 11 (x86) (17)</text>
  <rect fill="blue" height="1.9" stroke="black" width="12" x="555" y="59072.1"/>
  <text x="555" y="59079.0" font-family="Tahoma" font-size="12" transform="rotate(90 555,59079.0)" text-rendering="optimizeSpeed" fill="#000000">Linux (ppc) (19)</text>
  <rect fill="blue" height="1.9" stroke="black" width="12" x="570" y="59072.1"/>
  <text x="570" y="59079.0" font-family="Tahoma" font-size="12" transform="rotate(90 570,59079.0)" text-rendering="optimizeSpeed" fill="#000000">OpenBSD (amd64) (19)</text>
  <rect fill="blue" height="2.3" stroke="black" width="12" x="585" y="59071.7"/>
  <text x="585" y="59079.0" font-family="Tahoma" font-size="12" transform="rotate(90 585,59079.0)" text-rendering="optimizeSpeed" fill="#000000">Windows Server 2022 (amd64) (23)</text>
  <rect fill="blue" height="3.1" stroke="black" width="12" x="600" y="59070.9"/>
  <text x="600" y="59079.0" font-family="Tahoma" font-size="12" transform="rotate(90 600,59079.0)" text-rendering="optimizeSpeed" fill="#000000">Windows Vista (x86) (31)</text>
  <rect fill="blue" height="3.3" stroke="black" width="12" x="615" y="59070.7"/>
  <text x="615" y="59079.0" font-family="Tahoma" font-size="12" transform="rotate(90 615,59079.0)" text-rendering="optimizeSpeed" fill="#000000">Linux (x86) (33)</text>
  <rect fill="blue" height="4.2" stroke="black" width="12" x="630" y="59069.8"/>
  <text x="630" y="59079.0" font-family="Tahoma" font-size="12" transform="rotate(90 630,59079.0)" text-rendering="optimizeSpeed" fill="#000000">FreeBSD (i386) (42)</text>
  <rect fill="blue" height="4.3" stroke="black" width="12" x="645" y="59069.7"/>
  <text x="645" y="59079.0" font-family="Tahoma" font-size="12" transform="rotate(90 645,59079.0)" text-rendering="optimizeSpeed" fill="#000000">Windows 2003 (amd64) (43)</text>
  <rect fill="blue" height="4.7" stroke="black" width="12" x="660" y="59069.3"/>
  <text x="660" y="59079.0" font-family="Tahoma" font-size="12" transform="rotate(90 660,59079.0)" text-rendering="optimizeSpeed" fill="#000000">HP-UX (IA64W) (47)</text>
  <rect fill="blue" height="4.9" stroke="black" width="12" x="675" y="59069.1"/>
  <text x="675" y="59079.0" font-family="Tahoma" font-size="12" transform="rotate(90 675,59079.0)" text-rendering="optimizeSpeed" fill="#000000">OS/400 (ppc64) (49)</text>
  <rect fill="blue" height="7.7" stroke="black" width="12" x="690" y="59066.3"/>
  <text x="690" y="59079.0" font-family="Tahoma" font-size="12" transform="rotate(90 690,59079.0)" text-rendering="optimizeSpeed" fill="#000000">Linux (ppc64) (77)</text>
  <rect fill="blue" height="8.4" stroke="black" width="12" x="705" y="59065.6"/>
  <text x="705" y="59079.0" font-family="Tahoma" font-size="12" transform="rotate(90 705,59079.0)" text-rendering="optimizeSpeed" fill="#000000">Linux (mips64el) (84)</text>
  <rect fill="blue" height="9.1" stroke="black" width="12" x="720" y="59064.9"/>
  <text x="720" y="59079.0" font-family="Tahoma" font-size="12" transform="rotate(90 720,59079.0)" text-rendering="optimizeSpeed" fill="#000000">SunOS (x86) (91)</text>
  <rect fill="blue" height="9.2" stroke="black" width="12" x="735" y="59064.8"/>
  <text x="735" y="59079.0" font-family="Tahoma" font-size="12" transform="rotate(90 735,59079.0)" text-rendering="optimizeSpeed" fill="#000000">AIX (ppc) (92)</text>
  <rect fill="blue" height="9.2" stroke="black" width="12" x="750" y="59064.8"/>
  <text x="750" y="59079.0" font-family="Tahoma" font-size="12" transform="rotate(90 750,59079.0)" text-rendering="optimizeSpeed" fill="#000000">Linux (loongarch64) (92)</text>
  <rect fill="blue" height="9.6" stroke="black" width="12" x="765" y="59064.4"/>
  <text x="765" y="59079.0" font-family="Tahoma" font-size="12" transform="rotate(90 765,59079.0)" text-rendering="optimizeSpeed" fill="#000000">Windows 8 (x86) (96)</text>
  <rect fill="blue" height="10.4" stroke="black" width="12" x="780" y="59063.6"/>
  <text x="780" y="59079.0" font-family="Tahoma" font-size="12" transform="rotate(90 780,59079.0)" text-rendering="optimizeSpeed" fill="#000000">SunOS (sparc) (104)</text>
  <rect fill="blue" height="11.7" stroke="black" width="12" x="795" y="59062.3"/>
  <text x="795" y="59079.0" font-family="Tahoma" font-size="12" transform="rotate(90 795,59079.0)" text-rendering="optimizeSpeed" fill="#000000">Windows 11 (amd64) (117)</text>
  <rect fill="blue" height="11.9" stroke="black" width="12" x="810" y="59062.1"/>
  <text x="810" y="59079.0" font-family="Tahoma" font-size="12" transform="rotate(90 810,59079.0)" text-rendering="optimizeSpeed" fill="#000000">Windows Server 2008 (amd64) (119)</text>
  <rect fill="blue" height="14.9" stroke="black" width="12" x="825" y="59059.1"/>
  <text x="825" y="59079.0" font-family="Tahoma" font-size="12" transform="rotate(90 825,59079.0)" text-rendering="optimizeSpeed" fill="#000000">Windows 8 (amd64) (149)</text>
  <rect fill="blue" height="16.5" stroke="black" width="12" x="840" y="59057.5"/>
  <text x="840" y="59079.0" font-family="Tahoma" font-size="12" transform="rotate(90 840,59079.0)" text-rendering="optimizeSpeed" fill="#000000">Windows Server 2008 (x86) (165)</text>
  <rect fill="blue" height="21.2" stroke="black" width="12" x="855" y="59052.8"/>
  <text x="855" y="59079.0" font-family="Tahoma" font-size="12" transform="rotate(90 855,59079.0)" text-rendering="optimizeSpeed" fill="#000000">z/OS (s390x) (212)</text>
  <rect fill="blue" height="24.1" stroke="black" width="12" x="870" y="59049.9"/>
  <text x="870" y="59079.0" font-family="Tahoma" font-size="12" transform="rotate(90 870,59079.0)" text-rendering="optimizeSpeed" fill="#000000">Linux (s390x) (241)</text>
  <rect fill="blue" height="24.4" stroke="black" width="12" x="885" y="59049.6"/>
  <text x="885" y="59079.0" font-family="Tahoma" font-size="12" transform="rotate(90 885,59079.0)" text-rendering="optimizeSpeed" fill="#000000">HP-UX (IA64N) (244)</text>
  <rect fill="blue" height="30.4" stroke="black" width="12" x="900" y="59043.6"/>
  <text x="900" y="59079.0" font-family="Tahoma" font-size="12" transform="rotate(90 900,59079.0)" text-rendering="optimizeSpeed" fill="#000000">Windows XP (x86) (304)</text>
  <rect fill="blue" height="56.3" stroke="black" width="12" x="915" y="59017.7"/>
  <text x="915" y="59079.0" font-family="Tahoma" font-size="12" transform="rotate(90 915,59079.0)" text-rendering="optimizeSpeed" fill="#000000">Windows Server 2012 (x86) (563)</text>
  <rect fill="blue" height="61.4" stroke="black" width="12" x="930" y="59012.6"/>
  <text x="930" y="59079.0" font-family="Tahoma" font-size="12" transform="rotate(90 930,59079.0)" text-rendering="optimizeSpeed" fill="#000000">SunOS (amd64) (614)</text>
  <rect fill="blue" height="65.6" stroke="black" width="12" x="945" y="59008.4"/>
  <text x="945" y="59079.0" font-family="Tahoma" font-size="12" transform="rotate(90 945,59079.0)" text-rendering="optimizeSpeed" fill="#000000">Windows NT (unknown) (x86) (656)</text>
  <rect fill="blue" height="69.2" stroke="black" width="12" x="960" y="59004.8"/>
  <text x="960" y="59079.0" font-family="Tahoma" font-size="12" transform="rotate(90 960,59079.0)" text-rendering="optimizeSpeed" fill="#000000">Windows 8.1 (x86) (692)</text>
  <rect fill="blue" height="71.7" stroke="black" width="12" x="975" y="59002.3"/>
  <text x="975" y="59079.0" font-family="Tahoma" font-size="12" transform="rotate(90 975,59079.0)" text-rendering="optimizeSpeed" fill="#000000">Linux (ppc64le) (717)</text>
  <rect fill="blue" height="77.7" stroke="black" width="12" x="990" y="58996.3"/>
  <text x="990" y="59079.0" font-family="Tahoma" font-size="12" transform="rotate(90 990,59079.0)" text-rendering="optimizeSpeed" fill="#000000">FreeBSD (amd64) (777)</text>
  <rect fill="blue" height="119.2" stroke="black" width="12" x="1005" y="58954.8"/>
  <text x="1005" y="59079.0" font-family="Tahoma" font-size="12" transform="rotate(90 1005,59079.0)" text-rendering="optimizeSpeed" fill="#000000">SunOS (sparcv9) (1192)</text>
  <rect fill="blue" height="124.0" stroke="black" width="12" x="1020" y="58950.0"/>
  <text x="1020" y="59079.0" font-family="Tahoma" font-size="12" transform="rotate(90 1020,59079.0)" text-rendering="optimizeSpeed" fill="#000000">Windows 8.1 (amd64) (1240)</text>
  <rect fill="blue" height="125.9" stroke="black" width="12" x="1035" y="58948.1"/>
  <text x="1035" y="59079.0" font-family="Tahoma" font-size="12" transform="rotate(90 1035,59079.0)" text-rendering="optimizeSpeed" fill="#000000">Windows 2003 (x86) (1259)</text>
  <rect fill="blue" height="157.3" stroke="black" width="12" x="1050" y="58916.7"/>
  <text x="1050" y="59079.0" font-family="Tahoma" font-size="12" transform="rotate(90 1050,59079.0)" text-rendering="optimizeSpeed" fill="#000000">Windows Server 2012 (amd64) (1573)</text>
  <rect fill="blue" height="185.0" stroke="black" width="12" x="1065" y="58889.0"/>
  <text x="1065" y="59079.0" font-family="Tahoma" font-size="12" transform="rotate(90 1065,59079.0)" text-rendering="optimizeSpeed" fill="#000000">Windows Server 2008 R2 (x86) (1850)</text>
  <rect fill="blue" height="191.0" stroke="black" width="12" x="1080" y="58883.0"/>
  <text x="1080" y="59079.0" font-family="Tahoma" font-size="12" transform="rotate(90 1080,59079.0)" text-rendering="optimizeSpeed" fill="#000000">AIX (ppc64) (1910)</text>
  <rect fill="blue" height="207.4" stroke="black" width="12" x="1095" y="58866.6"/>
  <text x="1095" y="59079.0" font-family="Tahoma" font-size="12" transform="rotate(90 1095,59079.0)" text-rendering="optimizeSpeed" fill="#000000">Mac OS X (aarch64) (2074)</text>
  <rect fill="blue" height="210.6" stroke="black" width="12" x="1110" y="58863.4"/>
  <text x="1110" y="59079.0" font-family="Tahoma" font-size="12" transform="rotate(90 1110,59079.0)" text-rendering="optimizeSpeed" fill="#000000">Windows Server 2019 (x86) (2106)</text>
  <rect fill="blue" height="261.1" stroke="black" width="12" x="1125" y="58812.9"/>
  <text x="1125" y="59079.0" font-family="Tahoma" font-size="12" transform="rotate(90 1125,59079.0)" text-rendering="optimizeSpeed" fill="#000000">Windows NT (unknown) (amd64) (2611)</text>
  <rect fill="blue" height="270.1" stroke="black" width="12" x="1140" y="58803.9"/>
  <text x="1140" y="59079.0" font-family="Tahoma" font-size="12" transform="rotate(90 1140,59079.0)" text-rendering="optimizeSpeed" fill="#000000">Linux (arm) (2701)</text>
  <rect fill="blue" height="416.1" stroke="black" width="12" x="1155" y="58657.9"/>
  <text x="1155" y="59079.0" font-family="Tahoma" font-size="12" transform="rotate(90 1155,59079.0)" text-rendering="optimizeSpeed" fill="#000000">Windows 7 (x86) (4161)</text>
  <rect fill="blue" height="462.2" stroke="black" width="12" x="1170" y="58611.8"/>
  <text x="1170" y="59079.0" font-family="Tahoma" font-size="12" transform="rotate(90 1170,59079.0)" text-rendering="optimizeSpeed" fill="#000000">Linux (i386) (4622)</text>
  <rect fill="blue" height="481.6" stroke="black" width="12" x="1185" y="58592.4"/>
  <text x="1185" y="59079.0" font-family="Tahoma" font-size="12" transform="rotate(90 1185,59079.0)" text-rendering="optimizeSpeed" fill="#000000">Windows Server 2008 R2 (amd64) (4816)</text>
  <rect fill="blue" height="557.0" stroke="black" width="12" x="1200" y="58517.0"/>
  <text x="1200" y="59079.0" font-family="Tahoma" font-size="12" transform="rotate(90 1200,59079.0)" text-rendering="optimizeSpeed" fill="#000000">Windows 7 (amd64) (5570)</text>
  <rect fill="blue" height="618.1" stroke="black" width="12" x="1215" y="58455.9"/>
  <text x="1215" y="59079.0" font-family="Tahoma" font-size="12" transform="rotate(90 1215,59079.0)" text-rendering="optimizeSpeed" fill="#000000">Linux (aarch64) (6181)</text>
  <rect fill="blue" height="703.0" stroke="black" width="12" x="1230" y="58371.0"/>
  <text x="1230" y="59079.0" font-family="Tahoma" font-size="12" transform="rotate(90 1230,59079.0)" text-rendering="optimizeSpeed" fill="#000000">Windows Server 2012 R2 (x86) (7030)</text>
  <rect fill="blue" height="1063.7" stroke="black" width="12" x="1245" y="58010.3"/>
  <text x="1245" y="59079.0" font-family="Tahoma" font-size="12" transform="rotate(90 1245,59079.0)" text-rendering="optimizeSpeed" fill="#000000">Windows Server 2016 (x86) (10637)</text>
  <rect fill="blue" height="1665.4" stroke="black" width="12" x="1260" y="57408.6"/>
  <text x="1260" y="59079.0" font-family="Tahoma" font-size="12" transform="rotate(90 1260,59079.0)" text-rendering="optimizeSpeed" fill="#000000">Windows Server 2019 (amd64) (16654)</text>
  <rect fill="blue" height="1911.5" stroke="black" width="12" x="1275" y="57162.5"/>
  <text x="1275" y="59079.0" font-family="Tahoma" font-size="12" transform="rotate(90 1275,59079.0)" text-rendering="optimizeSpeed" fill="#000000">Windows 10 (x86) (19115)</text>
  <rect fill="blue" height="2129.9" stroke="black" width="12" x="1290" y="56944.1"/>
  <text x="1290" y="59079.0" font-family="Tahoma" font-size="12" transform="rotate(90 1290,59079.0)" text-rendering="optimizeSpeed" fill="#000000">Windows Server 2012 R2 (amd64) (21299)</text>
  <rect fill="blue" height="2967.1" stroke="black" width="12" x="1305" y="56106.9"/>
  <text x="1305" y="59079.0" font-family="Tahoma" font-size="12" transform="rotate(90 1305,59079.0)" text-rendering="optimizeSpeed" fill="#000000">Mac OS X (x86_64) (29671)</text>
  <rect fill="blue" height="3256.1" stroke="black" width="12" x="1320" y="55817.9"/>
  <text x="1320" y="59079.0" font-family="Tahoma" font-size="12" transform="rotate(90 1320,59079.0)" text-rendering="optimizeSpeed" fill="#000000">Windows Server 2016 (amd64) (32561)</text>
  <rect fill="blue" height="6952.9" stroke="black" width="12" x="1335" y="52121.1"/>
  <text x="1335" y="59079.0" font-family="Tahoma" font-size="12" transform="rotate(90 1335,59079.0)" text-rendering="optimizeSpeed" fill="#000000">Windows 10 (amd64) (69529)</text>
  <rect fill="blue" height="32868.2" stroke="black" width="12" x="1350" y="26205.8"/>
  <text x="1350" y="59079.0" font-family="Tahoma" font-size="12" transform="rotate(90 1350,59079.0)" text-rendering="optimizeSpeed" fill="#000000">N/A (328682)</text>
  <rect fill="blue" height="59024.0" stroke="black" width="12" x="1365" y="50.0"/>
  <text x="1365" y="59079.0" font-family="Tahoma" font-size="12" transform="rotate(90 1365,59079.0)" text-rendering="optimizeSpeed" fill="#000000">Linux (amd64) (590240)</text>
  <text x="10" y="40" font-family="Tahoma" font-size="20" text-rendering="optimizeSpeed" fill="#000000">Nodes (total: 1175926)</text>
</svg>
