<svg xmlns="http://www.w3.org/2000/svg" version="1.1" preserveAspectRatio="xMidYMid meet" viewBox="0 0 1325 62742.7">
  <rect fill="blue" height="0.1" stroke="black" width="12" x="15" y="62442.6"/>
  <text x="15" y="62447.7" font-family="Tahoma" font-size="12" transform="rotate(90 15,62447.7)" text-rendering="optimizeSpeed" fill="#000000">DragonFlyBSD (amd64) (1)</text>
  <rect fill="blue" height="0.1" stroke="black" width="12" x="30" y="62442.6"/>
  <text x="30" y="62447.7" font-family="Tahoma" font-size="12" transform="rotate(90 30,62447.7)" text-rendering="optimizeSpeed" fill="#000000">HP-UX (PA_RISC2.0W) (1)</text>
  <rect fill="blue" height="0.1" stroke="black" width="12" x="45" y="62442.6"/>
  <text x="45" y="62447.7" font-family="Tahoma" font-size="12" transform="rotate(90 45,62447.7)" text-rendering="optimizeSpeed" fill="#000000">Linux (s390) (1)</text>
  <rect fill="blue" height="0.1" stroke="black" width="12" x="60" y="62442.6"/>
  <text x="60" y="62447.7" font-family="Tahoma" font-size="12" transform="rotate(90 60,62447.7)" text-rendering="optimizeSpeed" fill="#000000">Linux (sparcv9) (1)</text>
  <rect fill="blue" height="0.1" stroke="black" width="12" x="75" y="62442.6"/>
  <text x="75" y="62447.7" font-family="Tahoma" font-size="12" transform="rotate(90 75,62447.7)" text-rendering="optimizeSpeed" fill="#000000">Linux (x86_64) (1)</text>
  <rect fill="blue" height="0.1" stroke="black" width="12" x="90" y="62442.6"/>
  <text x="90" y="62447.7" font-family="Tahoma" font-size="12" transform="rotate(90 90,62447.7)" text-rendering="optimizeSpeed" fill="#000000">Linux (zArch_64) (1)</text>
  <rect fill="blue" height="0.1" stroke="black" width="12" x="105" y="62442.6"/>
  <text x="105" y="62447.7" font-family="Tahoma" font-size="12" transform="rotate(90 105,62447.7)" text-rendering="optimizeSpeed" fill="#000000">NetBSD (i386) (1)</text>
  <rect fill="blue" height="0.1" stroke="black" width="12" x="120" y="62442.6"/>
  <text x="120" y="62447.7" font-family="Tahoma" font-size="12" transform="rotate(90 120,62447.7)" text-rendering="optimizeSpeed" fill="#000000">OS/400 (ppc) (1)</text>
  <rect fill="blue" height="0.1" stroke="black" width="12" x="135" y="62442.6"/>
  <text x="135" y="62447.7" font-family="Tahoma" font-size="12" transform="rotate(90 135,62447.7)" text-rendering="optimizeSpeed" fill="#000000">Windows 10 (aarch64) (1)</text>
  <rect fill="blue" height="0.1" stroke="black" width="12" x="150" y="62442.6"/>
  <text x="150" y="62447.7" font-family="Tahoma" font-size="12" transform="rotate(90 150,62447.7)" text-rendering="optimizeSpeed" fill="#000000">Windows 11 (aarch64) (1)</text>
  <rect fill="blue" height="0.1" stroke="black" width="12" x="165" y="62442.6"/>
  <text x="165" y="62447.7" font-family="Tahoma" font-size="12" transform="rotate(90 165,62447.7)" text-rendering="optimizeSpeed" fill="#000000">Windows Server 2016 Datacenter (amd64) (1)</text>
  <rect fill="blue" height="0.1" stroke="black" width="12" x="180" y="62442.6"/>
  <text x="180" y="62447.7" font-family="Tahoma" font-size="12" transform="rotate(90 180,62447.7)" text-rendering="optimizeSpeed" fill="#000000">Windows Vista (amd64) (1)</text>
  <rect fill="blue" height="0.1" stroke="black" width="12" x="195" y="62442.6"/>
  <text x="195" y="62447.7" font-family="Tahoma" font-size="12" transform="rotate(90 195,62447.7)" text-rendering="optimizeSpeed" fill="#000000">Windows XP (amd64) (1)</text>
  <rect fill="blue" height="0.1" stroke="black" width="12" x="210" y="62442.6"/>
  <text x="210" y="62447.7" font-family="Tahoma" font-size="12" transform="rotate(90 210,62447.7)" text-rendering="optimizeSpeed" fill="#000000">z/OS (s390) (1)</text>
  <rect fill="blue" height="0.3" stroke="black" width="12" x="225" y="62442.4"/>
  <text x="225" y="62447.7" font-family="Tahoma" font-size="12" transform="rotate(90 225,62447.7)" text-rendering="optimizeSpeed" fill="#000000">Linux (e2k) (3)</text>
  <rect fill="blue" height="0.4" stroke="black" width="12" x="240" y="62442.3"/>
  <text x="240" y="62447.7" font-family="Tahoma" font-size="12" transform="rotate(90 240,62447.7)" text-rendering="optimizeSpeed" fill="#000000">NetBSD (amd64) (4)</text>
  <rect fill="blue" height="0.4" stroke="black" width="12" x="255" y="62442.3"/>
  <text x="255" y="62447.7" font-family="Tahoma" font-size="12" transform="rotate(90 255,62447.7)" text-rendering="optimizeSpeed" fill="#000000">Windows Server 2016 Standard (amd64) (4)</text>
  <rect fill="blue" height="0.5" stroke="black" width="12" x="270" y="62442.2"/>
  <text x="270" y="62447.7" font-family="Tahoma" font-size="12" transform="rotate(90 270,62447.7)" text-rendering="optimizeSpeed" fill="#000000">FreeBSD (aarch64) (5)</text>
  <rect fill="blue" height="0.5" stroke="black" width="12" x="285" y="62442.2"/>
  <text x="285" y="62447.7" font-family="Tahoma" font-size="12" transform="rotate(90 285,62447.7)" text-rendering="optimizeSpeed" fill="#000000">Windows Server version 1909 (amd64) (5)</text>
  <rect fill="blue" height="0.6" stroke="black" width="12" x="300" y="62442.1"/>
  <text x="300" y="62447.7" font-family="Tahoma" font-size="12" transform="rotate(90 300,62447.7)" text-rendering="optimizeSpeed" fill="#000000">Linux (riscv) (6)</text>
  <rect fill="blue" height="0.6" stroke="black" width="12" x="315" y="62442.1"/>
  <text x="315" y="62447.7" font-family="Tahoma" font-size="12" transform="rotate(90 315,62447.7)" text-rendering="optimizeSpeed" fill="#000000">NONSTOP_KERNEL (IA64N) (6)</text>
  <rect fill="blue" height="0.7" stroke="black" width="12" x="330" y="62442.0"/>
  <text x="330" y="62447.7" font-family="Tahoma" font-size="12" transform="rotate(90 330,62447.7)" text-rendering="optimizeSpeed" fill="#000000">HP-UX (ia64) (7)</text>
  <rect fill="blue" height="0.7" stroke="black" width="12" x="345" y="62442.0"/>
  <text x="345" y="62447.7" font-family="Tahoma" font-size="12" transform="rotate(90 345,62447.7)" text-rendering="optimizeSpeed" fill="#000000">NONSTOP_KERNEL (x86_64N) (7)</text>
  <rect fill="blue" height="0.8" stroke="black" width="12" x="360" y="62441.9"/>
  <text x="360" y="62447.7" font-family="Tahoma" font-size="12" transform="rotate(90 360,62447.7)" text-rendering="optimizeSpeed" fill="#000000">HP-UX (PA_RISC2.0) (8)</text>
  <rect fill="blue" height="0.9" stroke="black" width="12" x="375" y="62441.8"/>
  <text x="375" y="62447.7" font-family="Tahoma" font-size="12" transform="rotate(90 375,62447.7)" text-rendering="optimizeSpeed" fill="#000000">Linux (riscv64) (9)</text>
  <rect fill="blue" height="0.9" stroke="black" width="12" x="390" y="62441.8"/>
  <text x="390" y="62447.7" font-family="Tahoma" font-size="12" transform="rotate(90 390,62447.7)" text-rendering="optimizeSpeed" fill="#000000">OS400 (ppc64) (9)</text>
  <rect fill="blue" height="0.9" stroke="black" width="12" x="405" y="62441.8"/>
  <text x="405" y="62447.7" font-family="Tahoma" font-size="12" transform="rotate(90 405,62447.7)" text-rendering="optimizeSpeed" fill="#000000">Windows Server version 2009 (amd64) (9)</text>
  <rect fill="blue" height="1.5" stroke="black" width="12" x="420" y="62441.2"/>
  <text x="420" y="62447.7" font-family="Tahoma" font-size="12" transform="rotate(90 420,62447.7)" text-rendering="optimizeSpeed" fill="#000000">Linux (sw64) (15)</text>
  <rect fill="blue" height="1.7" stroke="black" width="12" x="435" y="62441.0"/>
  <text x="435" y="62447.7" font-family="Tahoma" font-size="12" transform="rotate(90 435,62447.7)" text-rendering="optimizeSpeed" fill="#000000">OpenBSD (amd64) (17)</text>
  <rect fill="blue" height="1.9" stroke="black" width="12" x="450" y="62440.8"/>
  <text x="450" y="62447.7" font-family="Tahoma" font-size="12" transform="rotate(90 450,62447.7)" text-rendering="optimizeSpeed" fill="#000000">Linux (ppc) (19)</text>
  <rect fill="blue" height="2.6" stroke="black" width="12" x="465" y="62440.1"/>
  <text x="465" y="62447.7" font-family="Tahoma" font-size="12" transform="rotate(90 465,62447.7)" text-rendering="optimizeSpeed" fill="#000000">Linux (x86) (26)</text>
  <rect fill="blue" height="2.7" stroke="black" width="12" x="480" y="62440.0"/>
  <text x="480" y="62447.7" font-family="Tahoma" font-size="12" transform="rotate(90 480,62447.7)" text-rendering="optimizeSpeed" fill="#000000">Windows 2003 (amd64) (27)</text>
  <rect fill="blue" height="2.8" stroke="black" width="12" x="495" y="62439.9"/>
  <text x="495" y="62447.7" font-family="Tahoma" font-size="12" transform="rotate(90 495,62447.7)" text-rendering="optimizeSpeed" fill="#000000">HP-UX (IA64W) (28)</text>
  <rect fill="blue" height="3.5" stroke="black" width="12" x="510" y="62439.2"/>
  <text x="510" y="62447.7" font-family="Tahoma" font-size="12" transform="rotate(90 510,62447.7)" text-rendering="optimizeSpeed" fill="#000000">Windows Vista (x86) (35)</text>
  <rect fill="blue" height="4.5" stroke="black" width="12" x="525" y="62438.2"/>
  <text x="525" y="62447.7" font-family="Tahoma" font-size="12" transform="rotate(90 525,62447.7)" text-rendering="optimizeSpeed" fill="#000000">FreeBSD (i386) (45)</text>
  <rect fill="blue" height="4.9" stroke="black" width="12" x="540" y="62437.8"/>
  <text x="540" y="62447.7" font-family="Tahoma" font-size="12" transform="rotate(90 540,62447.7)" text-rendering="optimizeSpeed" fill="#000000">Linux (ppc64) (49)</text>
  <rect fill="blue" height="5.2" stroke="black" width="12" x="555" y="62437.5"/>
  <text x="555" y="62447.7" font-family="Tahoma" font-size="12" transform="rotate(90 555,62447.7)" text-rendering="optimizeSpeed" fill="#000000">OS/400 (ppc64) (52)</text>
  <rect fill="blue" height="8.0" stroke="black" width="12" x="570" y="62434.7"/>
  <text x="570" y="62447.7" font-family="Tahoma" font-size="12" transform="rotate(90 570,62447.7)" text-rendering="optimizeSpeed" fill="#000000">AIX (ppc) (80)</text>
  <rect fill="blue" height="8.4" stroke="black" width="12" x="585" y="62434.3"/>
  <text x="585" y="62447.7" font-family="Tahoma" font-size="12" transform="rotate(90 585,62447.7)" text-rendering="optimizeSpeed" fill="#000000">SunOS (x86) (84)</text>
  <rect fill="blue" height="9.2" stroke="black" width="12" x="600" y="62433.5"/>
  <text x="600" y="62447.7" font-family="Tahoma" font-size="12" transform="rotate(90 600,62447.7)" text-rendering="optimizeSpeed" fill="#000000">Windows 8 (amd64) (92)</text>
  <rect fill="blue" height="9.3" stroke="black" width="12" x="615" y="62433.4"/>
  <text x="615" y="62447.7" font-family="Tahoma" font-size="12" transform="rotate(90 615,62447.7)" text-rendering="optimizeSpeed" fill="#000000">Windows Server 2022 (x86) (93)</text>
  <rect fill="blue" height="10.0" stroke="black" width="12" x="630" y="62432.7"/>
  <text x="630" y="62447.7" font-family="Tahoma" font-size="12" transform="rotate(90 630,62447.7)" text-rendering="optimizeSpeed" fill="#000000">Windows 11 (x86) (100)</text>
  <rect fill="blue" height="10.1" stroke="black" width="12" x="645" y="62432.6"/>
  <text x="645" y="62447.7" font-family="Tahoma" font-size="12" transform="rotate(90 645,62447.7)" text-rendering="optimizeSpeed" fill="#000000">SunOS (sparc) (101)</text>
  <rect fill="blue" height="10.2" stroke="black" width="12" x="660" y="62432.5"/>
  <text x="660" y="62447.7" font-family="Tahoma" font-size="12" transform="rotate(90 660,62447.7)" text-rendering="optimizeSpeed" fill="#000000">Windows Server 2008 (amd64) (102)</text>
  <rect fill="blue" height="10.4" stroke="black" width="12" x="675" y="62432.3"/>
  <text x="675" y="62447.7" font-family="Tahoma" font-size="12" transform="rotate(90 675,62447.7)" text-rendering="optimizeSpeed" fill="#000000">Windows 8 (x86) (104)</text>
  <rect fill="blue" height="11.2" stroke="black" width="12" x="690" y="62431.5"/>
  <text x="690" y="62447.7" font-family="Tahoma" font-size="12" transform="rotate(90 690,62447.7)" text-rendering="optimizeSpeed" fill="#000000">Linux (loongarch64) (112)</text>
  <rect fill="blue" height="12.3" stroke="black" width="12" x="705" y="62430.4"/>
  <text x="705" y="62447.7" font-family="Tahoma" font-size="12" transform="rotate(90 705,62447.7)" text-rendering="optimizeSpeed" fill="#000000">Windows Server 2008 (x86) (123)</text>
  <rect fill="blue" height="12.4" stroke="black" width="12" x="720" y="62430.3"/>
  <text x="720" y="62447.7" font-family="Tahoma" font-size="12" transform="rotate(90 720,62447.7)" text-rendering="optimizeSpeed" fill="#000000">Linux (mips64el) (124)</text>
  <rect fill="blue" height="15.2" stroke="black" width="12" x="735" y="62427.5"/>
  <text x="735" y="62447.7" font-family="Tahoma" font-size="12" transform="rotate(90 735,62447.7)" text-rendering="optimizeSpeed" fill="#000000">Windows XP (x86) (152)</text>
  <rect fill="blue" height="17.8" stroke="black" width="12" x="750" y="62424.9"/>
  <text x="750" y="62447.7" font-family="Tahoma" font-size="12" transform="rotate(90 750,62447.7)" text-rendering="optimizeSpeed" fill="#000000">Windows 2003 (x86) (178)</text>
  <rect fill="blue" height="20.9" stroke="black" width="12" x="765" y="62421.8"/>
  <text x="765" y="62447.7" font-family="Tahoma" font-size="12" transform="rotate(90 765,62447.7)" text-rendering="optimizeSpeed" fill="#000000">z/OS (s390x) (209)</text>
  <rect fill="blue" height="23.4" stroke="black" width="12" x="780" y="62419.3"/>
  <text x="780" y="62447.7" font-family="Tahoma" font-size="12" transform="rotate(90 780,62447.7)" text-rendering="optimizeSpeed" fill="#000000">HP-UX (IA64N) (234)</text>
  <rect fill="blue" height="37.9" stroke="black" width="12" x="795" y="62404.8"/>
  <text x="795" y="62447.7" font-family="Tahoma" font-size="12" transform="rotate(90 795,62447.7)" text-rendering="optimizeSpeed" fill="#000000">Linux (s390x) (379)</text>
  <rect fill="blue" height="45.2" stroke="black" width="12" x="810" y="62397.5"/>
  <text x="810" y="62447.7" font-family="Tahoma" font-size="12" transform="rotate(90 810,62447.7)" text-rendering="optimizeSpeed" fill="#000000">Windows Server 2012 (x86) (452)</text>
  <rect fill="blue" height="52.3" stroke="black" width="12" x="825" y="62390.4"/>
  <text x="825" y="62447.7" font-family="Tahoma" font-size="12" transform="rotate(90 825,62447.7)" text-rendering="optimizeSpeed" fill="#000000">SunOS (amd64) (523)</text>
  <rect fill="blue" height="53.6" stroke="black" width="12" x="840" y="62389.1"/>
  <text x="840" y="62447.7" font-family="Tahoma" font-size="12" transform="rotate(90 840,62447.7)" text-rendering="optimizeSpeed" fill="#000000">Windows 8.1 (x86) (536)</text>
  <rect fill="blue" height="58.7" stroke="black" width="12" x="855" y="62384.0"/>
  <text x="855" y="62447.7" font-family="Tahoma" font-size="12" transform="rotate(90 855,62447.7)" text-rendering="optimizeSpeed" fill="#000000">Windows NT (unknown) (x86) (587)</text>
  <rect fill="blue" height="73.3" stroke="black" width="12" x="870" y="62369.4"/>
  <text x="870" y="62447.7" font-family="Tahoma" font-size="12" transform="rotate(90 870,62447.7)" text-rendering="optimizeSpeed" fill="#000000">FreeBSD (amd64) (733)</text>
  <rect fill="blue" height="79.5" stroke="black" width="12" x="885" y="62363.2"/>
  <text x="885" y="62447.7" font-family="Tahoma" font-size="12" transform="rotate(90 885,62447.7)" text-rendering="optimizeSpeed" fill="#000000">Linux (ppc64le) (795)</text>
  <rect fill="blue" height="101.6" stroke="black" width="12" x="900" y="62341.1"/>
  <text x="900" y="62447.7" font-family="Tahoma" font-size="12" transform="rotate(90 900,62447.7)" text-rendering="optimizeSpeed" fill="#000000">Windows 8.1 (amd64) (1016)</text>
  <rect fill="blue" height="116.2" stroke="black" width="12" x="915" y="62326.5"/>
  <text x="915" y="62447.7" font-family="Tahoma" font-size="12" transform="rotate(90 915,62447.7)" text-rendering="optimizeSpeed" fill="#000000">SunOS (sparcv9) (1162)</text>
  <rect fill="blue" height="129.7" stroke="black" width="12" x="930" y="62313.0"/>
  <text x="930" y="62447.7" font-family="Tahoma" font-size="12" transform="rotate(90 930,62447.7)" text-rendering="optimizeSpeed" fill="#000000">Windows Server 2008 R2 (x86) (1297)</text>
  <rect fill="blue" height="143.7" stroke="black" width="12" x="945" y="62299.0"/>
  <text x="945" y="62447.7" font-family="Tahoma" font-size="12" transform="rotate(90 945,62447.7)" text-rendering="optimizeSpeed" fill="#000000">Windows Server 2022 (amd64) (1437)</text>
  <rect fill="blue" height="151.4" stroke="black" width="12" x="960" y="62291.3"/>
  <text x="960" y="62447.7" font-family="Tahoma" font-size="12" transform="rotate(90 960,62447.7)" text-rendering="optimizeSpeed" fill="#000000">Windows Server 2012 (amd64) (1514)</text>
  <rect fill="blue" height="193.1" stroke="black" width="12" x="975" y="62249.6"/>
  <text x="975" y="62447.7" font-family="Tahoma" font-size="12" transform="rotate(90 975,62447.7)" text-rendering="optimizeSpeed" fill="#000000">AIX (ppc64) (1931)</text>
  <rect fill="blue" height="219.6" stroke="black" width="12" x="990" y="62223.1"/>
  <text x="990" y="62447.7" font-family="Tahoma" font-size="12" transform="rotate(90 990,62447.7)" text-rendering="optimizeSpeed" fill="#000000">Windows Server 2019 (x86) (2196)</text>
  <rect fill="blue" height="259.4" stroke="black" width="12" x="1005" y="62183.3"/>
  <text x="1005" y="62447.7" font-family="Tahoma" font-size="12" transform="rotate(90 1005,62447.7)" text-rendering="optimizeSpeed" fill="#000000">Windows NT (unknown) (amd64) (2594)</text>
  <rect fill="blue" height="265.0" stroke="black" width="12" x="1020" y="62177.7"/>
  <text x="1020" y="62447.7" font-family="Tahoma" font-size="12" transform="rotate(90 1020,62447.7)" text-rendering="optimizeSpeed" fill="#000000">Linux (arm) (2650)</text>
  <rect fill="blue" height="268.7" stroke="black" width="12" x="1035" y="62174.0"/>
  <text x="1035" y="62447.7" font-family="Tahoma" font-size="12" transform="rotate(90 1035,62447.7)" text-rendering="optimizeSpeed" fill="#000000">Windows 7 (x86) (2687)</text>
  <rect fill="blue" height="329.6" stroke="black" width="12" x="1050" y="62113.1"/>
  <text x="1050" y="62447.7" font-family="Tahoma" font-size="12" transform="rotate(90 1050,62447.7)" text-rendering="optimizeSpeed" fill="#000000">Windows 11 (amd64) (3296)</text>
  <rect fill="blue" height="390.8" stroke="black" width="12" x="1065" y="62051.9"/>
  <text x="1065" y="62447.7" font-family="Tahoma" font-size="12" transform="rotate(90 1065,62447.7)" text-rendering="optimizeSpeed" fill="#000000">Linux (i386) (3908)</text>
  <rect fill="blue" height="411.6" stroke="black" width="12" x="1080" y="62031.1"/>
  <text x="1080" y="62447.7" font-family="Tahoma" font-size="12" transform="rotate(90 1080,62447.7)" text-rendering="optimizeSpeed" fill="#000000">Windows Server 2008 R2 (amd64) (4116)</text>
  <rect fill="blue" height="435.4" stroke="black" width="12" x="1095" y="62007.3"/>
  <text x="1095" y="62447.7" font-family="Tahoma" font-size="12" transform="rotate(90 1095,62447.7)" text-rendering="optimizeSpeed" fill="#000000">Windows 7 (amd64) (4354)</text>
  <rect fill="blue" height="440.3" stroke="black" width="12" x="1110" y="62002.4"/>
  <text x="1110" y="62447.7" font-family="Tahoma" font-size="12" transform="rotate(90 1110,62447.7)" text-rendering="optimizeSpeed" fill="#000000">Mac OS X (aarch64) (4403)</text>
  <rect fill="blue" height="538.8" stroke="black" width="12" x="1125" y="61903.9"/>
  <text x="1125" y="62447.7" font-family="Tahoma" font-size="12" transform="rotate(90 1125,62447.7)" text-rendering="optimizeSpeed" fill="#000000">Windows Server 2012 R2 (x86) (5388)</text>
  <rect fill="blue" height="796.6" stroke="black" width="12" x="1140" y="61646.1"/>
  <text x="1140" y="62447.7" font-family="Tahoma" font-size="12" transform="rotate(90 1140,62447.7)" text-rendering="optimizeSpeed" fill="#000000">Linux (aarch64) (7966)</text>
  <rect fill="blue" height="896.1" stroke="black" width="12" x="1155" y="61546.6"/>
  <text x="1155" y="62447.7" font-family="Tahoma" font-size="12" transform="rotate(90 1155,62447.7)" text-rendering="optimizeSpeed" fill="#000000">Windows Server 2016 (x86) (8961)</text>
  <rect fill="blue" height="1540.1" stroke="black" width="12" x="1170" y="60902.6"/>
  <text x="1170" y="62447.7" font-family="Tahoma" font-size="12" transform="rotate(90 1170,62447.7)" text-rendering="optimizeSpeed" fill="#000000">Windows 10 (x86) (15401)</text>
  <rect fill="blue" height="1958.4" stroke="black" width="12" x="1185" y="60484.3"/>
  <text x="1185" y="62447.7" font-family="Tahoma" font-size="12" transform="rotate(90 1185,62447.7)" text-rendering="optimizeSpeed" fill="#000000">Windows Server 2012 R2 (amd64) (19584)</text>
  <rect fill="blue" height="2349.7" stroke="black" width="12" x="1200" y="60093.0"/>
  <text x="1200" y="62447.7" font-family="Tahoma" font-size="12" transform="rotate(90 1200,62447.7)" text-rendering="optimizeSpeed" fill="#000000">Windows Server 2019 (amd64) (23497)</text>
  <rect fill="blue" height="2759.7" stroke="black" width="12" x="1215" y="59683.0"/>
  <text x="1215" y="62447.7" font-family="Tahoma" font-size="12" transform="rotate(90 1215,62447.7)" text-rendering="optimizeSpeed" fill="#000000">Mac OS X (x86_64) (27597)</text>
  <rect fill="blue" height="3494.2" stroke="black" width="12" x="1230" y="58948.5"/>
  <text x="1230" y="62447.7" font-family="Tahoma" font-size="12" transform="rotate(90 1230,62447.7)" text-rendering="optimizeSpeed" fill="#000000">Windows Server 2016 (amd64) (34942)</text>
  <rect fill="blue" height="7608.9" stroke="black" width="12" x="1245" y="54833.8"/>
  <text x="1245" y="62447.7" font-family="Tahoma" font-size="12" transform="rotate(90 1245,62447.7)" text-rendering="optimizeSpeed" fill="#000000">Windows 10 (amd64) (76089)</text>
  <rect fill="blue" height="35276.7" stroke="black" width="12" x="1260" y="27166.0"/>
  <text x="1260" y="62447.7" font-family="Tahoma" font-size="12" transform="rotate(90 1260,62447.7)" text-rendering="optimizeSpeed" fill="#000000">N/A (352767)</text>
  <rect fill="blue" height="62392.7" stroke="black" width="12" x="1275" y="50.0"/>
  <text x="1275" y="62447.7" font-family="Tahoma" font-size="12" transform="rotate(90 1275,62447.7)" text-rendering="optimizeSpeed" fill="#000000">Linux (amd64) (623927)</text>
  <text x="10" y="40" font-family="Tahoma" font-size="20" text-rendering="optimizeSpeed" fill="#000000">Nodes (total: 1240982)</text>
</svg>
