<svg xmlns="http://www.w3.org/2000/svg" version="1.1" preserveAspectRatio="xMidYMid meet" viewBox="0 0 485 51222.5">
  <rect fill="blue" height="0.0" stroke="black" width="12" x="15" y="50922.5"/>
  <text x="15" y="50927.5" font-family="Tahoma" font-size="12" transform="rotate(90 15,50927.5)" text-rendering="optimizeSpeed" fill="#000000">com-github-mjdetullio-jenkins-plugins-multibranch-IvyMultiBranchProject (1)</text>
  <rect fill="blue" height="0.0" stroke="black" width="12" x="30" y="50922.5"/>
  <text x="30" y="50927.5" font-family="Tahoma" font-size="12" transform="rotate(90 30,50927.5)" text-rendering="optimizeSpeed" fill="#000000">com-google-jenkins-plugins-dsl-YamlProject (1)</text>
  <rect fill="blue" height="0.0" stroke="black" width="12" x="45" y="50922.5"/>
  <text x="45" y="50927.5" font-family="Tahoma" font-size="12" transform="rotate(90 45,50927.5)" text-rendering="optimizeSpeed" fill="#000000">org-jenkinsci-plugins-updatebot-ImportGithubRepoProject (1)</text>
  <rect fill="blue" height="0.0" stroke="black" width="12" x="60" y="50922.5"/>
  <text x="60" y="50927.5" font-family="Tahoma" font-size="12" transform="rotate(90 60,50927.5)" text-rendering="optimizeSpeed" fill="#000000">hudson-plugins-customer-data-template-DependencyStyleProject (2)</text>
  <rect fill="blue" height="0.0" stroke="black" width="12" x="75" y="50922.5"/>
  <text x="75" y="50927.5" font-family="Tahoma" font-size="12" transform="rotate(90 75,50927.5)" text-rendering="optimizeSpeed" fill="#000000">org-jenkinsci-plugins-drupal-projects-DrupalProject (2)</text>
  <rect fill="blue" height="0.0" stroke="black" width="12" x="90" y="50922.5"/>
  <text x="90" y="50927.5" font-family="Tahoma" font-size="12" transform="rotate(90 90,50927.5)" text-rendering="optimizeSpeed" fill="#000000">org-jvnet-hudson-test-MockFolder (3)</text>
  <rect fill="blue" height="0.0" stroke="black" width="12" x="105" y="50922.5"/>
  <text x="105" y="50927.5" font-family="Tahoma" font-size="12" transform="rotate(90 105,50927.5)" text-rendering="optimizeSpeed" fill="#000000">hudson-plugins-customer-data-template-DataWarehouseStyleProject (5)</text>
  <rect fill="blue" height="0.0" stroke="black" width="12" x="120" y="50922.5"/>
  <text x="120" y="50927.5" font-family="Tahoma" font-size="12" transform="rotate(90 120,50927.5)" text-rendering="optimizeSpeed" fill="#000000">org-jvnet-hudson-plugins-ade-project-IfarmProject (11)</text>
  <rect fill="blue" height="0.0" stroke="black" width="12" x="135" y="50922.5"/>
  <text x="135" y="50927.5" font-family="Tahoma" font-size="12" transform="rotate(90 135,50927.5)" text-rendering="optimizeSpeed" fill="#000000">com-barchart-jenkins-cascade-CascadeProject (20)</text>
  <rect fill="blue" height="0.0" stroke="black" width="12" x="150" y="50922.5"/>
  <text x="150" y="50927.5" font-family="Tahoma" font-size="12" transform="rotate(90 150,50927.5)" text-rendering="optimizeSpeed" fill="#000000">com-github-mjdetullio-jenkins-plugins-multibranch-MatrixMultiBranchProject (29)</text>
  <rect fill="blue" height="0.1" stroke="black" width="12" x="165" y="50922.4"/>
  <text x="165" y="50927.5" font-family="Tahoma" font-size="12" transform="rotate(90 165,50927.5)" text-rendering="optimizeSpeed" fill="#000000">hudson-plugin-smartjob-SmartJob (70)</text>
  <rect fill="blue" height="0.1" stroke="black" width="12" x="180" y="50922.4"/>
  <text x="180" y="50927.5" font-family="Tahoma" font-size="12" transform="rotate(90 180,50927.5)" text-rendering="optimizeSpeed" fill="#000000">captmorgan-ExternalProject (136)</text>
  <rect fill="blue" height="0.3" stroke="black" width="12" x="195" y="50922.2"/>
  <text x="195" y="50927.5" font-family="Tahoma" font-size="12" transform="rotate(90 195,50927.5)" text-rendering="optimizeSpeed" fill="#000000">com-github-mjdetullio-jenkins-plugins-multibranch-MavenMultiBranchProject (287)</text>
  <rect fill="blue" height="0.6" stroke="black" width="12" x="210" y="50921.9"/>
  <text x="210" y="50927.5" font-family="Tahoma" font-size="12" transform="rotate(90 210,50927.5)" text-rendering="optimizeSpeed" fill="#000000">org-jenkinsci-plugins-coordinator-model-CoordinatorProject (550)</text>
  <rect fill="blue" height="0.6" stroke="black" width="12" x="225" y="50921.9"/>
  <text x="225" y="50927.5" font-family="Tahoma" font-size="12" transform="rotate(90 225,50927.5)" text-rendering="optimizeSpeed" fill="#000000">com-github-mjdetullio-jenkins-plugins-multibranch-FreeStyleMultiBranchProject (597)</text>
  <rect fill="blue" height="1.1" stroke="black" width="12" x="240" y="50921.4"/>
  <text x="240" y="50927.5" font-family="Tahoma" font-size="12" transform="rotate(90 240,50927.5)" text-rendering="optimizeSpeed" fill="#000000">org-jenkinsci-plugins-jobgenerator-JobGenerator (1079)</text>
  <rect fill="blue" height="2.0" stroke="black" width="12" x="255" y="50920.5"/>
  <text x="255" y="50927.5" font-family="Tahoma" font-size="12" transform="rotate(90 255,50927.5)" text-rendering="optimizeSpeed" fill="#000000">hudson-ivy-IvyModuleSet (1969)</text>
  <rect fill="blue" height="5.3" stroke="black" width="12" x="270" y="50917.2"/>
  <text x="270" y="50927.5" font-family="Tahoma" font-size="12" transform="rotate(90 270,50927.5)" text-rendering="optimizeSpeed" fill="#000000">hudson-model-ExternalJob (5332)</text>
  <rect fill="blue" height="10.5" stroke="black" width="12" x="285" y="50912.0"/>
  <text x="285" y="50927.5" font-family="Tahoma" font-size="12" transform="rotate(90 285,50927.5)" text-rendering="optimizeSpeed" fill="#000000">hudson-plugins-project_inheritance-projects-InheritanceProject (10491)</text>
  <rect fill="blue" height="12.4" stroke="black" width="12" x="300" y="50910.1"/>
  <text x="300" y="50927.5" font-family="Tahoma" font-size="12" transform="rotate(90 300,50927.5)" text-rendering="optimizeSpeed" fill="#000000">org-jenkinsci-plugins-pipeline-multibranch-defaults-PipelineMultiBranchDefaultsProject (12379)</text>
  <rect fill="blue" height="17.1" stroke="black" width="12" x="315" y="50905.4"/>
  <text x="315" y="50927.5" font-family="Tahoma" font-size="12" transform="rotate(90 315,50927.5)" text-rendering="optimizeSpeed" fill="#000000">com-cloudbees-plugins-flow-BuildFlow (17121)</text>
  <rect fill="blue" height="53.5" stroke="black" width="12" x="330" y="50868.9"/>
  <text x="330" y="50927.5" font-family="Tahoma" font-size="12" transform="rotate(90 330,50927.5)" text-rendering="optimizeSpeed" fill="#000000">jenkins-branch-OrganizationFolder (53549)</text>
  <rect fill="blue" height="228.2" stroke="black" width="12" x="345" y="50694.3"/>
  <text x="345" y="50927.5" font-family="Tahoma" font-size="12" transform="rotate(90 345,50927.5)" text-rendering="optimizeSpeed" fill="#000000">hudson-matrix-MatrixProject (228225)</text>
  <rect fill="blue" height="707.5" stroke="black" width="12" x="360" y="50215.0"/>
  <text x="360" y="50927.5" font-family="Tahoma" font-size="12" transform="rotate(90 360,50927.5)" text-rendering="optimizeSpeed" fill="#000000">com-tikal-jenkins-plugins-multijob-MultiJobProject (707496)</text>
  <rect fill="blue" height="1911.8" stroke="black" width="12" x="375" y="49010.7"/>
  <text x="375" y="50927.5" font-family="Tahoma" font-size="12" transform="rotate(90 375,50927.5)" text-rendering="optimizeSpeed" fill="#000000">org-jenkinsci-plugins-workflow-multibranch-WorkflowMultiBranchProject (1911786)</text>
  <rect fill="blue" height="2032.5" stroke="black" width="12" x="390" y="48890.0"/>
  <text x="390" y="50927.5" font-family="Tahoma" font-size="12" transform="rotate(90 390,50927.5)" text-rendering="optimizeSpeed" fill="#000000">hudson-maven-MavenModuleSet (2032489)</text>
  <rect fill="blue" height="2758.2" stroke="black" width="12" x="405" y="48164.3"/>
  <text x="405" y="50927.5" font-family="Tahoma" font-size="12" transform="rotate(90 405,50927.5)" text-rendering="optimizeSpeed" fill="#000000">com-cloudbees-hudson-plugins-folder-Folder (2758153)</text>
  <rect fill="blue" height="18565.9" stroke="black" width="12" x="420" y="32356.6"/>
  <text x="420" y="50927.5" font-family="Tahoma" font-size="12" transform="rotate(90 420,50927.5)" text-rendering="optimizeSpeed" fill="#000000">hudson-model-FreeStyleProject (18565869)</text>
  <rect fill="blue" height="50872.5" stroke="black" width="12" x="435" y="50.0"/>
  <text x="435" y="50927.5" font-family="Tahoma" font-size="12" transform="rotate(90 435,50927.5)" text-rendering="optimizeSpeed" fill="#000000">org-jenkinsci-plugins-workflow-job-WorkflowJob (50872490)</text>
  <text x="10" y="40" font-family="Tahoma" font-size="20" text-rendering="optimizeSpeed" fill="#000000">Jobs (total: 77180143)</text>
</svg>
