<svg xmlns="http://www.w3.org/2000/svg" version="1.1" preserveAspectRatio="xMidYMid meet" viewBox="0 0 530 49260.8">
  <rect fill="blue" height="0.0" stroke="black" width="12" x="15" y="48960.8"/>
  <text x="15" y="48965.8" font-family="Tahoma" font-size="12" transform="rotate(90 15,48965.8)" text-rendering="optimizeSpeed" fill="#000000">com-google-jenkins-plugins-dsl-YamlProject (1)</text>
  <rect fill="blue" height="0.0" stroke="black" width="12" x="30" y="48960.8"/>
  <text x="30" y="48965.8" font-family="Tahoma" font-size="12" transform="rotate(90 30,48965.8)" text-rendering="optimizeSpeed" fill="#000000">org-jenkinsci-plugins-updatebot-ImportGithubRepoProject (1)</text>
  <rect fill="blue" height="0.0" stroke="black" width="12" x="45" y="48960.8"/>
  <text x="45" y="48965.8" font-family="Tahoma" font-size="12" transform="rotate(90 45,48965.8)" text-rendering="optimizeSpeed" fill="#000000">com-github-mjdetullio-jenkins-plugins-multibranch-IvyMultiBranchProject (2)</text>
  <rect fill="blue" height="0.0" stroke="black" width="12" x="60" y="48960.8"/>
  <text x="60" y="48965.8" font-family="Tahoma" font-size="12" transform="rotate(90 60,48965.8)" text-rendering="optimizeSpeed" fill="#000000">hudson-plugins-customer-data-template-DependencyStyleProject (2)</text>
  <rect fill="blue" height="0.0" stroke="black" width="12" x="75" y="48960.8"/>
  <text x="75" y="48965.8" font-family="Tahoma" font-size="12" transform="rotate(90 75,48965.8)" text-rendering="optimizeSpeed" fill="#000000">org-jenkinsci-plugins-jobexecutors-toplevelitems-StoreVersion (2)</text>
  <rect fill="blue" height="0.0" stroke="black" width="12" x="90" y="48960.8"/>
  <text x="90" y="48965.8" font-family="Tahoma" font-size="12" transform="rotate(90 90,48965.8)" text-rendering="optimizeSpeed" fill="#000000">org-jenkinsci-plugins-drupal-projects-DrupalProject (3)</text>
  <rect fill="blue" height="0.0" stroke="black" width="12" x="105" y="48960.8"/>
  <text x="105" y="48965.8" font-family="Tahoma" font-size="12" transform="rotate(90 105,48965.8)" text-rendering="optimizeSpeed" fill="#000000">org-jvnet-hudson-test-MockFolder (3)</text>
  <rect fill="blue" height="0.0" stroke="black" width="12" x="120" y="48960.8"/>
  <text x="120" y="48965.8" font-family="Tahoma" font-size="12" transform="rotate(90 120,48965.8)" text-rendering="optimizeSpeed" fill="#000000">hudson-plugins-customer-data-template-DataWarehouseStyleProject (5)</text>
  <rect fill="blue" height="0.0" stroke="black" width="12" x="135" y="48960.8"/>
  <text x="135" y="48965.8" font-family="Tahoma" font-size="12" transform="rotate(90 135,48965.8)" text-rendering="optimizeSpeed" fill="#000000">org-jenkinsci-plugins-jobexecutors-toplevelitems-PortalNotifier (5)</text>
  <rect fill="blue" height="0.0" stroke="black" width="12" x="150" y="48960.8"/>
  <text x="150" y="48965.8" font-family="Tahoma" font-size="12" transform="rotate(90 150,48965.8)" text-rendering="optimizeSpeed" fill="#000000">org-jenkinsci-plugins-pipeline-multibranch-defaults-git-PipelineMultiBranchDefaultsGitProject (5)</text>
  <rect fill="blue" height="0.0" stroke="black" width="12" x="165" y="48960.8"/>
  <text x="165" y="48965.8" font-family="Tahoma" font-size="12" transform="rotate(90 165,48965.8)" text-rendering="optimizeSpeed" fill="#000000">com-barchart-jenkins-cascade-CascadeProject (18)</text>
  <rect fill="blue" height="0.0" stroke="black" width="12" x="180" y="48960.8"/>
  <text x="180" y="48965.8" font-family="Tahoma" font-size="12" transform="rotate(90 180,48965.8)" text-rendering="optimizeSpeed" fill="#000000">org-jvnet-hudson-plugins-ade-project-IfarmProject (20)</text>
  <rect fill="blue" height="0.0" stroke="black" width="12" x="195" y="48960.7"/>
  <text x="195" y="48965.8" font-family="Tahoma" font-size="12" transform="rotate(90 195,48965.8)" text-rendering="optimizeSpeed" fill="#000000">com-github-mjdetullio-jenkins-plugins-multibranch-MatrixMultiBranchProject (29)</text>
  <rect fill="blue" height="0.1" stroke="black" width="12" x="210" y="48960.7"/>
  <text x="210" y="48965.8" font-family="Tahoma" font-size="12" transform="rotate(90 210,48965.8)" text-rendering="optimizeSpeed" fill="#000000">hudson-plugin-smartjob-SmartJob (64)</text>
  <rect fill="blue" height="0.1" stroke="black" width="12" x="225" y="48960.6"/>
  <text x="225" y="48965.8" font-family="Tahoma" font-size="12" transform="rotate(90 225,48965.8)" text-rendering="optimizeSpeed" fill="#000000">captmorgan-ExternalProject (135)</text>
  <rect fill="blue" height="0.3" stroke="black" width="12" x="240" y="48960.5"/>
  <text x="240" y="48965.8" font-family="Tahoma" font-size="12" transform="rotate(90 240,48965.8)" text-rendering="optimizeSpeed" fill="#000000">com-github-mjdetullio-jenkins-plugins-multibranch-MavenMultiBranchProject (273)</text>
  <rect fill="blue" height="0.5" stroke="black" width="12" x="255" y="48960.2"/>
  <text x="255" y="48965.8" font-family="Tahoma" font-size="12" transform="rotate(90 255,48965.8)" text-rendering="optimizeSpeed" fill="#000000">org-jenkinsci-plugins-coordinator-model-CoordinatorProject (522)</text>
  <rect fill="blue" height="0.7" stroke="black" width="12" x="270" y="48960.1"/>
  <text x="270" y="48965.8" font-family="Tahoma" font-size="12" transform="rotate(90 270,48965.8)" text-rendering="optimizeSpeed" fill="#000000">com-github-mjdetullio-jenkins-plugins-multibranch-FreeStyleMultiBranchProject (669)</text>
  <rect fill="blue" height="1.1" stroke="black" width="12" x="285" y="48959.7"/>
  <text x="285" y="48965.8" font-family="Tahoma" font-size="12" transform="rotate(90 285,48965.8)" text-rendering="optimizeSpeed" fill="#000000">org-jenkinsci-plugins-jobgenerator-JobGenerator (1088)</text>
  <rect fill="blue" height="2.8" stroke="black" width="12" x="300" y="48958.0"/>
  <text x="300" y="48965.8" font-family="Tahoma" font-size="12" transform="rotate(90 300,48965.8)" text-rendering="optimizeSpeed" fill="#000000">hudson-ivy-IvyModuleSet (2785)</text>
  <rect fill="blue" height="5.5" stroke="black" width="12" x="315" y="48955.3"/>
  <text x="315" y="48965.8" font-family="Tahoma" font-size="12" transform="rotate(90 315,48965.8)" text-rendering="optimizeSpeed" fill="#000000">hudson-model-ExternalJob (5477)</text>
  <rect fill="blue" height="9.4" stroke="black" width="12" x="330" y="48951.4"/>
  <text x="330" y="48965.8" font-family="Tahoma" font-size="12" transform="rotate(90 330,48965.8)" text-rendering="optimizeSpeed" fill="#000000">hudson-plugins-project_inheritance-projects-InheritanceProject (9389)</text>
  <rect fill="blue" height="12.5" stroke="black" width="12" x="345" y="48948.3"/>
  <text x="345" y="48965.8" font-family="Tahoma" font-size="12" transform="rotate(90 345,48965.8)" text-rendering="optimizeSpeed" fill="#000000">org-jenkinsci-plugins-pipeline-multibranch-defaults-PipelineMultiBranchDefaultsProject (12487)</text>
  <rect fill="blue" height="19.0" stroke="black" width="12" x="360" y="48941.8"/>
  <text x="360" y="48965.8" font-family="Tahoma" font-size="12" transform="rotate(90 360,48965.8)" text-rendering="optimizeSpeed" fill="#000000">com-cloudbees-plugins-flow-BuildFlow (18978)</text>
  <rect fill="blue" height="54.6" stroke="black" width="12" x="375" y="48906.2"/>
  <text x="375" y="48965.8" font-family="Tahoma" font-size="12" transform="rotate(90 375,48965.8)" text-rendering="optimizeSpeed" fill="#000000">jenkins-branch-OrganizationFolder (54605)</text>
  <rect fill="blue" height="246.5" stroke="black" width="12" x="390" y="48714.3"/>
  <text x="390" y="48965.8" font-family="Tahoma" font-size="12" transform="rotate(90 390,48965.8)" text-rendering="optimizeSpeed" fill="#000000">hudson-matrix-MatrixProject (246457)</text>
  <rect fill="blue" height="785.4" stroke="black" width="12" x="405" y="48175.3"/>
  <text x="405" y="48965.8" font-family="Tahoma" font-size="12" transform="rotate(90 405,48965.8)" text-rendering="optimizeSpeed" fill="#000000">com-tikal-jenkins-plugins-multijob-MultiJobProject (785429)</text>
  <rect fill="blue" height="1929.9" stroke="black" width="12" x="420" y="47030.9"/>
  <text x="420" y="48965.8" font-family="Tahoma" font-size="12" transform="rotate(90 420,48965.8)" text-rendering="optimizeSpeed" fill="#000000">org-jenkinsci-plugins-workflow-multibranch-WorkflowMultiBranchProject (1929905)</text>
  <rect fill="blue" height="2100.5" stroke="black" width="12" x="435" y="46860.2"/>
  <text x="435" y="48965.8" font-family="Tahoma" font-size="12" transform="rotate(90 435,48965.8)" text-rendering="optimizeSpeed" fill="#000000">hudson-maven-MavenModuleSet (2100521)</text>
  <rect fill="blue" height="3073.3" stroke="black" width="12" x="450" y="45887.4"/>
  <text x="450" y="48965.8" font-family="Tahoma" font-size="12" transform="rotate(90 450,48965.8)" text-rendering="optimizeSpeed" fill="#000000">com-cloudbees-hudson-plugins-folder-Folder (3073342)</text>
  <rect fill="blue" height="19543.7" stroke="black" width="12" x="465" y="29417.1"/>
  <text x="465" y="48965.8" font-family="Tahoma" font-size="12" transform="rotate(90 465,48965.8)" text-rendering="optimizeSpeed" fill="#000000">hudson-model-FreeStyleProject (19543693)</text>
  <rect fill="blue" height="48910.8" stroke="black" width="12" x="480" y="50.0"/>
  <text x="480" y="48965.8" font-family="Tahoma" font-size="12" transform="rotate(90 480,48965.8)" text-rendering="optimizeSpeed" fill="#000000">org-jenkinsci-plugins-workflow-job-WorkflowJob (48910766)</text>
  <text x="10" y="40" font-family="Tahoma" font-size="20" text-rendering="optimizeSpeed" fill="#000000">Jobs (total: 76696681)</text>
</svg>
