<svg xmlns="http://www.w3.org/2000/svg" version="1.1" preserveAspectRatio="xMidYMid meet" viewBox="0 0 515 41738.9">
  <rect fill="blue" height="0.0" stroke="black" width="12" x="15" y="41438.9"/>
  <text x="15" y="41443.9" font-family="Tahoma" font-size="12" transform="rotate(90 15,41443.9)" text-rendering="optimizeSpeed" fill="#000000">com-google-jenkins-plugins-dsl-YamlProject (1)</text>
  <rect fill="blue" height="0.0" stroke="black" width="12" x="30" y="41438.9"/>
  <text x="30" y="41443.9" font-family="Tahoma" font-size="12" transform="rotate(90 30,41443.9)" text-rendering="optimizeSpeed" fill="#000000">org-jenkinsci-plugins-flyweightproject-FlyweightProject (1)</text>
  <rect fill="blue" height="0.0" stroke="black" width="12" x="45" y="41438.9"/>
  <text x="45" y="41443.9" font-family="Tahoma" font-size="12" transform="rotate(90 45,41443.9)" text-rendering="optimizeSpeed" fill="#000000">org-jenkinsci-plugins-updatebot-ImportGithubRepoProject (1)</text>
  <rect fill="blue" height="0.0" stroke="black" width="12" x="60" y="41438.9"/>
  <text x="60" y="41443.9" font-family="Tahoma" font-size="12" transform="rotate(90 60,41443.9)" text-rendering="optimizeSpeed" fill="#000000">hudson-plugins-customer-data-template-DependencyStyleProject (2)</text>
  <rect fill="blue" height="0.0" stroke="black" width="12" x="75" y="41438.9"/>
  <text x="75" y="41443.9" font-family="Tahoma" font-size="12" transform="rotate(90 75,41443.9)" text-rendering="optimizeSpeed" fill="#000000">com-github-mjdetullio-jenkins-plugins-multibranch-IvyMultiBranchProject (3)</text>
  <rect fill="blue" height="0.0" stroke="black" width="12" x="90" y="41438.9"/>
  <text x="90" y="41443.9" font-family="Tahoma" font-size="12" transform="rotate(90 90,41443.9)" text-rendering="optimizeSpeed" fill="#000000">org-jenkinsci-plugins-spoontrigger-SpoonProject (3)</text>
  <rect fill="blue" height="0.0" stroke="black" width="12" x="105" y="41438.9"/>
  <text x="105" y="41443.9" font-family="Tahoma" font-size="12" transform="rotate(90 105,41443.9)" text-rendering="optimizeSpeed" fill="#000000">org-jvnet-hudson-test-MockFolder (3)</text>
  <rect fill="blue" height="0.0" stroke="black" width="12" x="120" y="41438.9"/>
  <text x="120" y="41443.9" font-family="Tahoma" font-size="12" transform="rotate(90 120,41443.9)" text-rendering="optimizeSpeed" fill="#000000">hudson-plugins-customer-data-template-DataWarehouseStyleProject (4)</text>
  <rect fill="blue" height="0.0" stroke="black" width="12" x="135" y="41438.9"/>
  <text x="135" y="41443.9" font-family="Tahoma" font-size="12" transform="rotate(90 135,41443.9)" text-rendering="optimizeSpeed" fill="#000000">org-jenkinsci-plugins-drupal-projects-DrupalProject (5)</text>
  <rect fill="blue" height="0.0" stroke="black" width="12" x="150" y="41438.9"/>
  <text x="150" y="41443.9" font-family="Tahoma" font-size="12" transform="rotate(90 150,41443.9)" text-rendering="optimizeSpeed" fill="#000000">org-jenkinsci-plugins-pipeline-multibranch-defaults-git-PipelineMultiBranchDefaultsGitProject (5)</text>
  <rect fill="blue" height="0.0" stroke="black" width="12" x="165" y="41438.9"/>
  <text x="165" y="41443.9" font-family="Tahoma" font-size="12" transform="rotate(90 165,41443.9)" text-rendering="optimizeSpeed" fill="#000000">com-barchart-jenkins-cascade-CascadeProject (17)</text>
  <rect fill="blue" height="0.1" stroke="black" width="12" x="180" y="41438.9"/>
  <text x="180" y="41443.9" font-family="Tahoma" font-size="12" transform="rotate(90 180,41443.9)" text-rendering="optimizeSpeed" fill="#000000">com-github-mjdetullio-jenkins-plugins-multibranch-MatrixMultiBranchProject (66)</text>
  <rect fill="blue" height="0.1" stroke="black" width="12" x="195" y="41438.9"/>
  <text x="195" y="41443.9" font-family="Tahoma" font-size="12" transform="rotate(90 195,41443.9)" text-rendering="optimizeSpeed" fill="#000000">hudson-plugin-smartjob-SmartJob (78)</text>
  <rect fill="blue" height="0.1" stroke="black" width="12" x="210" y="41438.8"/>
  <text x="210" y="41443.9" font-family="Tahoma" font-size="12" transform="rotate(90 210,41443.9)" text-rendering="optimizeSpeed" fill="#000000">captmorgan-ExternalProject (124)</text>
  <rect fill="blue" height="0.5" stroke="black" width="12" x="225" y="41438.5"/>
  <text x="225" y="41443.9" font-family="Tahoma" font-size="12" transform="rotate(90 225,41443.9)" text-rendering="optimizeSpeed" fill="#000000">org-jenkinsci-plugins-coordinator-model-CoordinatorProject (490)</text>
  <rect fill="blue" height="1.0" stroke="black" width="12" x="240" y="41438.0"/>
  <text x="240" y="41443.9" font-family="Tahoma" font-size="12" transform="rotate(90 240,41443.9)" text-rendering="optimizeSpeed" fill="#000000">com-github-mjdetullio-jenkins-plugins-multibranch-FreeStyleMultiBranchProject (979)</text>
  <rect fill="blue" height="1.4" stroke="black" width="12" x="255" y="41437.6"/>
  <text x="255" y="41443.9" font-family="Tahoma" font-size="12" transform="rotate(90 255,41443.9)" text-rendering="optimizeSpeed" fill="#000000">org-jenkinsci-plugins-jobgenerator-JobGenerator (1387)</text>
  <rect fill="blue" height="2.7" stroke="black" width="12" x="270" y="41436.3"/>
  <text x="270" y="41443.9" font-family="Tahoma" font-size="12" transform="rotate(90 270,41443.9)" text-rendering="optimizeSpeed" fill="#000000">hudson-ivy-IvyModuleSet (2676)</text>
  <rect fill="blue" height="6.2" stroke="black" width="12" x="285" y="41432.7"/>
  <text x="285" y="41443.9" font-family="Tahoma" font-size="12" transform="rotate(90 285,41443.9)" text-rendering="optimizeSpeed" fill="#000000">hudson-model-ExternalJob (6209)</text>
  <rect fill="blue" height="6.6" stroke="black" width="12" x="300" y="41432.3"/>
  <text x="300" y="41443.9" font-family="Tahoma" font-size="12" transform="rotate(90 300,41443.9)" text-rendering="optimizeSpeed" fill="#000000">com-github-mjdetullio-jenkins-plugins-multibranch-MavenMultiBranchProject (6624)</text>
  <rect fill="blue" height="10.7" stroke="black" width="12" x="315" y="41428.2"/>
  <text x="315" y="41443.9" font-family="Tahoma" font-size="12" transform="rotate(90 315,41443.9)" text-rendering="optimizeSpeed" fill="#000000">hudson-plugins-project_inheritance-projects-InheritanceProject (10748)</text>
  <rect fill="blue" height="21.1" stroke="black" width="12" x="330" y="41417.8"/>
  <text x="330" y="41443.9" font-family="Tahoma" font-size="12" transform="rotate(90 330,41443.9)" text-rendering="optimizeSpeed" fill="#000000">com-cloudbees-plugins-flow-BuildFlow (21102)</text>
  <rect fill="blue" height="32.0" stroke="black" width="12" x="345" y="41406.9"/>
  <text x="345" y="41443.9" font-family="Tahoma" font-size="12" transform="rotate(90 345,41443.9)" text-rendering="optimizeSpeed" fill="#000000">org-jenkinsci-plugins-pipeline-multibranch-defaults-PipelineMultiBranchDefaultsProject (32001)</text>
  <rect fill="blue" height="56.0" stroke="black" width="12" x="360" y="41382.9"/>
  <text x="360" y="41443.9" font-family="Tahoma" font-size="12" transform="rotate(90 360,41443.9)" text-rendering="optimizeSpeed" fill="#000000">jenkins-branch-OrganizationFolder (56024)</text>
  <rect fill="blue" height="253.0" stroke="black" width="12" x="375" y="41185.9"/>
  <text x="375" y="41443.9" font-family="Tahoma" font-size="12" transform="rotate(90 375,41443.9)" text-rendering="optimizeSpeed" fill="#000000">hudson-matrix-MatrixProject (253013)</text>
  <rect fill="blue" height="903.7" stroke="black" width="12" x="390" y="40535.3"/>
  <text x="390" y="41443.9" font-family="Tahoma" font-size="12" transform="rotate(90 390,41443.9)" text-rendering="optimizeSpeed" fill="#000000">com-tikal-jenkins-plugins-multijob-MultiJobProject (903662)</text>
  <rect fill="blue" height="1836.2" stroke="black" width="12" x="405" y="39602.7"/>
  <text x="405" y="41443.9" font-family="Tahoma" font-size="12" transform="rotate(90 405,41443.9)" text-rendering="optimizeSpeed" fill="#000000">org-jenkinsci-plugins-workflow-multibranch-WorkflowMultiBranchProject (1836239)</text>
  <rect fill="blue" height="2307.2" stroke="black" width="12" x="420" y="39131.7"/>
  <text x="420" y="41443.9" font-family="Tahoma" font-size="12" transform="rotate(90 420,41443.9)" text-rendering="optimizeSpeed" fill="#000000">hudson-maven-MavenModuleSet (2307213)</text>
  <rect fill="blue" height="2662.1" stroke="black" width="12" x="435" y="38776.9"/>
  <text x="435" y="41443.9" font-family="Tahoma" font-size="12" transform="rotate(90 435,41443.9)" text-rendering="optimizeSpeed" fill="#000000">com-cloudbees-hudson-plugins-folder-Folder (2662092)</text>
  <rect fill="blue" height="19984.3" stroke="black" width="12" x="450" y="21454.7"/>
  <text x="450" y="41443.9" font-family="Tahoma" font-size="12" transform="rotate(90 450,41443.9)" text-rendering="optimizeSpeed" fill="#000000">hudson-model-FreeStyleProject (19984261)</text>
  <rect fill="blue" height="41388.9" stroke="black" width="12" x="465" y="50.0"/>
  <text x="465" y="41443.9" font-family="Tahoma" font-size="12" transform="rotate(90 465,41443.9)" text-rendering="optimizeSpeed" fill="#000000">org-jenkinsci-plugins-workflow-job-WorkflowJob (41388944)</text>
  <text x="10" y="40" font-family="Tahoma" font-size="20" text-rendering="optimizeSpeed" fill="#000000">Jobs (total: 69473977)</text>
</svg>
