<svg xmlns="http://www.w3.org/2000/svg" version="1.1" preserveAspectRatio="xMidYMid meet" viewBox="0 0 1265 64301.9">
  <rect fill="blue" height="0.1" stroke="black" width="12" x="15" y="64001.8"/>
  <text x="15" y="64006.9" font-family="Tahoma" font-size="12" transform="rotate(90 15,64006.9)" text-rendering="optimizeSpeed" fill="#000000">DragonFlyBSD (amd64) (1)</text>
  <rect fill="blue" height="0.1" stroke="black" width="12" x="30" y="64001.8"/>
  <text x="30" y="64006.9" font-family="Tahoma" font-size="12" transform="rotate(90 30,64006.9)" text-rendering="optimizeSpeed" fill="#000000">HP-UX (PA_RISC2.0W) (1)</text>
  <rect fill="blue" height="0.1" stroke="black" width="12" x="45" y="64001.8"/>
  <text x="45" y="64006.9" font-family="Tahoma" font-size="12" transform="rotate(90 45,64006.9)" text-rendering="optimizeSpeed" fill="#000000">Linux (s390) (1)</text>
  <rect fill="blue" height="0.1" stroke="black" width="12" x="60" y="64001.8"/>
  <text x="60" y="64006.9" font-family="Tahoma" font-size="12" transform="rotate(90 60,64006.9)" text-rendering="optimizeSpeed" fill="#000000">Linux (sparcv9) (1)</text>
  <rect fill="blue" height="0.1" stroke="black" width="12" x="75" y="64001.8"/>
  <text x="75" y="64006.9" font-family="Tahoma" font-size="12" transform="rotate(90 75,64006.9)" text-rendering="optimizeSpeed" fill="#000000">Linux (x86_64) (1)</text>
  <rect fill="blue" height="0.1" stroke="black" width="12" x="90" y="64001.8"/>
  <text x="90" y="64006.9" font-family="Tahoma" font-size="12" transform="rotate(90 90,64006.9)" text-rendering="optimizeSpeed" fill="#000000">Linux (zArch_64) (1)</text>
  <rect fill="blue" height="0.1" stroke="black" width="12" x="105" y="64001.8"/>
  <text x="105" y="64006.9" font-family="Tahoma" font-size="12" transform="rotate(90 105,64006.9)" text-rendering="optimizeSpeed" fill="#000000">NetBSD (i386) (1)</text>
  <rect fill="blue" height="0.1" stroke="black" width="12" x="120" y="64001.8"/>
  <text x="120" y="64006.9" font-family="Tahoma" font-size="12" transform="rotate(90 120,64006.9)" text-rendering="optimizeSpeed" fill="#000000">Windows 10 (aarch64) (1)</text>
  <rect fill="blue" height="0.2" stroke="black" width="12" x="135" y="64001.7"/>
  <text x="135" y="64006.9" font-family="Tahoma" font-size="12" transform="rotate(90 135,64006.9)" text-rendering="optimizeSpeed" fill="#000000">Windows Vista (amd64) (2)</text>
  <rect fill="blue" height="0.2" stroke="black" width="12" x="150" y="64001.7"/>
  <text x="150" y="64006.9" font-family="Tahoma" font-size="12" transform="rotate(90 150,64006.9)" text-rendering="optimizeSpeed" fill="#000000">Windows XP (amd64) (2)</text>
  <rect fill="blue" height="0.3" stroke="black" width="12" x="165" y="64001.6"/>
  <text x="165" y="64006.9" font-family="Tahoma" font-size="12" transform="rotate(90 165,64006.9)" text-rendering="optimizeSpeed" fill="#000000">NetBSD (amd64) (3)</text>
  <rect fill="blue" height="0.4" stroke="black" width="12" x="180" y="64001.5"/>
  <text x="180" y="64006.9" font-family="Tahoma" font-size="12" transform="rotate(90 180,64006.9)" text-rendering="optimizeSpeed" fill="#000000">Windows Server 2016 Standard (amd64) (4)</text>
  <rect fill="blue" height="0.5" stroke="black" width="12" x="195" y="64001.4"/>
  <text x="195" y="64006.9" font-family="Tahoma" font-size="12" transform="rotate(90 195,64006.9)" text-rendering="optimizeSpeed" fill="#000000">FreeBSD (aarch64) (5)</text>
  <rect fill="blue" height="0.5" stroke="black" width="12" x="210" y="64001.4"/>
  <text x="210" y="64006.9" font-family="Tahoma" font-size="12" transform="rotate(90 210,64006.9)" text-rendering="optimizeSpeed" fill="#000000">HP-UX (ia64) (5)</text>
  <rect fill="blue" height="0.5" stroke="black" width="12" x="225" y="64001.4"/>
  <text x="225" y="64006.9" font-family="Tahoma" font-size="12" transform="rotate(90 225,64006.9)" text-rendering="optimizeSpeed" fill="#000000">Linux (e2k) (5)</text>
  <rect fill="blue" height="0.6" stroke="black" width="12" x="240" y="64001.3"/>
  <text x="240" y="64006.9" font-family="Tahoma" font-size="12" transform="rotate(90 240,64006.9)" text-rendering="optimizeSpeed" fill="#000000">NONSTOP_KERNEL (IA64N) (6)</text>
  <rect fill="blue" height="0.6" stroke="black" width="12" x="255" y="64001.3"/>
  <text x="255" y="64006.9" font-family="Tahoma" font-size="12" transform="rotate(90 255,64006.9)" text-rendering="optimizeSpeed" fill="#000000">OS/400 (ppc) (6)</text>
  <rect fill="blue" height="0.8" stroke="black" width="12" x="270" y="64001.1"/>
  <text x="270" y="64006.9" font-family="Tahoma" font-size="12" transform="rotate(90 270,64006.9)" text-rendering="optimizeSpeed" fill="#000000">Windows 11 (aarch64) (8)</text>
  <rect fill="blue" height="1.1" stroke="black" width="12" x="285" y="64000.8"/>
  <text x="285" y="64006.9" font-family="Tahoma" font-size="12" transform="rotate(90 285,64006.9)" text-rendering="optimizeSpeed" fill="#000000">HP-UX (PA_RISC2.0) (11)</text>
  <rect fill="blue" height="1.1" stroke="black" width="12" x="300" y="64000.8"/>
  <text x="300" y="64006.9" font-family="Tahoma" font-size="12" transform="rotate(90 300,64006.9)" text-rendering="optimizeSpeed" fill="#000000">Linux (ppc) (11)</text>
  <rect fill="blue" height="1.2" stroke="black" width="12" x="315" y="64000.7"/>
  <text x="315" y="64006.9" font-family="Tahoma" font-size="12" transform="rotate(90 315,64006.9)" text-rendering="optimizeSpeed" fill="#000000">NONSTOP_KERNEL (x86_64N) (12)</text>
  <rect fill="blue" height="1.2" stroke="black" width="12" x="330" y="64000.7"/>
  <text x="330" y="64006.9" font-family="Tahoma" font-size="12" transform="rotate(90 330,64006.9)" text-rendering="optimizeSpeed" fill="#000000">OS400 (ppc64) (12)</text>
  <rect fill="blue" height="1.4" stroke="black" width="12" x="345" y="64000.5"/>
  <text x="345" y="64006.9" font-family="Tahoma" font-size="12" transform="rotate(90 345,64006.9)" text-rendering="optimizeSpeed" fill="#000000">Linux (sw64) (14)</text>
  <rect fill="blue" height="2.0" stroke="black" width="12" x="360" y="63999.9"/>
  <text x="360" y="64006.9" font-family="Tahoma" font-size="12" transform="rotate(90 360,64006.9)" text-rendering="optimizeSpeed" fill="#000000">Windows 2003 (amd64) (20)</text>
  <rect fill="blue" height="2.1" stroke="black" width="12" x="375" y="63999.8"/>
  <text x="375" y="64006.9" font-family="Tahoma" font-size="12" transform="rotate(90 375,64006.9)" text-rendering="optimizeSpeed" fill="#000000">OpenBSD (amd64) (21)</text>
  <rect fill="blue" height="2.2" stroke="black" width="12" x="390" y="63999.7"/>
  <text x="390" y="64006.9" font-family="Tahoma" font-size="12" transform="rotate(90 390,64006.9)" text-rendering="optimizeSpeed" fill="#000000">Linux (x86) (22)</text>
  <rect fill="blue" height="3.0" stroke="black" width="12" x="405" y="63998.9"/>
  <text x="405" y="64006.9" font-family="Tahoma" font-size="12" transform="rotate(90 405,64006.9)" text-rendering="optimizeSpeed" fill="#000000">FreeBSD (i386) (30)</text>
  <rect fill="blue" height="3.2" stroke="black" width="12" x="420" y="63998.7"/>
  <text x="420" y="64006.9" font-family="Tahoma" font-size="12" transform="rotate(90 420,64006.9)" text-rendering="optimizeSpeed" fill="#000000">Windows Server version 2009 (amd64) (32)</text>
  <rect fill="blue" height="4.1" stroke="black" width="12" x="435" y="63997.8"/>
  <text x="435" y="64006.9" font-family="Tahoma" font-size="12" transform="rotate(90 435,64006.9)" text-rendering="optimizeSpeed" fill="#000000">Windows 8 (x86) (41)</text>
  <rect fill="blue" height="4.2" stroke="black" width="12" x="450" y="63997.7"/>
  <text x="450" y="64006.9" font-family="Tahoma" font-size="12" transform="rotate(90 450,64006.9)" text-rendering="optimizeSpeed" fill="#000000">HP-UX (IA64W) (42)</text>
  <rect fill="blue" height="4.2" stroke="black" width="12" x="465" y="63997.7"/>
  <text x="465" y="64006.9" font-family="Tahoma" font-size="12" transform="rotate(90 465,64006.9)" text-rendering="optimizeSpeed" fill="#000000">Linux (mips64el) (42)</text>
  <rect fill="blue" height="4.4" stroke="black" width="12" x="480" y="63997.5"/>
  <text x="480" y="64006.9" font-family="Tahoma" font-size="12" transform="rotate(90 480,64006.9)" text-rendering="optimizeSpeed" fill="#000000">Linux (riscv64) (44)</text>
  <rect fill="blue" height="4.8" stroke="black" width="12" x="495" y="63997.1"/>
  <text x="495" y="64006.9" font-family="Tahoma" font-size="12" transform="rotate(90 495,64006.9)" text-rendering="optimizeSpeed" fill="#000000">OS/400 (ppc64) (48)</text>
  <rect fill="blue" height="5.5" stroke="black" width="12" x="510" y="63996.4"/>
  <text x="510" y="64006.9" font-family="Tahoma" font-size="12" transform="rotate(90 510,64006.9)" text-rendering="optimizeSpeed" fill="#000000">Windows Vista (x86) (55)</text>
  <rect fill="blue" height="5.6" stroke="black" width="12" x="525" y="63996.3"/>
  <text x="525" y="64006.9" font-family="Tahoma" font-size="12" transform="rotate(90 525,64006.9)" text-rendering="optimizeSpeed" fill="#000000">Linux (ppc64) (56)</text>
  <rect fill="blue" height="5.9" stroke="black" width="12" x="540" y="63996.0"/>
  <text x="540" y="64006.9" font-family="Tahoma" font-size="12" transform="rotate(90 540,64006.9)" text-rendering="optimizeSpeed" fill="#000000">AIX (ppc) (59)</text>
  <rect fill="blue" height="7.5" stroke="black" width="12" x="555" y="63994.4"/>
  <text x="555" y="64006.9" font-family="Tahoma" font-size="12" transform="rotate(90 555,64006.9)" text-rendering="optimizeSpeed" fill="#000000">Windows Server 2008 (amd64) (75)</text>
  <rect fill="blue" height="7.8" stroke="black" width="12" x="570" y="63994.1"/>
  <text x="570" y="64006.9" font-family="Tahoma" font-size="12" transform="rotate(90 570,64006.9)" text-rendering="optimizeSpeed" fill="#000000">SunOS (x86) (78)</text>
  <rect fill="blue" height="7.9" stroke="black" width="12" x="585" y="63994.0"/>
  <text x="585" y="64006.9" font-family="Tahoma" font-size="12" transform="rotate(90 585,64006.9)" text-rendering="optimizeSpeed" fill="#000000">SunOS (sparc) (79)</text>
  <rect fill="blue" height="9.1" stroke="black" width="12" x="600" y="63992.8"/>
  <text x="600" y="64006.9" font-family="Tahoma" font-size="12" transform="rotate(90 600,64006.9)" text-rendering="optimizeSpeed" fill="#000000">Windows Server 2008 (x86) (91)</text>
  <rect fill="blue" height="9.7" stroke="black" width="12" x="615" y="63992.2"/>
  <text x="615" y="64006.9" font-family="Tahoma" font-size="12" transform="rotate(90 615,64006.9)" text-rendering="optimizeSpeed" fill="#000000">Windows 8 (amd64) (97)</text>
  <rect fill="blue" height="12.0" stroke="black" width="12" x="630" y="63989.9"/>
  <text x="630" y="64006.9" font-family="Tahoma" font-size="12" transform="rotate(90 630,64006.9)" text-rendering="optimizeSpeed" fill="#000000">Windows XP (x86) (120)</text>
  <rect fill="blue" height="13.0" stroke="black" width="12" x="645" y="63988.9"/>
  <text x="645" y="64006.9" font-family="Tahoma" font-size="12" transform="rotate(90 645,64006.9)" text-rendering="optimizeSpeed" fill="#000000">Linux (loongarch64) (130)</text>
  <rect fill="blue" height="13.7" stroke="black" width="12" x="660" y="63988.2"/>
  <text x="660" y="64006.9" font-family="Tahoma" font-size="12" transform="rotate(90 660,64006.9)" text-rendering="optimizeSpeed" fill="#000000">Windows 2003 (x86) (137)</text>
  <rect fill="blue" height="15.8" stroke="black" width="12" x="675" y="63986.1"/>
  <text x="675" y="64006.9" font-family="Tahoma" font-size="12" transform="rotate(90 675,64006.9)" text-rendering="optimizeSpeed" fill="#000000">Windows Server 2022 (x86) (158)</text>
  <rect fill="blue" height="19.1" stroke="black" width="12" x="690" y="63982.8"/>
  <text x="690" y="64006.9" font-family="Tahoma" font-size="12" transform="rotate(90 690,64006.9)" text-rendering="optimizeSpeed" fill="#000000">z/OS (s390x) (191)</text>
  <rect fill="blue" height="22.6" stroke="black" width="12" x="705" y="63979.3"/>
  <text x="705" y="64006.9" font-family="Tahoma" font-size="12" transform="rotate(90 705,64006.9)" text-rendering="optimizeSpeed" fill="#000000">Windows 11 (x86) (226)</text>
  <rect fill="blue" height="24.6" stroke="black" width="12" x="720" y="63977.3"/>
  <text x="720" y="64006.9" font-family="Tahoma" font-size="12" transform="rotate(90 720,64006.9)" text-rendering="optimizeSpeed" fill="#000000">HP-UX (IA64N) (246)</text>
  <rect fill="blue" height="26.7" stroke="black" width="12" x="735" y="63975.2"/>
  <text x="735" y="64006.9" font-family="Tahoma" font-size="12" transform="rotate(90 735,64006.9)" text-rendering="optimizeSpeed" fill="#000000">Windows Server 2012 (x86) (267)</text>
  <rect fill="blue" height="28.7" stroke="black" width="12" x="750" y="63973.2"/>
  <text x="750" y="64006.9" font-family="Tahoma" font-size="12" transform="rotate(90 750,64006.9)" text-rendering="optimizeSpeed" fill="#000000">Linux (s390x) (287)</text>
  <rect fill="blue" height="31.1" stroke="black" width="12" x="765" y="63970.8"/>
  <text x="765" y="64006.9" font-family="Tahoma" font-size="12" transform="rotate(90 765,64006.9)" text-rendering="optimizeSpeed" fill="#000000">Windows 8.1 (x86) (311)</text>
  <rect fill="blue" height="38.7" stroke="black" width="12" x="780" y="63963.2"/>
  <text x="780" y="64006.9" font-family="Tahoma" font-size="12" transform="rotate(90 780,64006.9)" text-rendering="optimizeSpeed" fill="#000000">SunOS (amd64) (387)</text>
  <rect fill="blue" height="53.3" stroke="black" width="12" x="795" y="63948.6"/>
  <text x="795" y="64006.9" font-family="Tahoma" font-size="12" transform="rotate(90 795,64006.9)" text-rendering="optimizeSpeed" fill="#000000">Windows NT (unknown) (x86) (533)</text>
  <rect fill="blue" height="57.9" stroke="black" width="12" x="810" y="63944.0"/>
  <text x="810" y="64006.9" font-family="Tahoma" font-size="12" transform="rotate(90 810,64006.9)" text-rendering="optimizeSpeed" fill="#000000">Windows 8.1 (amd64) (579)</text>
  <rect fill="blue" height="59.9" stroke="black" width="12" x="825" y="63942.0"/>
  <text x="825" y="64006.9" font-family="Tahoma" font-size="12" transform="rotate(90 825,64006.9)" text-rendering="optimizeSpeed" fill="#000000">Linux (ppc64le) (599)</text>
  <rect fill="blue" height="72.6" stroke="black" width="12" x="840" y="63929.3"/>
  <text x="840" y="64006.9" font-family="Tahoma" font-size="12" transform="rotate(90 840,64006.9)" text-rendering="optimizeSpeed" fill="#000000">FreeBSD (amd64) (726)</text>
  <rect fill="blue" height="77.8" stroke="black" width="12" x="855" y="63924.1"/>
  <text x="855" y="64006.9" font-family="Tahoma" font-size="12" transform="rotate(90 855,64006.9)" text-rendering="optimizeSpeed" fill="#000000">Windows Server 2008 R2 (x86) (778)</text>
  <rect fill="blue" height="86.9" stroke="black" width="12" x="870" y="63915.0"/>
  <text x="870" y="64006.9" font-family="Tahoma" font-size="12" transform="rotate(90 870,64006.9)" text-rendering="optimizeSpeed" fill="#000000">SunOS (sparcv9) (869)</text>
  <rect fill="blue" height="111.3" stroke="black" width="12" x="885" y="63890.6"/>
  <text x="885" y="64006.9" font-family="Tahoma" font-size="12" transform="rotate(90 885,64006.9)" text-rendering="optimizeSpeed" fill="#000000">Windows Server 2012 (amd64) (1113)</text>
  <rect fill="blue" height="167.8" stroke="black" width="12" x="900" y="63834.1"/>
  <text x="900" y="64006.9" font-family="Tahoma" font-size="12" transform="rotate(90 900,64006.9)" text-rendering="optimizeSpeed" fill="#000000">AIX (ppc64) (1678)</text>
  <rect fill="blue" height="168.3" stroke="black" width="12" x="915" y="63833.6"/>
  <text x="915" y="64006.9" font-family="Tahoma" font-size="12" transform="rotate(90 915,64006.9)" text-rendering="optimizeSpeed" fill="#000000">Windows NT (unknown) (amd64) (1683)</text>
  <rect fill="blue" height="169.0" stroke="black" width="12" x="930" y="63832.9"/>
  <text x="930" y="64006.9" font-family="Tahoma" font-size="12" transform="rotate(90 930,64006.9)" text-rendering="optimizeSpeed" fill="#000000">Windows 7 (x86) (1690)</text>
  <rect fill="blue" height="216.6" stroke="black" width="12" x="945" y="63785.3"/>
  <text x="945" y="64006.9" font-family="Tahoma" font-size="12" transform="rotate(90 945,64006.9)" text-rendering="optimizeSpeed" fill="#000000">Windows Server 2019 (x86) (2166)</text>
  <rect fill="blue" height="244.7" stroke="black" width="12" x="960" y="63757.2"/>
  <text x="960" y="64006.9" font-family="Tahoma" font-size="12" transform="rotate(90 960,64006.9)" text-rendering="optimizeSpeed" fill="#000000">Linux (arm) (2447)</text>
  <rect fill="blue" height="286.5" stroke="black" width="12" x="975" y="63715.4"/>
  <text x="975" y="64006.9" font-family="Tahoma" font-size="12" transform="rotate(90 975,64006.9)" text-rendering="optimizeSpeed" fill="#000000">Windows Server 2008 R2 (amd64) (2865)</text>
  <rect fill="blue" height="306.6" stroke="black" width="12" x="990" y="63695.3"/>
  <text x="990" y="64006.9" font-family="Tahoma" font-size="12" transform="rotate(90 990,64006.9)" text-rendering="optimizeSpeed" fill="#000000">Windows Server 2012 R2 (x86) (3066)</text>
  <rect fill="blue" height="313.7" stroke="black" width="12" x="1005" y="63688.2"/>
  <text x="1005" y="64006.9" font-family="Tahoma" font-size="12" transform="rotate(90 1005,64006.9)" text-rendering="optimizeSpeed" fill="#000000">Windows 7 (amd64) (3137)</text>
  <rect fill="blue" height="323.3" stroke="black" width="12" x="1020" y="63678.6"/>
  <text x="1020" y="64006.9" font-family="Tahoma" font-size="12" transform="rotate(90 1020,64006.9)" text-rendering="optimizeSpeed" fill="#000000">Linux (i386) (3233)</text>
  <rect fill="blue" height="490.5" stroke="black" width="12" x="1035" y="63511.4"/>
  <text x="1035" y="64006.9" font-family="Tahoma" font-size="12" transform="rotate(90 1035,64006.9)" text-rendering="optimizeSpeed" fill="#000000">Windows Server 2016 (x86) (4905)</text>
  <rect fill="blue" height="609.1" stroke="black" width="12" x="1050" y="63392.8"/>
  <text x="1050" y="64006.9" font-family="Tahoma" font-size="12" transform="rotate(90 1050,64006.9)" text-rendering="optimizeSpeed" fill="#000000">Windows Server 2022 (amd64) (6091)</text>
  <rect fill="blue" height="844.4" stroke="black" width="12" x="1065" y="63157.5"/>
  <text x="1065" y="64006.9" font-family="Tahoma" font-size="12" transform="rotate(90 1065,64006.9)" text-rendering="optimizeSpeed" fill="#000000">Windows 11 (amd64) (8444)</text>
  <rect fill="blue" height="853.8" stroke="black" width="12" x="1080" y="63148.1"/>
  <text x="1080" y="64006.9" font-family="Tahoma" font-size="12" transform="rotate(90 1080,64006.9)" text-rendering="optimizeSpeed" fill="#000000">Windows 10 (x86) (8538)</text>
  <rect fill="blue" height="887.3" stroke="black" width="12" x="1095" y="63114.6"/>
  <text x="1095" y="64006.9" font-family="Tahoma" font-size="12" transform="rotate(90 1095,64006.9)" text-rendering="optimizeSpeed" fill="#000000">Mac OS X (aarch64) (8873)</text>
  <rect fill="blue" height="1119.6" stroke="black" width="12" x="1110" y="62882.3"/>
  <text x="1110" y="64006.9" font-family="Tahoma" font-size="12" transform="rotate(90 1110,64006.9)" text-rendering="optimizeSpeed" fill="#000000">Linux (aarch64) (11196)</text>
  <rect fill="blue" height="1330.8" stroke="black" width="12" x="1125" y="62671.1"/>
  <text x="1125" y="64006.9" font-family="Tahoma" font-size="12" transform="rotate(90 1125,64006.9)" text-rendering="optimizeSpeed" fill="#000000">Windows Server 2012 R2 (amd64) (13308)</text>
  <rect fill="blue" height="2325.0" stroke="black" width="12" x="1140" y="61676.9"/>
  <text x="1140" y="64006.9" font-family="Tahoma" font-size="12" transform="rotate(90 1140,64006.9)" text-rendering="optimizeSpeed" fill="#000000">Mac OS X (x86_64) (23250)</text>
  <rect fill="blue" height="3099.8" stroke="black" width="12" x="1155" y="60902.1"/>
  <text x="1155" y="64006.9" font-family="Tahoma" font-size="12" transform="rotate(90 1155,64006.9)" text-rendering="optimizeSpeed" fill="#000000">Windows Server 2019 (amd64) (30998)</text>
  <rect fill="blue" height="3536.9" stroke="black" width="12" x="1170" y="60465.0"/>
  <text x="1170" y="64006.9" font-family="Tahoma" font-size="12" transform="rotate(90 1170,64006.9)" text-rendering="optimizeSpeed" fill="#000000">Windows Server 2016 (amd64) (35369)</text>
  <rect fill="blue" height="7462.3" stroke="black" width="12" x="1185" y="56539.6"/>
  <text x="1185" y="64006.9" font-family="Tahoma" font-size="12" transform="rotate(90 1185,64006.9)" text-rendering="optimizeSpeed" fill="#000000">Windows 10 (amd64) (74623)</text>
  <rect fill="blue" height="34730.3" stroke="black" width="12" x="1200" y="29271.6"/>
  <text x="1200" y="64006.9" font-family="Tahoma" font-size="12" transform="rotate(90 1200,64006.9)" text-rendering="optimizeSpeed" fill="#000000">N/A (347303)</text>
  <rect fill="blue" height="63951.9" stroke="black" width="12" x="1215" y="50.0"/>
  <text x="1215" y="64006.9" font-family="Tahoma" font-size="12" transform="rotate(90 1215,64006.9)" text-rendering="optimizeSpeed" fill="#000000">Linux (amd64) (639519)</text>
  <text x="10" y="40" font-family="Tahoma" font-size="20" text-rendering="optimizeSpeed" fill="#000000">Nodes (total: 1243085)</text>
</svg>
