<svg xmlns="http://www.w3.org/2000/svg" version="1.1" preserveAspectRatio="xMidYMid meet" viewBox="0 0 720 2630">
  <text x="30" y="40" font-family="sans-serif" font-size="16">Nodes, total: 1175555</text>
  <path d="M 200,300 L 0.0,150.0 A 150,150 0 0 1 0.1,150.0 Z" fill="BurlyWood" stroke="black" stroke-width="1"/>
  <rect x="370" y="50" width="20" height="30" fill="BurlyWood" stroke="black" stroke-width="1"/>
  <text x="400" y="38" font-family="sans-serif" font-size="16">AIX (ppc) (76)</text>
  <path d="M 200,300 L 0.1,150.0 A 150,150 0 0 1 3.4,150.0 Z" fill="CadetBlue" stroke="black" stroke-width="1"/>
  <rect x="370" y="51" width="20" height="30" fill="CadetBlue" stroke="black" stroke-width="1"/>
  <text x="400" y="68" font-family="sans-serif" font-size="16">AIX (ppc64) (1717)</text>
  <path d="M 200,300 L 3.4,150.0 A 150,150 0 0 1 3.4,150.0 Z" fill="red" stroke="black" stroke-width="1"/>
  <rect x="370" y="52" width="20" height="30" fill="red" stroke="black" stroke-width="1"/>
  <text x="400" y="98" font-family="sans-serif" font-size="16">Darwin (ppc) (1)</text>
  <path d="M 200,300 L 3.4,150.0 A 150,150 0 0 1 3.4,150.0 Z" fill="blue" stroke="black" stroke-width="1"/>
  <rect x="370" y="53" width="20" height="30" fill="blue" stroke="black" stroke-width="1"/>
  <text x="400" y="128" font-family="sans-serif" font-size="16">DragonFlyBSD (amd64) (1)</text>
  <path d="M 200,300 L 3.4,150.0 A 150,150 0 0 1 3.4,150.0 Z" fill="yellow" stroke="black" stroke-width="1"/>
  <rect x="370" y="54" width="20" height="30" fill="yellow" stroke="black" stroke-width="1"/>
  <text x="400" y="158" font-family="sans-serif" font-size="16">FreeBSD (aarch64) (2)</text>
  <path d="M 200,300 L 3.4,150.0 A 150,150 0 0 1 4.7,150.0 Z" fill="green" stroke="black" stroke-width="1"/>
  <rect x="370" y="55" width="20" height="30" fill="green" stroke="black" stroke-width="1"/>
  <text x="400" y="188" font-family="sans-serif" font-size="16">FreeBSD (amd64) (718)</text>
  <path d="M 200,300 L 4.7,150.0 A 150,150 0 0 1 4.8,150.0 Z" fill="gold" stroke="black" stroke-width="1"/>
  <rect x="370" y="56" width="20" height="30" fill="gold" stroke="black" stroke-width="1"/>
  <text x="400" y="218" font-family="sans-serif" font-size="16">FreeBSD (i386) (35)</text>
  <path d="M 200,300 L 4.8,150.0 A 150,150 0 0 1 5.2,150.0 Z" fill="brown" stroke="black" stroke-width="1"/>
  <rect x="370" y="57" width="20" height="30" fill="brown" stroke="black" stroke-width="1"/>
  <text x="400" y="248" font-family="sans-serif" font-size="16">HP-UX (IA64N) (218)</text>
  <path d="M 200,300 L 5.2,150.0 A 150,150 0 0 1 5.2,150.0 Z" fill="Azure" stroke="black" stroke-width="1"/>
  <rect x="370" y="58" width="20" height="30" fill="Azure" stroke="black" stroke-width="1"/>
  <text x="400" y="278" font-family="sans-serif" font-size="16">HP-UX (IA64W) (36)</text>
  <path d="M 200,300 L 5.2,150.0 A 150,150 0 0 1 5.3,150.0 Z" fill="pink" stroke="black" stroke-width="1"/>
  <rect x="370" y="59" width="20" height="30" fill="pink" stroke="black" stroke-width="1"/>
  <text x="400" y="308" font-family="sans-serif" font-size="16">HP-UX (PA_RISC2.0) (9)</text>
  <path d="M 200,300 L 5.3,150.0 A 150,150 0 0 1 5.3,150.0 Z" fill="khaki" stroke="black" stroke-width="1"/>
  <rect x="370" y="60" width="20" height="30" fill="khaki" stroke="black" stroke-width="1"/>
  <text x="400" y="338" font-family="sans-serif" font-size="16">HP-UX (PA_RISC2.0W) (1)</text>
  <path d="M 200,300 L 5.3,150.0 A 150,150 0 0 1 5.3,150.0 Z" fill="gray" stroke="black" stroke-width="1"/>
  <rect x="370" y="61" width="20" height="30" fill="gray" stroke="black" stroke-width="1"/>
  <text x="400" y="368" font-family="sans-serif" font-size="16">HP-UX (ia64) (4)</text>
  <path d="M 200,300 L 5.3,150.0 A 150,150 0 0 1 22.7,149.7 Z" fill="Aqua" stroke="black" stroke-width="1"/>
  <rect x="370" y="62" width="20" height="30" fill="Aqua" stroke="black" stroke-width="1"/>
  <text x="400" y="398" font-family="sans-serif" font-size="16">Linux (aarch64) (9347)</text>
  <path d="M 200,300 L 22.7,149.7 A 150,150 0 1 1 -40.8,-149.0 Z" fill="Aquamarine" stroke="black" stroke-width="1"/>
  <rect x="370" y="63" width="20" height="30" fill="Aquamarine" stroke="black" stroke-width="1"/>
  <text x="400" y="428" font-family="sans-serif" font-size="16">Linux (amd64) (597476)</text>
  <path d="M 200,300 L -40.8,-149.0 A 150,150 0 0 1 -46.2,-148.7 Z" fill="beige" stroke="black" stroke-width="1"/>
  <rect x="370" y="64" width="20" height="30" fill="beige" stroke="black" stroke-width="1"/>
  <text x="400" y="458" font-family="sans-serif" font-size="16">Linux (arm) (2916)</text>
  <path d="M 200,300 L -46.2,-148.7 A 150,150 0 0 1 -46.2,-148.7 Z" fill="blueviolet" stroke="black" stroke-width="1"/>
  <rect x="370" y="65" width="20" height="30" fill="blueviolet" stroke="black" stroke-width="1"/>
  <text x="400" y="488" font-family="sans-serif" font-size="16">Linux (e2k) (4)</text>
  <path d="M 200,300 L -46.2,-148.7 A 150,150 0 0 1 -52.8,-148.3 Z" fill="Bisque" stroke="black" stroke-width="1"/>
  <rect x="370" y="66" width="20" height="30" fill="Bisque" stroke="black" stroke-width="1"/>
  <text x="400" y="518" font-family="sans-serif" font-size="16">Linux (i386) (3539)</text>
  <path d="M 200,300 L -52.8,-148.3 A 150,150 0 0 1 -53.0,-148.3 Z" fill="coral" stroke="black" stroke-width="1"/>
  <rect x="370" y="67" width="20" height="30" fill="coral" stroke="black" stroke-width="1"/>
  <text x="400" y="548" font-family="sans-serif" font-size="16">Linux (loongarch64) (103)</text>
  <path d="M 200,300 L -53.0,-148.3 A 150,150 0 0 1 -53.1,-148.3 Z" fill="darkblue" stroke="black" stroke-width="1"/>
  <rect x="370" y="68" width="20" height="30" fill="darkblue" stroke="black" stroke-width="1"/>
  <text x="400" y="578" font-family="sans-serif" font-size="16">Linux (mips64el) (51)</text>
  <path d="M 200,300 L -53.1,-148.3 A 150,150 0 0 1 -53.1,-148.3 Z" fill="crimson" stroke="black" stroke-width="1"/>
  <rect x="370" y="69" width="20" height="30" fill="crimson" stroke="black" stroke-width="1"/>
  <text x="400" y="608" font-family="sans-serif" font-size="16">Linux (ppc) (13)</text>
  <path d="M 200,300 L -53.1,-148.3 A 150,150 0 0 1 -53.2,-148.3 Z" fill="cyan" stroke="black" stroke-width="1"/>
  <rect x="370" y="70" width="20" height="30" fill="cyan" stroke="black" stroke-width="1"/>
  <text x="400" y="638" font-family="sans-serif" font-size="16">Linux (ppc64) (54)</text>
  <path d="M 200,300 L -53.2,-148.3 A 150,150 0 0 1 -54.4,-148.2 Z" fill="darkred" stroke="black" stroke-width="1"/>
  <rect x="370" y="71" width="20" height="30" fill="darkred" stroke="black" stroke-width="1"/>
  <text x="400" y="668" font-family="sans-serif" font-size="16">Linux (ppc64le) (664)</text>
  <path d="M 200,300 L -54.4,-148.2 A 150,150 0 0 1 -54.4,-148.2 Z" fill="ivory" stroke="black" stroke-width="1"/>
  <rect x="370" y="72" width="20" height="30" fill="ivory" stroke="black" stroke-width="1"/>
  <text x="400" y="698" font-family="sans-serif" font-size="16">Linux (riscv64) (17)</text>
  <path d="M 200,300 L -54.4,-148.2 A 150,150 0 0 1 -54.5,-148.2 Z" fill="lime" stroke="black" stroke-width="1"/>
  <rect x="370" y="73" width="20" height="30" fill="lime" stroke="black" stroke-width="1"/>
  <text x="400" y="728" font-family="sans-serif" font-size="16">Linux (s390) (1)</text>
  <path d="M 200,300 L -54.5,-148.2 A 150,150 0 0 1 -55.0,-148.1 Z" fill="maroon" stroke="black" stroke-width="1"/>
  <rect x="370" y="74" width="20" height="30" fill="maroon" stroke="black" stroke-width="1"/>
  <text x="400" y="758" font-family="sans-serif" font-size="16">Linux (s390x) (290)</text>
  <path d="M 200,300 L -55.0,-148.1 A 150,150 0 0 1 -55.0,-148.1 Z" fill="navy" stroke="black" stroke-width="1"/>
  <rect x="370" y="75" width="20" height="30" fill="navy" stroke="black" stroke-width="1"/>
  <text x="400" y="788" font-family="sans-serif" font-size="16">Linux (sw64) (11)</text>
  <path d="M 200,300 L -55.0,-148.1 A 150,150 0 0 1 -55.0,-148.1 Z" fill="olive" stroke="black" stroke-width="1"/>
  <rect x="370" y="76" width="20" height="30" fill="olive" stroke="black" stroke-width="1"/>
  <text x="400" y="818" font-family="sans-serif" font-size="16">Linux (x86) (22)</text>
  <path d="M 200,300 L -55.0,-148.1 A 150,150 0 0 1 -55.0,-148.1 Z" fill="plum" stroke="black" stroke-width="1"/>
  <rect x="370" y="77" width="20" height="30" fill="plum" stroke="black" stroke-width="1"/>
  <text x="400" y="848" font-family="sans-serif" font-size="16">Linux (x86_64) (1)</text>
  <path d="M 200,300 L -55.0,-148.1 A 150,150 0 0 1 -55.1,-148.1 Z" fill="peru" stroke="black" stroke-width="1"/>
  <rect x="370" y="78" width="20" height="30" fill="peru" stroke="black" stroke-width="1"/>
  <text x="400" y="878" font-family="sans-serif" font-size="16">Linux (zArch_64) (1)</text>
  <path d="M 200,300 L -55.1,-148.1 A 150,150 0 0 1 -67.6,-147.2 Z" fill="silver" stroke="black" stroke-width="1"/>
  <rect x="370" y="79" width="20" height="30" fill="silver" stroke="black" stroke-width="1"/>
  <text x="400" y="908" font-family="sans-serif" font-size="16">Mac OS X (aarch64) (6806)</text>
  <path d="M 200,300 L -67.6,-147.2 A 150,150 0 0 1 -111.1,-142.2 Z" fill="tan" stroke="black" stroke-width="1"/>
  <rect x="370" y="80" width="20" height="30" fill="tan" stroke="black" stroke-width="1"/>
  <text x="400" y="938" font-family="sans-serif" font-size="16">Mac OS X (x86_64) (24092)</text>
  <path d="M 200,300 L -111.1,-142.2 A 150,150 0 0 1 -111.1,-142.2 Z" fill="teal" stroke="black" stroke-width="1"/>
  <rect x="370" y="81" width="20" height="30" fill="teal" stroke="black" stroke-width="1"/>
  <text x="400" y="968" font-family="sans-serif" font-size="16">MidnightBSD (amd64) (2)</text>
  <path d="M 200,300 L -111.1,-142.2 A 150,150 0 0 1 -111.1,-142.2 Z" fill="violet" stroke="black" stroke-width="1"/>
  <rect x="370" y="82" width="20" height="30" fill="violet" stroke="black" stroke-width="1"/>
  <text x="400" y="998" font-family="sans-serif" font-size="16">MidnightBSD (i386) (1)</text>
  <path d="M 200,300 L -111.1,-142.2 A 150,150 0 0 1 -305.8,72.9 Z" fill="AliceBlue" stroke="black" stroke-width="1"/>
  <rect x="370" y="83" width="20" height="30" fill="AliceBlue" stroke="black" stroke-width="1"/>
  <text x="400" y="1028" font-family="sans-serif" font-size="16">N/A (328445)</text>
  <path d="M 200,300 L -305.8,72.9 A 150,150 0 0 1 -305.8,72.9 Z" fill="DarkOliveGreen" stroke="black" stroke-width="1"/>
  <rect x="370" y="84" width="20" height="30" fill="DarkOliveGreen" stroke="black" stroke-width="1"/>
  <text x="400" y="1058" font-family="sans-serif" font-size="16">NONSTOP_KERNEL (IA64N) (2)</text>
  <path d="M 200,300 L -305.8,72.9 A 150,150 0 0 1 -305.8,72.9 Z" fill="Indigo" stroke="black" stroke-width="1"/>
  <rect x="370" y="85" width="20" height="30" fill="Indigo" stroke="black" stroke-width="1"/>
  <text x="400" y="1088" font-family="sans-serif" font-size="16">NONSTOP_KERNEL (amd64) (1)</text>
  <path d="M 200,300 L -305.8,72.9 A 150,150 0 0 1 -305.8,72.9 Z" fill="MediumPurple" stroke="black" stroke-width="1"/>
  <rect x="370" y="86" width="20" height="30" fill="MediumPurple" stroke="black" stroke-width="1"/>
  <text x="400" y="1118" font-family="sans-serif" font-size="16">NONSTOP_KERNEL (x86_64N) (3)</text>
  <path d="M 200,300 L -305.8,72.9 A 150,150 0 0 1 -305.8,72.9 Z" fill="Purple" stroke="black" stroke-width="1"/>
  <rect x="370" y="87" width="20" height="30" fill="Purple" stroke="black" stroke-width="1"/>
  <text x="400" y="1148" font-family="sans-serif" font-size="16">NetBSD (amd64) (4)</text>
  <path d="M 200,300 L -305.8,72.9 A 150,150 0 0 1 -305.8,72.9 Z" fill="AntiqueWhite" stroke="black" stroke-width="1"/>
  <rect x="370" y="88" width="20" height="30" fill="AntiqueWhite" stroke="black" stroke-width="1"/>
  <text x="400" y="1178" font-family="sans-serif" font-size="16">NetBSD (i386) (1)</text>
  <path d="M 200,300 L -305.8,72.9 A 150,150 0 0 1 -305.8,73.0 Z" fill="DarkOrange" stroke="black" stroke-width="1"/>
  <rect x="370" y="89" width="20" height="30" fill="DarkOrange" stroke="black" stroke-width="1"/>
  <text x="400" y="1208" font-family="sans-serif" font-size="16">OS/400 (ppc) (6)</text>
  <path d="M 200,300 L -305.8,73.0 A 150,150 0 0 1 -305.8,73.0 Z" fill="Ivory" stroke="black" stroke-width="1"/>
  <rect x="370" y="90" width="20" height="30" fill="Ivory" stroke="black" stroke-width="1"/>
  <text x="400" y="1238" font-family="sans-serif" font-size="16">OS/400 (ppc64) (55)</text>
  <path d="M 200,300 L -305.8,73.0 A 150,150 0 0 1 -305.8,73.0 Z" fill="MediumSeaGreen" stroke="black" stroke-width="1"/>
  <rect x="370" y="91" width="20" height="30" fill="MediumSeaGreen" stroke="black" stroke-width="1"/>
  <text x="400" y="1268" font-family="sans-serif" font-size="16">OS400 (ppc64) (10)</text>
  <path d="M 200,300 L -305.8,73.0 A 150,150 0 0 1 -305.7,73.0 Z" fill="Red" stroke="black" stroke-width="1"/>
  <rect x="370" y="92" width="20" height="30" fill="Red" stroke="black" stroke-width="1"/>
  <text x="400" y="1298" font-family="sans-serif" font-size="16">OpenBSD (amd64) (25)</text>
  <path d="M 200,300 L -305.7,73.0 A 150,150 0 0 1 -305.3,73.3 Z" fill="Aqua" stroke="black" stroke-width="1"/>
  <rect x="370" y="93" width="20" height="30" fill="Aqua" stroke="black" stroke-width="1"/>
  <text x="400" y="1328" font-family="sans-serif" font-size="16">SunOS (amd64) (437)</text>
  <path d="M 200,300 L -305.3,73.3 A 150,150 0 0 1 -305.3,73.4 Z" fill="DarkOrchid" stroke="black" stroke-width="1"/>
  <rect x="370" y="94" width="20" height="30" fill="DarkOrchid" stroke="black" stroke-width="1"/>
  <text x="400" y="1358" font-family="sans-serif" font-size="16">SunOS (sparc) (93)</text>
  <path d="M 200,300 L -305.3,73.4 A 150,150 0 0 1 -304.4,74.1 Z" fill="Khaki" stroke="black" stroke-width="1"/>
  <rect x="370" y="95" width="20" height="30" fill="Khaki" stroke="black" stroke-width="1"/>
  <text x="400" y="1388" font-family="sans-serif" font-size="16">SunOS (sparcv9) (960)</text>
  <path d="M 200,300 L -304.4,74.1 A 150,150 0 0 1 -304.3,74.1 Z" fill="MediumSlateBlue" stroke="black" stroke-width="1"/>
  <rect x="370" y="96" width="20" height="30" fill="MediumSlateBlue" stroke="black" stroke-width="1"/>
  <text x="400" y="1418" font-family="sans-serif" font-size="16">SunOS (x86) (82)</text>
  <path d="M 200,300 L -304.3,74.1 A 150,150 0 0 1 -304.3,74.1 Z" fill="RosyBrown" stroke="black" stroke-width="1"/>
  <rect x="370" y="97" width="20" height="30" fill="RosyBrown" stroke="black" stroke-width="1"/>
  <text x="400" y="1448" font-family="sans-serif" font-size="16">Windows 10 (aarch64) (2)</text>
  <path d="M 200,300 L -304.3,74.1 A 150,150 0 0 1 -219.9,116.7 Z" fill="AquaMarine" stroke="black" stroke-width="1"/>
  <rect x="370" y="98" width="20" height="30" fill="AquaMarine" stroke="black" stroke-width="1"/>
  <text x="400" y="1478" font-family="sans-serif" font-size="16">Windows 10 (amd64) (70109)</text>
  <path d="M 200,300 L -219.9,116.7 A 150,150 0 0 1 -204.7,121.7 Z" fill="DarkRed" stroke="black" stroke-width="1"/>
  <rect x="370" y="99" width="20" height="30" fill="DarkRed" stroke="black" stroke-width="1"/>
  <text x="400" y="1508" font-family="sans-serif" font-size="16">Windows 10 (x86) (10235)</text>
  <path d="M 200,300 L -204.7,121.7 A 150,150 0 0 1 -204.7,121.7 Z" fill="Lavender" stroke="black" stroke-width="1"/>
  <rect x="370" y="100" width="20" height="30" fill="Lavender" stroke="black" stroke-width="1"/>
  <text x="400" y="1538" font-family="sans-serif" font-size="16">Windows 11 (aarch64) (6)</text>
  <path d="M 200,300 L -204.7,121.7 A 150,150 0 0 1 -195.7,124.4 Z" fill="MediumSpringGreen" stroke="black" stroke-width="1"/>
  <rect x="370" y="101" width="20" height="30" fill="MediumSpringGreen" stroke="black" stroke-width="1"/>
  <text x="400" y="1568" font-family="sans-serif" font-size="16">Windows 11 (amd64) (5834)</text>
  <path d="M 200,300 L -195.7,124.4 A 150,150 0 0 1 -195.3,124.5 Z" fill="RoyalBlue" stroke="black" stroke-width="1"/>
  <rect x="370" y="102" width="20" height="30" fill="RoyalBlue" stroke="black" stroke-width="1"/>
  <text x="400" y="1598" font-family="sans-serif" font-size="16">Windows 11 (x86) (239)</text>
  <path d="M 200,300 L -195.3,124.5 A 150,150 0 0 1 -195.3,124.5 Z" fill="Azure" stroke="black" stroke-width="1"/>
  <rect x="370" y="103" width="20" height="30" fill="Azure" stroke="black" stroke-width="1"/>
  <text x="400" y="1628" font-family="sans-serif" font-size="16">Windows 2003 (amd64) (25)</text>
  <path d="M 200,300 L -195.3,124.5 A 150,150 0 0 1 -195.0,124.6 Z" fill="DarkSalmon" stroke="black" stroke-width="1"/>
  <rect x="370" y="104" width="20" height="30" fill="DarkSalmon" stroke="black" stroke-width="1"/>
  <text x="400" y="1658" font-family="sans-serif" font-size="16">Windows 2003 (x86) (163)</text>
  <path d="M 200,300 L -195.0,124.6 A 150,150 0 0 1 -189.3,126.2 Z" fill="LavenderBlush" stroke="black" stroke-width="1"/>
  <rect x="370" y="105" width="20" height="30" fill="LavenderBlush" stroke="black" stroke-width="1"/>
  <text x="400" y="1688" font-family="sans-serif" font-size="16">Windows 7 (amd64) (3645)</text>
  <path d="M 200,300 L -189.3,126.2 A 150,150 0 0 1 -186.4,127.0 Z" fill="MediumTurquoise" stroke="black" stroke-width="1"/>
  <rect x="370" y="106" width="20" height="30" fill="MediumTurquoise" stroke="black" stroke-width="1"/>
  <text x="400" y="1718" font-family="sans-serif" font-size="16">Windows 7 (x86) (1847)</text>
  <path d="M 200,300 L -186.4,127.0 A 150,150 0 0 1 -186.3,127.0 Z" fill="SaddleBrown" stroke="black" stroke-width="1"/>
  <rect x="370" y="107" width="20" height="30" fill="SaddleBrown" stroke="black" stroke-width="1"/>
  <text x="400" y="1748" font-family="sans-serif" font-size="16">Windows 8 (amd64) (66)</text>
  <path d="M 200,300 L -186.3,127.0 A 150,150 0 0 1 -186.2,127.0 Z" fill="Beige" stroke="black" stroke-width="1"/>
  <rect x="370" y="108" width="20" height="30" fill="Beige" stroke="black" stroke-width="1"/>
  <text x="400" y="1778" font-family="sans-serif" font-size="16">Windows 8 (x86) (48)</text>
  <path d="M 200,300 L -186.2,127.0 A 150,150 0 0 1 -184.9,127.4 Z" fill="DarkSeaGreen" stroke="black" stroke-width="1"/>
  <rect x="370" y="109" width="20" height="30" fill="DarkSeaGreen" stroke="black" stroke-width="1"/>
  <text x="400" y="1808" font-family="sans-serif" font-size="16">Windows 8.1 (amd64) (855)</text>
  <path d="M 200,300 L -184.9,127.4 A 150,150 0 0 1 -184.4,127.5 Z" fill="LawnGreen" stroke="black" stroke-width="1"/>
  <rect x="370" y="110" width="20" height="30" fill="LawnGreen" stroke="black" stroke-width="1"/>
  <text x="400" y="1838" font-family="sans-serif" font-size="16">Windows 8.1 (x86) (336)</text>
  <path d="M 200,300 L -184.4,127.5 A 150,150 0 0 1 -180.7,128.5 Z" fill="MediumVioletRed" stroke="black" stroke-width="1"/>
  <rect x="370" y="111" width="20" height="30" fill="MediumVioletRed" stroke="black" stroke-width="1"/>
  <text x="400" y="1868" font-family="sans-serif" font-size="16">Windows NT (unknown) (amd64) (2269)</text>
  <path d="M 200,300 L -180.7,128.5 A 150,150 0 0 1 -180.0,128.6 Z" fill="Salmon" stroke="black" stroke-width="1"/>
  <rect x="370" y="112" width="20" height="30" fill="Salmon" stroke="black" stroke-width="1"/>
  <text x="400" y="1898" font-family="sans-serif" font-size="16">Windows NT (unknown) (x86) (451)</text>
  <path d="M 200,300 L -180.0,128.6 A 150,150 0 0 1 -179.9,128.7 Z" fill="Bisque" stroke="black" stroke-width="1"/>
  <rect x="370" y="113" width="20" height="30" fill="Bisque" stroke="black" stroke-width="1"/>
  <text x="400" y="1928" font-family="sans-serif" font-size="16">Windows Server 2008 (amd64) (81)</text>
  <path d="M 200,300 L -179.9,128.7 A 150,150 0 0 1 -179.7,128.7 Z" fill="DarkSlateBlue" stroke="black" stroke-width="1"/>
  <rect x="370" y="114" width="20" height="30" fill="DarkSlateBlue" stroke="black" stroke-width="1"/>
  <text x="400" y="1958" font-family="sans-serif" font-size="16">Windows Server 2008 (x86) (110)</text>
  <path d="M 200,300 L -179.7,128.7 A 150,150 0 0 1 -174.3,130.1 Z" fill="LemonChiffon" stroke="black" stroke-width="1"/>
  <rect x="370" y="115" width="20" height="30" fill="LemonChiffon" stroke="black" stroke-width="1"/>
  <text x="400" y="1988" font-family="sans-serif" font-size="16">Windows Server 2008 R2 (amd64) (3325)</text>
  <path d="M 200,300 L -174.3,130.1 A 150,150 0 0 1 -172.9,130.4 Z" fill="MidnightBlue" stroke="black" stroke-width="1"/>
  <rect x="370" y="116" width="20" height="30" fill="MidnightBlue" stroke="black" stroke-width="1"/>
  <text x="400" y="2018" font-family="sans-serif" font-size="16">Windows Server 2008 R2 (x86) (880)</text>
  <path d="M 200,300 L -172.9,130.4 A 150,150 0 0 1 -171.5,130.8 Z" fill="SandyBrown" stroke="black" stroke-width="1"/>
  <rect x="370" y="117" width="20" height="30" fill="SandyBrown" stroke="black" stroke-width="1"/>
  <text x="400" y="2048" font-family="sans-serif" font-size="16">Windows Server 2012 (amd64) (895)</text>
  <path d="M 200,300 L -171.5,130.8 A 150,150 0 0 1 -171.0,130.9 Z" fill="Black" stroke="black" stroke-width="1"/>
  <rect x="370" y="118" width="20" height="30" fill="Black" stroke="black" stroke-width="1"/>
  <text x="400" y="2078" font-family="sans-serif" font-size="16">Windows Server 2012 (x86) (308)</text>
  <path d="M 200,300 L -171.0,130.9 A 150,150 0 0 1 -144.9,136.5 Z" fill="DarkSlateGray" stroke="black" stroke-width="1"/>
  <rect x="370" y="119" width="20" height="30" fill="DarkSlateGray" stroke="black" stroke-width="1"/>
  <text x="400" y="2108" font-family="sans-serif" font-size="16">Windows Server 2012 R2 (amd64) (15593)</text>
  <path d="M 200,300 L -144.9,136.5 A 150,150 0 0 1 -138.8,137.7 Z" fill="LightBlue" stroke="black" stroke-width="1"/>
  <rect x="370" y="120" width="20" height="30" fill="LightBlue" stroke="black" stroke-width="1"/>
  <text x="400" y="2138" font-family="sans-serif" font-size="16">Windows Server 2012 R2 (x86) (3580)</text>
  <path d="M 200,300 L -138.8,137.7 A 150,150 0 0 1 -72.3,146.8 Z" fill="MintCream" stroke="black" stroke-width="1"/>
  <rect x="370" y="121" width="20" height="30" fill="MintCream" stroke="black" stroke-width="1"/>
  <text x="400" y="2168" font-family="sans-serif" font-size="16">Windows Server 2016 (amd64) (37358)</text>
  <path d="M 200,300 L -72.3,146.8 A 150,150 0 0 1 -62.1,147.6 Z" fill="SeaGreen" stroke="black" stroke-width="1"/>
  <rect x="370" y="122" width="20" height="30" fill="SeaGreen" stroke="black" stroke-width="1"/>
  <text x="400" y="2198" font-family="sans-serif" font-size="16">Windows Server 2016 (x86) (5556)</text>
  <path d="M 200,300 L -62.1,147.6 A 150,150 0 0 1 -62.1,147.6 Z" fill="BlanchedAlmond" stroke="black" stroke-width="1"/>
  <rect x="370" y="123" width="20" height="30" fill="BlanchedAlmond" stroke="black" stroke-width="1"/>
  <text x="400" y="2228" font-family="sans-serif" font-size="16">Windows Server 2016 Standard (amd64) (4)</text>
  <path d="M 200,300 L -62.1,147.6 A 150,150 0 0 1 -12.5,149.9 Z" fill="DarkTurquoise" stroke="black" stroke-width="1"/>
  <rect x="370" y="124" width="20" height="30" fill="DarkTurquoise" stroke="black" stroke-width="1"/>
  <text x="400" y="2258" font-family="sans-serif" font-size="16">Windows Server 2019 (amd64) (26701)</text>
  <path d="M 200,300 L -12.5,149.9 A 150,150 0 0 1 -8.4,150.0 Z" fill="LightCoral" stroke="black" stroke-width="1"/>
  <rect x="370" y="125" width="20" height="30" fill="LightCoral" stroke="black" stroke-width="1"/>
  <text x="400" y="2288" font-family="sans-serif" font-size="16">Windows Server 2019 (x86) (2216)</text>
  <path d="M 200,300 L -8.4,150.0 A 150,150 0 0 1 -1.1,150.0 Z" fill="MistyRose" stroke="black" stroke-width="1"/>
  <rect x="370" y="126" width="20" height="30" fill="MistyRose" stroke="black" stroke-width="1"/>
  <text x="400" y="2318" font-family="sans-serif" font-size="16">Windows Server 2022 (amd64) (3871)</text>
  <path d="M 200,300 L -1.1,150.0 A 150,150 0 0 1 -0.8,150.0 Z" fill="SeaShell" stroke="black" stroke-width="1"/>
  <rect x="370" y="127" width="20" height="30" fill="SeaShell" stroke="black" stroke-width="1"/>
  <text x="400" y="2348" font-family="sans-serif" font-size="16">Windows Server 2022 (x86) (180)</text>
  <path d="M 200,300 L -0.8,150.0 A 150,150 0 0 1 -0.8,150.0 Z" fill="Blue" stroke="black" stroke-width="1"/>
  <rect x="370" y="128" width="20" height="30" fill="Blue" stroke="black" stroke-width="1"/>
  <text x="400" y="2378" font-family="sans-serif" font-size="16">Windows Server version 1909 (amd64) (5)</text>
  <path d="M 200,300 L -0.8,150.0 A 150,150 0 0 1 -0.7,150.0 Z" fill="DarkViolet" stroke="black" stroke-width="1"/>
  <rect x="370" y="129" width="20" height="30" fill="DarkViolet" stroke="black" stroke-width="1"/>
  <text x="400" y="2408" font-family="sans-serif" font-size="16">Windows Server version 2009 (amd64) (23)</text>
  <path d="M 200,300 L -0.7,150.0 A 150,150 0 0 1 -0.7,150.0 Z" fill="LightCyan" stroke="black" stroke-width="1"/>
  <rect x="370" y="130" width="20" height="30" fill="LightCyan" stroke="black" stroke-width="1"/>
  <text x="400" y="2438" font-family="sans-serif" font-size="16">Windows Vista (amd64) (2)</text>
  <path d="M 200,300 L -0.7,150.0 A 150,150 0 0 1 -0.6,150.0 Z" fill="Moccasin" stroke="black" stroke-width="1"/>
  <rect x="370" y="131" width="20" height="30" fill="Moccasin" stroke="black" stroke-width="1"/>
  <text x="400" y="2468" font-family="sans-serif" font-size="16">Windows Vista (x86) (47)</text>
  <path d="M 200,300 L -0.6,150.0 A 150,150 0 0 1 -0.6,150.0 Z" fill="Sienna" stroke="black" stroke-width="1"/>
  <rect x="370" y="132" width="20" height="30" fill="Sienna" stroke="black" stroke-width="1"/>
  <text x="400" y="2498" font-family="sans-serif" font-size="16">Windows XP (amd64) (2)</text>
  <path d="M 200,300 L -0.6,150.0 A 150,150 0 0 1 -0.4,150.0 Z" fill="BlueViolet" stroke="black" stroke-width="1"/>
  <rect x="370" y="133" width="20" height="30" fill="BlueViolet" stroke="black" stroke-width="1"/>
  <text x="400" y="2528" font-family="sans-serif" font-size="16">Windows XP (x86) (116)</text>
  <path d="M 200,300 L -0.4,150.0 A 150,150 0 0 1 -0.4,150.0 Z" fill="DeepPink" stroke="black" stroke-width="1"/>
  <rect x="370" y="134" width="20" height="30" fill="DeepPink" stroke="black" stroke-width="1"/>
  <text x="400" y="2558" font-family="sans-serif" font-size="16">z/OS (s390) (1)</text>
  <path d="M 200,300 L -0.4,150.0 A 150,150 0 0 1 -0.0,150.0 Z" fill="LightGoldenrodYellow" stroke="black" stroke-width="1"/>
  <rect x="370" y="135" width="20" height="30" fill="LightGoldenrodYellow" stroke="black" stroke-width="1"/>
  <text x="400" y="2588" font-family="sans-serif" font-size="16">z/OS (s390x) (218)</text>
</svg>
