<svg xmlns="http://www.w3.org/2000/svg" version="1.1" preserveAspectRatio="xMidYMid meet" viewBox="0 0 485 43269.9">
  <rect fill="blue" height="0.0" stroke="black" width="12" x="15" y="42969.9"/>
  <text x="15" y="42974.9" font-family="Tahoma" font-size="12" transform="rotate(90 15,42974.9)" text-rendering="optimizeSpeed" fill="#000000">com-google-jenkins-plugins-dsl-YamlProject (1)</text>
  <rect fill="blue" height="0.0" stroke="black" width="12" x="30" y="42969.9"/>
  <text x="30" y="42974.9" font-family="Tahoma" font-size="12" transform="rotate(90 30,42974.9)" text-rendering="optimizeSpeed" fill="#000000">org-jenkinsci-plugins-updatebot-ImportGithubRepoProject (1)</text>
  <rect fill="blue" height="0.0" stroke="black" width="12" x="45" y="42969.9"/>
  <text x="45" y="42974.9" font-family="Tahoma" font-size="12" transform="rotate(90 45,42974.9)" text-rendering="optimizeSpeed" fill="#000000">hudson-plugins-customer-data-template-DependencyStyleProject (2)</text>
  <rect fill="blue" height="0.0" stroke="black" width="12" x="60" y="42969.9"/>
  <text x="60" y="42974.9" font-family="Tahoma" font-size="12" transform="rotate(90 60,42974.9)" text-rendering="optimizeSpeed" fill="#000000">com-github-mjdetullio-jenkins-plugins-multibranch-IvyMultiBranchProject (3)</text>
  <rect fill="blue" height="0.0" stroke="black" width="12" x="75" y="42969.9"/>
  <text x="75" y="42974.9" font-family="Tahoma" font-size="12" transform="rotate(90 75,42974.9)" text-rendering="optimizeSpeed" fill="#000000">org-jenkinsci-plugins-drupal-projects-DrupalProject (3)</text>
  <rect fill="blue" height="0.0" stroke="black" width="12" x="90" y="42969.9"/>
  <text x="90" y="42974.9" font-family="Tahoma" font-size="12" transform="rotate(90 90,42974.9)" text-rendering="optimizeSpeed" fill="#000000">org-jvnet-hudson-test-MockFolder (3)</text>
  <rect fill="blue" height="0.0" stroke="black" width="12" x="105" y="42969.9"/>
  <text x="105" y="42974.9" font-family="Tahoma" font-size="12" transform="rotate(90 105,42974.9)" text-rendering="optimizeSpeed" fill="#000000">hudson-plugins-customer-data-template-DataWarehouseStyleProject (4)</text>
  <rect fill="blue" height="0.0" stroke="black" width="12" x="120" y="42969.9"/>
  <text x="120" y="42974.9" font-family="Tahoma" font-size="12" transform="rotate(90 120,42974.9)" text-rendering="optimizeSpeed" fill="#000000">org-jenkinsci-plugins-coordinator-dummy-model-CoordinatorProject (5)</text>
  <rect fill="blue" height="0.0" stroke="black" width="12" x="135" y="42969.9"/>
  <text x="135" y="42974.9" font-family="Tahoma" font-size="12" transform="rotate(90 135,42974.9)" text-rendering="optimizeSpeed" fill="#000000">com-barchart-jenkins-cascade-CascadeProject (18)</text>
  <rect fill="blue" height="0.0" stroke="black" width="12" x="150" y="42969.9"/>
  <text x="150" y="42974.9" font-family="Tahoma" font-size="12" transform="rotate(90 150,42974.9)" text-rendering="optimizeSpeed" fill="#000000">com-github-mjdetullio-jenkins-plugins-multibranch-MatrixMultiBranchProject (37)</text>
  <rect fill="blue" height="0.1" stroke="black" width="12" x="165" y="42969.8"/>
  <text x="165" y="42974.9" font-family="Tahoma" font-size="12" transform="rotate(90 165,42974.9)" text-rendering="optimizeSpeed" fill="#000000">hudson-plugin-smartjob-SmartJob (74)</text>
  <rect fill="blue" height="0.1" stroke="black" width="12" x="180" y="42969.8"/>
  <text x="180" y="42974.9" font-family="Tahoma" font-size="12" transform="rotate(90 180,42974.9)" text-rendering="optimizeSpeed" fill="#000000">captmorgan-ExternalProject (128)</text>
  <rect fill="blue" height="0.5" stroke="black" width="12" x="195" y="42969.4"/>
  <text x="195" y="42974.9" font-family="Tahoma" font-size="12" transform="rotate(90 195,42974.9)" text-rendering="optimizeSpeed" fill="#000000">org-jenkinsci-plugins-coordinator-model-CoordinatorProject (491)</text>
  <rect fill="blue" height="0.9" stroke="black" width="12" x="210" y="42969.0"/>
  <text x="210" y="42974.9" font-family="Tahoma" font-size="12" transform="rotate(90 210,42974.9)" text-rendering="optimizeSpeed" fill="#000000">com-github-mjdetullio-jenkins-plugins-multibranch-FreeStyleMultiBranchProject (938)</text>
  <rect fill="blue" height="1.3" stroke="black" width="12" x="225" y="42968.6"/>
  <text x="225" y="42974.9" font-family="Tahoma" font-size="12" transform="rotate(90 225,42974.9)" text-rendering="optimizeSpeed" fill="#000000">org-jenkinsci-plugins-jobgenerator-JobGenerator (1339)</text>
  <rect fill="blue" height="2.4" stroke="black" width="12" x="240" y="42967.5"/>
  <text x="240" y="42974.9" font-family="Tahoma" font-size="12" transform="rotate(90 240,42974.9)" text-rendering="optimizeSpeed" fill="#000000">hudson-ivy-IvyModuleSet (2445)</text>
  <rect fill="blue" height="4.1" stroke="black" width="12" x="255" y="42965.8"/>
  <text x="255" y="42974.9" font-family="Tahoma" font-size="12" transform="rotate(90 255,42974.9)" text-rendering="optimizeSpeed" fill="#000000">com-github-mjdetullio-jenkins-plugins-multibranch-MavenMultiBranchProject (4124)</text>
  <rect fill="blue" height="5.6" stroke="black" width="12" x="270" y="42964.3"/>
  <text x="270" y="42974.9" font-family="Tahoma" font-size="12" transform="rotate(90 270,42974.9)" text-rendering="optimizeSpeed" fill="#000000">hudson-model-ExternalJob (5577)</text>
  <rect fill="blue" height="10.1" stroke="black" width="12" x="285" y="42959.8"/>
  <text x="285" y="42974.9" font-family="Tahoma" font-size="12" transform="rotate(90 285,42974.9)" text-rendering="optimizeSpeed" fill="#000000">hudson-plugins-project_inheritance-projects-InheritanceProject (10084)</text>
  <rect fill="blue" height="15.5" stroke="black" width="12" x="300" y="42954.4"/>
  <text x="300" y="42974.9" font-family="Tahoma" font-size="12" transform="rotate(90 300,42974.9)" text-rendering="optimizeSpeed" fill="#000000">com-cloudbees-plugins-flow-BuildFlow (15517)</text>
  <rect fill="blue" height="16.2" stroke="black" width="12" x="315" y="42953.7"/>
  <text x="315" y="42974.9" font-family="Tahoma" font-size="12" transform="rotate(90 315,42974.9)" text-rendering="optimizeSpeed" fill="#000000">org-jenkinsci-plugins-pipeline-multibranch-defaults-PipelineMultiBranchDefaultsProject (16170)</text>
  <rect fill="blue" height="56.7" stroke="black" width="12" x="330" y="42913.2"/>
  <text x="330" y="42974.9" font-family="Tahoma" font-size="12" transform="rotate(90 330,42974.9)" text-rendering="optimizeSpeed" fill="#000000">jenkins-branch-OrganizationFolder (56688)</text>
  <rect fill="blue" height="246.2" stroke="black" width="12" x="345" y="42723.7"/>
  <text x="345" y="42974.9" font-family="Tahoma" font-size="12" transform="rotate(90 345,42974.9)" text-rendering="optimizeSpeed" fill="#000000">hudson-matrix-MatrixProject (246195)</text>
  <rect fill="blue" height="853.8" stroke="black" width="12" x="360" y="42116.1"/>
  <text x="360" y="42974.9" font-family="Tahoma" font-size="12" transform="rotate(90 360,42974.9)" text-rendering="optimizeSpeed" fill="#000000">com-tikal-jenkins-plugins-multijob-MultiJobProject (853844)</text>
  <rect fill="blue" height="1819.2" stroke="black" width="12" x="375" y="41150.7"/>
  <text x="375" y="42974.9" font-family="Tahoma" font-size="12" transform="rotate(90 375,42974.9)" text-rendering="optimizeSpeed" fill="#000000">org-jenkinsci-plugins-workflow-multibranch-WorkflowMultiBranchProject (1819205)</text>
  <rect fill="blue" height="2059.9" stroke="black" width="12" x="390" y="40910.0"/>
  <text x="390" y="42974.9" font-family="Tahoma" font-size="12" transform="rotate(90 390,42974.9)" text-rendering="optimizeSpeed" fill="#000000">hudson-maven-MavenModuleSet (2059947)</text>
  <rect fill="blue" height="2679.9" stroke="black" width="12" x="405" y="40290.0"/>
  <text x="405" y="42974.9" font-family="Tahoma" font-size="12" transform="rotate(90 405,42974.9)" text-rendering="optimizeSpeed" fill="#000000">com-cloudbees-hudson-plugins-folder-Folder (2679912)</text>
  <rect fill="blue" height="19442.3" stroke="black" width="12" x="420" y="23527.6"/>
  <text x="420" y="42974.9" font-family="Tahoma" font-size="12" transform="rotate(90 420,42974.9)" text-rendering="optimizeSpeed" fill="#000000">hudson-model-FreeStyleProject (19442292)</text>
  <rect fill="blue" height="42919.9" stroke="black" width="12" x="435" y="50.0"/>
  <text x="435" y="42974.9" font-family="Tahoma" font-size="12" transform="rotate(90 435,42974.9)" text-rendering="optimizeSpeed" fill="#000000">org-jenkinsci-plugins-workflow-job-WorkflowJob (42919905)</text>
  <text x="10" y="40" font-family="Tahoma" font-size="20" text-rendering="optimizeSpeed" fill="#000000">Jobs (total: 70134952)</text>
</svg>
