<svg xmlns="http://www.w3.org/2000/svg" version="1.1" preserveAspectRatio="xMidYMid meet" viewBox="0 0 470 49096.5">
  <rect fill="blue" height="0.0" stroke="black" width="12" x="15" y="48796.5"/>
  <text x="15" y="48801.5" font-family="Tahoma" font-size="12" transform="rotate(90 15,48801.5)" text-rendering="optimizeSpeed" fill="#000000">com-google-jenkins-plugins-dsl-YamlProject (1)</text>
  <rect fill="blue" height="0.0" stroke="black" width="12" x="30" y="48796.5"/>
  <text x="30" y="48801.5" font-family="Tahoma" font-size="12" transform="rotate(90 30,48801.5)" text-rendering="optimizeSpeed" fill="#000000">org-jenkinsci-plugins-updatebot-ImportGithubRepoProject (1)</text>
  <rect fill="blue" height="0.0" stroke="black" width="12" x="45" y="48796.5"/>
  <text x="45" y="48801.5" font-family="Tahoma" font-size="12" transform="rotate(90 45,48801.5)" text-rendering="optimizeSpeed" fill="#000000">com-github-mjdetullio-jenkins-plugins-multibranch-IvyMultiBranchProject (2)</text>
  <rect fill="blue" height="0.0" stroke="black" width="12" x="60" y="48796.5"/>
  <text x="60" y="48801.5" font-family="Tahoma" font-size="12" transform="rotate(90 60,48801.5)" text-rendering="optimizeSpeed" fill="#000000">hudson-plugins-customer-data-template-DependencyStyleProject (2)</text>
  <rect fill="blue" height="0.0" stroke="black" width="12" x="75" y="48796.5"/>
  <text x="75" y="48801.5" font-family="Tahoma" font-size="12" transform="rotate(90 75,48801.5)" text-rendering="optimizeSpeed" fill="#000000">org-jvnet-hudson-plugins-ade-project-IfarmProject (3)</text>
  <rect fill="blue" height="0.0" stroke="black" width="12" x="90" y="48796.5"/>
  <text x="90" y="48801.5" font-family="Tahoma" font-size="12" transform="rotate(90 90,48801.5)" text-rendering="optimizeSpeed" fill="#000000">hudson-plugins-customer-data-template-DataWarehouseStyleProject (4)</text>
  <rect fill="blue" height="0.0" stroke="black" width="12" x="105" y="48796.5"/>
  <text x="105" y="48801.5" font-family="Tahoma" font-size="12" transform="rotate(90 105,48801.5)" text-rendering="optimizeSpeed" fill="#000000">org-jenkinsci-plugins-drupal-projects-DrupalProject (6)</text>
  <rect fill="blue" height="0.0" stroke="black" width="12" x="120" y="48796.5"/>
  <text x="120" y="48801.5" font-family="Tahoma" font-size="12" transform="rotate(90 120,48801.5)" text-rendering="optimizeSpeed" fill="#000000">com-barchart-jenkins-cascade-CascadeProject (17)</text>
  <rect fill="blue" height="0.0" stroke="black" width="12" x="135" y="48796.4"/>
  <text x="135" y="48801.5" font-family="Tahoma" font-size="12" transform="rotate(90 135,48801.5)" text-rendering="optimizeSpeed" fill="#000000">com-github-mjdetullio-jenkins-plugins-multibranch-MatrixMultiBranchProject (30)</text>
  <rect fill="blue" height="0.1" stroke="black" width="12" x="150" y="48796.4"/>
  <text x="150" y="48801.5" font-family="Tahoma" font-size="12" transform="rotate(90 150,48801.5)" text-rendering="optimizeSpeed" fill="#000000">hudson-plugin-smartjob-SmartJob (70)</text>
  <rect fill="blue" height="0.1" stroke="black" width="12" x="165" y="48796.3"/>
  <text x="165" y="48801.5" font-family="Tahoma" font-size="12" transform="rotate(90 165,48801.5)" text-rendering="optimizeSpeed" fill="#000000">captmorgan-ExternalProject (131)</text>
  <rect fill="blue" height="0.5" stroke="black" width="12" x="180" y="48796.0"/>
  <text x="180" y="48801.5" font-family="Tahoma" font-size="12" transform="rotate(90 180,48801.5)" text-rendering="optimizeSpeed" fill="#000000">org-jenkinsci-plugins-coordinator-model-CoordinatorProject (454)</text>
  <rect fill="blue" height="0.9" stroke="black" width="12" x="195" y="48795.6"/>
  <text x="195" y="48801.5" font-family="Tahoma" font-size="12" transform="rotate(90 195,48801.5)" text-rendering="optimizeSpeed" fill="#000000">com-github-mjdetullio-jenkins-plugins-multibranch-FreeStyleMultiBranchProject (899)</text>
  <rect fill="blue" height="1.0" stroke="black" width="12" x="210" y="48795.4"/>
  <text x="210" y="48801.5" font-family="Tahoma" font-size="12" transform="rotate(90 210,48801.5)" text-rendering="optimizeSpeed" fill="#000000">org-jenkinsci-plugins-jobgenerator-JobGenerator (1032)</text>
  <rect fill="blue" height="2.4" stroke="black" width="12" x="225" y="48794.1"/>
  <text x="225" y="48801.5" font-family="Tahoma" font-size="12" transform="rotate(90 225,48801.5)" text-rendering="optimizeSpeed" fill="#000000">hudson-ivy-IvyModuleSet (2397)</text>
  <rect fill="blue" height="3.9" stroke="black" width="12" x="240" y="48792.6"/>
  <text x="240" y="48801.5" font-family="Tahoma" font-size="12" transform="rotate(90 240,48801.5)" text-rendering="optimizeSpeed" fill="#000000">com-github-mjdetullio-jenkins-plugins-multibranch-MavenMultiBranchProject (3892)</text>
  <rect fill="blue" height="5.7" stroke="black" width="12" x="255" y="48790.8"/>
  <text x="255" y="48801.5" font-family="Tahoma" font-size="12" transform="rotate(90 255,48801.5)" text-rendering="optimizeSpeed" fill="#000000">hudson-model-ExternalJob (5654)</text>
  <rect fill="blue" height="8.5" stroke="black" width="12" x="270" y="48788.0"/>
  <text x="270" y="48801.5" font-family="Tahoma" font-size="12" transform="rotate(90 270,48801.5)" text-rendering="optimizeSpeed" fill="#000000">hudson-plugins-project_inheritance-projects-InheritanceProject (8495)</text>
  <rect fill="blue" height="13.5" stroke="black" width="12" x="285" y="48783.0"/>
  <text x="285" y="48801.5" font-family="Tahoma" font-size="12" transform="rotate(90 285,48801.5)" text-rendering="optimizeSpeed" fill="#000000">org-jenkinsci-plugins-pipeline-multibranch-defaults-PipelineMultiBranchDefaultsProject (13495)</text>
  <rect fill="blue" height="15.1" stroke="black" width="12" x="300" y="48781.3"/>
  <text x="300" y="48801.5" font-family="Tahoma" font-size="12" transform="rotate(90 300,48801.5)" text-rendering="optimizeSpeed" fill="#000000">com-cloudbees-plugins-flow-BuildFlow (15149)</text>
  <rect fill="blue" height="54.3" stroke="black" width="12" x="315" y="48742.2"/>
  <text x="315" y="48801.5" font-family="Tahoma" font-size="12" transform="rotate(90 315,48801.5)" text-rendering="optimizeSpeed" fill="#000000">jenkins-branch-OrganizationFolder (54281)</text>
  <rect fill="blue" height="248.4" stroke="black" width="12" x="330" y="48548.1"/>
  <text x="330" y="48801.5" font-family="Tahoma" font-size="12" transform="rotate(90 330,48801.5)" text-rendering="optimizeSpeed" fill="#000000">hudson-matrix-MatrixProject (248363)</text>
  <rect fill="blue" height="882.6" stroke="black" width="12" x="345" y="47913.8"/>
  <text x="345" y="48801.5" font-family="Tahoma" font-size="12" transform="rotate(90 345,48801.5)" text-rendering="optimizeSpeed" fill="#000000">com-tikal-jenkins-plugins-multijob-MultiJobProject (882631)</text>
  <rect fill="blue" height="1850.8" stroke="black" width="12" x="360" y="46945.7"/>
  <text x="360" y="48801.5" font-family="Tahoma" font-size="12" transform="rotate(90 360,48801.5)" text-rendering="optimizeSpeed" fill="#000000">org-jenkinsci-plugins-workflow-multibranch-WorkflowMultiBranchProject (1850792)</text>
  <rect fill="blue" height="2048.0" stroke="black" width="12" x="375" y="46748.5"/>
  <text x="375" y="48801.5" font-family="Tahoma" font-size="12" transform="rotate(90 375,48801.5)" text-rendering="optimizeSpeed" fill="#000000">hudson-maven-MavenModuleSet (2048023)</text>
  <rect fill="blue" height="2769.4" stroke="black" width="12" x="390" y="46027.1"/>
  <text x="390" y="48801.5" font-family="Tahoma" font-size="12" transform="rotate(90 390,48801.5)" text-rendering="optimizeSpeed" fill="#000000">com-cloudbees-hudson-plugins-folder-Folder (2769361)</text>
  <rect fill="blue" height="19705.6" stroke="black" width="12" x="405" y="29090.9"/>
  <text x="405" y="48801.5" font-family="Tahoma" font-size="12" transform="rotate(90 405,48801.5)" text-rendering="optimizeSpeed" fill="#000000">hudson-model-FreeStyleProject (19705604)</text>
  <rect fill="blue" height="48746.5" stroke="black" width="12" x="420" y="50.0"/>
  <text x="420" y="48801.5" font-family="Tahoma" font-size="12" transform="rotate(90 420,48801.5)" text-rendering="optimizeSpeed" fill="#000000">org-jenkinsci-plugins-workflow-job-WorkflowJob (48746478)</text>
  <text x="10" y="40" font-family="Tahoma" font-size="20" text-rendering="optimizeSpeed" fill="#000000">Jobs (total: 76357267)</text>
</svg>
