<svg xmlns="http://www.w3.org/2000/svg" version="1.1" preserveAspectRatio="xMidYMid meet" viewBox="0 0 500 50320.8">
  <rect fill="blue" height="0.0" stroke="black" width="12" x="15" y="50020.8"/>
  <text x="15" y="50025.8" font-family="Tahoma" font-size="12" transform="rotate(90 15,50025.8)" text-rendering="optimizeSpeed" fill="#000000">com-google-jenkins-plugins-dsl-YamlProject (1)</text>
  <rect fill="blue" height="0.0" stroke="black" width="12" x="30" y="50020.8"/>
  <text x="30" y="50025.8" font-family="Tahoma" font-size="12" transform="rotate(90 30,50025.8)" text-rendering="optimizeSpeed" fill="#000000">org-jenkinsci-plugins-jobexecutors-toplevelitems-StoreVersion (1)</text>
  <rect fill="blue" height="0.0" stroke="black" width="12" x="45" y="50020.8"/>
  <text x="45" y="50025.8" font-family="Tahoma" font-size="12" transform="rotate(90 45,50025.8)" text-rendering="optimizeSpeed" fill="#000000">org-jenkinsci-plugins-updatebot-ImportGithubRepoProject (1)</text>
  <rect fill="blue" height="0.0" stroke="black" width="12" x="60" y="50020.8"/>
  <text x="60" y="50025.8" font-family="Tahoma" font-size="12" transform="rotate(90 60,50025.8)" text-rendering="optimizeSpeed" fill="#000000">com-github-mjdetullio-jenkins-plugins-multibranch-IvyMultiBranchProject (2)</text>
  <rect fill="blue" height="0.0" stroke="black" width="12" x="75" y="50020.8"/>
  <text x="75" y="50025.8" font-family="Tahoma" font-size="12" transform="rotate(90 75,50025.8)" text-rendering="optimizeSpeed" fill="#000000">hudson-plugins-customer-data-template-DependencyStyleProject (2)</text>
  <rect fill="blue" height="0.0" stroke="black" width="12" x="90" y="50020.8"/>
  <text x="90" y="50025.8" font-family="Tahoma" font-size="12" transform="rotate(90 90,50025.8)" text-rendering="optimizeSpeed" fill="#000000">org-jenkinsci-plugins-jobexecutors-toplevelitems-PortalNotifier (2)</text>
  <rect fill="blue" height="0.0" stroke="black" width="12" x="105" y="50020.8"/>
  <text x="105" y="50025.8" font-family="Tahoma" font-size="12" transform="rotate(90 105,50025.8)" text-rendering="optimizeSpeed" fill="#000000">org-jenkinsci-plugins-drupal-projects-DrupalProject (4)</text>
  <rect fill="blue" height="0.0" stroke="black" width="12" x="120" y="50020.8"/>
  <text x="120" y="50025.8" font-family="Tahoma" font-size="12" transform="rotate(90 120,50025.8)" text-rendering="optimizeSpeed" fill="#000000">hudson-plugins-customer-data-template-DataWarehouseStyleProject (5)</text>
  <rect fill="blue" height="0.0" stroke="black" width="12" x="135" y="50020.8"/>
  <text x="135" y="50025.8" font-family="Tahoma" font-size="12" transform="rotate(90 135,50025.8)" text-rendering="optimizeSpeed" fill="#000000">org-jvnet-hudson-plugins-ade-project-IfarmProject (10)</text>
  <rect fill="blue" height="0.0" stroke="black" width="12" x="150" y="50020.8"/>
  <text x="150" y="50025.8" font-family="Tahoma" font-size="12" transform="rotate(90 150,50025.8)" text-rendering="optimizeSpeed" fill="#000000">com-barchart-jenkins-cascade-CascadeProject (18)</text>
  <rect fill="blue" height="0.0" stroke="black" width="12" x="165" y="50020.7"/>
  <text x="165" y="50025.8" font-family="Tahoma" font-size="12" transform="rotate(90 165,50025.8)" text-rendering="optimizeSpeed" fill="#000000">com-github-mjdetullio-jenkins-plugins-multibranch-MatrixMultiBranchProject (48)</text>
  <rect fill="blue" height="0.1" stroke="black" width="12" x="180" y="50020.7"/>
  <text x="180" y="50025.8" font-family="Tahoma" font-size="12" transform="rotate(90 180,50025.8)" text-rendering="optimizeSpeed" fill="#000000">hudson-plugin-smartjob-SmartJob (56)</text>
  <rect fill="blue" height="0.1" stroke="black" width="12" x="195" y="50020.6"/>
  <text x="195" y="50025.8" font-family="Tahoma" font-size="12" transform="rotate(90 195,50025.8)" text-rendering="optimizeSpeed" fill="#000000">captmorgan-ExternalProject (132)</text>
  <rect fill="blue" height="0.5" stroke="black" width="12" x="210" y="50020.3"/>
  <text x="210" y="50025.8" font-family="Tahoma" font-size="12" transform="rotate(90 210,50025.8)" text-rendering="optimizeSpeed" fill="#000000">org-jenkinsci-plugins-coordinator-model-CoordinatorProject (490)</text>
  <rect fill="blue" height="0.9" stroke="black" width="12" x="225" y="50019.8"/>
  <text x="225" y="50025.8" font-family="Tahoma" font-size="12" transform="rotate(90 225,50025.8)" text-rendering="optimizeSpeed" fill="#000000">com-github-mjdetullio-jenkins-plugins-multibranch-FreeStyleMultiBranchProject (933)</text>
  <rect fill="blue" height="1.2" stroke="black" width="12" x="240" y="50019.6"/>
  <text x="240" y="50025.8" font-family="Tahoma" font-size="12" transform="rotate(90 240,50025.8)" text-rendering="optimizeSpeed" fill="#000000">org-jenkinsci-plugins-jobgenerator-JobGenerator (1168)</text>
  <rect fill="blue" height="3.0" stroke="black" width="12" x="255" y="50017.7"/>
  <text x="255" y="50025.8" font-family="Tahoma" font-size="12" transform="rotate(90 255,50025.8)" text-rendering="optimizeSpeed" fill="#000000">hudson-ivy-IvyModuleSet (3037)</text>
  <rect fill="blue" height="3.7" stroke="black" width="12" x="270" y="50017.0"/>
  <text x="270" y="50025.8" font-family="Tahoma" font-size="12" transform="rotate(90 270,50025.8)" text-rendering="optimizeSpeed" fill="#000000">com-github-mjdetullio-jenkins-plugins-multibranch-MavenMultiBranchProject (3745)</text>
  <rect fill="blue" height="5.8" stroke="black" width="12" x="285" y="50014.9"/>
  <text x="285" y="50025.8" font-family="Tahoma" font-size="12" transform="rotate(90 285,50025.8)" text-rendering="optimizeSpeed" fill="#000000">hudson-model-ExternalJob (5838)</text>
  <rect fill="blue" height="12.1" stroke="black" width="12" x="300" y="50008.7"/>
  <text x="300" y="50025.8" font-family="Tahoma" font-size="12" transform="rotate(90 300,50025.8)" text-rendering="optimizeSpeed" fill="#000000">org-jenkinsci-plugins-pipeline-multibranch-defaults-PipelineMultiBranchDefaultsProject (12086)</text>
  <rect fill="blue" height="12.9" stroke="black" width="12" x="315" y="50007.8"/>
  <text x="315" y="50025.8" font-family="Tahoma" font-size="12" transform="rotate(90 315,50025.8)" text-rendering="optimizeSpeed" fill="#000000">hudson-plugins-project_inheritance-projects-InheritanceProject (12950)</text>
  <rect fill="blue" height="18.4" stroke="black" width="12" x="330" y="50002.4"/>
  <text x="330" y="50025.8" font-family="Tahoma" font-size="12" transform="rotate(90 330,50025.8)" text-rendering="optimizeSpeed" fill="#000000">com-cloudbees-plugins-flow-BuildFlow (18385)</text>
  <rect fill="blue" height="54.8" stroke="black" width="12" x="345" y="49966.0"/>
  <text x="345" y="50025.8" font-family="Tahoma" font-size="12" transform="rotate(90 345,50025.8)" text-rendering="optimizeSpeed" fill="#000000">jenkins-branch-OrganizationFolder (54827)</text>
  <rect fill="blue" height="243.6" stroke="black" width="12" x="360" y="49777.2"/>
  <text x="360" y="50025.8" font-family="Tahoma" font-size="12" transform="rotate(90 360,50025.8)" text-rendering="optimizeSpeed" fill="#000000">hudson-matrix-MatrixProject (243616)</text>
  <rect fill="blue" height="1004.5" stroke="black" width="12" x="375" y="49016.3"/>
  <text x="375" y="50025.8" font-family="Tahoma" font-size="12" transform="rotate(90 375,50025.8)" text-rendering="optimizeSpeed" fill="#000000">com-tikal-jenkins-plugins-multijob-MultiJobProject (1004451)</text>
  <rect fill="blue" height="1876.0" stroke="black" width="12" x="390" y="48144.7"/>
  <text x="390" y="50025.8" font-family="Tahoma" font-size="12" transform="rotate(90 390,50025.8)" text-rendering="optimizeSpeed" fill="#000000">org-jenkinsci-plugins-workflow-multibranch-WorkflowMultiBranchProject (1876046)</text>
  <rect fill="blue" height="2162.7" stroke="black" width="12" x="405" y="47858.1"/>
  <text x="405" y="50025.8" font-family="Tahoma" font-size="12" transform="rotate(90 405,50025.8)" text-rendering="optimizeSpeed" fill="#000000">hudson-maven-MavenModuleSet (2162691)</text>
  <rect fill="blue" height="2883.9" stroke="black" width="12" x="420" y="47136.9"/>
  <text x="420" y="50025.8" font-family="Tahoma" font-size="12" transform="rotate(90 420,50025.8)" text-rendering="optimizeSpeed" fill="#000000">com-cloudbees-hudson-plugins-folder-Folder (2883860)</text>
  <rect fill="blue" height="20130.0" stroke="black" width="12" x="435" y="29890.7"/>
  <text x="435" y="50025.8" font-family="Tahoma" font-size="12" transform="rotate(90 435,50025.8)" text-rendering="optimizeSpeed" fill="#000000">hudson-model-FreeStyleProject (20130041)</text>
  <rect fill="blue" height="49970.8" stroke="black" width="12" x="450" y="50.0"/>
  <text x="450" y="50025.8" font-family="Tahoma" font-size="12" transform="rotate(90 450,50025.8)" text-rendering="optimizeSpeed" fill="#000000">org-jenkinsci-plugins-workflow-job-WorkflowJob (49970781)</text>
  <text x="10" y="40" font-family="Tahoma" font-size="20" text-rendering="optimizeSpeed" fill="#000000">Jobs (total: 78385227)</text>
</svg>
