<svg xmlns="http://www.w3.org/2000/svg" version="1.1" preserveAspectRatio="xMidYMid meet" viewBox="0 0 485 44064.0">
  <rect fill="blue" height="0.0" stroke="black" width="12" x="15" y="43764.0"/>
  <text x="15" y="43769.0" font-family="Tahoma" font-size="12" transform="rotate(90 15,43769.0)" text-rendering="optimizeSpeed" fill="#000000">com-google-jenkins-plugins-dsl-YamlProject (1)</text>
  <rect fill="blue" height="0.0" stroke="black" width="12" x="30" y="43764.0"/>
  <text x="30" y="43769.0" font-family="Tahoma" font-size="12" transform="rotate(90 30,43769.0)" text-rendering="optimizeSpeed" fill="#000000">org-jenkinsci-plugins-updatebot-ImportGithubRepoProject (1)</text>
  <rect fill="blue" height="0.0" stroke="black" width="12" x="45" y="43764.0"/>
  <text x="45" y="43769.0" font-family="Tahoma" font-size="12" transform="rotate(90 45,43769.0)" text-rendering="optimizeSpeed" fill="#000000">hudson-plugins-customer-data-template-DependencyStyleProject (2)</text>
  <rect fill="blue" height="0.0" stroke="black" width="12" x="60" y="43764.0"/>
  <text x="60" y="43769.0" font-family="Tahoma" font-size="12" transform="rotate(90 60,43769.0)" text-rendering="optimizeSpeed" fill="#000000">com-github-mjdetullio-jenkins-plugins-multibranch-IvyMultiBranchProject (3)</text>
  <rect fill="blue" height="0.0" stroke="black" width="12" x="75" y="43764.0"/>
  <text x="75" y="43769.0" font-family="Tahoma" font-size="12" transform="rotate(90 75,43769.0)" text-rendering="optimizeSpeed" fill="#000000">org-jvnet-hudson-test-MockFolder (3)</text>
  <rect fill="blue" height="0.0" stroke="black" width="12" x="90" y="43764.0"/>
  <text x="90" y="43769.0" font-family="Tahoma" font-size="12" transform="rotate(90 90,43769.0)" text-rendering="optimizeSpeed" fill="#000000">hudson-plugins-customer-data-template-DataWarehouseStyleProject (4)</text>
  <rect fill="blue" height="0.0" stroke="black" width="12" x="105" y="43764.0"/>
  <text x="105" y="43769.0" font-family="Tahoma" font-size="12" transform="rotate(90 105,43769.0)" text-rendering="optimizeSpeed" fill="#000000">org-jenkinsci-plugins-drupal-projects-DrupalProject (4)</text>
  <rect fill="blue" height="0.0" stroke="black" width="12" x="120" y="43764.0"/>
  <text x="120" y="43769.0" font-family="Tahoma" font-size="12" transform="rotate(90 120,43769.0)" text-rendering="optimizeSpeed" fill="#000000">org-jenkinsci-plugins-coordinator-dummy-model-CoordinatorProject (5)</text>
  <rect fill="blue" height="0.0" stroke="black" width="12" x="135" y="43764.0"/>
  <text x="135" y="43769.0" font-family="Tahoma" font-size="12" transform="rotate(90 135,43769.0)" text-rendering="optimizeSpeed" fill="#000000">com-barchart-jenkins-cascade-CascadeProject (20)</text>
  <rect fill="blue" height="0.0" stroke="black" width="12" x="150" y="43764.0"/>
  <text x="150" y="43769.0" font-family="Tahoma" font-size="12" transform="rotate(90 150,43769.0)" text-rendering="optimizeSpeed" fill="#000000">com-github-mjdetullio-jenkins-plugins-multibranch-MatrixMultiBranchProject (30)</text>
  <rect fill="blue" height="0.1" stroke="black" width="12" x="165" y="43763.9"/>
  <text x="165" y="43769.0" font-family="Tahoma" font-size="12" transform="rotate(90 165,43769.0)" text-rendering="optimizeSpeed" fill="#000000">hudson-plugin-smartjob-SmartJob (74)</text>
  <rect fill="blue" height="0.2" stroke="black" width="12" x="180" y="43763.9"/>
  <text x="180" y="43769.0" font-family="Tahoma" font-size="12" transform="rotate(90 180,43769.0)" text-rendering="optimizeSpeed" fill="#000000">captmorgan-ExternalProject (162)</text>
  <rect fill="blue" height="0.4" stroke="black" width="12" x="195" y="43763.7"/>
  <text x="195" y="43769.0" font-family="Tahoma" font-size="12" transform="rotate(90 195,43769.0)" text-rendering="optimizeSpeed" fill="#000000">org-jenkinsci-plugins-coordinator-model-CoordinatorProject (371)</text>
  <rect fill="blue" height="1.0" stroke="black" width="12" x="210" y="43763.1"/>
  <text x="210" y="43769.0" font-family="Tahoma" font-size="12" transform="rotate(90 210,43769.0)" text-rendering="optimizeSpeed" fill="#000000">com-github-mjdetullio-jenkins-plugins-multibranch-FreeStyleMultiBranchProject (958)</text>
  <rect fill="blue" height="1.1" stroke="black" width="12" x="225" y="43762.9"/>
  <text x="225" y="43769.0" font-family="Tahoma" font-size="12" transform="rotate(90 225,43769.0)" text-rendering="optimizeSpeed" fill="#000000">org-jenkinsci-plugins-jobgenerator-JobGenerator (1096)</text>
  <rect fill="blue" height="2.4" stroke="black" width="12" x="240" y="43761.6"/>
  <text x="240" y="43769.0" font-family="Tahoma" font-size="12" transform="rotate(90 240,43769.0)" text-rendering="optimizeSpeed" fill="#000000">hudson-ivy-IvyModuleSet (2449)</text>
  <rect fill="blue" height="4.0" stroke="black" width="12" x="255" y="43760.0"/>
  <text x="255" y="43769.0" font-family="Tahoma" font-size="12" transform="rotate(90 255,43769.0)" text-rendering="optimizeSpeed" fill="#000000">com-github-mjdetullio-jenkins-plugins-multibranch-MavenMultiBranchProject (3987)</text>
  <rect fill="blue" height="5.4" stroke="black" width="12" x="270" y="43758.6"/>
  <text x="270" y="43769.0" font-family="Tahoma" font-size="12" transform="rotate(90 270,43769.0)" text-rendering="optimizeSpeed" fill="#000000">hudson-model-ExternalJob (5388)</text>
  <rect fill="blue" height="9.4" stroke="black" width="12" x="285" y="43754.7"/>
  <text x="285" y="43769.0" font-family="Tahoma" font-size="12" transform="rotate(90 285,43769.0)" text-rendering="optimizeSpeed" fill="#000000">hudson-plugins-project_inheritance-projects-InheritanceProject (9359)</text>
  <rect fill="blue" height="14.5" stroke="black" width="12" x="300" y="43749.5"/>
  <text x="300" y="43769.0" font-family="Tahoma" font-size="12" transform="rotate(90 300,43769.0)" text-rendering="optimizeSpeed" fill="#000000">com-cloudbees-plugins-flow-BuildFlow (14503)</text>
  <rect fill="blue" height="17.2" stroke="black" width="12" x="315" y="43746.8"/>
  <text x="315" y="43769.0" font-family="Tahoma" font-size="12" transform="rotate(90 315,43769.0)" text-rendering="optimizeSpeed" fill="#000000">org-jenkinsci-plugins-pipeline-multibranch-defaults-PipelineMultiBranchDefaultsProject (17238)</text>
  <rect fill="blue" height="51.2" stroke="black" width="12" x="330" y="43712.8"/>
  <text x="330" y="43769.0" font-family="Tahoma" font-size="12" transform="rotate(90 330,43769.0)" text-rendering="optimizeSpeed" fill="#000000">jenkins-branch-OrganizationFolder (51174)</text>
  <rect fill="blue" height="242.1" stroke="black" width="12" x="345" y="43521.9"/>
  <text x="345" y="43769.0" font-family="Tahoma" font-size="12" transform="rotate(90 345,43769.0)" text-rendering="optimizeSpeed" fill="#000000">hudson-matrix-MatrixProject (242148)</text>
  <rect fill="blue" height="754.0" stroke="black" width="12" x="360" y="43010.0"/>
  <text x="360" y="43769.0" font-family="Tahoma" font-size="12" transform="rotate(90 360,43769.0)" text-rendering="optimizeSpeed" fill="#000000">com-tikal-jenkins-plugins-multijob-MultiJobProject (754049)</text>
  <rect fill="blue" height="1787.6" stroke="black" width="12" x="375" y="41976.5"/>
  <text x="375" y="43769.0" font-family="Tahoma" font-size="12" transform="rotate(90 375,43769.0)" text-rendering="optimizeSpeed" fill="#000000">org-jenkinsci-plugins-workflow-multibranch-WorkflowMultiBranchProject (1787572)</text>
  <rect fill="blue" height="1913.6" stroke="black" width="12" x="390" y="41850.4"/>
  <text x="390" y="43769.0" font-family="Tahoma" font-size="12" transform="rotate(90 390,43769.0)" text-rendering="optimizeSpeed" fill="#000000">hudson-maven-MavenModuleSet (1913587)</text>
  <rect fill="blue" height="2654.4" stroke="black" width="12" x="405" y="41109.6"/>
  <text x="405" y="43769.0" font-family="Tahoma" font-size="12" transform="rotate(90 405,43769.0)" text-rendering="optimizeSpeed" fill="#000000">com-cloudbees-hudson-plugins-folder-Folder (2654383)</text>
  <rect fill="blue" height="18352.3" stroke="black" width="12" x="420" y="25411.7"/>
  <text x="420" y="43769.0" font-family="Tahoma" font-size="12" transform="rotate(90 420,43769.0)" text-rendering="optimizeSpeed" fill="#000000">hudson-model-FreeStyleProject (18352304)</text>
  <rect fill="blue" height="43714.0" stroke="black" width="12" x="435" y="50.0"/>
  <text x="435" y="43769.0" font-family="Tahoma" font-size="12" transform="rotate(90 435,43769.0)" text-rendering="optimizeSpeed" fill="#000000">org-jenkinsci-plugins-workflow-job-WorkflowJob (43714023)</text>
  <text x="10" y="40" font-family="Tahoma" font-size="20" text-rendering="optimizeSpeed" fill="#000000">Jobs (total: 69524898)</text>
</svg>
