<svg xmlns="http://www.w3.org/2000/svg" version="1.1" preserveAspectRatio="xMidYMid meet" viewBox="0 0 1280 60056.2">
  <rect fill="blue" height="0.1" stroke="black" width="12" x="15" y="59756.1"/>
  <text x="15" y="59761.2" font-family="Tahoma" font-size="12" transform="rotate(90 15,59761.2)" text-rendering="optimizeSpeed" fill="#000000">Darwin (ppc) (1)</text>
  <rect fill="blue" height="0.1" stroke="black" width="12" x="30" y="59756.1"/>
  <text x="30" y="59761.2" font-family="Tahoma" font-size="12" transform="rotate(90 30,59761.2)" text-rendering="optimizeSpeed" fill="#000000">DragonFlyBSD (amd64) (1)</text>
  <rect fill="blue" height="0.1" stroke="black" width="12" x="45" y="59756.1"/>
  <text x="45" y="59761.2" font-family="Tahoma" font-size="12" transform="rotate(90 45,59761.2)" text-rendering="optimizeSpeed" fill="#000000">HP-UX (PA_RISC2.0W) (1)</text>
  <rect fill="blue" height="0.1" stroke="black" width="12" x="60" y="59756.1"/>
  <text x="60" y="59761.2" font-family="Tahoma" font-size="12" transform="rotate(90 60,59761.2)" text-rendering="optimizeSpeed" fill="#000000">Linux (sparcv9) (1)</text>
  <rect fill="blue" height="0.1" stroke="black" width="12" x="75" y="59756.1"/>
  <text x="75" y="59761.2" font-family="Tahoma" font-size="12" transform="rotate(90 75,59761.2)" text-rendering="optimizeSpeed" fill="#000000">Linux (zArch_64) (1)</text>
  <rect fill="blue" height="0.1" stroke="black" width="12" x="90" y="59756.1"/>
  <text x="90" y="59761.2" font-family="Tahoma" font-size="12" transform="rotate(90 90,59761.2)" text-rendering="optimizeSpeed" fill="#000000">NetBSD (i386) (1)</text>
  <rect fill="blue" height="0.1" stroke="black" width="12" x="105" y="59756.1"/>
  <text x="105" y="59761.2" font-family="Tahoma" font-size="12" transform="rotate(90 105,59761.2)" text-rendering="optimizeSpeed" fill="#000000">OpenBSD (aarch64) (1)</text>
  <rect fill="blue" height="0.1" stroke="black" width="12" x="120" y="59756.1"/>
  <text x="120" y="59761.2" font-family="Tahoma" font-size="12" transform="rotate(90 120,59761.2)" text-rendering="optimizeSpeed" fill="#000000">Windows 10 (aarch64) (1)</text>
  <rect fill="blue" height="0.1" stroke="black" width="12" x="135" y="59756.1"/>
  <text x="135" y="59761.2" font-family="Tahoma" font-size="12" transform="rotate(90 135,59761.2)" text-rendering="optimizeSpeed" fill="#000000">Windows Vista (amd64) (1)</text>
  <rect fill="blue" height="0.1" stroke="black" width="12" x="150" y="59756.1"/>
  <text x="150" y="59761.2" font-family="Tahoma" font-size="12" transform="rotate(90 150,59761.2)" text-rendering="optimizeSpeed" fill="#000000">Windows XP (amd64) (1)</text>
  <rect fill="blue" height="0.1" stroke="black" width="12" x="165" y="59756.1"/>
  <text x="165" y="59761.2" font-family="Tahoma" font-size="12" transform="rotate(90 165,59761.2)" text-rendering="optimizeSpeed" fill="#000000">z/OS (s390) (1)</text>
  <rect fill="blue" height="0.2" stroke="black" width="12" x="180" y="59756.0"/>
  <text x="180" y="59761.2" font-family="Tahoma" font-size="12" transform="rotate(90 180,59761.2)" text-rendering="optimizeSpeed" fill="#000000">NONSTOP_KERNEL (IA64N) (2)</text>
  <rect fill="blue" height="0.2" stroke="black" width="12" x="195" y="59756.0"/>
  <text x="195" y="59761.2" font-family="Tahoma" font-size="12" transform="rotate(90 195,59761.2)" text-rendering="optimizeSpeed" fill="#000000">Windows Vista (x86) (2)</text>
  <rect fill="blue" height="0.3" stroke="black" width="12" x="210" y="59755.9"/>
  <text x="210" y="59761.2" font-family="Tahoma" font-size="12" transform="rotate(90 210,59761.2)" text-rendering="optimizeSpeed" fill="#000000">Linux (e2k) (3)</text>
  <rect fill="blue" height="0.3" stroke="black" width="12" x="225" y="59755.9"/>
  <text x="225" y="59761.2" font-family="Tahoma" font-size="12" transform="rotate(90 225,59761.2)" text-rendering="optimizeSpeed" fill="#000000">NetBSD (amd64) (3)</text>
  <rect fill="blue" height="0.4" stroke="black" width="12" x="240" y="59755.8"/>
  <text x="240" y="59761.2" font-family="Tahoma" font-size="12" transform="rotate(90 240,59761.2)" text-rendering="optimizeSpeed" fill="#000000">FreeBSD (aarch64) (4)</text>
  <rect fill="blue" height="0.4" stroke="black" width="12" x="255" y="59755.8"/>
  <text x="255" y="59761.2" font-family="Tahoma" font-size="12" transform="rotate(90 255,59761.2)" text-rendering="optimizeSpeed" fill="#000000">Windows Server 2016 Standard (amd64) (4)</text>
  <rect fill="blue" height="0.5" stroke="black" width="12" x="270" y="59755.7"/>
  <text x="270" y="59761.2" font-family="Tahoma" font-size="12" transform="rotate(90 270,59761.2)" text-rendering="optimizeSpeed" fill="#000000">HP-UX (ia64) (5)</text>
  <rect fill="blue" height="0.6" stroke="black" width="12" x="285" y="59755.6"/>
  <text x="285" y="59761.2" font-family="Tahoma" font-size="12" transform="rotate(90 285,59761.2)" text-rendering="optimizeSpeed" fill="#000000">OS/400 (ppc) (6)</text>
  <rect fill="blue" height="0.8" stroke="black" width="12" x="300" y="59755.4"/>
  <text x="300" y="59761.2" font-family="Tahoma" font-size="12" transform="rotate(90 300,59761.2)" text-rendering="optimizeSpeed" fill="#000000">HP-UX (PA_RISC2.0) (8)</text>
  <rect fill="blue" height="1.0" stroke="black" width="12" x="315" y="59755.2"/>
  <text x="315" y="59761.2" font-family="Tahoma" font-size="12" transform="rotate(90 315,59761.2)" text-rendering="optimizeSpeed" fill="#000000">OS400 (ppc64) (10)</text>
  <rect fill="blue" height="1.2" stroke="black" width="12" x="330" y="59755.0"/>
  <text x="330" y="59761.2" font-family="Tahoma" font-size="12" transform="rotate(90 330,59761.2)" text-rendering="optimizeSpeed" fill="#000000">Linux (ppc) (12)</text>
  <rect fill="blue" height="1.3" stroke="black" width="12" x="345" y="59754.9"/>
  <text x="345" y="59761.2" font-family="Tahoma" font-size="12" transform="rotate(90 345,59761.2)" text-rendering="optimizeSpeed" fill="#000000">NONSTOP_KERNEL (x86_64N) (13)</text>
  <rect fill="blue" height="1.4" stroke="black" width="12" x="360" y="59754.8"/>
  <text x="360" y="59761.2" font-family="Tahoma" font-size="12" transform="rotate(90 360,59761.2)" text-rendering="optimizeSpeed" fill="#000000">Windows 11 (aarch64) (14)</text>
  <rect fill="blue" height="1.4" stroke="black" width="12" x="375" y="59754.8"/>
  <text x="375" y="59761.2" font-family="Tahoma" font-size="12" transform="rotate(90 375,59761.2)" text-rendering="optimizeSpeed" fill="#000000">Windows 2003 (amd64) (14)</text>
  <rect fill="blue" height="1.7" stroke="black" width="12" x="390" y="59754.5"/>
  <text x="390" y="59761.2" font-family="Tahoma" font-size="12" transform="rotate(90 390,59761.2)" text-rendering="optimizeSpeed" fill="#000000">OS/400 (ppc64) (17)</text>
  <rect fill="blue" height="2.1" stroke="black" width="12" x="405" y="59754.1"/>
  <text x="405" y="59761.2" font-family="Tahoma" font-size="12" transform="rotate(90 405,59761.2)" text-rendering="optimizeSpeed" fill="#000000">Linux (x86) (21)</text>
  <rect fill="blue" height="2.2" stroke="black" width="12" x="420" y="59754.0"/>
  <text x="420" y="59761.2" font-family="Tahoma" font-size="12" transform="rotate(90 420,59761.2)" text-rendering="optimizeSpeed" fill="#000000">FreeBSD (i386) (22)</text>
  <rect fill="blue" height="2.4" stroke="black" width="12" x="435" y="59753.8"/>
  <text x="435" y="59761.2" font-family="Tahoma" font-size="12" transform="rotate(90 435,59761.2)" text-rendering="optimizeSpeed" fill="#000000">OpenBSD (amd64) (24)</text>
  <rect fill="blue" height="2.7" stroke="black" width="12" x="450" y="59753.5"/>
  <text x="450" y="59761.2" font-family="Tahoma" font-size="12" transform="rotate(90 450,59761.2)" text-rendering="optimizeSpeed" fill="#000000">Linux (sw64) (27)</text>
  <rect fill="blue" height="2.8" stroke="black" width="12" x="465" y="59753.4"/>
  <text x="465" y="59761.2" font-family="Tahoma" font-size="12" transform="rotate(90 465,59761.2)" text-rendering="optimizeSpeed" fill="#000000">HP-UX (IA64W) (28)</text>
  <rect fill="blue" height="3.1" stroke="black" width="12" x="480" y="59753.1"/>
  <text x="480" y="59761.2" font-family="Tahoma" font-size="12" transform="rotate(90 480,59761.2)" text-rendering="optimizeSpeed" fill="#000000">Linux (riscv64) (31)</text>
  <rect fill="blue" height="3.1" stroke="black" width="12" x="495" y="59753.1"/>
  <text x="495" y="59761.2" font-family="Tahoma" font-size="12" transform="rotate(90 495,59761.2)" text-rendering="optimizeSpeed" fill="#000000">Windows Server version 2009 (amd64) (31)</text>
  <rect fill="blue" height="4.7" stroke="black" width="12" x="510" y="59751.5"/>
  <text x="510" y="59761.2" font-family="Tahoma" font-size="12" transform="rotate(90 510,59761.2)" text-rendering="optimizeSpeed" fill="#000000">Linux (mips64el) (47)</text>
  <rect fill="blue" height="4.9" stroke="black" width="12" x="525" y="59751.3"/>
  <text x="525" y="59761.2" font-family="Tahoma" font-size="12" transform="rotate(90 525,59761.2)" text-rendering="optimizeSpeed" fill="#000000">Windows 8 (x86) (49)</text>
  <rect fill="blue" height="5.1" stroke="black" width="12" x="540" y="59751.1"/>
  <text x="540" y="59761.2" font-family="Tahoma" font-size="12" transform="rotate(90 540,59761.2)" text-rendering="optimizeSpeed" fill="#000000">AIX (ppc) (51)</text>
  <rect fill="blue" height="5.4" stroke="black" width="12" x="555" y="59750.8"/>
  <text x="555" y="59761.2" font-family="Tahoma" font-size="12" transform="rotate(90 555,59761.2)" text-rendering="optimizeSpeed" fill="#000000">Linux (ppc64) (54)</text>
  <rect fill="blue" height="5.4" stroke="black" width="12" x="570" y="59750.8"/>
  <text x="570" y="59761.2" font-family="Tahoma" font-size="12" transform="rotate(90 570,59761.2)" text-rendering="optimizeSpeed" fill="#000000">SunOS (sparc) (54)</text>
  <rect fill="blue" height="6.4" stroke="black" width="12" x="585" y="59749.8"/>
  <text x="585" y="59761.2" font-family="Tahoma" font-size="12" transform="rotate(90 585,59761.2)" text-rendering="optimizeSpeed" fill="#000000">Windows 8 (amd64) (64)</text>
  <rect fill="blue" height="7.3" stroke="black" width="12" x="600" y="59748.9"/>
  <text x="600" y="59761.2" font-family="Tahoma" font-size="12" transform="rotate(90 600,59761.2)" text-rendering="optimizeSpeed" fill="#000000">SunOS (x86) (73)</text>
  <rect fill="blue" height="7.3" stroke="black" width="12" x="615" y="59748.9"/>
  <text x="615" y="59761.2" font-family="Tahoma" font-size="12" transform="rotate(90 615,59761.2)" text-rendering="optimizeSpeed" fill="#000000">Windows Server 2008 (amd64) (73)</text>
  <rect fill="blue" height="7.9" stroke="black" width="12" x="630" y="59748.3"/>
  <text x="630" y="59761.2" font-family="Tahoma" font-size="12" transform="rotate(90 630,59761.2)" text-rendering="optimizeSpeed" fill="#000000">Windows XP (x86) (79)</text>
  <rect fill="blue" height="8.7" stroke="black" width="12" x="645" y="59747.5"/>
  <text x="645" y="59761.2" font-family="Tahoma" font-size="12" transform="rotate(90 645,59761.2)" text-rendering="optimizeSpeed" fill="#000000">Windows Server 2008 (x86) (87)</text>
  <rect fill="blue" height="8.8" stroke="black" width="12" x="660" y="59747.4"/>
  <text x="660" y="59761.2" font-family="Tahoma" font-size="12" transform="rotate(90 660,59761.2)" text-rendering="optimizeSpeed" fill="#000000">Linux (loongarch64) (88)</text>
  <rect fill="blue" height="10.3" stroke="black" width="12" x="675" y="59745.9"/>
  <text x="675" y="59761.2" font-family="Tahoma" font-size="12" transform="rotate(90 675,59761.2)" text-rendering="optimizeSpeed" fill="#000000">Windows 2003 (x86) (103)</text>
  <rect fill="blue" height="18.3" stroke="black" width="12" x="690" y="59737.9"/>
  <text x="690" y="59761.2" font-family="Tahoma" font-size="12" transform="rotate(90 690,59761.2)" text-rendering="optimizeSpeed" fill="#000000">z/OS (s390x) (183)</text>
  <rect fill="blue" height="19.1" stroke="black" width="12" x="705" y="59737.1"/>
  <text x="705" y="59761.2" font-family="Tahoma" font-size="12" transform="rotate(90 705,59761.2)" text-rendering="optimizeSpeed" fill="#000000">HP-UX (IA64N) (191)</text>
  <rect fill="blue" height="21.5" stroke="black" width="12" x="720" y="59734.7"/>
  <text x="720" y="59761.2" font-family="Tahoma" font-size="12" transform="rotate(90 720,59761.2)" text-rendering="optimizeSpeed" fill="#000000">Windows Server 2022 (x86) (215)</text>
  <rect fill="blue" height="22.5" stroke="black" width="12" x="735" y="59733.7"/>
  <text x="735" y="59761.2" font-family="Tahoma" font-size="12" transform="rotate(90 735,59761.2)" text-rendering="optimizeSpeed" fill="#000000">Windows Server 2012 (x86) (225)</text>
  <rect fill="blue" height="24.3" stroke="black" width="12" x="750" y="59731.9"/>
  <text x="750" y="59761.2" font-family="Tahoma" font-size="12" transform="rotate(90 750,59761.2)" text-rendering="optimizeSpeed" fill="#000000">Windows 8.1 (x86) (243)</text>
  <rect fill="blue" height="24.5" stroke="black" width="12" x="765" y="59731.7"/>
  <text x="765" y="59761.2" font-family="Tahoma" font-size="12" transform="rotate(90 765,59761.2)" text-rendering="optimizeSpeed" fill="#000000">Linux (s390x) (245)</text>
  <rect fill="blue" height="34.6" stroke="black" width="12" x="780" y="59721.6"/>
  <text x="780" y="59761.2" font-family="Tahoma" font-size="12" transform="rotate(90 780,59761.2)" text-rendering="optimizeSpeed" fill="#000000">Windows 11 (x86) (346)</text>
  <rect fill="blue" height="35.4" stroke="black" width="12" x="795" y="59720.8"/>
  <text x="795" y="59761.2" font-family="Tahoma" font-size="12" transform="rotate(90 795,59761.2)" text-rendering="optimizeSpeed" fill="#000000">SunOS (amd64) (354)</text>
  <rect fill="blue" height="42.9" stroke="black" width="12" x="810" y="59713.3"/>
  <text x="810" y="59761.2" font-family="Tahoma" font-size="12" transform="rotate(90 810,59761.2)" text-rendering="optimizeSpeed" fill="#000000">Windows NT (unknown) (x86) (429)</text>
  <rect fill="blue" height="51.7" stroke="black" width="12" x="825" y="59704.5"/>
  <text x="825" y="59761.2" font-family="Tahoma" font-size="12" transform="rotate(90 825,59761.2)" text-rendering="optimizeSpeed" fill="#000000">Windows 8.1 (amd64) (517)</text>
  <rect fill="blue" height="64.2" stroke="black" width="12" x="840" y="59692.0"/>
  <text x="840" y="59761.2" font-family="Tahoma" font-size="12" transform="rotate(90 840,59761.2)" text-rendering="optimizeSpeed" fill="#000000">Linux (ppc64le) (642)</text>
  <rect fill="blue" height="69.9" stroke="black" width="12" x="855" y="59686.3"/>
  <text x="855" y="59761.2" font-family="Tahoma" font-size="12" transform="rotate(90 855,59761.2)" text-rendering="optimizeSpeed" fill="#000000">Windows Server 2008 R2 (x86) (699)</text>
  <rect fill="blue" height="70.8" stroke="black" width="12" x="870" y="59685.4"/>
  <text x="870" y="59761.2" font-family="Tahoma" font-size="12" transform="rotate(90 870,59761.2)" text-rendering="optimizeSpeed" fill="#000000">FreeBSD (amd64) (708)</text>
  <rect fill="blue" height="83.0" stroke="black" width="12" x="885" y="59673.2"/>
  <text x="885" y="59761.2" font-family="Tahoma" font-size="12" transform="rotate(90 885,59761.2)" text-rendering="optimizeSpeed" fill="#000000">SunOS (sparcv9) (830)</text>
  <rect fill="blue" height="95.0" stroke="black" width="12" x="900" y="59661.2"/>
  <text x="900" y="59761.2" font-family="Tahoma" font-size="12" transform="rotate(90 900,59761.2)" text-rendering="optimizeSpeed" fill="#000000">Windows Server 2012 (amd64) (950)</text>
  <rect fill="blue" height="128.8" stroke="black" width="12" x="915" y="59627.4"/>
  <text x="915" y="59761.2" font-family="Tahoma" font-size="12" transform="rotate(90 915,59761.2)" text-rendering="optimizeSpeed" fill="#000000">Windows 7 (x86) (1288)</text>
  <rect fill="blue" height="149.8" stroke="black" width="12" x="930" y="59606.4"/>
  <text x="930" y="59761.2" font-family="Tahoma" font-size="12" transform="rotate(90 930,59761.2)" text-rendering="optimizeSpeed" fill="#000000">Windows NT (unknown) (amd64) (1498)</text>
  <rect fill="blue" height="178.0" stroke="black" width="12" x="945" y="59578.2"/>
  <text x="945" y="59761.2" font-family="Tahoma" font-size="12" transform="rotate(90 945,59761.2)" text-rendering="optimizeSpeed" fill="#000000">Windows Server 2019 (x86) (1780)</text>
  <rect fill="blue" height="181.0" stroke="black" width="12" x="960" y="59575.2"/>
  <text x="960" y="59761.2" font-family="Tahoma" font-size="12" transform="rotate(90 960,59761.2)" text-rendering="optimizeSpeed" fill="#000000">AIX (ppc64) (1810)</text>
  <rect fill="blue" height="220.3" stroke="black" width="12" x="975" y="59535.9"/>
  <text x="975" y="59761.2" font-family="Tahoma" font-size="12" transform="rotate(90 975,59761.2)" text-rendering="optimizeSpeed" fill="#000000">Windows Server 2012 R2 (x86) (2203)</text>
  <rect fill="blue" height="229.0" stroke="black" width="12" x="990" y="59527.2"/>
  <text x="990" y="59761.2" font-family="Tahoma" font-size="12" transform="rotate(90 990,59761.2)" text-rendering="optimizeSpeed" fill="#000000">Windows Server 2008 R2 (amd64) (2290)</text>
  <rect fill="blue" height="245.1" stroke="black" width="12" x="1005" y="59511.1"/>
  <text x="1005" y="59761.2" font-family="Tahoma" font-size="12" transform="rotate(90 1005,59761.2)" text-rendering="optimizeSpeed" fill="#000000">Linux (i386) (2451)</text>
  <rect fill="blue" height="256.9" stroke="black" width="12" x="1020" y="59499.3"/>
  <text x="1020" y="59761.2" font-family="Tahoma" font-size="12" transform="rotate(90 1020,59761.2)" text-rendering="optimizeSpeed" fill="#000000">Linux (arm) (2569)</text>
  <rect fill="blue" height="285.9" stroke="black" width="12" x="1035" y="59470.3"/>
  <text x="1035" y="59761.2" font-family="Tahoma" font-size="12" transform="rotate(90 1035,59761.2)" text-rendering="optimizeSpeed" fill="#000000">Windows 7 (amd64) (2859)</text>
  <rect fill="blue" height="410.8" stroke="black" width="12" x="1050" y="59345.4"/>
  <text x="1050" y="59761.2" font-family="Tahoma" font-size="12" transform="rotate(90 1050,59761.2)" text-rendering="optimizeSpeed" fill="#000000">Windows Server 2016 (x86) (4108)</text>
  <rect fill="blue" height="698.1" stroke="black" width="12" x="1065" y="59058.1"/>
  <text x="1065" y="59761.2" font-family="Tahoma" font-size="12" transform="rotate(90 1065,59761.2)" text-rendering="optimizeSpeed" fill="#000000">Windows 10 (x86) (6981)</text>
  <rect fill="blue" height="816.9" stroke="black" width="12" x="1080" y="58939.3"/>
  <text x="1080" y="59761.2" font-family="Tahoma" font-size="12" transform="rotate(90 1080,59761.2)" text-rendering="optimizeSpeed" fill="#000000">Windows Server 2022 (amd64) (8169)</text>
  <rect fill="blue" height="997.1" stroke="black" width="12" x="1095" y="58759.1"/>
  <text x="1095" y="59761.2" font-family="Tahoma" font-size="12" transform="rotate(90 1095,59761.2)" text-rendering="optimizeSpeed" fill="#000000">Mac OS X (aarch64) (9971)</text>
  <rect fill="blue" height="1024.9" stroke="black" width="12" x="1110" y="58731.3"/>
  <text x="1110" y="59761.2" font-family="Tahoma" font-size="12" transform="rotate(90 1110,59761.2)" text-rendering="optimizeSpeed" fill="#000000">Windows 11 (amd64) (10249)</text>
  <rect fill="blue" height="1055.1" stroke="black" width="12" x="1125" y="58701.1"/>
  <text x="1125" y="59761.2" font-family="Tahoma" font-size="12" transform="rotate(90 1125,59761.2)" text-rendering="optimizeSpeed" fill="#000000">Windows Server 2012 R2 (amd64) (10551)</text>
  <rect fill="blue" height="1091.8" stroke="black" width="12" x="1140" y="58664.4"/>
  <text x="1140" y="59761.2" font-family="Tahoma" font-size="12" transform="rotate(90 1140,59761.2)" text-rendering="optimizeSpeed" fill="#000000">Linux (aarch64) (10918)</text>
  <rect fill="blue" height="2078.4" stroke="black" width="12" x="1155" y="57677.8"/>
  <text x="1155" y="59761.2" font-family="Tahoma" font-size="12" transform="rotate(90 1155,59761.2)" text-rendering="optimizeSpeed" fill="#000000">Mac OS X (x86_64) (20784)</text>
  <rect fill="blue" height="3292.6" stroke="black" width="12" x="1170" y="56463.6"/>
  <text x="1170" y="59761.2" font-family="Tahoma" font-size="12" transform="rotate(90 1170,59761.2)" text-rendering="optimizeSpeed" fill="#000000">Windows Server 2019 (amd64) (32926)</text>
  <rect fill="blue" height="3452.0" stroke="black" width="12" x="1185" y="56304.2"/>
  <text x="1185" y="59761.2" font-family="Tahoma" font-size="12" transform="rotate(90 1185,59761.2)" text-rendering="optimizeSpeed" fill="#000000">Windows Server 2016 (amd64) (34520)</text>
  <rect fill="blue" height="7073.5" stroke="black" width="12" x="1200" y="52682.7"/>
  <text x="1200" y="59761.2" font-family="Tahoma" font-size="12" transform="rotate(90 1200,59761.2)" text-rendering="optimizeSpeed" fill="#000000">Windows 10 (amd64) (70735)</text>
  <rect fill="blue" height="34272.5" stroke="black" width="12" x="1215" y="25483.7"/>
  <text x="1215" y="59761.2" font-family="Tahoma" font-size="12" transform="rotate(90 1215,59761.2)" text-rendering="optimizeSpeed" fill="#000000">N/A (342725)</text>
  <rect fill="blue" height="59706.2" stroke="black" width="12" x="1230" y="50.0"/>
  <text x="1230" y="59761.2" font-family="Tahoma" font-size="12" transform="rotate(90 1230,59761.2)" text-rendering="optimizeSpeed" fill="#000000">Linux (amd64) (597062)</text>
  <text x="10" y="40" font-family="Tahoma" font-size="20" text-rendering="optimizeSpeed" fill="#000000">Nodes (total: 1186358)</text>
</svg>
