<svg xmlns="http://www.w3.org/2000/svg" version="1.1" preserveAspectRatio="xMidYMid meet" viewBox="0 0 470 51565.3">
  <rect fill="blue" height="0.0" stroke="black" width="12" x="15" y="51265.3"/>
  <text x="15" y="51270.3" font-family="Tahoma" font-size="12" transform="rotate(90 15,51270.3)" text-rendering="optimizeSpeed" fill="#000000">com-github-mjdetullio-jenkins-plugins-multibranch-IvyMultiBranchProject (1)</text>
  <rect fill="blue" height="0.0" stroke="black" width="12" x="30" y="51265.3"/>
  <text x="30" y="51270.3" font-family="Tahoma" font-size="12" transform="rotate(90 30,51270.3)" text-rendering="optimizeSpeed" fill="#000000">com-google-jenkins-plugins-dsl-YamlProject (1)</text>
  <rect fill="blue" height="0.0" stroke="black" width="12" x="45" y="51265.3"/>
  <text x="45" y="51270.3" font-family="Tahoma" font-size="12" transform="rotate(90 45,51270.3)" text-rendering="optimizeSpeed" fill="#000000">hudson-plugins-customer-data-template-DependencyStyleProject (2)</text>
  <rect fill="blue" height="0.0" stroke="black" width="12" x="60" y="51265.3"/>
  <text x="60" y="51270.3" font-family="Tahoma" font-size="12" transform="rotate(90 60,51270.3)" text-rendering="optimizeSpeed" fill="#000000">org-jenkinsci-plugins-drupal-projects-DrupalProject (3)</text>
  <rect fill="blue" height="0.0" stroke="black" width="12" x="75" y="51265.3"/>
  <text x="75" y="51270.3" font-family="Tahoma" font-size="12" transform="rotate(90 75,51270.3)" text-rendering="optimizeSpeed" fill="#000000">org-jvnet-hudson-test-MockFolder (3)</text>
  <rect fill="blue" height="0.0" stroke="black" width="12" x="90" y="51265.3"/>
  <text x="90" y="51270.3" font-family="Tahoma" font-size="12" transform="rotate(90 90,51270.3)" text-rendering="optimizeSpeed" fill="#000000">hudson-plugins-customer-data-template-DataWarehouseStyleProject (5)</text>
  <rect fill="blue" height="0.0" stroke="black" width="12" x="105" y="51265.3"/>
  <text x="105" y="51270.3" font-family="Tahoma" font-size="12" transform="rotate(90 105,51270.3)" text-rendering="optimizeSpeed" fill="#000000">org-jvnet-hudson-plugins-ade-project-IfarmProject (17)</text>
  <rect fill="blue" height="0.0" stroke="black" width="12" x="120" y="51265.3"/>
  <text x="120" y="51270.3" font-family="Tahoma" font-size="12" transform="rotate(90 120,51270.3)" text-rendering="optimizeSpeed" fill="#000000">com-barchart-jenkins-cascade-CascadeProject (19)</text>
  <rect fill="blue" height="0.0" stroke="black" width="12" x="135" y="51265.3"/>
  <text x="135" y="51270.3" font-family="Tahoma" font-size="12" transform="rotate(90 135,51270.3)" text-rendering="optimizeSpeed" fill="#000000">com-github-mjdetullio-jenkins-plugins-multibranch-MatrixMultiBranchProject (42)</text>
  <rect fill="blue" height="0.1" stroke="black" width="12" x="150" y="51265.2"/>
  <text x="150" y="51270.3" font-family="Tahoma" font-size="12" transform="rotate(90 150,51270.3)" text-rendering="optimizeSpeed" fill="#000000">hudson-plugin-smartjob-SmartJob (56)</text>
  <rect fill="blue" height="0.2" stroke="black" width="12" x="165" y="51265.1"/>
  <text x="165" y="51270.3" font-family="Tahoma" font-size="12" transform="rotate(90 165,51270.3)" text-rendering="optimizeSpeed" fill="#000000">captmorgan-ExternalProject (175)</text>
  <rect fill="blue" height="0.2" stroke="black" width="12" x="180" y="51265.1"/>
  <text x="180" y="51270.3" font-family="Tahoma" font-size="12" transform="rotate(90 180,51270.3)" text-rendering="optimizeSpeed" fill="#000000">com-github-mjdetullio-jenkins-plugins-multibranch-MavenMultiBranchProject (178)</text>
  <rect fill="blue" height="0.5" stroke="black" width="12" x="195" y="51264.8"/>
  <text x="195" y="51270.3" font-family="Tahoma" font-size="12" transform="rotate(90 195,51270.3)" text-rendering="optimizeSpeed" fill="#000000">org-jenkinsci-plugins-coordinator-model-CoordinatorProject (529)</text>
  <rect fill="blue" height="0.8" stroke="black" width="12" x="210" y="51264.5"/>
  <text x="210" y="51270.3" font-family="Tahoma" font-size="12" transform="rotate(90 210,51270.3)" text-rendering="optimizeSpeed" fill="#000000">com-github-mjdetullio-jenkins-plugins-multibranch-FreeStyleMultiBranchProject (823)</text>
  <rect fill="blue" height="1.1" stroke="black" width="12" x="225" y="51264.2"/>
  <text x="225" y="51270.3" font-family="Tahoma" font-size="12" transform="rotate(90 225,51270.3)" text-rendering="optimizeSpeed" fill="#000000">org-jenkinsci-plugins-jobgenerator-JobGenerator (1051)</text>
  <rect fill="blue" height="2.0" stroke="black" width="12" x="240" y="51263.3"/>
  <text x="240" y="51270.3" font-family="Tahoma" font-size="12" transform="rotate(90 240,51270.3)" text-rendering="optimizeSpeed" fill="#000000">hudson-ivy-IvyModuleSet (1973)</text>
  <rect fill="blue" height="4.8" stroke="black" width="12" x="255" y="51260.5"/>
  <text x="255" y="51270.3" font-family="Tahoma" font-size="12" transform="rotate(90 255,51270.3)" text-rendering="optimizeSpeed" fill="#000000">hudson-model-ExternalJob (4778)</text>
  <rect fill="blue" height="10.1" stroke="black" width="12" x="270" y="51255.2"/>
  <text x="270" y="51270.3" font-family="Tahoma" font-size="12" transform="rotate(90 270,51270.3)" text-rendering="optimizeSpeed" fill="#000000">hudson-plugins-project_inheritance-projects-InheritanceProject (10115)</text>
  <rect fill="blue" height="12.9" stroke="black" width="12" x="285" y="51252.4"/>
  <text x="285" y="51270.3" font-family="Tahoma" font-size="12" transform="rotate(90 285,51270.3)" text-rendering="optimizeSpeed" fill="#000000">org-jenkinsci-plugins-pipeline-multibranch-defaults-PipelineMultiBranchDefaultsProject (12942)</text>
  <rect fill="blue" height="13.7" stroke="black" width="12" x="300" y="51251.6"/>
  <text x="300" y="51270.3" font-family="Tahoma" font-size="12" transform="rotate(90 300,51270.3)" text-rendering="optimizeSpeed" fill="#000000">com-cloudbees-plugins-flow-BuildFlow (13717)</text>
  <rect fill="blue" height="56.2" stroke="black" width="12" x="315" y="51209.1"/>
  <text x="315" y="51270.3" font-family="Tahoma" font-size="12" transform="rotate(90 315,51270.3)" text-rendering="optimizeSpeed" fill="#000000">jenkins-branch-OrganizationFolder (56245)</text>
  <rect fill="blue" height="238.3" stroke="black" width="12" x="330" y="51027.0"/>
  <text x="330" y="51270.3" font-family="Tahoma" font-size="12" transform="rotate(90 330,51270.3)" text-rendering="optimizeSpeed" fill="#000000">hudson-matrix-MatrixProject (238279)</text>
  <rect fill="blue" height="781.7" stroke="black" width="12" x="345" y="50483.6"/>
  <text x="345" y="51270.3" font-family="Tahoma" font-size="12" transform="rotate(90 345,51270.3)" text-rendering="optimizeSpeed" fill="#000000">com-tikal-jenkins-plugins-multijob-MultiJobProject (781674)</text>
  <rect fill="blue" height="2000.4" stroke="black" width="12" x="360" y="49264.9"/>
  <text x="360" y="51270.3" font-family="Tahoma" font-size="12" transform="rotate(90 360,51270.3)" text-rendering="optimizeSpeed" fill="#000000">org-jenkinsci-plugins-workflow-multibranch-WorkflowMultiBranchProject (2000402)</text>
  <rect fill="blue" height="2005.9" stroke="black" width="12" x="375" y="49259.4"/>
  <text x="375" y="51270.3" font-family="Tahoma" font-size="12" transform="rotate(90 375,51270.3)" text-rendering="optimizeSpeed" fill="#000000">hudson-maven-MavenModuleSet (2005876)</text>
  <rect fill="blue" height="3029.7" stroke="black" width="12" x="390" y="48235.6"/>
  <text x="390" y="51270.3" font-family="Tahoma" font-size="12" transform="rotate(90 390,51270.3)" text-rendering="optimizeSpeed" fill="#000000">com-cloudbees-hudson-plugins-folder-Folder (3029673)</text>
  <rect fill="blue" height="20082.7" stroke="black" width="12" x="405" y="31182.6"/>
  <text x="405" y="51270.3" font-family="Tahoma" font-size="12" transform="rotate(90 405,51270.3)" text-rendering="optimizeSpeed" fill="#000000">hudson-model-FreeStyleProject (20082676)</text>
  <rect fill="blue" height="51215.3" stroke="black" width="12" x="420" y="50.0"/>
  <text x="420" y="51270.3" font-family="Tahoma" font-size="12" transform="rotate(90 420,51270.3)" text-rendering="optimizeSpeed" fill="#000000">org-jenkinsci-plugins-workflow-job-WorkflowJob (51215294)</text>
  <text x="10" y="40" font-family="Tahoma" font-size="20" text-rendering="optimizeSpeed" fill="#000000">Jobs (total: 79456549)</text>
</svg>
