<svg xmlns="http://www.w3.org/2000/svg" version="1.1" preserveAspectRatio="xMidYMid meet" viewBox="0 0 455 52331.6">
  <rect fill="blue" height="0.0" stroke="black" width="12" x="15" y="52031.6"/>
  <text x="15" y="52036.6" font-family="Tahoma" font-size="12" transform="rotate(90 15,52036.6)" text-rendering="optimizeSpeed" fill="#000000">com-github-mjdetullio-jenkins-plugins-multibranch-IvyMultiBranchProject (1)</text>
  <rect fill="blue" height="0.0" stroke="black" width="12" x="30" y="52031.6"/>
  <text x="30" y="52036.6" font-family="Tahoma" font-size="12" transform="rotate(90 30,52036.6)" text-rendering="optimizeSpeed" fill="#000000">com-google-jenkins-plugins-dsl-YamlProject (1)</text>
  <rect fill="blue" height="0.0" stroke="black" width="12" x="45" y="52031.6"/>
  <text x="45" y="52036.6" font-family="Tahoma" font-size="12" transform="rotate(90 45,52036.6)" text-rendering="optimizeSpeed" fill="#000000">org-jvnet-hudson-plugins-ade-project-IfarmProject (1)</text>
  <rect fill="blue" height="0.0" stroke="black" width="12" x="60" y="52031.6"/>
  <text x="60" y="52036.6" font-family="Tahoma" font-size="12" transform="rotate(90 60,52036.6)" text-rendering="optimizeSpeed" fill="#000000">hudson-plugins-customer-data-template-DependencyStyleProject (2)</text>
  <rect fill="blue" height="0.0" stroke="black" width="12" x="75" y="52031.6"/>
  <text x="75" y="52036.6" font-family="Tahoma" font-size="12" transform="rotate(90 75,52036.6)" text-rendering="optimizeSpeed" fill="#000000">org-jenkinsci-plugins-drupal-projects-DrupalProject (3)</text>
  <rect fill="blue" height="0.0" stroke="black" width="12" x="90" y="52031.6"/>
  <text x="90" y="52036.6" font-family="Tahoma" font-size="12" transform="rotate(90 90,52036.6)" text-rendering="optimizeSpeed" fill="#000000">org-jvnet-hudson-test-MockFolder (3)</text>
  <rect fill="blue" height="0.0" stroke="black" width="12" x="105" y="52031.6"/>
  <text x="105" y="52036.6" font-family="Tahoma" font-size="12" transform="rotate(90 105,52036.6)" text-rendering="optimizeSpeed" fill="#000000">hudson-plugins-customer-data-template-DataWarehouseStyleProject (5)</text>
  <rect fill="blue" height="0.0" stroke="black" width="12" x="120" y="52031.6"/>
  <text x="120" y="52036.6" font-family="Tahoma" font-size="12" transform="rotate(90 120,52036.6)" text-rendering="optimizeSpeed" fill="#000000">com-barchart-jenkins-cascade-CascadeProject (22)</text>
  <rect fill="blue" height="0.0" stroke="black" width="12" x="135" y="52031.6"/>
  <text x="135" y="52036.6" font-family="Tahoma" font-size="12" transform="rotate(90 135,52036.6)" text-rendering="optimizeSpeed" fill="#000000">com-github-mjdetullio-jenkins-plugins-multibranch-MatrixMultiBranchProject (27)</text>
  <rect fill="blue" height="0.1" stroke="black" width="12" x="150" y="52031.6"/>
  <text x="150" y="52036.6" font-family="Tahoma" font-size="12" transform="rotate(90 150,52036.6)" text-rendering="optimizeSpeed" fill="#000000">hudson-plugin-smartjob-SmartJob (70)</text>
  <rect fill="blue" height="0.3" stroke="black" width="12" x="165" y="52031.4"/>
  <text x="165" y="52036.6" font-family="Tahoma" font-size="12" transform="rotate(90 165,52036.6)" text-rendering="optimizeSpeed" fill="#000000">com-github-mjdetullio-jenkins-plugins-multibranch-MavenMultiBranchProject (252)</text>
  <rect fill="blue" height="0.5" stroke="black" width="12" x="180" y="52031.2"/>
  <text x="180" y="52036.6" font-family="Tahoma" font-size="12" transform="rotate(90 180,52036.6)" text-rendering="optimizeSpeed" fill="#000000">org-jenkinsci-plugins-coordinator-model-CoordinatorProject (453)</text>
  <rect fill="blue" height="0.6" stroke="black" width="12" x="195" y="52031.0"/>
  <text x="195" y="52036.6" font-family="Tahoma" font-size="12" transform="rotate(90 195,52036.6)" text-rendering="optimizeSpeed" fill="#000000">com-github-mjdetullio-jenkins-plugins-multibranch-FreeStyleMultiBranchProject (636)</text>
  <rect fill="blue" height="1.0" stroke="black" width="12" x="210" y="52030.6"/>
  <text x="210" y="52036.6" font-family="Tahoma" font-size="12" transform="rotate(90 210,52036.6)" text-rendering="optimizeSpeed" fill="#000000">org-jenkinsci-plugins-jobgenerator-JobGenerator (1014)</text>
  <rect fill="blue" height="1.9" stroke="black" width="12" x="225" y="52029.8"/>
  <text x="225" y="52036.6" font-family="Tahoma" font-size="12" transform="rotate(90 225,52036.6)" text-rendering="optimizeSpeed" fill="#000000">hudson-ivy-IvyModuleSet (1868)</text>
  <rect fill="blue" height="4.6" stroke="black" width="12" x="240" y="52027.0"/>
  <text x="240" y="52036.6" font-family="Tahoma" font-size="12" transform="rotate(90 240,52036.6)" text-rendering="optimizeSpeed" fill="#000000">hudson-model-ExternalJob (4623)</text>
  <rect fill="blue" height="6.2" stroke="black" width="12" x="255" y="52025.4"/>
  <text x="255" y="52036.6" font-family="Tahoma" font-size="12" transform="rotate(90 255,52036.6)" text-rendering="optimizeSpeed" fill="#000000">hudson-plugins-project_inheritance-projects-InheritanceProject (6235)</text>
  <rect fill="blue" height="13.1" stroke="black" width="12" x="270" y="52018.6"/>
  <text x="270" y="52036.6" font-family="Tahoma" font-size="12" transform="rotate(90 270,52036.6)" text-rendering="optimizeSpeed" fill="#000000">com-cloudbees-plugins-flow-BuildFlow (13050)</text>
  <rect fill="blue" height="16.2" stroke="black" width="12" x="285" y="52015.4"/>
  <text x="285" y="52036.6" font-family="Tahoma" font-size="12" transform="rotate(90 285,52036.6)" text-rendering="optimizeSpeed" fill="#000000">org-jenkinsci-plugins-pipeline-multibranch-defaults-PipelineMultiBranchDefaultsProject (16216)</text>
  <rect fill="blue" height="52.3" stroke="black" width="12" x="300" y="51979.3"/>
  <text x="300" y="52036.6" font-family="Tahoma" font-size="12" transform="rotate(90 300,52036.6)" text-rendering="optimizeSpeed" fill="#000000">jenkins-branch-OrganizationFolder (52335)</text>
  <rect fill="blue" height="238.5" stroke="black" width="12" x="315" y="51793.1"/>
  <text x="315" y="52036.6" font-family="Tahoma" font-size="12" transform="rotate(90 315,52036.6)" text-rendering="optimizeSpeed" fill="#000000">hudson-matrix-MatrixProject (238501)</text>
  <rect fill="blue" height="852.6" stroke="black" width="12" x="330" y="51179.0"/>
  <text x="330" y="52036.6" font-family="Tahoma" font-size="12" transform="rotate(90 330,52036.6)" text-rendering="optimizeSpeed" fill="#000000">com-tikal-jenkins-plugins-multijob-MultiJobProject (852649)</text>
  <rect fill="blue" height="1932.2" stroke="black" width="12" x="345" y="50099.4"/>
  <text x="345" y="52036.6" font-family="Tahoma" font-size="12" transform="rotate(90 345,52036.6)" text-rendering="optimizeSpeed" fill="#000000">hudson-maven-MavenModuleSet (1932226)</text>
  <rect fill="blue" height="2026.2" stroke="black" width="12" x="360" y="50005.5"/>
  <text x="360" y="52036.6" font-family="Tahoma" font-size="12" transform="rotate(90 360,52036.6)" text-rendering="optimizeSpeed" fill="#000000">org-jenkinsci-plugins-workflow-multibranch-WorkflowMultiBranchProject (2026153)</text>
  <rect fill="blue" height="3075.7" stroke="black" width="12" x="375" y="48956.0"/>
  <text x="375" y="52036.6" font-family="Tahoma" font-size="12" transform="rotate(90 375,52036.6)" text-rendering="optimizeSpeed" fill="#000000">com-cloudbees-hudson-plugins-folder-Folder (3075679)</text>
  <rect fill="blue" height="20095.6" stroke="black" width="12" x="390" y="31936.1"/>
  <text x="390" y="52036.6" font-family="Tahoma" font-size="12" transform="rotate(90 390,52036.6)" text-rendering="optimizeSpeed" fill="#000000">hudson-model-FreeStyleProject (20095596)</text>
  <rect fill="blue" height="51981.6" stroke="black" width="12" x="405" y="50.0"/>
  <text x="405" y="52036.6" font-family="Tahoma" font-size="12" transform="rotate(90 405,52036.6)" text-rendering="optimizeSpeed" fill="#000000">org-jenkinsci-plugins-workflow-job-WorkflowJob (51981647)</text>
  <text x="10" y="40" font-family="Tahoma" font-size="20" text-rendering="optimizeSpeed" fill="#000000">Jobs (total: 80299268)</text>
</svg>
