<svg xmlns="http://www.w3.org/2000/svg" version="1.1" preserveAspectRatio="xMidYMid meet" viewBox="0 0 485 52806.0">
  <rect fill="blue" height="0.0" stroke="black" width="12" x="15" y="52506.0"/>
  <text x="15" y="52511.0" font-family="Tahoma" font-size="12" transform="rotate(90 15,52511.0)" text-rendering="optimizeSpeed" fill="#000000">com-github-mjdetullio-jenkins-plugins-multibranch-IvyMultiBranchProject (1)</text>
  <rect fill="blue" height="0.0" stroke="black" width="12" x="30" y="52506.0"/>
  <text x="30" y="52511.0" font-family="Tahoma" font-size="12" transform="rotate(90 30,52511.0)" text-rendering="optimizeSpeed" fill="#000000">com-google-jenkins-plugins-dsl-YamlProject (1)</text>
  <rect fill="blue" height="0.0" stroke="black" width="12" x="45" y="52506.0"/>
  <text x="45" y="52511.0" font-family="Tahoma" font-size="12" transform="rotate(90 45,52511.0)" text-rendering="optimizeSpeed" fill="#000000">org-jenkinsci-plugins-drupal-projects-DrupalProject (1)</text>
  <rect fill="blue" height="0.0" stroke="black" width="12" x="60" y="52506.0"/>
  <text x="60" y="52511.0" font-family="Tahoma" font-size="12" transform="rotate(90 60,52511.0)" text-rendering="optimizeSpeed" fill="#000000">hudson-plugins-customer-data-template-DependencyStyleProject (2)</text>
  <rect fill="blue" height="0.0" stroke="black" width="12" x="75" y="52506.0"/>
  <text x="75" y="52511.0" font-family="Tahoma" font-size="12" transform="rotate(90 75,52511.0)" text-rendering="optimizeSpeed" fill="#000000">org-jvnet-hudson-test-MockFolder (3)</text>
  <rect fill="blue" height="0.0" stroke="black" width="12" x="90" y="52506.0"/>
  <text x="90" y="52511.0" font-family="Tahoma" font-size="12" transform="rotate(90 90,52511.0)" text-rendering="optimizeSpeed" fill="#000000">hudson-plugins-customer-data-template-DataWarehouseStyleProject (5)</text>
  <rect fill="blue" height="0.0" stroke="black" width="12" x="105" y="52506.0"/>
  <text x="105" y="52511.0" font-family="Tahoma" font-size="12" transform="rotate(90 105,52511.0)" text-rendering="optimizeSpeed" fill="#000000">org-jenkinsci-plugins-coordinator-dummy-model-CoordinatorProject (5)</text>
  <rect fill="blue" height="0.0" stroke="black" width="12" x="120" y="52505.9"/>
  <text x="120" y="52511.0" font-family="Tahoma" font-size="12" transform="rotate(90 120,52511.0)" text-rendering="optimizeSpeed" fill="#000000">com-barchart-jenkins-cascade-CascadeProject (21)</text>
  <rect fill="blue" height="0.0" stroke="black" width="12" x="135" y="52505.9"/>
  <text x="135" y="52511.0" font-family="Tahoma" font-size="12" transform="rotate(90 135,52511.0)" text-rendering="optimizeSpeed" fill="#000000">org-jvnet-hudson-plugins-ade-project-IfarmProject (25)</text>
  <rect fill="blue" height="0.0" stroke="black" width="12" x="150" y="52505.9"/>
  <text x="150" y="52511.0" font-family="Tahoma" font-size="12" transform="rotate(90 150,52511.0)" text-rendering="optimizeSpeed" fill="#000000">com-github-mjdetullio-jenkins-plugins-multibranch-MatrixMultiBranchProject (42)</text>
  <rect fill="blue" height="0.1" stroke="black" width="12" x="165" y="52505.8"/>
  <text x="165" y="52511.0" font-family="Tahoma" font-size="12" transform="rotate(90 165,52511.0)" text-rendering="optimizeSpeed" fill="#000000">hudson-plugin-smartjob-SmartJob (144)</text>
  <rect fill="blue" height="0.1" stroke="black" width="12" x="180" y="52505.8"/>
  <text x="180" y="52511.0" font-family="Tahoma" font-size="12" transform="rotate(90 180,52511.0)" text-rendering="optimizeSpeed" fill="#000000">captmorgan-ExternalProject (146)</text>
  <rect fill="blue" height="0.3" stroke="black" width="12" x="195" y="52505.7"/>
  <text x="195" y="52511.0" font-family="Tahoma" font-size="12" transform="rotate(90 195,52511.0)" text-rendering="optimizeSpeed" fill="#000000">com-github-mjdetullio-jenkins-plugins-multibranch-MavenMultiBranchProject (295)</text>
  <rect fill="blue" height="0.6" stroke="black" width="12" x="210" y="52505.4"/>
  <text x="210" y="52511.0" font-family="Tahoma" font-size="12" transform="rotate(90 210,52511.0)" text-rendering="optimizeSpeed" fill="#000000">org-jenkinsci-plugins-coordinator-model-CoordinatorProject (590)</text>
  <rect fill="blue" height="0.8" stroke="black" width="12" x="225" y="52505.2"/>
  <text x="225" y="52511.0" font-family="Tahoma" font-size="12" transform="rotate(90 225,52511.0)" text-rendering="optimizeSpeed" fill="#000000">com-github-mjdetullio-jenkins-plugins-multibranch-FreeStyleMultiBranchProject (818)</text>
  <rect fill="blue" height="0.9" stroke="black" width="12" x="240" y="52505.0"/>
  <text x="240" y="52511.0" font-family="Tahoma" font-size="12" transform="rotate(90 240,52511.0)" text-rendering="optimizeSpeed" fill="#000000">org-jenkinsci-plugins-jobgenerator-JobGenerator (946)</text>
  <rect fill="blue" height="1.8" stroke="black" width="12" x="255" y="52504.2"/>
  <text x="255" y="52511.0" font-family="Tahoma" font-size="12" transform="rotate(90 255,52511.0)" text-rendering="optimizeSpeed" fill="#000000">hudson-ivy-IvyModuleSet (1761)</text>
  <rect fill="blue" height="5.3" stroke="black" width="12" x="270" y="52500.7"/>
  <text x="270" y="52511.0" font-family="Tahoma" font-size="12" transform="rotate(90 270,52511.0)" text-rendering="optimizeSpeed" fill="#000000">hudson-model-ExternalJob (5298)</text>
  <rect fill="blue" height="9.9" stroke="black" width="12" x="285" y="52496.1"/>
  <text x="285" y="52511.0" font-family="Tahoma" font-size="12" transform="rotate(90 285,52511.0)" text-rendering="optimizeSpeed" fill="#000000">hudson-plugins-project_inheritance-projects-InheritanceProject (9885)</text>
  <rect fill="blue" height="15.5" stroke="black" width="12" x="300" y="52490.5"/>
  <text x="300" y="52511.0" font-family="Tahoma" font-size="12" transform="rotate(90 300,52511.0)" text-rendering="optimizeSpeed" fill="#000000">org-jenkinsci-plugins-pipeline-multibranch-defaults-PipelineMultiBranchDefaultsProject (15455)</text>
  <rect fill="blue" height="18.2" stroke="black" width="12" x="315" y="52487.7"/>
  <text x="315" y="52511.0" font-family="Tahoma" font-size="12" transform="rotate(90 315,52511.0)" text-rendering="optimizeSpeed" fill="#000000">com-cloudbees-plugins-flow-BuildFlow (18230)</text>
  <rect fill="blue" height="54.1" stroke="black" width="12" x="330" y="52451.9"/>
  <text x="330" y="52511.0" font-family="Tahoma" font-size="12" transform="rotate(90 330,52511.0)" text-rendering="optimizeSpeed" fill="#000000">jenkins-branch-OrganizationFolder (54090)</text>
  <rect fill="blue" height="241.0" stroke="black" width="12" x="345" y="52265.0"/>
  <text x="345" y="52511.0" font-family="Tahoma" font-size="12" transform="rotate(90 345,52511.0)" text-rendering="optimizeSpeed" fill="#000000">hudson-matrix-MatrixProject (241003)</text>
  <rect fill="blue" height="841.1" stroke="black" width="12" x="360" y="51664.9"/>
  <text x="360" y="52511.0" font-family="Tahoma" font-size="12" transform="rotate(90 360,52511.0)" text-rendering="optimizeSpeed" fill="#000000">com-tikal-jenkins-plugins-multijob-MultiJobProject (841098)</text>
  <rect fill="blue" height="2009.8" stroke="black" width="12" x="375" y="50496.2"/>
  <text x="375" y="52511.0" font-family="Tahoma" font-size="12" transform="rotate(90 375,52511.0)" text-rendering="optimizeSpeed" fill="#000000">org-jenkinsci-plugins-workflow-multibranch-WorkflowMultiBranchProject (2009798)</text>
  <rect fill="blue" height="2028.8" stroke="black" width="12" x="390" y="50477.2"/>
  <text x="390" y="52511.0" font-family="Tahoma" font-size="12" transform="rotate(90 390,52511.0)" text-rendering="optimizeSpeed" fill="#000000">hudson-maven-MavenModuleSet (2028818)</text>
  <rect fill="blue" height="3072.4" stroke="black" width="12" x="405" y="49433.5"/>
  <text x="405" y="52511.0" font-family="Tahoma" font-size="12" transform="rotate(90 405,52511.0)" text-rendering="optimizeSpeed" fill="#000000">com-cloudbees-hudson-plugins-folder-Folder (3072435)</text>
  <rect fill="blue" height="20321.8" stroke="black" width="12" x="420" y="32184.2"/>
  <text x="420" y="52511.0" font-family="Tahoma" font-size="12" transform="rotate(90 420,52511.0)" text-rendering="optimizeSpeed" fill="#000000">hudson-model-FreeStyleProject (20321798)</text>
  <rect fill="blue" height="52456.0" stroke="black" width="12" x="435" y="50.0"/>
  <text x="435" y="52511.0" font-family="Tahoma" font-size="12" transform="rotate(90 435,52511.0)" text-rendering="optimizeSpeed" fill="#000000">org-jenkinsci-plugins-workflow-job-WorkflowJob (52455969)</text>
  <text x="10" y="40" font-family="Tahoma" font-size="20" text-rendering="optimizeSpeed" fill="#000000">Jobs (total: 81078683)</text>
</svg>
