<svg xmlns="http://www.w3.org/2000/svg" version="1.1" preserveAspectRatio="xMidYMid meet" viewBox="0 0 2825 13130.6">
  <rect fill="blue" height="18.2" stroke="black" width="12" x="15" y="12812.4"/>
  <text x="15" y="12835.6" font-family="Tahoma" font-size="12" transform="rotate(90 15,12835.6)" text-rendering="optimizeSpeed" fill="#000000">200812 (1818)</text>
  <rect fill="blue" height="63.3" stroke="black" width="12" x="30" y="12767.3"/>
  <text x="30" y="12835.6" font-family="Tahoma" font-size="12" transform="rotate(90 30,12835.6)" text-rendering="optimizeSpeed" fill="#000000">200901 (6326)</text>
  <rect fill="blue" height="86.2" stroke="black" width="12" x="45" y="12744.4"/>
  <text x="45" y="12835.6" font-family="Tahoma" font-size="12" transform="rotate(90 45,12835.6)" text-rendering="optimizeSpeed" fill="#000000">200902 (8619)</text>
  <rect fill="blue" height="106.8" stroke="black" width="12" x="60" y="12723.8"/>
  <text x="60" y="12835.6" font-family="Tahoma" font-size="12" transform="rotate(90 60,12835.6)" text-rendering="optimizeSpeed" fill="#000000">200903 (10677)</text>
  <rect fill="blue" height="122.2" stroke="black" width="12" x="75" y="12708.4"/>
  <text x="75" y="12835.6" font-family="Tahoma" font-size="12" transform="rotate(90 75,12835.6)" text-rendering="optimizeSpeed" fill="#000000">200904 (12222)</text>
  <rect fill="blue" height="129.1" stroke="black" width="12" x="90" y="12701.5"/>
  <text x="90" y="12835.6" font-family="Tahoma" font-size="12" transform="rotate(90 90,12835.6)" text-rendering="optimizeSpeed" fill="#000000">200905 (12906)</text>
  <rect fill="blue" height="150.6" stroke="black" width="12" x="105" y="12680.0"/>
  <text x="105" y="12835.6" font-family="Tahoma" font-size="12" transform="rotate(90 105,12835.6)" text-rendering="optimizeSpeed" fill="#000000">200906 (15062)</text>
  <rect fill="blue" height="163.6" stroke="black" width="12" x="120" y="12667.0"/>
  <text x="120" y="12835.6" font-family="Tahoma" font-size="12" transform="rotate(90 120,12835.6)" text-rendering="optimizeSpeed" fill="#000000">200907 (16359)</text>
  <rect fill="blue" height="169.2" stroke="black" width="12" x="135" y="12661.4"/>
  <text x="135" y="12835.6" font-family="Tahoma" font-size="12" transform="rotate(90 135,12835.6)" text-rendering="optimizeSpeed" fill="#000000">200908 (16921)</text>
  <rect fill="blue" height="183.3" stroke="black" width="12" x="150" y="12647.3"/>
  <text x="150" y="12835.6" font-family="Tahoma" font-size="12" transform="rotate(90 150,12835.6)" text-rendering="optimizeSpeed" fill="#000000">200909 (18327)</text>
  <rect fill="blue" height="193.5" stroke="black" width="12" x="165" y="12637.1"/>
  <text x="165" y="12835.6" font-family="Tahoma" font-size="12" transform="rotate(90 165,12835.6)" text-rendering="optimizeSpeed" fill="#000000">200910 (19351)</text>
  <rect fill="blue" height="220.1" stroke="black" width="12" x="180" y="12610.5"/>
  <text x="180" y="12835.6" font-family="Tahoma" font-size="12" transform="rotate(90 180,12835.6)" text-rendering="optimizeSpeed" fill="#000000">200911 (22009)</text>
  <rect fill="blue" height="227.3" stroke="black" width="12" x="195" y="12603.3"/>
  <text x="195" y="12835.6" font-family="Tahoma" font-size="12" transform="rotate(90 195,12835.6)" text-rendering="optimizeSpeed" fill="#000000">200912 (22731)</text>
  <rect fill="blue" height="244.8" stroke="black" width="12" x="210" y="12585.8"/>
  <text x="210" y="12835.6" font-family="Tahoma" font-size="12" transform="rotate(90 210,12835.6)" text-rendering="optimizeSpeed" fill="#000000">201001 (24480)</text>
  <rect fill="blue" height="266.1" stroke="black" width="12" x="225" y="12564.5"/>
  <text x="225" y="12835.6" font-family="Tahoma" font-size="12" transform="rotate(90 225,12835.6)" text-rendering="optimizeSpeed" fill="#000000">201002 (26610)</text>
  <rect fill="blue" height="296.8" stroke="black" width="12" x="240" y="12533.8"/>
  <text x="240" y="12835.6" font-family="Tahoma" font-size="12" transform="rotate(90 240,12835.6)" text-rendering="optimizeSpeed" fill="#000000">201003 (29681)</text>
  <rect fill="blue" height="305.5" stroke="black" width="12" x="255" y="12525.1"/>
  <text x="255" y="12835.6" font-family="Tahoma" font-size="12" transform="rotate(90 255,12835.6)" text-rendering="optimizeSpeed" fill="#000000">201004 (30546)</text>
  <rect fill="blue" height="320.3" stroke="black" width="12" x="270" y="12510.3"/>
  <text x="270" y="12835.6" font-family="Tahoma" font-size="12" transform="rotate(90 270,12835.6)" text-rendering="optimizeSpeed" fill="#000000">201005 (32033)</text>
  <rect fill="blue" height="333.9" stroke="black" width="12" x="285" y="12496.7"/>
  <text x="285" y="12835.6" font-family="Tahoma" font-size="12" transform="rotate(90 285,12835.6)" text-rendering="optimizeSpeed" fill="#000000">201006 (33392)</text>
  <rect fill="blue" height="348.5" stroke="black" width="12" x="300" y="12482.1"/>
  <text x="300" y="12835.6" font-family="Tahoma" font-size="12" transform="rotate(90 300,12835.6)" text-rendering="optimizeSpeed" fill="#000000">201007 (34847)</text>
  <rect fill="blue" height="126.4" stroke="black" width="12" x="315" y="12704.2"/>
  <text x="315" y="12835.6" font-family="Tahoma" font-size="12" transform="rotate(90 315,12835.6)" text-rendering="optimizeSpeed" fill="#000000">201008 (12637)</text>
  <rect fill="blue" height="191.0" stroke="black" width="12" x="330" y="12639.6"/>
  <text x="330" y="12835.6" font-family="Tahoma" font-size="12" transform="rotate(90 330,12835.6)" text-rendering="optimizeSpeed" fill="#000000">201009 (19102)</text>
  <rect fill="blue" height="246.3" stroke="black" width="12" x="345" y="12584.3"/>
  <text x="345" y="12835.6" font-family="Tahoma" font-size="12" transform="rotate(90 345,12835.6)" text-rendering="optimizeSpeed" fill="#000000">201010 (24634)</text>
  <rect fill="blue" height="288.2" stroke="black" width="12" x="360" y="12542.4"/>
  <text x="360" y="12835.6" font-family="Tahoma" font-size="12" transform="rotate(90 360,12835.6)" text-rendering="optimizeSpeed" fill="#000000">201011 (28819)</text>
  <rect fill="blue" height="328.7" stroke="black" width="12" x="375" y="12501.9"/>
  <text x="375" y="12835.6" font-family="Tahoma" font-size="12" transform="rotate(90 375,12835.6)" text-rendering="optimizeSpeed" fill="#000000">201012 (32867)</text>
  <rect fill="blue" height="367.7" stroke="black" width="12" x="390" y="12462.9"/>
  <text x="390" y="12835.6" font-family="Tahoma" font-size="12" transform="rotate(90 390,12835.6)" text-rendering="optimizeSpeed" fill="#000000">201101 (36766)</text>
  <rect fill="blue" height="390.3" stroke="black" width="12" x="405" y="12440.3"/>
  <text x="405" y="12835.6" font-family="Tahoma" font-size="12" transform="rotate(90 405,12835.6)" text-rendering="optimizeSpeed" fill="#000000">201102 (39028)</text>
  <rect fill="blue" height="410.9" stroke="black" width="12" x="420" y="12419.7"/>
  <text x="420" y="12835.6" font-family="Tahoma" font-size="12" transform="rotate(90 420,12835.6)" text-rendering="optimizeSpeed" fill="#000000">201103 (41094)</text>
  <rect fill="blue" height="422.3" stroke="black" width="12" x="435" y="12408.3"/>
  <text x="435" y="12835.6" font-family="Tahoma" font-size="12" transform="rotate(90 435,12835.6)" text-rendering="optimizeSpeed" fill="#000000">201104 (42228)</text>
  <rect fill="blue" height="451.2" stroke="black" width="12" x="450" y="12379.4"/>
  <text x="450" y="12835.6" font-family="Tahoma" font-size="12" transform="rotate(90 450,12835.6)" text-rendering="optimizeSpeed" fill="#000000">201105 (45118)</text>
  <rect fill="blue" height="482.0" stroke="black" width="12" x="465" y="12348.6"/>
  <text x="465" y="12835.6" font-family="Tahoma" font-size="12" transform="rotate(90 465,12835.6)" text-rendering="optimizeSpeed" fill="#000000">201106 (48202)</text>
  <rect fill="blue" height="501.4" stroke="black" width="12" x="480" y="12329.2"/>
  <text x="480" y="12835.6" font-family="Tahoma" font-size="12" transform="rotate(90 480,12835.6)" text-rendering="optimizeSpeed" fill="#000000">201107 (50138)</text>
  <rect fill="blue" height="536.6" stroke="black" width="12" x="495" y="12294.0"/>
  <text x="495" y="12835.6" font-family="Tahoma" font-size="12" transform="rotate(90 495,12835.6)" text-rendering="optimizeSpeed" fill="#000000">201108 (53662)</text>
  <rect fill="blue" height="579.7" stroke="black" width="12" x="510" y="12250.9"/>
  <text x="510" y="12835.6" font-family="Tahoma" font-size="12" transform="rotate(90 510,12835.6)" text-rendering="optimizeSpeed" fill="#000000">201109 (57967)</text>
  <rect fill="blue" height="624.8" stroke="black" width="12" x="525" y="12205.8"/>
  <text x="525" y="12835.6" font-family="Tahoma" font-size="12" transform="rotate(90 525,12835.6)" text-rendering="optimizeSpeed" fill="#000000">201110 (62480)</text>
  <rect fill="blue" height="667.2" stroke="black" width="12" x="540" y="12163.4"/>
  <text x="540" y="12835.6" font-family="Tahoma" font-size="12" transform="rotate(90 540,12835.6)" text-rendering="optimizeSpeed" fill="#000000">201111 (66717)</text>
  <rect fill="blue" height="685.9" stroke="black" width="12" x="555" y="12144.7"/>
  <text x="555" y="12835.6" font-family="Tahoma" font-size="12" transform="rotate(90 555,12835.6)" text-rendering="optimizeSpeed" fill="#000000">201112 (68586)</text>
  <rect fill="blue" height="737.8" stroke="black" width="12" x="570" y="12092.8"/>
  <text x="570" y="12835.6" font-family="Tahoma" font-size="12" transform="rotate(90 570,12835.6)" text-rendering="optimizeSpeed" fill="#000000">201201 (73776)</text>
  <rect fill="blue" height="794.2" stroke="black" width="12" x="585" y="12036.4"/>
  <text x="585" y="12835.6" font-family="Tahoma" font-size="12" transform="rotate(90 585,12835.6)" text-rendering="optimizeSpeed" fill="#000000">201202 (79424)</text>
  <rect fill="blue" height="859.5" stroke="black" width="12" x="600" y="11971.0"/>
  <text x="600" y="12835.6" font-family="Tahoma" font-size="12" transform="rotate(90 600,12835.6)" text-rendering="optimizeSpeed" fill="#000000">201203 (85955)</text>
  <rect fill="blue" height="875.8" stroke="black" width="12" x="615" y="11954.8"/>
  <text x="615" y="12835.6" font-family="Tahoma" font-size="12" transform="rotate(90 615,12835.6)" text-rendering="optimizeSpeed" fill="#000000">201204 (87578)</text>
  <rect fill="blue" height="936.3" stroke="black" width="12" x="630" y="11894.3"/>
  <text x="630" y="12835.6" font-family="Tahoma" font-size="12" transform="rotate(90 630,12835.6)" text-rendering="optimizeSpeed" fill="#000000">201205 (93633)</text>
  <rect fill="blue" height="974.7" stroke="black" width="12" x="645" y="11855.9"/>
  <text x="645" y="12835.6" font-family="Tahoma" font-size="12" transform="rotate(90 645,12835.6)" text-rendering="optimizeSpeed" fill="#000000">201206 (97472)</text>
  <rect fill="blue" height="1027.6" stroke="black" width="12" x="660" y="11803.0"/>
  <text x="660" y="12835.6" font-family="Tahoma" font-size="12" transform="rotate(90 660,12835.6)" text-rendering="optimizeSpeed" fill="#000000">201207 (102764)</text>
  <rect fill="blue" height="1085.6" stroke="black" width="12" x="675" y="11745.0"/>
  <text x="675" y="12835.6" font-family="Tahoma" font-size="12" transform="rotate(90 675,12835.6)" text-rendering="optimizeSpeed" fill="#000000">201208 (108562)</text>
  <rect fill="blue" height="1114.1" stroke="black" width="12" x="690" y="11716.5"/>
  <text x="690" y="12835.6" font-family="Tahoma" font-size="12" transform="rotate(90 690,12835.6)" text-rendering="optimizeSpeed" fill="#000000">201209 (111413)</text>
  <rect fill="blue" height="1204.9" stroke="black" width="12" x="705" y="11625.7"/>
  <text x="705" y="12835.6" font-family="Tahoma" font-size="12" transform="rotate(90 705,12835.6)" text-rendering="optimizeSpeed" fill="#000000">201210 (120487)</text>
  <rect fill="blue" height="1255.5" stroke="black" width="12" x="720" y="11575.1"/>
  <text x="720" y="12835.6" font-family="Tahoma" font-size="12" transform="rotate(90 720,12835.6)" text-rendering="optimizeSpeed" fill="#000000">201211 (125552)</text>
  <rect fill="blue" height="1242.4" stroke="black" width="12" x="735" y="11588.2"/>
  <text x="735" y="12835.6" font-family="Tahoma" font-size="12" transform="rotate(90 735,12835.6)" text-rendering="optimizeSpeed" fill="#000000">201212 (124236)</text>
  <rect fill="blue" height="1369.0" stroke="black" width="12" x="750" y="11461.6"/>
  <text x="750" y="12835.6" font-family="Tahoma" font-size="12" transform="rotate(90 750,12835.6)" text-rendering="optimizeSpeed" fill="#000000">201301 (136899)</text>
  <rect fill="blue" height="1388.5" stroke="black" width="12" x="765" y="11442.1"/>
  <text x="765" y="12835.6" font-family="Tahoma" font-size="12" transform="rotate(90 765,12835.6)" text-rendering="optimizeSpeed" fill="#000000">201302 (138854)</text>
  <rect fill="blue" height="1493.6" stroke="black" width="12" x="780" y="11337.0"/>
  <text x="780" y="12835.6" font-family="Tahoma" font-size="12" transform="rotate(90 780,12835.6)" text-rendering="optimizeSpeed" fill="#000000">201303 (149358)</text>
  <rect fill="blue" height="1572.4" stroke="black" width="12" x="795" y="11258.2"/>
  <text x="795" y="12835.6" font-family="Tahoma" font-size="12" transform="rotate(90 795,12835.6)" text-rendering="optimizeSpeed" fill="#000000">201304 (157242)</text>
  <rect fill="blue" height="1613.8" stroke="black" width="12" x="810" y="11216.8"/>
  <text x="810" y="12835.6" font-family="Tahoma" font-size="12" transform="rotate(90 810,12835.6)" text-rendering="optimizeSpeed" fill="#000000">201305 (161383)</text>
  <rect fill="blue" height="1670.5" stroke="black" width="12" x="825" y="11160.1"/>
  <text x="825" y="12835.6" font-family="Tahoma" font-size="12" transform="rotate(90 825,12835.6)" text-rendering="optimizeSpeed" fill="#000000">201306 (167045)</text>
  <rect fill="blue" height="1693.5" stroke="black" width="12" x="840" y="11137.1"/>
  <text x="840" y="12835.6" font-family="Tahoma" font-size="12" transform="rotate(90 840,12835.6)" text-rendering="optimizeSpeed" fill="#000000">201307 (169350)</text>
  <rect fill="blue" height="1736.7" stroke="black" width="12" x="855" y="11093.9"/>
  <text x="855" y="12835.6" font-family="Tahoma" font-size="12" transform="rotate(90 855,12835.6)" text-rendering="optimizeSpeed" fill="#000000">201308 (173665)</text>
  <rect fill="blue" height="1811.0" stroke="black" width="12" x="870" y="11019.5"/>
  <text x="870" y="12835.6" font-family="Tahoma" font-size="12" transform="rotate(90 870,12835.6)" text-rendering="optimizeSpeed" fill="#000000">201309 (181105)</text>
  <rect fill="blue" height="1927.3" stroke="black" width="12" x="885" y="10903.3"/>
  <text x="885" y="12835.6" font-family="Tahoma" font-size="12" transform="rotate(90 885,12835.6)" text-rendering="optimizeSpeed" fill="#000000">201310 (192734)</text>
  <rect fill="blue" height="1954.0" stroke="black" width="12" x="900" y="10876.6"/>
  <text x="900" y="12835.6" font-family="Tahoma" font-size="12" transform="rotate(90 900,12835.6)" text-rendering="optimizeSpeed" fill="#000000">201311 (195404)</text>
  <rect fill="blue" height="1970.1" stroke="black" width="12" x="915" y="10860.5"/>
  <text x="915" y="12835.6" font-family="Tahoma" font-size="12" transform="rotate(90 915,12835.6)" text-rendering="optimizeSpeed" fill="#000000">201312 (197012)</text>
  <rect fill="blue" height="2078.6" stroke="black" width="12" x="930" y="10752.0"/>
  <text x="930" y="12835.6" font-family="Tahoma" font-size="12" transform="rotate(90 930,12835.6)" text-rendering="optimizeSpeed" fill="#000000">201401 (207859)</text>
  <rect fill="blue" height="2110.9" stroke="black" width="12" x="945" y="10719.7"/>
  <text x="945" y="12835.6" font-family="Tahoma" font-size="12" transform="rotate(90 945,12835.6)" text-rendering="optimizeSpeed" fill="#000000">201402 (211093)</text>
  <rect fill="blue" height="2234.4" stroke="black" width="12" x="960" y="10596.2"/>
  <text x="960" y="12835.6" font-family="Tahoma" font-size="12" transform="rotate(90 960,12835.6)" text-rendering="optimizeSpeed" fill="#000000">201403 (223442)</text>
  <rect fill="blue" height="2302.2" stroke="black" width="12" x="975" y="10528.4"/>
  <text x="975" y="12835.6" font-family="Tahoma" font-size="12" transform="rotate(90 975,12835.6)" text-rendering="optimizeSpeed" fill="#000000">201404 (230220)</text>
  <rect fill="blue" height="2389.9" stroke="black" width="12" x="990" y="10440.6"/>
  <text x="990" y="12835.6" font-family="Tahoma" font-size="12" transform="rotate(90 990,12835.6)" text-rendering="optimizeSpeed" fill="#000000">201405 (238995)</text>
  <rect fill="blue" height="2448.3" stroke="black" width="12" x="1005" y="10382.3"/>
  <text x="1005" y="12835.6" font-family="Tahoma" font-size="12" transform="rotate(90 1005,12835.6)" text-rendering="optimizeSpeed" fill="#000000">201406 (244834)</text>
  <rect fill="blue" height="2598.9" stroke="black" width="12" x="1020" y="10231.7"/>
  <text x="1020" y="12835.6" font-family="Tahoma" font-size="12" transform="rotate(90 1020,12835.6)" text-rendering="optimizeSpeed" fill="#000000">201407 (259894)</text>
  <rect fill="blue" height="2642.1" stroke="black" width="12" x="1035" y="10188.5"/>
  <text x="1035" y="12835.6" font-family="Tahoma" font-size="12" transform="rotate(90 1035,12835.6)" text-rendering="optimizeSpeed" fill="#000000">201408 (264205)</text>
  <rect fill="blue" height="2804.0" stroke="black" width="12" x="1050" y="10026.6"/>
  <text x="1050" y="12835.6" font-family="Tahoma" font-size="12" transform="rotate(90 1050,12835.6)" text-rendering="optimizeSpeed" fill="#000000">201409 (280403)</text>
  <rect fill="blue" height="2911.5" stroke="black" width="12" x="1065" y="9919.1"/>
  <text x="1065" y="12835.6" font-family="Tahoma" font-size="12" transform="rotate(90 1065,12835.6)" text-rendering="optimizeSpeed" fill="#000000">201410 (291149)</text>
  <rect fill="blue" height="2993.2" stroke="black" width="12" x="1080" y="9837.4"/>
  <text x="1080" y="12835.6" font-family="Tahoma" font-size="12" transform="rotate(90 1080,12835.6)" text-rendering="optimizeSpeed" fill="#000000">201411 (299322)</text>
  <rect fill="blue" height="3050.8" stroke="black" width="12" x="1095" y="9779.8"/>
  <text x="1095" y="12835.6" font-family="Tahoma" font-size="12" transform="rotate(90 1095,12835.6)" text-rendering="optimizeSpeed" fill="#000000">201412 (305075)</text>
  <rect fill="blue" height="3175.6" stroke="black" width="12" x="1110" y="9655.0"/>
  <text x="1110" y="12835.6" font-family="Tahoma" font-size="12" transform="rotate(90 1110,12835.6)" text-rendering="optimizeSpeed" fill="#000000">201501 (317556)</text>
  <rect fill="blue" height="3240.0" stroke="black" width="12" x="1125" y="9590.6"/>
  <text x="1125" y="12835.6" font-family="Tahoma" font-size="12" transform="rotate(90 1125,12835.6)" text-rendering="optimizeSpeed" fill="#000000">201502 (324003)</text>
  <rect fill="blue" height="3402.3" stroke="black" width="12" x="1140" y="9428.3"/>
  <text x="1140" y="12835.6" font-family="Tahoma" font-size="12" transform="rotate(90 1140,12835.6)" text-rendering="optimizeSpeed" fill="#000000">201503 (340233)</text>
  <rect fill="blue" height="3452.8" stroke="black" width="12" x="1155" y="9377.8"/>
  <text x="1155" y="12835.6" font-family="Tahoma" font-size="12" transform="rotate(90 1155,12835.6)" text-rendering="optimizeSpeed" fill="#000000">201504 (345276)</text>
  <rect fill="blue" height="3542.3" stroke="black" width="12" x="1170" y="9288.3"/>
  <text x="1170" y="12835.6" font-family="Tahoma" font-size="12" transform="rotate(90 1170,12835.6)" text-rendering="optimizeSpeed" fill="#000000">201505 (354232)</text>
  <rect fill="blue" height="3687.7" stroke="black" width="12" x="1185" y="9142.9"/>
  <text x="1185" y="12835.6" font-family="Tahoma" font-size="12" transform="rotate(90 1185,12835.6)" text-rendering="optimizeSpeed" fill="#000000">201506 (368769)</text>
  <rect fill="blue" height="3796.7" stroke="black" width="12" x="1200" y="9033.9"/>
  <text x="1200" y="12835.6" font-family="Tahoma" font-size="12" transform="rotate(90 1200,12835.6)" text-rendering="optimizeSpeed" fill="#000000">201507 (379665)</text>
  <rect fill="blue" height="3831.1" stroke="black" width="12" x="1215" y="8999.5"/>
  <text x="1215" y="12835.6" font-family="Tahoma" font-size="12" transform="rotate(90 1215,12835.6)" text-rendering="optimizeSpeed" fill="#000000">201508 (383109)</text>
  <rect fill="blue" height="3921.3" stroke="black" width="12" x="1230" y="8909.3"/>
  <text x="1230" y="12835.6" font-family="Tahoma" font-size="12" transform="rotate(90 1230,12835.6)" text-rendering="optimizeSpeed" fill="#000000">201509 (392134)</text>
  <rect fill="blue" height="4108.4" stroke="black" width="12" x="1245" y="8722.2"/>
  <text x="1245" y="12835.6" font-family="Tahoma" font-size="12" transform="rotate(90 1245,12835.6)" text-rendering="optimizeSpeed" fill="#000000">201510 (410844)</text>
  <rect fill="blue" height="4165.1" stroke="black" width="12" x="1260" y="8665.5"/>
  <text x="1260" y="12835.6" font-family="Tahoma" font-size="12" transform="rotate(90 1260,12835.6)" text-rendering="optimizeSpeed" fill="#000000">201511 (416512)</text>
  <rect fill="blue" height="4224.2" stroke="black" width="12" x="1275" y="8606.3"/>
  <text x="1275" y="12835.6" font-family="Tahoma" font-size="12" transform="rotate(90 1275,12835.6)" text-rendering="optimizeSpeed" fill="#000000">201512 (422425)</text>
  <rect fill="blue" height="4307.6" stroke="black" width="12" x="1290" y="8523.0"/>
  <text x="1290" y="12835.6" font-family="Tahoma" font-size="12" transform="rotate(90 1290,12835.6)" text-rendering="optimizeSpeed" fill="#000000">201601 (430764)</text>
  <rect fill="blue" height="4009.8" stroke="black" width="12" x="1305" y="8820.8"/>
  <text x="1305" y="12835.6" font-family="Tahoma" font-size="12" transform="rotate(90 1305,12835.6)" text-rendering="optimizeSpeed" fill="#000000">201602 (400978)</text>
  <rect fill="blue" height="4029.6" stroke="black" width="12" x="1320" y="8801.0"/>
  <text x="1320" y="12835.6" font-family="Tahoma" font-size="12" transform="rotate(90 1320,12835.6)" text-rendering="optimizeSpeed" fill="#000000">201603 (402964)</text>
  <rect fill="blue" height="4218.0" stroke="black" width="12" x="1335" y="8612.6"/>
  <text x="1335" y="12835.6" font-family="Tahoma" font-size="12" transform="rotate(90 1335,12835.6)" text-rendering="optimizeSpeed" fill="#000000">201604 (421798)</text>
  <rect fill="blue" height="4441.5" stroke="black" width="12" x="1350" y="8389.1"/>
  <text x="1350" y="12835.6" font-family="Tahoma" font-size="12" transform="rotate(90 1350,12835.6)" text-rendering="optimizeSpeed" fill="#000000">201605 (444150)</text>
  <rect fill="blue" height="4705.4" stroke="black" width="12" x="1365" y="8125.2"/>
  <text x="1365" y="12835.6" font-family="Tahoma" font-size="12" transform="rotate(90 1365,12835.6)" text-rendering="optimizeSpeed" fill="#000000">201606 (470543)</text>
  <rect fill="blue" height="4658.5" stroke="black" width="12" x="1380" y="8172.1"/>
  <text x="1380" y="12835.6" font-family="Tahoma" font-size="12" transform="rotate(90 1380,12835.6)" text-rendering="optimizeSpeed" fill="#000000">201607 (465848)</text>
  <rect fill="blue" height="4904.5" stroke="black" width="12" x="1395" y="7926.1"/>
  <text x="1395" y="12835.6" font-family="Tahoma" font-size="12" transform="rotate(90 1395,12835.6)" text-rendering="optimizeSpeed" fill="#000000">201608 (490450)</text>
  <rect fill="blue" height="4870.0" stroke="black" width="12" x="1410" y="7960.6"/>
  <text x="1410" y="12835.6" font-family="Tahoma" font-size="12" transform="rotate(90 1410,12835.6)" text-rendering="optimizeSpeed" fill="#000000">201609 (486996)</text>
  <rect fill="blue" height="5021.5" stroke="black" width="12" x="1425" y="7809.1"/>
  <text x="1425" y="12835.6" font-family="Tahoma" font-size="12" transform="rotate(90 1425,12835.6)" text-rendering="optimizeSpeed" fill="#000000">201610 (502150)</text>
  <rect fill="blue" height="5111.4" stroke="black" width="12" x="1440" y="7719.2"/>
  <text x="1440" y="12835.6" font-family="Tahoma" font-size="12" transform="rotate(90 1440,12835.6)" text-rendering="optimizeSpeed" fill="#000000">201611 (511136)</text>
  <rect fill="blue" height="5108.5" stroke="black" width="12" x="1455" y="7722.1"/>
  <text x="1455" y="12835.6" font-family="Tahoma" font-size="12" transform="rotate(90 1455,12835.6)" text-rendering="optimizeSpeed" fill="#000000">201612 (510853)</text>
  <rect fill="blue" height="5220.8" stroke="black" width="12" x="1470" y="7609.8"/>
  <text x="1470" y="12835.6" font-family="Tahoma" font-size="12" transform="rotate(90 1470,12835.6)" text-rendering="optimizeSpeed" fill="#000000">201701 (522081)</text>
  <rect fill="blue" height="5333.8" stroke="black" width="12" x="1485" y="7496.8"/>
  <text x="1485" y="12835.6" font-family="Tahoma" font-size="12" transform="rotate(90 1485,12835.6)" text-rendering="optimizeSpeed" fill="#000000">201702 (533384)</text>
  <rect fill="blue" height="5663.2" stroke="black" width="12" x="1500" y="7167.4"/>
  <text x="1500" y="12835.6" font-family="Tahoma" font-size="12" transform="rotate(90 1500,12835.6)" text-rendering="optimizeSpeed" fill="#000000">201703 (566323)</text>
  <rect fill="blue" height="5679.8" stroke="black" width="12" x="1515" y="7150.8"/>
  <text x="1515" y="12835.6" font-family="Tahoma" font-size="12" transform="rotate(90 1515,12835.6)" text-rendering="optimizeSpeed" fill="#000000">201704 (567984)</text>
  <rect fill="blue" height="5840.7" stroke="black" width="12" x="1530" y="6989.9"/>
  <text x="1530" y="12835.6" font-family="Tahoma" font-size="12" transform="rotate(90 1530,12835.6)" text-rendering="optimizeSpeed" fill="#000000">201705 (584068)</text>
  <rect fill="blue" height="6001.5" stroke="black" width="12" x="1545" y="6829.1"/>
  <text x="1545" y="12835.6" font-family="Tahoma" font-size="12" transform="rotate(90 1545,12835.6)" text-rendering="optimizeSpeed" fill="#000000">201706 (600152)</text>
  <rect fill="blue" height="5990.8" stroke="black" width="12" x="1560" y="6839.8"/>
  <text x="1560" y="12835.6" font-family="Tahoma" font-size="12" transform="rotate(90 1560,12835.6)" text-rendering="optimizeSpeed" fill="#000000">201707 (599083)</text>
  <rect fill="blue" height="6284.9" stroke="black" width="12" x="1575" y="6545.7"/>
  <text x="1575" y="12835.6" font-family="Tahoma" font-size="12" transform="rotate(90 1575,12835.6)" text-rendering="optimizeSpeed" fill="#000000">201708 (628486)</text>
  <rect fill="blue" height="6300.6" stroke="black" width="12" x="1590" y="6530.0"/>
  <text x="1590" y="12835.6" font-family="Tahoma" font-size="12" transform="rotate(90 1590,12835.6)" text-rendering="optimizeSpeed" fill="#000000">201709 (630058)</text>
  <rect fill="blue" height="6367.5" stroke="black" width="12" x="1605" y="6463.1"/>
  <text x="1605" y="12835.6" font-family="Tahoma" font-size="12" transform="rotate(90 1605,12835.6)" text-rendering="optimizeSpeed" fill="#000000">201710 (636746)</text>
  <rect fill="blue" height="6538.0" stroke="black" width="12" x="1620" y="6292.6"/>
  <text x="1620" y="12835.6" font-family="Tahoma" font-size="12" transform="rotate(90 1620,12835.6)" text-rendering="optimizeSpeed" fill="#000000">201711 (653801)</text>
  <rect fill="blue" height="6435.3" stroke="black" width="12" x="1635" y="6395.3"/>
  <text x="1635" y="12835.6" font-family="Tahoma" font-size="12" transform="rotate(90 1635,12835.6)" text-rendering="optimizeSpeed" fill="#000000">201712 (643533)</text>
  <rect fill="blue" height="6736.1" stroke="black" width="12" x="1650" y="6094.5"/>
  <text x="1650" y="12835.6" font-family="Tahoma" font-size="12" transform="rotate(90 1650,12835.6)" text-rendering="optimizeSpeed" fill="#000000">201801 (673607)</text>
  <rect fill="blue" height="6659.2" stroke="black" width="12" x="1665" y="6171.4"/>
  <text x="1665" y="12835.6" font-family="Tahoma" font-size="12" transform="rotate(90 1665,12835.6)" text-rendering="optimizeSpeed" fill="#000000">201802 (665919)</text>
  <rect fill="blue" height="6966.3" stroke="black" width="12" x="1680" y="5864.3"/>
  <text x="1680" y="12835.6" font-family="Tahoma" font-size="12" transform="rotate(90 1680,12835.6)" text-rendering="optimizeSpeed" fill="#000000">201803 (696633)</text>
  <rect fill="blue" height="6985.9" stroke="black" width="12" x="1695" y="5844.7"/>
  <text x="1695" y="12835.6" font-family="Tahoma" font-size="12" transform="rotate(90 1695,12835.6)" text-rendering="optimizeSpeed" fill="#000000">201804 (698590)</text>
  <rect fill="blue" height="7098.4" stroke="black" width="12" x="1710" y="5732.2"/>
  <text x="1710" y="12835.6" font-family="Tahoma" font-size="12" transform="rotate(90 1710,12835.6)" text-rendering="optimizeSpeed" fill="#000000">201805 (709836)</text>
  <rect fill="blue" height="7253.9" stroke="black" width="12" x="1725" y="5576.7"/>
  <text x="1725" y="12835.6" font-family="Tahoma" font-size="12" transform="rotate(90 1725,12835.6)" text-rendering="optimizeSpeed" fill="#000000">201806 (725387)</text>
  <rect fill="blue" height="7329.2" stroke="black" width="12" x="1740" y="5501.4"/>
  <text x="1740" y="12835.6" font-family="Tahoma" font-size="12" transform="rotate(90 1740,12835.6)" text-rendering="optimizeSpeed" fill="#000000">201807 (732916)</text>
  <rect fill="blue" height="7538.1" stroke="black" width="12" x="1755" y="5292.5"/>
  <text x="1755" y="12835.6" font-family="Tahoma" font-size="12" transform="rotate(90 1755,12835.6)" text-rendering="optimizeSpeed" fill="#000000">201808 (753805)</text>
  <rect fill="blue" height="7595.7" stroke="black" width="12" x="1770" y="5234.9"/>
  <text x="1770" y="12835.6" font-family="Tahoma" font-size="12" transform="rotate(90 1770,12835.6)" text-rendering="optimizeSpeed" fill="#000000">201809 (759569)</text>
  <rect fill="blue" height="8104.8" stroke="black" width="12" x="1785" y="4725.8"/>
  <text x="1785" y="12835.6" font-family="Tahoma" font-size="12" transform="rotate(90 1785,12835.6)" text-rendering="optimizeSpeed" fill="#000000">201810 (810477)</text>
  <rect fill="blue" height="8351.0" stroke="black" width="12" x="1800" y="4479.6"/>
  <text x="1800" y="12835.6" font-family="Tahoma" font-size="12" transform="rotate(90 1800,12835.6)" text-rendering="optimizeSpeed" fill="#000000">201811 (835100)</text>
  <rect fill="blue" height="8269.5" stroke="black" width="12" x="1815" y="4561.1"/>
  <text x="1815" y="12835.6" font-family="Tahoma" font-size="12" transform="rotate(90 1815,12835.6)" text-rendering="optimizeSpeed" fill="#000000">201812 (826949)</text>
  <rect fill="blue" height="8675.8" stroke="black" width="12" x="1830" y="4154.8"/>
  <text x="1830" y="12835.6" font-family="Tahoma" font-size="12" transform="rotate(90 1830,12835.6)" text-rendering="optimizeSpeed" fill="#000000">201901 (867578)</text>
  <rect fill="blue" height="8726.4" stroke="black" width="12" x="1845" y="4104.2"/>
  <text x="1845" y="12835.6" font-family="Tahoma" font-size="12" transform="rotate(90 1845,12835.6)" text-rendering="optimizeSpeed" fill="#000000">201902 (872635)</text>
  <rect fill="blue" height="9288.4" stroke="black" width="12" x="1860" y="3542.2"/>
  <text x="1860" y="12835.6" font-family="Tahoma" font-size="12" transform="rotate(90 1860,12835.6)" text-rendering="optimizeSpeed" fill="#000000">201903 (928842)</text>
  <rect fill="blue" height="9305.0" stroke="black" width="12" x="1875" y="3525.6"/>
  <text x="1875" y="12835.6" font-family="Tahoma" font-size="12" transform="rotate(90 1875,12835.6)" text-rendering="optimizeSpeed" fill="#000000">201904 (930500)</text>
  <rect fill="blue" height="9490.0" stroke="black" width="12" x="1890" y="3340.6"/>
  <text x="1890" y="12835.6" font-family="Tahoma" font-size="12" transform="rotate(90 1890,12835.6)" text-rendering="optimizeSpeed" fill="#000000">201905 (948999)</text>
  <rect fill="blue" height="9618.5" stroke="black" width="12" x="1905" y="3212.1"/>
  <text x="1905" y="12835.6" font-family="Tahoma" font-size="12" transform="rotate(90 1905,12835.6)" text-rendering="optimizeSpeed" fill="#000000">201906 (961854)</text>
  <rect fill="blue" height="9838.9" stroke="black" width="12" x="1920" y="2991.8"/>
  <text x="1920" y="12835.6" font-family="Tahoma" font-size="12" transform="rotate(90 1920,12835.6)" text-rendering="optimizeSpeed" fill="#000000">201907 (983885)</text>
  <rect fill="blue" height="9622.9" stroke="black" width="12" x="1935" y="3207.8"/>
  <text x="1935" y="12835.6" font-family="Tahoma" font-size="12" transform="rotate(90 1935,12835.6)" text-rendering="optimizeSpeed" fill="#000000">201908 (962285)</text>
  <rect fill="blue" height="9740.9" stroke="black" width="12" x="1950" y="3089.7"/>
  <text x="1950" y="12835.6" font-family="Tahoma" font-size="12" transform="rotate(90 1950,12835.6)" text-rendering="optimizeSpeed" fill="#000000">201909 (974091)</text>
  <rect fill="blue" height="9946.6" stroke="black" width="12" x="1965" y="2884.0"/>
  <text x="1965" y="12835.6" font-family="Tahoma" font-size="12" transform="rotate(90 1965,12835.6)" text-rendering="optimizeSpeed" fill="#000000">201910 (994661)</text>
  <rect fill="blue" height="9888.9" stroke="black" width="12" x="1980" y="2941.7"/>
  <text x="1980" y="12835.6" font-family="Tahoma" font-size="12" transform="rotate(90 1980,12835.6)" text-rendering="optimizeSpeed" fill="#000000">201911 (988886)</text>
  <rect fill="blue" height="9927.7" stroke="black" width="12" x="1995" y="2902.9"/>
  <text x="1995" y="12835.6" font-family="Tahoma" font-size="12" transform="rotate(90 1995,12835.6)" text-rendering="optimizeSpeed" fill="#000000">201912 (992769)</text>
  <rect fill="blue" height="10124.0" stroke="black" width="12" x="2010" y="2706.5"/>
  <text x="2010" y="12835.6" font-family="Tahoma" font-size="12" transform="rotate(90 2010,12835.6)" text-rendering="optimizeSpeed" fill="#000000">202001 (1012405)</text>
  <rect fill="blue" height="10059.0" stroke="black" width="12" x="2025" y="2771.5"/>
  <text x="2025" y="12835.6" font-family="Tahoma" font-size="12" transform="rotate(90 2025,12835.6)" text-rendering="optimizeSpeed" fill="#000000">202002 (1005905)</text>
  <rect fill="blue" height="10297.0" stroke="black" width="12" x="2040" y="2533.5"/>
  <text x="2040" y="12835.6" font-family="Tahoma" font-size="12" transform="rotate(90 2040,12835.6)" text-rendering="optimizeSpeed" fill="#000000">202003 (1029705)</text>
  <rect fill="blue" height="10261.7" stroke="black" width="12" x="2055" y="2568.9"/>
  <text x="2055" y="12835.6" font-family="Tahoma" font-size="12" transform="rotate(90 2055,12835.6)" text-rendering="optimizeSpeed" fill="#000000">202004 (1026171)</text>
  <rect fill="blue" height="10284.9" stroke="black" width="12" x="2070" y="2545.7"/>
  <text x="2070" y="12835.6" font-family="Tahoma" font-size="12" transform="rotate(90 2070,12835.6)" text-rendering="optimizeSpeed" fill="#000000">202005 (1028488)</text>
  <rect fill="blue" height="10443.9" stroke="black" width="12" x="2085" y="2386.7"/>
  <text x="2085" y="12835.6" font-family="Tahoma" font-size="12" transform="rotate(90 2085,12835.6)" text-rendering="optimizeSpeed" fill="#000000">202006 (1044393)</text>
  <rect fill="blue" height="10501.6" stroke="black" width="12" x="2100" y="2329.0"/>
  <text x="2100" y="12835.6" font-family="Tahoma" font-size="12" transform="rotate(90 2100,12835.6)" text-rendering="optimizeSpeed" fill="#000000">202007 (1050158)</text>
  <rect fill="blue" height="10397.2" stroke="black" width="12" x="2115" y="2433.4"/>
  <text x="2115" y="12835.6" font-family="Tahoma" font-size="12" transform="rotate(90 2115,12835.6)" text-rendering="optimizeSpeed" fill="#000000">202008 (1039723)</text>
  <rect fill="blue" height="10608.6" stroke="black" width="12" x="2130" y="2222.0"/>
  <text x="2130" y="12835.6" font-family="Tahoma" font-size="12" transform="rotate(90 2130,12835.6)" text-rendering="optimizeSpeed" fill="#000000">202009 (1060856)</text>
  <rect fill="blue" height="10579.8" stroke="black" width="12" x="2145" y="2250.8"/>
  <text x="2145" y="12835.6" font-family="Tahoma" font-size="12" transform="rotate(90 2145,12835.6)" text-rendering="optimizeSpeed" fill="#000000">202010 (1057979)</text>
  <rect fill="blue" height="10581.1" stroke="black" width="12" x="2160" y="2249.5"/>
  <text x="2160" y="12835.6" font-family="Tahoma" font-size="12" transform="rotate(90 2160,12835.6)" text-rendering="optimizeSpeed" fill="#000000">202011 (1058114)</text>
  <rect fill="blue" height="10627.6" stroke="black" width="12" x="2175" y="2203.0"/>
  <text x="2175" y="12835.6" font-family="Tahoma" font-size="12" transform="rotate(90 2175,12835.6)" text-rendering="optimizeSpeed" fill="#000000">202012 (1062756)</text>
  <rect fill="blue" height="10719.0" stroke="black" width="12" x="2190" y="2111.6"/>
  <text x="2190" y="12835.6" font-family="Tahoma" font-size="12" transform="rotate(90 2190,12835.6)" text-rendering="optimizeSpeed" fill="#000000">202101 (1071902)</text>
  <rect fill="blue" height="10734.0" stroke="black" width="12" x="2205" y="2096.6"/>
  <text x="2205" y="12835.6" font-family="Tahoma" font-size="12" transform="rotate(90 2205,12835.6)" text-rendering="optimizeSpeed" fill="#000000">202102 (1073397)</text>
  <rect fill="blue" height="11303.1" stroke="black" width="12" x="2220" y="1527.5"/>
  <text x="2220" y="12835.6" font-family="Tahoma" font-size="12" transform="rotate(90 2220,12835.6)" text-rendering="optimizeSpeed" fill="#000000">202103 (1130307)</text>
  <rect fill="blue" height="11208.6" stroke="black" width="12" x="2235" y="1622.0"/>
  <text x="2235" y="12835.6" font-family="Tahoma" font-size="12" transform="rotate(90 2235,12835.6)" text-rendering="optimizeSpeed" fill="#000000">202104 (1120859)</text>
  <rect fill="blue" height="11131.4" stroke="black" width="12" x="2250" y="1699.2"/>
  <text x="2250" y="12835.6" font-family="Tahoma" font-size="12" transform="rotate(90 2250,12835.6)" text-rendering="optimizeSpeed" fill="#000000">202105 (1113135)</text>
  <rect fill="blue" height="11321.9" stroke="black" width="12" x="2265" y="1508.7"/>
  <text x="2265" y="12835.6" font-family="Tahoma" font-size="12" transform="rotate(90 2265,12835.6)" text-rendering="optimizeSpeed" fill="#000000">202106 (1132194)</text>
  <rect fill="blue" height="11331.1" stroke="black" width="12" x="2280" y="1499.5"/>
  <text x="2280" y="12835.6" font-family="Tahoma" font-size="12" transform="rotate(90 2280,12835.6)" text-rendering="optimizeSpeed" fill="#000000">202107 (1133107)</text>
  <rect fill="blue" height="11415.8" stroke="black" width="12" x="2295" y="1414.8"/>
  <text x="2295" y="12835.6" font-family="Tahoma" font-size="12" transform="rotate(90 2295,12835.6)" text-rendering="optimizeSpeed" fill="#000000">202108 (1141584)</text>
  <rect fill="blue" height="11577.1" stroke="black" width="12" x="2310" y="1253.4"/>
  <text x="2310" y="12835.6" font-family="Tahoma" font-size="12" transform="rotate(90 2310,12835.6)" text-rendering="optimizeSpeed" fill="#000000">202109 (1157715)</text>
  <rect fill="blue" height="11472.9" stroke="black" width="12" x="2325" y="1357.7"/>
  <text x="2325" y="12835.6" font-family="Tahoma" font-size="12" transform="rotate(90 2325,12835.6)" text-rendering="optimizeSpeed" fill="#000000">202110 (1147294)</text>
  <rect fill="blue" height="11494.2" stroke="black" width="12" x="2340" y="1336.4"/>
  <text x="2340" y="12835.6" font-family="Tahoma" font-size="12" transform="rotate(90 2340,12835.6)" text-rendering="optimizeSpeed" fill="#000000">202111 (1149419)</text>
  <rect fill="blue" height="11607.7" stroke="black" width="12" x="2355" y="1222.9"/>
  <text x="2355" y="12835.6" font-family="Tahoma" font-size="12" transform="rotate(90 2355,12835.6)" text-rendering="optimizeSpeed" fill="#000000">202112 (1160768)</text>
  <rect fill="blue" height="11759.3" stroke="black" width="12" x="2370" y="1071.3"/>
  <text x="2370" y="12835.6" font-family="Tahoma" font-size="12" transform="rotate(90 2370,12835.6)" text-rendering="optimizeSpeed" fill="#000000">202201 (1175926)</text>
  <rect fill="blue" height="11564.9" stroke="black" width="12" x="2385" y="1265.7"/>
  <text x="2385" y="12835.6" font-family="Tahoma" font-size="12" transform="rotate(90 2385,12835.6)" text-rendering="optimizeSpeed" fill="#000000">202202 (1156490)</text>
  <rect fill="blue" height="12211.3" stroke="black" width="12" x="2400" y="619.3"/>
  <text x="2400" y="12835.6" font-family="Tahoma" font-size="12" transform="rotate(90 2400,12835.6)" text-rendering="optimizeSpeed" fill="#000000">202203 (1221128)</text>
  <rect fill="blue" height="12162.6" stroke="black" width="12" x="2415" y="668.0"/>
  <text x="2415" y="12835.6" font-family="Tahoma" font-size="12" transform="rotate(90 2415,12835.6)" text-rendering="optimizeSpeed" fill="#000000">202204 (1216261)</text>
  <rect fill="blue" height="12106.9" stroke="black" width="12" x="2430" y="723.8"/>
  <text x="2430" y="12835.6" font-family="Tahoma" font-size="12" transform="rotate(90 2430,12835.6)" text-rendering="optimizeSpeed" fill="#000000">202205 (1210685)</text>
  <rect fill="blue" height="12154.3" stroke="black" width="12" x="2445" y="676.3"/>
  <text x="2445" y="12835.6" font-family="Tahoma" font-size="12" transform="rotate(90 2445,12835.6)" text-rendering="optimizeSpeed" fill="#000000">202206 (1215432)</text>
  <rect fill="blue" height="12241.8" stroke="black" width="12" x="2460" y="588.8"/>
  <text x="2460" y="12835.6" font-family="Tahoma" font-size="12" transform="rotate(90 2460,12835.6)" text-rendering="optimizeSpeed" fill="#000000">202207 (1224177)</text>
  <rect fill="blue" height="12721.7" stroke="black" width="12" x="2475" y="108.9"/>
  <text x="2475" y="12835.6" font-family="Tahoma" font-size="12" transform="rotate(90 2475,12835.6)" text-rendering="optimizeSpeed" fill="#000000">202208 (1272169)</text>
  <rect fill="blue" height="12409.8" stroke="black" width="12" x="2490" y="420.8"/>
  <text x="2490" y="12835.6" font-family="Tahoma" font-size="12" transform="rotate(90 2490,12835.6)" text-rendering="optimizeSpeed" fill="#000000">202209 (1240982)</text>
  <rect fill="blue" height="12354.1" stroke="black" width="12" x="2505" y="476.5"/>
  <text x="2505" y="12835.6" font-family="Tahoma" font-size="12" transform="rotate(90 2505,12835.6)" text-rendering="optimizeSpeed" fill="#000000">202210 (1235414)</text>
  <rect fill="blue" height="12321.0" stroke="black" width="12" x="2520" y="509.6"/>
  <text x="2520" y="12835.6" font-family="Tahoma" font-size="12" transform="rotate(90 2520,12835.6)" text-rendering="optimizeSpeed" fill="#000000">202211 (1232102)</text>
  <rect fill="blue" height="11878.9" stroke="black" width="12" x="2535" y="951.8"/>
  <text x="2535" y="12835.6" font-family="Tahoma" font-size="12" transform="rotate(90 2535,12835.6)" text-rendering="optimizeSpeed" fill="#000000">202212 (1187885)</text>
  <rect fill="blue" height="12114.5" stroke="black" width="12" x="2550" y="716.1"/>
  <text x="2550" y="12835.6" font-family="Tahoma" font-size="12" transform="rotate(90 2550,12835.6)" text-rendering="optimizeSpeed" fill="#000000">202301 (1211446)</text>
  <rect fill="blue" height="12232.7" stroke="black" width="12" x="2565" y="597.9"/>
  <text x="2565" y="12835.6" font-family="Tahoma" font-size="12" transform="rotate(90 2565,12835.6)" text-rendering="optimizeSpeed" fill="#000000">202302 (1223273)</text>
  <rect fill="blue" height="12780.6" stroke="black" width="12" x="2580" y="50.0"/>
  <text x="2580" y="12835.6" font-family="Tahoma" font-size="12" transform="rotate(90 2580,12835.6)" text-rendering="optimizeSpeed" fill="#000000">202303 (1278060)</text>
  <rect fill="blue" height="11755.5" stroke="black" width="12" x="2595" y="1075.0"/>
  <text x="2595" y="12835.6" font-family="Tahoma" font-size="12" transform="rotate(90 2595,12835.6)" text-rendering="optimizeSpeed" fill="#000000">202304 (1175555)</text>
  <rect fill="blue" height="11215.5" stroke="black" width="12" x="2610" y="1615.1"/>
  <text x="2610" y="12835.6" font-family="Tahoma" font-size="12" transform="rotate(90 2610,12835.6)" text-rendering="optimizeSpeed" fill="#000000">202305 (1121551)</text>
  <rect fill="blue" height="11923.5" stroke="black" width="12" x="2625" y="907.1"/>
  <text x="2625" y="12835.6" font-family="Tahoma" font-size="12" transform="rotate(90 2625,12835.6)" text-rendering="optimizeSpeed" fill="#000000">202306 (1192351)</text>
  <rect fill="blue" height="12151.5" stroke="black" width="12" x="2640" y="679.1"/>
  <text x="2640" y="12835.6" font-family="Tahoma" font-size="12" transform="rotate(90 2640,12835.6)" text-rendering="optimizeSpeed" fill="#000000">202307 (1215152)</text>
  <rect fill="blue" height="12430.9" stroke="black" width="12" x="2655" y="399.8"/>
  <text x="2655" y="12835.6" font-family="Tahoma" font-size="12" transform="rotate(90 2655,12835.6)" text-rendering="optimizeSpeed" fill="#000000">202308 (1243085)</text>
  <rect fill="blue" height="12232.3" stroke="black" width="12" x="2670" y="598.3"/>
  <text x="2670" y="12835.6" font-family="Tahoma" font-size="12" transform="rotate(90 2670,12835.6)" text-rendering="optimizeSpeed" fill="#000000">202309 (1223227)</text>
  <rect fill="blue" height="12231.0" stroke="black" width="12" x="2685" y="599.6"/>
  <text x="2685" y="12835.6" font-family="Tahoma" font-size="12" transform="rotate(90 2685,12835.6)" text-rendering="optimizeSpeed" fill="#000000">202310 (1223102)</text>
  <rect fill="blue" height="12324.4" stroke="black" width="12" x="2700" y="506.2"/>
  <text x="2700" y="12835.6" font-family="Tahoma" font-size="12" transform="rotate(90 2700,12835.6)" text-rendering="optimizeSpeed" fill="#000000">202311 (1232441)</text>
  <rect fill="blue" height="11863.6" stroke="black" width="12" x="2715" y="967.0"/>
  <text x="2715" y="12835.6" font-family="Tahoma" font-size="12" transform="rotate(90 2715,12835.6)" text-rendering="optimizeSpeed" fill="#000000">202312 (1186358)</text>
  <rect fill="blue" height="12344.8" stroke="black" width="12" x="2730" y="485.8"/>
  <text x="2730" y="12835.6" font-family="Tahoma" font-size="12" transform="rotate(90 2730,12835.6)" text-rendering="optimizeSpeed" fill="#000000">202401 (1234480)</text>
  <rect fill="blue" height="12299.8" stroke="black" width="12" x="2745" y="530.8"/>
  <text x="2745" y="12835.6" font-family="Tahoma" font-size="12" transform="rotate(90 2745,12835.6)" text-rendering="optimizeSpeed" fill="#000000">202402 (1229975)</text>
  <rect fill="blue" height="12431.3" stroke="black" width="12" x="2760" y="399.3"/>
  <text x="2760" y="12835.6" font-family="Tahoma" font-size="12" transform="rotate(90 2760,12835.6)" text-rendering="optimizeSpeed" fill="#000000">202403 (1243126)</text>
  <rect fill="blue" height="12234.9" stroke="black" width="12" x="2775" y="595.7"/>
  <text x="2775" y="12835.6" font-family="Tahoma" font-size="12" transform="rotate(90 2775,12835.6)" text-rendering="optimizeSpeed" fill="#000000">202404 (1223488)</text>
  <text x="10" y="40" font-family="Tahoma" font-size="20" text-rendering="optimizeSpeed" fill="#000000">Total nodes</text>
</svg>
