<svg xmlns="http://www.w3.org/2000/svg" version="1.1" preserveAspectRatio="xMidYMid meet" viewBox="0 0 2495 64193.7">
  <rect fill="blue" height="16.3" stroke="black" width="12" x="15" y="63877.3"/>
  <text x="15" y="63898.7" font-family="Tahoma" font-size="12" transform="rotate(90 15,63898.7)" text-rendering="optimizeSpeed" fill="#000000">200812 (16323)</text>
  <rect fill="blue" height="57.0" stroke="black" width="12" x="30" y="63836.7"/>
  <text x="30" y="63898.7" font-family="Tahoma" font-size="12" transform="rotate(90 30,63898.7)" text-rendering="optimizeSpeed" fill="#000000">200901 (57010)</text>
  <rect fill="blue" height="77.6" stroke="black" width="12" x="45" y="63816.1"/>
  <text x="45" y="63898.7" font-family="Tahoma" font-size="12" transform="rotate(90 45,63898.7)" text-rendering="optimizeSpeed" fill="#000000">200902 (77587)</text>
  <rect fill="blue" height="104.4" stroke="black" width="12" x="60" y="63789.3"/>
  <text x="60" y="63898.7" font-family="Tahoma" font-size="12" transform="rotate(90 60,63898.7)" text-rendering="optimizeSpeed" fill="#000000">200903 (104364)</text>
  <rect fill="blue" height="119.0" stroke="black" width="12" x="75" y="63774.6"/>
  <text x="75" y="63898.7" font-family="Tahoma" font-size="12" transform="rotate(90 75,63898.7)" text-rendering="optimizeSpeed" fill="#000000">200904 (119034)</text>
  <rect fill="blue" height="133.1" stroke="black" width="12" x="90" y="63760.6"/>
  <text x="90" y="63898.7" font-family="Tahoma" font-size="12" transform="rotate(90 90,63898.7)" text-rendering="optimizeSpeed" fill="#000000">200905 (133090)</text>
  <rect fill="blue" height="154.3" stroke="black" width="12" x="105" y="63739.3"/>
  <text x="105" y="63898.7" font-family="Tahoma" font-size="12" transform="rotate(90 105,63898.7)" text-rendering="optimizeSpeed" fill="#000000">200906 (154319)</text>
  <rect fill="blue" height="173.4" stroke="black" width="12" x="120" y="63720.3"/>
  <text x="120" y="63898.7" font-family="Tahoma" font-size="12" transform="rotate(90 120,63898.7)" text-rendering="optimizeSpeed" fill="#000000">200907 (173410)</text>
  <rect fill="blue" height="183.4" stroke="black" width="12" x="135" y="63710.2"/>
  <text x="135" y="63898.7" font-family="Tahoma" font-size="12" transform="rotate(90 135,63898.7)" text-rendering="optimizeSpeed" fill="#000000">200908 (183425)</text>
  <rect fill="blue" height="201.9" stroke="black" width="12" x="150" y="63691.7"/>
  <text x="150" y="63898.7" font-family="Tahoma" font-size="12" transform="rotate(90 150,63898.7)" text-rendering="optimizeSpeed" fill="#000000">200909 (201948)</text>
  <rect fill="blue" height="222.7" stroke="black" width="12" x="165" y="63671.0"/>
  <text x="165" y="63898.7" font-family="Tahoma" font-size="12" transform="rotate(90 165,63898.7)" text-rendering="optimizeSpeed" fill="#000000">200910 (222659)</text>
  <rect fill="blue" height="254.0" stroke="black" width="12" x="180" y="63639.7"/>
  <text x="180" y="63898.7" font-family="Tahoma" font-size="12" transform="rotate(90 180,63898.7)" text-rendering="optimizeSpeed" fill="#000000">200911 (254005)</text>
  <rect fill="blue" height="273.9" stroke="black" width="12" x="195" y="63619.8"/>
  <text x="195" y="63898.7" font-family="Tahoma" font-size="12" transform="rotate(90 195,63898.7)" text-rendering="optimizeSpeed" fill="#000000">200912 (273876)</text>
  <rect fill="blue" height="287.3" stroke="black" width="12" x="210" y="63606.4"/>
  <text x="210" y="63898.7" font-family="Tahoma" font-size="12" transform="rotate(90 210,63898.7)" text-rendering="optimizeSpeed" fill="#000000">201001 (287288)</text>
  <rect fill="blue" height="309.5" stroke="black" width="12" x="225" y="63584.1"/>
  <text x="225" y="63898.7" font-family="Tahoma" font-size="12" transform="rotate(90 225,63898.7)" text-rendering="optimizeSpeed" fill="#000000">201002 (309523)</text>
  <rect fill="blue" height="347.2" stroke="black" width="12" x="240" y="63546.4"/>
  <text x="240" y="63898.7" font-family="Tahoma" font-size="12" transform="rotate(90 240,63898.7)" text-rendering="optimizeSpeed" fill="#000000">201003 (347236)</text>
  <rect fill="blue" height="362.7" stroke="black" width="12" x="255" y="63531.0"/>
  <text x="255" y="63898.7" font-family="Tahoma" font-size="12" transform="rotate(90 255,63898.7)" text-rendering="optimizeSpeed" fill="#000000">201004 (362659)</text>
  <rect fill="blue" height="392.0" stroke="black" width="12" x="270" y="63501.6"/>
  <text x="270" y="63898.7" font-family="Tahoma" font-size="12" transform="rotate(90 270,63898.7)" text-rendering="optimizeSpeed" fill="#000000">201005 (392035)</text>
  <rect fill="blue" height="415.2" stroke="black" width="12" x="285" y="63478.5"/>
  <text x="285" y="63898.7" font-family="Tahoma" font-size="12" transform="rotate(90 285,63898.7)" text-rendering="optimizeSpeed" fill="#000000">201006 (415165)</text>
  <rect fill="blue" height="434.3" stroke="black" width="12" x="300" y="63459.4"/>
  <text x="300" y="63898.7" font-family="Tahoma" font-size="12" transform="rotate(90 300,63898.7)" text-rendering="optimizeSpeed" fill="#000000">201007 (434258)</text>
  <rect fill="blue" height="125.5" stroke="black" width="12" x="315" y="63768.2"/>
  <text x="315" y="63898.7" font-family="Tahoma" font-size="12" transform="rotate(90 315,63898.7)" text-rendering="optimizeSpeed" fill="#000000">201008 (125455)</text>
  <rect fill="blue" height="198.2" stroke="black" width="12" x="330" y="63695.5"/>
  <text x="330" y="63898.7" font-family="Tahoma" font-size="12" transform="rotate(90 330,63898.7)" text-rendering="optimizeSpeed" fill="#000000">201009 (198206)</text>
  <rect fill="blue" height="261.4" stroke="black" width="12" x="345" y="63632.3"/>
  <text x="345" y="63898.7" font-family="Tahoma" font-size="12" transform="rotate(90 345,63898.7)" text-rendering="optimizeSpeed" fill="#000000">201010 (261352)</text>
  <rect fill="blue" height="328.3" stroke="black" width="12" x="360" y="63565.4"/>
  <text x="360" y="63898.7" font-family="Tahoma" font-size="12" transform="rotate(90 360,63898.7)" text-rendering="optimizeSpeed" fill="#000000">201011 (328313)</text>
  <rect fill="blue" height="369.8" stroke="black" width="12" x="375" y="63523.9"/>
  <text x="375" y="63898.7" font-family="Tahoma" font-size="12" transform="rotate(90 375,63898.7)" text-rendering="optimizeSpeed" fill="#000000">201012 (369792)</text>
  <rect fill="blue" height="414.1" stroke="black" width="12" x="390" y="63479.6"/>
  <text x="390" y="63898.7" font-family="Tahoma" font-size="12" transform="rotate(90 390,63898.7)" text-rendering="optimizeSpeed" fill="#000000">201101 (414094)</text>
  <rect fill="blue" height="455.0" stroke="black" width="12" x="405" y="63438.7"/>
  <text x="405" y="63898.7" font-family="Tahoma" font-size="12" transform="rotate(90 405,63898.7)" text-rendering="optimizeSpeed" fill="#000000">201102 (454981)</text>
  <rect fill="blue" height="502.9" stroke="black" width="12" x="420" y="63390.8"/>
  <text x="420" y="63898.7" font-family="Tahoma" font-size="12" transform="rotate(90 420,63898.7)" text-rendering="optimizeSpeed" fill="#000000">201103 (502863)</text>
  <rect fill="blue" height="526.1" stroke="black" width="12" x="435" y="63367.6"/>
  <text x="435" y="63898.7" font-family="Tahoma" font-size="12" transform="rotate(90 435,63898.7)" text-rendering="optimizeSpeed" fill="#000000">201104 (526103)</text>
  <rect fill="blue" height="592.4" stroke="black" width="12" x="450" y="63301.3"/>
  <text x="450" y="63898.7" font-family="Tahoma" font-size="12" transform="rotate(90 450,63898.7)" text-rendering="optimizeSpeed" fill="#000000">201105 (592392)</text>
  <rect fill="blue" height="628.3" stroke="black" width="12" x="465" y="63265.4"/>
  <text x="465" y="63898.7" font-family="Tahoma" font-size="12" transform="rotate(90 465,63898.7)" text-rendering="optimizeSpeed" fill="#000000">201106 (628286)</text>
  <rect fill="blue" height="638.8" stroke="black" width="12" x="480" y="63254.9"/>
  <text x="480" y="63898.7" font-family="Tahoma" font-size="12" transform="rotate(90 480,63898.7)" text-rendering="optimizeSpeed" fill="#000000">201107 (638802)</text>
  <rect fill="blue" height="670.1" stroke="black" width="12" x="495" y="63223.5"/>
  <text x="495" y="63898.7" font-family="Tahoma" font-size="12" transform="rotate(90 495,63898.7)" text-rendering="optimizeSpeed" fill="#000000">201108 (670134)</text>
  <rect fill="blue" height="733.8" stroke="black" width="12" x="510" y="63159.9"/>
  <text x="510" y="63898.7" font-family="Tahoma" font-size="12" transform="rotate(90 510,63898.7)" text-rendering="optimizeSpeed" fill="#000000">201109 (733795)</text>
  <rect fill="blue" height="770.6" stroke="black" width="12" x="525" y="63123.1"/>
  <text x="525" y="63898.7" font-family="Tahoma" font-size="12" transform="rotate(90 525,63898.7)" text-rendering="optimizeSpeed" fill="#000000">201110 (770602)</text>
  <rect fill="blue" height="820.4" stroke="black" width="12" x="540" y="63073.3"/>
  <text x="540" y="63898.7" font-family="Tahoma" font-size="12" transform="rotate(90 540,63898.7)" text-rendering="optimizeSpeed" fill="#000000">201111 (820391)</text>
  <rect fill="blue" height="845.3" stroke="black" width="12" x="555" y="63048.4"/>
  <text x="555" y="63898.7" font-family="Tahoma" font-size="12" transform="rotate(90 555,63898.7)" text-rendering="optimizeSpeed" fill="#000000">201112 (845287)</text>
  <rect fill="blue" height="901.0" stroke="black" width="12" x="570" y="62992.7"/>
  <text x="570" y="63898.7" font-family="Tahoma" font-size="12" transform="rotate(90 570,63898.7)" text-rendering="optimizeSpeed" fill="#000000">201201 (900989)</text>
  <rect fill="blue" height="994.2" stroke="black" width="12" x="585" y="62899.4"/>
  <text x="585" y="63898.7" font-family="Tahoma" font-size="12" transform="rotate(90 585,63898.7)" text-rendering="optimizeSpeed" fill="#000000">201202 (994228)</text>
  <rect fill="blue" height="1062.8" stroke="black" width="12" x="600" y="62830.8"/>
  <text x="600" y="63898.7" font-family="Tahoma" font-size="12" transform="rotate(90 600,63898.7)" text-rendering="optimizeSpeed" fill="#000000">201203 (1062847)</text>
  <rect fill="blue" height="1095.6" stroke="black" width="12" x="615" y="62798.0"/>
  <text x="615" y="63898.7" font-family="Tahoma" font-size="12" transform="rotate(90 615,63898.7)" text-rendering="optimizeSpeed" fill="#000000">201204 (1095646)</text>
  <rect fill="blue" height="1178.8" stroke="black" width="12" x="630" y="62714.9"/>
  <text x="630" y="63898.7" font-family="Tahoma" font-size="12" transform="rotate(90 630,63898.7)" text-rendering="optimizeSpeed" fill="#000000">201205 (1178808)</text>
  <rect fill="blue" height="1246.8" stroke="black" width="12" x="645" y="62646.9"/>
  <text x="645" y="63898.7" font-family="Tahoma" font-size="12" transform="rotate(90 645,63898.7)" text-rendering="optimizeSpeed" fill="#000000">201206 (1246787)</text>
  <rect fill="blue" height="1314.2" stroke="black" width="12" x="660" y="62579.5"/>
  <text x="660" y="63898.7" font-family="Tahoma" font-size="12" transform="rotate(90 660,63898.7)" text-rendering="optimizeSpeed" fill="#000000">201207 (1314159)</text>
  <rect fill="blue" height="1413.7" stroke="black" width="12" x="675" y="62480.0"/>
  <text x="675" y="63898.7" font-family="Tahoma" font-size="12" transform="rotate(90 675,63898.7)" text-rendering="optimizeSpeed" fill="#000000">201208 (1413662)</text>
  <rect fill="blue" height="1463.8" stroke="black" width="12" x="690" y="62429.8"/>
  <text x="690" y="63898.7" font-family="Tahoma" font-size="12" transform="rotate(90 690,63898.7)" text-rendering="optimizeSpeed" fill="#000000">201209 (1463831)</text>
  <rect fill="blue" height="1624.2" stroke="black" width="12" x="705" y="62269.4"/>
  <text x="705" y="63898.7" font-family="Tahoma" font-size="12" transform="rotate(90 705,63898.7)" text-rendering="optimizeSpeed" fill="#000000">201210 (1624234)</text>
  <rect fill="blue" height="1653.1" stroke="black" width="12" x="720" y="62240.6"/>
  <text x="720" y="63898.7" font-family="Tahoma" font-size="12" transform="rotate(90 720,63898.7)" text-rendering="optimizeSpeed" fill="#000000">201211 (1653083)</text>
  <rect fill="blue" height="1691.9" stroke="black" width="12" x="735" y="62201.8"/>
  <text x="735" y="63898.7" font-family="Tahoma" font-size="12" transform="rotate(90 735,63898.7)" text-rendering="optimizeSpeed" fill="#000000">201212 (1691853)</text>
  <rect fill="blue" height="1778.7" stroke="black" width="12" x="750" y="62115.0"/>
  <text x="750" y="63898.7" font-family="Tahoma" font-size="12" transform="rotate(90 750,63898.7)" text-rendering="optimizeSpeed" fill="#000000">201301 (1778659)</text>
  <rect fill="blue" height="1860.1" stroke="black" width="12" x="765" y="62033.6"/>
  <text x="765" y="63898.7" font-family="Tahoma" font-size="12" transform="rotate(90 765,63898.7)" text-rendering="optimizeSpeed" fill="#000000">201302 (1860091)</text>
  <rect fill="blue" height="1978.4" stroke="black" width="12" x="780" y="61915.2"/>
  <text x="780" y="63898.7" font-family="Tahoma" font-size="12" transform="rotate(90 780,63898.7)" text-rendering="optimizeSpeed" fill="#000000">201303 (1978443)</text>
  <rect fill="blue" height="2090.8" stroke="black" width="12" x="795" y="61802.8"/>
  <text x="795" y="63898.7" font-family="Tahoma" font-size="12" transform="rotate(90 795,63898.7)" text-rendering="optimizeSpeed" fill="#000000">201304 (2090830)</text>
  <rect fill="blue" height="2199.9" stroke="black" width="12" x="810" y="61693.7"/>
  <text x="810" y="63898.7" font-family="Tahoma" font-size="12" transform="rotate(90 810,63898.7)" text-rendering="optimizeSpeed" fill="#000000">201305 (2199940)</text>
  <rect fill="blue" height="2285.3" stroke="black" width="12" x="825" y="61608.4"/>
  <text x="825" y="63898.7" font-family="Tahoma" font-size="12" transform="rotate(90 825,63898.7)" text-rendering="optimizeSpeed" fill="#000000">201306 (2285256)</text>
  <rect fill="blue" height="2413.2" stroke="black" width="12" x="840" y="61480.4"/>
  <text x="840" y="63898.7" font-family="Tahoma" font-size="12" transform="rotate(90 840,63898.7)" text-rendering="optimizeSpeed" fill="#000000">201307 (2413217)</text>
  <rect fill="blue" height="2497.7" stroke="black" width="12" x="855" y="61396.0"/>
  <text x="855" y="63898.7" font-family="Tahoma" font-size="12" transform="rotate(90 855,63898.7)" text-rendering="optimizeSpeed" fill="#000000">201308 (2497655)</text>
  <rect fill="blue" height="2494.6" stroke="black" width="12" x="870" y="61399.0"/>
  <text x="870" y="63898.7" font-family="Tahoma" font-size="12" transform="rotate(90 870,63898.7)" text-rendering="optimizeSpeed" fill="#000000">201309 (2494637)</text>
  <rect fill="blue" height="2668.6" stroke="black" width="12" x="885" y="61225.1"/>
  <text x="885" y="63898.7" font-family="Tahoma" font-size="12" transform="rotate(90 885,63898.7)" text-rendering="optimizeSpeed" fill="#000000">201310 (2668613)</text>
  <rect fill="blue" height="2772.2" stroke="black" width="12" x="900" y="61121.4"/>
  <text x="900" y="63898.7" font-family="Tahoma" font-size="12" transform="rotate(90 900,63898.7)" text-rendering="optimizeSpeed" fill="#000000">201311 (2772223)</text>
  <rect fill="blue" height="2817.0" stroke="black" width="12" x="915" y="61076.7"/>
  <text x="915" y="63898.7" font-family="Tahoma" font-size="12" transform="rotate(90 915,63898.7)" text-rendering="optimizeSpeed" fill="#000000">201312 (2816994)</text>
  <rect fill="blue" height="3019.9" stroke="black" width="12" x="930" y="60873.8"/>
  <text x="930" y="63898.7" font-family="Tahoma" font-size="12" transform="rotate(90 930,63898.7)" text-rendering="optimizeSpeed" fill="#000000">201401 (3019905)</text>
  <rect fill="blue" height="3108.5" stroke="black" width="12" x="945" y="60785.2"/>
  <text x="945" y="63898.7" font-family="Tahoma" font-size="12" transform="rotate(90 945,63898.7)" text-rendering="optimizeSpeed" fill="#000000">201402 (3108511)</text>
  <rect fill="blue" height="3330.2" stroke="black" width="12" x="960" y="60563.4"/>
  <text x="960" y="63898.7" font-family="Tahoma" font-size="12" transform="rotate(90 960,63898.7)" text-rendering="optimizeSpeed" fill="#000000">201403 (3330226)</text>
  <rect fill="blue" height="3462.6" stroke="black" width="12" x="975" y="60431.1"/>
  <text x="975" y="63898.7" font-family="Tahoma" font-size="12" transform="rotate(90 975,63898.7)" text-rendering="optimizeSpeed" fill="#000000">201404 (3462555)</text>
  <rect fill="blue" height="3634.4" stroke="black" width="12" x="990" y="60259.3"/>
  <text x="990" y="63898.7" font-family="Tahoma" font-size="12" transform="rotate(90 990,63898.7)" text-rendering="optimizeSpeed" fill="#000000">201405 (3634370)</text>
  <rect fill="blue" height="3751.3" stroke="black" width="12" x="1005" y="60142.4"/>
  <text x="1005" y="63898.7" font-family="Tahoma" font-size="12" transform="rotate(90 1005,63898.7)" text-rendering="optimizeSpeed" fill="#000000">201406 (3751256)</text>
  <rect fill="blue" height="3917.5" stroke="black" width="12" x="1020" y="59976.2"/>
  <text x="1020" y="63898.7" font-family="Tahoma" font-size="12" transform="rotate(90 1020,63898.7)" text-rendering="optimizeSpeed" fill="#000000">201407 (3917505)</text>
  <rect fill="blue" height="4114.6" stroke="black" width="12" x="1035" y="59779.1"/>
  <text x="1035" y="63898.7" font-family="Tahoma" font-size="12" transform="rotate(90 1035,63898.7)" text-rendering="optimizeSpeed" fill="#000000">201408 (4114596)</text>
  <rect fill="blue" height="4348.5" stroke="black" width="12" x="1050" y="59545.2"/>
  <text x="1050" y="63898.7" font-family="Tahoma" font-size="12" transform="rotate(90 1050,63898.7)" text-rendering="optimizeSpeed" fill="#000000">201409 (4348469)</text>
  <rect fill="blue" height="4587.1" stroke="black" width="12" x="1065" y="59306.6"/>
  <text x="1065" y="63898.7" font-family="Tahoma" font-size="12" transform="rotate(90 1065,63898.7)" text-rendering="optimizeSpeed" fill="#000000">201410 (4587115)</text>
  <rect fill="blue" height="4625.0" stroke="black" width="12" x="1080" y="59268.7"/>
  <text x="1080" y="63898.7" font-family="Tahoma" font-size="12" transform="rotate(90 1080,63898.7)" text-rendering="optimizeSpeed" fill="#000000">201411 (4624966)</text>
  <rect fill="blue" height="4797.9" stroke="black" width="12" x="1095" y="59095.8"/>
  <text x="1095" y="63898.7" font-family="Tahoma" font-size="12" transform="rotate(90 1095,63898.7)" text-rendering="optimizeSpeed" fill="#000000">201412 (4797912)</text>
  <rect fill="blue" height="5046.2" stroke="black" width="12" x="1110" y="58847.5"/>
  <text x="1110" y="63898.7" font-family="Tahoma" font-size="12" transform="rotate(90 1110,63898.7)" text-rendering="optimizeSpeed" fill="#000000">201501 (5046186)</text>
  <rect fill="blue" height="5208.8" stroke="black" width="12" x="1125" y="58684.9"/>
  <text x="1125" y="63898.7" font-family="Tahoma" font-size="12" transform="rotate(90 1125,63898.7)" text-rendering="optimizeSpeed" fill="#000000">201502 (5208788)</text>
  <rect fill="blue" height="5519.8" stroke="black" width="12" x="1140" y="58373.9"/>
  <text x="1140" y="63898.7" font-family="Tahoma" font-size="12" transform="rotate(90 1140,63898.7)" text-rendering="optimizeSpeed" fill="#000000">201503 (5519802)</text>
  <rect fill="blue" height="5763.1" stroke="black" width="12" x="1155" y="58130.6"/>
  <text x="1155" y="63898.7" font-family="Tahoma" font-size="12" transform="rotate(90 1155,63898.7)" text-rendering="optimizeSpeed" fill="#000000">201504 (5763070)</text>
  <rect fill="blue" height="5978.0" stroke="black" width="12" x="1170" y="57915.7"/>
  <text x="1170" y="63898.7" font-family="Tahoma" font-size="12" transform="rotate(90 1170,63898.7)" text-rendering="optimizeSpeed" fill="#000000">201505 (5977998)</text>
  <rect fill="blue" height="6287.0" stroke="black" width="12" x="1185" y="57606.6"/>
  <text x="1185" y="63898.7" font-family="Tahoma" font-size="12" transform="rotate(90 1185,63898.7)" text-rendering="optimizeSpeed" fill="#000000">201506 (6287048)</text>
  <rect fill="blue" height="6531.9" stroke="black" width="12" x="1200" y="57361.8"/>
  <text x="1200" y="63898.7" font-family="Tahoma" font-size="12" transform="rotate(90 1200,63898.7)" text-rendering="optimizeSpeed" fill="#000000">201507 (6531851)</text>
  <rect fill="blue" height="6526.5" stroke="black" width="12" x="1215" y="57367.2"/>
  <text x="1215" y="63898.7" font-family="Tahoma" font-size="12" transform="rotate(90 1215,63898.7)" text-rendering="optimizeSpeed" fill="#000000">201508 (6526480)</text>
  <rect fill="blue" height="6813.1" stroke="black" width="12" x="1230" y="57080.5"/>
  <text x="1230" y="63898.7" font-family="Tahoma" font-size="12" transform="rotate(90 1230,63898.7)" text-rendering="optimizeSpeed" fill="#000000">201509 (6813144)</text>
  <rect fill="blue" height="7337.8" stroke="black" width="12" x="1245" y="56555.9"/>
  <text x="1245" y="63898.7" font-family="Tahoma" font-size="12" transform="rotate(90 1245,63898.7)" text-rendering="optimizeSpeed" fill="#000000">201510 (7337796)</text>
  <rect fill="blue" height="7499.6" stroke="black" width="12" x="1260" y="56394.1"/>
  <text x="1260" y="63898.7" font-family="Tahoma" font-size="12" transform="rotate(90 1260,63898.7)" text-rendering="optimizeSpeed" fill="#000000">201511 (7499608)</text>
  <rect fill="blue" height="7732.7" stroke="black" width="12" x="1275" y="56161.0"/>
  <text x="1275" y="63898.7" font-family="Tahoma" font-size="12" transform="rotate(90 1275,63898.7)" text-rendering="optimizeSpeed" fill="#000000">201512 (7732707)</text>
  <rect fill="blue" height="8139.5" stroke="black" width="12" x="1290" y="55754.1"/>
  <text x="1290" y="63898.7" font-family="Tahoma" font-size="12" transform="rotate(90 1290,63898.7)" text-rendering="optimizeSpeed" fill="#000000">201601 (8139540)</text>
  <rect fill="blue" height="7646.4" stroke="black" width="12" x="1305" y="56247.3"/>
  <text x="1305" y="63898.7" font-family="Tahoma" font-size="12" transform="rotate(90 1305,63898.7)" text-rendering="optimizeSpeed" fill="#000000">201602 (7646383)</text>
  <rect fill="blue" height="7677.2" stroke="black" width="12" x="1320" y="56216.5"/>
  <text x="1320" y="63898.7" font-family="Tahoma" font-size="12" transform="rotate(90 1320,63898.7)" text-rendering="optimizeSpeed" fill="#000000">201603 (7677213)</text>
  <rect fill="blue" height="7917.8" stroke="black" width="12" x="1335" y="55975.9"/>
  <text x="1335" y="63898.7" font-family="Tahoma" font-size="12" transform="rotate(90 1335,63898.7)" text-rendering="optimizeSpeed" fill="#000000">201604 (7917818)</text>
  <rect fill="blue" height="8194.6" stroke="black" width="12" x="1350" y="55699.1"/>
  <text x="1350" y="63898.7" font-family="Tahoma" font-size="12" transform="rotate(90 1350,63898.7)" text-rendering="optimizeSpeed" fill="#000000">201605 (8194567)</text>
  <rect fill="blue" height="8533.6" stroke="black" width="12" x="1365" y="55360.0"/>
  <text x="1365" y="63898.7" font-family="Tahoma" font-size="12" transform="rotate(90 1365,63898.7)" text-rendering="optimizeSpeed" fill="#000000">201606 (8533634)</text>
  <rect fill="blue" height="8719.6" stroke="black" width="12" x="1380" y="55174.1"/>
  <text x="1380" y="63898.7" font-family="Tahoma" font-size="12" transform="rotate(90 1380,63898.7)" text-rendering="optimizeSpeed" fill="#000000">201607 (8719592)</text>
  <rect fill="blue" height="9087.9" stroke="black" width="12" x="1395" y="54805.7"/>
  <text x="1395" y="63898.7" font-family="Tahoma" font-size="12" transform="rotate(90 1395,63898.7)" text-rendering="optimizeSpeed" fill="#000000">201608 (9087941)</text>
  <rect fill="blue" height="9464.1" stroke="black" width="12" x="1410" y="54429.5"/>
  <text x="1410" y="63898.7" font-family="Tahoma" font-size="12" transform="rotate(90 1410,63898.7)" text-rendering="optimizeSpeed" fill="#000000">201609 (9464135)</text>
  <rect fill="blue" height="9654.6" stroke="black" width="12" x="1425" y="54239.1"/>
  <text x="1425" y="63898.7" font-family="Tahoma" font-size="12" transform="rotate(90 1425,63898.7)" text-rendering="optimizeSpeed" fill="#000000">201610 (9654585)</text>
  <rect fill="blue" height="10021.7" stroke="black" width="12" x="1440" y="53872.0"/>
  <text x="1440" y="63898.7" font-family="Tahoma" font-size="12" transform="rotate(90 1440,63898.7)" text-rendering="optimizeSpeed" fill="#000000">201611 (10021717)</text>
  <rect fill="blue" height="10084.9" stroke="black" width="12" x="1455" y="53808.7"/>
  <text x="1455" y="63898.7" font-family="Tahoma" font-size="12" transform="rotate(90 1455,63898.7)" text-rendering="optimizeSpeed" fill="#000000">201612 (10084926)</text>
  <rect fill="blue" height="10444.5" stroke="black" width="12" x="1470" y="53449.2"/>
  <text x="1470" y="63898.7" font-family="Tahoma" font-size="12" transform="rotate(90 1470,63898.7)" text-rendering="optimizeSpeed" fill="#000000">201701 (10444450)</text>
  <rect fill="blue" height="11041.6" stroke="black" width="12" x="1485" y="52852.1"/>
  <text x="1485" y="63898.7" font-family="Tahoma" font-size="12" transform="rotate(90 1485,63898.7)" text-rendering="optimizeSpeed" fill="#000000">201702 (11041600)</text>
  <rect fill="blue" height="11480.4" stroke="black" width="12" x="1500" y="52413.3"/>
  <text x="1500" y="63898.7" font-family="Tahoma" font-size="12" transform="rotate(90 1500,63898.7)" text-rendering="optimizeSpeed" fill="#000000">201703 (11480409)</text>
  <rect fill="blue" height="11784.9" stroke="black" width="12" x="1515" y="52108.8"/>
  <text x="1515" y="63898.7" font-family="Tahoma" font-size="12" transform="rotate(90 1515,63898.7)" text-rendering="optimizeSpeed" fill="#000000">201704 (11784888)</text>
  <rect fill="blue" height="12304.5" stroke="black" width="12" x="1530" y="51589.2"/>
  <text x="1530" y="63898.7" font-family="Tahoma" font-size="12" transform="rotate(90 1530,63898.7)" text-rendering="optimizeSpeed" fill="#000000">201705 (12304479)</text>
  <rect fill="blue" height="12896.0" stroke="black" width="12" x="1545" y="50997.6"/>
  <text x="1545" y="63898.7" font-family="Tahoma" font-size="12" transform="rotate(90 1545,63898.7)" text-rendering="optimizeSpeed" fill="#000000">201706 (12896045)</text>
  <rect fill="blue" height="12881.9" stroke="black" width="12" x="1560" y="51011.7"/>
  <text x="1560" y="63898.7" font-family="Tahoma" font-size="12" transform="rotate(90 1560,63898.7)" text-rendering="optimizeSpeed" fill="#000000">201707 (12881933)</text>
  <rect fill="blue" height="13648.8" stroke="black" width="12" x="1575" y="50244.9"/>
  <text x="1575" y="63898.7" font-family="Tahoma" font-size="12" transform="rotate(90 1575,63898.7)" text-rendering="optimizeSpeed" fill="#000000">201708 (13648813)</text>
  <rect fill="blue" height="14694.8" stroke="black" width="12" x="1590" y="49198.9"/>
  <text x="1590" y="63898.7" font-family="Tahoma" font-size="12" transform="rotate(90 1590,63898.7)" text-rendering="optimizeSpeed" fill="#000000">201709 (14694789)</text>
  <rect fill="blue" height="15036.3" stroke="black" width="12" x="1605" y="48857.3"/>
  <text x="1605" y="63898.7" font-family="Tahoma" font-size="12" transform="rotate(90 1605,63898.7)" text-rendering="optimizeSpeed" fill="#000000">201710 (15036345)</text>
  <rect fill="blue" height="15853.2" stroke="black" width="12" x="1620" y="48040.5"/>
  <text x="1620" y="63898.7" font-family="Tahoma" font-size="12" transform="rotate(90 1620,63898.7)" text-rendering="optimizeSpeed" fill="#000000">201711 (15853161)</text>
  <rect fill="blue" height="16214.0" stroke="black" width="12" x="1635" y="47679.6"/>
  <text x="1635" y="63898.7" font-family="Tahoma" font-size="12" transform="rotate(90 1635,63898.7)" text-rendering="optimizeSpeed" fill="#000000">201712 (16214025)</text>
  <rect fill="blue" height="17266.3" stroke="black" width="12" x="1650" y="46627.4"/>
  <text x="1650" y="63898.7" font-family="Tahoma" font-size="12" transform="rotate(90 1650,63898.7)" text-rendering="optimizeSpeed" fill="#000000">201801 (17266263)</text>
  <rect fill="blue" height="17289.1" stroke="black" width="12" x="1665" y="46604.6"/>
  <text x="1665" y="63898.7" font-family="Tahoma" font-size="12" transform="rotate(90 1665,63898.7)" text-rendering="optimizeSpeed" fill="#000000">201802 (17289053)</text>
  <rect fill="blue" height="17693.5" stroke="black" width="12" x="1680" y="46200.2"/>
  <text x="1680" y="63898.7" font-family="Tahoma" font-size="12" transform="rotate(90 1680,63898.7)" text-rendering="optimizeSpeed" fill="#000000">201803 (17693514)</text>
  <rect fill="blue" height="18132.3" stroke="black" width="12" x="1695" y="45761.4"/>
  <text x="1695" y="63898.7" font-family="Tahoma" font-size="12" transform="rotate(90 1695,63898.7)" text-rendering="optimizeSpeed" fill="#000000">201804 (18132270)</text>
  <rect fill="blue" height="18792.6" stroke="black" width="12" x="1710" y="45101.0"/>
  <text x="1710" y="63898.7" font-family="Tahoma" font-size="12" transform="rotate(90 1710,63898.7)" text-rendering="optimizeSpeed" fill="#000000">201805 (18792627)</text>
  <rect fill="blue" height="19124.9" stroke="black" width="12" x="1725" y="44768.8"/>
  <text x="1725" y="63898.7" font-family="Tahoma" font-size="12" transform="rotate(90 1725,63898.7)" text-rendering="optimizeSpeed" fill="#000000">201806 (19124899)</text>
  <rect fill="blue" height="19022.4" stroke="black" width="12" x="1740" y="44871.2"/>
  <text x="1740" y="63898.7" font-family="Tahoma" font-size="12" transform="rotate(90 1740,63898.7)" text-rendering="optimizeSpeed" fill="#000000">201807 (19022436)</text>
  <rect fill="blue" height="19946.2" stroke="black" width="12" x="1755" y="43947.5"/>
  <text x="1755" y="63898.7" font-family="Tahoma" font-size="12" transform="rotate(90 1755,63898.7)" text-rendering="optimizeSpeed" fill="#000000">201808 (19946177)</text>
  <rect fill="blue" height="20664.2" stroke="black" width="12" x="1770" y="43229.5"/>
  <text x="1770" y="63898.7" font-family="Tahoma" font-size="12" transform="rotate(90 1770,63898.7)" text-rendering="optimizeSpeed" fill="#000000">201809 (20664191)</text>
  <rect fill="blue" height="21506.3" stroke="black" width="12" x="1785" y="42387.4"/>
  <text x="1785" y="63898.7" font-family="Tahoma" font-size="12" transform="rotate(90 1785,63898.7)" text-rendering="optimizeSpeed" fill="#000000">201810 (21506258)</text>
  <rect fill="blue" height="22329.2" stroke="black" width="12" x="1800" y="41564.4"/>
  <text x="1800" y="63898.7" font-family="Tahoma" font-size="12" transform="rotate(90 1800,63898.7)" text-rendering="optimizeSpeed" fill="#000000">201811 (22329238)</text>
  <rect fill="blue" height="22527.6" stroke="black" width="12" x="1815" y="41366.0"/>
  <text x="1815" y="63898.7" font-family="Tahoma" font-size="12" transform="rotate(90 1815,63898.7)" text-rendering="optimizeSpeed" fill="#000000">201812 (22527640)</text>
  <rect fill="blue" height="23766.5" stroke="black" width="12" x="1830" y="40127.2"/>
  <text x="1830" y="63898.7" font-family="Tahoma" font-size="12" transform="rotate(90 1830,63898.7)" text-rendering="optimizeSpeed" fill="#000000">201901 (23766468)</text>
  <rect fill="blue" height="23871.5" stroke="black" width="12" x="1845" y="40022.1"/>
  <text x="1845" y="63898.7" font-family="Tahoma" font-size="12" transform="rotate(90 1845,63898.7)" text-rendering="optimizeSpeed" fill="#000000">201902 (23871537)</text>
  <rect fill="blue" height="26362.2" stroke="black" width="12" x="1860" y="37531.5"/>
  <text x="1860" y="63898.7" font-family="Tahoma" font-size="12" transform="rotate(90 1860,63898.7)" text-rendering="optimizeSpeed" fill="#000000">201903 (26362178)</text>
  <rect fill="blue" height="26461.8" stroke="black" width="12" x="1875" y="37431.9"/>
  <text x="1875" y="63898.7" font-family="Tahoma" font-size="12" transform="rotate(90 1875,63898.7)" text-rendering="optimizeSpeed" fill="#000000">201904 (26461755)</text>
  <rect fill="blue" height="28314.1" stroke="black" width="12" x="1890" y="35579.6"/>
  <text x="1890" y="63898.7" font-family="Tahoma" font-size="12" transform="rotate(90 1890,63898.7)" text-rendering="optimizeSpeed" fill="#000000">201905 (28314079)</text>
  <rect fill="blue" height="29047.2" stroke="black" width="12" x="1905" y="34846.5"/>
  <text x="1905" y="63898.7" font-family="Tahoma" font-size="12" transform="rotate(90 1905,63898.7)" text-rendering="optimizeSpeed" fill="#000000">201906 (29047213)</text>
  <rect fill="blue" height="30282.2" stroke="black" width="12" x="1920" y="33611.5"/>
  <text x="1920" y="63898.7" font-family="Tahoma" font-size="12" transform="rotate(90 1920,63898.7)" text-rendering="optimizeSpeed" fill="#000000">201907 (30282181)</text>
  <rect fill="blue" height="30911.0" stroke="black" width="12" x="1935" y="32982.7"/>
  <text x="1935" y="63898.7" font-family="Tahoma" font-size="12" transform="rotate(90 1935,63898.7)" text-rendering="optimizeSpeed" fill="#000000">201908 (30910963)</text>
  <rect fill="blue" height="31209.7" stroke="black" width="12" x="1950" y="32684.0"/>
  <text x="1950" y="63898.7" font-family="Tahoma" font-size="12" transform="rotate(90 1950,63898.7)" text-rendering="optimizeSpeed" fill="#000000">201909 (31209675)</text>
  <rect fill="blue" height="33047.6" stroke="black" width="12" x="1965" y="30846.0"/>
  <text x="1965" y="63898.7" font-family="Tahoma" font-size="12" transform="rotate(90 1965,63898.7)" text-rendering="optimizeSpeed" fill="#000000">201910 (33047638)</text>
  <rect fill="blue" height="33243.2" stroke="black" width="12" x="1980" y="30650.4"/>
  <text x="1980" y="63898.7" font-family="Tahoma" font-size="12" transform="rotate(90 1980,63898.7)" text-rendering="optimizeSpeed" fill="#000000">201911 (33243242)</text>
  <rect fill="blue" height="32876.2" stroke="black" width="12" x="1995" y="31017.5"/>
  <text x="1995" y="63898.7" font-family="Tahoma" font-size="12" transform="rotate(90 1995,63898.7)" text-rendering="optimizeSpeed" fill="#000000">201912 (32876209)</text>
  <rect fill="blue" height="34074.9" stroke="black" width="12" x="2010" y="29818.8"/>
  <text x="2010" y="63898.7" font-family="Tahoma" font-size="12" transform="rotate(90 2010,63898.7)" text-rendering="optimizeSpeed" fill="#000000">202001 (34074887)</text>
  <rect fill="blue" height="34198.6" stroke="black" width="12" x="2025" y="29695.1"/>
  <text x="2025" y="63898.7" font-family="Tahoma" font-size="12" transform="rotate(90 2025,63898.7)" text-rendering="optimizeSpeed" fill="#000000">202002 (34198615)</text>
  <rect fill="blue" height="35473.7" stroke="black" width="12" x="2040" y="28420.0"/>
  <text x="2040" y="63898.7" font-family="Tahoma" font-size="12" transform="rotate(90 2040,63898.7)" text-rendering="optimizeSpeed" fill="#000000">202003 (35473695)</text>
  <rect fill="blue" height="36521.7" stroke="black" width="12" x="2055" y="27372.0"/>
  <text x="2055" y="63898.7" font-family="Tahoma" font-size="12" transform="rotate(90 2055,63898.7)" text-rendering="optimizeSpeed" fill="#000000">202004 (36521716)</text>
  <rect fill="blue" height="38176.1" stroke="black" width="12" x="2070" y="25717.6"/>
  <text x="2070" y="63898.7" font-family="Tahoma" font-size="12" transform="rotate(90 2070,63898.7)" text-rendering="optimizeSpeed" fill="#000000">202005 (38176117)</text>
  <rect fill="blue" height="38958.3" stroke="black" width="12" x="2085" y="24935.4"/>
  <text x="2085" y="63898.7" font-family="Tahoma" font-size="12" transform="rotate(90 2085,63898.7)" text-rendering="optimizeSpeed" fill="#000000">202006 (38958259)</text>
  <rect fill="blue" height="39899.9" stroke="black" width="12" x="2100" y="23993.8"/>
  <text x="2100" y="63898.7" font-family="Tahoma" font-size="12" transform="rotate(90 2100,63898.7)" text-rendering="optimizeSpeed" fill="#000000">202007 (39899894)</text>
  <rect fill="blue" height="40181.1" stroke="black" width="12" x="2115" y="23712.5"/>
  <text x="2115" y="63898.7" font-family="Tahoma" font-size="12" transform="rotate(90 2115,63898.7)" text-rendering="optimizeSpeed" fill="#000000">202008 (40181129)</text>
  <rect fill="blue" height="41319.4" stroke="black" width="12" x="2130" y="22574.3"/>
  <text x="2130" y="63898.7" font-family="Tahoma" font-size="12" transform="rotate(90 2130,63898.7)" text-rendering="optimizeSpeed" fill="#000000">202009 (41319362)</text>
  <rect fill="blue" height="43225.0" stroke="black" width="12" x="2145" y="20668.7"/>
  <text x="2145" y="63898.7" font-family="Tahoma" font-size="12" transform="rotate(90 2145,63898.7)" text-rendering="optimizeSpeed" fill="#000000">202010 (43225016)</text>
  <rect fill="blue" height="43425.2" stroke="black" width="12" x="2160" y="20468.5"/>
  <text x="2160" y="63898.7" font-family="Tahoma" font-size="12" transform="rotate(90 2160,63898.7)" text-rendering="optimizeSpeed" fill="#000000">202011 (43425203)</text>
  <rect fill="blue" height="43976.2" stroke="black" width="12" x="2175" y="19917.5"/>
  <text x="2175" y="63898.7" font-family="Tahoma" font-size="12" transform="rotate(90 2175,63898.7)" text-rendering="optimizeSpeed" fill="#000000">202012 (43976167)</text>
  <rect fill="blue" height="45367.6" stroke="black" width="12" x="2190" y="18526.0"/>
  <text x="2190" y="63898.7" font-family="Tahoma" font-size="12" transform="rotate(90 2190,63898.7)" text-rendering="optimizeSpeed" fill="#000000">202101 (45367645)</text>
  <rect fill="blue" height="45989.0" stroke="black" width="12" x="2205" y="17904.7"/>
  <text x="2205" y="63898.7" font-family="Tahoma" font-size="12" transform="rotate(90 2205,63898.7)" text-rendering="optimizeSpeed" fill="#000000">202102 (45988977)</text>
  <rect fill="blue" height="48116.2" stroke="black" width="12" x="2220" y="15777.5"/>
  <text x="2220" y="63898.7" font-family="Tahoma" font-size="12" transform="rotate(90 2220,63898.7)" text-rendering="optimizeSpeed" fill="#000000">202103 (48116187)</text>
  <rect fill="blue" height="48287.1" stroke="black" width="12" x="2235" y="15606.6"/>
  <text x="2235" y="63898.7" font-family="Tahoma" font-size="12" transform="rotate(90 2235,63898.7)" text-rendering="optimizeSpeed" fill="#000000">202104 (48287114)</text>
  <rect fill="blue" height="49047.3" stroke="black" width="12" x="2250" y="14846.4"/>
  <text x="2250" y="63898.7" font-family="Tahoma" font-size="12" transform="rotate(90 2250,63898.7)" text-rendering="optimizeSpeed" fill="#000000">202105 (49047300)</text>
  <rect fill="blue" height="50785.2" stroke="black" width="12" x="2265" y="13108.5"/>
  <text x="2265" y="63898.7" font-family="Tahoma" font-size="12" transform="rotate(90 2265,63898.7)" text-rendering="optimizeSpeed" fill="#000000">202106 (50785205)</text>
  <rect fill="blue" height="52348.1" stroke="black" width="12" x="2280" y="11545.6"/>
  <text x="2280" y="63898.7" font-family="Tahoma" font-size="12" transform="rotate(90 2280,63898.7)" text-rendering="optimizeSpeed" fill="#000000">202107 (52348111)</text>
  <rect fill="blue" height="52552.7" stroke="black" width="12" x="2295" y="11341.0"/>
  <text x="2295" y="63898.7" font-family="Tahoma" font-size="12" transform="rotate(90 2295,63898.7)" text-rendering="optimizeSpeed" fill="#000000">202108 (52552661)</text>
  <rect fill="blue" height="54438.2" stroke="black" width="12" x="2310" y="9455.4"/>
  <text x="2310" y="63898.7" font-family="Tahoma" font-size="12" transform="rotate(90 2310,63898.7)" text-rendering="optimizeSpeed" fill="#000000">202109 (54438237)</text>
  <rect fill="blue" height="54512.0" stroke="black" width="12" x="2325" y="9381.7"/>
  <text x="2325" y="63898.7" font-family="Tahoma" font-size="12" transform="rotate(90 2325,63898.7)" text-rendering="optimizeSpeed" fill="#000000">202110 (54512005)</text>
  <rect fill="blue" height="55115.1" stroke="black" width="12" x="2340" y="8778.5"/>
  <text x="2340" y="63898.7" font-family="Tahoma" font-size="12" transform="rotate(90 2340,63898.7)" text-rendering="optimizeSpeed" fill="#000000">202111 (55115147)</text>
  <rect fill="blue" height="57435.0" stroke="black" width="12" x="2355" y="6458.6"/>
  <text x="2355" y="63898.7" font-family="Tahoma" font-size="12" transform="rotate(90 2355,63898.7)" text-rendering="optimizeSpeed" fill="#000000">202112 (57435036)</text>
  <rect fill="blue" height="58605.9" stroke="black" width="12" x="2370" y="5287.8"/>
  <text x="2370" y="63898.7" font-family="Tahoma" font-size="12" transform="rotate(90 2370,63898.7)" text-rendering="optimizeSpeed" fill="#000000">202201 (58605893)</text>
  <rect fill="blue" height="58534.6" stroke="black" width="12" x="2385" y="5359.1"/>
  <text x="2385" y="63898.7" font-family="Tahoma" font-size="12" transform="rotate(90 2385,63898.7)" text-rendering="optimizeSpeed" fill="#000000">202202 (58534602)</text>
  <rect fill="blue" height="62816.9" stroke="black" width="12" x="2400" y="1076.7"/>
  <text x="2400" y="63898.7" font-family="Tahoma" font-size="12" transform="rotate(90 2400,63898.7)" text-rendering="optimizeSpeed" fill="#000000">202203 (62816932)</text>
  <rect fill="blue" height="61826.6" stroke="black" width="12" x="2415" y="2067.1"/>
  <text x="2415" y="63898.7" font-family="Tahoma" font-size="12" transform="rotate(90 2415,63898.7)" text-rendering="optimizeSpeed" fill="#000000">202204 (61826553)</text>
  <rect fill="blue" height="62798.3" stroke="black" width="12" x="2430" y="1095.4"/>
  <text x="2430" y="63898.7" font-family="Tahoma" font-size="12" transform="rotate(90 2430,63898.7)" text-rendering="optimizeSpeed" fill="#000000">202205 (62798293)</text>
  <rect fill="blue" height="63843.7" stroke="black" width="12" x="2445" y="50.0"/>
  <text x="2445" y="63898.7" font-family="Tahoma" font-size="12" transform="rotate(90 2445,63898.7)" text-rendering="optimizeSpeed" fill="#000000">202206 (63843669)</text>
  <text x="10" y="40" font-family="Tahoma" font-size="20" text-rendering="optimizeSpeed" fill="#000000">Total jobs</text>
</svg>
