<svg xmlns="http://www.w3.org/2000/svg" version="1.1" preserveAspectRatio="xMidYMid meet" viewBox="0 0 2630 73829.3">
  <rect fill="blue" height="16.3" stroke="black" width="12" x="15" y="73513.0"/>
  <text x="15" y="73534.3" font-family="Tahoma" font-size="12" transform="rotate(90 15,73534.3)" text-rendering="optimizeSpeed" fill="#000000">200812 (16323)</text>
  <rect fill="blue" height="57.0" stroke="black" width="12" x="30" y="73472.3"/>
  <text x="30" y="73534.3" font-family="Tahoma" font-size="12" transform="rotate(90 30,73534.3)" text-rendering="optimizeSpeed" fill="#000000">200901 (57010)</text>
  <rect fill="blue" height="77.6" stroke="black" width="12" x="45" y="73451.7"/>
  <text x="45" y="73534.3" font-family="Tahoma" font-size="12" transform="rotate(90 45,73534.3)" text-rendering="optimizeSpeed" fill="#000000">200902 (77587)</text>
  <rect fill="blue" height="104.4" stroke="black" width="12" x="60" y="73424.9"/>
  <text x="60" y="73534.3" font-family="Tahoma" font-size="12" transform="rotate(90 60,73534.3)" text-rendering="optimizeSpeed" fill="#000000">200903 (104364)</text>
  <rect fill="blue" height="119.0" stroke="black" width="12" x="75" y="73410.3"/>
  <text x="75" y="73534.3" font-family="Tahoma" font-size="12" transform="rotate(90 75,73534.3)" text-rendering="optimizeSpeed" fill="#000000">200904 (119034)</text>
  <rect fill="blue" height="133.1" stroke="black" width="12" x="90" y="73396.2"/>
  <text x="90" y="73534.3" font-family="Tahoma" font-size="12" transform="rotate(90 90,73534.3)" text-rendering="optimizeSpeed" fill="#000000">200905 (133090)</text>
  <rect fill="blue" height="154.3" stroke="black" width="12" x="105" y="73375.0"/>
  <text x="105" y="73534.3" font-family="Tahoma" font-size="12" transform="rotate(90 105,73534.3)" text-rendering="optimizeSpeed" fill="#000000">200906 (154319)</text>
  <rect fill="blue" height="173.4" stroke="black" width="12" x="120" y="73355.9"/>
  <text x="120" y="73534.3" font-family="Tahoma" font-size="12" transform="rotate(90 120,73534.3)" text-rendering="optimizeSpeed" fill="#000000">200907 (173410)</text>
  <rect fill="blue" height="183.4" stroke="black" width="12" x="135" y="73345.9"/>
  <text x="135" y="73534.3" font-family="Tahoma" font-size="12" transform="rotate(90 135,73534.3)" text-rendering="optimizeSpeed" fill="#000000">200908 (183425)</text>
  <rect fill="blue" height="201.9" stroke="black" width="12" x="150" y="73327.4"/>
  <text x="150" y="73534.3" font-family="Tahoma" font-size="12" transform="rotate(90 150,73534.3)" text-rendering="optimizeSpeed" fill="#000000">200909 (201948)</text>
  <rect fill="blue" height="222.7" stroke="black" width="12" x="165" y="73306.7"/>
  <text x="165" y="73534.3" font-family="Tahoma" font-size="12" transform="rotate(90 165,73534.3)" text-rendering="optimizeSpeed" fill="#000000">200910 (222659)</text>
  <rect fill="blue" height="254.0" stroke="black" width="12" x="180" y="73275.3"/>
  <text x="180" y="73534.3" font-family="Tahoma" font-size="12" transform="rotate(90 180,73534.3)" text-rendering="optimizeSpeed" fill="#000000">200911 (254005)</text>
  <rect fill="blue" height="273.9" stroke="black" width="12" x="195" y="73255.4"/>
  <text x="195" y="73534.3" font-family="Tahoma" font-size="12" transform="rotate(90 195,73534.3)" text-rendering="optimizeSpeed" fill="#000000">200912 (273876)</text>
  <rect fill="blue" height="287.3" stroke="black" width="12" x="210" y="73242.0"/>
  <text x="210" y="73534.3" font-family="Tahoma" font-size="12" transform="rotate(90 210,73534.3)" text-rendering="optimizeSpeed" fill="#000000">201001 (287288)</text>
  <rect fill="blue" height="309.5" stroke="black" width="12" x="225" y="73219.8"/>
  <text x="225" y="73534.3" font-family="Tahoma" font-size="12" transform="rotate(90 225,73534.3)" text-rendering="optimizeSpeed" fill="#000000">201002 (309523)</text>
  <rect fill="blue" height="347.2" stroke="black" width="12" x="240" y="73182.1"/>
  <text x="240" y="73534.3" font-family="Tahoma" font-size="12" transform="rotate(90 240,73534.3)" text-rendering="optimizeSpeed" fill="#000000">201003 (347236)</text>
  <rect fill="blue" height="362.7" stroke="black" width="12" x="255" y="73166.7"/>
  <text x="255" y="73534.3" font-family="Tahoma" font-size="12" transform="rotate(90 255,73534.3)" text-rendering="optimizeSpeed" fill="#000000">201004 (362659)</text>
  <rect fill="blue" height="392.0" stroke="black" width="12" x="270" y="73137.3"/>
  <text x="270" y="73534.3" font-family="Tahoma" font-size="12" transform="rotate(90 270,73534.3)" text-rendering="optimizeSpeed" fill="#000000">201005 (392035)</text>
  <rect fill="blue" height="415.2" stroke="black" width="12" x="285" y="73114.1"/>
  <text x="285" y="73534.3" font-family="Tahoma" font-size="12" transform="rotate(90 285,73534.3)" text-rendering="optimizeSpeed" fill="#000000">201006 (415165)</text>
  <rect fill="blue" height="434.3" stroke="black" width="12" x="300" y="73095.1"/>
  <text x="300" y="73534.3" font-family="Tahoma" font-size="12" transform="rotate(90 300,73534.3)" text-rendering="optimizeSpeed" fill="#000000">201007 (434258)</text>
  <rect fill="blue" height="125.5" stroke="black" width="12" x="315" y="73403.9"/>
  <text x="315" y="73534.3" font-family="Tahoma" font-size="12" transform="rotate(90 315,73534.3)" text-rendering="optimizeSpeed" fill="#000000">201008 (125455)</text>
  <rect fill="blue" height="198.2" stroke="black" width="12" x="330" y="73331.1"/>
  <text x="330" y="73534.3" font-family="Tahoma" font-size="12" transform="rotate(90 330,73534.3)" text-rendering="optimizeSpeed" fill="#000000">201009 (198206)</text>
  <rect fill="blue" height="261.4" stroke="black" width="12" x="345" y="73268.0"/>
  <text x="345" y="73534.3" font-family="Tahoma" font-size="12" transform="rotate(90 345,73534.3)" text-rendering="optimizeSpeed" fill="#000000">201010 (261352)</text>
  <rect fill="blue" height="328.3" stroke="black" width="12" x="360" y="73201.0"/>
  <text x="360" y="73534.3" font-family="Tahoma" font-size="12" transform="rotate(90 360,73534.3)" text-rendering="optimizeSpeed" fill="#000000">201011 (328313)</text>
  <rect fill="blue" height="369.8" stroke="black" width="12" x="375" y="73159.5"/>
  <text x="375" y="73534.3" font-family="Tahoma" font-size="12" transform="rotate(90 375,73534.3)" text-rendering="optimizeSpeed" fill="#000000">201012 (369792)</text>
  <rect fill="blue" height="414.1" stroke="black" width="12" x="390" y="73115.2"/>
  <text x="390" y="73534.3" font-family="Tahoma" font-size="12" transform="rotate(90 390,73534.3)" text-rendering="optimizeSpeed" fill="#000000">201101 (414094)</text>
  <rect fill="blue" height="455.0" stroke="black" width="12" x="405" y="73074.3"/>
  <text x="405" y="73534.3" font-family="Tahoma" font-size="12" transform="rotate(90 405,73534.3)" text-rendering="optimizeSpeed" fill="#000000">201102 (454981)</text>
  <rect fill="blue" height="502.9" stroke="black" width="12" x="420" y="73026.5"/>
  <text x="420" y="73534.3" font-family="Tahoma" font-size="12" transform="rotate(90 420,73534.3)" text-rendering="optimizeSpeed" fill="#000000">201103 (502863)</text>
  <rect fill="blue" height="526.1" stroke="black" width="12" x="435" y="73003.2"/>
  <text x="435" y="73534.3" font-family="Tahoma" font-size="12" transform="rotate(90 435,73534.3)" text-rendering="optimizeSpeed" fill="#000000">201104 (526103)</text>
  <rect fill="blue" height="592.4" stroke="black" width="12" x="450" y="72936.9"/>
  <text x="450" y="73534.3" font-family="Tahoma" font-size="12" transform="rotate(90 450,73534.3)" text-rendering="optimizeSpeed" fill="#000000">201105 (592392)</text>
  <rect fill="blue" height="628.3" stroke="black" width="12" x="465" y="72901.0"/>
  <text x="465" y="73534.3" font-family="Tahoma" font-size="12" transform="rotate(90 465,73534.3)" text-rendering="optimizeSpeed" fill="#000000">201106 (628286)</text>
  <rect fill="blue" height="638.8" stroke="black" width="12" x="480" y="72890.5"/>
  <text x="480" y="73534.3" font-family="Tahoma" font-size="12" transform="rotate(90 480,73534.3)" text-rendering="optimizeSpeed" fill="#000000">201107 (638802)</text>
  <rect fill="blue" height="670.1" stroke="black" width="12" x="495" y="72859.2"/>
  <text x="495" y="73534.3" font-family="Tahoma" font-size="12" transform="rotate(90 495,73534.3)" text-rendering="optimizeSpeed" fill="#000000">201108 (670134)</text>
  <rect fill="blue" height="733.8" stroke="black" width="12" x="510" y="72795.5"/>
  <text x="510" y="73534.3" font-family="Tahoma" font-size="12" transform="rotate(90 510,73534.3)" text-rendering="optimizeSpeed" fill="#000000">201109 (733795)</text>
  <rect fill="blue" height="770.6" stroke="black" width="12" x="525" y="72758.7"/>
  <text x="525" y="73534.3" font-family="Tahoma" font-size="12" transform="rotate(90 525,73534.3)" text-rendering="optimizeSpeed" fill="#000000">201110 (770602)</text>
  <rect fill="blue" height="820.4" stroke="black" width="12" x="540" y="72708.9"/>
  <text x="540" y="73534.3" font-family="Tahoma" font-size="12" transform="rotate(90 540,73534.3)" text-rendering="optimizeSpeed" fill="#000000">201111 (820391)</text>
  <rect fill="blue" height="845.3" stroke="black" width="12" x="555" y="72684.0"/>
  <text x="555" y="73534.3" font-family="Tahoma" font-size="12" transform="rotate(90 555,73534.3)" text-rendering="optimizeSpeed" fill="#000000">201112 (845287)</text>
  <rect fill="blue" height="901.0" stroke="black" width="12" x="570" y="72628.3"/>
  <text x="570" y="73534.3" font-family="Tahoma" font-size="12" transform="rotate(90 570,73534.3)" text-rendering="optimizeSpeed" fill="#000000">201201 (900989)</text>
  <rect fill="blue" height="994.2" stroke="black" width="12" x="585" y="72535.1"/>
  <text x="585" y="73534.3" font-family="Tahoma" font-size="12" transform="rotate(90 585,73534.3)" text-rendering="optimizeSpeed" fill="#000000">201202 (994228)</text>
  <rect fill="blue" height="1062.8" stroke="black" width="12" x="600" y="72466.5"/>
  <text x="600" y="73534.3" font-family="Tahoma" font-size="12" transform="rotate(90 600,73534.3)" text-rendering="optimizeSpeed" fill="#000000">201203 (1062847)</text>
  <rect fill="blue" height="1095.6" stroke="black" width="12" x="615" y="72433.7"/>
  <text x="615" y="73534.3" font-family="Tahoma" font-size="12" transform="rotate(90 615,73534.3)" text-rendering="optimizeSpeed" fill="#000000">201204 (1095646)</text>
  <rect fill="blue" height="1178.8" stroke="black" width="12" x="630" y="72350.5"/>
  <text x="630" y="73534.3" font-family="Tahoma" font-size="12" transform="rotate(90 630,73534.3)" text-rendering="optimizeSpeed" fill="#000000">201205 (1178808)</text>
  <rect fill="blue" height="1246.8" stroke="black" width="12" x="645" y="72282.5"/>
  <text x="645" y="73534.3" font-family="Tahoma" font-size="12" transform="rotate(90 645,73534.3)" text-rendering="optimizeSpeed" fill="#000000">201206 (1246787)</text>
  <rect fill="blue" height="1314.2" stroke="black" width="12" x="660" y="72215.2"/>
  <text x="660" y="73534.3" font-family="Tahoma" font-size="12" transform="rotate(90 660,73534.3)" text-rendering="optimizeSpeed" fill="#000000">201207 (1314159)</text>
  <rect fill="blue" height="1413.7" stroke="black" width="12" x="675" y="72115.6"/>
  <text x="675" y="73534.3" font-family="Tahoma" font-size="12" transform="rotate(90 675,73534.3)" text-rendering="optimizeSpeed" fill="#000000">201208 (1413662)</text>
  <rect fill="blue" height="1463.8" stroke="black" width="12" x="690" y="72065.5"/>
  <text x="690" y="73534.3" font-family="Tahoma" font-size="12" transform="rotate(90 690,73534.3)" text-rendering="optimizeSpeed" fill="#000000">201209 (1463831)</text>
  <rect fill="blue" height="1624.2" stroke="black" width="12" x="705" y="71905.1"/>
  <text x="705" y="73534.3" font-family="Tahoma" font-size="12" transform="rotate(90 705,73534.3)" text-rendering="optimizeSpeed" fill="#000000">201210 (1624234)</text>
  <rect fill="blue" height="1653.1" stroke="black" width="12" x="720" y="71876.2"/>
  <text x="720" y="73534.3" font-family="Tahoma" font-size="12" transform="rotate(90 720,73534.3)" text-rendering="optimizeSpeed" fill="#000000">201211 (1653083)</text>
  <rect fill="blue" height="1691.9" stroke="black" width="12" x="735" y="71837.5"/>
  <text x="735" y="73534.3" font-family="Tahoma" font-size="12" transform="rotate(90 735,73534.3)" text-rendering="optimizeSpeed" fill="#000000">201212 (1691853)</text>
  <rect fill="blue" height="1778.7" stroke="black" width="12" x="750" y="71750.7"/>
  <text x="750" y="73534.3" font-family="Tahoma" font-size="12" transform="rotate(90 750,73534.3)" text-rendering="optimizeSpeed" fill="#000000">201301 (1778659)</text>
  <rect fill="blue" height="1860.1" stroke="black" width="12" x="765" y="71669.2"/>
  <text x="765" y="73534.3" font-family="Tahoma" font-size="12" transform="rotate(90 765,73534.3)" text-rendering="optimizeSpeed" fill="#000000">201302 (1860091)</text>
  <rect fill="blue" height="1978.4" stroke="black" width="12" x="780" y="71550.9"/>
  <text x="780" y="73534.3" font-family="Tahoma" font-size="12" transform="rotate(90 780,73534.3)" text-rendering="optimizeSpeed" fill="#000000">201303 (1978443)</text>
  <rect fill="blue" height="2090.8" stroke="black" width="12" x="795" y="71438.5"/>
  <text x="795" y="73534.3" font-family="Tahoma" font-size="12" transform="rotate(90 795,73534.3)" text-rendering="optimizeSpeed" fill="#000000">201304 (2090830)</text>
  <rect fill="blue" height="2199.9" stroke="black" width="12" x="810" y="71329.4"/>
  <text x="810" y="73534.3" font-family="Tahoma" font-size="12" transform="rotate(90 810,73534.3)" text-rendering="optimizeSpeed" fill="#000000">201305 (2199940)</text>
  <rect fill="blue" height="2285.3" stroke="black" width="12" x="825" y="71244.1"/>
  <text x="825" y="73534.3" font-family="Tahoma" font-size="12" transform="rotate(90 825,73534.3)" text-rendering="optimizeSpeed" fill="#000000">201306 (2285256)</text>
  <rect fill="blue" height="2413.2" stroke="black" width="12" x="840" y="71116.1"/>
  <text x="840" y="73534.3" font-family="Tahoma" font-size="12" transform="rotate(90 840,73534.3)" text-rendering="optimizeSpeed" fill="#000000">201307 (2413217)</text>
  <rect fill="blue" height="2497.7" stroke="black" width="12" x="855" y="71031.7"/>
  <text x="855" y="73534.3" font-family="Tahoma" font-size="12" transform="rotate(90 855,73534.3)" text-rendering="optimizeSpeed" fill="#000000">201308 (2497655)</text>
  <rect fill="blue" height="2494.6" stroke="black" width="12" x="870" y="71034.7"/>
  <text x="870" y="73534.3" font-family="Tahoma" font-size="12" transform="rotate(90 870,73534.3)" text-rendering="optimizeSpeed" fill="#000000">201309 (2494637)</text>
  <rect fill="blue" height="2668.6" stroke="black" width="12" x="885" y="70860.7"/>
  <text x="885" y="73534.3" font-family="Tahoma" font-size="12" transform="rotate(90 885,73534.3)" text-rendering="optimizeSpeed" fill="#000000">201310 (2668613)</text>
  <rect fill="blue" height="2772.2" stroke="black" width="12" x="900" y="70757.1"/>
  <text x="900" y="73534.3" font-family="Tahoma" font-size="12" transform="rotate(90 900,73534.3)" text-rendering="optimizeSpeed" fill="#000000">201311 (2772223)</text>
  <rect fill="blue" height="2817.0" stroke="black" width="12" x="915" y="70712.3"/>
  <text x="915" y="73534.3" font-family="Tahoma" font-size="12" transform="rotate(90 915,73534.3)" text-rendering="optimizeSpeed" fill="#000000">201312 (2816994)</text>
  <rect fill="blue" height="3019.9" stroke="black" width="12" x="930" y="70509.4"/>
  <text x="930" y="73534.3" font-family="Tahoma" font-size="12" transform="rotate(90 930,73534.3)" text-rendering="optimizeSpeed" fill="#000000">201401 (3019905)</text>
  <rect fill="blue" height="3108.5" stroke="black" width="12" x="945" y="70420.8"/>
  <text x="945" y="73534.3" font-family="Tahoma" font-size="12" transform="rotate(90 945,73534.3)" text-rendering="optimizeSpeed" fill="#000000">201402 (3108511)</text>
  <rect fill="blue" height="3330.2" stroke="black" width="12" x="960" y="70199.1"/>
  <text x="960" y="73534.3" font-family="Tahoma" font-size="12" transform="rotate(90 960,73534.3)" text-rendering="optimizeSpeed" fill="#000000">201403 (3330226)</text>
  <rect fill="blue" height="3462.6" stroke="black" width="12" x="975" y="70066.8"/>
  <text x="975" y="73534.3" font-family="Tahoma" font-size="12" transform="rotate(90 975,73534.3)" text-rendering="optimizeSpeed" fill="#000000">201404 (3462555)</text>
  <rect fill="blue" height="3634.4" stroke="black" width="12" x="990" y="69894.9"/>
  <text x="990" y="73534.3" font-family="Tahoma" font-size="12" transform="rotate(90 990,73534.3)" text-rendering="optimizeSpeed" fill="#000000">201405 (3634370)</text>
  <rect fill="blue" height="3751.3" stroke="black" width="12" x="1005" y="69778.1"/>
  <text x="1005" y="73534.3" font-family="Tahoma" font-size="12" transform="rotate(90 1005,73534.3)" text-rendering="optimizeSpeed" fill="#000000">201406 (3751256)</text>
  <rect fill="blue" height="3917.5" stroke="black" width="12" x="1020" y="69611.8"/>
  <text x="1020" y="73534.3" font-family="Tahoma" font-size="12" transform="rotate(90 1020,73534.3)" text-rendering="optimizeSpeed" fill="#000000">201407 (3917505)</text>
  <rect fill="blue" height="4114.6" stroke="black" width="12" x="1035" y="69414.7"/>
  <text x="1035" y="73534.3" font-family="Tahoma" font-size="12" transform="rotate(90 1035,73534.3)" text-rendering="optimizeSpeed" fill="#000000">201408 (4114596)</text>
  <rect fill="blue" height="4348.5" stroke="black" width="12" x="1050" y="69180.8"/>
  <text x="1050" y="73534.3" font-family="Tahoma" font-size="12" transform="rotate(90 1050,73534.3)" text-rendering="optimizeSpeed" fill="#000000">201409 (4348469)</text>
  <rect fill="blue" height="4587.1" stroke="black" width="12" x="1065" y="68942.2"/>
  <text x="1065" y="73534.3" font-family="Tahoma" font-size="12" transform="rotate(90 1065,73534.3)" text-rendering="optimizeSpeed" fill="#000000">201410 (4587115)</text>
  <rect fill="blue" height="4625.0" stroke="black" width="12" x="1080" y="68904.3"/>
  <text x="1080" y="73534.3" font-family="Tahoma" font-size="12" transform="rotate(90 1080,73534.3)" text-rendering="optimizeSpeed" fill="#000000">201411 (4624966)</text>
  <rect fill="blue" height="4797.9" stroke="black" width="12" x="1095" y="68731.4"/>
  <text x="1095" y="73534.3" font-family="Tahoma" font-size="12" transform="rotate(90 1095,73534.3)" text-rendering="optimizeSpeed" fill="#000000">201412 (4797912)</text>
  <rect fill="blue" height="5046.2" stroke="black" width="12" x="1110" y="68483.1"/>
  <text x="1110" y="73534.3" font-family="Tahoma" font-size="12" transform="rotate(90 1110,73534.3)" text-rendering="optimizeSpeed" fill="#000000">201501 (5046186)</text>
  <rect fill="blue" height="5208.8" stroke="black" width="12" x="1125" y="68320.5"/>
  <text x="1125" y="73534.3" font-family="Tahoma" font-size="12" transform="rotate(90 1125,73534.3)" text-rendering="optimizeSpeed" fill="#000000">201502 (5208788)</text>
  <rect fill="blue" height="5519.8" stroke="black" width="12" x="1140" y="68009.5"/>
  <text x="1140" y="73534.3" font-family="Tahoma" font-size="12" transform="rotate(90 1140,73534.3)" text-rendering="optimizeSpeed" fill="#000000">201503 (5519802)</text>
  <rect fill="blue" height="5763.1" stroke="black" width="12" x="1155" y="67766.2"/>
  <text x="1155" y="73534.3" font-family="Tahoma" font-size="12" transform="rotate(90 1155,73534.3)" text-rendering="optimizeSpeed" fill="#000000">201504 (5763070)</text>
  <rect fill="blue" height="5978.0" stroke="black" width="12" x="1170" y="67551.3"/>
  <text x="1170" y="73534.3" font-family="Tahoma" font-size="12" transform="rotate(90 1170,73534.3)" text-rendering="optimizeSpeed" fill="#000000">201505 (5977998)</text>
  <rect fill="blue" height="6287.0" stroke="black" width="12" x="1185" y="67242.3"/>
  <text x="1185" y="73534.3" font-family="Tahoma" font-size="12" transform="rotate(90 1185,73534.3)" text-rendering="optimizeSpeed" fill="#000000">201506 (6287048)</text>
  <rect fill="blue" height="6531.9" stroke="black" width="12" x="1200" y="66997.5"/>
  <text x="1200" y="73534.3" font-family="Tahoma" font-size="12" transform="rotate(90 1200,73534.3)" text-rendering="optimizeSpeed" fill="#000000">201507 (6531851)</text>
  <rect fill="blue" height="6526.5" stroke="black" width="12" x="1215" y="67002.8"/>
  <text x="1215" y="73534.3" font-family="Tahoma" font-size="12" transform="rotate(90 1215,73534.3)" text-rendering="optimizeSpeed" fill="#000000">201508 (6526480)</text>
  <rect fill="blue" height="6813.1" stroke="black" width="12" x="1230" y="66716.2"/>
  <text x="1230" y="73534.3" font-family="Tahoma" font-size="12" transform="rotate(90 1230,73534.3)" text-rendering="optimizeSpeed" fill="#000000">201509 (6813144)</text>
  <rect fill="blue" height="7337.8" stroke="black" width="12" x="1245" y="66191.5"/>
  <text x="1245" y="73534.3" font-family="Tahoma" font-size="12" transform="rotate(90 1245,73534.3)" text-rendering="optimizeSpeed" fill="#000000">201510 (7337796)</text>
  <rect fill="blue" height="7499.6" stroke="black" width="12" x="1260" y="66029.7"/>
  <text x="1260" y="73534.3" font-family="Tahoma" font-size="12" transform="rotate(90 1260,73534.3)" text-rendering="optimizeSpeed" fill="#000000">201511 (7499608)</text>
  <rect fill="blue" height="7732.7" stroke="black" width="12" x="1275" y="65796.6"/>
  <text x="1275" y="73534.3" font-family="Tahoma" font-size="12" transform="rotate(90 1275,73534.3)" text-rendering="optimizeSpeed" fill="#000000">201512 (7732707)</text>
  <rect fill="blue" height="8139.5" stroke="black" width="12" x="1290" y="65389.8"/>
  <text x="1290" y="73534.3" font-family="Tahoma" font-size="12" transform="rotate(90 1290,73534.3)" text-rendering="optimizeSpeed" fill="#000000">201601 (8139540)</text>
  <rect fill="blue" height="7646.4" stroke="black" width="12" x="1305" y="65882.9"/>
  <text x="1305" y="73534.3" font-family="Tahoma" font-size="12" transform="rotate(90 1305,73534.3)" text-rendering="optimizeSpeed" fill="#000000">201602 (7646383)</text>
  <rect fill="blue" height="7677.2" stroke="black" width="12" x="1320" y="65852.1"/>
  <text x="1320" y="73534.3" font-family="Tahoma" font-size="12" transform="rotate(90 1320,73534.3)" text-rendering="optimizeSpeed" fill="#000000">201603 (7677213)</text>
  <rect fill="blue" height="7917.8" stroke="black" width="12" x="1335" y="65611.5"/>
  <text x="1335" y="73534.3" font-family="Tahoma" font-size="12" transform="rotate(90 1335,73534.3)" text-rendering="optimizeSpeed" fill="#000000">201604 (7917818)</text>
  <rect fill="blue" height="8194.6" stroke="black" width="12" x="1350" y="65334.7"/>
  <text x="1350" y="73534.3" font-family="Tahoma" font-size="12" transform="rotate(90 1350,73534.3)" text-rendering="optimizeSpeed" fill="#000000">201605 (8194567)</text>
  <rect fill="blue" height="8533.6" stroke="black" width="12" x="1365" y="64995.7"/>
  <text x="1365" y="73534.3" font-family="Tahoma" font-size="12" transform="rotate(90 1365,73534.3)" text-rendering="optimizeSpeed" fill="#000000">201606 (8533634)</text>
  <rect fill="blue" height="8719.6" stroke="black" width="12" x="1380" y="64809.7"/>
  <text x="1380" y="73534.3" font-family="Tahoma" font-size="12" transform="rotate(90 1380,73534.3)" text-rendering="optimizeSpeed" fill="#000000">201607 (8719592)</text>
  <rect fill="blue" height="9087.9" stroke="black" width="12" x="1395" y="64441.4"/>
  <text x="1395" y="73534.3" font-family="Tahoma" font-size="12" transform="rotate(90 1395,73534.3)" text-rendering="optimizeSpeed" fill="#000000">201608 (9087941)</text>
  <rect fill="blue" height="9464.1" stroke="black" width="12" x="1410" y="64065.2"/>
  <text x="1410" y="73534.3" font-family="Tahoma" font-size="12" transform="rotate(90 1410,73534.3)" text-rendering="optimizeSpeed" fill="#000000">201609 (9464135)</text>
  <rect fill="blue" height="9654.6" stroke="black" width="12" x="1425" y="63874.7"/>
  <text x="1425" y="73534.3" font-family="Tahoma" font-size="12" transform="rotate(90 1425,73534.3)" text-rendering="optimizeSpeed" fill="#000000">201610 (9654585)</text>
  <rect fill="blue" height="10021.7" stroke="black" width="12" x="1440" y="63507.6"/>
  <text x="1440" y="73534.3" font-family="Tahoma" font-size="12" transform="rotate(90 1440,73534.3)" text-rendering="optimizeSpeed" fill="#000000">201611 (10021717)</text>
  <rect fill="blue" height="10084.9" stroke="black" width="12" x="1455" y="63444.4"/>
  <text x="1455" y="73534.3" font-family="Tahoma" font-size="12" transform="rotate(90 1455,73534.3)" text-rendering="optimizeSpeed" fill="#000000">201612 (10084926)</text>
  <rect fill="blue" height="10444.5" stroke="black" width="12" x="1470" y="63084.9"/>
  <text x="1470" y="73534.3" font-family="Tahoma" font-size="12" transform="rotate(90 1470,73534.3)" text-rendering="optimizeSpeed" fill="#000000">201701 (10444450)</text>
  <rect fill="blue" height="11041.6" stroke="black" width="12" x="1485" y="62487.7"/>
  <text x="1485" y="73534.3" font-family="Tahoma" font-size="12" transform="rotate(90 1485,73534.3)" text-rendering="optimizeSpeed" fill="#000000">201702 (11041600)</text>
  <rect fill="blue" height="11480.4" stroke="black" width="12" x="1500" y="62048.9"/>
  <text x="1500" y="73534.3" font-family="Tahoma" font-size="12" transform="rotate(90 1500,73534.3)" text-rendering="optimizeSpeed" fill="#000000">201703 (11480409)</text>
  <rect fill="blue" height="11784.9" stroke="black" width="12" x="1515" y="61744.4"/>
  <text x="1515" y="73534.3" font-family="Tahoma" font-size="12" transform="rotate(90 1515,73534.3)" text-rendering="optimizeSpeed" fill="#000000">201704 (11784888)</text>
  <rect fill="blue" height="12304.5" stroke="black" width="12" x="1530" y="61224.8"/>
  <text x="1530" y="73534.3" font-family="Tahoma" font-size="12" transform="rotate(90 1530,73534.3)" text-rendering="optimizeSpeed" fill="#000000">201705 (12304479)</text>
  <rect fill="blue" height="12896.0" stroke="black" width="12" x="1545" y="60633.3"/>
  <text x="1545" y="73534.3" font-family="Tahoma" font-size="12" transform="rotate(90 1545,73534.3)" text-rendering="optimizeSpeed" fill="#000000">201706 (12896045)</text>
  <rect fill="blue" height="12881.9" stroke="black" width="12" x="1560" y="60647.4"/>
  <text x="1560" y="73534.3" font-family="Tahoma" font-size="12" transform="rotate(90 1560,73534.3)" text-rendering="optimizeSpeed" fill="#000000">201707 (12881933)</text>
  <rect fill="blue" height="13648.8" stroke="black" width="12" x="1575" y="59880.5"/>
  <text x="1575" y="73534.3" font-family="Tahoma" font-size="12" transform="rotate(90 1575,73534.3)" text-rendering="optimizeSpeed" fill="#000000">201708 (13648813)</text>
  <rect fill="blue" height="14694.8" stroke="black" width="12" x="1590" y="58834.5"/>
  <text x="1590" y="73534.3" font-family="Tahoma" font-size="12" transform="rotate(90 1590,73534.3)" text-rendering="optimizeSpeed" fill="#000000">201709 (14694789)</text>
  <rect fill="blue" height="15036.3" stroke="black" width="12" x="1605" y="58493.0"/>
  <text x="1605" y="73534.3" font-family="Tahoma" font-size="12" transform="rotate(90 1605,73534.3)" text-rendering="optimizeSpeed" fill="#000000">201710 (15036345)</text>
  <rect fill="blue" height="15853.2" stroke="black" width="12" x="1620" y="57676.2"/>
  <text x="1620" y="73534.3" font-family="Tahoma" font-size="12" transform="rotate(90 1620,73534.3)" text-rendering="optimizeSpeed" fill="#000000">201711 (15853161)</text>
  <rect fill="blue" height="16214.0" stroke="black" width="12" x="1635" y="57315.3"/>
  <text x="1635" y="73534.3" font-family="Tahoma" font-size="12" transform="rotate(90 1635,73534.3)" text-rendering="optimizeSpeed" fill="#000000">201712 (16214025)</text>
  <rect fill="blue" height="17266.3" stroke="black" width="12" x="1650" y="56263.0"/>
  <text x="1650" y="73534.3" font-family="Tahoma" font-size="12" transform="rotate(90 1650,73534.3)" text-rendering="optimizeSpeed" fill="#000000">201801 (17266263)</text>
  <rect fill="blue" height="17289.1" stroke="black" width="12" x="1665" y="56240.3"/>
  <text x="1665" y="73534.3" font-family="Tahoma" font-size="12" transform="rotate(90 1665,73534.3)" text-rendering="optimizeSpeed" fill="#000000">201802 (17289053)</text>
  <rect fill="blue" height="17693.5" stroke="black" width="12" x="1680" y="55835.8"/>
  <text x="1680" y="73534.3" font-family="Tahoma" font-size="12" transform="rotate(90 1680,73534.3)" text-rendering="optimizeSpeed" fill="#000000">201803 (17693514)</text>
  <rect fill="blue" height="18132.3" stroke="black" width="12" x="1695" y="55397.0"/>
  <text x="1695" y="73534.3" font-family="Tahoma" font-size="12" transform="rotate(90 1695,73534.3)" text-rendering="optimizeSpeed" fill="#000000">201804 (18132270)</text>
  <rect fill="blue" height="18792.6" stroke="black" width="12" x="1710" y="54736.7"/>
  <text x="1710" y="73534.3" font-family="Tahoma" font-size="12" transform="rotate(90 1710,73534.3)" text-rendering="optimizeSpeed" fill="#000000">201805 (18792627)</text>
  <rect fill="blue" height="19124.9" stroke="black" width="12" x="1725" y="54404.4"/>
  <text x="1725" y="73534.3" font-family="Tahoma" font-size="12" transform="rotate(90 1725,73534.3)" text-rendering="optimizeSpeed" fill="#000000">201806 (19124899)</text>
  <rect fill="blue" height="19022.4" stroke="black" width="12" x="1740" y="54506.9"/>
  <text x="1740" y="73534.3" font-family="Tahoma" font-size="12" transform="rotate(90 1740,73534.3)" text-rendering="optimizeSpeed" fill="#000000">201807 (19022436)</text>
  <rect fill="blue" height="19946.2" stroke="black" width="12" x="1755" y="53583.1"/>
  <text x="1755" y="73534.3" font-family="Tahoma" font-size="12" transform="rotate(90 1755,73534.3)" text-rendering="optimizeSpeed" fill="#000000">201808 (19946177)</text>
  <rect fill="blue" height="20664.2" stroke="black" width="12" x="1770" y="52865.1"/>
  <text x="1770" y="73534.3" font-family="Tahoma" font-size="12" transform="rotate(90 1770,73534.3)" text-rendering="optimizeSpeed" fill="#000000">201809 (20664191)</text>
  <rect fill="blue" height="21506.3" stroke="black" width="12" x="1785" y="52023.1"/>
  <text x="1785" y="73534.3" font-family="Tahoma" font-size="12" transform="rotate(90 1785,73534.3)" text-rendering="optimizeSpeed" fill="#000000">201810 (21506258)</text>
  <rect fill="blue" height="22329.2" stroke="black" width="12" x="1800" y="51200.1"/>
  <text x="1800" y="73534.3" font-family="Tahoma" font-size="12" transform="rotate(90 1800,73534.3)" text-rendering="optimizeSpeed" fill="#000000">201811 (22329238)</text>
  <rect fill="blue" height="22527.6" stroke="black" width="12" x="1815" y="51001.7"/>
  <text x="1815" y="73534.3" font-family="Tahoma" font-size="12" transform="rotate(90 1815,73534.3)" text-rendering="optimizeSpeed" fill="#000000">201812 (22527640)</text>
  <rect fill="blue" height="23766.5" stroke="black" width="12" x="1830" y="49762.8"/>
  <text x="1830" y="73534.3" font-family="Tahoma" font-size="12" transform="rotate(90 1830,73534.3)" text-rendering="optimizeSpeed" fill="#000000">201901 (23766468)</text>
  <rect fill="blue" height="23871.5" stroke="black" width="12" x="1845" y="49657.8"/>
  <text x="1845" y="73534.3" font-family="Tahoma" font-size="12" transform="rotate(90 1845,73534.3)" text-rendering="optimizeSpeed" fill="#000000">201902 (23871537)</text>
  <rect fill="blue" height="26362.2" stroke="black" width="12" x="1860" y="47167.1"/>
  <text x="1860" y="73534.3" font-family="Tahoma" font-size="12" transform="rotate(90 1860,73534.3)" text-rendering="optimizeSpeed" fill="#000000">201903 (26362178)</text>
  <rect fill="blue" height="26461.8" stroke="black" width="12" x="1875" y="47067.6"/>
  <text x="1875" y="73534.3" font-family="Tahoma" font-size="12" transform="rotate(90 1875,73534.3)" text-rendering="optimizeSpeed" fill="#000000">201904 (26461755)</text>
  <rect fill="blue" height="28314.1" stroke="black" width="12" x="1890" y="45215.2"/>
  <text x="1890" y="73534.3" font-family="Tahoma" font-size="12" transform="rotate(90 1890,73534.3)" text-rendering="optimizeSpeed" fill="#000000">201905 (28314079)</text>
  <rect fill="blue" height="29047.2" stroke="black" width="12" x="1905" y="44482.1"/>
  <text x="1905" y="73534.3" font-family="Tahoma" font-size="12" transform="rotate(90 1905,73534.3)" text-rendering="optimizeSpeed" fill="#000000">201906 (29047213)</text>
  <rect fill="blue" height="30282.2" stroke="black" width="12" x="1920" y="43247.1"/>
  <text x="1920" y="73534.3" font-family="Tahoma" font-size="12" transform="rotate(90 1920,73534.3)" text-rendering="optimizeSpeed" fill="#000000">201907 (30282181)</text>
  <rect fill="blue" height="30911.0" stroke="black" width="12" x="1935" y="42618.4"/>
  <text x="1935" y="73534.3" font-family="Tahoma" font-size="12" transform="rotate(90 1935,73534.3)" text-rendering="optimizeSpeed" fill="#000000">201908 (30910963)</text>
  <rect fill="blue" height="31209.7" stroke="black" width="12" x="1950" y="42319.6"/>
  <text x="1950" y="73534.3" font-family="Tahoma" font-size="12" transform="rotate(90 1950,73534.3)" text-rendering="optimizeSpeed" fill="#000000">201909 (31209675)</text>
  <rect fill="blue" height="33047.6" stroke="black" width="12" x="1965" y="40481.7"/>
  <text x="1965" y="73534.3" font-family="Tahoma" font-size="12" transform="rotate(90 1965,73534.3)" text-rendering="optimizeSpeed" fill="#000000">201910 (33047638)</text>
  <rect fill="blue" height="33243.2" stroke="black" width="12" x="1980" y="40286.1"/>
  <text x="1980" y="73534.3" font-family="Tahoma" font-size="12" transform="rotate(90 1980,73534.3)" text-rendering="optimizeSpeed" fill="#000000">201911 (33243242)</text>
  <rect fill="blue" height="32876.2" stroke="black" width="12" x="1995" y="40653.1"/>
  <text x="1995" y="73534.3" font-family="Tahoma" font-size="12" transform="rotate(90 1995,73534.3)" text-rendering="optimizeSpeed" fill="#000000">201912 (32876209)</text>
  <rect fill="blue" height="34074.9" stroke="black" width="12" x="2010" y="39454.4"/>
  <text x="2010" y="73534.3" font-family="Tahoma" font-size="12" transform="rotate(90 2010,73534.3)" text-rendering="optimizeSpeed" fill="#000000">202001 (34074887)</text>
  <rect fill="blue" height="34198.6" stroke="black" width="12" x="2025" y="39330.7"/>
  <text x="2025" y="73534.3" font-family="Tahoma" font-size="12" transform="rotate(90 2025,73534.3)" text-rendering="optimizeSpeed" fill="#000000">202002 (34198615)</text>
  <rect fill="blue" height="35473.7" stroke="black" width="12" x="2040" y="38055.6"/>
  <text x="2040" y="73534.3" font-family="Tahoma" font-size="12" transform="rotate(90 2040,73534.3)" text-rendering="optimizeSpeed" fill="#000000">202003 (35473695)</text>
  <rect fill="blue" height="36521.7" stroke="black" width="12" x="2055" y="37007.6"/>
  <text x="2055" y="73534.3" font-family="Tahoma" font-size="12" transform="rotate(90 2055,73534.3)" text-rendering="optimizeSpeed" fill="#000000">202004 (36521716)</text>
  <rect fill="blue" height="38176.1" stroke="black" width="12" x="2070" y="35353.2"/>
  <text x="2070" y="73534.3" font-family="Tahoma" font-size="12" transform="rotate(90 2070,73534.3)" text-rendering="optimizeSpeed" fill="#000000">202005 (38176117)</text>
  <rect fill="blue" height="38958.3" stroke="black" width="12" x="2085" y="34571.1"/>
  <text x="2085" y="73534.3" font-family="Tahoma" font-size="12" transform="rotate(90 2085,73534.3)" text-rendering="optimizeSpeed" fill="#000000">202006 (38958259)</text>
  <rect fill="blue" height="39899.9" stroke="black" width="12" x="2100" y="33629.4"/>
  <text x="2100" y="73534.3" font-family="Tahoma" font-size="12" transform="rotate(90 2100,73534.3)" text-rendering="optimizeSpeed" fill="#000000">202007 (39899894)</text>
  <rect fill="blue" height="40181.1" stroke="black" width="12" x="2115" y="33348.2"/>
  <text x="2115" y="73534.3" font-family="Tahoma" font-size="12" transform="rotate(90 2115,73534.3)" text-rendering="optimizeSpeed" fill="#000000">202008 (40181129)</text>
  <rect fill="blue" height="41319.4" stroke="black" width="12" x="2130" y="32209.9"/>
  <text x="2130" y="73534.3" font-family="Tahoma" font-size="12" transform="rotate(90 2130,73534.3)" text-rendering="optimizeSpeed" fill="#000000">202009 (41319362)</text>
  <rect fill="blue" height="43225.0" stroke="black" width="12" x="2145" y="30304.3"/>
  <text x="2145" y="73534.3" font-family="Tahoma" font-size="12" transform="rotate(90 2145,73534.3)" text-rendering="optimizeSpeed" fill="#000000">202010 (43225016)</text>
  <rect fill="blue" height="43425.2" stroke="black" width="12" x="2160" y="30104.1"/>
  <text x="2160" y="73534.3" font-family="Tahoma" font-size="12" transform="rotate(90 2160,73534.3)" text-rendering="optimizeSpeed" fill="#000000">202011 (43425203)</text>
  <rect fill="blue" height="43976.2" stroke="black" width="12" x="2175" y="29553.1"/>
  <text x="2175" y="73534.3" font-family="Tahoma" font-size="12" transform="rotate(90 2175,73534.3)" text-rendering="optimizeSpeed" fill="#000000">202012 (43976167)</text>
  <rect fill="blue" height="45367.6" stroke="black" width="12" x="2190" y="28161.7"/>
  <text x="2190" y="73534.3" font-family="Tahoma" font-size="12" transform="rotate(90 2190,73534.3)" text-rendering="optimizeSpeed" fill="#000000">202101 (45367645)</text>
  <rect fill="blue" height="45989.0" stroke="black" width="12" x="2205" y="27540.3"/>
  <text x="2205" y="73534.3" font-family="Tahoma" font-size="12" transform="rotate(90 2205,73534.3)" text-rendering="optimizeSpeed" fill="#000000">202102 (45988977)</text>
  <rect fill="blue" height="48116.2" stroke="black" width="12" x="2220" y="25413.1"/>
  <text x="2220" y="73534.3" font-family="Tahoma" font-size="12" transform="rotate(90 2220,73534.3)" text-rendering="optimizeSpeed" fill="#000000">202103 (48116187)</text>
  <rect fill="blue" height="48287.1" stroke="black" width="12" x="2235" y="25242.2"/>
  <text x="2235" y="73534.3" font-family="Tahoma" font-size="12" transform="rotate(90 2235,73534.3)" text-rendering="optimizeSpeed" fill="#000000">202104 (48287114)</text>
  <rect fill="blue" height="49047.3" stroke="black" width="12" x="2250" y="24482.0"/>
  <text x="2250" y="73534.3" font-family="Tahoma" font-size="12" transform="rotate(90 2250,73534.3)" text-rendering="optimizeSpeed" fill="#000000">202105 (49047300)</text>
  <rect fill="blue" height="50785.2" stroke="black" width="12" x="2265" y="22744.1"/>
  <text x="2265" y="73534.3" font-family="Tahoma" font-size="12" transform="rotate(90 2265,73534.3)" text-rendering="optimizeSpeed" fill="#000000">202106 (50785205)</text>
  <rect fill="blue" height="52348.1" stroke="black" width="12" x="2280" y="21181.2"/>
  <text x="2280" y="73534.3" font-family="Tahoma" font-size="12" transform="rotate(90 2280,73534.3)" text-rendering="optimizeSpeed" fill="#000000">202107 (52348111)</text>
  <rect fill="blue" height="52552.7" stroke="black" width="12" x="2295" y="20976.7"/>
  <text x="2295" y="73534.3" font-family="Tahoma" font-size="12" transform="rotate(90 2295,73534.3)" text-rendering="optimizeSpeed" fill="#000000">202108 (52552661)</text>
  <rect fill="blue" height="54438.2" stroke="black" width="12" x="2310" y="19091.1"/>
  <text x="2310" y="73534.3" font-family="Tahoma" font-size="12" transform="rotate(90 2310,73534.3)" text-rendering="optimizeSpeed" fill="#000000">202109 (54438237)</text>
  <rect fill="blue" height="54512.0" stroke="black" width="12" x="2325" y="19017.3"/>
  <text x="2325" y="73534.3" font-family="Tahoma" font-size="12" transform="rotate(90 2325,73534.3)" text-rendering="optimizeSpeed" fill="#000000">202110 (54512005)</text>
  <rect fill="blue" height="55115.1" stroke="black" width="12" x="2340" y="18414.2"/>
  <text x="2340" y="73534.3" font-family="Tahoma" font-size="12" transform="rotate(90 2340,73534.3)" text-rendering="optimizeSpeed" fill="#000000">202111 (55115147)</text>
  <rect fill="blue" height="57435.0" stroke="black" width="12" x="2355" y="16094.3"/>
  <text x="2355" y="73534.3" font-family="Tahoma" font-size="12" transform="rotate(90 2355,73534.3)" text-rendering="optimizeSpeed" fill="#000000">202112 (57435036)</text>
  <rect fill="blue" height="58605.9" stroke="black" width="12" x="2370" y="14923.4"/>
  <text x="2370" y="73534.3" font-family="Tahoma" font-size="12" transform="rotate(90 2370,73534.3)" text-rendering="optimizeSpeed" fill="#000000">202201 (58605893)</text>
  <rect fill="blue" height="58534.6" stroke="black" width="12" x="2385" y="14994.7"/>
  <text x="2385" y="73534.3" font-family="Tahoma" font-size="12" transform="rotate(90 2385,73534.3)" text-rendering="optimizeSpeed" fill="#000000">202202 (58534602)</text>
  <rect fill="blue" height="62816.9" stroke="black" width="12" x="2400" y="10712.4"/>
  <text x="2400" y="73534.3" font-family="Tahoma" font-size="12" transform="rotate(90 2400,73534.3)" text-rendering="optimizeSpeed" fill="#000000">202203 (62816932)</text>
  <rect fill="blue" height="61826.6" stroke="black" width="12" x="2415" y="11702.8"/>
  <text x="2415" y="73534.3" font-family="Tahoma" font-size="12" transform="rotate(90 2415,73534.3)" text-rendering="optimizeSpeed" fill="#000000">202204 (61826553)</text>
  <rect fill="blue" height="62798.3" stroke="black" width="12" x="2430" y="10731.0"/>
  <text x="2430" y="73534.3" font-family="Tahoma" font-size="12" transform="rotate(90 2430,73534.3)" text-rendering="optimizeSpeed" fill="#000000">202205 (62798293)</text>
  <rect fill="blue" height="63843.7" stroke="black" width="12" x="2445" y="9685.6"/>
  <text x="2445" y="73534.3" font-family="Tahoma" font-size="12" transform="rotate(90 2445,73534.3)" text-rendering="optimizeSpeed" fill="#000000">202206 (63843669)</text>
  <rect fill="blue" height="65352.9" stroke="black" width="12" x="2460" y="8176.4"/>
  <text x="2460" y="73534.3" font-family="Tahoma" font-size="12" transform="rotate(90 2460,73534.3)" text-rendering="optimizeSpeed" fill="#000000">202207 (65352937)</text>
  <rect fill="blue" height="67159.9" stroke="black" width="12" x="2475" y="6369.4"/>
  <text x="2475" y="73534.3" font-family="Tahoma" font-size="12" transform="rotate(90 2475,73534.3)" text-rendering="optimizeSpeed" fill="#000000">202208 (67159875)</text>
  <rect fill="blue" height="65644.0" stroke="black" width="12" x="2490" y="7885.3"/>
  <text x="2490" y="73534.3" font-family="Tahoma" font-size="12" transform="rotate(90 2490,73534.3)" text-rendering="optimizeSpeed" fill="#000000">202209 (65644039)</text>
  <rect fill="blue" height="66881.0" stroke="black" width="12" x="2505" y="6648.3"/>
  <text x="2505" y="73534.3" font-family="Tahoma" font-size="12" transform="rotate(90 2505,73534.3)" text-rendering="optimizeSpeed" fill="#000000">202210 (66881016)</text>
  <rect fill="blue" height="68057.3" stroke="black" width="12" x="2520" y="5472.0"/>
  <text x="2520" y="73534.3" font-family="Tahoma" font-size="12" transform="rotate(90 2520,73534.3)" text-rendering="optimizeSpeed" fill="#000000">202211 (68057290)</text>
  <rect fill="blue" height="67251.1" stroke="black" width="12" x="2535" y="6278.3"/>
  <text x="2535" y="73534.3" font-family="Tahoma" font-size="12" transform="rotate(90 2535,73534.3)" text-rendering="optimizeSpeed" fill="#000000">202212 (67251052)</text>
  <rect fill="blue" height="70547.5" stroke="black" width="12" x="2550" y="2981.8"/>
  <text x="2550" y="73534.3" font-family="Tahoma" font-size="12" transform="rotate(90 2550,73534.3)" text-rendering="optimizeSpeed" fill="#000000">202301 (70547483)</text>
  <rect fill="blue" height="69474.0" stroke="black" width="12" x="2565" y="4055.3"/>
  <text x="2565" y="73534.3" font-family="Tahoma" font-size="12" transform="rotate(90 2565,73534.3)" text-rendering="optimizeSpeed" fill="#000000">202302 (69473977)</text>
  <rect fill="blue" height="73479.3" stroke="black" width="12" x="2580" y="50.0"/>
  <text x="2580" y="73534.3" font-family="Tahoma" font-size="12" transform="rotate(90 2580,73534.3)" text-rendering="optimizeSpeed" fill="#000000">202303 (73479308)</text>
  <text x="10" y="40" font-family="Tahoma" font-size="20" text-rendering="optimizeSpeed" fill="#000000">Total jobs</text>
</svg>
