<svg xmlns="http://www.w3.org/2000/svg" version="1.1" preserveAspectRatio="xMidYMid meet" viewBox="0 0 2405 57785.0">
  <rect fill="blue" height="16.3" stroke="black" width="12" x="15" y="57468.7"/>
  <text x="15" y="57490.0" font-family="Tahoma" font-size="12" transform="rotate(90 15,57490.0)" text-rendering="optimizeSpeed" fill="#000000">200812 (16323)</text>
  <rect fill="blue" height="57.0" stroke="black" width="12" x="30" y="57428.0"/>
  <text x="30" y="57490.0" font-family="Tahoma" font-size="12" transform="rotate(90 30,57490.0)" text-rendering="optimizeSpeed" fill="#000000">200901 (57010)</text>
  <rect fill="blue" height="77.6" stroke="black" width="12" x="45" y="57407.4"/>
  <text x="45" y="57490.0" font-family="Tahoma" font-size="12" transform="rotate(90 45,57490.0)" text-rendering="optimizeSpeed" fill="#000000">200902 (77587)</text>
  <rect fill="blue" height="104.4" stroke="black" width="12" x="60" y="57380.7"/>
  <text x="60" y="57490.0" font-family="Tahoma" font-size="12" transform="rotate(90 60,57490.0)" text-rendering="optimizeSpeed" fill="#000000">200903 (104364)</text>
  <rect fill="blue" height="119.0" stroke="black" width="12" x="75" y="57366.0"/>
  <text x="75" y="57490.0" font-family="Tahoma" font-size="12" transform="rotate(90 75,57490.0)" text-rendering="optimizeSpeed" fill="#000000">200904 (119034)</text>
  <rect fill="blue" height="133.1" stroke="black" width="12" x="90" y="57351.9"/>
  <text x="90" y="57490.0" font-family="Tahoma" font-size="12" transform="rotate(90 90,57490.0)" text-rendering="optimizeSpeed" fill="#000000">200905 (133090)</text>
  <rect fill="blue" height="154.3" stroke="black" width="12" x="105" y="57330.7"/>
  <text x="105" y="57490.0" font-family="Tahoma" font-size="12" transform="rotate(90 105,57490.0)" text-rendering="optimizeSpeed" fill="#000000">200906 (154319)</text>
  <rect fill="blue" height="173.4" stroke="black" width="12" x="120" y="57311.6"/>
  <text x="120" y="57490.0" font-family="Tahoma" font-size="12" transform="rotate(90 120,57490.0)" text-rendering="optimizeSpeed" fill="#000000">200907 (173410)</text>
  <rect fill="blue" height="183.4" stroke="black" width="12" x="135" y="57301.6"/>
  <text x="135" y="57490.0" font-family="Tahoma" font-size="12" transform="rotate(90 135,57490.0)" text-rendering="optimizeSpeed" fill="#000000">200908 (183425)</text>
  <rect fill="blue" height="201.9" stroke="black" width="12" x="150" y="57283.1"/>
  <text x="150" y="57490.0" font-family="Tahoma" font-size="12" transform="rotate(90 150,57490.0)" text-rendering="optimizeSpeed" fill="#000000">200909 (201948)</text>
  <rect fill="blue" height="222.7" stroke="black" width="12" x="165" y="57262.4"/>
  <text x="165" y="57490.0" font-family="Tahoma" font-size="12" transform="rotate(90 165,57490.0)" text-rendering="optimizeSpeed" fill="#000000">200910 (222659)</text>
  <rect fill="blue" height="254.0" stroke="black" width="12" x="180" y="57231.0"/>
  <text x="180" y="57490.0" font-family="Tahoma" font-size="12" transform="rotate(90 180,57490.0)" text-rendering="optimizeSpeed" fill="#000000">200911 (254005)</text>
  <rect fill="blue" height="273.9" stroke="black" width="12" x="195" y="57211.2"/>
  <text x="195" y="57490.0" font-family="Tahoma" font-size="12" transform="rotate(90 195,57490.0)" text-rendering="optimizeSpeed" fill="#000000">200912 (273876)</text>
  <rect fill="blue" height="287.3" stroke="black" width="12" x="210" y="57197.7"/>
  <text x="210" y="57490.0" font-family="Tahoma" font-size="12" transform="rotate(90 210,57490.0)" text-rendering="optimizeSpeed" fill="#000000">201001 (287288)</text>
  <rect fill="blue" height="309.5" stroke="black" width="12" x="225" y="57175.5"/>
  <text x="225" y="57490.0" font-family="Tahoma" font-size="12" transform="rotate(90 225,57490.0)" text-rendering="optimizeSpeed" fill="#000000">201002 (309523)</text>
  <rect fill="blue" height="347.2" stroke="black" width="12" x="240" y="57137.8"/>
  <text x="240" y="57490.0" font-family="Tahoma" font-size="12" transform="rotate(90 240,57490.0)" text-rendering="optimizeSpeed" fill="#000000">201003 (347236)</text>
  <rect fill="blue" height="362.7" stroke="black" width="12" x="255" y="57122.4"/>
  <text x="255" y="57490.0" font-family="Tahoma" font-size="12" transform="rotate(90 255,57490.0)" text-rendering="optimizeSpeed" fill="#000000">201004 (362659)</text>
  <rect fill="blue" height="392.0" stroke="black" width="12" x="270" y="57093.0"/>
  <text x="270" y="57490.0" font-family="Tahoma" font-size="12" transform="rotate(90 270,57490.0)" text-rendering="optimizeSpeed" fill="#000000">201005 (392035)</text>
  <rect fill="blue" height="415.2" stroke="black" width="12" x="285" y="57069.9"/>
  <text x="285" y="57490.0" font-family="Tahoma" font-size="12" transform="rotate(90 285,57490.0)" text-rendering="optimizeSpeed" fill="#000000">201006 (415165)</text>
  <rect fill="blue" height="434.3" stroke="black" width="12" x="300" y="57050.8"/>
  <text x="300" y="57490.0" font-family="Tahoma" font-size="12" transform="rotate(90 300,57490.0)" text-rendering="optimizeSpeed" fill="#000000">201007 (434258)</text>
  <rect fill="blue" height="125.5" stroke="black" width="12" x="315" y="57359.6"/>
  <text x="315" y="57490.0" font-family="Tahoma" font-size="12" transform="rotate(90 315,57490.0)" text-rendering="optimizeSpeed" fill="#000000">201008 (125455)</text>
  <rect fill="blue" height="198.2" stroke="black" width="12" x="330" y="57286.8"/>
  <text x="330" y="57490.0" font-family="Tahoma" font-size="12" transform="rotate(90 330,57490.0)" text-rendering="optimizeSpeed" fill="#000000">201009 (198206)</text>
  <rect fill="blue" height="261.4" stroke="black" width="12" x="345" y="57223.7"/>
  <text x="345" y="57490.0" font-family="Tahoma" font-size="12" transform="rotate(90 345,57490.0)" text-rendering="optimizeSpeed" fill="#000000">201010 (261352)</text>
  <rect fill="blue" height="328.3" stroke="black" width="12" x="360" y="57156.7"/>
  <text x="360" y="57490.0" font-family="Tahoma" font-size="12" transform="rotate(90 360,57490.0)" text-rendering="optimizeSpeed" fill="#000000">201011 (328313)</text>
  <rect fill="blue" height="369.8" stroke="black" width="12" x="375" y="57115.2"/>
  <text x="375" y="57490.0" font-family="Tahoma" font-size="12" transform="rotate(90 375,57490.0)" text-rendering="optimizeSpeed" fill="#000000">201012 (369792)</text>
  <rect fill="blue" height="414.1" stroke="black" width="12" x="390" y="57070.9"/>
  <text x="390" y="57490.0" font-family="Tahoma" font-size="12" transform="rotate(90 390,57490.0)" text-rendering="optimizeSpeed" fill="#000000">201101 (414094)</text>
  <rect fill="blue" height="455.0" stroke="black" width="12" x="405" y="57030.1"/>
  <text x="405" y="57490.0" font-family="Tahoma" font-size="12" transform="rotate(90 405,57490.0)" text-rendering="optimizeSpeed" fill="#000000">201102 (454981)</text>
  <rect fill="blue" height="502.9" stroke="black" width="12" x="420" y="56982.2"/>
  <text x="420" y="57490.0" font-family="Tahoma" font-size="12" transform="rotate(90 420,57490.0)" text-rendering="optimizeSpeed" fill="#000000">201103 (502863)</text>
  <rect fill="blue" height="526.1" stroke="black" width="12" x="435" y="56958.9"/>
  <text x="435" y="57490.0" font-family="Tahoma" font-size="12" transform="rotate(90 435,57490.0)" text-rendering="optimizeSpeed" fill="#000000">201104 (526103)</text>
  <rect fill="blue" height="592.4" stroke="black" width="12" x="450" y="56892.6"/>
  <text x="450" y="57490.0" font-family="Tahoma" font-size="12" transform="rotate(90 450,57490.0)" text-rendering="optimizeSpeed" fill="#000000">201105 (592392)</text>
  <rect fill="blue" height="628.3" stroke="black" width="12" x="465" y="56856.8"/>
  <text x="465" y="57490.0" font-family="Tahoma" font-size="12" transform="rotate(90 465,57490.0)" text-rendering="optimizeSpeed" fill="#000000">201106 (628286)</text>
  <rect fill="blue" height="638.8" stroke="black" width="12" x="480" y="56846.2"/>
  <text x="480" y="57490.0" font-family="Tahoma" font-size="12" transform="rotate(90 480,57490.0)" text-rendering="optimizeSpeed" fill="#000000">201107 (638802)</text>
  <rect fill="blue" height="670.1" stroke="black" width="12" x="495" y="56814.9"/>
  <text x="495" y="57490.0" font-family="Tahoma" font-size="12" transform="rotate(90 495,57490.0)" text-rendering="optimizeSpeed" fill="#000000">201108 (670134)</text>
  <rect fill="blue" height="733.8" stroke="black" width="12" x="510" y="56751.2"/>
  <text x="510" y="57490.0" font-family="Tahoma" font-size="12" transform="rotate(90 510,57490.0)" text-rendering="optimizeSpeed" fill="#000000">201109 (733795)</text>
  <rect fill="blue" height="770.6" stroke="black" width="12" x="525" y="56714.4"/>
  <text x="525" y="57490.0" font-family="Tahoma" font-size="12" transform="rotate(90 525,57490.0)" text-rendering="optimizeSpeed" fill="#000000">201110 (770602)</text>
  <rect fill="blue" height="820.4" stroke="black" width="12" x="540" y="56664.6"/>
  <text x="540" y="57490.0" font-family="Tahoma" font-size="12" transform="rotate(90 540,57490.0)" text-rendering="optimizeSpeed" fill="#000000">201111 (820391)</text>
  <rect fill="blue" height="845.3" stroke="black" width="12" x="555" y="56639.8"/>
  <text x="555" y="57490.0" font-family="Tahoma" font-size="12" transform="rotate(90 555,57490.0)" text-rendering="optimizeSpeed" fill="#000000">201112 (845287)</text>
  <rect fill="blue" height="901.0" stroke="black" width="12" x="570" y="56584.0"/>
  <text x="570" y="57490.0" font-family="Tahoma" font-size="12" transform="rotate(90 570,57490.0)" text-rendering="optimizeSpeed" fill="#000000">201201 (900989)</text>
  <rect fill="blue" height="994.2" stroke="black" width="12" x="585" y="56490.8"/>
  <text x="585" y="57490.0" font-family="Tahoma" font-size="12" transform="rotate(90 585,57490.0)" text-rendering="optimizeSpeed" fill="#000000">201202 (994228)</text>
  <rect fill="blue" height="1062.8" stroke="black" width="12" x="600" y="56422.2"/>
  <text x="600" y="57490.0" font-family="Tahoma" font-size="12" transform="rotate(90 600,57490.0)" text-rendering="optimizeSpeed" fill="#000000">201203 (1062847)</text>
  <rect fill="blue" height="1095.6" stroke="black" width="12" x="615" y="56389.4"/>
  <text x="615" y="57490.0" font-family="Tahoma" font-size="12" transform="rotate(90 615,57490.0)" text-rendering="optimizeSpeed" fill="#000000">201204 (1095646)</text>
  <rect fill="blue" height="1178.8" stroke="black" width="12" x="630" y="56306.2"/>
  <text x="630" y="57490.0" font-family="Tahoma" font-size="12" transform="rotate(90 630,57490.0)" text-rendering="optimizeSpeed" fill="#000000">201205 (1178808)</text>
  <rect fill="blue" height="1246.8" stroke="black" width="12" x="645" y="56238.2"/>
  <text x="645" y="57490.0" font-family="Tahoma" font-size="12" transform="rotate(90 645,57490.0)" text-rendering="optimizeSpeed" fill="#000000">201206 (1246787)</text>
  <rect fill="blue" height="1314.2" stroke="black" width="12" x="660" y="56170.9"/>
  <text x="660" y="57490.0" font-family="Tahoma" font-size="12" transform="rotate(90 660,57490.0)" text-rendering="optimizeSpeed" fill="#000000">201207 (1314159)</text>
  <rect fill="blue" height="1413.7" stroke="black" width="12" x="675" y="56071.4"/>
  <text x="675" y="57490.0" font-family="Tahoma" font-size="12" transform="rotate(90 675,57490.0)" text-rendering="optimizeSpeed" fill="#000000">201208 (1413662)</text>
  <rect fill="blue" height="1463.8" stroke="black" width="12" x="690" y="56021.2"/>
  <text x="690" y="57490.0" font-family="Tahoma" font-size="12" transform="rotate(90 690,57490.0)" text-rendering="optimizeSpeed" fill="#000000">201209 (1463831)</text>
  <rect fill="blue" height="1624.2" stroke="black" width="12" x="705" y="55860.8"/>
  <text x="705" y="57490.0" font-family="Tahoma" font-size="12" transform="rotate(90 705,57490.0)" text-rendering="optimizeSpeed" fill="#000000">201210 (1624234)</text>
  <rect fill="blue" height="1653.1" stroke="black" width="12" x="720" y="55832.0"/>
  <text x="720" y="57490.0" font-family="Tahoma" font-size="12" transform="rotate(90 720,57490.0)" text-rendering="optimizeSpeed" fill="#000000">201211 (1653083)</text>
  <rect fill="blue" height="1691.9" stroke="black" width="12" x="735" y="55793.2"/>
  <text x="735" y="57490.0" font-family="Tahoma" font-size="12" transform="rotate(90 735,57490.0)" text-rendering="optimizeSpeed" fill="#000000">201212 (1691853)</text>
  <rect fill="blue" height="1778.7" stroke="black" width="12" x="750" y="55706.4"/>
  <text x="750" y="57490.0" font-family="Tahoma" font-size="12" transform="rotate(90 750,57490.0)" text-rendering="optimizeSpeed" fill="#000000">201301 (1778659)</text>
  <rect fill="blue" height="1860.1" stroke="black" width="12" x="765" y="55624.9"/>
  <text x="765" y="57490.0" font-family="Tahoma" font-size="12" transform="rotate(90 765,57490.0)" text-rendering="optimizeSpeed" fill="#000000">201302 (1860091)</text>
  <rect fill="blue" height="1978.4" stroke="black" width="12" x="780" y="55506.6"/>
  <text x="780" y="57490.0" font-family="Tahoma" font-size="12" transform="rotate(90 780,57490.0)" text-rendering="optimizeSpeed" fill="#000000">201303 (1978443)</text>
  <rect fill="blue" height="2090.8" stroke="black" width="12" x="795" y="55394.2"/>
  <text x="795" y="57490.0" font-family="Tahoma" font-size="12" transform="rotate(90 795,57490.0)" text-rendering="optimizeSpeed" fill="#000000">201304 (2090830)</text>
  <rect fill="blue" height="2199.9" stroke="black" width="12" x="810" y="55285.1"/>
  <text x="810" y="57490.0" font-family="Tahoma" font-size="12" transform="rotate(90 810,57490.0)" text-rendering="optimizeSpeed" fill="#000000">201305 (2199940)</text>
  <rect fill="blue" height="2285.3" stroke="black" width="12" x="825" y="55199.8"/>
  <text x="825" y="57490.0" font-family="Tahoma" font-size="12" transform="rotate(90 825,57490.0)" text-rendering="optimizeSpeed" fill="#000000">201306 (2285256)</text>
  <rect fill="blue" height="2413.2" stroke="black" width="12" x="840" y="55071.8"/>
  <text x="840" y="57490.0" font-family="Tahoma" font-size="12" transform="rotate(90 840,57490.0)" text-rendering="optimizeSpeed" fill="#000000">201307 (2413217)</text>
  <rect fill="blue" height="2497.7" stroke="black" width="12" x="855" y="54987.4"/>
  <text x="855" y="57490.0" font-family="Tahoma" font-size="12" transform="rotate(90 855,57490.0)" text-rendering="optimizeSpeed" fill="#000000">201308 (2497655)</text>
  <rect fill="blue" height="2494.6" stroke="black" width="12" x="870" y="54990.4"/>
  <text x="870" y="57490.0" font-family="Tahoma" font-size="12" transform="rotate(90 870,57490.0)" text-rendering="optimizeSpeed" fill="#000000">201309 (2494637)</text>
  <rect fill="blue" height="2668.6" stroke="black" width="12" x="885" y="54816.4"/>
  <text x="885" y="57490.0" font-family="Tahoma" font-size="12" transform="rotate(90 885,57490.0)" text-rendering="optimizeSpeed" fill="#000000">201310 (2668613)</text>
  <rect fill="blue" height="2772.2" stroke="black" width="12" x="900" y="54712.8"/>
  <text x="900" y="57490.0" font-family="Tahoma" font-size="12" transform="rotate(90 900,57490.0)" text-rendering="optimizeSpeed" fill="#000000">201311 (2772223)</text>
  <rect fill="blue" height="2817.0" stroke="black" width="12" x="915" y="54668.0"/>
  <text x="915" y="57490.0" font-family="Tahoma" font-size="12" transform="rotate(90 915,57490.0)" text-rendering="optimizeSpeed" fill="#000000">201312 (2816994)</text>
  <rect fill="blue" height="3019.9" stroke="black" width="12" x="930" y="54465.1"/>
  <text x="930" y="57490.0" font-family="Tahoma" font-size="12" transform="rotate(90 930,57490.0)" text-rendering="optimizeSpeed" fill="#000000">201401 (3019905)</text>
  <rect fill="blue" height="3108.5" stroke="black" width="12" x="945" y="54376.5"/>
  <text x="945" y="57490.0" font-family="Tahoma" font-size="12" transform="rotate(90 945,57490.0)" text-rendering="optimizeSpeed" fill="#000000">201402 (3108511)</text>
  <rect fill="blue" height="3330.2" stroke="black" width="12" x="960" y="54154.8"/>
  <text x="960" y="57490.0" font-family="Tahoma" font-size="12" transform="rotate(90 960,57490.0)" text-rendering="optimizeSpeed" fill="#000000">201403 (3330226)</text>
  <rect fill="blue" height="3462.6" stroke="black" width="12" x="975" y="54022.5"/>
  <text x="975" y="57490.0" font-family="Tahoma" font-size="12" transform="rotate(90 975,57490.0)" text-rendering="optimizeSpeed" fill="#000000">201404 (3462555)</text>
  <rect fill="blue" height="3634.4" stroke="black" width="12" x="990" y="53850.7"/>
  <text x="990" y="57490.0" font-family="Tahoma" font-size="12" transform="rotate(90 990,57490.0)" text-rendering="optimizeSpeed" fill="#000000">201405 (3634370)</text>
  <rect fill="blue" height="3751.3" stroke="black" width="12" x="1005" y="53733.8"/>
  <text x="1005" y="57490.0" font-family="Tahoma" font-size="12" transform="rotate(90 1005,57490.0)" text-rendering="optimizeSpeed" fill="#000000">201406 (3751256)</text>
  <rect fill="blue" height="3917.5" stroke="black" width="12" x="1020" y="53567.5"/>
  <text x="1020" y="57490.0" font-family="Tahoma" font-size="12" transform="rotate(90 1020,57490.0)" text-rendering="optimizeSpeed" fill="#000000">201407 (3917505)</text>
  <rect fill="blue" height="4114.6" stroke="black" width="12" x="1035" y="53370.4"/>
  <text x="1035" y="57490.0" font-family="Tahoma" font-size="12" transform="rotate(90 1035,57490.0)" text-rendering="optimizeSpeed" fill="#000000">201408 (4114596)</text>
  <rect fill="blue" height="4348.5" stroke="black" width="12" x="1050" y="53136.6"/>
  <text x="1050" y="57490.0" font-family="Tahoma" font-size="12" transform="rotate(90 1050,57490.0)" text-rendering="optimizeSpeed" fill="#000000">201409 (4348469)</text>
  <rect fill="blue" height="4587.1" stroke="black" width="12" x="1065" y="52897.9"/>
  <text x="1065" y="57490.0" font-family="Tahoma" font-size="12" transform="rotate(90 1065,57490.0)" text-rendering="optimizeSpeed" fill="#000000">201410 (4587115)</text>
  <rect fill="blue" height="4625.0" stroke="black" width="12" x="1080" y="52860.1"/>
  <text x="1080" y="57490.0" font-family="Tahoma" font-size="12" transform="rotate(90 1080,57490.0)" text-rendering="optimizeSpeed" fill="#000000">201411 (4624966)</text>
  <rect fill="blue" height="4797.9" stroke="black" width="12" x="1095" y="52687.1"/>
  <text x="1095" y="57490.0" font-family="Tahoma" font-size="12" transform="rotate(90 1095,57490.0)" text-rendering="optimizeSpeed" fill="#000000">201412 (4797912)</text>
  <rect fill="blue" height="5046.2" stroke="black" width="12" x="1110" y="52438.8"/>
  <text x="1110" y="57490.0" font-family="Tahoma" font-size="12" transform="rotate(90 1110,57490.0)" text-rendering="optimizeSpeed" fill="#000000">201501 (5046186)</text>
  <rect fill="blue" height="5208.8" stroke="black" width="12" x="1125" y="52276.2"/>
  <text x="1125" y="57490.0" font-family="Tahoma" font-size="12" transform="rotate(90 1125,57490.0)" text-rendering="optimizeSpeed" fill="#000000">201502 (5208788)</text>
  <rect fill="blue" height="5519.8" stroke="black" width="12" x="1140" y="51965.2"/>
  <text x="1140" y="57490.0" font-family="Tahoma" font-size="12" transform="rotate(90 1140,57490.0)" text-rendering="optimizeSpeed" fill="#000000">201503 (5519802)</text>
  <rect fill="blue" height="5763.1" stroke="black" width="12" x="1155" y="51722.0"/>
  <text x="1155" y="57490.0" font-family="Tahoma" font-size="12" transform="rotate(90 1155,57490.0)" text-rendering="optimizeSpeed" fill="#000000">201504 (5763070)</text>
  <rect fill="blue" height="5978.0" stroke="black" width="12" x="1170" y="51507.0"/>
  <text x="1170" y="57490.0" font-family="Tahoma" font-size="12" transform="rotate(90 1170,57490.0)" text-rendering="optimizeSpeed" fill="#000000">201505 (5977998)</text>
  <rect fill="blue" height="6287.0" stroke="black" width="12" x="1185" y="51198.0"/>
  <text x="1185" y="57490.0" font-family="Tahoma" font-size="12" transform="rotate(90 1185,57490.0)" text-rendering="optimizeSpeed" fill="#000000">201506 (6287048)</text>
  <rect fill="blue" height="6531.9" stroke="black" width="12" x="1200" y="50953.2"/>
  <text x="1200" y="57490.0" font-family="Tahoma" font-size="12" transform="rotate(90 1200,57490.0)" text-rendering="optimizeSpeed" fill="#000000">201507 (6531851)</text>
  <rect fill="blue" height="6526.5" stroke="black" width="12" x="1215" y="50958.6"/>
  <text x="1215" y="57490.0" font-family="Tahoma" font-size="12" transform="rotate(90 1215,57490.0)" text-rendering="optimizeSpeed" fill="#000000">201508 (6526480)</text>
  <rect fill="blue" height="6813.1" stroke="black" width="12" x="1230" y="50671.9"/>
  <text x="1230" y="57490.0" font-family="Tahoma" font-size="12" transform="rotate(90 1230,57490.0)" text-rendering="optimizeSpeed" fill="#000000">201509 (6813144)</text>
  <rect fill="blue" height="7337.8" stroke="black" width="12" x="1245" y="50147.2"/>
  <text x="1245" y="57490.0" font-family="Tahoma" font-size="12" transform="rotate(90 1245,57490.0)" text-rendering="optimizeSpeed" fill="#000000">201510 (7337796)</text>
  <rect fill="blue" height="7499.6" stroke="black" width="12" x="1260" y="49985.4"/>
  <text x="1260" y="57490.0" font-family="Tahoma" font-size="12" transform="rotate(90 1260,57490.0)" text-rendering="optimizeSpeed" fill="#000000">201511 (7499608)</text>
  <rect fill="blue" height="7732.7" stroke="black" width="12" x="1275" y="49752.3"/>
  <text x="1275" y="57490.0" font-family="Tahoma" font-size="12" transform="rotate(90 1275,57490.0)" text-rendering="optimizeSpeed" fill="#000000">201512 (7732707)</text>
  <rect fill="blue" height="8139.5" stroke="black" width="12" x="1290" y="49345.5"/>
  <text x="1290" y="57490.0" font-family="Tahoma" font-size="12" transform="rotate(90 1290,57490.0)" text-rendering="optimizeSpeed" fill="#000000">201601 (8139540)</text>
  <rect fill="blue" height="7646.4" stroke="black" width="12" x="1305" y="49838.7"/>
  <text x="1305" y="57490.0" font-family="Tahoma" font-size="12" transform="rotate(90 1305,57490.0)" text-rendering="optimizeSpeed" fill="#000000">201602 (7646383)</text>
  <rect fill="blue" height="7677.2" stroke="black" width="12" x="1320" y="49807.8"/>
  <text x="1320" y="57490.0" font-family="Tahoma" font-size="12" transform="rotate(90 1320,57490.0)" text-rendering="optimizeSpeed" fill="#000000">201603 (7677213)</text>
  <rect fill="blue" height="7917.8" stroke="black" width="12" x="1335" y="49567.2"/>
  <text x="1335" y="57490.0" font-family="Tahoma" font-size="12" transform="rotate(90 1335,57490.0)" text-rendering="optimizeSpeed" fill="#000000">201604 (7917818)</text>
  <rect fill="blue" height="8194.6" stroke="black" width="12" x="1350" y="49290.5"/>
  <text x="1350" y="57490.0" font-family="Tahoma" font-size="12" transform="rotate(90 1350,57490.0)" text-rendering="optimizeSpeed" fill="#000000">201605 (8194567)</text>
  <rect fill="blue" height="8533.6" stroke="black" width="12" x="1365" y="48951.4"/>
  <text x="1365" y="57490.0" font-family="Tahoma" font-size="12" transform="rotate(90 1365,57490.0)" text-rendering="optimizeSpeed" fill="#000000">201606 (8533634)</text>
  <rect fill="blue" height="8719.6" stroke="black" width="12" x="1380" y="48765.4"/>
  <text x="1380" y="57490.0" font-family="Tahoma" font-size="12" transform="rotate(90 1380,57490.0)" text-rendering="optimizeSpeed" fill="#000000">201607 (8719592)</text>
  <rect fill="blue" height="9087.9" stroke="black" width="12" x="1395" y="48397.1"/>
  <text x="1395" y="57490.0" font-family="Tahoma" font-size="12" transform="rotate(90 1395,57490.0)" text-rendering="optimizeSpeed" fill="#000000">201608 (9087941)</text>
  <rect fill="blue" height="9464.1" stroke="black" width="12" x="1410" y="48020.9"/>
  <text x="1410" y="57490.0" font-family="Tahoma" font-size="12" transform="rotate(90 1410,57490.0)" text-rendering="optimizeSpeed" fill="#000000">201609 (9464135)</text>
  <rect fill="blue" height="9654.6" stroke="black" width="12" x="1425" y="47830.4"/>
  <text x="1425" y="57490.0" font-family="Tahoma" font-size="12" transform="rotate(90 1425,57490.0)" text-rendering="optimizeSpeed" fill="#000000">201610 (9654585)</text>
  <rect fill="blue" height="10021.7" stroke="black" width="12" x="1440" y="47463.3"/>
  <text x="1440" y="57490.0" font-family="Tahoma" font-size="12" transform="rotate(90 1440,57490.0)" text-rendering="optimizeSpeed" fill="#000000">201611 (10021717)</text>
  <rect fill="blue" height="10084.9" stroke="black" width="12" x="1455" y="47400.1"/>
  <text x="1455" y="57490.0" font-family="Tahoma" font-size="12" transform="rotate(90 1455,57490.0)" text-rendering="optimizeSpeed" fill="#000000">201612 (10084926)</text>
  <rect fill="blue" height="10444.5" stroke="black" width="12" x="1470" y="47040.6"/>
  <text x="1470" y="57490.0" font-family="Tahoma" font-size="12" transform="rotate(90 1470,57490.0)" text-rendering="optimizeSpeed" fill="#000000">201701 (10444450)</text>
  <rect fill="blue" height="11041.6" stroke="black" width="12" x="1485" y="46443.4"/>
  <text x="1485" y="57490.0" font-family="Tahoma" font-size="12" transform="rotate(90 1485,57490.0)" text-rendering="optimizeSpeed" fill="#000000">201702 (11041600)</text>
  <rect fill="blue" height="11480.4" stroke="black" width="12" x="1500" y="46004.6"/>
  <text x="1500" y="57490.0" font-family="Tahoma" font-size="12" transform="rotate(90 1500,57490.0)" text-rendering="optimizeSpeed" fill="#000000">201703 (11480409)</text>
  <rect fill="blue" height="11784.9" stroke="black" width="12" x="1515" y="45700.1"/>
  <text x="1515" y="57490.0" font-family="Tahoma" font-size="12" transform="rotate(90 1515,57490.0)" text-rendering="optimizeSpeed" fill="#000000">201704 (11784888)</text>
  <rect fill="blue" height="12304.5" stroke="black" width="12" x="1530" y="45180.6"/>
  <text x="1530" y="57490.0" font-family="Tahoma" font-size="12" transform="rotate(90 1530,57490.0)" text-rendering="optimizeSpeed" fill="#000000">201705 (12304479)</text>
  <rect fill="blue" height="12896.0" stroke="black" width="12" x="1545" y="44589.0"/>
  <text x="1545" y="57490.0" font-family="Tahoma" font-size="12" transform="rotate(90 1545,57490.0)" text-rendering="optimizeSpeed" fill="#000000">201706 (12896045)</text>
  <rect fill="blue" height="12881.9" stroke="black" width="12" x="1560" y="44603.1"/>
  <text x="1560" y="57490.0" font-family="Tahoma" font-size="12" transform="rotate(90 1560,57490.0)" text-rendering="optimizeSpeed" fill="#000000">201707 (12881933)</text>
  <rect fill="blue" height="13648.8" stroke="black" width="12" x="1575" y="43836.2"/>
  <text x="1575" y="57490.0" font-family="Tahoma" font-size="12" transform="rotate(90 1575,57490.0)" text-rendering="optimizeSpeed" fill="#000000">201708 (13648813)</text>
  <rect fill="blue" height="14694.8" stroke="black" width="12" x="1590" y="42790.2"/>
  <text x="1590" y="57490.0" font-family="Tahoma" font-size="12" transform="rotate(90 1590,57490.0)" text-rendering="optimizeSpeed" fill="#000000">201709 (14694789)</text>
  <rect fill="blue" height="15036.3" stroke="black" width="12" x="1605" y="42448.7"/>
  <text x="1605" y="57490.0" font-family="Tahoma" font-size="12" transform="rotate(90 1605,57490.0)" text-rendering="optimizeSpeed" fill="#000000">201710 (15036345)</text>
  <rect fill="blue" height="15853.2" stroke="black" width="12" x="1620" y="41631.9"/>
  <text x="1620" y="57490.0" font-family="Tahoma" font-size="12" transform="rotate(90 1620,57490.0)" text-rendering="optimizeSpeed" fill="#000000">201711 (15853161)</text>
  <rect fill="blue" height="16214.0" stroke="black" width="12" x="1635" y="41271.0"/>
  <text x="1635" y="57490.0" font-family="Tahoma" font-size="12" transform="rotate(90 1635,57490.0)" text-rendering="optimizeSpeed" fill="#000000">201712 (16214025)</text>
  <rect fill="blue" height="17266.3" stroke="black" width="12" x="1650" y="40218.8"/>
  <text x="1650" y="57490.0" font-family="Tahoma" font-size="12" transform="rotate(90 1650,57490.0)" text-rendering="optimizeSpeed" fill="#000000">201801 (17266263)</text>
  <rect fill="blue" height="17289.1" stroke="black" width="12" x="1665" y="40196.0"/>
  <text x="1665" y="57490.0" font-family="Tahoma" font-size="12" transform="rotate(90 1665,57490.0)" text-rendering="optimizeSpeed" fill="#000000">201802 (17289053)</text>
  <rect fill="blue" height="17693.5" stroke="black" width="12" x="1680" y="39791.5"/>
  <text x="1680" y="57490.0" font-family="Tahoma" font-size="12" transform="rotate(90 1680,57490.0)" text-rendering="optimizeSpeed" fill="#000000">201803 (17693514)</text>
  <rect fill="blue" height="18132.3" stroke="black" width="12" x="1695" y="39352.8"/>
  <text x="1695" y="57490.0" font-family="Tahoma" font-size="12" transform="rotate(90 1695,57490.0)" text-rendering="optimizeSpeed" fill="#000000">201804 (18132270)</text>
  <rect fill="blue" height="18792.6" stroke="black" width="12" x="1710" y="38692.4"/>
  <text x="1710" y="57490.0" font-family="Tahoma" font-size="12" transform="rotate(90 1710,57490.0)" text-rendering="optimizeSpeed" fill="#000000">201805 (18792627)</text>
  <rect fill="blue" height="19124.9" stroke="black" width="12" x="1725" y="38360.1"/>
  <text x="1725" y="57490.0" font-family="Tahoma" font-size="12" transform="rotate(90 1725,57490.0)" text-rendering="optimizeSpeed" fill="#000000">201806 (19124899)</text>
  <rect fill="blue" height="19022.4" stroke="black" width="12" x="1740" y="38462.6"/>
  <text x="1740" y="57490.0" font-family="Tahoma" font-size="12" transform="rotate(90 1740,57490.0)" text-rendering="optimizeSpeed" fill="#000000">201807 (19022436)</text>
  <rect fill="blue" height="19946.2" stroke="black" width="12" x="1755" y="37538.9"/>
  <text x="1755" y="57490.0" font-family="Tahoma" font-size="12" transform="rotate(90 1755,57490.0)" text-rendering="optimizeSpeed" fill="#000000">201808 (19946177)</text>
  <rect fill="blue" height="20664.2" stroke="black" width="12" x="1770" y="36820.8"/>
  <text x="1770" y="57490.0" font-family="Tahoma" font-size="12" transform="rotate(90 1770,57490.0)" text-rendering="optimizeSpeed" fill="#000000">201809 (20664191)</text>
  <rect fill="blue" height="21506.3" stroke="black" width="12" x="1785" y="35978.8"/>
  <text x="1785" y="57490.0" font-family="Tahoma" font-size="12" transform="rotate(90 1785,57490.0)" text-rendering="optimizeSpeed" fill="#000000">201810 (21506258)</text>
  <rect fill="blue" height="22329.2" stroke="black" width="12" x="1800" y="35155.8"/>
  <text x="1800" y="57490.0" font-family="Tahoma" font-size="12" transform="rotate(90 1800,57490.0)" text-rendering="optimizeSpeed" fill="#000000">201811 (22329238)</text>
  <rect fill="blue" height="22527.6" stroke="black" width="12" x="1815" y="34957.4"/>
  <text x="1815" y="57490.0" font-family="Tahoma" font-size="12" transform="rotate(90 1815,57490.0)" text-rendering="optimizeSpeed" fill="#000000">201812 (22527640)</text>
  <rect fill="blue" height="23766.5" stroke="black" width="12" x="1830" y="33718.6"/>
  <text x="1830" y="57490.0" font-family="Tahoma" font-size="12" transform="rotate(90 1830,57490.0)" text-rendering="optimizeSpeed" fill="#000000">201901 (23766468)</text>
  <rect fill="blue" height="23871.5" stroke="black" width="12" x="1845" y="33613.5"/>
  <text x="1845" y="57490.0" font-family="Tahoma" font-size="12" transform="rotate(90 1845,57490.0)" text-rendering="optimizeSpeed" fill="#000000">201902 (23871537)</text>
  <rect fill="blue" height="26362.2" stroke="black" width="12" x="1860" y="31122.9"/>
  <text x="1860" y="57490.0" font-family="Tahoma" font-size="12" transform="rotate(90 1860,57490.0)" text-rendering="optimizeSpeed" fill="#000000">201903 (26362178)</text>
  <rect fill="blue" height="26461.8" stroke="black" width="12" x="1875" y="31023.3"/>
  <text x="1875" y="57490.0" font-family="Tahoma" font-size="12" transform="rotate(90 1875,57490.0)" text-rendering="optimizeSpeed" fill="#000000">201904 (26461755)</text>
  <rect fill="blue" height="28314.1" stroke="black" width="12" x="1890" y="29171.0"/>
  <text x="1890" y="57490.0" font-family="Tahoma" font-size="12" transform="rotate(90 1890,57490.0)" text-rendering="optimizeSpeed" fill="#000000">201905 (28314079)</text>
  <rect fill="blue" height="29047.2" stroke="black" width="12" x="1905" y="28437.8"/>
  <text x="1905" y="57490.0" font-family="Tahoma" font-size="12" transform="rotate(90 1905,57490.0)" text-rendering="optimizeSpeed" fill="#000000">201906 (29047213)</text>
  <rect fill="blue" height="30282.2" stroke="black" width="12" x="1920" y="27202.9"/>
  <text x="1920" y="57490.0" font-family="Tahoma" font-size="12" transform="rotate(90 1920,57490.0)" text-rendering="optimizeSpeed" fill="#000000">201907 (30282181)</text>
  <rect fill="blue" height="30911.0" stroke="black" width="12" x="1935" y="26574.1"/>
  <text x="1935" y="57490.0" font-family="Tahoma" font-size="12" transform="rotate(90 1935,57490.0)" text-rendering="optimizeSpeed" fill="#000000">201908 (30910963)</text>
  <rect fill="blue" height="31209.7" stroke="black" width="12" x="1950" y="26275.4"/>
  <text x="1950" y="57490.0" font-family="Tahoma" font-size="12" transform="rotate(90 1950,57490.0)" text-rendering="optimizeSpeed" fill="#000000">201909 (31209675)</text>
  <rect fill="blue" height="33047.6" stroke="black" width="12" x="1965" y="24437.4"/>
  <text x="1965" y="57490.0" font-family="Tahoma" font-size="12" transform="rotate(90 1965,57490.0)" text-rendering="optimizeSpeed" fill="#000000">201910 (33047638)</text>
  <rect fill="blue" height="33243.2" stroke="black" width="12" x="1980" y="24241.8"/>
  <text x="1980" y="57490.0" font-family="Tahoma" font-size="12" transform="rotate(90 1980,57490.0)" text-rendering="optimizeSpeed" fill="#000000">201911 (33243242)</text>
  <rect fill="blue" height="32876.2" stroke="black" width="12" x="1995" y="24608.8"/>
  <text x="1995" y="57490.0" font-family="Tahoma" font-size="12" transform="rotate(90 1995,57490.0)" text-rendering="optimizeSpeed" fill="#000000">201912 (32876209)</text>
  <rect fill="blue" height="34074.9" stroke="black" width="12" x="2010" y="23410.1"/>
  <text x="2010" y="57490.0" font-family="Tahoma" font-size="12" transform="rotate(90 2010,57490.0)" text-rendering="optimizeSpeed" fill="#000000">202001 (34074887)</text>
  <rect fill="blue" height="34198.6" stroke="black" width="12" x="2025" y="23286.4"/>
  <text x="2025" y="57490.0" font-family="Tahoma" font-size="12" transform="rotate(90 2025,57490.0)" text-rendering="optimizeSpeed" fill="#000000">202002 (34198615)</text>
  <rect fill="blue" height="35473.7" stroke="black" width="12" x="2040" y="22011.3"/>
  <text x="2040" y="57490.0" font-family="Tahoma" font-size="12" transform="rotate(90 2040,57490.0)" text-rendering="optimizeSpeed" fill="#000000">202003 (35473695)</text>
  <rect fill="blue" height="36521.7" stroke="black" width="12" x="2055" y="20963.3"/>
  <text x="2055" y="57490.0" font-family="Tahoma" font-size="12" transform="rotate(90 2055,57490.0)" text-rendering="optimizeSpeed" fill="#000000">202004 (36521716)</text>
  <rect fill="blue" height="38176.1" stroke="black" width="12" x="2070" y="19308.9"/>
  <text x="2070" y="57490.0" font-family="Tahoma" font-size="12" transform="rotate(90 2070,57490.0)" text-rendering="optimizeSpeed" fill="#000000">202005 (38176117)</text>
  <rect fill="blue" height="38958.3" stroke="black" width="12" x="2085" y="18526.8"/>
  <text x="2085" y="57490.0" font-family="Tahoma" font-size="12" transform="rotate(90 2085,57490.0)" text-rendering="optimizeSpeed" fill="#000000">202006 (38958259)</text>
  <rect fill="blue" height="39899.9" stroke="black" width="12" x="2100" y="17585.1"/>
  <text x="2100" y="57490.0" font-family="Tahoma" font-size="12" transform="rotate(90 2100,57490.0)" text-rendering="optimizeSpeed" fill="#000000">202007 (39899894)</text>
  <rect fill="blue" height="40181.1" stroke="black" width="12" x="2115" y="17303.9"/>
  <text x="2115" y="57490.0" font-family="Tahoma" font-size="12" transform="rotate(90 2115,57490.0)" text-rendering="optimizeSpeed" fill="#000000">202008 (40181129)</text>
  <rect fill="blue" height="41319.4" stroke="black" width="12" x="2130" y="16165.7"/>
  <text x="2130" y="57490.0" font-family="Tahoma" font-size="12" transform="rotate(90 2130,57490.0)" text-rendering="optimizeSpeed" fill="#000000">202009 (41319362)</text>
  <rect fill="blue" height="43225.0" stroke="black" width="12" x="2145" y="14260.0"/>
  <text x="2145" y="57490.0" font-family="Tahoma" font-size="12" transform="rotate(90 2145,57490.0)" text-rendering="optimizeSpeed" fill="#000000">202010 (43225016)</text>
  <rect fill="blue" height="43425.2" stroke="black" width="12" x="2160" y="14059.8"/>
  <text x="2160" y="57490.0" font-family="Tahoma" font-size="12" transform="rotate(90 2160,57490.0)" text-rendering="optimizeSpeed" fill="#000000">202011 (43425203)</text>
  <rect fill="blue" height="43976.2" stroke="black" width="12" x="2175" y="13508.9"/>
  <text x="2175" y="57490.0" font-family="Tahoma" font-size="12" transform="rotate(90 2175,57490.0)" text-rendering="optimizeSpeed" fill="#000000">202012 (43976167)</text>
  <rect fill="blue" height="45367.6" stroke="black" width="12" x="2190" y="12117.4"/>
  <text x="2190" y="57490.0" font-family="Tahoma" font-size="12" transform="rotate(90 2190,57490.0)" text-rendering="optimizeSpeed" fill="#000000">202101 (45367645)</text>
  <rect fill="blue" height="45989.0" stroke="black" width="12" x="2205" y="11496.1"/>
  <text x="2205" y="57490.0" font-family="Tahoma" font-size="12" transform="rotate(90 2205,57490.0)" text-rendering="optimizeSpeed" fill="#000000">202102 (45988977)</text>
  <rect fill="blue" height="48116.2" stroke="black" width="12" x="2220" y="9368.8"/>
  <text x="2220" y="57490.0" font-family="Tahoma" font-size="12" transform="rotate(90 2220,57490.0)" text-rendering="optimizeSpeed" fill="#000000">202103 (48116187)</text>
  <rect fill="blue" height="48287.1" stroke="black" width="12" x="2235" y="9197.9"/>
  <text x="2235" y="57490.0" font-family="Tahoma" font-size="12" transform="rotate(90 2235,57490.0)" text-rendering="optimizeSpeed" fill="#000000">202104 (48287114)</text>
  <rect fill="blue" height="49047.3" stroke="black" width="12" x="2250" y="8437.7"/>
  <text x="2250" y="57490.0" font-family="Tahoma" font-size="12" transform="rotate(90 2250,57490.0)" text-rendering="optimizeSpeed" fill="#000000">202105 (49047300)</text>
  <rect fill="blue" height="50785.2" stroke="black" width="12" x="2265" y="6699.8"/>
  <text x="2265" y="57490.0" font-family="Tahoma" font-size="12" transform="rotate(90 2265,57490.0)" text-rendering="optimizeSpeed" fill="#000000">202106 (50785205)</text>
  <rect fill="blue" height="52348.1" stroke="black" width="12" x="2280" y="5136.9"/>
  <text x="2280" y="57490.0" font-family="Tahoma" font-size="12" transform="rotate(90 2280,57490.0)" text-rendering="optimizeSpeed" fill="#000000">202107 (52348111)</text>
  <rect fill="blue" height="52552.7" stroke="black" width="12" x="2295" y="4932.4"/>
  <text x="2295" y="57490.0" font-family="Tahoma" font-size="12" transform="rotate(90 2295,57490.0)" text-rendering="optimizeSpeed" fill="#000000">202108 (52552661)</text>
  <rect fill="blue" height="54438.2" stroke="black" width="12" x="2310" y="3046.8"/>
  <text x="2310" y="57490.0" font-family="Tahoma" font-size="12" transform="rotate(90 2310,57490.0)" text-rendering="optimizeSpeed" fill="#000000">202109 (54438237)</text>
  <rect fill="blue" height="54512.0" stroke="black" width="12" x="2325" y="2973.0"/>
  <text x="2325" y="57490.0" font-family="Tahoma" font-size="12" transform="rotate(90 2325,57490.0)" text-rendering="optimizeSpeed" fill="#000000">202110 (54512005)</text>
  <rect fill="blue" height="55115.1" stroke="black" width="12" x="2340" y="2369.9"/>
  <text x="2340" y="57490.0" font-family="Tahoma" font-size="12" transform="rotate(90 2340,57490.0)" text-rendering="optimizeSpeed" fill="#000000">202111 (55115147)</text>
  <rect fill="blue" height="57435.0" stroke="black" width="12" x="2355" y="50.0"/>
  <text x="2355" y="57490.0" font-family="Tahoma" font-size="12" transform="rotate(90 2355,57490.0)" text-rendering="optimizeSpeed" fill="#000000">202112 (57435036)</text>
  <text x="10" y="40" font-family="Tahoma" font-size="20" text-rendering="optimizeSpeed" fill="#000000">Total jobs</text>
</svg>
