<svg xmlns="http://www.w3.org/2000/svg" version="1.1" preserveAspectRatio="xMidYMid meet" viewBox="0 0 2420 30833.4">
  <rect fill="blue" height="7.3" stroke="black" width="12" x="15" y="30526.1"/>
  <text x="15" y="30538.4" font-family="Tahoma" font-size="12" transform="rotate(90 15,30538.4)" text-rendering="optimizeSpeed" fill="#000000">200812 (7295)</text>
  <rect fill="blue" height="23.9" stroke="black" width="12" x="30" y="30509.6"/>
  <text x="30" y="30538.4" font-family="Tahoma" font-size="12" transform="rotate(90 30,30538.4)" text-rendering="optimizeSpeed" fill="#000000">200901 (23891)</text>
  <rect fill="blue" height="32.7" stroke="black" width="12" x="45" y="30500.8"/>
  <text x="45" y="30538.4" font-family="Tahoma" font-size="12" transform="rotate(90 45,30538.4)" text-rendering="optimizeSpeed" fill="#000000">200902 (32678)</text>
  <rect fill="blue" height="41.5" stroke="black" width="12" x="60" y="30492.0"/>
  <text x="60" y="30538.4" font-family="Tahoma" font-size="12" transform="rotate(90 60,30538.4)" text-rendering="optimizeSpeed" fill="#000000">200903 (41486)</text>
  <rect fill="blue" height="53.5" stroke="black" width="12" x="75" y="30480.0"/>
  <text x="75" y="30538.4" font-family="Tahoma" font-size="12" transform="rotate(90 75,30538.4)" text-rendering="optimizeSpeed" fill="#000000">200904 (53485)</text>
  <rect fill="blue" height="61.5" stroke="black" width="12" x="90" y="30471.9"/>
  <text x="90" y="30538.4" font-family="Tahoma" font-size="12" transform="rotate(90 90,30538.4)" text-rendering="optimizeSpeed" fill="#000000">200905 (61510)</text>
  <rect fill="blue" height="75.2" stroke="black" width="12" x="105" y="30458.3"/>
  <text x="105" y="30538.4" font-family="Tahoma" font-size="12" transform="rotate(90 105,30538.4)" text-rendering="optimizeSpeed" fill="#000000">200906 (75188)</text>
  <rect fill="blue" height="88.0" stroke="black" width="12" x="120" y="30445.5"/>
  <text x="120" y="30538.4" font-family="Tahoma" font-size="12" transform="rotate(90 120,30538.4)" text-rendering="optimizeSpeed" fill="#000000">200907 (87964)</text>
  <rect fill="blue" height="96.5" stroke="black" width="12" x="135" y="30436.9"/>
  <text x="135" y="30538.4" font-family="Tahoma" font-size="12" transform="rotate(90 135,30538.4)" text-rendering="optimizeSpeed" fill="#000000">200908 (96515)</text>
  <rect fill="blue" height="108.0" stroke="black" width="12" x="150" y="30425.4"/>
  <text x="150" y="30538.4" font-family="Tahoma" font-size="12" transform="rotate(90 150,30538.4)" text-rendering="optimizeSpeed" fill="#000000">200909 (108016)</text>
  <rect fill="blue" height="117.0" stroke="black" width="12" x="165" y="30416.5"/>
  <text x="165" y="30538.4" font-family="Tahoma" font-size="12" transform="rotate(90 165,30538.4)" text-rendering="optimizeSpeed" fill="#000000">200910 (116971)</text>
  <rect fill="blue" height="136.5" stroke="black" width="12" x="180" y="30397.0"/>
  <text x="180" y="30538.4" font-family="Tahoma" font-size="12" transform="rotate(90 180,30538.4)" text-rendering="optimizeSpeed" fill="#000000">200911 (136469)</text>
  <rect fill="blue" height="142.7" stroke="black" width="12" x="195" y="30390.8"/>
  <text x="195" y="30538.4" font-family="Tahoma" font-size="12" transform="rotate(90 195,30538.4)" text-rendering="optimizeSpeed" fill="#000000">200912 (142686)</text>
  <rect fill="blue" height="162.9" stroke="black" width="12" x="210" y="30370.6"/>
  <text x="210" y="30538.4" font-family="Tahoma" font-size="12" transform="rotate(90 210,30538.4)" text-rendering="optimizeSpeed" fill="#000000">201001 (162882)</text>
  <rect fill="blue" height="185.5" stroke="black" width="12" x="225" y="30348.0"/>
  <text x="225" y="30538.4" font-family="Tahoma" font-size="12" transform="rotate(90 225,30538.4)" text-rendering="optimizeSpeed" fill="#000000">201002 (185486)</text>
  <rect fill="blue" height="214.4" stroke="black" width="12" x="240" y="30319.0"/>
  <text x="240" y="30538.4" font-family="Tahoma" font-size="12" transform="rotate(90 240,30538.4)" text-rendering="optimizeSpeed" fill="#000000">201003 (214410)</text>
  <rect fill="blue" height="224.2" stroke="black" width="12" x="255" y="30309.2"/>
  <text x="255" y="30538.4" font-family="Tahoma" font-size="12" transform="rotate(90 255,30538.4)" text-rendering="optimizeSpeed" fill="#000000">201004 (224220)</text>
  <rect fill="blue" height="233.7" stroke="black" width="12" x="270" y="30299.8"/>
  <text x="270" y="30538.4" font-family="Tahoma" font-size="12" transform="rotate(90 270,30538.4)" text-rendering="optimizeSpeed" fill="#000000">201005 (233691)</text>
  <rect fill="blue" height="244.5" stroke="black" width="12" x="285" y="30289.0"/>
  <text x="285" y="30538.4" font-family="Tahoma" font-size="12" transform="rotate(90 285,30538.4)" text-rendering="optimizeSpeed" fill="#000000">201006 (244483)</text>
  <rect fill="blue" height="254.5" stroke="black" width="12" x="300" y="30278.9"/>
  <text x="300" y="30538.4" font-family="Tahoma" font-size="12" transform="rotate(90 300,30538.4)" text-rendering="optimizeSpeed" fill="#000000">201007 (254528)</text>
  <rect fill="blue" height="108.2" stroke="black" width="12" x="315" y="30425.3"/>
  <text x="315" y="30538.4" font-family="Tahoma" font-size="12" transform="rotate(90 315,30538.4)" text-rendering="optimizeSpeed" fill="#000000">201008 (108172)</text>
  <rect fill="blue" height="157.4" stroke="black" width="12" x="330" y="30376.0"/>
  <text x="330" y="30538.4" font-family="Tahoma" font-size="12" transform="rotate(90 330,30538.4)" text-rendering="optimizeSpeed" fill="#000000">201009 (157401)</text>
  <rect fill="blue" height="197.8" stroke="black" width="12" x="345" y="30335.7"/>
  <text x="345" y="30538.4" font-family="Tahoma" font-size="12" transform="rotate(90 345,30538.4)" text-rendering="optimizeSpeed" fill="#000000">201010 (197783)</text>
  <rect fill="blue" height="228.0" stroke="black" width="12" x="360" y="30305.5"/>
  <text x="360" y="30538.4" font-family="Tahoma" font-size="12" transform="rotate(90 360,30538.4)" text-rendering="optimizeSpeed" fill="#000000">201011 (227955)</text>
  <rect fill="blue" height="247.2" stroke="black" width="12" x="375" y="30286.3"/>
  <text x="375" y="30538.4" font-family="Tahoma" font-size="12" transform="rotate(90 375,30538.4)" text-rendering="optimizeSpeed" fill="#000000">201012 (247188)</text>
  <rect fill="blue" height="276.0" stroke="black" width="12" x="390" y="30257.4"/>
  <text x="390" y="30538.4" font-family="Tahoma" font-size="12" transform="rotate(90 390,30538.4)" text-rendering="optimizeSpeed" fill="#000000">201101 (276040)</text>
  <rect fill="blue" height="285.7" stroke="black" width="12" x="405" y="30247.7"/>
  <text x="405" y="30538.4" font-family="Tahoma" font-size="12" transform="rotate(90 405,30538.4)" text-rendering="optimizeSpeed" fill="#000000">201102 (285703)</text>
  <rect fill="blue" height="303.1" stroke="black" width="12" x="420" y="30230.4"/>
  <text x="420" y="30538.4" font-family="Tahoma" font-size="12" transform="rotate(90 420,30538.4)" text-rendering="optimizeSpeed" fill="#000000">201103 (303090)</text>
  <rect fill="blue" height="302.3" stroke="black" width="12" x="435" y="30231.2"/>
  <text x="435" y="30538.4" font-family="Tahoma" font-size="12" transform="rotate(90 435,30538.4)" text-rendering="optimizeSpeed" fill="#000000">201104 (302280)</text>
  <rect fill="blue" height="319.8" stroke="black" width="12" x="450" y="30213.7"/>
  <text x="450" y="30538.4" font-family="Tahoma" font-size="12" transform="rotate(90 450,30538.4)" text-rendering="optimizeSpeed" fill="#000000">201105 (319775)</text>
  <rect fill="blue" height="331.9" stroke="black" width="12" x="465" y="30201.5"/>
  <text x="465" y="30538.4" font-family="Tahoma" font-size="12" transform="rotate(90 465,30538.4)" text-rendering="optimizeSpeed" fill="#000000">201106 (331948)</text>
  <rect fill="blue" height="337.8" stroke="black" width="12" x="480" y="30195.7"/>
  <text x="480" y="30538.4" font-family="Tahoma" font-size="12" transform="rotate(90 480,30538.4)" text-rendering="optimizeSpeed" fill="#000000">201107 (337757)</text>
  <rect fill="blue" height="362.7" stroke="black" width="12" x="495" y="30170.8"/>
  <text x="495" y="30538.4" font-family="Tahoma" font-size="12" transform="rotate(90 495,30538.4)" text-rendering="optimizeSpeed" fill="#000000">201108 (362689)</text>
  <rect fill="blue" height="387.9" stroke="black" width="12" x="510" y="30145.5"/>
  <text x="510" y="30538.4" font-family="Tahoma" font-size="12" transform="rotate(90 510,30538.4)" text-rendering="optimizeSpeed" fill="#000000">201109 (387897)</text>
  <rect fill="blue" height="415.4" stroke="black" width="12" x="525" y="30118.0"/>
  <text x="525" y="30538.4" font-family="Tahoma" font-size="12" transform="rotate(90 525,30538.4)" text-rendering="optimizeSpeed" fill="#000000">201110 (415439)</text>
  <rect fill="blue" height="441.1" stroke="black" width="12" x="540" y="30092.4"/>
  <text x="540" y="30538.4" font-family="Tahoma" font-size="12" transform="rotate(90 540,30538.4)" text-rendering="optimizeSpeed" fill="#000000">201111 (441069)</text>
  <rect fill="blue" height="441.8" stroke="black" width="12" x="555" y="30091.7"/>
  <text x="555" y="30538.4" font-family="Tahoma" font-size="12" transform="rotate(90 555,30538.4)" text-rendering="optimizeSpeed" fill="#000000">201112 (441775)</text>
  <rect fill="blue" height="547.0" stroke="black" width="12" x="570" y="29986.4"/>
  <text x="570" y="30538.4" font-family="Tahoma" font-size="12" transform="rotate(90 570,30538.4)" text-rendering="optimizeSpeed" fill="#000000">201201 (547028)</text>
  <rect fill="blue" height="591.5" stroke="black" width="12" x="585" y="29942.0"/>
  <text x="585" y="30538.4" font-family="Tahoma" font-size="12" transform="rotate(90 585,30538.4)" text-rendering="optimizeSpeed" fill="#000000">201202 (591493)</text>
  <rect fill="blue" height="640.0" stroke="black" width="12" x="600" y="29893.5"/>
  <text x="600" y="30538.4" font-family="Tahoma" font-size="12" transform="rotate(90 600,30538.4)" text-rendering="optimizeSpeed" fill="#000000">201203 (639959)</text>
  <rect fill="blue" height="659.5" stroke="black" width="12" x="615" y="29874.0"/>
  <text x="615" y="30538.4" font-family="Tahoma" font-size="12" transform="rotate(90 615,30538.4)" text-rendering="optimizeSpeed" fill="#000000">201204 (659489)</text>
  <rect fill="blue" height="706.3" stroke="black" width="12" x="630" y="29827.1"/>
  <text x="630" y="30538.4" font-family="Tahoma" font-size="12" transform="rotate(90 630,30538.4)" text-rendering="optimizeSpeed" fill="#000000">201205 (706325)</text>
  <rect fill="blue" height="750.6" stroke="black" width="12" x="645" y="29782.9"/>
  <text x="645" y="30538.4" font-family="Tahoma" font-size="12" transform="rotate(90 645,30538.4)" text-rendering="optimizeSpeed" fill="#000000">201206 (750590)</text>
  <rect fill="blue" height="813.3" stroke="black" width="12" x="660" y="29720.1"/>
  <text x="660" y="30538.4" font-family="Tahoma" font-size="12" transform="rotate(90 660,30538.4)" text-rendering="optimizeSpeed" fill="#000000">201207 (813343)</text>
  <rect fill="blue" height="862.4" stroke="black" width="12" x="675" y="29671.1"/>
  <text x="675" y="30538.4" font-family="Tahoma" font-size="12" transform="rotate(90 675,30538.4)" text-rendering="optimizeSpeed" fill="#000000">201208 (862372)</text>
  <rect fill="blue" height="902.8" stroke="black" width="12" x="690" y="29630.7"/>
  <text x="690" y="30538.4" font-family="Tahoma" font-size="12" transform="rotate(90 690,30538.4)" text-rendering="optimizeSpeed" fill="#000000">201209 (902757)</text>
  <rect fill="blue" height="994.0" stroke="black" width="12" x="705" y="29539.5"/>
  <text x="705" y="30538.4" font-family="Tahoma" font-size="12" transform="rotate(90 705,30538.4)" text-rendering="optimizeSpeed" fill="#000000">201210 (993980)</text>
  <rect fill="blue" height="1030.3" stroke="black" width="12" x="720" y="29503.1"/>
  <text x="720" y="30538.4" font-family="Tahoma" font-size="12" transform="rotate(90 720,30538.4)" text-rendering="optimizeSpeed" fill="#000000">201211 (1030321)</text>
  <rect fill="blue" height="1025.4" stroke="black" width="12" x="735" y="29508.0"/>
  <text x="735" y="30538.4" font-family="Tahoma" font-size="12" transform="rotate(90 735,30538.4)" text-rendering="optimizeSpeed" fill="#000000">201212 (1025400)</text>
  <rect fill="blue" height="1144.2" stroke="black" width="12" x="750" y="29389.2"/>
  <text x="750" y="30538.4" font-family="Tahoma" font-size="12" transform="rotate(90 750,30538.4)" text-rendering="optimizeSpeed" fill="#000000">201301 (1144220)</text>
  <rect fill="blue" height="1184.9" stroke="black" width="12" x="765" y="29348.6"/>
  <text x="765" y="30538.4" font-family="Tahoma" font-size="12" transform="rotate(90 765,30538.4)" text-rendering="optimizeSpeed" fill="#000000">201302 (1184890)</text>
  <rect fill="blue" height="1302.0" stroke="black" width="12" x="780" y="29231.4"/>
  <text x="780" y="30538.4" font-family="Tahoma" font-size="12" transform="rotate(90 780,30538.4)" text-rendering="optimizeSpeed" fill="#000000">201303 (1302009)</text>
  <rect fill="blue" height="1408.2" stroke="black" width="12" x="795" y="29125.3"/>
  <text x="795" y="30538.4" font-family="Tahoma" font-size="12" transform="rotate(90 795,30538.4)" text-rendering="optimizeSpeed" fill="#000000">201304 (1408177)</text>
  <rect fill="blue" height="1473.9" stroke="black" width="12" x="810" y="29059.6"/>
  <text x="810" y="30538.4" font-family="Tahoma" font-size="12" transform="rotate(90 810,30538.4)" text-rendering="optimizeSpeed" fill="#000000">201305 (1473859)</text>
  <rect fill="blue" height="1519.5" stroke="black" width="12" x="825" y="29014.0"/>
  <text x="825" y="30538.4" font-family="Tahoma" font-size="12" transform="rotate(90 825,30538.4)" text-rendering="optimizeSpeed" fill="#000000">201306 (1519492)</text>
  <rect fill="blue" height="1621.6" stroke="black" width="12" x="840" y="28911.9"/>
  <text x="840" y="30538.4" font-family="Tahoma" font-size="12" transform="rotate(90 840,30538.4)" text-rendering="optimizeSpeed" fill="#000000">201307 (1621562)</text>
  <rect fill="blue" height="1645.4" stroke="black" width="12" x="855" y="28888.1"/>
  <text x="855" y="30538.4" font-family="Tahoma" font-size="12" transform="rotate(90 855,30538.4)" text-rendering="optimizeSpeed" fill="#000000">201308 (1645357)</text>
  <rect fill="blue" height="1705.5" stroke="black" width="12" x="870" y="28827.9"/>
  <text x="870" y="30538.4" font-family="Tahoma" font-size="12" transform="rotate(90 870,30538.4)" text-rendering="optimizeSpeed" fill="#000000">201309 (1705497)</text>
  <rect fill="blue" height="1843.9" stroke="black" width="12" x="885" y="28689.6"/>
  <text x="885" y="30538.4" font-family="Tahoma" font-size="12" transform="rotate(90 885,30538.4)" text-rendering="optimizeSpeed" fill="#000000">201310 (1843873)</text>
  <rect fill="blue" height="1877.2" stroke="black" width="12" x="900" y="28656.2"/>
  <text x="900" y="30538.4" font-family="Tahoma" font-size="12" transform="rotate(90 900,30538.4)" text-rendering="optimizeSpeed" fill="#000000">201311 (1877250)</text>
  <rect fill="blue" height="1865.4" stroke="black" width="12" x="915" y="28668.0"/>
  <text x="915" y="30538.4" font-family="Tahoma" font-size="12" transform="rotate(90 915,30538.4)" text-rendering="optimizeSpeed" fill="#000000">201312 (1865407)</text>
  <rect fill="blue" height="2024.5" stroke="black" width="12" x="930" y="28508.9"/>
  <text x="930" y="30538.4" font-family="Tahoma" font-size="12" transform="rotate(90 930,30538.4)" text-rendering="optimizeSpeed" fill="#000000">201401 (2024535)</text>
  <rect fill="blue" height="2114.3" stroke="black" width="12" x="945" y="28419.1"/>
  <text x="945" y="30538.4" font-family="Tahoma" font-size="12" transform="rotate(90 945,30538.4)" text-rendering="optimizeSpeed" fill="#000000">201402 (2114301)</text>
  <rect fill="blue" height="2267.0" stroke="black" width="12" x="960" y="28266.5"/>
  <text x="960" y="30538.4" font-family="Tahoma" font-size="12" transform="rotate(90 960,30538.4)" text-rendering="optimizeSpeed" fill="#000000">201403 (2266979)</text>
  <rect fill="blue" height="2348.8" stroke="black" width="12" x="975" y="28184.6"/>
  <text x="975" y="30538.4" font-family="Tahoma" font-size="12" transform="rotate(90 975,30538.4)" text-rendering="optimizeSpeed" fill="#000000">201404 (2348850)</text>
  <rect fill="blue" height="2448.5" stroke="black" width="12" x="990" y="28084.9"/>
  <text x="990" y="30538.4" font-family="Tahoma" font-size="12" transform="rotate(90 990,30538.4)" text-rendering="optimizeSpeed" fill="#000000">201405 (2448495)</text>
  <rect fill="blue" height="2529.8" stroke="black" width="12" x="1005" y="28003.7"/>
  <text x="1005" y="30538.4" font-family="Tahoma" font-size="12" transform="rotate(90 1005,30538.4)" text-rendering="optimizeSpeed" fill="#000000">201406 (2529773)</text>
  <rect fill="blue" height="2717.3" stroke="black" width="12" x="1020" y="27816.2"/>
  <text x="1020" y="30538.4" font-family="Tahoma" font-size="12" transform="rotate(90 1020,30538.4)" text-rendering="optimizeSpeed" fill="#000000">201407 (2717277)</text>
  <rect fill="blue" height="2775.8" stroke="black" width="12" x="1035" y="27757.7"/>
  <text x="1035" y="30538.4" font-family="Tahoma" font-size="12" transform="rotate(90 1035,30538.4)" text-rendering="optimizeSpeed" fill="#000000">201408 (2775765)</text>
  <rect fill="blue" height="2957.7" stroke="black" width="12" x="1050" y="27575.8"/>
  <text x="1050" y="30538.4" font-family="Tahoma" font-size="12" transform="rotate(90 1050,30538.4)" text-rendering="optimizeSpeed" fill="#000000">201409 (2957662)</text>
  <rect fill="blue" height="3100.7" stroke="black" width="12" x="1065" y="27432.7"/>
  <text x="1065" y="30538.4" font-family="Tahoma" font-size="12" transform="rotate(90 1065,30538.4)" text-rendering="optimizeSpeed" fill="#000000">201410 (3100735)</text>
  <rect fill="blue" height="3093.4" stroke="black" width="12" x="1080" y="27440.1"/>
  <text x="1080" y="30538.4" font-family="Tahoma" font-size="12" transform="rotate(90 1080,30538.4)" text-rendering="optimizeSpeed" fill="#000000">201411 (3093363)</text>
  <rect fill="blue" height="3166.7" stroke="black" width="12" x="1095" y="27366.7"/>
  <text x="1095" y="30538.4" font-family="Tahoma" font-size="12" transform="rotate(90 1095,30538.4)" text-rendering="optimizeSpeed" fill="#000000">201412 (3166746)</text>
  <rect fill="blue" height="3325.9" stroke="black" width="12" x="1110" y="27207.5"/>
  <text x="1110" y="30538.4" font-family="Tahoma" font-size="12" transform="rotate(90 1110,30538.4)" text-rendering="optimizeSpeed" fill="#000000">201501 (3325911)</text>
  <rect fill="blue" height="3397.5" stroke="black" width="12" x="1125" y="27135.9"/>
  <text x="1125" y="30538.4" font-family="Tahoma" font-size="12" transform="rotate(90 1125,30538.4)" text-rendering="optimizeSpeed" fill="#000000">201502 (3397533)</text>
  <rect fill="blue" height="3699.7" stroke="black" width="12" x="1140" y="26833.8"/>
  <text x="1140" y="30538.4" font-family="Tahoma" font-size="12" transform="rotate(90 1140,30538.4)" text-rendering="optimizeSpeed" fill="#000000">201503 (3699686)</text>
  <rect fill="blue" height="3733.8" stroke="black" width="12" x="1155" y="26799.7"/>
  <text x="1155" y="30538.4" font-family="Tahoma" font-size="12" transform="rotate(90 1155,30538.4)" text-rendering="optimizeSpeed" fill="#000000">201504 (3733750)</text>
  <rect fill="blue" height="3773.1" stroke="black" width="12" x="1170" y="26760.4"/>
  <text x="1170" y="30538.4" font-family="Tahoma" font-size="12" transform="rotate(90 1170,30538.4)" text-rendering="optimizeSpeed" fill="#000000">201505 (3773052)</text>
  <rect fill="blue" height="3982.0" stroke="black" width="12" x="1185" y="26551.4"/>
  <text x="1185" y="30538.4" font-family="Tahoma" font-size="12" transform="rotate(90 1185,30538.4)" text-rendering="optimizeSpeed" fill="#000000">201506 (3982042)</text>
  <rect fill="blue" height="4134.1" stroke="black" width="12" x="1200" y="26399.3"/>
  <text x="1200" y="30538.4" font-family="Tahoma" font-size="12" transform="rotate(90 1200,30538.4)" text-rendering="optimizeSpeed" fill="#000000">201507 (4134106)</text>
  <rect fill="blue" height="4142.7" stroke="black" width="12" x="1215" y="26390.8"/>
  <text x="1215" y="30538.4" font-family="Tahoma" font-size="12" transform="rotate(90 1215,30538.4)" text-rendering="optimizeSpeed" fill="#000000">201508 (4142666)</text>
  <rect fill="blue" height="4310.0" stroke="black" width="12" x="1230" y="26223.4"/>
  <text x="1230" y="30538.4" font-family="Tahoma" font-size="12" transform="rotate(90 1230,30538.4)" text-rendering="optimizeSpeed" fill="#000000">201509 (4309997)</text>
  <rect fill="blue" height="4467.9" stroke="black" width="12" x="1245" y="26065.5"/>
  <text x="1245" y="30538.4" font-family="Tahoma" font-size="12" transform="rotate(90 1245,30538.4)" text-rendering="optimizeSpeed" fill="#000000">201510 (4467950)</text>
  <rect fill="blue" height="4554.7" stroke="black" width="12" x="1260" y="25978.8"/>
  <text x="1260" y="30538.4" font-family="Tahoma" font-size="12" transform="rotate(90 1260,30538.4)" text-rendering="optimizeSpeed" fill="#000000">201511 (4554678)</text>
  <rect fill="blue" height="4584.2" stroke="black" width="12" x="1275" y="25949.2"/>
  <text x="1275" y="30538.4" font-family="Tahoma" font-size="12" transform="rotate(90 1275,30538.4)" text-rendering="optimizeSpeed" fill="#000000">201512 (4584199)</text>
  <rect fill="blue" height="4614.9" stroke="black" width="12" x="1290" y="25918.6"/>
  <text x="1290" y="30538.4" font-family="Tahoma" font-size="12" transform="rotate(90 1290,30538.4)" text-rendering="optimizeSpeed" fill="#000000">201601 (4614874)</text>
  <rect fill="blue" height="4021.1" stroke="black" width="12" x="1305" y="26512.3"/>
  <text x="1305" y="30538.4" font-family="Tahoma" font-size="12" transform="rotate(90 1305,30538.4)" text-rendering="optimizeSpeed" fill="#000000">201602 (4021097)</text>
  <rect fill="blue" height="4085.9" stroke="black" width="12" x="1320" y="26447.5"/>
  <text x="1320" y="30538.4" font-family="Tahoma" font-size="12" transform="rotate(90 1320,30538.4)" text-rendering="optimizeSpeed" fill="#000000">201603 (4085941)</text>
  <rect fill="blue" height="4816.1" stroke="black" width="12" x="1335" y="25717.3"/>
  <text x="1335" y="30538.4" font-family="Tahoma" font-size="12" transform="rotate(90 1335,30538.4)" text-rendering="optimizeSpeed" fill="#000000">201604 (4816129)</text>
  <rect fill="blue" height="5552.5" stroke="black" width="12" x="1350" y="24981.0"/>
  <text x="1350" y="30538.4" font-family="Tahoma" font-size="12" transform="rotate(90 1350,30538.4)" text-rendering="optimizeSpeed" fill="#000000">201605 (5552490)</text>
  <rect fill="blue" height="6030.8" stroke="black" width="12" x="1365" y="24502.7"/>
  <text x="1365" y="30538.4" font-family="Tahoma" font-size="12" transform="rotate(90 1365,30538.4)" text-rendering="optimizeSpeed" fill="#000000">201606 (6030772)</text>
  <rect fill="blue" height="6113.9" stroke="black" width="12" x="1380" y="24419.6"/>
  <text x="1380" y="30538.4" font-family="Tahoma" font-size="12" transform="rotate(90 1380,30538.4)" text-rendering="optimizeSpeed" fill="#000000">201607 (6113868)</text>
  <rect fill="blue" height="6613.8" stroke="black" width="12" x="1395" y="23919.6"/>
  <text x="1395" y="30538.4" font-family="Tahoma" font-size="12" transform="rotate(90 1395,30538.4)" text-rendering="optimizeSpeed" fill="#000000">201608 (6613817)</text>
  <rect fill="blue" height="6832.4" stroke="black" width="12" x="1410" y="23701.1"/>
  <text x="1410" y="30538.4" font-family="Tahoma" font-size="12" transform="rotate(90 1410,30538.4)" text-rendering="optimizeSpeed" fill="#000000">201609 (6832380)</text>
  <rect fill="blue" height="7046.5" stroke="black" width="12" x="1425" y="23487.0"/>
  <text x="1425" y="30538.4" font-family="Tahoma" font-size="12" transform="rotate(90 1425,30538.4)" text-rendering="optimizeSpeed" fill="#000000">201610 (7046486)</text>
  <rect fill="blue" height="7499.2" stroke="black" width="12" x="1440" y="23034.3"/>
  <text x="1440" y="30538.4" font-family="Tahoma" font-size="12" transform="rotate(90 1440,30538.4)" text-rendering="optimizeSpeed" fill="#000000">201611 (7499154)</text>
  <rect fill="blue" height="7592.4" stroke="black" width="12" x="1455" y="22941.0"/>
  <text x="1455" y="30538.4" font-family="Tahoma" font-size="12" transform="rotate(90 1455,30538.4)" text-rendering="optimizeSpeed" fill="#000000">201612 (7592413)</text>
  <rect fill="blue" height="8301.0" stroke="black" width="12" x="1470" y="22232.4"/>
  <text x="1470" y="30538.4" font-family="Tahoma" font-size="12" transform="rotate(90 1470,30538.4)" text-rendering="optimizeSpeed" fill="#000000">201701 (8301038)</text>
  <rect fill="blue" height="8565.3" stroke="black" width="12" x="1485" y="21968.1"/>
  <text x="1485" y="30538.4" font-family="Tahoma" font-size="12" transform="rotate(90 1485,30538.4)" text-rendering="optimizeSpeed" fill="#000000">201702 (8565320)</text>
  <rect fill="blue" height="9468.3" stroke="black" width="12" x="1500" y="21065.2"/>
  <text x="1500" y="30538.4" font-family="Tahoma" font-size="12" transform="rotate(90 1500,30538.4)" text-rendering="optimizeSpeed" fill="#000000">201703 (9468282)</text>
  <rect fill="blue" height="9396.3" stroke="black" width="12" x="1515" y="21137.2"/>
  <text x="1515" y="30538.4" font-family="Tahoma" font-size="12" transform="rotate(90 1515,30538.4)" text-rendering="optimizeSpeed" fill="#000000">201704 (9396264)</text>
  <rect fill="blue" height="10028.8" stroke="black" width="12" x="1530" y="20504.6"/>
  <text x="1530" y="30538.4" font-family="Tahoma" font-size="12" transform="rotate(90 1530,30538.4)" text-rendering="optimizeSpeed" fill="#000000">201705 (10028830)</text>
  <rect fill="blue" height="10300.5" stroke="black" width="12" x="1545" y="20233.0"/>
  <text x="1545" y="30538.4" font-family="Tahoma" font-size="12" transform="rotate(90 1545,30538.4)" text-rendering="optimizeSpeed" fill="#000000">201706 (10300469)</text>
  <rect fill="blue" height="10461.1" stroke="black" width="12" x="1560" y="20072.4"/>
  <text x="1560" y="30538.4" font-family="Tahoma" font-size="12" transform="rotate(90 1560,30538.4)" text-rendering="optimizeSpeed" fill="#000000">201707 (10461081)</text>
  <rect fill="blue" height="11010.2" stroke="black" width="12" x="1575" y="19523.3"/>
  <text x="1575" y="30538.4" font-family="Tahoma" font-size="12" transform="rotate(90 1575,30538.4)" text-rendering="optimizeSpeed" fill="#000000">201708 (11010177)</text>
  <rect fill="blue" height="11212.5" stroke="black" width="12" x="1590" y="19321.0"/>
  <text x="1590" y="30538.4" font-family="Tahoma" font-size="12" transform="rotate(90 1590,30538.4)" text-rendering="optimizeSpeed" fill="#000000">201709 (11212482)</text>
  <rect fill="blue" height="11532.7" stroke="black" width="12" x="1605" y="19000.8"/>
  <text x="1605" y="30538.4" font-family="Tahoma" font-size="12" transform="rotate(90 1605,30538.4)" text-rendering="optimizeSpeed" fill="#000000">201710 (11532663)</text>
  <rect fill="blue" height="12107.5" stroke="black" width="12" x="1620" y="18425.9"/>
  <text x="1620" y="30538.4" font-family="Tahoma" font-size="12" transform="rotate(90 1620,30538.4)" text-rendering="optimizeSpeed" fill="#000000">201711 (12107519)</text>
  <rect fill="blue" height="11660.9" stroke="black" width="12" x="1635" y="18872.5"/>
  <text x="1635" y="30538.4" font-family="Tahoma" font-size="12" transform="rotate(90 1635,30538.4)" text-rendering="optimizeSpeed" fill="#000000">201712 (11660932)</text>
  <rect fill="blue" height="12376.2" stroke="black" width="12" x="1650" y="18157.2"/>
  <text x="1650" y="30538.4" font-family="Tahoma" font-size="12" transform="rotate(90 1650,30538.4)" text-rendering="optimizeSpeed" fill="#000000">201801 (12376243)</text>
  <rect fill="blue" height="12146.7" stroke="black" width="12" x="1665" y="18386.7"/>
  <text x="1665" y="30538.4" font-family="Tahoma" font-size="12" transform="rotate(90 1665,30538.4)" text-rendering="optimizeSpeed" fill="#000000">201802 (12146721)</text>
  <rect fill="blue" height="13142.4" stroke="black" width="12" x="1680" y="17391.1"/>
  <text x="1680" y="30538.4" font-family="Tahoma" font-size="12" transform="rotate(90 1680,30538.4)" text-rendering="optimizeSpeed" fill="#000000">201803 (13142361)</text>
  <rect fill="blue" height="13253.0" stroke="black" width="12" x="1695" y="17280.4"/>
  <text x="1695" y="30538.4" font-family="Tahoma" font-size="12" transform="rotate(90 1695,30538.4)" text-rendering="optimizeSpeed" fill="#000000">201804 (13253020)</text>
  <rect fill="blue" height="13525.8" stroke="black" width="12" x="1710" y="17007.6"/>
  <text x="1710" y="30538.4" font-family="Tahoma" font-size="12" transform="rotate(90 1710,30538.4)" text-rendering="optimizeSpeed" fill="#000000">201805 (13525829)</text>
  <rect fill="blue" height="13997.9" stroke="black" width="12" x="1725" y="16535.5"/>
  <text x="1725" y="30538.4" font-family="Tahoma" font-size="12" transform="rotate(90 1725,30538.4)" text-rendering="optimizeSpeed" fill="#000000">201806 (13997924)</text>
  <rect fill="blue" height="14868.3" stroke="black" width="12" x="1740" y="15665.1"/>
  <text x="1740" y="30538.4" font-family="Tahoma" font-size="12" transform="rotate(90 1740,30538.4)" text-rendering="optimizeSpeed" fill="#000000">201807 (14868296)</text>
  <rect fill="blue" height="15367.8" stroke="black" width="12" x="1755" y="15165.7"/>
  <text x="1755" y="30538.4" font-family="Tahoma" font-size="12" transform="rotate(90 1755,30538.4)" text-rendering="optimizeSpeed" fill="#000000">201808 (15367773)</text>
  <rect fill="blue" height="16294.6" stroke="black" width="12" x="1770" y="14238.9"/>
  <text x="1770" y="30538.4" font-family="Tahoma" font-size="12" transform="rotate(90 1770,30538.4)" text-rendering="optimizeSpeed" fill="#000000">201809 (16294587)</text>
  <rect fill="blue" height="18335.7" stroke="black" width="12" x="1785" y="12197.8"/>
  <text x="1785" y="30538.4" font-family="Tahoma" font-size="12" transform="rotate(90 1785,30538.4)" text-rendering="optimizeSpeed" fill="#000000">201810 (18335652)</text>
  <rect fill="blue" height="19160.4" stroke="black" width="12" x="1800" y="11373.0"/>
  <text x="1800" y="30538.4" font-family="Tahoma" font-size="12" transform="rotate(90 1800,30538.4)" text-rendering="optimizeSpeed" fill="#000000">201811 (19160421)</text>
  <rect fill="blue" height="18962.2" stroke="black" width="12" x="1815" y="11571.3"/>
  <text x="1815" y="30538.4" font-family="Tahoma" font-size="12" transform="rotate(90 1815,30538.4)" text-rendering="optimizeSpeed" fill="#000000">201812 (18962186)</text>
  <rect fill="blue" height="20230.5" stroke="black" width="12" x="1830" y="10303.0"/>
  <text x="1830" y="30538.4" font-family="Tahoma" font-size="12" transform="rotate(90 1830,30538.4)" text-rendering="optimizeSpeed" fill="#000000">201901 (20230476)</text>
  <rect fill="blue" height="20125.6" stroke="black" width="12" x="1845" y="10407.8"/>
  <text x="1845" y="30538.4" font-family="Tahoma" font-size="12" transform="rotate(90 1845,30538.4)" text-rendering="optimizeSpeed" fill="#000000">201902 (20125615)</text>
  <rect fill="blue" height="22158.8" stroke="black" width="12" x="1860" y="8374.6"/>
  <text x="1860" y="30538.4" font-family="Tahoma" font-size="12" transform="rotate(90 1860,30538.4)" text-rendering="optimizeSpeed" fill="#000000">201903 (22158819)</text>
  <rect fill="blue" height="22344.9" stroke="black" width="12" x="1875" y="8188.5"/>
  <text x="1875" y="30538.4" font-family="Tahoma" font-size="12" transform="rotate(90 1875,30538.4)" text-rendering="optimizeSpeed" fill="#000000">201904 (22344941)</text>
  <rect fill="blue" height="22902.1" stroke="black" width="12" x="1890" y="7631.3"/>
  <text x="1890" y="30538.4" font-family="Tahoma" font-size="12" transform="rotate(90 1890,30538.4)" text-rendering="optimizeSpeed" fill="#000000">201905 (22902138)</text>
  <rect fill="blue" height="22528.2" stroke="black" width="12" x="1905" y="8005.3"/>
  <text x="1905" y="30538.4" font-family="Tahoma" font-size="12" transform="rotate(90 1905,30538.4)" text-rendering="optimizeSpeed" fill="#000000">201906 (22528180)</text>
  <rect fill="blue" height="23859.9" stroke="black" width="12" x="1920" y="6673.5"/>
  <text x="1920" y="30538.4" font-family="Tahoma" font-size="12" transform="rotate(90 1920,30538.4)" text-rendering="optimizeSpeed" fill="#000000">201907 (23859915)</text>
  <rect fill="blue" height="23711.0" stroke="black" width="12" x="1935" y="6822.4"/>
  <text x="1935" y="30538.4" font-family="Tahoma" font-size="12" transform="rotate(90 1935,30538.4)" text-rendering="optimizeSpeed" fill="#000000">201908 (23711011)</text>
  <rect fill="blue" height="24126.8" stroke="black" width="12" x="1950" y="6406.7"/>
  <text x="1950" y="30538.4" font-family="Tahoma" font-size="12" transform="rotate(90 1950,30538.4)" text-rendering="optimizeSpeed" fill="#000000">201909 (24126768)</text>
  <rect fill="blue" height="24455.7" stroke="black" width="12" x="1965" y="6077.7"/>
  <text x="1965" y="30538.4" font-family="Tahoma" font-size="12" transform="rotate(90 1965,30538.4)" text-rendering="optimizeSpeed" fill="#000000">201910 (24455708)</text>
  <rect fill="blue" height="24599.9" stroke="black" width="12" x="1980" y="5933.6"/>
  <text x="1980" y="30538.4" font-family="Tahoma" font-size="12" transform="rotate(90 1980,30538.4)" text-rendering="optimizeSpeed" fill="#000000">201911 (24599859)</text>
  <rect fill="blue" height="24150.0" stroke="black" width="12" x="1995" y="6383.4"/>
  <text x="1995" y="30538.4" font-family="Tahoma" font-size="12" transform="rotate(90 1995,30538.4)" text-rendering="optimizeSpeed" fill="#000000">201912 (24150002)</text>
  <rect fill="blue" height="24610.3" stroke="black" width="12" x="2010" y="5923.2"/>
  <text x="2010" y="30538.4" font-family="Tahoma" font-size="12" transform="rotate(90 2010,30538.4)" text-rendering="optimizeSpeed" fill="#000000">202001 (24610276)</text>
  <rect fill="blue" height="24260.1" stroke="black" width="12" x="2025" y="6273.3"/>
  <text x="2025" y="30538.4" font-family="Tahoma" font-size="12" transform="rotate(90 2025,30538.4)" text-rendering="optimizeSpeed" fill="#000000">202002 (24260113)</text>
  <rect fill="blue" height="25855.5" stroke="black" width="12" x="2040" y="4677.9"/>
  <text x="2040" y="30538.4" font-family="Tahoma" font-size="12" transform="rotate(90 2040,30538.4)" text-rendering="optimizeSpeed" fill="#000000">202003 (25855547)</text>
  <rect fill="blue" height="25661.6" stroke="black" width="12" x="2055" y="4871.9"/>
  <text x="2055" y="30538.4" font-family="Tahoma" font-size="12" transform="rotate(90 2055,30538.4)" text-rendering="optimizeSpeed" fill="#000000">202004 (25661586)</text>
  <rect fill="blue" height="25836.6" stroke="black" width="12" x="2070" y="4696.9"/>
  <text x="2070" y="30538.4" font-family="Tahoma" font-size="12" transform="rotate(90 2070,30538.4)" text-rendering="optimizeSpeed" fill="#000000">202005 (25836574)</text>
  <rect fill="blue" height="26200.1" stroke="black" width="12" x="2085" y="4333.3"/>
  <text x="2085" y="30538.4" font-family="Tahoma" font-size="12" transform="rotate(90 2085,30538.4)" text-rendering="optimizeSpeed" fill="#000000">202006 (26200107)</text>
  <rect fill="blue" height="26394.1" stroke="black" width="12" x="2100" y="4139.4"/>
  <text x="2100" y="30538.4" font-family="Tahoma" font-size="12" transform="rotate(90 2100,30538.4)" text-rendering="optimizeSpeed" fill="#000000">202007 (26394092)</text>
  <rect fill="blue" height="25914.0" stroke="black" width="12" x="2115" y="4619.5"/>
  <text x="2115" y="30538.4" font-family="Tahoma" font-size="12" transform="rotate(90 2115,30538.4)" text-rendering="optimizeSpeed" fill="#000000">202008 (25913985)</text>
  <rect fill="blue" height="26582.7" stroke="black" width="12" x="2130" y="3950.8"/>
  <text x="2130" y="30538.4" font-family="Tahoma" font-size="12" transform="rotate(90 2130,30538.4)" text-rendering="optimizeSpeed" fill="#000000">202009 (26582678)</text>
  <rect fill="blue" height="26608.5" stroke="black" width="12" x="2145" y="3924.9"/>
  <text x="2145" y="30538.4" font-family="Tahoma" font-size="12" transform="rotate(90 2145,30538.4)" text-rendering="optimizeSpeed" fill="#000000">202010 (26608544)</text>
  <rect fill="blue" height="26779.1" stroke="black" width="12" x="2160" y="3754.3"/>
  <text x="2160" y="30538.4" font-family="Tahoma" font-size="12" transform="rotate(90 2160,30538.4)" text-rendering="optimizeSpeed" fill="#000000">202011 (26779103)</text>
  <rect fill="blue" height="26781.4" stroke="black" width="12" x="2175" y="3752.1"/>
  <text x="2175" y="30538.4" font-family="Tahoma" font-size="12" transform="rotate(90 2175,30538.4)" text-rendering="optimizeSpeed" fill="#000000">202012 (26781359)</text>
  <rect fill="blue" height="27175.8" stroke="black" width="12" x="2190" y="3357.6"/>
  <text x="2190" y="30538.4" font-family="Tahoma" font-size="12" transform="rotate(90 2190,30538.4)" text-rendering="optimizeSpeed" fill="#000000">202101 (27175794)</text>
  <rect fill="blue" height="27005.1" stroke="black" width="12" x="2205" y="3528.3"/>
  <text x="2205" y="30538.4" font-family="Tahoma" font-size="12" transform="rotate(90 2205,30538.4)" text-rendering="optimizeSpeed" fill="#000000">202102 (27005131)</text>
  <rect fill="blue" height="29579.0" stroke="black" width="12" x="2220" y="954.5"/>
  <text x="2220" y="30538.4" font-family="Tahoma" font-size="12" transform="rotate(90 2220,30538.4)" text-rendering="optimizeSpeed" fill="#000000">202103 (29578986)</text>
  <rect fill="blue" height="29056.9" stroke="black" width="12" x="2235" y="1476.6"/>
  <text x="2235" y="30538.4" font-family="Tahoma" font-size="12" transform="rotate(90 2235,30538.4)" text-rendering="optimizeSpeed" fill="#000000">202104 (29056865)</text>
  <rect fill="blue" height="28868.5" stroke="black" width="12" x="2250" y="1664.9"/>
  <text x="2250" y="30538.4" font-family="Tahoma" font-size="12" transform="rotate(90 2250,30538.4)" text-rendering="optimizeSpeed" fill="#000000">202105 (28868503)</text>
  <rect fill="blue" height="29667.8" stroke="black" width="12" x="2265" y="865.7"/>
  <text x="2265" y="30538.4" font-family="Tahoma" font-size="12" transform="rotate(90 2265,30538.4)" text-rendering="optimizeSpeed" fill="#000000">202106 (29667791)</text>
  <rect fill="blue" height="28388.1" stroke="black" width="12" x="2280" y="2145.3"/>
  <text x="2280" y="30538.4" font-family="Tahoma" font-size="12" transform="rotate(90 2280,30538.4)" text-rendering="optimizeSpeed" fill="#000000">202107 (28388095)</text>
  <rect fill="blue" height="29654.9" stroke="black" width="12" x="2295" y="878.6"/>
  <text x="2295" y="30538.4" font-family="Tahoma" font-size="12" transform="rotate(90 2295,30538.4)" text-rendering="optimizeSpeed" fill="#000000">202108 (29654864)</text>
  <rect fill="blue" height="29964.7" stroke="black" width="12" x="2310" y="568.8"/>
  <text x="2310" y="30538.4" font-family="Tahoma" font-size="12" transform="rotate(90 2310,30538.4)" text-rendering="optimizeSpeed" fill="#000000">202109 (29964666)</text>
  <rect fill="blue" height="29602.6" stroke="black" width="12" x="2325" y="930.9"/>
  <text x="2325" y="30538.4" font-family="Tahoma" font-size="12" transform="rotate(90 2325,30538.4)" text-rendering="optimizeSpeed" fill="#000000">202110 (29602565)</text>
  <rect fill="blue" height="30056.6" stroke="black" width="12" x="2340" y="476.9"/>
  <text x="2340" y="30538.4" font-family="Tahoma" font-size="12" transform="rotate(90 2340,30538.4)" text-rendering="optimizeSpeed" fill="#000000">202111 (30056551)</text>
  <rect fill="blue" height="30279.8" stroke="black" width="12" x="2355" y="253.7"/>
  <text x="2355" y="30538.4" font-family="Tahoma" font-size="12" transform="rotate(90 2355,30538.4)" text-rendering="optimizeSpeed" fill="#000000">202112 (30279769)</text>
  <rect fill="blue" height="30483.4" stroke="black" width="12" x="2370" y="50.0"/>
  <text x="2370" y="30538.4" font-family="Tahoma" font-size="12" transform="rotate(90 2370,30538.4)" text-rendering="optimizeSpeed" fill="#000000">202201 (30483444)</text>
  <text x="10" y="40" font-family="Tahoma" font-size="20" text-rendering="optimizeSpeed" fill="#000000">Total Plugin installations</text>
</svg>
